solid stl file generated from DOUG
 facet normal 0.074950 -0.114055 0.990643
  outer loop
   vertex -43.867363 -28.528791 656.716675
   vertex -43.873638 -25.957006 657.013245
   vertex -45.861507 -28.516012 656.869019
  endloop
 facet normal -0.069820 -0.014147 -0.997459
  outer loop
   vertex -46.919701 -4.808525 658.391479
   vertex -46.972500 -2.671599 658.364868
   vertex -44.925888 -4.737849 658.250916
  endloop
 facet normal 0.069928 0.014149 0.997452
  outer loop
   vertex -46.919701 -4.808525 658.391479
   vertex -44.978012 -2.623885 658.224365
   vertex -46.972500 -2.671599 658.364868
  endloop
 facet normal 0.069816 0.014249 0.997458
  outer loop
   vertex -44.925888 -4.737849 658.250916
   vertex -44.978012 -2.623885 658.224365
   vertex -46.919701 -4.808525 658.391479
  endloop
 facet normal -0.070624 0.008523 -0.997467
  outer loop
   vertex -44.850368 -6.826513 658.227722
   vertex -46.919701 -4.808525 658.391479
   vertex -44.925888 -4.737849 658.250916
  endloop
 facet normal -0.074681 0.131109 -0.988551
  outer loop
   vertex -43.901741 -31.102030 656.377991
   vertex -45.861507 -28.516012 656.869019
   vertex -43.867363 -28.528791 656.716675
  endloop
 facet normal 0.074764 -0.113913 0.990674
  outer loop
   vertex -45.861507 -28.516012 656.869019
   vertex -43.873638 -25.957006 657.013245
   vertex -45.868053 -25.972952 657.161926
  endloop
 facet normal -0.074952 0.113910 -0.990660
  outer loop
   vertex -45.861507 -28.516012 656.869019
   vertex -45.868053 -25.972952 657.161926
   vertex -43.867363 -28.528791 656.716675
  endloop
 facet normal -0.074764 0.114057 -0.990657
  outer loop
   vertex -43.867363 -28.528791 656.716675
   vertex -45.868053 -25.972952 657.161926
   vertex -43.873638 -25.957006 657.013245
  endloop
 facet normal -0.074902 0.130942 -0.988556
  outer loop
   vertex -45.895134 -31.059914 656.534607
   vertex -45.861507 -28.516012 656.869019
   vertex -43.901741 -31.102030 656.377991
  endloop
 facet normal 0.074510 -0.147851 0.986199
  outer loop
   vertex -43.977734 -33.662834 655.999817
   vertex -43.901741 -31.102030 656.377991
   vertex -45.969868 -33.590351 656.161194
  endloop
 facet normal 0.074364 -0.147732 0.986228
  outer loop
   vertex -45.969868 -33.590351 656.161194
   vertex -43.901741 -31.102030 656.377991
   vertex -45.895134 -31.059914 656.534607
  endloop
 facet normal -0.070444 0.008708 -0.997478
  outer loop
   vertex -46.842396 -6.937706 658.367432
   vertex -46.919701 -4.808525 658.391479
   vertex -44.850368 -6.826513 658.227722
  endloop
 facet normal -0.072184 0.040493 -0.996569
  outer loop
   vertex -44.459293 -13.441243 657.972778
   vertex -46.666473 -10.234688 658.262939
   vertex -44.674442 -10.123494 658.123169
  endloop
 facet normal -0.072155 0.040513 -0.996570
  outer loop
   vertex -46.451321 -13.552437 658.112488
   vertex -46.666473 -10.234688 658.262939
   vertex -44.459293 -13.441243 657.972778
  endloop
 facet normal 0.072185 -0.040511 0.996568
  outer loop
   vertex -46.451321 -13.552437 658.112488
   vertex -44.674442 -10.123494 658.123169
   vertex -46.666473 -10.234688 658.262939
  endloop
 facet normal 0.072154 -0.040495 0.996571
  outer loop
   vertex -44.459293 -13.441243 657.972778
   vertex -44.674442 -10.123494 658.123169
   vertex -46.451321 -13.552437 658.112488
  endloop
 facet normal -0.072825 0.053341 -0.995917
  outer loop
   vertex -44.239166 -16.764574 657.778687
   vertex -46.451321 -13.552437 658.112488
   vertex -44.459293 -13.441243 657.972778
  endloop
 facet normal -0.072856 0.053320 -0.995916
  outer loop
   vertex -46.231167 -16.875767 657.918457
   vertex -46.451321 -13.552437 658.112488
   vertex -44.239166 -16.764574 657.778687
  endloop
 facet normal -0.074515 0.147735 -0.986216
  outer loop
   vertex -45.969868 -33.590351 656.161194
   vertex -45.895134 -31.059914 656.534607
   vertex -43.977734 -33.662834 655.999817
  endloop
 facet normal 0.070630 -0.008701 0.997465
  outer loop
   vertex -46.842396 -6.937706 658.367432
   vertex -44.925888 -4.737849 658.250916
   vertex -46.919701 -4.808525 658.391479
  endloop
 facet normal 0.070434 -0.008530 0.997480
  outer loop
   vertex -44.850368 -6.826513 658.227722
   vertex -44.925888 -4.737849 658.250916
   vertex -46.842396 -6.937706 658.367432
  endloop
 facet normal -0.071480 0.027804 -0.997054
  outer loop
   vertex -44.674442 -10.123494 658.123169
   vertex -46.842396 -6.937706 658.367432
   vertex -44.850368 -6.826513 658.227722
  endloop
 facet normal -0.071509 0.027784 -0.997053
  outer loop
   vertex -46.666473 -10.234688 658.262939
   vertex -46.842396 -6.937706 658.367432
   vertex -44.674442 -10.123494 658.123169
  endloop
 facet normal -0.074361 0.147848 -0.986211
  outer loop
   vertex -43.977734 -33.662834 655.999817
   vertex -45.895134 -31.059914 656.534607
   vertex -43.901741 -31.102030 656.377991
  endloop
 facet normal 0.074897 -0.131109 0.988535
  outer loop
   vertex -43.901741 -31.102030 656.377991
   vertex -43.867363 -28.528791 656.716675
   vertex -45.895134 -31.059914 656.534607
  endloop
 facet normal 0.074763 -0.096460 0.992525
  outer loop
   vertex -43.873638 -25.957006 657.013245
   vertex -43.919640 -23.398943 657.265320
   vertex -45.868053 -25.972952 657.161926
  endloop
 facet normal 0.073670 -0.066542 0.995060
  outer loop
   vertex -44.047596 -20.092901 657.541931
   vertex -44.239166 -16.764574 657.778687
   vertex -46.040859 -20.174881 657.684021
  endloop
 facet normal 0.073531 -0.066469 0.995075
  outer loop
   vertex -46.040859 -20.174881 657.684021
   vertex -44.239166 -16.764574 657.778687
   vertex -46.231167 -16.875767 657.918457
  endloop
 facet normal -0.073667 0.066460 -0.995066
  outer loop
   vertex -46.040859 -20.174881 657.684021
   vertex -46.231167 -16.875767 657.918457
   vertex -44.047596 -20.092901 657.541931
  endloop
 facet normal -0.073535 0.066550 -0.995070
  outer loop
   vertex -44.047596 -20.092901 657.541931
   vertex -46.231167 -16.875767 657.918457
   vertex -44.239166 -16.764574 657.778687
  endloop
 facet normal 0.072857 -0.053338 0.995915
  outer loop
   vertex -44.239166 -16.764574 657.778687
   vertex -44.459293 -13.441243 657.972778
   vertex -46.231167 -16.875767 657.918457
  endloop
 facet normal -0.074160 0.080297 -0.994008
  outer loop
   vertex -43.919640 -23.398943 657.265320
   vertex -46.040859 -20.174881 657.684021
   vertex -44.047596 -20.092901 657.541931
  endloop
 facet normal -0.025613 -0.717170 -0.696428
  outer loop
   vertex -45.496063 13.252296 656.986206
   vertex -47.489902 13.185643 657.128174
   vertex -46.492996 13.218970 657.057190
  endloop
 facet normal 0.025613 0.717170 0.696428
  outer loop
   vertex -47.489902 13.185643 657.128174
   vertex -45.496063 13.252296 656.986206
   vertex -46.492996 13.218970 657.057190
  endloop
 facet normal -0.074763 0.096341 -0.992537
  outer loop
   vertex -45.868053 -25.972952 657.161926
   vertex -45.913784 -23.446684 657.410583
   vertex -43.873638 -25.957006 657.013245
  endloop
 facet normal -0.074611 0.096464 -0.992536
  outer loop
   vertex -43.873638 -25.957006 657.013245
   vertex -45.913784 -23.446684 657.410583
   vertex -43.919640 -23.398943 657.265320
  endloop
 facet normal 0.074609 -0.096345 0.992548
  outer loop
   vertex -45.868053 -25.972952 657.161926
   vertex -43.919640 -23.398943 657.265320
   vertex -45.913784 -23.446684 657.410583
  endloop
 facet normal 0.074330 -0.080289 0.993996
  outer loop
   vertex -43.919640 -23.398943 657.265320
   vertex -44.047596 -20.092901 657.541931
   vertex -45.913784 -23.446684 657.410583
  endloop
 facet normal -0.068214 -0.077544 -0.994653
  outer loop
   vertex -47.112247 3.690536 658.077454
   vertex -47.178219 5.578989 657.934753
   vertex -45.117764 3.738251 657.936951
  endloop
 facet normal 0.068206 0.077543 0.994653
  outer loop
   vertex -47.112247 3.690536 658.077454
   vertex -45.184231 5.641428 657.793152
   vertex -47.178219 5.578989 657.934753
  endloop
 facet normal 0.068214 0.077536 0.994653
  outer loop
   vertex -45.117764 3.738251 657.936951
   vertex -45.184231 5.641428 657.793152
   vertex -47.112247 3.690536 658.077454
  endloop
 facet normal -0.074328 0.080186 -0.994005
  outer loop
   vertex -45.913784 -23.446684 657.410583
   vertex -46.040859 -20.174881 657.684021
   vertex -43.919640 -23.398943 657.265320
  endloop
 facet normal -0.073685 0.164701 -0.983587
  outer loop
   vertex -44.096588 -36.200806 655.583740
   vertex -45.969868 -33.590351 656.161194
   vertex -43.977734 -33.662834 655.999817
  endloop
 facet normal 0.074683 -0.130941 0.988573
  outer loop
   vertex -45.895134 -31.059914 656.534607
   vertex -43.867363 -28.528791 656.716675
   vertex -45.861507 -28.516012 656.869019
  endloop
 facet normal -0.068207 -0.077535 -0.994654
  outer loop
   vertex -45.117764 3.738251 657.936951
   vertex -47.178219 5.578989 657.934753
   vertex -45.184231 5.641428 657.793152
  endloop
 facet normal 0.074157 -0.080194 0.994017
  outer loop
   vertex -45.913784 -23.446684 657.410583
   vertex -44.047596 -20.092901 657.541931
   vertex -46.040859 -20.174881 657.684021
  endloop
 facet normal 0.000000 0.603784 -0.797148
  outer loop
   vertex -44.963535 -42.104710 654.044739
   vertex -46.934315 -41.833149 654.250427
   vertex -45.948910 -41.968929 654.147583
  endloop
 facet normal 0.000000 -0.603784 0.797148
  outer loop
   vertex -46.934315 -41.833149 654.250427
   vertex -44.963535 -42.104710 654.044739
   vertex -45.948910 -41.968929 654.147583
  endloop
 facet normal 0.067386 0.098888 0.992814
  outer loop
   vertex -47.178219 5.578989 657.934753
   vertex -45.258957 7.549518 657.608215
   vertex -47.252796 7.482864 657.750183
  endloop
 facet normal 0.067408 0.098866 0.992815
  outer loop
   vertex -45.184231 5.641428 657.793152
   vertex -45.258957 7.549518 657.608215
   vertex -47.178219 5.578989 657.934753
  endloop
 facet normal 0.072824 -0.053322 0.995918
  outer loop
   vertex -46.231167 -16.875767 657.918457
   vertex -44.459293 -13.441243 657.972778
   vertex -46.451321 -13.552437 658.112488
  endloop
 facet normal 0.071510 -0.205641 0.976011
  outer loop
   vertex -44.205364 -37.426628 655.333435
   vertex -44.096588 -36.200806 655.583740
   vertex -46.186001 -37.222282 655.521606
  endloop
 facet normal -0.065436 0.254291 -0.964911
  outer loop
   vertex -44.373882 -38.630302 655.027649
   vertex -46.186001 -37.222282 655.521606
   vertex -44.205364 -37.426628 655.333435
  endloop
 facet normal -0.065723 0.253947 -0.964982
  outer loop
   vertex -46.344658 -38.358746 655.233337
   vertex -46.186001 -37.222282 655.521606
   vertex -44.373882 -38.630302 655.027649
  endloop
 facet normal 0.065484 -0.253920 0.965006
  outer loop
   vertex -46.344658 -38.358746 655.233337
   vertex -44.205364 -37.426628 655.333435
   vertex -46.186001 -37.222282 655.521606
  endloop
 facet normal 0.065662 -0.254317 0.964889
  outer loop
   vertex -44.373882 -38.630302 655.027649
   vertex -44.205364 -37.426628 655.333435
   vertex -46.344658 -38.358746 655.233337
  endloop
 facet normal -0.071607 0.204851 -0.976170
  outer loop
   vertex -46.186001 -37.222282 655.521606
   vertex -46.086369 -36.089500 655.752014
   vertex -44.205364 -37.426628 655.333435
  endloop
 facet normal 0.071101 -0.204816 0.976215
  outer loop
   vertex -46.186001 -37.222282 655.521606
   vertex -44.096588 -36.200806 655.583740
   vertex -46.086369 -36.089500 655.752014
  endloop
 facet normal -0.073981 0.164491 -0.983600
  outer loop
   vertex -46.086369 -36.089500 655.752014
   vertex -45.969868 -33.590351 656.161194
   vertex -44.096588 -36.200806 655.583740
  endloop
 facet normal 0.073696 -0.164482 0.983623
  outer loop
   vertex -46.086369 -36.089500 655.752014
   vertex -43.977734 -33.662834 655.999817
   vertex -45.969868 -33.590351 656.161194
  endloop
 facet normal 0.073966 -0.164710 0.983565
  outer loop
   vertex -44.096588 -36.200806 655.583740
   vertex -43.977734 -33.662834 655.999817
   vertex -46.086369 -36.089500 655.752014
  endloop
 facet normal -0.071042 0.205608 -0.976052
  outer loop
   vertex -44.205364 -37.426628 655.333435
   vertex -46.086369 -36.089500 655.752014
   vertex -44.096588 -36.200806 655.583740
  endloop
 facet normal -0.069925 -0.014252 -0.997450
  outer loop
   vertex -44.925888 -4.737849 658.250916
   vertex -46.972500 -2.671599 658.364868
   vertex -44.978012 -2.623885 658.224365
  endloop
 facet normal -0.062302 0.274637 -0.959527
  outer loop
   vertex -46.934315 -41.833149 654.250427
   vertex -46.747028 -40.679020 654.568604
   vertex -44.963535 -42.104710 654.044739
  endloop
 facet normal -0.062302 0.274637 -0.959527
  outer loop
   vertex -44.963535 -42.104710 654.044739
   vertex -46.747028 -40.679020 654.568604
   vertex -44.776249 -40.950581 654.362915
  endloop
 facet normal 0.062302 -0.274637 0.959527
  outer loop
   vertex -44.963535 -42.104710 654.044739
   vertex -44.776249 -40.950581 654.362915
   vertex -46.934315 -41.833149 654.250427
  endloop
 facet normal 0.062302 -0.274637 0.959527
  outer loop
   vertex -46.934315 -41.833149 654.250427
   vertex -44.776249 -40.950581 654.362915
   vertex -46.747028 -40.679020 654.568604
  endloop
 facet normal -0.061210 0.281184 -0.957700
  outer loop
   vertex -44.373882 -38.630302 655.027649
   vertex -44.571114 -39.793102 654.698853
   vertex -46.344658 -38.358746 655.233337
  endloop
 facet normal -0.061209 0.281185 -0.957700
  outer loop
   vertex -46.344658 -38.358746 655.233337
   vertex -44.571114 -39.793102 654.698853
   vertex -46.541893 -39.521542 654.904541
  endloop
 facet normal 0.061209 -0.281185 0.957700
  outer loop
   vertex -46.344658 -38.358746 655.233337
   vertex -46.541893 -39.521542 654.904541
   vertex -44.373882 -38.630302 655.027649
  endloop
 facet normal 0.061209 -0.281184 0.957700
  outer loop
   vertex -44.373882 -38.630302 655.027649
   vertex -46.541893 -39.521542 654.904541
   vertex -44.571114 -39.793102 654.698853
  endloop
 facet normal -0.060061 0.288030 -0.955736
  outer loop
   vertex -44.571114 -39.793102 654.698853
   vertex -44.776249 -40.950581 654.362915
   vertex -46.541893 -39.521542 654.904541
  endloop
 facet normal -0.060061 0.288030 -0.955736
  outer loop
   vertex -46.541893 -39.521542 654.904541
   vertex -44.776249 -40.950581 654.362915
   vertex -46.747028 -40.679020 654.568604
  endloop
 facet normal 0.060061 -0.288030 0.955736
  outer loop
   vertex -46.541893 -39.521542 654.904541
   vertex -46.747028 -40.679020 654.568604
   vertex -44.571114 -39.793102 654.698853
  endloop
 facet normal 0.060061 -0.288030 0.955736
  outer loop
   vertex -44.571114 -39.793102 654.698853
   vertex -46.747028 -40.679020 654.568604
   vertex -44.776249 -40.950581 654.362915
  endloop
 facet normal -0.067387 -0.098865 -0.992817
  outer loop
   vertex -45.258957 7.549518 657.608215
   vertex -45.184231 5.641428 657.793152
   vertex -47.252796 7.482864 657.750183
  endloop
 facet normal -0.067407 -0.098888 -0.992813
  outer loop
   vertex -47.252796 7.482864 657.750183
   vertex -45.184231 5.641428 657.793152
   vertex -47.178219 5.578989 657.934753
  endloop
 facet normal -0.068741 -0.059128 -0.995881
  outer loop
   vertex -45.117764 3.738251 657.936951
   vertex -45.061520 1.631234 658.058167
   vertex -47.112247 3.690536 658.077454
  endloop
 facet normal -0.068741 -0.059127 -0.995881
  outer loop
   vertex -47.112247 3.690536 658.077454
   vertex -45.061520 1.631234 658.058167
   vertex -47.056007 1.583520 658.198669
  endloop
 facet normal 0.066897 0.110883 0.991579
  outer loop
   vertex -47.332123 9.391396 657.542114
   vertex -47.252796 7.482864 657.750183
   vertex -45.338284 9.458048 657.400146
  endloop
 facet normal 0.066897 0.110883 0.991579
  outer loop
   vertex -45.338284 9.458048 657.400146
   vertex -47.252796 7.482864 657.750183
   vertex -45.258957 7.549518 657.608215
  endloop
 facet normal -0.067017 -0.107959 -0.991894
  outer loop
   vertex -45.496063 13.252296 656.986206
   vertex -45.418587 11.361512 657.186768
   vertex -47.489902 13.185643 657.128174
  endloop
 facet normal -0.067017 -0.107959 -0.991894
  outer loop
   vertex -47.489902 13.185643 657.128174
   vertex -45.418587 11.361512 657.186768
   vertex -47.412426 11.294859 657.328735
  endloop
 facet normal 0.067017 0.107959 0.991894
  outer loop
   vertex -45.418587 11.361512 657.186768
   vertex -45.496063 13.252296 656.986206
   vertex -47.412426 11.294859 657.328735
  endloop
 facet normal 0.067017 0.107959 0.991894
  outer loop
   vertex -47.412426 11.294859 657.328735
   vertex -45.496063 13.252296 656.986206
   vertex -47.489902 13.185643 657.128174
  endloop
 facet normal -0.066897 -0.110883 -0.991579
  outer loop
   vertex -45.338284 9.458048 657.400146
   vertex -45.258957 7.549518 657.608215
   vertex -47.332123 9.391396 657.542114
  endloop
 facet normal -0.066897 -0.110883 -0.991579
  outer loop
   vertex -47.332123 9.391396 657.542114
   vertex -45.258957 7.549518 657.608215
   vertex -47.252796 7.482864 657.750183
  endloop
 facet normal 0.066771 0.113935 0.991242
  outer loop
   vertex -47.412426 11.294859 657.328735
   vertex -47.332123 9.391396 657.542114
   vertex -45.418587 11.361512 657.186768
  endloop
 facet normal 0.066771 0.113935 0.991242
  outer loop
   vertex -45.418587 11.361512 657.186768
   vertex -47.332123 9.391396 657.542114
   vertex -45.338284 9.458048 657.400146
  endloop
 facet normal -0.066771 -0.113935 -0.991242
  outer loop
   vertex -45.418587 11.361512 657.186768
   vertex -45.338284 9.458048 657.400146
   vertex -47.412426 11.294859 657.328735
  endloop
 facet normal -0.066771 -0.113935 -0.991242
  outer loop
   vertex -47.412426 11.294859 657.328735
   vertex -45.338284 9.458048 657.400146
   vertex -47.332123 9.391396 657.542114
  endloop
 facet normal 0.068741 0.059128 0.995881
  outer loop
   vertex -45.061520 1.631234 658.058167
   vertex -45.117764 3.738251 657.936951
   vertex -47.056007 1.583520 658.198669
  endloop
 facet normal 0.068741 0.059127 0.995881
  outer loop
   vertex -47.056007 1.583520 658.198669
   vertex -45.117764 3.738251 657.936951
   vertex -47.112247 3.690536 658.077454
  endloop
 facet normal 0.071510 -0.027803 0.997052
  outer loop
   vertex -44.674442 -10.123494 658.123169
   vertex -44.850368 -6.826513 658.227722
   vertex -46.666473 -10.234688 658.262939
  endloop
 facet normal 0.071479 -0.027786 0.997055
  outer loop
   vertex -46.666473 -10.234688 658.262939
   vertex -44.850368 -6.826513 658.227722
   vertex -46.842396 -6.937706 658.367432
  endloop
 facet normal -0.069452 -0.032844 -0.997044
  outer loop
   vertex -45.019142 -0.493254 658.157043
   vertex -44.978012 -2.623885 658.224365
   vertex -47.013626 -0.540969 658.297546
  endloop
 facet normal -0.069452 -0.032844 -0.997044
  outer loop
   vertex -47.013626 -0.540969 658.297546
   vertex -44.978012 -2.623885 658.224365
   vertex -46.972500 -2.671599 658.364868
  endloop
 facet normal 0.069054 0.047755 0.996469
  outer loop
   vertex -47.056007 1.583520 658.198669
   vertex -47.013626 -0.540969 658.297546
   vertex -45.061520 1.631234 658.058167
  endloop
 facet normal 0.069055 0.047755 0.996469
  outer loop
   vertex -45.061520 1.631234 658.058167
   vertex -47.013626 -0.540969 658.297546
   vertex -45.019142 -0.493254 658.157043
  endloop
 facet normal -0.069054 -0.047755 -0.996469
  outer loop
   vertex -45.061520 1.631234 658.058167
   vertex -45.019142 -0.493254 658.157043
   vertex -47.056007 1.583520 658.198669
  endloop
 facet normal -0.069055 -0.047755 -0.996469
  outer loop
   vertex -47.056007 1.583520 658.198669
   vertex -45.019142 -0.493254 658.157043
   vertex -47.013626 -0.540969 658.297546
  endloop
 facet normal 0.069452 0.032844 0.997044
  outer loop
   vertex -47.013626 -0.540969 658.297546
   vertex -46.972500 -2.671599 658.364868
   vertex -45.019142 -0.493254 658.157043
  endloop
 facet normal 0.069452 0.032844 0.997044
  outer loop
   vertex -45.019142 -0.493254 658.157043
   vertex -46.972500 -2.671599 658.364868
   vertex -44.978012 -2.623885 658.224365
  endloop
endsolid