solid stl file generated from DOUG
 facet normal 0.004618 -0.964311 -0.264731
  outer loop
   vertex 190.250244 21.599413 492.058319
   vertex 190.069611 21.482965 492.479340
   vertex 188.852875 21.741095 491.517853
  endloop
 facet normal 0.004621 -0.964310 -0.264735
  outer loop
   vertex 188.852875 21.741095 491.517853
   vertex 190.069611 21.482965 492.479340
   vertex 188.672241 21.624645 491.938873
  endloop
 facet normal -0.920765 0.019579 -0.389627
  outer loop
   vertex 188.672241 21.624645 491.938873
   vertex 187.995712 27.681679 493.842010
   vertex 188.852875 21.741095 491.517853
  endloop
 facet normal -0.920779 0.019567 -0.389594
  outer loop
   vertex 187.827209 27.478928 494.230072
   vertex 187.995712 27.681679 493.842010
   vertex 188.672241 21.624645 491.938873
  endloop
 facet normal -0.920778 0.019561 -0.389597
  outer loop
   vertex 185.074249 41.416042 501.436218
   vertex 187.995712 27.681679 493.842010
   vertex 187.827209 27.478928 494.230072
  endloop
 facet normal -0.920773 0.019568 -0.389608
  outer loop
   vertex 187.827209 27.478928 494.230072
   vertex 184.918991 41.149628 501.789764
   vertex 185.074249 41.416042 501.436218
  endloop
 facet normal -0.920773 0.019567 -0.389608
  outer loop
   vertex 185.074249 41.416042 501.436218
   vertex 184.918991 41.149628 501.789764
   vertex 181.279999 53.566090 511.013489
  endloop
 facet normal -0.016071 0.392340 0.919680
  outer loop
   vertex 172.769623 72.943748 532.099304
   vertex 172.683731 72.514877 532.280762
   vertex 174.318069 72.600853 532.272644
  endloop
 facet normal -0.016067 0.392263 0.919713
  outer loop
   vertex 174.318069 72.600853 532.272644
   vertex 172.683731 72.514877 532.280762
   vertex 174.232162 72.171883 532.454102
  endloop
 facet normal 0.920767 -0.019583 0.389622
  outer loop
   vertex 174.232162 72.171883 532.454102
   vertex 178.498596 64.766190 521.999329
   vertex 174.318069 72.600853 532.272644
  endloop
 facet normal 0.920764 -0.019591 0.389627
  outer loop
   vertex 178.380875 64.393532 522.258789
   vertex 178.498596 64.766190 521.999329
   vertex 174.232162 72.171883 532.454102
  endloop
 facet normal 0.920763 -0.019590 0.389629
  outer loop
   vertex 182.799347 53.860249 511.287567
   vertex 178.498596 64.766190 521.999329
   vertex 178.380875 64.393532 522.258789
  endloop
 facet normal 0.920774 -0.019561 0.389606
  outer loop
   vertex 178.380875 64.393532 522.258789
   vertex 182.661163 53.536728 511.597900
   vertex 182.799347 53.860249 511.287567
  endloop
 facet normal 0.920775 -0.019562 0.389604
  outer loop
   vertex 182.799347 53.860249 511.287567
   vertex 182.661163 53.536728 511.597900
   vertex 186.455414 41.386681 502.020660
  endloop
 facet normal 0.920765 -0.019583 0.389627
  outer loop
   vertex 186.455414 41.386681 502.020660
   vertex 182.661163 53.536728 511.597900
   vertex 186.300156 41.120266 502.374176
  endloop
 facet normal 0.920764 -0.019582 0.389627
  outer loop
   vertex 186.300156 41.120266 502.374176
   vertex 189.208359 27.449566 494.814484
   vertex 186.455414 41.386681 502.020660
  endloop
 facet normal -0.017437 -0.052315 0.998478
  outer loop
   vertex 170.610580 79.477005 578.126709
   vertex 170.610092 80.023514 578.155334
   vertex 169.107300 79.484146 578.100830
  endloop
 facet normal -0.017437 -0.052314 0.998478
  outer loop
   vertex 169.107300 79.484146 578.100830
   vertex 170.610092 80.023514 578.155334
   vertex 169.106796 80.030663 578.129456
  endloop
 facet normal -0.996321 0.003567 -0.085621
  outer loop
   vertex 169.106796 80.030663 578.129456
   vertex 170.447815 79.213135 562.490723
   vertex 169.107300 79.484146 578.100830
  endloop
 facet normal -0.996321 0.003565 -0.085621
  outer loop
   vertex 170.454651 79.757408 562.433838
   vertex 170.447815 79.213135 562.490723
   vertex 169.106796 80.030663 578.129456
  endloop
 facet normal -0.996321 0.003565 -0.085620
  outer loop
   vertex 171.774673 76.742020 546.947754
   vertex 170.447815 79.213135 562.490723
   vertex 170.454651 79.757408 562.433838
  endloop
 facet normal -0.996322 0.003555 -0.085618
  outer loop
   vertex 170.454651 79.757408 562.433838
   vertex 171.788681 77.270638 546.806702
   vertex 171.774673 76.742020 546.947754
  endloop
 facet normal -0.996322 0.003556 -0.085615
  outer loop
   vertex 171.774673 76.742020 546.947754
   vertex 171.788681 77.270638 546.806702
   vertex 173.005157 72.252945 532.441833
  endloop
 facet normal -0.996322 0.003566 -0.085618
  outer loop
   vertex 173.005157 72.252945 532.441833
   vertex 171.788681 77.270638 546.806702
   vertex 173.025345 72.755379 532.227844
  endloop
 facet normal 0.016056 -0.392342 -0.919679
  outer loop
   vertex 173.025345 72.755379 532.227844
   vertex 174.507126 72.220268 532.481995
   vertex 173.005157 72.252945 532.441833
  endloop
 facet normal 0.016047 -0.392362 -0.919671
  outer loop
   vertex 174.527328 72.722672 532.268005
   vertex 174.507126 72.220268 532.481995
   vertex 173.025345 72.755379 532.227844
  endloop
 facet normal 0.996321 -0.003593 0.085627
  outer loop
   vertex 173.283173 77.265274 546.935120
   vertex 174.507126 72.220268 532.481995
   vertex 174.527328 72.722672 532.268005
  endloop
 facet normal 0.996321 -0.003583 0.085623
  outer loop
   vertex 174.507126 72.220268 532.481995
   vertex 173.283173 77.265274 546.935120
   vertex 173.269150 76.736656 547.076172
  endloop
 facet normal 0.996321 -0.003583 0.085622
  outer loop
   vertex 173.269150 76.736656 547.076172
   vertex 173.283173 77.265274 546.935120
   vertex 171.949142 79.752045 562.562256
  endloop
 facet normal 0.996321 -0.003592 0.085624
  outer loop
   vertex 171.949142 79.752045 562.562256
   vertex 171.942291 79.207771 562.619141
   vertex 173.269150 76.736656 547.076172
  endloop
 facet normal 0.996321 -0.003593 0.085621
  outer loop
   vertex 170.610092 80.023514 578.155334
   vertex 171.942291 79.207771 562.619141
   vertex 171.949142 79.752045 562.562256
  endloop
 facet normal 0.996321 -0.003595 0.085621
  outer loop
   vertex 170.610580 79.477005 578.126709
   vertex 171.942291 79.207771 562.619141
   vertex 170.610092 80.023514 578.155334
  endloop
 facet normal -0.920766 0.019582 -0.389625
  outer loop
   vertex 185.074249 41.416042 501.436218
   vertex 181.279999 53.566090 511.013489
   vertex 181.418198 53.889610 510.703156
  endloop
 facet normal -0.920766 0.019583 -0.389624
  outer loop
   vertex 181.418198 53.889610 510.703156
   vertex 181.279999 53.566090 511.013489
   vertex 176.999725 64.422897 521.674377
  endloop
 facet normal -0.920777 0.019552 -0.389599
  outer loop
   vertex 176.999725 64.422897 521.674377
   vertex 177.117447 64.795555 521.414856
   vertex 181.418198 53.889610 510.703156
  endloop
 facet normal -0.920776 0.019550 -0.389601
  outer loop
   vertex 172.683731 72.514877 532.280762
   vertex 177.117447 64.795555 521.414856
   vertex 176.999725 64.422897 521.674377
  endloop
 facet normal -0.920773 0.019562 -0.389608
  outer loop
   vertex 172.769623 72.943748 532.099304
   vertex 177.117447 64.795555 521.414856
   vertex 172.683731 72.514877 532.280762
  endloop
 facet normal 0.920769 -0.019575 0.389617
  outer loop
   vertex 186.455414 41.386681 502.020660
   vertex 189.208359 27.449566 494.814484
   vertex 189.376862 27.652317 494.426453
  endloop
 facet normal 0.920769 -0.019575 0.389617
  outer loop
   vertex 189.376862 27.652317 494.426453
   vertex 189.208359 27.449566 494.814484
   vertex 190.069611 21.482965 492.479340
  endloop
 facet normal 0.920765 -0.019579 0.389627
  outer loop
   vertex 190.069611 21.482965 492.479340
   vertex 190.250244 21.599413 492.058319
   vertex 189.376862 27.652317 494.426453
  endloop
 facet normal 0.028656 0.955527 -0.293509
  outer loop
   vertex 173.025345 72.755379 532.227844
   vertex 173.283173 77.265274 546.935120
   vertex 174.527328 72.722672 532.268005
  endloop
 facet normal -0.239660 -0.816431 0.525360
  outer loop
   vertex 176.999725 64.422897 521.674377
   vertex 174.232162 72.171883 532.454102
   vertex 172.683731 72.514877 532.280762
  endloop
 facet normal 0.005047 0.999843 -0.016973
  outer loop
   vertex 170.454651 79.757408 562.433838
   vertex 169.106796 80.030663 578.129456
   vertex 170.610092 80.023514 578.155334
  endloop
 facet normal -0.366650 -0.384491 0.847192
  outer loop
   vertex 187.827209 27.478928 494.230072
   vertex 188.672241 21.624645 491.938873
   vertex 189.208359 27.449566 494.814484
  endloop
 facet normal -0.366655 -0.384489 0.847191
  outer loop
   vertex 189.208359 27.449566 494.814484
   vertex 188.672241 21.624645 491.938873
   vertex 190.069611 21.482965 492.479340
  endloop
 facet normal 0.366662 0.384379 -0.847238
  outer loop
   vertex 190.250244 21.599413 492.058319
   vertex 188.852875 21.741095 491.517853
   vertex 189.376862 27.652317 494.426453
  endloop
 facet normal 0.366683 0.384374 -0.847231
  outer loop
   vertex 189.376862 27.652317 494.426453
   vertex 188.852875 21.741095 491.517853
   vertex 187.995712 27.681679 493.842010
  endloop
 facet normal 0.344528 0.509328 -0.788597
  outer loop
   vertex 187.995712 27.681679 493.842010
   vertex 185.074249 41.416042 501.436218
   vertex 189.376862 27.652317 494.426453
  endloop
 facet normal -0.016914 -0.987678 0.155583
  outer loop
   vertex 170.447815 79.213135 562.490723
   vertex 171.774673 76.742020 546.947754
   vertex 173.269150 76.736656 547.076172
  endloop
 facet normal -0.028632 -0.955593 0.293294
  outer loop
   vertex 173.269150 76.736656 547.076172
   vertex 171.774673 76.742020 546.947754
   vertex 173.005157 72.252945 532.441833
  endloop
 facet normal -0.028632 -0.955593 0.293294
  outer loop
   vertex 173.005157 72.252945 532.441833
   vertex 174.507126 72.220268 532.481995
   vertex 173.269150 76.736656 547.076172
  endloop
 facet normal -0.016914 -0.987678 0.155583
  outer loop
   vertex 173.269150 76.736656 547.076172
   vertex 171.942291 79.207771 562.619141
   vertex 170.447815 79.213135 562.490723
  endloop
 facet normal -0.005043 -0.999844 0.016926
  outer loop
   vertex 170.447815 79.213135 562.490723
   vertex 171.942291 79.207771 562.619141
   vertex 170.610580 79.477005 578.126709
  endloop
 facet normal -0.005041 -0.999844 0.016926
  outer loop
   vertex 170.610580 79.477005 578.126709
   vertex 169.107300 79.484146 578.100830
   vertex 170.447815 79.213135 562.490723
  endloop
 facet normal 0.028650 0.955527 -0.293509
  outer loop
   vertex 173.025345 72.755379 532.227844
   vertex 171.788681 77.270638 546.806702
   vertex 173.283173 77.265274 546.935120
  endloop
 facet normal 0.016925 0.987656 -0.155722
  outer loop
   vertex 173.283173 77.265274 546.935120
   vertex 171.788681 77.270638 546.806702
   vertex 170.454651 79.757408 562.433838
  endloop
 facet normal 0.016925 0.987656 -0.155722
  outer loop
   vertex 170.454651 79.757408 562.433838
   vertex 171.949142 79.752045 562.562256
   vertex 173.283173 77.265274 546.935120
  endloop
 facet normal 0.005047 0.999843 -0.016973
  outer loop
   vertex 170.610092 80.023514 578.155334
   vertex 171.949142 79.752045 562.562256
   vertex 170.454651 79.757408 562.433838
  endloop
 facet normal -0.344506 -0.509363 0.788584
  outer loop
   vertex 187.827209 27.478928 494.230072
   vertex 189.208359 27.449566 494.814484
   vertex 184.918991 41.149628 501.789764
  endloop
 facet normal -0.344502 -0.509363 0.788586
  outer loop
   vertex 184.918991 41.149628 501.789764
   vertex 189.208359 27.449566 494.814484
   vertex 186.300156 41.120266 502.374176
  endloop
 facet normal -0.315804 -0.623714 0.715016
  outer loop
   vertex 186.300156 41.120266 502.374176
   vertex 181.279999 53.566090 511.013489
   vertex 184.918991 41.149628 501.789764
  endloop
 facet normal -0.315804 -0.623714 0.715016
  outer loop
   vertex 182.661163 53.536728 511.597900
   vertex 181.279999 53.566090 511.013489
   vertex 186.300156 41.120266 502.374176
  endloop
 facet normal -0.280806 -0.726529 0.627139
  outer loop
   vertex 176.999725 64.422897 521.674377
   vertex 181.279999 53.566090 511.013489
   vertex 182.661163 53.536728 511.597900
  endloop
 facet normal -0.280810 -0.726529 0.627137
  outer loop
   vertex 182.661163 53.536728 511.597900
   vertex 178.380875 64.393532 522.258789
   vertex 176.999725 64.422897 521.674377
  endloop
 facet normal -0.239657 -0.816431 0.525361
  outer loop
   vertex 176.999725 64.422897 521.674377
   vertex 178.380875 64.393532 522.258789
   vertex 174.232162 72.171883 532.454102
  endloop
 facet normal 0.239613 0.816543 -0.525208
  outer loop
   vertex 172.769623 72.943748 532.099304
   vertex 174.318069 72.600853 532.272644
   vertex 177.117447 64.795555 521.414856
  endloop
 facet normal 0.239617 0.816543 -0.525206
  outer loop
   vertex 177.117447 64.795555 521.414856
   vertex 174.318069 72.600853 532.272644
   vertex 178.498596 64.766190 521.999329
  endloop
 facet normal 0.280801 0.726611 -0.627046
  outer loop
   vertex 178.498596 64.766190 521.999329
   vertex 181.418198 53.889610 510.703156
   vertex 177.117447 64.795555 521.414856
  endloop
 facet normal 0.280775 0.726614 -0.627055
  outer loop
   vertex 182.799347 53.860249 511.287567
   vertex 181.418198 53.889610 510.703156
   vertex 178.498596 64.766190 521.999329
  endloop
 facet normal 0.315797 0.623747 -0.714991
  outer loop
   vertex 185.074249 41.416042 501.436218
   vertex 181.418198 53.889610 510.703156
   vertex 182.799347 53.860249 511.287567
  endloop
 facet normal 0.315808 0.623746 -0.714987
  outer loop
   vertex 182.799347 53.860249 511.287567
   vertex 186.455414 41.386681 502.020660
   vertex 185.074249 41.416042 501.436218
  endloop
 facet normal 0.344525 0.509328 -0.788599
  outer loop
   vertex 185.074249 41.416042 501.436218
   vertex 186.455414 41.386681 502.020660
   vertex 189.376862 27.652317 494.426453
  endloop
endsolid