solid stl file generated from DOUG
 facet normal -0.017585 -0.991005 0.132668
  outer loop
   vertex -16.406307 -85.437943 619.784912
   vertex -14.433540 -85.515739 619.465271
   vertex -15.419909 -85.476837 619.625122
  endloop
 endfacet

 facet normal 0.073355 -0.568499 0.819407
  outer loop
   vertex -15.525836 -42.544361 654.473877
   vertex -17.518396 -42.702408 654.542603
   vertex -16.522131 -42.623386 654.508240
  endloop
 endfacet

 facet normal -0.070708 0.523056 -0.849360
  outer loop
   vertex -15.046460 -50.785297 649.634338
   vertex -17.125746 -49.318451 650.710754
   vertex -15.132994 -49.164036 650.639954
  endloop
 endfacet

 facet normal 0.069687 -0.504747 0.860450
  outer loop
   vertex -17.125746 -49.318451 650.710754
   vertex -15.227972 -47.514660 651.615173
   vertex -17.220533 -47.672707 651.683838
  endloop
 endfacet

 facet normal -0.070752 0.523011 -0.849384
  outer loop
   vertex -17.039867 -50.927193 649.713013
   vertex -17.125746 -49.318451 650.710754
   vertex -15.046460 -50.785297 649.634338
  endloop
 endfacet

 facet normal 0.017585 0.991005 -0.132668
  outer loop
   vertex -14.433540 -85.515739 619.465271
   vertex -16.406307 -85.437943 619.784912
   vertex -15.419909 -85.476837 619.625122
  endloop
 endfacet

 facet normal 0.070754 -0.523053 0.849358
  outer loop
   vertex -15.046460 -50.785297 649.634338
   vertex -15.132994 -49.164036 650.639954
   vertex -17.039867 -50.927193 649.713013
  endloop
 endfacet

 facet normal -0.073015 0.575908 -0.814247
  outer loop
   vertex -16.758814 -57.974865 644.956848
   vertex -16.833689 -56.233788 646.195007
   vertex -14.766315 -57.814415 644.891663
  endloop
 endfacet

 facet normal 0.073010 -0.575818 0.814311
  outer loop
   vertex -14.766315 -57.814415 644.891663
   vertex -14.840282 -56.091888 646.116333
   vertex -16.758814 -57.974865 644.956848
  endloop
 endfacet

 facet normal -0.073127 0.575810 -0.814307
  outer loop
   vertex -14.766315 -57.814415 644.891663
   vertex -16.833689 -56.233788 646.195007
   vertex -14.840282 -56.091888 646.116333
  endloop
 endfacet

 facet normal -0.074050 0.594176 -0.800919
  outer loop
   vertex -14.669383 -59.486942 643.641907
   vertex -16.758814 -57.974865 644.956848
   vertex -14.766315 -57.814415 644.891663
  endloop
 endfacet

 facet normal 0.073131 -0.575900 0.814243
  outer loop
   vertex -16.758814 -57.974865 644.956848
   vertex -14.840282 -56.091888 646.116333
   vertex -16.833689 -56.233788 646.195007
  endloop
 endfacet

 facet normal -0.076986 0.740227 -0.667935
  outer loop
   vertex -15.701221 -82.455513 623.532410
   vertex -15.612480 -81.675407 624.386719
   vertex -13.719229 -82.489227 623.266602
  endloop
 endfacet

 facet normal 0.071527 -0.773548 0.629688
  outer loop
   vertex -13.876376 -83.282906 622.309448
   vertex -13.719229 -82.489227 623.266602
   vertex -15.849144 -83.205124 622.629089
  endloop
 endfacet

 facet normal 0.071340 -0.773291 0.630025
  outer loop
   vertex -15.849144 -83.205124 622.629089
   vertex -13.719229 -82.489227 623.266602
   vertex -15.701221 -82.455513 623.532410
  endloop
 endfacet

 facet normal -0.071586 0.773297 -0.629990
  outer loop
   vertex -15.849144 -83.205124 622.629089
   vertex -15.701221 -82.455513 623.532410
   vertex -13.876376 -83.282906 622.309448
  endloop
 endfacet

 facet normal -0.071295 0.773542 -0.629722
  outer loop
   vertex -13.876376 -83.282906 622.309448
   vertex -15.701221 -82.455513 623.532410
   vertex -13.719229 -82.489227 623.266602
  endloop
 endfacet

 facet normal 0.076900 -0.740758 0.667356
  outer loop
   vertex -13.719229 -82.489227 623.266602
   vertex -13.622234 -81.645607 624.191833
   vertex -15.701221 -82.455513 623.532410
  endloop
 endfacet

 facet normal 0.076705 -0.629442 0.773253
  outer loop
   vertex -15.947723 -67.435425 637.463135
   vertex -14.211116 -64.675224 639.537720
   vertex -16.201416 -64.867905 639.578308
  endloop
 endfacet

 facet normal 0.070706 -0.523015 0.849386
  outer loop
   vertex -17.039867 -50.927193 649.713013
   vertex -15.132994 -49.164036 650.639954
   vertex -17.125746 -49.318451 650.710754
  endloop
 endfacet

 facet normal -0.076444 0.740760 -0.667406
  outer loop
   vertex -13.719229 -82.489227 623.266602
   vertex -15.612480 -81.675407 624.386719
   vertex -13.622234 -81.645607 624.191833
  endloop
 endfacet

 facet normal 0.078974 -0.712099 0.697623
  outer loop
   vertex -13.622234 -81.645607 624.191833
   vertex -13.528108 -79.839783 626.024475
   vertex -15.612480 -81.675407 624.386719
  endloop
 endfacet

 facet normal 0.078707 -0.711955 0.697801
  outer loop
   vertex -15.612480 -81.675407 624.386719
   vertex -13.528108 -79.839783 626.024475
   vertex -15.520329 -79.896889 626.190918
  endloop
 endfacet

 facet normal -0.078987 0.711946 -0.697778
  outer loop
   vertex -15.612480 -81.675407 624.386719
   vertex -15.520329 -79.896889 626.190918
   vertex -13.622234 -81.645607 624.191833
  endloop
 endfacet

 facet normal 0.076493 -0.740229 0.667989
  outer loop
   vertex -15.701221 -82.455513 623.532410
   vertex -13.622234 -81.645607 624.191833
   vertex -15.612480 -81.675407 624.386719
  endloop
 endfacet

 facet normal -0.078698 0.712108 -0.697645
  outer loop
   vertex -13.622234 -81.645607 624.191833
   vertex -15.520329 -79.896889 626.190918
   vertex -13.528108 -79.839783 626.024475
  endloop
 endfacet

 facet normal 0.079357 -0.700052 0.709669
  outer loop
   vertex -13.528108 -79.839783 626.024475
   vertex -13.477204 -77.993645 627.839905
   vertex -15.520329 -79.896889 626.190918
  endloop
 endfacet

 facet normal 0.079188 -0.699963 0.709775
  outer loop
   vertex -15.520329 -79.896889 626.190918
   vertex -13.477204 -77.993645 627.839905
   vertex -15.470388 -78.072456 627.984558
  endloop
 endfacet

 facet normal -0.079362 0.699956 -0.709763
  outer loop
   vertex -15.520329 -79.896889 626.190918
   vertex -15.470388 -78.072456 627.984558
   vertex -13.528108 -79.839783 626.024475
  endloop
 endfacet

 facet normal -0.079185 0.700059 -0.709681
  outer loop
   vertex -13.528108 -79.839783 626.024475
   vertex -15.470388 -78.072456 627.984558
   vertex -13.477204 -77.993645 627.839905
  endloop
 endfacet

 facet normal 0.079558 -0.687885 0.721446
  outer loop
   vertex -13.477204 -77.993645 627.839905
   vertex -13.468173 -76.114586 629.630554
   vertex -15.470388 -78.072456 627.984558
  endloop
 endfacet

 facet normal 0.079348 -0.687776 0.721573
  outer loop
   vertex -15.470388 -78.072456 627.984558
   vertex -13.468173 -76.114586 629.630554
   vertex -15.461820 -76.214600 629.754456
  endloop
 endfacet

 facet normal -0.079561 0.687765 -0.721560
  outer loop
   vertex -15.470388 -78.072456 627.984558
   vertex -15.461820 -76.214600 629.754456
   vertex -13.477204 -77.993645 627.839905
  endloop
 endfacet

 facet normal -0.079346 0.687896 -0.721459
  outer loop
   vertex -13.477204 -77.993645 627.839905
   vertex -15.461820 -76.214600 629.754456
   vertex -13.468173 -76.114586 629.630554
  endloop
 endfacet

 facet normal 0.079447 -0.675359 0.733197
  outer loop
   vertex -13.468173 -76.114586 629.630554
   vertex -13.499918 -74.212288 631.386230
   vertex -15.461820 -76.214600 629.754456
  endloop
 endfacet

 facet normal 0.079265 -0.675267 0.733302
  outer loop
   vertex -15.461820 -76.214600 629.754456
   vertex -13.499918 -74.212288 631.386230
   vertex -15.493554 -74.333366 631.490234
  endloop
 endfacet

 facet normal -0.079448 0.675255 -0.733293
  outer loop
   vertex -15.461820 -76.214600 629.754456
   vertex -15.493554 -74.333366 631.490234
   vertex -13.468173 -76.114586 629.630554
  endloop
 endfacet

 facet normal -0.079267 0.675371 -0.733206
  outer loop
   vertex -13.468173 -76.114586 629.630554
   vertex -15.493554 -74.333366 631.490234
   vertex -13.499918 -74.212288 631.386230
  endloop
 endfacet

 facet normal 0.079090 -0.662258 0.745090
  outer loop
   vertex -13.499918 -74.212288 631.386230
   vertex -13.571397 -72.295273 633.097717
   vertex -15.493554 -74.333366 631.490234
  endloop
 endfacet

 facet normal 0.078936 -0.662180 0.745176
  outer loop
   vertex -15.493554 -74.333366 631.490234
   vertex -13.571397 -72.295273 633.097717
   vertex -15.564443 -72.439995 633.180237
  endloop
 endfacet

 facet normal -0.079089 0.662169 -0.745169
  outer loop
   vertex -15.493554 -74.333366 631.490234
   vertex -15.564443 -72.439995 633.180237
   vertex -13.499918 -74.212288 631.386230
  endloop
 endfacet

 facet normal -0.078939 0.662269 -0.745096
  outer loop
   vertex -13.499918 -74.212288 631.386230
   vertex -15.564443 -72.439995 633.180237
   vertex -13.571397 -72.295273 633.097717
  endloop
 endfacet

 facet normal 0.078497 -0.650068 0.755811
  outer loop
   vertex -13.571397 -72.295273 633.097717
   vertex -13.732438 -69.789413 635.269714
   vertex -15.564443 -72.439995 633.180237
  endloop
 endfacet

 facet normal 0.078314 -0.650001 0.755887
  outer loop
   vertex -15.564443 -72.439995 633.180237
   vertex -13.732438 -69.789413 635.269714
   vertex -15.724263 -69.959908 635.329468
  endloop
 endfacet

 facet normal -0.078494 0.649985 -0.755882
  outer loop
   vertex -15.564443 -72.439995 633.180237
   vertex -15.724263 -69.959908 635.329468
   vertex -13.571397 -72.295273 633.097717
  endloop
 endfacet

 facet normal -0.078319 0.650083 -0.755816
  outer loop
   vertex -13.571397 -72.295273 633.097717
   vertex -15.724263 -69.959908 635.329468
   vertex -13.732438 -69.789413 635.269714
  endloop
 endfacet

 facet normal 0.077691 -0.639611 0.764763
  outer loop
   vertex -13.732438 -69.789413 635.269714
   vertex -13.957454 -67.242744 637.422485
   vertex -15.724263 -69.959908 635.329468
  endloop
 endfacet

 facet normal 0.077537 -0.639557 0.764823
  outer loop
   vertex -15.724263 -69.959908 635.329468
   vertex -13.957454 -67.242744 637.422485
   vertex -15.947723 -67.435425 637.463135
  endloop
 endfacet

 facet normal -0.077687 0.639542 -0.764821
  outer loop
   vertex -15.724263 -69.959908 635.329468
   vertex -15.947723 -67.435425 637.463135
   vertex -13.732438 -69.789413 635.269714
  endloop
 endfacet

 facet normal -0.077543 0.639626 -0.764765
  outer loop
   vertex -13.732438 -69.789413 635.269714
   vertex -15.947723 -67.435425 637.463135
   vertex -13.957454 -67.242744 637.422485
  endloop
 endfacet

 facet normal 0.076731 -0.629450 0.773243
  outer loop
   vertex -13.957454 -67.242744 637.422485
   vertex -14.211116 -64.675224 639.537720
   vertex -15.947723 -67.435425 637.463135
  endloop
 endfacet

 facet normal 0.069683 -0.504743 0.860452
  outer loop
   vertex -15.132994 -49.164036 650.639954
   vertex -15.227972 -47.514660 651.615173
   vertex -17.125746 -49.318451 650.710754
  endloop
 endfacet

 facet normal -0.076706 0.629453 -0.773243
  outer loop
   vertex -13.957454 -67.242744 637.422485
   vertex -16.201416 -64.867905 639.578308
   vertex -14.211116 -64.675224 639.537720
  endloop
 endfacet

 facet normal 0.075905 -0.619471 0.781341
  outer loop
   vertex -14.211116 -64.675224 639.537720
   vertex -14.459892 -62.086411 641.614380
   vertex -16.201416 -64.867905 639.578308
  endloop
 endfacet

 facet normal 0.075932 -0.619481 0.781331
  outer loop
   vertex -16.201416 -64.867905 639.578308
   vertex -14.459892 -62.086411 641.614380
   vertex -16.450193 -62.279099 641.655029
  endloop
 endfacet

 facet normal -0.075906 0.619484 -0.781331
  outer loop
   vertex -16.201416 -64.867905 639.578308
   vertex -16.450193 -62.279099 641.655029
   vertex -14.211116 -64.675224 639.537720
  endloop
 endfacet

 facet normal -0.075931 0.619469 -0.781341
  outer loop
   vertex -14.211116 -64.675224 639.537720
   vertex -16.450193 -62.279099 641.655029
   vertex -14.459892 -62.086411 641.614380
  endloop
 endfacet

 facet normal -0.073870 0.594336 -0.800817
  outer loop
   vertex -16.659683 -59.679626 643.682495
   vertex -16.758814 -57.974865 644.956848
   vertex -14.669383 -59.486942 643.641907
  endloop
 endfacet

 facet normal -0.076730 0.629439 -0.773252
  outer loop
   vertex -15.947723 -67.435425 637.463135
   vertex -16.201416 -64.867905 639.578308
   vertex -13.957454 -67.242744 637.422485
  endloop
 endfacet

 facet normal -0.075127 0.609499 -0.789219
  outer loop
   vertex -16.450193 -62.279099 641.655029
   vertex -16.659683 -59.679626 643.682495
   vertex -14.459892 -62.086411 641.614380
  endloop
 endfacet

 facet normal -0.075102 0.609514 -0.789210
  outer loop
   vertex -14.459892 -62.086411 641.614380
   vertex -16.659683 -59.679626 643.682495
   vertex -14.669383 -59.486942 643.641907
  endloop
 endfacet

 facet normal 0.073858 -0.594192 0.800925
  outer loop
   vertex -14.669383 -59.486942 643.641907
   vertex -14.766315 -57.814415 644.891663
   vertex -16.659683 -59.679626 643.682495
  endloop
 endfacet

 facet normal 0.074058 -0.594321 0.800811
  outer loop
   vertex -16.659683 -59.679626 643.682495
   vertex -14.766315 -57.814415 644.891663
   vertex -16.758814 -57.974865 644.956848
  endloop
 endfacet

 facet normal -0.073355 0.568499 -0.819407
  outer loop
   vertex -17.518396 -42.702408 654.542603
   vertex -15.525836 -42.544361 654.473877
   vertex -16.522131 -42.623386 654.508240
  endloop
 endfacet

 facet normal 0.067319 -0.791088 0.607986
  outer loop
   vertex -14.062735 -84.030251 621.357666
   vertex -13.876376 -83.282906 622.309448
   vertex -16.035501 -83.952469 621.677307
  endloop
 endfacet

 facet normal 0.067319 -0.791088 0.607986
  outer loop
   vertex -16.035501 -83.952469 621.677307
   vertex -13.876376 -83.282906 622.309448
   vertex -15.849144 -83.205124 622.629089
  endloop
 endfacet

 facet normal 0.075101 -0.609502 0.789220
  outer loop
   vertex -16.659683 -59.679626 643.682495
   vertex -16.450193 -62.279099 641.655029
   vertex -14.669383 -59.486942 643.641907
  endloop
 endfacet

 facet normal 0.075128 -0.609511 0.789210
  outer loop
   vertex -14.669383 -59.486942 643.641907
   vertex -16.450193 -62.279099 641.655029
   vertex -14.459892 -62.086411 641.614380
  endloop
 endfacet

 facet normal 0.072460 -0.560536 0.824954
  outer loop
   vertex -14.840282 -56.091888 646.116333
   vertex -14.903560 -54.331738 647.317871
   vertex -16.833689 -56.233788 646.195007
  endloop
 endfacet

 facet normal 0.072432 -0.560517 0.824969
  outer loop
   vertex -16.833689 -56.233788 646.195007
   vertex -14.903560 -54.331738 647.317871
   vertex -16.896967 -54.473629 647.396484
  endloop
 endfacet

 facet normal -0.072433 0.560538 -0.824955
  outer loop
   vertex -14.903560 -54.331738 647.317871
   vertex -14.840282 -56.091888 646.116333
   vertex -16.896967 -54.473629 647.396484
  endloop
 endfacet

 facet normal -0.072459 0.560515 -0.824968
  outer loop
   vertex -16.896967 -54.473629 647.396484
   vertex -14.840282 -56.091888 646.116333
   vertex -16.833689 -56.233788 646.195007
  endloop
 endfacet

 facet normal 0.071906 -0.548181 0.833263
  outer loop
   vertex -16.961538 -52.699863 648.568970
   vertex -16.896967 -54.473629 647.396484
   vertex -14.968131 -52.557972 648.490295
  endloop
 endfacet

 facet normal 0.071880 -0.548163 0.833277
  outer loop
   vertex -14.968131 -52.557972 648.490295
   vertex -16.896967 -54.473629 647.396484
   vertex -14.903560 -54.331738 647.317871
  endloop
 endfacet

 facet normal -0.071905 0.548161 -0.833276
  outer loop
   vertex -14.968131 -52.557972 648.490295
   vertex -14.903560 -54.331738 647.317871
   vertex -16.961538 -52.699863 648.568970
  endloop
 endfacet

 facet normal -0.071881 0.548183 -0.833264
  outer loop
   vertex -16.961538 -52.699863 648.568970
   vertex -14.903560 -54.331738 647.317871
   vertex -16.896967 -54.473629 647.396484
  endloop
 endfacet

 facet normal -0.071473 0.538637 -0.839501
  outer loop
   vertex -16.961538 -52.699863 648.568970
   vertex -17.039867 -50.927193 649.713013
   vertex -14.968131 -52.557972 648.490295
  endloop
 endfacet

 facet normal -0.071474 0.538636 -0.839501
  outer loop
   vertex -14.968131 -52.557972 648.490295
   vertex -17.039867 -50.927193 649.713013
   vertex -15.046460 -50.785297 649.634338
  endloop
 endfacet

 facet normal -0.066218 0.795453 -0.602386
  outer loop
   vertex -16.229841 -84.691406 620.722900
   vertex -16.035501 -83.952469 621.677307
   vertex -14.257074 -84.769196 620.403320
  endloop
 endfacet

 facet normal -0.066244 0.795433 -0.602410
  outer loop
   vertex -14.257074 -84.769196 620.403320
   vertex -16.035501 -83.952469 621.677307
   vertex -14.062735 -84.030251 621.357666
  endloop
 endfacet

 facet normal 0.066239 -0.795454 0.602383
  outer loop
   vertex -16.035501 -83.952469 621.677307
   vertex -16.229841 -84.691406 620.722900
   vertex -14.062735 -84.030251 621.357666
  endloop
 endfacet

 facet normal 0.066223 -0.795432 0.602414
  outer loop
   vertex -14.062735 -84.030251 621.357666
   vertex -16.229841 -84.691406 620.722900
   vertex -14.257074 -84.769196 620.403320
  endloop
 endfacet

 facet normal -0.067319 0.791088 -0.607986
  outer loop
   vertex -16.035501 -83.952469 621.677307
   vertex -15.849144 -83.205124 622.629089
   vertex -14.062735 -84.030251 621.357666
  endloop
 endfacet

 facet normal -0.067319 0.791088 -0.607986
  outer loop
   vertex -14.062735 -84.030251 621.357666
   vertex -15.849144 -83.205124 622.629089
   vertex -13.876376 -83.282906 622.309448
  endloop
 endfacet

 facet normal -0.069683 0.504747 -0.860450
  outer loop
   vertex -17.125746 -49.318451 650.710754
   vertex -17.220533 -47.672707 651.683838
   vertex -15.132994 -49.164036 650.639954
  endloop
 endfacet

 facet normal -0.069687 0.504743 -0.860452
  outer loop
   vertex -15.132994 -49.164036 650.639954
   vertex -17.220533 -47.672707 651.683838
   vertex -15.227972 -47.514660 651.615173
  endloop
 endfacet

 facet normal 0.069069 -0.494306 0.866540
  outer loop
   vertex -15.227972 -47.514660 651.615173
   vertex -15.327632 -45.851295 652.571960
   vertex -17.220533 -47.672707 651.683838
  endloop
 endfacet

 facet normal 0.069068 -0.494305 0.866540
  outer loop
   vertex -17.220533 -47.672707 651.683838
   vertex -15.327632 -45.851295 652.571960
   vertex -17.320192 -46.009338 652.640625
  endloop
 endfacet

 facet normal -0.069068 0.494306 -0.866540
  outer loop
   vertex -15.327632 -45.851295 652.571960
   vertex -15.227972 -47.514660 651.615173
   vertex -17.320192 -46.009338 652.640625
  endloop
 endfacet

 facet normal -0.069069 0.494305 -0.866540
  outer loop
   vertex -17.320192 -46.009338 652.640625
   vertex -15.227972 -47.514660 651.615173
   vertex -17.220533 -47.672707 651.683838
  endloop
 endfacet

 facet normal 0.068910 -0.491659 0.868057
  outer loop
   vertex -15.327632 -45.851295 652.571960
   vertex -15.428235 -44.188950 653.521484
   vertex -17.320192 -46.009338 652.640625
  endloop
 endfacet

 facet normal 0.068911 -0.491660 0.868056
  outer loop
   vertex -17.320192 -46.009338 652.640625
   vertex -15.428235 -44.188950 653.521484
   vertex -17.420795 -44.346996 653.590149
  endloop
 endfacet

 facet normal -0.068910 0.491660 -0.868056
  outer loop
   vertex -17.320192 -46.009338 652.640625
   vertex -17.420795 -44.346996 653.590149
   vertex -15.327632 -45.851295 652.571960
  endloop
 endfacet

 facet normal -0.068911 0.491659 -0.868057
  outer loop
   vertex -15.327632 -45.851295 652.571960
   vertex -17.420795 -44.346996 653.590149
   vertex -15.428235 -44.188950 653.521484
  endloop
 endfacet

 facet normal 0.071473 -0.538636 0.839501
  outer loop
   vertex -14.968131 -52.557972 648.490295
   vertex -15.046460 -50.785297 649.634338
   vertex -16.961538 -52.699863 648.568970
  endloop
 endfacet

 facet normal 0.071474 -0.538637 0.839501
  outer loop
   vertex -16.961538 -52.699863 648.568970
   vertex -15.046460 -50.785297 649.634338
   vertex -17.039867 -50.927193 649.713013
  endloop
 endfacet

 facet normal -0.069222 0.496882 -0.865053
  outer loop
   vertex -17.420795 -44.346996 653.590149
   vertex -17.518396 -42.702408 654.542603
   vertex -15.428235 -44.188950 653.521484
  endloop
 endfacet

 facet normal -0.069247 0.496856 -0.865066
  outer loop
   vertex -15.428235 -44.188950 653.521484
   vertex -17.518396 -42.702408 654.542603
   vertex -15.525836 -42.544361 654.473877
  endloop
 endfacet

 facet normal -0.068354 0.786831 -0.613372
  outer loop
   vertex -16.406307 -85.437943 619.784912
   vertex -16.229841 -84.691406 620.722900
   vertex -14.433540 -85.515739 619.465271
  endloop
 endfacet

 facet normal -0.068334 0.786846 -0.613354
  outer loop
   vertex -14.433540 -85.515739 619.465271
   vertex -16.229841 -84.691406 620.722900
   vertex -14.257074 -84.769196 620.403320
  endloop
 endfacet

 facet normal 0.069221 -0.496858 0.865067
  outer loop
   vertex -15.428235 -44.188950 653.521484
   vertex -15.525836 -42.544361 654.473877
   vertex -17.420795 -44.346996 653.590149
  endloop
 endfacet

 facet normal 0.069248 -0.496880 0.865052
  outer loop
   vertex -17.420795 -44.346996 653.590149
   vertex -15.525836 -42.544361 654.473877
   vertex -17.518396 -42.702408 654.542603
  endloop
 endfacet

 facet normal 0.068350 -0.786847 0.613352
  outer loop
   vertex -14.433540 -85.515739 619.465271
   vertex -14.257074 -84.769196 620.403320
   vertex -16.406307 -85.437943 619.784912
  endloop
 endfacet

 facet normal 0.068338 -0.786830 0.613374
  outer loop
   vertex -16.406307 -85.437943 619.784912
   vertex -14.257074 -84.769196 620.403320
   vertex -16.229841 -84.691406 620.722900
  endloop
 endfacet

endsolid