solid stl file generated from DOUG
 facet normal -0.999847 0.000008 -0.017491
  outer loop
   vertex 153.039566 22.082563 489.086914
   vertex 153.141052 -5.271341 483.273529
   vertex 153.135590 -5.287709 483.585785
  endloop
 facet normal -0.999847 -0.000004 -0.017492
  outer loop
   vertex 153.135590 -5.287709 483.585785
   vertex 153.141052 -5.271341 483.273529
   vertex 153.090408 -32.872650 486.174072
  endloop
 facet normal -0.999848 0.000003 -0.017417
  outer loop
   vertex 153.090408 -32.872650 486.174072
   vertex 153.085144 -32.793346 486.476288
   vertex 153.135590 -5.287709 483.585785
  endloop
 facet normal -0.004430 -0.967262 0.253740
  outer loop
   vertex 154.090256 -32.872650 486.191528
   vertex 153.085144 -32.793346 486.476288
   vertex 153.090408 -32.872650 486.174072
  endloop
 facet normal -0.004430 -0.967262 0.253740
  outer loop
   vertex 154.084991 -32.793346 486.493744
   vertex 153.085144 -32.793346 486.476288
   vertex 154.090256 -32.872650 486.191528
  endloop
 facet normal 0.999848 -0.000003 0.017417
  outer loop
   vertex 154.090256 -32.872650 486.191528
   vertex 154.135437 -5.287709 483.603241
   vertex 154.084991 -32.793346 486.493744
  endloop
 facet normal 0.999847 0.000004 0.017492
  outer loop
   vertex 154.090256 -32.872650 486.191528
   vertex 154.140900 -5.271341 483.290985
   vertex 154.135437 -5.287709 483.603241
  endloop
 facet normal 0.999847 -0.000008 0.017491
  outer loop
   vertex 154.135437 -5.287709 483.603241
   vertex 154.140900 -5.271341 483.290985
   vertex 154.039413 22.082563 489.104370
  endloop
 facet normal 0.999848 0.000001 0.017446
  outer loop
   vertex 154.039413 22.082563 489.104370
   vertex 154.034317 21.971388 489.396454
   vertex 154.135437 -5.287709 483.603241
  endloop
 facet normal -0.006209 0.934606 0.355630
  outer loop
   vertex 153.039566 22.082563 489.086914
   vertex 154.034317 21.971388 489.396454
   vertex 154.039413 22.082563 489.104370
  endloop
 facet normal -0.006209 0.934606 0.355630
  outer loop
   vertex 153.034470 21.971388 489.378998
   vertex 154.034317 21.971388 489.396454
   vertex 153.039566 22.082563 489.086914
  endloop
 facet normal -0.999848 -0.000001 -0.017446
  outer loop
   vertex 153.039566 22.082563 489.086914
   vertex 153.135590 -5.287709 483.585785
   vertex 153.034470 21.971388 489.378998
  endloop
 facet normal 0.017360 -0.104527 -0.994370
  outer loop
   vertex 154.090256 -32.872650 486.191528
   vertex 153.090408 -32.872650 486.174072
   vertex 154.140900 -5.271341 483.290985
  endloop
 facet normal 0.017360 -0.104527 -0.994370
  outer loop
   vertex 154.140900 -5.271341 483.290985
   vertex 153.090408 -32.872650 486.174072
   vertex 153.141052 -5.271341 483.273529
  endloop
 facet normal 0.017075 0.207912 -0.977998
  outer loop
   vertex 153.141052 -5.271341 483.273529
   vertex 154.039413 22.082563 489.104370
   vertex 154.140900 -5.271341 483.290985
  endloop
 facet normal 0.017075 0.207912 -0.977998
  outer loop
   vertex 153.039566 22.082563 489.086914
   vertex 154.039413 22.082563 489.104370
   vertex 153.141052 -5.271341 483.273529
  endloop
 facet normal -0.017075 -0.207912 0.977999
  outer loop
   vertex 154.034317 21.971388 489.396454
   vertex 153.034470 21.971388 489.378998
   vertex 154.135437 -5.287709 483.603241
  endloop
 facet normal -0.017075 -0.207912 0.977999
  outer loop
   vertex 154.135437 -5.287709 483.603241
   vertex 153.034470 21.971388 489.378998
   vertex 153.135590 -5.287709 483.585785
  endloop
 facet normal -0.017360 0.104528 0.994370
  outer loop
   vertex 153.135590 -5.287709 483.585785
   vertex 154.084991 -32.793346 486.493744
   vertex 154.135437 -5.287709 483.603241
  endloop
 facet normal -0.017360 0.104528 0.994370
  outer loop
   vertex 153.085144 -32.793346 486.476288
   vertex 154.084991 -32.793346 486.493744
   vertex 153.135590 -5.287709 483.585785
  endloop
endsolid