solid stl file generated from DOUG
 facet normal -0.999848 0.000002 -0.017453
  outer loop
   vertex -70.495422 -97.873062 594.973694
   vertex -70.487885 -97.861748 594.541870
   vertex -70.489136 -98.111488 594.613525
  endloop
 facet normal 0.999847 0.000005 0.017491
  outer loop
   vertex 222.438477 -97.873215 600.090149
   vertex 222.444778 -98.111656 599.729980
   vertex 222.446030 -97.861908 599.658386
  endloop
 facet normal -0.016787 0.275605 0.961124
  outer loop
   vertex 222.444778 -98.111656 599.729980
   vertex 222.446030 -97.861908 599.658386
   vertex -70.487885 -97.861748 594.541870
  endloop
 facet normal 0.016786 -0.275830 -0.961060
  outer loop
   vertex -70.489136 -98.111488 594.613525
   vertex -70.487885 -97.861748 594.541870
   vertex 222.444778 -98.111656 599.729980
  endloop
 facet normal 0.009639 0.833886 -0.551852
  outer loop
   vertex -70.489136 -98.111488 594.613525
   vertex -70.495422 -97.873062 594.973694
   vertex 222.444778 -98.111656 599.729980
  endloop
 facet normal 0.009640 0.833870 -0.551877
  outer loop
   vertex 222.444778 -98.111656 599.729980
   vertex -70.495422 -97.873062 594.973694
   vertex 222.438477 -97.873215 600.090149
  endloop
 facet normal -0.000457 0.999657 0.026184
  outer loop
   vertex -70.487885 -97.861748 594.541870
   vertex -70.495422 -97.873062 594.973694
   vertex 222.446030 -97.861908 599.658386
  endloop
 facet normal -0.000457 0.999657 0.026170
  outer loop
   vertex 222.446030 -97.861908 599.658386
   vertex -70.495422 -97.873062 594.973694
   vertex 222.438477 -97.873215 600.090149
  endloop
 facet normal -0.999848 0.000000 -0.017453
  outer loop
   vertex 222.311981 -98.634651 601.059509
   vertex 222.399567 -93.831802 596.042053
   vertex 222.345535 -99.185928 599.137268
  endloop
 facet normal 0.015323 -0.500543 -0.865576
  outer loop
   vertex 222.345535 -99.185928 599.137268
   vertex 222.399567 -93.831802 596.042053
   vertex 222.545502 -99.185928 599.140808
  endloop
 facet normal -0.004879 -0.961262 0.275594
  outer loop
   vertex 222.545502 -99.185928 599.140808
   vertex 222.311981 -98.634651 601.059509
   vertex 222.345535 -99.185928 599.137268
  endloop
 facet normal -0.004795 -0.961259 0.275603
  outer loop
   vertex 222.511948 -98.634651 601.062988
   vertex 222.311981 -98.634651 601.059509
   vertex 222.545502 -99.185928 599.140808
  endloop
 facet normal -0.017385 0.034260 0.999262
  outer loop
   vertex 222.515656 -92.453621 600.851135
   vertex 222.311981 -98.634651 601.059509
   vertex 222.511948 -98.634651 601.062988
  endloop
 facet normal 0.999848 -0.000002 0.017454
  outer loop
   vertex 222.511948 -98.634651 601.062988
   vertex 222.545502 -99.185928 599.140808
   vertex 222.515656 -92.453621 600.851135
  endloop
 facet normal 0.999848 -0.000001 0.017452
  outer loop
   vertex 222.515656 -92.453621 600.851135
   vertex 222.545502 -99.185928 599.140808
   vertex 222.599533 -93.831802 596.045532
  endloop
 facet normal 0.015059 -0.500551 -0.865576
  outer loop
   vertex 222.599533 -93.831802 596.045532
   vertex 222.545502 -99.185928 599.140808
   vertex 222.399567 -93.831802 596.042053
  endloop
 facet normal 0.004795 0.961262 -0.275593
  outer loop
   vertex 222.399567 -93.831802 596.042053
   vertex 222.515656 -92.453621 600.851135
   vertex 222.599533 -93.831802 596.045532
  endloop
 facet normal 0.004795 0.961262 -0.275593
  outer loop
   vertex 222.315689 -92.453621 600.847656
   vertex 222.515656 -92.453621 600.851135
   vertex 222.399567 -93.831802 596.042053
  endloop
 facet normal -0.017385 0.034260 0.999262
  outer loop
   vertex 222.311981 -98.634651 601.059509
   vertex 222.515656 -92.453621 600.851135
   vertex 222.315689 -92.453621 600.847656
  endloop
 facet normal -0.999848 0.000002 -0.017452
  outer loop
   vertex 222.315689 -92.453621 600.847656
   vertex 222.399567 -93.831802 596.042053
   vertex 222.311981 -98.634651 601.059509
  endloop
 facet normal 0.999848 -0.000000 0.017453
  outer loop
   vertex -70.272972 -99.185905 594.029297
   vertex -70.218941 -93.831787 590.934082
   vertex -70.302826 -92.453606 595.739624
  endloop
 facet normal 0.004879 0.961261 -0.275595
  outer loop
   vertex -70.302826 -92.453606 595.739624
   vertex -70.218941 -93.831787 590.934082
   vertex -70.418922 -93.831787 590.930542
  endloop
 facet normal 0.004794 0.961262 -0.275593
  outer loop
   vertex -70.418922 -93.831787 590.930542
   vertex -70.502808 -92.453606 595.736145
   vertex -70.302826 -92.453606 595.739624
  endloop
 facet normal -0.999848 0.000000 -0.017453
  outer loop
   vertex -70.506508 -98.634636 595.948059
   vertex -70.502808 -92.453606 595.736145
   vertex -70.418922 -93.831787 590.930542
  endloop
 facet normal -0.017384 0.034270 0.999261
  outer loop
   vertex -70.302826 -92.453606 595.739624
   vertex -70.502808 -92.453606 595.736145
   vertex -70.506508 -98.634636 595.948059
  endloop
 facet normal -0.017384 0.034270 0.999261
  outer loop
   vertex -70.506508 -98.634636 595.948059
   vertex -70.306526 -98.634636 595.951538
   vertex -70.302826 -92.453606 595.739624
  endloop
 facet normal 0.999848 -0.000000 0.017453
  outer loop
   vertex -70.302826 -92.453606 595.739624
   vertex -70.306526 -98.634636 595.951538
   vertex -70.272972 -99.185905 594.029297
  endloop
 facet normal -0.004794 -0.961263 0.275592
  outer loop
   vertex -70.272972 -99.185905 594.029297
   vertex -70.306526 -98.634636 595.951538
   vertex -70.506508 -98.634636 595.948059
  endloop
 facet normal -0.004794 -0.961263 0.275592
  outer loop
   vertex -70.506508 -98.634636 595.948059
   vertex -70.472954 -99.185905 594.025818
   vertex -70.272972 -99.185905 594.029297
  endloop
 facet normal -0.999848 0.000000 -0.017453
  outer loop
   vertex -70.418922 -93.831787 590.930542
   vertex -70.472954 -99.185905 594.025818
   vertex -70.506508 -98.634636 595.948059
  endloop
 facet normal 0.015058 -0.500551 -0.865576
  outer loop
   vertex -70.272972 -99.185905 594.029297
   vertex -70.472954 -99.185905 594.025818
   vertex -70.418922 -93.831787 590.930542
  endloop
 facet normal 0.015322 -0.500544 -0.865576
  outer loop
   vertex -70.418922 -93.831787 590.930542
   vertex -70.218941 -93.831787 590.934082
   vertex -70.272972 -99.185905 594.029297
  endloop
endsolid