solid stl file generated from DOUG
 facet normal -0.872696 -0.314617 0.373386
  outer loop
   vertex 64.884468 59.636467 628.241760
   vertex 64.889977 59.246983 627.926453
   vertex 65.006798 59.499893 628.412598
  endloop
 facet normal -0.872652 -0.314702 0.373419
  outer loop
   vertex 65.006798 59.499893 628.412598
   vertex 64.889977 59.246983 627.926453
   vertex 65.012306 59.110409 628.097229
  endloop
 facet normal -0.013628 -0.629343 0.777008
  outer loop
   vertex 65.012306 59.110409 628.097229
   vertex 65.257347 59.499893 628.416992
   vertex 65.006798 59.499893 628.412598
  endloop
 facet normal -0.013628 -0.629343 0.777008
  outer loop
   vertex 65.262856 59.110409 628.101624
   vertex 65.257347 59.499893 628.416992
   vertex 65.012306 59.110409 628.097229
  endloop
 facet normal 0.859113 -0.314666 0.403622
  outer loop
   vertex 65.385567 59.636467 628.250549
   vertex 65.257347 59.499893 628.416992
   vertex 65.262856 59.110409 628.101624
  endloop
 facet normal 0.859113 -0.314666 0.403622
  outer loop
   vertex 65.262856 59.110409 628.101624
   vertex 65.391075 59.246983 627.935181
   vertex 65.385567 59.636467 628.250549
  endloop
 facet normal 0.872694 0.314655 -0.373360
  outer loop
   vertex 65.385567 59.636467 628.250549
   vertex 65.391075 59.246983 627.935181
   vertex 65.263237 59.773037 628.079712
  endloop
 facet normal 0.872681 0.314659 -0.373387
  outer loop
   vertex 65.263237 59.773037 628.079712
   vertex 65.391075 59.246983 627.935181
   vertex 65.268738 59.383553 627.764343
  endloop
 facet normal 0.013628 0.629343 -0.777009
  outer loop
   vertex 65.268738 59.383553 627.764343
   vertex 65.012688 59.773037 628.075317
   vertex 65.263237 59.773037 628.079712
  endloop
 facet normal 0.013441 0.629269 -0.777071
  outer loop
   vertex 65.018196 59.383553 627.760010
   vertex 65.012688 59.773037 628.075317
   vertex 65.268738 59.383553 627.764343
  endloop
 facet normal -0.859110 0.314630 -0.403656
  outer loop
   vertex 64.884468 59.636467 628.241760
   vertex 65.012688 59.773037 628.075317
   vertex 65.018196 59.383553 627.760010
  endloop
 facet normal -0.859110 0.314630 -0.403656
  outer loop
   vertex 65.018196 59.383553 627.760010
   vertex 64.889977 59.246983 627.926453
   vertex 64.884468 59.636467 628.241760
  endloop
 facet normal 0.859110 -0.314635 0.403652
  outer loop
   vertex 43.299141 59.246983 627.549561
   vertex 43.293636 59.636467 627.864868
   vertex 43.170921 59.110413 627.716003
  endloop
 facet normal 0.859112 -0.314634 0.403647
  outer loop
   vertex 43.170921 59.110413 627.716003
   vertex 43.293636 59.636467 627.864868
   vertex 43.165417 59.499893 628.031311
  endloop
 facet normal -0.013629 -0.629273 0.777065
  outer loop
   vertex 43.165417 59.499893 628.031311
   vertex 42.920372 59.110413 627.711609
   vertex 43.170921 59.110413 627.716003
  endloop
 facet normal -0.013439 -0.629346 0.777009
  outer loop
   vertex 42.914867 59.499893 628.026978
   vertex 42.920372 59.110413 627.711609
   vertex 43.165417 59.499893 628.031311
  endloop
 facet normal -0.872694 -0.314652 0.373363
  outer loop
   vertex 42.798042 59.246983 627.540771
   vertex 42.920372 59.110413 627.711609
   vertex 42.914867 59.499893 628.026978
  endloop
 facet normal -0.872696 -0.314647 0.373361
  outer loop
   vertex 42.914867 59.499893 628.026978
   vertex 42.792538 59.636467 627.856140
   vertex 42.798042 59.246983 627.540771
  endloop
 facet normal -0.859110 0.314673 -0.403621
  outer loop
   vertex 42.798042 59.246983 627.540771
   vertex 42.792538 59.636467 627.856140
   vertex 42.926262 59.383553 627.374329
  endloop
 facet normal -0.859110 0.314673 -0.403621
  outer loop
   vertex 42.926262 59.383553 627.374329
   vertex 42.792538 59.636467 627.856140
   vertex 42.920757 59.773037 627.689697
  endloop
 facet normal 0.013629 0.629343 -0.777008
  outer loop
   vertex 42.920757 59.773037 627.689697
   vertex 43.176807 59.383553 627.378723
   vertex 42.926262 59.383553 627.374329
  endloop
 facet normal 0.013629 0.629343 -0.777008
  outer loop
   vertex 43.171303 59.773037 627.694092
   vertex 43.176807 59.383553 627.378723
   vertex 42.920757 59.773037 627.689697
  endloop
 facet normal 0.872687 0.314657 -0.373374
  outer loop
   vertex 43.299141 59.246983 627.549561
   vertex 43.176807 59.383553 627.378723
   vertex 43.171303 59.773037 627.694092
  endloop
 facet normal 0.872643 0.314672 -0.373464
  outer loop
   vertex 43.171303 59.773037 627.694092
   vertex 43.293636 59.636467 627.864868
   vertex 43.299141 59.246983 627.549561
  endloop
 facet normal -0.010884 0.777111 0.629270
  outer loop
   vertex 42.914867 59.499893 628.026978
   vertex 43.165417 59.499893 628.031311
   vertex 43.043087 59.636467 627.860535
  endloop
 facet normal -0.010884 0.777111 0.629270
  outer loop
   vertex 43.043087 59.636467 627.860535
   vertex 43.165417 59.499893 628.031311
   vertex 43.293636 59.636467 627.864868
  endloop
 facet normal -0.010884 0.777119 0.629259
  outer loop
   vertex 43.293636 59.636467 627.864868
   vertex 43.171303 59.773037 627.694092
   vertex 43.043087 59.636467 627.860535
  endloop
 facet normal -0.011036 0.777175 0.629188
  outer loop
   vertex 65.012688 59.773037 628.075317
   vertex 64.884468 59.636467 628.241760
   vertex 65.135017 59.636467 628.246155
  endloop
 facet normal -0.011036 0.777167 0.629198
  outer loop
   vertex 65.135017 59.636467 628.246155
   vertex 64.884468 59.636467 628.241760
   vertex 65.006798 59.499893 628.412598
  endloop
 facet normal -0.011036 0.777167 0.629198
  outer loop
   vertex 65.006798 59.499893 628.412598
   vertex 65.257347 59.499893 628.416992
   vertex 65.135017 59.636467 628.246155
  endloop
 facet normal -0.011036 0.777167 0.629198
  outer loop
   vertex 65.257347 59.499893 628.416992
   vertex 65.385567 59.636467 628.250549
   vertex 65.135017 59.636467 628.246155
  endloop
 facet normal -0.011036 0.777175 0.629188
  outer loop
   vertex 65.135017 59.636467 628.246155
   vertex 65.385567 59.636467 628.250549
   vertex 65.263237 59.773037 628.079712
  endloop
 facet normal -0.011036 0.777175 0.629188
  outer loop
   vertex 65.263237 59.773037 628.079712
   vertex 65.012688 59.773037 628.075317
   vertex 65.135017 59.636467 628.246155
  endloop
 facet normal -0.011036 0.777175 0.629188
  outer loop
   vertex 43.171303 59.773037 627.694092
   vertex 42.920757 59.773037 627.689697
   vertex 43.043087 59.636467 627.860535
  endloop
 facet normal -0.011036 0.777175 0.629188
  outer loop
   vertex 43.043087 59.636467 627.860535
   vertex 42.920757 59.773037 627.689697
   vertex 42.792538 59.636467 627.856140
  endloop
 facet normal -0.011036 0.777167 0.629198
  outer loop
   vertex 42.792538 59.636467 627.856140
   vertex 42.914867 59.499893 628.026978
   vertex 43.043087 59.636467 627.860535
  endloop
 facet normal -0.010991 0.777146 0.629225
  outer loop
   vertex 63.709469 58.448532 626.454651
   vertex 63.692513 57.661758 627.426086
   vertex 66.700417 58.448532 626.506897
  endloop
 facet normal -0.010991 0.777146 0.629225
  outer loop
   vertex 66.700417 58.448532 626.506897
   vertex 63.692513 57.661758 627.426086
   vertex 66.683456 57.661758 627.478333
  endloop
 facet normal 0.999848 -0.000002 0.017455
  outer loop
   vertex 66.683456 57.661758 627.478333
   vertex 66.715668 57.369404 625.633179
   vertex 66.700417 58.448532 626.506897
  endloop
 facet normal 0.999848 -0.000002 0.017455
  outer loop
   vertex 66.698708 56.582626 626.604614
   vertex 66.715668 57.369404 625.633179
   vertex 66.683456 57.661758 627.478333
  endloop
 facet normal 0.010991 -0.777144 -0.629227
  outer loop
   vertex 63.707764 56.582626 626.552368
   vertex 66.715668 57.369404 625.633179
   vertex 66.698708 56.582626 626.604614
  endloop
 facet normal -0.013573 -0.629315 0.777032
  outer loop
   vertex 66.698708 56.582626 626.604614
   vertex 63.692513 57.661758 627.426086
   vertex 63.707764 56.582626 626.552368
  endloop
 facet normal -0.999848 0.000002 -0.017455
  outer loop
   vertex 63.707764 56.582626 626.552368
   vertex 63.692513 57.661758 627.426086
   vertex 63.724724 57.369404 625.580933
  endloop
 facet normal -0.999848 -0.000002 -0.017454
  outer loop
   vertex 63.724724 57.369404 625.580933
   vertex 63.692513 57.661758 627.426086
   vertex 63.709469 58.448532 626.454651
  endloop
 facet normal 0.013573 0.629316 -0.777031
  outer loop
   vertex 63.709469 58.448532 626.454651
   vertex 66.715668 57.369404 625.633179
   vertex 63.724724 57.369404 625.580933
  endloop
 facet normal 0.013573 0.629316 -0.777031
  outer loop
   vertex 66.700417 58.448532 626.506897
   vertex 66.715668 57.369404 625.633179
   vertex 63.709469 58.448532 626.454651
  endloop
 facet normal -0.999848 0.000002 -0.017455
  outer loop
   vertex 41.554600 57.369404 625.193970
   vertex 41.537640 56.582626 626.165405
   vertex 41.539349 58.448536 626.067688
  endloop
 facet normal -0.999848 0.000002 -0.017455
  outer loop
   vertex 41.539349 58.448536 626.067688
   vertex 41.537640 56.582626 626.165405
   vertex 41.522388 57.661758 627.039124
  endloop
 facet normal -0.010979 0.777144 0.629227
  outer loop
   vertex 41.522388 57.661758 627.039124
   vertex 44.530293 58.448536 626.119873
   vertex 41.539349 58.448536 626.067688
  endloop
 facet normal -0.010979 0.777144 0.629227
  outer loop
   vertex 44.513332 57.661758 627.091309
   vertex 44.530293 58.448536 626.119873
   vertex 41.522388 57.661758 627.039124
  endloop
 facet normal 0.999848 0.000000 0.017457
  outer loop
   vertex 44.528587 56.582626 626.217590
   vertex 44.530293 58.448536 626.119873
   vertex 44.513332 57.661758 627.091309
  endloop
 facet normal -0.013557 -0.629315 0.777032
  outer loop
   vertex 44.513332 57.661758 627.091309
   vertex 41.537640 56.582626 626.165405
   vertex 44.528587 56.582626 626.217590
  endloop
 facet normal 0.010979 -0.777144 -0.629227
  outer loop
   vertex 44.528587 56.582626 626.217590
   vertex 41.537640 56.582626 626.165405
   vertex 44.545544 57.369404 625.246155
  endloop
 facet normal 0.010979 -0.777144 -0.629227
  outer loop
   vertex 44.545544 57.369404 625.246155
   vertex 41.537640 56.582626 626.165405
   vertex 41.554600 57.369404 625.193970
  endloop
 facet normal 0.013557 0.629315 -0.777032
  outer loop
   vertex 41.554600 57.369404 625.193970
   vertex 44.530293 58.448536 626.119873
   vertex 44.545544 57.369404 625.246155
  endloop
 facet normal 0.013557 0.629315 -0.777032
  outer loop
   vertex 41.539349 58.448536 626.067688
   vertex 44.530293 58.448536 626.119873
   vertex 41.554600 57.369404 625.193970
  endloop
 facet normal -0.013557 -0.629315 0.777032
  outer loop
   vertex 44.513332 57.661758 627.091309
   vertex 41.522388 57.661758 627.039124
   vertex 41.537640 56.582626 626.165405
  endloop
 facet normal -0.013573 -0.629315 0.777032
  outer loop
   vertex 66.683456 57.661758 627.478333
   vertex 63.692513 57.661758 627.426086
   vertex 66.698708 56.582626 626.604614
  endloop
 facet normal 0.999848 0.000000 0.017452
  outer loop
   vertex 44.528587 56.582626 626.217590
   vertex 44.545544 57.369404 625.246155
   vertex 44.530293 58.448536 626.119873
  endloop
 facet normal 0.010991 -0.777144 -0.629227
  outer loop
   vertex 63.707764 56.582626 626.552368
   vertex 63.724724 57.369404 625.580933
   vertex 66.715668 57.369404 625.633179
  endloop
 facet normal -0.010982 0.777267 0.629075
  outer loop
   vertex 63.898632 60.701736 628.077087
   vertex 44.283134 60.632755 627.819885
   vertex 63.897144 60.632755 628.162292
  endloop
 facet normal -0.017437 -0.044961 0.998837
  outer loop
   vertex 63.897144 60.632755 628.162292
   vertex 44.283134 60.632755 627.819885
   vertex 63.897259 60.487625 628.155762
  endloop
 facet normal -0.017483 -0.023849 0.999563
  outer loop
   vertex 45.010368 59.770741 628.991272
   vertex 43.851871 59.665829 628.968506
   vertex 45.010410 59.665829 628.988770
  endloop
 facet normal -0.013591 -0.629297 0.777046
  outer loop
   vertex 45.010410 59.665829 628.988770
   vertex 43.851871 59.665829 628.968506
   vertex 43.861118 59.011761 628.438965
  endloop
 facet normal 0.013591 0.629341 -0.777010
  outer loop
   vertex 64.319855 60.058334 627.503479
   vertex 63.152073 60.712402 628.012817
   vertex 64.310608 60.712402 628.033081
  endloop
 facet normal 0.004043 0.972915 -0.231127
  outer loop
   vertex 64.310608 60.712402 628.033081
   vertex 63.152073 60.712402 628.012817
   vertex 63.150288 60.736668 628.114929
  endloop
 facet normal 0.004392 0.967822 -0.251597
  outer loop
   vertex 44.267265 59.746143 628.728882
   vertex 44.264812 59.782696 628.869446
   vertex 63.878822 59.782696 629.211853
  endloop
 facet normal -0.010987 0.777046 0.629348
  outer loop
   vertex 63.878822 59.782696 629.211853
   vertex 44.264812 59.782696 628.869446
   vertex 63.877335 59.713715 629.296997
  endloop
 facet normal -0.005391 0.951104 0.308823
  outer loop
   vertex 44.292610 60.083229 627.277039
   vertex 63.906620 60.083225 627.619446
   vertex 44.293205 60.094311 627.242920
  endloop
 facet normal -0.005383 0.951235 0.308421
  outer loop
   vertex 44.293205 60.094311 627.242920
   vertex 63.906620 60.083225 627.619446
   vertex 63.907215 60.094311 627.585266
  endloop
 facet normal 0.013562 0.629327 -0.777022
  outer loop
   vertex 63.907215 60.094311 627.585266
   vertex 44.293980 60.039433 627.198486
   vertex 44.293205 60.094311 627.242920
  endloop
 facet normal -0.999847 -0.000023 -0.017486
  outer loop
   vertex 43.874432 60.712402 627.676331
   vertex 43.871376 60.550674 627.851257
   vertex 43.872646 60.736668 627.778381
  endloop
 facet normal -0.999848 -0.000009 -0.017452
  outer loop
   vertex 43.872646 60.736668 627.778381
   vertex 43.871376 60.550674 627.851257
   vertex 43.870491 60.636627 627.901917
  endloop
 facet normal -0.011005 0.777182 0.629180
  outer loop
   vertex 43.870491 60.636627 627.901917
   vertex 45.031185 60.736668 627.798645
   vertex 43.872646 60.736668 627.778381
  endloop
 facet normal 0.999847 0.000020 0.017465
  outer loop
   vertex 64.288055 59.665825 629.325256
   vertex 64.291451 59.803337 629.130737
   vertex 64.288010 59.770741 629.327759
  endloop
 facet normal 0.999848 -0.000034 0.017456
  outer loop
   vertex 64.288010 59.770741 629.327759
   vertex 64.291451 59.803337 629.130737
   vertex 64.290169 59.870781 629.204285
  endloop
 facet normal -0.010975 0.777030 0.629368
  outer loop
   vertex 64.290169 59.870781 629.204285
   vertex 63.129471 59.770741 629.307556
   vertex 64.288010 59.770741 629.327759
  endloop
 facet normal 0.999848 0.000019 0.017459
  outer loop
   vertex 45.012524 59.870781 628.867737
   vertex 45.010368 59.770741 628.991272
   vertex 45.013809 59.803337 628.794189
  endloop
 facet normal 0.999848 -0.000016 0.017454
  outer loop
   vertex 45.013809 59.803337 628.794189
   vertex 45.010368 59.770741 628.991272
   vertex 45.010410 59.665829 628.988770
  endloop
 facet normal 0.999848 -0.000004 0.017462
  outer loop
   vertex 45.010410 59.665829 628.988770
   vertex 45.019657 59.011761 628.459167
   vertex 45.013809 59.803337 628.794189
  endloop
 facet normal -0.013550 -0.629341 0.777011
  outer loop
   vertex 43.861118 59.011761 628.438965
   vertex 45.019657 59.011761 628.459167
   vertex 45.010410 59.665829 628.988770
  endloop
 facet normal 0.004393 0.967816 -0.251622
  outer loop
   vertex 63.878822 59.782696 629.211853
   vertex 63.881279 59.746140 629.071289
   vertex 44.267265 59.746143 628.728882
  endloop
 facet normal -0.010984 0.777149 0.629221
  outer loop
   vertex 44.267265 59.746143 628.728882
   vertex 63.881279 59.746140 629.071289
   vertex 63.897259 60.487625 628.155762
  endloop
 facet normal -0.010984 0.777149 0.629221
  outer loop
   vertex 63.897259 60.487625 628.155762
   vertex 44.283249 60.487629 627.813354
   vertex 44.267265 59.746143 628.728882
  endloop
 facet normal -0.017437 -0.044962 0.998837
  outer loop
   vertex 44.283134 60.632755 627.819885
   vertex 44.283249 60.487629 627.813354
   vertex 63.897259 60.487625 628.155762
  endloop
 facet normal 0.013550 0.629297 -0.777047
  outer loop
   vertex 64.319855 60.058334 627.503479
   vertex 63.161316 60.058334 627.483276
   vertex 63.152073 60.712402 628.012817
  endloop
 facet normal -0.999848 0.000006 -0.017460
  outer loop
   vertex 63.152073 60.712402 628.012817
   vertex 63.161316 60.058334 627.483276
   vertex 63.149017 60.550674 628.187744
  endloop
 facet normal -0.999847 -0.000014 -0.017478
  outer loop
   vertex 63.149017 60.550674 628.187744
   vertex 63.150288 60.736668 628.114929
   vertex 63.152073 60.712402 628.012817
  endloop
 facet normal -0.999848 -0.000001 -0.017445
  outer loop
   vertex 63.148132 60.636627 628.238464
   vertex 63.150288 60.736668 628.114929
   vertex 63.149017 60.550674 628.187744
  endloop
 facet normal 0.015118 -0.499761 -0.866031
  outer loop
   vertex 63.899883 60.560028 628.005493
   vertex 44.285870 60.560032 627.663086
   vertex 63.900196 60.591133 627.987549
  endloop
 facet normal 0.015118 -0.499761 -0.866031
  outer loop
   vertex 63.900196 60.591133 627.987549
   vertex 44.285870 60.560032 627.663086
   vertex 44.286182 60.591137 627.645142
  endloop
 facet normal 0.013566 0.629267 -0.777071
  outer loop
   vertex 44.286182 60.591137 627.645142
   vertex 63.898632 60.701736 628.077087
   vertex 63.900196 60.591133 627.987549
  endloop
 facet normal 0.013565 0.629280 -0.777060
  outer loop
   vertex 44.284622 60.701736 627.734680
   vertex 63.898632 60.701736 628.077087
   vertex 44.286182 60.591137 627.645142
  endloop
 facet normal -0.010982 0.777267 0.629075
  outer loop
   vertex 44.283134 60.632755 627.819885
   vertex 63.898632 60.701736 628.077087
   vertex 44.284622 60.701736 627.734680
  endloop
 facet normal -0.011000 0.777145 0.629226
  outer loop
   vertex 65.721657 59.613655 627.520508
   vertex 64.058624 58.912003 628.358032
   vertex 65.706535 58.912003 628.386841
  endloop
 facet normal -0.013584 -0.629320 0.777027
  outer loop
   vertex 65.706535 58.912003 628.386841
   vertex 64.058624 58.912003 628.358032
   vertex 65.723465 57.714382 627.417175
  endloop
 facet normal 0.999848 0.000002 0.017454
  outer loop
   vertex 65.723465 57.714382 627.417175
   vertex 65.738586 58.416039 626.550842
   vertex 65.706535 58.912003 628.386841
  endloop
 facet normal 0.011000 -0.777143 -0.629228
  outer loop
   vertex 64.075554 57.714382 627.388367
   vertex 65.738586 58.416039 626.550842
   vertex 65.723465 57.714382 627.417175
  endloop
 facet normal 0.011000 -0.777143 -0.629228
  outer loop
   vertex 64.090675 58.416039 626.522034
   vertex 65.738586 58.416039 626.550842
   vertex 64.075554 57.714382 627.388367
  endloop
 facet normal -0.999848 -0.000002 -0.017454
  outer loop
   vertex 64.075554 57.714382 627.388367
   vertex 64.058624 58.912003 628.358032
   vertex 64.090675 58.416039 626.522034
  endloop
 facet normal -0.999848 0.000006 -0.017456
  outer loop
   vertex 64.090675 58.416039 626.522034
   vertex 64.058624 58.912003 628.358032
   vertex 64.073753 59.613655 627.491699
  endloop
 facet normal -0.011000 0.777145 0.629226
  outer loop
   vertex 64.073753 59.613655 627.491699
   vertex 64.058624 58.912003 628.358032
   vertex 65.721657 59.613655 627.520508
  endloop
 facet normal 0.013584 0.629321 -0.777026
  outer loop
   vertex 65.721657 59.613655 627.520508
   vertex 65.738586 58.416039 626.550842
   vertex 64.073753 59.613655 627.491699
  endloop
 facet normal 0.999848 0.000002 0.017454
  outer loop
   vertex 65.706535 58.912003 628.386841
   vertex 65.738586 58.416039 626.550842
   vertex 65.721657 59.613655 627.520508
  endloop
 facet normal 0.013555 0.629320 -0.777028
  outer loop
   vertex 42.482128 59.613659 627.114807
   vertex 44.130039 59.613659 627.143555
   vertex 42.499054 58.416039 626.145142
  endloop
 facet normal 0.013555 0.629320 -0.777028
  outer loop
   vertex 42.499054 58.416039 626.145142
   vertex 44.130039 59.613659 627.143555
   vertex 44.146965 58.416039 626.173889
  endloop
 facet normal 0.010977 -0.777145 -0.629226
  outer loop
   vertex 44.146965 58.416039 626.173889
   vertex 42.483932 57.714386 627.011475
   vertex 42.499054 58.416039 626.145142
  endloop
 facet normal 0.010977 -0.777145 -0.629226
  outer loop
   vertex 44.131844 57.714386 627.040222
   vertex 42.483932 57.714386 627.011475
   vertex 44.146965 58.416039 626.173889
  endloop
 facet normal -0.013555 -0.629321 0.777027
  outer loop
   vertex 44.114918 58.912003 628.009888
   vertex 42.483932 57.714386 627.011475
   vertex 44.131844 57.714386 627.040222
  endloop
 facet normal 0.999848 0.000000 0.017452
  outer loop
   vertex 44.131844 57.714386 627.040222
   vertex 44.130039 59.613659 627.143555
   vertex 44.114918 58.912003 628.009888
  endloop
 facet normal -0.010977 0.777143 0.629228
  outer loop
   vertex 44.114918 58.912003 628.009888
   vertex 44.130039 59.613659 627.143555
   vertex 42.467007 58.912003 627.981140
  endloop
 facet normal -0.010977 0.777143 0.629228
  outer loop
   vertex 42.467007 58.912003 627.981140
   vertex 44.130039 59.613659 627.143555
   vertex 42.482128 59.613659 627.114807
  endloop
 facet normal -0.999848 -0.000000 -0.017452
  outer loop
   vertex 42.482128 59.613659 627.114807
   vertex 42.483932 57.714386 627.011475
   vertex 42.467007 58.912003 627.981140
  endloop
 facet normal -0.999848 -0.000000 -0.017452
  outer loop
   vertex 42.499054 58.416039 626.145142
   vertex 42.483932 57.714386 627.011475
   vertex 42.482128 59.613659 627.114807
  endloop
 facet normal 0.010974 -0.777176 -0.629188
  outer loop
   vertex 67.156769 58.627560 627.786072
   vertex 66.806824 58.627560 627.779968
   vertex 66.813606 58.942219 627.391418
  endloop
 facet normal -0.010974 0.777176 0.629188
  outer loop
   vertex 66.813606 58.942219 627.391418
   vertex 66.806824 58.627560 627.779968
   vertex 66.985191 58.784889 627.588745
  endloop
 facet normal -0.010974 0.777175 0.629188
  outer loop
   vertex 66.985191 58.784889 627.588745
   vertex 67.163551 58.942219 627.397522
   vertex 66.813606 58.942219 627.391418
  endloop
 facet normal -0.010974 0.777176 0.629188
  outer loop
   vertex 67.156769 58.627560 627.786072
   vertex 67.163551 58.942219 627.397522
   vertex 66.985191 58.784889 627.588745
  endloop
 facet normal 0.999848 0.000002 0.017455
  outer loop
   vertex 67.174538 58.165073 626.768311
   vertex 67.163551 58.942219 627.397522
   vertex 67.156769 58.627560 627.786072
  endloop
 facet normal 0.999848 0.000002 0.017455
  outer loop
   vertex 67.156769 58.627560 627.786072
   vertex 67.167755 57.850414 627.156860
   vertex 67.174538 58.165073 626.768311
  endloop
 facet normal 0.010980 -0.777176 -0.629188
  outer loop
   vertex 67.174538 58.165073 626.768311
   vertex 67.167755 57.850414 627.156860
   vertex 65.474792 58.165073 626.738647
  endloop
 facet normal 0.011004 -0.777127 -0.629247
  outer loop
   vertex 65.474792 58.165073 626.738647
   vertex 67.167755 57.850414 627.156860
   vertex 65.468018 57.850414 627.127136
  endloop
 facet normal -0.999848 -0.000010 -0.017444
  outer loop
   vertex 65.468018 57.850414 627.127136
   vertex 65.457031 58.627560 627.756409
   vertex 65.474792 58.165073 626.738647
  endloop
 facet normal -0.013593 -0.629350 0.777003
  outer loop
   vertex 65.876701 58.433273 627.606384
   vertex 65.457031 58.627560 627.756409
   vertex 65.468018 57.850414 627.127136
  endloop
 facet normal -0.013553 -0.629297 0.777047
  outer loop
   vertex 65.806976 58.627560 627.762512
   vertex 65.457031 58.627560 627.756409
   vertex 65.876701 58.433273 627.606384
  endloop
 facet normal 0.013622 0.629313 -0.777033
  outer loop
   vertex 42.330967 58.747932 626.806702
   vertex 42.745148 58.942219 626.971313
   vertex 42.756130 58.165073 626.342102
  endloop
 facet normal 0.999848 -0.000002 0.017454
  outer loop
   vertex 42.756130 58.165073 626.342102
   vertex 42.745148 58.942219 626.971313
   vertex 42.749348 57.850414 626.730591
  endloop
 facet normal 0.011004 -0.777127 -0.629247
  outer loop
   vertex 42.749348 57.850414 626.730591
   vertex 41.056389 58.165073 626.312378
   vertex 42.756130 58.165073 626.342102
  endloop
 facet normal 0.010980 -0.777176 -0.629188
  outer loop
   vertex 41.049606 57.850414 626.700928
   vertex 41.056389 58.165073 626.312378
   vertex 42.749348 57.850414 626.730591
  endloop
 facet normal -0.999848 0.000002 -0.017452
  outer loop
   vertex 41.045406 58.942219 626.941650
   vertex 41.056389 58.165073 626.312378
   vertex 41.049606 57.850414 626.700928
  endloop
 facet normal -0.999848 0.000002 -0.017454
  outer loop
   vertex 41.049606 57.850414 626.700928
   vertex 41.038624 58.627560 627.330139
   vertex 41.045406 58.942219 626.941650
  endloop
 facet normal -0.010865 0.777127 0.629250
  outer loop
   vertex 41.045406 58.942219 626.941650
   vertex 41.038624 58.627560 627.330139
   vertex 41.216988 58.784889 627.138916
  endloop
 facet normal -0.010974 0.777176 0.629188
  outer loop
   vertex 41.216988 58.784889 627.138916
   vertex 41.038624 58.627560 627.330139
   vertex 41.388569 58.627560 627.336243
  endloop
 facet normal -0.011085 0.777127 0.629246
  outer loop
   vertex 41.388569 58.627560 627.336243
   vertex 41.395351 58.942219 626.947754
   vertex 41.216988 58.784889 627.138916
  endloop
 facet normal 0.010975 -0.777127 -0.629248
  outer loop
   vertex 41.045406 58.942219 626.941650
   vertex 41.395351 58.942219 626.947754
   vertex 41.388569 58.627560 627.336243
  endloop
 facet normal -0.010976 0.777079 0.629308
  outer loop
   vertex 41.216988 58.784889 627.138916
   vertex 41.395351 58.942219 626.947754
   vertex 41.045406 58.942219 626.941650
  endloop
 facet normal -0.010980 0.777267 0.629076
  outer loop
   vertex 44.264812 59.782696 628.869446
   vertex 44.263325 59.713715 628.954651
   vertex 63.877335 59.713715 629.296997
  endloop
 facet normal -0.013559 -0.629526 0.776861
  outer loop
   vertex 63.877335 59.713715 629.296997
   vertex 44.263325 59.713715 628.954651
   vertex 44.264889 59.603111 628.865051
  endloop
 facet normal -0.013566 -0.629267 0.777071
  outer loop
   vertex 44.264889 59.603111 628.865051
   vertex 63.878899 59.603111 629.207458
   vertex 63.877335 59.713715 629.296997
  endloop
 facet normal 0.005393 -0.951073 -0.308920
  outer loop
   vertex 44.265484 59.614197 628.830933
   vertex 63.878899 59.603111 629.207458
   vertex 44.264889 59.603111 628.865051
  endloop
 facet normal 0.005391 -0.951104 -0.308823
  outer loop
   vertex 63.879498 59.614193 629.173340
   vertex 63.878899 59.603111 629.207458
   vertex 44.265484 59.614197 628.830933
  endloop
 facet normal -0.013565 -0.629319 0.777028
  outer loop
   vertex 44.265484 59.614197 628.830933
   vertex 44.272224 59.137394 628.444885
   vertex 63.879498 59.614193 629.173340
  endloop
 facet normal -0.013565 -0.629322 0.777026
  outer loop
   vertex 63.879498 59.614193 629.173340
   vertex 44.272224 59.137394 628.444885
   vertex 63.886234 59.137394 628.787292
  endloop
 facet normal -0.015119 0.499761 0.866031
  outer loop
   vertex 63.886234 59.137394 628.787292
   vertex 44.272224 59.137394 628.444885
   vertex 44.271912 59.106289 628.462830
  endloop
 facet normal -0.015129 0.498439 0.866793
  outer loop
   vertex 44.271912 59.106289 628.462830
   vertex 63.885921 59.106285 628.805176
   vertex 63.886234 59.137394 628.787292
  endloop
 facet normal -0.013563 -0.629301 0.777043
  outer loop
   vertex 44.272686 59.051407 628.418396
   vertex 63.885921 59.106285 628.805176
   vertex 44.271912 59.106289 628.462830
  endloop
 facet normal -0.013562 -0.629327 0.777022
  outer loop
   vertex 63.886696 59.051407 628.760742
   vertex 63.885921 59.106285 628.805176
   vertex 44.272686 59.051407 628.418396
  endloop
 facet normal 0.010983 -0.777142 -0.629229
  outer loop
   vertex 44.272686 59.051407 628.418396
   vertex 44.293980 60.039433 627.198486
   vertex 63.886696 59.051407 628.760742
  endloop
 facet normal 0.010982 -0.777143 -0.629228
  outer loop
   vertex 63.886696 59.051407 628.760742
   vertex 44.293980 60.039433 627.198486
   vertex 63.907993 60.039429 627.540833
  endloop
 facet normal 0.013563 0.629302 -0.777043
  outer loop
   vertex 63.907993 60.039429 627.540833
   vertex 44.293980 60.039433 627.198486
   vertex 63.907215 60.094311 627.585266
  endloop
 facet normal 0.013565 0.629313 -0.777034
  outer loop
   vertex 65.883484 58.747932 627.217834
   vertex 65.474792 58.165073 626.738647
   vertex 65.463814 58.942219 627.367859
  endloop
 facet normal -0.999848 0.000004 -0.017450
  outer loop
   vertex 65.463814 58.942219 627.367859
   vertex 65.474792 58.165073 626.738647
   vertex 65.457031 58.627560 627.756409
  endloop
 facet normal -0.010974 0.777176 0.629188
  outer loop
   vertex 65.457031 58.627560 627.756409
   vertex 65.813759 58.942219 627.373962
   vertex 65.463814 58.942219 627.367859
  endloop
 facet normal -0.010974 0.777176 0.629188
  outer loop
   vertex 65.806976 58.627560 627.762512
   vertex 65.813759 58.942219 627.373962
   vertex 65.457031 58.627560 627.756409
  endloop
 facet normal 0.010974 -0.777176 -0.629188
  outer loop
   vertex 65.457031 58.627560 627.756409
   vertex 65.813759 58.942219 627.373962
   vertex 65.806976 58.627560 627.762512
  endloop
 facet normal -0.013553 -0.629255 0.777080
  outer loop
   vertex 65.806976 58.627560 627.762512
   vertex 65.871208 58.821846 627.920959
   vertex 65.457031 58.627560 627.756409
  endloop
 facet normal -0.013485 -0.629342 0.777012
  outer loop
   vertex 65.457031 58.627560 627.756409
   vertex 65.871208 58.821846 627.920959
   vertex 65.566223 58.957844 628.025818
  endloop
 facet normal -0.013499 -0.629361 0.776996
  outer loop
   vertex 65.566223 58.957844 628.025818
   vertex 65.871208 58.821846 627.920959
   vertex 66.052185 58.964073 628.039307
  endloop
 facet normal -0.013501 -0.629324 0.777026
  outer loop
   vertex 66.052185 58.964073 628.039307
   vertex 65.873878 59.199631 628.226990
   vertex 65.566223 58.957844 628.025818
  endloop
 facet normal -0.013541 -0.629342 0.777011
  outer loop
   vertex 66.301407 59.016132 628.085815
   vertex 65.873878 59.199631 628.226990
   vertex 66.052185 58.964073 628.039307
  endloop
 facet normal -0.013585 -0.629404 0.776959
  outer loop
   vertex 66.297562 59.288132 628.306091
   vertex 65.873878 59.199631 628.226990
   vertex 66.301407 59.016132 628.085815
  endloop
 facet normal -0.013611 -0.629404 0.776959
  outer loop
   vertex 66.301407 59.016132 628.085815
   vertex 66.552109 58.964073 628.048035
   vertex 66.297562 59.288132 628.306091
  endloop
 facet normal -0.013519 -0.629361 0.776995
  outer loop
   vertex 66.297562 59.288132 628.306091
   vertex 66.552109 58.964073 628.048035
   vertex 66.723755 59.199631 628.241821
  endloop
 facet normal -0.013644 -0.629306 0.777038
  outer loop
   vertex 66.723755 59.199631 628.241821
   vertex 66.552109 58.964073 628.048035
   vertex 66.737099 58.821846 627.936096
  endloop
 facet normal -0.013614 -0.629305 0.777039
  outer loop
   vertex 66.737099 58.821846 627.936096
   vertex 67.038246 58.957844 628.051514
   vertex 66.723755 59.199631 628.241821
  endloop
 facet normal -0.013611 -0.629309 0.777036
  outer loop
   vertex 66.806824 58.627560 627.779968
   vertex 67.038246 58.957844 628.051514
   vertex 66.737099 58.821846 627.936096
  endloop
 facet normal -0.013552 -0.629334 0.777017
  outer loop
   vertex 67.156769 58.627560 627.786072
   vertex 67.038246 58.957844 628.051514
   vertex 66.806824 58.627560 627.779968
  endloop
 facet normal -0.013551 -0.629403 0.776961
  outer loop
   vertex 66.806824 58.627560 627.779968
   vertex 66.742592 58.433273 627.621460
   vertex 67.156769 58.627560 627.786072
  endloop
 facet normal -0.013622 -0.629313 0.777033
  outer loop
   vertex 67.156769 58.627560 627.786072
   vertex 66.742592 58.433273 627.621460
   vertex 67.167755 57.850414 627.156860
  endloop
 facet normal -0.013584 -0.629296 0.777047
  outer loop
   vertex 67.167755 57.850414 627.156860
   vertex 66.742592 58.433273 627.621460
   vertex 66.561623 58.291046 627.503113
  endloop
 facet normal -0.013563 -0.629279 0.777061
  outer loop
   vertex 66.561623 58.291046 627.503113
   vertex 66.312393 58.238987 627.456604
   vertex 67.167755 57.850414 627.156860
  endloop
 facet normal -0.013508 -0.629313 0.777035
  outer loop
   vertex 42.324188 58.433273 627.195251
   vertex 42.749348 57.850414 626.730591
   vertex 42.738365 58.627560 627.359802
  endloop
 facet normal 0.999848 -0.000002 0.017454
  outer loop
   vertex 42.738365 58.627560 627.359802
   vertex 42.749348 57.850414 626.730591
   vertex 42.745148 58.942219 626.971313
  endloop
 facet normal -0.010975 0.777127 0.629248
  outer loop
   vertex 42.745148 58.942219 626.971313
   vertex 42.388416 58.627560 627.353699
   vertex 42.738365 58.627560 627.359802
  endloop
 facet normal -0.010975 0.777127 0.629248
  outer loop
   vertex 42.395199 58.942219 626.965210
   vertex 42.388416 58.627560 627.353699
   vertex 42.745148 58.942219 626.971313
  endloop
 facet normal 0.010975 -0.777127 -0.629248
  outer loop
   vertex 42.745148 58.942219 626.971313
   vertex 42.388416 58.627560 627.353699
   vertex 42.395199 58.942219 626.965210
  endloop
 facet normal 0.013553 0.629296 -0.777047
  outer loop
   vertex 42.395199 58.942219 626.965210
   vertex 42.325478 59.136505 627.121338
   vertex 42.745148 58.942219 626.971313
  endloop
 facet normal 0.013583 0.629336 -0.777014
  outer loop
   vertex 42.745148 58.942219 626.971313
   vertex 42.325478 59.136505 627.121338
   vertex 42.626617 59.272507 627.236755
  endloop
 facet normal 0.013620 0.629287 -0.777053
  outer loop
   vertex 42.626617 59.272507 627.236755
   vertex 42.325478 59.136505 627.121338
   vertex 42.140480 59.278732 627.233276
  endloop
 facet normal 0.013620 0.629310 -0.777035
  outer loop
   vertex 42.140480 59.278732 627.233276
   vertex 42.312126 59.514294 627.427063
   vertex 42.626617 59.272507 627.236755
  endloop
 facet normal 0.013585 0.629326 -0.777023
  outer loop
   vertex 41.889782 59.330791 627.271057
   vertex 42.312126 59.514294 627.427063
   vertex 42.140480 59.278732 627.233276
  endloop
 facet normal 0.013531 0.629399 -0.776965
  outer loop
   vertex 41.885941 59.602795 627.491333
   vertex 42.312126 59.514294 627.427063
   vertex 41.889782 59.330791 627.271057
  endloop
 facet normal 0.013521 0.629399 -0.776965
  outer loop
   vertex 41.889782 59.330791 627.271057
   vertex 41.640556 59.278732 627.224548
   vertex 41.885941 59.602795 627.491333
  endloop
 facet normal 0.013600 0.629362 -0.776993
  outer loop
   vertex 41.885941 59.602795 627.491333
   vertex 41.640556 59.278732 627.224548
   vertex 41.462254 59.514294 627.412231
  endloop
 facet normal 0.013536 0.629333 -0.777018
  outer loop
   vertex 41.462254 59.514294 627.412231
   vertex 41.640556 59.278732 627.224548
   vertex 41.459583 59.136505 627.106201
  endloop
 facet normal 0.013488 0.629334 -0.777018
  outer loop
   vertex 41.459583 59.136505 627.106201
   vertex 41.154598 59.272507 627.211060
   vertex 41.462254 59.514294 627.412231
  endloop
 facet normal 0.013447 0.629277 -0.777064
  outer loop
   vertex 41.395351 58.942219 626.947754
   vertex 41.154598 59.272507 627.211060
   vertex 41.459583 59.136505 627.106201
  endloop
 facet normal 0.013552 0.629323 -0.777025
  outer loop
   vertex 41.045406 58.942219 626.941650
   vertex 41.154598 59.272507 627.211060
   vertex 41.395351 58.942219 626.947754
  endloop
 facet normal 0.013553 0.629296 -0.777047
  outer loop
   vertex 41.395351 58.942219 626.947754
   vertex 41.465073 58.747932 626.791626
   vertex 41.045406 58.942219 626.941650
  endloop
 facet normal 0.013593 0.629350 -0.777003
  outer loop
   vertex 41.045406 58.942219 626.941650
   vertex 41.465073 58.747932 626.791626
   vertex 41.056389 58.165073 626.312378
  endloop
 facet normal 0.013494 0.629392 -0.776971
  outer loop
   vertex 41.056389 58.165073 626.312378
   vertex 41.465073 58.747932 626.791626
   vertex 41.650070 58.605705 626.679626
  endloop
 facet normal 0.013583 0.629320 -0.777028
  outer loop
   vertex 41.650070 58.605705 626.679626
   vertex 41.900768 58.553646 626.641846
   vertex 41.056389 58.165073 626.312378
  endloop
 facet normal -0.007066 -0.914196 0.405210
  outer loop
   vertex 43.861118 59.011761 628.438965
   vertex 43.869923 58.788124 627.934570
   vertex 45.019657 59.011761 628.459167
  endloop
 facet normal -0.007066 -0.914196 0.405210
  outer loop
   vertex 45.019657 59.011761 628.459167
   vertex 43.869923 58.788124 627.934570
   vertex 45.028461 58.788124 627.954773
  endloop
 facet normal 0.999848 -0.000000 0.017453
  outer loop
   vertex 45.028461 58.788124 627.954773
   vertex 45.044201 59.518406 627.053101
   vertex 45.019657 59.011761 628.459167
  endloop
 facet normal 0.010973 -0.777141 -0.629230
  outer loop
   vertex 43.869923 58.788124 627.934570
   vertex 45.044201 59.518406 627.053101
   vertex 45.028461 58.788124 627.954773
  endloop
 facet normal 0.010973 -0.777141 -0.629230
  outer loop
   vertex 43.885662 59.518406 627.032898
   vertex 45.044201 59.518406 627.053101
   vertex 43.869923 58.788124 627.934570
  endloop
 facet normal -0.999848 -0.000001 -0.017454
  outer loop
   vertex 43.869923 58.788124 627.934570
   vertex 43.883675 60.058334 627.146729
   vertex 43.885662 59.518406 627.032898
  endloop
 facet normal 0.017060 0.206321 -0.978336
  outer loop
   vertex 43.885662 59.518406 627.032898
   vertex 43.883675 60.058334 627.146729
   vertex 45.044201 59.518406 627.053101
  endloop
 facet normal 0.017111 0.206427 -0.978312
  outer loop
   vertex 45.044201 59.518406 627.053101
   vertex 43.883675 60.058334 627.146729
   vertex 45.042213 60.058334 627.166992
  endloop
 facet normal 0.999848 -0.000001 0.017453
  outer loop
   vertex 45.042213 60.058334 627.166992
   vertex 45.019657 59.011761 628.459167
   vertex 45.044201 59.518406 627.053101
  endloop
 facet normal 0.999848 0.000001 0.017454
  outer loop
   vertex 45.029915 60.550674 627.871460
   vertex 45.019657 59.011761 628.459167
   vertex 45.042213 60.058334 627.166992
  endloop
 facet normal 0.999848 0.000000 0.017452
  outer loop
   vertex 45.013809 59.803337 628.794189
   vertex 45.019657 59.011761 628.459167
   vertex 45.029915 60.550674 627.871460
  endloop
 facet normal -0.010973 0.777141 0.629231
  outer loop
   vertex 45.029915 60.550674 627.871460
   vertex 43.855270 59.803337 628.773987
   vertex 45.013809 59.803337 628.794189
  endloop
 facet normal 0.011783 0.737079 -0.675704
  outer loop
   vertex 45.013809 59.803337 628.794189
   vertex 43.855270 59.803337 628.773987
   vertex 45.012524 59.870781 628.867737
  endloop
 facet normal 0.011783 0.737079 -0.675704
  outer loop
   vertex 45.012524 59.870781 628.867737
   vertex 43.855270 59.803337 628.773987
   vertex 43.853985 59.870781 628.847534
  endloop
 facet normal -0.010972 0.777182 0.629181
  outer loop
   vertex 43.853985 59.870781 628.847534
   vertex 45.010368 59.770741 628.991272
   vertex 45.012524 59.870781 628.867737
  endloop
 facet normal -0.011008 0.777030 0.629368
  outer loop
   vertex 43.851830 59.770741 628.971008
   vertex 45.010368 59.770741 628.991272
   vertex 43.853985 59.870781 628.847534
  endloop
 facet normal -0.017483 -0.023849 0.999563
  outer loop
   vertex 43.851871 59.665829 628.968506
   vertex 45.010368 59.770741 628.991272
   vertex 43.851830 59.770741 628.971008
  endloop
 facet normal -0.999848 0.000017 -0.017459
  outer loop
   vertex 43.851830 59.770741 628.971008
   vertex 43.855270 59.803337 628.773987
   vertex 43.851871 59.665829 628.968506
  endloop
 facet normal -0.999847 0.000006 -0.017467
  outer loop
   vertex 43.851871 59.665829 628.968506
   vertex 43.855270 59.803337 628.773987
   vertex 43.861118 59.011761 628.438965
  endloop
 facet normal -0.999848 -0.000000 -0.017452
  outer loop
   vertex 43.861118 59.011761 628.438965
   vertex 43.855270 59.803337 628.773987
   vertex 43.871376 60.550674 627.851257
  endloop
 facet normal -0.999848 -0.000001 -0.017453
  outer loop
   vertex 43.871376 60.550674 627.851257
   vertex 43.883675 60.058334 627.146729
   vertex 43.861118 59.011761 628.438965
  endloop
 facet normal -0.999848 0.000007 -0.017459
  outer loop
   vertex 43.874432 60.712402 627.676331
   vertex 43.883675 60.058334 627.146729
   vertex 43.871376 60.550674 627.851257
  endloop
 facet normal 0.013590 0.629341 -0.777010
  outer loop
   vertex 45.042213 60.058334 627.166992
   vertex 43.883675 60.058334 627.146729
   vertex 43.874432 60.712402 627.676331
  endloop
 facet normal 0.013550 0.629297 -0.777047
  outer loop
   vertex 43.874432 60.712402 627.676331
   vertex 45.032970 60.712402 627.696533
   vertex 45.042213 60.058334 627.166992
  endloop
 facet normal 0.999848 -0.000006 0.017460
  outer loop
   vertex 45.042213 60.058334 627.166992
   vertex 45.032970 60.712402 627.696533
   vertex 45.029915 60.550674 627.871460
  endloop
 facet normal 0.999847 0.000014 0.017478
  outer loop
   vertex 45.029915 60.550674 627.871460
   vertex 45.032970 60.712402 627.696533
   vertex 45.031185 60.736668 627.798645
  endloop
 facet normal 0.999848 0.000006 0.017457
  outer loop
   vertex 45.031185 60.736668 627.798645
   vertex 45.029030 60.636627 627.922119
   vertex 45.029915 60.550674 627.871460
  endloop
 facet normal -0.010975 0.777030 0.629368
  outer loop
   vertex 43.870491 60.636627 627.901917
   vertex 45.029030 60.636627 627.922119
   vertex 45.031185 60.736668 627.798645
  endloop
 facet normal -0.015020 -0.507813 0.861337
  outer loop
   vertex 45.029915 60.550674 627.871460
   vertex 45.029030 60.636627 627.922119
   vertex 43.870491 60.636627 627.901917
  endloop
 facet normal -0.015020 -0.507813 0.861337
  outer loop
   vertex 43.870491 60.636627 627.901917
   vertex 43.871376 60.550674 627.851257
   vertex 45.029915 60.550674 627.871460
  endloop
 facet normal -0.010973 0.777141 0.629231
  outer loop
   vertex 45.029915 60.550674 627.871460
   vertex 43.871376 60.550674 627.851257
   vertex 43.855270 59.803337 628.773987
  endloop
 facet normal 0.017060 0.206321 -0.978336
  outer loop
   vertex 64.319855 60.058334 627.503479
   vertex 64.321838 59.518406 627.389648
   vertex 63.161316 60.058334 627.483276
  endloop
 facet normal 0.017111 0.206427 -0.978312
  outer loop
   vertex 63.161316 60.058334 627.483276
   vertex 64.321838 59.518406 627.389648
   vertex 63.163303 59.518406 627.369385
  endloop
 facet normal -0.999848 0.000001 -0.017451
  outer loop
   vertex 63.163303 59.518406 627.369385
   vertex 63.147564 58.788124 628.271118
   vertex 63.161316 60.058334 627.483276
  endloop
 facet normal 0.011005 -0.777162 -0.629204
  outer loop
   vertex 64.321838 59.518406 627.389648
   vertex 63.147564 58.788124 628.271118
   vertex 63.163303 59.518406 627.369385
  endloop
 facet normal 0.010973 -0.777141 -0.629230
  outer loop
   vertex 64.306099 58.788124 628.291321
   vertex 63.147564 58.788124 628.271118
   vertex 64.321838 59.518406 627.389648
  endloop
 facet normal 0.999848 -0.000000 0.017453
  outer loop
   vertex 64.321838 59.518406 627.389648
   vertex 64.297295 59.011757 628.795715
   vertex 64.306099 58.788124 628.291321
  endloop
 facet normal -0.007066 -0.914199 0.405204
  outer loop
   vertex 64.306099 58.788124 628.291321
   vertex 64.297295 59.011757 628.795715
   vertex 63.147564 58.788124 628.271118
  endloop
 facet normal -0.007088 -0.914181 0.405245
  outer loop
   vertex 63.147564 58.788124 628.271118
   vertex 64.297295 59.011757 628.795715
   vertex 63.138760 59.011757 628.775452
  endloop
 facet normal -0.999848 -0.000001 -0.017454
  outer loop
   vertex 63.138760 59.011757 628.775452
   vertex 63.161316 60.058334 627.483276
   vertex 63.147564 58.788124 628.271118
  endloop
 facet normal -0.999848 0.000001 -0.017452
  outer loop
   vertex 63.132912 59.803337 629.110535
   vertex 63.161316 60.058334 627.483276
   vertex 63.138760 59.011757 628.775452
  endloop
 facet normal -0.999848 -0.000003 -0.017453
  outer loop
   vertex 63.149017 60.550674 628.187744
   vertex 63.161316 60.058334 627.483276
   vertex 63.132912 59.803337 629.110535
  endloop
 facet normal -0.011005 0.777161 0.629205
  outer loop
   vertex 63.132912 59.803337 629.110535
   vertex 64.307556 60.550674 628.208008
   vertex 63.149017 60.550674 628.187744
  endloop
 facet normal -0.015061 -0.508266 0.861068
  outer loop
   vertex 63.149017 60.550674 628.187744
   vertex 64.307556 60.550674 628.208008
   vertex 63.148132 60.636627 628.238464
  endloop
 facet normal -0.015020 -0.507813 0.861337
  outer loop
   vertex 63.148132 60.636627 628.238464
   vertex 64.307556 60.550674 628.208008
   vertex 64.306671 60.636627 628.258667
  endloop
 facet normal -0.010972 0.777182 0.629181
  outer loop
   vertex 64.306671 60.636627 628.258667
   vertex 63.150288 60.736668 628.114929
   vertex 63.148132 60.636627 628.238464
  endloop
 facet normal -0.010972 0.777182 0.629181
  outer loop
   vertex 64.308830 60.736668 628.135132
   vertex 63.150288 60.736668 628.114929
   vertex 64.306671 60.636627 628.258667
  endloop
 facet normal 0.004033 0.972884 -0.231259
  outer loop
   vertex 64.310608 60.712402 628.033081
   vertex 63.150288 60.736668 628.114929
   vertex 64.308830 60.736668 628.135132
  endloop
 facet normal 0.999848 -0.000023 0.017422
  outer loop
   vertex 64.308830 60.736668 628.135132
   vertex 64.307556 60.550674 628.208008
   vertex 64.310608 60.712402 628.033081
  endloop
 facet normal 0.999848 0.000006 0.017449
  outer loop
   vertex 64.310608 60.712402 628.033081
   vertex 64.307556 60.550674 628.208008
   vertex 64.319855 60.058334 627.503479
  endloop
 facet normal 0.999848 0.000001 0.017453
  outer loop
   vertex 64.319855 60.058334 627.503479
   vertex 64.307556 60.550674 628.208008
   vertex 64.291451 59.803337 629.130737
  endloop
 facet normal 0.999848 -0.000004 0.017452
  outer loop
   vertex 64.291451 59.803337 629.130737
   vertex 64.297295 59.011757 628.795715
   vertex 64.319855 60.058334 627.503479
  endloop
 facet normal 0.999848 -0.000003 0.017449
  outer loop
   vertex 64.288055 59.665825 629.325256
   vertex 64.297295 59.011757 628.795715
   vertex 64.291451 59.803337 629.130737
  endloop
 facet normal -0.013591 -0.629297 0.777046
  outer loop
   vertex 63.138760 59.011757 628.775452
   vertex 64.297295 59.011757 628.795715
   vertex 64.288055 59.665825 629.325256
  endloop
 facet normal -0.013549 -0.629341 0.777011
  outer loop
   vertex 64.288055 59.665825 629.325256
   vertex 63.129513 59.665825 629.305054
   vertex 63.138760 59.011757 628.775452
  endloop
 facet normal -0.999847 0.000007 -0.017466
  outer loop
   vertex 63.138760 59.011757 628.775452
   vertex 63.129513 59.665825 629.305054
   vertex 63.132912 59.803337 629.110535
  endloop
 facet normal -0.999848 0.000017 -0.017459
  outer loop
   vertex 63.132912 59.803337 629.110535
   vertex 63.129513 59.665825 629.305054
   vertex 63.129471 59.770741 629.307556
  endloop
 facet normal -0.999847 -0.000027 -0.017466
  outer loop
   vertex 63.129471 59.770741 629.307556
   vertex 63.131626 59.870781 629.184021
   vertex 63.132912 59.803337 629.110535
  endloop
 facet normal -0.011005 0.777182 0.629180
  outer loop
   vertex 64.290169 59.870781 629.204285
   vertex 63.131626 59.870781 629.184021
   vertex 63.129471 59.770741 629.307556
  endloop
 facet normal 0.011824 0.736799 -0.676008
  outer loop
   vertex 63.132912 59.803337 629.110535
   vertex 63.131626 59.870781 629.184021
   vertex 64.290169 59.870781 629.204285
  endloop
 facet normal 0.011783 0.737078 -0.675705
  outer loop
   vertex 64.290169 59.870781 629.204285
   vertex 64.291451 59.803337 629.130737
   vertex 63.132912 59.803337 629.110535
  endloop
 facet normal -0.010973 0.777141 0.629231
  outer loop
   vertex 63.132912 59.803337 629.110535
   vertex 64.291451 59.803337 629.130737
   vertex 64.307556 60.550674 628.208008
  endloop
 facet normal -0.013553 -0.629296 0.777047
  outer loop
   vertex 42.388416 58.627560 627.353699
   vertex 42.738365 58.627560 627.359802
   vertex 42.318695 58.821846 627.509827
  endloop
 facet normal -0.013583 -0.629336 0.777014
  outer loop
   vertex 42.318695 58.821846 627.509827
   vertex 42.738365 58.627560 627.359802
   vertex 42.619835 58.957848 627.625244
  endloop
 facet normal -0.013523 -0.629415 0.776952
  outer loop
   vertex 42.619835 58.957848 627.625244
   vertex 42.133698 58.964073 627.621826
   vertex 42.318695 58.821846 627.509827
  endloop
 facet normal -0.013522 -0.629233 0.777099
  outer loop
   vertex 42.305344 59.199635 627.815552
   vertex 42.133698 58.964073 627.621826
   vertex 42.619835 58.957848 627.625244
  endloop
 facet normal -0.013550 -0.629220 0.777109
  outer loop
   vertex 41.883003 59.016132 627.659607
   vertex 42.133698 58.964073 627.621826
   vertex 42.305344 59.199635 627.815552
  endloop
 facet normal -0.013493 -0.629299 0.777046
  outer loop
   vertex 42.305344 59.199635 627.815552
   vertex 41.879158 59.288132 627.879822
   vertex 41.883003 59.016132 627.659607
  endloop
 facet normal -0.013556 -0.629299 0.777045
  outer loop
   vertex 41.883003 59.016132 627.659607
   vertex 41.879158 59.288132 627.879822
   vertex 41.633774 58.964073 627.613098
  endloop
 facet normal -0.013643 -0.629259 0.777076
  outer loop
   vertex 41.633774 58.964073 627.613098
   vertex 41.879158 59.288132 627.879822
   vertex 41.455471 59.199635 627.800720
  endloop
 facet normal -0.013636 -0.629256 0.777078
  outer loop
   vertex 41.455471 59.199635 627.800720
   vertex 41.452801 58.821846 627.494751
   vertex 41.633774 58.964073 627.613098
  endloop
 facet normal -0.013588 -0.629257 0.777079
  outer loop
   vertex 41.147816 58.957848 627.599548
   vertex 41.452801 58.821846 627.494751
   vertex 41.455471 59.199635 627.800720
  endloop
 facet normal -0.013676 -0.629377 0.776980
  outer loop
   vertex 41.388569 58.627560 627.336243
   vertex 41.452801 58.821846 627.494751
   vertex 41.147816 58.957848 627.599548
  endloop
 facet normal -0.013552 -0.629323 0.777025
  outer loop
   vertex 41.147816 58.957848 627.599548
   vertex 41.038624 58.627560 627.330139
   vertex 41.388569 58.627560 627.336243
  endloop
 facet normal -0.013553 -0.629297 0.777047
  outer loop
   vertex 41.388569 58.627560 627.336243
   vertex 41.038624 58.627560 627.330139
   vertex 41.458294 58.433273 627.180115
  endloop
 facet normal -0.013565 -0.629313 0.777034
  outer loop
   vertex 41.458294 58.433273 627.180115
   vertex 41.038624 58.627560 627.330139
   vertex 41.049606 57.850414 626.700928
  endloop
 facet normal -0.013621 -0.629289 0.777052
  outer loop
   vertex 41.049606 57.850414 626.700928
   vertex 41.643288 58.291046 627.068176
   vertex 41.458294 58.433273 627.180115
  endloop
 facet normal -0.013433 -0.629441 0.776932
  outer loop
   vertex 41.893986 58.238987 627.030334
   vertex 41.643288 58.291046 627.068176
   vertex 41.049606 57.850414 626.700928
  endloop
 facet normal 0.013551 0.629403 -0.776961
  outer loop
   vertex 65.813759 58.942219 627.373962
   vertex 65.463814 58.942219 627.367859
   vertex 65.877991 59.136505 627.532471
  endloop
 facet normal 0.013625 0.629308 -0.777036
  outer loop
   vertex 65.877991 59.136505 627.532471
   vertex 65.463814 58.942219 627.367859
   vertex 65.573006 59.272507 627.637268
  endloop
 facet normal 0.013605 0.629280 -0.777060
  outer loop
   vertex 65.573006 59.272507 627.637268
   vertex 66.058968 59.278732 627.650818
   vertex 65.877991 59.136505 627.532471
  endloop
 facet normal 0.013602 0.629363 -0.776992
  outer loop
   vertex 65.880661 59.514294 627.838501
   vertex 66.058968 59.278732 627.650818
   vertex 65.573006 59.272507 627.637268
  endloop
 facet normal 0.013543 0.629337 -0.777015
  outer loop
   vertex 66.308189 59.330791 627.697327
   vertex 66.058968 59.278732 627.650818
   vertex 65.880661 59.514294 627.838501
  endloop
 facet normal 0.013513 0.629294 -0.777050
  outer loop
   vertex 65.880661 59.514294 627.838501
   vertex 66.304344 59.602795 627.917542
   vertex 66.308189 59.330791 627.697327
  endloop
 facet normal 0.013574 0.629294 -0.777049
  outer loop
   vertex 66.308189 59.330791 627.697327
   vertex 66.304344 59.602795 627.917542
   vertex 66.558891 59.278732 627.659546
  endloop
 facet normal 0.013614 0.629313 -0.777033
  outer loop
   vertex 66.558891 59.278732 627.659546
   vertex 66.304344 59.602795 627.917542
   vertex 66.730537 59.514294 627.853333
  endloop
 facet normal 0.013639 0.629302 -0.777041
  outer loop
   vertex 66.730537 59.514294 627.853333
   vertex 66.743881 59.136505 627.547607
   vertex 66.558891 59.278732 627.659546
  endloop
 facet normal 0.013454 0.629299 -0.777046
  outer loop
   vertex 67.045021 59.272507 627.662964
   vertex 66.743881 59.136505 627.547607
   vertex 66.730537 59.514294 627.853333
  endloop
 facet normal 0.013373 0.629407 -0.776961
  outer loop
   vertex 66.813606 58.942219 627.391418
   vertex 66.743881 59.136505 627.547607
   vertex 67.045021 59.272507 627.662964
  endloop
 facet normal 0.013552 0.629330 -0.777020
  outer loop
   vertex 67.045021 59.272507 627.662964
   vertex 67.163551 58.942219 627.397522
   vertex 66.813606 58.942219 627.391418
  endloop
 facet normal 0.013553 0.629255 -0.777080
  outer loop
   vertex 66.813606 58.942219 627.391418
   vertex 67.163551 58.942219 627.397522
   vertex 66.749374 58.747932 627.232971
  endloop
 facet normal 0.013508 0.629313 -0.777035
  outer loop
   vertex 66.749374 58.747932 627.232971
   vertex 67.163551 58.942219 627.397522
   vertex 67.174538 58.165073 626.768311
  endloop
 facet normal 0.013542 0.629328 -0.777022
  outer loop
   vertex 67.174538 58.165073 626.768311
   vertex 66.568398 58.605705 627.114624
   vertex 66.749374 58.747932 627.232971
  endloop
 facet normal 0.013546 0.629330 -0.777020
  outer loop
   vertex 66.319176 58.553646 627.068115
   vertex 66.568398 58.605705 627.114624
   vertex 67.174538 58.165073 626.768311
  endloop
 facet normal 0.013588 0.629313 -0.777033
  outer loop
   vertex 41.056389 58.165073 626.312378
   vertex 41.900768 58.553646 626.641846
   vertex 42.756130 58.165073 626.342102
  endloop
 facet normal 0.013564 0.629279 -0.777061
  outer loop
   vertex 42.756130 58.165073 626.342102
   vertex 41.900768 58.553646 626.641846
   vertex 42.149994 58.605705 626.688354
  endloop
 facet normal 0.013584 0.629296 -0.777047
  outer loop
   vertex 42.149994 58.605705 626.688354
   vertex 42.330967 58.747932 626.806702
   vertex 42.756130 58.165073 626.342102
  endloop
 facet normal 0.013622 0.629288 -0.777052
  outer loop
   vertex 65.883484 58.747932 627.217834
   vertex 66.068474 58.605705 627.105896
   vertex 65.474792 58.165073 626.738647
  endloop
 facet normal 0.013583 0.629320 -0.777028
  outer loop
   vertex 65.474792 58.165073 626.738647
   vertex 66.068474 58.605705 627.105896
   vertex 66.319176 58.553646 627.068115
  endloop
 facet normal 0.013560 0.629350 -0.777004
  outer loop
   vertex 66.319176 58.553646 627.068115
   vertex 67.174538 58.165073 626.768311
   vertex 65.474792 58.165073 626.738647
  endloop
 facet normal -0.013588 -0.629313 0.777033
  outer loop
   vertex 67.167755 57.850414 627.156860
   vertex 66.312393 58.238987 627.456604
   vertex 65.468018 57.850414 627.127136
  endloop
 facet normal -0.013576 -0.629329 0.777021
  outer loop
   vertex 65.468018 57.850414 627.127136
   vertex 66.312393 58.238987 627.456604
   vertex 66.061699 58.291042 627.494385
  endloop
 facet normal -0.013502 -0.629389 0.776973
  outer loop
   vertex 66.061699 58.291042 627.494385
   vertex 65.876701 58.433273 627.606384
   vertex 65.468018 57.850414 627.127136
  endloop
 facet normal -0.013542 -0.629328 0.777022
  outer loop
   vertex 42.324188 58.433273 627.195251
   vertex 42.143211 58.291046 627.076904
   vertex 42.749348 57.850414 626.730591
  endloop
 facet normal -0.013691 -0.629452 0.776919
  outer loop
   vertex 42.749348 57.850414 626.730591
   vertex 42.143211 58.291046 627.076904
   vertex 41.893986 58.238987 627.030334
  endloop
 facet normal -0.013561 -0.629276 0.777064
  outer loop
   vertex 41.893986 58.238987 627.030334
   vertex 41.049606 57.850414 626.700928
   vertex 42.749348 57.850414 626.730591
  endloop
 facet normal -0.017430 -0.023849 0.999564
  outer loop
   vertex 64.288055 59.665825 629.325256
   vertex 64.288010 59.770741 629.327759
   vertex 63.129513 59.665825 629.305054
  endloop
 facet normal -0.017430 -0.023849 0.999564
  outer loop
   vertex 63.129513 59.665825 629.305054
   vertex 64.288010 59.770741 629.327759
   vertex 63.129471 59.770741 629.307556
  endloop
 facet normal 0.013565 0.629319 -0.777028
  outer loop
   vertex 44.292610 60.083229 627.277039
   vertex 44.285870 60.560032 627.663086
   vertex 63.906620 60.083225 627.619446
  endloop
 facet normal 0.013565 0.629319 -0.777029
  outer loop
   vertex 63.906620 60.083225 627.619446
   vertex 44.285870 60.560032 627.663086
   vertex 63.899883 60.560028 628.005493
  endloop
 facet normal 0.004043 0.972915 -0.231127
  outer loop
   vertex 45.031185 60.736668 627.798645
   vertex 45.032970 60.712402 627.696533
   vertex 43.872646 60.736668 627.778381
  endloop
 facet normal 0.004033 0.972884 -0.231259
  outer loop
   vertex 43.872646 60.736668 627.778381
   vertex 45.032970 60.712402 627.696533
   vertex 43.874432 60.712402 627.676331
  endloop
 facet normal -0.010974 0.777176 0.629188
  outer loop
   vertex 66.806824 58.627560 627.779968
   vertex 67.156769 58.627560 627.786072
   vertex 66.985191 58.784889 627.588745
  endloop
 facet normal 0.999848 -0.000006 0.017451
  outer loop
   vertex 64.319855 60.058334 627.503479
   vertex 64.297295 59.011757 628.795715
   vertex 64.321838 59.518406 627.389648
  endloop
 facet normal 0.013553 0.629297 -0.777047
  outer loop
   vertex 65.463814 58.942219 627.367859
   vertex 65.813759 58.942219 627.373962
   vertex 65.883484 58.747932 627.217834
  endloop
 facet normal 0.013551 0.629403 -0.776961
  outer loop
   vertex 42.395199 58.942219 626.965210
   vertex 42.745148 58.942219 626.971313
   vertex 42.330967 58.747932 626.806702
  endloop
 facet normal 0.010974 -0.777176 -0.629188
  outer loop
   vertex 67.156769 58.627560 627.786072
   vertex 66.813606 58.942219 627.391418
   vertex 67.163551 58.942219 627.397522
  endloop
 facet normal -0.013555 -0.629321 0.777027
  outer loop
   vertex 44.114918 58.912003 628.009888
   vertex 42.467007 58.912003 627.981140
   vertex 42.483932 57.714386 627.011475
  endloop
 facet normal 0.013584 0.629321 -0.777026
  outer loop
   vertex 64.090675 58.416039 626.522034
   vertex 64.073753 59.613655 627.491699
   vertex 65.738586 58.416039 626.550842
  endloop
 facet normal 0.010975 -0.777127 -0.629248
  outer loop
   vertex 41.045406 58.942219 626.941650
   vertex 41.388569 58.627560 627.336243
   vertex 41.038624 58.627560 627.330139
  endloop
 facet normal -0.999847 -0.000014 -0.017464
  outer loop
   vertex 43.851830 59.770741 628.971008
   vertex 43.853985 59.870781 628.847534
   vertex 43.855270 59.803337 628.773987
  endloop
 facet normal 0.010974 -0.777176 -0.629188
  outer loop
   vertex 65.813759 58.942219 627.373962
   vertex 65.457031 58.627560 627.756409
   vertex 65.463814 58.942219 627.367859
  endloop
 facet normal -0.999848 0.000000 -0.017453
  outer loop
   vertex 43.861118 59.011761 628.438965
   vertex 43.883675 60.058334 627.146729
   vertex 43.869923 58.788124 627.934570
  endloop
 facet normal 0.999847 -0.000003 0.017473
  outer loop
   vertex 64.308830 60.736668 628.135132
   vertex 64.306671 60.636627 628.258667
   vertex 64.307556 60.550674 628.208008
  endloop
 facet normal -0.013584 -0.629320 0.777027
  outer loop
   vertex 64.058624 58.912003 628.358032
   vertex 64.075554 57.714382 627.388367
   vertex 65.723465 57.714382 627.417175
  endloop
 facet normal 0.999848 0.000000 0.017452
  outer loop
   vertex 44.131844 57.714386 627.040222
   vertex 44.146965 58.416039 626.173889
   vertex 44.130039 59.613659 627.143555
  endloop
 facet normal 0.010975 -0.777127 -0.629248
  outer loop
   vertex 42.388416 58.627560 627.353699
   vertex 42.745148 58.942219 626.971313
   vertex 42.738365 58.627560 627.359802
  endloop
 facet normal -0.013553 -0.629256 0.777080
  outer loop
   vertex 42.738365 58.627560 627.359802
   vertex 42.388416 58.627560 627.353699
   vertex 42.324188 58.433273 627.195251
  endloop
 facet normal -0.714764 0.549547 0.432562
  outer loop
   vertex 42.143211 58.291046 627.076904
   vertex 42.330967 58.747932 626.806702
   vertex 42.149994 58.605705 626.688354
  endloop
 facet normal -0.269516 0.750667 0.603208
  outer loop
   vertex 42.143211 58.291046 627.076904
   vertex 42.149994 58.605705 626.688354
   vertex 41.893986 58.238987 627.030334
  endloop
 facet normal -0.269380 0.750649 0.603291
  outer loop
   vertex 41.893986 58.238987 627.030334
   vertex 42.149994 58.605705 626.688354
   vertex 41.900768 58.553646 626.641846
  endloop
 facet normal 0.248296 0.750621 0.612305
  outer loop
   vertex 41.900768 58.553646 626.641846
   vertex 41.643288 58.291046 627.068176
   vertex 41.893986 58.238987 627.030334
  endloop
 facet normal 0.248157 0.750697 0.612268
  outer loop
   vertex 41.650070 58.605705 626.679626
   vertex 41.643288 58.291046 627.068176
   vertex 41.900768 58.553646 626.641846
  endloop
 facet normal 0.699205 0.549567 0.457261
  outer loop
   vertex 41.458294 58.433273 627.180115
   vertex 41.643288 58.291046 627.068176
   vertex 41.650070 58.605705 626.679626
  endloop
 facet normal 0.699274 0.549482 0.457258
  outer loop
   vertex 41.650070 58.605705 626.679626
   vertex 41.465073 58.747932 626.791626
   vertex 41.458294 58.433273 627.180115
  endloop
 facet normal 0.962932 0.201149 0.179724
  outer loop
   vertex 41.458294 58.433273 627.180115
   vertex 41.465073 58.747932 626.791626
   vertex 41.388569 58.627560 627.336243
  endloop
 facet normal -0.968625 0.201136 0.145978
  outer loop
   vertex 66.806824 58.627560 627.779968
   vertex 66.813606 58.942219 627.391418
   vertex 66.742592 58.433273 627.621460
  endloop
 facet normal -0.968617 0.201151 0.146012
  outer loop
   vertex 66.742592 58.433273 627.621460
   vertex 66.813606 58.942219 627.391418
   vertex 66.749374 58.747932 627.232971
  endloop
 facet normal -0.714772 0.549508 0.432599
  outer loop
   vertex 66.749374 58.747932 627.232971
   vertex 66.561623 58.291046 627.503113
   vertex 66.742592 58.433273 627.621460
  endloop
 facet normal -0.714758 0.549513 0.432617
  outer loop
   vertex 66.568398 58.605705 627.114624
   vertex 66.561623 58.291046 627.503113
   vertex 66.749374 58.747932 627.232971
  endloop
 facet normal -0.269377 0.750648 0.603295
  outer loop
   vertex 66.312393 58.238987 627.456604
   vertex 66.561623 58.291046 627.503113
   vertex 66.568398 58.605705 627.114624
  endloop
 facet normal -0.269384 0.750649 0.603290
  outer loop
   vertex 66.568398 58.605705 627.114624
   vertex 66.319176 58.553646 627.068115
   vertex 66.312393 58.238987 627.456604
  endloop
 facet normal 0.248149 0.750651 0.612327
  outer loop
   vertex 66.312393 58.238987 627.456604
   vertex 66.319176 58.553646 627.068115
   vertex 66.061699 58.291042 627.494385
  endloop
 facet normal 0.248153 0.750649 0.612328
  outer loop
   vertex 66.061699 58.291042 627.494385
   vertex 66.319176 58.553646 627.068115
   vertex 66.068474 58.605705 627.105896
  endloop
 facet normal 0.699280 0.549478 0.457254
  outer loop
   vertex 66.068474 58.605705 627.105896
   vertex 65.876701 58.433273 627.606384
   vertex 66.061699 58.291042 627.494385
  endloop
 facet normal 0.962936 0.201133 0.179721
  outer loop
   vertex 42.738365 58.627560 627.359802
   vertex 42.745148 58.942219 626.971313
   vertex 42.619835 58.957848 627.625244
  endloop
 facet normal 0.962936 0.201133 0.179721
  outer loop
   vertex 42.619835 58.957848 627.625244
   vertex 42.745148 58.942219 626.971313
   vertex 42.626617 59.272507 627.236755
  endloop
 facet normal 0.699212 0.549527 0.457300
  outer loop
   vertex 42.626617 59.272507 627.236755
   vertex 42.305344 59.199635 627.815552
   vertex 42.619835 58.957848 627.625244
  endloop
 facet normal 0.699212 0.549527 0.457300
  outer loop
   vertex 42.312126 59.514294 627.427063
   vertex 42.305344 59.199635 627.815552
   vertex 42.626617 59.272507 627.236755
  endloop
 facet normal 0.248209 0.750639 0.612318
  outer loop
   vertex 41.879158 59.288132 627.879822
   vertex 42.305344 59.199635 627.815552
   vertex 42.312126 59.514294 627.427063
  endloop
 facet normal 0.248215 0.750634 0.612322
  outer loop
   vertex 42.312126 59.514294 627.427063
   vertex 41.885941 59.602795 627.491333
   vertex 41.879158 59.288132 627.879822
  endloop
 facet normal -0.269421 0.750637 0.603287
  outer loop
   vertex 41.879158 59.288132 627.879822
   vertex 41.885941 59.602795 627.491333
   vertex 41.455471 59.199635 627.800720
  endloop
 facet normal -0.269427 0.750640 0.603282
  outer loop
   vertex 41.455471 59.199635 627.800720
   vertex 41.885941 59.602795 627.491333
   vertex 41.462254 59.514294 627.412231
  endloop
 facet normal -0.714752 0.549524 0.432612
  outer loop
   vertex 41.462254 59.514294 627.412231
   vertex 41.147816 58.957848 627.599548
   vertex 41.455471 59.199635 627.800720
  endloop
 facet normal -0.714752 0.549524 0.432612
  outer loop
   vertex 41.154598 59.272507 627.211060
   vertex 41.147816 58.957848 627.599548
   vertex 41.462254 59.514294 627.412231
  endloop
 facet normal -0.968622 0.201134 0.145999
  outer loop
   vertex 41.038624 58.627560 627.330139
   vertex 41.147816 58.957848 627.599548
   vertex 41.154598 59.272507 627.211060
  endloop
 facet normal -0.968622 0.201134 0.145999
  outer loop
   vertex 41.154598 59.272507 627.211060
   vertex 41.045406 58.942219 626.941650
   vertex 41.038624 58.627560 627.330139
  endloop
 facet normal 0.962941 0.201135 0.179694
  outer loop
   vertex 67.156769 58.627560 627.786072
   vertex 67.163551 58.942219 627.397522
   vertex 67.038246 58.957844 628.051514
  endloop
 facet normal 0.962937 0.201155 0.179693
  outer loop
   vertex 67.038246 58.957844 628.051514
   vertex 67.163551 58.942219 627.397522
   vertex 67.045021 59.272507 627.662964
  endloop
 facet normal 0.699213 0.549566 0.457252
  outer loop
   vertex 67.045021 59.272507 627.662964
   vertex 66.723755 59.199631 628.241821
   vertex 67.038246 58.957844 628.051514
  endloop
 facet normal 0.699266 0.549482 0.457271
  outer loop
   vertex 66.730537 59.514294 627.853333
   vertex 66.723755 59.199631 628.241821
   vertex 67.045021 59.272507 627.662964
  endloop
 facet normal 0.248211 0.750635 0.612322
  outer loop
   vertex 66.297562 59.288132 628.306091
   vertex 66.723755 59.199631 628.241821
   vertex 66.730537 59.514294 627.853333
  endloop
 facet normal 0.248130 0.750699 0.612277
  outer loop
   vertex 66.730537 59.514294 627.853333
   vertex 66.304344 59.602795 627.917542
   vertex 66.297562 59.288132 628.306091
  endloop
 facet normal -0.269429 0.750682 0.603229
  outer loop
   vertex 66.297562 59.288132 628.306091
   vertex 66.304344 59.602795 627.917542
   vertex 65.873878 59.199631 628.226990
  endloop
 facet normal -0.269349 0.750652 0.603301
  outer loop
   vertex 65.873878 59.199631 628.226990
   vertex 66.304344 59.602795 627.917542
   vertex 65.880661 59.514294 627.838501
  endloop
 facet normal -0.714752 0.549522 0.432615
  outer loop
   vertex 65.880661 59.514294 627.838501
   vertex 65.566223 58.957844 628.025818
   vertex 65.873878 59.199631 628.226990
  endloop
 facet normal -0.714793 0.549522 0.432547
  outer loop
   vertex 65.573006 59.272507 627.637268
   vertex 65.566223 58.957844 628.025818
   vertex 65.880661 59.514294 627.838501
  endloop
 facet normal -0.968622 0.201146 0.145988
  outer loop
   vertex 65.457031 58.627560 627.756409
   vertex 65.566223 58.957844 628.025818
   vertex 65.573006 59.272507 627.637268
  endloop
 facet normal -0.968622 0.201145 0.145985
  outer loop
   vertex 65.573006 59.272507 627.637268
   vertex 65.463814 58.942219 627.367859
   vertex 65.457031 58.627560 627.756409
  endloop
 facet normal 0.699212 0.549562 0.457257
  outer loop
   vertex 66.068474 58.605705 627.105896
   vertex 65.883484 58.747932 627.217834
   vertex 65.876701 58.433273 627.606384
  endloop
 facet normal 0.962932 0.201158 0.179713
  outer loop
   vertex 65.876701 58.433273 627.606384
   vertex 65.883484 58.747932 627.217834
   vertex 65.813759 58.942219 627.373962
  endloop
 facet normal 0.962932 0.201158 0.179713
  outer loop
   vertex 65.813759 58.942219 627.373962
   vertex 65.806976 58.627560 627.762512
   vertex 65.876701 58.433273 627.606384
  endloop
 facet normal 0.968625 -0.201136 -0.145978
  outer loop
   vertex 65.877991 59.136505 627.532471
   vertex 65.806976 58.627560 627.762512
   vertex 65.813759 58.942219 627.373962
  endloop
 facet normal 0.968617 -0.201151 -0.146012
  outer loop
   vertex 65.871208 58.821846 627.920959
   vertex 65.806976 58.627560 627.762512
   vertex 65.877991 59.136505 627.532471
  endloop
 facet normal 0.714758 -0.549520 -0.432608
  outer loop
   vertex 65.877991 59.136505 627.532471
   vertex 66.058968 59.278732 627.650818
   vertex 65.871208 58.821846 627.920959
  endloop
 facet normal 0.714758 -0.549520 -0.432608
  outer loop
   vertex 65.871208 58.821846 627.920959
   vertex 66.058968 59.278732 627.650818
   vertex 66.052185 58.964073 628.039307
  endloop
 facet normal 0.269384 -0.750649 -0.603290
  outer loop
   vertex 66.052185 58.964073 628.039307
   vertex 66.058968 59.278732 627.650818
   vertex 66.308189 59.330791 627.697327
  endloop
 facet normal 0.269384 -0.750649 -0.603290
  outer loop
   vertex 66.308189 59.330791 627.697327
   vertex 66.301407 59.016132 628.085815
   vertex 66.052185 58.964073 628.039307
  endloop
 facet normal -0.248153 -0.750650 -0.612327
  outer loop
   vertex 66.558891 59.278732 627.659546
   vertex 66.301407 59.016132 628.085815
   vertex 66.308189 59.330791 627.697327
  endloop
 facet normal -0.248153 -0.750650 -0.612327
  outer loop
   vertex 66.552109 58.964073 628.048035
   vertex 66.301407 59.016132 628.085815
   vertex 66.558891 59.278732 627.659546
  endloop
 facet normal -0.699212 -0.549527 -0.457300
  outer loop
   vertex 66.558891 59.278732 627.659546
   vertex 66.743881 59.136505 627.547607
   vertex 66.552109 58.964073 628.048035
  endloop
 facet normal -0.699212 -0.549527 -0.457300
  outer loop
   vertex 66.552109 58.964073 628.048035
   vertex 66.743881 59.136505 627.547607
   vertex 66.737099 58.821846 627.936096
  endloop
 facet normal -0.962943 -0.201113 -0.179704
  outer loop
   vertex 66.737099 58.821846 627.936096
   vertex 66.743881 59.136505 627.547607
   vertex 66.813606 58.942219 627.391418
  endloop
 facet normal -0.962932 -0.201158 -0.179713
  outer loop
   vertex 66.813606 58.942219 627.391418
   vertex 66.806824 58.627560 627.779968
   vertex 66.737099 58.821846 627.936096
  endloop
 facet normal -0.714757 0.549549 0.432572
  outer loop
   vertex 42.143211 58.291046 627.076904
   vertex 42.324188 58.433273 627.195251
   vertex 42.330967 58.747932 626.806702
  endloop
 facet normal -0.968620 0.201146 0.145996
  outer loop
   vertex 42.330967 58.747932 626.806702
   vertex 42.324188 58.433273 627.195251
   vertex 42.388416 58.627560 627.353699
  endloop
 facet normal -0.968626 0.201125 0.145991
  outer loop
   vertex 42.388416 58.627560 627.353699
   vertex 42.395199 58.942219 626.965210
   vertex 42.330967 58.747932 626.806702
  endloop
 facet normal -0.962936 -0.201134 -0.179721
  outer loop
   vertex 42.318695 58.821846 627.509827
   vertex 42.395199 58.942219 626.965210
   vertex 42.388416 58.627560 627.353699
  endloop
 facet normal -0.962936 -0.201134 -0.179721
  outer loop
   vertex 42.325478 59.136505 627.121338
   vertex 42.395199 58.942219 626.965210
   vertex 42.318695 58.821846 627.509827
  endloop
 facet normal -0.699274 -0.549479 -0.457262
  outer loop
   vertex 42.318695 58.821846 627.509827
   vertex 42.133698 58.964073 627.621826
   vertex 42.325478 59.136505 627.121338
  endloop
 facet normal -0.699198 -0.549573 -0.457266
  outer loop
   vertex 42.325478 59.136505 627.121338
   vertex 42.133698 58.964073 627.621826
   vertex 42.140480 59.278732 627.233276
  endloop
 facet normal -0.248161 -0.750696 -0.612268
  outer loop
   vertex 42.140480 59.278732 627.233276
   vertex 42.133698 58.964073 627.621826
   vertex 41.883003 59.016132 627.659607
  endloop
 facet normal -0.248158 -0.750698 -0.612267
  outer loop
   vertex 41.883003 59.016132 627.659607
   vertex 41.889782 59.330791 627.271057
   vertex 42.140480 59.278732 627.233276
  endloop
 facet normal 0.269376 -0.750695 -0.603236
  outer loop
   vertex 41.633774 58.964073 627.613098
   vertex 41.889782 59.330791 627.271057
   vertex 41.883003 59.016132 627.659607
  endloop
 facet normal 0.269379 -0.750696 -0.603233
  outer loop
   vertex 41.640556 59.278732 627.224548
   vertex 41.889782 59.330791 627.271057
   vertex 41.633774 58.964073 627.613098
  endloop
 facet normal 0.714764 -0.549547 -0.432562
  outer loop
   vertex 41.633774 58.964073 627.613098
   vertex 41.452801 58.821846 627.494751
   vertex 41.640556 59.278732 627.224548
  endloop
 facet normal 0.714764 -0.549547 -0.432562
  outer loop
   vertex 41.640556 59.278732 627.224548
   vertex 41.452801 58.821846 627.494751
   vertex 41.459583 59.136505 627.106201
  endloop
 facet normal 0.968625 -0.201136 -0.145978
  outer loop
   vertex 41.459583 59.136505 627.106201
   vertex 41.452801 58.821846 627.494751
   vertex 41.388569 58.627560 627.336243
  endloop
 facet normal 0.968617 -0.201151 -0.146012
  outer loop
   vertex 41.388569 58.627560 627.336243
   vertex 41.395351 58.942219 626.947754
   vertex 41.459583 59.136505 627.106201
  endloop
 facet normal 0.962936 0.201134 0.179721
  outer loop
   vertex 41.465073 58.747932 626.791626
   vertex 41.395351 58.942219 626.947754
   vertex 41.388569 58.627560 627.336243
  endloop
endsolid