solid stl file generated from DOUG
 facet normal -0.862762 -0.466802 -0.194262
  outer loop
   vertex 107.232079 -42.103035 656.249084
   vertex 107.240242 -41.923431 655.781250
   vertex 107.358711 -42.305637 656.173523
  endloop
 facet normal -0.862758 -0.466806 -0.194267
  outer loop
   vertex 107.358711 -42.305637 656.173523
   vertex 107.240242 -41.923431 655.781250
   vertex 107.366875 -42.126030 655.705688
  endloop
 facet normal 0.006285 -0.933584 -0.358305
  outer loop
   vertex 107.366875 -42.126030 655.705688
   vertex 107.609261 -42.305637 656.177917
   vertex 107.358711 -42.305637 656.173523
  endloop
 facet normal 0.006285 -0.933584 -0.358305
  outer loop
   vertex 107.617424 -42.126030 655.710083
   vertex 107.609261 -42.305637 656.177917
   vertex 107.366875 -42.126030 655.705688
  endloop
 facet normal 0.869007 -0.466813 -0.164052
  outer loop
   vertex 107.733177 -42.103035 656.257812
   vertex 107.609261 -42.305637 656.177917
   vertex 107.617424 -42.126030 655.710083
  endloop
 facet normal 0.869023 -0.466781 -0.164056
  outer loop
   vertex 107.617424 -42.126030 655.710083
   vertex 107.741341 -41.923431 655.790039
   vertex 107.733177 -42.103035 656.257812
  endloop
 facet normal 0.862782 0.466761 0.194272
  outer loop
   vertex 107.733177 -42.103035 656.257812
   vertex 107.741341 -41.923431 655.790039
   vertex 107.606544 -41.900436 656.333435
  endloop
 facet normal 0.862758 0.466808 0.194264
  outer loop
   vertex 107.606544 -41.900436 656.333435
   vertex 107.741341 -41.923431 655.790039
   vertex 107.614708 -41.720833 655.865601
  endloop
 facet normal -0.006284 0.933586 0.358298
  outer loop
   vertex 107.614708 -41.720833 655.865601
   vertex 107.355995 -41.900436 656.329041
   vertex 107.606544 -41.900436 656.333435
  endloop
 facet normal -0.006284 0.933586 0.358298
  outer loop
   vertex 107.364159 -41.720833 655.861206
   vertex 107.355995 -41.900436 656.329041
   vertex 107.614708 -41.720833 655.865601
  endloop
 facet normal -0.869023 0.466788 0.164038
  outer loop
   vertex 107.232079 -42.103035 656.249084
   vertex 107.355995 -41.900436 656.329041
   vertex 107.364159 -41.720833 655.861206
  endloop
 facet normal -0.869023 0.466788 0.164038
  outer loop
   vertex 107.364159 -41.720833 655.861206
   vertex 107.240242 -41.923431 655.781250
   vertex 107.232079 -42.103035 656.249084
  endloop
 facet normal 0.869003 -0.466820 -0.164051
  outer loop
   vertex 85.649406 -41.923431 655.404358
   vertex 85.641243 -42.103035 655.872192
   vertex 85.525490 -42.126030 655.324463
  endloop
 facet normal 0.869023 -0.466781 -0.164056
  outer loop
   vertex 85.525490 -42.126030 655.324463
   vertex 85.641243 -42.103035 655.872192
   vertex 85.517326 -42.305634 655.792236
  endloop
 facet normal 0.006285 -0.933571 -0.358339
  outer loop
   vertex 85.517326 -42.305634 655.792236
   vertex 85.274948 -42.126030 655.320068
   vertex 85.525490 -42.126030 655.324463
  endloop
 facet normal 0.006197 -0.933586 -0.358299
  outer loop
   vertex 85.266777 -42.305634 655.787903
   vertex 85.274948 -42.126030 655.320068
   vertex 85.517326 -42.305634 655.792236
  endloop
 facet normal -0.862758 -0.466803 -0.194276
  outer loop
   vertex 85.148315 -41.923431 655.395630
   vertex 85.274948 -42.126030 655.320068
   vertex 85.266777 -42.305634 655.787903
  endloop
 facet normal -0.862758 -0.466803 -0.194276
  outer loop
   vertex 85.266777 -42.305634 655.787903
   vertex 85.140144 -42.103035 655.863464
   vertex 85.148315 -41.923431 655.395630
  endloop
 facet normal -0.869026 0.466787 0.164023
  outer loop
   vertex 85.148315 -41.923431 655.395630
   vertex 85.140144 -42.103035 655.863464
   vertex 85.272232 -41.720829 655.475586
  endloop
 facet normal -0.869023 0.466791 0.164029
  outer loop
   vertex 85.272232 -41.720829 655.475586
   vertex 85.140144 -42.103035 655.863464
   vertex 85.264061 -41.900436 655.943420
  endloop
 facet normal -0.006285 0.933584 0.358304
  outer loop
   vertex 85.264061 -41.900436 655.943420
   vertex 85.522774 -41.720829 655.479980
   vertex 85.272232 -41.720829 655.475586
  endloop
 facet normal -0.006198 0.933568 0.358347
  outer loop
   vertex 85.514610 -41.900436 655.947754
   vertex 85.522774 -41.720829 655.479980
   vertex 85.264061 -41.900436 655.943420
  endloop
 facet normal 0.862786 0.466754 0.194273
  outer loop
   vertex 85.649406 -41.923431 655.404358
   vertex 85.522774 -41.720829 655.479980
   vertex 85.514610 -41.900436 655.947754
  endloop
 facet normal 0.862758 0.466808 0.194264
  outer loop
   vertex 85.514610 -41.900436 655.947754
   vertex 85.641243 -42.103035 655.872192
   vertex 85.649406 -41.923431 655.404358
  endloop
 facet normal -0.016146 -0.358247 0.933487
  outer loop
   vertex 85.266777 -42.305634 655.787903
   vertex 85.517326 -42.305634 655.792236
   vertex 85.390694 -42.103035 655.867798
  endloop
 facet normal -0.016372 -0.358369 0.933436
  outer loop
   vertex 85.390694 -42.103035 655.867798
   vertex 85.517326 -42.305634 655.792236
   vertex 85.641243 -42.103035 655.872192
  endloop
 facet normal -0.016372 -0.358369 0.933436
  outer loop
   vertex 85.641243 -42.103035 655.872192
   vertex 85.514610 -41.900436 655.947754
   vertex 85.390694 -42.103035 655.867798
  endloop
 facet normal -0.016372 -0.358369 0.933436
  outer loop
   vertex 107.355995 -41.900436 656.329041
   vertex 107.232079 -42.103035 656.249084
   vertex 107.482628 -42.103035 656.253479
  endloop
 facet normal -0.016372 -0.358363 0.933439
  outer loop
   vertex 107.482628 -42.103035 656.253479
   vertex 107.232079 -42.103035 656.249084
   vertex 107.358711 -42.305637 656.173523
  endloop
 facet normal -0.016372 -0.358363 0.933439
  outer loop
   vertex 107.358711 -42.305637 656.173523
   vertex 107.609261 -42.305637 656.177917
   vertex 107.482628 -42.103035 656.253479
  endloop
 facet normal -0.016146 -0.358241 0.933490
  outer loop
   vertex 107.609261 -42.305637 656.177917
   vertex 107.733177 -42.103035 656.257812
   vertex 107.482628 -42.103035 656.253479
  endloop
 facet normal -0.016144 -0.358492 0.933393
  outer loop
   vertex 107.482628 -42.103035 656.253479
   vertex 107.733177 -42.103035 656.257812
   vertex 107.606544 -41.900436 656.333435
  endloop
 facet normal -0.016372 -0.358369 0.933436
  outer loop
   vertex 107.606544 -41.900436 656.333435
   vertex 107.355995 -41.900436 656.329041
   vertex 107.482628 -42.103035 656.253479
  endloop
 facet normal -0.016144 -0.358492 0.933393
  outer loop
   vertex 85.514610 -41.900436 655.947754
   vertex 85.264061 -41.900436 655.943420
   vertex 85.390694 -42.103035 655.867798
  endloop
 facet normal -0.016144 -0.358492 0.933393
  outer loop
   vertex 85.390694 -42.103035 655.867798
   vertex 85.264061 -41.900436 655.943420
   vertex 85.140144 -42.103035 655.863464
  endloop
 facet normal -0.016146 -0.358247 0.933487
  outer loop
   vertex 85.140144 -42.103035 655.863464
   vertex 85.266777 -42.305634 655.787903
   vertex 85.390694 -42.103035 655.867798
  endloop
 facet normal -0.016306 -0.358350 0.933445
  outer loop
   vertex 106.055496 -40.790253 654.552673
   vertex 106.063316 -41.957413 654.104736
   vertex 109.046440 -40.790253 654.604919
  endloop
 facet normal -0.016286 -0.358393 0.933429
  outer loop
   vertex 109.046440 -40.790253 654.604919
   vertex 106.063316 -41.957413 654.104736
   vertex 109.054260 -41.957413 654.156921
  endloop
 facet normal 0.999848 -0.000001 0.017455
  outer loop
   vertex 109.054260 -41.957413 654.156921
   vertex 109.069069 -40.292629 653.308716
   vertex 109.046440 -40.790253 654.604919
  endloop
 facet normal 0.999848 -0.000000 0.017456
  outer loop
   vertex 109.076889 -41.459789 652.860779
   vertex 109.069069 -40.292629 653.308716
   vertex 109.054260 -41.957413 654.156921
  endloop
 facet normal 0.016286 0.358350 -0.933445
  outer loop
   vertex 106.085945 -41.459789 652.808594
   vertex 109.069069 -40.292629 653.308716
   vertex 109.076889 -41.459789 652.860779
  endloop
 facet normal 0.006252 -0.933579 -0.358317
  outer loop
   vertex 109.076889 -41.459789 652.860779
   vertex 106.063316 -41.957413 654.104736
   vertex 106.085945 -41.459789 652.808594
  endloop
 facet normal -0.999848 0.000000 -0.017456
  outer loop
   vertex 106.085945 -41.459789 652.808594
   vertex 106.063316 -41.957413 654.104736
   vertex 106.078125 -40.292629 653.256531
  endloop
 facet normal -0.999848 0.000000 -0.017456
  outer loop
   vertex 106.078125 -40.292629 653.256531
   vertex 106.063316 -41.957413 654.104736
   vertex 106.055496 -40.790253 654.552673
  endloop
 facet normal -0.006252 0.933579 0.358317
  outer loop
   vertex 106.055496 -40.790253 654.552673
   vertex 109.069069 -40.292629 653.308716
   vertex 106.078125 -40.292629 653.256531
  endloop
 facet normal -0.006259 0.933585 0.358302
  outer loop
   vertex 109.046440 -40.790253 654.604919
   vertex 109.069069 -40.292629 653.308716
   vertex 106.055496 -40.790253 654.552673
  endloop
 facet normal -0.999848 -0.000002 -0.017451
  outer loop
   vertex 83.907997 -40.292625 652.869507
   vertex 83.915817 -41.459785 652.421570
   vertex 83.885376 -40.790253 654.165649
  endloop
 facet normal -0.999848 0.000006 -0.017454
  outer loop
   vertex 83.885376 -40.790253 654.165649
   vertex 83.915817 -41.459785 652.421570
   vertex 83.893188 -41.957413 653.717712
  endloop
 facet normal -0.016306 -0.358350 0.933445
  outer loop
   vertex 83.893188 -41.957413 653.717712
   vertex 86.876320 -40.790253 654.217896
   vertex 83.885376 -40.790253 654.165649
  endloop
 facet normal -0.016286 -0.358393 0.933429
  outer loop
   vertex 86.884140 -41.957413 653.769897
   vertex 86.876320 -40.790253 654.217896
   vertex 83.893188 -41.957413 653.717712
  endloop
 facet normal 0.999848 0.000001 0.017450
  outer loop
   vertex 86.906761 -41.459789 652.473755
   vertex 86.876320 -40.790253 654.217896
   vertex 86.884140 -41.957413 653.769897
  endloop
 facet normal 0.006251 -0.933579 -0.358317
  outer loop
   vertex 86.884140 -41.957413 653.769897
   vertex 83.915817 -41.459785 652.421570
   vertex 86.906761 -41.459789 652.473755
  endloop
 facet normal 0.016287 0.358392 -0.933429
  outer loop
   vertex 86.906761 -41.459789 652.473755
   vertex 83.915817 -41.459785 652.421570
   vertex 86.898941 -40.292625 652.921753
  endloop
 facet normal 0.016306 0.358350 -0.933445
  outer loop
   vertex 86.898941 -40.292625 652.921753
   vertex 83.915817 -41.459785 652.421570
   vertex 83.907997 -40.292625 652.869507
  endloop
 facet normal -0.006259 0.933578 0.358319
  outer loop
   vertex 83.907997 -40.292625 652.869507
   vertex 86.876320 -40.790253 654.217896
   vertex 86.898941 -40.292625 652.921753
  endloop
 facet normal -0.006259 0.933578 0.358319
  outer loop
   vertex 83.885376 -40.790253 654.165649
   vertex 86.876320 -40.790253 654.217896
   vertex 83.907997 -40.292625 652.869507
  endloop
 facet normal 0.006252 -0.933578 -0.358319
  outer loop
   vertex 86.884140 -41.957413 653.769897
   vertex 83.893188 -41.957413 653.717712
   vertex 83.915817 -41.459785 652.421570
  endloop
 facet normal 0.006252 -0.933579 -0.358317
  outer loop
   vertex 109.054260 -41.957413 654.156921
   vertex 106.063316 -41.957413 654.104736
   vertex 109.076889 -41.459789 652.860779
  endloop
 facet normal 0.999848 0.000001 0.017450
  outer loop
   vertex 86.906761 -41.459789 652.473755
   vertex 86.898941 -40.292625 652.921753
   vertex 86.876320 -40.790253 654.217896
  endloop
 facet normal 0.016286 0.358350 -0.933445
  outer loop
   vertex 106.085945 -41.459789 652.808594
   vertex 106.078125 -40.292629 653.256531
   vertex 109.069069 -40.292629 653.308716
  endloop
 facet normal -0.016291 -0.358623 0.933340
  outer loop
   vertex 106.226776 -41.633614 657.199280
   vertex 86.613457 -41.735943 656.817627
   vertex 106.227463 -41.735943 657.159973
  endloop
 facet normal -0.004643 -0.963964 0.265991
  outer loop
   vertex 106.227463 -41.735943 657.159973
   vertex 86.613457 -41.735943 656.817627
   vertex 106.229912 -41.774590 657.019958
  endloop
 facet normal -0.005006 -0.958154 0.286210
  outer loop
   vertex 87.368965 -43.104126 656.368896
   vertex 86.212181 -43.134163 656.248108
   vertex 87.370720 -43.134163 656.268372
  endloop
 facet normal 0.006267 -0.933577 -0.358323
  outer loop
   vertex 87.370720 -43.134163 656.268372
   vertex 86.212181 -43.134163 656.248108
   vertex 86.225899 -42.832550 655.462524
  endloop
 facet normal -0.006248 0.933577 0.358323
  outer loop
   vertex 106.651680 -41.279987 656.415161
   vertex 105.479424 -41.581600 657.180542
   vertex 106.637962 -41.581600 657.200745
  endloop
 facet normal -0.014886 0.520597 0.853673
  outer loop
   vertex 106.637962 -41.581600 657.200745
   vertex 105.479424 -41.581600 657.180542
   vertex 105.478470 -41.671204 657.235168
  endloop
 facet normal -0.014704 0.538599 0.842434
  outer loop
   vertex 86.623268 -42.874557 656.255371
   vertex 86.621902 -42.996983 656.333618
   vertex 106.235916 -42.996986 656.675964
  endloop
 facet normal -0.016294 -0.358137 0.933527
  outer loop
   vertex 106.235916 -42.996986 656.675964
   vertex 86.621902 -42.996983 656.333618
   vertex 106.236595 -43.099316 656.636719
  endloop
 facet normal -0.017451 0.001699 0.999846
  outer loop
   vertex 86.625504 -41.389416 656.127319
   vertex 106.239517 -41.389416 656.469666
   vertex 86.625504 -41.353504 656.127258
  endloop
 facet normal -0.017455 -0.000000 0.999848
  outer loop
   vertex 86.625504 -41.353504 656.127258
   vertex 106.239517 -41.389416 656.469666
   vertex 106.239517 -41.353508 656.469666
  endloop
 facet normal -0.006255 0.933584 0.358305
  outer loop
   vertex 106.239517 -41.353508 656.469666
   vertex 86.626656 -41.328197 656.061340
   vertex 86.625504 -41.353504 656.127258
  endloop
 facet normal -0.999848 0.000004 -0.017448
  outer loop
   vertex 86.201782 -41.581596 656.843994
   vertex 86.203522 -41.797970 656.744263
   vertex 86.200829 -41.671204 656.898621
  endloop
 facet normal -0.999848 0.000017 -0.017459
  outer loop
   vertex 86.200829 -41.671204 656.898621
   vertex 86.203522 -41.797970 656.744263
   vertex 86.201820 -41.819611 656.841675
  endloop
 facet normal -0.016327 -0.358293 0.933466
  outer loop
   vertex 86.201820 -41.819611 656.841675
   vertex 87.359367 -41.671204 656.918884
   vertex 86.200829 -41.671204 656.898621
  endloop
 facet normal 0.999848 -0.000026 0.017461
  outer loop
   vertex 106.648361 -43.134163 656.604858
   vertex 106.647133 -42.906624 656.675537
   vertex 106.646606 -43.104126 656.705383
  endloop
 facet normal 0.999848 -0.000026 0.017463
  outer loop
   vertex 106.646606 -43.104126 656.705383
   vertex 106.647133 -42.906624 656.675537
   vertex 106.645615 -42.955723 656.762390
  endloop
 facet normal -0.016276 -0.358636 0.933336
  outer loop
   vertex 106.645615 -42.955723 656.762390
   vertex 105.488068 -43.104126 656.685181
   vertex 106.646606 -43.104126 656.705383
  endloop
 facet normal 0.999847 -0.000020 0.017467
  outer loop
   vertex 87.367973 -42.955719 656.425842
   vertex 87.368965 -43.104126 656.368896
   vertex 87.369492 -42.906624 656.338989
  endloop
 facet normal 0.999848 -0.000021 0.017460
  outer loop
   vertex 87.369492 -42.906624 656.338989
   vertex 87.368965 -43.104126 656.368896
   vertex 87.370720 -43.134163 656.268372
  endloop
 facet normal 0.999848 -0.000018 0.017451
  outer loop
   vertex 87.370720 -43.134163 656.268372
   vertex 87.384438 -42.832550 655.482727
   vertex 87.369492 -42.906624 656.338989
  endloop
 facet normal 0.006248 -0.933586 -0.358299
  outer loop
   vertex 86.225899 -42.832550 655.462524
   vertex 87.384438 -42.832550 655.482727
   vertex 87.370720 -43.134163 656.268372
  endloop
 facet normal -0.014710 0.538301 0.842624
  outer loop
   vertex 106.235916 -42.996986 656.675964
   vertex 106.237282 -42.874561 656.597778
   vertex 86.623268 -42.874557 656.255371
  endloop
 facet normal -0.016295 -0.358372 0.933437
  outer loop
   vertex 86.623268 -42.874557 656.255371
   vertex 106.237282 -42.874561 656.597778
   vertex 106.229912 -41.774590 657.019958
  endloop
 facet normal -0.016295 -0.358372 0.933437
  outer loop
   vertex 106.229912 -41.774590 657.019958
   vertex 86.615898 -41.774586 656.677551
   vertex 86.623268 -42.874557 656.255371
  endloop
 facet normal -0.004641 -0.964001 0.265859
  outer loop
   vertex 86.613457 -41.735943 656.817627
   vertex 86.615898 -41.774586 656.677551
   vertex 106.229912 -41.774590 657.019958
  endloop
 facet normal -0.006267 0.933586 0.358299
  outer loop
   vertex 106.651680 -41.279987 656.415161
   vertex 105.493141 -41.279987 656.394897
   vertex 105.479424 -41.581600 657.180542
  endloop
 facet normal -0.999848 0.000007 -0.017455
  outer loop
   vertex 105.479424 -41.581600 657.180542
   vertex 105.493141 -41.279987 656.394897
   vertex 105.481163 -41.797974 657.080811
  endloop
 facet normal -0.999848 0.000004 -0.017448
  outer loop
   vertex 105.481163 -41.797974 657.080811
   vertex 105.478470 -41.671204 657.235168
   vertex 105.479424 -41.581600 657.180542
  endloop
 facet normal -0.999847 0.000028 -0.017468
  outer loop
   vertex 105.479462 -41.819611 657.178162
   vertex 105.478470 -41.671204 657.235168
   vertex 105.481163 -41.797974 657.080811
  endloop
 facet normal 0.012961 0.669625 -0.742586
  outer loop
   vertex 106.229515 -41.609287 657.042358
   vertex 86.615509 -41.609287 656.700012
   vertex 106.229095 -41.582611 657.066406
  endloop
 facet normal 0.012979 0.668633 -0.743479
  outer loop
   vertex 106.229095 -41.582611 657.066406
   vertex 86.615509 -41.609287 656.700012
   vertex 86.615089 -41.582607 656.723999
  endloop
 facet normal -0.006254 0.933605 0.358248
  outer loop
   vertex 86.615089 -41.582607 656.723999
   vertex 106.226776 -41.633614 657.199280
   vertex 106.229095 -41.582611 657.066406
  endloop
 facet normal -0.006254 0.933605 0.358248
  outer loop
   vertex 86.612770 -41.633610 656.856873
   vertex 106.226776 -41.633614 657.199280
   vertex 86.615089 -41.582607 656.723999
  endloop
 facet normal -0.016297 -0.358126 0.933531
  outer loop
   vertex 86.613457 -41.735943 656.817627
   vertex 106.226776 -41.633614 657.199280
   vertex 86.612770 -41.633610 656.856873
  endloop
 facet normal -0.016283 -0.358399 0.933426
  outer loop
   vertex 108.060776 -41.410297 656.014465
   vertex 106.419838 -42.451180 655.586182
   vertex 108.067749 -42.451180 655.614929
  endloop
 facet normal 0.006251 -0.933580 -0.358314
  outer loop
   vertex 108.067749 -42.451180 655.614929
   vertex 106.419838 -42.451180 655.586182
   vertex 108.092857 -41.898914 654.176453
  endloop
 facet normal 0.999848 -0.000000 0.017452
  outer loop
   vertex 108.092857 -41.898914 654.176453
   vertex 108.085884 -40.858036 654.575989
   vertex 108.067749 -42.451180 655.614929
  endloop
 facet normal 0.016283 0.358400 -0.933426
  outer loop
   vertex 106.444946 -41.898914 654.147705
   vertex 108.085884 -40.858036 654.575989
   vertex 108.092857 -41.898914 654.176453
  endloop
 facet normal 0.016283 0.358400 -0.933426
  outer loop
   vertex 106.437973 -40.858036 654.547241
   vertex 108.085884 -40.858036 654.575989
   vertex 106.444946 -41.898914 654.147705
  endloop
 facet normal -0.999848 0.000000 -0.017452
  outer loop
   vertex 106.444946 -41.898914 654.147705
   vertex 106.419838 -42.451180 655.586182
   vertex 106.437973 -40.858036 654.547241
  endloop
 facet normal -0.999848 0.000000 -0.017452
  outer loop
   vertex 106.437973 -40.858036 654.547241
   vertex 106.419838 -42.451180 655.586182
   vertex 106.412865 -41.410297 655.985718
  endloop
 facet normal -0.016283 -0.358399 0.933426
  outer loop
   vertex 106.412865 -41.410297 655.985718
   vertex 106.419838 -42.451180 655.586182
   vertex 108.060776 -41.410297 656.014465
  endloop
 facet normal -0.006251 0.933581 0.358312
  outer loop
   vertex 108.060776 -41.410297 656.014465
   vertex 108.085884 -40.858036 654.575989
   vertex 106.412865 -41.410297 655.985718
  endloop
 facet normal 0.999848 -0.000000 0.017452
  outer loop
   vertex 108.067749 -42.451180 655.614929
   vertex 108.085884 -40.858036 654.575989
   vertex 108.060776 -41.410297 656.014465
  endloop
 facet normal -0.006264 0.933580 0.358314
  outer loop
   vertex 84.821243 -41.410297 655.608765
   vertex 86.469154 -41.410297 655.637573
   vertex 84.846352 -40.858032 654.170288
  endloop
 facet normal -0.006264 0.933580 0.358314
  outer loop
   vertex 84.846352 -40.858032 654.170288
   vertex 86.469154 -41.410297 655.637573
   vertex 86.494263 -40.858032 654.199097
  endloop
 facet normal 0.016318 0.358351 -0.933444
  outer loop
   vertex 86.494263 -40.858032 654.199097
   vertex 84.853325 -41.898914 653.770813
   vertex 84.846352 -40.858032 654.170288
  endloop
 facet normal 0.016283 0.358399 -0.933426
  outer loop
   vertex 86.501236 -41.898914 653.799561
   vertex 84.853325 -41.898914 653.770813
   vertex 86.494263 -40.858032 654.199097
  endloop
 facet normal 0.006251 -0.933580 -0.358314
  outer loop
   vertex 86.476128 -42.451180 655.238037
   vertex 84.853325 -41.898914 653.770813
   vertex 86.501236 -41.898914 653.799561
  endloop
 facet normal 0.999848 -0.000000 0.017452
  outer loop
   vertex 86.501236 -41.898914 653.799561
   vertex 86.469154 -41.410297 655.637573
   vertex 86.476128 -42.451180 655.238037
  endloop
 facet normal -0.016283 -0.358399 0.933426
  outer loop
   vertex 86.476128 -42.451180 655.238037
   vertex 86.469154 -41.410297 655.637573
   vertex 84.828217 -42.451180 655.209290
  endloop
 facet normal -0.016318 -0.358351 0.933444
  outer loop
   vertex 84.828217 -42.451180 655.209290
   vertex 86.469154 -41.410297 655.637573
   vertex 84.821243 -41.410297 655.608765
  endloop
 facet normal -0.999848 -0.000000 -0.017452
  outer loop
   vertex 84.821243 -41.410297 655.608765
   vertex 84.853325 -41.898914 653.770813
   vertex 84.828217 -42.451180 655.209290
  endloop
 facet normal -0.999848 -0.000000 -0.017452
  outer loop
   vertex 84.846352 -40.858032 654.170288
   vertex 84.853325 -41.898914 653.770813
   vertex 84.821243 -41.410297 655.608765
  endloop
 facet normal 0.016281 0.358334 -0.933452
  outer loop
   vertex 109.515152 -41.943741 655.176208
   vertex 109.165207 -41.943741 655.170105
   vertex 109.162079 -41.476948 655.349243
  endloop
 facet normal -0.016114 -0.358334 0.933454
  outer loop
   vertex 109.162079 -41.476948 655.349243
   vertex 109.165207 -41.943741 655.170105
   vertex 109.338615 -41.710342 655.262695
  endloop
 facet normal -0.016280 -0.358443 0.933410
  outer loop
   vertex 109.338615 -41.710342 655.262695
   vertex 109.512024 -41.476948 655.355347
   vertex 109.162079 -41.476948 655.349243
  endloop
 facet normal -0.016447 -0.358334 0.933449
  outer loop
   vertex 109.515152 -41.943741 655.176208
   vertex 109.512024 -41.476948 655.355347
   vertex 109.338615 -41.710342 655.262695
  endloop
 facet normal 0.999848 0.000001 0.017457
  outer loop
   vertex 109.528320 -41.118580 654.421936
   vertex 109.512024 -41.476948 655.355347
   vertex 109.515152 -41.943741 655.176208
  endloop
 facet normal 0.999848 -0.000001 0.017455
  outer loop
   vertex 109.515152 -41.943741 655.176208
   vertex 109.531448 -41.585369 654.242737
   vertex 109.528320 -41.118580 654.421936
  endloop
 facet normal 0.016323 0.358443 -0.933409
  outer loop
   vertex 109.528320 -41.118580 654.421936
   vertex 109.531448 -41.585369 654.242737
   vertex 107.828583 -41.118580 654.392212
  endloop
 facet normal 0.016290 0.358336 -0.933451
  outer loop
   vertex 107.828583 -41.118580 654.392212
   vertex 109.531448 -41.585369 654.242737
   vertex 107.831703 -41.585369 654.213074
  endloop
 facet normal -0.999848 0.000010 -0.017443
  outer loop
   vertex 107.831703 -41.585369 654.213074
   vertex 107.815414 -41.943741 655.146545
   vertex 107.828583 -41.118580 654.392212
  endloop
 facet normal 0.006222 -0.933583 -0.358306
  outer loop
   vertex 108.236412 -41.854145 654.920410
   vertex 107.815414 -41.943741 655.146545
   vertex 107.831703 -41.585369 654.213074
  endloop
 facet normal 0.006249 -0.933600 -0.358263
  outer loop
   vertex 108.165359 -41.943741 655.152649
   vertex 107.815414 -41.943741 655.146545
   vertex 108.236412 -41.854145 654.920410
  endloop
 facet normal -0.006229 0.933577 0.358323
  outer loop
   vertex 84.680771 -41.387356 654.688477
   vertex 85.093620 -41.476948 654.929077
   vertex 85.109917 -41.118580 653.995667
  endloop
 facet normal 0.999848 -0.000013 0.017451
  outer loop
   vertex 85.109917 -41.118580 653.995667
   vertex 85.093620 -41.476948 654.929077
   vertex 85.113037 -41.585369 653.816528
  endloop
 facet normal 0.016290 0.358336 -0.933451
  outer loop
   vertex 85.113037 -41.585369 653.816528
   vertex 83.410172 -41.118580 653.966003
   vertex 85.109917 -41.118580 653.995667
  endloop
 facet normal 0.016323 0.358443 -0.933409
  outer loop
   vertex 83.413300 -41.585369 653.786804
   vertex 83.410172 -41.118580 653.966003
   vertex 85.113037 -41.585369 653.816528
  endloop
 facet normal -0.999848 0.000001 -0.017456
  outer loop
   vertex 83.393875 -41.476948 654.899414
   vertex 83.410172 -41.118580 653.966003
   vertex 83.413300 -41.585369 653.786804
  endloop
 facet normal -0.999848 -0.000001 -0.017456
  outer loop
   vertex 83.413300 -41.585369 653.786804
   vertex 83.397003 -41.943737 654.720276
   vertex 83.393875 -41.476948 654.899414
  endloop
 facet normal -0.016443 -0.358336 0.933448
  outer loop
   vertex 83.393875 -41.476948 654.899414
   vertex 83.397003 -41.943737 654.720276
   vertex 83.570412 -41.710342 654.812927
  endloop
 facet normal -0.016280 -0.358443 0.933410
  outer loop
   vertex 83.570412 -41.710342 654.812927
   vertex 83.397003 -41.943737 654.720276
   vertex 83.746948 -41.943737 654.726379
  endloop
 facet normal -0.016118 -0.358336 0.933453
  outer loop
   vertex 83.746948 -41.943737 654.726379
   vertex 83.743828 -41.476948 654.905518
   vertex 83.570412 -41.710342 654.812927
  endloop
 facet normal 0.016280 0.358336 -0.933451
  outer loop
   vertex 83.393875 -41.476948 654.899414
   vertex 83.743828 -41.476948 654.905518
   vertex 83.746948 -41.943737 654.726379
  endloop
 facet normal -0.016281 -0.358230 0.933491
  outer loop
   vertex 83.570412 -41.710342 654.812927
   vertex 83.743828 -41.476948 654.905518
   vertex 83.393875 -41.476948 654.899414
  endloop
 facet normal -0.016294 -0.358612 0.933345
  outer loop
   vertex 86.621902 -42.996983 656.333618
   vertex 86.622589 -43.099316 656.294312
   vertex 106.236595 -43.099316 656.636719
  endloop
 facet normal 0.006257 -0.933550 -0.358392
  outer loop
   vertex 106.236595 -43.099316 656.636719
   vertex 86.622589 -43.099316 656.294312
   vertex 86.624908 -43.048313 656.161499
  endloop
 facet normal 0.006253 -0.933605 -0.358248
  outer loop
   vertex 86.624908 -43.048313 656.161499
   vertex 106.238914 -43.048313 656.503845
   vertex 106.236595 -43.099316 656.636719
  endloop
 facet normal 0.017451 -0.001699 -0.999846
  outer loop
   vertex 86.624908 -43.012402 656.161438
   vertex 106.238914 -43.048313 656.503845
   vertex 86.624908 -43.048313 656.161499
  endloop
 facet normal 0.017455 0.000000 -0.999848
  outer loop
   vertex 106.238914 -43.012402 656.503845
   vertex 106.238914 -43.048313 656.503845
   vertex 86.624908 -43.012402 656.161438
  endloop
 facet normal 0.006255 -0.933579 -0.358316
  outer loop
   vertex 86.624908 -43.012402 656.161438
   vertex 86.634903 -42.792530 655.588745
   vertex 106.238914 -43.012402 656.503845
  endloop
 facet normal 0.006255 -0.933582 -0.358310
  outer loop
   vertex 106.238914 -43.012402 656.503845
   vertex 86.634903 -42.792530 655.588745
   vertex 106.248917 -42.792534 655.931152
  endloop
 facet normal -0.012979 -0.668633 0.743479
  outer loop
   vertex 106.248917 -42.792534 655.931152
   vertex 86.634903 -42.792530 655.588745
   vertex 86.635323 -42.819210 655.564758
  endloop
 facet normal -0.012961 -0.669625 0.742586
  outer loop
   vertex 86.635323 -42.819210 655.564758
   vertex 106.249336 -42.819210 655.907104
   vertex 106.248917 -42.792534 655.931152
  endloop
 facet normal 0.006254 -0.933584 -0.358305
  outer loop
   vertex 86.636475 -42.793903 655.498840
   vertex 106.249336 -42.819210 655.907104
   vertex 86.635323 -42.819210 655.564758
  endloop
 facet normal 0.006254 -0.933584 -0.358305
  outer loop
   vertex 106.250488 -42.793903 655.841187
   vertex 106.249336 -42.819210 655.907104
   vertex 86.636475 -42.793903 655.498840
  endloop
 facet normal 0.016293 0.358342 -0.933448
  outer loop
   vertex 86.636475 -42.793903 655.498840
   vertex 86.626656 -41.328197 656.061340
   vertex 106.250488 -42.793903 655.841187
  endloop
 facet normal 0.016295 0.358376 -0.933435
  outer loop
   vertex 106.250488 -42.793903 655.841187
   vertex 86.626656 -41.328197 656.061340
   vertex 106.240669 -41.328197 656.403748
  endloop
 facet normal -0.006256 0.933566 0.358352
  outer loop
   vertex 106.240669 -41.328197 656.403748
   vertex 86.626656 -41.328197 656.061340
   vertex 106.239517 -41.353508 656.469666
  endloop
 facet normal -0.006268 0.933585 0.358302
  outer loop
   vertex 108.233284 -41.387356 655.099609
   vertex 107.828583 -41.118580 654.392212
   vertex 107.812286 -41.476948 655.325684
  endloop
 facet normal -0.999848 -0.000001 -0.017456
  outer loop
   vertex 107.812286 -41.476948 655.325684
   vertex 107.828583 -41.118580 654.392212
   vertex 107.815414 -41.943741 655.146545
  endloop
 facet normal -0.016281 -0.358334 0.933452
  outer loop
   vertex 107.815414 -41.943741 655.146545
   vertex 108.162231 -41.476948 655.331787
   vertex 107.812286 -41.476948 655.325684
  endloop
 facet normal -0.016281 -0.358334 0.933452
  outer loop
   vertex 108.165359 -41.943741 655.152649
   vertex 108.162231 -41.476948 655.331787
   vertex 107.815414 -41.943741 655.146545
  endloop
 facet normal 0.016281 0.358334 -0.933452
  outer loop
   vertex 107.815414 -41.943741 655.146545
   vertex 108.162231 -41.476948 655.331787
   vertex 108.165359 -41.943741 655.152649
  endloop
 facet normal 0.006250 -0.933565 -0.358354
  outer loop
   vertex 108.165359 -41.943741 655.152649
   vertex 108.228264 -42.033333 655.387146
   vertex 107.815414 -41.943741 655.146545
  endloop
 facet normal 0.006226 -0.933579 -0.358319
  outer loop
   vertex 107.815414 -41.943741 655.146545
   vertex 108.228264 -42.033333 655.387146
   vertex 107.922348 -42.096046 655.545227
  endloop
 facet normal 0.006228 -0.933580 -0.358315
  outer loop
   vertex 107.922348 -42.096046 655.545227
   vertex 108.228264 -42.033333 655.387146
   vertex 108.408264 -42.098919 655.561157
  endloop
 facet normal 0.006227 -0.933588 -0.358295
  outer loop
   vertex 108.408264 -42.098919 655.561157
   vertex 108.228355 -42.207542 655.841064
   vertex 107.922348 -42.096046 655.545227
  endloop
 facet normal 0.006250 -0.933593 -0.358282
  outer loop
   vertex 108.657135 -42.122925 655.628052
   vertex 108.228355 -42.207542 655.841064
   vertex 108.408264 -42.098919 655.561157
  endloop
 facet normal 0.006244 -0.933588 -0.358293
  outer loop
   vertex 108.651436 -42.248352 655.954773
   vertex 108.228355 -42.207542 655.841064
   vertex 108.657135 -42.122925 655.628052
  endloop
 facet normal 0.006258 -0.933588 -0.358293
  outer loop
   vertex 108.657135 -42.122925 655.628052
   vertex 108.908188 -42.098919 655.569885
   vertex 108.651436 -42.248352 655.954773
  endloop
 facet normal 0.006263 -0.933590 -0.358290
  outer loop
   vertex 108.651436 -42.248352 655.954773
   vertex 108.908188 -42.098919 655.569885
   vertex 109.078224 -42.207542 655.855896
  endloop
 facet normal 0.006317 -0.933578 -0.358318
  outer loop
   vertex 109.078224 -42.207542 655.855896
   vertex 108.908188 -42.098919 655.569885
   vertex 109.094154 -42.033333 655.402283
  endloop
 facet normal 0.006259 -0.933578 -0.358320
  outer loop
   vertex 109.094154 -42.033333 655.402283
   vertex 109.394371 -42.096046 655.570923
   vertex 109.078224 -42.207542 655.855896
  endloop
 facet normal 0.006264 -0.933575 -0.358328
  outer loop
   vertex 109.165207 -41.943741 655.170105
   vertex 109.394371 -42.096046 655.570923
   vertex 109.094154 -42.033333 655.402283
  endloop
 facet normal 0.006250 -0.933578 -0.358321
  outer loop
   vertex 109.515152 -41.943741 655.176208
   vertex 109.394371 -42.096046 655.570923
   vertex 109.165207 -41.943741 655.170105
  endloop
 facet normal 0.006249 -0.933596 -0.358273
  outer loop
   vertex 109.165207 -41.943741 655.170105
   vertex 109.102303 -41.854149 654.935547
   vertex 109.515152 -41.943741 655.176208
  endloop
 facet normal 0.006270 -0.933583 -0.358305
  outer loop
   vertex 109.515152 -41.943741 655.176208
   vertex 109.102303 -41.854149 654.935547
   vertex 109.531448 -41.585369 654.242737
  endloop
 facet normal 0.006237 -0.933577 -0.358323
  outer loop
   vertex 109.531448 -41.585369 654.242737
   vertex 109.102303 -41.854149 654.935547
   vertex 108.922302 -41.788563 654.761536
  endloop
 facet normal 0.006245 -0.933580 -0.358315
  outer loop
   vertex 108.922302 -41.788563 654.761536
   vertex 108.673431 -41.764553 654.694641
   vertex 109.531448 -41.585369 654.242737
  endloop
 facet normal 0.006282 -0.933577 -0.358322
  outer loop
   vertex 84.683899 -41.854145 654.509277
   vertex 85.113037 -41.585369 653.816528
   vertex 85.096748 -41.943737 654.749939
  endloop
 facet normal 0.999848 0.000004 0.017450
  outer loop
   vertex 85.096748 -41.943737 654.749939
   vertex 85.113037 -41.585369 653.816528
   vertex 85.093620 -41.476948 654.929077
  endloop
 facet normal -0.016280 -0.358336 0.933451
  outer loop
   vertex 85.093620 -41.476948 654.929077
   vertex 84.746796 -41.943737 654.743835
   vertex 85.096748 -41.943737 654.749939
  endloop
 facet normal -0.016281 -0.358336 0.933451
  outer loop
   vertex 84.743675 -41.476948 654.922974
   vertex 84.746796 -41.943737 654.743835
   vertex 85.093620 -41.476948 654.929077
  endloop
 facet normal 0.016281 0.358336 -0.933451
  outer loop
   vertex 85.093620 -41.476948 654.929077
   vertex 84.746796 -41.943737 654.743835
   vertex 84.743675 -41.476948 654.922974
  endloop
 facet normal -0.006250 0.933573 0.358332
  outer loop
   vertex 84.743675 -41.476948 654.922974
   vertex 84.672623 -41.566540 655.155151
   vertex 85.093620 -41.476948 654.929077
  endloop
 facet normal -0.006258 0.933579 0.358318
  outer loop
   vertex 85.093620 -41.476948 654.929077
   vertex 84.672623 -41.566540 655.155151
   vertex 84.972832 -41.629253 655.323792
  endloop
 facet normal -0.006236 0.933592 0.358283
  outer loop
   vertex 84.972832 -41.629253 655.323792
   vertex 84.672623 -41.566540 655.155151
   vertex 84.486656 -41.632126 655.322815
  endloop
 facet normal -0.006236 0.933595 0.358275
  outer loop
   vertex 84.486656 -41.632126 655.322815
   vertex 84.656685 -41.740749 655.608826
   vertex 84.972832 -41.629253 655.323792
  endloop
 facet normal -0.006259 0.933590 0.358287
  outer loop
   vertex 84.235603 -41.656132 655.380981
   vertex 84.656685 -41.740749 655.608826
   vertex 84.486656 -41.632126 655.322815
  endloop
 facet normal -0.006268 0.933585 0.358302
  outer loop
   vertex 84.229897 -41.781563 655.707703
   vertex 84.656685 -41.740749 655.608826
   vertex 84.235603 -41.656132 655.380981
  endloop
 facet normal -0.006256 0.933585 0.358302
  outer loop
   vertex 84.235603 -41.656132 655.380981
   vertex 83.986732 -41.632126 655.314087
   vertex 84.229897 -41.781563 655.707703
  endloop
 facet normal -0.006234 0.933589 0.358290
  outer loop
   vertex 84.229897 -41.781563 655.707703
   vertex 83.986732 -41.632126 655.314087
   vertex 83.806816 -41.740749 655.593994
  endloop
 facet normal -0.006213 0.933585 0.358302
  outer loop
   vertex 83.806816 -41.740749 655.593994
   vertex 83.986732 -41.632126 655.314087
   vertex 83.806725 -41.566540 655.140076
  endloop
 facet normal -0.006308 0.933584 0.358302
  outer loop
   vertex 83.806725 -41.566540 655.140076
   vertex 83.500816 -41.629253 655.298096
   vertex 83.806816 -41.740749 655.593994
  endloop
 facet normal -0.006316 0.933590 0.358288
  outer loop
   vertex 83.743828 -41.476948 654.905518
   vertex 83.500816 -41.629253 655.298096
   vertex 83.806725 -41.566540 655.140076
  endloop
 facet normal -0.006250 0.933576 0.358324
  outer loop
   vertex 83.393875 -41.476948 654.899414
   vertex 83.500816 -41.629253 655.298096
   vertex 83.743828 -41.476948 654.905518
  endloop
 facet normal -0.006250 0.933573 0.358332
  outer loop
   vertex 83.743828 -41.476948 654.905518
   vertex 83.814873 -41.387356 654.673340
   vertex 83.393875 -41.476948 654.899414
  endloop
 facet normal -0.006255 0.933577 0.358323
  outer loop
   vertex 83.393875 -41.476948 654.899414
   vertex 83.814873 -41.387356 654.673340
   vertex 83.410172 -41.118580 653.966003
  endloop
 facet normal -0.006293 0.933569 0.358341
  outer loop
   vertex 83.410172 -41.118580 653.966003
   vertex 83.814873 -41.387356 654.673340
   vertex 84.000839 -41.321770 654.505737
  endloop
 facet normal -0.006254 0.933584 0.358304
  outer loop
   vertex 84.000839 -41.321770 654.505737
   vertex 84.251892 -41.297764 654.447571
   vertex 83.410172 -41.118580 653.966003
  endloop
 facet normal 0.012975 -0.667955 -0.744088
  outer loop
   vertex 86.225899 -42.832550 655.462524
   vertex 86.232330 -42.421890 655.093994
   vertex 87.384438 -42.832550 655.482727
  endloop
 facet normal 0.012975 -0.667955 -0.744088
  outer loop
   vertex 87.384438 -42.832550 655.482727
   vertex 86.232330 -42.421890 655.093994
   vertex 87.390869 -42.421890 655.114197
  endloop
 facet normal 0.999848 -0.000001 0.017448
  outer loop
   vertex 87.390869 -42.421890 655.114197
   vertex 87.383614 -41.338539 655.530029
   vertex 87.384438 -42.832550 655.482727
  endloop
 facet normal 0.016277 0.358395 -0.933428
  outer loop
   vertex 86.232330 -42.421890 655.093994
   vertex 87.383614 -41.338539 655.530029
   vertex 87.390869 -42.421890 655.114197
  endloop
 facet normal 0.016277 0.358395 -0.933428
  outer loop
   vertex 86.225075 -41.338539 655.509827
   vertex 87.383614 -41.338539 655.530029
   vertex 86.232330 -42.421890 655.093994
  endloop
 facet normal -0.999848 0.000002 -0.017451
  outer loop
   vertex 86.232330 -42.421890 655.093994
   vertex 86.215500 -41.279984 656.058411
   vertex 86.225075 -41.338539 655.509827
  endloop
 facet normal 0.001850 0.994353 -0.106105
  outer loop
   vertex 86.225075 -41.338539 655.509827
   vertex 86.215500 -41.279984 656.058411
   vertex 87.383614 -41.338539 655.530029
  endloop
 facet normal 0.001850 0.994353 -0.106105
  outer loop
   vertex 87.383614 -41.338539 655.530029
   vertex 86.215500 -41.279984 656.058411
   vertex 87.374039 -41.279984 656.078613
  endloop
 facet normal 0.999848 -0.000001 0.017451
  outer loop
   vertex 87.374039 -41.279984 656.078613
   vertex 87.384438 -42.832550 655.482727
   vertex 87.383614 -41.338539 655.530029
  endloop
 facet normal 0.999848 -0.000004 0.017458
  outer loop
   vertex 87.362061 -41.797970 656.764526
   vertex 87.384438 -42.832550 655.482727
   vertex 87.374039 -41.279984 656.078613
  endloop
 facet normal 0.999848 0.000003 0.017453
  outer loop
   vertex 87.369492 -42.906624 656.338989
   vertex 87.384438 -42.832550 655.482727
   vertex 87.362061 -41.797970 656.764526
  endloop
 facet normal -0.016277 -0.358390 0.933430
  outer loop
   vertex 87.362061 -41.797970 656.764526
   vertex 86.210953 -42.906624 656.318787
   vertex 87.369492 -42.906624 656.338989
  endloop
 facet normal -0.008579 0.870577 0.491958
  outer loop
   vertex 87.369492 -42.906624 656.338989
   vertex 86.210953 -42.906624 656.318787
   vertex 87.367973 -42.955719 656.425842
  endloop
 facet normal -0.008579 0.870577 0.491958
  outer loop
   vertex 87.367973 -42.955719 656.425842
   vertex 86.210953 -42.906624 656.318787
   vertex 86.209435 -42.955719 656.405640
  endloop
 facet normal -0.016278 -0.358293 0.933467
  outer loop
   vertex 86.209435 -42.955719 656.405640
   vertex 87.368965 -43.104126 656.368896
   vertex 87.367973 -42.955719 656.425842
  endloop
 facet normal -0.016278 -0.358293 0.933467
  outer loop
   vertex 86.210426 -43.104126 656.348694
   vertex 87.368965 -43.104126 656.368896
   vertex 86.209435 -42.955719 656.405640
  endloop
 facet normal -0.004988 -0.958202 0.286051
  outer loop
   vertex 86.212181 -43.134163 656.248108
   vertex 87.368965 -43.104126 656.368896
   vertex 86.210426 -43.104126 656.348694
  endloop
 facet normal -0.999848 0.000023 -0.017450
  outer loop
   vertex 86.210426 -43.104126 656.348694
   vertex 86.210953 -42.906624 656.318787
   vertex 86.212181 -43.134163 656.248108
  endloop
 facet normal -0.999848 0.000023 -0.017450
  outer loop
   vertex 86.212181 -43.134163 656.248108
   vertex 86.210953 -42.906624 656.318787
   vertex 86.225899 -42.832550 655.462524
  endloop
 facet normal -0.999848 -0.000004 -0.017453
  outer loop
   vertex 86.225899 -42.832550 655.462524
   vertex 86.210953 -42.906624 656.318787
   vertex 86.203522 -41.797970 656.744263
  endloop
 facet normal -0.999848 0.000004 -0.017459
  outer loop
   vertex 86.203522 -41.797970 656.744263
   vertex 86.215500 -41.279984 656.058411
   vertex 86.225899 -42.832550 655.462524
  endloop
 facet normal -0.999848 0.000008 -0.017456
  outer loop
   vertex 86.201782 -41.581596 656.843994
   vertex 86.215500 -41.279984 656.058411
   vertex 86.203522 -41.797970 656.744263
  endloop
 facet normal -0.006248 0.933577 0.358323
  outer loop
   vertex 87.374039 -41.279984 656.078613
   vertex 86.215500 -41.279984 656.058411
   vertex 86.201782 -41.581596 656.843994
  endloop
 facet normal -0.006267 0.933586 0.358299
  outer loop
   vertex 86.201782 -41.581596 656.843994
   vertex 87.360321 -41.581596 656.864258
   vertex 87.374039 -41.279984 656.078613
  endloop
 facet normal 0.999848 -0.000007 0.017455
  outer loop
   vertex 87.374039 -41.279984 656.078613
   vertex 87.360321 -41.581596 656.864258
   vertex 87.362061 -41.797970 656.764526
  endloop
 facet normal 0.999848 -0.000004 0.017448
  outer loop
   vertex 87.362061 -41.797970 656.764526
   vertex 87.360321 -41.581596 656.864258
   vertex 87.359367 -41.671204 656.918884
  endloop
 facet normal 0.999847 -0.000028 0.017468
  outer loop
   vertex 87.359367 -41.671204 656.918884
   vertex 87.360359 -41.819611 656.861877
   vertex 87.362061 -41.797970 656.764526
  endloop
 facet normal -0.016276 -0.358628 0.933339
  outer loop
   vertex 86.201820 -41.819611 656.841675
   vertex 87.360359 -41.819611 656.861877
   vertex 87.359367 -41.671204 656.918884
  endloop
 facet normal 0.003783 -0.976179 -0.216935
  outer loop
   vertex 87.362061 -41.797970 656.764526
   vertex 87.360359 -41.819611 656.861877
   vertex 86.201820 -41.819611 656.841675
  endloop
 facet normal 0.003792 -0.976208 -0.216805
  outer loop
   vertex 86.201820 -41.819611 656.841675
   vertex 86.203522 -41.797970 656.744263
   vertex 87.362061 -41.797970 656.764526
  endloop
 facet normal -0.016327 -0.358345 0.933447
  outer loop
   vertex 87.362061 -41.797970 656.764526
   vertex 86.203522 -41.797970 656.744263
   vertex 86.210953 -42.906624 656.318787
  endloop
 facet normal 0.001856 0.994355 -0.106086
  outer loop
   vertex 106.651680 -41.279987 656.415161
   vertex 106.661255 -41.338539 655.866516
   vertex 105.493141 -41.279987 656.394897
  endloop
 facet normal 0.001850 0.994354 -0.106098
  outer loop
   vertex 105.493141 -41.279987 656.394897
   vertex 106.661255 -41.338539 655.866516
   vertex 105.502716 -41.338539 655.846313
  endloop
 facet normal -0.999848 0.000001 -0.017451
  outer loop
   vertex 105.502716 -41.338539 655.846313
   vertex 105.509972 -42.421890 655.430542
   vertex 105.493141 -41.279987 656.394897
  endloop
 facet normal 0.016277 0.358349 -0.933446
  outer loop
   vertex 106.661255 -41.338539 655.866516
   vertex 105.509972 -42.421890 655.430542
   vertex 105.502716 -41.338539 655.846313
  endloop
 facet normal 0.016277 0.358349 -0.933446
  outer loop
   vertex 106.668510 -42.421890 655.450745
   vertex 105.509972 -42.421890 655.430542
   vertex 106.661255 -41.338539 655.866516
  endloop
 facet normal 0.999848 -0.000000 0.017449
  outer loop
   vertex 106.661255 -41.338539 655.866516
   vertex 106.662079 -42.832550 655.819275
   vertex 106.668510 -42.421890 655.450745
  endloop
 facet normal 0.012975 -0.667955 -0.744088
  outer loop
   vertex 106.668510 -42.421890 655.450745
   vertex 106.662079 -42.832550 655.819275
   vertex 105.509972 -42.421890 655.430542
  endloop
 facet normal 0.013016 -0.667894 -0.744142
  outer loop
   vertex 105.509972 -42.421890 655.430542
   vertex 106.662079 -42.832550 655.819275
   vertex 105.503540 -42.832550 655.799011
  endloop
 facet normal -0.999848 0.000001 -0.017451
  outer loop
   vertex 105.503540 -42.832550 655.799011
   vertex 105.493141 -41.279987 656.394897
   vertex 105.509972 -42.421890 655.430542
  endloop
 facet normal -0.999848 0.000001 -0.017452
  outer loop
   vertex 105.488594 -42.906624 656.655273
   vertex 105.493141 -41.279987 656.394897
   vertex 105.503540 -42.832550 655.799011
  endloop
 facet normal -0.999848 0.000000 -0.017460
  outer loop
   vertex 105.481163 -41.797974 657.080811
   vertex 105.493141 -41.279987 656.394897
   vertex 105.488594 -42.906624 656.655273
  endloop
 facet normal -0.016277 -0.358391 0.933430
  outer loop
   vertex 105.488594 -42.906624 656.655273
   vertex 106.639702 -41.797974 657.101013
   vertex 105.481163 -41.797974 657.080811
  endloop
 facet normal 0.003782 -0.976187 -0.216898
  outer loop
   vertex 105.481163 -41.797974 657.080811
   vertex 106.639702 -41.797974 657.101013
   vertex 105.479462 -41.819611 657.178162
  endloop
 facet normal 0.003791 -0.976216 -0.216769
  outer loop
   vertex 105.479462 -41.819611 657.178162
   vertex 106.639702 -41.797974 657.101013
   vertex 106.638000 -41.819611 657.198425
  endloop
 facet normal -0.016325 -0.358628 0.933338
  outer loop
   vertex 106.638000 -41.819611 657.198425
   vertex 105.478470 -41.671204 657.235168
   vertex 105.479462 -41.819611 657.178162
  endloop
 facet normal -0.016278 -0.358293 0.933467
  outer loop
   vertex 106.637009 -41.671204 657.255371
   vertex 105.478470 -41.671204 657.235168
   vertex 106.638000 -41.819611 657.198425
  endloop
 facet normal -0.014886 0.520597 0.853673
  outer loop
   vertex 106.637962 -41.581600 657.200745
   vertex 105.478470 -41.671204 657.235168
   vertex 106.637009 -41.671204 657.255371
  endloop
 facet normal 0.999848 -0.000004 0.017448
  outer loop
   vertex 106.637009 -41.671204 657.255371
   vertex 106.639702 -41.797974 657.101013
   vertex 106.637962 -41.581600 657.200745
  endloop
 facet normal 0.999848 -0.000008 0.017456
  outer loop
   vertex 106.637962 -41.581600 657.200745
   vertex 106.639702 -41.797974 657.101013
   vertex 106.651680 -41.279987 656.415161
  endloop
 facet normal 0.999848 0.000000 0.017462
  outer loop
   vertex 106.651680 -41.279987 656.415161
   vertex 106.639702 -41.797974 657.101013
   vertex 106.647133 -42.906624 656.675537
  endloop
 facet normal 0.999848 -0.000001 0.017452
  outer loop
   vertex 106.647133 -42.906624 656.675537
   vertex 106.662079 -42.832550 655.819275
   vertex 106.651680 -41.279987 656.415161
  endloop
 facet normal 0.999848 -0.000023 0.017450
  outer loop
   vertex 106.648361 -43.134163 656.604858
   vertex 106.662079 -42.832550 655.819275
   vertex 106.647133 -42.906624 656.675537
  endloop
 facet normal 0.006267 -0.933577 -0.358323
  outer loop
   vertex 105.503540 -42.832550 655.799011
   vertex 106.662079 -42.832550 655.819275
   vertex 106.648361 -43.134163 656.604858
  endloop
 facet normal 0.006248 -0.933586 -0.358299
  outer loop
   vertex 106.648361 -43.134163 656.604858
   vertex 105.489822 -43.134163 656.584656
   vertex 105.503540 -42.832550 655.799011
  endloop
 facet normal -0.999848 0.000018 -0.017451
  outer loop
   vertex 105.503540 -42.832550 655.799011
   vertex 105.489822 -43.134163 656.584656
   vertex 105.488594 -42.906624 656.655273
  endloop
 facet normal -0.999848 0.000021 -0.017460
  outer loop
   vertex 105.488594 -42.906624 656.655273
   vertex 105.489822 -43.134163 656.584656
   vertex 105.488068 -43.104126 656.685181
  endloop
 facet normal -0.999847 0.000020 -0.017467
  outer loop
   vertex 105.488068 -43.104126 656.685181
   vertex 105.487076 -42.955723 656.742126
   vertex 105.488594 -42.906624 656.655273
  endloop
 facet normal -0.016327 -0.358301 0.933463
  outer loop
   vertex 106.645615 -42.955723 656.762390
   vertex 105.487076 -42.955723 656.742126
   vertex 105.488068 -43.104126 656.685181
  endloop
 facet normal -0.008605 0.870560 0.491987
  outer loop
   vertex 105.488594 -42.906624 656.655273
   vertex 105.487076 -42.955723 656.742126
   vertex 106.645615 -42.955723 656.762390
  endloop
 facet normal -0.008605 0.870560 0.491987
  outer loop
   vertex 106.645615 -42.955723 656.762390
   vertex 106.647133 -42.906624 656.675537
   vertex 105.488594 -42.906624 656.655273
  endloop
 facet normal -0.016327 -0.358346 0.933446
  outer loop
   vertex 105.488594 -42.906624 656.655273
   vertex 106.647133 -42.906624 656.675537
   vertex 106.639702 -41.797974 657.101013
  endloop
 facet normal 0.006250 -0.933573 -0.358332
  outer loop
   vertex 84.746796 -41.943737 654.743835
   vertex 85.096748 -41.943737 654.749939
   vertex 84.675751 -42.033329 654.976013
  endloop
 facet normal 0.006252 -0.933575 -0.358328
  outer loop
   vertex 84.675751 -42.033329 654.976013
   vertex 85.096748 -41.943737 654.749939
   vertex 84.975960 -42.096046 655.144653
  endloop
 facet normal 0.006228 -0.933589 -0.358290
  outer loop
   vertex 84.975960 -42.096046 655.144653
   vertex 84.489784 -42.098915 655.143677
   vertex 84.675751 -42.033329 654.976013
  endloop
 facet normal 0.006228 -0.933567 -0.358349
  outer loop
   vertex 84.659813 -42.207542 655.429626
   vertex 84.489784 -42.098915 655.143677
   vertex 84.975960 -42.096046 655.144653
  endloop
 facet normal 0.006241 -0.933564 -0.358356
  outer loop
   vertex 84.238731 -42.122921 655.201843
   vertex 84.489784 -42.098915 655.143677
   vertex 84.659813 -42.207542 655.429626
  endloop
 facet normal 0.006244 -0.933562 -0.358360
  outer loop
   vertex 84.659813 -42.207542 655.429626
   vertex 84.233025 -42.248352 655.528503
   vertex 84.238731 -42.122921 655.201843
  endloop
 facet normal 0.006274 -0.933562 -0.358360
  outer loop
   vertex 84.238731 -42.122921 655.201843
   vertex 84.233025 -42.248352 655.528503
   vertex 83.989861 -42.098915 655.134949
  endloop
 facet normal 0.006262 -0.933565 -0.358354
  outer loop
   vertex 83.989861 -42.098915 655.134949
   vertex 84.233025 -42.248352 655.528503
   vertex 83.809944 -42.207542 655.414795
  endloop
 facet normal 0.006342 -0.933582 -0.358309
  outer loop
   vertex 83.809944 -42.207542 655.414795
   vertex 83.809853 -42.033329 654.960876
   vertex 83.989861 -42.098915 655.134949
  endloop
 facet normal 0.006244 -0.933582 -0.358309
  outer loop
   vertex 83.503937 -42.096046 655.118958
   vertex 83.809853 -42.033329 654.960876
   vertex 83.809944 -42.207542 655.414795
  endloop
 facet normal 0.006221 -0.933568 -0.358348
  outer loop
   vertex 83.746948 -41.943737 654.726379
   vertex 83.809853 -42.033329 654.960876
   vertex 83.503937 -42.096046 655.118958
  endloop
 facet normal 0.006250 -0.933573 -0.358332
  outer loop
   vertex 83.503937 -42.096046 655.118958
   vertex 83.397003 -41.943737 654.720276
   vertex 83.746948 -41.943737 654.726379
  endloop
 facet normal 0.006250 -0.933573 -0.358332
  outer loop
   vertex 83.746948 -41.943737 654.726379
   vertex 83.397003 -41.943737 654.720276
   vertex 83.818001 -41.854145 654.494202
  endloop
 facet normal 0.006268 -0.933585 -0.358302
  outer loop
   vertex 83.818001 -41.854145 654.494202
   vertex 83.397003 -41.943737 654.720276
   vertex 83.413300 -41.585369 653.786804
  endloop
 facet normal 0.006234 -0.933592 -0.358285
  outer loop
   vertex 83.413300 -41.585369 653.786804
   vertex 84.003967 -41.788559 654.326538
   vertex 83.818001 -41.854145 654.494202
  endloop
 facet normal 0.006254 -0.933584 -0.358304
  outer loop
   vertex 84.255020 -41.764553 654.268372
   vertex 84.003967 -41.788559 654.326538
   vertex 83.413300 -41.585369 653.786804
  endloop
 facet normal -0.006250 0.933565 0.358354
  outer loop
   vertex 108.162231 -41.476948 655.331787
   vertex 107.812286 -41.476948 655.325684
   vertex 108.225136 -41.566540 655.566284
  endloop
 facet normal -0.006232 0.933575 0.358328
  outer loop
   vertex 108.225136 -41.566540 655.566284
   vertex 107.812286 -41.476948 655.325684
   vertex 107.919220 -41.629257 655.724365
  endloop
 facet normal -0.006278 0.933604 0.358251
  outer loop
   vertex 107.919220 -41.629257 655.724365
   vertex 108.405136 -41.632126 655.740356
   vertex 108.225136 -41.566540 655.566284
  endloop
 facet normal -0.006281 0.933569 0.358343
  outer loop
   vertex 108.225227 -41.740753 656.020203
   vertex 108.405136 -41.632126 655.740356
   vertex 107.919220 -41.629257 655.724365
  endloop
 facet normal -0.006270 0.933566 0.358349
  outer loop
   vertex 108.654007 -41.656132 655.807251
   vertex 108.405136 -41.632126 655.740356
   vertex 108.225227 -41.740753 656.020203
  endloop
 facet normal -0.006264 0.933562 0.358360
  outer loop
   vertex 108.225227 -41.740753 656.020203
   vertex 108.648308 -41.781563 656.133911
   vertex 108.654007 -41.656132 655.807251
  endloop
 facet normal -0.006239 0.933562 0.358361
  outer loop
   vertex 108.654007 -41.656132 655.807251
   vertex 108.648308 -41.781563 656.133911
   vertex 108.905060 -41.632126 655.749084
  endloop
 facet normal -0.006244 0.933563 0.358358
  outer loop
   vertex 108.905060 -41.632126 655.749084
   vertex 108.648308 -41.781563 656.133911
   vertex 109.075096 -41.740753 656.035034
  endloop
 facet normal -0.006188 0.933575 0.358329
  outer loop
   vertex 109.075096 -41.740753 656.035034
   vertex 109.091026 -41.566540 655.581421
   vertex 108.905060 -41.632126 655.749084
  endloop
 facet normal -0.006252 0.933575 0.358327
  outer loop
   vertex 109.391243 -41.629257 655.750061
   vertex 109.091026 -41.566540 655.581421
   vertex 109.075096 -41.740753 656.035034
  endloop
 facet normal -0.006254 0.933574 0.358331
  outer loop
   vertex 109.162079 -41.476948 655.349243
   vertex 109.091026 -41.566540 655.581421
   vertex 109.391243 -41.629257 655.750061
  endloop
 facet normal -0.006250 0.933575 0.358328
  outer loop
   vertex 109.391243 -41.629257 655.750061
   vertex 109.512024 -41.476948 655.355347
   vertex 109.162079 -41.476948 655.349243
  endloop
 facet normal -0.006249 0.933596 0.358273
  outer loop
   vertex 109.162079 -41.476948 655.349243
   vertex 109.512024 -41.476948 655.355347
   vertex 109.099174 -41.387356 655.114685
  endloop
 facet normal -0.006282 0.933577 0.358322
  outer loop
   vertex 109.099174 -41.387356 655.114685
   vertex 109.512024 -41.476948 655.355347
   vertex 109.528320 -41.118580 654.421936
  endloop
 facet normal -0.006253 0.933571 0.358338
  outer loop
   vertex 109.528320 -41.118580 654.421936
   vertex 108.919174 -41.321770 654.940674
   vertex 109.099174 -41.387356 655.114685
  endloop
 facet normal -0.006263 0.933575 0.358327
  outer loop
   vertex 108.670303 -41.297764 654.873779
   vertex 108.919174 -41.321770 654.940674
   vertex 109.528320 -41.118580 654.421936
  endloop
 facet normal -0.006253 0.933585 0.358302
  outer loop
   vertex 83.410172 -41.118580 653.966003
   vertex 84.251892 -41.297764 654.447571
   vertex 85.109917 -41.118580 653.995667
  endloop
 facet normal -0.006196 0.933549 0.358395
  outer loop
   vertex 85.109917 -41.118580 653.995667
   vertex 84.251892 -41.297764 654.447571
   vertex 84.500763 -41.321770 654.514404
  endloop
 facet normal -0.006310 0.933593 0.358279
  outer loop
   vertex 84.500763 -41.321770 654.514404
   vertex 84.680771 -41.387356 654.688477
   vertex 85.109917 -41.118580 653.995667
  endloop
 facet normal -0.006234 0.933592 0.358285
  outer loop
   vertex 108.233284 -41.387356 655.099609
   vertex 108.419250 -41.321770 654.931946
   vertex 107.828583 -41.118580 654.392212
  endloop
 facet normal -0.006254 0.933584 0.358304
  outer loop
   vertex 107.828583 -41.118580 654.392212
   vertex 108.419250 -41.321770 654.931946
   vertex 108.670303 -41.297764 654.873779
  endloop
 facet normal -0.006266 0.933577 0.358322
  outer loop
   vertex 108.670303 -41.297764 654.873779
   vertex 109.528320 -41.118580 654.421936
   vertex 107.828583 -41.118580 654.392212
  endloop
 facet normal 0.006253 -0.933585 -0.358302
  outer loop
   vertex 109.531448 -41.585369 654.242737
   vertex 108.673431 -41.764553 654.694641
   vertex 107.831703 -41.585369 654.213074
  endloop
 facet normal 0.006254 -0.933584 -0.358305
  outer loop
   vertex 107.831703 -41.585369 654.213074
   vertex 108.673431 -41.764553 654.694641
   vertex 108.422379 -41.788559 654.752808
  endloop
 facet normal 0.006293 -0.933569 -0.358341
  outer loop
   vertex 108.422379 -41.788559 654.752808
   vertex 108.236412 -41.854145 654.920410
   vertex 107.831703 -41.585369 654.213074
  endloop
 facet normal 0.006253 -0.933571 -0.358338
  outer loop
   vertex 84.683899 -41.854145 654.509277
   vertex 84.503891 -41.788559 654.335266
   vertex 85.113037 -41.585369 653.816528
  endloop
 facet normal 0.006263 -0.933575 -0.358327
  outer loop
   vertex 85.113037 -41.585369 653.816528
   vertex 84.503891 -41.788559 654.335266
   vertex 84.255020 -41.764553 654.268372
  endloop
 facet normal 0.006266 -0.933577 -0.358322
  outer loop
   vertex 84.255020 -41.764553 654.268372
   vertex 83.413300 -41.585369 653.786804
   vertex 85.113037 -41.585369 653.816528
  endloop
 facet normal -0.004991 -0.958154 0.286210
  outer loop
   vertex 106.648361 -43.134163 656.604858
   vertex 106.646606 -43.104126 656.705383
   vertex 105.489822 -43.134163 656.584656
  endloop
 facet normal -0.004991 -0.958154 0.286210
  outer loop
   vertex 105.489822 -43.134163 656.584656
   vertex 106.646606 -43.104126 656.705383
   vertex 105.488068 -43.104126 656.685181
  endloop
 facet normal -0.006254 0.933579 0.358316
  outer loop
   vertex 86.625504 -41.389416 656.127319
   vertex 86.615509 -41.609287 656.700012
   vertex 106.239517 -41.389416 656.469666
  endloop
 facet normal -0.006254 0.933579 0.358316
  outer loop
   vertex 106.239517 -41.389416 656.469666
   vertex 86.615509 -41.609287 656.700012
   vertex 106.229515 -41.609287 657.042358
  endloop
 facet normal -0.014932 0.520581 0.853682
  outer loop
   vertex 87.359367 -41.671204 656.918884
   vertex 87.360321 -41.581596 656.864258
   vertex 86.200829 -41.671204 656.898621
  endloop
 facet normal -0.014932 0.520581 0.853682
  outer loop
   vertex 86.200829 -41.671204 656.898621
   vertex 87.360321 -41.581596 656.864258
   vertex 86.201782 -41.581596 656.843994
  endloop
 facet normal -0.016281 -0.358225 0.933493
  outer loop
   vertex 109.165207 -41.943741 655.170105
   vertex 109.515152 -41.943741 655.176208
   vertex 109.338615 -41.710342 655.262695
  endloop
 facet normal 0.999848 -0.000000 0.017449
  outer loop
   vertex 106.651680 -41.279987 656.415161
   vertex 106.662079 -42.832550 655.819275
   vertex 106.661255 -41.338539 655.866516
  endloop
 facet normal -0.006250 0.933573 0.358332
  outer loop
   vertex 107.812286 -41.476948 655.325684
   vertex 108.162231 -41.476948 655.331787
   vertex 108.233284 -41.387356 655.099609
  endloop
 facet normal -0.006250 0.933565 0.358354
  outer loop
   vertex 84.743675 -41.476948 654.922974
   vertex 85.093620 -41.476948 654.929077
   vertex 84.680771 -41.387356 654.688477
  endloop
 facet normal 0.016281 0.358334 -0.933452
  outer loop
   vertex 109.515152 -41.943741 655.176208
   vertex 109.162079 -41.476948 655.349243
   vertex 109.512024 -41.476948 655.355347
  endloop
 facet normal 0.006251 -0.933580 -0.358314
  outer loop
   vertex 86.476128 -42.451180 655.238037
   vertex 84.828217 -42.451180 655.209290
   vertex 84.853325 -41.898914 653.770813
  endloop
 facet normal -0.006251 0.933581 0.358312
  outer loop
   vertex 106.437973 -40.858036 654.547241
   vertex 106.412865 -41.410297 655.985718
   vertex 108.085884 -40.858036 654.575989
  endloop
 facet normal 0.016281 0.358336 -0.933451
  outer loop
   vertex 83.393875 -41.476948 654.899414
   vertex 83.746948 -41.943737 654.726379
   vertex 83.397003 -41.943737 654.720276
  endloop
 facet normal -0.999847 0.000020 -0.017467
  outer loop
   vertex 86.210426 -43.104126 656.348694
   vertex 86.209435 -42.955719 656.405640
   vertex 86.210953 -42.906624 656.318787
  endloop
 facet normal 0.016281 0.358334 -0.933452
  outer loop
   vertex 108.162231 -41.476948 655.331787
   vertex 107.815414 -41.943741 655.146545
   vertex 107.812286 -41.476948 655.325684
  endloop
 facet normal -0.999848 0.000000 -0.017449
  outer loop
   vertex 86.225899 -42.832550 655.462524
   vertex 86.215500 -41.279984 656.058411
   vertex 86.232330 -42.421890 655.093994
  endloop
 facet normal 0.999848 -0.000017 0.017459
  outer loop
   vertex 106.637009 -41.671204 657.255371
   vertex 106.638000 -41.819611 657.198425
   vertex 106.639702 -41.797974 657.101013
  endloop
 facet normal 0.006251 -0.933580 -0.358314
  outer loop
   vertex 106.419838 -42.451180 655.586182
   vertex 106.444946 -41.898914 654.147705
   vertex 108.092857 -41.898914 654.176453
  endloop
 facet normal 0.999848 -0.000000 0.017452
  outer loop
   vertex 86.501236 -41.898914 653.799561
   vertex 86.494263 -40.858032 654.199097
   vertex 86.469154 -41.410297 655.637573
  endloop
 facet normal 0.016280 0.358336 -0.933451
  outer loop
   vertex 84.746796 -41.943737 654.743835
   vertex 85.093620 -41.476948 654.929077
   vertex 85.096748 -41.943737 654.749939
  endloop
 facet normal 0.006249 -0.933596 -0.358273
  outer loop
   vertex 85.096748 -41.943737 654.749939
   vertex 84.746796 -41.943737 654.743835
   vertex 84.683899 -41.854145 654.509277
  endloop
 facet normal -0.718593 -0.253357 0.647637
  outer loop
   vertex 84.503891 -41.788559 654.335266
   vertex 84.680771 -41.387356 654.688477
   vertex 84.500763 -41.321770 654.514404
  endloop
 facet normal -0.274527 -0.346126 0.897124
  outer loop
   vertex 84.503891 -41.788559 654.335266
   vertex 84.500763 -41.321770 654.514404
   vertex 84.255020 -41.764553 654.268372
  endloop
 facet normal -0.274323 -0.346248 0.897140
  outer loop
   vertex 84.255020 -41.764553 654.268372
   vertex 84.500763 -41.321770 654.514404
   vertex 84.251892 -41.297764 654.447571
  endloop
 facet normal 0.243046 -0.346229 0.906120
  outer loop
   vertex 84.251892 -41.297764 654.447571
   vertex 84.003967 -41.788559 654.326538
   vertex 84.255020 -41.764553 654.268372
  endloop
 facet normal 0.243046 -0.346229 0.906120
  outer loop
   vertex 84.000839 -41.321770 654.505737
   vertex 84.003967 -41.788559 654.326538
   vertex 84.251892 -41.297764 654.447571
  endloop
 facet normal 0.695528 -0.253439 0.672316
  outer loop
   vertex 83.818001 -41.854145 654.494202
   vertex 84.003967 -41.788559 654.326538
   vertex 84.000839 -41.321770 654.505737
  endloop
 facet normal 0.695414 -0.253403 0.672448
  outer loop
   vertex 84.000839 -41.321770 654.505737
   vertex 83.814873 -41.387356 654.673340
   vertex 83.818001 -41.854145 654.494202
  endloop
 facet normal 0.961556 -0.092749 0.258472
  outer loop
   vertex 83.818001 -41.854145 654.494202
   vertex 83.814873 -41.387356 654.673340
   vertex 83.746948 -41.943737 654.726379
  endloop
 facet normal -0.970001 -0.092738 0.224715
  outer loop
   vertex 109.165207 -41.943741 655.170105
   vertex 109.162079 -41.476948 655.349243
   vertex 109.102303 -41.854149 654.935547
  endloop
 facet normal -0.970001 -0.092738 0.224715
  outer loop
   vertex 109.102303 -41.854149 654.935547
   vertex 109.162079 -41.476948 655.349243
   vertex 109.099174 -41.387356 655.114685
  endloop
 facet normal -0.718501 -0.253389 0.647727
  outer loop
   vertex 109.099174 -41.387356 655.114685
   vertex 108.922302 -41.788563 654.761536
   vertex 109.102303 -41.854149 654.935547
  endloop
 facet normal -0.718501 -0.253389 0.647727
  outer loop
   vertex 108.919174 -41.321770 654.940674
   vertex 108.922302 -41.788563 654.761536
   vertex 109.099174 -41.387356 655.114685
  endloop
 facet normal -0.274532 -0.346123 0.897124
  outer loop
   vertex 108.673431 -41.764553 654.694641
   vertex 108.922302 -41.788563 654.761536
   vertex 108.919174 -41.321770 654.940674
  endloop
 facet normal -0.274527 -0.346126 0.897124
  outer loop
   vertex 108.919174 -41.321770 654.940674
   vertex 108.670303 -41.297764 654.873779
   vertex 108.673431 -41.764553 654.694641
  endloop
 facet normal 0.243045 -0.346125 0.906160
  outer loop
   vertex 108.673431 -41.764553 654.694641
   vertex 108.670303 -41.297764 654.873779
   vertex 108.422379 -41.788559 654.752808
  endloop
 facet normal 0.243045 -0.346125 0.906160
  outer loop
   vertex 108.422379 -41.788559 654.752808
   vertex 108.670303 -41.297764 654.873779
   vertex 108.419250 -41.321770 654.931946
  endloop
 facet normal 0.695414 -0.253403 0.672448
  outer loop
   vertex 108.419250 -41.321770 654.931946
   vertex 108.236412 -41.854145 654.920410
   vertex 108.422379 -41.788559 654.752808
  endloop
 facet normal 0.961559 -0.092746 0.258463
  outer loop
   vertex 85.096748 -41.943737 654.749939
   vertex 85.093620 -41.476948 654.929077
   vertex 84.975960 -42.096046 655.144653
  endloop
 facet normal 0.961558 -0.092746 0.258464
  outer loop
   vertex 84.975960 -42.096046 655.144653
   vertex 85.093620 -41.476948 654.929077
   vertex 84.972832 -41.629253 655.323792
  endloop
 facet normal 0.695463 -0.253384 0.672404
  outer loop
   vertex 84.972832 -41.629253 655.323792
   vertex 84.659813 -42.207542 655.429626
   vertex 84.975960 -42.096046 655.144653
  endloop
 facet normal 0.695531 -0.253437 0.672315
  outer loop
   vertex 84.656685 -41.740749 655.608826
   vertex 84.659813 -42.207542 655.429626
   vertex 84.972832 -41.629253 655.323792
  endloop
 facet normal 0.243034 -0.346227 0.906124
  outer loop
   vertex 84.233025 -42.248352 655.528503
   vertex 84.659813 -42.207542 655.429626
   vertex 84.656685 -41.740749 655.608826
  endloop
 facet normal 0.243037 -0.346230 0.906123
  outer loop
   vertex 84.656685 -41.740749 655.608826
   vertex 84.229897 -41.781563 655.707703
   vertex 84.233025 -42.248352 655.528503
  endloop
 facet normal -0.274502 -0.346231 0.897091
  outer loop
   vertex 84.233025 -42.248352 655.528503
   vertex 84.229897 -41.781563 655.707703
   vertex 83.809944 -42.207542 655.414795
  endloop
 facet normal -0.274505 -0.346228 0.897092
  outer loop
   vertex 83.809944 -42.207542 655.414795
   vertex 84.229897 -41.781563 655.707703
   vertex 83.806816 -41.740749 655.593994
  endloop
 facet normal -0.718512 -0.253459 0.647688
  outer loop
   vertex 83.806816 -41.740749 655.593994
   vertex 83.503937 -42.096046 655.118958
   vertex 83.809944 -42.207542 655.414795
  endloop
 facet normal -0.718583 -0.253349 0.647651
  outer loop
   vertex 83.500816 -41.629253 655.298096
   vertex 83.503937 -42.096046 655.118958
   vertex 83.806816 -41.740749 655.593994
  endloop
 facet normal -0.969995 -0.092733 0.224743
  outer loop
   vertex 83.397003 -41.943737 654.720276
   vertex 83.503937 -42.096046 655.118958
   vertex 83.500816 -41.629253 655.298096
  endloop
 facet normal -0.969991 -0.092753 0.224754
  outer loop
   vertex 83.500816 -41.629253 655.298096
   vertex 83.393875 -41.476948 654.899414
   vertex 83.397003 -41.943737 654.720276
  endloop
 facet normal 0.961563 -0.092740 0.258449
  outer loop
   vertex 109.515152 -41.943741 655.176208
   vertex 109.512024 -41.476948 655.355347
   vertex 109.394371 -42.096046 655.570923
  endloop
 facet normal 0.961563 -0.092740 0.258448
  outer loop
   vertex 109.394371 -42.096046 655.570923
   vertex 109.512024 -41.476948 655.355347
   vertex 109.391243 -41.629257 655.750061
  endloop
 facet normal 0.695463 -0.253386 0.672404
  outer loop
   vertex 109.391243 -41.629257 655.750061
   vertex 109.078224 -42.207542 655.855896
   vertex 109.394371 -42.096046 655.570923
  endloop
 facet normal 0.695463 -0.253386 0.672404
  outer loop
   vertex 109.075096 -41.740753 656.035034
   vertex 109.078224 -42.207542 655.855896
   vertex 109.391243 -41.629257 655.750061
  endloop
 facet normal 0.243034 -0.346127 0.906163
  outer loop
   vertex 108.651436 -42.248352 655.954773
   vertex 109.078224 -42.207542 655.855896
   vertex 109.075096 -41.740753 656.035034
  endloop
 facet normal 0.243034 -0.346127 0.906163
  outer loop
   vertex 109.075096 -41.740753 656.035034
   vertex 108.648308 -41.781563 656.133911
   vertex 108.651436 -42.248352 655.954773
  endloop
 facet normal -0.274503 -0.346128 0.897131
  outer loop
   vertex 108.651436 -42.248352 655.954773
   vertex 108.648308 -41.781563 656.133911
   vertex 108.228355 -42.207542 655.841064
  endloop
 facet normal -0.274503 -0.346128 0.897131
  outer loop
   vertex 108.228355 -42.207542 655.841064
   vertex 108.648308 -41.781563 656.133911
   vertex 108.225227 -41.740753 656.020203
  endloop
 facet normal -0.718512 -0.253387 0.647716
  outer loop
   vertex 108.225227 -41.740753 656.020203
   vertex 107.922348 -42.096046 655.545227
   vertex 108.228355 -42.207542 655.841064
  endloop
 facet normal -0.718512 -0.253387 0.647716
  outer loop
   vertex 107.919220 -41.629257 655.724365
   vertex 107.922348 -42.096046 655.545227
   vertex 108.225227 -41.740753 656.020203
  endloop
 facet normal -0.969995 -0.092747 0.224739
  outer loop
   vertex 107.815414 -41.943741 655.146545
   vertex 107.922348 -42.096046 655.545227
   vertex 107.919220 -41.629257 655.724365
  endloop
 facet normal -0.969995 -0.092746 0.224738
  outer loop
   vertex 107.919220 -41.629257 655.724365
   vertex 107.812286 -41.476948 655.325684
   vertex 107.815414 -41.943741 655.146545
  endloop
 facet normal 0.695528 -0.253439 0.672316
  outer loop
   vertex 108.419250 -41.321770 654.931946
   vertex 108.233284 -41.387356 655.099609
   vertex 108.236412 -41.854145 654.920410
  endloop
 facet normal 0.961556 -0.092779 0.258461
  outer loop
   vertex 108.236412 -41.854145 654.920410
   vertex 108.233284 -41.387356 655.099609
   vertex 108.162231 -41.476948 655.331787
  endloop
 facet normal 0.961573 -0.092727 0.258416
  outer loop
   vertex 108.162231 -41.476948 655.331787
   vertex 108.165359 -41.943741 655.152649
   vertex 108.236412 -41.854145 654.920410
  endloop
 facet normal 0.969989 0.092756 -0.224763
  outer loop
   vertex 108.225136 -41.566540 655.566284
   vertex 108.165359 -41.943741 655.152649
   vertex 108.162231 -41.476948 655.331787
  endloop
 facet normal 0.969989 0.092756 -0.224763
  outer loop
   vertex 108.228264 -42.033333 655.387146
   vertex 108.165359 -41.943741 655.152649
   vertex 108.225136 -41.566540 655.566284
  endloop
 facet normal 0.718608 0.253350 -0.647624
  outer loop
   vertex 108.225136 -41.566540 655.566284
   vertex 108.405136 -41.632126 655.740356
   vertex 108.228264 -42.033333 655.387146
  endloop
 facet normal 0.718501 0.253463 -0.647698
  outer loop
   vertex 108.228264 -42.033333 655.387146
   vertex 108.405136 -41.632126 655.740356
   vertex 108.408264 -42.098919 655.561157
  endloop
 facet normal 0.274526 0.346226 -0.897086
  outer loop
   vertex 108.408264 -42.098919 655.561157
   vertex 108.405136 -41.632126 655.740356
   vertex 108.654007 -41.656132 655.807251
  endloop
 facet normal 0.274526 0.346226 -0.897086
  outer loop
   vertex 108.654007 -41.656132 655.807251
   vertex 108.657135 -42.122925 655.628052
   vertex 108.408264 -42.098919 655.561157
  endloop
 facet normal -0.243046 0.346226 -0.906121
  outer loop
   vertex 108.905060 -41.632126 655.749084
   vertex 108.657135 -42.122925 655.628052
   vertex 108.654007 -41.656132 655.807251
  endloop
 facet normal -0.243046 0.346226 -0.906121
  outer loop
   vertex 108.908188 -42.098919 655.569885
   vertex 108.657135 -42.122925 655.628052
   vertex 108.905060 -41.632126 655.749084
  endloop
 facet normal -0.695528 0.253438 -0.672317
  outer loop
   vertex 108.905060 -41.632126 655.749084
   vertex 109.091026 -41.566540 655.581421
   vertex 108.908188 -42.098919 655.569885
  endloop
 facet normal -0.695414 0.253401 -0.672449
  outer loop
   vertex 108.908188 -42.098919 655.569885
   vertex 109.091026 -41.566540 655.581421
   vertex 109.094154 -42.033333 655.402283
  endloop
 facet normal -0.961556 0.092749 -0.258472
  outer loop
   vertex 109.094154 -42.033333 655.402283
   vertex 109.091026 -41.566540 655.581421
   vertex 109.162079 -41.476948 655.349243
  endloop
 facet normal -0.961556 0.092749 -0.258472
  outer loop
   vertex 109.162079 -41.476948 655.349243
   vertex 109.165207 -41.943741 655.170105
   vertex 109.094154 -42.033333 655.402283
  endloop
 facet normal -0.718486 -0.253470 0.647712
  outer loop
   vertex 84.503891 -41.788559 654.335266
   vertex 84.683899 -41.854145 654.509277
   vertex 84.680771 -41.387356 654.688477
  endloop
 facet normal -0.970008 -0.092754 0.224679
  outer loop
   vertex 84.680771 -41.387356 654.688477
   vertex 84.683899 -41.854145 654.509277
   vertex 84.746796 -41.943737 654.743835
  endloop
 facet normal -0.969989 -0.092743 0.224768
  outer loop
   vertex 84.746796 -41.943737 654.743835
   vertex 84.743675 -41.476948 654.922974
   vertex 84.680771 -41.387356 654.688477
  endloop
 facet normal -0.961564 0.092753 -0.258441
  outer loop
   vertex 84.675751 -42.033329 654.976013
   vertex 84.743675 -41.476948 654.922974
   vertex 84.746796 -41.943737 654.743835
  endloop
 facet normal -0.961556 0.092749 -0.258472
  outer loop
   vertex 84.672623 -41.566540 655.155151
   vertex 84.743675 -41.476948 654.922974
   vertex 84.675751 -42.033329 654.976013
  endloop
 facet normal -0.695528 0.253363 -0.672345
  outer loop
   vertex 84.675751 -42.033329 654.976013
   vertex 84.489784 -42.098915 655.143677
   vertex 84.672623 -41.566540 655.155151
  endloop
 facet normal -0.695528 0.253363 -0.672345
  outer loop
   vertex 84.672623 -41.566540 655.155151
   vertex 84.489784 -42.098915 655.143677
   vertex 84.486656 -41.632126 655.322815
  endloop
 facet normal -0.243045 0.346125 -0.906160
  outer loop
   vertex 84.486656 -41.632126 655.322815
   vertex 84.489784 -42.098915 655.143677
   vertex 84.238731 -42.122921 655.201843
  endloop
 facet normal -0.243045 0.346125 -0.906160
  outer loop
   vertex 84.238731 -42.122921 655.201843
   vertex 84.235603 -41.656132 655.380981
   vertex 84.486656 -41.632126 655.322815
  endloop
 facet normal 0.274527 0.346126 -0.897124
  outer loop
   vertex 83.989861 -42.098915 655.134949
   vertex 84.235603 -41.656132 655.380981
   vertex 84.238731 -42.122921 655.201843
  endloop
 facet normal 0.274527 0.346126 -0.897124
  outer loop
   vertex 83.986732 -41.632126 655.314087
   vertex 84.235603 -41.656132 655.380981
   vertex 83.989861 -42.098915 655.134949
  endloop
 facet normal 0.718593 0.253357 -0.647637
  outer loop
   vertex 83.989861 -42.098915 655.134949
   vertex 83.809853 -42.033329 654.960876
   vertex 83.986732 -41.632126 655.314087
  endloop
 facet normal 0.718486 0.253470 -0.647712
  outer loop
   vertex 83.986732 -41.632126 655.314087
   vertex 83.809853 -42.033329 654.960876
   vertex 83.806725 -41.566540 655.140076
  endloop
 facet normal 0.969988 0.092782 -0.224753
  outer loop
   vertex 83.806725 -41.566540 655.140076
   vertex 83.809853 -42.033329 654.960876
   vertex 83.746948 -41.943737 654.726379
  endloop
 facet normal 0.970008 0.092715 -0.224694
  outer loop
   vertex 83.746948 -41.943737 654.726379
   vertex 83.743828 -41.476948 654.905518
   vertex 83.806725 -41.566540 655.140076
  endloop
 facet normal 0.961564 -0.092753 0.258441
  outer loop
   vertex 83.814873 -41.387356 654.673340
   vertex 83.743828 -41.476948 654.905518
   vertex 83.746948 -41.943737 654.726379
  endloop
endsolid