solid stl file generated from DOUG
 facet normal -0.862761 -0.466784 -0.194308
  outer loop
   vertex 207.424194 -42.103043 657.998047
   vertex 207.432373 -41.923439 657.530273
   vertex 207.550827 -42.305645 657.922485
  endloop
 endfacet

 facet normal -0.862782 -0.466759 -0.194278
  outer loop
   vertex 207.550827 -42.305645 657.922485
   vertex 207.432373 -41.923439 657.530273
   vertex 207.559006 -42.126038 657.454651
  endloop
 endfacet

 facet normal 0.006285 -0.933584 -0.358304
  outer loop
   vertex 207.559006 -42.126038 657.454651
   vertex 207.801376 -42.305645 657.926880
   vertex 207.550827 -42.305645 657.922485
  endloop
 endfacet

 facet normal 0.006285 -0.933584 -0.358304
  outer loop
   vertex 207.809555 -42.126038 657.459045
   vertex 207.801376 -42.305645 657.926880
   vertex 207.559006 -42.126038 657.454651
  endloop
 endfacet

 facet normal 0.869006 -0.466823 -0.164027
  outer loop
   vertex 207.925293 -42.103043 658.006775
   vertex 207.801376 -42.305645 657.926880
   vertex 207.809555 -42.126038 657.459045
  endloop
 endfacet

 facet normal 0.869023 -0.466790 -0.164032
  outer loop
   vertex 207.809555 -42.126038 657.459045
   vertex 207.933472 -41.923439 657.539001
   vertex 207.925293 -42.103043 658.006775
  endloop
 endfacet

 facet normal 0.862782 0.466751 0.194296
  outer loop
   vertex 207.925293 -42.103043 658.006775
   vertex 207.933472 -41.923439 657.539001
   vertex 207.798660 -41.900444 658.082397
  endloop
 endfacet

 facet normal 0.862758 0.466798 0.194289
  outer loop
   vertex 207.798660 -41.900444 658.082397
   vertex 207.933472 -41.923439 657.539001
   vertex 207.806839 -41.720840 657.614563
  endloop
 endfacet

 facet normal -0.006285 0.933586 0.358298
  outer loop
   vertex 207.806839 -41.720840 657.614563
   vertex 207.548126 -41.900444 658.078003
   vertex 207.798660 -41.900444 658.082397
  endloop
 endfacet

 facet normal -0.006284 0.933586 0.358298
  outer loop
   vertex 207.556290 -41.720840 657.610168
   vertex 207.548126 -41.900444 658.078003
   vertex 207.806839 -41.720840 657.614563
  endloop
 endfacet

 facet normal -0.868997 0.466831 0.164055
  outer loop
   vertex 207.424194 -42.103043 657.998047
   vertex 207.548126 -41.900444 658.078003
   vertex 207.556290 -41.720840 657.610168
  endloop
 endfacet

 facet normal -0.869003 0.466823 0.164045
  outer loop
   vertex 207.556290 -41.720840 657.610168
   vertex 207.432373 -41.923439 657.530273
   vertex 207.424194 -42.103043 657.998047
  endloop
 endfacet

 facet normal 0.869003 -0.466820 -0.164051
  outer loop
   vertex 195.785263 -41.923439 657.326904
   vertex 195.777100 -42.103043 657.794739
   vertex 195.661346 -42.126038 657.247009
  endloop
 endfacet

 facet normal 0.868997 -0.466833 -0.164049
  outer loop
   vertex 195.661346 -42.126038 657.247009
   vertex 195.777100 -42.103043 657.794739
   vertex 195.653168 -42.305641 657.714783
  endloop
 endfacet

 facet normal 0.006285 -0.933571 -0.358338
  outer loop
   vertex 195.653168 -42.305641 657.714783
   vertex 195.410797 -42.126038 657.242615
   vertex 195.661346 -42.126038 657.247009
  endloop
 endfacet

 facet normal 0.006198 -0.933586 -0.358299
  outer loop
   vertex 195.402634 -42.305641 657.710449
   vertex 195.410797 -42.126038 657.242615
   vertex 195.653168 -42.305641 657.714783
  endloop
 endfacet

 facet normal -0.862758 -0.466808 -0.194264
  outer loop
   vertex 195.284164 -41.923439 657.318176
   vertex 195.410797 -42.126038 657.242615
   vertex 195.402634 -42.305641 657.710449
  endloop
 endfacet

 facet normal -0.862758 -0.466808 -0.194264
  outer loop
   vertex 195.402634 -42.305641 657.710449
   vertex 195.276001 -42.103043 657.786011
   vertex 195.284164 -41.923439 657.318176
  endloop
 endfacet

 facet normal -0.869026 0.466782 0.164036
  outer loop
   vertex 195.284164 -41.923439 657.318176
   vertex 195.276001 -42.103043 657.786011
   vertex 195.408081 -41.720837 657.398132
  endloop
 endfacet

 facet normal -0.869023 0.466787 0.164041
  outer loop
   vertex 195.408081 -41.720837 657.398132
   vertex 195.276001 -42.103043 657.786011
   vertex 195.399918 -41.900444 657.865967
  endloop
 endfacet

 facet normal -0.006285 0.933584 0.358305
  outer loop
   vertex 195.399918 -41.900444 657.865967
   vertex 195.658630 -41.720837 657.402527
   vertex 195.408081 -41.720837 657.398132
  endloop
 endfacet

 facet normal -0.006198 0.933568 0.358347
  outer loop
   vertex 195.650467 -41.900444 657.870300
   vertex 195.658630 -41.720837 657.402527
   vertex 195.399918 -41.900444 657.865967
  endloop
 endfacet

 facet normal 0.862786 0.466754 0.194273
  outer loop
   vertex 195.785263 -41.923439 657.326904
   vertex 195.658630 -41.720837 657.402527
   vertex 195.650467 -41.900444 657.870300
  endloop
 endfacet

 facet normal 0.862758 0.466808 0.194264
  outer loop
   vertex 195.650467 -41.900444 657.870300
   vertex 195.777100 -42.103043 657.794739
   vertex 195.785263 -41.923439 657.326904
  endloop
 endfacet

 facet normal -0.016147 -0.358246 0.933488
  outer loop
   vertex 195.402634 -42.305641 657.710449
   vertex 195.653168 -42.305641 657.714783
   vertex 195.526550 -42.103043 657.790344
  endloop
 endfacet

 facet normal -0.016372 -0.358368 0.933437
  outer loop
   vertex 195.526550 -42.103043 657.790344
   vertex 195.653168 -42.305641 657.714783
   vertex 195.777100 -42.103043 657.794739
  endloop
 endfacet

 facet normal -0.016372 -0.358369 0.933436
  outer loop
   vertex 195.777100 -42.103043 657.794739
   vertex 195.650467 -41.900444 657.870300
   vertex 195.526550 -42.103043 657.790344
  endloop
 endfacet

 facet normal -0.016372 -0.358368 0.933437
  outer loop
   vertex 207.548126 -41.900444 658.078003
   vertex 207.424194 -42.103043 657.998047
   vertex 207.674744 -42.103043 658.002441
  endloop
 endfacet

 facet normal -0.016372 -0.358363 0.933439
  outer loop
   vertex 207.674744 -42.103043 658.002441
   vertex 207.424194 -42.103043 657.998047
   vertex 207.550827 -42.305645 657.922485
  endloop
 endfacet

 facet normal -0.016372 -0.358363 0.933439
  outer loop
   vertex 207.550827 -42.305645 657.922485
   vertex 207.801376 -42.305645 657.926880
   vertex 207.674744 -42.103043 658.002441
  endloop
 endfacet

 facet normal -0.016146 -0.358241 0.933490
  outer loop
   vertex 207.801376 -42.305645 657.926880
   vertex 207.925293 -42.103043 658.006775
   vertex 207.674744 -42.103043 658.002441
  endloop
 endfacet

 facet normal -0.016144 -0.358492 0.933393
  outer loop
   vertex 207.674744 -42.103043 658.002441
   vertex 207.925293 -42.103043 658.006775
   vertex 207.798660 -41.900444 658.082397
  endloop
 endfacet

 facet normal -0.016373 -0.358369 0.933437
  outer loop
   vertex 207.798660 -41.900444 658.082397
   vertex 207.548126 -41.900444 658.078003
   vertex 207.674744 -42.103043 658.002441
  endloop
 endfacet

 facet normal -0.016144 -0.358492 0.933393
  outer loop
   vertex 195.650467 -41.900444 657.870300
   vertex 195.399918 -41.900444 657.865967
   vertex 195.526550 -42.103043 657.790344
  endloop
 endfacet

 facet normal -0.016144 -0.358492 0.933393
  outer loop
   vertex 195.526550 -42.103043 657.790344
   vertex 195.399918 -41.900444 657.865967
   vertex 195.276001 -42.103043 657.786011
  endloop
 endfacet

 facet normal -0.016146 -0.358247 0.933487
  outer loop
   vertex 195.276001 -42.103043 657.786011
   vertex 195.402634 -42.305641 657.710449
   vertex 195.526550 -42.103043 657.790344
  endloop
 endfacet

 facet normal -0.016306 -0.358350 0.933445
  outer loop
   vertex 206.247620 -40.790260 656.301636
   vertex 206.255432 -41.957420 655.853699
   vertex 209.238556 -40.790260 656.353882
  endloop
 endfacet

 facet normal -0.016286 -0.358393 0.933429
  outer loop
   vertex 209.238556 -40.790260 656.353882
   vertex 206.255432 -41.957420 655.853699
   vertex 209.246384 -41.957420 655.905884
  endloop
 endfacet

 facet normal 0.999848 0.000005 0.017457
  outer loop
   vertex 209.246384 -41.957420 655.905884
   vertex 209.261185 -40.292637 655.057678
   vertex 209.238556 -40.790260 656.353882
  endloop
 endfacet

 facet normal 0.999848 0.000006 0.017458
  outer loop
   vertex 209.269012 -41.459797 654.609741
   vertex 209.261185 -40.292637 655.057678
   vertex 209.246384 -41.957420 655.905884
  endloop
 endfacet

 facet normal 0.016286 0.358350 -0.933445
  outer loop
   vertex 206.278061 -41.459797 654.557556
   vertex 209.261185 -40.292637 655.057678
   vertex 209.269012 -41.459797 654.609741
  endloop
 endfacet

 facet normal 0.006252 -0.933579 -0.358317
  outer loop
   vertex 209.269012 -41.459797 654.609741
   vertex 206.255432 -41.957420 655.853699
   vertex 206.278061 -41.459797 654.557556
  endloop
 endfacet

 facet normal -0.999848 0.000006 -0.017454
  outer loop
   vertex 206.278061 -41.459797 654.557556
   vertex 206.255432 -41.957420 655.853699
   vertex 206.270248 -40.292637 655.005493
  endloop
 endfacet

 facet normal -0.999848 0.000006 -0.017454
  outer loop
   vertex 206.270248 -40.292637 655.005493
   vertex 206.255432 -41.957420 655.853699
   vertex 206.247620 -40.790260 656.301636
  endloop
 endfacet

 facet normal -0.006252 0.933579 0.358317
  outer loop
   vertex 206.247620 -40.790260 656.301636
   vertex 209.261185 -40.292637 655.057678
   vertex 206.270248 -40.292637 655.005493
  endloop
 endfacet

 facet normal -0.006259 0.933585 0.358302
  outer loop
   vertex 209.238556 -40.790260 656.353882
   vertex 209.261185 -40.292637 655.057678
   vertex 206.247620 -40.790260 656.301636
  endloop
 endfacet

 facet normal -0.999848 0.000006 -0.017454
  outer loop
   vertex 194.043854 -40.292633 654.792053
   vertex 194.051666 -41.459797 654.344116
   vertex 194.021225 -40.790260 656.088196
  endloop
 endfacet

 facet normal -0.999848 0.000006 -0.017454
  outer loop
   vertex 194.021225 -40.790260 656.088196
   vertex 194.051666 -41.459797 654.344116
   vertex 194.029037 -41.957420 655.640259
  endloop
 endfacet

 facet normal -0.016306 -0.358350 0.933445
  outer loop
   vertex 194.029037 -41.957420 655.640259
   vertex 197.012161 -40.790260 656.140442
   vertex 194.021225 -40.790260 656.088196
  endloop
 endfacet

 facet normal -0.016286 -0.358393 0.933429
  outer loop
   vertex 197.019989 -41.957420 655.692444
   vertex 197.012161 -40.790260 656.140442
   vertex 194.029037 -41.957420 655.640259
  endloop
 endfacet

 facet normal 0.999848 0.000005 0.017458
  outer loop
   vertex 197.042618 -41.459797 654.396301
   vertex 197.012161 -40.790260 656.140442
   vertex 197.019989 -41.957420 655.692444
  endloop
 endfacet

 facet normal 0.006252 -0.933579 -0.358317
  outer loop
   vertex 197.019989 -41.957420 655.692444
   vertex 194.051666 -41.459797 654.344116
   vertex 197.042618 -41.459797 654.396301
  endloop
 endfacet

 facet normal 0.016286 0.358393 -0.933429
  outer loop
   vertex 197.042618 -41.459797 654.396301
   vertex 194.051666 -41.459797 654.344116
   vertex 197.034790 -40.292637 654.844299
  endloop
 endfacet

 facet normal 0.016306 0.358349 -0.933445
  outer loop
   vertex 197.034790 -40.292637 654.844299
   vertex 194.051666 -41.459797 654.344116
   vertex 194.043854 -40.292633 654.792053
  endloop
 endfacet

 facet normal -0.006258 0.933579 0.358317
  outer loop
   vertex 194.043854 -40.292633 654.792053
   vertex 197.012161 -40.790260 656.140442
   vertex 197.034790 -40.292637 654.844299
  endloop
 endfacet

 facet normal -0.006259 0.933578 0.358319
  outer loop
   vertex 194.021225 -40.790260 656.088196
   vertex 197.012161 -40.790260 656.140442
   vertex 194.043854 -40.292633 654.792053
  endloop
 endfacet

 facet normal 0.006252 -0.933579 -0.358317
  outer loop
   vertex 197.019989 -41.957420 655.692444
   vertex 194.029037 -41.957420 655.640259
   vertex 194.051666 -41.459797 654.344116
  endloop
 endfacet

 facet normal 0.006252 -0.933579 -0.358317
  outer loop
   vertex 209.246384 -41.957420 655.905884
   vertex 206.255432 -41.957420 655.853699
   vertex 209.269012 -41.459797 654.609741
  endloop
 endfacet

 facet normal 0.999848 0.000005 0.017458
  outer loop
   vertex 197.042618 -41.459797 654.396301
   vertex 197.034790 -40.292637 654.844299
   vertex 197.012161 -40.790260 656.140442
  endloop
 endfacet

 facet normal 0.016287 0.358350 -0.933445
  outer loop
   vertex 206.278061 -41.459797 654.557556
   vertex 206.270248 -40.292637 655.005493
   vertex 209.261185 -40.292637 655.057678
  endloop
 endfacet

 facet normal -0.016289 -0.358623 0.933340
  outer loop
   vertex 206.583008 -41.633621 658.951111
   vertex 196.585205 -41.735950 658.737305
   vertex 206.583694 -41.735950 658.911804
  endloop
 endfacet

 facet normal -0.004642 -0.963964 0.265991
  outer loop
   vertex 206.583694 -41.735950 658.911804
   vertex 196.585205 -41.735950 658.737305
   vertex 206.586136 -41.774597 658.771790
  endloop
 endfacet

 facet normal -0.005006 -0.958154 0.286210
  outer loop
   vertex 197.504822 -43.104134 658.291443
   vertex 196.348038 -43.134171 658.170654
   vertex 197.506577 -43.134171 658.190918
  endloop
 endfacet

 facet normal 0.006267 -0.933577 -0.358323
  outer loop
   vertex 197.506577 -43.134171 658.190918
   vertex 196.348038 -43.134171 658.170654
   vertex 196.361740 -42.832558 657.385071
  endloop
 endfacet

 facet normal -0.006248 0.933577 0.358324
  outer loop
   vertex 206.843796 -41.279995 658.164124
   vertex 205.671555 -41.581608 658.929504
   vertex 206.830093 -41.581608 658.949707
  endloop
 endfacet

 facet normal -0.014886 0.520598 0.853672
  outer loop
   vertex 206.830093 -41.581608 658.949707
   vertex 205.671555 -41.581608 658.929504
   vertex 205.670593 -41.671211 658.984131
  endloop
 endfacet

 facet normal -0.014706 0.538312 0.842617
  outer loop
   vertex 196.595016 -42.874569 658.175110
   vertex 196.593658 -42.996990 658.253296
   vertex 206.592133 -42.996994 658.427795
  endloop
 endfacet

 facet normal -0.016293 -0.358138 0.933526
  outer loop
   vertex 206.592133 -42.996994 658.427795
   vertex 196.593658 -42.996990 658.253296
   vertex 206.592819 -43.099323 658.388550
  endloop
 endfacet

 facet normal -0.017450 0.001699 0.999846
  outer loop
   vertex 196.597260 -41.389423 658.046997
   vertex 206.595734 -41.389423 658.221497
   vertex 196.597260 -41.353512 658.046936
  endloop
 endfacet

 facet normal -0.017456 -0.000000 0.999848
  outer loop
   vertex 196.597260 -41.353512 658.046936
   vertex 206.595734 -41.389423 658.221497
   vertex 206.595734 -41.353512 658.221497
  endloop
 endfacet

 facet normal -0.006261 0.933472 0.358595
  outer loop
   vertex 206.595734 -41.353512 658.221497
   vertex 196.598404 -41.328205 657.981079
   vertex 196.597260 -41.353512 658.046936
  endloop
 endfacet

 facet normal -0.999849 -0.000032 -0.017369
  outer loop
   vertex 196.337631 -41.581608 658.766541
   vertex 196.339371 -41.797977 658.666809
   vertex 196.336685 -41.671211 658.821167
  endloop
 endfacet

 facet normal -0.999849 -0.000011 -0.017387
  outer loop
   vertex 196.336685 -41.671211 658.821167
   vertex 196.339371 -41.797977 658.666809
   vertex 196.337677 -41.819618 658.764221
  endloop
 endfacet

 facet normal -0.016278 -0.358293 0.933467
  outer loop
   vertex 196.337677 -41.819618 658.764221
   vertex 197.495224 -41.671211 658.841370
   vertex 196.336685 -41.671211 658.821167
  endloop
 endfacet

 facet normal 0.999848 0.000011 0.017450
  outer loop
   vertex 206.840485 -43.134171 658.353821
   vertex 206.839249 -42.906631 658.424500
   vertex 206.838730 -43.104134 658.454346
  endloop
 endfacet

 facet normal 0.999849 0.000002 0.017391
  outer loop
   vertex 206.838730 -43.104134 658.454346
   vertex 206.839249 -42.906631 658.424500
   vertex 206.837738 -42.955730 658.511353
  endloop
 endfacet

 facet normal -0.016276 -0.358636 0.933336
  outer loop
   vertex 206.837738 -42.955730 658.511353
   vertex 205.680191 -43.104134 658.434143
   vertex 206.838730 -43.104134 658.454346
  endloop
 endfacet

 facet normal 0.999849 0.000008 0.017394
  outer loop
   vertex 197.503830 -42.955727 658.348389
   vertex 197.504822 -43.104134 658.291443
   vertex 197.505341 -42.906631 658.261536
  endloop
 endfacet

 facet normal 0.999848 0.000016 0.017449
  outer loop
   vertex 197.505341 -42.906631 658.261536
   vertex 197.504822 -43.104134 658.291443
   vertex 197.506577 -43.134171 658.190918
  endloop
 endfacet

 facet normal 0.999848 0.000017 0.017445
  outer loop
   vertex 197.506577 -43.134171 658.190918
   vertex 197.520279 -42.832558 657.405273
   vertex 197.505341 -42.906631 658.261536
  endloop
 endfacet

 facet normal 0.006248 -0.933586 -0.358299
  outer loop
   vertex 196.361740 -42.832558 657.385071
   vertex 197.520279 -42.832558 657.405273
   vertex 197.506577 -43.134171 658.190918
  endloop
 endfacet

 facet normal -0.014706 0.538302 0.842624
  outer loop
   vertex 206.592133 -42.996994 658.427795
   vertex 206.593506 -42.874569 658.349609
   vertex 196.595016 -42.874569 658.175110
  endloop
 endfacet

 facet normal -0.016291 -0.358372 0.933437
  outer loop
   vertex 196.595016 -42.874569 658.175110
   vertex 206.593506 -42.874569 658.349609
   vertex 206.586136 -41.774597 658.771790
  endloop
 endfacet

 facet normal -0.016297 -0.358325 0.933455
  outer loop
   vertex 206.586136 -41.774597 658.771790
   vertex 196.587646 -41.774593 658.597229
   vertex 196.595016 -42.874569 658.175110
  endloop
 endfacet

 facet normal -0.004642 -0.964001 0.265859
  outer loop
   vertex 196.585205 -41.735950 658.737305
   vertex 196.587646 -41.774593 658.597229
   vertex 206.586136 -41.774597 658.771790
  endloop
 endfacet

 facet normal -0.006267 0.933586 0.358299
  outer loop
   vertex 206.843796 -41.279995 658.164124
   vertex 205.685257 -41.279995 658.143860
   vertex 205.671555 -41.581608 658.929504
  endloop
 endfacet

 facet normal -0.999848 -0.000000 -0.017438
  outer loop
   vertex 205.671555 -41.581608 658.929504
   vertex 205.685257 -41.279995 658.143860
   vertex 205.673294 -41.797981 658.829773
  endloop
 endfacet

 facet normal -0.999846 0.000041 -0.017528
  outer loop
   vertex 205.673294 -41.797981 658.829773
   vertex 205.670593 -41.671211 658.984131
   vertex 205.671555 -41.581608 658.929504
  endloop
 endfacet

 facet normal -0.999846 0.000055 -0.017540
  outer loop
   vertex 205.671585 -41.819618 658.927124
   vertex 205.670593 -41.671211 658.984131
   vertex 205.673294 -41.797981 658.829773
  endloop
 endfacet

 facet normal 0.012961 0.669570 -0.742636
  outer loop
   vertex 206.585739 -41.609295 658.794189
   vertex 196.587250 -41.609295 658.619690
   vertex 206.585327 -41.582615 658.818237
  endloop
 endfacet

 facet normal 0.012961 0.669570 -0.742636
  outer loop
   vertex 206.585327 -41.582615 658.818237
   vertex 196.587250 -41.609295 658.619690
   vertex 196.586838 -41.582615 658.643738
  endloop
 endfacet

 facet normal -0.006253 0.933596 0.358272
  outer loop
   vertex 196.586838 -41.582615 658.643738
   vertex 206.583008 -41.633621 658.951111
   vertex 206.585327 -41.582615 658.818237
  endloop
 endfacet

 facet normal -0.006257 0.933550 0.358392
  outer loop
   vertex 196.584518 -41.633617 658.776550
   vertex 206.583008 -41.633621 658.951111
   vertex 196.586838 -41.582615 658.643738
  endloop
 endfacet

 facet normal -0.016298 -0.358126 0.933531
  outer loop
   vertex 196.585205 -41.735950 658.737305
   vertex 206.583008 -41.633621 658.951111
   vertex 196.584518 -41.633617 658.776550
  endloop
 endfacet

 facet normal -0.016283 -0.358399 0.933426
  outer loop
   vertex 208.252899 -41.410305 657.763428
   vertex 206.611954 -42.451187 657.335144
   vertex 208.259872 -42.451187 657.363892
  endloop
 endfacet

 facet normal 0.006251 -0.933575 -0.358328
  outer loop
   vertex 208.259872 -42.451187 657.363892
   vertex 206.611954 -42.451187 657.335144
   vertex 208.284973 -41.898922 655.925476
  endloop
 endfacet

 facet normal 0.999848 0.000002 0.017448
  outer loop
   vertex 208.284973 -41.898922 655.925476
   vertex 208.278000 -40.858040 656.324951
   vertex 208.259872 -42.451187 657.363892
  endloop
 endfacet

 facet normal 0.016318 0.358351 -0.933444
  outer loop
   vertex 206.637070 -41.898922 655.896667
   vertex 208.278000 -40.858040 656.324951
   vertex 208.284973 -41.898922 655.925476
  endloop
 endfacet

 facet normal 0.016284 0.358399 -0.933426
  outer loop
   vertex 206.630096 -40.858040 656.296204
   vertex 208.278000 -40.858040 656.324951
   vertex 206.637070 -41.898922 655.896667
  endloop
 endfacet

 facet normal -0.999848 0.000002 -0.017457
  outer loop
   vertex 206.637070 -41.898922 655.896667
   vertex 206.611954 -42.451187 657.335144
   vertex 206.630096 -40.858040 656.296204
  endloop
 endfacet

 facet normal -0.999848 0.000002 -0.017457
  outer loop
   vertex 206.630096 -40.858040 656.296204
   vertex 206.611954 -42.451187 657.335144
   vertex 206.604980 -41.410305 657.734680
  endloop
 endfacet

 facet normal -0.016283 -0.358399 0.933426
  outer loop
   vertex 206.604980 -41.410305 657.734680
   vertex 206.611954 -42.451187 657.335144
   vertex 208.252899 -41.410305 657.763428
  endloop
 endfacet

 facet normal -0.006251 0.933580 0.358314
  outer loop
   vertex 208.252899 -41.410305 657.763428
   vertex 208.278000 -40.858040 656.324951
   vertex 206.604980 -41.410305 657.734680
  endloop
 endfacet

 facet normal 0.999848 0.000001 0.017447
  outer loop
   vertex 208.259872 -42.451187 657.363892
   vertex 208.278000 -40.858040 656.324951
   vertex 208.252899 -41.410305 657.763428
  endloop
 endfacet

 facet normal -0.006264 0.933580 0.358314
  outer loop
   vertex 194.957092 -41.410305 657.531311
   vertex 196.604996 -41.410305 657.560120
   vertex 194.982208 -40.858040 656.092834
  endloop
 endfacet

 facet normal -0.006264 0.933580 0.358314
  outer loop
   vertex 194.982208 -40.858040 656.092834
   vertex 196.604996 -41.410305 657.560120
   vertex 196.630112 -40.858040 656.121643
  endloop
 endfacet

 facet normal 0.016318 0.358351 -0.933444
  outer loop
   vertex 196.630112 -40.858040 656.121643
   vertex 194.989182 -41.898922 655.693359
   vertex 194.982208 -40.858040 656.092834
  endloop
 endfacet

 facet normal 0.016284 0.358399 -0.933426
  outer loop
   vertex 196.637085 -41.898922 655.722107
   vertex 194.989182 -41.898922 655.693359
   vertex 196.630112 -40.858040 656.121643
  endloop
 endfacet

 facet normal 0.006251 -0.933580 -0.358314
  outer loop
   vertex 196.611969 -42.451187 657.160583
   vertex 194.989182 -41.898922 655.693359
   vertex 196.637085 -41.898922 655.722107
  endloop
 endfacet

 facet normal 0.999848 -0.000002 0.017457
  outer loop
   vertex 196.637085 -41.898922 655.722107
   vertex 196.604996 -41.410305 657.560120
   vertex 196.611969 -42.451187 657.160583
  endloop
 endfacet

 facet normal -0.016284 -0.358399 0.933426
  outer loop
   vertex 196.611969 -42.451187 657.160583
   vertex 196.604996 -41.410305 657.560120
   vertex 194.964066 -42.451187 657.131836
  endloop
 endfacet

 facet normal -0.016318 -0.358351 0.933444
  outer loop
   vertex 194.964066 -42.451187 657.131836
   vertex 196.604996 -41.410305 657.560120
   vertex 194.957092 -41.410305 657.531311
  endloop
 endfacet

 facet normal -0.999848 0.000001 -0.017457
  outer loop
   vertex 194.957092 -41.410305 657.531311
   vertex 194.989182 -41.898922 655.693359
   vertex 194.964066 -42.451187 657.131836
  endloop
 endfacet

 facet normal -0.999848 0.000001 -0.017457
  outer loop
   vertex 194.982208 -40.858040 656.092834
   vertex 194.989182 -41.898922 655.693359
   vertex 194.957092 -41.410305 657.531311
  endloop
 endfacet

 facet normal 0.016281 0.358334 -0.933452
  outer loop
   vertex 209.707275 -41.943748 656.925171
   vertex 209.357330 -41.943748 656.919067
   vertex 209.354202 -41.476955 657.098206
  endloop
 endfacet

 facet normal -0.016113 -0.358334 0.933454
  outer loop
   vertex 209.354202 -41.476955 657.098206
   vertex 209.357330 -41.943748 656.919067
   vertex 209.530746 -41.710350 657.011658
  endloop
 endfacet

 facet normal -0.016280 -0.358443 0.933410
  outer loop
   vertex 209.530746 -41.710350 657.011658
   vertex 209.704147 -41.476955 657.104309
   vertex 209.354202 -41.476955 657.098206
  endloop
 endfacet

 facet normal -0.016448 -0.358334 0.933449
  outer loop
   vertex 209.707275 -41.943748 656.925171
   vertex 209.704147 -41.476955 657.104309
   vertex 209.530746 -41.710350 657.011658
  endloop
 endfacet

 facet normal 0.999848 0.000001 0.017457
  outer loop
   vertex 209.720444 -41.118587 656.170898
   vertex 209.704147 -41.476955 657.104309
   vertex 209.707275 -41.943748 656.925171
  endloop
 endfacet

 facet normal 0.999848 -0.000001 0.017455
  outer loop
   vertex 209.707275 -41.943748 656.925171
   vertex 209.723572 -41.585377 655.991699
   vertex 209.720444 -41.118587 656.170898
  endloop
 endfacet

 facet normal 0.016323 0.358443 -0.933409
  outer loop
   vertex 209.720444 -41.118587 656.170898
   vertex 209.723572 -41.585377 655.991699
   vertex 208.020706 -41.118587 656.141174
  endloop
 endfacet

 facet normal 0.016290 0.358336 -0.933450
  outer loop
   vertex 208.020706 -41.118587 656.141174
   vertex 209.723572 -41.585377 655.991699
   vertex 208.023834 -41.585377 655.962036
  endloop
 endfacet

 facet normal -0.999848 -0.000001 -0.017456
  outer loop
   vertex 208.023834 -41.585377 655.962036
   vertex 208.007538 -41.943748 656.895508
   vertex 208.020706 -41.118587 656.141174
  endloop
 endfacet

 facet normal 0.006222 -0.933583 -0.358306
  outer loop
   vertex 208.428528 -41.854153 656.669373
   vertex 208.007538 -41.943748 656.895508
   vertex 208.023834 -41.585377 655.962036
  endloop
 endfacet

 facet normal 0.006249 -0.933600 -0.358263
  outer loop
   vertex 208.357483 -41.943748 656.901611
   vertex 208.007538 -41.943748 656.895508
   vertex 208.428528 -41.854153 656.669373
  endloop
 endfacet

 facet normal -0.006229 0.933577 0.358323
  outer loop
   vertex 194.816620 -41.387363 656.611023
   vertex 195.229462 -41.476955 656.851624
   vertex 195.245758 -41.118587 655.918213
  endloop
 endfacet

 facet normal 0.999848 0.000001 0.017457
  outer loop
   vertex 195.245758 -41.118587 655.918213
   vertex 195.229462 -41.476955 656.851624
   vertex 195.248886 -41.585377 655.739075
  endloop
 endfacet

 facet normal 0.016290 0.358336 -0.933450
  outer loop
   vertex 195.248886 -41.585377 655.739075
   vertex 193.546021 -41.118587 655.888550
   vertex 195.245758 -41.118587 655.918213
  endloop
 endfacet

 facet normal 0.016323 0.358443 -0.933409
  outer loop
   vertex 193.549149 -41.585377 655.709351
   vertex 193.546021 -41.118587 655.888550
   vertex 195.248886 -41.585377 655.739075
  endloop
 endfacet

 facet normal -0.999848 0.000001 -0.017456
  outer loop
   vertex 193.529724 -41.476955 656.821960
   vertex 193.546021 -41.118587 655.888550
   vertex 193.549149 -41.585377 655.709351
  endloop
 endfacet

 facet normal -0.999848 -0.000001 -0.017456
  outer loop
   vertex 193.549149 -41.585377 655.709351
   vertex 193.532852 -41.943745 656.642822
   vertex 193.529724 -41.476955 656.821960
  endloop
 endfacet

 facet normal -0.016443 -0.358336 0.933448
  outer loop
   vertex 193.529724 -41.476955 656.821960
   vertex 193.532852 -41.943745 656.642822
   vertex 193.706268 -41.710350 656.735474
  endloop
 endfacet

 facet normal -0.016280 -0.358442 0.933410
  outer loop
   vertex 193.706268 -41.710350 656.735474
   vertex 193.532852 -41.943745 656.642822
   vertex 193.882797 -41.943745 656.648926
  endloop
 endfacet

 facet normal -0.016119 -0.358336 0.933453
  outer loop
   vertex 193.882797 -41.943745 656.648926
   vertex 193.879669 -41.476955 656.828064
   vertex 193.706268 -41.710350 656.735474
  endloop
 endfacet

 facet normal 0.016281 0.358336 -0.933451
  outer loop
   vertex 193.529724 -41.476955 656.821960
   vertex 193.879669 -41.476955 656.828064
   vertex 193.882797 -41.943745 656.648926
  endloop
 endfacet

 facet normal -0.016281 -0.358230 0.933491
  outer loop
   vertex 193.706268 -41.710350 656.735474
   vertex 193.879669 -41.476955 656.828064
   vertex 193.529724 -41.476955 656.821960
  endloop
 endfacet

 facet normal -0.016295 -0.358610 0.933345
  outer loop
   vertex 196.593658 -42.996990 658.253296
   vertex 196.594330 -43.099323 658.213989
   vertex 206.592819 -43.099323 658.388550
  endloop
 endfacet

 facet normal 0.006257 -0.933550 -0.358392
  outer loop
   vertex 206.592819 -43.099323 658.388550
   vertex 196.594330 -43.099323 658.213989
   vertex 196.596649 -43.048321 658.081177
  endloop
 endfacet

 facet normal 0.006252 -0.933605 -0.358248
  outer loop
   vertex 196.596649 -43.048321 658.081177
   vertex 206.595139 -43.048321 658.255676
   vertex 206.592819 -43.099323 658.388550
  endloop
 endfacet

 facet normal 0.017450 -0.000000 -0.999848
  outer loop
   vertex 196.596649 -43.012409 658.081177
   vertex 206.595139 -43.048321 658.255676
   vertex 196.596649 -43.048321 658.081177
  endloop
 endfacet

 facet normal 0.017450 0.000000 -0.999848
  outer loop
   vertex 206.595139 -43.012409 658.255676
   vertex 206.595139 -43.048321 658.255676
   vertex 196.596649 -43.012409 658.081177
  endloop
 endfacet

 facet normal 0.006254 -0.933579 -0.358316
  outer loop
   vertex 196.596649 -43.012409 658.081177
   vertex 196.606659 -42.792538 657.508484
   vertex 206.595139 -43.012409 658.255676
  endloop
 endfacet

 facet normal 0.006253 -0.933581 -0.358311
  outer loop
   vertex 206.595139 -43.012409 658.255676
   vertex 196.606659 -42.792538 657.508484
   vertex 206.605133 -42.792542 657.682983
  endloop
 endfacet

 facet normal -0.012961 -0.669570 0.742636
  outer loop
   vertex 206.605133 -42.792542 657.682983
   vertex 196.606659 -42.792538 657.508484
   vertex 196.607071 -42.819218 657.484436
  endloop
 endfacet

 facet normal -0.012960 -0.669627 0.742584
  outer loop
   vertex 196.607071 -42.819218 657.484436
   vertex 206.605560 -42.819218 657.658936
   vertex 206.605133 -42.792542 657.682983
  endloop
 endfacet

 facet normal 0.006253 -0.933584 -0.358304
  outer loop
   vertex 196.608231 -42.793911 657.418518
   vertex 206.605560 -42.819218 657.658936
   vertex 196.607071 -42.819218 657.484436
  endloop
 endfacet

 facet normal 0.006253 -0.933584 -0.358305
  outer loop
   vertex 206.606705 -42.793911 657.593018
   vertex 206.605560 -42.819218 657.658936
   vertex 196.608231 -42.793911 657.418518
  endloop
 endfacet

 facet normal 0.016291 0.358376 -0.933435
  outer loop
   vertex 196.608231 -42.793911 657.418518
   vertex 196.598404 -41.328205 657.981079
   vertex 206.606705 -42.793911 657.593018
  endloop
 endfacet

 facet normal 0.016291 0.358376 -0.933435
  outer loop
   vertex 206.606705 -42.793911 657.593018
   vertex 196.598404 -41.328205 657.981079
   vertex 206.596893 -41.328205 658.155579
  endloop
 endfacet

 facet normal -0.006253 0.933584 0.358304
  outer loop
   vertex 206.596893 -41.328205 658.155579
   vertex 196.598404 -41.328205 657.981079
   vertex 206.595734 -41.353512 658.221497
  endloop
 endfacet

 facet normal -0.006268 0.933585 0.358302
  outer loop
   vertex 208.425400 -41.387363 656.848572
   vertex 208.020706 -41.118587 656.141174
   vertex 208.004410 -41.476955 657.074646
  endloop
 endfacet

 facet normal -0.999848 -0.000001 -0.017456
  outer loop
   vertex 208.004410 -41.476955 657.074646
   vertex 208.020706 -41.118587 656.141174
   vertex 208.007538 -41.943748 656.895508
  endloop
 endfacet

 facet normal -0.016281 -0.358334 0.933452
  outer loop
   vertex 208.007538 -41.943748 656.895508
   vertex 208.354355 -41.476955 657.080750
   vertex 208.004410 -41.476955 657.074646
  endloop
 endfacet

 facet normal -0.016281 -0.358334 0.933452
  outer loop
   vertex 208.357483 -41.943748 656.901611
   vertex 208.354355 -41.476955 657.080750
   vertex 208.007538 -41.943748 656.895508
  endloop
 endfacet

 facet normal 0.016281 0.358334 -0.933452
  outer loop
   vertex 208.007538 -41.943748 656.895508
   vertex 208.354355 -41.476955 657.080750
   vertex 208.357483 -41.943748 656.901611
  endloop
 endfacet

 facet normal 0.006250 -0.933565 -0.358354
  outer loop
   vertex 208.357483 -41.943748 656.901611
   vertex 208.420380 -42.033340 657.136108
   vertex 208.007538 -41.943748 656.895508
  endloop
 endfacet

 facet normal 0.006226 -0.933579 -0.358319
  outer loop
   vertex 208.007538 -41.943748 656.895508
   vertex 208.420380 -42.033340 657.136108
   vertex 208.114471 -42.096054 657.294189
  endloop
 endfacet

 facet normal 0.006228 -0.933580 -0.358316
  outer loop
   vertex 208.114471 -42.096054 657.294189
   vertex 208.420380 -42.033340 657.136108
   vertex 208.600388 -42.098927 657.310120
  endloop
 endfacet

 facet normal 0.006227 -0.933588 -0.358294
  outer loop
   vertex 208.600388 -42.098927 657.310120
   vertex 208.420471 -42.207550 657.590027
   vertex 208.114471 -42.096054 657.294189
  endloop
 endfacet

 facet normal 0.006250 -0.933593 -0.358282
  outer loop
   vertex 208.849258 -42.122932 657.377014
   vertex 208.420471 -42.207550 657.590027
   vertex 208.600388 -42.098927 657.310120
  endloop
 endfacet

 facet normal 0.006244 -0.933588 -0.358293
  outer loop
   vertex 208.843552 -42.248360 657.703735
   vertex 208.420471 -42.207550 657.590027
   vertex 208.849258 -42.122932 657.377014
  endloop
 endfacet

 facet normal 0.006258 -0.933588 -0.358292
  outer loop
   vertex 208.849258 -42.122932 657.377014
   vertex 209.100311 -42.098927 657.318848
   vertex 208.843552 -42.248360 657.703735
  endloop
 endfacet

 facet normal 0.006263 -0.933590 -0.358290
  outer loop
   vertex 208.843552 -42.248360 657.703735
   vertex 209.100311 -42.098927 657.318848
   vertex 209.270355 -42.207550 657.604858
  endloop
 endfacet

 facet normal 0.006317 -0.933578 -0.358318
  outer loop
   vertex 209.270355 -42.207550 657.604858
   vertex 209.100311 -42.098927 657.318848
   vertex 209.286285 -42.033340 657.151245
  endloop
 endfacet

 facet normal 0.006259 -0.933578 -0.358320
  outer loop
   vertex 209.286285 -42.033340 657.151245
   vertex 209.586487 -42.096054 657.319885
   vertex 209.270355 -42.207550 657.604858
  endloop
 endfacet

 facet normal 0.006264 -0.933575 -0.358328
  outer loop
   vertex 209.357330 -41.943748 656.919067
   vertex 209.586487 -42.096054 657.319885
   vertex 209.286285 -42.033340 657.151245
  endloop
 endfacet

 facet normal 0.006250 -0.933578 -0.358320
  outer loop
   vertex 209.707275 -41.943748 656.925171
   vertex 209.586487 -42.096054 657.319885
   vertex 209.357330 -41.943748 656.919067
  endloop
 endfacet

 facet normal 0.006249 -0.933591 -0.358286
  outer loop
   vertex 209.357330 -41.943748 656.919067
   vertex 209.294434 -41.854153 656.684509
   vertex 209.707275 -41.943748 656.925171
  endloop
 endfacet

 facet normal 0.006262 -0.933583 -0.358305
  outer loop
   vertex 209.707275 -41.943748 656.925171
   vertex 209.294434 -41.854153 656.684509
   vertex 209.723572 -41.585377 655.991699
  endloop
 endfacet

 facet normal 0.006234 -0.933578 -0.358321
  outer loop
   vertex 209.723572 -41.585377 655.991699
   vertex 209.294434 -41.854153 656.684509
   vertex 209.114426 -41.788567 656.510498
  endloop
 endfacet

 facet normal 0.006255 -0.933586 -0.358299
  outer loop
   vertex 209.114426 -41.788567 656.510498
   vertex 208.865555 -41.764561 656.443604
   vertex 209.723572 -41.585377 655.991699
  endloop
 endfacet

 facet normal 0.006282 -0.933577 -0.358322
  outer loop
   vertex 194.819748 -41.854153 656.431824
   vertex 195.248886 -41.585377 655.739075
   vertex 195.232590 -41.943745 656.672485
  endloop
 endfacet

 facet normal 0.999848 0.000001 0.017457
  outer loop
   vertex 195.232590 -41.943745 656.672485
   vertex 195.248886 -41.585377 655.739075
   vertex 195.229462 -41.476955 656.851624
  endloop
 endfacet

 facet normal -0.016281 -0.358336 0.933451
  outer loop
   vertex 195.229462 -41.476955 656.851624
   vertex 194.882645 -41.943745 656.666382
   vertex 195.232590 -41.943745 656.672485
  endloop
 endfacet

 facet normal -0.016281 -0.358336 0.933451
  outer loop
   vertex 194.879517 -41.476955 656.845520
   vertex 194.882645 -41.943745 656.666382
   vertex 195.229462 -41.476955 656.851624
  endloop
 endfacet

 facet normal 0.016281 0.358336 -0.933451
  outer loop
   vertex 195.229462 -41.476955 656.851624
   vertex 194.882645 -41.943745 656.666382
   vertex 194.879517 -41.476955 656.845520
  endloop
 endfacet

 facet normal -0.006250 0.933573 0.358332
  outer loop
   vertex 194.879517 -41.476955 656.845520
   vertex 194.808472 -41.566547 657.077698
   vertex 195.229462 -41.476955 656.851624
  endloop
 endfacet

 facet normal -0.006258 0.933578 0.358318
  outer loop
   vertex 195.229462 -41.476955 656.851624
   vertex 194.808472 -41.566547 657.077698
   vertex 195.108688 -41.629261 657.246338
  endloop
 endfacet

 facet normal -0.006235 0.933592 0.358283
  outer loop
   vertex 195.108688 -41.629261 657.246338
   vertex 194.808472 -41.566547 657.077698
   vertex 194.622498 -41.632133 657.245361
  endloop
 endfacet

 facet normal -0.006235 0.933591 0.358286
  outer loop
   vertex 194.622498 -41.632133 657.245361
   vertex 194.792542 -41.740761 657.531372
   vertex 195.108688 -41.629261 657.246338
  endloop
 endfacet

 facet normal -0.006256 0.933587 0.358297
  outer loop
   vertex 194.371445 -41.656139 657.303528
   vertex 194.792542 -41.740761 657.531372
   vertex 194.622498 -41.632133 657.245361
  endloop
 endfacet

 facet normal -0.006259 0.933585 0.358302
  outer loop
   vertex 194.365753 -41.781570 657.630249
   vertex 194.792542 -41.740761 657.531372
   vertex 194.371445 -41.656139 657.303528
  endloop
 endfacet

 facet normal -0.006256 0.933585 0.358302
  outer loop
   vertex 194.371445 -41.656139 657.303528
   vertex 194.122574 -41.632133 657.236633
   vertex 194.365753 -41.781570 657.630249
  endloop
 endfacet

 facet normal -0.006245 0.933587 0.358296
  outer loop
   vertex 194.365753 -41.781570 657.630249
   vertex 194.122574 -41.632133 657.236633
   vertex 193.942673 -41.740761 657.516541
  endloop
 endfacet

 facet normal -0.006221 0.933582 0.358309
  outer loop
   vertex 193.942673 -41.740761 657.516541
   vertex 194.122574 -41.632133 657.236633
   vertex 193.942581 -41.566547 657.062622
  endloop
 endfacet

 facet normal -0.006303 0.933582 0.358309
  outer loop
   vertex 193.942581 -41.566547 657.062622
   vertex 193.636658 -41.629261 657.220642
   vertex 193.942673 -41.740761 657.516541
  endloop
 endfacet

 facet normal -0.006315 0.933590 0.358288
  outer loop
   vertex 193.879669 -41.476955 656.828064
   vertex 193.636658 -41.629261 657.220642
   vertex 193.942581 -41.566547 657.062622
  endloop
 endfacet

 facet normal -0.006250 0.933576 0.358324
  outer loop
   vertex 193.529724 -41.476955 656.821960
   vertex 193.636658 -41.629261 657.220642
   vertex 193.879669 -41.476955 656.828064
  endloop
 endfacet

 facet normal -0.006250 0.933574 0.358331
  outer loop
   vertex 193.879669 -41.476955 656.828064
   vertex 193.950729 -41.387363 656.595886
   vertex 193.529724 -41.476955 656.821960
  endloop
 endfacet

 facet normal -0.006255 0.933577 0.358323
  outer loop
   vertex 193.529724 -41.476955 656.821960
   vertex 193.950729 -41.387363 656.595886
   vertex 193.546021 -41.118587 655.888550
  endloop
 endfacet

 facet normal -0.006216 0.933585 0.358303
  outer loop
   vertex 193.546021 -41.118587 655.888550
   vertex 193.950729 -41.387363 656.595886
   vertex 194.136688 -41.321777 656.428223
  endloop
 endfacet

 facet normal -0.006247 0.933573 0.358333
  outer loop
   vertex 194.136688 -41.321777 656.428223
   vertex 194.387741 -41.297771 656.370056
   vertex 193.546021 -41.118587 655.888550
  endloop
 endfacet

 facet normal 0.012975 -0.667956 -0.744088
  outer loop
   vertex 196.361740 -42.832558 657.385071
   vertex 196.368179 -42.421898 657.016541
   vertex 197.520279 -42.832558 657.405273
  endloop
 endfacet

 facet normal 0.012975 -0.667956 -0.744088
  outer loop
   vertex 197.520279 -42.832558 657.405273
   vertex 196.368179 -42.421898 657.016541
   vertex 197.526718 -42.421898 657.036743
  endloop
 endfacet

 facet normal 0.999847 -0.000002 0.017468
  outer loop
   vertex 197.526718 -42.421898 657.036743
   vertex 197.519455 -41.338547 657.452576
   vertex 197.520279 -42.832558 657.405273
  endloop
 endfacet

 facet normal 0.016277 0.358395 -0.933428
  outer loop
   vertex 196.368179 -42.421898 657.016541
   vertex 197.519455 -41.338547 657.452576
   vertex 197.526718 -42.421898 657.036743
  endloop
 endfacet

 facet normal 0.016277 0.358395 -0.933428
  outer loop
   vertex 196.360916 -41.338547 657.432373
   vertex 197.519455 -41.338547 657.452576
   vertex 196.368179 -42.421898 657.016541
  endloop
 endfacet

 facet normal -0.999848 -0.000011 -0.017436
  outer loop
   vertex 196.368179 -42.421898 657.016541
   vertex 196.351349 -41.279991 657.980957
   vertex 196.360916 -41.338547 657.432373
  endloop
 endfacet

 facet normal 0.001850 0.994353 -0.106105
  outer loop
   vertex 196.360916 -41.338547 657.432373
   vertex 196.351349 -41.279991 657.980957
   vertex 197.519455 -41.338547 657.452576
  endloop
 endfacet

 facet normal 0.001850 0.994353 -0.106105
  outer loop
   vertex 197.519455 -41.338547 657.452576
   vertex 196.351349 -41.279991 657.980957
   vertex 197.509888 -41.279991 658.001160
  endloop
 endfacet

 facet normal 0.999848 -0.000001 0.017437
  outer loop
   vertex 197.509888 -41.279991 658.001160
   vertex 197.520279 -42.832558 657.405273
   vertex 197.519455 -41.338547 657.452576
  endloop
 endfacet

 facet normal 0.999848 -0.000007 0.017455
  outer loop
   vertex 197.497910 -41.797977 658.687073
   vertex 197.520279 -42.832558 657.405273
   vertex 197.509888 -41.279991 658.001160
  endloop
 endfacet

 facet normal 0.999848 0.000006 0.017444
  outer loop
   vertex 197.505341 -42.906631 658.261536
   vertex 197.520279 -42.832558 657.405273
   vertex 197.497910 -41.797977 658.687073
  endloop
 endfacet

 facet normal -0.016277 -0.358390 0.933430
  outer loop
   vertex 197.497910 -41.797977 658.687073
   vertex 196.346802 -42.906631 658.241333
   vertex 197.505341 -42.906631 658.261536
  endloop
 endfacet

 facet normal -0.008579 0.870576 0.491959
  outer loop
   vertex 197.505341 -42.906631 658.261536
   vertex 196.346802 -42.906631 658.241333
   vertex 197.503830 -42.955727 658.348389
  endloop
 endfacet

 facet normal -0.008579 0.870576 0.491959
  outer loop
   vertex 197.503830 -42.955727 658.348389
   vertex 196.346802 -42.906631 658.241333
   vertex 196.345291 -42.955727 658.328186
  endloop
 endfacet

 facet normal -0.016278 -0.358293 0.933467
  outer loop
   vertex 196.345291 -42.955727 658.328186
   vertex 197.504822 -43.104134 658.291443
   vertex 197.503830 -42.955727 658.348389
  endloop
 endfacet

 facet normal -0.016278 -0.358293 0.933467
  outer loop
   vertex 196.346283 -43.104134 658.271240
   vertex 197.504822 -43.104134 658.291443
   vertex 196.345291 -42.955727 658.328186
  endloop
 endfacet

 facet normal -0.004988 -0.958202 0.286051
  outer loop
   vertex 196.348038 -43.134171 658.170654
   vertex 197.504822 -43.104134 658.291443
   vertex 196.346283 -43.104134 658.271240
  endloop
 endfacet

 facet normal -0.999848 -0.000014 -0.017438
  outer loop
   vertex 196.346283 -43.104134 658.271240
   vertex 196.346802 -42.906631 658.241333
   vertex 196.348038 -43.134171 658.170654
  endloop
 endfacet

 facet normal -0.999848 -0.000012 -0.017444
  outer loop
   vertex 196.348038 -43.134171 658.170654
   vertex 196.346802 -42.906631 658.241333
   vertex 196.361740 -42.832558 657.385071
  endloop
 endfacet

 facet normal -0.999848 -0.000007 -0.017444
  outer loop
   vertex 196.361740 -42.832558 657.385071
   vertex 196.346802 -42.906631 658.241333
   vertex 196.339371 -41.797977 658.666809
  endloop
 endfacet

 facet normal -0.999848 0.000008 -0.017456
  outer loop
   vertex 196.339371 -41.797977 658.666809
   vertex 196.351349 -41.279991 657.980957
   vertex 196.361740 -42.832558 657.385071
  endloop
 endfacet

 facet normal -0.999848 0.000008 -0.017456
  outer loop
   vertex 196.337631 -41.581608 658.766541
   vertex 196.351349 -41.279991 657.980957
   vertex 196.339371 -41.797977 658.666809
  endloop
 endfacet

 facet normal -0.006249 0.933575 0.358327
  outer loop
   vertex 197.509888 -41.279991 658.001160
   vertex 196.351349 -41.279991 657.980957
   vertex 196.337631 -41.581608 658.766541
  endloop
 endfacet

 facet normal -0.006267 0.933584 0.358303
  outer loop
   vertex 196.337631 -41.581608 658.766541
   vertex 197.496170 -41.581608 658.786804
   vertex 197.509888 -41.279991 658.001160
  endloop
 endfacet

 facet normal 0.999848 -0.000007 0.017455
  outer loop
   vertex 197.509888 -41.279991 658.001160
   vertex 197.496170 -41.581608 658.786804
   vertex 197.497910 -41.797977 658.687073
  endloop
 endfacet

 facet normal 0.999849 0.000027 0.017380
  outer loop
   vertex 197.497910 -41.797977 658.687073
   vertex 197.496170 -41.581608 658.786804
   vertex 197.495224 -41.671211 658.841370
  endloop
 endfacet

 facet normal 0.999849 0.000007 0.017397
  outer loop
   vertex 197.495224 -41.671211 658.841370
   vertex 197.496216 -41.819618 658.784424
   vertex 197.497910 -41.797977 658.687073
  endloop
 endfacet

 facet normal -0.016278 -0.358293 0.933467
  outer loop
   vertex 196.337677 -41.819618 658.764221
   vertex 197.496216 -41.819618 658.784424
   vertex 197.495224 -41.671211 658.841370
  endloop
 endfacet

 facet normal 0.003783 -0.976179 -0.216935
  outer loop
   vertex 197.497910 -41.797977 658.687073
   vertex 197.496216 -41.819618 658.784424
   vertex 196.337677 -41.819618 658.764221
  endloop
 endfacet

 facet normal 0.003792 -0.976207 -0.216805
  outer loop
   vertex 196.337677 -41.819618 658.764221
   vertex 196.339371 -41.797977 658.666809
   vertex 197.497910 -41.797977 658.687073
  endloop
 endfacet

 facet normal -0.016327 -0.358345 0.933447
  outer loop
   vertex 197.497910 -41.797977 658.687073
   vertex 196.339371 -41.797977 658.666809
   vertex 196.346802 -42.906631 658.241333
  endloop
 endfacet

 facet normal 0.001856 0.994355 -0.106086
  outer loop
   vertex 206.843796 -41.279995 658.164124
   vertex 206.853378 -41.338547 657.615479
   vertex 205.685257 -41.279995 658.143860
  endloop
 endfacet

 facet normal 0.001850 0.994354 -0.106098
  outer loop
   vertex 205.685257 -41.279995 658.143860
   vertex 206.853378 -41.338547 657.615479
   vertex 205.694839 -41.338547 657.595276
  endloop
 endfacet

 facet normal -0.999847 -0.000001 -0.017465
  outer loop
   vertex 205.694839 -41.338547 657.595276
   vertex 205.702103 -42.421898 657.179504
   vertex 205.685257 -41.279995 658.143860
  endloop
 endfacet

 facet normal 0.016277 0.358349 -0.933446
  outer loop
   vertex 206.853378 -41.338547 657.615479
   vertex 205.702103 -42.421898 657.179504
   vertex 205.694839 -41.338547 657.595276
  endloop
 endfacet

 facet normal 0.016277 0.358349 -0.933446
  outer loop
   vertex 206.860641 -42.421898 657.199707
   vertex 205.702103 -42.421898 657.179504
   vertex 206.853378 -41.338547 657.615479
  endloop
 endfacet

 facet normal 0.999847 -0.000001 0.017469
  outer loop
   vertex 206.853378 -41.338547 657.615479
   vertex 206.854202 -42.832558 657.568237
   vertex 206.860641 -42.421898 657.199707
  endloop
 endfacet

 facet normal 0.012975 -0.667956 -0.744088
  outer loop
   vertex 206.860641 -42.421898 657.199707
   vertex 206.854202 -42.832558 657.568237
   vertex 205.702103 -42.421898 657.179504
  endloop
 endfacet

 facet normal 0.013016 -0.667894 -0.744142
  outer loop
   vertex 205.702103 -42.421898 657.179504
   vertex 206.854202 -42.832558 657.568237
   vertex 205.695663 -42.832558 657.547974
  endloop
 endfacet

 facet normal -0.999847 0.000003 -0.017469
  outer loop
   vertex 205.695663 -42.832558 657.547974
   vertex 205.685257 -41.279995 658.143860
   vertex 205.702103 -42.421898 657.179504
  endloop
 endfacet

 facet normal -0.999848 -0.000000 -0.017461
  outer loop
   vertex 205.680710 -42.906631 658.404236
   vertex 205.685257 -41.279995 658.143860
   vertex 205.695663 -42.832558 657.547974
  endloop
 endfacet

 facet normal -0.999848 0.000004 -0.017435
  outer loop
   vertex 205.673294 -41.797981 658.829773
   vertex 205.685257 -41.279995 658.143860
   vertex 205.680710 -42.906631 658.404236
  endloop
 endfacet

 facet normal -0.016277 -0.358391 0.933430
  outer loop
   vertex 205.680710 -42.906631 658.404236
   vertex 206.831833 -41.797981 658.849976
   vertex 205.673294 -41.797981 658.829773
  endloop
 endfacet

 facet normal 0.003782 -0.976187 -0.216898
  outer loop
   vertex 205.673294 -41.797981 658.829773
   vertex 206.831833 -41.797981 658.849976
   vertex 205.671585 -41.819618 658.927124
  endloop
 endfacet

 facet normal 0.003791 -0.976216 -0.216768
  outer loop
   vertex 205.671585 -41.819618 658.927124
   vertex 206.831833 -41.797981 658.849976
   vertex 206.830124 -41.819618 658.947388
  endloop
 endfacet

 facet normal -0.016325 -0.358628 0.933338
  outer loop
   vertex 206.830124 -41.819618 658.947388
   vertex 205.670593 -41.671211 658.984131
   vertex 205.671585 -41.819618 658.927124
  endloop
 endfacet

 facet normal -0.016278 -0.358293 0.933467
  outer loop
   vertex 206.829132 -41.671211 659.004333
   vertex 205.670593 -41.671211 658.984131
   vertex 206.830124 -41.819618 658.947388
  endloop
 endfacet

 facet normal -0.014886 0.520598 0.853672
  outer loop
   vertex 206.830093 -41.581608 658.949707
   vertex 205.670593 -41.671211 658.984131
   vertex 206.829132 -41.671211 659.004333
  endloop
 endfacet

 facet normal 0.999846 -0.000041 0.017528
  outer loop
   vertex 206.829132 -41.671211 659.004333
   vertex 206.831833 -41.797981 658.849976
   vertex 206.830093 -41.581608 658.949707
  endloop
 endfacet

 facet normal 0.999848 -0.000000 0.017440
  outer loop
   vertex 206.830093 -41.581608 658.949707
   vertex 206.831833 -41.797981 658.849976
   vertex 206.843796 -41.279995 658.164124
  endloop
 endfacet

 facet normal 0.999848 -0.000004 0.017437
  outer loop
   vertex 206.843796 -41.279995 658.164124
   vertex 206.831833 -41.797981 658.849976
   vertex 206.839249 -42.906631 658.424500
  endloop
 endfacet

 facet normal 0.999848 0.000000 0.017461
  outer loop
   vertex 206.839249 -42.906631 658.424500
   vertex 206.854202 -42.832558 657.568237
   vertex 206.843796 -41.279995 658.164124
  endloop
 endfacet

 facet normal 0.999848 0.000007 0.017462
  outer loop
   vertex 206.840485 -43.134171 658.353821
   vertex 206.854202 -42.832558 657.568237
   vertex 206.839249 -42.906631 658.424500
  endloop
 endfacet

 facet normal 0.006267 -0.933577 -0.358323
  outer loop
   vertex 205.695663 -42.832558 657.547974
   vertex 206.854202 -42.832558 657.568237
   vertex 206.840485 -43.134171 658.353821
  endloop
 endfacet

 facet normal 0.006248 -0.933586 -0.358299
  outer loop
   vertex 206.840485 -43.134171 658.353821
   vertex 205.681946 -43.134171 658.333618
   vertex 205.695663 -42.832558 657.547974
  endloop
 endfacet

 facet normal -0.999848 -0.000012 -0.017462
  outer loop
   vertex 205.695663 -42.832558 657.547974
   vertex 205.681946 -43.134171 658.333618
   vertex 205.680710 -42.906631 658.404236
  endloop
 endfacet

 facet normal -0.999848 -0.000016 -0.017449
  outer loop
   vertex 205.680710 -42.906631 658.404236
   vertex 205.681946 -43.134171 658.333618
   vertex 205.680191 -43.104134 658.434143
  endloop
 endfacet

 facet normal -0.999849 -0.000008 -0.017394
  outer loop
   vertex 205.680191 -43.104134 658.434143
   vertex 205.679199 -42.955730 658.491089
   vertex 205.680710 -42.906631 658.404236
  endloop
 endfacet

 facet normal -0.016327 -0.358301 0.933463
  outer loop
   vertex 206.837738 -42.955730 658.511353
   vertex 205.679199 -42.955730 658.491089
   vertex 205.680191 -43.104134 658.434143
  endloop
 endfacet

 facet normal -0.008605 0.870560 0.491987
  outer loop
   vertex 205.680710 -42.906631 658.404236
   vertex 205.679199 -42.955730 658.491089
   vertex 206.837738 -42.955730 658.511353
  endloop
 endfacet

 facet normal -0.008605 0.870560 0.491987
  outer loop
   vertex 206.837738 -42.955730 658.511353
   vertex 206.839249 -42.906631 658.424500
   vertex 205.680710 -42.906631 658.404236
  endloop
 endfacet

 facet normal -0.016327 -0.358346 0.933446
  outer loop
   vertex 205.680710 -42.906631 658.404236
   vertex 206.839249 -42.906631 658.424500
   vertex 206.831833 -41.797981 658.849976
  endloop
 endfacet

 facet normal 0.006250 -0.933573 -0.358332
  outer loop
   vertex 194.882645 -41.943745 656.666382
   vertex 195.232590 -41.943745 656.672485
   vertex 194.811600 -42.033337 656.898560
  endloop
 endfacet

 facet normal 0.006252 -0.933575 -0.358328
  outer loop
   vertex 194.811600 -42.033337 656.898560
   vertex 195.232590 -41.943745 656.672485
   vertex 195.111801 -42.096054 657.067200
  endloop
 endfacet

 facet normal 0.006228 -0.933590 -0.358290
  outer loop
   vertex 195.111801 -42.096054 657.067200
   vertex 194.625626 -42.098923 657.066223
   vertex 194.811600 -42.033337 656.898560
  endloop
 endfacet

 facet normal 0.006228 -0.933567 -0.358349
  outer loop
   vertex 194.795670 -42.207550 657.352173
   vertex 194.625626 -42.098923 657.066223
   vertex 195.111801 -42.096054 657.067200
  endloop
 endfacet

 facet normal 0.006241 -0.933564 -0.358356
  outer loop
   vertex 194.374573 -42.122929 657.124390
   vertex 194.625626 -42.098923 657.066223
   vertex 194.795670 -42.207550 657.352173
  endloop
 endfacet

 facet normal 0.006244 -0.933562 -0.358361
  outer loop
   vertex 194.795670 -42.207550 657.352173
   vertex 194.368881 -42.248360 657.451050
   vertex 194.374573 -42.122929 657.124390
  endloop
 endfacet

 facet normal 0.006274 -0.933562 -0.358360
  outer loop
   vertex 194.374573 -42.122929 657.124390
   vertex 194.368881 -42.248360 657.451050
   vertex 194.125702 -42.098923 657.057495
  endloop
 endfacet

 facet normal 0.006262 -0.933565 -0.358354
  outer loop
   vertex 194.125702 -42.098923 657.057495
   vertex 194.368881 -42.248360 657.451050
   vertex 193.945801 -42.207550 657.337341
  endloop
 endfacet

 facet normal 0.006343 -0.933582 -0.358309
  outer loop
   vertex 193.945801 -42.207550 657.337341
   vertex 193.945709 -42.033337 656.883423
   vertex 194.125702 -42.098923 657.057495
  endloop
 endfacet

 facet normal 0.006243 -0.933582 -0.358309
  outer loop
   vertex 193.639786 -42.096054 657.041504
   vertex 193.945709 -42.033337 656.883423
   vertex 193.945801 -42.207550 657.337341
  endloop
 endfacet

 facet normal 0.006220 -0.933567 -0.358348
  outer loop
   vertex 193.882797 -41.943745 656.648926
   vertex 193.945709 -42.033337 656.883423
   vertex 193.639786 -42.096054 657.041504
  endloop
 endfacet

 facet normal 0.006250 -0.933573 -0.358332
  outer loop
   vertex 193.639786 -42.096054 657.041504
   vertex 193.532852 -41.943745 656.642822
   vertex 193.882797 -41.943745 656.648926
  endloop
 endfacet

 facet normal 0.006250 -0.933574 -0.358331
  outer loop
   vertex 193.882797 -41.943745 656.648926
   vertex 193.532852 -41.943745 656.642822
   vertex 193.953857 -41.854153 656.416748
  endloop
 endfacet

 facet normal 0.006268 -0.933585 -0.358302
  outer loop
   vertex 193.953857 -41.854153 656.416748
   vertex 193.532852 -41.943745 656.642822
   vertex 193.549149 -41.585377 655.709351
  endloop
 endfacet

 facet normal 0.006234 -0.933591 -0.358285
  outer loop
   vertex 193.549149 -41.585377 655.709351
   vertex 194.139816 -41.788567 656.249084
   vertex 193.953857 -41.854153 656.416748
  endloop
 endfacet

 facet normal 0.006254 -0.933584 -0.358304
  outer loop
   vertex 194.390869 -41.764561 656.190918
   vertex 194.139816 -41.788567 656.249084
   vertex 193.549149 -41.585377 655.709351
  endloop
 endfacet

 facet normal -0.006249 0.933596 0.358273
  outer loop
   vertex 208.354355 -41.476955 657.080750
   vertex 208.004410 -41.476955 657.074646
   vertex 208.417252 -41.566547 657.315308
  endloop
 endfacet

 facet normal -0.006295 0.933569 0.358342
  outer loop
   vertex 208.417252 -41.566547 657.315308
   vertex 208.004410 -41.476955 657.074646
   vertex 208.111343 -41.629265 657.473328
  endloop
 endfacet

 facet normal -0.006282 0.933561 0.358364
  outer loop
   vertex 208.111343 -41.629265 657.473328
   vertex 208.597260 -41.632133 657.489319
   vertex 208.417252 -41.566547 657.315308
  endloop
 endfacet

 facet normal -0.006281 0.933569 0.358343
  outer loop
   vertex 208.417343 -41.740761 657.769165
   vertex 208.597260 -41.632133 657.489319
   vertex 208.111343 -41.629265 657.473328
  endloop
 endfacet

 facet normal -0.006270 0.933567 0.358349
  outer loop
   vertex 208.846130 -41.656139 657.556213
   vertex 208.597260 -41.632133 657.489319
   vertex 208.417343 -41.740761 657.769165
  endloop
 endfacet

 facet normal -0.006264 0.933562 0.358360
  outer loop
   vertex 208.417343 -41.740761 657.769165
   vertex 208.840424 -41.781570 657.882874
   vertex 208.846130 -41.656139 657.556213
  endloop
 endfacet

 facet normal -0.006239 0.933562 0.358361
  outer loop
   vertex 208.846130 -41.656139 657.556213
   vertex 208.840424 -41.781570 657.882874
   vertex 209.097183 -41.632133 657.498047
  endloop
 endfacet

 facet normal -0.006244 0.933563 0.358358
  outer loop
   vertex 209.097183 -41.632133 657.498047
   vertex 208.840424 -41.781570 657.882874
   vertex 209.267227 -41.740761 657.783997
  endloop
 endfacet

 facet normal -0.006188 0.933575 0.358329
  outer loop
   vertex 209.267227 -41.740761 657.783997
   vertex 209.283157 -41.566547 657.330383
   vertex 209.097183 -41.632133 657.498047
  endloop
 endfacet

 facet normal -0.006252 0.933575 0.358327
  outer loop
   vertex 209.583359 -41.629265 657.499023
   vertex 209.283157 -41.566547 657.330383
   vertex 209.267227 -41.740761 657.783997
  endloop
 endfacet

 facet normal -0.006254 0.933574 0.358331
  outer loop
   vertex 209.354202 -41.476955 657.098206
   vertex 209.283157 -41.566547 657.330383
   vertex 209.583359 -41.629265 657.499023
  endloop
 endfacet

 facet normal -0.006250 0.933575 0.358328
  outer loop
   vertex 209.583359 -41.629265 657.499023
   vertex 209.704147 -41.476955 657.104309
   vertex 209.354202 -41.476955 657.098206
  endloop
 endfacet

 facet normal -0.006249 0.933596 0.358273
  outer loop
   vertex 209.354202 -41.476955 657.098206
   vertex 209.704147 -41.476955 657.104309
   vertex 209.291306 -41.387363 656.863647
  endloop
 endfacet

 facet normal -0.006282 0.933577 0.358322
  outer loop
   vertex 209.291306 -41.387363 656.863647
   vertex 209.704147 -41.476955 657.104309
   vertex 209.720444 -41.118587 656.170898
  endloop
 endfacet

 facet normal -0.006253 0.933571 0.358338
  outer loop
   vertex 209.720444 -41.118587 656.170898
   vertex 209.111298 -41.321777 656.689636
   vertex 209.291306 -41.387363 656.863647
  endloop
 endfacet

 facet normal -0.006263 0.933575 0.358327
  outer loop
   vertex 208.862427 -41.297771 656.622742
   vertex 209.111298 -41.321777 656.689636
   vertex 209.720444 -41.118587 656.170898
  endloop
 endfacet

 facet normal -0.006254 0.933569 0.358343
  outer loop
   vertex 193.546021 -41.118587 655.888550
   vertex 194.387741 -41.297771 656.370056
   vertex 195.245758 -41.118587 655.918213
  endloop
 endfacet

 facet normal -0.006263 0.933575 0.358327
  outer loop
   vertex 195.245758 -41.118587 655.918213
   vertex 194.387741 -41.297771 656.370056
   vertex 194.636612 -41.321777 656.436951
  endloop
 endfacet

 facet normal -0.006310 0.933593 0.358279
  outer loop
   vertex 194.636612 -41.321777 656.436951
   vertex 194.816620 -41.387363 656.611023
   vertex 195.245758 -41.118587 655.918213
  endloop
 endfacet

 facet normal -0.006234 0.933592 0.358285
  outer loop
   vertex 208.425400 -41.387363 656.848572
   vertex 208.611374 -41.321777 656.680908
   vertex 208.020706 -41.118587 656.141174
  endloop
 endfacet

 facet normal -0.006254 0.933584 0.358304
  outer loop
   vertex 208.020706 -41.118587 656.141174
   vertex 208.611374 -41.321777 656.680908
   vertex 208.862427 -41.297771 656.622742
  endloop
 endfacet

 facet normal -0.006266 0.933577 0.358322
  outer loop
   vertex 208.862427 -41.297771 656.622742
   vertex 209.720444 -41.118587 656.170898
   vertex 208.020706 -41.118587 656.141174
  endloop
 endfacet

 facet normal 0.006253 -0.933585 -0.358302
  outer loop
   vertex 209.723572 -41.585377 655.991699
   vertex 208.865555 -41.764561 656.443604
   vertex 208.023834 -41.585377 655.962036
  endloop
 endfacet

 facet normal 0.006254 -0.933584 -0.358304
  outer loop
   vertex 208.023834 -41.585377 655.962036
   vertex 208.865555 -41.764561 656.443604
   vertex 208.614502 -41.788567 656.501770
  endloop
 endfacet

 facet normal 0.006293 -0.933570 -0.358341
  outer loop
   vertex 208.614502 -41.788567 656.501770
   vertex 208.428528 -41.854153 656.669373
   vertex 208.023834 -41.585377 655.962036
  endloop
 endfacet

 facet normal 0.006253 -0.933571 -0.358338
  outer loop
   vertex 194.819748 -41.854153 656.431824
   vertex 194.639740 -41.788567 656.257812
   vertex 195.248886 -41.585377 655.739075
  endloop
 endfacet

 facet normal 0.006263 -0.933575 -0.358327
  outer loop
   vertex 195.248886 -41.585377 655.739075
   vertex 194.639740 -41.788567 656.257812
   vertex 194.390869 -41.764561 656.190918
  endloop
 endfacet

 facet normal 0.006266 -0.933577 -0.358322
  outer loop
   vertex 194.390869 -41.764561 656.190918
   vertex 193.549149 -41.585377 655.709351
   vertex 195.248886 -41.585377 655.739075
  endloop
 endfacet

 facet normal -0.004991 -0.958154 0.286210
  outer loop
   vertex 206.840485 -43.134171 658.353821
   vertex 206.838730 -43.104134 658.454346
   vertex 205.681946 -43.134171 658.333618
  endloop
 endfacet

 facet normal -0.004991 -0.958154 0.286210
  outer loop
   vertex 205.681946 -43.134171 658.333618
   vertex 206.838730 -43.104134 658.454346
   vertex 205.680191 -43.104134 658.434143
  endloop
 endfacet

 facet normal -0.006254 0.933579 0.358316
  outer loop
   vertex 196.597260 -41.389423 658.046997
   vertex 196.587250 -41.609295 658.619690
   vertex 206.595734 -41.389423 658.221497
  endloop
 endfacet

 facet normal -0.006254 0.933579 0.358316
  outer loop
   vertex 206.595734 -41.389423 658.221497
   vertex 196.587250 -41.609295 658.619690
   vertex 206.585739 -41.609295 658.794189
  endloop
 endfacet

 facet normal -0.014891 0.520172 0.853931
  outer loop
   vertex 197.495224 -41.671211 658.841370
   vertex 197.496170 -41.581608 658.786804
   vertex 196.336685 -41.671211 658.821167
  endloop
 endfacet

 facet normal -0.014931 0.520596 0.853672
  outer loop
   vertex 196.336685 -41.671211 658.821167
   vertex 197.496170 -41.581608 658.786804
   vertex 196.337631 -41.581608 658.766541
  endloop
 endfacet

 facet normal -0.016281 -0.358224 0.933494
  outer loop
   vertex 209.357330 -41.943748 656.919067
   vertex 209.707275 -41.943748 656.925171
   vertex 209.530746 -41.710350 657.011658
  endloop
 endfacet

 facet normal 0.999848 -0.000001 0.017463
  outer loop
   vertex 206.843796 -41.279995 658.164124
   vertex 206.854202 -42.832558 657.568237
   vertex 206.853378 -41.338547 657.615479
  endloop
 endfacet

 facet normal -0.006250 0.933573 0.358332
  outer loop
   vertex 208.004410 -41.476955 657.074646
   vertex 208.354355 -41.476955 657.080750
   vertex 208.425400 -41.387363 656.848572
  endloop
 endfacet

 facet normal -0.006250 0.933565 0.358354
  outer loop
   vertex 194.879517 -41.476955 656.845520
   vertex 195.229462 -41.476955 656.851624
   vertex 194.816620 -41.387363 656.611023
  endloop
 endfacet

 facet normal 0.016281 0.358334 -0.933452
  outer loop
   vertex 209.707275 -41.943748 656.925171
   vertex 209.354202 -41.476955 657.098206
   vertex 209.704147 -41.476955 657.104309
  endloop
 endfacet

 facet normal 0.006251 -0.933580 -0.358314
  outer loop
   vertex 196.611969 -42.451187 657.160583
   vertex 194.964066 -42.451187 657.131836
   vertex 194.989182 -41.898922 655.693359
  endloop
 endfacet

 facet normal -0.006251 0.933580 0.358314
  outer loop
   vertex 206.630096 -40.858040 656.296204
   vertex 206.604980 -41.410305 657.734680
   vertex 208.278000 -40.858040 656.324951
  endloop
 endfacet

 facet normal 0.016281 0.358336 -0.933451
  outer loop
   vertex 193.529724 -41.476955 656.821960
   vertex 193.882797 -41.943745 656.648926
   vertex 193.532852 -41.943745 656.642822
  endloop
 endfacet

 facet normal -0.999849 -0.000008 -0.017394
  outer loop
   vertex 196.346283 -43.104134 658.271240
   vertex 196.345291 -42.955727 658.328186
   vertex 196.346802 -42.906631 658.241333
  endloop
 endfacet

 facet normal 0.016281 0.358334 -0.933452
  outer loop
   vertex 208.354355 -41.476955 657.080750
   vertex 208.007538 -41.943748 656.895508
   vertex 208.004410 -41.476955 657.074646
  endloop
 endfacet

 facet normal -0.999848 0.000009 -0.017460
  outer loop
   vertex 196.361740 -42.832558 657.385071
   vertex 196.351349 -41.279991 657.980957
   vertex 196.368179 -42.421898 657.016541
  endloop
 endfacet

 facet normal 0.999846 -0.000045 0.017531
  outer loop
   vertex 206.829132 -41.671211 659.004333
   vertex 206.830124 -41.819618 658.947388
   vertex 206.831833 -41.797981 658.849976
  endloop
 endfacet

 facet normal 0.006264 -0.933580 -0.358314
  outer loop
   vertex 206.611954 -42.451187 657.335144
   vertex 206.637070 -41.898922 655.896667
   vertex 208.284973 -41.898922 655.925476
  endloop
 endfacet

 facet normal 0.999848 -0.000002 0.017457
  outer loop
   vertex 196.637085 -41.898922 655.722107
   vertex 196.630112 -40.858040 656.121643
   vertex 196.604996 -41.410305 657.560120
  endloop
 endfacet

 facet normal 0.016281 0.358336 -0.933451
  outer loop
   vertex 194.882645 -41.943745 656.666382
   vertex 195.229462 -41.476955 656.851624
   vertex 195.232590 -41.943745 656.672485
  endloop
 endfacet

 facet normal 0.006249 -0.933596 -0.358273
  outer loop
   vertex 195.232590 -41.943745 656.672485
   vertex 194.882645 -41.943745 656.666382
   vertex 194.819748 -41.854153 656.431824
  endloop
 endfacet

 facet normal -0.718593 -0.253357 0.647637
  outer loop
   vertex 194.639740 -41.788567 656.257812
   vertex 194.816620 -41.387363 656.611023
   vertex 194.636612 -41.321777 656.436951
  endloop
 endfacet

 facet normal -0.274527 -0.346126 0.897124
  outer loop
   vertex 194.639740 -41.788567 656.257812
   vertex 194.636612 -41.321777 656.436951
   vertex 194.390869 -41.764561 656.190918
  endloop
 endfacet

 facet normal -0.274527 -0.346126 0.897124
  outer loop
   vertex 194.390869 -41.764561 656.190918
   vertex 194.636612 -41.321777 656.436951
   vertex 194.387741 -41.297771 656.370056
  endloop
 endfacet

 facet normal 0.243045 -0.346125 0.906160
  outer loop
   vertex 194.387741 -41.297771 656.370056
   vertex 194.139816 -41.788567 656.249084
   vertex 194.390869 -41.764561 656.190918
  endloop
 endfacet

 facet normal 0.243045 -0.346125 0.906160
  outer loop
   vertex 194.136688 -41.321777 656.428223
   vertex 194.139816 -41.788567 656.249084
   vertex 194.387741 -41.297771 656.370056
  endloop
 endfacet

 facet normal 0.695543 -0.253358 0.672332
  outer loop
   vertex 193.953857 -41.854153 656.416748
   vertex 194.139816 -41.788567 656.249084
   vertex 194.136688 -41.321777 656.428223
  endloop
 endfacet

 facet normal 0.695543 -0.253358 0.672332
  outer loop
   vertex 194.136688 -41.321777 656.428223
   vertex 193.950729 -41.387363 656.595886
   vertex 193.953857 -41.854153 656.416748
  endloop
 endfacet

 facet normal 0.961548 -0.092759 0.258497
  outer loop
   vertex 193.953857 -41.854153 656.416748
   vertex 193.950729 -41.387363 656.595886
   vertex 193.882797 -41.943745 656.648926
  endloop
 endfacet

 facet normal -0.970009 -0.092727 0.224688
  outer loop
   vertex 209.357330 -41.943748 656.919067
   vertex 209.354202 -41.476955 657.098206
   vertex 209.294434 -41.854153 656.684509
  endloop
 endfacet

 facet normal -0.970008 -0.092728 0.224689
  outer loop
   vertex 209.294434 -41.854153 656.684509
   vertex 209.354202 -41.476955 657.098206
   vertex 209.291306 -41.387363 656.863647
  endloop
 endfacet

 facet normal -0.718487 -0.253396 0.647740
  outer loop
   vertex 209.291306 -41.387363 656.863647
   vertex 209.114426 -41.788567 656.510498
   vertex 209.294434 -41.854153 656.684509
  endloop
 endfacet

 facet normal -0.718487 -0.253396 0.647740
  outer loop
   vertex 209.111298 -41.321777 656.689636
   vertex 209.114426 -41.788567 656.510498
   vertex 209.291306 -41.387363 656.863647
  endloop
 endfacet

 facet normal -0.274527 -0.346126 0.897124
  outer loop
   vertex 208.865555 -41.764561 656.443604
   vertex 209.114426 -41.788567 656.510498
   vertex 209.111298 -41.321777 656.689636
  endloop
 endfacet

 facet normal -0.274527 -0.346126 0.897124
  outer loop
   vertex 209.111298 -41.321777 656.689636
   vertex 208.862427 -41.297771 656.622742
   vertex 208.865555 -41.764561 656.443604
  endloop
 endfacet

 facet normal 0.243045 -0.346125 0.906160
  outer loop
   vertex 208.865555 -41.764561 656.443604
   vertex 208.862427 -41.297771 656.622742
   vertex 208.614502 -41.788567 656.501770
  endloop
 endfacet

 facet normal 0.243045 -0.346125 0.906160
  outer loop
   vertex 208.614502 -41.788567 656.501770
   vertex 208.862427 -41.297771 656.622742
   vertex 208.611374 -41.321777 656.680908
  endloop
 endfacet

 facet normal 0.695399 -0.253408 0.672461
  outer loop
   vertex 208.611374 -41.321777 656.680908
   vertex 208.428528 -41.854153 656.669373
   vertex 208.614502 -41.788567 656.501770
  endloop
 endfacet

 facet normal 0.961559 -0.092746 0.258463
  outer loop
   vertex 195.232590 -41.943745 656.672485
   vertex 195.229462 -41.476955 656.851624
   vertex 195.111801 -42.096054 657.067200
  endloop
 endfacet

 facet normal 0.961568 -0.092762 0.258424
  outer loop
   vertex 195.111801 -42.096054 657.067200
   vertex 195.229462 -41.476955 656.851624
   vertex 195.108688 -41.629261 657.246338
  endloop
 endfacet

 facet normal 0.695481 -0.253398 0.672381
  outer loop
   vertex 195.108688 -41.629261 657.246338
   vertex 194.795670 -42.207550 657.352173
   vertex 195.111801 -42.096054 657.067200
  endloop
 endfacet

 facet normal 0.695532 -0.253438 0.672312
  outer loop
   vertex 194.792542 -41.740761 657.531372
   vertex 194.795670 -42.207550 657.352173
   vertex 195.108688 -41.629261 657.246338
  endloop
 endfacet

 facet normal 0.243034 -0.346230 0.906123
  outer loop
   vertex 194.368881 -42.248360 657.451050
   vertex 194.795670 -42.207550 657.352173
   vertex 194.792542 -41.740761 657.531372
  endloop
 endfacet

 facet normal 0.243034 -0.346230 0.906123
  outer loop
   vertex 194.792542 -41.740761 657.531372
   vertex 194.365753 -41.781570 657.630249
   vertex 194.368881 -42.248360 657.451050
  endloop
 endfacet

 facet normal -0.274502 -0.346231 0.897091
  outer loop
   vertex 194.368881 -42.248360 657.451050
   vertex 194.365753 -41.781570 657.630249
   vertex 193.945801 -42.207550 657.337341
  endloop
 endfacet

 facet normal -0.274502 -0.346231 0.897091
  outer loop
   vertex 193.945801 -42.207550 657.337341
   vertex 194.365753 -41.781570 657.630249
   vertex 193.942673 -41.740761 657.516541
  endloop
 endfacet

 facet normal -0.718503 -0.253464 0.647696
  outer loop
   vertex 193.942673 -41.740761 657.516541
   vertex 193.639786 -42.096054 657.041504
   vertex 193.945801 -42.207550 657.337341
  endloop
 endfacet

 facet normal -0.718568 -0.253365 0.647663
  outer loop
   vertex 193.636658 -41.629261 657.220642
   vertex 193.639786 -42.096054 657.041504
   vertex 193.942673 -41.740761 657.516541
  endloop
 endfacet

 facet normal -0.969995 -0.092746 0.224738
  outer loop
   vertex 193.532852 -41.943745 656.642822
   vertex 193.639786 -42.096054 657.041504
   vertex 193.636658 -41.629261 657.220642
  endloop
 endfacet

 facet normal -0.969995 -0.092747 0.224739
  outer loop
   vertex 193.636658 -41.629261 657.220642
   vertex 193.529724 -41.476955 656.821960
   vertex 193.532852 -41.943745 656.642822
  endloop
 endfacet

 facet normal 0.961558 -0.092746 0.258464
  outer loop
   vertex 209.707275 -41.943748 656.925171
   vertex 209.704147 -41.476955 657.104309
   vertex 209.586487 -42.096054 657.319885
  endloop
 endfacet

 facet normal 0.961559 -0.092746 0.258463
  outer loop
   vertex 209.586487 -42.096054 657.319885
   vertex 209.704147 -41.476955 657.104309
   vertex 209.583359 -41.629265 657.499023
  endloop
 endfacet

 facet normal 0.695480 -0.253380 0.672388
  outer loop
   vertex 209.583359 -41.629265 657.499023
   vertex 209.270355 -42.207550 657.604858
   vertex 209.586487 -42.096054 657.319885
  endloop
 endfacet

 facet normal 0.695480 -0.253380 0.672388
  outer loop
   vertex 209.267227 -41.740761 657.783997
   vertex 209.270355 -42.207550 657.604858
   vertex 209.583359 -41.629265 657.499023
  endloop
 endfacet

 facet normal 0.243025 -0.346127 0.906165
  outer loop
   vertex 208.843552 -42.248360 657.703735
   vertex 209.270355 -42.207550 657.604858
   vertex 209.267227 -41.740761 657.783997
  endloop
 endfacet

 facet normal 0.243025 -0.346127 0.906165
  outer loop
   vertex 209.267227 -41.740761 657.783997
   vertex 208.840424 -41.781570 657.882874
   vertex 208.843552 -42.248360 657.703735
  endloop
 endfacet

 facet normal -0.274503 -0.346128 0.897131
  outer loop
   vertex 208.843552 -42.248360 657.703735
   vertex 208.840424 -41.781570 657.882874
   vertex 208.420471 -42.207550 657.590027
  endloop
 endfacet

 facet normal -0.274503 -0.346128 0.897131
  outer loop
   vertex 208.420471 -42.207550 657.590027
   vertex 208.840424 -41.781570 657.882874
   vertex 208.417343 -41.740761 657.769165
  endloop
 endfacet

 facet normal -0.718521 -0.253383 0.647707
  outer loop
   vertex 208.417343 -41.740761 657.769165
   vertex 208.114471 -42.096054 657.294189
   vertex 208.420471 -42.207550 657.590027
  endloop
 endfacet

 facet normal -0.718521 -0.253383 0.647707
  outer loop
   vertex 208.111343 -41.629265 657.473328
   vertex 208.114471 -42.096054 657.294189
   vertex 208.417343 -41.740761 657.769165
  endloop
 endfacet

 facet normal -0.969995 -0.092747 0.224739
  outer loop
   vertex 208.007538 -41.943748 656.895508
   vertex 208.114471 -42.096054 657.294189
   vertex 208.111343 -41.629265 657.473328
  endloop
 endfacet

 facet normal -0.969995 -0.092746 0.224738
  outer loop
   vertex 208.111343 -41.629265 657.473328
   vertex 208.004410 -41.476955 657.074646
   vertex 208.007538 -41.943748 656.895508
  endloop
 endfacet

 facet normal 0.695514 -0.253445 0.672329
  outer loop
   vertex 208.611374 -41.321777 656.680908
   vertex 208.425400 -41.387363 656.848572
   vertex 208.428528 -41.854153 656.669373
  endloop
 endfacet

 facet normal 0.961564 -0.092769 0.258435
  outer loop
   vertex 208.428528 -41.854153 656.669373
   vertex 208.425400 -41.387363 656.848572
   vertex 208.354355 -41.476955 657.080750
  endloop
 endfacet

 facet normal 0.961581 -0.092717 0.258391
  outer loop
   vertex 208.354355 -41.476955 657.080750
   vertex 208.357483 -41.943748 656.901611
   vertex 208.428528 -41.854153 656.669373
  endloop
 endfacet

 facet normal 0.970008 0.092728 -0.224689
  outer loop
   vertex 208.417252 -41.566547 657.315308
   vertex 208.357483 -41.943748 656.901611
   vertex 208.354355 -41.476955 657.080750
  endloop
 endfacet

 facet normal 0.969995 0.092772 -0.224727
  outer loop
   vertex 208.420380 -42.033340 657.136108
   vertex 208.357483 -41.943748 656.901611
   vertex 208.417252 -41.566547 657.315308
  endloop
 endfacet

 facet normal 0.718486 0.253468 -0.647713
  outer loop
   vertex 208.417252 -41.566547 657.315308
   vertex 208.597260 -41.632133 657.489319
   vertex 208.420380 -42.033340 657.136108
  endloop
 endfacet

 facet normal 0.718486 0.253468 -0.647713
  outer loop
   vertex 208.420380 -42.033340 657.136108
   vertex 208.597260 -41.632133 657.489319
   vertex 208.600388 -42.098927 657.310120
  endloop
 endfacet

 facet normal 0.274526 0.346226 -0.897086
  outer loop
   vertex 208.600388 -42.098927 657.310120
   vertex 208.597260 -41.632133 657.489319
   vertex 208.846130 -41.656139 657.556213
  endloop
 endfacet

 facet normal 0.274526 0.346226 -0.897086
  outer loop
   vertex 208.846130 -41.656139 657.556213
   vertex 208.849258 -42.122932 657.377014
   vertex 208.600388 -42.098927 657.310120
  endloop
 endfacet

 facet normal -0.243046 0.346226 -0.906121
  outer loop
   vertex 209.097183 -41.632133 657.498047
   vertex 208.849258 -42.122932 657.377014
   vertex 208.846130 -41.656139 657.556213
  endloop
 endfacet

 facet normal -0.243046 0.346226 -0.906121
  outer loop
   vertex 209.100311 -42.098927 657.318848
   vertex 208.849258 -42.122932 657.377014
   vertex 209.097183 -41.632133 657.498047
  endloop
 endfacet

 facet normal -0.695514 0.253443 -0.672330
  outer loop
   vertex 209.097183 -41.632133 657.498047
   vertex 209.283157 -41.566547 657.330383
   vertex 209.100311 -42.098927 657.318848
  endloop
 endfacet

 facet normal -0.695399 0.253406 -0.672462
  outer loop
   vertex 209.100311 -42.098927 657.318848
   vertex 209.283157 -41.566547 657.330383
   vertex 209.286285 -42.033340 657.151245
  endloop
 endfacet

 facet normal -0.961564 0.092739 -0.258447
  outer loop
   vertex 209.286285 -42.033340 657.151245
   vertex 209.283157 -41.566547 657.330383
   vertex 209.354202 -41.476955 657.098206
  endloop
 endfacet

 facet normal -0.961564 0.092739 -0.258447
  outer loop
   vertex 209.354202 -41.476955 657.098206
   vertex 209.357330 -41.943748 656.919067
   vertex 209.286285 -42.033340 657.151245
  endloop
 endfacet

 facet normal -0.718486 -0.253470 0.647712
  outer loop
   vertex 194.639740 -41.788567 656.257812
   vertex 194.819748 -41.854153 656.431824
   vertex 194.816620 -41.387363 656.611023
  endloop
 endfacet

 facet normal -0.970008 -0.092754 0.224679
  outer loop
   vertex 194.816620 -41.387363 656.611023
   vertex 194.819748 -41.854153 656.431824
   vertex 194.882645 -41.943745 656.666382
  endloop
 endfacet

 facet normal -0.969996 -0.092747 0.224737
  outer loop
   vertex 194.882645 -41.943745 656.666382
   vertex 194.879517 -41.476955 656.845520
   vertex 194.816620 -41.387363 656.611023
  endloop
 endfacet

 facet normal -0.961564 0.092740 -0.258446
  outer loop
   vertex 194.811600 -42.033337 656.898560
   vertex 194.879517 -41.476955 656.845520
   vertex 194.882645 -41.943745 656.666382
  endloop
 endfacet

 facet normal -0.961564 0.092740 -0.258446
  outer loop
   vertex 194.808472 -41.566547 657.077698
   vertex 194.879517 -41.476955 656.845520
   vertex 194.811600 -42.033337 656.898560
  endloop
 endfacet

 facet normal -0.695513 0.253368 -0.672359
  outer loop
   vertex 194.811600 -42.033337 656.898560
   vertex 194.625626 -42.098923 657.066223
   vertex 194.808472 -41.566547 657.077698
  endloop
 endfacet

 facet normal -0.695513 0.253368 -0.672359
  outer loop
   vertex 194.808472 -41.566547 657.077698
   vertex 194.625626 -42.098923 657.066223
   vertex 194.622498 -41.632133 657.245361
  endloop
 endfacet

 facet normal -0.243045 0.346125 -0.906160
  outer loop
   vertex 194.622498 -41.632133 657.245361
   vertex 194.625626 -42.098923 657.066223
   vertex 194.374573 -42.122929 657.124390
  endloop
 endfacet

 facet normal -0.243045 0.346125 -0.906160
  outer loop
   vertex 194.374573 -42.122929 657.124390
   vertex 194.371445 -41.656139 657.303528
   vertex 194.622498 -41.632133 657.245361
  endloop
 endfacet

 facet normal 0.274527 0.346126 -0.897124
  outer loop
   vertex 194.125702 -42.098923 657.057495
   vertex 194.371445 -41.656139 657.303528
   vertex 194.374573 -42.122929 657.124390
  endloop
 endfacet

 facet normal 0.274527 0.346126 -0.897124
  outer loop
   vertex 194.122574 -41.632133 657.236633
   vertex 194.371445 -41.656139 657.303528
   vertex 194.125702 -42.098923 657.057495
  endloop
 endfacet

 facet normal 0.718622 0.253346 -0.647609
  outer loop
   vertex 194.125702 -42.098923 657.057495
   vertex 193.945709 -42.033337 656.883423
   vertex 194.122574 -41.632133 657.236633
  endloop
 endfacet

 facet normal 0.718516 0.253459 -0.647683
  outer loop
   vertex 194.122574 -41.632133 657.236633
   vertex 193.945709 -42.033337 656.883423
   vertex 193.942581 -41.566547 657.062622
  endloop
 endfacet

 facet normal 0.969981 0.092792 -0.224779
  outer loop
   vertex 193.942581 -41.566547 657.062622
   vertex 193.945709 -42.033337 656.883423
   vertex 193.882797 -41.943745 656.648926
  endloop
 endfacet

 facet normal 0.969994 0.092748 -0.224741
  outer loop
   vertex 193.882797 -41.943745 656.648926
   vertex 193.879669 -41.476955 656.828064
   vertex 193.942581 -41.566547 657.062622
  endloop
 endfacet

 facet normal 0.961548 -0.092759 0.258497
  outer loop
   vertex 193.950729 -41.387363 656.595886
   vertex 193.879669 -41.476955 656.828064
   vertex 193.882797 -41.943745 656.648926
  endloop
 endfacet

endsolid