solid stl file generated from DOUG
 facet normal -0.016920 -0.236791 0.971413
  outer loop
   vertex 234.094025 67.600304 540.862610
   vertex 233.592941 67.600304 540.853882
   vertex 234.095062 67.356850 540.803284
  endloop
 facet normal -0.016920 -0.236791 0.971413
  outer loop
   vertex 234.095062 67.356850 540.803284
   vertex 233.592941 67.600304 540.853882
   vertex 233.593979 67.356850 540.794556
  endloop
 facet normal -0.004888 -0.959801 0.280638
  outer loop
   vertex 233.593979 67.356850 540.794556
   vertex 234.099258 67.286514 540.562805
   vertex 234.095062 67.356850 540.803284
  endloop
 facet normal -0.004888 -0.959801 0.280638
  outer loop
   vertex 233.598175 67.286514 540.554077
   vertex 234.099258 67.286514 540.562805
   vertex 233.593979 67.356850 540.794556
  endloop
 facet normal 0.012032 -0.722994 -0.690750
  outer loop
   vertex 234.102432 67.459641 540.381653
   vertex 234.099258 67.286514 540.562805
   vertex 233.598175 67.286514 540.554077
  endloop
 facet normal 0.012031 -0.722993 -0.690750
  outer loop
   vertex 233.598175 67.286514 540.554077
   vertex 233.601334 67.459641 540.372925
   vertex 234.102432 67.459641 540.381653
  endloop
 facet normal 0.016919 0.237014 -0.971359
  outer loop
   vertex 234.102432 67.459641 540.381653
   vertex 233.601334 67.459641 540.372925
   vertex 234.101395 67.703102 540.441040
  endloop
 facet normal 0.017038 0.236784 -0.971413
  outer loop
   vertex 234.101395 67.703102 540.441040
   vertex 233.601334 67.459641 540.372925
   vertex 233.600296 67.703102 540.432251
  endloop
 facet normal 0.004922 0.959809 -0.280610
  outer loop
   vertex 233.600296 67.703102 540.432251
   vertex 234.097198 67.773430 540.681519
   vertex 234.101395 67.703102 540.441040
  endloop
 facet normal 0.004922 0.959809 -0.280610
  outer loop
   vertex 233.596100 67.773430 540.672729
   vertex 234.097198 67.773430 540.681519
   vertex 233.600296 67.703102 540.432251
  endloop
 facet normal -0.012118 0.722877 0.690870
  outer loop
   vertex 234.094025 67.600304 540.862610
   vertex 234.097198 67.773430 540.681519
   vertex 233.596100 67.773430 540.672729
  endloop
 facet normal -0.012032 0.722993 0.690750
  outer loop
   vertex 233.596100 67.773430 540.672729
   vertex 233.592941 67.600304 540.853882
   vertex 234.094025 67.600304 540.862610
  endloop
 facet normal 0.012031 -0.722993 -0.690750
  outer loop
   vertex 233.231186 73.661034 561.576904
   vertex 233.732285 73.661034 561.585632
   vertex 233.228027 73.487907 561.758057
  endloop
 facet normal 0.012031 -0.722993 -0.690750
  outer loop
   vertex 233.228027 73.487907 561.758057
   vertex 233.732285 73.661034 561.585632
   vertex 233.729126 73.487907 561.766785
  endloop
 facet normal -0.004888 -0.959809 0.280610
  outer loop
   vertex 233.729126 73.487907 561.766785
   vertex 233.223831 73.558235 561.998535
   vertex 233.228027 73.487907 561.758057
  endloop
 facet normal -0.004888 -0.959809 0.280610
  outer loop
   vertex 233.724930 73.558235 562.007263
   vertex 233.223831 73.558235 561.998535
   vertex 233.729126 73.487907 561.766785
  endloop
 facet normal -0.016920 -0.236784 0.971415
  outer loop
   vertex 233.222794 73.801697 562.057861
   vertex 233.223831 73.558235 561.998535
   vertex 233.724930 73.558235 562.007263
  endloop
 facet normal -0.016920 -0.236784 0.971415
  outer loop
   vertex 233.724930 73.558235 562.007263
   vertex 233.723892 73.801697 562.066589
   vertex 233.222794 73.801697 562.057861
  endloop
 facet normal -0.012031 0.722993 0.690750
  outer loop
   vertex 233.222794 73.801697 562.057861
   vertex 233.723892 73.801697 562.066589
   vertex 233.225952 73.974823 561.876709
  endloop
 facet normal -0.012031 0.722993 0.690750
  outer loop
   vertex 233.225952 73.974823 561.876709
   vertex 233.723892 73.801697 562.066589
   vertex 233.727051 73.974823 561.885437
  endloop
 facet normal 0.004888 0.959801 -0.280638
  outer loop
   vertex 233.727051 73.974823 561.885437
   vertex 233.230148 73.904488 561.636230
   vertex 233.225952 73.974823 561.876709
  endloop
 facet normal 0.004888 0.959801 -0.280638
  outer loop
   vertex 233.731247 73.904488 561.644958
   vertex 233.230148 73.904488 561.636230
   vertex 233.727051 73.974823 561.885437
  endloop
 facet normal 0.016920 0.236791 -0.971413
  outer loop
   vertex 233.231186 73.661034 561.576904
   vertex 233.230148 73.904488 561.636230
   vertex 233.731247 73.904488 561.644958
  endloop
 facet normal 0.016920 0.236791 -0.971413
  outer loop
   vertex 233.731247 73.904488 561.644958
   vertex 233.732285 73.661034 561.585632
   vertex 233.231186 73.661034 561.576904
  endloop
 facet normal 0.999848 0.000011 0.017443
  outer loop
   vertex 233.724930 73.558235 562.007263
   vertex 233.729126 73.487907 561.766785
   vertex 233.728088 73.731361 561.826111
  endloop
 facet normal 0.999848 0.000011 0.017443
  outer loop
   vertex 233.728088 73.731361 561.826111
   vertex 233.729126 73.487907 561.766785
   vertex 233.732285 73.661034 561.585632
  endloop
 facet normal 0.999848 0.000011 0.017443
  outer loop
   vertex 233.732285 73.661034 561.585632
   vertex 233.731247 73.904488 561.644958
   vertex 233.728088 73.731361 561.826111
  endloop
 facet normal 0.999847 -0.000011 0.017513
  outer loop
   vertex 234.097198 67.773430 540.681519
   vertex 234.094025 67.600304 540.862610
   vertex 234.098236 67.529976 540.622131
  endloop
 facet normal 0.999847 -0.000006 0.017512
  outer loop
   vertex 234.098236 67.529976 540.622131
   vertex 234.094025 67.600304 540.862610
   vertex 234.095062 67.356850 540.803284
  endloop
 facet normal 0.999848 -0.000057 0.017463
  outer loop
   vertex 234.095062 67.356850 540.803284
   vertex 234.099258 67.286514 540.562805
   vertex 234.098236 67.529976 540.622131
  endloop
 facet normal 0.999848 -0.000057 0.017463
  outer loop
   vertex 234.099258 67.286514 540.562805
   vertex 234.102432 67.459641 540.381653
   vertex 234.098236 67.529976 540.622131
  endloop
 facet normal 0.999848 0.000006 0.017445
  outer loop
   vertex 234.098236 67.529976 540.622131
   vertex 234.102432 67.459641 540.381653
   vertex 234.101395 67.703102 540.441040
  endloop
 facet normal 0.999848 0.000006 0.017445
  outer loop
   vertex 234.101395 67.703102 540.441040
   vertex 234.097198 67.773430 540.681519
   vertex 234.098236 67.529976 540.622131
  endloop
 facet normal 0.999848 0.000011 0.017443
  outer loop
   vertex 233.731247 73.904488 561.644958
   vertex 233.727051 73.974823 561.885437
   vertex 233.728088 73.731361 561.826111
  endloop
 facet normal 0.999848 0.000011 0.017443
  outer loop
   vertex 233.728088 73.731361 561.826111
   vertex 233.727051 73.974823 561.885437
   vertex 233.723892 73.801697 562.066589
  endloop
 facet normal 0.999848 0.000011 0.017443
  outer loop
   vertex 233.723892 73.801697 562.066589
   vertex 233.724930 73.558235 562.007263
   vertex 233.728088 73.731361 561.826111
  endloop
 facet normal 0.999848 0.000004 0.017452
  outer loop
   vertex 232.042419 68.538765 541.809082
   vertex 232.036301 67.338814 542.159912
   vertex 232.092529 67.699181 538.938354
  endloop
 facet normal 0.999848 0.000004 0.017452
  outer loop
   vertex 232.092529 67.699181 538.938354
   vertex 232.036301 67.338814 542.159912
   vertex 232.086411 66.499237 539.289185
  endloop
 facet normal 0.016749 -0.280663 -0.959660
  outer loop
   vertex 232.086411 66.499237 539.289185
   vertex 230.704163 67.699181 538.914124
   vertex 232.092529 67.699181 538.938354
  endloop
 facet normal 0.016749 -0.280664 -0.959660
  outer loop
   vertex 230.698029 66.499237 539.264954
   vertex 230.704163 67.699181 538.914124
   vertex 232.086411 66.499237 539.289185
  endloop
 facet normal -0.999848 0.000008 -0.017455
  outer loop
   vertex 230.647919 67.338814 542.135681
   vertex 230.704163 67.699181 538.914124
   vertex 230.698029 66.499237 539.264954
  endloop
 facet normal -0.004898 -0.959806 0.280621
  outer loop
   vertex 230.698029 66.499237 539.264954
   vertex 232.036301 67.338814 542.159912
   vertex 230.647919 67.338814 542.135681
  endloop
 facet normal -0.016749 0.280662 0.959661
  outer loop
   vertex 230.647919 67.338814 542.135681
   vertex 232.036301 67.338814 542.159912
   vertex 230.654053 68.538765 541.784851
  endloop
 facet normal -0.016749 0.280662 0.959661
  outer loop
   vertex 230.654053 68.538765 541.784851
   vertex 232.036301 67.338814 542.159912
   vertex 232.042419 68.538765 541.809082
  endloop
 facet normal 0.004898 0.959806 -0.280623
  outer loop
   vertex 232.042419 68.538765 541.809082
   vertex 230.704163 67.699181 538.914124
   vertex 230.654053 68.538765 541.784851
  endloop
 facet normal 0.004898 0.959806 -0.280623
  outer loop
   vertex 232.092529 67.699181 538.938354
   vertex 230.704163 67.699181 538.914124
   vertex 232.042419 68.538765 541.809082
  endloop
 facet normal -0.016749 0.280663 0.959660
  outer loop
   vertex 230.282593 74.762100 563.063843
   vertex 230.276474 73.562157 563.414673
   vertex 231.670975 74.762100 563.088074
  endloop
 facet normal -0.016749 0.280664 0.959660
  outer loop
   vertex 231.670975 74.762100 563.088074
   vertex 230.276474 73.562157 563.414673
   vertex 231.664841 73.562157 563.438904
  endloop
 facet normal 0.999848 -0.000008 0.017455
  outer loop
   vertex 231.664841 73.562157 563.438904
   vertex 231.721085 73.922523 560.217346
   vertex 231.670975 74.762100 563.088074
  endloop
 facet normal 0.999848 -0.000008 0.017455
  outer loop
   vertex 231.714951 72.722572 560.568176
   vertex 231.721085 73.922523 560.217346
   vertex 231.664841 73.562157 563.438904
  endloop
 facet normal 0.016749 -0.280662 -0.959661
  outer loop
   vertex 230.326584 72.722572 560.543945
   vertex 231.721085 73.922523 560.217346
   vertex 231.714951 72.722572 560.568176
  endloop
 facet normal -0.004898 -0.959806 0.280623
  outer loop
   vertex 231.714951 72.722572 560.568176
   vertex 230.276474 73.562157 563.414673
   vertex 230.326584 72.722572 560.543945
  endloop
 facet normal -0.999848 -0.000004 -0.017452
  outer loop
   vertex 230.326584 72.722572 560.543945
   vertex 230.276474 73.562157 563.414673
   vertex 230.332703 73.922523 560.193115
  endloop
 facet normal -0.999848 -0.000004 -0.017452
  outer loop
   vertex 230.332703 73.922523 560.193115
   vertex 230.276474 73.562157 563.414673
   vertex 230.282593 74.762100 563.063843
  endloop
 facet normal 0.004898 0.959806 -0.280621
  outer loop
   vertex 230.282593 74.762100 563.063843
   vertex 231.721085 73.922523 560.217346
   vertex 230.332703 73.922523 560.193115
  endloop
 facet normal 0.004898 0.959806 -0.280621
  outer loop
   vertex 231.670975 74.762100 563.088074
   vertex 231.721085 73.922523 560.217346
   vertex 230.282593 74.762100 563.063843
  endloop
 facet normal -0.004898 -0.959806 0.280623
  outer loop
   vertex 231.714951 72.722572 560.568176
   vertex 231.664841 73.562157 563.438904
   vertex 230.276474 73.562157 563.414673
  endloop
 facet normal -0.004898 -0.959806 0.280621
  outer loop
   vertex 232.086411 66.499237 539.289185
   vertex 232.036301 67.338814 542.159912
   vertex 230.698029 66.499237 539.264954
  endloop
 facet normal 0.016749 -0.280662 -0.959661
  outer loop
   vertex 230.326584 72.722572 560.543945
   vertex 230.332703 73.922523 560.193115
   vertex 231.721085 73.922523 560.217346
  endloop
 facet normal -0.999848 0.000008 -0.017455
  outer loop
   vertex 230.647919 67.338814 542.135681
   vertex 230.654053 68.538765 541.784851
   vertex 230.704163 67.699181 538.914124
  endloop
 facet normal 0.999848 0.000026 0.017446
  outer loop
   vertex 234.816284 68.631203 541.603882
   vertex 234.487122 74.031807 560.460266
   vertex 234.815750 68.525993 541.634644
  endloop
 facet normal 0.589693 -0.772325 0.236171
  outer loop
   vertex 234.815750 68.525993 541.634644
   vertex 234.487122 74.031807 560.460266
   vertex 234.698441 68.443199 541.656799
  endloop
 facet normal 0.606656 -0.760087 0.232889
  outer loop
   vertex 234.551727 72.437172 560.148743
   vertex 234.448898 72.700882 561.277283
   vertex 234.468323 72.375671 560.165283
  endloop
 facet normal -0.004905 -0.959808 0.280616
  outer loop
   vertex 234.468323 72.375671 560.165283
   vertex 234.448898 72.700882 561.277283
   vertex 233.607407 72.700882 561.262573
  endloop
 facet normal 0.004885 0.959808 -0.280616
  outer loop
   vertex 233.957947 68.560455 541.181152
   vertex 234.780045 68.885666 542.307800
   vertex 234.799454 68.560455 541.195801
  endloop
 facet normal 0.614351 0.760135 -0.211583
  outer loop
   vertex 234.799454 68.560455 541.195801
   vertex 234.780045 68.885666 542.307800
   vertex 234.862823 68.824165 542.327209
  endloop
 facet normal 0.597618 0.772295 -0.215436
  outer loop
   vertex 234.364044 72.818138 560.813049
   vertex 234.480499 72.735344 560.839294
   vertex 234.809128 67.229530 542.013672
  endloop
 facet normal 0.999848 0.000026 0.017446
  outer loop
   vertex 234.809128 67.229530 542.013672
   vertex 234.480499 72.735344 560.839294
   vertex 234.808594 67.124321 542.044434
  endloop
 facet normal 0.935117 0.344158 -0.084330
  outer loop
   vertex 233.718872 74.104843 560.425476
   vertex 234.047501 68.599030 541.599854
   vertex 233.706161 74.137016 560.415833
  endloop
 facet normal 0.935117 0.344158 -0.084330
  outer loop
   vertex 233.706161 74.137016 560.415833
   vertex 234.047501 68.599030 541.599854
   vertex 234.034790 68.631203 541.590210
  endloop
 facet normal 0.004852 0.959806 -0.280624
  outer loop
   vertex 234.034790 68.631203 541.590210
   vertex 233.635559 74.137016 560.414612
   vertex 233.706161 74.137016 560.415833
  endloop
 facet normal -0.016616 0.280509 0.959708
  outer loop
   vertex 234.457047 74.297058 560.810608
   vertex 234.440308 74.068871 560.877014
   vertex 234.539841 74.235558 560.830017
  endloop
 facet normal -0.016990 0.280714 0.959641
  outer loop
   vertex 234.539841 74.235558 560.830017
   vertex 234.440308 74.068871 560.877014
   vertex 234.539062 74.082985 560.874634
  endloop
 facet normal 0.999848 0.000004 0.017452
  outer loop
   vertex 234.539062 74.082985 560.874634
   vertex 234.559250 73.910347 559.718079
   vertex 234.539841 74.235558 560.830017
  endloop
 facet normal 0.016728 -0.280777 -0.959627
  outer loop
   vertex 234.791306 66.964279 541.662537
   vertex 234.776886 67.192467 541.595520
   vertex 234.874710 67.025780 541.645996
  endloop
 facet normal 0.016844 -0.280714 -0.959644
  outer loop
   vertex 234.874710 67.025780 541.645996
   vertex 234.776886 67.192467 541.595520
   vertex 234.875488 67.178352 541.601379
  endloop
 facet normal 0.999848 0.000004 0.017452
  outer loop
   vertex 234.875488 67.178352 541.601379
   vertex 234.855301 67.350990 542.757935
   vertex 234.874710 67.025780 541.645996
  endloop
 facet normal 0.016879 -0.280360 -0.959746
  outer loop
   vertex 234.552505 72.589745 560.104187
   vertex 234.551727 72.437172 560.148743
   vertex 234.453903 72.603867 560.098328
  endloop
 facet normal 0.016542 -0.280543 -0.959699
  outer loop
   vertex 234.453903 72.603867 560.098328
   vertex 234.551727 72.437172 560.148743
   vertex 234.468323 72.375671 560.165283
  endloop
 facet normal 0.016706 -0.280533 -0.959699
  outer loop
   vertex 234.468323 72.375671 560.165283
   vertex 233.626816 72.375671 560.150635
   vertex 234.453903 72.603867 560.098328
  endloop
 facet normal -0.004885 -0.959804 0.280630
  outer loop
   vertex 233.607407 72.700882 561.262573
   vertex 233.626816 72.375671 560.150635
   vertex 234.468323 72.375671 560.165283
  endloop
 facet normal 0.597618 0.772295 -0.215436
  outer loop
   vertex 234.809128 67.229530 542.013672
   vertex 234.692673 67.312325 541.987427
   vertex 234.364044 72.818138 560.813049
  endloop
 facet normal 0.999848 0.000003 0.017453
  outer loop
   vertex 234.364044 72.818138 560.813049
   vertex 234.692673 67.312325 541.987427
   vertex 234.698441 68.443199 541.656799
  endloop
 facet normal 0.999848 -0.000010 0.017456
  outer loop
   vertex 234.698441 68.443199 541.656799
   vertex 234.369827 73.949013 560.482422
   vertex 234.364044 72.818138 560.813049
  endloop
 facet normal 0.589743 -0.772290 0.236161
  outer loop
   vertex 234.487122 74.031807 560.460266
   vertex 234.369827 73.949013 560.482422
   vertex 234.698441 68.443199 541.656799
  endloop
 facet normal 0.004905 0.959804 -0.280630
  outer loop
   vertex 233.957947 68.560455 541.181152
   vertex 233.938538 68.885666 542.293091
   vertex 234.780045 68.885666 542.307800
  endloop
 facet normal -0.016774 0.280748 0.959635
  outer loop
   vertex 234.780045 68.885666 542.307800
   vertex 233.938538 68.885666 542.293091
   vertex 234.763290 68.657471 542.374268
  endloop
 facet normal -0.016442 0.280727 0.959647
  outer loop
   vertex 234.763290 68.657471 542.374268
   vertex 234.862823 68.824165 542.327209
   vertex 234.780045 68.885666 542.307800
  endloop
 facet normal -0.016418 0.280714 0.959651
  outer loop
   vertex 234.862045 68.671593 542.371826
   vertex 234.862823 68.824165 542.327209
   vertex 234.763290 68.657471 542.374268
  endloop
 facet normal -0.931494 0.344430 -0.116993
  outer loop
   vertex 234.660934 68.599030 541.610535
   vertex 234.332321 74.104843 560.436218
   vertex 234.673981 68.631203 541.601379
  endloop
 facet normal -0.931710 0.343897 -0.116842
  outer loop
   vertex 234.673981 68.631203 541.601379
   vertex 234.332321 74.104843 560.436218
   vertex 234.345352 74.137016 560.427002
  endloop
 facet normal 0.004935 0.959806 -0.280622
  outer loop
   vertex 234.345352 74.137016 560.427002
   vertex 234.816284 68.631203 541.603882
   vertex 234.673981 68.631203 541.601379
  endloop
 facet normal 0.004935 0.959806 -0.280622
  outer loop
   vertex 234.487656 74.137016 560.429504
   vertex 234.816284 68.631203 541.603882
   vertex 234.345352 74.137016 560.427002
  endloop
 facet normal 0.999848 0.000026 0.017446
  outer loop
   vertex 234.487122 74.031807 560.460266
   vertex 234.816284 68.631203 541.603882
   vertex 234.487656 74.137016 560.429504
  endloop
 facet normal 0.999848 -0.000002 0.017450
  outer loop
   vertex 233.629868 67.903961 539.906616
   vertex 233.596802 67.296425 541.801147
   vertex 233.624405 66.833839 540.219482
  endloop
 facet normal -0.004902 -0.959805 0.280626
  outer loop
   vertex 233.624405 66.833839 540.219482
   vertex 233.596802 67.296425 541.801147
   vertex 232.083588 66.833839 540.192566
  endloop
 facet normal 0.016764 -0.280657 -0.959662
  outer loop
   vertex 232.083588 66.833839 540.192566
   vertex 232.089050 67.903961 539.879700
   vertex 233.624405 66.833839 540.219482
  endloop
 facet normal -0.999848 0.000002 -0.017450
  outer loop
   vertex 232.055984 67.296425 541.774231
   vertex 232.089050 67.903961 539.879700
   vertex 232.083588 66.833839 540.192566
  endloop
 facet normal -0.999848 0.000002 -0.017450
  outer loop
   vertex 232.061447 68.366547 541.461365
   vertex 232.089050 67.903961 539.879700
   vertex 232.055984 67.296425 541.774231
  endloop
 facet normal -0.016764 0.280657 0.959662
  outer loop
   vertex 232.055984 67.296425 541.774231
   vertex 233.596802 67.296425 541.801147
   vertex 232.061447 68.366547 541.461365
  endloop
 facet normal -0.016764 0.280657 0.959662
  outer loop
   vertex 232.061447 68.366547 541.461365
   vertex 233.596802 67.296425 541.801147
   vertex 233.602264 68.366547 541.488281
  endloop
 facet normal 0.999848 -0.000002 0.017450
  outer loop
   vertex 233.602264 68.366547 541.488281
   vertex 233.596802 67.296425 541.801147
   vertex 233.629868 67.903961 539.906616
  endloop
 facet normal 0.004902 0.959805 -0.280626
  outer loop
   vertex 233.629868 67.903961 539.906616
   vertex 232.089050 67.903961 539.879700
   vertex 233.602264 68.366547 541.488281
  endloop
 facet normal 0.016764 -0.280657 -0.959662
  outer loop
   vertex 233.624405 66.833839 540.219482
   vertex 232.089050 67.903961 539.879700
   vertex 233.629868 67.903961 539.906616
  endloop
 facet normal 0.004902 0.959805 -0.280626
  outer loop
   vertex 233.240494 74.427498 562.212036
   vertex 233.268112 73.964912 560.630371
   vertex 231.699692 74.427498 562.185120
  endloop
 facet normal 0.004902 0.959805 -0.280626
  outer loop
   vertex 231.699692 74.427498 562.185120
   vertex 233.268112 73.964912 560.630371
   vertex 231.727295 73.964912 560.603455
  endloop
 facet normal -0.999848 0.000002 -0.017450
  outer loop
   vertex 231.727295 73.964912 560.603455
   vertex 231.694229 73.357376 562.497986
   vertex 231.699692 74.427498 562.185120
  endloop
 facet normal -0.999848 0.000002 -0.017450
  outer loop
   vertex 231.721832 72.894791 560.916321
   vertex 231.694229 73.357376 562.497986
   vertex 231.727295 73.964912 560.603455
  endloop
 facet normal -0.004902 -0.959805 0.280626
  outer loop
   vertex 233.262650 72.894791 560.943237
   vertex 231.694229 73.357376 562.497986
   vertex 231.721832 72.894791 560.916321
  endloop
 facet normal 0.016764 -0.280657 -0.959662
  outer loop
   vertex 231.721832 72.894791 560.916321
   vertex 233.268112 73.964912 560.630371
   vertex 233.262650 72.894791 560.943237
  endloop
 facet normal 0.999848 0.000000 0.017459
  outer loop
   vertex 233.262650 72.894791 560.943237
   vertex 233.268112 73.964912 560.630371
   vertex 233.235031 73.357376 562.524902
  endloop
 facet normal 0.999848 0.000000 0.017459
  outer loop
   vertex 233.235031 73.357376 562.524902
   vertex 233.268112 73.964912 560.630371
   vertex 233.240494 74.427498 562.212036
  endloop
 facet normal -0.016764 0.280657 0.959662
  outer loop
   vertex 233.240494 74.427498 562.212036
   vertex 231.694229 73.357376 562.497986
   vertex 233.235031 73.357376 562.524902
  endloop
 facet normal -0.016764 0.280657 0.959662
  outer loop
   vertex 231.699692 74.427498 562.185120
   vertex 231.694229 73.357376 562.497986
   vertex 233.240494 74.427498 562.212036
  endloop
 facet normal -0.999848 -0.000012 -0.017436
  outer loop
   vertex 233.035126 66.724922 538.740967
   vertex 233.029266 66.823158 539.076904
   vertex 233.031708 67.303062 538.936584
  endloop
 facet normal 0.999848 0.000012 0.017439
  outer loop
   vertex 233.031708 67.303062 538.936584
   vertex 233.029266 66.823158 539.076904
   vertex 233.033417 67.013992 538.838806
  endloop
 facet normal 0.999847 -0.000005 0.017489
  outer loop
   vertex 233.033417 67.013992 538.838806
   vertex 233.037582 67.204826 538.600708
   vertex 233.031708 67.303062 538.936584
  endloop
 facet normal 0.999847 -0.000008 0.017487
  outer loop
   vertex 233.035126 66.724922 538.740967
   vertex 233.037582 67.204826 538.600708
   vertex 233.033417 67.013992 538.838806
  endloop
 facet normal 0.016755 -0.280568 -0.959688
  outer loop
   vertex 232.037720 67.204826 538.583252
   vertex 233.037582 67.204826 538.600708
   vertex 233.035126 66.724922 538.740967
  endloop
 facet normal 0.016696 -0.280680 -0.959656
  outer loop
   vertex 233.035126 66.724922 538.740967
   vertex 232.035278 66.724922 538.723572
   vertex 232.037720 67.204826 538.583252
  endloop
 facet normal -0.999848 -0.000015 -0.017446
  outer loop
   vertex 232.037720 67.204826 538.583252
   vertex 232.035278 66.724922 538.723572
   vertex 232.009247 67.681961 540.214661
  endloop
 facet normal -0.999848 -0.000015 -0.017446
  outer loop
   vertex 232.009247 67.681961 540.214661
   vertex 232.035278 66.724922 538.723572
   vertex 232.006805 67.202057 540.354980
  endloop
 facet normal -0.016754 0.280680 0.959655
  outer loop
   vertex 232.006805 67.202057 540.354980
   vertex 233.006653 67.202057 540.372437
   vertex 232.009247 67.681961 540.214661
  endloop
 facet normal -0.004899 -0.959807 0.280618
  outer loop
   vertex 232.763672 67.085022 539.967896
   vertex 233.006653 67.202057 540.372437
   vertex 232.006805 67.202057 540.354980
  endloop
 facet normal -0.004929 -0.959802 0.280634
  outer loop
   vertex 233.012512 67.103821 540.036560
   vertex 233.006653 67.202057 540.372437
   vertex 232.763672 67.085022 539.967896
  endloop
 facet normal 0.004899 0.959807 -0.280618
  outer loop
   vertex 232.371506 74.176315 562.433411
   vertex 232.628448 74.059280 562.037598
   vertex 231.628601 74.059280 562.020142
  endloop
 facet normal 0.016754 -0.280680 -0.959655
  outer loop
   vertex 231.628601 74.059280 562.020142
   vertex 232.628448 74.059280 562.037598
   vertex 231.626160 73.579376 562.160461
  endloop
 facet normal -0.999848 -0.000015 -0.017446
  outer loop
   vertex 231.626160 73.579376 562.160461
   vertex 231.600128 74.536407 563.651550
   vertex 231.628601 74.059280 562.020142
  endloop
 facet normal -0.999848 0.000012 -0.017463
  outer loop
   vertex 231.597672 74.056511 563.791870
   vertex 231.600128 74.536407 563.651550
   vertex 231.626160 73.579376 562.160461
  endloop
 facet normal -0.016754 0.280685 0.959654
  outer loop
   vertex 232.599976 74.536407 563.669006
   vertex 231.600128 74.536407 563.651550
   vertex 231.597672 74.056511 563.791870
  endloop
 facet normal -0.016754 0.280684 0.959654
  outer loop
   vertex 231.597672 74.056511 563.791870
   vertex 232.597534 74.056511 563.809326
   vertex 232.599976 74.536407 563.669006
  endloop
 facet normal 0.999848 0.000012 0.017439
  outer loop
   vertex 232.599976 74.536407 563.669006
   vertex 232.597534 74.056511 563.809326
   vertex 232.601685 74.247345 563.571228
  endloop
 facet normal 0.999848 0.000012 0.017439
  outer loop
   vertex 232.601685 74.247345 563.571228
   vertex 232.597534 74.056511 563.809326
   vertex 232.603394 73.958275 563.473450
  endloop
 facet normal 0.999848 0.000012 0.017439
  outer loop
   vertex 232.603394 73.958275 563.473450
   vertex 232.605835 74.438179 563.333130
   vertex 232.601685 74.247345 563.571228
  endloop
 facet normal -0.999848 -0.000012 -0.017439
  outer loop
   vertex 232.599976 74.536407 563.669006
   vertex 232.605835 74.438179 563.333130
   vertex 232.603394 73.958275 563.473450
  endloop
 facet normal 0.999848 0.000012 0.017439
  outer loop
   vertex 232.601685 74.247345 563.571228
   vertex 232.605835 74.438179 563.333130
   vertex 232.599976 74.536407 563.669006
  endloop
 facet normal 0.999848 0.000026 0.017446
  outer loop
   vertex 234.480499 72.735344 560.839294
   vertex 234.479965 72.630135 560.870056
   vertex 234.808594 67.124321 542.044434
  endloop
 facet normal -0.004814 -0.959806 0.280624
  outer loop
   vertex 234.808594 67.124321 542.044434
   vertex 234.479965 72.630135 560.870056
   vertex 234.337662 72.630135 560.867615
  endloop
 facet normal -0.004935 -0.959806 0.280621
  outer loop
   vertex 234.337662 72.630135 560.867615
   vertex 234.666290 67.124321 542.041931
   vertex 234.808594 67.124321 542.044434
  endloop
 facet normal -0.935117 -0.344158 0.084330
  outer loop
   vertex 234.324951 72.662308 560.857971
   vertex 234.666290 67.124321 542.041931
   vertex 234.337662 72.630135 560.867615
  endloop
 facet normal -0.935066 -0.344286 0.084368
  outer loop
   vertex 234.653580 67.156494 542.032349
   vertex 234.666290 67.124321 542.041931
   vertex 234.324951 72.662308 560.857971
  endloop
 facet normal -0.004914 -0.959806 0.280623
  outer loop
   vertex 234.324951 72.662308 560.857971
   vertex 233.711517 72.662308 560.847229
   vertex 234.653580 67.156494 542.032349
  endloop
 facet normal -0.004914 -0.959806 0.280623
  outer loop
   vertex 234.653580 67.156494 542.032349
   vertex 233.711517 72.662308 560.847229
   vertex 234.040146 67.156494 542.021606
  endloop
 facet normal 0.931566 -0.344252 0.116943
  outer loop
   vertex 234.040146 67.156494 542.021606
   vertex 233.711517 72.662308 560.847229
   vertex 233.698471 72.630135 560.856445
  endloop
 facet normal 0.931566 -0.344252 0.116943
  outer loop
   vertex 233.698471 72.630135 560.856445
   vertex 234.027100 67.124321 542.030823
   vertex 234.040146 67.156494 542.021606
  endloop
 facet normal -0.004852 -0.959806 0.280624
  outer loop
   vertex 233.627869 72.630135 560.855225
   vertex 234.027100 67.124321 542.030823
   vertex 233.698471 72.630135 560.856445
  endloop
 facet normal -0.005093 -0.959806 0.280619
  outer loop
   vertex 233.956482 67.124321 542.029541
   vertex 234.027100 67.124321 542.030823
   vertex 233.627869 72.630135 560.855225
  endloop
 facet normal -0.999848 -0.000000 -0.017453
  outer loop
   vertex 233.627869 72.630135 560.855225
   vertex 233.635559 74.137016 560.414612
   vertex 233.956482 67.124321 542.029541
  endloop
 facet normal -0.999848 0.000000 -0.017453
  outer loop
   vertex 233.956482 67.124321 542.029541
   vertex 233.635559 74.137016 560.414612
   vertex 233.964172 68.631203 541.588989
  endloop
 facet normal 0.004851 0.959806 -0.280624
  outer loop
   vertex 233.964172 68.631203 541.588989
   vertex 233.635559 74.137016 560.414612
   vertex 234.034790 68.631203 541.590210
  endloop
 facet normal 0.004899 0.959807 -0.280618
  outer loop
   vertex 232.766113 67.564926 539.827576
   vertex 232.009247 67.681961 540.214661
   vertex 233.009094 67.681961 540.232117
  endloop
 facet normal -0.016754 0.280680 0.959655
  outer loop
   vertex 233.009094 67.681961 540.232117
   vertex 232.009247 67.681961 540.214661
   vertex 233.006653 67.202057 540.372437
  endloop
 facet normal 0.999848 0.000012 0.017439
  outer loop
   vertex 233.006653 67.202057 540.372437
   vertex 233.014954 67.583725 539.896240
   vertex 233.009094 67.681961 540.232117
  endloop
 facet normal 0.999848 0.000012 0.017439
  outer loop
   vertex 233.012512 67.103821 540.036560
   vertex 233.014954 67.583725 539.896240
   vertex 233.006653 67.202057 540.372437
  endloop
 facet normal -0.999848 -0.000012 -0.017439
  outer loop
   vertex 233.006653 67.202057 540.372437
   vertex 233.014954 67.583725 539.896240
   vertex 233.012512 67.103821 540.036560
  endloop
 facet normal -0.004870 -0.959802 0.280635
  outer loop
   vertex 233.012512 67.103821 540.036560
   vertex 233.263596 67.085022 539.976624
   vertex 233.006653 67.202057 540.372437
  endloop
 facet normal -0.004894 -0.959806 0.280621
  outer loop
   vertex 233.006653 67.202057 540.372437
   vertex 233.263596 67.085022 539.976624
   vertex 233.433487 67.170097 540.270569
  endloop
 facet normal -0.004895 -0.959806 0.280622
  outer loop
   vertex 233.433487 67.170097 540.270569
   vertex 233.263596 67.085022 539.976624
   vertex 233.449646 67.033661 539.804199
  endloop
 facet normal -0.004905 -0.959806 0.280621
  outer loop
   vertex 233.449646 67.033661 539.804199
   vertex 233.749771 67.082771 539.977417
   vertex 233.433487 67.170097 540.270569
  endloop
 facet normal -0.004893 -0.959812 0.280603
  outer loop
   vertex 233.520813 66.963493 539.565430
   vertex 233.749771 67.082771 539.977417
   vertex 233.449646 67.033661 539.804199
  endloop
 facet normal -0.004894 -0.959811 0.280603
  outer loop
   vertex 233.870758 66.963493 539.571533
   vertex 233.749771 67.082771 539.977417
   vertex 233.520813 66.963493 539.565430
  endloop
 facet normal -0.004894 -0.959806 0.280621
  outer loop
   vertex 233.520813 66.963493 539.565430
   vertex 233.458023 66.893326 539.324341
   vertex 233.870758 66.963493 539.571533
  endloop
 facet normal -0.004896 -0.959806 0.280623
  outer loop
   vertex 233.870758 66.963493 539.571533
   vertex 233.458023 66.893326 539.324341
   vertex 233.764023 66.844208 539.161682
  endloop
 facet normal -0.004895 -0.959805 0.280623
  outer loop
   vertex 233.764023 66.844208 539.161682
   vertex 233.458023 66.893326 539.324341
   vertex 233.278107 66.841957 539.145508
  endloop
 facet normal -0.004896 -0.959797 0.280652
  outer loop
   vertex 233.278107 66.841957 539.145508
   vertex 233.458160 66.756889 538.857727
   vertex 233.764023 66.844208 539.161682
  endloop
 facet normal -0.004870 -0.959793 0.280667
  outer loop
   vertex 233.029266 66.823158 539.076904
   vertex 233.458160 66.756889 538.857727
   vertex 233.278107 66.841957 539.145508
  endloop
 facet normal -0.004914 -0.959816 0.280587
  outer loop
   vertex 233.035126 66.724922 538.740967
   vertex 233.458160 66.756889 538.857727
   vertex 233.029266 66.823158 539.076904
  endloop
 facet normal -0.004951 -0.959816 0.280587
  outer loop
   vertex 233.029266 66.823158 539.076904
   vertex 232.778183 66.841957 539.136780
   vertex 233.035126 66.724922 538.740967
  endloop
 facet normal -0.004882 -0.959804 0.280628
  outer loop
   vertex 233.035126 66.724922 538.740967
   vertex 232.778183 66.841957 539.136780
   vertex 232.035278 66.724922 538.723572
  endloop
 facet normal -0.004865 -0.959813 0.280599
  outer loop
   vertex 232.035278 66.724922 538.723572
   vertex 232.778183 66.841957 539.136780
   vertex 232.592133 66.893326 539.309265
  endloop
 facet normal -0.004932 -0.959795 0.280658
  outer loop
   vertex 232.592133 66.893326 539.309265
   vertex 232.520966 66.963493 539.547974
   vertex 232.035278 66.724922 538.723572
  endloop
 facet normal -0.004899 -0.959807 0.280618
  outer loop
   vertex 232.369064 73.696411 562.573730
   vertex 231.626160 73.579376 562.160461
   vertex 232.626007 73.579376 562.177917
  endloop
 facet normal 0.016754 -0.280680 -0.959655
  outer loop
   vertex 232.626007 73.579376 562.177917
   vertex 231.626160 73.579376 562.160461
   vertex 232.628448 74.059280 562.037598
  endloop
 facet normal 0.999848 0.000012 0.017439
  outer loop
   vertex 232.628448 74.059280 562.037598
   vertex 232.620148 73.677612 562.513794
   vertex 232.626007 73.579376 562.177917
  endloop
 facet normal 0.999848 0.000012 0.017439
  outer loop
   vertex 232.622589 74.157516 562.373474
   vertex 232.620148 73.677612 562.513794
   vertex 232.628448 74.059280 562.037598
  endloop
 facet normal -0.999848 -0.000012 -0.017439
  outer loop
   vertex 232.628448 74.059280 562.037598
   vertex 232.620148 73.677612 562.513794
   vertex 232.622589 74.157516 562.373474
  endloop
 facet normal 0.004929 0.959802 -0.280634
  outer loop
   vertex 232.622589 74.157516 562.373474
   vertex 232.871429 74.176315 562.442139
   vertex 232.628448 74.059280 562.037598
  endloop
 facet normal 0.004900 0.959807 -0.280618
  outer loop
   vertex 232.628448 74.059280 562.037598
   vertex 232.871429 74.176315 562.442139
   vertex 233.051483 74.091240 562.154297
  endloop
 facet normal 0.004919 0.959810 -0.280607
  outer loop
   vertex 233.051483 74.091240 562.154297
   vertex 232.871429 74.176315 562.442139
   vertex 233.051346 74.227676 562.620972
  endloop
 facet normal 0.004880 0.959810 -0.280607
  outer loop
   vertex 233.051346 74.227676 562.620972
   vertex 233.357346 74.178566 562.458313
   vertex 233.051483 74.091240 562.154297
  endloop
 facet normal 0.004875 0.959808 -0.280616
  outer loop
   vertex 233.114136 74.297844 562.862061
   vertex 233.357346 74.178566 562.458313
   vertex 233.051346 74.227676 562.620972
  endloop
 facet normal 0.004894 0.959811 -0.280606
  outer loop
   vertex 233.464081 74.297844 562.868164
   vertex 233.357346 74.178566 562.458313
   vertex 233.114136 74.297844 562.862061
  endloop
 facet normal 0.004895 0.959792 -0.280668
  outer loop
   vertex 233.114136 74.297844 562.862061
   vertex 233.042969 74.368011 563.100769
   vertex 233.464081 74.297844 562.868164
  endloop
 facet normal 0.004930 0.959809 -0.280610
  outer loop
   vertex 233.464081 74.297844 562.868164
   vertex 233.042969 74.368011 563.100769
   vertex 233.343109 74.417130 563.274048
  endloop
 facet normal 0.004901 0.959823 -0.280563
  outer loop
   vertex 233.343109 74.417130 563.274048
   vertex 233.042969 74.368011 563.100769
   vertex 232.856918 74.419380 563.273254
  endloop
 facet normal 0.004901 0.959796 -0.280656
  outer loop
   vertex 232.856918 74.419380 563.273254
   vertex 233.026825 74.504448 563.567139
   vertex 233.343109 74.417130 563.274048
  endloop
 facet normal 0.004929 0.959791 -0.280671
  outer loop
   vertex 232.605835 74.438179 563.333130
   vertex 233.026825 74.504448 563.567139
   vertex 232.856918 74.419380 563.273254
  endloop
 facet normal 0.004895 0.959808 -0.280614
  outer loop
   vertex 232.599976 74.536407 563.669006
   vertex 233.026825 74.504448 563.567139
   vertex 232.605835 74.438179 563.333130
  endloop
 facet normal 0.004854 0.959808 -0.280615
  outer loop
   vertex 232.605835 74.438179 563.333130
   vertex 232.356995 74.419380 563.264526
   vertex 232.599976 74.536407 563.669006
  endloop
 facet normal 0.004900 0.959801 -0.280640
  outer loop
   vertex 232.599976 74.536407 563.669006
   vertex 232.356995 74.419380 563.264526
   vertex 231.600128 74.536407 563.651550
  endloop
 facet normal 0.004904 0.959803 -0.280632
  outer loop
   vertex 231.600128 74.536407 563.651550
   vertex 232.356995 74.419380 563.264526
   vertex 232.177078 74.368011 563.085693
  endloop
 facet normal 0.004912 0.959805 -0.280625
  outer loop
   vertex 232.177078 74.368011 563.085693
   vertex 232.114288 74.297844 562.844604
   vertex 231.600128 74.536407 563.651550
  endloop
 facet normal -0.459701 -0.854496 0.241892
  outer loop
   vertex 233.607407 72.700882 561.262573
   vertex 233.117447 72.942078 561.183472
   vertex 233.626816 72.375671 560.150635
  endloop
 facet normal -0.459701 -0.854496 0.241892
  outer loop
   vertex 233.626816 72.375671 560.150635
   vertex 233.117447 72.942078 561.183472
   vertex 233.136856 72.616867 560.071533
  endloop
 facet normal 0.016749 -0.280698 -0.959650
  outer loop
   vertex 233.136856 72.616867 560.071533
   vertex 233.142548 73.730652 559.745850
   vertex 233.626816 72.375671 560.150635
  endloop
 facet normal -0.999848 0.000005 -0.017454
  outer loop
   vertex 233.117447 72.942078 561.183472
   vertex 233.142548 73.730652 559.745850
   vertex 233.136856 72.616867 560.071533
  endloop
 facet normal -0.999848 0.000007 -0.017454
  outer loop
   vertex 233.123138 74.055862 560.857849
   vertex 233.142548 73.730652 559.745850
   vertex 233.117447 72.942078 561.183472
  endloop
 facet normal -0.016733 0.280650 0.959664
  outer loop
   vertex 233.117447 72.942078 561.183472
   vertex 233.615555 74.297058 560.795898
   vertex 233.123138 74.055862 560.857849
  endloop
 facet normal -0.450982 0.854499 -0.257775
  outer loop
   vertex 233.123138 74.055862 560.857849
   vertex 233.615555 74.297058 560.795898
   vertex 233.142548 73.730652 559.745850
  endloop
 facet normal -0.450982 0.854499 -0.257775
  outer loop
   vertex 233.142548 73.730652 559.745850
   vertex 233.615555 74.297058 560.795898
   vertex 233.634964 73.971848 559.683899
  endloop
 facet normal 0.016757 -0.280696 -0.959651
  outer loop
   vertex 233.634964 73.971848 559.683899
   vertex 233.626816 72.375671 560.150635
   vertex 233.142548 73.730652 559.745850
  endloop
 facet normal 0.016793 -0.280696 -0.959650
  outer loop
   vertex 234.459717 73.743660 559.765076
   vertex 233.626816 72.375671 560.150635
   vertex 233.634964 73.971848 559.683899
  endloop
 facet normal 0.016746 -0.280670 -0.959658
  outer loop
   vertex 234.453903 72.603867 560.098328
   vertex 233.626816 72.375671 560.150635
   vertex 234.459717 73.743660 559.765076
  endloop
 facet normal 0.999848 0.000003 0.017452
  outer loop
   vertex 234.459717 73.743660 559.765076
   vertex 234.434494 72.929077 561.210266
   vertex 234.453903 72.603867 560.098328
  endloop
 facet normal 0.152303 0.949308 -0.274987
  outer loop
   vertex 234.453903 72.603867 560.098328
   vertex 234.434494 72.929077 561.210266
   vertex 234.552505 72.589745 560.104187
  endloop
 facet normal 0.152231 0.949317 -0.274998
  outer loop
   vertex 234.552505 72.589745 560.104187
   vertex 234.434494 72.929077 561.210266
   vertex 234.533096 72.914963 561.216125
  endloop
 facet normal 0.999848 -0.000003 0.017453
  outer loop
   vertex 234.533096 72.914963 561.216125
   vertex 234.551727 72.437172 560.148743
   vertex 234.552505 72.589745 560.104187
  endloop
 facet normal 0.999848 0.000003 0.017451
  outer loop
   vertex 234.532318 72.762383 561.260742
   vertex 234.551727 72.437172 560.148743
   vertex 234.533096 72.914963 561.216125
  endloop
 facet normal 0.606586 -0.760141 0.232895
  outer loop
   vertex 234.448898 72.700882 561.277283
   vertex 234.551727 72.437172 560.148743
   vertex 234.532318 72.762383 561.260742
  endloop
 facet normal -0.016719 0.280770 0.959630
  outer loop
   vertex 234.532318 72.762383 561.260742
   vertex 234.434494 72.929077 561.210266
   vertex 234.448898 72.700882 561.277283
  endloop
 facet normal -0.016775 0.280766 0.959630
  outer loop
   vertex 234.448898 72.700882 561.277283
   vertex 234.434494 72.929077 561.210266
   vertex 233.607407 72.700882 561.262573
  endloop
 facet normal -0.016746 0.280670 0.959658
  outer loop
   vertex 233.607407 72.700882 561.262573
   vertex 234.434494 72.929077 561.210266
   vertex 234.440308 74.068871 560.877014
  endloop
 facet normal -0.016732 0.280662 0.959661
  outer loop
   vertex 234.440308 74.068871 560.877014
   vertex 233.615555 74.297058 560.795898
   vertex 233.607407 72.700882 561.262573
  endloop
 facet normal -0.016776 0.280519 0.959702
  outer loop
   vertex 234.457047 74.297058 560.810608
   vertex 233.615555 74.297058 560.795898
   vertex 234.440308 74.068871 560.877014
  endloop
 facet normal 0.004905 0.959808 -0.280616
  outer loop
   vertex 233.634964 73.971848 559.683899
   vertex 233.615555 74.297058 560.795898
   vertex 234.457047 74.297058 560.810608
  endloop
 facet normal 0.004905 0.959808 -0.280616
  outer loop
   vertex 234.457047 74.297058 560.810608
   vertex 234.476456 73.971848 559.698608
   vertex 233.634964 73.971848 559.683899
  endloop
 facet normal 0.016775 -0.280756 -0.959633
  outer loop
   vertex 233.634964 73.971848 559.683899
   vertex 234.476456 73.971848 559.698608
   vertex 234.459717 73.743660 559.765076
  endloop
 facet normal 0.017104 -0.280776 -0.959621
  outer loop
   vertex 234.459717 73.743660 559.765076
   vertex 234.476456 73.971848 559.698608
   vertex 234.559250 73.910347 559.718079
  endloop
 facet normal 0.016343 -0.280360 -0.959756
  outer loop
   vertex 234.559250 73.910347 559.718079
   vertex 234.558472 73.757774 559.762634
   vertex 234.459717 73.743660 559.765076
  endloop
 facet normal 0.999848 -0.000003 0.017453
  outer loop
   vertex 234.539062 74.082985 560.874634
   vertex 234.558472 73.757774 559.762634
   vertex 234.559250 73.910347 559.718079
  endloop
 facet normal 0.142604 -0.949314 0.280121
  outer loop
   vertex 234.459717 73.743660 559.765076
   vertex 234.558472 73.757774 559.762634
   vertex 234.539062 74.082985 560.874634
  endloop
 facet normal 0.142434 -0.949334 0.280139
  outer loop
   vertex 234.539062 74.082985 560.874634
   vertex 234.440308 74.068871 560.877014
   vertex 234.459717 73.743660 559.765076
  endloop
 facet normal 0.999848 0.000003 0.017452
  outer loop
   vertex 234.459717 73.743660 559.765076
   vertex 234.440308 74.068871 560.877014
   vertex 234.434494 72.929077 561.210266
  endloop
 facet normal -0.450981 0.854495 -0.257788
  outer loop
   vertex 233.957947 68.560455 541.181152
   vertex 233.465530 68.319260 541.243103
   vertex 233.938538 68.885666 542.293091
  endloop
 facet normal -0.450981 0.854495 -0.257788
  outer loop
   vertex 233.938538 68.885666 542.293091
   vertex 233.465530 68.319260 541.243103
   vertex 233.446121 68.644470 542.355042
  endloop
 facet normal -0.016759 0.280698 0.959650
  outer loop
   vertex 233.446121 68.644470 542.355042
   vertex 233.440445 67.530685 542.680725
   vertex 233.938538 68.885666 542.293091
  endloop
 facet normal -0.999848 -0.000007 -0.017451
  outer loop
   vertex 233.465530 68.319260 541.243103
   vertex 233.440445 67.530685 542.680725
   vertex 233.446121 68.644470 542.355042
  endloop
 facet normal -0.999848 -0.000006 -0.017450
  outer loop
   vertex 233.459854 67.205475 541.568726
   vertex 233.440445 67.530685 542.680725
   vertex 233.465530 68.319260 541.243103
  endloop
 facet normal 0.016776 -0.280650 -0.959664
  outer loop
   vertex 233.465530 68.319260 541.243103
   vertex 233.949799 66.964279 541.647827
   vertex 233.459854 67.205475 541.568726
  endloop
 facet normal -0.459712 -0.854494 0.241878
  outer loop
   vertex 233.459854 67.205475 541.568726
   vertex 233.949799 66.964279 541.647827
   vertex 233.440445 67.530685 542.680725
  endloop
 facet normal -0.459688 -0.854502 0.241894
  outer loop
   vertex 233.440445 67.530685 542.680725
   vertex 233.949799 66.964279 541.647827
   vertex 233.930389 67.289490 542.759766
  endloop
 facet normal -0.016650 0.280662 0.959662
  outer loop
   vertex 233.930389 67.289490 542.759766
   vertex 233.938538 68.885666 542.293091
   vertex 233.440445 67.530685 542.680725
  endloop
 facet normal -0.016812 0.280662 0.959659
  outer loop
   vertex 234.757477 67.517677 542.707520
   vertex 233.938538 68.885666 542.293091
   vertex 233.930389 67.289490 542.759766
  endloop
 facet normal -0.016798 0.280670 0.959657
  outer loop
   vertex 234.763290 68.657471 542.374268
   vertex 233.938538 68.885666 542.293091
   vertex 234.757477 67.517677 542.707520
  endloop
 facet normal 0.999848 0.000006 0.017464
  outer loop
   vertex 234.757477 67.517677 542.707520
   vertex 234.782715 68.332260 541.262268
   vertex 234.763290 68.657471 542.374268
  endloop
 facet normal 0.142676 -0.949303 0.280121
  outer loop
   vertex 234.763290 68.657471 542.374268
   vertex 234.782715 68.332260 541.262268
   vertex 234.862045 68.671593 542.371826
  endloop
 facet normal 0.142456 -0.949329 0.280145
  outer loop
   vertex 234.862045 68.671593 542.371826
   vertex 234.782715 68.332260 541.262268
   vertex 234.881454 68.346375 541.259888
  endloop
 facet normal 0.999848 0.000004 0.017452
  outer loop
   vertex 234.881454 68.346375 541.259888
   vertex 234.862823 68.824165 542.327209
   vertex 234.862045 68.671593 542.371826
  endloop
 facet normal 0.999848 0.000004 0.017452
  outer loop
   vertex 234.882233 68.498955 541.215271
   vertex 234.862823 68.824165 542.327209
   vertex 234.881454 68.346375 541.259888
  endloop
 facet normal 0.614449 0.760060 -0.211571
  outer loop
   vertex 234.799454 68.560455 541.195801
   vertex 234.862823 68.824165 542.327209
   vertex 234.882233 68.498955 541.215271
  endloop
 facet normal 0.017114 -0.280768 -0.959623
  outer loop
   vertex 234.882233 68.498955 541.215271
   vertex 234.782715 68.332260 541.262268
   vertex 234.799454 68.560455 541.195801
  endloop
 facet normal 0.016705 -0.280743 -0.959638
  outer loop
   vertex 234.799454 68.560455 541.195801
   vertex 234.782715 68.332260 541.262268
   vertex 233.957947 68.560455 541.181152
  endloop
 facet normal 0.016727 -0.280670 -0.959659
  outer loop
   vertex 233.957947 68.560455 541.181152
   vertex 234.782715 68.332260 541.262268
   vertex 234.776886 67.192467 541.595520
  endloop
 facet normal 0.016741 -0.280662 -0.959661
  outer loop
   vertex 234.776886 67.192467 541.595520
   vertex 233.949799 66.964279 541.647827
   vertex 233.957947 68.560455 541.181152
  endloop
 facet normal 0.016774 -0.280774 -0.959627
  outer loop
   vertex 234.791306 66.964279 541.662537
   vertex 233.949799 66.964279 541.647827
   vertex 234.776886 67.192467 541.595520
  endloop
 facet normal -0.004905 -0.959804 0.280630
  outer loop
   vertex 233.930389 67.289490 542.759766
   vertex 233.949799 66.964279 541.647827
   vertex 234.791306 66.964279 541.662537
  endloop
 facet normal -0.004905 -0.959804 0.280630
  outer loop
   vertex 234.791306 66.964279 541.662537
   vertex 234.771896 67.289490 542.774475
   vertex 233.930389 67.289490 542.759766
  endloop
 facet normal -0.016775 0.280537 0.959697
  outer loop
   vertex 233.930389 67.289490 542.759766
   vertex 234.771896 67.289490 542.774475
   vertex 234.757477 67.517677 542.707520
  endloop
 facet normal -0.016548 0.280552 0.959696
  outer loop
   vertex 234.757477 67.517677 542.707520
   vertex 234.771896 67.289490 542.774475
   vertex 234.855301 67.350990 542.757935
  endloop
 facet normal -0.016250 0.280714 0.959654
  outer loop
   vertex 234.855301 67.350990 542.757935
   vertex 234.856079 67.503563 542.713318
   vertex 234.757477 67.517677 542.707520
  endloop
 facet normal 0.999848 0.000004 0.017452
  outer loop
   vertex 234.875488 67.178352 541.601379
   vertex 234.856079 67.503563 542.713318
   vertex 234.855301 67.350990 542.757935
  endloop
 facet normal 0.152065 0.949342 -0.275001
  outer loop
   vertex 234.757477 67.517677 542.707520
   vertex 234.856079 67.503563 542.713318
   vertex 234.875488 67.178352 541.601379
  endloop
 facet normal 0.152231 0.949322 -0.274978
  outer loop
   vertex 234.875488 67.178352 541.601379
   vertex 234.776886 67.192467 541.595520
   vertex 234.757477 67.517677 542.707520
  endloop
 facet normal 0.999848 -0.000010 0.017455
  outer loop
   vertex 234.757477 67.517677 542.707520
   vertex 234.776886 67.192467 541.595520
   vertex 234.782715 68.332260 541.262268
  endloop
 facet normal -0.004929 -0.959802 0.280634
  outer loop
   vertex 232.620148 73.677612 562.513794
   vertex 232.626007 73.579376 562.177917
   vertex 232.868988 73.696411 562.582458
  endloop
 facet normal -0.004900 -0.959807 0.280618
  outer loop
   vertex 232.868988 73.696411 562.582458
   vertex 232.626007 73.579376 562.177917
   vertex 233.049026 73.611336 562.294617
  endloop
 facet normal -0.004919 -0.959810 0.280608
  outer loop
   vertex 233.049026 73.611336 562.294617
   vertex 233.048904 73.747772 562.761292
   vertex 232.868988 73.696411 562.582458
  endloop
 facet normal -0.004881 -0.959810 0.280608
  outer loop
   vertex 233.354889 73.698662 562.598633
   vertex 233.048904 73.747772 562.761292
   vertex 233.049026 73.611336 562.294617
  endloop
 facet normal -0.004876 -0.959808 0.280616
  outer loop
   vertex 233.111694 73.817940 563.002380
   vertex 233.048904 73.747772 562.761292
   vertex 233.354889 73.698662 562.598633
  endloop
 facet normal -0.004894 -0.959811 0.280606
  outer loop
   vertex 233.354889 73.698662 562.598633
   vertex 233.461639 73.817940 563.008484
   vertex 233.111694 73.817940 563.002380
  endloop
 facet normal -0.004895 -0.959792 0.280668
  outer loop
   vertex 233.111694 73.817940 563.002380
   vertex 233.461639 73.817940 563.008484
   vertex 233.040527 73.888107 563.241089
  endloop
 facet normal -0.004930 -0.959809 0.280610
  outer loop
   vertex 233.040527 73.888107 563.241089
   vertex 233.461639 73.817940 563.008484
   vertex 233.340652 73.937225 563.414368
  endloop
 facet normal -0.004936 -0.959806 0.280619
  outer loop
   vertex 233.340652 73.937225 563.414368
   vertex 232.854477 73.939476 563.413513
   vertex 233.040527 73.888107 563.241089
  endloop
 facet normal -0.004936 -0.959806 0.280621
  outer loop
   vertex 233.024368 74.024544 563.707458
   vertex 232.854477 73.939476 563.413513
   vertex 233.340652 73.937225 563.414368
  endloop
 facet normal -0.004882 -0.959815 0.280592
  outer loop
   vertex 232.603394 73.958275 563.473450
   vertex 232.854477 73.939476 563.413513
   vertex 233.024368 74.024544 563.707458
  endloop
 facet normal -0.004907 -0.959802 0.280634
  outer loop
   vertex 233.024368 74.024544 563.707458
   vertex 232.597534 74.056511 563.809326
   vertex 232.603394 73.958275 563.473450
  endloop
 facet normal -0.004929 -0.959802 0.280634
  outer loop
   vertex 232.603394 73.958275 563.473450
   vertex 232.597534 74.056511 563.809326
   vertex 232.354553 73.939476 563.404785
  endloop
 facet normal -0.004899 -0.959807 0.280618
  outer loop
   vertex 232.354553 73.939476 563.404785
   vertex 232.597534 74.056511 563.809326
   vertex 231.597672 74.056511 563.791870
  endloop
 facet normal -0.004863 -0.959788 0.280682
  outer loop
   vertex 231.597672 74.056511 563.791870
   vertex 232.174637 73.888107 563.226013
   vertex 232.354553 73.939476 563.404785
  endloop
 facet normal -0.004922 -0.959804 0.280627
  outer loop
   vertex 232.111847 73.817940 562.984924
   vertex 232.174637 73.888107 563.226013
   vertex 231.597672 74.056511 563.791870
  endloop
 facet normal 0.004870 0.959802 -0.280635
  outer loop
   vertex 233.014954 67.583725 539.896240
   vertex 233.009094 67.681961 540.232117
   vertex 233.266037 67.564926 539.836304
  endloop
 facet normal 0.004893 0.959806 -0.280621
  outer loop
   vertex 233.266037 67.564926 539.836304
   vertex 233.009094 67.681961 540.232117
   vertex 233.435944 67.650002 540.130249
  endloop
 facet normal 0.004920 0.959802 -0.280635
  outer loop
   vertex 233.435944 67.650002 540.130249
   vertex 233.452087 67.513557 539.663879
   vertex 233.266037 67.564926 539.836304
  endloop
 facet normal 0.004890 0.959802 -0.280636
  outer loop
   vertex 233.752228 67.562675 539.837097
   vertex 233.452087 67.513557 539.663879
   vertex 233.435944 67.650002 540.130249
  endloop
 facet normal 0.004857 0.959817 -0.280584
  outer loop
   vertex 233.523254 67.443398 539.425110
   vertex 233.452087 67.513557 539.663879
   vertex 233.752228 67.562675 539.837097
  endloop
 facet normal 0.004894 0.959811 -0.280603
  outer loop
   vertex 233.752228 67.562675 539.837097
   vertex 233.873199 67.443398 539.431213
   vertex 233.523254 67.443398 539.425110
  endloop
 facet normal 0.004894 0.959806 -0.280621
  outer loop
   vertex 233.523254 67.443398 539.425110
   vertex 233.873199 67.443398 539.431213
   vertex 233.460464 67.373230 539.184021
  endloop
 facet normal 0.004896 0.959806 -0.280623
  outer loop
   vertex 233.460464 67.373230 539.184021
   vertex 233.873199 67.443398 539.431213
   vertex 233.766464 67.324112 539.021362
  endloop
 facet normal 0.004895 0.959805 -0.280623
  outer loop
   vertex 233.766464 67.324112 539.021362
   vertex 233.280548 67.321861 539.005188
   vertex 233.460464 67.373230 539.184021
  endloop
 facet normal 0.004896 0.959797 -0.280652
  outer loop
   vertex 233.460602 67.236794 538.717407
   vertex 233.280548 67.321861 539.005188
   vertex 233.766464 67.324112 539.021362
  endloop
 facet normal 0.004870 0.959793 -0.280667
  outer loop
   vertex 233.031708 67.303062 538.936584
   vertex 233.280548 67.321861 539.005188
   vertex 233.460602 67.236794 538.717407
  endloop
 facet normal 0.004888 0.959802 -0.280634
  outer loop
   vertex 233.460602 67.236794 538.717407
   vertex 233.037582 67.204826 538.600708
   vertex 233.031708 67.303062 538.936584
  endloop
 facet normal 0.004939 0.959802 -0.280634
  outer loop
   vertex 233.031708 67.303062 538.936584
   vertex 233.037582 67.204826 538.600708
   vertex 232.780624 67.321861 538.996460
  endloop
 facet normal 0.004900 0.959796 -0.280657
  outer loop
   vertex 232.780624 67.321861 538.996460
   vertex 233.037582 67.204826 538.600708
   vertex 232.037720 67.204826 538.583252
  endloop
 facet normal 0.004865 0.959813 -0.280599
  outer loop
   vertex 232.037720 67.204826 538.583252
   vertex 232.594574 67.373230 539.168945
   vertex 232.780624 67.321861 538.996460
  endloop
 facet normal 0.004932 0.959795 -0.280658
  outer loop
   vertex 232.523407 67.443398 539.407654
   vertex 232.594574 67.373230 539.168945
   vertex 232.037720 67.204826 538.583252
  endloop
 facet normal 0.004916 0.959806 -0.280622
  outer loop
   vertex 231.600128 74.536407 563.651550
   vertex 232.114288 74.297844 562.844604
   vertex 231.628601 74.059280 562.020142
  endloop
 facet normal 0.004885 0.959811 -0.280605
  outer loop
   vertex 231.628601 74.059280 562.020142
   vertex 232.114288 74.297844 562.844604
   vertex 232.185455 74.227676 562.605835
  endloop
 facet normal 0.004899 0.959807 -0.280617
  outer loop
   vertex 232.185455 74.227676 562.605835
   vertex 232.371506 74.176315 562.433411
   vertex 231.628601 74.059280 562.020142
  endloop
 facet normal 0.004896 0.959805 -0.280624
  outer loop
   vertex 232.766113 67.564926 539.827576
   vertex 232.586197 67.513557 539.648743
   vertex 232.009247 67.681961 540.214661
  endloop
 facet normal 0.004922 0.959812 -0.280599
  outer loop
   vertex 232.009247 67.681961 540.214661
   vertex 232.586197 67.513557 539.648743
   vertex 232.523407 67.443398 539.407654
  endloop
 facet normal 0.004875 0.959805 -0.280627
  outer loop
   vertex 232.523407 67.443398 539.407654
   vertex 232.037720 67.204826 538.583252
   vertex 232.009247 67.681961 540.214661
  endloop
 facet normal -0.004875 -0.959805 0.280627
  outer loop
   vertex 232.035278 66.724922 538.723572
   vertex 232.520966 66.963493 539.547974
   vertex 232.006805 67.202057 540.354980
  endloop
 facet normal -0.004888 -0.959807 0.280619
  outer loop
   vertex 232.006805 67.202057 540.354980
   vertex 232.520966 66.963493 539.547974
   vertex 232.583755 67.033661 539.789062
  endloop
 facet normal -0.004910 -0.959813 0.280599
  outer loop
   vertex 232.583755 67.033661 539.789062
   vertex 232.763672 67.085022 539.967896
   vertex 232.006805 67.202057 540.354980
  endloop
 facet normal -0.004914 -0.959800 0.280642
  outer loop
   vertex 232.369064 73.696411 562.573730
   vertex 232.183014 73.747780 562.746155
   vertex 231.626160 73.579376 562.160461
  endloop
 facet normal -0.004850 -0.959817 0.280586
  outer loop
   vertex 231.626160 73.579376 562.160461
   vertex 232.183014 73.747780 562.746155
   vertex 232.111847 73.817940 562.984924
  endloop
 facet normal -0.004924 -0.959805 0.280626
  outer loop
   vertex 232.111847 73.817940 562.984924
   vertex 231.597672 74.056511 563.791870
   vertex 231.626160 73.579376 562.160461
  endloop
 facet normal 0.606656 -0.760085 0.232893
  outer loop
   vertex 234.791306 66.964279 541.662537
   vertex 234.874710 67.025780 541.645996
   vertex 234.771896 67.289490 542.774475
  endloop
 facet normal 0.606656 -0.760085 0.232893
  outer loop
   vertex 234.771896 67.289490 542.774475
   vertex 234.874710 67.025780 541.645996
   vertex 234.855301 67.350990 542.757935
  endloop
 facet normal 0.004914 0.959806 -0.280623
  outer loop
   vertex 233.718872 74.104843 560.425476
   vertex 234.332321 74.104843 560.436218
   vertex 234.047501 68.599030 541.599854
  endloop
 facet normal 0.004886 0.959806 -0.280622
  outer loop
   vertex 234.047501 68.599030 541.599854
   vertex 234.332321 74.104843 560.436218
   vertex 234.660934 68.599030 541.610535
  endloop
 facet normal 0.614378 0.760112 -0.211587
  outer loop
   vertex 234.559250 73.910347 559.718079
   vertex 234.476456 73.971848 559.698608
   vertex 234.539841 74.235558 560.830017
  endloop
 facet normal 0.614281 0.760187 -0.211599
  outer loop
   vertex 234.539841 74.235558 560.830017
   vertex 234.476456 73.971848 559.698608
   vertex 234.457047 74.297058 560.810608
  endloop
 facet normal 0.999848 0.000010 0.017436
  outer loop
   vertex 233.029266 66.823158 539.076904
   vertex 233.035126 66.724922 538.740967
   vertex 233.033417 67.013992 538.838806
  endloop
 facet normal 0.016740 -0.280662 -0.959661
  outer loop
   vertex 233.957947 68.560455 541.181152
   vertex 233.949799 66.964279 541.647827
   vertex 233.465530 68.319260 541.243103
  endloop
 facet normal 0.004929 0.959802 -0.280634
  outer loop
   vertex 233.009094 67.681961 540.232117
   vertex 233.014954 67.583725 539.896240
   vertex 232.766113 67.564926 539.827576
  endloop
 facet normal 0.004870 0.959802 -0.280635
  outer loop
   vertex 232.622589 74.157516 562.373474
   vertex 232.628448 74.059280 562.037598
   vertex 232.371506 74.176315 562.433411
  endloop
 facet normal -0.999847 0.000007 -0.017490
  outer loop
   vertex 233.035126 66.724922 538.740967
   vertex 233.031708 67.303062 538.936584
   vertex 233.037582 67.204826 538.600708
  endloop
 facet normal -0.004902 -0.959805 0.280626
  outer loop
   vertex 233.262650 72.894791 560.943237
   vertex 233.235031 73.357376 562.524902
   vertex 231.694229 73.357376 562.497986
  endloop
 facet normal 0.004902 0.959805 -0.280626
  outer loop
   vertex 232.061447 68.366547 541.461365
   vertex 233.602264 68.366547 541.488281
   vertex 232.089050 67.903961 539.879700
  endloop
 facet normal -0.999848 -0.000012 -0.017439
  outer loop
   vertex 232.599976 74.536407 563.669006
   vertex 232.603394 73.958275 563.473450
   vertex 232.597534 74.056511 563.809326
  endloop
 facet normal -0.016846 0.280701 0.959647
  outer loop
   vertex 234.532318 72.762383 561.260742
   vertex 234.533096 72.914963 561.216125
   vertex 234.434494 72.929077 561.210266
  endloop
 facet normal -0.999848 -0.000012 -0.017439
  outer loop
   vertex 233.014954 67.583725 539.896240
   vertex 233.006653 67.202057 540.372437
   vertex 233.009094 67.681961 540.232117
  endloop
 facet normal -0.016769 0.280662 0.959660
  outer loop
   vertex 233.607407 72.700882 561.262573
   vertex 233.615555 74.297058 560.795898
   vertex 233.117447 72.942078 561.183472
  endloop
 facet normal 0.016990 -0.280701 -0.959645
  outer loop
   vertex 234.882233 68.498955 541.215271
   vertex 234.881454 68.346375 541.259888
   vertex 234.782715 68.332260 541.262268
  endloop
 facet normal -0.004902 -0.959805 0.280626
  outer loop
   vertex 233.596802 67.296425 541.801147
   vertex 232.055984 67.296425 541.774231
   vertex 232.083588 66.833839 540.192566
  endloop
 facet normal 0.016764 -0.280657 -0.959662
  outer loop
   vertex 231.721832 72.894791 560.916321
   vertex 231.727295 73.964912 560.603455
   vertex 233.268112 73.964912 560.630371
  endloop
 facet normal -0.999848 -0.000012 -0.017439
  outer loop
   vertex 232.620148 73.677612 562.513794
   vertex 232.628448 74.059280 562.037598
   vertex 232.626007 73.579376 562.177917
  endloop
 facet normal -0.004870 -0.959802 0.280635
  outer loop
   vertex 232.626007 73.579376 562.177917
   vertex 232.620148 73.677612 562.513794
   vertex 232.369064 73.696411 562.573730
  endloop
 facet normal 0.695130 0.198491 0.690938
  outer loop
   vertex 232.183014 73.747780 562.746155
   vertex 232.371506 74.176315 562.433411
   vertex 232.185455 74.227676 562.605835
  endloop
 facet normal 0.961447 0.072657 0.265217
  outer loop
   vertex 232.183014 73.747780 562.746155
   vertex 232.185455 74.227676 562.605835
   vertex 232.111847 73.817940 562.984924
  endloop
 facet normal 0.961448 0.072655 0.265215
  outer loop
   vertex 232.111847 73.817940 562.984924
   vertex 232.185455 74.227676 562.605835
   vertex 232.114288 74.297844 562.844604
  endloop
 facet normal 0.970115 -0.072630 -0.231521
  outer loop
   vertex 232.114288 74.297844 562.844604
   vertex 232.174637 73.888107 563.226013
   vertex 232.111847 73.817940 562.984924
  endloop
 facet normal 0.970115 -0.072630 -0.231521
  outer loop
   vertex 232.177078 74.368011 563.085693
   vertex 232.174637 73.888107 563.226013
   vertex 232.114288 74.297844 562.844604
  endloop
 facet normal 0.718758 -0.198485 -0.666326
  outer loop
   vertex 232.354553 73.939476 563.404785
   vertex 232.174637 73.888107 563.226013
   vertex 232.177078 74.368011 563.085693
  endloop
 facet normal 0.718868 -0.198375 -0.666241
  outer loop
   vertex 232.177078 74.368011 563.085693
   vertex 232.356995 74.419380 563.264526
   vertex 232.354553 73.939476 563.404785
  endloop
 facet normal 0.275014 -0.271000 -0.922457
  outer loop
   vertex 232.354553 73.939476 563.404785
   vertex 232.356995 74.419380 563.264526
   vertex 232.603394 73.958275 563.473450
  endloop
 facet normal 0.242436 0.271132 0.931511
  outer loop
   vertex 233.029266 66.823158 539.076904
   vertex 233.031708 67.303062 538.936584
   vertex 232.778183 66.841957 539.136780
  endloop
 facet normal 0.242436 0.271132 0.931511
  outer loop
   vertex 232.778183 66.841957 539.136780
   vertex 233.031708 67.303062 538.936584
   vertex 232.780624 67.321861 538.996460
  endloop
 facet normal 0.695251 0.198455 0.690826
  outer loop
   vertex 232.780624 67.321861 538.996460
   vertex 232.592133 66.893326 539.309265
   vertex 232.778183 66.841957 539.136780
  endloop
 facet normal 0.695251 0.198455 0.690826
  outer loop
   vertex 232.594574 67.373230 539.168945
   vertex 232.592133 66.893326 539.309265
   vertex 232.780624 67.321861 538.996460
  endloop
 facet normal 0.961431 0.072672 0.265273
  outer loop
   vertex 232.520966 66.963493 539.547974
   vertex 232.592133 66.893326 539.309265
   vertex 232.594574 67.373230 539.168945
  endloop
 facet normal 0.961431 0.072672 0.265273
  outer loop
   vertex 232.594574 67.373230 539.168945
   vertex 232.523407 67.443398 539.407654
   vertex 232.520966 66.963493 539.547974
  endloop
 facet normal 0.970115 -0.072630 -0.231521
  outer loop
   vertex 232.520966 66.963493 539.547974
   vertex 232.523407 67.443398 539.407654
   vertex 232.583755 67.033661 539.789062
  endloop
 facet normal 0.970114 -0.072632 -0.231523
  outer loop
   vertex 232.583755 67.033661 539.789062
   vertex 232.523407 67.443398 539.407654
   vertex 232.586197 67.513557 539.648743
  endloop
 facet normal 0.718863 -0.198457 -0.666221
  outer loop
   vertex 232.586197 67.513557 539.648743
   vertex 232.763672 67.085022 539.967896
   vertex 232.583755 67.033661 539.789062
  endloop
 facet normal 0.274958 -0.271112 -0.922440
  outer loop
   vertex 232.626007 73.579376 562.177917
   vertex 232.628448 74.059280 562.037598
   vertex 233.049026 73.611336 562.294617
  endloop
 facet normal 0.274949 -0.271121 -0.922440
  outer loop
   vertex 233.049026 73.611336 562.294617
   vertex 232.628448 74.059280 562.037598
   vertex 233.051483 74.091240 562.154297
  endloop
 facet normal 0.718862 -0.198476 -0.666217
  outer loop
   vertex 233.051483 74.091240 562.154297
   vertex 233.354889 73.698662 562.598633
   vertex 233.049026 73.611336 562.294617
  endloop
 facet normal 0.718862 -0.198476 -0.666217
  outer loop
   vertex 233.357346 74.178566 562.458313
   vertex 233.354889 73.698662 562.598633
   vertex 233.051483 74.091240 562.154297
  endloop
 facet normal 0.970110 -0.072663 -0.231530
  outer loop
   vertex 233.461639 73.817940 563.008484
   vertex 233.354889 73.698662 562.598633
   vertex 233.357346 74.178566 562.458313
  endloop
 facet normal 0.970119 -0.072626 -0.231506
  outer loop
   vertex 233.357346 74.178566 562.458313
   vertex 233.464081 74.297844 562.868164
   vertex 233.461639 73.817940 563.008484
  endloop
 facet normal 0.961442 0.072661 0.265235
  outer loop
   vertex 233.461639 73.817940 563.008484
   vertex 233.464081 74.297844 562.868164
   vertex 233.340652 73.937225 563.414368
  endloop
 facet normal 0.961451 0.072624 0.265212
  outer loop
   vertex 233.340652 73.937225 563.414368
   vertex 233.464081 74.297844 562.868164
   vertex 233.343109 74.417130 563.274048
  endloop
 facet normal 0.695099 0.198476 0.690974
  outer loop
   vertex 233.343109 74.417130 563.274048
   vertex 233.024368 74.024544 563.707458
   vertex 233.340652 73.937225 563.414368
  endloop
 facet normal 0.695099 0.198476 0.690974
  outer loop
   vertex 233.026825 74.504448 563.567139
   vertex 233.024368 74.024544 563.707458
   vertex 233.343109 74.417130 563.274048
  endloop
 facet normal 0.242608 0.271112 0.931472
  outer loop
   vertex 232.597534 74.056511 563.809326
   vertex 233.024368 74.024544 563.707458
   vertex 233.026825 74.504448 563.567139
  endloop
 facet normal 0.242596 0.271124 0.931471
  outer loop
   vertex 233.026825 74.504448 563.567139
   vertex 232.599976 74.536407 563.669006
   vertex 232.597534 74.056511 563.809326
  endloop
 facet normal 0.275077 -0.271003 -0.922437
  outer loop
   vertex 233.035126 66.724922 538.740967
   vertex 233.037582 67.204826 538.600708
   vertex 233.458160 66.756889 538.857727
  endloop
 facet normal 0.274963 -0.271112 -0.922439
  outer loop
   vertex 233.458160 66.756889 538.857727
   vertex 233.037582 67.204826 538.600708
   vertex 233.460602 67.236794 538.717407
  endloop
 facet normal 0.718795 -0.198474 -0.666289
  outer loop
   vertex 233.460602 67.236794 538.717407
   vertex 233.764023 66.844208 539.161682
   vertex 233.458160 66.756889 538.857727
  endloop
 facet normal 0.718795 -0.198474 -0.666289
  outer loop
   vertex 233.766464 67.324112 539.021362
   vertex 233.764023 66.844208 539.161682
   vertex 233.460602 67.236794 538.717407
  endloop
 facet normal 0.970119 -0.072625 -0.231505
  outer loop
   vertex 233.870758 66.963493 539.571533
   vertex 233.764023 66.844208 539.161682
   vertex 233.766464 67.324112 539.021362
  endloop
 facet normal 0.970119 -0.072625 -0.231505
  outer loop
   vertex 233.766464 67.324112 539.021362
   vertex 233.873199 67.443398 539.431213
   vertex 233.870758 66.963493 539.571533
  endloop
 facet normal 0.961442 0.072662 0.265236
  outer loop
   vertex 233.870758 66.963493 539.571533
   vertex 233.873199 67.443398 539.431213
   vertex 233.749771 67.082771 539.977417
  endloop
 facet normal 0.961451 0.072624 0.265213
  outer loop
   vertex 233.749771 67.082771 539.977417
   vertex 233.873199 67.443398 539.431213
   vertex 233.752228 67.562675 539.837097
  endloop
 facet normal 0.695170 0.198457 0.690908
  outer loop
   vertex 233.752228 67.562675 539.837097
   vertex 233.433487 67.170097 540.270569
   vertex 233.749771 67.082771 539.977417
  endloop
 facet normal 0.695170 0.198457 0.690908
  outer loop
   vertex 233.435944 67.650002 540.130249
   vertex 233.433487 67.170097 540.270569
   vertex 233.752228 67.562675 539.837097
  endloop
 facet normal 0.242604 0.271113 0.931473
  outer loop
   vertex 233.006653 67.202057 540.372437
   vertex 233.433487 67.170097 540.270569
   vertex 233.435944 67.650002 540.130249
  endloop
 facet normal 0.242596 0.271120 0.931473
  outer loop
   vertex 233.435944 67.650002 540.130249
   vertex 233.009094 67.681961 540.232117
   vertex 233.006653 67.202057 540.372437
  endloop
 facet normal 0.718867 -0.198453 -0.666218
  outer loop
   vertex 232.586197 67.513557 539.648743
   vertex 232.766113 67.564926 539.827576
   vertex 232.763672 67.085022 539.967896
  endloop
 facet normal 0.275013 -0.271108 -0.922425
  outer loop
   vertex 232.763672 67.085022 539.967896
   vertex 232.766113 67.564926 539.827576
   vertex 233.014954 67.583725 539.896240
  endloop
 facet normal 0.275013 -0.271108 -0.922425
  outer loop
   vertex 233.014954 67.583725 539.896240
   vertex 233.012512 67.103821 540.036560
   vertex 232.763672 67.085022 539.967896
  endloop
 facet normal -0.242649 -0.271116 -0.931460
  outer loop
   vertex 233.266037 67.564926 539.836304
   vertex 233.012512 67.103821 540.036560
   vertex 233.014954 67.583725 539.896240
  endloop
 facet normal -0.242649 -0.271116 -0.931460
  outer loop
   vertex 233.263596 67.085022 539.976624
   vertex 233.012512 67.103821 540.036560
   vertex 233.266037 67.564926 539.836304
  endloop
 facet normal -0.695134 -0.198487 -0.690935
  outer loop
   vertex 233.266037 67.564926 539.836304
   vertex 233.452087 67.513557 539.663879
   vertex 233.263596 67.085022 539.976624
  endloop
 facet normal -0.695130 -0.198491 -0.690938
  outer loop
   vertex 233.263596 67.085022 539.976624
   vertex 233.452087 67.513557 539.663879
   vertex 233.449646 67.033661 539.804199
  endloop
 facet normal -0.961447 -0.072657 -0.265217
  outer loop
   vertex 233.449646 67.033661 539.804199
   vertex 233.452087 67.513557 539.663879
   vertex 233.523254 67.443398 539.425110
  endloop
 facet normal -0.961448 -0.072655 -0.265215
  outer loop
   vertex 233.523254 67.443398 539.425110
   vertex 233.520813 66.963493 539.565430
   vertex 233.449646 67.033661 539.804199
  endloop
 facet normal -0.970115 0.072630 0.231521
  outer loop
   vertex 233.460464 67.373230 539.184021
   vertex 233.520813 66.963493 539.565430
   vertex 233.523254 67.443398 539.425110
  endloop
 facet normal -0.970115 0.072630 0.231521
  outer loop
   vertex 233.458023 66.893326 539.324341
   vertex 233.520813 66.963493 539.565430
   vertex 233.460464 67.373230 539.184021
  endloop
 facet normal -0.718867 0.198453 0.666218
  outer loop
   vertex 233.460464 67.373230 539.184021
   vertex 233.280548 67.321861 539.005188
   vertex 233.458023 66.893326 539.324341
  endloop
 facet normal -0.718867 0.198453 0.666218
  outer loop
   vertex 233.458023 66.893326 539.324341
   vertex 233.280548 67.321861 539.005188
   vertex 233.278107 66.841957 539.145508
  endloop
 facet normal -0.274804 0.271124 0.922483
  outer loop
   vertex 233.278107 66.841957 539.145508
   vertex 233.280548 67.321861 539.005188
   vertex 233.031708 67.303062 538.936584
  endloop
 facet normal -0.274804 0.271124 0.922483
  outer loop
   vertex 233.031708 67.303062 538.936584
   vertex 233.029266 66.823158 539.076904
   vertex 233.278107 66.841957 539.145508
  endloop
 facet normal 0.695134 0.198487 0.690935
  outer loop
   vertex 232.183014 73.747780 562.746155
   vertex 232.369064 73.696411 562.573730
   vertex 232.371506 74.176315 562.433411
  endloop
 facet normal 0.242649 0.271116 0.931460
  outer loop
   vertex 232.371506 74.176315 562.433411
   vertex 232.369064 73.696411 562.573730
   vertex 232.620148 73.677612 562.513794
  endloop
 facet normal 0.242649 0.271116 0.931460
  outer loop
   vertex 232.620148 73.677612 562.513794
   vertex 232.622589 74.157516 562.373474
   vertex 232.371506 74.176315 562.433411
  endloop
 facet normal -0.275013 0.271108 0.922425
  outer loop
   vertex 232.868988 73.696411 562.582458
   vertex 232.622589 74.157516 562.373474
   vertex 232.620148 73.677612 562.513794
  endloop
 facet normal -0.275013 0.271108 0.922425
  outer loop
   vertex 232.871429 74.176315 562.442139
   vertex 232.622589 74.157516 562.373474
   vertex 232.868988 73.696411 562.582458
  endloop
 facet normal -0.718863 0.198455 0.666222
  outer loop
   vertex 232.868988 73.696411 562.582458
   vertex 233.048904 73.747772 562.761292
   vertex 232.871429 74.176315 562.442139
  endloop
 facet normal -0.718863 0.198455 0.666222
  outer loop
   vertex 232.871429 74.176315 562.442139
   vertex 233.048904 73.747772 562.761292
   vertex 233.051346 74.227676 562.620972
  endloop
 facet normal -0.970115 0.072630 0.231521
  outer loop
   vertex 233.051346 74.227676 562.620972
   vertex 233.048904 73.747772 562.761292
   vertex 233.111694 73.817940 563.002380
  endloop
 facet normal -0.970115 0.072630 0.231521
  outer loop
   vertex 233.111694 73.817940 563.002380
   vertex 233.114136 74.297844 562.862061
   vertex 233.051346 74.227676 562.620972
  endloop
 facet normal -0.961431 -0.072672 -0.265273
  outer loop
   vertex 233.040527 73.888107 563.241089
   vertex 233.114136 74.297844 562.862061
   vertex 233.111694 73.817940 563.002380
  endloop
 facet normal -0.961431 -0.072672 -0.265273
  outer loop
   vertex 233.042969 74.368011 563.100769
   vertex 233.114136 74.297844 562.862061
   vertex 233.040527 73.888107 563.241089
  endloop
 facet normal -0.695134 -0.198487 -0.690935
  outer loop
   vertex 233.040527 73.888107 563.241089
   vertex 232.854477 73.939476 563.413513
   vertex 233.042969 74.368011 563.100769
  endloop
 facet normal -0.695251 -0.198374 -0.690850
  outer loop
   vertex 233.042969 74.368011 563.100769
   vertex 232.854477 73.939476 563.413513
   vertex 232.856918 74.419380 563.273254
  endloop
 facet normal -0.242648 -0.271007 -0.931492
  outer loop
   vertex 232.856918 74.419380 563.273254
   vertex 232.854477 73.939476 563.413513
   vertex 232.603394 73.958275 563.473450
  endloop
 facet normal -0.242436 -0.271132 -0.931511
  outer loop
   vertex 232.603394 73.958275 563.473450
   vertex 232.605835 74.438179 563.333130
   vertex 232.856918 74.419380 563.273254
  endloop
 facet normal 0.274804 -0.271124 -0.922483
  outer loop
   vertex 232.356995 74.419380 563.264526
   vertex 232.605835 74.438179 563.333130
   vertex 232.603394 73.958275 563.473450
  endloop
endsolid