solid stl file generated from DOUG
 facet normal -0.869015 0.466797 0.164054
  outer loop
   vertex 67.328491 22.115950 488.232391
   vertex 67.320328 21.936344 488.700195
   vertex 67.452408 22.318550 488.312317
  endloop
 facet normal -0.869025 0.466784 0.164038
  outer loop
   vertex 67.452408 22.318550 488.312317
   vertex 67.320328 21.936344 488.700195
   vertex 67.444244 22.138945 488.780151
  endloop
 facet normal -0.006284 0.933585 0.358301
  outer loop
   vertex 67.444244 22.138945 488.780151
   vertex 67.702957 22.318550 488.316711
   vertex 67.452408 22.318550 488.312317
  endloop
 facet normal -0.006241 0.933577 0.358322
  outer loop
   vertex 67.694786 22.138945 488.784515
   vertex 67.702957 22.318550 488.316711
   vertex 67.444244 22.138945 488.780151
  endloop
 facet normal 0.862772 0.466776 0.194281
  outer loop
   vertex 67.829590 22.115950 488.241119
   vertex 67.702957 22.318550 488.316711
   vertex 67.694786 22.138945 488.784515
  endloop
 facet normal 0.862760 0.466799 0.194277
  outer loop
   vertex 67.694786 22.138945 488.784515
   vertex 67.821419 21.936344 488.708954
   vertex 67.829590 22.115950 488.241119
  endloop
 facet normal 0.869015 -0.466805 -0.164032
  outer loop
   vertex 67.829590 22.115950 488.241119
   vertex 67.821419 21.936344 488.708954
   vertex 67.705673 21.913349 488.161194
  endloop
 facet normal 0.869023 -0.466789 -0.164035
  outer loop
   vertex 67.705673 21.913349 488.161194
   vertex 67.821419 21.936344 488.708954
   vertex 67.697502 21.733746 488.628998
  endloop
 facet normal 0.006285 -0.933578 -0.358318
  outer loop
   vertex 67.697502 21.733746 488.628998
   vertex 67.455124 21.913349 488.156799
   vertex 67.705673 21.913349 488.161194
  endloop
 facet normal 0.006241 -0.933586 -0.358299
  outer loop
   vertex 67.446960 21.733746 488.624634
   vertex 67.455124 21.913349 488.156799
   vertex 67.697502 21.733746 488.628998
  endloop
 facet normal -0.862772 -0.466786 -0.194256
  outer loop
   vertex 67.328491 22.115950 488.232391
   vertex 67.455124 21.913349 488.156799
   vertex 67.446960 21.733746 488.624634
  endloop
 facet normal -0.862758 -0.466803 -0.194277
  outer loop
   vertex 67.446960 21.733746 488.624634
   vertex 67.320328 21.936344 488.700195
   vertex 67.328491 22.115950 488.232391
  endloop
 facet normal 0.862760 0.466797 0.194282
  outer loop
   vertex 45.729488 21.936346 488.323303
   vertex 45.737656 22.115952 487.855499
   vertex 45.602856 22.138947 488.398865
  endloop
 facet normal 0.862758 0.466801 0.194281
  outer loop
   vertex 45.602856 22.138947 488.398865
   vertex 45.737656 22.115952 487.855499
   vertex 45.611023 22.318550 487.931061
  endloop
 facet normal -0.006241 0.933578 0.358319
  outer loop
   vertex 45.611023 22.318550 487.931061
   vertex 45.352310 22.138947 488.394501
   vertex 45.602856 22.138947 488.398865
  endloop
 facet normal -0.006241 0.933578 0.358319
  outer loop
   vertex 45.360477 22.318550 487.926697
   vertex 45.352310 22.138947 488.394501
   vertex 45.611023 22.318550 487.931061
  endloop
 facet normal -0.869025 0.466784 0.164040
  outer loop
   vertex 45.228394 21.936346 488.314545
   vertex 45.352310 22.138947 488.394501
   vertex 45.360477 22.318550 487.926697
  endloop
 facet normal -0.869023 0.466786 0.164043
  outer loop
   vertex 45.360477 22.318550 487.926697
   vertex 45.236561 22.115952 487.846741
   vertex 45.228394 21.936346 488.314545
  endloop
 facet normal -0.862760 -0.466797 -0.194282
  outer loop
   vertex 45.228394 21.936346 488.314545
   vertex 45.236561 22.115952 487.846741
   vertex 45.355026 21.733746 488.238983
  endloop
 facet normal -0.862767 -0.466789 -0.194272
  outer loop
   vertex 45.355026 21.733746 488.238983
   vertex 45.236561 22.115952 487.846741
   vertex 45.363190 21.913351 487.771179
  endloop
 facet normal 0.006241 -0.933577 -0.358322
  outer loop
   vertex 45.363190 21.913351 487.771179
   vertex 45.605572 21.733746 488.243347
   vertex 45.355026 21.733746 488.238983
  endloop
 facet normal 0.006241 -0.933577 -0.358322
  outer loop
   vertex 45.613739 21.913351 487.775543
   vertex 45.605572 21.733746 488.243347
   vertex 45.363190 21.913351 487.771179
  endloop
 facet normal 0.869025 -0.466783 -0.164041
  outer loop
   vertex 45.729488 21.936346 488.323303
   vertex 45.605572 21.733746 488.243347
   vertex 45.613739 21.913351 487.775543
  endloop
 facet normal 0.869025 -0.466783 -0.164041
  outer loop
   vertex 45.613739 21.913351 487.775543
   vertex 45.737656 22.115952 487.855499
   vertex 45.729488 21.936346 488.323303
  endloop
 facet normal 0.016258 0.358430 -0.933415
  outer loop
   vertex 45.360477 22.318550 487.926697
   vertex 45.611023 22.318550 487.931061
   vertex 45.487106 22.115952 487.851105
  endloop
 facet normal 0.016372 0.358369 -0.933436
  outer loop
   vertex 45.487106 22.115952 487.851105
   vertex 45.611023 22.318550 487.931061
   vertex 45.737656 22.115952 487.855499
  endloop
 facet normal 0.016372 0.358366 -0.933437
  outer loop
   vertex 45.737656 22.115952 487.855499
   vertex 45.613739 21.913351 487.775543
   vertex 45.487106 22.115952 487.851105
  endloop
 facet normal 0.016258 0.358428 -0.933416
  outer loop
   vertex 67.455124 21.913349 488.156799
   vertex 67.328491 22.115950 488.232391
   vertex 67.579041 22.115950 488.236755
  endloop
 facet normal 0.016259 0.358305 -0.933463
  outer loop
   vertex 67.579041 22.115950 488.236755
   vertex 67.328491 22.115950 488.232391
   vertex 67.452408 22.318550 488.312317
  endloop
 facet normal 0.016372 0.358366 -0.933437
  outer loop
   vertex 67.452408 22.318550 488.312317
   vertex 67.702957 22.318550 488.316711
   vertex 67.579041 22.115950 488.236755
  endloop
 facet normal 0.016258 0.358428 -0.933416
  outer loop
   vertex 67.702957 22.318550 488.316711
   vertex 67.829590 22.115950 488.241119
   vertex 67.579041 22.115950 488.236755
  endloop
 facet normal 0.016259 0.358305 -0.933463
  outer loop
   vertex 67.579041 22.115950 488.236755
   vertex 67.829590 22.115950 488.241119
   vertex 67.705673 21.913349 488.161194
  endloop
 facet normal 0.016372 0.358366 -0.933437
  outer loop
   vertex 67.705673 21.913349 488.161194
   vertex 67.455124 21.913349 488.156799
   vertex 67.579041 22.115950 488.236755
  endloop
 facet normal 0.016259 0.358305 -0.933463
  outer loop
   vertex 45.613739 21.913351 487.775543
   vertex 45.363190 21.913351 487.771179
   vertex 45.487106 22.115952 487.851105
  endloop
 facet normal 0.016259 0.358305 -0.933463
  outer loop
   vertex 45.487106 22.115952 487.851105
   vertex 45.363190 21.913351 487.771179
   vertex 45.236561 22.115952 487.846741
  endloop
 facet normal 0.016258 0.358430 -0.933415
  outer loop
   vertex 45.236561 22.115952 487.846741
   vertex 45.360477 22.318550 487.926697
   vertex 45.487106 22.115952 487.851105
  endloop
 facet normal 0.016296 0.358371 -0.933437
  outer loop
   vertex 66.093414 20.803167 489.886688
   vertex 66.085594 21.970327 490.334656
   vertex 69.084358 20.803167 489.938904
  endloop
 facet normal 0.016296 0.358371 -0.933437
  outer loop
   vertex 69.084358 20.803167 489.938904
   vertex 66.085594 21.970327 490.334656
   vertex 69.076546 21.970327 490.386871
  endloop
 facet normal 0.999848 -0.000004 0.017448
  outer loop
   vertex 69.076546 21.970327 490.386871
   vertex 69.061737 20.305542 491.235046
   vertex 69.084358 20.803167 489.938904
  endloop
 facet normal 0.999848 -0.000001 0.017456
  outer loop
   vertex 69.053917 21.472702 491.683014
   vertex 69.061737 20.305542 491.235046
   vertex 69.076546 21.970327 490.386871
  endloop
 facet normal -0.016286 -0.358371 0.933437
  outer loop
   vertex 66.062973 21.472702 491.630829
   vertex 69.061737 20.305542 491.235046
   vertex 69.053917 21.472702 491.683014
  endloop
 facet normal -0.006252 0.933582 0.358310
  outer loop
   vertex 69.053917 21.472702 491.683014
   vertex 66.085594 21.970327 490.334656
   vertex 66.062973 21.472702 491.630829
  endloop
 facet normal -0.999848 -0.000002 -0.017450
  outer loop
   vertex 66.062973 21.472702 491.630829
   vertex 66.085594 21.970327 490.334656
   vertex 66.070793 20.305542 491.182861
  endloop
 facet normal -0.999848 -0.000002 -0.017450
  outer loop
   vertex 66.070793 20.305542 491.182861
   vertex 66.085594 21.970327 490.334656
   vertex 66.093414 20.803167 489.886688
  endloop
 facet normal 0.006252 -0.933582 -0.358310
  outer loop
   vertex 66.093414 20.803167 489.886688
   vertex 69.061737 20.305542 491.235046
   vertex 66.070793 20.305542 491.182861
  endloop
 facet normal 0.006255 -0.933579 -0.358318
  outer loop
   vertex 69.084358 20.803167 489.938904
   vertex 69.061737 20.305542 491.235046
   vertex 66.093414 20.803167 489.886688
  endloop
 facet normal -0.999848 -0.000000 -0.017453
  outer loop
   vertex 43.900669 20.305544 490.795837
   vertex 43.892849 21.472704 491.243805
   vertex 43.923294 20.803169 489.499695
  endloop
 facet normal -0.999848 -0.000000 -0.017453
  outer loop
   vertex 43.923294 20.803169 489.499695
   vertex 43.892849 21.472704 491.243805
   vertex 43.915474 21.970329 489.947662
  endloop
 facet normal 0.016296 0.358371 -0.933437
  outer loop
   vertex 43.915474 21.970329 489.947662
   vertex 46.914238 20.803169 489.551910
   vertex 43.923294 20.803169 489.499695
  endloop
 facet normal 0.016296 0.358371 -0.933437
  outer loop
   vertex 46.906418 21.970329 489.999878
   vertex 46.914238 20.803169 489.551910
   vertex 43.915474 21.970329 489.947662
  endloop
 facet normal 0.999848 0.000000 0.017453
  outer loop
   vertex 46.883793 21.472704 491.296021
   vertex 46.914238 20.803169 489.551910
   vertex 46.906418 21.970329 489.999878
  endloop
 facet normal -0.006255 0.933579 0.358318
  outer loop
   vertex 46.906418 21.970329 489.999878
   vertex 43.892849 21.472704 491.243805
   vertex 46.883793 21.472704 491.296021
  endloop
 facet normal -0.016296 -0.358371 0.933437
  outer loop
   vertex 46.883793 21.472704 491.296021
   vertex 43.892849 21.472704 491.243805
   vertex 46.891613 20.305544 490.848053
  endloop
 facet normal -0.016296 -0.358371 0.933437
  outer loop
   vertex 46.891613 20.305544 490.848053
   vertex 43.892849 21.472704 491.243805
   vertex 43.900669 20.305544 490.795837
  endloop
 facet normal 0.006255 -0.933579 -0.358318
  outer loop
   vertex 43.900669 20.305544 490.795837
   vertex 46.914238 20.803169 489.551910
   vertex 46.891613 20.305544 490.848053
  endloop
 facet normal 0.006255 -0.933579 -0.358318
  outer loop
   vertex 43.923294 20.803169 489.499695
   vertex 46.914238 20.803169 489.551910
   vertex 43.900669 20.305544 490.795837
  endloop
 facet normal -0.006255 0.933579 0.358318
  outer loop
   vertex 46.906418 21.970329 489.999878
   vertex 43.915474 21.970329 489.947662
   vertex 43.892849 21.472704 491.243805
  endloop
 facet normal -0.006255 0.933579 0.358318
  outer loop
   vertex 69.076546 21.970327 490.386871
   vertex 66.085594 21.970327 490.334656
   vertex 69.053917 21.472702 491.683014
  endloop
 facet normal 0.999848 0.000000 0.017453
  outer loop
   vertex 46.883793 21.472704 491.296021
   vertex 46.891613 20.305544 490.848053
   vertex 46.914238 20.803169 489.551910
  endloop
 facet normal -0.016286 -0.358371 0.933437
  outer loop
   vertex 66.062973 21.472702 491.630829
   vertex 66.070793 20.305542 491.182861
   vertex 69.061737 20.305542 491.235046
  endloop
 facet normal 0.016294 0.358375 -0.933436
  outer loop
   vertex 66.356964 21.646526 487.247711
   vertex 46.742271 21.748857 486.944611
   vertex 66.356277 21.748857 487.286987
  endloop
 facet normal 0.004643 0.963968 -0.265979
  outer loop
   vertex 66.356277 21.748857 487.286987
   vertex 46.742271 21.748857 486.944611
   vertex 66.353836 21.787502 487.427002
  endloop
 facet normal 0.004991 0.958159 -0.286193
  outer loop
   vertex 47.481663 23.117043 487.419403
   vertex 46.321369 23.147078 487.499725
   vertex 47.479908 23.147078 487.519928
  endloop
 facet normal -0.006248 0.933581 0.358311
  outer loop
   vertex 47.479908 23.147078 487.519928
   vertex 46.321369 23.147078 487.499725
   vertex 46.307655 22.845465 488.285339
  endloop
 facet normal 0.006248 -0.933581 -0.358311
  outer loop
   vertex 66.754234 21.292900 488.046173
   vertex 65.609413 21.594513 487.240356
   vertex 66.767952 21.594513 487.260559
  endloop
 facet normal 0.014886 -0.520589 -0.853677
  outer loop
   vertex 66.767952 21.594513 487.260559
   vertex 65.609413 21.594513 487.240356
   vertex 65.610367 21.684118 487.185730
  endloop
 facet normal 0.014708 -0.538456 -0.842525
  outer loop
   vertex 46.732456 22.887476 487.506805
   vertex 46.733822 23.009899 487.428589
   vertex 66.347832 23.009899 487.770996
  endloop
 facet normal 0.016295 0.358375 -0.933436
  outer loop
   vertex 66.347832 23.009899 487.770996
   vertex 46.733822 23.009899 487.428589
   vertex 66.347145 23.112230 487.810272
  endloop
 facet normal 0.017455 -0.000850 -0.999847
  outer loop
   vertex 46.730221 21.402330 487.634888
   vertex 66.344231 21.402330 487.977295
   vertex 46.730221 21.366421 487.634918
  endloop
 facet normal 0.017453 -0.000000 -0.999848
  outer loop
   vertex 46.730221 21.366421 487.634918
   vertex 66.344231 21.402330 487.977295
   vertex 66.344231 21.366419 487.977295
  endloop
 facet normal 0.006254 -0.933584 -0.358305
  outer loop
   vertex 66.344231 21.366419 487.977295
   vertex 46.729069 21.341114 487.700836
   vertex 46.730221 21.366421 487.634918
  endloop
 facet normal -0.999848 0.000004 -0.017448
  outer loop
   vertex 46.331772 21.594515 486.903839
   vertex 46.330032 21.810886 487.003571
   vertex 46.332726 21.684118 486.849213
  endloop
 facet normal -0.999848 -0.000015 -0.017433
  outer loop
   vertex 46.332726 21.684118 486.849213
   vertex 46.330032 21.810886 487.003571
   vertex 46.331730 21.832525 486.906189
  endloop
 facet normal 0.016301 0.358461 -0.933402
  outer loop
   vertex 46.331730 21.832525 486.906189
   vertex 47.491264 21.684118 486.869446
   vertex 46.332726 21.684118 486.849213
  endloop
 facet normal 0.999848 -0.000024 0.017460
  outer loop
   vertex 66.757553 23.147078 487.856445
   vertex 66.758781 22.919537 487.785797
   vertex 66.759308 23.117041 487.755920
  endloop
 facet normal 0.999847 -0.000023 0.017465
  outer loop
   vertex 66.759308 23.117041 487.755920
   vertex 66.758781 22.919537 487.785797
   vertex 66.760300 22.968636 487.698944
  endloop
 facet normal 0.016301 0.358464 -0.933401
  outer loop
   vertex 66.760300 22.968636 487.698944
   vertex 65.600769 23.117041 487.735687
   vertex 66.759308 23.117041 487.755920
  endloop
 facet normal 0.999847 0.000001 0.017479
  outer loop
   vertex 47.482658 22.968636 487.362457
   vertex 47.481663 23.117043 487.419403
   vertex 47.481140 22.919538 487.449310
  endloop
 facet normal 0.999848 -0.000003 0.017454
  outer loop
   vertex 47.481140 22.919538 487.449310
   vertex 47.481663 23.117043 487.419403
   vertex 47.479908 23.147078 487.519928
  endloop
 facet normal 0.999848 -0.000002 0.017453
  outer loop
   vertex 47.479908 23.147078 487.519928
   vertex 47.466194 22.845465 488.305542
   vertex 47.481140 22.919538 487.449310
  endloop
 facet normal -0.006248 0.933581 0.358311
  outer loop
   vertex 46.307655 22.845465 488.285339
   vertex 47.466194 22.845465 488.305542
   vertex 47.479908 23.147078 487.519928
  endloop
 facet normal 0.014709 -0.538301 -0.842624
  outer loop
   vertex 66.347832 23.009899 487.770996
   vertex 66.346466 22.887474 487.849182
   vertex 46.732456 22.887476 487.506805
  endloop
 facet normal 0.016294 0.358372 -0.933437
  outer loop
   vertex 46.732456 22.887476 487.506805
   vertex 66.346466 22.887474 487.849182
   vertex 66.353836 21.787502 487.427002
  endloop
 facet normal 0.016294 0.358371 -0.933437
  outer loop
   vertex 66.353836 21.787502 487.427002
   vertex 46.739826 21.787502 487.084625
   vertex 46.732456 22.887476 487.506805
  endloop
 facet normal 0.004643 0.963968 -0.265979
  outer loop
   vertex 46.742271 21.748857 486.944611
   vertex 46.739826 21.787502 487.084625
   vertex 66.353836 21.787502 487.427002
  endloop
 facet normal 0.006248 -0.933581 -0.358311
  outer loop
   vertex 66.754234 21.292900 488.046173
   vertex 65.595695 21.292900 488.025970
   vertex 65.609413 21.594513 487.240356
  endloop
 facet normal -0.999848 0.000008 -0.017456
  outer loop
   vertex 65.609413 21.594513 487.240356
   vertex 65.595695 21.292900 488.025970
   vertex 65.607674 21.810886 487.340088
  endloop
 facet normal -0.999848 0.000004 -0.017448
  outer loop
   vertex 65.607674 21.810886 487.340088
   vertex 65.610367 21.684118 487.185730
   vertex 65.609413 21.594513 487.240356
  endloop
 facet normal -0.999848 0.000017 -0.017459
  outer loop
   vertex 65.609375 21.832525 487.242676
   vertex 65.610367 21.684118 487.185730
   vertex 65.607674 21.810886 487.340088
  endloop
 facet normal -0.012964 -0.669599 0.742610
  outer loop
   vertex 66.354225 21.622200 487.404602
   vertex 46.740215 21.622202 487.062195
   vertex 66.354645 21.595522 487.380554
  endloop
 facet normal -0.012970 -0.669130 0.743032
  outer loop
   vertex 66.354645 21.595522 487.380554
   vertex 46.740215 21.622202 487.062195
   vertex 46.740635 21.595524 487.038177
  endloop
 facet normal 0.006255 -0.933573 -0.358332
  outer loop
   vertex 46.740635 21.595524 487.038177
   vertex 66.356964 21.646526 487.247711
   vertex 66.354645 21.595522 487.380554
  endloop
 facet normal 0.006255 -0.933578 -0.358320
  outer loop
   vertex 46.742954 21.646526 486.905334
   vertex 66.356964 21.646526 487.247711
   vertex 46.740635 21.595524 487.038177
  endloop
 facet normal 0.016294 0.358374 -0.933436
  outer loop
   vertex 46.742271 21.748857 486.944611
   vertex 66.356964 21.646526 487.247711
   vertex 46.742954 21.646526 486.905334
  endloop
 facet normal 0.016284 0.358375 -0.933436
  outer loop
   vertex 68.148491 21.423212 488.495789
   vertex 66.493607 22.464094 488.866547
   vertex 68.141518 22.464094 488.895294
  endloop
 facet normal -0.006251 0.933580 0.358314
  outer loop
   vertex 68.141518 22.464094 488.895294
   vertex 66.493607 22.464094 488.866547
   vertex 68.116409 21.911829 490.333771
  endloop
 facet normal 0.999848 -0.000000 0.017452
  outer loop
   vertex 68.116409 21.911829 490.333771
   vertex 68.123383 20.870947 489.934265
   vertex 68.141518 22.464094 488.895294
  endloop
 facet normal -0.016284 -0.358375 0.933436
  outer loop
   vertex 66.468498 21.911829 490.305023
   vertex 68.123383 20.870947 489.934265
   vertex 68.116409 21.911829 490.333771
  endloop
 facet normal -0.016284 -0.358375 0.933436
  outer loop
   vertex 66.475471 20.870947 489.905518
   vertex 68.123383 20.870947 489.934265
   vertex 66.468498 21.911829 490.305023
  endloop
 facet normal -0.999848 0.000000 -0.017452
  outer loop
   vertex 66.468498 21.911829 490.305023
   vertex 66.493607 22.464094 488.866547
   vertex 66.475471 20.870947 489.905518
  endloop
 facet normal -0.999848 0.000000 -0.017452
  outer loop
   vertex 66.475471 20.870947 489.905518
   vertex 66.493607 22.464094 488.866547
   vertex 66.500580 21.423212 488.467041
  endloop
 facet normal 0.016284 0.358375 -0.933436
  outer loop
   vertex 66.500580 21.423212 488.467041
   vertex 66.493607 22.464094 488.866547
   vertex 68.148491 21.423212 488.495789
  endloop
 facet normal 0.006251 -0.933580 -0.358314
  outer loop
   vertex 68.148491 21.423212 488.495789
   vertex 68.123383 20.870947 489.934265
   vertex 66.500580 21.423212 488.467041
  endloop
 facet normal 0.999848 -0.000000 0.017452
  outer loop
   vertex 68.141518 22.464094 488.895294
   vertex 68.123383 20.870947 489.934265
   vertex 68.148491 21.423212 488.495789
  endloop
 facet normal 0.006257 -0.933580 -0.358314
  outer loop
   vertex 44.908962 21.423214 488.090118
   vertex 46.556870 21.423214 488.118896
   vertex 44.883850 20.870949 489.528595
  endloop
 facet normal 0.006257 -0.933580 -0.358314
  outer loop
   vertex 44.883850 20.870949 489.528595
   vertex 46.556870 21.423214 488.118896
   vertex 46.531761 20.870949 489.557373
  endloop
 facet normal -0.016301 -0.358375 0.933435
  outer loop
   vertex 46.531761 20.870949 489.557373
   vertex 44.876877 21.911831 489.928101
   vertex 44.883850 20.870949 489.528595
  endloop
 facet normal -0.016301 -0.358375 0.933435
  outer loop
   vertex 46.524788 21.911831 489.956879
   vertex 44.876877 21.911831 489.928101
   vertex 46.531761 20.870949 489.557373
  endloop
 facet normal -0.006257 0.933580 0.358314
  outer loop
   vertex 46.549896 22.464096 488.518402
   vertex 44.876877 21.911831 489.928101
   vertex 46.524788 21.911831 489.956879
  endloop
 facet normal 0.999848 -0.000000 0.017452
  outer loop
   vertex 46.524788 21.911831 489.956879
   vertex 46.556870 21.423214 488.118896
   vertex 46.549896 22.464096 488.518402
  endloop
 facet normal 0.016301 0.358375 -0.933435
  outer loop
   vertex 46.549896 22.464096 488.518402
   vertex 46.556870 21.423214 488.118896
   vertex 44.901989 22.464096 488.489624
  endloop
 facet normal 0.016301 0.358375 -0.933435
  outer loop
   vertex 44.901989 22.464096 488.489624
   vertex 46.556870 21.423214 488.118896
   vertex 44.908962 21.423214 488.090118
  endloop
 facet normal -0.999848 0.000001 -0.017454
  outer loop
   vertex 44.908962 21.423214 488.090118
   vertex 44.876877 21.911831 489.928101
   vertex 44.901989 22.464096 488.489624
  endloop
 facet normal -0.999848 0.000001 -0.017454
  outer loop
   vertex 44.883850 20.870949 489.528595
   vertex 44.876877 21.911831 489.928101
   vertex 44.908962 21.423214 488.090118
  endloop
 facet normal -0.016280 -0.358389 0.933430
  outer loop
   vertex 69.572731 21.956652 489.384308
   vertex 69.222786 21.956652 489.378204
   vertex 69.225906 21.489862 489.199036
  endloop
 facet normal 0.016361 0.358389 -0.933429
  outer loop
   vertex 69.225906 21.489862 489.199036
   vertex 69.222786 21.956652 489.378204
   vertex 69.399323 21.723257 489.291687
  endloop
 facet normal 0.016361 0.358389 -0.933429
  outer loop
   vertex 69.399323 21.723257 489.291687
   vertex 69.575859 21.489862 489.205170
   vertex 69.225906 21.489862 489.199036
  endloop
 facet normal 0.016281 0.358336 -0.933451
  outer loop
   vertex 69.572731 21.956652 489.384308
   vertex 69.575859 21.489862 489.205170
   vertex 69.399323 21.723257 489.291687
  endloop
 facet normal 0.999848 0.000001 0.017456
  outer loop
   vertex 69.559563 21.131493 490.138611
   vertex 69.575859 21.489862 489.205170
   vertex 69.572731 21.956652 489.384308
  endloop
 facet normal 0.999848 0.000001 0.017456
  outer loop
   vertex 69.572731 21.956652 489.384308
   vertex 69.556435 21.598284 490.317749
   vertex 69.559563 21.131493 490.138611
  endloop
 facet normal -0.016307 -0.358335 0.933451
  outer loop
   vertex 69.559563 21.131493 490.138611
   vertex 69.556435 21.598284 490.317749
   vertex 67.859818 21.131493 490.108917
  endloop
 facet normal -0.016290 -0.358388 0.933431
  outer loop
   vertex 67.859818 21.131493 490.108917
   vertex 69.556435 21.598284 490.317749
   vertex 67.856697 21.598284 490.288086
  endloop
 facet normal -0.999848 0.000011 -0.017443
  outer loop
   vertex 67.856697 21.598284 490.288086
   vertex 67.872986 21.956654 489.354645
   vertex 67.859818 21.131493 490.108917
  endloop
 facet normal -0.006246 0.933580 0.358314
  outer loop
   vertex 68.285835 21.867060 489.595276
   vertex 67.872986 21.956654 489.354645
   vertex 67.856697 21.598284 490.288086
  endloop
 facet normal -0.006249 0.933578 0.358320
  outer loop
   vertex 68.222939 21.956654 489.360748
   vertex 67.872986 21.956654 489.354645
   vertex 68.285835 21.867060 489.595276
  endloop
 facet normal 0.006261 -0.933580 -0.358314
  outer loop
   vertex 44.736450 21.400272 489.004974
   vertex 45.157448 21.489864 488.778900
   vertex 45.141155 21.131495 489.712341
  endloop
 facet normal 0.999848 0.000001 0.017452
  outer loop
   vertex 45.141155 21.131495 489.712341
   vertex 45.157448 21.489864 488.778900
   vertex 45.138027 21.598286 489.891510
  endloop
 facet normal -0.016290 -0.358388 0.933430
  outer loop
   vertex 45.138027 21.598286 489.891510
   vertex 43.441414 21.131495 489.682678
   vertex 45.141155 21.131495 489.712341
  endloop
 facet normal -0.016307 -0.358335 0.933451
  outer loop
   vertex 43.438286 21.598286 489.861816
   vertex 43.441414 21.131495 489.682678
   vertex 45.138027 21.598286 489.891510
  endloop
 facet normal -0.999848 -0.000002 -0.017453
  outer loop
   vertex 43.457706 21.489864 488.749237
   vertex 43.441414 21.131495 489.682678
   vertex 43.438286 21.598286 489.861816
  endloop
 facet normal -0.999848 -0.000001 -0.017453
  outer loop
   vertex 43.438286 21.598286 489.861816
   vertex 43.454578 21.956654 488.928406
   vertex 43.457706 21.489864 488.749237
  endloop
 facet normal 0.016199 0.358390 -0.933432
  outer loop
   vertex 43.457706 21.489864 488.749237
   vertex 43.454578 21.956654 488.928406
   vertex 43.631119 21.723259 488.841858
  endloop
 facet normal 0.016280 0.358443 -0.933410
  outer loop
   vertex 43.631119 21.723259 488.841858
   vertex 43.454578 21.956654 488.928406
   vertex 43.804527 21.956654 488.934509
  endloop
 facet normal 0.016362 0.358390 -0.933429
  outer loop
   vertex 43.804527 21.956654 488.934509
   vertex 43.807655 21.489864 488.755341
   vertex 43.631119 21.723259 488.841858
  endloop
 facet normal -0.016280 -0.358390 0.933430
  outer loop
   vertex 43.457706 21.489864 488.749237
   vertex 43.807655 21.489864 488.755341
   vertex 43.804527 21.956654 488.934509
  endloop
 facet normal 0.016280 0.358336 -0.933451
  outer loop
   vertex 43.631119 21.723259 488.841858
   vertex 43.807655 21.489864 488.755341
   vertex 43.457706 21.489864 488.749237
  endloop
 facet normal 0.016295 0.358375 -0.933436
  outer loop
   vertex 46.733822 23.009899 487.428589
   vertex 46.733135 23.112230 487.467865
   vertex 66.347145 23.112230 487.810272
  endloop
 facet normal -0.006255 0.933578 0.358320
  outer loop
   vertex 66.347145 23.112230 487.810272
   vertex 46.733135 23.112230 487.467865
   vertex 46.730816 23.061228 487.600708
  endloop
 facet normal -0.006255 0.933573 0.358332
  outer loop
   vertex 46.730816 23.061228 487.600708
   vertex 66.344826 23.061226 487.943115
   vertex 66.347145 23.112230 487.810272
  endloop
 facet normal -0.017455 0.000850 0.999847
  outer loop
   vertex 46.730816 23.025318 487.600739
   vertex 66.344826 23.061226 487.943115
   vertex 46.730816 23.061228 487.600708
  endloop
 facet normal -0.017453 0.000000 0.999848
  outer loop
   vertex 66.344826 23.025316 487.943115
   vertex 66.344826 23.061226 487.943115
   vertex 46.730816 23.025318 487.600739
  endloop
 facet normal -0.006255 0.933579 0.358316
  outer loop
   vertex 46.730816 23.025318 487.600739
   vertex 46.720818 22.805447 488.173431
   vertex 66.344826 23.025316 487.943115
  endloop
 facet normal -0.006255 0.933580 0.358313
  outer loop
   vertex 66.344826 23.025316 487.943115
   vertex 46.720818 22.805447 488.173431
   vertex 66.334831 22.805447 488.515808
  endloop
 facet normal 0.012970 0.669130 -0.743032
  outer loop
   vertex 66.334831 22.805447 488.515808
   vertex 46.720818 22.805447 488.173431
   vertex 46.720398 22.832125 488.197449
  endloop
 facet normal 0.012964 0.669625 -0.742586
  outer loop
   vertex 46.720398 22.832125 488.197449
   vertex 66.334412 22.832123 488.539856
   vertex 66.334831 22.805447 488.515808
  endloop
 facet normal -0.006255 0.933584 0.358305
  outer loop
   vertex 46.719250 22.806818 488.263367
   vertex 66.334412 22.832123 488.539856
   vertex 46.720398 22.832125 488.197449
  endloop
 facet normal -0.006255 0.933584 0.358305
  outer loop
   vertex 66.333260 22.806816 488.605774
   vertex 66.334412 22.832123 488.539856
   vertex 46.719250 22.806818 488.263367
  endloop
 facet normal -0.016295 -0.358360 0.933441
  outer loop
   vertex 46.719250 22.806818 488.263367
   vertex 46.729069 21.341114 487.700836
   vertex 66.333260 22.806816 488.605774
  endloop
 facet normal -0.016294 -0.358377 0.933435
  outer loop
   vertex 66.333260 22.806816 488.605774
   vertex 46.729069 21.341114 487.700836
   vertex 66.343079 21.341112 488.043213
  endloop
 facet normal 0.006254 -0.933584 -0.358305
  outer loop
   vertex 66.343079 21.341112 488.043213
   vertex 46.729069 21.341114 487.700836
   vertex 66.344231 21.366419 487.977295
  endloop
 facet normal 0.006276 -0.933580 -0.358314
  outer loop
   vertex 68.288963 21.400270 489.416138
   vertex 67.859818 21.131493 490.108917
   vertex 67.876114 21.489862 489.175476
  endloop
 facet normal -0.999848 -0.000000 -0.017456
  outer loop
   vertex 67.876114 21.489862 489.175476
   vertex 67.859818 21.131493 490.108917
   vertex 67.872986 21.956654 489.354645
  endloop
 facet normal 0.016362 0.358388 -0.933429
  outer loop
   vertex 67.872986 21.956654 489.354645
   vertex 68.226059 21.489862 489.181610
   vertex 67.876114 21.489862 489.175476
  endloop
 facet normal 0.016280 0.358335 -0.933451
  outer loop
   vertex 68.222939 21.956654 489.360748
   vertex 68.226059 21.489862 489.181610
   vertex 67.872986 21.956654 489.354645
  endloop
 facet normal -0.016280 -0.358335 0.933451
  outer loop
   vertex 67.872986 21.956654 489.354645
   vertex 68.226059 21.489862 489.181610
   vertex 68.222939 21.956654 489.360748
  endloop
 facet normal -0.006250 0.933573 0.358332
  outer loop
   vertex 68.222939 21.956654 489.360748
   vertex 68.293983 22.046246 489.128571
   vertex 67.872986 21.956654 489.354645
  endloop
 facet normal -0.006258 0.933579 0.358318
  outer loop
   vertex 67.872986 21.956654 489.354645
   vertex 68.293983 22.046246 489.128571
   vertex 67.993774 22.108959 488.959930
  endloop
 facet normal -0.006258 0.933579 0.358318
  outer loop
   vertex 67.993774 22.108959 488.959930
   vertex 68.293983 22.046246 489.128571
   vertex 68.479950 22.111832 488.960938
  endloop
 facet normal -0.006258 0.933591 0.358287
  outer loop
   vertex 68.479950 22.111832 488.960938
   vertex 68.309921 22.220455 488.674927
   vertex 67.993774 22.108959 488.959930
  endloop
 facet normal -0.006259 0.933590 0.358287
  outer loop
   vertex 68.731003 22.135838 488.902771
   vertex 68.309921 22.220455 488.674927
   vertex 68.479950 22.111832 488.960938
  endloop
 facet normal -0.006265 0.933587 0.358297
  outer loop
   vertex 68.736710 22.261267 488.576050
   vertex 68.309921 22.220455 488.674927
   vertex 68.731003 22.135838 488.902771
  endloop
 facet normal -0.006254 0.933587 0.358297
  outer loop
   vertex 68.731003 22.135838 488.902771
   vertex 68.979874 22.111832 488.969666
   vertex 68.736710 22.261267 488.576050
  endloop
 facet normal -0.006269 0.933584 0.358305
  outer loop
   vertex 68.736710 22.261267 488.576050
   vertex 68.979874 22.111832 488.969666
   vertex 69.159790 22.220455 488.689789
  endloop
 facet normal -0.006237 0.933577 0.358323
  outer loop
   vertex 69.159790 22.220455 488.689789
   vertex 68.979874 22.111832 488.969666
   vertex 69.159882 22.046246 489.143677
  endloop
 facet normal -0.006259 0.933577 0.358323
  outer loop
   vertex 69.159882 22.046246 489.143677
   vertex 69.465797 22.108959 488.985626
   vertex 69.159790 22.220455 488.689789
  endloop
 facet normal -0.006260 0.933577 0.358323
  outer loop
   vertex 69.222786 21.956652 489.378204
   vertex 69.465797 22.108959 488.985626
   vertex 69.159882 22.046246 489.143677
  endloop
 facet normal -0.006250 0.933575 0.358328
  outer loop
   vertex 69.572731 21.956652 489.384308
   vertex 69.465797 22.108959 488.985626
   vertex 69.222786 21.956652 489.378204
  endloop
 facet normal -0.006250 0.933573 0.358332
  outer loop
   vertex 69.222786 21.956652 489.378204
   vertex 69.151733 21.867060 489.610382
   vertex 69.572731 21.956652 489.384308
  endloop
 facet normal -0.006262 0.933581 0.358312
  outer loop
   vertex 69.572731 21.956652 489.384308
   vertex 69.151733 21.867060 489.610382
   vertex 69.556435 21.598284 490.317749
  endloop
 facet normal -0.006225 0.933588 0.358294
  outer loop
   vertex 69.556435 21.598284 490.317749
   vertex 69.151733 21.867060 489.610382
   vertex 68.965767 21.801474 489.778046
  endloop
 facet normal -0.006251 0.933578 0.358319
  outer loop
   vertex 68.965767 21.801474 489.778046
   vertex 68.714714 21.777468 489.836212
   vertex 69.556435 21.598284 490.317749
  endloop
 facet normal -0.006262 0.933581 0.358312
  outer loop
   vertex 44.733326 21.867062 489.184143
   vertex 45.138027 21.598286 489.891510
   vertex 45.154324 21.956654 488.958069
  endloop
 facet normal 0.999848 -0.000007 0.017453
  outer loop
   vertex 45.154324 21.956654 488.958069
   vertex 45.138027 21.598286 489.891510
   vertex 45.157448 21.489864 488.778900
  endloop
 facet normal 0.016280 0.358389 -0.933430
  outer loop
   vertex 45.157448 21.489864 488.778900
   vertex 44.804375 21.956654 488.951965
   vertex 45.154324 21.956654 488.958069
  endloop
 facet normal 0.016280 0.358390 -0.933430
  outer loop
   vertex 44.807503 21.489864 488.772797
   vertex 44.804375 21.956654 488.951965
   vertex 45.157448 21.489864 488.778900
  endloop
 facet normal -0.016280 -0.358390 0.933430
  outer loop
   vertex 45.157448 21.489864 488.778900
   vertex 44.804375 21.956654 488.951965
   vertex 44.807503 21.489864 488.772797
  endloop
 facet normal 0.006249 -0.933580 -0.358314
  outer loop
   vertex 44.807503 21.489864 488.772797
   vertex 44.744598 21.579456 488.538269
   vertex 45.157448 21.489864 488.778900
  endloop
 facet normal 0.006258 -0.933576 -0.358326
  outer loop
   vertex 45.157448 21.489864 488.778900
   vertex 44.744598 21.579456 488.538269
   vertex 45.050514 21.642170 488.380219
  endloop
 facet normal 0.006251 -0.933572 -0.358336
  outer loop
   vertex 45.050514 21.642170 488.380219
   vertex 44.744598 21.579456 488.538269
   vertex 44.564594 21.645042 488.364258
  endloop
 facet normal 0.006250 -0.933590 -0.358287
  outer loop
   vertex 44.564594 21.645042 488.364258
   vertex 44.744507 21.753668 488.084351
   vertex 45.050514 21.642170 488.380219
  endloop
 facet normal 0.006251 -0.933591 -0.358287
  outer loop
   vertex 44.315727 21.669048 488.297363
   vertex 44.744507 21.753668 488.084351
   vertex 44.564594 21.645042 488.364258
  endloop
 facet normal 0.006245 -0.933587 -0.358297
  outer loop
   vertex 44.321430 21.794477 487.970642
   vertex 44.744507 21.753668 488.084351
   vertex 44.315727 21.669048 488.297363
  endloop
 facet normal 0.006256 -0.933587 -0.358297
  outer loop
   vertex 44.315727 21.669048 488.297363
   vertex 44.064671 21.645042 488.355530
   vertex 44.321430 21.794477 487.970642
  endloop
 facet normal 0.006261 -0.933588 -0.358294
  outer loop
   vertex 44.321430 21.794477 487.970642
   vertex 44.064671 21.645042 488.355530
   vertex 43.894638 21.753668 488.069519
  endloop
 facet normal 0.006275 -0.933585 -0.358301
  outer loop
   vertex 43.894638 21.753668 488.069519
   vertex 44.064671 21.645042 488.355530
   vertex 43.878704 21.579456 488.523163
  endloop
 facet normal 0.006242 -0.933585 -0.358303
  outer loop
   vertex 43.878704 21.579456 488.523163
   vertex 43.578495 21.642172 488.354523
   vertex 43.894638 21.753668 488.069519
  endloop
 facet normal 0.006259 -0.933574 -0.358329
  outer loop
   vertex 43.807655 21.489864 488.755341
   vertex 43.578495 21.642172 488.354523
   vertex 43.878704 21.579456 488.523163
  endloop
 facet normal 0.006250 -0.933576 -0.358324
  outer loop
   vertex 43.457706 21.489864 488.749237
   vertex 43.578495 21.642172 488.354523
   vertex 43.807655 21.489864 488.755341
  endloop
 facet normal 0.006249 -0.933580 -0.358314
  outer loop
   vertex 43.807655 21.489864 488.755341
   vertex 43.870560 21.400272 488.989868
   vertex 43.457706 21.489864 488.749237
  endloop
 facet normal 0.006250 -0.933580 -0.358314
  outer loop
   vertex 43.457706 21.489864 488.749237
   vertex 43.870560 21.400272 488.989868
   vertex 43.441414 21.131495 489.682678
  endloop
 facet normal 0.006273 -0.933585 -0.358301
  outer loop
   vertex 43.441414 21.131495 489.682678
   vertex 43.870560 21.400272 488.989868
   vertex 44.050560 21.334686 489.163910
  endloop
 facet normal 0.006254 -0.933578 -0.358321
  outer loop
   vertex 44.050560 21.334686 489.163910
   vertex 44.299431 21.310678 489.230804
   vertex 43.441414 21.131495 489.682678
  endloop
 facet normal -0.012976 0.667925 0.744116
  outer loop
   vertex 46.307655 22.845465 488.285339
   vertex 46.301224 22.434805 488.653839
   vertex 47.466194 22.845465 488.305542
  endloop
 facet normal -0.012995 0.667955 0.744088
  outer loop
   vertex 47.466194 22.845465 488.305542
   vertex 46.301224 22.434805 488.653839
   vertex 47.459763 22.434805 488.674072
  endloop
 facet normal 0.999848 -0.000001 0.017449
  outer loop
   vertex 47.459763 22.434805 488.674072
   vertex 47.467018 21.351456 488.258270
   vertex 47.466194 22.845465 488.305542
  endloop
 facet normal -0.016302 -0.358373 0.933436
  outer loop
   vertex 46.301224 22.434805 488.653839
   vertex 47.467018 21.351456 488.258270
   vertex 47.459763 22.434805 488.674072
  endloop
 facet normal -0.016302 -0.358373 0.933436
  outer loop
   vertex 46.308479 21.351456 488.238037
   vertex 47.467018 21.351456 488.258270
   vertex 46.301224 22.434805 488.653839
  endloop
 facet normal -0.999848 0.000004 -0.017459
  outer loop
   vertex 46.301224 22.434805 488.653839
   vertex 46.318058 21.292900 487.689453
   vertex 46.308479 21.351456 488.238037
  endloop
 facet normal -0.001853 -0.994353 0.106104
  outer loop
   vertex 46.308479 21.351456 488.238037
   vertex 46.318058 21.292900 487.689453
   vertex 47.467018 21.351456 488.258270
  endloop
 facet normal -0.001850 -0.994354 0.106099
  outer loop
   vertex 47.467018 21.351456 488.258270
   vertex 46.318058 21.292900 487.689453
   vertex 47.476597 21.292900 487.709656
  endloop
 facet normal 0.999848 -0.000001 0.017457
  outer loop
   vertex 47.476597 21.292900 487.709656
   vertex 47.466194 22.845465 488.305542
   vertex 47.467018 21.351456 488.258270
  endloop
 facet normal 0.999848 -0.000000 0.017456
  outer loop
   vertex 47.488571 21.810886 487.023804
   vertex 47.466194 22.845465 488.305542
   vertex 47.476597 21.292900 487.709656
  endloop
 facet normal 0.999848 0.000003 0.017453
  outer loop
   vertex 47.481140 22.919538 487.449310
   vertex 47.466194 22.845465 488.305542
   vertex 47.488571 21.810886 487.023804
  endloop
 facet normal 0.016302 0.358368 -0.933438
  outer loop
   vertex 47.488571 21.810886 487.023804
   vertex 46.322601 22.919538 487.429077
   vertex 47.481140 22.919538 487.449310
  endloop
 facet normal 0.008592 -0.870568 -0.491973
  outer loop
   vertex 47.481140 22.919538 487.449310
   vertex 46.322601 22.919538 487.429077
   vertex 47.482658 22.968636 487.362457
  endloop
 facet normal 0.008592 -0.870568 -0.491973
  outer loop
   vertex 47.482658 22.968636 487.362457
   vertex 46.322601 22.919538 487.429077
   vertex 46.324120 22.968636 487.342224
  endloop
 facet normal 0.016302 0.358293 -0.933467
  outer loop
   vertex 46.324120 22.968636 487.342224
   vertex 47.481663 23.117043 487.419403
   vertex 47.482658 22.968636 487.362457
  endloop
 facet normal 0.016302 0.358293 -0.933467
  outer loop
   vertex 46.323124 23.117043 487.399170
   vertex 47.481663 23.117043 487.419403
   vertex 46.324120 22.968636 487.342224
  endloop
 facet normal 0.004997 0.958183 -0.286114
  outer loop
   vertex 46.321369 23.147078 487.499725
   vertex 47.481663 23.117043 487.419403
   vertex 46.323124 23.117043 487.399170
  endloop
 facet normal -0.999848 0.000003 -0.017449
  outer loop
   vertex 46.323124 23.117043 487.399170
   vertex 46.322601 22.919538 487.429077
   vertex 46.321369 23.147078 487.499725
  endloop
 facet normal -0.999848 0.000004 -0.017452
  outer loop
   vertex 46.321369 23.147078 487.499725
   vertex 46.322601 22.919538 487.429077
   vertex 46.307655 22.845465 488.285339
  endloop
 facet normal -0.999848 -0.000003 -0.017453
  outer loop
   vertex 46.307655 22.845465 488.285339
   vertex 46.322601 22.919538 487.429077
   vertex 46.330032 21.810886 487.003571
  endloop
 facet normal -0.999848 0.000000 -0.017455
  outer loop
   vertex 46.330032 21.810886 487.003571
   vertex 46.318058 21.292900 487.689453
   vertex 46.307655 22.845465 488.285339
  endloop
 facet normal -0.999848 0.000006 -0.017451
  outer loop
   vertex 46.331772 21.594515 486.903839
   vertex 46.318058 21.292900 487.689453
   vertex 46.330032 21.810886 487.003571
  endloop
 facet normal 0.006248 -0.933580 -0.358313
  outer loop
   vertex 47.476597 21.292900 487.709656
   vertex 46.318058 21.292900 487.689453
   vertex 46.331772 21.594515 486.903839
  endloop
 facet normal 0.006256 -0.933577 -0.358323
  outer loop
   vertex 46.331772 21.594515 486.903839
   vertex 47.490311 21.594513 486.924072
   vertex 47.476597 21.292900 487.709656
  endloop
 facet normal 0.999848 -0.000006 0.017452
  outer loop
   vertex 47.476597 21.292900 487.709656
   vertex 47.490311 21.594513 486.924072
   vertex 47.488571 21.810886 487.023804
  endloop
 facet normal 0.999848 -0.000004 0.017448
  outer loop
   vertex 47.488571 21.810886 487.023804
   vertex 47.490311 21.594513 486.924072
   vertex 47.491264 21.684118 486.869446
  endloop
 facet normal 0.999848 0.000020 0.017428
  outer loop
   vertex 47.491264 21.684118 486.869446
   vertex 47.490269 21.832525 486.926392
   vertex 47.488571 21.810886 487.023804
  endloop
 facet normal 0.016278 0.358293 -0.933467
  outer loop
   vertex 46.331730 21.832525 486.906189
   vertex 47.490269 21.832525 486.926392
   vertex 47.491264 21.684118 486.869446
  endloop
 facet normal -0.003780 0.976212 0.216787
  outer loop
   vertex 47.488571 21.810886 487.023804
   vertex 47.490269 21.832525 486.926392
   vertex 46.331730 21.832525 486.906189
  endloop
 facet normal -0.003787 0.976197 0.216852
  outer loop
   vertex 46.331730 21.832525 486.906189
   vertex 46.330032 21.810886 487.003571
   vertex 47.488571 21.810886 487.023804
  endloop
 facet normal 0.016302 0.358368 -0.933438
  outer loop
   vertex 47.488571 21.810886 487.023804
   vertex 46.330032 21.810886 487.003571
   vertex 46.322601 22.919538 487.429077
  endloop
 facet normal -0.001850 -0.994354 0.106095
  outer loop
   vertex 66.754234 21.292900 488.046173
   vertex 66.744659 21.351454 488.594788
   vertex 65.595695 21.292900 488.025970
  endloop
 facet normal -0.001853 -0.994354 0.106101
  outer loop
   vertex 65.595695 21.292900 488.025970
   vertex 66.744659 21.351454 488.594788
   vertex 65.586121 21.351454 488.574554
  endloop
 facet normal -0.999848 0.000002 -0.017451
  outer loop
   vertex 65.586121 21.351454 488.574554
   vertex 65.578865 22.434803 488.990356
   vertex 65.595695 21.292900 488.025970
  endloop
 facet normal -0.016302 -0.358373 0.933436
  outer loop
   vertex 66.744659 21.351454 488.594788
   vertex 65.578865 22.434803 488.990356
   vertex 65.586121 21.351454 488.574554
  endloop
 facet normal -0.016302 -0.358373 0.933436
  outer loop
   vertex 66.737404 22.434803 489.010590
   vertex 65.578865 22.434803 488.990356
   vertex 66.744659 21.351454 488.594788
  endloop
 facet normal 0.999848 -0.000001 0.017449
  outer loop
   vertex 66.744659 21.351454 488.594788
   vertex 66.743835 22.845463 488.642059
   vertex 66.737404 22.434803 489.010590
  endloop
 facet normal -0.012995 0.667955 0.744088
  outer loop
   vertex 66.737404 22.434803 489.010590
   vertex 66.743835 22.845463 488.642059
   vertex 65.578865 22.434803 488.990356
  endloop
 facet normal -0.012995 0.667955 0.744088
  outer loop
   vertex 65.578865 22.434803 488.990356
   vertex 66.743835 22.845463 488.642059
   vertex 65.585297 22.845463 488.621826
  endloop
 facet normal -0.999848 -0.000000 -0.017449
  outer loop
   vertex 65.585297 22.845463 488.621826
   vertex 65.595695 21.292900 488.025970
   vertex 65.578865 22.434803 488.990356
  endloop
 facet normal -0.999848 0.000001 -0.017453
  outer loop
   vertex 65.600243 22.919537 487.765594
   vertex 65.595695 21.292900 488.025970
   vertex 65.585297 22.845463 488.621826
  endloop
 facet normal -0.999848 -0.000000 -0.017461
  outer loop
   vertex 65.607674 21.810886 487.340088
   vertex 65.595695 21.292900 488.025970
   vertex 65.600243 22.919537 487.765594
  endloop
 facet normal 0.016277 0.358368 -0.933438
  outer loop
   vertex 65.600243 22.919537 487.765594
   vertex 66.766212 21.810886 487.360291
   vertex 65.607674 21.810886 487.340088
  endloop
 facet normal -0.003780 0.976212 0.216787
  outer loop
   vertex 65.607674 21.810886 487.340088
   vertex 66.766212 21.810886 487.360291
   vertex 65.609375 21.832525 487.242676
  endloop
 facet normal -0.003787 0.976197 0.216852
  outer loop
   vertex 65.609375 21.832525 487.242676
   vertex 66.766212 21.810886 487.360291
   vertex 66.767914 21.832525 487.262909
  endloop
 facet normal 0.016302 0.358293 -0.933467
  outer loop
   vertex 66.767914 21.832525 487.262909
   vertex 65.610367 21.684118 487.185730
   vertex 65.609375 21.832525 487.242676
  endloop
 facet normal 0.016303 0.358289 -0.933468
  outer loop
   vertex 66.768906 21.684116 487.205963
   vertex 65.610367 21.684118 487.185730
   vertex 66.767914 21.832525 487.262909
  endloop
 facet normal 0.014910 -0.520385 -0.853801
  outer loop
   vertex 66.767952 21.594513 487.260559
   vertex 65.610367 21.684118 487.185730
   vertex 66.768906 21.684116 487.205963
  endloop
 facet normal 0.999848 -0.000007 0.017454
  outer loop
   vertex 66.768906 21.684116 487.205963
   vertex 66.766212 21.810886 487.360291
   vertex 66.767952 21.594513 487.260559
  endloop
 facet normal 0.999848 -0.000008 0.017456
  outer loop
   vertex 66.767952 21.594513 487.260559
   vertex 66.766212 21.810886 487.360291
   vertex 66.754234 21.292900 488.046173
  endloop
 facet normal 0.999848 0.000000 0.017461
  outer loop
   vertex 66.754234 21.292900 488.046173
   vertex 66.766212 21.810886 487.360291
   vertex 66.758781 22.919537 487.785797
  endloop
 facet normal 0.999848 -0.000001 0.017452
  outer loop
   vertex 66.758781 22.919537 487.785797
   vertex 66.743835 22.845463 488.642059
   vertex 66.754234 21.292900 488.046173
  endloop
 facet normal 0.999848 -0.000021 0.017450
  outer loop
   vertex 66.757553 23.147078 487.856445
   vertex 66.743835 22.845463 488.642059
   vertex 66.758781 22.919537 487.785797
  endloop
 facet normal -0.006258 0.933580 0.358313
  outer loop
   vertex 65.585297 22.845463 488.621826
   vertex 66.743835 22.845463 488.642059
   vertex 66.757553 23.147078 487.856445
  endloop
 facet normal -0.006248 0.933576 0.358325
  outer loop
   vertex 66.757553 23.147078 487.856445
   vertex 65.599014 23.147078 487.836243
   vertex 65.585297 22.845463 488.621826
  endloop
 facet normal -0.999848 0.000021 -0.017451
  outer loop
   vertex 65.585297 22.845463 488.621826
   vertex 65.599014 23.147078 487.836243
   vertex 65.600243 22.919537 487.765594
  endloop
 facet normal -0.999848 0.000022 -0.017455
  outer loop
   vertex 65.600243 22.919537 487.765594
   vertex 65.599014 23.147078 487.836243
   vertex 65.600769 23.117041 487.735687
  endloop
 facet normal -0.999847 0.000020 -0.017467
  outer loop
   vertex 65.600769 23.117041 487.735687
   vertex 65.601761 22.968636 487.678741
   vertex 65.600243 22.919537 487.765594
  endloop
 facet normal 0.016278 0.358297 -0.933466
  outer loop
   vertex 66.760300 22.968636 487.698944
   vertex 65.601761 22.968636 487.678741
   vertex 65.600769 23.117041 487.735687
  endloop
 facet normal 0.008579 -0.870560 -0.491987
  outer loop
   vertex 65.600243 22.919537 487.765594
   vertex 65.601761 22.968636 487.678741
   vertex 66.760300 22.968636 487.698944
  endloop
 facet normal 0.008579 -0.870560 -0.491987
  outer loop
   vertex 66.760300 22.968636 487.698944
   vertex 66.758781 22.919537 487.785797
   vertex 65.600243 22.919537 487.765594
  endloop
 facet normal 0.016277 0.358368 -0.933438
  outer loop
   vertex 65.600243 22.919537 487.765594
   vertex 66.758781 22.919537 487.785797
   vertex 66.766212 21.810886 487.360291
  endloop
 facet normal -0.006249 0.933580 0.358314
  outer loop
   vertex 44.804375 21.956654 488.951965
   vertex 45.154324 21.956654 488.958069
   vertex 44.741470 22.046246 488.717438
  endloop
 facet normal -0.006242 0.933585 0.358302
  outer loop
   vertex 44.741470 22.046246 488.717438
   vertex 45.154324 21.956654 488.958069
   vertex 45.047386 22.108961 488.559357
  endloop
 facet normal -0.006253 0.933592 0.358283
  outer loop
   vertex 45.047386 22.108961 488.559357
   vertex 44.561470 22.111832 488.543396
   vertex 44.741470 22.046246 488.717438
  endloop
 facet normal -0.006254 0.933578 0.358319
  outer loop
   vertex 44.741379 22.220457 488.263519
   vertex 44.561470 22.111832 488.543396
   vertex 45.047386 22.108961 488.559357
  endloop
 facet normal -0.006254 0.933578 0.358319
  outer loop
   vertex 44.312599 22.135839 488.476501
   vertex 44.561470 22.111832 488.543396
   vertex 44.741379 22.220457 488.263519
  endloop
 facet normal -0.006250 0.933575 0.358327
  outer loop
   vertex 44.741379 22.220457 488.263519
   vertex 44.318302 22.261269 488.149811
   vertex 44.312599 22.135839 488.476501
  endloop
 facet normal -0.006256 0.933575 0.358326
  outer loop
   vertex 44.312599 22.135839 488.476501
   vertex 44.318302 22.261269 488.149811
   vertex 44.061546 22.111832 488.534668
  endloop
 facet normal -0.006257 0.933576 0.358325
  outer loop
   vertex 44.061546 22.111832 488.534668
   vertex 44.318302 22.261269 488.149811
   vertex 43.891510 22.220457 488.248688
  endloop
 facet normal -0.006253 0.933577 0.358323
  outer loop
   vertex 43.891510 22.220457 488.248688
   vertex 43.875576 22.046246 488.702301
   vertex 44.061546 22.111832 488.534668
  endloop
 facet normal -0.006255 0.933577 0.358323
  outer loop
   vertex 43.575367 22.108961 488.533661
   vertex 43.875576 22.046246 488.702301
   vertex 43.891510 22.220457 488.248688
  endloop
 facet normal -0.006237 0.933588 0.358294
  outer loop
   vertex 43.804527 21.956654 488.934509
   vertex 43.875576 22.046246 488.702301
   vertex 43.575367 22.108961 488.533661
  endloop
 facet normal -0.006249 0.933585 0.358300
  outer loop
   vertex 43.575367 22.108961 488.533661
   vertex 43.454578 21.956654 488.928406
   vertex 43.804527 21.956654 488.934509
  endloop
 facet normal -0.006249 0.933580 0.358314
  outer loop
   vertex 43.804527 21.956654 488.934509
   vertex 43.454578 21.956654 488.928406
   vertex 43.867432 21.867062 489.169037
  endloop
 facet normal -0.006255 0.933577 0.358323
  outer loop
   vertex 43.867432 21.867062 489.169037
   vertex 43.454578 21.956654 488.928406
   vertex 43.438286 21.598286 489.861816
  endloop
 facet normal -0.006243 0.933574 0.358329
  outer loop
   vertex 43.438286 21.598286 489.861816
   vertex 44.047432 21.801476 489.343048
   vertex 43.867432 21.867062 489.169037
  endloop
 facet normal -0.006259 0.933581 0.358313
  outer loop
   vertex 44.296303 21.777470 489.409943
   vertex 44.047432 21.801476 489.343048
   vertex 43.438286 21.598286 489.861816
  endloop
 facet normal 0.006280 -0.933592 -0.358282
  outer loop
   vertex 68.226059 21.489862 489.181610
   vertex 67.876114 21.489862 489.175476
   vertex 68.297112 21.579454 488.949402
  endloop
 facet normal 0.006255 -0.933577 -0.358323
  outer loop
   vertex 68.297112 21.579454 488.949402
   vertex 67.876114 21.489862 489.175476
   vertex 67.996902 21.642170 488.780762
  endloop
 facet normal 0.006254 -0.933577 -0.358322
  outer loop
   vertex 67.996902 21.642170 488.780762
   vertex 68.483078 21.645041 488.781769
   vertex 68.297112 21.579454 488.949402
  endloop
 facet normal 0.006254 -0.933576 -0.358324
  outer loop
   vertex 68.313049 21.753666 488.495789
   vertex 68.483078 21.645041 488.781769
   vertex 67.996902 21.642170 488.780762
  endloop
 facet normal 0.006250 -0.933577 -0.358322
  outer loop
   vertex 68.734131 21.669046 488.723602
   vertex 68.483078 21.645041 488.781769
   vertex 68.313049 21.753666 488.495789
  endloop
 facet normal 0.006253 -0.933575 -0.358326
  outer loop
   vertex 68.313049 21.753666 488.495789
   vertex 68.739838 21.794476 488.396912
   vertex 68.734131 21.669046 488.723602
  endloop
 facet normal 0.006263 -0.933575 -0.358326
  outer loop
   vertex 68.734131 21.669046 488.723602
   vertex 68.739838 21.794476 488.396912
   vertex 68.983002 21.645041 488.790497
  endloop
 facet normal 0.006252 -0.933578 -0.358320
  outer loop
   vertex 68.983002 21.645041 488.790497
   vertex 68.739838 21.794476 488.396912
   vertex 69.162918 21.753666 488.510620
  endloop
 facet normal 0.006240 -0.933575 -0.358327
  outer loop
   vertex 69.162918 21.753666 488.510620
   vertex 69.163010 21.579454 488.964508
   vertex 68.983002 21.645041 488.790497
  endloop
 facet normal 0.006263 -0.933575 -0.358327
  outer loop
   vertex 69.468918 21.642170 488.806458
   vertex 69.163010 21.579454 488.964508
   vertex 69.162918 21.753666 488.510620
  endloop
 facet normal 0.006268 -0.933579 -0.358318
  outer loop
   vertex 69.225906 21.489862 489.199036
   vertex 69.163010 21.579454 488.964508
   vertex 69.468918 21.642170 488.806458
  endloop
 facet normal 0.006281 -0.933581 -0.358311
  outer loop
   vertex 69.468918 21.642170 488.806458
   vertex 69.575859 21.489862 489.205170
   vertex 69.225906 21.489862 489.199036
  endloop
 facet normal 0.006280 -0.933592 -0.358283
  outer loop
   vertex 69.225906 21.489862 489.199036
   vertex 69.575859 21.489862 489.205170
   vertex 69.154861 21.400270 489.431244
  endloop
 facet normal 0.006261 -0.933580 -0.358314
  outer loop
   vertex 69.154861 21.400270 489.431244
   vertex 69.575859 21.489862 489.205170
   vertex 69.559563 21.131493 490.138611
  endloop
 facet normal 0.006262 -0.933580 -0.358314
  outer loop
   vertex 69.559563 21.131493 490.138611
   vertex 68.968895 21.334684 489.598877
   vertex 69.154861 21.400270 489.431244
  endloop
 facet normal 0.006254 -0.933583 -0.358307
  outer loop
   vertex 68.717842 21.310678 489.657043
   vertex 68.968895 21.334684 489.598877
   vertex 69.559563 21.131493 490.138611
  endloop
 facet normal 0.006253 -0.933577 -0.358323
  outer loop
   vertex 43.441414 21.131495 489.682678
   vertex 44.299431 21.310678 489.230804
   vertex 45.141155 21.131495 489.712341
  endloop
 facet normal 0.006256 -0.933575 -0.358326
  outer loop
   vertex 45.141155 21.131495 489.712341
   vertex 44.299431 21.310678 489.230804
   vertex 44.550484 21.334686 489.172638
  endloop
 facet normal 0.006223 -0.933588 -0.358295
  outer loop
   vertex 44.550484 21.334686 489.172638
   vertex 44.736450 21.400272 489.004974
   vertex 45.141155 21.131495 489.712341
  endloop
 facet normal 0.006245 -0.933574 -0.358331
  outer loop
   vertex 68.288963 21.400270 489.416138
   vertex 68.468971 21.334684 489.590149
   vertex 67.859818 21.131493 490.108917
  endloop
 facet normal 0.006260 -0.933580 -0.358315
  outer loop
   vertex 67.859818 21.131493 490.108917
   vertex 68.468971 21.334684 489.590149
   vertex 68.717842 21.310678 489.657043
  endloop
 facet normal 0.006260 -0.933580 -0.358316
  outer loop
   vertex 68.717842 21.310678 489.657043
   vertex 69.559563 21.131493 490.138611
   vertex 67.859818 21.131493 490.108917
  endloop
 facet normal -0.006253 0.933577 0.358323
  outer loop
   vertex 69.556435 21.598284 490.317749
   vertex 68.714714 21.777468 489.836212
   vertex 67.856697 21.598284 490.288086
  endloop
 facet normal -0.006259 0.933581 0.358313
  outer loop
   vertex 67.856697 21.598284 490.288086
   vertex 68.714714 21.777468 489.836212
   vertex 68.465843 21.801474 489.769318
  endloop
 facet normal -0.006272 0.933585 0.358300
  outer loop
   vertex 68.465843 21.801474 489.769318
   vertex 68.285835 21.867060 489.595276
   vertex 67.856697 21.598284 490.288086
  endloop
 facet normal -0.006263 0.933581 0.358313
  outer loop
   vertex 44.733326 21.867062 489.184143
   vertex 44.547356 21.801476 489.351776
   vertex 45.138027 21.598286 489.891510
  endloop
 facet normal -0.006254 0.933584 0.358304
  outer loop
   vertex 45.138027 21.598286 489.891510
   vertex 44.547356 21.801476 489.351776
   vertex 44.296303 21.777470 489.409943
  endloop
 facet normal -0.006260 0.933581 0.358312
  outer loop
   vertex 44.296303 21.777470 489.409943
   vertex 43.438286 21.598286 489.861816
   vertex 45.138027 21.598286 489.891510
  endloop
 facet normal 0.004991 0.958154 -0.286210
  outer loop
   vertex 66.757553 23.147078 487.856445
   vertex 66.759308 23.117041 487.755920
   vertex 65.599014 23.147078 487.836243
  endloop
 facet normal 0.004997 0.958178 -0.286130
  outer loop
   vertex 65.599014 23.147078 487.836243
   vertex 66.759308 23.117041 487.755920
   vertex 65.600769 23.117041 487.735687
  endloop
 facet normal 0.006255 -0.933579 -0.358316
  outer loop
   vertex 46.730221 21.402330 487.634888
   vertex 46.740215 21.622202 487.062195
   vertex 66.344231 21.402330 487.977295
  endloop
 facet normal 0.006255 -0.933580 -0.358313
  outer loop
   vertex 66.344231 21.402330 487.977295
   vertex 46.740215 21.622202 487.062195
   vertex 66.354225 21.622200 487.404602
  endloop
 facet normal 0.014909 -0.520589 -0.853677
  outer loop
   vertex 47.491264 21.684118 486.869446
   vertex 47.490311 21.594513 486.924072
   vertex 46.332726 21.684118 486.849213
  endloop
 facet normal 0.014908 -0.520597 -0.853672
  outer loop
   vertex 46.332726 21.684118 486.849213
   vertex 47.490311 21.594513 486.924072
   vertex 46.331772 21.594515 486.903839
  endloop
 facet normal 0.016281 0.358336 -0.933451
  outer loop
   vertex 69.222786 21.956652 489.378204
   vertex 69.572731 21.956652 489.384308
   vertex 69.399323 21.723257 489.291687
  endloop
 facet normal 0.999848 -0.000001 0.017450
  outer loop
   vertex 66.754234 21.292900 488.046173
   vertex 66.743835 22.845463 488.642059
   vertex 66.744659 21.351454 488.594788
  endloop
 facet normal 0.006281 -0.933577 -0.358321
  outer loop
   vertex 67.876114 21.489862 489.175476
   vertex 68.226059 21.489862 489.181610
   vertex 68.288963 21.400270 489.416138
  endloop
 facet normal 0.006250 -0.933573 -0.358332
  outer loop
   vertex 44.807503 21.489864 488.772797
   vertex 45.157448 21.489864 488.778900
   vertex 44.736450 21.400272 489.004974
  endloop
 facet normal -0.016362 -0.358336 0.933449
  outer loop
   vertex 69.572731 21.956652 489.384308
   vertex 69.225906 21.489862 489.199036
   vertex 69.575859 21.489862 489.205170
  endloop
 facet normal -0.006257 0.933580 0.358314
  outer loop
   vertex 46.549896 22.464096 488.518402
   vertex 44.901989 22.464096 488.489624
   vertex 44.876877 21.911831 489.928101
  endloop
 facet normal 0.006251 -0.933580 -0.358314
  outer loop
   vertex 66.475471 20.870947 489.905518
   vertex 66.500580 21.423212 488.467041
   vertex 68.123383 20.870947 489.934265
  endloop
 facet normal -0.016280 -0.358390 0.933430
  outer loop
   vertex 43.457706 21.489864 488.749237
   vertex 43.804527 21.956654 488.934509
   vertex 43.454578 21.956654 488.928406
  endloop
 facet normal -0.999847 -0.000001 -0.017479
  outer loop
   vertex 46.323124 23.117043 487.399170
   vertex 46.324120 22.968636 487.342224
   vertex 46.322601 22.919538 487.429077
  endloop
 facet normal -0.016362 -0.358388 0.933429
  outer loop
   vertex 68.226059 21.489862 489.181610
   vertex 67.872986 21.956654 489.354645
   vertex 67.876114 21.489862 489.175476
  endloop
 facet normal -0.999848 -0.000001 -0.017452
  outer loop
   vertex 46.307655 22.845465 488.285339
   vertex 46.318058 21.292900 487.689453
   vertex 46.301224 22.434805 488.653839
  endloop
 facet normal 0.999847 -0.000019 0.017464
  outer loop
   vertex 66.768906 21.684116 487.205963
   vertex 66.767914 21.832525 487.262909
   vertex 66.766212 21.810886 487.360291
  endloop
 facet normal -0.006251 0.933580 0.358314
  outer loop
   vertex 66.493607 22.464094 488.866547
   vertex 66.468498 21.911829 490.305023
   vertex 68.116409 21.911829 490.333771
  endloop
 facet normal 0.999848 -0.000000 0.017452
  outer loop
   vertex 46.524788 21.911831 489.956879
   vertex 46.531761 20.870949 489.557373
   vertex 46.556870 21.423214 488.118896
  endloop
 facet normal -0.016280 -0.358389 0.933430
  outer loop
   vertex 44.804375 21.956654 488.951965
   vertex 45.157448 21.489864 488.778900
   vertex 45.154324 21.956654 488.958069
  endloop
 facet normal -0.006250 0.933573 0.358332
  outer loop
   vertex 45.154324 21.956654 488.958069
   vertex 44.804375 21.956654 488.951965
   vertex 44.733326 21.867062 489.184143
  endloop
 facet normal -0.695528 0.253363 -0.672345
  outer loop
   vertex 44.547356 21.801476 489.351776
   vertex 44.736450 21.400272 489.004974
   vertex 44.550484 21.334686 489.172638
  endloop
 facet normal -0.243045 0.346125 -0.906160
  outer loop
   vertex 44.547356 21.801476 489.351776
   vertex 44.550484 21.334686 489.172638
   vertex 44.296303 21.777470 489.409943
  endloop
 facet normal -0.243048 0.346124 -0.906160
  outer loop
   vertex 44.296303 21.777470 489.409943
   vertex 44.550484 21.334686 489.172638
   vertex 44.299431 21.310678 489.230804
  endloop
 facet normal 0.274527 0.346125 -0.897125
  outer loop
   vertex 44.299431 21.310678 489.230804
   vertex 44.047432 21.801476 489.343048
   vertex 44.296303 21.777470 489.409943
  endloop
 facet normal 0.274529 0.346126 -0.897123
  outer loop
   vertex 44.050560 21.334686 489.163910
   vertex 44.047432 21.801476 489.343048
   vertex 44.299431 21.310678 489.230804
  endloop
 facet normal 0.718501 0.253390 -0.647726
  outer loop
   vertex 43.867432 21.867062 489.169037
   vertex 44.047432 21.801476 489.343048
   vertex 44.050560 21.334686 489.163910
  endloop
 facet normal 0.718554 0.253408 -0.647660
  outer loop
   vertex 44.050560 21.334686 489.163910
   vertex 43.870560 21.400272 488.989868
   vertex 43.867432 21.867062 489.169037
  endloop
 facet normal 0.969995 0.092760 -0.224734
  outer loop
   vertex 43.867432 21.867062 489.169037
   vertex 43.870560 21.400272 488.989868
   vertex 43.804527 21.956654 488.934509
  endloop
 facet normal -0.961556 0.092778 -0.258461
  outer loop
   vertex 69.222786 21.956652 489.378204
   vertex 69.225906 21.489862 489.199036
   vertex 69.151733 21.867060 489.610382
  endloop
 facet normal -0.961572 0.092729 -0.258419
  outer loop
   vertex 69.151733 21.867060 489.610382
   vertex 69.225906 21.489862 489.199036
   vertex 69.154861 21.400270 489.431244
  endloop
 facet normal -0.695528 0.253363 -0.672345
  outer loop
   vertex 69.154861 21.400270 489.431244
   vertex 68.965767 21.801474 489.778046
   vertex 69.151733 21.867060 489.610382
  endloop
 facet normal -0.695471 0.253421 -0.672382
  outer loop
   vertex 68.968895 21.334684 489.598877
   vertex 68.965767 21.801474 489.778046
   vertex 69.154861 21.400270 489.431244
  endloop
 facet normal -0.243046 0.346177 -0.906140
  outer loop
   vertex 68.714714 21.777468 489.836212
   vertex 68.965767 21.801474 489.778046
   vertex 68.968895 21.334684 489.598877
  endloop
 facet normal -0.243046 0.346177 -0.906140
  outer loop
   vertex 68.968895 21.334684 489.598877
   vertex 68.717842 21.310678 489.657043
   vertex 68.714714 21.777468 489.836212
  endloop
 facet normal 0.274527 0.346177 -0.897105
  outer loop
   vertex 68.714714 21.777468 489.836212
   vertex 68.717842 21.310678 489.657043
   vertex 68.465843 21.801474 489.769318
  endloop
 facet normal 0.274527 0.346177 -0.897105
  outer loop
   vertex 68.465843 21.801474 489.769318
   vertex 68.717842 21.310678 489.657043
   vertex 68.468971 21.334684 489.590149
  endloop
 facet normal 0.718540 0.253413 -0.647675
  outer loop
   vertex 68.468971 21.334684 489.590149
   vertex 68.285835 21.867060 489.595276
   vertex 68.465843 21.801474 489.769318
  endloop
 facet normal 0.969997 0.092751 -0.224729
  outer loop
   vertex 45.154324 21.956654 488.958069
   vertex 45.157448 21.489864 488.778900
   vertex 45.047386 22.108961 488.559357
  endloop
 facet normal 0.969995 0.092747 -0.224739
  outer loop
   vertex 45.047386 22.108961 488.559357
   vertex 45.157448 21.489864 488.778900
   vertex 45.050514 21.642170 488.380219
  endloop
 facet normal 0.718512 0.253386 -0.647716
  outer loop
   vertex 45.050514 21.642170 488.380219
   vertex 44.741379 22.220457 488.263519
   vertex 45.047386 22.108961 488.559357
  endloop
 facet normal 0.718544 0.253412 -0.647670
  outer loop
   vertex 44.744507 21.753668 488.084351
   vertex 44.741379 22.220457 488.263519
   vertex 45.050514 21.642170 488.380219
  endloop
 facet normal 0.274506 0.346179 -0.897110
  outer loop
   vertex 44.318302 22.261269 488.149811
   vertex 44.741379 22.220457 488.263519
   vertex 44.744507 21.753668 488.084351
  endloop
 facet normal 0.274505 0.346178 -0.897111
  outer loop
   vertex 44.744507 21.753668 488.084351
   vertex 44.321430 21.794477 487.970642
   vertex 44.318302 22.261269 488.149811
  endloop
 facet normal -0.243033 0.346177 -0.906144
  outer loop
   vertex 44.318302 22.261269 488.149811
   vertex 44.321430 21.794477 487.970642
   vertex 43.891510 22.220457 488.248688
  endloop
 facet normal -0.243032 0.346178 -0.906143
  outer loop
   vertex 43.891510 22.220457 488.248688
   vertex 44.321430 21.794477 487.970642
   vertex 43.894638 21.753668 488.069519
  endloop
 facet normal -0.695468 0.253423 -0.672385
  outer loop
   vertex 43.894638 21.753668 488.069519
   vertex 43.575367 22.108961 488.533661
   vertex 43.891510 22.220457 488.248688
  endloop
 facet normal -0.695501 0.253372 -0.672370
  outer loop
   vertex 43.578495 21.642172 488.354523
   vertex 43.575367 22.108961 488.533661
   vertex 43.894638 21.753668 488.069519
  endloop
 facet normal -0.961563 0.092740 -0.258448
  outer loop
   vertex 43.454578 21.956654 488.928406
   vertex 43.575367 22.108961 488.533661
   vertex 43.578495 21.642172 488.354523
  endloop
 facet normal -0.961559 0.092761 -0.258458
  outer loop
   vertex 43.578495 21.642172 488.354523
   vertex 43.457706 21.489864 488.749237
   vertex 43.454578 21.956654 488.928406
  endloop
 facet normal 0.969995 0.092747 -0.224738
  outer loop
   vertex 69.572731 21.956652 489.384308
   vertex 69.575859 21.489862 489.205170
   vertex 69.465797 22.108959 488.985626
  endloop
 facet normal 0.969995 0.092747 -0.224740
  outer loop
   vertex 69.465797 22.108959 488.985626
   vertex 69.575859 21.489862 489.205170
   vertex 69.468918 21.642170 488.806458
  endloop
 facet normal 0.718512 0.253413 -0.647705
  outer loop
   vertex 69.468918 21.642170 488.806458
   vertex 69.159790 22.220455 488.689789
   vertex 69.465797 22.108959 488.985626
  endloop
 facet normal 0.718521 0.253420 -0.647693
  outer loop
   vertex 69.162918 21.753666 488.510620
   vertex 69.159790 22.220455 488.689789
   vertex 69.468918 21.642170 488.806458
  endloop
 facet normal 0.274564 0.346174 -0.897095
  outer loop
   vertex 68.736710 22.261267 488.576050
   vertex 69.159790 22.220455 488.689789
   vertex 69.162918 21.753666 488.510620
  endloop
 facet normal 0.274503 0.346127 -0.897131
  outer loop
   vertex 69.162918 21.753666 488.510620
   vertex 68.739838 21.794476 488.396912
   vertex 68.736710 22.261267 488.576050
  endloop
 facet normal -0.243035 0.346125 -0.906163
  outer loop
   vertex 68.736710 22.261267 488.576050
   vertex 68.739838 21.794476 488.396912
   vertex 68.309921 22.220455 488.674927
  endloop
 facet normal -0.243034 0.346127 -0.906163
  outer loop
   vertex 68.309921 22.220455 488.674927
   vertex 68.739838 21.794476 488.396912
   vertex 68.313049 21.753666 488.495789
  endloop
 facet normal -0.695497 0.253374 -0.672373
  outer loop
   vertex 68.313049 21.753666 488.495789
   vertex 67.993774 22.108959 488.959930
   vertex 68.309921 22.220455 488.674927
  endloop
 facet normal -0.695463 0.253424 -0.672389
  outer loop
   vertex 67.996902 21.642170 488.780762
   vertex 67.993774 22.108959 488.959930
   vertex 68.313049 21.753666 488.495789
  endloop
 facet normal -0.961558 0.092761 -0.258458
  outer loop
   vertex 67.872986 21.956654 489.354645
   vertex 67.993774 22.108959 488.959930
   vertex 67.996902 21.642170 488.780762
  endloop
 facet normal -0.961559 0.092761 -0.258458
  outer loop
   vertex 67.996902 21.642170 488.780762
   vertex 67.876114 21.489862 489.175476
   vertex 67.872986 21.956654 489.354645
  endloop
 facet normal 0.718487 0.253396 -0.647740
  outer loop
   vertex 68.468971 21.334684 489.590149
   vertex 68.288963 21.400270 489.416138
   vertex 68.285835 21.867060 489.595276
  endloop
 facet normal 0.969995 0.092747 -0.224739
  outer loop
   vertex 68.285835 21.867060 489.595276
   vertex 68.288963 21.400270 489.416138
   vertex 68.226059 21.489862 489.181610
  endloop
 facet normal 0.970002 0.092723 -0.224718
  outer loop
   vertex 68.226059 21.489862 489.181610
   vertex 68.222939 21.956654 489.360748
   vertex 68.285835 21.867060 489.595276
  endloop
 facet normal 0.961564 -0.092752 0.258439
  outer loop
   vertex 68.297112 21.579454 488.949402
   vertex 68.222939 21.956654 489.360748
   vertex 68.226059 21.489862 489.181610
  endloop
 facet normal 0.961564 -0.092754 0.258441
  outer loop
   vertex 68.293983 22.046246 489.128571
   vertex 68.222939 21.956654 489.360748
   vertex 68.297112 21.579454 488.949402
  endloop
 facet normal 0.695471 -0.253420 0.672382
  outer loop
   vertex 68.297112 21.579454 488.949402
   vertex 68.483078 21.645041 488.781769
   vertex 68.293983 22.046246 489.128571
  endloop
 facet normal 0.695471 -0.253420 0.672382
  outer loop
   vertex 68.293983 22.046246 489.128571
   vertex 68.483078 21.645041 488.781769
   vertex 68.479950 22.111832 488.960938
  endloop
 facet normal 0.243046 -0.346176 0.906141
  outer loop
   vertex 68.479950 22.111832 488.960938
   vertex 68.483078 21.645041 488.781769
   vertex 68.734131 21.669046 488.723602
  endloop
 facet normal 0.243046 -0.346176 0.906141
  outer loop
   vertex 68.734131 21.669046 488.723602
   vertex 68.731003 22.135838 488.902771
   vertex 68.479950 22.111832 488.960938
  endloop
 facet normal -0.274527 -0.346176 0.897105
  outer loop
   vertex 68.983002 21.645041 488.790497
   vertex 68.731003 22.135838 488.902771
   vertex 68.734131 21.669046 488.723602
  endloop
 facet normal -0.274527 -0.346176 0.897105
  outer loop
   vertex 68.979874 22.111832 488.969666
   vertex 68.731003 22.135838 488.902771
   vertex 68.983002 21.645041 488.790497
  endloop
 facet normal -0.718486 -0.253432 0.647726
  outer loop
   vertex 68.983002 21.645041 488.790497
   vertex 69.163010 21.579454 488.964508
   vertex 68.979874 22.111832 488.969666
  endloop
 facet normal -0.718486 -0.253432 0.647726
  outer loop
   vertex 68.979874 22.111832 488.969666
   vertex 69.163010 21.579454 488.964508
   vertex 69.159882 22.046246 489.143677
  endloop
 facet normal -0.970002 -0.092750 0.224708
  outer loop
   vertex 69.159882 22.046246 489.143677
   vertex 69.163010 21.579454 488.964508
   vertex 69.225906 21.489862 489.199036
  endloop
 facet normal -0.969995 -0.092746 0.224739
  outer loop
   vertex 69.225906 21.489862 489.199036
   vertex 69.222786 21.956652 489.378204
   vertex 69.159882 22.046246 489.143677
  endloop
 facet normal -0.695464 0.253429 -0.672387
  outer loop
   vertex 44.547356 21.801476 489.351776
   vertex 44.733326 21.867062 489.184143
   vertex 44.736450 21.400272 489.004974
  endloop
 facet normal -0.961560 0.092766 -0.258451
  outer loop
   vertex 44.736450 21.400272 489.004974
   vertex 44.733326 21.867062 489.184143
   vertex 44.804375 21.956654 488.951965
  endloop
 facet normal -0.961556 0.092764 -0.258466
  outer loop
   vertex 44.804375 21.956654 488.951965
   vertex 44.807503 21.489864 488.772797
   vertex 44.736450 21.400272 489.004974
  endloop
 facet normal -0.969995 -0.092760 0.224734
  outer loop
   vertex 44.741470 22.046246 488.717438
   vertex 44.807503 21.489864 488.772797
   vertex 44.804375 21.956654 488.951965
  endloop
 facet normal -0.969995 -0.092760 0.224734
  outer loop
   vertex 44.744598 21.579456 488.538269
   vertex 44.807503 21.489864 488.772797
   vertex 44.741470 22.046246 488.717438
  endloop
 facet normal -0.718554 -0.253408 0.647660
  outer loop
   vertex 44.741470 22.046246 488.717438
   vertex 44.561470 22.111832 488.543396
   vertex 44.744598 21.579456 488.538269
  endloop
 facet normal -0.718494 -0.253388 0.647735
  outer loop
   vertex 44.744598 21.579456 488.538269
   vertex 44.561470 22.111832 488.543396
   vertex 44.564594 21.645042 488.364258
  endloop
 facet normal -0.274529 -0.346124 0.897124
  outer loop
   vertex 44.564594 21.645042 488.364258
   vertex 44.561470 22.111832 488.543396
   vertex 44.312599 22.135839 488.476501
  endloop
 facet normal -0.274531 -0.346124 0.897124
  outer loop
   vertex 44.312599 22.135839 488.476501
   vertex 44.315727 21.669048 488.297363
   vertex 44.564594 21.645042 488.364258
  endloop
 facet normal 0.243048 -0.346124 0.906160
  outer loop
   vertex 44.061546 22.111832 488.534668
   vertex 44.315727 21.669048 488.297363
   vertex 44.312599 22.135839 488.476501
  endloop
 facet normal 0.243042 -0.346127 0.906160
  outer loop
   vertex 44.064671 21.645042 488.355530
   vertex 44.315727 21.669048 488.297363
   vertex 44.061546 22.111832 488.534668
  endloop
 facet normal 0.695464 -0.253391 0.672401
  outer loop
   vertex 44.061546 22.111832 488.534668
   vertex 43.875576 22.046246 488.702301
   vertex 44.064671 21.645042 488.355530
  endloop
 facet normal 0.695471 -0.253383 0.672397
  outer loop
   vertex 44.064671 21.645042 488.355530
   vertex 43.875576 22.046246 488.702301
   vertex 43.878704 21.579456 488.523163
  endloop
 facet normal 0.961568 -0.092734 0.258432
  outer loop
   vertex 43.878704 21.579456 488.523163
   vertex 43.875576 22.046246 488.702301
   vertex 43.804527 21.956654 488.934509
  endloop
 facet normal 0.961560 -0.092759 0.258453
  outer loop
   vertex 43.804527 21.956654 488.934509
   vertex 43.807655 21.489864 488.755341
   vertex 43.878704 21.579456 488.523163
  endloop
 facet normal 0.969995 0.092760 -0.224734
  outer loop
   vertex 43.870560 21.400272 488.989868
   vertex 43.807655 21.489864 488.755341
   vertex 43.804527 21.956654 488.934509
  endloop
endsolid