solid stl file generated from DOUG
 facet normal -0.863636 0.482961 -0.144507
  outer loop
   vertex 22.315929 -33.183414 484.548035
   vertex 22.307480 -33.053703 485.032043
   vertex 22.442184 -32.973797 484.494049
  endloop
 endfacet

 facet normal -0.863627 0.482978 -0.144502
  outer loop
   vertex 22.442184 -32.973797 484.494049
   vertex 22.307480 -33.053703 485.032043
   vertex 22.433735 -32.844086 484.978088
  endloop
 endfacet

 facet normal 0.004539 0.965929 -0.258767
  outer loop
   vertex 22.433735 -32.844086 484.978088
   vertex 22.692732 -32.973797 484.498444
   vertex 22.442184 -32.973797 484.494049
  endloop
 endfacet

 facet normal 0.004507 0.965925 -0.258783
  outer loop
   vertex 22.684282 -32.844086 484.982452
   vertex 22.692732 -32.973797 484.498444
   vertex 22.433735 -32.844086 484.978088
  endloop
 endfacet

 facet normal 0.868143 0.482978 -0.114279
  outer loop
   vertex 22.817026 -33.183414 484.556763
   vertex 22.692732 -32.973797 484.498444
   vertex 22.684282 -32.844086 484.982452
  endloop
 endfacet

 facet normal 0.868150 0.482968 -0.114269
  outer loop
   vertex 22.684282 -32.844086 484.982452
   vertex 22.808577 -33.053703 485.040802
   vertex 22.817026 -33.183414 484.556763
  endloop
 endfacet

 facet normal 0.863640 -0.482957 0.144497
  outer loop
   vertex 22.817026 -33.183414 484.556763
   vertex 22.808577 -33.053703 485.040802
   vertex 22.690771 -33.393036 484.610748
  endloop
 endfacet

 facet normal 0.863631 -0.482969 0.144509
  outer loop
   vertex 22.690771 -33.393036 484.610748
   vertex 22.808577 -33.053703 485.040802
   vertex 22.682322 -33.263325 485.094757
  endloop
 endfacet

 facet normal -0.004507 -0.965925 0.258783
  outer loop
   vertex 22.682322 -33.263325 485.094757
   vertex 22.440224 -33.393036 484.606384
   vertex 22.690771 -33.393036 484.610748
  endloop
 endfacet

 facet normal -0.004507 -0.965925 0.258783
  outer loop
   vertex 22.431774 -33.263325 485.090393
   vertex 22.440224 -33.393036 484.606384
   vertex 22.682322 -33.263325 485.094757
  endloop
 endfacet

 facet normal -0.868154 -0.482960 0.114274
  outer loop
   vertex 22.315929 -33.183414 484.548035
   vertex 22.440224 -33.393036 484.606384
   vertex 22.431774 -33.263325 485.090393
  endloop
 endfacet

 facet normal -0.868154 -0.482960 0.114274
  outer loop
   vertex 22.431774 -33.263325 485.090393
   vertex 22.307480 -33.053703 485.032043
   vertex 22.315929 -33.183414 484.548035
  endloop
 endfacet

 facet normal 0.868154 0.482960 -0.114275
  outer loop
   vertex 0.716645 -33.053703 484.655151
   vertex 0.725094 -33.183414 484.171143
   vertex 0.592351 -32.844082 484.596802
  endloop
 endfacet

 facet normal 0.868150 0.482965 -0.114280
  outer loop
   vertex 0.592351 -32.844082 484.596802
   vertex 0.725094 -33.183414 484.171143
   vertex 0.600800 -32.973797 484.112793
  endloop
 endfacet

 facet normal 0.004508 0.965923 -0.258790
  outer loop
   vertex 0.600800 -32.973797 484.112793
   vertex 0.341804 -32.844082 484.592438
   vertex 0.592351 -32.844082 484.596802
  endloop
 endfacet

 facet normal 0.004508 0.965923 -0.258790
  outer loop
   vertex 0.350253 -32.973797 484.108429
   vertex 0.341804 -32.844082 484.592438
   vertex 0.600800 -32.973797 484.112793
  endloop
 endfacet

 facet normal -0.863640 0.482954 -0.144508
  outer loop
   vertex 0.215549 -33.053703 484.646423
   vertex 0.341804 -32.844082 484.592438
   vertex 0.350253 -32.973797 484.108429
  endloop
 endfacet

 facet normal -0.863627 0.482978 -0.144502
  outer loop
   vertex 0.350253 -32.973797 484.108429
   vertex 0.223998 -33.183414 484.162384
   vertex 0.215549 -33.053703 484.646423
  endloop
 endfacet

 facet normal -0.868143 -0.482979 0.114273
  outer loop
   vertex 0.215549 -33.053703 484.646423
   vertex 0.223998 -33.183414 484.162384
   vertex 0.339843 -33.263321 484.704742
  endloop
 endfacet

 facet normal -0.868154 -0.482959 0.114279
  outer loop
   vertex 0.339843 -33.263321 484.704742
   vertex 0.223998 -33.183414 484.162384
   vertex 0.348292 -33.393036 484.220734
  endloop
 endfacet

 facet normal -0.004539 -0.965923 0.258789
  outer loop
   vertex 0.348292 -33.393036 484.220734
   vertex 0.590390 -33.263321 484.709137
   vertex 0.339843 -33.263321 484.704742
  endloop
 endfacet

 facet normal -0.004507 -0.965927 0.258775
  outer loop
   vertex 0.598840 -33.393036 484.225098
   vertex 0.590390 -33.263321 484.709137
   vertex 0.348292 -33.393036 484.220734
  endloop
 endfacet

 facet normal 0.863636 -0.482962 0.144502
  outer loop
   vertex 0.716645 -33.053703 484.655151
   vertex 0.590390 -33.263321 484.709137
   vertex 0.598840 -33.393036 484.225098
  endloop
 endfacet

 facet normal 0.863631 -0.482969 0.144509
  outer loop
   vertex 0.598840 -33.393036 484.225098
   vertex 0.725094 -33.183414 484.171143
   vertex 0.716645 -33.053703 484.655151
  endloop
 endfacet

 facet normal 0.016822 -0.258728 -0.965804
  outer loop
   vertex 0.350253 -32.973797 484.108429
   vertex 0.600800 -32.973797 484.112793
   vertex 0.474546 -33.183414 484.166748
  endloop
 endfacet

 facet normal 0.016940 -0.258793 -0.965784
  outer loop
   vertex 0.474546 -33.183414 484.166748
   vertex 0.600800 -32.973797 484.112793
   vertex 0.725094 -33.183414 484.171143
  endloop
 endfacet

 facet normal 0.016940 -0.258789 -0.965785
  outer loop
   vertex 0.725094 -33.183414 484.171143
   vertex 0.598840 -33.393036 484.225098
   vertex 0.474546 -33.183414 484.166748
  endloop
 endfacet

 facet normal 0.016822 -0.258855 -0.965770
  outer loop
   vertex 22.440224 -33.393036 484.606384
   vertex 22.315929 -33.183414 484.548035
   vertex 22.566479 -33.183414 484.552399
  endloop
 endfacet

 facet normal 0.016822 -0.258859 -0.965769
  outer loop
   vertex 22.566479 -33.183414 484.552399
   vertex 22.315929 -33.183414 484.548035
   vertex 22.442184 -32.973797 484.494049
  endloop
 endfacet

 facet normal 0.016940 -0.258793 -0.965784
  outer loop
   vertex 22.442184 -32.973797 484.494049
   vertex 22.692732 -32.973797 484.498444
   vertex 22.566479 -33.183414 484.552399
  endloop
 endfacet

 facet normal 0.016822 -0.258728 -0.965804
  outer loop
   vertex 22.692732 -32.973797 484.498444
   vertex 22.817026 -33.183414 484.556763
   vertex 22.566479 -33.183414 484.552399
  endloop
 endfacet

 facet normal 0.016822 -0.258855 -0.965770
  outer loop
   vertex 22.566479 -33.183414 484.552399
   vertex 22.817026 -33.183414 484.556763
   vertex 22.690771 -33.393036 484.610748
  endloop
 endfacet

 facet normal 0.016822 -0.258855 -0.965770
  outer loop
   vertex 22.690771 -33.393036 484.610748
   vertex 22.440224 -33.393036 484.606384
   vertex 22.566479 -33.183414 484.552399
  endloop
 endfacet

 facet normal 0.016822 -0.258855 -0.965770
  outer loop
   vertex 0.598840 -33.393036 484.225098
   vertex 0.348292 -33.393036 484.220734
   vertex 0.474546 -33.183414 484.166748
  endloop
 endfacet

 facet normal 0.016822 -0.258855 -0.965770
  outer loop
   vertex 0.474546 -33.183414 484.166748
   vertex 0.348292 -33.393036 484.220734
   vertex 0.223998 -33.183414 484.162384
  endloop
 endfacet

 facet normal 0.016822 -0.258728 -0.965804
  outer loop
   vertex 0.223998 -33.183414 484.162384
   vertex 0.350253 -32.973797 484.108429
   vertex 0.474546 -33.183414 484.166748
  endloop
 endfacet

 facet normal 0.016851 -0.258835 -0.965775
  outer loop
   vertex 21.072973 -33.260578 486.653900
   vertex 21.078621 -32.052979 486.330353
   vertex 24.063919 -33.260578 486.706085
  endloop
 endfacet

 facet normal 0.016860 -0.258812 -0.965781
  outer loop
   vertex 24.063919 -33.260578 486.706085
   vertex 21.078621 -32.052979 486.330353
   vertex 24.069565 -32.052979 486.382568
  endloop
 endfacet

 facet normal 0.999848 0.000001 0.017454
  outer loop
   vertex 24.069565 -32.052979 486.382568
   vertex 24.040508 -32.901188 488.047150
   vertex 24.063919 -33.260578 486.706085
  endloop
 endfacet

 facet normal 0.999848 -0.000000 0.017453
  outer loop
   vertex 24.046156 -31.693588 487.723633
   vertex 24.040508 -32.901188 488.047150
   vertex 24.069565 -32.052979 486.382568
  endloop
 endfacet

 facet normal -0.016860 0.258812 0.965781
  outer loop
   vertex 21.055212 -31.693588 487.671417
   vertex 24.040508 -32.901188 488.047150
   vertex 24.046156 -31.693588 487.723633
  endloop
 endfacet

 facet normal 0.004518 0.965926 -0.258779
  outer loop
   vertex 24.046156 -31.693588 487.723633
   vertex 21.078621 -32.052979 486.330353
   vertex 21.055212 -31.693588 487.671417
  endloop
 endfacet

 facet normal -0.999848 -0.000000 -0.017453
  outer loop
   vertex 21.055212 -31.693588 487.671417
   vertex 21.078621 -32.052979 486.330353
   vertex 21.049564 -32.901188 487.994965
  endloop
 endfacet

 facet normal -0.999848 -0.000000 -0.017453
  outer loop
   vertex 21.049564 -32.901188 487.994965
   vertex 21.078621 -32.052979 486.330353
   vertex 21.072973 -33.260578 486.653900
  endloop
 endfacet

 facet normal -0.004515 -0.965926 0.258779
  outer loop
   vertex 21.072973 -33.260578 486.653900
   vertex 24.040508 -32.901188 488.047150
   vertex 21.049564 -32.901188 487.994965
  endloop
 endfacet

 facet normal -0.004515 -0.965926 0.258779
  outer loop
   vertex 24.063919 -33.260578 486.706085
   vertex 24.040508 -32.901188 488.047150
   vertex 21.072973 -33.260578 486.653900
  endloop
 endfacet

 facet normal -0.999848 0.000000 -0.017453
  outer loop
   vertex -1.120559 -32.901188 487.607941
   vertex -1.114912 -31.693586 487.284424
   vertex -1.097149 -33.260578 486.266876
  endloop
 endfacet

 facet normal -0.999848 0.000000 -0.017454
  outer loop
   vertex -1.097149 -33.260578 486.266876
   vertex -1.114912 -31.693586 487.284424
   vertex -1.091502 -32.052979 485.943359
  endloop
 endfacet

 facet normal 0.016860 -0.258812 -0.965781
  outer loop
   vertex -1.091502 -32.052979 485.943359
   vertex 1.893795 -33.260578 486.319092
   vertex -1.097149 -33.260578 486.266876
  endloop
 endfacet

 facet normal 0.016860 -0.258812 -0.965781
  outer loop
   vertex 1.899442 -32.052979 485.995575
   vertex 1.893795 -33.260578 486.319092
   vertex -1.091502 -32.052979 485.943359
  endloop
 endfacet

 facet normal 0.999848 -0.000000 0.017454
  outer loop
   vertex 1.876033 -31.693586 487.336639
   vertex 1.893795 -33.260578 486.319092
   vertex 1.899442 -32.052979 485.995575
  endloop
 endfacet

 facet normal 0.004518 0.965926 -0.258780
  outer loop
   vertex 1.899442 -32.052979 485.995575
   vertex -1.114912 -31.693586 487.284424
   vertex 1.876033 -31.693586 487.336639
  endloop
 endfacet

 facet normal -0.016860 0.258812 0.965781
  outer loop
   vertex 1.876033 -31.693586 487.336639
   vertex -1.114912 -31.693586 487.284424
   vertex 1.870385 -32.901188 487.660156
  endloop
 endfacet

 facet normal -0.016860 0.258812 0.965781
  outer loop
   vertex 1.870385 -32.901188 487.660156
   vertex -1.114912 -31.693586 487.284424
   vertex -1.120559 -32.901188 487.607941
  endloop
 endfacet

 facet normal -0.004518 -0.965926 0.258779
  outer loop
   vertex -1.120559 -32.901188 487.607941
   vertex 1.893795 -33.260578 486.319092
   vertex 1.870385 -32.901188 487.660156
  endloop
 endfacet

 facet normal -0.004518 -0.965926 0.258779
  outer loop
   vertex -1.097149 -33.260578 486.266876
   vertex 1.893795 -33.260578 486.319092
   vertex -1.120559 -32.901188 487.607941
  endloop
 endfacet

 facet normal 0.004518 0.965926 -0.258780
  outer loop
   vertex 1.899442 -32.052979 485.995575
   vertex -1.091502 -32.052979 485.943359
   vertex -1.114912 -31.693586 487.284424
  endloop
 endfacet

 facet normal 0.004518 0.965926 -0.258779
  outer loop
   vertex 24.069565 -32.052979 486.382568
   vertex 21.078621 -32.052979 486.330353
   vertex 24.046156 -31.693588 487.723633
  endloop
 endfacet

 facet normal 0.999848 -0.000000 0.017454
  outer loop
   vertex 1.876033 -31.693586 487.336639
   vertex 1.870385 -32.901188 487.660156
   vertex 1.893795 -33.260578 486.319092
  endloop
 endfacet

 facet normal -0.016851 0.258835 0.965775
  outer loop
   vertex 21.055212 -31.693588 487.671417
   vertex 21.049564 -32.901188 487.994965
   vertex 24.040508 -32.901188 488.047150
  endloop
 endfacet

 facet normal 0.016860 -0.258704 -0.965809
  outer loop
   vertex 21.336365 -34.131908 484.023987
   vertex 1.722848 -34.026031 483.653229
   vertex 21.336859 -34.026035 483.995636
  endloop
 endfacet

 facet normal 0.013648 0.623420 -0.781768
  outer loop
   vertex 21.336859 -34.026035 483.995636
   vertex 1.722848 -34.026031 483.653229
   vertex 21.335278 -33.912457 484.086182
  endloop
 endfacet

 facet normal 0.013877 0.606969 -0.794605
  outer loop
   vertex 2.477818 -32.647694 483.235779
   vertex 1.318167 -32.564289 483.279236
   vertex 2.476706 -32.564289 483.299469
  endloop
 endfacet

 facet normal 0.004519 0.965927 -0.258774
  outer loop
   vertex 2.476706 -32.564289 483.299469
   vertex 1.318167 -32.564289 483.279236
   vertex 1.303978 -32.346462 484.092072
  endloop
 endfacet

 facet normal -0.004519 -0.965925 0.258783
  outer loop
   vertex 21.732645 -33.952820 484.879150
   vertex 20.588297 -34.170647 484.046112
   vertex 21.746834 -34.170647 484.066345
  endloop
 endfacet

 facet normal 0.006718 -0.923020 -0.384693
  outer loop
   vertex 21.746834 -34.170647 484.066345
   vertex 20.588297 -34.170647 484.046112
   vertex 20.589987 -34.130264 483.949249
  endloop
 endfacet

 facet normal 0.006376 -0.930887 -0.365253
  outer loop
   vertex 1.726590 -32.774372 483.438904
   vertex 1.728950 -32.721298 483.303680
   vertex 21.342960 -32.721298 483.646088
  endloop
 endfacet

 facet normal 0.016859 -0.258964 -0.965740
  outer loop
   vertex 21.342960 -32.721298 483.646088
   vertex 1.728950 -32.721298 483.303680
   vertex 21.343456 -32.615425 483.617706
  endloop
 endfacet

 facet normal 0.014117 -0.588130 -0.808643
  outer loop
   vertex 1.709544 -33.900570 484.415344
   vertex 21.323555 -33.900570 484.757751
   vertex 1.709176 -33.929615 484.436462
  endloop
 endfacet

 facet normal 0.014117 -0.588129 -0.808644
  outer loop
   vertex 1.709176 -33.929615 484.436462
   vertex 21.323555 -33.900570 484.757751
   vertex 21.323187 -33.929615 484.778870
  endloop
 endfacet

 facet normal -0.004518 -0.965921 0.258797
  outer loop
   vertex 21.323187 -33.929615 484.778870
   vertex 1.707985 -33.911335 484.504669
   vertex 1.709176 -33.929615 484.436462
  endloop
 endfacet

 facet normal -0.999848 -0.000001 -0.017457
  outer loop
   vertex 1.310655 -34.170647 483.709595
   vertex 1.311466 -33.936966 483.663116
   vertex 1.312345 -34.130264 483.612762
  endloop
 endfacet

 facet normal -0.999848 -0.000001 -0.017457
  outer loop
   vertex 1.312345 -34.130264 483.612762
   vertex 1.311466 -33.936966 483.663116
   vertex 1.313063 -33.976715 483.571625
  endloop
 endfacet

 facet normal 0.016841 -0.258822 -0.965778
  outer loop
   vertex 1.313063 -33.976715 483.571625
   vertex 2.470884 -34.130264 483.632965
   vertex 1.312345 -34.130264 483.612762
  endloop
 endfacet

 facet normal 0.999848 -0.000001 0.017457
  outer loop
   vertex 21.754347 -32.564289 483.635986
   vertex 21.753010 -32.789906 483.712555
   vertex 21.755459 -32.647694 483.572296
  endloop
 endfacet

 facet normal 0.999847 0.000010 0.017468
  outer loop
   vertex 21.755459 -32.647694 483.572296
   vertex 21.753010 -32.789906 483.712555
   vertex 21.754742 -32.801243 483.613434
  endloop
 endfacet

 facet normal 0.016867 -0.258822 -0.965778
  outer loop
   vertex 21.754742 -32.801243 483.613434
   vertex 20.596920 -32.647694 483.552063
   vertex 21.755459 -32.647694 483.572296
  endloop
 endfacet

 facet normal 0.999848 0.000000 0.017455
  outer loop
   vertex 2.477099 -32.801243 483.276917
   vertex 2.477818 -32.647694 483.235779
   vertex 2.475369 -32.789902 483.376038
  endloop
 endfacet

 facet normal 0.999848 -0.000001 0.017454
  outer loop
   vertex 2.475369 -32.789902 483.376038
   vertex 2.477818 -32.647694 483.235779
   vertex 2.476706 -32.564289 483.299469
  endloop
 endfacet

 facet normal 0.999848 -0.000001 0.017453
  outer loop
   vertex 2.476706 -32.564289 483.299469
   vertex 2.462517 -32.346462 484.112305
   vertex 2.475369 -32.789902 483.376038
  endloop
 endfacet

 facet normal 0.004519 0.965927 -0.258774
  outer loop
   vertex 1.303978 -32.346462 484.092072
   vertex 2.462517 -32.346462 484.112305
   vertex 2.476706 -32.564289 483.299469
  endloop
 endfacet

 facet normal 0.006377 -0.930859 -0.365324
  outer loop
   vertex 21.342960 -32.721298 483.646088
   vertex 21.340601 -32.774372 483.781281
   vertex 1.726590 -32.774372 483.438904
  endloop
 endfacet

 facet normal 0.016858 -0.258818 -0.965779
  outer loop
   vertex 1.726590 -32.774372 483.438904
   vertex 21.340601 -32.774372 483.781281
   vertex 21.335278 -33.912457 484.086182
  endloop
 endfacet

 facet normal 0.016858 -0.258819 -0.965779
  outer loop
   vertex 21.335278 -33.912457 484.086182
   vertex 1.721267 -33.912453 483.743805
   vertex 1.726590 -32.774372 483.438904
  endloop
 endfacet

 facet normal 0.013645 0.623548 -0.781666
  outer loop
   vertex 1.722848 -34.026031 483.653229
   vertex 1.721267 -33.912453 483.743805
   vertex 21.335278 -33.912457 484.086182
  endloop
 endfacet

 facet normal -0.004513 -0.965927 0.258774
  outer loop
   vertex 21.732645 -33.952820 484.879150
   vertex 20.574106 -33.952820 484.858948
   vertex 20.588297 -34.170647 484.046112
  endloop
 endfacet

 facet normal -0.999848 -0.000003 -0.017455
  outer loop
   vertex 20.588297 -34.170647 484.046112
   vertex 20.574106 -33.952820 484.858948
   vertex 20.589108 -33.936966 483.999634
  endloop
 endfacet

 facet normal -0.999848 -0.000001 -0.017444
  outer loop
   vertex 20.589108 -33.936966 483.999634
   vertex 20.589987 -34.130264 483.949249
   vertex 20.588297 -34.170647 484.046112
  endloop
 endfacet

 facet normal -0.999848 -0.000002 -0.017440
  outer loop
   vertex 20.590704 -33.976715 483.908112
   vertex 20.589987 -34.130264 483.949249
   vertex 20.589108 -33.936966 483.999634
  endloop
 endfacet

 facet normal -0.017357 -0.105398 0.994279
  outer loop
   vertex 21.333899 -34.059364 484.165222
   vertex 1.719888 -34.059364 483.822815
   vertex 21.333965 -34.095074 484.161438
  endloop
 endfacet

 facet normal -0.017357 -0.104557 0.994367
  outer loop
   vertex 21.333965 -34.095074 484.161438
   vertex 1.719888 -34.059364 483.822815
   vertex 1.719954 -34.095074 483.819061
  endloop
 endfacet

 facet normal -0.004517 -0.965927 0.258774
  outer loop
   vertex 1.719954 -34.095074 483.819061
   vertex 21.336365 -34.131908 484.023987
   vertex 21.333965 -34.095074 484.161438
  endloop
 endfacet

 facet normal -0.004517 -0.965927 0.258774
  outer loop
   vertex 1.722353 -34.131908 483.681610
   vertex 21.336365 -34.131908 484.023987
   vertex 1.719954 -34.095074 483.819061
  endloop
 endfacet

 facet normal 0.016858 -0.258956 -0.965742
  outer loop
   vertex 1.722848 -34.026031 483.653229
   vertex 21.336365 -34.131908 484.023987
   vertex 1.722353 -34.131908 483.681610
  endloop
 endfacet

 facet normal 0.016848 -0.258811 -0.965781
  outer loop
   vertex 23.129654 -33.597454 485.170990
   vertex 21.486780 -32.520508 484.853729
   vertex 23.134691 -32.520508 484.882477
  endloop
 endfacet

 facet normal 0.004514 0.965926 -0.258778
  outer loop
   vertex 23.134691 -32.520508 484.882477
   vertex 21.486780 -32.520508 484.853729
   vertex 23.108709 -32.121658 486.370789
  endloop
 endfacet

 facet normal 0.999848 0.000002 0.017454
  outer loop
   vertex 23.108709 -32.121658 486.370789
   vertex 23.103674 -33.198605 486.659332
   vertex 23.134691 -32.520508 484.882477
  endloop
 endfacet

 facet normal -0.016848 0.258836 0.965774
  outer loop
   vertex 21.460800 -32.121658 486.342041
   vertex 23.103674 -33.198605 486.659332
   vertex 23.108709 -32.121658 486.370789
  endloop
 endfacet

 facet normal -0.016866 0.258811 0.965781
  outer loop
   vertex 21.455763 -33.198605 486.630554
   vertex 23.103674 -33.198605 486.659332
   vertex 21.460800 -32.121658 486.342041
  endloop
 endfacet

 facet normal -0.999848 0.000001 -0.017454
  outer loop
   vertex 21.460800 -32.121658 486.342041
   vertex 21.486780 -32.520508 484.853729
   vertex 21.455763 -33.198605 486.630554
  endloop
 endfacet

 facet normal -0.999848 -0.000001 -0.017454
  outer loop
   vertex 21.455763 -33.198605 486.630554
   vertex 21.486780 -32.520508 484.853729
   vertex 21.481745 -33.597454 485.142242
  endloop
 endfacet

 facet normal 0.016848 -0.258811 -0.965781
  outer loop
   vertex 21.481745 -33.597454 485.142242
   vertex 21.486780 -32.520508 484.853729
   vertex 23.129654 -33.597454 485.170990
  endloop
 endfacet

 facet normal -0.004514 -0.965928 0.258773
  outer loop
   vertex 23.129654 -33.597454 485.170990
   vertex 23.103674 -33.198605 486.659332
   vertex 21.481745 -33.597454 485.142242
  endloop
 endfacet

 facet normal 0.999848 -0.000001 0.017453
  outer loop
   vertex 23.134691 -32.520508 484.882477
   vertex 23.103674 -33.198605 486.659332
   vertex 23.129654 -33.597454 485.170990
  endloop
 endfacet

 facet normal -0.004519 -0.965926 0.258780
  outer loop
   vertex -0.109877 -33.597454 484.765320
   vertex 1.538033 -33.597454 484.794098
   vertex -0.135857 -33.198601 486.253632
  endloop
 endfacet

 facet normal -0.004519 -0.965926 0.258780
  outer loop
   vertex -0.135857 -33.198601 486.253632
   vertex 1.538033 -33.597454 484.794098
   vertex 1.512053 -33.198601 486.282410
  endloop
 endfacet

 facet normal -0.016866 0.258811 0.965781
  outer loop
   vertex 1.512053 -33.198601 486.282410
   vertex -0.130821 -32.121655 485.965118
   vertex -0.135857 -33.198601 486.253632
  endloop
 endfacet

 facet normal -0.016865 0.258812 0.965781
  outer loop
   vertex 1.517089 -32.121658 485.993896
   vertex -0.130821 -32.121655 485.965118
   vertex 1.512053 -33.198601 486.282410
  endloop
 endfacet

 facet normal 0.004521 0.965926 -0.258778
  outer loop
   vertex 1.543069 -32.520508 484.505585
   vertex -0.130821 -32.121655 485.965118
   vertex 1.517089 -32.121658 485.993896
  endloop
 endfacet

 facet normal 0.999848 -0.000000 0.017454
  outer loop
   vertex 1.517089 -32.121658 485.993896
   vertex 1.538033 -33.597454 484.794098
   vertex 1.543069 -32.520508 484.505585
  endloop
 endfacet

 facet normal 0.016866 -0.258811 -0.965781
  outer loop
   vertex 1.543069 -32.520508 484.505585
   vertex 1.538033 -33.597454 484.794098
   vertex -0.104840 -32.520508 484.476807
  endloop
 endfacet

 facet normal 0.016866 -0.258811 -0.965781
  outer loop
   vertex -0.104840 -32.520508 484.476807
   vertex 1.538033 -33.597454 484.794098
   vertex -0.109877 -33.597454 484.765320
  endloop
 endfacet

 facet normal -0.999848 0.000000 -0.017454
  outer loop
   vertex -0.109877 -33.597454 484.765320
   vertex -0.130821 -32.121655 485.965118
   vertex -0.104840 -32.520508 484.476807
  endloop
 endfacet

 facet normal -0.999848 0.000000 -0.017454
  outer loop
   vertex -0.135857 -33.198601 486.253632
   vertex -0.130821 -32.121655 485.965118
   vertex -0.109877 -33.597454 484.765320
  endloop
 endfacet

 facet normal -0.016844 0.258828 0.965777
  outer loop
   vertex 24.562243 -32.658329 485.581116
   vertex 24.212296 -32.658329 485.575012
   vertex 24.210037 -33.141293 485.704407
  endloop
 endfacet

 facet normal 0.016844 -0.258828 -0.965777
  outer loop
   vertex 24.210037 -33.141293 485.704407
   vertex 24.212296 -32.658329 485.575012
   vertex 24.386139 -32.899811 485.642761
  endloop
 endfacet

 facet normal 0.016844 -0.258827 -0.965777
  outer loop
   vertex 24.386139 -32.899811 485.642761
   vertex 24.559984 -33.141293 485.710510
   vertex 24.210037 -33.141293 485.704407
  endloop
 endfacet

 facet normal 0.016844 -0.258828 -0.965777
  outer loop
   vertex 24.562243 -32.658329 485.581116
   vertex 24.559984 -33.141293 485.710510
   vertex 24.386139 -32.899811 485.642761
  endloop
 endfacet

 facet normal 0.999848 0.000001 0.017453
  outer loop
   vertex 24.543125 -32.882473 486.676300
   vertex 24.559984 -33.141293 485.710510
   vertex 24.562243 -32.658329 485.581116
  endloop
 endfacet

 facet normal 0.999848 0.000001 0.017453
  outer loop
   vertex 24.562243 -32.658329 485.581116
   vertex 24.545383 -32.399509 486.546906
   vertex 24.543125 -32.882473 486.676300
  endloop
 endfacet

 facet normal -0.016872 0.258828 0.965776
  outer loop
   vertex 24.543125 -32.882473 486.676300
   vertex 24.545383 -32.399509 486.546906
   vertex 22.843384 -32.882473 486.646606
  endloop
 endfacet

 facet normal -0.016855 0.258771 0.965792
  outer loop
   vertex 22.843384 -32.882473 486.646606
   vertex 24.545383 -32.399509 486.546906
   vertex 22.845642 -32.399509 486.517242
  endloop
 endfacet

 facet normal -0.999848 0.000000 -0.017454
  outer loop
   vertex 22.845642 -32.399509 486.517242
   vertex 22.862501 -32.658329 485.551453
   vertex 22.843384 -32.882473 486.646606
  endloop
 endfacet

 facet normal 0.004513 0.965926 -0.258777
  outer loop
   vertex 23.275209 -32.593624 485.800171
   vertex 22.862501 -32.658329 485.551453
   vertex 22.845642 -32.399509 486.517242
  endloop
 endfacet

 facet normal 0.004513 0.965926 -0.258778
  outer loop
   vertex 23.212448 -32.658329 485.557556
   vertex 22.862501 -32.658329 485.551453
   vertex 23.275209 -32.593624 485.800171
  endloop
 endfacet

 facet normal -0.004520 -0.965925 0.258781
  outer loop
   vertex -0.279562 -33.076584 485.518433
   vertex 0.141577 -33.141289 485.284271
   vertex 0.124718 -32.882473 486.250031
  endloop
 endfacet

 facet normal 0.999848 -0.000001 0.017454
  outer loop
   vertex 0.124718 -32.882473 486.250031
   vertex 0.141577 -33.141289 485.284271
   vertex 0.126976 -32.399509 486.120667
  endloop
 endfacet

 facet normal -0.016855 0.258771 0.965792
  outer loop
   vertex 0.126976 -32.399509 486.120667
   vertex -1.575024 -32.882473 486.220367
   vertex 0.124718 -32.882473 486.250031
  endloop
 endfacet

 facet normal -0.016872 0.258828 0.965776
  outer loop
   vertex -1.572765 -32.399509 486.090973
   vertex -1.575024 -32.882473 486.220367
   vertex 0.126976 -32.399509 486.120667
  endloop
 endfacet

 facet normal -0.999848 -0.000000 -0.017453
  outer loop
   vertex -1.558165 -33.141289 485.254578
   vertex -1.575024 -32.882473 486.220367
   vertex -1.572765 -32.399509 486.090973
  endloop
 endfacet

 facet normal -0.999848 0.000001 -0.017454
  outer loop
   vertex -1.572765 -32.399509 486.090973
   vertex -1.555907 -32.658325 485.125214
   vertex -1.558165 -33.141289 485.254578
  endloop
 endfacet

 facet normal 0.016929 -0.258771 -0.965790
  outer loop
   vertex -1.558165 -33.141289 485.254578
   vertex -1.555907 -32.658325 485.125214
   vertex -1.382062 -32.899807 485.192963
  endloop
 endfacet

 facet normal 0.016844 -0.258828 -0.965777
  outer loop
   vertex -1.382062 -32.899807 485.192963
   vertex -1.555907 -32.658325 485.125214
   vertex -1.205960 -32.658325 485.131317
  endloop
 endfacet

 facet normal 0.016844 -0.258828 -0.965777
  outer loop
   vertex -1.205960 -32.658325 485.131317
   vertex -1.208218 -33.141289 485.260712
   vertex -1.382062 -32.899807 485.192963
  endloop
 endfacet

 facet normal -0.016929 0.258828 0.965775
  outer loop
   vertex -1.558165 -33.141289 485.254578
   vertex -1.208218 -33.141289 485.260712
   vertex -1.205960 -32.658325 485.131317
  endloop
 endfacet

 facet normal 0.016929 -0.258771 -0.965790
  outer loop
   vertex -1.382062 -32.899807 485.192963
   vertex -1.208218 -33.141289 485.260712
   vertex -1.558165 -33.141289 485.254578
  endloop
 endfacet

 facet normal 0.016859 -0.258696 -0.965812
  outer loop
   vertex 1.728950 -32.721298 483.303680
   vertex 1.729445 -32.615421 483.275330
   vertex 21.343456 -32.615425 483.617706
  endloop
 endfacet

 facet normal 0.004517 0.965927 -0.258774
  outer loop
   vertex 21.343456 -32.615425 483.617706
   vertex 1.729445 -32.615421 483.275330
   vertex 1.727046 -32.578587 483.412781
  endloop
 endfacet

 facet normal 0.004517 0.965927 -0.258774
  outer loop
   vertex 1.727046 -32.578587 483.412781
   vertex 21.341057 -32.578590 483.755157
   vertex 21.343456 -32.615425 483.617706
  endloop
 endfacet

 facet normal -0.014115 0.588129 0.808644
  outer loop
   vertex 1.726677 -32.607632 483.433899
   vertex 21.341057 -32.578590 483.755157
   vertex 1.727046 -32.578587 483.412781
  endloop
 endfacet

 facet normal -0.014115 0.588180 0.808607
  outer loop
   vertex 21.340689 -32.607632 483.776276
   vertex 21.341057 -32.578590 483.755157
   vertex 1.726677 -32.607632 483.433899
  endloop
 endfacet

 facet normal 0.004517 0.965925 -0.258783
  outer loop
   vertex 1.726677 -32.607632 483.433899
   vertex 1.716334 -32.448837 484.026428
   vertex 21.340689 -32.607632 483.776276
  endloop
 endfacet

 facet normal 0.004517 0.965926 -0.258778
  outer loop
   vertex 21.340689 -32.607632 483.776276
   vertex 1.716334 -32.448837 484.026428
   vertex 21.330345 -32.448841 484.368805
  endloop
 endfacet

 facet normal 0.017357 0.104557 -0.994367
  outer loop
   vertex 21.330345 -32.448841 484.368805
   vertex 1.716334 -32.448837 484.026428
   vertex 1.716268 -32.413128 484.030182
  endloop
 endfacet

 facet normal 0.017357 0.105387 -0.994280
  outer loop
   vertex 1.716268 -32.413128 484.030182
   vertex 21.330278 -32.413128 484.372589
   vertex 21.330345 -32.448841 484.368805
  endloop
 endfacet

 facet normal 0.004517 0.965935 -0.258746
  outer loop
   vertex 1.715078 -32.394852 484.098389
   vertex 21.330278 -32.413128 484.372589
   vertex 1.716268 -32.413128 484.030182
  endloop
 endfacet

 facet normal 0.004518 0.965906 -0.258854
  outer loop
   vertex 21.329088 -32.394852 484.440765
   vertex 21.330278 -32.413128 484.372589
   vertex 1.715078 -32.394852 484.098389
  endloop
 endfacet

 facet normal -0.016858 0.258820 0.965778
  outer loop
   vertex 1.715078 -32.394852 484.098389
   vertex 1.707985 -33.911335 484.504669
   vertex 21.329088 -32.394852 484.440765
  endloop
 endfacet

 facet normal -0.016858 0.258820 0.965779
  outer loop
   vertex 21.329088 -32.394852 484.440765
   vertex 1.707985 -33.911335 484.504669
   vertex 21.321997 -33.911339 484.847046
  endloop
 endfacet

 facet normal -0.004519 -0.965906 0.258854
  outer loop
   vertex 21.321997 -33.911339 484.847046
   vertex 1.707985 -33.911335 484.504669
   vertex 21.323187 -33.929615 484.778870
  endloop
 endfacet

 facet normal -0.004518 -0.965924 0.258785
  outer loop
   vertex 23.272951 -33.076588 485.929565
   vertex 22.843384 -32.882473 486.646606
   vertex 22.860243 -33.141293 485.680847
  endloop
 endfacet

 facet normal -0.999848 -0.000001 -0.017454
  outer loop
   vertex 22.860243 -33.141293 485.680847
   vertex 22.843384 -32.882473 486.646606
   vertex 22.862501 -32.658329 485.551453
  endloop
 endfacet

 facet normal 0.016844 -0.258828 -0.965777
  outer loop
   vertex 22.862501 -32.658329 485.551453
   vertex 23.210190 -33.141293 485.686951
   vertex 22.860243 -33.141293 485.680847
  endloop
 endfacet

 facet normal 0.016844 -0.258828 -0.965777
  outer loop
   vertex 23.212448 -32.658329 485.557556
   vertex 23.210190 -33.141293 485.686951
   vertex 22.862501 -32.658329 485.551453
  endloop
 endfacet

 facet normal -0.016844 0.258828 0.965777
  outer loop
   vertex 22.862501 -32.658329 485.551453
   vertex 23.210190 -33.141293 485.686951
   vertex 23.212448 -32.658329 485.557556
  endloop
 endfacet

 facet normal 0.004514 0.965923 -0.258792
  outer loop
   vertex 23.212448 -32.658329 485.557556
   vertex 23.283640 -32.723034 485.317291
   vertex 22.862501 -32.658329 485.551453
  endloop
 endfacet

 facet normal 0.004528 0.965929 -0.258768
  outer loop
   vertex 22.862501 -32.658329 485.551453
   vertex 23.283640 -32.723034 485.317291
   vertex 22.983528 -32.768326 485.142975
  endloop
 endfacet

 facet normal 0.004529 0.965928 -0.258770
  outer loop
   vertex 22.983528 -32.768326 485.142975
   vertex 23.283640 -32.723034 485.317291
   vertex 23.469709 -32.770401 485.143738
  endloop
 endfacet

 facet normal 0.004529 0.965929 -0.258769
  outer loop
   vertex 23.469709 -32.770401 485.143738
   vertex 23.299847 -32.848850 484.847931
   vertex 22.983528 -32.768326 485.142975
  endloop
 endfacet

 facet normal 0.004520 0.965930 -0.258764
  outer loop
   vertex 23.720800 -32.787739 485.083405
   vertex 23.299847 -32.848850 484.847931
   vertex 23.469709 -32.770401 485.143738
  endloop
 endfacet

 facet normal 0.004516 0.965932 -0.258757
  outer loop
   vertex 23.726702 -32.878323 484.745361
   vertex 23.299847 -32.848850 484.847931
   vertex 23.720800 -32.787739 485.083405
  endloop
 endfacet

 facet normal 0.004513 0.965932 -0.258757
  outer loop
   vertex 23.720800 -32.787739 485.083405
   vertex 23.969633 -32.770401 485.152466
   vertex 23.726702 -32.878323 484.745361
  endloop
 endfacet

 facet normal 0.004516 0.965931 -0.258759
  outer loop
   vertex 23.726702 -32.878323 484.745361
   vertex 23.969633 -32.770401 485.152466
   vertex 24.149719 -32.848850 484.862762
  endloop
 endfacet

 facet normal 0.004492 0.965928 -0.258773
  outer loop
   vertex 24.149719 -32.848850 484.862762
   vertex 23.969633 -32.770401 485.152466
   vertex 24.149534 -32.723034 485.332397
  endloop
 endfacet

 facet normal 0.004512 0.965928 -0.258773
  outer loop
   vertex 24.149534 -32.723034 485.332397
   vertex 24.455547 -32.768326 485.168671
   vertex 24.149719 -32.848850 484.862762
  endloop
 endfacet

 facet normal 0.004509 0.965926 -0.258777
  outer loop
   vertex 24.212296 -32.658329 485.575012
   vertex 24.455547 -32.768326 485.168671
   vertex 24.149534 -32.723034 485.332397
  endloop
 endfacet

 facet normal 0.004513 0.965927 -0.258775
  outer loop
   vertex 24.562243 -32.658329 485.581116
   vertex 24.455547 -32.768326 485.168671
   vertex 24.212296 -32.658329 485.575012
  endloop
 endfacet

 facet normal 0.004514 0.965923 -0.258792
  outer loop
   vertex 24.212296 -32.658329 485.575012
   vertex 24.141104 -32.593624 485.815277
   vertex 24.562243 -32.658329 485.581116
  endloop
 endfacet

 facet normal 0.004522 0.965926 -0.258777
  outer loop
   vertex 24.562243 -32.658329 485.581116
   vertex 24.141104 -32.593624 485.815277
   vertex 24.545383 -32.399509 486.546906
  endloop
 endfacet

 facet normal 0.004494 0.965930 -0.258763
  outer loop
   vertex 24.545383 -32.399509 486.546906
   vertex 24.141104 -32.593624 485.815277
   vertex 23.955034 -32.546257 485.988861
  endloop
 endfacet

 facet normal 0.004540 0.965918 -0.258808
  outer loop
   vertex 23.955034 -32.546257 485.988861
   vertex 23.703943 -32.528919 486.049164
   vertex 24.545383 -32.399509 486.546906
  endloop
 endfacet

 facet normal 0.004516 0.965927 -0.258774
  outer loop
   vertex -0.277303 -32.593624 485.389038
   vertex 0.126976 -32.399509 486.120667
   vertex 0.143835 -32.658325 485.154877
  endloop
 endfacet

 facet normal 0.999848 0.000000 0.017453
  outer loop
   vertex 0.143835 -32.658325 485.154877
   vertex 0.126976 -32.399509 486.120667
   vertex 0.141577 -33.141289 485.284271
  endloop
 endfacet

 facet normal 0.016844 -0.258828 -0.965777
  outer loop
   vertex 0.141577 -33.141289 485.284271
   vertex -0.206112 -32.658325 485.148773
   vertex 0.143835 -32.658325 485.154877
  endloop
 endfacet

 facet normal 0.016844 -0.258828 -0.965777
  outer loop
   vertex -0.208371 -33.141289 485.278168
   vertex -0.206112 -32.658325 485.148773
   vertex 0.141577 -33.141289 485.284271
  endloop
 endfacet

 facet normal -0.016844 0.258828 0.965777
  outer loop
   vertex 0.141577 -33.141289 485.284271
   vertex -0.206112 -32.658325 485.148773
   vertex -0.208371 -33.141289 485.278168
  endloop
 endfacet

 facet normal -0.004513 -0.965926 0.258778
  outer loop
   vertex -0.208371 -33.141289 485.278168
   vertex -0.271133 -33.205994 485.035553
   vertex 0.141577 -33.141289 485.284271
  endloop
 endfacet

 facet normal -0.004517 -0.965925 0.258784
  outer loop
   vertex 0.141577 -33.141289 485.284271
   vertex -0.271133 -33.205994 485.035553
   vertex 0.034880 -33.251289 484.871826
  endloop
 endfacet

 facet normal -0.004528 -0.965930 0.258765
  outer loop
   vertex 0.034880 -33.251289 484.871826
   vertex -0.271133 -33.205994 485.035553
   vertex -0.451032 -33.253361 484.855591
  endloop
 endfacet

 facet normal -0.004529 -0.965926 0.258777
  outer loop
   vertex -0.451032 -33.253361 484.855591
   vertex -0.270950 -33.331810 484.565918
   vertex 0.034880 -33.251289 484.871826
  endloop
 endfacet

 facet normal -0.004520 -0.965925 0.258782
  outer loop
   vertex -0.699865 -33.270699 484.786530
   vertex -0.270950 -33.331810 484.565918
   vertex -0.451032 -33.253361 484.855591
  endloop
 endfacet

 facet normal -0.004516 -0.965923 0.258789
  outer loop
   vertex -0.693964 -33.361286 484.448517
   vertex -0.270950 -33.331810 484.565918
   vertex -0.699865 -33.270699 484.786530
  endloop
 endfacet

 facet normal -0.004514 -0.965923 0.258789
  outer loop
   vertex -0.699865 -33.270699 484.786530
   vertex -0.950956 -33.253361 484.846863
   vertex -0.693964 -33.361286 484.448517
  endloop
 endfacet

 facet normal -0.004517 -0.965924 0.258787
  outer loop
   vertex -0.693964 -33.361286 484.448517
   vertex -0.950956 -33.253361 484.846863
   vertex -1.120821 -33.331810 484.551086
  endloop
 endfacet

 facet normal -0.004514 -0.965924 0.258786
  outer loop
   vertex -1.120821 -33.331810 484.551086
   vertex -0.950956 -33.253361 484.846863
   vertex -1.137027 -33.205994 485.020416
  endloop
 endfacet

 facet normal -0.004500 -0.965924 0.258786
  outer loop
   vertex -1.137027 -33.205994 485.020416
   vertex -1.437139 -33.251289 484.846130
   vertex -1.120821 -33.331810 484.551086
  endloop
 endfacet

 facet normal -0.004489 -0.965929 0.258768
  outer loop
   vertex -1.208218 -33.141289 485.260712
   vertex -1.437139 -33.251289 484.846130
   vertex -1.137027 -33.205994 485.020416
  endloop
 endfacet

 facet normal -0.004536 -0.965922 0.258792
  outer loop
   vertex -1.558165 -33.141289 485.254578
   vertex -1.437139 -33.251289 484.846130
   vertex -1.208218 -33.141289 485.260712
  endloop
 endfacet

 facet normal -0.004536 -0.965925 0.258784
  outer loop
   vertex -1.208218 -33.141289 485.260712
   vertex -1.145456 -33.076584 485.503326
   vertex -1.558165 -33.141289 485.254578
  endloop
 endfacet

 facet normal -0.004530 -0.965927 0.258774
  outer loop
   vertex -1.558165 -33.141289 485.254578
   vertex -1.145456 -33.076584 485.503326
   vertex -1.575024 -32.882473 486.220367
  endloop
 endfacet

 facet normal -0.004507 -0.965924 0.258786
  outer loop
   vertex -1.575024 -32.882473 486.220367
   vertex -1.145456 -33.076584 485.503326
   vertex -0.965556 -33.029217 485.683258
  endloop
 endfacet

 facet normal -0.004518 -0.965927 0.258774
  outer loop
   vertex -0.965556 -33.029217 485.683258
   vertex -0.716724 -33.011879 485.752319
   vertex -1.575024 -32.882473 486.220367
  endloop
 endfacet

 facet normal -0.003658 0.977816 0.209433
  outer loop
   vertex 1.303978 -32.346462 484.092072
   vertex 1.294561 -32.462048 484.631561
   vertex 2.462517 -32.346462 484.112305
  endloop
 endfacet

 facet normal -0.003652 0.977814 0.209444
  outer loop
   vertex 2.462517 -32.346462 484.112305
   vertex 1.294561 -32.462048 484.631561
   vertex 2.453100 -32.462048 484.651764
  endloop
 endfacet

 facet normal 0.999848 0.000000 0.017454
  outer loop
   vertex 2.453100 -32.462048 484.651764
   vertex 2.447858 -33.582935 484.952057
   vertex 2.462517 -32.346462 484.112305
  endloop
 endfacet

 facet normal -0.016841 0.258817 0.965779
  outer loop
   vertex 1.294561 -32.462048 484.631561
   vertex 2.447858 -33.582935 484.952057
   vertex 2.453100 -32.462048 484.651764
  endloop
 endfacet

 facet normal -0.016841 0.258817 0.965779
  outer loop
   vertex 1.289319 -33.582935 484.931854
   vertex 2.447858 -33.582935 484.952057
   vertex 1.294561 -32.462048 484.631561
  endloop
 endfacet

 facet normal -0.999848 0.000000 -0.017454
  outer loop
   vertex 1.294561 -32.462048 484.631561
   vertex 1.296466 -33.952816 484.522430
   vertex 1.289319 -33.582935 484.931854
  endloop
 endfacet

 facet normal -0.011687 -0.742083 0.670206
  outer loop
   vertex 1.289319 -33.582935 484.931854
   vertex 1.296466 -33.952816 484.522430
   vertex 2.447858 -33.582935 484.952057
  endloop
 endfacet

 facet normal -0.011705 -0.742058 0.670234
  outer loop
   vertex 2.447858 -33.582935 484.952057
   vertex 1.296466 -33.952816 484.522430
   vertex 2.455004 -33.952816 484.542664
  endloop
 endfacet

 facet normal 0.999848 0.000000 0.017454
  outer loop
   vertex 2.455004 -33.952816 484.542664
   vertex 2.462517 -32.346462 484.112305
   vertex 2.447858 -33.582935 484.952057
  endloop
 endfacet

 facet normal 0.999848 -0.000000 0.017453
  outer loop
   vertex 2.470005 -33.936966 483.683350
   vertex 2.462517 -32.346462 484.112305
   vertex 2.455004 -33.952816 484.542664
  endloop
 endfacet

 facet normal 0.999848 -0.000000 0.017453
  outer loop
   vertex 2.475369 -32.789902 483.376038
   vertex 2.462517 -32.346462 484.112305
   vertex 2.470005 -33.936966 483.683350
  endloop
 endfacet

 facet normal 0.016867 -0.258822 -0.965778
  outer loop
   vertex 2.470005 -33.936966 483.683350
   vertex 1.316830 -32.789902 483.355804
   vertex 2.475369 -32.789902 483.376038
  endloop
 endfacet

 facet normal -0.001985 -0.993520 0.113640
  outer loop
   vertex 2.475369 -32.789902 483.376038
   vertex 1.316830 -32.789902 483.355804
   vertex 2.477099 -32.801243 483.276917
  endloop
 endfacet

 facet normal -0.001985 -0.993520 0.113640
  outer loop
   vertex 2.477099 -32.801243 483.276917
   vertex 1.316830 -32.789902 483.355804
   vertex 1.318561 -32.801243 483.256683
  endloop
 endfacet

 facet normal 0.016867 -0.258822 -0.965778
  outer loop
   vertex 1.318561 -32.801243 483.256683
   vertex 2.477818 -32.647694 483.235779
   vertex 2.477099 -32.801243 483.276917
  endloop
 endfacet

 facet normal 0.016867 -0.258822 -0.965778
  outer loop
   vertex 1.319279 -32.647694 483.215546
   vertex 2.477818 -32.647694 483.235779
   vertex 1.318561 -32.801243 483.256683
  endloop
 endfacet

 facet normal 0.013877 0.606969 -0.794605
  outer loop
   vertex 1.318167 -32.564289 483.279236
   vertex 2.477818 -32.647694 483.235779
   vertex 1.319279 -32.647694 483.215546
  endloop
 endfacet

 facet normal -0.999848 0.000000 -0.017453
  outer loop
   vertex 1.319279 -32.647694 483.215546
   vertex 1.316830 -32.789902 483.355804
   vertex 1.318167 -32.564289 483.279236
  endloop
 endfacet

 facet normal -0.999848 0.000000 -0.017453
  outer loop
   vertex 1.318167 -32.564289 483.279236
   vertex 1.316830 -32.789902 483.355804
   vertex 1.303978 -32.346462 484.092072
  endloop
 endfacet

 facet normal -0.999848 0.000000 -0.017453
  outer loop
   vertex 1.303978 -32.346462 484.092072
   vertex 1.316830 -32.789902 483.355804
   vertex 1.311466 -33.936966 483.663116
  endloop
 endfacet

 facet normal -0.999848 0.000000 -0.017453
  outer loop
   vertex 1.311466 -33.936966 483.663116
   vertex 1.296466 -33.952816 484.522430
   vertex 1.303978 -32.346462 484.092072
  endloop
 endfacet

 facet normal -0.999848 0.000000 -0.017453
  outer loop
   vertex 1.310655 -34.170647 483.709595
   vertex 1.296466 -33.952816 484.522430
   vertex 1.311466 -33.936966 483.663116
  endloop
 endfacet

 facet normal -0.004519 -0.965926 0.258778
  outer loop
   vertex 2.455004 -33.952816 484.542664
   vertex 1.296466 -33.952816 484.522430
   vertex 1.310655 -34.170647 483.709595
  endloop
 endfacet

 facet normal -0.004519 -0.965926 0.258778
  outer loop
   vertex 1.310655 -34.170647 483.709595
   vertex 2.469193 -34.170647 483.729828
   vertex 2.455004 -33.952816 484.542664
  endloop
 endfacet

 facet normal 0.999848 -0.000000 0.017453
  outer loop
   vertex 2.455004 -33.952816 484.542664
   vertex 2.469193 -34.170647 483.729828
   vertex 2.470005 -33.936966 483.683350
  endloop
 endfacet

 facet normal 0.999848 -0.000001 0.017451
  outer loop
   vertex 2.470005 -33.936966 483.683350
   vertex 2.469193 -34.170647 483.729828
   vertex 2.470884 -34.130264 483.632965
  endloop
 endfacet

 facet normal 0.999848 -0.000001 0.017451
  outer loop
   vertex 2.470884 -34.130264 483.632965
   vertex 2.471602 -33.976715 483.591827
   vertex 2.470005 -33.936966 483.683350
  endloop
 endfacet

 facet normal 0.016841 -0.258822 -0.965778
  outer loop
   vertex 1.313063 -33.976715 483.571625
   vertex 2.471602 -33.976715 483.591827
   vertex 2.470884 -34.130264 483.632965
  endloop
 endfacet

 facet normal 0.006945 0.917250 -0.398251
  outer loop
   vertex 2.470005 -33.936966 483.683350
   vertex 2.471602 -33.976715 483.591827
   vertex 1.313063 -33.976715 483.571625
  endloop
 endfacet

 facet normal 0.006957 0.917202 -0.398363
  outer loop
   vertex 1.313063 -33.976715 483.571625
   vertex 1.311466 -33.936966 483.663116
   vertex 2.470005 -33.936966 483.683350
  endloop
 endfacet

 facet normal 0.016867 -0.258822 -0.965778
  outer loop
   vertex 2.470005 -33.936966 483.683350
   vertex 1.311466 -33.936966 483.663116
   vertex 1.316830 -32.789902 483.355804
  endloop
 endfacet

 facet normal -0.011687 -0.742079 0.670210
  outer loop
   vertex 21.732645 -33.952820 484.879150
   vertex 21.725498 -33.582935 485.288574
   vertex 20.574106 -33.952820 484.858948
  endloop
 endfacet

 facet normal -0.011687 -0.742079 0.670210
  outer loop
   vertex 20.574106 -33.952820 484.858948
   vertex 21.725498 -33.582935 485.288574
   vertex 20.566959 -33.582935 485.268372
  endloop
 endfacet

 facet normal -0.999848 0.000001 -0.017454
  outer loop
   vertex 20.566959 -33.582935 485.268372
   vertex 20.572203 -32.462051 484.968079
   vertex 20.574106 -33.952820 484.858948
  endloop
 endfacet

 facet normal -0.016841 0.258818 0.965779
  outer loop
   vertex 21.725498 -33.582935 485.288574
   vertex 20.572203 -32.462051 484.968079
   vertex 20.566959 -33.582935 485.268372
  endloop
 endfacet

 facet normal -0.016841 0.258818 0.965779
  outer loop
   vertex 21.730742 -32.462051 484.988281
   vertex 20.572203 -32.462051 484.968079
   vertex 21.725498 -33.582935 485.288574
  endloop
 endfacet

 facet normal 0.999848 -0.000001 0.017453
  outer loop
   vertex 21.725498 -33.582935 485.288574
   vertex 21.740158 -32.346462 484.448822
   vertex 21.730742 -32.462051 484.988281
  endloop
 endfacet

 facet normal -0.003652 0.977812 0.209451
  outer loop
   vertex 21.730742 -32.462051 484.988281
   vertex 21.740158 -32.346462 484.448822
   vertex 20.572203 -32.462051 484.968079
  endloop
 endfacet

 facet normal -0.003658 0.977815 0.209439
  outer loop
   vertex 20.572203 -32.462051 484.968079
   vertex 21.740158 -32.346462 484.448822
   vertex 20.581619 -32.346462 484.428589
  endloop
 endfacet

 facet normal -0.999848 0.000001 -0.017452
  outer loop
   vertex 20.581619 -32.346462 484.428589
   vertex 20.574106 -33.952820 484.858948
   vertex 20.572203 -32.462051 484.968079
  endloop
 endfacet

 facet normal -0.999848 0.000001 -0.017453
  outer loop
   vertex 20.594471 -32.789906 483.692322
   vertex 20.574106 -33.952820 484.858948
   vertex 20.581619 -32.346462 484.428589
  endloop
 endfacet

 facet normal -0.999848 -0.000001 -0.017455
  outer loop
   vertex 20.589108 -33.936966 483.999634
   vertex 20.574106 -33.952820 484.858948
   vertex 20.594471 -32.789906 483.692322
  endloop
 endfacet

 facet normal 0.016867 -0.258823 -0.965778
  outer loop
   vertex 20.594471 -32.789906 483.692322
   vertex 21.747646 -33.936966 484.019867
   vertex 20.589108 -33.936966 483.999634
  endloop
 endfacet

 facet normal 0.006955 0.917250 -0.398251
  outer loop
   vertex 20.589108 -33.936966 483.999634
   vertex 21.747646 -33.936966 484.019867
   vertex 20.590704 -33.976715 483.908112
  endloop
 endfacet

 facet normal 0.006955 0.917250 -0.398251
  outer loop
   vertex 20.590704 -33.976715 483.908112
   vertex 21.747646 -33.936966 484.019867
   vertex 21.749243 -33.976715 483.928345
  endloop
 endfacet

 facet normal 0.016867 -0.258822 -0.965778
  outer loop
   vertex 21.749243 -33.976715 483.928345
   vertex 20.589987 -34.130264 483.949249
   vertex 20.590704 -33.976715 483.908112
  endloop
 endfacet

 facet normal 0.016867 -0.258822 -0.965778
  outer loop
   vertex 21.748526 -34.130264 483.969482
   vertex 20.589987 -34.130264 483.949249
   vertex 21.749243 -33.976715 483.928345
  endloop
 endfacet

 facet normal 0.006718 -0.923020 -0.384693
  outer loop
   vertex 21.746834 -34.170647 484.066345
   vertex 20.589987 -34.130264 483.949249
   vertex 21.748526 -34.130264 483.969482
  endloop
 endfacet

 facet normal 0.999848 -0.000003 0.017462
  outer loop
   vertex 21.748526 -34.130264 483.969482
   vertex 21.747646 -33.936966 484.019867
   vertex 21.746834 -34.170647 484.066345
  endloop
 endfacet

 facet normal 0.999848 -0.000005 0.017455
  outer loop
   vertex 21.746834 -34.170647 484.066345
   vertex 21.747646 -33.936966 484.019867
   vertex 21.732645 -33.952820 484.879150
  endloop
 endfacet

 facet normal 0.999848 0.000001 0.017455
  outer loop
   vertex 21.732645 -33.952820 484.879150
   vertex 21.747646 -33.936966 484.019867
   vertex 21.753010 -32.789906 483.712555
  endloop
 endfacet

 facet normal 0.999848 -0.000001 0.017453
  outer loop
   vertex 21.753010 -32.789906 483.712555
   vertex 21.740158 -32.346462 484.448822
   vertex 21.732645 -33.952820 484.879150
  endloop
 endfacet

 facet normal 0.999848 -0.000002 0.017454
  outer loop
   vertex 21.754347 -32.564289 483.635986
   vertex 21.740158 -32.346462 484.448822
   vertex 21.753010 -32.789906 483.712555
  endloop
 endfacet

 facet normal 0.004519 0.965927 -0.258774
  outer loop
   vertex 20.581619 -32.346462 484.428589
   vertex 21.740158 -32.346462 484.448822
   vertex 21.754347 -32.564289 483.635986
  endloop
 endfacet

 facet normal 0.004519 0.965927 -0.258774
  outer loop
   vertex 21.754347 -32.564289 483.635986
   vertex 20.595808 -32.564289 483.615753
   vertex 20.581619 -32.346462 484.428589
  endloop
 endfacet

 facet normal -0.999848 0.000002 -0.017454
  outer loop
   vertex 20.581619 -32.346462 484.428589
   vertex 20.595808 -32.564289 483.615753
   vertex 20.594471 -32.789906 483.692322
  endloop
 endfacet

 facet normal -0.999848 0.000001 -0.017457
  outer loop
   vertex 20.594471 -32.789906 483.692322
   vertex 20.595808 -32.564289 483.615753
   vertex 20.596920 -32.647694 483.552063
  endloop
 endfacet

 facet normal -0.999847 -0.000010 -0.017468
  outer loop
   vertex 20.596920 -32.647694 483.552063
   vertex 20.596203 -32.801243 483.593201
   vertex 20.594471 -32.789906 483.692322
  endloop
 endfacet

 facet normal 0.016867 -0.258822 -0.965778
  outer loop
   vertex 21.754742 -32.801243 483.613434
   vertex 20.596203 -32.801243 483.593201
   vertex 20.596920 -32.647694 483.552063
  endloop
 endfacet

 facet normal -0.001984 -0.993524 0.113603
  outer loop
   vertex 20.594471 -32.789906 483.692322
   vertex 20.596203 -32.801243 483.593201
   vertex 21.754742 -32.801243 483.613434
  endloop
 endfacet

 facet normal -0.001984 -0.993524 0.113603
  outer loop
   vertex 21.754742 -32.801243 483.613434
   vertex 21.753010 -32.789906 483.712555
   vertex 20.594471 -32.789906 483.692322
  endloop
 endfacet

 facet normal 0.016867 -0.258823 -0.965778
  outer loop
   vertex 20.594471 -32.789906 483.692322
   vertex 21.753010 -32.789906 483.712555
   vertex 21.747646 -33.936966 484.019867
  endloop
 endfacet

 facet normal 0.004513 0.965926 -0.258778
  outer loop
   vertex -0.206112 -32.658325 485.148773
   vertex 0.143835 -32.658325 485.154877
   vertex -0.268874 -32.723030 484.906158
  endloop
 endfacet

 facet normal 0.004517 0.965925 -0.258784
  outer loop
   vertex -0.268874 -32.723030 484.906158
   vertex 0.143835 -32.658325 485.154877
   vertex 0.037138 -32.768326 484.742432
  endloop
 endfacet

 facet normal 0.004528 0.965930 -0.258765
  outer loop
   vertex 0.037138 -32.768326 484.742432
   vertex -0.448774 -32.770397 484.726196
   vertex -0.268874 -32.723030 484.906158
  endloop
 endfacet

 facet normal 0.004529 0.965923 -0.258789
  outer loop
   vertex -0.268691 -32.848850 484.436523
   vertex -0.448774 -32.770397 484.726196
   vertex 0.037138 -32.768326 484.742432
  endloop
 endfacet

 facet normal 0.004523 0.965922 -0.258792
  outer loop
   vertex -0.697606 -32.787735 484.657135
   vertex -0.448774 -32.770397 484.726196
   vertex -0.268691 -32.848850 484.436523
  endloop
 endfacet

 facet normal 0.004525 0.965923 -0.258789
  outer loop
   vertex -0.268691 -32.848850 484.436523
   vertex -0.691706 -32.878323 484.319122
   vertex -0.697606 -32.787735 484.657135
  endloop
 endfacet

 facet normal 0.004514 0.965923 -0.258789
  outer loop
   vertex -0.697606 -32.787735 484.657135
   vertex -0.691706 -32.878323 484.319122
   vertex -0.948698 -32.770397 484.717468
  endloop
 endfacet

 facet normal 0.004517 0.965924 -0.258787
  outer loop
   vertex -0.948698 -32.770397 484.717468
   vertex -0.691706 -32.878323 484.319122
   vertex -1.118562 -32.848846 484.421692
  endloop
 endfacet

 facet normal 0.004514 0.965924 -0.258786
  outer loop
   vertex -1.118562 -32.848846 484.421692
   vertex -1.134768 -32.723030 484.891022
   vertex -0.948698 -32.770397 484.717468
  endloop
 endfacet

 facet normal 0.004500 0.965924 -0.258786
  outer loop
   vertex -1.434881 -32.768326 484.716736
   vertex -1.134768 -32.723030 484.891022
   vertex -1.118562 -32.848846 484.421692
  endloop
 endfacet

 facet normal 0.004489 0.965929 -0.258768
  outer loop
   vertex -1.205960 -32.658325 485.131317
   vertex -1.134768 -32.723030 484.891022
   vertex -1.434881 -32.768326 484.716736
  endloop
 endfacet

 facet normal 0.004513 0.965926 -0.258781
  outer loop
   vertex -1.434881 -32.768326 484.716736
   vertex -1.555907 -32.658325 485.125214
   vertex -1.205960 -32.658325 485.131317
  endloop
 endfacet

 facet normal 0.004513 0.965930 -0.258764
  outer loop
   vertex -1.205960 -32.658325 485.131317
   vertex -1.555907 -32.658325 485.125214
   vertex -1.143197 -32.593624 485.373932
  endloop
 endfacet

 facet normal 0.004524 0.965925 -0.258781
  outer loop
   vertex -1.143197 -32.593624 485.373932
   vertex -1.555907 -32.658325 485.125214
   vertex -1.572765 -32.399509 486.090973
  endloop
 endfacet

 facet normal 0.004510 0.965923 -0.258789
  outer loop
   vertex -1.572765 -32.399509 486.090973
   vertex -0.963298 -32.546257 485.553864
   vertex -1.143197 -32.593624 485.373932
  endloop
 endfacet

 facet normal 0.004520 0.965926 -0.258779
  outer loop
   vertex -0.714465 -32.528919 485.622925
   vertex -0.963298 -32.546257 485.553864
   vertex -1.572765 -32.399509 486.090973
  endloop
 endfacet

 facet normal -0.004514 -0.965923 0.258792
  outer loop
   vertex 23.210190 -33.141293 485.686951
   vertex 22.860243 -33.141293 485.680847
   vertex 23.281382 -33.205997 485.446686
  endloop
 endfacet

 facet normal -0.004528 -0.965929 0.258768
  outer loop
   vertex 23.281382 -33.205997 485.446686
   vertex 22.860243 -33.141293 485.680847
   vertex 22.981270 -33.251289 485.272369
  endloop
 endfacet

 facet normal -0.004529 -0.965928 0.258770
  outer loop
   vertex 22.981270 -33.251289 485.272369
   vertex 23.467451 -33.253365 485.273132
   vertex 23.281382 -33.205997 485.446686
  endloop
 endfacet

 facet normal -0.004529 -0.965929 0.258769
  outer loop
   vertex 23.297588 -33.331814 484.977325
   vertex 23.467451 -33.253365 485.273132
   vertex 22.981270 -33.251289 485.272369
  endloop
 endfacet

 facet normal -0.004520 -0.965930 0.258764
  outer loop
   vertex 23.718542 -33.270702 485.212799
   vertex 23.467451 -33.253365 485.273132
   vertex 23.297588 -33.331814 484.977325
  endloop
 endfacet

 facet normal -0.004516 -0.965932 0.258757
  outer loop
   vertex 23.297588 -33.331814 484.977325
   vertex 23.724443 -33.361286 484.874756
   vertex 23.718542 -33.270702 485.212799
  endloop
 endfacet

 facet normal -0.004513 -0.965932 0.258757
  outer loop
   vertex 23.718542 -33.270702 485.212799
   vertex 23.724443 -33.361286 484.874756
   vertex 23.967375 -33.253365 485.281860
  endloop
 endfacet

 facet normal -0.004516 -0.965931 0.258759
  outer loop
   vertex 23.967375 -33.253365 485.281860
   vertex 23.724443 -33.361286 484.874756
   vertex 24.147459 -33.331814 484.992157
  endloop
 endfacet

 facet normal -0.004492 -0.965928 0.258773
  outer loop
   vertex 24.147459 -33.331814 484.992157
   vertex 24.147274 -33.205997 485.461792
   vertex 23.967375 -33.253365 485.281860
  endloop
 endfacet

 facet normal -0.004512 -0.965928 0.258773
  outer loop
   vertex 24.453289 -33.251289 485.298065
   vertex 24.147274 -33.205997 485.461792
   vertex 24.147459 -33.331814 484.992157
  endloop
 endfacet

 facet normal -0.004509 -0.965926 0.258777
  outer loop
   vertex 24.210037 -33.141293 485.704407
   vertex 24.147274 -33.205997 485.461792
   vertex 24.453289 -33.251289 485.298065
  endloop
 endfacet

 facet normal -0.004513 -0.965927 0.258775
  outer loop
   vertex 24.453289 -33.251289 485.298065
   vertex 24.559984 -33.141293 485.710510
   vertex 24.210037 -33.141293 485.704407
  endloop
 endfacet

 facet normal -0.004514 -0.965923 0.258792
  outer loop
   vertex 24.210037 -33.141293 485.704407
   vertex 24.559984 -33.141293 485.710510
   vertex 24.138845 -33.076588 485.944672
  endloop
 endfacet

 facet normal -0.004522 -0.965926 0.258777
  outer loop
   vertex 24.138845 -33.076588 485.944672
   vertex 24.559984 -33.141293 485.710510
   vertex 24.543125 -32.882473 486.676300
  endloop
 endfacet

 facet normal -0.004522 -0.965926 0.258777
  outer loop
   vertex 24.543125 -32.882473 486.676300
   vertex 23.952774 -33.029221 486.118225
   vertex 24.138845 -33.076588 485.944672
  endloop
 endfacet

 facet normal -0.004518 -0.965928 0.258773
  outer loop
   vertex 23.701683 -33.011883 486.178558
   vertex 23.952774 -33.029221 486.118225
   vertex 24.543125 -32.882473 486.676300
  endloop
 endfacet

 facet normal -0.004516 -0.965926 0.258778
  outer loop
   vertex -1.575024 -32.882473 486.220367
   vertex -0.716724 -33.011879 485.752319
   vertex 0.124718 -32.882473 486.250031
  endloop
 endfacet

 facet normal -0.004517 -0.965926 0.258779
  outer loop
   vertex 0.124718 -32.882473 486.250031
   vertex -0.716724 -33.011879 485.752319
   vertex -0.465633 -33.029217 485.691986
  endloop
 endfacet

 facet normal -0.004519 -0.965926 0.258781
  outer loop
   vertex -0.465633 -33.029217 485.691986
   vertex -0.279562 -33.076584 485.518433
   vertex 0.124718 -32.882473 486.250031
  endloop
 endfacet

 facet normal -0.004510 -0.965923 0.258789
  outer loop
   vertex 23.272951 -33.076588 485.929565
   vertex 23.452850 -33.029221 486.109497
   vertex 22.843384 -32.882473 486.646606
  endloop
 endfacet

 facet normal -0.004520 -0.965926 0.258779
  outer loop
   vertex 22.843384 -32.882473 486.646606
   vertex 23.452850 -33.029221 486.109497
   vertex 23.701683 -33.011883 486.178558
  endloop
 endfacet

 facet normal -0.004521 -0.965926 0.258777
  outer loop
   vertex 23.701683 -33.011883 486.178558
   vertex 24.543125 -32.882473 486.676300
   vertex 22.843384 -32.882473 486.646606
  endloop
 endfacet

 facet normal 0.004516 0.965928 -0.258770
  outer loop
   vertex 24.545383 -32.399509 486.546906
   vertex 23.703943 -32.528919 486.049164
   vertex 22.845642 -32.399509 486.517242
  endloop
 endfacet

 facet normal 0.004495 0.965919 -0.258805
  outer loop
   vertex 22.845642 -32.399509 486.517242
   vertex 23.703943 -32.528919 486.049164
   vertex 23.455111 -32.546257 485.980133
  endloop
 endfacet

 facet normal 0.004531 0.965929 -0.258767
  outer loop
   vertex 23.455111 -32.546257 485.980133
   vertex 23.275209 -32.593624 485.800171
   vertex 22.845642 -32.399509 486.517242
  endloop
 endfacet

 facet normal 0.004522 0.965926 -0.258777
  outer loop
   vertex -0.277303 -32.593624 485.389038
   vertex -0.463374 -32.546257 485.562592
   vertex 0.126976 -32.399509 486.120667
  endloop
 endfacet

 facet normal 0.004518 0.965928 -0.258773
  outer loop
   vertex 0.126976 -32.399509 486.120667
   vertex -0.463374 -32.546257 485.562592
   vertex -0.714465 -32.528919 485.622925
  endloop
 endfacet

 facet normal 0.004521 0.965926 -0.258777
  outer loop
   vertex -0.714465 -32.528919 485.622925
   vertex -1.572765 -32.399509 486.090973
   vertex 0.126976 -32.399509 486.120667
  endloop
 endfacet

 facet normal 0.013877 0.606969 -0.794605
  outer loop
   vertex 21.754347 -32.564289 483.635986
   vertex 21.755459 -32.647694 483.572296
   vertex 20.595808 -32.564289 483.615753
  endloop
 endfacet

 facet normal 0.013877 0.606969 -0.794605
  outer loop
   vertex 20.595808 -32.564289 483.615753
   vertex 21.755459 -32.647694 483.572296
   vertex 20.596920 -32.647694 483.552063
  endloop
 endfacet

 facet normal -0.004518 -0.965925 0.258783
  outer loop
   vertex 1.709544 -33.900570 484.415344
   vertex 1.719888 -34.059364 483.822815
   vertex 21.323555 -33.900570 484.757751
  endloop
 endfacet

 facet normal -0.004518 -0.965925 0.258783
  outer loop
   vertex 21.323555 -33.900570 484.757751
   vertex 1.719888 -34.059364 483.822815
   vertex 21.333899 -34.059364 484.165222
  endloop
 endfacet

 facet normal 0.006708 -0.923020 -0.384693
  outer loop
   vertex 2.470884 -34.130264 483.632965
   vertex 2.469193 -34.170647 483.729828
   vertex 1.312345 -34.130264 483.612762
  endloop
 endfacet

 facet normal 0.006720 -0.922977 -0.384796
  outer loop
   vertex 1.312345 -34.130264 483.612762
   vertex 2.469193 -34.170647 483.729828
   vertex 1.310655 -34.170647 483.709595
  endloop
 endfacet

 facet normal 0.016844 -0.258828 -0.965777
  outer loop
   vertex 24.212296 -32.658329 485.575012
   vertex 24.562243 -32.658329 485.581116
   vertex 24.386139 -32.899811 485.642761
  endloop
 endfacet

 facet normal 0.999848 -0.000001 0.017454
  outer loop
   vertex 21.732645 -33.952820 484.879150
   vertex 21.740158 -32.346462 484.448822
   vertex 21.725498 -33.582935 485.288574
  endloop
 endfacet

 facet normal -0.004513 -0.965926 0.258778
  outer loop
   vertex 22.860243 -33.141293 485.680847
   vertex 23.210190 -33.141293 485.686951
   vertex 23.272951 -33.076588 485.929565
  endloop
 endfacet

 facet normal -0.004514 -0.965923 0.258792
  outer loop
   vertex -0.208371 -33.141289 485.278168
   vertex 0.141577 -33.141289 485.284271
   vertex -0.279562 -33.076584 485.518433
  endloop
 endfacet

 facet normal -0.016844 0.258828 0.965777
  outer loop
   vertex 24.562243 -32.658329 485.581116
   vertex 24.210037 -33.141293 485.704407
   vertex 24.559984 -33.141293 485.710510
  endloop
 endfacet

 facet normal 0.004519 0.965926 -0.258780
  outer loop
   vertex 1.543069 -32.520508 484.505585
   vertex -0.104840 -32.520508 484.476807
   vertex -0.130821 -32.121655 485.965118
  endloop
 endfacet

 facet normal -0.004519 -0.965926 0.258778
  outer loop
   vertex 21.455763 -33.198605 486.630554
   vertex 21.481745 -33.597454 485.142242
   vertex 23.103674 -33.198605 486.659332
  endloop
 endfacet

 facet normal -0.016845 0.258771 0.965792
  outer loop
   vertex -1.558165 -33.141289 485.254578
   vertex -1.205960 -32.658325 485.131317
   vertex -1.555907 -32.658325 485.125214
  endloop
 endfacet

 facet normal -0.999848 -0.000000 -0.017454
  outer loop
   vertex 1.319279 -32.647694 483.215546
   vertex 1.318561 -32.801243 483.256683
   vertex 1.316830 -32.789902 483.355804
  endloop
 endfacet

 facet normal -0.016844 0.258828 0.965777
  outer loop
   vertex 23.210190 -33.141293 485.686951
   vertex 22.862501 -32.658329 485.551453
   vertex 22.860243 -33.141293 485.680847
  endloop
 endfacet

 facet normal -0.999848 0.000000 -0.017453
  outer loop
   vertex 1.303978 -32.346462 484.092072
   vertex 1.296466 -33.952816 484.522430
   vertex 1.294561 -32.462048 484.631561
  endloop
 endfacet

 facet normal 0.999848 0.000002 0.017440
  outer loop
   vertex 21.748526 -34.130264 483.969482
   vertex 21.749243 -33.976715 483.928345
   vertex 21.747646 -33.936966 484.019867
  endloop
 endfacet

 facet normal 0.004514 0.965926 -0.258778
  outer loop
   vertex 21.486780 -32.520508 484.853729
   vertex 21.460800 -32.121658 486.342041
   vertex 23.108709 -32.121658 486.370789
  endloop
 endfacet

 facet normal 0.999848 -0.000000 0.017454
  outer loop
   vertex 1.517089 -32.121658 485.993896
   vertex 1.512053 -33.198601 486.282410
   vertex 1.538033 -33.597454 484.794098
  endloop
 endfacet

 facet normal -0.016844 0.258828 0.965777
  outer loop
   vertex -0.206112 -32.658325 485.148773
   vertex 0.141577 -33.141289 485.284271
   vertex 0.143835 -32.658325 485.154877
  endloop
 endfacet

 facet normal 0.004513 0.965926 -0.258778
  outer loop
   vertex 0.143835 -32.658325 485.154877
   vertex -0.206112 -32.658325 485.148773
   vertex -0.277303 -32.593624 485.389038
  endloop
 endfacet

 facet normal -0.695074 -0.183021 -0.695252
  outer loop
   vertex -0.463374 -32.546257 485.562592
   vertex -0.279562 -33.076584 485.518433
   vertex -0.465633 -33.029217 485.691986
  endloop
 endfacet

 facet normal -0.242502 -0.250010 -0.937384
  outer loop
   vertex -0.463374 -32.546257 485.562592
   vertex -0.465633 -33.029217 485.691986
   vertex -0.714465 -32.528919 485.622925
  endloop
 endfacet

 facet normal -0.242502 -0.250010 -0.937384
  outer loop
   vertex -0.714465 -32.528919 485.622925
   vertex -0.465633 -33.029217 485.691986
   vertex -0.716724 -33.011879 485.752319
  endloop
 endfacet

 facet normal 0.275074 -0.250009 -0.928348
  outer loop
   vertex -0.716724 -33.011879 485.752319
   vertex -0.963298 -32.546257 485.553864
   vertex -0.714465 -32.528919 485.622925
  endloop
 endfacet

 facet normal 0.275074 -0.250009 -0.928348
  outer loop
   vertex -0.965556 -33.029217 485.683258
   vertex -0.963298 -32.546257 485.553864
   vertex -0.716724 -33.011879 485.752319
  endloop
 endfacet

 facet normal 0.718897 -0.183026 -0.670588
  outer loop
   vertex -1.143197 -32.593624 485.373932
   vertex -0.963298 -32.546257 485.553864
   vertex -0.965556 -33.029217 485.683258
  endloop
 endfacet

 facet normal 0.718897 -0.183026 -0.670588
  outer loop
   vertex -0.965556 -33.029217 485.683258
   vertex -1.145456 -33.076584 485.503326
   vertex -1.143197 -32.593624 485.373932
  endloop
 endfacet

 facet normal 0.970142 -0.066990 -0.233102
  outer loop
   vertex -1.143197 -32.593624 485.373932
   vertex -1.145456 -33.076584 485.503326
   vertex -1.205960 -32.658325 485.131317
  endloop
 endfacet

 facet normal -0.961412 -0.066993 -0.266830
  outer loop
   vertex 24.212296 -32.658329 485.575012
   vertex 24.210037 -33.141293 485.704407
   vertex 24.141104 -32.593624 485.815277
  endloop
 endfacet

 facet normal -0.961412 -0.066993 -0.266830
  outer loop
   vertex 24.141104 -32.593624 485.815277
   vertex 24.210037 -33.141293 485.704407
   vertex 24.138845 -33.076588 485.944672
  endloop
 endfacet

 facet normal -0.695134 -0.183005 -0.695196
  outer loop
   vertex 24.138845 -33.076588 485.944672
   vertex 23.955034 -32.546257 485.988861
   vertex 24.141104 -32.593624 485.815277
  endloop
 endfacet

 facet normal -0.695072 -0.182977 -0.695266
  outer loop
   vertex 23.952774 -33.029221 486.118225
   vertex 23.955034 -32.546257 485.988861
   vertex 24.138845 -33.076588 485.944672
  endloop
 endfacet

 facet normal -0.242394 -0.249959 -0.937425
  outer loop
   vertex 23.703943 -32.528919 486.049164
   vertex 23.955034 -32.546257 485.988861
   vertex 23.952774 -33.029221 486.118225
  endloop
 endfacet

 facet normal -0.242502 -0.250007 -0.937384
  outer loop
   vertex 23.952774 -33.029221 486.118225
   vertex 23.701683 -33.011883 486.178558
   vertex 23.703943 -32.528919 486.049164
  endloop
 endfacet

 facet normal 0.274969 -0.250016 -0.928377
  outer loop
   vertex 23.703943 -32.528919 486.049164
   vertex 23.701683 -33.011883 486.178558
   vertex 23.455111 -32.546257 485.980133
  endloop
 endfacet

 facet normal 0.275075 -0.249954 -0.928363
  outer loop
   vertex 23.455111 -32.546257 485.980133
   vertex 23.701683 -33.011883 486.178558
   vertex 23.452850 -33.029221 486.109497
  endloop
 endfacet

 facet normal 0.718950 -0.182973 -0.670546
  outer loop
   vertex 23.452850 -33.029221 486.109497
   vertex 23.275209 -32.593624 485.800171
   vertex 23.455111 -32.546257 485.980133
  endloop
 endfacet

 facet normal 0.970142 -0.066990 -0.233103
  outer loop
   vertex 0.143835 -32.658325 485.154877
   vertex 0.141577 -33.141289 485.284271
   vertex 0.037138 -32.768326 484.742432
  endloop
 endfacet

 facet normal 0.970142 -0.066990 -0.233103
  outer loop
   vertex 0.037138 -32.768326 484.742432
   vertex 0.141577 -33.141289 485.284271
   vertex 0.034880 -33.251289 484.871826
  endloop
 endfacet

 facet normal 0.718923 -0.183018 -0.670562
  outer loop
   vertex 0.034880 -33.251289 484.871826
   vertex -0.268691 -32.848850 484.436523
   vertex 0.037138 -32.768326 484.742432
  endloop
 endfacet

 facet normal 0.718922 -0.183019 -0.670563
  outer loop
   vertex -0.270950 -33.331810 484.565918
   vertex -0.268691 -32.848850 484.436523
   vertex 0.034880 -33.251289 484.871826
  endloop
 endfacet

 facet normal 0.275068 -0.250010 -0.928350
  outer loop
   vertex -0.691706 -32.878323 484.319122
   vertex -0.268691 -32.848850 484.436523
   vertex -0.270950 -33.331810 484.565918
  endloop
 endfacet

 facet normal 0.275070 -0.250008 -0.928349
  outer loop
   vertex -0.270950 -33.331810 484.565918
   vertex -0.693964 -33.361286 484.448517
   vertex -0.691706 -32.878323 484.319122
  endloop
 endfacet

 facet normal -0.242508 -0.250007 -0.937383
  outer loop
   vertex -0.691706 -32.878323 484.319122
   vertex -0.693964 -33.361286 484.448517
   vertex -1.118562 -32.848846 484.421692
  endloop
 endfacet

 facet normal -0.242508 -0.250007 -0.937383
  outer loop
   vertex -1.118562 -32.848846 484.421692
   vertex -0.693964 -33.361286 484.448517
   vertex -1.120821 -33.331810 484.551086
  endloop
 endfacet

 facet normal -0.695077 -0.183019 -0.695249
  outer loop
   vertex -1.120821 -33.331810 484.551086
   vertex -1.434881 -32.768326 484.716736
   vertex -1.118562 -32.848846 484.421692
  endloop
 endfacet

 facet normal -0.695077 -0.183019 -0.695249
  outer loop
   vertex -1.437139 -33.251289 484.846130
   vertex -1.434881 -32.768326 484.716736
   vertex -1.120821 -33.331810 484.551086
  endloop
 endfacet

 facet normal -0.961417 -0.066988 -0.266814
  outer loop
   vertex -1.555907 -32.658325 485.125214
   vertex -1.434881 -32.768326 484.716736
   vertex -1.437139 -33.251289 484.846130
  endloop
 endfacet

 facet normal -0.961412 -0.066977 -0.266836
  outer loop
   vertex -1.437139 -33.251289 484.846130
   vertex -1.558165 -33.141289 485.254578
   vertex -1.555907 -32.658325 485.125214
  endloop
 endfacet

 facet normal 0.970143 -0.066988 -0.233100
  outer loop
   vertex 24.562243 -32.658329 485.581116
   vertex 24.559984 -33.141293 485.710510
   vertex 24.455547 -32.768326 485.168671
  endloop
 endfacet

 facet normal 0.970143 -0.066988 -0.233100
  outer loop
   vertex 24.455547 -32.768326 485.168671
   vertex 24.559984 -33.141293 485.710510
   vertex 24.453289 -33.251289 485.298065
  endloop
 endfacet

 facet normal 0.718925 -0.183017 -0.670561
  outer loop
   vertex 24.453289 -33.251289 485.298065
   vertex 24.149719 -32.848850 484.862762
   vertex 24.455547 -32.768326 485.168671
  endloop
 endfacet

 facet normal 0.718923 -0.183020 -0.670562
  outer loop
   vertex 24.147459 -33.331814 484.992157
   vertex 24.149719 -32.848850 484.862762
   vertex 24.453289 -33.251289 485.298065
  endloop
 endfacet

 facet normal 0.275066 -0.250009 -0.928350
  outer loop
   vertex 23.726702 -32.878323 484.745361
   vertex 24.149719 -32.848850 484.862762
   vertex 24.147459 -33.331814 484.992157
  endloop
 endfacet

 facet normal 0.275067 -0.250008 -0.928350
  outer loop
   vertex 24.147459 -33.331814 484.992157
   vertex 23.724443 -33.361286 484.874756
   vertex 23.726702 -32.878323 484.745361
  endloop
 endfacet

 facet normal -0.242507 -0.250008 -0.937383
  outer loop
   vertex 23.726702 -32.878323 484.745361
   vertex 23.724443 -33.361286 484.874756
   vertex 23.299847 -32.848850 484.847931
  endloop
 endfacet

 facet normal -0.242507 -0.250008 -0.937383
  outer loop
   vertex 23.299847 -32.848850 484.847931
   vertex 23.724443 -33.361286 484.874756
   vertex 23.297588 -33.331814 484.977325
  endloop
 endfacet

 facet normal -0.695079 -0.183019 -0.695248
  outer loop
   vertex 23.297588 -33.331814 484.977325
   vertex 22.983528 -32.768326 485.142975
   vertex 23.299847 -32.848850 484.847931
  endloop
 endfacet

 facet normal -0.695079 -0.183019 -0.695248
  outer loop
   vertex 22.981270 -33.251289 485.272369
   vertex 22.983528 -32.768326 485.142975
   vertex 23.297588 -33.331814 484.977325
  endloop
 endfacet

 facet normal -0.961416 -0.066989 -0.266817
  outer loop
   vertex 22.862501 -32.658329 485.551453
   vertex 22.983528 -32.768326 485.142975
   vertex 22.981270 -33.251289 485.272369
  endloop
 endfacet

 facet normal -0.961416 -0.066989 -0.266817
  outer loop
   vertex 22.981270 -33.251289 485.272369
   vertex 22.860243 -33.141293 485.680847
   vertex 22.862501 -32.658329 485.551453
  endloop
 endfacet

 facet normal 0.718898 -0.183024 -0.670588
  outer loop
   vertex 23.452850 -33.029221 486.109497
   vertex 23.272951 -33.076588 485.929565
   vertex 23.275209 -32.593624 485.800171
  endloop
 endfacet

 facet normal 0.970143 -0.066987 -0.233098
  outer loop
   vertex 23.275209 -32.593624 485.800171
   vertex 23.272951 -33.076588 485.929565
   vertex 23.210190 -33.141293 485.686951
  endloop
 endfacet

 facet normal 0.970143 -0.066987 -0.233098
  outer loop
   vertex 23.210190 -33.141293 485.686951
   vertex 23.212448 -32.658329 485.557556
   vertex 23.275209 -32.593624 485.800171
  endloop
 endfacet

 facet normal 0.961412 0.066993 0.266830
  outer loop
   vertex 23.281382 -33.205997 485.446686
   vertex 23.212448 -32.658329 485.557556
   vertex 23.210190 -33.141293 485.686951
  endloop
 endfacet

 facet normal 0.961412 0.066993 0.266830
  outer loop
   vertex 23.283640 -32.723034 485.317291
   vertex 23.212448 -32.658329 485.557556
   vertex 23.281382 -33.205997 485.446686
  endloop
 endfacet

 facet normal 0.695075 0.183020 0.695251
  outer loop
   vertex 23.281382 -33.205997 485.446686
   vertex 23.467451 -33.253365 485.273132
   vertex 23.283640 -32.723034 485.317291
  endloop
 endfacet

 facet normal 0.695075 0.183020 0.695251
  outer loop
   vertex 23.283640 -32.723034 485.317291
   vertex 23.467451 -33.253365 485.273132
   vertex 23.469709 -32.770401 485.143738
  endloop
 endfacet

 facet normal 0.242502 0.250008 0.937384
  outer loop
   vertex 23.469709 -32.770401 485.143738
   vertex 23.467451 -33.253365 485.273132
   vertex 23.718542 -33.270702 485.212799
  endloop
 endfacet

 facet normal 0.242502 0.250008 0.937384
  outer loop
   vertex 23.718542 -33.270702 485.212799
   vertex 23.720800 -32.787739 485.083405
   vertex 23.469709 -32.770401 485.143738
  endloop
 endfacet

 facet normal -0.275074 0.250007 0.928348
  outer loop
   vertex 23.967375 -33.253365 485.281860
   vertex 23.720800 -32.787739 485.083405
   vertex 23.718542 -33.270702 485.212799
  endloop
 endfacet

 facet normal -0.275074 0.250007 0.928348
  outer loop
   vertex 23.969633 -32.770401 485.152466
   vertex 23.720800 -32.787739 485.083405
   vertex 23.967375 -33.253365 485.281860
  endloop
 endfacet

 facet normal -0.718898 0.183024 0.670588
  outer loop
   vertex 23.967375 -33.253365 485.281860
   vertex 24.147274 -33.205997 485.461792
   vertex 23.969633 -32.770401 485.152466
  endloop
 endfacet

 facet normal -0.718895 0.183027 0.670591
  outer loop
   vertex 23.969633 -32.770401 485.152466
   vertex 24.147274 -33.205997 485.461792
   vertex 24.149534 -32.723034 485.332397
  endloop
 endfacet

 facet normal -0.970142 0.066993 0.233104
  outer loop
   vertex 24.149534 -32.723034 485.332397
   vertex 24.147274 -33.205997 485.461792
   vertex 24.210037 -33.141293 485.704407
  endloop
 endfacet

 facet normal -0.970143 0.066987 0.233098
  outer loop
   vertex 24.210037 -33.141293 485.704407
   vertex 24.212296 -32.658329 485.575012
   vertex 24.149534 -32.723034 485.332397
  endloop
 endfacet

 facet normal -0.695074 -0.183021 -0.695252
  outer loop
   vertex -0.463374 -32.546257 485.562592
   vertex -0.277303 -32.593624 485.389038
   vertex -0.279562 -33.076584 485.518433
  endloop
 endfacet

 facet normal -0.961412 -0.066993 -0.266830
  outer loop
   vertex -0.279562 -33.076584 485.518433
   vertex -0.277303 -32.593624 485.389038
   vertex -0.206112 -32.658325 485.148773
  endloop
 endfacet

 facet normal -0.961413 -0.066992 -0.266829
  outer loop
   vertex -0.206112 -32.658325 485.148773
   vertex -0.208371 -33.141289 485.278168
   vertex -0.279562 -33.076584 485.518433
  endloop
 endfacet

 facet normal -0.970142 0.066989 0.233101
  outer loop
   vertex -0.268874 -32.723030 484.906158
   vertex -0.208371 -33.141289 485.278168
   vertex -0.206112 -32.658325 485.148773
  endloop
 endfacet

 facet normal -0.970142 0.066989 0.233101
  outer loop
   vertex -0.271133 -33.205994 485.035553
   vertex -0.208371 -33.141289 485.278168
   vertex -0.268874 -32.723030 484.906158
  endloop
 endfacet

 facet normal -0.718952 0.183010 0.670533
  outer loop
   vertex -0.268874 -32.723030 484.906158
   vertex -0.448774 -32.770397 484.726196
   vertex -0.271133 -33.205994 485.035553
  endloop
 endfacet

 facet normal -0.718952 0.183010 0.670533
  outer loop
   vertex -0.271133 -33.205994 485.035553
   vertex -0.448774 -32.770397 484.726196
   vertex -0.451032 -33.253361 484.855591
  endloop
 endfacet

 facet normal -0.275074 0.250007 0.928348
  outer loop
   vertex -0.451032 -33.253361 484.855591
   vertex -0.448774 -32.770397 484.726196
   vertex -0.697606 -32.787735 484.657135
  endloop
 endfacet

 facet normal -0.275074 0.250007 0.928348
  outer loop
   vertex -0.697606 -32.787735 484.657135
   vertex -0.699865 -33.270699 484.786530
   vertex -0.451032 -33.253361 484.855591
  endloop
 endfacet

 facet normal 0.242502 0.250008 0.937384
  outer loop
   vertex -0.948698 -32.770397 484.717468
   vertex -0.699865 -33.270699 484.786530
   vertex -0.697606 -32.787735 484.657135
  endloop
 endfacet

 facet normal 0.242502 0.250008 0.937384
  outer loop
   vertex -0.950956 -33.253361 484.846863
   vertex -0.699865 -33.270699 484.786530
   vertex -0.948698 -32.770397 484.717468
  endloop
 endfacet

 facet normal 0.695074 0.183020 0.695253
  outer loop
   vertex -0.948698 -32.770397 484.717468
   vertex -1.134768 -32.723030 484.891022
   vertex -0.950956 -33.253361 484.846863
  endloop
 endfacet

 facet normal 0.695073 0.183020 0.695253
  outer loop
   vertex -0.950956 -33.253361 484.846863
   vertex -1.134768 -32.723030 484.891022
   vertex -1.137027 -33.205994 485.020416
  endloop
 endfacet

 facet normal 0.961421 0.066984 0.266800
  outer loop
   vertex -1.137027 -33.205994 485.020416
   vertex -1.134768 -32.723030 484.891022
   vertex -1.205960 -32.658325 485.131317
  endloop
 endfacet

 facet normal 0.961421 0.066984 0.266800
  outer loop
   vertex -1.205960 -32.658325 485.131317
   vertex -1.208218 -33.141289 485.260712
   vertex -1.137027 -33.205994 485.020416
  endloop
 endfacet

 facet normal 0.970142 -0.066989 -0.233101
  outer loop
   vertex -1.145456 -33.076584 485.503326
   vertex -1.208218 -33.141289 485.260712
   vertex -1.205960 -32.658325 485.131317
  endloop
 endfacet

endsolid