solid stl file generated from DOUG
 facet normal -0.869012 0.466803 0.164053
  outer loop
   vertex 22.265348 22.115953 487.445770
   vertex 22.257183 21.936348 487.913574
   vertex 22.389267 22.318554 487.525696
  endloop
 endfacet

 facet normal -0.869024 0.466787 0.164032
  outer loop
   vertex 22.389267 22.318554 487.525696
   vertex 22.257183 21.936348 487.913574
   vertex 22.381100 22.138948 487.993530
  endloop
 endfacet

 facet normal -0.006285 0.933585 0.358301
  outer loop
   vertex 22.381100 22.138948 487.993530
   vertex 22.639814 22.318554 487.530090
   vertex 22.389267 22.318554 487.525696
  endloop
 endfacet

 facet normal -0.006241 0.933577 0.358322
  outer loop
   vertex 22.631647 22.138948 487.997894
   vertex 22.639814 22.318554 487.530090
   vertex 22.381100 22.138948 487.993530
  endloop
 endfacet

 facet normal 0.862775 0.466773 0.194273
  outer loop
   vertex 22.766445 22.115953 487.454498
   vertex 22.639814 22.318554 487.530090
   vertex 22.631647 22.138948 487.997894
  endloop
 endfacet

 facet normal 0.862760 0.466803 0.194268
  outer loop
   vertex 22.631647 22.138948 487.997894
   vertex 22.758280 21.936348 487.922333
   vertex 22.766445 22.115953 487.454498
  endloop
 endfacet

 facet normal 0.869015 -0.466802 -0.164042
  outer loop
   vertex 22.766445 22.115953 487.454498
   vertex 22.758280 21.936348 487.922333
   vertex 22.642529 21.913353 487.374573
  endloop
 endfacet

 facet normal 0.869023 -0.466785 -0.164044
  outer loop
   vertex 22.642529 21.913353 487.374573
   vertex 22.758280 21.936348 487.922333
   vertex 22.634363 21.733749 487.842377
  endloop
 endfacet

 facet normal 0.006285 -0.933578 -0.358318
  outer loop
   vertex 22.634363 21.733749 487.842377
   vertex 22.391981 21.913353 487.370178
   vertex 22.642529 21.913353 487.374573
  endloop
 endfacet

 facet normal 0.006241 -0.933586 -0.358299
  outer loop
   vertex 22.383816 21.733749 487.838013
   vertex 22.391981 21.913353 487.370178
   vertex 22.634363 21.733749 487.842377
  endloop
 endfacet

 facet normal -0.862772 -0.466784 -0.194259
  outer loop
   vertex 22.265348 22.115953 487.445770
   vertex 22.391981 21.913353 487.370178
   vertex 22.383816 21.733749 487.838013
  endloop
 endfacet

 facet normal -0.862758 -0.466802 -0.194280
  outer loop
   vertex 22.383816 21.733749 487.838013
   vertex 22.257183 21.936348 487.913574
   vertex 22.265348 22.115953 487.445770
  endloop
 endfacet

 facet normal 0.862761 0.466796 0.194279
  outer loop
   vertex 0.666348 21.936350 487.536682
   vertex 0.674514 22.115955 487.068878
   vertex 0.539716 22.138950 487.612244
  endloop
 endfacet

 facet normal 0.862759 0.466800 0.194279
  outer loop
   vertex 0.539716 22.138950 487.612244
   vertex 0.674514 22.115955 487.068878
   vertex 0.547882 22.318554 487.144440
  endloop
 endfacet

 facet normal -0.006241 0.933578 0.358319
  outer loop
   vertex 0.547882 22.318554 487.144440
   vertex 0.289168 22.138950 487.607880
   vertex 0.539716 22.138950 487.612244
  endloop
 endfacet

 facet normal -0.006241 0.933578 0.358319
  outer loop
   vertex 0.297334 22.318554 487.140076
   vertex 0.289168 22.138950 487.607880
   vertex 0.547882 22.318554 487.144440
  endloop
 endfacet

 facet normal -0.869024 0.466785 0.164042
  outer loop
   vertex 0.165251 21.936350 487.527924
   vertex 0.289168 22.138950 487.607880
   vertex 0.297334 22.318554 487.140076
  endloop
 endfacet

 facet normal -0.869022 0.466787 0.164045
  outer loop
   vertex 0.297334 22.318554 487.140076
   vertex 0.173417 22.115955 487.060120
   vertex 0.165251 21.936350 487.527924
  endloop
 endfacet

 facet normal -0.862761 -0.466796 -0.194279
  outer loop
   vertex 0.165251 21.936350 487.527924
   vertex 0.173417 22.115955 487.060120
   vertex 0.291883 21.733749 487.452362
  endloop
 endfacet

 facet normal -0.862761 -0.466796 -0.194279
  outer loop
   vertex 0.291883 21.733749 487.452362
   vertex 0.173417 22.115955 487.060120
   vertex 0.300049 21.913355 486.984558
  endloop
 endfacet

 facet normal 0.006241 -0.933577 -0.358322
  outer loop
   vertex 0.300049 21.913355 486.984558
   vertex 0.542430 21.733749 487.456726
   vertex 0.291883 21.733749 487.452362
  endloop
 endfacet

 facet normal 0.006241 -0.933577 -0.358322
  outer loop
   vertex 0.550597 21.913355 486.988922
   vertex 0.542430 21.733749 487.456726
   vertex 0.300049 21.913355 486.984558
  endloop
 endfacet

 facet normal 0.869024 -0.466784 -0.164044
  outer loop
   vertex 0.666348 21.936350 487.536682
   vertex 0.542430 21.733749 487.456726
   vertex 0.550597 21.913355 486.988922
  endloop
 endfacet

 facet normal 0.869024 -0.466784 -0.164044
  outer loop
   vertex 0.550597 21.913355 486.988922
   vertex 0.674514 22.115955 487.068878
   vertex 0.666348 21.936350 487.536682
  endloop
 endfacet

 facet normal 0.016258 0.358431 -0.933415
  outer loop
   vertex 0.297334 22.318554 487.140076
   vertex 0.547882 22.318554 487.144440
   vertex 0.423966 22.115955 487.064484
  endloop
 endfacet

 facet normal 0.016372 0.358369 -0.933436
  outer loop
   vertex 0.423966 22.115955 487.064484
   vertex 0.547882 22.318554 487.144440
   vertex 0.674514 22.115955 487.068878
  endloop
 endfacet

 facet normal 0.016372 0.358366 -0.933437
  outer loop
   vertex 0.674514 22.115955 487.068878
   vertex 0.550597 21.913355 486.988922
   vertex 0.423966 22.115955 487.064484
  endloop
 endfacet

 facet normal 0.016258 0.358428 -0.933416
  outer loop
   vertex 22.391981 21.913353 487.370178
   vertex 22.265348 22.115953 487.445770
   vertex 22.515898 22.115953 487.450134
  endloop
 endfacet

 facet normal 0.016259 0.358305 -0.933463
  outer loop
   vertex 22.515898 22.115953 487.450134
   vertex 22.265348 22.115953 487.445770
   vertex 22.389267 22.318554 487.525696
  endloop
 endfacet

 facet normal 0.016372 0.358366 -0.933437
  outer loop
   vertex 22.389267 22.318554 487.525696
   vertex 22.639814 22.318554 487.530090
   vertex 22.515898 22.115953 487.450134
  endloop
 endfacet

 facet normal 0.016258 0.358428 -0.933416
  outer loop
   vertex 22.639814 22.318554 487.530090
   vertex 22.766445 22.115953 487.454498
   vertex 22.515898 22.115953 487.450134
  endloop
 endfacet

 facet normal 0.016259 0.358305 -0.933463
  outer loop
   vertex 22.515898 22.115953 487.450134
   vertex 22.766445 22.115953 487.454498
   vertex 22.642529 21.913353 487.374573
  endloop
 endfacet

 facet normal 0.016372 0.358366 -0.933437
  outer loop
   vertex 22.642529 21.913353 487.374573
   vertex 22.391981 21.913353 487.370178
   vertex 22.515898 22.115953 487.450134
  endloop
 endfacet

 facet normal 0.016259 0.358305 -0.933463
  outer loop
   vertex 0.550597 21.913355 486.988922
   vertex 0.300049 21.913355 486.984558
   vertex 0.423966 22.115955 487.064484
  endloop
 endfacet

 facet normal 0.016259 0.358305 -0.933463
  outer loop
   vertex 0.423966 22.115955 487.064484
   vertex 0.300049 21.913355 486.984558
   vertex 0.173417 22.115955 487.060120
  endloop
 endfacet

 facet normal 0.016258 0.358431 -0.933415
  outer loop
   vertex 0.173417 22.115955 487.060120
   vertex 0.297334 22.318554 487.140076
   vertex 0.423966 22.115955 487.064484
  endloop
 endfacet

 facet normal 0.016296 0.358371 -0.933437
  outer loop
   vertex 21.030275 20.803171 489.100067
   vertex 21.022455 21.970331 489.548035
   vertex 24.021219 20.803171 489.152283
  endloop
 endfacet

 facet normal 0.016296 0.358371 -0.933437
  outer loop
   vertex 24.021219 20.803171 489.152283
   vertex 21.022455 21.970331 489.548035
   vertex 24.013401 21.970331 489.600250
  endloop
 endfacet

 facet normal 0.999848 -0.000001 0.017453
  outer loop
   vertex 24.013401 21.970331 489.600250
   vertex 23.998594 20.305546 490.448425
   vertex 24.021219 20.803171 489.152283
  endloop
 endfacet

 facet normal 0.999848 -0.000000 0.017454
  outer loop
   vertex 23.990774 21.472706 490.896393
   vertex 23.998594 20.305546 490.448425
   vertex 24.013401 21.970331 489.600250
  endloop
 endfacet

 facet normal -0.016286 -0.358371 0.933437
  outer loop
   vertex 20.999830 21.472706 490.844208
   vertex 23.998594 20.305546 490.448425
   vertex 23.990774 21.472706 490.896393
  endloop
 endfacet

 facet normal -0.006252 0.933582 0.358310
  outer loop
   vertex 23.990774 21.472706 490.896393
   vertex 21.022455 21.970331 489.548035
   vertex 20.999830 21.472706 490.844208
  endloop
 endfacet

 facet normal -0.999848 -0.000001 -0.017453
  outer loop
   vertex 20.999830 21.472706 490.844208
   vertex 21.022455 21.970331 489.548035
   vertex 21.007650 20.305546 490.396240
  endloop
 endfacet

 facet normal -0.999848 -0.000001 -0.017453
  outer loop
   vertex 21.007650 20.305546 490.396240
   vertex 21.022455 21.970331 489.548035
   vertex 21.030275 20.803171 489.100067
  endloop
 endfacet

 facet normal 0.006252 -0.933582 -0.358310
  outer loop
   vertex 21.030275 20.803171 489.100067
   vertex 23.998594 20.305546 490.448425
   vertex 21.007650 20.305546 490.396240
  endloop
 endfacet

 facet normal 0.006255 -0.933579 -0.358318
  outer loop
   vertex 24.021219 20.803171 489.152283
   vertex 23.998594 20.305546 490.448425
   vertex 21.030275 20.803171 489.100067
  endloop
 endfacet

 facet normal -0.999848 0.000000 -0.017454
  outer loop
   vertex -1.162474 20.305548 490.009216
   vertex -1.170293 21.472708 490.457184
   vertex -1.139848 20.803173 488.713074
  endloop
 endfacet

 facet normal -0.999848 0.000000 -0.017454
  outer loop
   vertex -1.139848 20.803173 488.713074
   vertex -1.170293 21.472708 490.457184
   vertex -1.147667 21.970333 489.161041
  endloop
 endfacet

 facet normal 0.016296 0.358371 -0.933437
  outer loop
   vertex -1.147667 21.970333 489.161041
   vertex 1.851097 20.803173 488.765289
   vertex -1.139848 20.803173 488.713074
  endloop
 endfacet

 facet normal 0.016296 0.358371 -0.933437
  outer loop
   vertex 1.843277 21.970333 489.213257
   vertex 1.851097 20.803173 488.765289
   vertex -1.147667 21.970333 489.161041
  endloop
 endfacet

 facet normal 0.999848 -0.000000 0.017454
  outer loop
   vertex 1.820651 21.472708 490.509399
   vertex 1.851097 20.803173 488.765289
   vertex 1.843277 21.970333 489.213257
  endloop
 endfacet

 facet normal -0.006255 0.933579 0.358318
  outer loop
   vertex 1.843277 21.970333 489.213257
   vertex -1.170293 21.472708 490.457184
   vertex 1.820651 21.472708 490.509399
  endloop
 endfacet

 facet normal -0.016296 -0.358371 0.933437
  outer loop
   vertex 1.820651 21.472708 490.509399
   vertex -1.170293 21.472708 490.457184
   vertex 1.828471 20.305548 490.061432
  endloop
 endfacet

 facet normal -0.016296 -0.358371 0.933437
  outer loop
   vertex 1.828471 20.305548 490.061432
   vertex -1.170293 21.472708 490.457184
   vertex -1.162474 20.305548 490.009216
  endloop
 endfacet

 facet normal 0.006255 -0.933579 -0.358318
  outer loop
   vertex -1.162474 20.305548 490.009216
   vertex 1.851097 20.803173 488.765289
   vertex 1.828471 20.305548 490.061432
  endloop
 endfacet

 facet normal 0.006255 -0.933579 -0.358318
  outer loop
   vertex -1.139848 20.803173 488.713074
   vertex 1.851097 20.803173 488.765289
   vertex -1.162474 20.305548 490.009216
  endloop
 endfacet

 facet normal -0.006255 0.933579 0.358318
  outer loop
   vertex 1.843277 21.970333 489.213257
   vertex -1.147667 21.970333 489.161041
   vertex -1.170293 21.472708 490.457184
  endloop
 endfacet

 facet normal -0.006255 0.933579 0.358318
  outer loop
   vertex 24.013401 21.970331 489.600250
   vertex 21.022455 21.970331 489.548035
   vertex 23.990774 21.472706 490.896393
  endloop
 endfacet

 facet normal 0.999848 -0.000000 0.017454
  outer loop
   vertex 1.820651 21.472708 490.509399
   vertex 1.828471 20.305548 490.061432
   vertex 1.851097 20.803173 488.765289
  endloop
 endfacet

 facet normal -0.016286 -0.358371 0.933437
  outer loop
   vertex 20.999830 21.472706 490.844208
   vertex 21.007650 20.305546 490.396240
   vertex 23.998594 20.305546 490.448425
  endloop
 endfacet

 facet normal 0.016294 0.358375 -0.933436
  outer loop
   vertex 21.293825 21.646530 486.461090
   vertex 1.679128 21.748861 486.157990
   vertex 21.293139 21.748861 486.500366
  endloop
 endfacet

 facet normal 0.004643 0.963968 -0.265979
  outer loop
   vertex 21.293139 21.748861 486.500366
   vertex 1.679128 21.748861 486.157990
   vertex 21.290695 21.787506 486.640381
  endloop
 endfacet

 facet normal 0.004991 0.958159 -0.286193
  outer loop
   vertex 2.418522 23.117046 486.632782
   vertex 1.258228 23.147081 486.713104
   vertex 2.416767 23.147081 486.733307
  endloop
 endfacet

 facet normal -0.006248 0.933581 0.358311
  outer loop
   vertex 2.416767 23.147081 486.733307
   vertex 1.258228 23.147081 486.713104
   vertex 1.244514 22.845469 487.498718
  endloop
 endfacet

 facet normal 0.006248 -0.933581 -0.358311
  outer loop
   vertex 21.691095 21.292904 487.259552
   vertex 20.546270 21.594517 486.453735
   vertex 21.704809 21.594517 486.473938
  endloop
 endfacet

 facet normal 0.014886 -0.520589 -0.853677
  outer loop
   vertex 21.704809 21.594517 486.473938
   vertex 20.546270 21.594517 486.453735
   vertex 20.547224 21.684122 486.399109
  endloop
 endfacet

 facet normal 0.014708 -0.538456 -0.842525
  outer loop
   vertex 1.669314 22.887480 486.720184
   vertex 1.670679 23.009903 486.641968
   vertex 21.284691 23.009903 486.984375
  endloop
 endfacet

 facet normal 0.016295 0.358375 -0.933436
  outer loop
   vertex 21.284691 23.009903 486.984375
   vertex 1.670679 23.009903 486.641968
   vertex 21.284004 23.112234 487.023651
  endloop
 endfacet

 facet normal 0.017455 -0.000850 -0.999847
  outer loop
   vertex 1.667078 21.402334 486.848267
   vertex 21.281090 21.402334 487.190674
   vertex 1.667078 21.366425 486.848297
  endloop
 endfacet

 facet normal 0.017453 -0.000001 -0.999848
  outer loop
   vertex 1.667078 21.366425 486.848297
   vertex 21.281090 21.402334 487.190674
   vertex 21.281088 21.366423 487.190674
  endloop
 endfacet

 facet normal 0.006254 -0.933584 -0.358305
  outer loop
   vertex 21.281088 21.366423 487.190674
   vertex 1.665927 21.341118 486.914215
   vertex 1.667078 21.366425 486.848297
  endloop
 endfacet

 facet normal -0.999848 0.000000 -0.017453
  outer loop
   vertex 1.268630 21.594519 486.117218
   vertex 1.266889 21.810890 486.216949
   vertex 1.269583 21.684122 486.062592
  endloop
 endfacet

 facet normal -0.999848 0.000002 -0.017454
  outer loop
   vertex 1.269583 21.684122 486.062592
   vertex 1.266889 21.810890 486.216949
   vertex 1.268589 21.832529 486.119568
  endloop
 endfacet

 facet normal 0.016301 0.358461 -0.933403
  outer loop
   vertex 1.268589 21.832529 486.119568
   vertex 2.428122 21.684122 486.082825
   vertex 1.269583 21.684122 486.062592
  endloop
 endfacet

 facet normal 0.999848 -0.000005 0.017455
  outer loop
   vertex 21.694408 23.147081 487.069824
   vertex 21.695641 22.919540 486.999176
   vertex 21.696163 23.117044 486.969299
  endloop
 endfacet

 facet normal 0.999848 -0.000006 0.017453
  outer loop
   vertex 21.696163 23.117044 486.969299
   vertex 21.695641 22.919540 486.999176
   vertex 21.697157 22.968639 486.912323
  endloop
 endfacet

 facet normal 0.016301 0.358465 -0.933401
  outer loop
   vertex 21.697157 22.968639 486.912323
   vertex 20.537624 23.117044 486.949066
   vertex 21.696163 23.117044 486.969299
  endloop
 endfacet

 facet normal 0.999848 0.000001 0.017454
  outer loop
   vertex 2.419516 22.968639 486.575836
   vertex 2.418522 23.117046 486.632782
   vertex 2.418000 22.919542 486.662689
  endloop
 endfacet

 facet normal 0.999848 0.000001 0.017455
  outer loop
   vertex 2.418000 22.919542 486.662689
   vertex 2.418522 23.117046 486.632782
   vertex 2.416767 23.147081 486.733307
  endloop
 endfacet

 facet normal 0.999848 0.000002 0.017454
  outer loop
   vertex 2.416767 23.147081 486.733307
   vertex 2.403053 22.845469 487.518921
   vertex 2.418000 22.919542 486.662689
  endloop
 endfacet

 facet normal -0.006248 0.933581 0.358311
  outer loop
   vertex 1.244514 22.845469 487.498718
   vertex 2.403053 22.845469 487.518921
   vertex 2.416767 23.147081 486.733307
  endloop
 endfacet

 facet normal 0.014709 -0.538301 -0.842624
  outer loop
   vertex 21.284691 23.009903 486.984375
   vertex 21.283325 22.887478 487.062561
   vertex 1.669314 22.887480 486.720184
  endloop
 endfacet

 facet normal 0.016294 0.358372 -0.933437
  outer loop
   vertex 1.669314 22.887480 486.720184
   vertex 21.283325 22.887478 487.062561
   vertex 21.290695 21.787506 486.640381
  endloop
 endfacet

 facet normal 0.016294 0.358371 -0.933437
  outer loop
   vertex 21.290695 21.787506 486.640381
   vertex 1.676684 21.787506 486.298004
   vertex 1.669314 22.887480 486.720184
  endloop
 endfacet

 facet normal 0.004643 0.963968 -0.265979
  outer loop
   vertex 1.679128 21.748861 486.157990
   vertex 1.676684 21.787506 486.298004
   vertex 21.290695 21.787506 486.640381
  endloop
 endfacet

 facet normal 0.006248 -0.933581 -0.358311
  outer loop
   vertex 21.691095 21.292904 487.259552
   vertex 20.532557 21.292904 487.239349
   vertex 20.546270 21.594517 486.453735
  endloop
 endfacet

 facet normal -0.999848 0.000006 -0.017451
  outer loop
   vertex 20.546270 21.594517 486.453735
   vertex 20.532557 21.292904 487.239349
   vertex 20.544531 21.810890 486.553467
  endloop
 endfacet

 facet normal -0.999848 0.000004 -0.017448
  outer loop
   vertex 20.544531 21.810890 486.553467
   vertex 20.547224 21.684122 486.399109
   vertex 20.546270 21.594517 486.453735
  endloop
 endfacet

 facet normal -0.999848 -0.000002 -0.017444
  outer loop
   vertex 20.546230 21.832529 486.456055
   vertex 20.547224 21.684122 486.399109
   vertex 20.544531 21.810890 486.553467
  endloop
 endfacet

 facet normal -0.012964 -0.669599 0.742610
  outer loop
   vertex 21.291086 21.622204 486.617981
   vertex 1.677075 21.622206 486.275574
   vertex 21.291506 21.595526 486.593933
  endloop
 endfacet

 facet normal -0.012970 -0.669130 0.743032
  outer loop
   vertex 21.291506 21.595526 486.593933
   vertex 1.677075 21.622206 486.275574
   vertex 1.677494 21.595528 486.251556
  endloop
 endfacet

 facet normal 0.006255 -0.933573 -0.358332
  outer loop
   vertex 1.677494 21.595528 486.251556
   vertex 21.293825 21.646530 486.461090
   vertex 21.291506 21.595526 486.593933
  endloop
 endfacet

 facet normal 0.006255 -0.933578 -0.358320
  outer loop
   vertex 1.679813 21.646530 486.118713
   vertex 21.293825 21.646530 486.461090
   vertex 1.677494 21.595528 486.251556
  endloop
 endfacet

 facet normal 0.016294 0.358375 -0.933436
  outer loop
   vertex 1.679128 21.748861 486.157990
   vertex 21.293825 21.646530 486.461090
   vertex 1.679813 21.646530 486.118713
  endloop
 endfacet

 facet normal 0.016284 0.358375 -0.933436
  outer loop
   vertex 23.085350 21.423216 487.709167
   vertex 21.430466 22.464098 488.079926
   vertex 23.078377 22.464098 488.108673
  endloop
 endfacet

 facet normal -0.006251 0.933580 0.358314
  outer loop
   vertex 23.078377 22.464098 488.108673
   vertex 21.430466 22.464098 488.079926
   vertex 23.053267 21.911833 489.547150
  endloop
 endfacet

 facet normal 0.999848 -0.000000 0.017453
  outer loop
   vertex 23.053267 21.911833 489.547150
   vertex 23.060240 20.870951 489.147644
   vertex 23.078377 22.464098 488.108673
  endloop
 endfacet

 facet normal -0.016284 -0.358375 0.933436
  outer loop
   vertex 21.405355 21.911833 489.518402
   vertex 23.060240 20.870951 489.147644
   vertex 23.053267 21.911833 489.547150
  endloop
 endfacet

 facet normal -0.016284 -0.358375 0.933436
  outer loop
   vertex 21.412331 20.870951 489.118896
   vertex 23.060240 20.870951 489.147644
   vertex 21.405355 21.911833 489.518402
  endloop
 endfacet

 facet normal -0.999848 -0.000001 -0.017454
  outer loop
   vertex 21.405355 21.911833 489.518402
   vertex 21.430466 22.464098 488.079926
   vertex 21.412331 20.870951 489.118896
  endloop
 endfacet

 facet normal -0.999848 -0.000001 -0.017454
  outer loop
   vertex 21.412331 20.870951 489.118896
   vertex 21.430466 22.464098 488.079926
   vertex 21.437441 21.423216 487.680420
  endloop
 endfacet

 facet normal 0.016284 0.358375 -0.933436
  outer loop
   vertex 21.437441 21.423216 487.680420
   vertex 21.430466 22.464098 488.079926
   vertex 23.085350 21.423216 487.709167
  endloop
 endfacet

 facet normal 0.006251 -0.933580 -0.358314
  outer loop
   vertex 23.085350 21.423216 487.709167
   vertex 23.060240 20.870951 489.147644
   vertex 21.437441 21.423216 487.680420
  endloop
 endfacet

 facet normal 0.999848 -0.000000 0.017453
  outer loop
   vertex 23.078377 22.464098 488.108673
   vertex 23.060240 20.870951 489.147644
   vertex 23.085350 21.423216 487.709167
  endloop
 endfacet

 facet normal 0.006257 -0.933580 -0.358314
  outer loop
   vertex -0.154181 21.423218 487.303497
   vertex 1.493729 21.423218 487.332275
   vertex -0.179291 20.870953 488.741974
  endloop
 endfacet

 facet normal 0.006257 -0.933580 -0.358314
  outer loop
   vertex -0.179291 20.870953 488.741974
   vertex 1.493729 21.423218 487.332275
   vertex 1.468619 20.870953 488.770752
  endloop
 endfacet

 facet normal -0.016301 -0.358375 0.933435
  outer loop
   vertex 1.468619 20.870953 488.770752
   vertex -0.186265 21.911835 489.141479
   vertex -0.179291 20.870953 488.741974
  endloop
 endfacet

 facet normal -0.016301 -0.358375 0.933435
  outer loop
   vertex 1.461645 21.911835 489.170258
   vertex -0.186265 21.911835 489.141479
   vertex 1.468619 20.870953 488.770752
  endloop
 endfacet

 facet normal -0.006257 0.933580 0.358314
  outer loop
   vertex 1.486755 22.464100 487.731781
   vertex -0.186265 21.911835 489.141479
   vertex 1.461645 21.911835 489.170258
  endloop
 endfacet

 facet normal 0.999848 -0.000000 0.017453
  outer loop
   vertex 1.461645 21.911835 489.170258
   vertex 1.493729 21.423218 487.332275
   vertex 1.486755 22.464100 487.731781
  endloop
 endfacet

 facet normal 0.016301 0.358375 -0.933435
  outer loop
   vertex 1.486755 22.464100 487.731781
   vertex 1.493729 21.423218 487.332275
   vertex -0.161155 22.464100 487.703003
  endloop
 endfacet

 facet normal 0.016301 0.358375 -0.933435
  outer loop
   vertex -0.161155 22.464100 487.703003
   vertex 1.493729 21.423218 487.332275
   vertex -0.154181 21.423218 487.303497
  endloop
 endfacet

 facet normal -0.999848 0.000000 -0.017453
  outer loop
   vertex -0.154181 21.423218 487.303497
   vertex -0.186265 21.911835 489.141479
   vertex -0.161155 22.464100 487.703003
  endloop
 endfacet

 facet normal -0.999848 0.000000 -0.017453
  outer loop
   vertex -0.179291 20.870953 488.741974
   vertex -0.186265 21.911835 489.141479
   vertex -0.154181 21.423218 487.303497
  endloop
 endfacet

 facet normal -0.016280 -0.358390 0.933430
  outer loop
   vertex 24.509588 21.956656 488.597687
   vertex 24.159641 21.956656 488.591583
   vertex 24.162767 21.489866 488.412415
  endloop
 endfacet

 facet normal 0.016362 0.358390 -0.933429
  outer loop
   vertex 24.162767 21.489866 488.412415
   vertex 24.159641 21.956656 488.591583
   vertex 24.336178 21.723261 488.505066
  endloop
 endfacet

 facet normal 0.016362 0.358390 -0.933429
  outer loop
   vertex 24.336178 21.723261 488.505066
   vertex 24.512714 21.489866 488.418549
   vertex 24.162767 21.489866 488.412415
  endloop
 endfacet

 facet normal 0.016281 0.358336 -0.933451
  outer loop
   vertex 24.509588 21.956656 488.597687
   vertex 24.512714 21.489866 488.418549
   vertex 24.336178 21.723261 488.505066
  endloop
 endfacet

 facet normal 0.999848 -0.000002 0.017453
  outer loop
   vertex 24.496420 21.131496 489.351990
   vertex 24.512714 21.489866 488.418549
   vertex 24.509588 21.956656 488.597687
  endloop
 endfacet

 facet normal 0.999848 -0.000002 0.017453
  outer loop
   vertex 24.509588 21.956656 488.597687
   vertex 24.493294 21.598288 489.531128
   vertex 24.496420 21.131496 489.351990
  endloop
 endfacet

 facet normal -0.016307 -0.358335 0.933451
  outer loop
   vertex 24.496420 21.131496 489.351990
   vertex 24.493294 21.598288 489.531128
   vertex 22.796679 21.131496 489.322296
  endloop
 endfacet

 facet normal -0.016290 -0.358388 0.933431
  outer loop
   vertex 22.796679 21.131496 489.322296
   vertex 24.493294 21.598288 489.531128
   vertex 22.793552 21.598288 489.501465
  endloop
 endfacet

 facet normal -0.999848 0.000002 -0.017451
  outer loop
   vertex 22.793552 21.598288 489.501465
   vertex 22.809845 21.956657 488.568024
   vertex 22.796679 21.131496 489.322296
  endloop
 endfacet

 facet normal -0.006245 0.933580 0.358314
  outer loop
   vertex 23.222696 21.867064 488.808655
   vertex 22.809845 21.956657 488.568024
   vertex 22.793552 21.598288 489.501465
  endloop
 endfacet

 facet normal -0.006250 0.933578 0.358320
  outer loop
   vertex 23.159794 21.956657 488.574127
   vertex 22.809845 21.956657 488.568024
   vertex 23.222696 21.867064 488.808655
  endloop
 endfacet

 facet normal 0.006261 -0.933580 -0.358314
  outer loop
   vertex -0.326690 21.400276 488.218353
   vertex 0.094308 21.489868 487.992279
   vertex 0.078013 21.131498 488.925720
  endloop
 endfacet

 facet normal 0.999848 -0.000000 0.017453
  outer loop
   vertex 0.078013 21.131498 488.925720
   vertex 0.094308 21.489868 487.992279
   vertex 0.074886 21.598289 489.104889
  endloop
 endfacet

 facet normal -0.016290 -0.358388 0.933430
  outer loop
   vertex 0.074886 21.598289 489.104889
   vertex -1.621729 21.131498 488.896057
   vertex 0.078013 21.131498 488.925720
  endloop
 endfacet

 facet normal -0.016307 -0.358335 0.933451
  outer loop
   vertex -1.624856 21.598289 489.075195
   vertex -1.621729 21.131498 488.896057
   vertex 0.074886 21.598289 489.104889
  endloop
 endfacet

 facet normal -0.999848 -0.000001 -0.017454
  outer loop
   vertex -1.605434 21.489868 487.962616
   vertex -1.621729 21.131498 488.896057
   vertex -1.624856 21.598289 489.075195
  endloop
 endfacet

 facet normal -0.999848 0.000001 -0.017454
  outer loop
   vertex -1.624856 21.598289 489.075195
   vertex -1.608562 21.956657 488.141785
   vertex -1.605434 21.489868 487.962616
  endloop
 endfacet

 facet normal 0.016199 0.358390 -0.933432
  outer loop
   vertex -1.605434 21.489868 487.962616
   vertex -1.608562 21.956657 488.141785
   vertex -1.432024 21.723263 488.055237
  endloop
 endfacet

 facet normal 0.016280 0.358443 -0.933410
  outer loop
   vertex -1.432024 21.723263 488.055237
   vertex -1.608562 21.956657 488.141785
   vertex -1.258615 21.956657 488.147888
  endloop
 endfacet

 facet normal 0.016362 0.358390 -0.933429
  outer loop
   vertex -1.258615 21.956657 488.147888
   vertex -1.255487 21.489868 487.968719
   vertex -1.432024 21.723263 488.055237
  endloop
 endfacet

 facet normal -0.016280 -0.358390 0.933430
  outer loop
   vertex -1.605434 21.489868 487.962616
   vertex -1.255487 21.489868 487.968719
   vertex -1.258615 21.956657 488.147888
  endloop
 endfacet

 facet normal 0.016281 0.358336 -0.933451
  outer loop
   vertex -1.432024 21.723263 488.055237
   vertex -1.255487 21.489868 487.968719
   vertex -1.605434 21.489868 487.962616
  endloop
 endfacet

 facet normal 0.016295 0.358375 -0.933436
  outer loop
   vertex 1.670679 23.009903 486.641968
   vertex 1.669994 23.112234 486.681244
   vertex 21.284004 23.112234 487.023651
  endloop
 endfacet

 facet normal -0.006255 0.933578 0.358320
  outer loop
   vertex 21.284004 23.112234 487.023651
   vertex 1.669994 23.112234 486.681244
   vertex 1.667675 23.061232 486.814087
  endloop
 endfacet

 facet normal -0.006255 0.933573 0.358332
  outer loop
   vertex 1.667675 23.061232 486.814087
   vertex 21.281685 23.061230 487.156494
   vertex 21.284004 23.112234 487.023651
  endloop
 endfacet

 facet normal -0.017455 0.000850 0.999847
  outer loop
   vertex 1.667674 23.025322 486.814117
   vertex 21.281685 23.061230 487.156494
   vertex 1.667675 23.061232 486.814087
  endloop
 endfacet

 facet normal -0.017453 0.000000 0.999848
  outer loop
   vertex 21.281685 23.025320 487.156494
   vertex 21.281685 23.061230 487.156494
   vertex 1.667674 23.025322 486.814117
  endloop
 endfacet

 facet normal -0.006255 0.933579 0.358316
  outer loop
   vertex 1.667674 23.025322 486.814117
   vertex 1.657677 22.805450 487.386810
   vertex 21.281685 23.025320 487.156494
  endloop
 endfacet

 facet normal -0.006255 0.933580 0.358313
  outer loop
   vertex 21.281685 23.025320 487.156494
   vertex 1.657677 22.805450 487.386810
   vertex 21.271688 22.805450 487.729187
  endloop
 endfacet

 facet normal 0.012970 0.669130 -0.743032
  outer loop
   vertex 21.271688 22.805450 487.729187
   vertex 1.657677 22.805450 487.386810
   vertex 1.657258 22.832129 487.410828
  endloop
 endfacet

 facet normal 0.012964 0.669625 -0.742586
  outer loop
   vertex 1.657258 22.832129 487.410828
   vertex 21.271269 22.832127 487.753235
   vertex 21.271688 22.805450 487.729187
  endloop
 endfacet

 facet normal -0.006255 0.933584 0.358305
  outer loop
   vertex 1.656107 22.806822 487.476746
   vertex 21.271269 22.832127 487.753235
   vertex 1.657258 22.832129 487.410828
  endloop
 endfacet

 facet normal -0.006255 0.933584 0.358305
  outer loop
   vertex 21.270119 22.806820 487.819153
   vertex 21.271269 22.832127 487.753235
   vertex 1.656107 22.806822 487.476746
  endloop
 endfacet

 facet normal -0.016295 -0.358360 0.933441
  outer loop
   vertex 1.656107 22.806822 487.476746
   vertex 1.665927 21.341118 486.914215
   vertex 21.270119 22.806820 487.819153
  endloop
 endfacet

 facet normal -0.016294 -0.358377 0.933435
  outer loop
   vertex 21.270119 22.806820 487.819153
   vertex 1.665927 21.341118 486.914215
   vertex 21.279938 21.341116 487.256592
  endloop
 endfacet

 facet normal 0.006254 -0.933584 -0.358305
  outer loop
   vertex 21.279938 21.341116 487.256592
   vertex 1.665927 21.341118 486.914215
   vertex 21.281088 21.366423 487.190674
  endloop
 endfacet

 facet normal 0.006276 -0.933580 -0.358314
  outer loop
   vertex 23.225824 21.400274 488.629517
   vertex 22.796679 21.131496 489.322296
   vertex 22.812973 21.489866 488.388855
  endloop
 endfacet

 facet normal -0.999848 -0.000001 -0.017454
  outer loop
   vertex 22.812973 21.489866 488.388855
   vertex 22.796679 21.131496 489.322296
   vertex 22.809845 21.956657 488.568024
  endloop
 endfacet

 facet normal 0.016362 0.358388 -0.933429
  outer loop
   vertex 22.809845 21.956657 488.568024
   vertex 23.162920 21.489866 488.394989
   vertex 22.812973 21.489866 488.388855
  endloop
 endfacet

 facet normal 0.016280 0.358335 -0.933451
  outer loop
   vertex 23.159794 21.956657 488.574127
   vertex 23.162920 21.489866 488.394989
   vertex 22.809845 21.956657 488.568024
  endloop
 endfacet

 facet normal -0.016280 -0.358335 0.933451
  outer loop
   vertex 22.809845 21.956657 488.568024
   vertex 23.162920 21.489866 488.394989
   vertex 23.159794 21.956657 488.574127
  endloop
 endfacet

 facet normal -0.006250 0.933573 0.358332
  outer loop
   vertex 23.159794 21.956657 488.574127
   vertex 23.230843 22.046249 488.341949
   vertex 22.809845 21.956657 488.568024
  endloop
 endfacet

 facet normal -0.006258 0.933579 0.358318
  outer loop
   vertex 22.809845 21.956657 488.568024
   vertex 23.230843 22.046249 488.341949
   vertex 22.930634 22.108963 488.173309
  endloop
 endfacet

 facet normal -0.006258 0.933579 0.358318
  outer loop
   vertex 22.930634 22.108963 488.173309
   vertex 23.230843 22.046249 488.341949
   vertex 23.416811 22.111835 488.174316
  endloop
 endfacet

 facet normal -0.006258 0.933590 0.358287
  outer loop
   vertex 23.416811 22.111835 488.174316
   vertex 23.246777 22.220459 487.888306
   vertex 22.930634 22.108963 488.173309
  endloop
 endfacet

 facet normal -0.006259 0.933590 0.358288
  outer loop
   vertex 23.667864 22.135841 488.116150
   vertex 23.246777 22.220459 487.888306
   vertex 23.416811 22.111835 488.174316
  endloop
 endfacet

 facet normal -0.006265 0.933587 0.358297
  outer loop
   vertex 23.673567 22.261271 487.789429
   vertex 23.246777 22.220459 487.888306
   vertex 23.667864 22.135841 488.116150
  endloop
 endfacet

 facet normal -0.006254 0.933587 0.358297
  outer loop
   vertex 23.667864 22.135841 488.116150
   vertex 23.916735 22.111835 488.183044
   vertex 23.673567 22.261271 487.789429
  endloop
 endfacet

 facet normal -0.006269 0.933584 0.358305
  outer loop
   vertex 23.673567 22.261271 487.789429
   vertex 23.916735 22.111835 488.183044
   vertex 24.096647 22.220459 487.903168
  endloop
 endfacet

 facet normal -0.006237 0.933577 0.358323
  outer loop
   vertex 24.096647 22.220459 487.903168
   vertex 23.916735 22.111835 488.183044
   vertex 24.096737 22.046249 488.357056
  endloop
 endfacet

 facet normal -0.006259 0.933577 0.358323
  outer loop
   vertex 24.096737 22.046249 488.357056
   vertex 24.402653 22.108963 488.199005
   vertex 24.096647 22.220459 487.903168
  endloop
 endfacet

 facet normal -0.006260 0.933577 0.358323
  outer loop
   vertex 24.159641 21.956656 488.591583
   vertex 24.402653 22.108963 488.199005
   vertex 24.096737 22.046249 488.357056
  endloop
 endfacet

 facet normal -0.006250 0.933575 0.358328
  outer loop
   vertex 24.509588 21.956656 488.597687
   vertex 24.402653 22.108963 488.199005
   vertex 24.159641 21.956656 488.591583
  endloop
 endfacet

 facet normal -0.006250 0.933573 0.358332
  outer loop
   vertex 24.159641 21.956656 488.591583
   vertex 24.088591 21.867064 488.823761
   vertex 24.509588 21.956656 488.597687
  endloop
 endfacet

 facet normal -0.006262 0.933581 0.358312
  outer loop
   vertex 24.509588 21.956656 488.597687
   vertex 24.088591 21.867064 488.823761
   vertex 24.493294 21.598288 489.531128
  endloop
 endfacet

 facet normal -0.006225 0.933588 0.358294
  outer loop
   vertex 24.493294 21.598288 489.531128
   vertex 24.088591 21.867064 488.823761
   vertex 23.902622 21.801477 488.991425
  endloop
 endfacet

 facet normal -0.006251 0.933578 0.358319
  outer loop
   vertex 23.902622 21.801477 488.991425
   vertex 23.651569 21.777472 489.049591
   vertex 24.493294 21.598288 489.531128
  endloop
 endfacet

 facet normal -0.006262 0.933581 0.358312
  outer loop
   vertex -0.329817 21.867065 488.397522
   vertex 0.074886 21.598289 489.104889
   vertex 0.091180 21.956657 488.171448
  endloop
 endfacet

 facet normal 0.999848 -0.000000 0.017453
  outer loop
   vertex 0.091180 21.956657 488.171448
   vertex 0.074886 21.598289 489.104889
   vertex 0.094308 21.489868 487.992279
  endloop
 endfacet

 facet normal 0.016280 0.358390 -0.933430
  outer loop
   vertex 0.094308 21.489868 487.992279
   vertex -0.258767 21.956657 488.165344
   vertex 0.091180 21.956657 488.171448
  endloop
 endfacet

 facet normal 0.016280 0.358390 -0.933430
  outer loop
   vertex -0.255640 21.489868 487.986176
   vertex -0.258767 21.956657 488.165344
   vertex 0.094308 21.489868 487.992279
  endloop
 endfacet

 facet normal -0.016280 -0.358390 0.933430
  outer loop
   vertex 0.094308 21.489868 487.992279
   vertex -0.258767 21.956657 488.165344
   vertex -0.255640 21.489868 487.986176
  endloop
 endfacet

 facet normal 0.006249 -0.933580 -0.358314
  outer loop
   vertex -0.255640 21.489868 487.986176
   vertex -0.318543 21.579460 487.751648
   vertex 0.094308 21.489868 487.992279
  endloop
 endfacet

 facet normal 0.006258 -0.933576 -0.358326
  outer loop
   vertex 0.094308 21.489868 487.992279
   vertex -0.318543 21.579460 487.751648
   vertex -0.012629 21.642174 487.593597
  endloop
 endfacet

 facet normal 0.006251 -0.933572 -0.358336
  outer loop
   vertex -0.012629 21.642174 487.593597
   vertex -0.318543 21.579460 487.751648
   vertex -0.498546 21.645046 487.577637
  endloop
 endfacet

 facet normal 0.006250 -0.933590 -0.358287
  outer loop
   vertex -0.498546 21.645046 487.577637
   vertex -0.318634 21.753672 487.297729
   vertex -0.012629 21.642174 487.593597
  endloop
 endfacet

 facet normal 0.006251 -0.933591 -0.358287
  outer loop
   vertex -0.747416 21.669052 487.510742
   vertex -0.318634 21.753672 487.297729
   vertex -0.498546 21.645046 487.577637
  endloop
 endfacet

 facet normal 0.006245 -0.933587 -0.358297
  outer loop
   vertex -0.741713 21.794481 487.184021
   vertex -0.318634 21.753672 487.297729
   vertex -0.747416 21.669052 487.510742
  endloop
 endfacet

 facet normal 0.006256 -0.933587 -0.358297
  outer loop
   vertex -0.747416 21.669052 487.510742
   vertex -0.998470 21.645046 487.568909
   vertex -0.741713 21.794481 487.184021
  endloop
 endfacet

 facet normal 0.006261 -0.933588 -0.358294
  outer loop
   vertex -0.741713 21.794481 487.184021
   vertex -0.998470 21.645046 487.568909
   vertex -1.168505 21.753672 487.282898
  endloop
 endfacet

 facet normal 0.006275 -0.933585 -0.358301
  outer loop
   vertex -1.168505 21.753672 487.282898
   vertex -0.998470 21.645046 487.568909
   vertex -1.184437 21.579460 487.736542
  endloop
 endfacet

 facet normal 0.006242 -0.933585 -0.358303
  outer loop
   vertex -1.184437 21.579460 487.736542
   vertex -1.484648 21.642176 487.567902
   vertex -1.168505 21.753672 487.282898
  endloop
 endfacet

 facet normal 0.006259 -0.933574 -0.358329
  outer loop
   vertex -1.255487 21.489868 487.968719
   vertex -1.484648 21.642176 487.567902
   vertex -1.184437 21.579460 487.736542
  endloop
 endfacet

 facet normal 0.006250 -0.933576 -0.358324
  outer loop
   vertex -1.605434 21.489868 487.962616
   vertex -1.484648 21.642176 487.567902
   vertex -1.255487 21.489868 487.968719
  endloop
 endfacet

 facet normal 0.006249 -0.933580 -0.358314
  outer loop
   vertex -1.255487 21.489868 487.968719
   vertex -1.192584 21.400276 488.203247
   vertex -1.605434 21.489868 487.962616
  endloop
 endfacet

 facet normal 0.006250 -0.933580 -0.358314
  outer loop
   vertex -1.605434 21.489868 487.962616
   vertex -1.192584 21.400276 488.203247
   vertex -1.621729 21.131498 488.896057
  endloop
 endfacet

 facet normal 0.006273 -0.933585 -0.358301
  outer loop
   vertex -1.621729 21.131498 488.896057
   vertex -1.192584 21.400276 488.203247
   vertex -1.012581 21.334690 488.377289
  endloop
 endfacet

 facet normal 0.006254 -0.933578 -0.358321
  outer loop
   vertex -1.012581 21.334690 488.377289
   vertex -0.763710 21.310682 488.444183
   vertex -1.621729 21.131498 488.896057
  endloop
 endfacet

 facet normal -0.012976 0.667925 0.744116
  outer loop
   vertex 1.244514 22.845469 487.498718
   vertex 1.238081 22.434809 487.867218
   vertex 2.403053 22.845469 487.518921
  endloop
 endfacet

 facet normal -0.012995 0.667955 0.744088
  outer loop
   vertex 2.403053 22.845469 487.518921
   vertex 1.238081 22.434809 487.867218
   vertex 2.396620 22.434809 487.887451
  endloop
 endfacet

 facet normal 0.999848 0.000000 0.017453
  outer loop
   vertex 2.396620 22.434809 487.887451
   vertex 2.403878 21.351460 487.471649
   vertex 2.403053 22.845469 487.518921
  endloop
 endfacet

 facet normal -0.016302 -0.358373 0.933436
  outer loop
   vertex 1.238081 22.434809 487.867218
   vertex 2.403878 21.351460 487.471649
   vertex 2.396620 22.434809 487.887451
  endloop
 endfacet

 facet normal -0.016302 -0.358373 0.933436
  outer loop
   vertex 1.245339 21.351460 487.451416
   vertex 2.403878 21.351460 487.471649
   vertex 1.238081 22.434809 487.867218
  endloop
 endfacet

 facet normal -0.999848 0.000000 -0.017454
  outer loop
   vertex 1.238081 22.434809 487.867218
   vertex 1.254916 21.292904 486.902832
   vertex 1.245339 21.351460 487.451416
  endloop
 endfacet

 facet normal -0.001853 -0.994353 0.106104
  outer loop
   vertex 1.245339 21.351460 487.451416
   vertex 1.254916 21.292904 486.902832
   vertex 2.403878 21.351460 487.471649
  endloop
 endfacet

 facet normal -0.001850 -0.994354 0.106099
  outer loop
   vertex 2.403878 21.351460 487.471649
   vertex 1.254916 21.292904 486.902832
   vertex 2.413455 21.292904 486.923035
  endloop
 endfacet

 facet normal 0.999848 0.000000 0.017453
  outer loop
   vertex 2.413455 21.292904 486.923035
   vertex 2.403053 22.845469 487.518921
   vertex 2.403878 21.351460 487.471649
  endloop
 endfacet

 facet normal 0.999848 -0.000000 0.017454
  outer loop
   vertex 2.425427 21.810890 486.237183
   vertex 2.403053 22.845469 487.518921
   vertex 2.413455 21.292904 486.923035
  endloop
 endfacet

 facet normal 0.999848 -0.000000 0.017454
  outer loop
   vertex 2.418000 22.919542 486.662689
   vertex 2.403053 22.845469 487.518921
   vertex 2.425427 21.810890 486.237183
  endloop
 endfacet

 facet normal 0.016302 0.358368 -0.933438
  outer loop
   vertex 2.425427 21.810890 486.237183
   vertex 1.259461 22.919542 486.642456
   vertex 2.418000 22.919542 486.662689
  endloop
 endfacet

 facet normal 0.008592 -0.870568 -0.491973
  outer loop
   vertex 2.418000 22.919542 486.662689
   vertex 1.259461 22.919542 486.642456
   vertex 2.419516 22.968639 486.575836
  endloop
 endfacet

 facet normal 0.008592 -0.870568 -0.491973
  outer loop
   vertex 2.419516 22.968639 486.575836
   vertex 1.259461 22.919542 486.642456
   vertex 1.260977 22.968639 486.555603
  endloop
 endfacet

 facet normal 0.016302 0.358293 -0.933467
  outer loop
   vertex 1.260977 22.968639 486.555603
   vertex 2.418522 23.117046 486.632782
   vertex 2.419516 22.968639 486.575836
  endloop
 endfacet

 facet normal 0.016302 0.358293 -0.933467
  outer loop
   vertex 1.259983 23.117046 486.612549
   vertex 2.418522 23.117046 486.632782
   vertex 1.260977 22.968639 486.555603
  endloop
 endfacet

 facet normal 0.004997 0.958183 -0.286114
  outer loop
   vertex 1.258228 23.147081 486.713104
   vertex 2.418522 23.117046 486.632782
   vertex 1.259983 23.117046 486.612549
  endloop
 endfacet

 facet normal -0.999848 -0.000001 -0.017450
  outer loop
   vertex 1.259983 23.117046 486.612549
   vertex 1.259461 22.919542 486.642456
   vertex 1.258228 23.147081 486.713104
  endloop
 endfacet

 facet normal -0.999848 0.000000 -0.017453
  outer loop
   vertex 1.258228 23.147081 486.713104
   vertex 1.259461 22.919542 486.642456
   vertex 1.244514 22.845469 487.498718
  endloop
 endfacet

 facet normal -0.999848 -0.000000 -0.017453
  outer loop
   vertex 1.244514 22.845469 487.498718
   vertex 1.259461 22.919542 486.642456
   vertex 1.266889 21.810890 486.216949
  endloop
 endfacet

 facet normal -0.999848 -0.000000 -0.017453
  outer loop
   vertex 1.266889 21.810890 486.216949
   vertex 1.254916 21.292904 486.902832
   vertex 1.244514 22.845469 487.498718
  endloop
 endfacet

 facet normal -0.999848 0.000000 -0.017453
  outer loop
   vertex 1.268630 21.594519 486.117218
   vertex 1.254916 21.292904 486.902832
   vertex 1.266889 21.810890 486.216949
  endloop
 endfacet

 facet normal 0.006248 -0.933580 -0.358313
  outer loop
   vertex 2.413455 21.292904 486.923035
   vertex 1.254916 21.292904 486.902832
   vertex 1.268630 21.594519 486.117218
  endloop
 endfacet

 facet normal 0.006256 -0.933577 -0.358323
  outer loop
   vertex 1.268630 21.594519 486.117218
   vertex 2.427168 21.594517 486.137451
   vertex 2.413455 21.292904 486.923035
  endloop
 endfacet

 facet normal 0.999848 -0.000000 0.017454
  outer loop
   vertex 2.413455 21.292904 486.923035
   vertex 2.427168 21.594517 486.137451
   vertex 2.425427 21.810890 486.237183
  endloop
 endfacet

 facet normal 0.999848 0.000001 0.017452
  outer loop
   vertex 2.425427 21.810890 486.237183
   vertex 2.427168 21.594517 486.137451
   vertex 2.428122 21.684122 486.082825
  endloop
 endfacet

 facet normal 0.999848 0.000002 0.017451
  outer loop
   vertex 2.428122 21.684122 486.082825
   vertex 2.427128 21.832529 486.139771
   vertex 2.425427 21.810890 486.237183
  endloop
 endfacet

 facet normal 0.016278 0.358293 -0.933467
  outer loop
   vertex 1.268589 21.832529 486.119568
   vertex 2.427128 21.832529 486.139771
   vertex 2.428122 21.684122 486.082825
  endloop
 endfacet

 facet normal -0.003780 0.976212 0.216787
  outer loop
   vertex 2.425427 21.810890 486.237183
   vertex 2.427128 21.832529 486.139771
   vertex 1.268589 21.832529 486.119568
  endloop
 endfacet

 facet normal -0.003787 0.976197 0.216852
  outer loop
   vertex 1.268589 21.832529 486.119568
   vertex 1.266889 21.810890 486.216949
   vertex 2.425427 21.810890 486.237183
  endloop
 endfacet

 facet normal 0.016302 0.358368 -0.933438
  outer loop
   vertex 2.425427 21.810890 486.237183
   vertex 1.266889 21.810890 486.216949
   vertex 1.259461 22.919542 486.642456
  endloop
 endfacet

 facet normal -0.001850 -0.994354 0.106095
  outer loop
   vertex 21.691095 21.292904 487.259552
   vertex 21.681520 21.351458 487.808167
   vertex 20.532557 21.292904 487.239349
  endloop
 endfacet

 facet normal -0.001853 -0.994354 0.106101
  outer loop
   vertex 20.532557 21.292904 487.239349
   vertex 21.681520 21.351458 487.808167
   vertex 20.522982 21.351458 487.787933
  endloop
 endfacet

 facet normal -0.999848 -0.000002 -0.017451
  outer loop
   vertex 20.522982 21.351458 487.787933
   vertex 20.515722 22.434807 488.203735
   vertex 20.532557 21.292904 487.239349
  endloop
 endfacet

 facet normal -0.016302 -0.358373 0.933436
  outer loop
   vertex 21.681520 21.351458 487.808167
   vertex 20.515722 22.434807 488.203735
   vertex 20.522982 21.351458 487.787933
  endloop
 endfacet

 facet normal -0.016302 -0.358373 0.933436
  outer loop
   vertex 21.674261 22.434807 488.223969
   vertex 20.515722 22.434807 488.203735
   vertex 21.681520 21.351458 487.808167
  endloop
 endfacet

 facet normal 0.999848 0.000000 0.017455
  outer loop
   vertex 21.681520 21.351458 487.808167
   vertex 21.680695 22.845467 487.855438
   vertex 21.674261 22.434807 488.223969
  endloop
 endfacet

 facet normal -0.012995 0.667955 0.744088
  outer loop
   vertex 21.674261 22.434807 488.223969
   vertex 21.680695 22.845467 487.855438
   vertex 20.515722 22.434807 488.203735
  endloop
 endfacet

 facet normal -0.012995 0.667955 0.744088
  outer loop
   vertex 20.515722 22.434807 488.203735
   vertex 21.680695 22.845467 487.855438
   vertex 20.522156 22.845467 487.835205
  endloop
 endfacet

 facet normal -0.999848 0.000001 -0.017454
  outer loop
   vertex 20.522156 22.845467 487.835205
   vertex 20.532557 21.292904 487.239349
   vertex 20.515722 22.434807 488.203735
  endloop
 endfacet

 facet normal -0.999848 0.000000 -0.017453
  outer loop
   vertex 20.537102 22.919540 486.978973
   vertex 20.532557 21.292904 487.239349
   vertex 20.522156 22.845467 487.835205
  endloop
 endfacet

 facet normal -0.999848 -0.000000 -0.017456
  outer loop
   vertex 20.544531 21.810890 486.553467
   vertex 20.532557 21.292904 487.239349
   vertex 20.537102 22.919540 486.978973
  endloop
 endfacet

 facet normal 0.016277 0.358368 -0.933438
  outer loop
   vertex 20.537102 22.919540 486.978973
   vertex 21.703070 21.810890 486.573669
   vertex 20.544531 21.810890 486.553467
  endloop
 endfacet

 facet normal -0.003780 0.976212 0.216787
  outer loop
   vertex 20.544531 21.810890 486.553467
   vertex 21.703070 21.810890 486.573669
   vertex 20.546230 21.832529 486.456055
  endloop
 endfacet

 facet normal -0.003787 0.976197 0.216852
  outer loop
   vertex 20.546230 21.832529 486.456055
   vertex 21.703070 21.810890 486.573669
   vertex 21.704769 21.832529 486.476288
  endloop
 endfacet

 facet normal 0.016302 0.358293 -0.933467
  outer loop
   vertex 21.704769 21.832529 486.476288
   vertex 20.547224 21.684122 486.399109
   vertex 20.546230 21.832529 486.456055
  endloop
 endfacet

 facet normal 0.016303 0.358289 -0.933468
  outer loop
   vertex 21.705763 21.684120 486.419342
   vertex 20.547224 21.684122 486.399109
   vertex 21.704769 21.832529 486.476288
  endloop
 endfacet

 facet normal 0.014910 -0.520385 -0.853801
  outer loop
   vertex 21.704809 21.594517 486.473938
   vertex 20.547224 21.684122 486.399109
   vertex 21.705763 21.684120 486.419342
  endloop
 endfacet

 facet normal 0.999848 -0.000007 0.017454
  outer loop
   vertex 21.705763 21.684120 486.419342
   vertex 21.703070 21.810890 486.573669
   vertex 21.704809 21.594517 486.473938
  endloop
 endfacet

 facet normal 0.999848 -0.000006 0.017451
  outer loop
   vertex 21.704809 21.594517 486.473938
   vertex 21.703070 21.810890 486.573669
   vertex 21.691095 21.292904 487.259552
  endloop
 endfacet

 facet normal 0.999848 0.000000 0.017456
  outer loop
   vertex 21.691095 21.292904 487.259552
   vertex 21.703070 21.810890 486.573669
   vertex 21.695641 22.919540 486.999176
  endloop
 endfacet

 facet normal 0.999848 -0.000000 0.017452
  outer loop
   vertex 21.695641 22.919540 486.999176
   vertex 21.680695 22.845467 487.855438
   vertex 21.691095 21.292904 487.259552
  endloop
 endfacet

 facet normal 0.999848 -0.000004 0.017452
  outer loop
   vertex 21.694408 23.147081 487.069824
   vertex 21.680695 22.845467 487.855438
   vertex 21.695641 22.919540 486.999176
  endloop
 endfacet

 facet normal -0.006258 0.933580 0.358313
  outer loop
   vertex 20.522156 22.845467 487.835205
   vertex 21.680695 22.845467 487.855438
   vertex 21.694408 23.147081 487.069824
  endloop
 endfacet

 facet normal -0.006248 0.933576 0.358325
  outer loop
   vertex 21.694408 23.147081 487.069824
   vertex 20.535870 23.147081 487.049622
   vertex 20.522156 22.845467 487.835205
  endloop
 endfacet

 facet normal -0.999848 0.000005 -0.017452
  outer loop
   vertex 20.522156 22.845467 487.835205
   vertex 20.535870 23.147081 487.049622
   vertex 20.537102 22.919540 486.978973
  endloop
 endfacet

 facet normal -0.999848 0.000003 -0.017449
  outer loop
   vertex 20.537102 22.919540 486.978973
   vertex 20.535870 23.147081 487.049622
   vertex 20.537624 23.117044 486.949066
  endloop
 endfacet

 facet normal -0.999848 0.000003 -0.017455
  outer loop
   vertex 20.537624 23.117044 486.949066
   vertex 20.538618 22.968639 486.892120
   vertex 20.537102 22.919540 486.978973
  endloop
 endfacet

 facet normal 0.016278 0.358297 -0.933466
  outer loop
   vertex 21.697157 22.968639 486.912323
   vertex 20.538618 22.968639 486.892120
   vertex 20.537624 23.117044 486.949066
  endloop
 endfacet

 facet normal 0.008579 -0.870560 -0.491987
  outer loop
   vertex 20.537102 22.919540 486.978973
   vertex 20.538618 22.968639 486.892120
   vertex 21.697157 22.968639 486.912323
  endloop
 endfacet

 facet normal 0.008579 -0.870560 -0.491987
  outer loop
   vertex 21.697157 22.968639 486.912323
   vertex 21.695641 22.919540 486.999176
   vertex 20.537102 22.919540 486.978973
  endloop
 endfacet

 facet normal 0.016277 0.358368 -0.933438
  outer loop
   vertex 20.537102 22.919540 486.978973
   vertex 21.695641 22.919540 486.999176
   vertex 21.703070 21.810890 486.573669
  endloop
 endfacet

 facet normal -0.006249 0.933580 0.358314
  outer loop
   vertex -0.258767 21.956657 488.165344
   vertex 0.091180 21.956657 488.171448
   vertex -0.321670 22.046249 487.930817
  endloop
 endfacet

 facet normal -0.006242 0.933585 0.358302
  outer loop
   vertex -0.321670 22.046249 487.930817
   vertex 0.091180 21.956657 488.171448
   vertex -0.015757 22.108965 487.772736
  endloop
 endfacet

 facet normal -0.006253 0.933592 0.358283
  outer loop
   vertex -0.015757 22.108965 487.772736
   vertex -0.501673 22.111835 487.756775
   vertex -0.321670 22.046249 487.930817
  endloop
 endfacet

 facet normal -0.006254 0.933578 0.358319
  outer loop
   vertex -0.321762 22.220461 487.476898
   vertex -0.501673 22.111835 487.756775
   vertex -0.015757 22.108965 487.772736
  endloop
 endfacet

 facet normal -0.006254 0.933578 0.358319
  outer loop
   vertex -0.750544 22.135843 487.689880
   vertex -0.501673 22.111835 487.756775
   vertex -0.321762 22.220461 487.476898
  endloop
 endfacet

 facet normal -0.006250 0.933575 0.358327
  outer loop
   vertex -0.321762 22.220461 487.476898
   vertex -0.744841 22.261272 487.363190
   vertex -0.750544 22.135843 487.689880
  endloop
 endfacet

 facet normal -0.006256 0.933575 0.358326
  outer loop
   vertex -0.750544 22.135843 487.689880
   vertex -0.744841 22.261272 487.363190
   vertex -1.001597 22.111835 487.748047
  endloop
 endfacet

 facet normal -0.006257 0.933576 0.358325
  outer loop
   vertex -1.001597 22.111835 487.748047
   vertex -0.744841 22.261272 487.363190
   vertex -1.171633 22.220461 487.462067
  endloop
 endfacet

 facet normal -0.006253 0.933577 0.358323
  outer loop
   vertex -1.171633 22.220461 487.462067
   vertex -1.187564 22.046249 487.915680
   vertex -1.001597 22.111835 487.748047
  endloop
 endfacet

 facet normal -0.006255 0.933577 0.358323
  outer loop
   vertex -1.487776 22.108965 487.747040
   vertex -1.187564 22.046249 487.915680
   vertex -1.171633 22.220461 487.462067
  endloop
 endfacet

 facet normal -0.006237 0.933588 0.358294
  outer loop
   vertex -1.258615 21.956657 488.147888
   vertex -1.187564 22.046249 487.915680
   vertex -1.487776 22.108965 487.747040
  endloop
 endfacet

 facet normal -0.006249 0.933585 0.358300
  outer loop
   vertex -1.487776 22.108965 487.747040
   vertex -1.608562 21.956657 488.141785
   vertex -1.258615 21.956657 488.147888
  endloop
 endfacet

 facet normal -0.006249 0.933580 0.358314
  outer loop
   vertex -1.258615 21.956657 488.147888
   vertex -1.608562 21.956657 488.141785
   vertex -1.195711 21.867065 488.382416
  endloop
 endfacet

 facet normal -0.006255 0.933577 0.358323
  outer loop
   vertex -1.195711 21.867065 488.382416
   vertex -1.608562 21.956657 488.141785
   vertex -1.624856 21.598289 489.075195
  endloop
 endfacet

 facet normal -0.006243 0.933574 0.358329
  outer loop
   vertex -1.624856 21.598289 489.075195
   vertex -1.015708 21.801479 488.556427
   vertex -1.195711 21.867065 488.382416
  endloop
 endfacet

 facet normal -0.006259 0.933581 0.358313
  outer loop
   vertex -0.766838 21.777473 488.623322
   vertex -1.015708 21.801479 488.556427
   vertex -1.624856 21.598289 489.075195
  endloop
 endfacet

 facet normal 0.006280 -0.933592 -0.358283
  outer loop
   vertex 23.162920 21.489866 488.394989
   vertex 22.812973 21.489866 488.388855
   vertex 23.233971 21.579458 488.162781
  endloop
 endfacet

 facet normal 0.006255 -0.933577 -0.358323
  outer loop
   vertex 23.233971 21.579458 488.162781
   vertex 22.812973 21.489866 488.388855
   vertex 22.933760 21.642174 487.994141
  endloop
 endfacet

 facet normal 0.006254 -0.933577 -0.358322
  outer loop
   vertex 22.933760 21.642174 487.994141
   vertex 23.419937 21.645044 487.995148
   vertex 23.233971 21.579458 488.162781
  endloop
 endfacet

 facet normal 0.006254 -0.933576 -0.358324
  outer loop
   vertex 23.249905 21.753670 487.709167
   vertex 23.419937 21.645044 487.995148
   vertex 22.933760 21.642174 487.994141
  endloop
 endfacet

 facet normal 0.006250 -0.933577 -0.358322
  outer loop
   vertex 23.670992 21.669050 487.936981
   vertex 23.419937 21.645044 487.995148
   vertex 23.249905 21.753670 487.709167
  endloop
 endfacet

 facet normal 0.006253 -0.933575 -0.358326
  outer loop
   vertex 23.249905 21.753670 487.709167
   vertex 23.676695 21.794479 487.610291
   vertex 23.670992 21.669050 487.936981
  endloop
 endfacet

 facet normal 0.006263 -0.933575 -0.358326
  outer loop
   vertex 23.670992 21.669050 487.936981
   vertex 23.676695 21.794479 487.610291
   vertex 23.919861 21.645044 488.003876
  endloop
 endfacet

 facet normal 0.006252 -0.933578 -0.358320
  outer loop
   vertex 23.919861 21.645044 488.003876
   vertex 23.676695 21.794479 487.610291
   vertex 24.099775 21.753670 487.723999
  endloop
 endfacet

 facet normal 0.006240 -0.933575 -0.358327
  outer loop
   vertex 24.099775 21.753670 487.723999
   vertex 24.099865 21.579458 488.177887
   vertex 23.919861 21.645044 488.003876
  endloop
 endfacet

 facet normal 0.006263 -0.933575 -0.358327
  outer loop
   vertex 24.405779 21.642174 488.019836
   vertex 24.099865 21.579458 488.177887
   vertex 24.099775 21.753670 487.723999
  endloop
 endfacet

 facet normal 0.006268 -0.933579 -0.358318
  outer loop
   vertex 24.162767 21.489866 488.412415
   vertex 24.099865 21.579458 488.177887
   vertex 24.405779 21.642174 488.019836
  endloop
 endfacet

 facet normal 0.006281 -0.933581 -0.358311
  outer loop
   vertex 24.405779 21.642174 488.019836
   vertex 24.512714 21.489866 488.418549
   vertex 24.162767 21.489866 488.412415
  endloop
 endfacet

 facet normal 0.006280 -0.933592 -0.358283
  outer loop
   vertex 24.162767 21.489866 488.412415
   vertex 24.512714 21.489866 488.418549
   vertex 24.091717 21.400274 488.644623
  endloop
 endfacet

 facet normal 0.006261 -0.933580 -0.358314
  outer loop
   vertex 24.091717 21.400274 488.644623
   vertex 24.512714 21.489866 488.418549
   vertex 24.496420 21.131496 489.351990
  endloop
 endfacet

 facet normal 0.006262 -0.933580 -0.358314
  outer loop
   vertex 24.496420 21.131496 489.351990
   vertex 23.905750 21.334688 488.812256
   vertex 24.091717 21.400274 488.644623
  endloop
 endfacet

 facet normal 0.006254 -0.933583 -0.358307
  outer loop
   vertex 23.654697 21.310682 488.870422
   vertex 23.905750 21.334688 488.812256
   vertex 24.496420 21.131496 489.351990
  endloop
 endfacet

 facet normal 0.006253 -0.933577 -0.358323
  outer loop
   vertex -1.621729 21.131498 488.896057
   vertex -0.763710 21.310682 488.444183
   vertex 0.078013 21.131498 488.925720
  endloop
 endfacet

 facet normal 0.006256 -0.933575 -0.358326
  outer loop
   vertex 0.078013 21.131498 488.925720
   vertex -0.763710 21.310682 488.444183
   vertex -0.512657 21.334690 488.386017
  endloop
 endfacet

 facet normal 0.006223 -0.933588 -0.358295
  outer loop
   vertex -0.512657 21.334690 488.386017
   vertex -0.326690 21.400276 488.218353
   vertex 0.078013 21.131498 488.925720
  endloop
 endfacet

 facet normal 0.006245 -0.933574 -0.358331
  outer loop
   vertex 23.225824 21.400274 488.629517
   vertex 23.405827 21.334688 488.803528
   vertex 22.796679 21.131496 489.322296
  endloop
 endfacet

 facet normal 0.006260 -0.933580 -0.358315
  outer loop
   vertex 22.796679 21.131496 489.322296
   vertex 23.405827 21.334688 488.803528
   vertex 23.654697 21.310682 488.870422
  endloop
 endfacet

 facet normal 0.006260 -0.933580 -0.358316
  outer loop
   vertex 23.654697 21.310682 488.870422
   vertex 24.496420 21.131496 489.351990
   vertex 22.796679 21.131496 489.322296
  endloop
 endfacet

 facet normal -0.006253 0.933577 0.358323
  outer loop
   vertex 24.493294 21.598288 489.531128
   vertex 23.651569 21.777472 489.049591
   vertex 22.793552 21.598288 489.501465
  endloop
 endfacet

 facet normal -0.006259 0.933581 0.358313
  outer loop
   vertex 22.793552 21.598288 489.501465
   vertex 23.651569 21.777472 489.049591
   vertex 23.402699 21.801477 488.982697
  endloop
 endfacet

 facet normal -0.006272 0.933585 0.358300
  outer loop
   vertex 23.402699 21.801477 488.982697
   vertex 23.222696 21.867064 488.808655
   vertex 22.793552 21.598288 489.501465
  endloop
 endfacet

 facet normal -0.006263 0.933580 0.358313
  outer loop
   vertex -0.329817 21.867065 488.397522
   vertex -0.515784 21.801479 488.565155
   vertex 0.074886 21.598289 489.104889
  endloop
 endfacet

 facet normal -0.006254 0.933584 0.358304
  outer loop
   vertex 0.074886 21.598289 489.104889
   vertex -0.515784 21.801479 488.565155
   vertex -0.766838 21.777473 488.623322
  endloop
 endfacet

 facet normal -0.006260 0.933581 0.358312
  outer loop
   vertex -0.766838 21.777473 488.623322
   vertex -1.624856 21.598289 489.075195
   vertex 0.074886 21.598289 489.104889
  endloop
 endfacet

 facet normal 0.004991 0.958154 -0.286210
  outer loop
   vertex 21.694408 23.147081 487.069824
   vertex 21.696163 23.117044 486.969299
   vertex 20.535870 23.147081 487.049622
  endloop
 endfacet

 facet normal 0.004997 0.958178 -0.286130
  outer loop
   vertex 20.535870 23.147081 487.049622
   vertex 21.696163 23.117044 486.969299
   vertex 20.537624 23.117044 486.949066
  endloop
 endfacet

 facet normal 0.006255 -0.933579 -0.358316
  outer loop
   vertex 1.667078 21.402334 486.848267
   vertex 1.677075 21.622206 486.275574
   vertex 21.281090 21.402334 487.190674
  endloop
 endfacet

 facet normal 0.006255 -0.933580 -0.358313
  outer loop
   vertex 21.281090 21.402334 487.190674
   vertex 1.677075 21.622206 486.275574
   vertex 21.291086 21.622204 486.617981
  endloop
 endfacet

 facet normal 0.014909 -0.520589 -0.853677
  outer loop
   vertex 2.428122 21.684122 486.082825
   vertex 2.427168 21.594517 486.137451
   vertex 1.269583 21.684122 486.062592
  endloop
 endfacet

 facet normal 0.014908 -0.520597 -0.853672
  outer loop
   vertex 1.269583 21.684122 486.062592
   vertex 2.427168 21.594517 486.137451
   vertex 1.268630 21.594519 486.117218
  endloop
 endfacet

 facet normal 0.016281 0.358336 -0.933451
  outer loop
   vertex 24.159641 21.956656 488.591583
   vertex 24.509588 21.956656 488.597687
   vertex 24.336178 21.723261 488.505066
  endloop
 endfacet

 facet normal 0.999848 0.000001 0.017450
  outer loop
   vertex 21.691095 21.292904 487.259552
   vertex 21.680695 22.845467 487.855438
   vertex 21.681520 21.351458 487.808167
  endloop
 endfacet

 facet normal 0.006281 -0.933577 -0.358321
  outer loop
   vertex 22.812973 21.489866 488.388855
   vertex 23.162920 21.489866 488.394989
   vertex 23.225824 21.400274 488.629517
  endloop
 endfacet

 facet normal 0.006250 -0.933573 -0.358332
  outer loop
   vertex -0.255640 21.489868 487.986176
   vertex 0.094308 21.489868 487.992279
   vertex -0.326690 21.400276 488.218353
  endloop
 endfacet

 facet normal -0.016362 -0.358336 0.933449
  outer loop
   vertex 24.509588 21.956656 488.597687
   vertex 24.162767 21.489866 488.412415
   vertex 24.512714 21.489866 488.418549
  endloop
 endfacet

 facet normal -0.006257 0.933580 0.358314
  outer loop
   vertex 1.486755 22.464100 487.731781
   vertex -0.161155 22.464100 487.703003
   vertex -0.186265 21.911835 489.141479
  endloop
 endfacet

 facet normal 0.006251 -0.933580 -0.358314
  outer loop
   vertex 21.412331 20.870951 489.118896
   vertex 21.437441 21.423216 487.680420
   vertex 23.060240 20.870951 489.147644
  endloop
 endfacet

 facet normal -0.016280 -0.358390 0.933430
  outer loop
   vertex -1.605434 21.489868 487.962616
   vertex -1.258615 21.956657 488.147888
   vertex -1.608562 21.956657 488.141785
  endloop
 endfacet

 facet normal -0.999848 -0.000002 -0.017454
  outer loop
   vertex 1.259983 23.117046 486.612549
   vertex 1.260977 22.968639 486.555603
   vertex 1.259461 22.919542 486.642456
  endloop
 endfacet

 facet normal -0.016362 -0.358388 0.933429
  outer loop
   vertex 23.162920 21.489866 488.394989
   vertex 22.809845 21.956657 488.568024
   vertex 22.812973 21.489866 488.388855
  endloop
 endfacet

 facet normal -0.999848 0.000000 -0.017454
  outer loop
   vertex 1.244514 22.845469 487.498718
   vertex 1.254916 21.292904 486.902832
   vertex 1.238081 22.434809 487.867218
  endloop
 endfacet

 facet normal 0.999848 -0.000000 0.017449
  outer loop
   vertex 21.705763 21.684120 486.419342
   vertex 21.704769 21.832529 486.476288
   vertex 21.703070 21.810890 486.573669
  endloop
 endfacet

 facet normal -0.006251 0.933580 0.358314
  outer loop
   vertex 21.430466 22.464098 488.079926
   vertex 21.405355 21.911833 489.518402
   vertex 23.053267 21.911833 489.547150
  endloop
 endfacet

 facet normal 0.999848 -0.000000 0.017453
  outer loop
   vertex 1.461645 21.911835 489.170258
   vertex 1.468619 20.870953 488.770752
   vertex 1.493729 21.423218 487.332275
  endloop
 endfacet

 facet normal -0.016280 -0.358390 0.933430
  outer loop
   vertex -0.258767 21.956657 488.165344
   vertex 0.094308 21.489868 487.992279
   vertex 0.091180 21.956657 488.171448
  endloop
 endfacet

 facet normal -0.006250 0.933573 0.358332
  outer loop
   vertex 0.091180 21.956657 488.171448
   vertex -0.258767 21.956657 488.165344
   vertex -0.329817 21.867065 488.397522
  endloop
 endfacet

 facet normal -0.695527 0.253364 -0.672346
  outer loop
   vertex -0.515784 21.801479 488.565155
   vertex -0.326690 21.400276 488.218353
   vertex -0.512657 21.334690 488.386017
  endloop
 endfacet

 facet normal -0.243045 0.346126 -0.906160
  outer loop
   vertex -0.515784 21.801479 488.565155
   vertex -0.512657 21.334690 488.386017
   vertex -0.766838 21.777473 488.623322
  endloop
 endfacet

 facet normal -0.243047 0.346124 -0.906160
  outer loop
   vertex -0.766838 21.777473 488.623322
   vertex -0.512657 21.334690 488.386017
   vertex -0.763710 21.310682 488.444183
  endloop
 endfacet

 facet normal 0.274527 0.346124 -0.897125
  outer loop
   vertex -0.763710 21.310682 488.444183
   vertex -1.015708 21.801479 488.556427
   vertex -0.766838 21.777473 488.623322
  endloop
 endfacet

 facet normal 0.274530 0.346125 -0.897124
  outer loop
   vertex -1.012581 21.334690 488.377289
   vertex -1.015708 21.801479 488.556427
   vertex -0.763710 21.310682 488.444183
  endloop
 endfacet

 facet normal 0.718496 0.253391 -0.647731
  outer loop
   vertex -1.195711 21.867065 488.382416
   vertex -1.015708 21.801479 488.556427
   vertex -1.012581 21.334690 488.377289
  endloop
 endfacet

 facet normal 0.718549 0.253409 -0.647666
  outer loop
   vertex -1.012581 21.334690 488.377289
   vertex -1.192584 21.400276 488.203247
   vertex -1.195711 21.867065 488.382416
  endloop
 endfacet

 facet normal 0.969996 0.092758 -0.224731
  outer loop
   vertex -1.195711 21.867065 488.382416
   vertex -1.192584 21.400276 488.203247
   vertex -1.258615 21.956657 488.147888
  endloop
 endfacet

 facet normal -0.961558 0.092765 -0.258459
  outer loop
   vertex 24.159641 21.956656 488.591583
   vertex 24.162767 21.489866 488.412415
   vertex 24.088591 21.867064 488.823761
  endloop
 endfacet

 facet normal -0.961566 0.092740 -0.258437
  outer loop
   vertex 24.088591 21.867064 488.823761
   vertex 24.162767 21.489866 488.412415
   vertex 24.091717 21.400274 488.644623
  endloop
 endfacet

 facet normal -0.695524 0.253367 -0.672348
  outer loop
   vertex 24.091717 21.400274 488.644623
   vertex 23.902622 21.801477 488.991425
   vertex 24.088591 21.867064 488.823761
  endloop
 endfacet

 facet normal -0.695471 0.253421 -0.672382
  outer loop
   vertex 23.905750 21.334688 488.812256
   vertex 23.902622 21.801477 488.991425
   vertex 24.091717 21.400274 488.644623
  endloop
 endfacet

 facet normal -0.243046 0.346177 -0.906140
  outer loop
   vertex 23.651569 21.777472 489.049591
   vertex 23.902622 21.801477 488.991425
   vertex 23.905750 21.334688 488.812256
  endloop
 endfacet

 facet normal -0.243046 0.346177 -0.906140
  outer loop
   vertex 23.905750 21.334688 488.812256
   vertex 23.654697 21.310682 488.870422
   vertex 23.651569 21.777472 489.049591
  endloop
 endfacet

 facet normal 0.274527 0.346177 -0.897105
  outer loop
   vertex 23.651569 21.777472 489.049591
   vertex 23.654697 21.310682 488.870422
   vertex 23.402699 21.801477 488.982697
  endloop
 endfacet

 facet normal 0.274527 0.346177 -0.897105
  outer loop
   vertex 23.402699 21.801477 488.982697
   vertex 23.654697 21.310682 488.870422
   vertex 23.405827 21.334688 488.803528
  endloop
 endfacet

 facet normal 0.718551 0.253409 -0.647664
  outer loop
   vertex 23.405827 21.334688 488.803528
   vertex 23.222696 21.867064 488.808655
   vertex 23.402699 21.801477 488.982697
  endloop
 endfacet

 facet normal 0.969997 0.092756 -0.224726
  outer loop
   vertex 0.091180 21.956657 488.171448
   vertex 0.094308 21.489868 487.992279
   vertex -0.015757 22.108965 487.772736
  endloop
 endfacet

 facet normal 0.969993 0.092748 -0.224746
  outer loop
   vertex -0.015757 22.108965 487.772736
   vertex 0.094308 21.489868 487.992279
   vertex -0.012629 21.642174 487.593597
  endloop
 endfacet

 facet normal 0.718515 0.253384 -0.647714
  outer loop
   vertex -0.012629 21.642174 487.593597
   vertex -0.321762 22.220461 487.476898
   vertex -0.015757 22.108965 487.772736
  endloop
 endfacet

 facet normal 0.718547 0.253410 -0.647668
  outer loop
   vertex -0.318634 21.753672 487.297729
   vertex -0.321762 22.220461 487.476898
   vertex -0.012629 21.642174 487.593597
  endloop
 endfacet

 facet normal 0.274505 0.346179 -0.897111
  outer loop
   vertex -0.744841 22.261272 487.363190
   vertex -0.321762 22.220461 487.476898
   vertex -0.318634 21.753672 487.297729
  endloop
 endfacet

 facet normal 0.274503 0.346178 -0.897111
  outer loop
   vertex -0.318634 21.753672 487.297729
   vertex -0.741713 21.794481 487.184021
   vertex -0.744841 22.261272 487.363190
  endloop
 endfacet

 facet normal -0.243033 0.346177 -0.906143
  outer loop
   vertex -0.744841 22.261272 487.363190
   vertex -0.741713 21.794481 487.184021
   vertex -1.171633 22.220461 487.462067
  endloop
 endfacet

 facet normal -0.243032 0.346179 -0.906143
  outer loop
   vertex -1.171633 22.220461 487.462067
   vertex -0.741713 21.794481 487.184021
   vertex -1.168505 21.753672 487.282898
  endloop
 endfacet

 facet normal -0.695468 0.253423 -0.672385
  outer loop
   vertex -1.168505 21.753672 487.282898
   vertex -1.487776 22.108965 487.747040
   vertex -1.171633 22.220461 487.462067
  endloop
 endfacet

 facet normal -0.695501 0.253373 -0.672369
  outer loop
   vertex -1.484648 21.642176 487.567902
   vertex -1.487776 22.108965 487.747040
   vertex -1.168505 21.753672 487.282898
  endloop
 endfacet

 facet normal -0.961565 0.092739 -0.258442
  outer loop
   vertex -1.608562 21.956657 488.141785
   vertex -1.487776 22.108965 487.747040
   vertex -1.484648 21.642176 487.567902
  endloop
 endfacet

 facet normal -0.961560 0.092760 -0.258452
  outer loop
   vertex -1.484648 21.642176 487.567902
   vertex -1.605434 21.489868 487.962616
   vertex -1.608562 21.956657 488.141785
  endloop
 endfacet

 facet normal 0.969994 0.092745 -0.224743
  outer loop
   vertex 24.509588 21.956656 488.597687
   vertex 24.512714 21.489866 488.418549
   vertex 24.402653 22.108963 488.199005
  endloop
 endfacet

 facet normal 0.969998 0.092753 -0.224724
  outer loop
   vertex 24.402653 22.108963 488.199005
   vertex 24.512714 21.489866 488.418549
   vertex 24.405779 21.642174 488.019836
  endloop
 endfacet

 facet normal 0.718514 0.253420 -0.647700
  outer loop
   vertex 24.405779 21.642174 488.019836
   vertex 24.096647 22.220459 487.903168
   vertex 24.402653 22.108963 488.199005
  endloop
 endfacet

 facet normal 0.718516 0.253422 -0.647697
  outer loop
   vertex 24.099775 21.753670 487.723999
   vertex 24.096647 22.220459 487.903168
   vertex 24.405779 21.642174 488.019836
  endloop
 endfacet

 facet normal 0.274564 0.346174 -0.897095
  outer loop
   vertex 23.673567 22.261271 487.789429
   vertex 24.096647 22.220459 487.903168
   vertex 24.099775 21.753670 487.723999
  endloop
 endfacet

 facet normal 0.274503 0.346127 -0.897131
  outer loop
   vertex 24.099775 21.753670 487.723999
   vertex 23.676695 21.794479 487.610291
   vertex 23.673567 22.261271 487.789429
  endloop
 endfacet

 facet normal -0.243034 0.346125 -0.906163
  outer loop
   vertex 23.673567 22.261271 487.789429
   vertex 23.676695 21.794479 487.610291
   vertex 23.246777 22.220459 487.888306
  endloop
 endfacet

 facet normal -0.243033 0.346127 -0.906163
  outer loop
   vertex 23.246777 22.220459 487.888306
   vertex 23.676695 21.794479 487.610291
   vertex 23.249905 21.753670 487.709167
  endloop
 endfacet

 facet normal -0.695501 0.253372 -0.672370
  outer loop
   vertex 23.249905 21.753670 487.709167
   vertex 22.930634 22.108963 488.173309
   vertex 23.246777 22.220459 487.888306
  endloop
 endfacet

 facet normal -0.695466 0.253426 -0.672386
  outer loop
   vertex 22.933760 21.642174 487.994141
   vertex 22.930634 22.108963 488.173309
   vertex 23.249905 21.753670 487.709167
  endloop
 endfacet

 facet normal -0.961558 0.092764 -0.258457
  outer loop
   vertex 22.809845 21.956657 488.568024
   vertex 22.930634 22.108963 488.173309
   vertex 22.933760 21.642174 487.994141
  endloop
 endfacet

 facet normal -0.961560 0.092759 -0.258454
  outer loop
   vertex 22.933760 21.642174 487.994141
   vertex 22.812973 21.489866 488.388855
   vertex 22.809845 21.956657 488.568024
  endloop
 endfacet

 facet normal 0.718498 0.253392 -0.647730
  outer loop
   vertex 23.405827 21.334688 488.803528
   vertex 23.225824 21.400274 488.629517
   vertex 23.222696 21.867064 488.808655
  endloop
 endfacet

 facet normal 0.969995 0.092747 -0.224739
  outer loop
   vertex 23.222696 21.867064 488.808655
   vertex 23.225824 21.400274 488.629517
   vertex 23.162920 21.489866 488.394989
  endloop
 endfacet

 facet normal 0.969997 0.092741 -0.224733
  outer loop
   vertex 23.162920 21.489866 488.394989
   vertex 23.159794 21.956657 488.574127
   vertex 23.222696 21.867064 488.808655
  endloop
 endfacet

 facet normal 0.961566 -0.092739 0.258437
  outer loop
   vertex 23.233971 21.579458 488.162781
   vertex 23.159794 21.956657 488.574127
   vertex 23.162920 21.489866 488.394989
  endloop
 endfacet

 facet normal 0.961560 -0.092759 0.258454
  outer loop
   vertex 23.230843 22.046249 488.341949
   vertex 23.159794 21.956657 488.574127
   vertex 23.233971 21.579458 488.162781
  endloop
 endfacet

 facet normal 0.695471 -0.253420 0.672382
  outer loop
   vertex 23.233971 21.579458 488.162781
   vertex 23.419937 21.645044 487.995148
   vertex 23.230843 22.046249 488.341949
  endloop
 endfacet

 facet normal 0.695468 -0.253424 0.672385
  outer loop
   vertex 23.230843 22.046249 488.341949
   vertex 23.419937 21.645044 487.995148
   vertex 23.416811 22.111835 488.174316
  endloop
 endfacet

 facet normal 0.243044 -0.346177 0.906141
  outer loop
   vertex 23.416811 22.111835 488.174316
   vertex 23.419937 21.645044 487.995148
   vertex 23.670992 21.669050 487.936981
  endloop
 endfacet

 facet normal 0.243046 -0.346176 0.906141
  outer loop
   vertex 23.670992 21.669050 487.936981
   vertex 23.667864 22.135841 488.116150
   vertex 23.416811 22.111835 488.174316
  endloop
 endfacet

 facet normal -0.274529 -0.346176 0.897104
  outer loop
   vertex 23.919861 21.645044 488.003876
   vertex 23.667864 22.135841 488.116150
   vertex 23.670992 21.669050 487.936981
  endloop
 endfacet

 facet normal -0.274527 -0.346175 0.897105
  outer loop
   vertex 23.916735 22.111835 488.183044
   vertex 23.667864 22.135841 488.116150
   vertex 23.919861 21.645044 488.003876
  endloop
 endfacet

 facet normal -0.718494 -0.253427 0.647720
  outer loop
   vertex 23.919861 21.645044 488.003876
   vertex 24.099865 21.579458 488.177887
   vertex 23.916735 22.111835 488.183044
  endloop
 endfacet

 facet normal -0.718498 -0.253428 0.647716
  outer loop
   vertex 23.916735 22.111835 488.183044
   vertex 24.099865 21.579458 488.177887
   vertex 24.096737 22.046249 488.357056
  endloop
 endfacet

 facet normal -0.969997 -0.092757 0.224728
  outer loop
   vertex 24.096737 22.046249 488.357056
   vertex 24.099865 21.579458 488.177887
   vertex 24.162767 21.489866 488.412415
  endloop
 endfacet

 facet normal -0.969995 -0.092757 0.224735
  outer loop
   vertex 24.162767 21.489866 488.412415
   vertex 24.159641 21.956656 488.591583
   vertex 24.096737 22.046249 488.357056
  endloop
 endfacet

 facet normal -0.695470 0.253423 -0.672383
  outer loop
   vertex -0.515784 21.801479 488.565155
   vertex -0.329817 21.867065 488.397522
   vertex -0.326690 21.400276 488.218353
  endloop
 endfacet

 facet normal -0.961558 0.092763 -0.258459
  outer loop
   vertex -0.326690 21.400276 488.218353
   vertex -0.329817 21.867065 488.397522
   vertex -0.258767 21.956657 488.165344
  endloop
 endfacet

 facet normal -0.961558 0.092763 -0.258459
  outer loop
   vertex -0.258767 21.956657 488.165344
   vertex -0.255640 21.489868 487.986176
   vertex -0.326690 21.400276 488.218353
  endloop
 endfacet

 facet normal -0.969996 -0.092758 0.224731
  outer loop
   vertex -0.321670 22.046249 487.930817
   vertex -0.255640 21.489868 487.986176
   vertex -0.258767 21.956657 488.165344
  endloop
 endfacet

 facet normal -0.969996 -0.092758 0.224731
  outer loop
   vertex -0.318543 21.579460 487.751648
   vertex -0.255640 21.489868 487.986176
   vertex -0.321670 22.046249 487.930817
  endloop
 endfacet

 facet normal -0.718549 -0.253409 0.647666
  outer loop
   vertex -0.321670 22.046249 487.930817
   vertex -0.501673 22.111835 487.756775
   vertex -0.318543 21.579460 487.751648
  endloop
 endfacet

 facet normal -0.718496 -0.253392 0.647731
  outer loop
   vertex -0.318543 21.579460 487.751648
   vertex -0.501673 22.111835 487.756775
   vertex -0.498546 21.645046 487.577637
  endloop
 endfacet

 facet normal -0.274530 -0.346125 0.897123
  outer loop
   vertex -0.498546 21.645046 487.577637
   vertex -0.501673 22.111835 487.756775
   vertex -0.750544 22.135843 487.689880
  endloop
 endfacet

 facet normal -0.274527 -0.346124 0.897125
  outer loop
   vertex -0.750544 22.135843 487.689880
   vertex -0.747416 21.669052 487.510742
   vertex -0.498546 21.645046 487.577637
  endloop
 endfacet

 facet normal 0.243047 -0.346124 0.906160
  outer loop
   vertex -1.001597 22.111835 487.748047
   vertex -0.747416 21.669052 487.510742
   vertex -0.750544 22.135843 487.689880
  endloop
 endfacet

 facet normal 0.243045 -0.346126 0.906160
  outer loop
   vertex -0.998470 21.645046 487.568909
   vertex -0.747416 21.669052 487.510742
   vertex -1.001597 22.111835 487.748047
  endloop
 endfacet

 facet normal 0.695470 -0.253384 0.672398
  outer loop
   vertex -1.001597 22.111835 487.748047
   vertex -1.187564 22.046249 487.915680
   vertex -0.998470 21.645046 487.568909
  endloop
 endfacet

 facet normal 0.695470 -0.253384 0.672397
  outer loop
   vertex -0.998470 21.645046 487.568909
   vertex -1.187564 22.046249 487.915680
   vertex -1.184437 21.579460 487.736542
  endloop
 endfacet

 facet normal 0.961567 -0.092737 0.258437
  outer loop
   vertex -1.184437 21.579460 487.736542
   vertex -1.187564 22.046249 487.915680
   vertex -1.258615 21.956657 488.147888
  endloop
 endfacet

 facet normal 0.961558 -0.092762 0.258459
  outer loop
   vertex -1.258615 21.956657 488.147888
   vertex -1.255487 21.489868 487.968719
   vertex -1.184437 21.579460 487.736542
  endloop
 endfacet

 facet normal 0.969996 0.092758 -0.224731
  outer loop
   vertex -1.192584 21.400276 488.203247
   vertex -1.255487 21.489868 487.968719
   vertex -1.258615 21.956657 488.147888
  endloop
 endfacet

endsolid