solid stl file generated from DOUG
 facet normal 0.013032 -0.669162 -0.743003
  outer loop
   vertex 232.075928 -30.411015 656.471619
   vertex 231.574829 -30.411015 656.462830
   vertex 232.078857 -30.224792 656.303955
  endloop
 facet normal 0.012944 -0.669027 -0.743125
  outer loop
   vertex 232.078857 -30.224792 656.303955
   vertex 231.574829 -30.411015 656.462830
   vertex 231.577759 -30.224792 656.295227
  endloop
 facet normal 0.016563 0.308906 -0.950948
  outer loop
   vertex 231.577759 -30.224792 656.295227
   vertex 232.077499 -29.986471 656.381348
   vertex 232.078857 -30.224792 656.303955
  endloop
 facet normal 0.016563 0.308906 -0.950948
  outer loop
   vertex 231.576401 -29.986471 656.372620
   vertex 232.077499 -29.986471 656.381348
   vertex 231.577759 -30.224792 656.295227
  endloop
 facet normal 0.003620 0.978156 -0.207842
  outer loop
   vertex 232.073227 -29.934372 656.626465
   vertex 232.077499 -29.986471 656.381348
   vertex 231.576401 -29.986471 656.372620
  endloop
 facet normal 0.003646 0.978145 -0.207891
  outer loop
   vertex 231.576401 -29.986471 656.372620
   vertex 231.572128 -29.934372 656.617676
   vertex 232.073227 -29.934372 656.626465
  endloop
 facet normal -0.013034 0.669027 0.743124
  outer loop
   vertex 232.073227 -29.934372 656.626465
   vertex 231.572128 -29.934372 656.617676
   vertex 232.070297 -30.120594 656.794067
  endloop
 facet normal -0.012941 0.669162 0.743004
  outer loop
   vertex 232.070297 -30.120594 656.794067
   vertex 231.572128 -29.934372 656.617676
   vertex 231.569199 -30.120594 656.785339
  endloop
 facet normal -0.016563 -0.308906 0.950948
  outer loop
   vertex 231.569199 -30.120594 656.785339
   vertex 232.071655 -30.358915 656.716675
   vertex 232.070297 -30.120594 656.794067
  endloop
 facet normal -0.016563 -0.308906 0.950948
  outer loop
   vertex 231.570557 -30.358915 656.707947
   vertex 232.071655 -30.358915 656.716675
   vertex 231.569199 -30.120594 656.785339
  endloop
 facet normal -0.003621 -0.978145 0.207892
  outer loop
   vertex 232.075928 -30.411015 656.471619
   vertex 232.071655 -30.358915 656.716675
   vertex 231.570557 -30.358915 656.707947
  endloop
 facet normal -0.003645 -0.978156 0.207842
  outer loop
   vertex 231.570557 -30.358915 656.707947
   vertex 231.574829 -30.411015 656.462830
   vertex 232.075928 -30.411015 656.471619
  endloop
 facet normal 0.003620 0.978154 -0.207849
  outer loop
   vertex 231.637665 -41.489758 652.863708
   vertex 232.138763 -41.489758 652.872437
   vertex 231.641937 -41.541859 652.618591
  endloop
 facet normal 0.003646 0.978144 -0.207899
  outer loop
   vertex 231.641937 -41.541859 652.618591
   vertex 232.138763 -41.489758 652.872437
   vertex 232.143036 -41.541859 652.627380
  endloop
 facet normal 0.016679 0.308908 -0.950946
  outer loop
   vertex 232.143036 -41.541859 652.627380
   vertex 231.643295 -41.780178 652.541199
   vertex 231.641937 -41.541859 652.618591
  endloop
 facet normal 0.016563 0.309127 -0.950876
  outer loop
   vertex 232.144379 -41.780178 652.549927
   vertex 231.643295 -41.780178 652.541199
   vertex 232.143036 -41.541859 652.627380
  endloop
 facet normal 0.012942 -0.669162 -0.743004
  outer loop
   vertex 231.640366 -41.966400 652.708862
   vertex 231.643295 -41.780178 652.541199
   vertex 232.144379 -41.780178 652.549927
  endloop
 facet normal 0.012941 -0.669161 -0.743005
  outer loop
   vertex 232.144379 -41.780178 652.549927
   vertex 232.141464 -41.966400 652.717590
   vertex 231.640366 -41.966400 652.708862
  endloop
 facet normal -0.003621 -0.978147 0.207884
  outer loop
   vertex 231.640366 -41.966400 652.708862
   vertex 232.141464 -41.966400 652.717590
   vertex 231.636078 -41.914303 652.953918
  endloop
 facet normal -0.003621 -0.978147 0.207884
  outer loop
   vertex 231.636078 -41.914303 652.953918
   vertex 232.141464 -41.966400 652.717590
   vertex 232.137177 -41.914303 652.962646
  endloop
 facet normal -0.016563 -0.308903 0.950949
  outer loop
   vertex 232.137177 -41.914303 652.962646
   vertex 231.634735 -41.675980 653.031311
   vertex 231.636078 -41.914303 652.953918
  endloop
 facet normal -0.016678 -0.309123 0.950876
  outer loop
   vertex 232.135834 -41.675980 653.040100
   vertex 231.634735 -41.675980 653.031311
   vertex 232.137177 -41.914303 652.962646
  endloop
 facet normal -0.013034 0.669027 0.743124
  outer loop
   vertex 231.637665 -41.489758 652.863708
   vertex 231.634735 -41.675980 653.031311
   vertex 232.135834 -41.675980 653.040100
  endloop
 facet normal -0.012941 0.669162 0.743004
  outer loop
   vertex 232.135834 -41.675980 653.040100
   vertex 232.138763 -41.489758 652.872437
   vertex 231.637665 -41.489758 652.863708
  endloop
 facet normal 0.999848 -0.000034 0.017439
  outer loop
   vertex 232.144379 -41.780178 652.549927
   vertex 232.143036 -41.541859 652.627380
   vertex 232.140106 -41.728081 652.794983
  endloop
 facet normal 0.999848 -0.000034 0.017439
  outer loop
   vertex 232.140106 -41.728081 652.794983
   vertex 232.143036 -41.541859 652.627380
   vertex 232.138763 -41.489758 652.872437
  endloop
 facet normal 0.999848 -0.000033 0.017435
  outer loop
   vertex 232.138763 -41.489758 652.872437
   vertex 232.135834 -41.675980 653.040100
   vertex 232.140106 -41.728081 652.794983
  endloop
 facet normal 0.999848 -0.000029 0.017438
  outer loop
   vertex 232.071655 -30.358915 656.716675
   vertex 232.075928 -30.411015 656.471619
   vertex 232.074585 -30.172693 656.549011
  endloop
 facet normal 0.999848 -0.000029 0.017438
  outer loop
   vertex 232.074585 -30.172693 656.549011
   vertex 232.075928 -30.411015 656.471619
   vertex 232.078857 -30.224792 656.303955
  endloop
 facet normal 0.999848 0.000039 0.017424
  outer loop
   vertex 232.078857 -30.224792 656.303955
   vertex 232.077499 -29.986471 656.381348
   vertex 232.074585 -30.172693 656.549011
  endloop
 facet normal 0.999848 0.000036 0.017420
  outer loop
   vertex 232.077499 -29.986471 656.381348
   vertex 232.073227 -29.934372 656.626465
   vertex 232.074585 -30.172693 656.549011
  endloop
 facet normal 0.999847 0.000013 0.017491
  outer loop
   vertex 232.074585 -30.172693 656.549011
   vertex 232.073227 -29.934372 656.626465
   vertex 232.070297 -30.120594 656.794067
  endloop
 facet normal 0.999847 0.000018 0.017490
  outer loop
   vertex 232.070297 -30.120594 656.794067
   vertex 232.071655 -30.358915 656.716675
   vertex 232.074585 -30.172693 656.549011
  endloop
 facet normal 0.999848 -0.000033 0.017435
  outer loop
   vertex 232.135834 -41.675980 653.040100
   vertex 232.137177 -41.914303 652.962646
   vertex 232.140106 -41.728081 652.794983
  endloop
 facet normal 0.999847 0.000018 0.017490
  outer loop
   vertex 232.140106 -41.728081 652.794983
   vertex 232.137177 -41.914303 652.962646
   vertex 232.141464 -41.966400 652.717590
  endloop
 facet normal 0.999848 0.000039 0.017424
  outer loop
   vertex 232.141464 -41.966400 652.717590
   vertex 232.144379 -41.780178 652.549927
   vertex 232.140106 -41.728081 652.794983
  endloop
 facet normal 0.999848 -0.000002 0.017452
  outer loop
   vertex 230.037582 -31.751165 656.657898
   vertex 230.058334 -31.364832 655.469055
   vertex 230.021454 -28.906178 657.582153
  endloop
 facet normal 0.999848 -0.000002 0.017452
  outer loop
   vertex 230.021454 -28.906178 657.582153
   vertex 230.058334 -31.364832 655.469055
   vertex 230.042206 -28.519844 656.393311
  endloop
 facet normal -0.005392 0.951057 0.308967
  outer loop
   vertex 230.042206 -28.519844 656.393311
   vertex 228.633087 -28.906178 657.557922
   vertex 230.021454 -28.906178 657.582153
  endloop
 facet normal -0.005392 0.951057 0.308967
  outer loop
   vertex 228.653839 -28.519844 656.369080
   vertex 228.633087 -28.906178 657.557922
   vertex 230.042206 -28.519844 656.393311
  endloop
 facet normal -0.999848 0.000002 -0.017452
  outer loop
   vertex 228.669968 -31.364832 655.444824
   vertex 228.633087 -28.906178 657.557922
   vertex 228.653839 -28.519844 656.369080
  endloop
 facet normal 0.016596 0.309018 -0.950911
  outer loop
   vertex 228.653839 -28.519844 656.369080
   vertex 230.058334 -31.364832 655.469055
   vertex 228.669968 -31.364832 655.444824
  endloop
 facet normal 0.005392 -0.951057 -0.308967
  outer loop
   vertex 228.669968 -31.364832 655.444824
   vertex 230.058334 -31.364832 655.469055
   vertex 228.649216 -31.751165 656.633667
  endloop
 facet normal 0.005392 -0.951057 -0.308967
  outer loop
   vertex 228.649216 -31.751165 656.633667
   vertex 230.058334 -31.364832 655.469055
   vertex 230.037582 -31.751165 656.657898
  endloop
 facet normal -0.016596 -0.309018 0.950911
  outer loop
   vertex 230.037582 -31.751165 656.657898
   vertex 228.633087 -28.906178 657.557922
   vertex 228.649216 -31.751165 656.633667
  endloop
 facet normal -0.016596 -0.309018 0.950911
  outer loop
   vertex 230.021454 -28.906178 657.582153
   vertex 228.633087 -28.906178 657.557922
   vertex 230.037582 -31.751165 656.657898
  endloop
 facet normal 0.005392 -0.951057 -0.308967
  outer loop
   vertex 228.715164 -43.380928 652.855469
   vertex 228.735916 -42.994595 651.666626
   vertex 230.103531 -43.380928 652.879700
  endloop
 facet normal 0.005392 -0.951057 -0.308967
  outer loop
   vertex 230.103531 -43.380928 652.879700
   vertex 228.735916 -42.994595 651.666626
   vertex 230.124298 -42.994595 651.690857
  endloop
 facet normal 0.999847 -0.000005 0.017464
  outer loop
   vertex 230.124298 -42.994595 651.690857
   vertex 230.087402 -40.535938 653.803955
   vertex 230.103531 -43.380928 652.879700
  endloop
 facet normal 0.999848 0.000003 0.017454
  outer loop
   vertex 230.108154 -40.149605 652.615112
   vertex 230.087402 -40.535938 653.803955
   vertex 230.124298 -42.994595 651.690857
  endloop
 facet normal -0.005392 0.951057 0.308967
  outer loop
   vertex 228.719788 -40.149605 652.590881
   vertex 230.087402 -40.535938 653.803955
   vertex 230.108154 -40.149605 652.615112
  endloop
 facet normal 0.016596 0.309018 -0.950911
  outer loop
   vertex 230.108154 -40.149605 652.615112
   vertex 228.735916 -42.994595 651.666626
   vertex 228.719788 -40.149605 652.590881
  endloop
 facet normal -0.999848 0.000002 -0.017452
  outer loop
   vertex 228.719788 -40.149605 652.590881
   vertex 228.735916 -42.994595 651.666626
   vertex 228.699036 -40.535938 653.779724
  endloop
 facet normal -0.999848 0.000002 -0.017452
  outer loop
   vertex 228.699036 -40.535938 653.779724
   vertex 228.735916 -42.994595 651.666626
   vertex 228.715164 -43.380928 652.855469
  endloop
 facet normal -0.016596 -0.309018 0.950911
  outer loop
   vertex 228.715164 -43.380928 652.855469
   vertex 230.087402 -40.535938 653.803955
   vertex 228.699036 -40.535938 653.779724
  endloop
 facet normal -0.016596 -0.309018 0.950911
  outer loop
   vertex 230.103531 -43.380928 652.879700
   vertex 230.087402 -40.535938 653.803955
   vertex 228.715164 -43.380928 652.855469
  endloop
 facet normal 0.016596 0.309018 -0.950911
  outer loop
   vertex 230.108154 -40.149605 652.615112
   vertex 230.124298 -42.994595 651.690857
   vertex 228.735916 -42.994595 651.666626
  endloop
 facet normal 0.016596 0.309018 -0.950911
  outer loop
   vertex 230.042206 -28.519844 656.393311
   vertex 230.058334 -31.364832 655.469055
   vertex 228.653839 -28.519844 656.369080
  endloop
 facet normal -0.005392 0.951057 0.308967
  outer loop
   vertex 228.719788 -40.149605 652.590881
   vertex 228.699036 -40.535938 653.779724
   vertex 230.087402 -40.535938 653.803955
  endloop
 facet normal -0.999848 0.000002 -0.017452
  outer loop
   vertex 228.669968 -31.364832 655.444824
   vertex 228.649216 -31.751165 656.633667
   vertex 228.633087 -28.906178 657.557922
  endloop
 facet normal 0.999848 0.000009 0.017428
  outer loop
   vertex 232.802307 -31.437679 656.976135
   vertex 232.858063 -40.914375 653.782227
   vertex 232.804123 -31.403807 656.871948
  endloop
 facet normal 0.607242 0.248600 -0.754623
  outer loop
   vertex 232.804123 -31.403807 656.871948
   vertex 232.858063 -40.914375 653.782227
   vertex 232.688690 -31.377150 656.787842
  endloop
 facet normal 0.623629 0.244701 -0.742434
  outer loop
   vertex 232.936249 -39.601448 652.692932
   vertex 232.860458 -40.683651 652.272583
   vertex 232.854218 -39.581646 652.630554
  endloop
 facet normal 0.016622 0.308988 -0.950921
  outer loop
   vertex 232.854218 -39.581646 652.630554
   vertex 232.860458 -40.683651 652.272583
   vertex 232.018967 -40.683651 652.257874
  endloop
 facet normal -0.016622 -0.309035 0.950905
  outer loop
   vertex 231.934753 -31.217121 657.081604
   vertex 232.782501 -32.319126 656.738281
   vertex 232.776260 -31.217121 657.096313
  endloop
 facet normal 0.597128 -0.244797 0.763880
  outer loop
   vertex 232.776260 -31.217121 657.096313
   vertex 232.782501 -32.319126 656.738281
   vertex 232.866669 -32.299324 656.678833
  endloop
 facet normal 0.580482 -0.248612 0.775392
  outer loop
   vertex 232.762177 -40.523624 652.577759
   vertex 232.880478 -40.496967 652.497742
   vertex 232.826553 -30.986397 655.587463
  endloop
 facet normal 0.999848 0.000010 0.017419
  outer loop
   vertex 232.826553 -30.986397 655.587463
   vertex 232.880478 -40.496967 652.497742
   vertex 232.828369 -30.952526 655.483215
  endloop
 facet normal 0.927530 -0.110712 0.356975
  outer loop
   vertex 232.088181 -40.937889 653.841125
   vertex 232.034256 -31.427320 656.930847
   vertex 232.074753 -40.948246 653.872803
  endloop
 facet normal 0.927385 -0.110823 0.357317
  outer loop
   vertex 232.074753 -40.948246 653.872803
   vertex 232.034256 -31.427320 656.930847
   vertex 232.020813 -31.437679 656.962524
  endloop
 facet normal -0.016438 -0.309019 0.950914
  outer loop
   vertex 232.020813 -31.437679 656.962524
   vertex 232.004135 -40.948246 653.871582
   vertex 232.074753 -40.948246 653.872803
  endloop
 facet normal 0.005337 -0.951071 -0.308927
  outer loop
   vertex 232.832855 -41.197556 653.853943
   vertex 232.821228 -41.124088 653.627563
   vertex 232.917023 -41.177753 653.794434
  endloop
 facet normal 0.005542 -0.951035 -0.309033
  outer loop
   vertex 232.917023 -41.177753 653.794434
   vertex 232.821228 -41.124088 653.627563
   vertex 232.919662 -41.128632 653.643311
  endloop
 facet normal 0.999847 0.000002 0.017466
  outer loop
   vertex 232.919662 -41.128632 653.643311
   vertex 232.910767 -40.075752 654.152466
   vertex 232.917023 -41.177753 653.794434
  endloop
 facet normal -0.005359 0.951067 0.308938
  outer loop
   vertex 232.803864 -30.703218 655.514893
   vertex 232.784332 -30.776686 655.740723
   vertex 232.885895 -30.723019 655.577271
  endloop
 facet normal -0.005368 0.951068 0.308934
  outer loop
   vertex 232.885895 -30.723019 655.577271
   vertex 232.784332 -30.776686 655.740723
   vertex 232.883255 -30.772142 655.728455
  endloop
 facet normal 0.999848 0.000005 0.017459
  outer loop
   vertex 232.883255 -30.772142 655.728455
   vertex 232.892151 -31.825022 655.219299
   vertex 232.885895 -30.723019 655.577271
  endloop
 facet normal -0.005406 0.951072 0.308922
  outer loop
   vertex 232.933609 -39.650570 652.844116
   vertex 232.936249 -39.601448 652.692932
   vertex 232.834686 -39.655117 652.856384
  endloop
 facet normal -0.005350 0.951062 0.308954
  outer loop
   vertex 232.834686 -39.655117 652.856384
   vertex 232.936249 -39.601448 652.692932
   vertex 232.854218 -39.581646 652.630554
  endloop
 facet normal -0.005378 0.951063 0.308952
  outer loop
   vertex 232.854218 -39.581646 652.630554
   vertex 232.012711 -39.581646 652.615906
   vertex 232.834686 -39.655117 652.856384
  endloop
 facet normal 0.016553 0.309036 -0.950906
  outer loop
   vertex 232.018967 -40.683651 652.257874
   vertex 232.012711 -39.581646 652.615906
   vertex 232.854218 -39.581646 652.630554
  endloop
 facet normal 0.580482 -0.248612 0.775392
  outer loop
   vertex 232.826553 -30.986397 655.587463
   vertex 232.708252 -31.013054 655.667480
   vertex 232.762177 -40.523624 652.577759
  endloop
 facet normal 0.999848 -0.000002 0.017457
  outer loop
   vertex 232.762177 -40.523624 652.577759
   vertex 232.708252 -31.013054 655.667480
   vertex 232.688690 -31.377150 656.787842
  endloop
 facet normal 0.999848 -0.000002 0.017457
  outer loop
   vertex 232.688690 -31.377150 656.787842
   vertex 232.742615 -40.887718 653.698120
   vertex 232.762177 -40.523624 652.577759
  endloop
 facet normal 0.607191 0.248611 -0.754660
  outer loop
   vertex 232.858063 -40.914375 653.782227
   vertex 232.742615 -40.887718 653.698120
   vertex 232.688690 -31.377150 656.787842
  endloop
 facet normal -0.016622 -0.309036 0.950905
  outer loop
   vertex 231.934753 -31.217121 657.081604
   vertex 231.941010 -32.319126 656.723572
   vertex 232.782501 -32.319126 656.738281
  endloop
 facet normal 0.005402 -0.951040 -0.309019
  outer loop
   vertex 232.782501 -32.319126 656.738281
   vertex 231.941010 -32.319126 656.723572
   vertex 232.770874 -32.245655 656.511963
  endloop
 facet normal 0.005485 -0.951039 -0.309023
  outer loop
   vertex 232.770874 -32.245655 656.511963
   vertex 232.866669 -32.299324 656.678833
   vertex 232.782501 -32.319126 656.738281
  endloop
 facet normal 0.005294 -0.951072 -0.308924
  outer loop
   vertex 232.869308 -32.250202 656.527649
   vertex 232.866669 -32.299324 656.678833
   vertex 232.770874 -32.245655 656.511963
  endloop
 facet normal -0.939358 -0.110767 0.324556
  outer loop
   vertex 232.647690 -31.427320 656.941589
   vertex 232.701630 -40.937889 653.851868
   vertex 232.660004 -31.437679 656.973694
  endloop
 facet normal -0.939356 -0.110769 0.324561
  outer loop
   vertex 232.660004 -31.437679 656.973694
   vertex 232.701630 -40.937889 653.851868
   vertex 232.713943 -40.948246 653.883972
  endloop
 facet normal -0.016314 -0.309019 0.950916
  outer loop
   vertex 232.713943 -40.948246 653.883972
   vertex 232.802307 -31.437679 656.976135
   vertex 232.660004 -31.437679 656.973694
  endloop
 facet normal -0.016722 -0.309013 0.950911
  outer loop
   vertex 232.856247 -40.948246 653.886475
   vertex 232.802307 -31.437679 656.976135
   vertex 232.713943 -40.948246 653.883972
  endloop
 facet normal 0.999848 0.000012 0.017419
  outer loop
   vertex 232.858063 -40.914375 653.782227
   vertex 232.802307 -31.437679 656.976135
   vertex 232.856247 -40.948246 653.886475
  endloop
 facet normal 0.999848 -0.000006 0.017454
  outer loop
   vertex 231.581528 -29.799162 657.248047
   vertex 231.608917 -31.022120 655.678589
   vertex 231.600037 -29.454628 656.187866
  endloop
 facet normal 0.016611 0.309042 -0.950903
  outer loop
   vertex 231.600037 -29.454628 656.187866
   vertex 231.608917 -31.022120 655.678589
   vertex 230.059219 -29.454628 656.160950
  endloop
 facet normal -0.005397 0.951054 0.308976
  outer loop
   vertex 230.059219 -29.454628 656.160950
   vertex 230.040710 -29.799162 657.221130
   vertex 231.600037 -29.454628 656.187866
  endloop
 facet normal -0.999848 0.000005 -0.017454
  outer loop
   vertex 230.068100 -31.022120 655.651733
   vertex 230.040710 -29.799162 657.221130
   vertex 230.059219 -29.454628 656.160950
  endloop
 facet normal -0.999848 0.000005 -0.017454
  outer loop
   vertex 230.049591 -31.366655 656.711914
   vertex 230.040710 -29.799162 657.221130
   vertex 230.068100 -31.022120 655.651733
  endloop
 facet normal 0.005385 -0.951054 -0.308978
  outer loop
   vertex 230.068100 -31.022120 655.651733
   vertex 231.608917 -31.022120 655.678589
   vertex 230.049591 -31.366655 656.711914
  endloop
 facet normal 0.005397 -0.951059 -0.308962
  outer loop
   vertex 230.049591 -31.366655 656.711914
   vertex 231.608917 -31.022120 655.678589
   vertex 231.590408 -31.366655 656.738831
  endloop
 facet normal 0.999848 -0.000005 0.017453
  outer loop
   vertex 231.590408 -31.366655 656.738831
   vertex 231.608917 -31.022120 655.678589
   vertex 231.581528 -29.799162 657.248047
  endloop
 facet normal -0.016612 -0.309008 0.950914
  outer loop
   vertex 231.581528 -29.799162 657.248047
   vertex 230.040710 -29.799162 657.221130
   vertex 231.590408 -31.366655 656.738831
  endloop
 facet normal -0.005397 0.951054 0.308976
  outer loop
   vertex 231.600037 -29.454628 656.187866
   vertex 230.040710 -29.799162 657.221130
   vertex 231.581528 -29.799162 657.248047
  endloop
 facet normal -0.016611 -0.309008 0.950914
  outer loop
   vertex 231.653244 -42.446144 653.139404
   vertex 231.644348 -40.878651 653.648621
   vertex 230.112427 -42.446144 653.112488
  endloop
 facet normal -0.016574 -0.309042 0.950904
  outer loop
   vertex 230.112427 -42.446144 653.112488
   vertex 231.644348 -40.878651 653.648621
   vertex 230.103546 -40.878651 653.621765
  endloop
 facet normal -0.999848 0.000006 -0.017454
  outer loop
   vertex 230.103546 -40.878651 653.621765
   vertex 230.130936 -42.101608 652.052307
   vertex 230.112427 -42.446144 653.112488
  endloop
 facet normal -0.999848 -0.000008 -0.017443
  outer loop
   vertex 230.122040 -40.534115 652.561523
   vertex 230.130936 -42.101608 652.052307
   vertex 230.103546 -40.878651 653.621765
  endloop
 facet normal 0.016612 0.309008 -0.950914
  outer loop
   vertex 231.662857 -40.534119 652.588440
   vertex 230.130936 -42.101608 652.052307
   vertex 230.122040 -40.534115 652.561523
  endloop
 facet normal -0.005395 0.951055 0.308975
  outer loop
   vertex 230.122040 -40.534115 652.561523
   vertex 231.644348 -40.878651 653.648621
   vertex 231.662857 -40.534119 652.588440
  endloop
 facet normal 0.999848 0.000003 0.017457
  outer loop
   vertex 231.662857 -40.534119 652.588440
   vertex 231.644348 -40.878651 653.648621
   vertex 231.671753 -42.101608 652.079224
  endloop
 facet normal 0.999848 0.000003 0.017457
  outer loop
   vertex 231.671753 -42.101608 652.079224
   vertex 231.644348 -40.878651 653.648621
   vertex 231.653244 -42.446144 653.139404
  endloop
 facet normal 0.005398 -0.951054 -0.308978
  outer loop
   vertex 231.653244 -42.446144 653.139404
   vertex 230.130936 -42.101608 652.052307
   vertex 231.671753 -42.101608 652.079224
  endloop
 facet normal 0.005398 -0.951054 -0.308978
  outer loop
   vertex 230.112427 -42.446144 653.112488
   vertex 230.130936 -42.101608 652.052307
   vertex 231.653244 -42.446144 653.139404
  endloop
 facet normal -0.999848 -0.000011 -0.017459
  outer loop
   vertex 230.972260 -28.180567 656.914246
   vertex 230.974152 -28.513437 656.806091
   vertex 230.965851 -28.667946 657.281555
  endloop
 facet normal 0.999848 0.000011 0.017459
  outer loop
   vertex 230.965851 -28.667946 657.281555
   vertex 230.974152 -28.513437 656.806091
   vertex 230.969055 -28.424257 657.097900
  endloop
 facet normal 0.999848 0.000011 0.017459
  outer loop
   vertex 230.969055 -28.424257 657.097900
   vertex 230.963959 -28.335077 657.389709
   vertex 230.965851 -28.667946 657.281555
  endloop
 facet normal 0.999848 0.000011 0.017459
  outer loop
   vertex 230.972260 -28.180567 656.914246
   vertex 230.963959 -28.335077 657.389709
   vertex 230.969055 -28.424257 657.097900
  endloop
 facet normal -0.005394 0.951057 0.308969
  outer loop
   vertex 229.964111 -28.335077 657.372253
   vertex 230.963959 -28.335077 657.389709
   vertex 230.972260 -28.180567 656.914246
  endloop
 facet normal -0.005394 0.951057 0.308969
  outer loop
   vertex 230.972260 -28.180567 656.914246
   vertex 229.972412 -28.180567 656.896790
   vertex 229.964111 -28.335077 657.372253
  endloop
 facet normal -0.999848 -0.000000 -0.017456
  outer loop
   vertex 229.964111 -28.335077 657.372253
   vertex 229.972412 -28.180567 656.896790
   vertex 229.973282 -29.951872 656.846985
  endloop
 facet normal -0.999848 -0.000000 -0.017458
  outer loop
   vertex 229.973282 -29.951872 656.846985
   vertex 229.972412 -28.180567 656.896790
   vertex 229.981583 -29.797363 656.371582
  endloop
 facet normal 0.005376 -0.951046 -0.309002
  outer loop
   vertex 229.981583 -29.797363 656.371582
   vertex 230.981430 -29.797363 656.388977
   vertex 229.973282 -29.951872 656.846985
  endloop
 facet normal 0.016543 0.309069 -0.950896
  outer loop
   vertex 230.729218 -29.400785 656.513489
   vertex 230.981430 -29.797363 656.388977
   vertex 229.981583 -29.797363 656.371582
  endloop
 facet normal 0.016521 0.309057 -0.950900
  outer loop
   vertex 230.979538 -29.464495 656.497131
   vertex 230.981430 -29.797363 656.388977
   vertex 230.729218 -29.400785 656.513489
  endloop
 facet normal -0.016602 -0.308969 0.950927
  outer loop
   vertex 230.794327 -42.499989 652.783569
   vertex 231.042038 -42.103409 652.916748
   vertex 230.042191 -42.103409 652.899292
  endloop
 facet normal -0.005395 0.951045 0.309005
  outer loop
   vertex 230.042191 -42.103409 652.899292
   vertex 231.042038 -42.103409 652.916748
   vertex 230.050491 -41.948898 652.423889
  endloop
 facet normal -0.999848 -0.000000 -0.017458
  outer loop
   vertex 230.050491 -41.948898 652.423889
   vertex 230.051361 -43.720203 652.374084
   vertex 230.042191 -42.103409 652.899292
  endloop
 facet normal -0.999848 -0.000000 -0.017456
  outer loop
   vertex 230.059662 -43.565697 651.898621
   vertex 230.051361 -43.720203 652.374084
   vertex 230.050491 -41.948898 652.423889
  endloop
 facet normal 0.005394 -0.951059 -0.308962
  outer loop
   vertex 231.051208 -43.720203 652.391541
   vertex 230.051361 -43.720203 652.374084
   vertex 230.059662 -43.565697 651.898621
  endloop
 facet normal 0.005394 -0.951059 -0.308962
  outer loop
   vertex 230.059662 -43.565697 651.898621
   vertex 231.059509 -43.565697 651.916077
   vertex 231.051208 -43.720203 652.391541
  endloop
 facet normal 0.999848 0.000011 0.017459
  outer loop
   vertex 231.051208 -43.720203 652.391541
   vertex 231.059509 -43.565697 651.916077
   vertex 231.054413 -43.476517 652.207886
  endloop
 facet normal 0.999848 0.000011 0.017459
  outer loop
   vertex 231.054413 -43.476517 652.207886
   vertex 231.059509 -43.565697 651.916077
   vertex 231.057617 -43.232826 652.024231
  endloop
 facet normal 0.999848 0.000013 0.017462
  outer loop
   vertex 231.057617 -43.232826 652.024231
   vertex 231.049316 -43.387333 652.499634
   vertex 231.054413 -43.476517 652.207886
  endloop
 facet normal -0.999848 -0.000013 -0.017462
  outer loop
   vertex 231.051208 -43.720203 652.391541
   vertex 231.049316 -43.387333 652.499634
   vertex 231.057617 -43.232826 652.024231
  endloop
 facet normal 0.999848 0.000013 0.017462
  outer loop
   vertex 231.054413 -43.476517 652.207886
   vertex 231.049316 -43.387333 652.499634
   vertex 231.051208 -43.720203 652.391541
  endloop
 facet normal 0.999846 -0.000034 0.017561
  outer loop
   vertex 232.880478 -40.496967 652.497742
   vertex 232.882309 -40.463093 652.393555
   vertex 232.828369 -30.952526 655.483215
  endloop
 facet normal 0.016722 0.309013 -0.950911
  outer loop
   vertex 232.828369 -30.952526 655.483215
   vertex 232.882309 -40.463093 652.393555
   vertex 232.740005 -40.463093 652.391052
  endloop
 facet normal 0.016314 0.309019 -0.950916
  outer loop
   vertex 232.740005 -40.463093 652.391052
   vertex 232.686066 -30.952526 655.480774
   vertex 232.828369 -30.952526 655.483215
  endloop
 facet normal -0.927159 0.110996 -0.357848
  outer loop
   vertex 232.726562 -40.473454 652.422668
   vertex 232.686066 -30.952526 655.480774
   vertex 232.740005 -40.463093 652.391052
  endloop
 facet normal -0.927305 0.110886 -0.357505
  outer loop
   vertex 232.672638 -30.962885 655.512390
   vertex 232.686066 -30.952526 655.480774
   vertex 232.726562 -40.473454 652.422668
  endloop
 facet normal 0.016557 0.309019 -0.950912
  outer loop
   vertex 232.726562 -40.473454 652.422668
   vertex 232.113129 -40.473454 652.411987
   vertex 232.672638 -30.962885 655.512390
  endloop
 facet normal 0.016558 0.309019 -0.950912
  outer loop
   vertex 232.672638 -30.962885 655.512390
   vertex 232.113129 -40.473454 652.411987
   vertex 232.059204 -30.962883 655.501709
  endloop
 facet normal 0.939360 0.110764 -0.324551
  outer loop
   vertex 232.059204 -30.962883 655.501709
   vertex 232.113129 -40.473454 652.411987
   vertex 232.100815 -40.463093 652.379883
  endloop
 facet normal 0.939219 0.110884 -0.324918
  outer loop
   vertex 232.100815 -40.463093 652.379883
   vertex 232.046875 -30.952526 655.469604
   vertex 232.059204 -30.962883 655.501709
  endloop
 facet normal 0.016438 0.309019 -0.950914
  outer loop
   vertex 232.030197 -40.463093 652.378662
   vertex 232.046875 -30.952526 655.469604
   vertex 232.100815 -40.463093 652.379883
  endloop
 facet normal 0.016441 0.309019 -0.950914
  outer loop
   vertex 231.976273 -30.952526 655.468384
   vertex 232.046875 -30.952526 655.469604
   vertex 232.030197 -40.463093 652.378662
  endloop
 facet normal -0.999848 0.000001 -0.017454
  outer loop
   vertex 232.030197 -40.463093 652.378662
   vertex 232.004135 -40.948246 653.871582
   vertex 231.976273 -30.952526 655.468384
  endloop
 facet normal -0.999848 0.000001 -0.017454
  outer loop
   vertex 231.976273 -30.952526 655.468384
   vertex 232.004135 -40.948246 653.871582
   vertex 231.950211 -31.437679 656.961304
  endloop
 facet normal -0.016441 -0.309019 0.950914
  outer loop
   vertex 231.950211 -31.437679 656.961304
   vertex 232.004135 -40.948246 653.871582
   vertex 232.020813 -31.437679 656.962524
  endloop
 facet normal -0.016601 -0.309103 0.950884
  outer loop
   vertex 230.720917 -29.555294 656.988953
   vertex 229.973282 -29.951872 656.846985
   vertex 230.973129 -29.951872 656.864441
  endloop
 facet normal 0.005394 -0.951058 -0.308965
  outer loop
   vertex 230.973129 -29.951872 656.864441
   vertex 229.973282 -29.951872 656.846985
   vertex 230.981430 -29.797363 656.388977
  endloop
 facet normal 0.999848 0.000011 0.017459
  outer loop
   vertex 230.981430 -29.797363 656.388977
   vertex 230.971237 -29.619003 656.972595
   vertex 230.973129 -29.951872 656.864441
  endloop
 facet normal 0.999848 0.000011 0.017459
  outer loop
   vertex 230.979538 -29.464495 656.497131
   vertex 230.971237 -29.619003 656.972595
   vertex 230.981430 -29.797363 656.388977
  endloop
 facet normal -0.999848 -0.000011 -0.017459
  outer loop
   vertex 230.981430 -29.797363 656.388977
   vertex 230.971237 -29.619003 656.972595
   vertex 230.979538 -29.464495 656.497131
  endloop
 facet normal 0.016682 0.309057 -0.950897
  outer loop
   vertex 230.979538 -29.464495 656.497131
   vertex 231.229141 -29.400785 656.522217
   vertex 230.981430 -29.797363 656.388977
  endloop
 facet normal 0.016569 0.309121 -0.950878
  outer loop
   vertex 230.981430 -29.797363 656.388977
   vertex 231.229141 -29.400785 656.522217
   vertex 231.405746 -29.689058 656.431580
  endloop
 facet normal 0.016565 0.309118 -0.950879
  outer loop
   vertex 231.405746 -29.689058 656.431580
   vertex 231.229141 -29.400785 656.522217
   vertex 231.411133 -29.226730 656.581970
  endloop
 facet normal 0.016506 0.309119 -0.950880
  outer loop
   vertex 231.411133 -29.226730 656.581970
   vertex 231.715149 -29.393164 656.533142
   vertex 231.405746 -29.689058 656.431580
  endloop
 facet normal 0.016385 0.308918 -0.950948
  outer loop
   vertex 231.476761 -28.988966 656.660339
   vertex 231.715149 -29.393164 656.533142
   vertex 231.411133 -29.226730 656.581970
  endloop
 facet normal 0.016584 0.309024 -0.950910
  outer loop
   vertex 231.826721 -28.988966 656.666443
   vertex 231.715149 -29.393164 656.533142
   vertex 231.476761 -28.988966 656.660339
  endloop
 facet normal 0.016584 0.309148 -0.950869
  outer loop
   vertex 231.476761 -28.988966 656.660339
   vertex 231.408447 -28.751202 656.736450
   vertex 231.826721 -28.988966 656.666443
  endloop
 facet normal 0.016498 0.309010 -0.950916
  outer loop
   vertex 231.826721 -28.988966 656.666443
   vertex 231.408447 -28.751202 656.736450
   vertex 231.710556 -28.584766 656.795776
  endloop
 facet normal 0.016545 0.308933 -0.950940
  outer loop
   vertex 231.710556 -28.584766 656.795776
   vertex 231.408447 -28.751202 656.736450
   vertex 231.224472 -28.577147 656.789795
  endloop
 facet normal 0.016545 0.308968 -0.950929
  outer loop
   vertex 231.224472 -28.577147 656.789795
   vertex 231.397812 -28.288872 656.886475
   vertex 231.710556 -28.584766 656.795776
  endloop
 facet normal 0.016704 0.308880 -0.950954
  outer loop
   vertex 230.974152 -28.513437 656.806091
   vertex 231.397812 -28.288872 656.886475
   vertex 231.224472 -28.577147 656.789795
  endloop
 facet normal 0.016601 0.309055 -0.950899
  outer loop
   vertex 230.972260 -28.180567 656.914246
   vertex 231.397812 -28.288872 656.886475
   vertex 230.974152 -28.513437 656.806091
  endloop
 facet normal 0.016451 0.309055 -0.950902
  outer loop
   vertex 230.974152 -28.513437 656.806091
   vertex 230.724548 -28.577147 656.781067
   vertex 230.972260 -28.180567 656.914246
  endloop
 facet normal 0.016602 0.308969 -0.950927
  outer loop
   vertex 230.972260 -28.180567 656.914246
   vertex 230.724548 -28.577147 656.781067
   vertex 229.972412 -28.180567 656.896790
  endloop
 facet normal 0.016645 0.309043 -0.950902
  outer loop
   vertex 229.972412 -28.180567 656.896790
   vertex 230.724548 -28.577147 656.781067
   vertex 230.542557 -28.751202 656.721313
  endloop
 facet normal 0.016669 0.309065 -0.950895
  outer loop
   vertex 230.542557 -28.751202 656.721313
   vertex 230.476913 -28.988966 656.642883
   vertex 229.972412 -28.180567 656.896790
  endloop
 facet normal 0.016601 0.309101 -0.950884
  outer loop
   vertex 230.802628 -42.345478 652.308105
   vertex 230.050491 -41.948898 652.423889
   vertex 231.050339 -41.948898 652.441345
  endloop
 facet normal -0.005395 0.951045 0.309005
  outer loop
   vertex 231.050339 -41.948898 652.441345
   vertex 230.050491 -41.948898 652.423889
   vertex 231.042038 -42.103409 652.916748
  endloop
 facet normal 0.999848 0.000010 0.017461
  outer loop
   vertex 231.042038 -42.103409 652.916748
   vertex 231.052231 -42.281769 652.333191
   vertex 231.050339 -41.948898 652.441345
  endloop
 facet normal 0.999848 0.000013 0.017460
  outer loop
   vertex 231.043930 -42.436279 652.808655
   vertex 231.052231 -42.281769 652.333191
   vertex 231.042038 -42.103409 652.916748
  endloop
 facet normal -0.999848 -0.000013 -0.017460
  outer loop
   vertex 231.042038 -42.103409 652.916748
   vertex 231.052231 -42.281769 652.333191
   vertex 231.043930 -42.436279 652.808655
  endloop
 facet normal -0.016477 -0.308897 0.950953
  outer loop
   vertex 231.043930 -42.436279 652.808655
   vertex 231.294250 -42.499989 652.792297
   vertex 231.042038 -42.103409 652.916748
  endloop
 facet normal -0.016575 -0.308953 0.950933
  outer loop
   vertex 231.042038 -42.103409 652.916748
   vertex 231.294250 -42.499989 652.792297
   vertex 231.467590 -42.211716 652.888977
  endloop
 facet normal -0.016567 -0.308958 0.950932
  outer loop
   vertex 231.467590 -42.211716 652.888977
   vertex 231.294250 -42.499989 652.792297
   vertex 231.478226 -42.674042 652.738953
  endloop
 facet normal -0.016720 -0.308960 0.950928
  outer loop
   vertex 231.478226 -42.674042 652.738953
   vertex 231.780334 -42.507607 652.798340
   vertex 231.467590 -42.211716 652.888977
  endloop
 facet normal -0.016719 -0.308960 0.950928
  outer loop
   vertex 231.546555 -42.911808 652.662903
   vertex 231.780334 -42.507607 652.798340
   vertex 231.478226 -42.674042 652.738953
  endloop
 facet normal -0.016585 -0.309031 0.950907
  outer loop
   vertex 231.896500 -42.911808 652.669006
   vertex 231.780334 -42.507607 652.798340
   vertex 231.546555 -42.911808 652.662903
  endloop
 facet normal -0.016585 -0.309090 0.950888
  outer loop
   vertex 231.546555 -42.911808 652.662903
   vertex 231.480927 -43.149570 652.584473
   vertex 231.896500 -42.911808 652.669006
  endloop
 facet normal -0.016635 -0.309011 0.950913
  outer loop
   vertex 231.896500 -42.911808 652.669006
   vertex 231.480927 -43.149570 652.584473
   vertex 231.784927 -43.316006 652.535706
  endloop
 facet normal -0.016649 -0.309034 0.950905
  outer loop
   vertex 231.784927 -43.316006 652.535706
   vertex 231.480927 -43.149570 652.584473
   vertex 231.298920 -43.323627 652.524719
  endloop
 facet normal -0.016650 -0.308983 0.950922
  outer loop
   vertex 231.298920 -43.323627 652.524719
   vertex 231.475525 -43.611900 652.434143
   vertex 231.784927 -43.316006 652.535706
  endloop
 facet normal -0.016700 -0.309010 0.950912
  outer loop
   vertex 231.049316 -43.387333 652.499634
   vertex 231.475525 -43.611900 652.434143
   vertex 231.298920 -43.323627 652.524719
  endloop
 facet normal -0.016635 -0.308897 0.950950
  outer loop
   vertex 231.051208 -43.720203 652.391541
   vertex 231.475525 -43.611900 652.434143
   vertex 231.049316 -43.387333 652.499634
  endloop
 facet normal -0.016472 -0.308897 0.950953
  outer loop
   vertex 231.049316 -43.387333 652.499634
   vertex 230.798996 -43.323627 652.515991
   vertex 231.051208 -43.720203 652.391541
  endloop
 facet normal -0.016602 -0.308972 0.950926
  outer loop
   vertex 231.051208 -43.720203 652.391541
   vertex 230.798996 -43.323627 652.515991
   vertex 230.051361 -43.720203 652.374084
  endloop
 facet normal -0.016597 -0.308980 0.950924
  outer loop
   vertex 230.051361 -43.720203 652.374084
   vertex 230.798996 -43.323627 652.515991
   vertex 230.615021 -43.149570 652.569336
  endloop
 facet normal -0.016446 -0.309115 0.950882
  outer loop
   vertex 230.615021 -43.149570 652.569336
   vertex 230.546707 -42.911808 652.645447
   vertex 230.051361 -43.720203 652.374084
  endloop
 facet normal -0.440589 0.275122 -0.854511
  outer loop
   vertex 232.018967 -40.683651 652.257874
   vertex 231.523605 -40.761307 652.488281
   vertex 232.012711 -39.581646 652.615906
  endloop
 facet normal -0.440504 0.275093 -0.854564
  outer loop
   vertex 232.012711 -39.581646 652.615906
   vertex 231.523605 -40.761307 652.488281
   vertex 231.517349 -39.659302 652.846252
  endloop
 facet normal -0.005418 0.951055 0.308973
  outer loop
   vertex 231.517349 -39.659302 652.846252
   vertex 231.498093 -40.017895 653.949707
   vertex 232.012711 -39.581646 652.615906
  endloop
 facet normal -0.999848 -0.000007 -0.017451
  outer loop
   vertex 231.523605 -40.761307 652.488281
   vertex 231.498093 -40.017895 653.949707
   vertex 231.517349 -39.659302 652.846252
  endloop
 facet normal -0.999848 -0.000007 -0.017451
  outer loop
   vertex 231.504349 -41.119900 653.591736
   vertex 231.498093 -40.017895 653.949707
   vertex 231.523605 -40.761307 652.488281
  endloop
 facet normal 0.005370 -0.951055 -0.308974
  outer loop
   vertex 231.523605 -40.761307 652.488281
   vertex 231.991364 -41.197556 653.839233
   vertex 231.504349 -41.119900 653.591736
  endloop
 facet normal -0.470068 -0.275097 0.838664
  outer loop
   vertex 231.504349 -41.119900 653.591736
   vertex 231.991364 -41.197556 653.839233
   vertex 231.498093 -40.017895 653.949707
  endloop
 facet normal -0.470150 -0.275126 0.838609
  outer loop
   vertex 231.498093 -40.017895 653.949707
   vertex 231.991364 -41.197556 653.839233
   vertex 231.985107 -40.095551 654.197266
  endloop
 facet normal -0.005410 0.951055 0.308976
  outer loop
   vertex 231.985107 -40.095551 654.197266
   vertex 232.012711 -39.581646 652.615906
   vertex 231.498093 -40.017895 653.949707
  endloop
 facet normal -0.005387 0.951055 0.308976
  outer loop
   vertex 232.814972 -40.022083 653.985596
   vertex 232.012711 -39.581646 652.615906
   vertex 231.985107 -40.095551 654.197266
  endloop
 facet normal -0.005386 0.951055 0.308976
  outer loop
   vertex 232.834686 -39.655117 652.856384
   vertex 232.012711 -39.581646 652.615906
   vertex 232.814972 -40.022083 653.985596
  endloop
 facet normal 0.999848 0.000004 0.017457
  outer loop
   vertex 232.814972 -40.022083 653.985596
   vertex 232.840942 -40.757118 652.498352
   vertex 232.834686 -39.655117 652.856384
  endloop
 facet normal 0.131008 -0.305658 0.943085
  outer loop
   vertex 232.834686 -39.655117 652.856384
   vertex 232.840942 -40.757118 652.498352
   vertex 232.933609 -39.650570 652.844116
  endloop
 facet normal 0.130997 -0.305657 0.943087
  outer loop
   vertex 232.933609 -39.650570 652.844116
   vertex 232.840942 -40.757118 652.498352
   vertex 232.939865 -40.752575 652.486084
  endloop
 facet normal 0.999848 0.000004 0.017459
  outer loop
   vertex 232.939865 -40.752575 652.486084
   vertex 232.936249 -39.601448 652.692932
   vertex 232.933609 -39.650570 652.844116
  endloop
 facet normal 0.999847 0.000003 0.017466
  outer loop
   vertex 232.942505 -40.703453 652.334961
   vertex 232.936249 -39.601448 652.692932
   vertex 232.939865 -40.752575 652.486084
  endloop
 facet normal 0.623558 0.244726 -0.742485
  outer loop
   vertex 232.860458 -40.683651 652.272583
   vertex 232.936249 -39.601448 652.692932
   vertex 232.942505 -40.703453 652.334961
  endloop
 facet normal 0.005397 -0.951043 -0.309011
  outer loop
   vertex 232.942505 -40.703453 652.334961
   vertex 232.840942 -40.757118 652.498352
   vertex 232.860458 -40.683651 652.272583
  endloop
 facet normal 0.005402 -0.951043 -0.309011
  outer loop
   vertex 232.860458 -40.683651 652.272583
   vertex 232.840942 -40.757118 652.498352
   vertex 232.018967 -40.683651 652.257874
  endloop
 facet normal 0.005391 -0.951054 -0.308978
  outer loop
   vertex 232.018967 -40.683651 652.257874
   vertex 232.840942 -40.757118 652.498352
   vertex 232.821228 -41.124088 653.627563
  endloop
 facet normal 0.005387 -0.951055 -0.308976
  outer loop
   vertex 232.821228 -41.124088 653.627563
   vertex 231.991364 -41.197556 653.839233
   vertex 232.018967 -40.683651 652.257874
  endloop
 facet normal 0.005400 -0.951070 -0.308929
  outer loop
   vertex 232.832855 -41.197556 653.853943
   vertex 231.991364 -41.197556 653.839233
   vertex 232.821228 -41.124088 653.627563
  endloop
 facet normal -0.016622 -0.309036 0.950905
  outer loop
   vertex 231.985107 -40.095551 654.197266
   vertex 231.991364 -41.197556 653.839233
   vertex 232.832855 -41.197556 653.853943
  endloop
 facet normal -0.016622 -0.309035 0.950905
  outer loop
   vertex 232.832855 -41.197556 653.853943
   vertex 232.826614 -40.095551 654.211975
   vertex 231.985107 -40.095551 654.197266
  endloop
 facet normal -0.005400 0.951070 0.308930
  outer loop
   vertex 231.985107 -40.095551 654.197266
   vertex 232.826614 -40.095551 654.211975
   vertex 232.814972 -40.022083 653.985596
  endloop
 facet normal -0.005296 0.951072 0.308925
  outer loop
   vertex 232.814972 -40.022083 653.985596
   vertex 232.826614 -40.095551 654.211975
   vertex 232.910767 -40.075752 654.152466
  endloop
 facet normal -0.005335 0.951065 0.308945
  outer loop
   vertex 232.910767 -40.075752 654.152466
   vertex 232.913406 -40.026627 654.001282
   vertex 232.814972 -40.022083 653.985596
  endloop
 facet normal 0.999848 0.000005 0.017459
  outer loop
   vertex 232.919662 -41.128632 653.643311
   vertex 232.913406 -40.026627 654.001282
   vertex 232.910767 -40.075752 654.152466
  endloop
 facet normal 0.163581 0.305624 -0.937996
  outer loop
   vertex 232.814972 -40.022083 653.985596
   vertex 232.913406 -40.026627 654.001282
   vertex 232.919662 -41.128632 653.643311
  endloop
 facet normal 0.164146 0.305644 -0.937890
  outer loop
   vertex 232.919662 -41.128632 653.643311
   vertex 232.821228 -41.124088 653.627563
   vertex 232.814972 -40.022083 653.985596
  endloop
 facet normal 0.999848 0.000004 0.017457
  outer loop
   vertex 232.814972 -40.022083 653.985596
   vertex 232.821228 -41.124088 653.627563
   vertex 232.840942 -40.757118 652.498352
  endloop
 facet normal -0.470150 -0.275126 0.838609
  outer loop
   vertex 231.934753 -31.217121 657.081604
   vertex 231.447739 -31.139465 656.834045
   vertex 231.941010 -32.319126 656.723572
  endloop
 facet normal -0.470068 -0.275097 0.838664
  outer loop
   vertex 231.941010 -32.319126 656.723572
   vertex 231.447739 -31.139465 656.834045
   vertex 231.453995 -32.241470 656.476074
  endloop
 facet normal 0.005370 -0.951055 -0.308974
  outer loop
   vertex 231.453995 -32.241470 656.476074
   vertex 231.473251 -31.882877 655.372620
   vertex 231.941010 -32.319126 656.723572
  endloop
 facet normal -0.999848 -0.000007 -0.017451
  outer loop
   vertex 231.447739 -31.139465 656.834045
   vertex 231.473251 -31.882877 655.372620
   vertex 231.453995 -32.241470 656.476074
  endloop
 facet normal -0.999848 0.000009 -0.017459
  outer loop
   vertex 231.467010 -30.780874 655.730591
   vertex 231.473251 -31.882877 655.372620
   vertex 231.447739 -31.139465 656.834045
  endloop
 facet normal -0.005419 0.951056 0.308971
  outer loop
   vertex 231.447739 -31.139465 656.834045
   vertex 231.962357 -30.703218 655.500244
   vertex 231.467010 -30.780874 655.730591
  endloop
 facet normal -0.440515 0.275097 -0.854557
  outer loop
   vertex 231.467010 -30.780874 655.730591
   vertex 231.962357 -30.703218 655.500244
   vertex 231.473251 -31.882877 655.372620
  endloop
 facet normal -0.440589 0.275123 -0.854511
  outer loop
   vertex 231.473251 -31.882877 655.372620
   vertex 231.962357 -30.703218 655.500244
   vertex 231.968613 -31.805222 655.142212
  endloop
 facet normal 0.005379 -0.951055 -0.308976
  outer loop
   vertex 231.968613 -31.805222 655.142212
   vertex 231.941010 -32.319126 656.723572
   vertex 231.473251 -31.882877 655.372620
  endloop
 facet normal 0.005390 -0.951055 -0.308976
  outer loop
   vertex 232.790588 -31.878689 655.382690
   vertex 231.941010 -32.319126 656.723572
   vertex 231.968613 -31.805222 655.142212
  endloop
 facet normal 0.005419 -0.951060 -0.308960
  outer loop
   vertex 232.770874 -32.245655 656.511963
   vertex 231.941010 -32.319126 656.723572
   vertex 232.790588 -31.878689 655.382690
  endloop
 facet normal 0.999848 -0.000007 0.017453
  outer loop
   vertex 232.790588 -31.878689 655.382690
   vertex 232.764633 -31.143654 656.869934
   vertex 232.770874 -32.245655 656.511963
  endloop
 facet normal 0.163592 0.305622 -0.937994
  outer loop
   vertex 232.770874 -32.245655 656.511963
   vertex 232.764633 -31.143654 656.869934
   vertex 232.869308 -32.250202 656.527649
  endloop
 facet normal 0.164146 0.305642 -0.937891
  outer loop
   vertex 232.869308 -32.250202 656.527649
   vertex 232.764633 -31.143654 656.869934
   vertex 232.863068 -31.148197 656.885681
  endloop
 facet normal 0.999848 -0.000009 0.017455
  outer loop
   vertex 232.863068 -31.148197 656.885681
   vertex 232.866669 -32.299324 656.678833
   vertex 232.869308 -32.250202 656.527649
  endloop
 facet normal 0.999848 -0.000010 0.017462
  outer loop
   vertex 232.860428 -31.197321 657.036804
   vertex 232.866669 -32.299324 656.678833
   vertex 232.863068 -31.148197 656.885681
  endloop
 facet normal 0.597481 -0.244676 0.763643
  outer loop
   vertex 232.776260 -31.217121 657.096313
   vertex 232.866669 -32.299324 656.678833
   vertex 232.860428 -31.197321 657.036804
  endloop
 facet normal -0.005316 0.951071 0.308926
  outer loop
   vertex 232.860428 -31.197321 657.036804
   vertex 232.764633 -31.143654 656.869934
   vertex 232.776260 -31.217121 657.096313
  endloop
 facet normal -0.005400 0.951070 0.308929
  outer loop
   vertex 232.776260 -31.217121 657.096313
   vertex 232.764633 -31.143654 656.869934
   vertex 231.934753 -31.217121 657.081604
  endloop
 facet normal -0.005387 0.951054 0.308977
  outer loop
   vertex 231.934753 -31.217121 657.081604
   vertex 232.764633 -31.143654 656.869934
   vertex 232.784332 -30.776686 655.740723
  endloop
 facet normal -0.005390 0.951055 0.308975
  outer loop
   vertex 232.784332 -30.776686 655.740723
   vertex 231.962357 -30.703218 655.500244
   vertex 231.934753 -31.217121 657.081604
  endloop
 facet normal -0.005378 0.951067 0.308937
  outer loop
   vertex 232.803864 -30.703218 655.514893
   vertex 231.962357 -30.703218 655.500244
   vertex 232.784332 -30.776686 655.740723
  endloop
 facet normal 0.016553 0.309036 -0.950906
  outer loop
   vertex 231.968613 -31.805222 655.142212
   vertex 231.962357 -30.703218 655.500244
   vertex 232.803864 -30.703218 655.514893
  endloop
 facet normal 0.016622 0.308988 -0.950921
  outer loop
   vertex 232.803864 -30.703218 655.514893
   vertex 232.810120 -31.805222 655.156921
   vertex 231.968613 -31.805222 655.142212
  endloop
 facet normal 0.005401 -0.951043 -0.309011
  outer loop
   vertex 231.968613 -31.805222 655.142212
   vertex 232.810120 -31.805222 655.156921
   vertex 232.790588 -31.878689 655.382690
  endloop
 facet normal 0.005419 -0.951044 -0.309009
  outer loop
   vertex 232.790588 -31.878689 655.382690
   vertex 232.810120 -31.805222 655.156921
   vertex 232.892151 -31.825022 655.219299
  endloop
 facet normal 0.005352 -0.951032 -0.309047
  outer loop
   vertex 232.892151 -31.825022 655.219299
   vertex 232.889511 -31.874146 655.370422
   vertex 232.790588 -31.878689 655.382690
  endloop
 facet normal 0.999847 0.000002 0.017466
  outer loop
   vertex 232.883255 -30.772142 655.728455
   vertex 232.889511 -31.874146 655.370422
   vertex 232.892151 -31.825022 655.219299
  endloop
 facet normal 0.130997 -0.305658 0.943087
  outer loop
   vertex 232.790588 -31.878689 655.382690
   vertex 232.889511 -31.874146 655.370422
   vertex 232.883255 -30.772142 655.728455
  endloop
 facet normal 0.130997 -0.305658 0.943087
  outer loop
   vertex 232.883255 -30.772142 655.728455
   vertex 232.784332 -30.776686 655.740723
   vertex 232.790588 -31.878689 655.382690
  endloop
 facet normal 0.999848 0.000008 0.017445
  outer loop
   vertex 232.790588 -31.878689 655.382690
   vertex 232.784332 -30.776686 655.740723
   vertex 232.764633 -31.143654 656.869934
  endloop
 facet normal 0.016520 0.309055 -0.950901
  outer loop
   vertex 231.052231 -42.281769 652.333191
   vertex 231.050339 -41.948898 652.441345
   vertex 231.302551 -42.345478 652.316833
  endloop
 facet normal 0.016618 0.309111 -0.950881
  outer loop
   vertex 231.302551 -42.345478 652.316833
   vertex 231.050339 -41.948898 652.441345
   vertex 231.475891 -42.057205 652.413574
  endloop
 facet normal 0.016692 0.309071 -0.950893
  outer loop
   vertex 231.475891 -42.057205 652.413574
   vertex 231.486526 -42.519535 652.263489
   vertex 231.302551 -42.345478 652.316833
  endloop
 facet normal 0.016652 0.309070 -0.950893
  outer loop
   vertex 231.788635 -42.353100 652.322876
   vertex 231.486526 -42.519535 652.263489
   vertex 231.475891 -42.057205 652.413574
  endloop
 facet normal 0.016717 0.308964 -0.950927
  outer loop
   vertex 231.554855 -42.757298 652.187439
   vertex 231.486526 -42.519535 652.263489
   vertex 231.788635 -42.353100 652.322876
  endloop
 facet normal 0.016585 0.309034 -0.950906
  outer loop
   vertex 231.788635 -42.353100 652.322876
   vertex 231.904800 -42.757298 652.193542
   vertex 231.554855 -42.757298 652.187439
  endloop
 facet normal 0.016585 0.309089 -0.950889
  outer loop
   vertex 231.554855 -42.757298 652.187439
   vertex 231.904800 -42.757298 652.193542
   vertex 231.489212 -42.995060 652.109009
  endloop
 facet normal 0.016634 0.309011 -0.950913
  outer loop
   vertex 231.489212 -42.995060 652.109009
   vertex 231.904800 -42.757298 652.193542
   vertex 231.793228 -43.161495 652.060242
  endloop
 facet normal 0.016649 0.309036 -0.950905
  outer loop
   vertex 231.793228 -43.161495 652.060242
   vertex 231.307220 -43.169117 652.049255
   vertex 231.489212 -42.995060 652.109009
  endloop
 facet normal 0.016650 0.308983 -0.950922
  outer loop
   vertex 231.483826 -43.457390 651.958679
   vertex 231.307220 -43.169117 652.049255
   vertex 231.793228 -43.161495 652.060242
  endloop
 facet normal 0.016496 0.308898 -0.950952
  outer loop
   vertex 231.057617 -43.232826 652.024231
   vertex 231.307220 -43.169117 652.049255
   vertex 231.483826 -43.457390 651.958679
  endloop
 facet normal 0.016587 0.309055 -0.950900
  outer loop
   vertex 231.483826 -43.457390 651.958679
   vertex 231.059509 -43.565697 651.916077
   vertex 231.057617 -43.232826 652.024231
  endloop
 facet normal 0.016752 0.309055 -0.950897
  outer loop
   vertex 231.057617 -43.232826 652.024231
   vertex 231.059509 -43.565697 651.916077
   vertex 230.807297 -43.169117 652.040527
  endloop
 facet normal 0.016602 0.308969 -0.950927
  outer loop
   vertex 230.807297 -43.169117 652.040527
   vertex 231.059509 -43.565697 651.916077
   vertex 230.059662 -43.565697 651.898621
  endloop
 facet normal 0.016596 0.308979 -0.950924
  outer loop
   vertex 230.059662 -43.565697 651.898621
   vertex 230.623322 -42.995060 652.093872
   vertex 230.807297 -43.169117 652.040527
  endloop
 facet normal 0.016444 0.309115 -0.950882
  outer loop
   vertex 230.554993 -42.757298 652.169983
   vertex 230.623322 -42.995060 652.093872
   vertex 230.059662 -43.565697 651.898621
  endloop
 facet normal -0.016682 -0.309057 0.950897
  outer loop
   vertex 230.971237 -29.619003 656.972595
   vertex 230.973129 -29.951872 656.864441
   vertex 231.220840 -29.555294 656.997681
  endloop
 facet normal -0.016569 -0.309121 0.950878
  outer loop
   vertex 231.220840 -29.555294 656.997681
   vertex 230.973129 -29.951872 656.864441
   vertex 231.397446 -29.843567 656.907043
  endloop
 facet normal -0.016363 -0.309008 0.950919
  outer loop
   vertex 231.397446 -29.843567 656.907043
   vertex 231.402847 -29.381239 657.057373
   vertex 231.220840 -29.555294 656.997681
  endloop
 facet normal -0.016630 -0.309003 0.950916
  outer loop
   vertex 231.706848 -29.547674 657.008606
   vertex 231.402847 -29.381239 657.057373
   vertex 231.397446 -29.843567 656.907043
  endloop
 facet normal -0.016668 -0.309066 0.950894
  outer loop
   vertex 231.468475 -29.143475 657.135803
   vertex 231.402847 -29.381239 657.057373
   vertex 231.706848 -29.547674 657.008606
  endloop
 facet normal -0.016585 -0.309022 0.950910
  outer loop
   vertex 231.706848 -29.547674 657.008606
   vertex 231.818420 -29.143475 657.141907
   vertex 231.468475 -29.143475 657.135803
  endloop
 facet normal -0.016584 -0.309149 0.950869
  outer loop
   vertex 231.468475 -29.143475 657.135803
   vertex 231.818420 -29.143475 657.141907
   vertex 231.400146 -28.905710 657.211914
  endloop
 facet normal -0.016498 -0.309010 0.950916
  outer loop
   vertex 231.400146 -28.905710 657.211914
   vertex 231.818420 -29.143475 657.141907
   vertex 231.702255 -28.739275 657.271240
  endloop
 facet normal -0.016545 -0.308933 0.950940
  outer loop
   vertex 231.702255 -28.739275 657.271240
   vertex 231.216171 -28.731655 657.265259
   vertex 231.400146 -28.905710 657.211914
  endloop
 facet normal -0.016545 -0.308970 0.950928
  outer loop
   vertex 231.389511 -28.443382 657.361938
   vertex 231.216171 -28.731655 657.265259
   vertex 231.702255 -28.739275 657.271240
  endloop
 facet normal -0.016705 -0.308882 0.950954
  outer loop
   vertex 230.965851 -28.667946 657.281555
   vertex 231.216171 -28.731655 657.265259
   vertex 231.389511 -28.443382 657.361938
  endloop
 facet normal -0.016602 -0.309057 0.950899
  outer loop
   vertex 231.389511 -28.443382 657.361938
   vertex 230.963959 -28.335077 657.389709
   vertex 230.965851 -28.667946 657.281555
  endloop
 facet normal -0.016450 -0.309057 0.950901
  outer loop
   vertex 230.965851 -28.667946 657.281555
   vertex 230.963959 -28.335077 657.389709
   vertex 230.716248 -28.731655 657.256531
  endloop
 facet normal -0.016602 -0.308970 0.950927
  outer loop
   vertex 230.716248 -28.731655 657.256531
   vertex 230.963959 -28.335077 657.389709
   vertex 229.964111 -28.335077 657.372253
  endloop
 facet normal -0.016644 -0.309043 0.950902
  outer loop
   vertex 229.964111 -28.335077 657.372253
   vertex 230.534256 -28.905710 657.196777
   vertex 230.716248 -28.731655 657.256531
  endloop
 facet normal -0.016669 -0.309066 0.950895
  outer loop
   vertex 230.468628 -29.143475 657.118347
   vertex 230.534256 -28.905710 657.196777
   vertex 229.964111 -28.335077 657.372253
  endloop
 facet normal -0.016661 -0.308995 0.950918
  outer loop
   vertex 230.051361 -43.720203 652.374084
   vertex 230.546707 -42.911808 652.645447
   vertex 230.042191 -42.103409 652.899292
  endloop
 facet normal -0.016477 -0.308892 0.950954
  outer loop
   vertex 230.042191 -42.103409 652.899292
   vertex 230.546707 -42.911808 652.645447
   vertex 230.612335 -42.674042 652.723816
  endloop
 facet normal -0.016646 -0.309045 0.950902
  outer loop
   vertex 230.612335 -42.674042 652.723816
   vertex 230.794327 -42.499989 652.783569
   vertex 230.042191 -42.103409 652.899292
  endloop
 facet normal -0.016645 -0.309029 0.950907
  outer loop
   vertex 230.720917 -29.555294 656.988953
   vertex 230.536942 -29.381239 657.042297
   vertex 229.973282 -29.951872 656.846985
  endloop
 facet normal -0.016720 -0.308962 0.950928
  outer loop
   vertex 229.973282 -29.951872 656.846985
   vertex 230.536942 -29.381239 657.042297
   vertex 230.468628 -29.143475 657.118347
  endloop
 facet normal -0.016601 -0.309028 0.950908
  outer loop
   vertex 230.468628 -29.143475 657.118347
   vertex 229.964111 -28.335077 657.372253
   vertex 229.973282 -29.951872 656.846985
  endloop
 facet normal 0.016545 0.308995 -0.950920
  outer loop
   vertex 229.972412 -28.180567 656.896790
   vertex 230.476913 -28.988966 656.642883
   vertex 229.981583 -29.797363 656.371582
  endloop
 facet normal 0.016640 0.308942 -0.950935
  outer loop
   vertex 229.981583 -29.797363 656.371582
   vertex 230.476913 -28.988966 656.642883
   vertex 230.545242 -29.226730 656.566833
  endloop
 facet normal 0.016595 0.308982 -0.950923
  outer loop
   vertex 230.545242 -29.226730 656.566833
   vertex 230.729218 -29.400785 656.513489
   vertex 229.981583 -29.797363 656.371582
  endloop
 facet normal 0.016594 0.309088 -0.950889
  outer loop
   vertex 230.802628 -42.345478 652.308105
   vertex 230.620636 -42.519535 652.248352
   vertex 230.050491 -41.948898 652.423889
  endloop
 facet normal 0.016402 0.308915 -0.950948
  outer loop
   vertex 230.050491 -41.948898 652.423889
   vertex 230.620636 -42.519535 652.248352
   vertex 230.554993 -42.757298 652.169983
  endloop
 facet normal 0.016602 0.309027 -0.950908
  outer loop
   vertex 230.554993 -42.757298 652.169983
   vertex 230.059662 -43.565697 651.898621
   vertex 230.050491 -41.948898 652.423889
  endloop
 facet normal 0.623626 0.244710 -0.742434
  outer loop
   vertex 232.803864 -30.703218 655.514893
   vertex 232.885895 -30.723019 655.577271
   vertex 232.810120 -31.805222 655.156921
  endloop
 facet normal 0.623626 0.244710 -0.742434
  outer loop
   vertex 232.810120 -31.805222 655.156921
   vertex 232.885895 -30.723019 655.577271
   vertex 232.892151 -31.825022 655.219299
  endloop
 facet normal -0.016652 -0.309019 0.950910
  outer loop
   vertex 232.088181 -40.937889 653.841125
   vertex 232.701630 -40.937889 653.851868
   vertex 232.034256 -31.427320 656.930847
  endloop
 facet normal -0.016652 -0.309019 0.950910
  outer loop
   vertex 232.034256 -31.427320 656.930847
   vertex 232.701630 -40.937889 653.851868
   vertex 232.647690 -31.427320 656.941589
  endloop
 facet normal 0.597547 -0.244691 0.763586
  outer loop
   vertex 232.910767 -40.075752 654.152466
   vertex 232.826614 -40.095551 654.211975
   vertex 232.917023 -41.177753 653.794434
  endloop
 facet normal 0.597485 -0.244713 0.763628
  outer loop
   vertex 232.917023 -41.177753 653.794434
   vertex 232.826614 -40.095551 654.211975
   vertex 232.832855 -41.197556 653.853943
  endloop
 facet normal 0.999848 0.000011 0.017459
  outer loop
   vertex 230.974152 -28.513437 656.806091
   vertex 230.972260 -28.180567 656.914246
   vertex 230.969055 -28.424257 657.097900
  endloop
 facet normal -0.005409 0.951055 0.308975
  outer loop
   vertex 231.934753 -31.217121 657.081604
   vertex 231.962357 -30.703218 655.500244
   vertex 231.447739 -31.139465 656.834045
  endloop
 facet normal -0.016521 -0.309057 0.950900
  outer loop
   vertex 230.973129 -29.951872 656.864441
   vertex 230.971237 -29.619003 656.972595
   vertex 230.720917 -29.555294 656.988953
  endloop
 facet normal -0.016728 -0.308897 0.950948
  outer loop
   vertex 231.043930 -42.436279 652.808655
   vertex 231.042038 -42.103409 652.916748
   vertex 230.794327 -42.499989 652.783569
  endloop
 facet normal -0.999848 -0.000011 -0.017459
  outer loop
   vertex 230.972260 -28.180567 656.914246
   vertex 230.965851 -28.667946 657.281555
   vertex 230.963959 -28.335077 657.389709
  endloop
 facet normal 0.016611 0.309009 -0.950914
  outer loop
   vertex 231.662857 -40.534119 652.588440
   vertex 231.671753 -42.101608 652.079224
   vertex 230.130936 -42.101608 652.052307
  endloop
 facet normal -0.016612 -0.309008 0.950914
  outer loop
   vertex 230.049591 -31.366655 656.711914
   vertex 231.590408 -31.366655 656.738831
   vertex 230.040710 -29.799162 657.221130
  endloop
 facet normal -0.999848 -0.000011 -0.017459
  outer loop
   vertex 231.051208 -43.720203 652.391541
   vertex 231.057617 -43.232826 652.024231
   vertex 231.059509 -43.565697 651.916077
  endloop
 facet normal 0.005353 -0.951035 -0.309036
  outer loop
   vertex 232.942505 -40.703453 652.334961
   vertex 232.939865 -40.752575 652.486084
   vertex 232.840942 -40.757118 652.498352
  endloop
 facet normal -0.999848 -0.000011 -0.017459
  outer loop
   vertex 230.971237 -29.619003 656.972595
   vertex 230.981430 -29.797363 656.388977
   vertex 230.973129 -29.951872 656.864441
  endloop
 facet normal 0.005379 -0.951055 -0.308976
  outer loop
   vertex 232.018967 -40.683651 652.257874
   vertex 231.991364 -41.197556 653.839233
   vertex 231.523605 -40.761307 652.488281
  endloop
 facet normal -0.005544 0.951032 0.309044
  outer loop
   vertex 232.860428 -31.197321 657.036804
   vertex 232.863068 -31.148197 656.885681
   vertex 232.764633 -31.143654 656.869934
  endloop
 facet normal 0.016574 0.309009 -0.950915
  outer loop
   vertex 231.608917 -31.022120 655.678589
   vertex 230.068100 -31.022120 655.651733
   vertex 230.059219 -29.454628 656.160950
  endloop
 facet normal -0.005385 0.951059 0.308962
  outer loop
   vertex 230.122040 -40.534115 652.561523
   vertex 230.103546 -40.878651 653.621765
   vertex 231.644348 -40.878651 653.648621
  endloop
 facet normal -0.999848 -0.000010 -0.017461
  outer loop
   vertex 231.052231 -42.281769 652.333191
   vertex 231.042038 -42.103409 652.916748
   vertex 231.050339 -41.948898 652.441345
  endloop
 facet normal 0.016683 0.309055 -0.950898
  outer loop
   vertex 231.050339 -41.948898 652.441345
   vertex 231.052231 -42.281769 652.333191
   vertex 230.802628 -42.345478 652.308105
  endloop
 facet normal 0.710828 -0.672486 -0.206121
  outer loop
   vertex 230.620636 -42.519535 652.248352
   vertex 230.794327 -42.499989 652.783569
   vertex 230.612335 -42.674042 652.723816
  endloop
 facet normal 0.967158 -0.246214 -0.063125
  outer loop
   vertex 230.620636 -42.519535 652.248352
   vertex 230.612335 -42.674042 652.723816
   vertex 230.554993 -42.757298 652.169983
  endloop
 facet normal 0.967174 -0.246148 -0.063136
  outer loop
   vertex 230.554993 -42.757298 652.169983
   vertex 230.612335 -42.674042 652.723816
   vertex 230.546707 -42.911808 652.645447
  endloop
 facet normal 0.964383 0.246160 0.096800
  outer loop
   vertex 230.546707 -42.911808 652.645447
   vertex 230.623322 -42.995060 652.093872
   vertex 230.554993 -42.757298 652.169983
  endloop
 facet normal 0.964398 0.246099 0.096811
  outer loop
   vertex 230.615021 -43.149570 652.569336
   vertex 230.623322 -42.995060 652.093872
   vertex 230.546707 -42.911808 652.645447
  endloop
 facet normal 0.703178 0.672506 0.230819
  outer loop
   vertex 230.807297 -43.169117 652.040527
   vertex 230.623322 -42.995060 652.093872
   vertex 230.615021 -43.149570 652.569336
  endloop
 facet normal 0.703178 0.672506 0.230819
  outer loop
   vertex 230.615021 -43.149570 652.569336
   vertex 230.798996 -43.323627 652.515991
   vertex 230.807297 -43.169117 652.040527
  endloop
 facet normal 0.253532 0.918660 0.302961
  outer loop
   vertex 230.807297 -43.169117 652.040527
   vertex 230.798996 -43.323627 652.515991
   vertex 231.057617 -43.232826 652.024231
  endloop
 facet normal 0.263949 -0.918662 -0.293924
  outer loop
   vertex 230.974152 -28.513437 656.806091
   vertex 230.965851 -28.667946 657.281555
   vertex 230.724548 -28.577147 656.781067
  endloop
 facet normal 0.263949 -0.918662 -0.293924
  outer loop
   vertex 230.724548 -28.577147 656.781067
   vertex 230.965851 -28.667946 657.281555
   vertex 230.716248 -28.731655 657.256531
  endloop
 facet normal 0.710832 -0.672482 -0.206122
  outer loop
   vertex 230.716248 -28.731655 657.256531
   vertex 230.542557 -28.751202 656.721313
   vertex 230.724548 -28.577147 656.781067
  endloop
 facet normal 0.710832 -0.672482 -0.206122
  outer loop
   vertex 230.534256 -28.905710 657.196777
   vertex 230.542557 -28.751202 656.721313
   vertex 230.716248 -28.731655 657.256531
  endloop
 facet normal 0.967162 -0.246198 -0.063121
  outer loop
   vertex 230.476913 -28.988966 656.642883
   vertex 230.542557 -28.751202 656.721313
   vertex 230.534256 -28.905710 657.196777
  endloop
 facet normal 0.967177 -0.246137 -0.063131
  outer loop
   vertex 230.534256 -28.905710 657.196777
   vertex 230.468628 -29.143475 657.118347
   vertex 230.476913 -28.988966 656.642883
  endloop
 facet normal 0.964378 0.246180 0.096805
  outer loop
   vertex 230.476913 -28.988966 656.642883
   vertex 230.468628 -29.143475 657.118347
   vertex 230.545242 -29.226730 656.566833
  endloop
 facet normal 0.964392 0.246119 0.096816
  outer loop
   vertex 230.545242 -29.226730 656.566833
   vertex 230.468628 -29.143475 657.118347
   vertex 230.536942 -29.381239 657.042297
  endloop
 facet normal 0.703174 0.672510 0.230818
  outer loop
   vertex 230.536942 -29.381239 657.042297
   vertex 230.729218 -29.400785 656.513489
   vertex 230.545242 -29.226730 656.566833
  endloop
 facet normal 0.253574 0.918638 0.302994
  outer loop
   vertex 231.050339 -41.948898 652.441345
   vertex 231.042038 -42.103409 652.916748
   vertex 231.475891 -42.057205 652.413574
  endloop
 facet normal 0.253574 0.918638 0.302994
  outer loop
   vertex 231.475891 -42.057205 652.413574
   vertex 231.042038 -42.103409 652.916748
   vertex 231.467590 -42.211716 652.888977
  endloop
 facet normal 0.703195 0.672480 0.230841
  outer loop
   vertex 231.467590 -42.211716 652.888977
   vertex 231.788635 -42.353100 652.322876
   vertex 231.475891 -42.057205 652.413574
  endloop
 facet normal 0.703169 0.672516 0.230817
  outer loop
   vertex 231.780334 -42.507607 652.798340
   vertex 231.788635 -42.353100 652.322876
   vertex 231.467590 -42.211716 652.888977
  endloop
 facet normal 0.964376 0.246174 0.096833
  outer loop
   vertex 231.904800 -42.757298 652.193542
   vertex 231.788635 -42.353100 652.322876
   vertex 231.780334 -42.507607 652.798340
  endloop
 facet normal 0.964377 0.246172 0.096834
  outer loop
   vertex 231.780334 -42.507607 652.798340
   vertex 231.896500 -42.911808 652.669006
   vertex 231.904800 -42.757298 652.193542
  endloop
 facet normal 0.967173 -0.246160 -0.063109
  outer loop
   vertex 231.904800 -42.757298 652.193542
   vertex 231.896500 -42.911808 652.669006
   vertex 231.793228 -43.161495 652.060242
  endloop
 facet normal 0.967173 -0.246160 -0.063109
  outer loop
   vertex 231.793228 -43.161495 652.060242
   vertex 231.896500 -42.911808 652.669006
   vertex 231.784927 -43.316006 652.535706
  endloop
 facet normal 0.710808 -0.672504 -0.206133
  outer loop
   vertex 231.784927 -43.316006 652.535706
   vertex 231.483826 -43.457390 651.958679
   vertex 231.793228 -43.161495 652.060242
  endloop
 facet normal 0.710808 -0.672504 -0.206133
  outer loop
   vertex 231.475525 -43.611900 652.434143
   vertex 231.483826 -43.457390 651.958679
   vertex 231.784927 -43.316006 652.535706
  endloop
 facet normal 0.263996 -0.918649 -0.293922
  outer loop
   vertex 231.059509 -43.565697 651.916077
   vertex 231.483826 -43.457390 651.958679
   vertex 231.475525 -43.611900 652.434143
  endloop
 facet normal 0.263988 -0.918653 -0.293917
  outer loop
   vertex 231.475525 -43.611900 652.434143
   vertex 231.051208 -43.720203 652.391541
   vertex 231.059509 -43.565697 651.916077
  endloop
 facet normal 0.253571 0.918650 0.302959
  outer loop
   vertex 230.972260 -28.180567 656.914246
   vertex 230.963959 -28.335077 657.389709
   vertex 231.397812 -28.288872 656.886475
  endloop
 facet normal 0.253571 0.918650 0.302959
  outer loop
   vertex 231.397812 -28.288872 656.886475
   vertex 230.963959 -28.335077 657.389709
   vertex 231.389511 -28.443382 657.361938
  endloop
 facet normal 0.703195 0.672489 0.230814
  outer loop
   vertex 231.389511 -28.443382 657.361938
   vertex 231.710556 -28.584766 656.795776
   vertex 231.397812 -28.288872 656.886475
  endloop
 facet normal 0.703193 0.672492 0.230812
  outer loop
   vertex 231.702255 -28.739275 657.271240
   vertex 231.710556 -28.584766 656.795776
   vertex 231.389511 -28.443382 657.361938
  endloop
 facet normal 0.964376 0.246173 0.096834
  outer loop
   vertex 231.826721 -28.988966 656.666443
   vertex 231.710556 -28.584766 656.795776
   vertex 231.702255 -28.739275 657.271240
  endloop
 facet normal 0.964376 0.246173 0.096834
  outer loop
   vertex 231.702255 -28.739275 657.271240
   vertex 231.818420 -29.143475 657.141907
   vertex 231.826721 -28.988966 656.666443
  endloop
 facet normal 0.967173 -0.246160 -0.063108
  outer loop
   vertex 231.826721 -28.988966 656.666443
   vertex 231.818420 -29.143475 657.141907
   vertex 231.715149 -29.393164 656.533142
  endloop
 facet normal 0.967173 -0.246159 -0.063109
  outer loop
   vertex 231.715149 -29.393164 656.533142
   vertex 231.818420 -29.143475 657.141907
   vertex 231.706848 -29.547674 657.008606
  endloop
 facet normal 0.710808 -0.672504 -0.206133
  outer loop
   vertex 231.706848 -29.547674 657.008606
   vertex 231.405746 -29.689058 656.431580
   vertex 231.715149 -29.393164 656.533142
  endloop
 facet normal 0.710806 -0.672507 -0.206131
  outer loop
   vertex 231.397446 -29.843567 656.907043
   vertex 231.405746 -29.689058 656.431580
   vertex 231.706848 -29.547674 657.008606
  endloop
 facet normal 0.263992 -0.918651 -0.293920
  outer loop
   vertex 230.981430 -29.797363 656.388977
   vertex 231.405746 -29.689058 656.431580
   vertex 231.397446 -29.843567 656.907043
  endloop
 facet normal 0.263992 -0.918651 -0.293920
  outer loop
   vertex 231.397446 -29.843567 656.907043
   vertex 230.973129 -29.951872 656.864441
   vertex 230.981430 -29.797363 656.388977
  endloop
 facet normal 0.703174 0.672510 0.230818
  outer loop
   vertex 230.536942 -29.381239 657.042297
   vertex 230.720917 -29.555294 656.988953
   vertex 230.729218 -29.400785 656.513489
  endloop
 facet normal 0.253601 0.918643 0.302953
  outer loop
   vertex 230.729218 -29.400785 656.513489
   vertex 230.720917 -29.555294 656.988953
   vertex 230.971237 -29.619003 656.972595
  endloop
 facet normal 0.253601 0.918643 0.302953
  outer loop
   vertex 230.971237 -29.619003 656.972595
   vertex 230.979538 -29.464495 656.497131
   vertex 230.729218 -29.400785 656.513489
  endloop
 facet normal -0.264016 0.918645 0.293917
  outer loop
   vertex 231.220840 -29.555294 656.997681
   vertex 230.979538 -29.464495 656.497131
   vertex 230.971237 -29.619003 656.972595
  endloop
 facet normal -0.264016 0.918645 0.293917
  outer loop
   vertex 231.229141 -29.400785 656.522217
   vertex 230.979538 -29.464495 656.497131
   vertex 231.220840 -29.555294 656.997681
  endloop
 facet normal -0.710768 0.672543 0.206143
  outer loop
   vertex 231.220840 -29.555294 656.997681
   vertex 231.402847 -29.381239 657.057373
   vertex 231.229141 -29.400785 656.522217
  endloop
 facet normal -0.710833 0.672467 0.206167
  outer loop
   vertex 231.229141 -29.400785 656.522217
   vertex 231.402847 -29.381239 657.057373
   vertex 231.411133 -29.226730 656.581970
  endloop
 facet normal -0.967177 0.246134 0.063139
  outer loop
   vertex 231.411133 -29.226730 656.581970
   vertex 231.402847 -29.381239 657.057373
   vertex 231.468475 -29.143475 657.135803
  endloop
 facet normal -0.967173 0.246150 0.063136
  outer loop
   vertex 231.468475 -29.143475 657.135803
   vertex 231.476761 -28.988966 656.660339
   vertex 231.411133 -29.226730 656.581970
  endloop
 facet normal -0.964384 -0.246159 -0.096798
  outer loop
   vertex 231.400146 -28.905710 657.211914
   vertex 231.476761 -28.988966 656.660339
   vertex 231.468475 -29.143475 657.135803
  endloop
 facet normal -0.964398 -0.246098 -0.096810
  outer loop
   vertex 231.408447 -28.751202 656.736450
   vertex 231.476761 -28.988966 656.660339
   vertex 231.400146 -28.905710 657.211914
  endloop
 facet normal -0.703174 -0.672510 -0.230818
  outer loop
   vertex 231.400146 -28.905710 657.211914
   vertex 231.216171 -28.731655 657.265259
   vertex 231.408447 -28.751202 656.736450
  endloop
 facet normal -0.703174 -0.672510 -0.230818
  outer loop
   vertex 231.408447 -28.751202 656.736450
   vertex 231.216171 -28.731655 657.265259
   vertex 231.224472 -28.577147 656.789795
  endloop
 facet normal -0.253532 -0.918661 -0.302958
  outer loop
   vertex 231.224472 -28.577147 656.789795
   vertex 231.216171 -28.731655 657.265259
   vertex 230.965851 -28.667946 657.281555
  endloop
 facet normal -0.253532 -0.918661 -0.302958
  outer loop
   vertex 230.965851 -28.667946 657.281555
   vertex 230.974152 -28.513437 656.806091
   vertex 231.224472 -28.577147 656.789795
  endloop
 facet normal 0.710835 -0.672478 -0.206124
  outer loop
   vertex 230.620636 -42.519535 652.248352
   vertex 230.802628 -42.345478 652.308105
   vertex 230.794327 -42.499989 652.783569
  endloop
 facet normal 0.264016 -0.918644 -0.293920
  outer loop
   vertex 230.794327 -42.499989 652.783569
   vertex 230.802628 -42.345478 652.308105
   vertex 231.052231 -42.281769 652.333191
  endloop
 facet normal 0.264016 -0.918644 -0.293920
  outer loop
   vertex 231.052231 -42.281769 652.333191
   vertex 231.043930 -42.436279 652.808655
   vertex 230.794327 -42.499989 652.783569
  endloop
 facet normal -0.253601 -0.918642 -0.302957
  outer loop
   vertex 231.302551 -42.345478 652.316833
   vertex 231.043930 -42.436279 652.808655
   vertex 231.052231 -42.281769 652.333191
  endloop
 facet normal -0.253601 -0.918642 -0.302957
  outer loop
   vertex 231.294250 -42.499989 652.792297
   vertex 231.043930 -42.436279 652.808655
   vertex 231.302551 -42.345478 652.316833
  endloop
 facet normal -0.703178 -0.672506 -0.230819
  outer loop
   vertex 231.302551 -42.345478 652.316833
   vertex 231.486526 -42.519535 652.263489
   vertex 231.294250 -42.499989 652.792297
  endloop
 facet normal -0.703171 -0.672514 -0.230816
  outer loop
   vertex 231.294250 -42.499989 652.792297
   vertex 231.486526 -42.519535 652.263489
   vertex 231.478226 -42.674042 652.738953
  endloop
 facet normal -0.964377 -0.246173 -0.096833
  outer loop
   vertex 231.478226 -42.674042 652.738953
   vertex 231.486526 -42.519535 652.263489
   vertex 231.554855 -42.757298 652.187439
  endloop
 facet normal -0.964378 -0.246169 -0.096833
  outer loop
   vertex 231.554855 -42.757298 652.187439
   vertex 231.546555 -42.911808 652.662903
   vertex 231.478226 -42.674042 652.738953
  endloop
 facet normal -0.967162 0.246200 0.063122
  outer loop
   vertex 231.489212 -42.995060 652.109009
   vertex 231.546555 -42.911808 652.662903
   vertex 231.554855 -42.757298 652.187439
  endloop
 facet normal -0.967176 0.246138 0.063133
  outer loop
   vertex 231.480927 -43.149570 652.584473
   vertex 231.546555 -42.911808 652.662903
   vertex 231.489212 -42.995060 652.109009
  endloop
 facet normal -0.710836 0.672471 0.206144
  outer loop
   vertex 231.489212 -42.995060 652.109009
   vertex 231.307220 -43.169117 652.049255
   vertex 231.480927 -43.149570 652.584473
  endloop
 facet normal -0.710806 0.672506 0.206133
  outer loop
   vertex 231.480927 -43.149570 652.584473
   vertex 231.307220 -43.169117 652.049255
   vertex 231.298920 -43.323627 652.524719
  endloop
 facet normal -0.263949 0.918661 0.293927
  outer loop
   vertex 231.298920 -43.323627 652.524719
   vertex 231.307220 -43.169117 652.049255
   vertex 231.057617 -43.232826 652.024231
  endloop
 facet normal -0.264003 0.918638 0.293949
  outer loop
   vertex 231.057617 -43.232826 652.024231
   vertex 231.049316 -43.387333 652.499634
   vertex 231.298920 -43.323627 652.524719
  endloop
 facet normal 0.253588 0.918636 0.302986
  outer loop
   vertex 230.798996 -43.323627 652.515991
   vertex 231.049316 -43.387333 652.499634
   vertex 231.057617 -43.232826 652.024231
  endloop
endsolid