solid stl file generated from DOUG
 facet normal -0.859116 0.314626 -0.403647
  outer loop
   vertex -13.575117 -79.623543 514.088257
   vertex -13.580623 -79.234055 514.403564
   vertex -13.446899 -79.486969 513.921814
  endloop
 facet normal -0.859109 0.314638 -0.403652
  outer loop
   vertex -13.446899 -79.486969 513.921814
   vertex -13.580623 -79.234055 514.403564
   vertex -13.452404 -79.097488 514.237122
  endloop
 facet normal 0.013440 0.629273 -0.777068
  outer loop
   vertex -13.452404 -79.097488 514.237122
   vertex -13.196352 -79.486969 513.926147
   vertex -13.446899 -79.486969 513.921814
  endloop
 facet normal 0.013628 0.629346 -0.777005
  outer loop
   vertex -13.201857 -79.097488 514.241516
   vertex -13.196352 -79.486969 513.926147
   vertex -13.452404 -79.097488 514.237122
  endloop
 facet normal 0.872693 0.314653 -0.373364
  outer loop
   vertex -13.074020 -79.623543 514.096985
   vertex -13.196352 -79.486969 513.926147
   vertex -13.201857 -79.097488 514.241516
  endloop
 facet normal 0.872690 0.314654 -0.373370
  outer loop
   vertex -13.201857 -79.097488 514.241516
   vertex -13.079526 -79.234055 514.412354
   vertex -13.074020 -79.623543 514.096985
  endloop
 facet normal 0.859114 -0.314666 0.403618
  outer loop
   vertex -13.074020 -79.623543 514.096985
   vertex -13.079526 -79.234055 514.412354
   vertex -13.202239 -79.760117 514.263428
  endloop
 facet normal 0.859116 -0.314665 0.403615
  outer loop
   vertex -13.202239 -79.760117 514.263428
   vertex -13.079526 -79.234055 514.412354
   vertex -13.207744 -79.370628 514.578796
  endloop
 facet normal -0.013629 -0.629339 0.777011
  outer loop
   vertex -13.207744 -79.370628 514.578796
   vertex -13.452786 -79.760117 514.259033
   vertex -13.202239 -79.760117 514.263428
  endloop
 facet normal -0.013629 -0.629339 0.777011
  outer loop
   vertex -13.458291 -79.370628 514.574402
   vertex -13.452786 -79.760117 514.259033
   vertex -13.207744 -79.370628 514.578796
  endloop
 facet normal -0.872650 -0.314697 0.373427
  outer loop
   vertex -13.575117 -79.623543 514.088257
   vertex -13.452786 -79.760117 514.259033
   vertex -13.458291 -79.370628 514.574402
  endloop
 facet normal -0.872693 -0.314615 0.373395
  outer loop
   vertex -13.458291 -79.370628 514.574402
   vertex -13.580623 -79.234055 514.403564
   vertex -13.575117 -79.623543 514.088257
  endloop
 facet normal 0.872647 0.314665 -0.373460
  outer loop
   vertex -35.171459 -79.234055 514.026672
   vertex -35.165955 -79.623543 513.711365
   vertex -35.293789 -79.097488 513.855896
  endloop
 facet normal 0.872696 0.314649 -0.373360
  outer loop
   vertex -35.293789 -79.097488 513.855896
   vertex -35.165955 -79.623543 513.711365
   vertex -35.288284 -79.486969 513.540527
  endloop
 facet normal 0.013629 0.629346 -0.777005
  outer loop
   vertex -35.288284 -79.486969 513.540527
   vertex -35.544334 -79.097488 513.851501
   vertex -35.293789 -79.097488 513.855896
  endloop
 facet normal 0.013629 0.629346 -0.777005
  outer loop
   vertex -35.538830 -79.486969 513.536133
   vertex -35.544334 -79.097488 513.851501
   vertex -35.288284 -79.486969 513.540527
  endloop
 facet normal -0.859108 0.314678 -0.403623
  outer loop
   vertex -35.672554 -79.234055 514.017944
   vertex -35.544334 -79.097488 513.851501
   vertex -35.538830 -79.486969 513.536133
  endloop
 facet normal -0.859113 0.314669 -0.403619
  outer loop
   vertex -35.538830 -79.486969 513.536133
   vertex -35.667049 -79.623543 513.702576
   vertex -35.672554 -79.234055 514.017944
  endloop
 facet normal -0.872696 -0.314646 0.373363
  outer loop
   vertex -35.672554 -79.234055 514.017944
   vertex -35.667049 -79.623543 513.702576
   vertex -35.550224 -79.370628 514.188782
  endloop
 facet normal -0.872691 -0.314655 0.373366
  outer loop
   vertex -35.550224 -79.370628 514.188782
   vertex -35.667049 -79.623543 513.702576
   vertex -35.544720 -79.760109 513.873413
  endloop
 facet normal -0.013439 -0.629346 0.777009
  outer loop
   vertex -35.544720 -79.760109 513.873413
   vertex -35.299675 -79.370628 514.193115
   vertex -35.550224 -79.370628 514.188782
  endloop
 facet normal -0.013629 -0.629273 0.777065
  outer loop
   vertex -35.294170 -79.760109 513.877808
   vertex -35.299675 -79.370628 514.193115
   vertex -35.544720 -79.760109 513.873413
  endloop
 facet normal 0.859119 -0.314627 0.403639
  outer loop
   vertex -35.171459 -79.234055 514.026672
   vertex -35.299675 -79.370628 514.193115
   vertex -35.294170 -79.760109 513.877808
  endloop
 facet normal 0.859114 -0.314629 0.403648
  outer loop
   vertex -35.294170 -79.760109 513.877808
   vertex -35.165955 -79.623543 513.711365
   vertex -35.171459 -79.234055 514.026672
  endloop
 facet normal 0.011036 -0.777166 -0.629198
  outer loop
   vertex -35.538830 -79.486969 513.536133
   vertex -35.288284 -79.486969 513.540527
   vertex -35.416500 -79.623543 513.706970
  endloop
 facet normal 0.011036 -0.777166 -0.629198
  outer loop
   vertex -35.416500 -79.623543 513.706970
   vertex -35.288284 -79.486969 513.540527
   vertex -35.165955 -79.623543 513.711365
  endloop
 facet normal 0.011036 -0.777184 -0.629177
  outer loop
   vertex -35.165955 -79.623543 513.711365
   vertex -35.294170 -79.760109 513.877808
   vertex -35.416500 -79.623543 513.706970
  endloop
 facet normal 0.010884 -0.777111 -0.629270
  outer loop
   vertex -13.452786 -79.760117 514.259033
   vertex -13.575117 -79.623543 514.088257
   vertex -13.324569 -79.623543 514.092590
  endloop
 facet normal 0.010884 -0.777111 -0.629270
  outer loop
   vertex -13.324569 -79.623543 514.092590
   vertex -13.575117 -79.623543 514.088257
   vertex -13.446899 -79.486969 513.921814
  endloop
 facet normal 0.010884 -0.777111 -0.629270
  outer loop
   vertex -13.446899 -79.486969 513.921814
   vertex -13.196352 -79.486969 513.926147
   vertex -13.324569 -79.623543 514.092590
  endloop
 facet normal 0.011036 -0.777166 -0.629198
  outer loop
   vertex -13.196352 -79.486969 513.926147
   vertex -13.074020 -79.623543 514.096985
   vertex -13.324569 -79.623543 514.092590
  endloop
 facet normal 0.011036 -0.777166 -0.629198
  outer loop
   vertex -13.324569 -79.623543 514.092590
   vertex -13.074020 -79.623543 514.096985
   vertex -13.202239 -79.760117 514.263428
  endloop
 facet normal 0.011036 -0.777166 -0.629198
  outer loop
   vertex -13.202239 -79.760117 514.263428
   vertex -13.452786 -79.760117 514.259033
   vertex -13.324569 -79.623543 514.092590
  endloop
 facet normal 0.011036 -0.777184 -0.629177
  outer loop
   vertex -35.294170 -79.760109 513.877808
   vertex -35.544720 -79.760109 513.873413
   vertex -35.416500 -79.623543 513.706970
  endloop
 facet normal 0.011036 -0.777184 -0.629177
  outer loop
   vertex -35.416500 -79.623543 513.706970
   vertex -35.544720 -79.760109 513.873413
   vertex -35.667049 -79.623543 513.702576
  endloop
 facet normal 0.011036 -0.777167 -0.629198
  outer loop
   vertex -35.667049 -79.623543 513.702576
   vertex -35.538830 -79.486969 513.536133
   vertex -35.416500 -79.623543 513.706970
  endloop
 facet normal 0.010979 -0.777146 -0.629225
  outer loop
   vertex -14.811774 -78.435608 515.833252
   vertex -14.794816 -77.648834 514.861816
   vertex -11.820829 -78.435608 515.885437
  endloop
 facet normal 0.010979 -0.777146 -0.629225
  outer loop
   vertex -11.820829 -78.435608 515.885437
   vertex -14.794816 -77.648834 514.861816
   vertex -11.803872 -77.648834 514.914001
  endloop
 facet normal 0.999848 0.000000 0.017454
  outer loop
   vertex -11.803872 -77.648834 514.914001
   vertex -11.836082 -77.356476 516.759155
   vertex -11.820829 -78.435608 515.885437
  endloop
 facet normal 0.999848 0.000000 0.017454
  outer loop
   vertex -11.819124 -76.569702 515.787720
   vertex -11.836082 -77.356476 516.759155
   vertex -11.803872 -77.648834 514.914001
  endloop
 facet normal -0.010979 0.777146 0.629225
  outer loop
   vertex -14.810068 -76.569702 515.735535
   vertex -11.836082 -77.356476 516.759155
   vertex -11.819124 -76.569702 515.787720
  endloop
 facet normal 0.013557 0.629315 -0.777032
  outer loop
   vertex -11.819124 -76.569702 515.787720
   vertex -14.794816 -77.648834 514.861816
   vertex -14.810068 -76.569702 515.735535
  endloop
 facet normal -0.999848 0.000000 -0.017454
  outer loop
   vertex -14.810068 -76.569702 515.735535
   vertex -14.794816 -77.648834 514.861816
   vertex -14.827026 -77.356476 516.706970
  endloop
 facet normal -0.999848 0.000000 -0.017454
  outer loop
   vertex -14.827026 -77.356476 516.706970
   vertex -14.794816 -77.648834 514.861816
   vertex -14.811774 -78.435608 515.833252
  endloop
 facet normal -0.013557 -0.629315 0.777032
  outer loop
   vertex -14.811774 -78.435608 515.833252
   vertex -11.836082 -77.356476 516.759155
   vertex -14.827026 -77.356476 516.706970
  endloop
 facet normal -0.013557 -0.629315 0.777032
  outer loop
   vertex -11.820829 -78.435608 515.885437
   vertex -11.836082 -77.356476 516.759155
   vertex -14.811774 -78.435608 515.833252
  endloop
 facet normal -0.999848 -0.000000 -0.017457
  outer loop
   vertex -36.997150 -77.356476 516.319946
   vertex -36.980190 -76.569702 515.348511
   vertex -36.981895 -78.435608 515.446228
  endloop
 facet normal -0.999848 -0.000000 -0.017452
  outer loop
   vertex -36.981895 -78.435608 515.446228
   vertex -36.980190 -76.569702 515.348511
   vertex -36.964939 -77.648834 514.474792
  endloop
 facet normal 0.010991 -0.777146 -0.629225
  outer loop
   vertex -36.964939 -77.648834 514.474792
   vertex -33.990952 -78.435608 515.498474
   vertex -36.981895 -78.435608 515.446228
  endloop
 facet normal 0.010991 -0.777146 -0.629225
  outer loop
   vertex -33.973995 -77.648834 514.527039
   vertex -33.990952 -78.435608 515.498474
   vertex -36.964939 -77.648834 514.474792
  endloop
 facet normal 0.999848 0.000000 0.017452
  outer loop
   vertex -33.989246 -76.569702 515.400757
   vertex -33.990952 -78.435608 515.498474
   vertex -33.973995 -77.648834 514.527039
  endloop
 facet normal 0.013573 0.629315 -0.777032
  outer loop
   vertex -33.973995 -77.648834 514.527039
   vertex -36.980190 -76.569702 515.348511
   vertex -33.989246 -76.569702 515.400757
  endloop
 facet normal -0.010991 0.777146 0.629225
  outer loop
   vertex -33.989246 -76.569702 515.400757
   vertex -36.980190 -76.569702 515.348511
   vertex -34.006207 -77.356476 516.372192
  endloop
 facet normal -0.010991 0.777146 0.629225
  outer loop
   vertex -34.006207 -77.356476 516.372192
   vertex -36.980190 -76.569702 515.348511
   vertex -36.997150 -77.356476 516.319946
  endloop
 facet normal -0.013573 -0.629315 0.777032
  outer loop
   vertex -36.997150 -77.356476 516.319946
   vertex -33.990952 -78.435608 515.498474
   vertex -34.006207 -77.356476 516.372192
  endloop
 facet normal -0.013573 -0.629315 0.777032
  outer loop
   vertex -36.981895 -78.435608 515.446228
   vertex -33.990952 -78.435608 515.498474
   vertex -36.997150 -77.356476 516.319946
  endloop
 facet normal 0.013573 0.629315 -0.777032
  outer loop
   vertex -33.973995 -77.648834 514.527039
   vertex -36.964939 -77.648834 514.474792
   vertex -36.980190 -76.569702 515.348511
  endloop
 facet normal 0.013557 0.629315 -0.777032
  outer loop
   vertex -11.803872 -77.648834 514.914001
   vertex -14.794816 -77.648834 514.861816
   vertex -11.819124 -76.569702 515.787720
  endloop
 facet normal 0.999848 0.000000 0.017457
  outer loop
   vertex -33.989246 -76.569702 515.400757
   vertex -34.006207 -77.356476 516.372192
   vertex -33.990952 -78.435608 515.498474
  endloop
 facet normal -0.010979 0.777146 0.629225
  outer loop
   vertex -14.810068 -76.569702 515.735535
   vertex -14.827026 -77.356476 516.706970
   vertex -11.836082 -77.356476 516.759155
  endloop
 facet normal 0.010982 -0.777284 -0.629055
  outer loop
   vertex -14.566103 -80.688812 514.218445
   vertex -34.178627 -80.619835 513.790833
   vertex -14.564616 -80.619835 514.133240
  endloop
 facet normal 0.017437 0.044960 -0.998837
  outer loop
   vertex -14.564616 -80.619835 514.133240
   vertex -34.178627 -80.619835 513.790833
   vertex -14.564731 -80.474701 514.139771
  endloop
 facet normal 0.017430 0.023849 -0.999564
  outer loop
   vertex -33.410954 -79.757812 512.645569
   vertex -34.569534 -79.652901 512.627869
   vertex -33.410995 -79.652901 512.648071
  endloop
 facet normal 0.013550 0.629297 -0.777046
  outer loop
   vertex -33.410995 -79.652901 512.648071
   vertex -34.569534 -79.652901 512.627869
   vertex -34.578781 -78.998833 513.157410
  endloop
 facet normal -0.013550 -0.629341 0.777011
  outer loop
   vertex -14.165157 -80.045410 514.806396
   vertex -15.314451 -80.699478 514.256592
   vertex -14.155912 -80.699478 514.276794
  endloop
 facet normal -0.004030 -0.972923 0.231093
  outer loop
   vertex -14.155912 -80.699478 514.276794
   vertex -15.314451 -80.699478 514.256592
   vertex -15.312670 -80.723740 514.154480
  endloop
 facet normal -0.004392 -0.967822 0.251597
  outer loop
   vertex -34.162762 -79.733215 512.881836
   vertex -34.160305 -79.769768 512.741272
   vertex -14.546295 -79.769768 513.083679
  endloop
 facet normal 0.010982 -0.777284 -0.629054
  outer loop
   vertex -14.546295 -79.769768 513.083679
   vertex -34.160305 -79.769768 512.741272
   vertex -14.544808 -79.700790 512.998474
  endloop
 facet normal 0.005381 -0.951297 -0.308229
  outer loop
   vertex -34.188103 -80.070305 514.333679
   vertex -14.574092 -80.070305 514.676086
   vertex -34.188698 -80.081383 514.367859
  endloop
 facet normal 0.005392 -0.951073 -0.308919
  outer loop
   vertex -34.188698 -80.081383 514.367859
   vertex -14.574092 -80.070305 514.676086
   vertex -14.574688 -80.081390 514.710205
  endloop
 facet normal -0.013563 -0.629328 0.777021
  outer loop
   vertex -14.574688 -80.081390 514.710205
   vertex -34.189476 -80.026505 514.412292
   vertex -34.188698 -80.081383 514.367859
  endloop
 facet normal -0.999847 -0.000023 -0.017486
  outer loop
   vertex -34.592094 -80.699478 513.920044
   vertex -34.589039 -80.537750 513.745117
   vertex -34.590309 -80.723740 513.817993
  endloop
 facet normal -0.999848 -0.000009 -0.017452
  outer loop
   vertex -34.590309 -80.723740 513.817993
   vertex -34.589039 -80.537750 513.745117
   vertex -34.588154 -80.623703 513.694458
  endloop
 facet normal 0.010971 -0.777193 -0.629166
  outer loop
   vertex -34.588154 -80.623703 513.694458
   vertex -33.431770 -80.723740 513.838196
   vertex -34.590309 -80.723740 513.817993
  endloop
 facet normal 0.999848 -0.000007 0.017451
  outer loop
   vertex -14.133355 -79.652901 512.984619
   vertex -14.136751 -79.790413 513.179138
   vertex -14.133312 -79.757820 512.982117
  endloop
 facet normal 0.999848 -0.000001 0.017452
  outer loop
   vertex -14.133312 -79.757820 512.982117
   vertex -14.136751 -79.790413 513.179138
   vertex -14.135468 -79.857857 513.105591
  endloop
 facet normal 0.011008 -0.777041 -0.629353
  outer loop
   vertex -14.135468 -79.857857 513.105591
   vertex -15.291850 -79.757820 512.961853
   vertex -14.133312 -79.757820 512.982117
  endloop
 facet normal 0.999847 0.000027 0.017466
  outer loop
   vertex -33.413109 -79.857857 512.769104
   vertex -33.410954 -79.757812 512.645569
   vertex -33.414394 -79.790413 512.842590
  endloop
 facet normal 0.999848 -0.000017 0.017459
  outer loop
   vertex -33.414394 -79.790413 512.842590
   vertex -33.410954 -79.757812 512.645569
   vertex -33.410995 -79.652901 512.648071
  endloop
 facet normal 0.999847 -0.000007 0.017466
  outer loop
   vertex -33.410995 -79.652901 512.648071
   vertex -33.420242 -78.998833 513.177673
   vertex -33.414394 -79.790413 512.842590
  endloop
 facet normal 0.013590 0.629341 -0.777010
  outer loop
   vertex -34.578781 -78.998833 513.157410
   vertex -33.420242 -78.998833 513.177673
   vertex -33.410995 -79.652901 512.648071
  endloop
 facet normal -0.004392 -0.967822 0.251597
  outer loop
   vertex -14.546295 -79.769768 513.083679
   vertex -14.548749 -79.733215 513.224243
   vertex -34.162762 -79.733215 512.881836
  endloop
 facet normal 0.010984 -0.777149 -0.629221
  outer loop
   vertex -34.162762 -79.733215 512.881836
   vertex -14.548749 -79.733215 513.224243
   vertex -14.564731 -80.474701 514.139771
  endloop
 facet normal 0.010984 -0.777149 -0.629221
  outer loop
   vertex -14.564731 -80.474701 514.139771
   vertex -34.178741 -80.474701 513.797363
   vertex -34.162762 -79.733215 512.881836
  endloop
 facet normal 0.017437 0.044960 -0.998837
  outer loop
   vertex -34.178627 -80.619835 513.790833
   vertex -34.178741 -80.474701 513.797363
   vertex -14.564731 -80.474701 514.139771
  endloop
 facet normal -0.013591 -0.629297 0.777046
  outer loop
   vertex -14.165157 -80.045410 514.806396
   vertex -15.323696 -80.045410 514.786133
   vertex -15.314451 -80.699478 514.256592
  endloop
 facet normal -0.999848 -0.000001 -0.017455
  outer loop
   vertex -15.314451 -80.699478 514.256592
   vertex -15.323696 -80.045410 514.786133
   vertex -15.311398 -80.537750 514.081665
  endloop
 facet normal -0.999848 0.000009 -0.017446
  outer loop
   vertex -15.311398 -80.537750 514.081665
   vertex -15.312670 -80.723740 514.154480
   vertex -15.314451 -80.699478 514.256592
  endloop
 facet normal -0.999848 0.000005 -0.017457
  outer loop
   vertex -15.310513 -80.623703 514.031006
   vertex -15.312670 -80.723740 514.154480
   vertex -15.311398 -80.537750 514.081665
  endloop
 facet normal -0.015119 0.499761 0.866031
  outer loop
   vertex -14.567353 -80.547104 514.290039
   vertex -34.181366 -80.547104 513.947632
   vertex -14.567666 -80.578209 514.307983
  endloop
 facet normal -0.015119 0.499761 0.866031
  outer loop
   vertex -14.567666 -80.578209 514.307983
   vertex -34.181366 -80.547104 513.947632
   vertex -34.181679 -80.578209 513.965576
  endloop
 facet normal -0.013566 -0.629267 0.777071
  outer loop
   vertex -34.181679 -80.578209 513.965576
   vertex -14.566103 -80.688812 514.218445
   vertex -14.567666 -80.578209 514.307983
  endloop
 facet normal -0.013566 -0.629267 0.777071
  outer loop
   vertex -34.180115 -80.688812 513.876038
   vertex -14.566103 -80.688812 514.218445
   vertex -34.181679 -80.578209 513.965576
  endloop
 facet normal 0.010982 -0.777284 -0.629054
  outer loop
   vertex -34.178627 -80.619835 513.790833
   vertex -14.566103 -80.688812 514.218445
   vertex -34.180115 -80.688812 513.876038
  endloop
 facet normal 0.010977 -0.777145 -0.629226
  outer loop
   vertex -12.763612 -79.600731 514.838318
   vertex -14.396399 -78.899078 513.943237
   vertex -12.748489 -78.899078 513.971985
  endloop
 facet normal 0.013555 0.629321 -0.777027
  outer loop
   vertex -12.748489 -78.899078 513.971985
   vertex -14.396399 -78.899078 513.943237
   vertex -12.765415 -77.701462 514.941650
  endloop
 facet normal 0.999848 -0.000001 0.017454
  outer loop
   vertex -12.765415 -77.701462 514.941650
   vertex -12.780539 -78.403114 515.807983
   vertex -12.748489 -78.899078 513.971985
  endloop
 facet normal -0.010977 0.777145 0.629226
  outer loop
   vertex -14.413325 -77.701462 514.912903
   vertex -12.780539 -78.403114 515.807983
   vertex -12.765415 -77.701462 514.941650
  endloop
 facet normal -0.010977 0.777145 0.629226
  outer loop
   vertex -14.428449 -78.403114 515.779236
   vertex -12.780539 -78.403114 515.807983
   vertex -14.413325 -77.701462 514.912903
  endloop
 facet normal -0.999848 0.000000 -0.017454
  outer loop
   vertex -14.413325 -77.701462 514.912903
   vertex -14.396399 -78.899078 513.943237
   vertex -14.428449 -78.403114 515.779236
  endloop
 facet normal -0.999848 0.000000 -0.017454
  outer loop
   vertex -14.428449 -78.403114 515.779236
   vertex -14.396399 -78.899078 513.943237
   vertex -14.411522 -79.600731 514.809570
  endloop
 facet normal 0.010977 -0.777145 -0.629226
  outer loop
   vertex -14.411522 -79.600731 514.809570
   vertex -14.396399 -78.899078 513.943237
   vertex -12.763612 -79.600731 514.838318
  endloop
 facet normal -0.013555 -0.629321 0.777027
  outer loop
   vertex -12.763612 -79.600731 514.838318
   vertex -12.780539 -78.403114 515.807983
   vertex -14.411522 -79.600731 514.809570
  endloop
 facet normal 0.999848 0.000000 0.017453
  outer loop
   vertex -12.748489 -78.899078 513.971985
   vertex -12.780539 -78.403114 515.807983
   vertex -12.763612 -79.600731 514.838318
  endloop
 facet normal -0.013584 -0.629321 0.777026
  outer loop
   vertex -36.003143 -79.600731 514.432617
   vertex -34.355232 -79.600731 514.461426
   vertex -36.020069 -78.403114 515.402283
  endloop
 facet normal -0.013584 -0.629321 0.777026
  outer loop
   vertex -36.020069 -78.403114 515.402283
   vertex -34.355232 -79.600731 514.461426
   vertex -34.372158 -78.403114 515.431091
  endloop
 facet normal -0.011000 0.777145 0.629226
  outer loop
   vertex -34.372158 -78.403114 515.431091
   vertex -36.004948 -77.701462 514.535950
   vertex -36.020069 -78.403114 515.402283
  endloop
 facet normal -0.011000 0.777145 0.629226
  outer loop
   vertex -34.357037 -77.701462 514.564758
   vertex -36.004948 -77.701462 514.535950
   vertex -34.372158 -78.403114 515.431091
  endloop
 facet normal 0.013584 0.629321 -0.777026
  outer loop
   vertex -34.340111 -78.899078 513.595093
   vertex -36.004948 -77.701462 514.535950
   vertex -34.357037 -77.701462 514.564758
  endloop
 facet normal 0.999848 0.000000 0.017452
  outer loop
   vertex -34.357037 -77.701462 514.564758
   vertex -34.355232 -79.600731 514.461426
   vertex -34.340111 -78.899078 513.595093
  endloop
 facet normal 0.011000 -0.777145 -0.629226
  outer loop
   vertex -34.340111 -78.899078 513.595093
   vertex -34.355232 -79.600731 514.461426
   vertex -35.988018 -78.899078 513.566284
  endloop
 facet normal 0.011000 -0.777145 -0.629226
  outer loop
   vertex -35.988018 -78.899078 513.566284
   vertex -34.355232 -79.600731 514.461426
   vertex -36.003143 -79.600731 514.432617
  endloop
 facet normal -0.999848 -0.000000 -0.017456
  outer loop
   vertex -36.003143 -79.600731 514.432617
   vertex -36.004948 -77.701462 514.535950
   vertex -35.988018 -78.899078 513.566284
  endloop
 facet normal -0.999848 -0.000000 -0.017452
  outer loop
   vertex -36.020069 -78.403114 515.402283
   vertex -36.004948 -77.701462 514.535950
   vertex -36.003143 -79.600731 514.432617
  endloop
 facet normal -0.010975 0.777127 0.629248
  outer loop
   vertex -11.320106 -78.614639 514.622986
   vertex -11.670053 -78.614639 514.616882
   vertex -11.676834 -78.929298 515.005371
  endloop
 facet normal 0.011101 -0.777127 -0.629246
  outer loop
   vertex -11.676834 -78.929298 515.005371
   vertex -11.670053 -78.614639 514.616882
   vertex -11.498469 -78.771965 514.814209
  endloop
 facet normal 0.010976 -0.777071 -0.629317
  outer loop
   vertex -11.498469 -78.771965 514.814209
   vertex -11.326887 -78.929298 515.011475
   vertex -11.676834 -78.929298 515.005371
  endloop
 facet normal 0.010848 -0.777127 -0.629250
  outer loop
   vertex -11.320106 -78.614639 514.622986
   vertex -11.326887 -78.929298 515.011475
   vertex -11.498469 -78.771965 514.814209
  endloop
 facet normal 0.999848 -0.000001 0.017453
  outer loop
   vertex -11.337871 -78.152153 515.640747
   vertex -11.326887 -78.929298 515.011475
   vertex -11.320106 -78.614639 514.622986
  endloop
 facet normal 0.999848 0.000001 0.017452
  outer loop
   vertex -11.320106 -78.614639 514.622986
   vertex -11.331089 -77.837486 515.252197
   vertex -11.337871 -78.152153 515.640747
  endloop
 facet normal -0.011003 0.777168 0.629197
  outer loop
   vertex -11.337871 -78.152153 515.640747
   vertex -11.331089 -77.837486 515.252197
   vertex -13.037613 -78.152153 515.611023
  endloop
 facet normal -0.010981 0.777120 0.629257
  outer loop
   vertex -13.037613 -78.152153 515.611023
   vertex -11.331089 -77.837486 515.252197
   vertex -13.030831 -77.837486 515.222534
  endloop
 facet normal -0.999848 -0.000001 -0.017454
  outer loop
   vertex -13.030831 -77.837486 515.222534
   vertex -13.019847 -78.614632 514.593323
   vertex -13.037613 -78.152153 515.611023
  endloop
 facet normal 0.013514 0.629313 -0.777035
  outer loop
   vertex -12.605669 -78.420349 514.757874
   vertex -13.019847 -78.614632 514.593323
   vertex -13.030831 -77.837486 515.222534
  endloop
 facet normal 0.013553 0.629263 -0.777074
  outer loop
   vertex -12.669900 -78.614632 514.599426
   vertex -13.019847 -78.614632 514.593323
   vertex -12.605669 -78.420349 514.757874
  endloop
 facet normal -0.013568 -0.629309 0.777037
  outer loop
   vertex -36.164963 -78.735008 514.735291
   vertex -35.745296 -78.929298 514.585266
   vertex -35.756279 -78.152145 515.214478
  endloop
 facet normal 0.999848 -0.000002 0.017454
  outer loop
   vertex -35.756279 -78.152145 515.214478
   vertex -35.745296 -78.929298 514.585266
   vertex -35.749496 -77.837486 514.825989
  endloop
 facet normal -0.010981 0.777127 0.629248
  outer loop
   vertex -35.749496 -77.837486 514.825989
   vertex -37.456020 -78.152145 515.184814
   vertex -35.756279 -78.152145 515.214478
  endloop
 facet normal -0.011003 0.777176 0.629188
  outer loop
   vertex -37.449238 -77.837486 514.796265
   vertex -37.456020 -78.152145 515.184814
   vertex -35.749496 -77.837486 514.825989
  endloop
 facet normal -0.999848 0.000001 -0.017453
  outer loop
   vertex -37.445038 -78.929298 514.555603
   vertex -37.456020 -78.152145 515.184814
   vertex -37.449238 -77.837486 514.796265
  endloop
 facet normal -0.999848 0.000001 -0.017453
  outer loop
   vertex -37.449238 -77.837486 514.796265
   vertex -37.438255 -78.614632 514.167053
   vertex -37.445038 -78.929298 514.555603
  endloop
 facet normal 0.010974 -0.777168 -0.629197
  outer loop
   vertex -37.445038 -78.929298 514.555603
   vertex -37.438255 -78.614632 514.167053
   vertex -37.266670 -78.771965 514.364380
  endloop
 facet normal 0.010974 -0.777168 -0.629197
  outer loop
   vertex -37.266670 -78.771965 514.364380
   vertex -37.438255 -78.614632 514.167053
   vertex -37.088306 -78.614632 514.173157
  endloop
 facet normal 0.010974 -0.777168 -0.629197
  outer loop
   vertex -37.088306 -78.614632 514.173157
   vertex -37.095089 -78.929298 514.561707
   vertex -37.266670 -78.771965 514.364380
  endloop
 facet normal -0.010974 0.777168 0.629197
  outer loop
   vertex -37.445038 -78.929298 514.555603
   vertex -37.095089 -78.929298 514.561707
   vertex -37.088306 -78.614632 514.173157
  endloop
 facet normal 0.010974 -0.777168 -0.629197
  outer loop
   vertex -37.266670 -78.771965 514.364380
   vertex -37.095089 -78.929298 514.561707
   vertex -37.445038 -78.929298 514.555603
  endloop
 facet normal 0.010984 -0.777063 -0.629327
  outer loop
   vertex -34.160305 -79.769768 512.741272
   vertex -34.158817 -79.700790 512.656128
   vertex -14.544808 -79.700790 512.998474
  endloop
 facet normal 0.013563 0.629267 -0.777071
  outer loop
   vertex -14.544808 -79.700790 512.998474
   vertex -34.158817 -79.700790 512.656128
   vertex -34.160381 -79.590187 512.745667
  endloop
 facet normal 0.013562 0.629526 -0.776861
  outer loop
   vertex -34.160381 -79.590187 512.745667
   vertex -14.546371 -79.590187 513.088074
   vertex -14.544808 -79.700790 512.998474
  endloop
 facet normal -0.005393 0.951073 0.308919
  outer loop
   vertex -34.160980 -79.601273 512.779785
   vertex -14.546371 -79.590187 513.088074
   vertex -34.160381 -79.590187 512.745667
  endloop
 facet normal -0.005393 0.951073 0.308919
  outer loop
   vertex -14.546968 -79.601273 513.122192
   vertex -14.546371 -79.590187 513.088074
   vertex -34.160980 -79.601273 512.779785
  endloop
 facet normal 0.013565 0.629316 -0.777031
  outer loop
   vertex -34.160980 -79.601273 512.779785
   vertex -34.167717 -79.124466 513.165833
   vertex -14.546968 -79.601273 513.122192
  endloop
 facet normal 0.013565 0.629316 -0.777031
  outer loop
   vertex -14.546968 -79.601273 513.122192
   vertex -34.167717 -79.124466 513.165833
   vertex -14.553706 -79.124466 513.508240
  endloop
 facet normal 0.015131 -0.498484 -0.866767
  outer loop
   vertex -14.553706 -79.124466 513.508240
   vertex -34.167717 -79.124466 513.165833
   vertex -34.167404 -79.093361 513.147949
  endloop
 facet normal 0.015116 -0.499761 -0.866031
  outer loop
   vertex -34.167404 -79.093361 513.147949
   vertex -14.553393 -79.093361 513.490295
   vertex -14.553706 -79.124466 513.508240
  endloop
 facet normal 0.013562 0.629327 -0.777022
  outer loop
   vertex -34.168179 -79.038483 513.192383
   vertex -14.553393 -79.093361 513.490295
   vertex -34.167404 -79.093361 513.147949
  endloop
 facet normal 0.013562 0.629328 -0.777022
  outer loop
   vertex -14.554169 -79.038483 513.534729
   vertex -14.553393 -79.093361 513.490295
   vertex -34.168179 -79.038483 513.192383
  endloop
 facet normal -0.010983 0.777143 0.629228
  outer loop
   vertex -34.168179 -79.038483 513.192383
   vertex -34.189476 -80.026505 514.412292
   vertex -14.554169 -79.038483 513.534729
  endloop
 facet normal -0.010983 0.777143 0.629228
  outer loop
   vertex -14.554169 -79.038483 513.534729
   vertex -34.189476 -80.026505 514.412292
   vertex -14.575464 -80.026505 514.754639
  endloop
 facet normal -0.013563 -0.629275 0.777064
  outer loop
   vertex -14.575464 -80.026505 514.754639
   vertex -34.189476 -80.026505 514.412292
   vertex -14.574688 -80.081390 514.710205
  endloop
 facet normal -0.013616 -0.629313 0.777033
  outer loop
   vertex -12.612451 -78.735008 515.146423
   vertex -13.037613 -78.152153 515.611023
   vertex -13.026629 -78.929298 514.981812
  endloop
 facet normal -0.999848 0.000001 -0.017455
  outer loop
   vertex -13.026629 -78.929298 514.981812
   vertex -13.037613 -78.152153 515.611023
   vertex -13.019847 -78.614632 514.593323
  endloop
 facet normal 0.010975 -0.777120 -0.629257
  outer loop
   vertex -13.019847 -78.614632 514.593323
   vertex -12.676682 -78.929298 514.987915
   vertex -13.026629 -78.929298 514.981812
  endloop
 facet normal 0.010975 -0.777120 -0.629257
  outer loop
   vertex -12.669900 -78.614632 514.599426
   vertex -12.676682 -78.929298 514.987915
   vertex -13.019847 -78.614632 514.593323
  endloop
 facet normal -0.010975 0.777120 0.629257
  outer loop
   vertex -13.019847 -78.614632 514.593323
   vertex -12.676682 -78.929298 514.987915
   vertex -12.669900 -78.614632 514.599426
  endloop
 facet normal 0.013553 0.629289 -0.777053
  outer loop
   vertex -12.669900 -78.614632 514.599426
   vertex -12.600177 -78.808922 514.443298
   vertex -13.019847 -78.614632 514.593323
  endloop
 facet normal 0.013586 0.629332 -0.777017
  outer loop
   vertex -13.019847 -78.614632 514.593323
   vertex -12.600177 -78.808922 514.443298
   vertex -12.901317 -78.944923 514.327881
  endloop
 facet normal 0.013523 0.629415 -0.776952
  outer loop
   vertex -12.901317 -78.944923 514.327881
   vertex -12.600177 -78.808922 514.443298
   vertex -12.415182 -78.951149 514.331299
  endloop
 facet normal 0.013522 0.629239 -0.777094
  outer loop
   vertex -12.415182 -78.951149 514.331299
   vertex -12.586825 -79.186707 514.137573
   vertex -12.901317 -78.944923 514.327881
  endloop
 facet normal 0.013543 0.629230 -0.777101
  outer loop
   vertex -12.164484 -79.003204 514.293518
   vertex -12.586825 -79.186707 514.137573
   vertex -12.415182 -78.951149 514.331299
  endloop
 facet normal 0.013497 0.629294 -0.777050
  outer loop
   vertex -12.160640 -79.275208 514.073303
   vertex -12.586825 -79.186707 514.137573
   vertex -12.164484 -79.003204 514.293518
  endloop
 facet normal 0.013568 0.629294 -0.777049
  outer loop
   vertex -12.164484 -79.003204 514.293518
   vertex -11.915258 -78.951149 514.340027
   vertex -12.160640 -79.275208 514.073303
  endloop
 facet normal 0.013636 0.629262 -0.777073
  outer loop
   vertex -12.160640 -79.275208 514.073303
   vertex -11.915258 -78.951149 514.340027
   vertex -11.736955 -79.186707 514.152405
  endloop
 facet normal 0.013631 0.629260 -0.777075
  outer loop
   vertex -11.736955 -79.186707 514.152405
   vertex -11.915258 -78.951149 514.340027
   vertex -11.734283 -78.808922 514.458374
  endloop
 facet normal 0.013591 0.629260 -0.777076
  outer loop
   vertex -11.734283 -78.808922 514.458374
   vertex -11.429298 -78.944923 514.353577
   vertex -11.736955 -79.186707 514.152405
  endloop
 facet normal 0.013680 0.629383 -0.776974
  outer loop
   vertex -11.670053 -78.614639 514.616882
   vertex -11.429298 -78.944923 514.353577
   vertex -11.734283 -78.808922 514.458374
  endloop
 facet normal 0.013552 0.629328 -0.777022
  outer loop
   vertex -11.320106 -78.614639 514.622986
   vertex -11.429298 -78.944923 514.353577
   vertex -11.670053 -78.614639 514.616882
  endloop
 facet normal 0.013553 0.629289 -0.777053
  outer loop
   vertex -11.670053 -78.614639 514.616882
   vertex -11.739775 -78.420349 514.773010
   vertex -11.320106 -78.614639 514.622986
  endloop
 facet normal 0.013568 0.629309 -0.777037
  outer loop
   vertex -11.320106 -78.614639 514.622986
   vertex -11.739775 -78.420349 514.773010
   vertex -11.331089 -77.837486 515.252197
  endloop
 facet normal 0.013619 0.629287 -0.777054
  outer loop
   vertex -11.331089 -77.837486 515.252197
   vertex -11.739775 -78.420349 514.773010
   vertex -11.924770 -78.278122 514.884949
  endloop
 facet normal 0.013440 0.629433 -0.776939
  outer loop
   vertex -11.924770 -78.278122 514.884949
   vertex -12.175468 -78.226059 514.922791
   vertex -11.331089 -77.837486 515.252197
  endloop
 facet normal 0.013587 0.629350 -0.777004
  outer loop
   vertex -36.158184 -78.420349 514.346741
   vertex -35.749496 -77.837486 514.825989
   vertex -35.738514 -78.614632 514.196716
  endloop
 facet normal 0.999848 -0.000002 0.017452
  outer loop
   vertex -35.738514 -78.614632 514.196716
   vertex -35.749496 -77.837486 514.825989
   vertex -35.745296 -78.929298 514.585266
  endloop
 facet normal 0.010974 -0.777168 -0.629197
  outer loop
   vertex -35.745296 -78.929298 514.585266
   vertex -36.088459 -78.614632 514.190613
   vertex -35.738514 -78.614632 514.196716
  endloop
 facet normal 0.010974 -0.777168 -0.629197
  outer loop
   vertex -36.095242 -78.929298 514.579163
   vertex -36.088459 -78.614632 514.190613
   vertex -35.745296 -78.929298 514.585266
  endloop
 facet normal -0.010974 0.777168 0.629197
  outer loop
   vertex -35.745296 -78.929298 514.585266
   vertex -36.088459 -78.614632 514.190613
   vertex -36.095242 -78.929298 514.579163
  endloop
 facet normal -0.013551 -0.629410 0.776955
  outer loop
   vertex -36.095242 -78.929298 514.579163
   vertex -36.159473 -79.123581 514.420654
   vertex -35.745296 -78.929298 514.585266
  endloop
 facet normal -0.013628 -0.629312 0.777033
  outer loop
   vertex -35.745296 -78.929298 514.585266
   vertex -36.159473 -79.123581 514.420654
   vertex -35.854488 -79.259583 514.315857
  endloop
 facet normal -0.013605 -0.629280 0.777060
  outer loop
   vertex -35.854488 -79.259583 514.315857
   vertex -36.159473 -79.123581 514.420654
   vertex -36.340446 -79.265808 514.302307
  endloop
 facet normal -0.013602 -0.629369 0.776988
  outer loop
   vertex -36.340446 -79.265808 514.302307
   vertex -36.162148 -79.501366 514.114624
   vertex -35.854488 -79.259583 514.315857
  endloop
 facet normal -0.013550 -0.629345 0.777008
  outer loop
   vertex -36.589672 -79.317863 514.255798
   vertex -36.162148 -79.501366 514.114624
   vertex -36.340446 -79.265808 514.302307
  endloop
 facet normal -0.013513 -0.629294 0.777050
  outer loop
   vertex -36.585831 -79.589867 514.035583
   vertex -36.162148 -79.501366 514.114624
   vertex -36.589672 -79.317863 514.255798
  endloop
 facet normal -0.013565 -0.629294 0.777049
  outer loop
   vertex -36.589672 -79.317863 514.255798
   vertex -36.840370 -79.265808 514.293579
   vertex -36.585831 -79.589867 514.035583
  endloop
 facet normal -0.013616 -0.629318 0.777029
  outer loop
   vertex -36.585831 -79.589867 514.035583
   vertex -36.840370 -79.265808 514.293579
   vertex -37.012016 -79.501366 514.099792
  endloop
 facet normal -0.013643 -0.629306 0.777038
  outer loop
   vertex -37.012016 -79.501366 514.099792
   vertex -36.840370 -79.265808 514.293579
   vertex -37.025368 -79.123581 514.405518
  endloop
 facet normal -0.013451 -0.629303 0.777043
  outer loop
   vertex -37.025368 -79.123581 514.405518
   vertex -37.326508 -79.259583 514.290161
   vertex -37.012016 -79.501366 514.099792
  endloop
 facet normal -0.013368 -0.629413 0.776956
  outer loop
   vertex -37.095089 -78.929298 514.561707
   vertex -37.326508 -79.259583 514.290161
   vertex -37.025368 -79.123581 514.405518
  endloop
 facet normal -0.013552 -0.629334 0.777017
  outer loop
   vertex -37.445038 -78.929298 514.555603
   vertex -37.326508 -79.259583 514.290161
   vertex -37.095089 -78.929298 514.561707
  endloop
 facet normal -0.013553 -0.629248 0.777086
  outer loop
   vertex -37.095089 -78.929298 514.561707
   vertex -37.030857 -78.735008 514.720154
   vertex -37.445038 -78.929298 514.555603
  endloop
 facet normal -0.013505 -0.629309 0.777038
  outer loop
   vertex -37.445038 -78.929298 514.555603
   vertex -37.030857 -78.735008 514.720154
   vertex -37.456020 -78.152145 515.184814
  endloop
 facet normal -0.013545 -0.629326 0.777023
  outer loop
   vertex -37.456020 -78.152145 515.184814
   vertex -37.030857 -78.735008 514.720154
   vertex -36.849884 -78.592781 514.838501
  endloop
 facet normal -0.013539 -0.629321 0.777027
  outer loop
   vertex -36.849884 -78.592781 514.838501
   vertex -36.600658 -78.540718 514.885010
   vertex -37.456020 -78.152145 515.184814
  endloop
 facet normal 0.007087 0.914199 -0.405204
  outer loop
   vertex -34.578781 -78.998833 513.157410
   vertex -34.587585 -78.775200 513.661804
   vertex -33.420242 -78.998833 513.177673
  endloop
 facet normal 0.007067 0.914181 -0.405245
  outer loop
   vertex -33.420242 -78.998833 513.177673
   vertex -34.587585 -78.775200 513.661804
   vertex -33.429047 -78.775200 513.682007
  endloop
 facet normal 0.999848 0.000002 0.017454
  outer loop
   vertex -33.429047 -78.775200 513.682007
   vertex -33.444786 -79.505478 514.583740
   vertex -33.420242 -78.998833 513.177673
  endloop
 facet normal -0.010972 0.777164 0.629203
  outer loop
   vertex -34.587585 -78.775200 513.661804
   vertex -33.444786 -79.505478 514.583740
   vertex -33.429047 -78.775200 513.682007
  endloop
 facet normal -0.011006 0.777143 0.629228
  outer loop
   vertex -34.603325 -79.505478 514.563477
   vertex -33.444786 -79.505478 514.583740
   vertex -34.587585 -78.775200 513.661804
  endloop
 facet normal -0.999848 -0.000001 -0.017454
  outer loop
   vertex -34.587585 -78.775200 513.661804
   vertex -34.601337 -80.045410 514.449646
   vertex -34.603325 -79.505478 514.563477
  endloop
 facet normal -0.017112 -0.206319 0.978335
  outer loop
   vertex -34.603325 -79.505478 514.563477
   vertex -34.601337 -80.045410 514.449646
   vertex -33.444786 -79.505478 514.583740
  endloop
 facet normal -0.017060 -0.206425 0.978314
  outer loop
   vertex -33.444786 -79.505478 514.583740
   vertex -34.601337 -80.045410 514.449646
   vertex -33.442799 -80.045410 514.469849
  endloop
 facet normal 0.999848 -0.000001 0.017453
  outer loop
   vertex -33.442799 -80.045410 514.469849
   vertex -33.420242 -78.998833 513.177673
   vertex -33.444786 -79.505478 514.583740
  endloop
 facet normal 0.999848 0.000001 0.017454
  outer loop
   vertex -33.430500 -80.537750 513.765381
   vertex -33.420242 -78.998833 513.177673
   vertex -33.442799 -80.045410 514.469849
  endloop
 facet normal 0.999848 -0.000000 0.017450
  outer loop
   vertex -33.414394 -79.790413 512.842590
   vertex -33.420242 -78.998833 513.177673
   vertex -33.430500 -80.537750 513.765381
  endloop
 facet normal 0.010972 -0.777161 -0.629206
  outer loop
   vertex -33.430500 -80.537750 513.765381
   vertex -34.572933 -79.790413 512.822388
   vertex -33.414394 -79.790413 512.842590
  endloop
 facet normal -0.011788 -0.736799 0.676009
  outer loop
   vertex -33.414394 -79.790413 512.842590
   vertex -34.572933 -79.790413 512.822388
   vertex -33.413109 -79.857857 512.769104
  endloop
 facet normal -0.011819 -0.737079 0.675704
  outer loop
   vertex -33.413109 -79.857857 512.769104
   vertex -34.572933 -79.790413 512.822388
   vertex -34.571648 -79.857857 512.748840
  endloop
 facet normal 0.011005 -0.777170 -0.629195
  outer loop
   vertex -34.571648 -79.857857 512.748840
   vertex -33.410954 -79.757812 512.645569
   vertex -33.413109 -79.857857 512.769104
  endloop
 facet normal 0.010975 -0.777018 -0.629383
  outer loop
   vertex -34.569492 -79.757812 512.625366
   vertex -33.410954 -79.757812 512.645569
   vertex -34.571648 -79.857857 512.748840
  endloop
 facet normal 0.017430 0.023849 -0.999564
  outer loop
   vertex -34.569534 -79.652901 512.627869
   vertex -33.410954 -79.757812 512.645569
   vertex -34.569492 -79.757812 512.625366
  endloop
 facet normal -0.999848 0.000017 -0.017459
  outer loop
   vertex -34.569492 -79.757812 512.625366
   vertex -34.572933 -79.790413 512.822388
   vertex -34.569534 -79.652901 512.627869
  endloop
 facet normal -0.999847 0.000006 -0.017467
  outer loop
   vertex -34.569534 -79.652901 512.627869
   vertex -34.572933 -79.790413 512.822388
   vertex -34.578781 -78.998833 513.157410
  endloop
 facet normal -0.999848 -0.000000 -0.017452
  outer loop
   vertex -34.578781 -78.998833 513.157410
   vertex -34.572933 -79.790413 512.822388
   vertex -34.589039 -80.537750 513.745117
  endloop
 facet normal -0.999848 -0.000001 -0.017453
  outer loop
   vertex -34.589039 -80.537750 513.745117
   vertex -34.601337 -80.045410 514.449646
   vertex -34.578781 -78.998833 513.157410
  endloop
 facet normal -0.999848 0.000007 -0.017459
  outer loop
   vertex -34.592094 -80.699478 513.920044
   vertex -34.601337 -80.045410 514.449646
   vertex -34.589039 -80.537750 513.745117
  endloop
 facet normal -0.013550 -0.629341 0.777011
  outer loop
   vertex -33.442799 -80.045410 514.469849
   vertex -34.601337 -80.045410 514.449646
   vertex -34.592094 -80.699478 513.920044
  endloop
 facet normal -0.013591 -0.629297 0.777046
  outer loop
   vertex -34.592094 -80.699478 513.920044
   vertex -33.433556 -80.699478 513.940308
   vertex -33.442799 -80.045410 514.469849
  endloop
 facet normal 0.999848 -0.000006 0.017460
  outer loop
   vertex -33.442799 -80.045410 514.469849
   vertex -33.433556 -80.699478 513.940308
   vertex -33.430500 -80.537750 513.765381
  endloop
 facet normal 0.999847 0.000014 0.017478
  outer loop
   vertex -33.430500 -80.537750 513.765381
   vertex -33.433556 -80.699478 513.940308
   vertex -33.431770 -80.723740 513.838196
  endloop
 facet normal 0.999848 0.000001 0.017445
  outer loop
   vertex -33.431770 -80.723740 513.838196
   vertex -33.429615 -80.623703 513.714661
   vertex -33.430500 -80.537750 513.765381
  endloop
 facet normal 0.010971 -0.777193 -0.629166
  outer loop
   vertex -34.588154 -80.623703 513.694458
   vertex -33.429615 -80.623703 513.714661
   vertex -33.431770 -80.723740 513.838196
  endloop
 facet normal 0.015015 0.508266 -0.861069
  outer loop
   vertex -33.430500 -80.537750 513.765381
   vertex -33.429615 -80.623703 513.714661
   vertex -34.588154 -80.623703 513.694458
  endloop
 facet normal 0.015065 0.507813 -0.861336
  outer loop
   vertex -34.588154 -80.623703 513.694458
   vertex -34.589039 -80.537750 513.745117
   vertex -33.430500 -80.537750 513.765381
  endloop
 facet normal 0.011006 -0.777141 -0.629230
  outer loop
   vertex -33.430500 -80.537750 513.765381
   vertex -34.589039 -80.537750 513.745117
   vertex -34.572933 -79.790413 512.822388
  endloop
 facet normal -0.017112 -0.206322 0.978334
  outer loop
   vertex -14.165157 -80.045410 514.806396
   vertex -14.167144 -79.505486 514.920227
   vertex -15.323696 -80.045410 514.786133
  endloop
 facet normal -0.017060 -0.206428 0.978313
  outer loop
   vertex -15.323696 -80.045410 514.786133
   vertex -14.167144 -79.505486 514.920227
   vertex -15.325683 -79.505486 514.900024
  endloop
 facet normal -0.999848 0.000002 -0.017451
  outer loop
   vertex -15.325683 -79.505486 514.900024
   vertex -15.309943 -78.775200 513.998352
   vertex -15.323696 -80.045410 514.786133
  endloop
 facet normal -0.010973 0.777140 0.629232
  outer loop
   vertex -14.167144 -79.505486 514.920227
   vertex -15.309943 -78.775200 513.998352
   vertex -15.325683 -79.505486 514.900024
  endloop
 facet normal -0.010973 0.777140 0.629232
  outer loop
   vertex -14.151404 -78.775200 514.018555
   vertex -15.309943 -78.775200 513.998352
   vertex -14.167144 -79.505486 514.920227
  endloop
 facet normal 0.999848 -0.000000 0.017453
  outer loop
   vertex -14.167144 -79.505486 514.920227
   vertex -14.142600 -78.998833 513.514160
   vertex -14.151404 -78.775200 514.018555
  endloop
 facet normal 0.007066 0.914199 -0.405204
  outer loop
   vertex -14.151404 -78.775200 514.018555
   vertex -14.142600 -78.998833 513.514160
   vertex -15.309943 -78.775200 513.998352
  endloop
 facet normal 0.007066 0.914199 -0.405204
  outer loop
   vertex -15.309943 -78.775200 513.998352
   vertex -14.142600 -78.998833 513.514160
   vertex -15.301139 -78.998833 513.493958
  endloop
 facet normal -0.999848 0.000001 -0.017453
  outer loop
   vertex -15.301139 -78.998833 513.493958
   vertex -15.323696 -80.045410 514.786133
   vertex -15.309943 -78.775200 513.998352
  endloop
 facet normal -0.999848 -0.000000 -0.017455
  outer loop
   vertex -15.295290 -79.790413 513.158936
   vertex -15.323696 -80.045410 514.786133
   vertex -15.301139 -78.998833 513.493958
  endloop
 facet normal -0.999848 -0.000001 -0.017455
  outer loop
   vertex -15.311398 -80.537750 514.081665
   vertex -15.323696 -80.045410 514.786133
   vertex -15.295290 -79.790413 513.158936
  endloop
 facet normal 0.010973 -0.777141 -0.629231
  outer loop
   vertex -15.295290 -79.790413 513.158936
   vertex -14.152859 -80.537750 514.101868
   vertex -15.311398 -80.537750 514.081665
  endloop
 facet normal 0.015020 0.507813 -0.861337
  outer loop
   vertex -15.311398 -80.537750 514.081665
   vertex -14.152859 -80.537750 514.101868
   vertex -15.310513 -80.623703 514.031006
  endloop
 facet normal 0.015020 0.507813 -0.861337
  outer loop
   vertex -15.310513 -80.623703 514.031006
   vertex -14.152859 -80.537750 514.101868
   vertex -14.151975 -80.623703 514.051208
  endloop
 facet normal 0.010975 -0.777041 -0.629354
  outer loop
   vertex -14.151975 -80.623703 514.051208
   vertex -15.312670 -80.723740 514.154480
   vertex -15.310513 -80.623703 514.031006
  endloop
 facet normal 0.011000 -0.777170 -0.629195
  outer loop
   vertex -14.154131 -80.723747 514.174744
   vertex -15.312670 -80.723740 514.154480
   vertex -14.151975 -80.623703 514.051208
  endloop
 facet normal -0.004052 -0.972876 0.231293
  outer loop
   vertex -14.155912 -80.699478 514.276794
   vertex -15.312670 -80.723740 514.154480
   vertex -14.154131 -80.723747 514.174744
  endloop
 facet normal 0.999848 -0.000000 0.017454
  outer loop
   vertex -14.154131 -80.723747 514.174744
   vertex -14.152859 -80.537750 514.101868
   vertex -14.155912 -80.699478 514.276794
  endloop
 facet normal 0.999848 -0.000000 0.017454
  outer loop
   vertex -14.155912 -80.699478 514.276794
   vertex -14.152859 -80.537750 514.101868
   vertex -14.165157 -80.045410 514.806396
  endloop
 facet normal 0.999848 0.000000 0.017454
  outer loop
   vertex -14.165157 -80.045410 514.806396
   vertex -14.152859 -80.537750 514.101868
   vertex -14.136751 -79.790413 513.179138
  endloop
 facet normal 0.999848 0.000001 0.017454
  outer loop
   vertex -14.136751 -79.790413 513.179138
   vertex -14.142600 -78.998833 513.514160
   vertex -14.165157 -80.045410 514.806396
  endloop
 facet normal 0.999848 -0.000000 0.017456
  outer loop
   vertex -14.133355 -79.652901 512.984619
   vertex -14.142600 -78.998833 513.514160
   vertex -14.136751 -79.790413 513.179138
  endloop
 facet normal 0.013550 0.629297 -0.777046
  outer loop
   vertex -15.301139 -78.998833 513.493958
   vertex -14.142600 -78.998833 513.514160
   vertex -14.133355 -79.652901 512.984619
  endloop
 facet normal 0.013590 0.629341 -0.777010
  outer loop
   vertex -14.133355 -79.652901 512.984619
   vertex -15.291894 -79.652901 512.964355
   vertex -15.301139 -78.998833 513.493958
  endloop
 facet normal -0.999848 -0.000002 -0.017452
  outer loop
   vertex -15.301139 -78.998833 513.493958
   vertex -15.291894 -79.652901 512.964355
   vertex -15.295290 -79.790413 513.158936
  endloop
 facet normal -0.999848 -0.000002 -0.017452
  outer loop
   vertex -15.295290 -79.790413 513.158936
   vertex -15.291894 -79.652901 512.964355
   vertex -15.291850 -79.757820 512.961853
  endloop
 facet normal -0.999848 0.000001 -0.017451
  outer loop
   vertex -15.291850 -79.757820 512.961853
   vertex -15.294006 -79.857857 513.085388
   vertex -15.295290 -79.790413 513.158936
  endloop
 facet normal 0.010971 -0.777193 -0.629166
  outer loop
   vertex -14.135468 -79.857857 513.105591
   vertex -15.294006 -79.857857 513.085388
   vertex -15.291850 -79.757820 512.961853
  endloop
 facet normal -0.011783 -0.737078 0.675704
  outer loop
   vertex -15.295290 -79.790413 513.158936
   vertex -15.294006 -79.857857 513.085388
   vertex -14.135468 -79.857857 513.105591
  endloop
 facet normal -0.011783 -0.737078 0.675704
  outer loop
   vertex -14.135468 -79.857857 513.105591
   vertex -14.136751 -79.790413 513.179138
   vertex -15.295290 -79.790413 513.158936
  endloop
 facet normal 0.010973 -0.777141 -0.629231
  outer loop
   vertex -15.295290 -79.790413 513.158936
   vertex -14.136751 -79.790413 513.179138
   vertex -14.152859 -80.537750 514.101868
  endloop
 facet normal 0.013553 0.629248 -0.777087
  outer loop
   vertex -36.088459 -78.614632 514.190613
   vertex -35.738514 -78.614632 514.196716
   vertex -36.152691 -78.808922 514.032166
  endloop
 facet normal 0.013487 0.629333 -0.777019
  outer loop
   vertex -36.152691 -78.808922 514.032166
   vertex -35.738514 -78.614632 514.196716
   vertex -35.847706 -78.944923 513.927307
  endloop
 facet normal 0.013505 0.629357 -0.776999
  outer loop
   vertex -35.847706 -78.944923 513.927307
   vertex -36.333664 -78.951149 513.913818
   vertex -36.152691 -78.808922 514.032166
  endloop
 facet normal 0.013506 0.629326 -0.777024
  outer loop
   vertex -36.155365 -79.186707 513.726135
   vertex -36.333664 -78.951149 513.913818
   vertex -35.847706 -78.944923 513.927307
  endloop
 facet normal 0.013549 0.629345 -0.777008
  outer loop
   vertex -36.582893 -79.003204 513.867310
   vertex -36.333664 -78.951149 513.913818
   vertex -36.155365 -79.186707 513.726135
  endloop
 facet normal 0.013587 0.629399 -0.776963
  outer loop
   vertex -36.155365 -79.186707 513.726135
   vertex -36.579048 -79.275208 513.647034
   vertex -36.582893 -79.003204 513.867310
  endloop
 facet normal 0.013600 0.629399 -0.776963
  outer loop
   vertex -36.582893 -79.003204 513.867310
   vertex -36.579048 -79.275208 513.647034
   vertex -36.833588 -78.951149 513.905090
  endloop
 facet normal 0.013519 0.629361 -0.776995
  outer loop
   vertex -36.833588 -78.951149 513.905090
   vertex -36.579048 -79.275208 513.647034
   vertex -37.005234 -79.186707 513.711304
  endloop
 facet normal 0.013643 0.629306 -0.777038
  outer loop
   vertex -37.005234 -79.186707 513.711304
   vertex -37.018585 -78.808922 514.017029
   vertex -36.833588 -78.951149 513.905090
  endloop
 facet normal 0.013606 0.629305 -0.777039
  outer loop
   vertex -37.319725 -78.944923 513.901611
   vertex -37.018585 -78.808922 514.017029
   vertex -37.005234 -79.186707 513.711304
  endloop
 facet normal 0.013610 0.629301 -0.777043
  outer loop
   vertex -37.088306 -78.614632 514.173157
   vertex -37.018585 -78.808922 514.017029
   vertex -37.319725 -78.944923 513.901611
  endloop
 facet normal 0.013552 0.629325 -0.777024
  outer loop
   vertex -37.319725 -78.944923 513.901611
   vertex -37.438255 -78.614632 514.167053
   vertex -37.088306 -78.614632 514.173157
  endloop
 facet normal 0.013551 0.629410 -0.776955
  outer loop
   vertex -37.088306 -78.614632 514.173157
   vertex -37.438255 -78.614632 514.167053
   vertex -37.024078 -78.420349 514.331665
  endloop
 facet normal 0.013628 0.629313 -0.777033
  outer loop
   vertex -37.024078 -78.420349 514.331665
   vertex -37.438255 -78.614632 514.167053
   vertex -37.449238 -77.837486 514.796265
  endloop
 facet normal 0.013586 0.629294 -0.777048
  outer loop
   vertex -37.449238 -77.837486 514.796265
   vertex -36.843102 -78.278122 514.450012
   vertex -37.024078 -78.420349 514.331665
  endloop
 facet normal 0.013557 0.629271 -0.777068
  outer loop
   vertex -36.593876 -78.226059 514.496521
   vertex -36.843102 -78.278122 514.450012
   vertex -37.449238 -77.837486 514.796265
  endloop
 facet normal -0.013553 -0.629304 0.777041
  outer loop
   vertex -12.676682 -78.929298 514.987915
   vertex -13.026629 -78.929298 514.981812
   vertex -12.606959 -79.123581 514.831787
  endloop
 facet normal -0.013580 -0.629340 0.777011
  outer loop
   vertex -12.606959 -79.123581 514.831787
   vertex -13.026629 -78.929298 514.981812
   vertex -12.908099 -79.259583 514.716370
  endloop
 facet normal -0.013620 -0.629287 0.777053
  outer loop
   vertex -12.908099 -79.259583 514.716370
   vertex -12.421964 -79.265808 514.719849
   vertex -12.606959 -79.123581 514.831787
  endloop
 facet normal -0.013620 -0.629304 0.777040
  outer loop
   vertex -12.593607 -79.501373 514.526062
   vertex -12.421964 -79.265808 514.719849
   vertex -12.908099 -79.259583 514.716370
  endloop
 facet normal -0.013591 -0.629317 0.777030
  outer loop
   vertex -12.171267 -79.317871 514.682068
   vertex -12.421964 -79.265808 514.719849
   vertex -12.593607 -79.501373 514.526062
  endloop
 facet normal -0.013524 -0.629410 0.776956
  outer loop
   vertex -12.593607 -79.501373 514.526062
   vertex -12.167422 -79.589867 514.461792
   vertex -12.171267 -79.317871 514.682068
  endloop
 facet normal -0.013507 -0.629410 0.776956
  outer loop
   vertex -12.171267 -79.317871 514.682068
   vertex -12.167422 -79.589867 514.461792
   vertex -11.922040 -79.265808 514.728577
  endloop
 facet normal -0.013612 -0.629361 0.776994
  outer loop
   vertex -11.922040 -79.265808 514.728577
   vertex -12.167422 -79.589867 514.461792
   vertex -11.743736 -79.501373 514.540894
  endloop
 facet normal -0.013541 -0.629329 0.777021
  outer loop
   vertex -11.743736 -79.501373 514.540894
   vertex -11.741065 -79.123581 514.846924
   vertex -11.922040 -79.265808 514.728577
  endloop
 facet normal -0.013485 -0.629330 0.777021
  outer loop
   vertex -11.436080 -79.259583 514.742065
   vertex -11.741065 -79.123581 514.846924
   vertex -11.743736 -79.501373 514.540894
  endloop
 facet normal -0.013451 -0.629284 0.777059
  outer loop
   vertex -11.676834 -78.929298 515.005371
   vertex -11.741065 -79.123581 514.846924
   vertex -11.436080 -79.259583 514.742065
  endloop
 facet normal -0.013552 -0.629328 0.777022
  outer loop
   vertex -11.436080 -79.259583 514.742065
   vertex -11.326887 -78.929298 515.011475
   vertex -11.676834 -78.929298 515.005371
  endloop
 facet normal -0.013553 -0.629289 0.777053
  outer loop
   vertex -11.676834 -78.929298 515.005371
   vertex -11.326887 -78.929298 515.011475
   vertex -11.746557 -78.735008 515.161499
  endloop
 facet normal -0.013599 -0.629350 0.777003
  outer loop
   vertex -11.746557 -78.735008 515.161499
   vertex -11.326887 -78.929298 515.011475
   vertex -11.337871 -78.152153 515.640747
  endloop
 facet normal -0.013496 -0.629394 0.776969
  outer loop
   vertex -11.337871 -78.152153 515.640747
   vertex -11.931552 -78.592781 515.273499
   vertex -11.746557 -78.735008 515.161499
  endloop
 facet normal -0.013576 -0.629329 0.777021
  outer loop
   vertex -12.182250 -78.540726 515.311279
   vertex -11.931552 -78.592781 515.273499
   vertex -11.337871 -78.152153 515.640747
  endloop
 facet normal -0.013560 -0.629350 0.777004
  outer loop
   vertex -37.456020 -78.152145 515.184814
   vertex -36.600658 -78.540718 514.885010
   vertex -35.756279 -78.152145 515.214478
  endloop
 facet normal -0.013590 -0.629311 0.777035
  outer loop
   vertex -35.756279 -78.152145 515.214478
   vertex -36.600658 -78.540718 514.885010
   vertex -36.349960 -78.592781 514.847229
  endloop
 facet normal -0.013619 -0.629287 0.777054
  outer loop
   vertex -36.349960 -78.592781 514.847229
   vertex -36.164963 -78.735008 514.735291
   vertex -35.756279 -78.152145 515.214478
  endloop
 facet normal -0.013582 -0.629298 0.777046
  outer loop
   vertex -12.612451 -78.735008 515.146423
   vertex -12.431477 -78.592781 515.264771
   vertex -13.037613 -78.152153 515.611023
  endloop
 facet normal -0.013570 -0.629288 0.777054
  outer loop
   vertex -13.037613 -78.152153 515.611023
   vertex -12.431477 -78.592781 515.264771
   vertex -12.182250 -78.540726 515.311279
  endloop
 facet normal -0.013588 -0.629313 0.777033
  outer loop
   vertex -12.182250 -78.540726 515.311279
   vertex -11.337871 -78.152153 515.640747
   vertex -13.037613 -78.152153 515.611023
  endloop
 facet normal 0.013561 0.629276 -0.777064
  outer loop
   vertex -11.331089 -77.837486 515.252197
   vertex -12.175468 -78.226059 514.922791
   vertex -13.030831 -77.837486 515.222534
  endloop
 facet normal 0.013685 0.629443 -0.776926
  outer loop
   vertex -13.030831 -77.837486 515.222534
   vertex -12.175468 -78.226059 514.922791
   vertex -12.424694 -78.278122 514.876221
  endloop
 facet normal 0.013545 0.629326 -0.777023
  outer loop
   vertex -12.424694 -78.278122 514.876221
   vertex -12.605669 -78.420349 514.757874
   vertex -13.030831 -77.837486 515.222534
  endloop
 facet normal 0.013492 0.629390 -0.776972
  outer loop
   vertex -36.158184 -78.420349 514.346741
   vertex -36.343178 -78.278122 514.458740
   vertex -35.749496 -77.837486 514.825989
  endloop
 facet normal 0.013590 0.629311 -0.777035
  outer loop
   vertex -35.749496 -77.837486 514.825989
   vertex -36.343178 -78.278122 514.458740
   vertex -36.593876 -78.226059 514.496521
  endloop
 facet normal 0.013588 0.629313 -0.777033
  outer loop
   vertex -36.593876 -78.226059 514.496521
   vertex -37.449238 -77.837486 514.796265
   vertex -35.749496 -77.837486 514.825989
  endloop
 facet normal 0.017483 0.023848 -0.999563
  outer loop
   vertex -14.133355 -79.652901 512.984619
   vertex -14.133312 -79.757820 512.982117
   vertex -15.291894 -79.652901 512.964355
  endloop
 facet normal 0.017483 0.023848 -0.999563
  outer loop
   vertex -15.291894 -79.652901 512.964355
   vertex -14.133312 -79.757820 512.982117
   vertex -15.291850 -79.757820 512.961853
  endloop
 facet normal -0.013565 -0.629322 0.777026
  outer loop
   vertex -34.188103 -80.070305 514.333679
   vertex -34.181366 -80.547104 513.947632
   vertex -14.574092 -80.070305 514.676086
  endloop
 facet normal -0.013565 -0.629322 0.777026
  outer loop
   vertex -14.574092 -80.070305 514.676086
   vertex -34.181366 -80.547104 513.947632
   vertex -14.567353 -80.547104 514.290039
  endloop
 facet normal -0.004030 -0.972923 0.231093
  outer loop
   vertex -33.431770 -80.723740 513.838196
   vertex -33.433556 -80.699478 513.940308
   vertex -34.590309 -80.723740 513.817993
  endloop
 facet normal -0.004044 -0.972892 0.231224
  outer loop
   vertex -34.590309 -80.723740 513.817993
   vertex -33.433556 -80.699478 513.940308
   vertex -34.592094 -80.699478 513.920044
  endloop
 facet normal 0.010974 -0.777183 -0.629179
  outer loop
   vertex -11.670053 -78.614639 514.616882
   vertex -11.320106 -78.614639 514.622986
   vertex -11.498469 -78.771965 514.814209
  endloop
 facet normal 0.999848 -0.000001 0.017453
  outer loop
   vertex -14.165157 -80.045410 514.806396
   vertex -14.142600 -78.998833 513.514160
   vertex -14.167144 -79.505486 514.920227
  endloop
 facet normal -0.013551 -0.629395 0.776967
  outer loop
   vertex -13.026629 -78.929298 514.981812
   vertex -12.676682 -78.929298 514.987915
   vertex -12.612451 -78.735008 515.146423
  endloop
 facet normal -0.013553 -0.629289 0.777053
  outer loop
   vertex -36.095242 -78.929298 514.579163
   vertex -35.745296 -78.929298 514.585266
   vertex -36.164963 -78.735008 514.735291
  endloop
 facet normal -0.010975 0.777127 0.629248
  outer loop
   vertex -11.320106 -78.614639 514.622986
   vertex -11.676834 -78.929298 515.005371
   vertex -11.326887 -78.929298 515.011475
  endloop
 facet normal 0.013584 0.629321 -0.777026
  outer loop
   vertex -34.340111 -78.899078 513.595093
   vertex -35.988018 -78.899078 513.566284
   vertex -36.004948 -77.701462 514.535950
  endloop
 facet normal -0.013555 -0.629321 0.777027
  outer loop
   vertex -14.428449 -78.403114 515.779236
   vertex -14.411522 -79.600731 514.809570
   vertex -12.780539 -78.403114 515.807983
  endloop
 facet normal -0.010974 0.777168 0.629197
  outer loop
   vertex -37.445038 -78.929298 514.555603
   vertex -37.088306 -78.614632 514.173157
   vertex -37.438255 -78.614632 514.167053
  endloop
 facet normal -0.999847 -0.000014 -0.017464
  outer loop
   vertex -34.569492 -79.757812 512.625366
   vertex -34.571648 -79.857857 512.748840
   vertex -34.572933 -79.790413 512.822388
  endloop
 facet normal -0.010975 0.777120 0.629257
  outer loop
   vertex -12.676682 -78.929298 514.987915
   vertex -13.019847 -78.614632 514.593323
   vertex -13.026629 -78.929298 514.981812
  endloop
 facet normal -0.999848 0.000000 -0.017453
  outer loop
   vertex -34.578781 -78.998833 513.157410
   vertex -34.601337 -80.045410 514.449646
   vertex -34.587585 -78.775200 513.661804
  endloop
 facet normal 0.999848 -0.000001 0.017451
  outer loop
   vertex -14.154131 -80.723747 514.174744
   vertex -14.151975 -80.623703 514.051208
   vertex -14.152859 -80.537750 514.101868
  endloop
 facet normal 0.013555 0.629321 -0.777027
  outer loop
   vertex -14.396399 -78.899078 513.943237
   vertex -14.413325 -77.701462 514.912903
   vertex -12.765415 -77.701462 514.941650
  endloop
 facet normal 0.999848 0.000000 0.017452
  outer loop
   vertex -34.357037 -77.701462 514.564758
   vertex -34.372158 -78.403114 515.431091
   vertex -34.355232 -79.600731 514.461426
  endloop
 facet normal -0.010974 0.777168 0.629197
  outer loop
   vertex -36.088459 -78.614632 514.190613
   vertex -35.745296 -78.929298 514.585266
   vertex -35.738514 -78.614632 514.196716
  endloop
 facet normal 0.013553 0.629304 -0.777041
  outer loop
   vertex -35.738514 -78.614632 514.196716
   vertex -36.088459 -78.614632 514.190613
   vertex -36.158184 -78.420349 514.346741
  endloop
 facet normal -0.699197 -0.549538 -0.457309
  outer loop
   vertex -36.343178 -78.278122 514.458740
   vertex -36.164963 -78.735008 514.735291
   vertex -36.349960 -78.592781 514.847229
  endloop
 facet normal -0.248167 -0.750647 -0.612325
  outer loop
   vertex -36.343178 -78.278122 514.458740
   vertex -36.349960 -78.592781 514.847229
   vertex -36.593876 -78.226059 514.496521
  endloop
 facet normal -0.248167 -0.750647 -0.612325
  outer loop
   vertex -36.593876 -78.226059 514.496521
   vertex -36.349960 -78.592781 514.847229
   vertex -36.600658 -78.540718 514.885010
  endloop
 facet normal 0.269391 -0.750647 -0.603289
  outer loop
   vertex -36.600658 -78.540718 514.885010
   vertex -36.843102 -78.278122 514.450012
   vertex -36.593876 -78.226059 514.496521
  endloop
 facet normal 0.269391 -0.750647 -0.603289
  outer loop
   vertex -36.849884 -78.592781 514.838501
   vertex -36.843102 -78.278122 514.450012
   vertex -36.600658 -78.540718 514.885010
  endloop
 facet normal 0.714758 -0.549520 -0.432608
  outer loop
   vertex -37.024078 -78.420349 514.331665
   vertex -36.843102 -78.278122 514.450012
   vertex -36.849884 -78.592781 514.838501
  endloop
 facet normal 0.714765 -0.549510 -0.432608
  outer loop
   vertex -36.849884 -78.592781 514.838501
   vertex -37.030857 -78.735008 514.720154
   vertex -37.024078 -78.420349 514.331665
  endloop
 facet normal 0.968628 -0.201112 -0.145990
  outer loop
   vertex -37.024078 -78.420349 514.331665
   vertex -37.030857 -78.735008 514.720154
   vertex -37.088306 -78.614632 514.173157
  endloop
 facet normal -0.962936 -0.201135 -0.179720
  outer loop
   vertex -11.670053 -78.614639 514.616882
   vertex -11.676834 -78.929298 515.005371
   vertex -11.739775 -78.420349 514.773010
  endloop
 facet normal -0.962935 -0.201137 -0.179724
  outer loop
   vertex -11.739775 -78.420349 514.773010
   vertex -11.676834 -78.929298 515.005371
   vertex -11.746557 -78.735008 515.161499
  endloop
 facet normal -0.699201 -0.549535 -0.457307
  outer loop
   vertex -11.746557 -78.735008 515.161499
   vertex -11.924770 -78.278122 514.884949
   vertex -11.739775 -78.420349 514.773010
  endloop
 facet normal -0.699280 -0.549510 -0.457215
  outer loop
   vertex -11.931552 -78.592781 515.273499
   vertex -11.924770 -78.278122 514.884949
   vertex -11.746557 -78.735008 515.161499
  endloop
 facet normal -0.248308 -0.750666 -0.612245
  outer loop
   vertex -12.175468 -78.226059 514.922791
   vertex -11.924770 -78.278122 514.884949
   vertex -11.931552 -78.592781 515.273499
  endloop
 facet normal -0.248146 -0.750645 -0.612336
  outer loop
   vertex -11.931552 -78.592781 515.273499
   vertex -12.182250 -78.540726 515.311279
   vertex -12.175468 -78.226059 514.922791
  endloop
 facet normal 0.269528 -0.750611 -0.603272
  outer loop
   vertex -12.175468 -78.226059 514.922791
   vertex -12.182250 -78.540726 515.311279
   vertex -12.424694 -78.278122 514.876221
  endloop
 facet normal 0.269368 -0.750698 -0.603236
  outer loop
   vertex -12.424694 -78.278122 514.876221
   vertex -12.182250 -78.540726 515.311279
   vertex -12.431477 -78.592781 515.264771
  endloop
 facet normal 0.714760 -0.549550 -0.432565
  outer loop
   vertex -12.431477 -78.592781 515.264771
   vertex -12.605669 -78.420349 514.757874
   vertex -12.424694 -78.278122 514.876221
  endloop
 facet normal 0.968623 -0.201142 -0.145987
  outer loop
   vertex -35.738514 -78.614632 514.196716
   vertex -35.745296 -78.929298 514.585266
   vertex -35.847706 -78.944923 513.927307
  endloop
 facet normal 0.968622 -0.201147 -0.145986
  outer loop
   vertex -35.847706 -78.944923 513.927307
   vertex -35.745296 -78.929298 514.585266
   vertex -35.854488 -79.259583 514.315857
  endloop
 facet normal 0.714743 -0.549563 -0.432576
  outer loop
   vertex -35.854488 -79.259583 514.315857
   vertex -36.155365 -79.186707 513.726135
   vertex -35.847706 -78.944923 513.927307
  endloop
 facet normal 0.714786 -0.549497 -0.432590
  outer loop
   vertex -36.162148 -79.501366 514.114624
   vertex -36.155365 -79.186707 513.726135
   vertex -35.854488 -79.259583 514.315857
  endloop
 facet normal 0.269430 -0.750639 -0.603281
  outer loop
   vertex -36.579048 -79.275208 513.647034
   vertex -36.155365 -79.186707 513.726135
   vertex -36.162148 -79.501366 514.114624
  endloop
 facet normal 0.269348 -0.750702 -0.603239
  outer loop
   vertex -36.162148 -79.501366 514.114624
   vertex -36.585831 -79.589867 514.035583
   vertex -36.579048 -79.275208 513.647034
  endloop
 facet normal -0.248216 -0.750684 -0.612259
  outer loop
   vertex -36.579048 -79.275208 513.647034
   vertex -36.585831 -79.589867 514.035583
   vertex -37.005234 -79.186707 513.711304
  endloop
 facet normal -0.248133 -0.750655 -0.612330
  outer loop
   vertex -37.005234 -79.186707 513.711304
   vertex -36.585831 -79.589867 514.035583
   vertex -37.012016 -79.501366 514.099792
  endloop
 facet normal -0.699208 -0.549529 -0.457302
  outer loop
   vertex -37.012016 -79.501366 514.099792
   vertex -37.319725 -78.944923 513.901611
   vertex -37.005234 -79.186707 513.711304
  endloop
 facet normal -0.699255 -0.549529 -0.457231
  outer loop
   vertex -37.326508 -79.259583 514.290161
   vertex -37.319725 -78.944923 513.901611
   vertex -37.012016 -79.501366 514.099792
  endloop
 facet normal -0.962937 -0.201145 -0.179702
  outer loop
   vertex -37.438255 -78.614632 514.167053
   vertex -37.319725 -78.944923 513.901611
   vertex -37.326508 -79.259583 514.290161
  endloop
 facet normal -0.962936 -0.201146 -0.179707
  outer loop
   vertex -37.326508 -79.259583 514.290161
   vertex -37.445038 -78.929298 514.555603
   vertex -37.438255 -78.614632 514.167053
  endloop
 facet normal 0.968621 -0.201136 -0.146003
  outer loop
   vertex -11.320106 -78.614639 514.622986
   vertex -11.326887 -78.929298 515.011475
   vertex -11.429298 -78.944923 514.353577
  endloop
 facet normal 0.968621 -0.201136 -0.146003
  outer loop
   vertex -11.429298 -78.944923 514.353577
   vertex -11.326887 -78.929298 515.011475
   vertex -11.436080 -79.259583 514.742065
  endloop
 facet normal 0.714747 -0.549527 -0.432616
  outer loop
   vertex -11.436080 -79.259583 514.742065
   vertex -11.736955 -79.186707 514.152405
   vertex -11.429298 -78.944923 514.353577
  endloop
 facet normal 0.714754 -0.549516 -0.432618
  outer loop
   vertex -11.743736 -79.501373 514.540894
   vertex -11.736955 -79.186707 514.152405
   vertex -11.436080 -79.259583 514.742065
  endloop
 facet normal 0.269429 -0.750632 -0.603291
  outer loop
   vertex -12.160640 -79.275208 514.073303
   vertex -11.736955 -79.186707 514.152405
   vertex -11.743736 -79.501373 514.540894
  endloop
 facet normal 0.269415 -0.750642 -0.603284
  outer loop
   vertex -11.743736 -79.501373 514.540894
   vertex -12.167422 -79.589867 514.461792
   vertex -12.160640 -79.275208 514.073303
  endloop
 facet normal -0.248215 -0.750637 -0.612317
  outer loop
   vertex -12.160640 -79.275208 514.073303
   vertex -12.167422 -79.589867 514.461792
   vertex -12.586825 -79.186707 514.137573
  endloop
 facet normal -0.248203 -0.750633 -0.612328
  outer loop
   vertex -12.586825 -79.186707 514.137573
   vertex -12.167422 -79.589867 514.461792
   vertex -12.593607 -79.501373 514.526062
  endloop
 facet normal -0.699208 -0.549525 -0.457308
  outer loop
   vertex -12.593607 -79.501373 514.526062
   vertex -12.901317 -78.944923 514.327881
   vertex -12.586825 -79.186707 514.137573
  endloop
 facet normal -0.699214 -0.549525 -0.457299
  outer loop
   vertex -12.908099 -79.259583 514.716370
   vertex -12.901317 -78.944923 514.327881
   vertex -12.593607 -79.501373 514.526062
  endloop
 facet normal -0.962937 -0.201131 -0.179719
  outer loop
   vertex -13.019847 -78.614632 514.593323
   vertex -12.901317 -78.944923 514.327881
   vertex -12.908099 -79.259583 514.716370
  endloop
 facet normal -0.962936 -0.201132 -0.179724
  outer loop
   vertex -12.908099 -79.259583 514.716370
   vertex -13.026629 -78.929298 514.981812
   vertex -13.019847 -78.614632 514.593323
  endloop
 facet normal 0.714762 -0.549548 -0.432565
  outer loop
   vertex -12.431477 -78.592781 515.264771
   vertex -12.612451 -78.735008 515.146423
   vertex -12.605669 -78.420349 514.757874
  endloop
 facet normal 0.968627 -0.201130 -0.145975
  outer loop
   vertex -12.605669 -78.420349 514.757874
   vertex -12.612451 -78.735008 515.146423
   vertex -12.676682 -78.929298 514.987915
  endloop
 facet normal 0.968617 -0.201147 -0.146016
  outer loop
   vertex -12.676682 -78.929298 514.987915
   vertex -12.669900 -78.614632 514.599426
   vertex -12.605669 -78.420349 514.757874
  endloop
 facet normal 0.962934 0.201138 0.179726
  outer loop
   vertex -12.606959 -79.123581 514.831787
   vertex -12.669900 -78.614632 514.599426
   vertex -12.676682 -78.929298 514.987915
  endloop
 facet normal 0.962935 0.201137 0.179724
  outer loop
   vertex -12.600177 -78.808922 514.443298
   vertex -12.669900 -78.614632 514.599426
   vertex -12.606959 -79.123581 514.831787
  endloop
 facet normal 0.699201 0.549535 0.457307
  outer loop
   vertex -12.606959 -79.123581 514.831787
   vertex -12.421964 -79.265808 514.719849
   vertex -12.600177 -78.808922 514.443298
  endloop
 facet normal 0.699280 0.549510 0.457215
  outer loop
   vertex -12.600177 -78.808922 514.443298
   vertex -12.421964 -79.265808 514.719849
   vertex -12.415182 -78.951149 514.331299
  endloop
 facet normal 0.248169 0.750695 0.612266
  outer loop
   vertex -12.415182 -78.951149 514.331299
   vertex -12.421964 -79.265808 514.719849
   vertex -12.171267 -79.317871 514.682068
  endloop
 facet normal 0.248147 0.750692 0.612279
  outer loop
   vertex -12.171267 -79.317871 514.682068
   vertex -12.164484 -79.003204 514.293518
   vertex -12.415182 -78.951149 514.331299
  endloop
 facet normal -0.269389 0.750687 0.603240
  outer loop
   vertex -11.922040 -79.265808 514.728577
   vertex -12.164484 -79.003204 514.293518
   vertex -12.171267 -79.317871 514.682068
  endloop
 facet normal -0.269369 0.750698 0.603236
  outer loop
   vertex -11.915258 -78.951149 514.340027
   vertex -12.164484 -79.003204 514.293518
   vertex -11.922040 -79.265808 514.728577
  endloop
 facet normal -0.714761 0.549549 0.432566
  outer loop
   vertex -11.922040 -79.265808 514.728577
   vertex -11.741065 -79.123581 514.846924
   vertex -11.915258 -78.951149 514.340027
  endloop
 facet normal -0.714761 0.549549 0.432566
  outer loop
   vertex -11.915258 -78.951149 514.340027
   vertex -11.741065 -79.123581 514.846924
   vertex -11.734283 -78.808922 514.458374
  endloop
 facet normal -0.968617 0.201160 0.146000
  outer loop
   vertex -11.734283 -78.808922 514.458374
   vertex -11.741065 -79.123581 514.846924
   vertex -11.676834 -78.929298 515.005371
  endloop
 facet normal -0.968626 0.201123 0.145992
  outer loop
   vertex -11.676834 -78.929298 515.005371
   vertex -11.670053 -78.614639 514.616882
   vertex -11.734283 -78.808922 514.458374
  endloop
 facet normal -0.699282 -0.549512 -0.457211
  outer loop
   vertex -36.343178 -78.278122 514.458740
   vertex -36.158184 -78.420349 514.346741
   vertex -36.164963 -78.735008 514.735291
  endloop
 facet normal -0.962932 -0.201165 -0.179709
  outer loop
   vertex -36.164963 -78.735008 514.735291
   vertex -36.158184 -78.420349 514.346741
   vertex -36.088459 -78.614632 514.190613
  endloop
 facet normal -0.962937 -0.201143 -0.179705
  outer loop
   vertex -36.088459 -78.614632 514.190613
   vertex -36.095242 -78.929298 514.579163
   vertex -36.164963 -78.735008 514.735291
  endloop
 facet normal -0.968617 0.201158 0.145999
  outer loop
   vertex -36.152691 -78.808922 514.032166
   vertex -36.095242 -78.929298 514.579163
   vertex -36.088459 -78.614632 514.190613
  endloop
 facet normal -0.968625 0.201127 0.145993
  outer loop
   vertex -36.159473 -79.123581 514.420654
   vertex -36.095242 -78.929298 514.579163
   vertex -36.152691 -78.808922 514.032166
  endloop
 facet normal -0.714765 0.549514 0.432603
  outer loop
   vertex -36.152691 -78.808922 514.032166
   vertex -36.333664 -78.951149 513.913818
   vertex -36.159473 -79.123581 514.420654
  endloop
 facet normal -0.714765 0.549514 0.432603
  outer loop
   vertex -36.159473 -79.123581 514.420654
   vertex -36.333664 -78.951149 513.913818
   vertex -36.340446 -79.265808 514.302307
  endloop
 facet normal -0.269366 0.750652 0.603293
  outer loop
   vertex -36.340446 -79.265808 514.302307
   vertex -36.333664 -78.951149 513.913818
   vertex -36.582893 -79.003204 513.867310
  endloop
 facet normal -0.269370 0.750650 0.603294
  outer loop
   vertex -36.582893 -79.003204 513.867310
   vertex -36.589672 -79.317863 514.255798
   vertex -36.340446 -79.265808 514.302307
  endloop
 facet normal 0.248149 0.750652 0.612326
  outer loop
   vertex -36.833588 -78.951149 513.905090
   vertex -36.589672 -79.317863 514.255798
   vertex -36.582893 -79.003204 513.867310
  endloop
 facet normal 0.248146 0.750652 0.612328
  outer loop
   vertex -36.840370 -79.265808 514.293579
   vertex -36.589672 -79.317863 514.255798
   vertex -36.833588 -78.951149 513.905090
  endloop
 facet normal 0.699197 0.549538 0.457309
  outer loop
   vertex -36.833588 -78.951149 513.905090
   vertex -37.018585 -78.808922 514.017029
   vertex -36.840370 -79.265808 514.293579
  endloop
 facet normal 0.699197 0.549538 0.457309
  outer loop
   vertex -36.840370 -79.265808 514.293579
   vertex -37.018585 -78.808922 514.017029
   vertex -37.025368 -79.123581 514.405518
  endloop
 facet normal 0.962937 0.201132 0.179720
  outer loop
   vertex -37.025368 -79.123581 514.405518
   vertex -37.018585 -78.808922 514.017029
   vertex -37.088306 -78.614632 514.173157
  endloop
 facet normal 0.962947 0.201116 0.179683
  outer loop
   vertex -37.088306 -78.614632 514.173157
   vertex -37.095089 -78.929298 514.561707
   vertex -37.025368 -79.123581 514.405518
  endloop
 facet normal 0.968617 -0.201158 -0.145999
  outer loop
   vertex -37.030857 -78.735008 514.720154
   vertex -37.095089 -78.929298 514.561707
   vertex -37.088306 -78.614632 514.173157
  endloop
endsolid