solid stl file generated from DOUG
 facet normal -0.011874 0.733734 0.679333
  outer loop
   vertex 234.973068 -1.909958 490.505829
   vertex 234.471970 -1.909958 490.497070
   vertex 234.969864 -2.080217 490.689667
  endloop
 endfacet

 facet normal -0.011873 0.733734 0.679333
  outer loop
   vertex 234.969864 -2.080217 490.689667
   vertex 234.471970 -1.909958 490.497070
   vertex 234.468765 -2.080217 490.680908
  endloop
 endfacet

 facet normal -0.017042 -0.221560 0.974998
  outer loop
   vertex 234.468765 -2.080217 490.680908
   vertex 234.970825 -2.324575 490.634155
   vertex 234.969864 -2.080217 490.689667
  endloop
 endfacet

 facet normal -0.017042 -0.221560 0.974998
  outer loop
   vertex 234.469727 -2.324575 490.625397
   vertex 234.970825 -2.324575 490.634155
   vertex 234.468765 -2.080217 490.680908
  endloop
 endfacet

 facet normal -0.005168 -0.955280 0.295657
  outer loop
   vertex 234.975006 -2.398676 490.394806
   vertex 234.970825 -2.324575 490.634155
   vertex 234.469727 -2.324575 490.625397
  endloop
 endfacet

 facet normal -0.005168 -0.955280 0.295657
  outer loop
   vertex 234.469727 -2.324575 490.625397
   vertex 234.473907 -2.398676 490.386047
   vertex 234.975006 -2.398676 490.394806
  endloop
 endfacet

 facet normal 0.011874 -0.733734 -0.679333
  outer loop
   vertex 234.975006 -2.398676 490.394806
   vertex 234.473907 -2.398676 490.386047
   vertex 234.978210 -2.228416 490.210968
  endloop
 endfacet

 facet normal 0.011874 -0.733734 -0.679333
  outer loop
   vertex 234.978210 -2.228416 490.210968
   vertex 234.473907 -2.398676 490.386047
   vertex 234.477112 -2.228416 490.202209
  endloop
 endfacet

 facet normal 0.017042 0.221560 -0.974998
  outer loop
   vertex 234.477112 -2.228416 490.202209
   vertex 234.977249 -1.984058 490.266479
   vertex 234.978210 -2.228416 490.210968
  endloop
 endfacet

 facet normal 0.017042 0.221560 -0.974998
  outer loop
   vertex 234.476151 -1.984058 490.257721
   vertex 234.977249 -1.984058 490.266479
   vertex 234.477112 -2.228416 490.202209
  endloop
 endfacet

 facet normal 0.005168 0.955280 -0.295657
  outer loop
   vertex 234.973068 -1.909958 490.505829
   vertex 234.977249 -1.984058 490.266479
   vertex 234.476151 -1.984058 490.257721
  endloop
 endfacet

 facet normal 0.005168 0.955280 -0.295657
  outer loop
   vertex 234.476151 -1.984058 490.257721
   vertex 234.471970 -1.909958 490.497070
   vertex 234.973068 -1.909958 490.505829
  endloop
 endfacet

 facet normal -0.005168 -0.955280 0.295656
  outer loop
   vertex 234.388474 19.147533 495.280518
   vertex 234.889572 19.147533 495.289276
   vertex 234.384293 19.221634 495.519867
  endloop
 endfacet

 facet normal -0.005150 -0.955270 0.295691
  outer loop
   vertex 234.384293 19.221634 495.519867
   vertex 234.889572 19.147533 495.289276
   vertex 234.885391 19.221634 495.528595
  endloop
 endfacet

 facet normal -0.016982 -0.221560 0.974999
  outer loop
   vertex 234.885391 19.221634 495.528595
   vertex 234.383331 19.465992 495.575378
   vertex 234.384293 19.221634 495.519867
  endloop
 endfacet

 facet normal -0.016983 -0.221561 0.974999
  outer loop
   vertex 234.884415 19.465992 495.584106
   vertex 234.383331 19.465992 495.575378
   vertex 234.885391 19.221634 495.528595
  endloop
 endfacet

 facet normal -0.011833 0.733734 0.679334
  outer loop
   vertex 234.386536 19.636251 495.391541
   vertex 234.383331 19.465992 495.575378
   vertex 234.884415 19.465992 495.584106
  endloop
 endfacet

 facet normal -0.011832 0.733735 0.679333
  outer loop
   vertex 234.884415 19.465992 495.584106
   vertex 234.887634 19.636251 495.400269
   vertex 234.386536 19.636251 495.391541
  endloop
 endfacet

 facet normal 0.005150 0.955280 -0.295657
  outer loop
   vertex 234.386536 19.636251 495.391541
   vertex 234.887634 19.636251 495.400269
   vertex 234.390717 19.562151 495.152191
  endloop
 endfacet

 facet normal 0.005168 0.955270 -0.295691
  outer loop
   vertex 234.390717 19.562151 495.152191
   vertex 234.887634 19.636251 495.400269
   vertex 234.891815 19.562151 495.160950
  endloop
 endfacet

 facet normal 0.017042 0.221560 -0.974998
  outer loop
   vertex 234.891815 19.562151 495.160950
   vertex 234.391678 19.317793 495.096680
   vertex 234.390717 19.562151 495.152191
  endloop
 endfacet

 facet normal 0.017042 0.221560 -0.974998
  outer loop
   vertex 234.892776 19.317793 495.105438
   vertex 234.391678 19.317793 495.096680
   vertex 234.891815 19.562151 495.160950
  endloop
 endfacet

 facet normal 0.011874 -0.733734 -0.679333
  outer loop
   vertex 234.388474 19.147533 495.280518
   vertex 234.391678 19.317793 495.096680
   vertex 234.892776 19.317793 495.105438
  endloop
 endfacet

 facet normal 0.011874 -0.733734 -0.679333
  outer loop
   vertex 234.892776 19.317793 495.105438
   vertex 234.889572 19.147533 495.289276
   vertex 234.388474 19.147533 495.280518
  endloop
 endfacet

 facet normal 0.999848 0.000030 0.017456
  outer loop
   vertex 234.884415 19.465992 495.584106
   vertex 234.885391 19.221634 495.528595
   vertex 234.888596 19.391891 495.344757
  endloop
 endfacet

 facet normal 0.999848 0.000032 0.017457
  outer loop
   vertex 234.888596 19.391891 495.344757
   vertex 234.885391 19.221634 495.528595
   vertex 234.889572 19.147533 495.289276
  endloop
 endfacet

 facet normal 0.999848 0.000032 0.017457
  outer loop
   vertex 234.889572 19.147533 495.289276
   vertex 234.892776 19.317793 495.105438
   vertex 234.888596 19.391891 495.344757
  endloop
 endfacet

 facet normal 0.999847 -0.000037 0.017477
  outer loop
   vertex 234.977249 -1.984058 490.266479
   vertex 234.973068 -1.909958 490.505829
   vertex 234.974030 -2.154317 490.450317
  endloop
 endfacet

 facet normal 0.999848 -0.000021 0.017408
  outer loop
   vertex 234.974030 -2.154317 490.450317
   vertex 234.973068 -1.909958 490.505829
   vertex 234.969864 -2.080217 490.689667
  endloop
 endfacet

 facet normal 0.999848 -0.000021 0.017408
  outer loop
   vertex 234.969864 -2.080217 490.689667
   vertex 234.970825 -2.324575 490.634155
   vertex 234.974030 -2.154317 490.450317
  endloop
 endfacet

 facet normal 0.999848 0.000030 0.017456
  outer loop
   vertex 234.970825 -2.324575 490.634155
   vertex 234.975006 -2.398676 490.394806
   vertex 234.974030 -2.154317 490.450317
  endloop
 endfacet

 facet normal 0.999848 0.000030 0.017456
  outer loop
   vertex 234.974030 -2.154317 490.450317
   vertex 234.975006 -2.398676 490.394806
   vertex 234.978210 -2.228416 490.210968
  endloop
 endfacet

 facet normal 0.999847 -0.000037 0.017477
  outer loop
   vertex 234.978210 -2.228416 490.210968
   vertex 234.977249 -1.984058 490.266479
   vertex 234.974030 -2.154317 490.450317
  endloop
 endfacet

 facet normal 0.999847 -0.000037 0.017479
  outer loop
   vertex 234.892776 19.317793 495.105438
   vertex 234.891815 19.562151 495.160950
   vertex 234.888596 19.391891 495.344757
  endloop
 endfacet

 facet normal 0.999847 -0.000037 0.017479
  outer loop
   vertex 234.888596 19.391891 495.344757
   vertex 234.891815 19.562151 495.160950
   vertex 234.887634 19.636251 495.400269
  endloop
 endfacet

 facet normal 0.999847 -0.000037 0.017477
  outer loop
   vertex 234.887634 19.636251 495.400269
   vertex 234.884415 19.465992 495.584106
   vertex 234.888596 19.391891 495.344757
  endloop
 endfacet

 facet normal 0.999848 0.000006 0.017449
  outer loop
   vertex 232.944565 -0.595426 490.127991
   vertex 232.923294 -0.872407 491.346924
   vertex 232.956146 -3.512486 489.465332
  endloop
 endfacet

 facet normal 0.999848 -0.000002 0.017459
  outer loop
   vertex 232.956146 -3.512486 489.465332
   vertex 232.923294 -0.872407 491.346924
   vertex 232.934860 -3.789467 490.684296
  endloop
 endfacet

 facet normal 0.003866 -0.975150 -0.221512
  outer loop
   vertex 232.934860 -3.789467 490.684296
   vertex 231.567764 -3.512486 489.441101
   vertex 232.956146 -3.512486 489.465332
  endloop
 endfacet

 facet normal 0.003871 -0.975149 -0.221518
  outer loop
   vertex 231.546494 -3.789467 490.660034
   vertex 231.567764 -3.512486 489.441101
   vertex 232.934860 -3.789467 490.684296
  endloop
 endfacet

 facet normal -0.999848 -0.000001 -0.017448
  outer loop
   vertex 231.534927 -0.872407 491.322693
   vertex 231.567764 -3.512486 489.441101
   vertex 231.546494 -3.789467 490.660034
  endloop
 endfacet

 facet normal -0.017017 -0.221555 0.974999
  outer loop
   vertex 231.546494 -3.789467 490.660034
   vertex 232.923294 -0.872407 491.346924
   vertex 231.534927 -0.872407 491.322693
  endloop
 endfacet

 facet normal -0.003866 0.975149 0.221518
  outer loop
   vertex 231.534927 -0.872407 491.322693
   vertex 232.923294 -0.872407 491.346924
   vertex 231.556198 -0.595425 490.103760
  endloop
 endfacet

 facet normal -0.003866 0.975149 0.221518
  outer loop
   vertex 231.556198 -0.595425 490.103760
   vertex 232.923294 -0.872407 491.346924
   vertex 232.944565 -0.595426 490.127991
  endloop
 endfacet

 facet normal 0.017017 0.221555 -0.974999
  outer loop
   vertex 232.944565 -0.595426 490.127991
   vertex 231.567764 -3.512486 489.441101
   vertex 231.556198 -0.595425 490.103760
  endloop
 endfacet

 facet normal 0.017016 0.221555 -0.974999
  outer loop
   vertex 232.956146 -3.512486 489.465332
   vertex 231.567764 -3.512486 489.441101
   vertex 232.944565 -0.595426 490.127991
  endloop
 endfacet

 facet normal -0.003866 0.975149 0.221518
  outer loop
   vertex 231.470459 21.027042 495.015533
   vertex 231.449188 20.750061 496.234467
   vertex 232.858826 21.027042 495.039764
  endloop
 endfacet

 facet normal -0.003866 0.975149 0.221518
  outer loop
   vertex 232.858826 21.027042 495.039764
   vertex 231.449188 20.750061 496.234467
   vertex 232.837555 20.750061 496.258698
  endloop
 endfacet

 facet normal 0.999848 0.000006 0.017449
  outer loop
   vertex 232.837555 20.750061 496.258698
   vertex 232.870407 18.109982 494.377136
   vertex 232.858826 21.027042 495.039764
  endloop
 endfacet

 facet normal 0.999848 -0.000002 0.017460
  outer loop
   vertex 232.849121 17.833000 495.596069
   vertex 232.870407 18.109982 494.377136
   vertex 232.837555 20.750061 496.258698
  endloop
 endfacet

 facet normal 0.003865 -0.975149 -0.221518
  outer loop
   vertex 231.460754 17.833002 495.571838
   vertex 232.870407 18.109982 494.377136
   vertex 232.849121 17.833000 495.596069
  endloop
 endfacet

 facet normal -0.017017 -0.221545 0.975002
  outer loop
   vertex 232.849121 17.833000 495.596069
   vertex 231.449188 20.750061 496.234467
   vertex 231.460754 17.833002 495.571838
  endloop
 endfacet

 facet normal -0.999848 -0.000001 -0.017447
  outer loop
   vertex 231.460754 17.833002 495.571838
   vertex 231.449188 20.750061 496.234467
   vertex 231.482025 18.109982 494.352875
  endloop
 endfacet

 facet normal -0.999848 -0.000001 -0.017448
  outer loop
   vertex 231.482025 18.109982 494.352875
   vertex 231.449188 20.750061 496.234467
   vertex 231.470459 21.027042 495.015533
  endloop
 endfacet

 facet normal 0.017038 0.221555 -0.974999
  outer loop
   vertex 231.470459 21.027042 495.015533
   vertex 232.870407 18.109982 494.377136
   vertex 231.482025 18.109982 494.352875
  endloop
 endfacet

 facet normal 0.017017 0.221545 -0.975002
  outer loop
   vertex 232.858826 21.027042 495.039764
   vertex 232.870407 18.109982 494.377136
   vertex 231.470459 21.027042 495.015533
  endloop
 endfacet

 facet normal -0.017017 -0.221545 0.975002
  outer loop
   vertex 232.849121 17.833000 495.596069
   vertex 232.837555 20.750061 496.258698
   vertex 231.449188 20.750061 496.234467
  endloop
 endfacet

 facet normal -0.017038 -0.221545 0.975001
  outer loop
   vertex 232.934860 -3.789467 490.684296
   vertex 232.923294 -0.872407 491.346924
   vertex 231.546494 -3.789467 490.660034
  endloop
 endfacet

 facet normal 0.003871 -0.975150 -0.221511
  outer loop
   vertex 231.460754 17.833002 495.571838
   vertex 231.482025 18.109982 494.352875
   vertex 232.870407 18.109982 494.377136
  endloop
 endfacet

 facet normal -0.999848 -0.000001 -0.017448
  outer loop
   vertex 231.534927 -0.872407 491.322693
   vertex 231.556198 -0.595425 490.103760
   vertex 231.567764 -3.512486 489.441101
  endloop
 endfacet

 facet normal 0.999846 -0.000023 0.017553
  outer loop
   vertex 235.717575 -0.772047 489.972260
   vertex 235.639847 18.333166 494.424622
   vertex 235.715698 -0.796332 490.079132
  endloop
 endfacet

 facet normal 0.580017 -0.178262 0.794860
  outer loop
   vertex 235.715698 -0.796332 490.079132
   vertex 235.639847 18.333166 494.424622
   vertex 235.597366 -0.815443 490.161194
  endloop
 endfacet

 facet normal 0.597032 -0.175464 0.782793
  outer loop
   vertex 235.677338 17.284521 495.666779
   vertex 235.588669 18.400246 495.984497
   vertex 235.593140 17.270325 495.727814
  endloop
 endfacet

 facet normal -0.017043 -0.221557 0.974998
  outer loop
   vertex 235.593140 17.270325 495.727814
   vertex 235.588669 18.400246 495.984497
   vertex 234.747162 18.400246 495.969788
  endloop
 endfacet

 facet normal 0.017043 0.221557 -0.974998
  outer loop
   vertex 234.854507 -1.162670 489.820709
   vertex 235.691528 -0.032750 490.092102
   vertex 235.695999 -1.162670 489.835419
  endloop
 endfacet

 facet normal 0.623875 0.175474 -0.761570
  outer loop
   vertex 235.695999 -1.162670 489.835419
   vertex 235.691528 -0.032750 490.092102
   vertex 235.773529 -0.046946 490.156006
  endloop
 endfacet

 facet normal 0.607424 0.178259 -0.774119
  outer loop
   vertex 235.501450 18.053019 495.655457
   vertex 235.616852 18.033907 495.741608
   vertex 235.692719 -1.095592 491.396118
  endloop
 endfacet

 facet normal 0.999846 -0.000022 0.017554
  outer loop
   vertex 235.692719 -1.095592 491.396118
   vertex 235.616852 18.033907 495.741608
   vertex 235.690842 -1.119876 491.502991
  endloop
 endfacet

 facet normal 0.939339 0.079516 -0.333646
  outer loop
   vertex 234.872528 18.350025 494.337006
   vertex 234.948380 -0.779473 489.991516
   vertex 234.860214 18.357452 494.304108
  endloop
 endfacet

 facet normal 0.939475 0.079435 -0.333282
  outer loop
   vertex 234.860214 18.357452 494.304108
   vertex 234.948380 -0.779473 489.991516
   vertex 234.936081 -0.772047 489.958618
  endloop
 endfacet

 facet normal 0.017279 0.221550 -0.974996
  outer loop
   vertex 234.936081 -0.772047 489.958618
   vertex 234.789612 18.357452 494.302856
   vertex 234.860214 18.357452 494.304108
  endloop
 endfacet

 facet normal -0.003885 0.975150 0.221512
  outer loop
   vertex 235.616974 18.768688 494.363037
   vertex 235.597351 18.716015 494.594574
   vertex 235.698975 18.754492 494.426971
  endloop
 endfacet

 facet normal -0.003892 0.975151 0.221508
  outer loop
   vertex 235.698975 18.754492 494.426971
   vertex 235.597351 18.716015 494.594574
   vertex 235.696274 18.719273 494.581970
  endloop
 endfacet

 facet normal 0.999848 0.000011 0.017425
  outer loop
   vertex 235.696274 18.719273 494.581970
   vertex 235.703461 17.624571 494.170288
   vertex 235.698975 18.754492 494.426971
  endloop
 endfacet

 facet normal 0.003903 -0.975144 -0.221536
  outer loop
   vertex 235.667694 -1.531112 491.456848
   vertex 235.656174 -1.478440 491.224792
   vertex 235.751892 -1.516916 491.395844
  endloop
 endfacet

 facet normal 0.003846 -0.975152 -0.221505
  outer loop
   vertex 235.751892 -1.516916 491.395844
   vertex 235.656174 -1.478440 491.224792
   vertex 235.754593 -1.481698 491.240845
  endloop
 endfacet

 facet normal 0.999848 0.000012 0.017425
  outer loop
   vertex 235.754593 -1.481698 491.240845
   vertex 235.747406 -0.386996 491.652496
   vertex 235.751892 -1.516916 491.395844
  endloop
 endfacet

 facet normal 0.003926 -0.975141 -0.221549
  outer loop
   vertex 235.680038 17.319740 495.511810
   vertex 235.677338 17.284521 495.666779
   vertex 235.581619 17.322998 495.495728
  endloop
 endfacet

 facet normal 0.003847 -0.975151 -0.221507
  outer loop
   vertex 235.581619 17.322998 495.495728
   vertex 235.677338 17.284521 495.666779
   vertex 235.593140 17.270325 495.727814
  endloop
 endfacet

 facet normal 0.003864 -0.975151 -0.221508
  outer loop
   vertex 235.593140 17.270325 495.727814
   vertex 234.751648 17.270325 495.713135
   vertex 235.581619 17.322998 495.495728
  endloop
 endfacet

 facet normal -0.017008 -0.221532 0.975005
  outer loop
   vertex 234.747162 18.400246 495.969788
   vertex 234.751648 17.270325 495.713135
   vertex 235.593140 17.270325 495.727814
  endloop
 endfacet

 facet normal 0.607373 0.178267 -0.774157
  outer loop
   vertex 235.692719 -1.095592 491.396118
   vertex 235.577301 -1.076480 491.309967
   vertex 235.501450 18.053019 495.655457
  endloop
 endfacet

 facet normal 0.999848 -0.000002 0.017463
  outer loop
   vertex 235.501450 18.053019 495.655457
   vertex 235.577301 -1.076480 491.309967
   vertex 235.597366 -0.815443 490.161194
  endloop
 endfacet

 facet normal 0.999848 0.000001 0.017451
  outer loop
   vertex 235.597366 -0.815443 490.161194
   vertex 235.521500 18.314054 494.506683
   vertex 235.501450 18.053019 495.655457
  endloop
 endfacet

 facet normal 0.579967 -0.178270 0.794895
  outer loop
   vertex 235.639847 18.333166 494.424622
   vertex 235.521500 18.314054 494.506683
   vertex 235.597366 -0.815443 490.161194
  endloop
 endfacet

 facet normal 0.017043 0.221558 -0.974998
  outer loop
   vertex 234.854507 -1.162670 489.820709
   vertex 234.850021 -0.032750 490.077393
   vertex 235.691528 -0.032750 490.092102
  endloop
 endfacet

 facet normal -0.003872 0.975144 0.221539
  outer loop
   vertex 235.691528 -0.032750 490.092102
   vertex 234.850021 -0.032750 490.077393
   vertex 235.671906 -0.085423 490.323608
  endloop
 endfacet

 facet normal -0.003833 0.975143 0.221542
  outer loop
   vertex 235.671906 -0.085423 490.323608
   vertex 235.773529 -0.046946 490.156006
   vertex 235.691528 -0.032750 490.092102
  endloop
 endfacet

 facet normal -0.003896 0.975151 0.221506
  outer loop
   vertex 235.770828 -0.082165 490.311005
   vertex 235.773529 -0.046946 490.156006
   vertex 235.671906 -0.085423 490.323608
  endloop
 endfacet

 facet normal -0.927203 0.079471 -0.366032
  outer loop
   vertex 235.561829 -0.779473 490.002228
   vertex 235.485962 18.350025 494.347717
   vertex 235.575272 -0.772047 489.969788
  endloop
 endfacet

 facet normal -0.927170 0.079489 -0.366110
  outer loop
   vertex 235.575272 -0.772047 489.969788
   vertex 235.485962 18.350025 494.347717
   vertex 235.499420 18.357450 494.315247
  endloop
 endfacet

 facet normal 0.016937 0.221549 -0.975002
  outer loop
   vertex 235.499420 18.357450 494.315247
   vertex 235.717575 -0.772047 489.972260
   vertex 235.575272 -0.772047 489.969788
  endloop
 endfacet

 facet normal 0.017147 0.221550 -0.974998
  outer loop
   vertex 235.641708 18.357450 494.317749
   vertex 235.717575 -0.772047 489.972260
   vertex 235.499420 18.357450 494.315247
  endloop
 endfacet

 facet normal 0.999848 0.000009 0.017418
  outer loop
   vertex 235.639847 18.333166 494.424622
   vertex 235.717575 -0.772047 489.972260
   vertex 235.641708 18.357450 494.317749
  endloop
 endfacet

 facet normal 0.999848 -0.000007 0.017457
  outer loop
   vertex 234.505035 -2.590435 489.771271
   vertex 234.479691 -1.230246 491.223419
   vertex 234.486053 -2.837449 490.858337
  endloop
 endfacet

 facet normal -0.017032 -0.221543 0.975002
  outer loop
   vertex 234.486053 -2.837449 490.858337
   vertex 234.479691 -1.230246 491.223419
   vertex 232.945251 -2.837449 490.831421
  endloop
 endfacet

 facet normal 0.003870 -0.975149 -0.221515
  outer loop
   vertex 232.945251 -2.837449 490.831421
   vertex 232.964218 -2.590435 489.744354
   vertex 234.486053 -2.837449 490.858337
  endloop
 endfacet

 facet normal -0.999848 -0.000005 -0.017446
  outer loop
   vertex 232.938873 -1.230246 491.196533
   vertex 232.964218 -2.590435 489.744354
   vertex 232.945251 -2.837449 490.831421
  endloop
 endfacet

 facet normal -0.999848 0.000007 -0.017457
  outer loop
   vertex 232.957855 -0.983232 490.109467
   vertex 232.964218 -2.590435 489.744354
   vertex 232.938873 -1.230246 491.196533
  endloop
 endfacet

 facet normal -0.003865 0.975149 0.221515
  outer loop
   vertex 232.938873 -1.230246 491.196533
   vertex 234.479691 -1.230246 491.223419
   vertex 232.957855 -0.983232 490.109467
  endloop
 endfacet

 facet normal -0.003865 0.975149 0.221515
  outer loop
   vertex 232.957855 -0.983232 490.109467
   vertex 234.479691 -1.230246 491.223419
   vertex 234.498657 -0.983232 490.136353
  endloop
 endfacet

 facet normal 0.999848 0.000005 0.017446
  outer loop
   vertex 234.498657 -0.983232 490.136353
   vertex 234.479691 -1.230246 491.223419
   vertex 234.505035 -2.590435 489.771271
  endloop
 endfacet

 facet normal 0.017032 0.221543 -0.975002
  outer loop
   vertex 234.505035 -2.590435 489.771271
   vertex 232.964218 -2.590435 489.744354
   vertex 234.498657 -0.983232 490.136353
  endloop
 endfacet

 facet normal 0.003870 -0.975149 -0.221515
  outer loop
   vertex 234.486053 -2.837449 490.858337
   vertex 232.964218 -2.590435 489.744354
   vertex 234.505035 -2.590435 489.771271
  endloop
 endfacet

 facet normal 0.017032 0.221560 -0.974998
  outer loop
   vertex 234.415161 20.075024 494.919983
   vertex 234.421539 18.467821 494.554871
   vertex 232.874344 20.075024 494.893066
  endloop
 endfacet

 facet normal 0.017013 0.221543 -0.975002
  outer loop
   vertex 232.874344 20.075024 494.893066
   vertex 234.421539 18.467821 494.554871
   vertex 232.880722 18.467821 494.527985
  endloop
 endfacet

 facet normal -0.999848 -0.000005 -0.017446
  outer loop
   vertex 232.880722 18.467821 494.527985
   vertex 232.855377 19.828011 495.980133
   vertex 232.874344 20.075024 494.893066
  endloop
 endfacet

 facet normal -0.999848 0.000007 -0.017457
  outer loop
   vertex 232.861740 18.220808 495.615051
   vertex 232.855377 19.828011 495.980133
   vertex 232.880722 18.467821 494.527985
  endloop
 endfacet

 facet normal -0.017013 -0.221543 0.975002
  outer loop
   vertex 234.402557 18.220808 495.641937
   vertex 232.855377 19.828011 495.980133
   vertex 232.861740 18.220808 495.615051
  endloop
 endfacet

 facet normal 0.003865 -0.975149 -0.221515
  outer loop
   vertex 232.861740 18.220808 495.615051
   vertex 234.421539 18.467821 494.554871
   vertex 234.402557 18.220808 495.641937
  endloop
 endfacet

 facet normal 0.999848 0.000002 0.017459
  outer loop
   vertex 234.402557 18.220808 495.641937
   vertex 234.421539 18.467821 494.554871
   vertex 234.396179 19.828011 496.007050
  endloop
 endfacet

 facet normal 0.999848 0.000002 0.017459
  outer loop
   vertex 234.396179 19.828011 496.007050
   vertex 234.421539 18.467821 494.554871
   vertex 234.415161 20.075024 494.919983
  endloop
 endfacet

 facet normal -0.003870 0.975149 0.221515
  outer loop
   vertex 234.415161 20.075024 494.919983
   vertex 232.855377 19.828011 495.980133
   vertex 234.396179 19.828011 496.007050
  endloop
 endfacet

 facet normal -0.003870 0.975149 0.221515
  outer loop
   vertex 232.874344 20.075024 494.893066
   vertex 232.855377 19.828011 495.980133
   vertex 234.415161 20.075024 494.919983
  endloop
 endfacet

 facet normal -0.999847 -0.000012 -0.017466
  outer loop
   vertex 233.881958 -4.173084 490.228943
   vertex 233.880600 -3.831782 490.306458
   vertex 233.889114 -3.721007 489.818970
  endloop
 endfacet

 facet normal 0.999847 0.000054 0.017476
  outer loop
   vertex 233.889114 -3.721007 489.818970
   vertex 233.880600 -3.831782 490.306458
   vertex 233.885544 -3.947046 490.023956
  endloop
 endfacet

 facet normal 0.999848 0.000017 0.017435
  outer loop
   vertex 233.885544 -3.947046 490.023956
   vertex 233.890472 -4.062309 489.741425
   vertex 233.889114 -3.721007 489.818970
  endloop
 endfacet

 facet normal 0.999848 -0.000032 0.017455
  outer loop
   vertex 233.881958 -4.173084 490.228943
   vertex 233.890472 -4.062309 489.741425
   vertex 233.885544 -3.947046 490.023956
  endloop
 endfacet

 facet normal 0.003867 -0.975151 -0.221508
  outer loop
   vertex 232.890625 -4.062309 489.723969
   vertex 233.890472 -4.062309 489.741425
   vertex 233.881958 -4.173084 490.228943
  endloop
 endfacet

 facet normal 0.003867 -0.975151 -0.221508
  outer loop
   vertex 233.881958 -4.173084 490.228943
   vertex 232.882111 -4.173084 490.211487
   vertex 232.890625 -4.062309 489.723969
  endloop
 endfacet

 facet normal -0.999848 0.000000 -0.017462
  outer loop
   vertex 232.890625 -4.062309 489.723969
   vertex 232.882111 -4.173084 490.211487
   vertex 232.884048 -2.404555 490.100555
  endloop
 endfacet

 facet normal -0.999848 0.000000 -0.017463
  outer loop
   vertex 232.884048 -2.404555 490.100555
   vertex 232.882111 -4.173084 490.211487
   vertex 232.875534 -2.515330 490.588043
  endloop
 endfacet

 facet normal -0.003867 0.975148 0.221522
  outer loop
   vertex 232.875534 -2.515330 490.588043
   vertex 233.875381 -2.515330 490.605499
   vertex 232.884048 -2.404555 490.100555
  endloop
 endfacet

 facet normal -0.017022 -0.221497 0.975013
  outer loop
   vertex 233.627029 -2.921955 490.508789
   vertex 233.875381 -2.515330 490.605499
   vertex 232.875534 -2.515330 490.588043
  endloop
 endfacet

 facet normal -0.017006 -0.221506 0.975011
  outer loop
   vertex 233.876740 -2.856633 490.527985
   vertex 233.875381 -2.515330 490.605499
   vertex 233.627029 -2.921955 490.508789
  endloop
 endfacet

 facet normal 0.017022 0.221496 -0.975013
  outer loop
   vertex 233.544464 20.159531 495.239319
   vertex 233.796036 19.752905 495.151337
   vertex 232.796188 19.752905 495.133881
  endloop
 endfacet

 facet normal 0.003867 -0.975148 -0.221522
  outer loop
   vertex 232.796188 19.752905 495.133881
   vertex 233.796036 19.752905 495.151337
   vertex 232.787674 19.642130 495.621368
  endloop
 endfacet

 facet normal -0.999848 0.000000 -0.017463
  outer loop
   vertex 232.787674 19.642130 495.621368
   vertex 232.789612 21.410660 495.510437
   vertex 232.796188 19.752905 495.133881
  endloop
 endfacet

 facet normal -0.999848 0.000000 -0.017462
  outer loop
   vertex 232.781097 21.299885 495.997955
   vertex 232.789612 21.410660 495.510437
   vertex 232.787674 19.642130 495.621368
  endloop
 endfacet

 facet normal -0.003867 0.975151 0.221508
  outer loop
   vertex 233.789459 21.410660 495.527893
   vertex 232.789612 21.410660 495.510437
   vertex 232.781097 21.299885 495.997955
  endloop
 endfacet

 facet normal -0.003867 0.975151 0.221508
  outer loop
   vertex 232.781097 21.299885 495.997955
   vertex 233.780945 21.299885 496.015411
   vertex 233.789459 21.410660 495.527893
  endloop
 endfacet

 facet normal 0.999847 0.000053 0.017474
  outer loop
   vertex 233.789459 21.410660 495.527893
   vertex 233.780945 21.299885 496.015411
   vertex 233.785889 21.184622 495.732880
  endloop
 endfacet

 facet normal 0.999847 0.000004 0.017494
  outer loop
   vertex 233.785889 21.184622 495.732880
   vertex 233.780945 21.299885 496.015411
   vertex 233.782303 20.958582 495.937866
  endloop
 endfacet

 facet normal 0.999848 -0.000031 0.017456
  outer loop
   vertex 233.782303 20.958582 495.937866
   vertex 233.790817 21.069357 495.450378
   vertex 233.785889 21.184622 495.732880
  endloop
 endfacet

 facet normal -0.999847 -0.000012 -0.017466
  outer loop
   vertex 233.789459 21.410660 495.527893
   vertex 233.790817 21.069357 495.450378
   vertex 233.782303 20.958582 495.937866
  endloop
 endfacet

 facet normal 0.999848 0.000018 0.017436
  outer loop
   vertex 233.785889 21.184622 495.732880
   vertex 233.790817 21.069357 495.450378
   vertex 233.789459 21.410660 495.527893
  endloop
 endfacet

 facet normal 0.999848 0.000008 0.017418
  outer loop
   vertex 235.616852 18.033907 495.741608
   vertex 235.614990 18.009623 495.848480
   vertex 235.690842 -1.119876 491.502991
  endloop
 endfacet

 facet normal -0.017147 -0.221550 0.974998
  outer loop
   vertex 235.690842 -1.119876 491.502991
   vertex 235.614990 18.009623 495.848480
   vertex 235.472702 18.009623 495.845978
  endloop
 endfacet

 facet normal -0.016938 -0.221549 0.975002
  outer loop
   vertex 235.472702 18.009623 495.845978
   vertex 235.548553 -1.119876 491.500519
   vertex 235.690842 -1.119876 491.502991
  endloop
 endfacet

 facet normal -0.939337 -0.079517 0.333650
  outer loop
   vertex 235.460388 18.017048 495.813080
   vertex 235.548553 -1.119876 491.500519
   vertex 235.472702 18.009623 495.845978
  endloop
 endfacet

 facet normal -0.939338 -0.079516 0.333648
  outer loop
   vertex 235.536240 -1.112450 491.467621
   vertex 235.548553 -1.119876 491.500519
   vertex 235.460388 18.017048 495.813080
  endloop
 endfacet

 facet normal -0.017025 -0.221549 0.975001
  outer loop
   vertex 235.460388 18.017048 495.813080
   vertex 234.846954 18.017048 495.802368
   vertex 235.536240 -1.112450 491.467621
  endloop
 endfacet

 facet normal -0.017025 -0.221549 0.975001
  outer loop
   vertex 235.536240 -1.112450 491.467621
   vertex 234.846954 18.017048 495.802368
   vertex 234.922806 -1.112450 491.456909
  endloop
 endfacet

 facet normal 0.927170 -0.079489 0.366110
  outer loop
   vertex 234.922806 -1.112450 491.456909
   vertex 234.846954 18.017048 495.802368
   vertex 234.833496 18.009623 495.834839
  endloop
 endfacet

 facet normal 0.927055 -0.079554 0.366389
  outer loop
   vertex 234.833496 18.009623 495.834839
   vertex 234.909348 -1.119876 491.489349
   vertex 234.922806 -1.112450 491.456909
  endloop
 endfacet

 facet normal -0.017279 -0.221550 0.974996
  outer loop
   vertex 234.762894 18.009623 495.833588
   vertex 234.909348 -1.119876 491.489349
   vertex 234.833496 18.009623 495.834839
  endloop
 endfacet

 facet normal -0.016858 -0.221549 0.975004
  outer loop
   vertex 234.838745 -1.119876 491.488129
   vertex 234.909348 -1.119876 491.489349
   vertex 234.762894 18.009623 495.833588
  endloop
 endfacet

 facet normal -0.999848 -0.000000 -0.017452
  outer loop
   vertex 234.762894 18.009623 495.833588
   vertex 234.789612 18.357452 494.302856
   vertex 234.838745 -1.119876 491.488129
  endloop
 endfacet

 facet normal -0.999848 -0.000000 -0.017452
  outer loop
   vertex 234.838745 -1.119876 491.488129
   vertex 234.789612 18.357452 494.302856
   vertex 234.865463 -0.772047 489.957397
  endloop
 endfacet

 facet normal 0.016854 0.221549 -0.975004
  outer loop
   vertex 234.865463 -0.772047 489.957397
   vertex 234.789612 18.357452 494.302856
   vertex 234.936081 -0.772047 489.958618
  endloop
 endfacet

 facet normal 0.017022 0.221566 -0.974997
  outer loop
   vertex 233.635544 -2.811180 490.021271
   vertex 232.884048 -2.404555 490.100555
   vertex 233.883896 -2.404555 490.118011
  endloop
 endfacet

 facet normal -0.003867 0.975148 0.221522
  outer loop
   vertex 233.883896 -2.404555 490.118011
   vertex 232.884048 -2.404555 490.100555
   vertex 233.875381 -2.515330 490.605499
  endloop
 endfacet

 facet normal 0.999847 0.000010 0.017466
  outer loop
   vertex 233.875381 -2.515330 490.605499
   vertex 233.885254 -2.745858 490.040466
   vertex 233.883896 -2.404555 490.118011
  endloop
 endfacet

 facet normal 0.999847 0.000012 0.017465
  outer loop
   vertex 233.876740 -2.856633 490.527985
   vertex 233.885254 -2.745858 490.040466
   vertex 233.875381 -2.515330 490.605499
  endloop
 endfacet

 facet normal -0.999847 -0.000012 -0.017465
  outer loop
   vertex 233.875381 -2.515330 490.605499
   vertex 233.885254 -2.745858 490.040466
   vertex 233.876740 -2.856633 490.527985
  endloop
 endfacet

 facet normal -0.017039 -0.221506 0.975010
  outer loop
   vertex 233.876740 -2.856633 490.527985
   vertex 234.126953 -2.921955 490.517517
   vertex 233.875381 -2.515330 490.605499
  endloop
 endfacet

 facet normal -0.017047 -0.221511 0.975009
  outer loop
   vertex 233.875381 -2.515330 490.605499
   vertex 234.126953 -2.921955 490.517517
   vertex 234.300766 -2.626379 490.587708
  endloop
 endfacet

 facet normal -0.016979 -0.221549 0.975001
  outer loop
   vertex 234.300766 -2.626379 490.587708
   vertex 234.126953 -2.921955 490.517517
   vertex 234.310654 -3.100420 490.480164
  endloop
 endfacet

 facet normal -0.016961 -0.221549 0.975002
  outer loop
   vertex 234.310654 -3.100420 490.480164
   vertex 234.613037 -2.929770 490.524200
   vertex 234.300766 -2.626379 490.587708
  endloop
 endfacet

 facet normal -0.016929 -0.221602 0.974990
  outer loop
   vertex 234.378601 -3.344207 490.425934
   vertex 234.613037 -2.929770 490.524200
   vertex 234.310654 -3.100420 490.480164
  endloop
 endfacet

 facet normal -0.017090 -0.221515 0.975007
  outer loop
   vertex 234.728546 -3.344207 490.432068
   vertex 234.613037 -2.929770 490.524200
   vertex 234.378601 -3.344207 490.425934
  endloop
 endfacet

 facet normal -0.017090 -0.221535 0.975003
  outer loop
   vertex 234.378601 -3.344207 490.425934
   vertex 234.312592 -3.587995 490.369385
   vertex 234.728546 -3.344207 490.432068
  endloop
 endfacet

 facet normal -0.017096 -0.221525 0.975005
  outer loop
   vertex 234.728546 -3.344207 490.432068
   vertex 234.312592 -3.587995 490.369385
   vertex 234.616318 -3.758647 490.335938
  endloop
 endfacet

 facet normal -0.017072 -0.221484 0.975015
  outer loop
   vertex 234.616318 -3.758647 490.335938
   vertex 234.312592 -3.587995 490.369385
   vertex 234.130310 -3.766459 490.325653
  endloop
 endfacet

 facet normal -0.017070 -0.221571 0.974995
  outer loop
   vertex 234.130310 -3.766459 490.325653
   vertex 234.306458 -4.062036 490.261566
   vertex 234.616318 -3.758647 490.335938
  endloop
 endfacet

 facet normal -0.016999 -0.221531 0.975005
  outer loop
   vertex 233.880600 -3.831782 490.306458
   vertex 234.306458 -4.062036 490.261566
   vertex 234.130310 -3.766459 490.325653
  endloop
 endfacet

 facet normal -0.016985 -0.221506 0.975011
  outer loop
   vertex 233.881958 -4.173084 490.228943
   vertex 234.306458 -4.062036 490.261566
   vertex 233.880600 -3.831782 490.306458
  endloop
 endfacet

 facet normal -0.017039 -0.221506 0.975010
  outer loop
   vertex 233.880600 -3.831782 490.306458
   vertex 233.630386 -3.766459 490.316925
   vertex 233.881958 -4.173084 490.228943
  endloop
 endfacet

 facet normal -0.017022 -0.221497 0.975013
  outer loop
   vertex 233.881958 -4.173084 490.228943
   vertex 233.630386 -3.766459 490.316925
   vertex 232.882111 -4.173084 490.211487
  endloop
 endfacet

 facet normal -0.016987 -0.221558 0.974999
  outer loop
   vertex 232.882111 -4.173084 490.211487
   vertex 233.630386 -3.766459 490.316925
   vertex 233.446686 -3.587994 490.354279
  endloop
 endfacet

 facet normal -0.016938 -0.221603 0.974990
  outer loop
   vertex 233.446686 -3.587994 490.354279
   vertex 233.378754 -3.344207 490.408508
   vertex 232.882111 -4.173084 490.211487
  endloop
 endfacet

 facet normal -0.017022 -0.221566 0.974997
  outer loop
   vertex 233.535950 20.048756 495.726837
   vertex 232.787674 19.642130 495.621368
   vertex 233.787521 19.642130 495.638824
  endloop
 endfacet

 facet normal 0.003867 -0.975148 -0.221522
  outer loop
   vertex 233.787521 19.642130 495.638824
   vertex 232.787674 19.642130 495.621368
   vertex 233.796036 19.752905 495.151337
  endloop
 endfacet

 facet normal 0.999847 0.000012 0.017466
  outer loop
   vertex 233.796036 19.752905 495.151337
   vertex 233.786163 19.983433 495.716339
   vertex 233.787521 19.642130 495.638824
  endloop
 endfacet

 facet normal 0.999847 0.000012 0.017466
  outer loop
   vertex 233.794678 20.094208 495.228851
   vertex 233.786163 19.983433 495.716339
   vertex 233.796036 19.752905 495.151337
  endloop
 endfacet

 facet normal -0.999847 -0.000012 -0.017466
  outer loop
   vertex 233.796036 19.752905 495.151337
   vertex 233.786163 19.983433 495.716339
   vertex 233.794678 20.094208 495.228851
  endloop
 endfacet

 facet normal 0.017006 0.221506 -0.975011
  outer loop
   vertex 233.794678 20.094208 495.228851
   vertex 234.044388 20.159531 495.248047
   vertex 233.796036 19.752905 495.151337
  endloop
 endfacet

 facet normal 0.016980 0.221521 -0.975008
  outer loop
   vertex 233.796036 19.752905 495.151337
   vertex 234.044388 20.159531 495.248047
   vertex 234.220535 19.863955 495.183960
  endloop
 endfacet

 facet normal 0.017015 0.221541 -0.975003
  outer loop
   vertex 234.220535 19.863955 495.183960
   vertex 234.044388 20.159531 495.248047
   vertex 234.226654 20.337996 495.291779
  endloop
 endfacet

 facet normal 0.017005 0.221541 -0.975003
  outer loop
   vertex 234.226654 20.337996 495.291779
   vertex 234.530396 20.167345 495.258301
   vertex 234.220535 19.863955 495.183960
  endloop
 endfacet

 facet normal 0.017013 0.221555 -0.975000
  outer loop
   vertex 234.292664 20.581783 495.348328
   vertex 234.530396 20.167345 495.258301
   vertex 234.226654 20.337996 495.291779
  endloop
 endfacet

 facet normal 0.017089 0.221596 -0.974989
  outer loop
   vertex 234.642624 20.581783 495.354462
   vertex 234.530396 20.167345 495.258301
   vertex 234.292664 20.581783 495.348328
  endloop
 endfacet

 facet normal 0.017089 0.221644 -0.974978
  outer loop
   vertex 234.292664 20.581783 495.348328
   vertex 234.224731 20.825569 495.402557
   vertex 234.642624 20.581783 495.354462
  endloop
 endfacet

 facet normal 0.016995 0.221489 -0.975015
  outer loop
   vertex 234.642624 20.581783 495.354462
   vertex 234.224731 20.825569 495.402557
   vertex 234.527115 20.996222 495.446594
  endloop
 endfacet

 facet normal 0.017026 0.221436 -0.975026
  outer loop
   vertex 234.527115 20.996222 495.446594
   vertex 234.224731 20.825569 495.402557
   vertex 234.041031 21.004034 495.439880
  endloop
 endfacet

 facet normal 0.017029 0.221616 -0.974985
  outer loop
   vertex 234.041031 21.004034 495.439880
   vertex 234.214828 21.299612 495.510101
   vertex 234.527115 20.996222 495.446594
  endloop
 endfacet

 facet normal 0.016960 0.221654 -0.974978
  outer loop
   vertex 233.790817 21.069357 495.450378
   vertex 234.214828 21.299612 495.510101
   vertex 234.041031 21.004034 495.439880
  endloop
 endfacet

 facet normal 0.017046 0.221506 -0.975010
  outer loop
   vertex 233.789459 21.410660 495.527893
   vertex 234.214828 21.299612 495.510101
   vertex 233.790817 21.069357 495.450378
  endloop
 endfacet

 facet normal 0.017125 0.221506 -0.975009
  outer loop
   vertex 233.790817 21.069357 495.450378
   vertex 233.541107 21.004034 495.431152
   vertex 233.789459 21.410660 495.527893
  endloop
 endfacet

 facet normal 0.017022 0.221566 -0.974997
  outer loop
   vertex 233.789459 21.410660 495.527893
   vertex 233.541107 21.004034 495.431152
   vertex 232.789612 21.410660 495.510437
  endloop
 endfacet

 facet normal 0.017010 0.221544 -0.975002
  outer loop
   vertex 232.789612 21.410660 495.510437
   vertex 233.541107 21.004034 495.431152
   vertex 233.358826 20.825569 495.387421
  endloop
 endfacet

 facet normal 0.017021 0.221554 -0.974999
  outer loop
   vertex 233.358826 20.825569 495.387421
   vertex 233.292816 20.581783 495.330872
   vertex 232.789612 21.410660 495.510437
  endloop
 endfacet

 facet normal -0.470469 -0.197231 0.860092
  outer loop
   vertex 234.747162 18.400246 495.969788
   vertex 234.260254 18.455921 495.716217
   vertex 234.751648 17.270325 495.713135
  endloop
 endfacet

 facet normal -0.470511 -0.197249 0.860065
  outer loop
   vertex 234.751648 17.270325 495.713135
   vertex 234.260254 18.455921 495.716217
   vertex 234.264740 17.326000 495.459534
  endloop
 endfacet

 facet normal 0.003871 -0.975149 -0.221517
  outer loop
   vertex 234.264740 17.326000 495.459534
   vertex 234.284485 17.583092 494.328125
   vertex 234.751648 17.270325 495.713135
  endloop
 endfacet

 facet normal -0.999848 -0.000006 -0.017450
  outer loop
   vertex 234.260254 18.455921 495.716217
   vertex 234.284485 17.583092 494.328125
   vertex 234.264740 17.326000 495.459534
  endloop
 endfacet

 facet normal -0.999848 0.000010 -0.017460
  outer loop
   vertex 234.280014 18.713013 494.584808
   vertex 234.284485 17.583092 494.328125
   vertex 234.260254 18.455921 495.716217
  endloop
 endfacet

 facet normal -0.003864 0.975149 0.221517
  outer loop
   vertex 234.260254 18.455921 495.716217
   vertex 234.775467 18.768688 494.348358
   vertex 234.280014 18.713013 494.584808
  endloop
 endfacet

 facet normal -0.440210 0.197250 -0.875961
  outer loop
   vertex 234.280014 18.713013 494.584808
   vertex 234.775467 18.768688 494.348358
   vertex 234.284485 17.583092 494.328125
  endloop
 endfacet

 facet normal -0.440199 0.197245 -0.875968
  outer loop
   vertex 234.284485 17.583092 494.328125
   vertex 234.775467 18.768688 494.348358
   vertex 234.779953 17.638767 494.091675
  endloop
 endfacet

 facet normal 0.003865 -0.975149 -0.221515
  outer loop
   vertex 234.779953 17.638767 494.091675
   vertex 234.751648 17.270325 495.713135
   vertex 234.284485 17.583092 494.328125
  endloop
 endfacet

 facet normal 0.003864 -0.975149 -0.221515
  outer loop
   vertex 235.601822 17.586094 494.337891
   vertex 234.751648 17.270325 495.713135
   vertex 234.779953 17.638767 494.091675
  endloop
 endfacet

 facet normal 0.003862 -0.975149 -0.221516
  outer loop
   vertex 235.581619 17.322998 495.495728
   vertex 234.751648 17.270325 495.713135
   vertex 235.601822 17.586094 494.337891
  endloop
 endfacet

 facet normal 0.999848 0.000006 0.017447
  outer loop
   vertex 235.601822 17.586094 494.337891
   vertex 235.577133 18.452919 495.752411
   vertex 235.581619 17.322998 495.495728
  endloop
 endfacet

 facet normal 0.164413 0.219131 -0.961743
  outer loop
   vertex 235.581619 17.322998 495.495728
   vertex 235.577133 18.452919 495.752411
   vertex 235.680038 17.319740 495.511810
  endloop
 endfacet

 facet normal 0.164102 0.219115 -0.961800
  outer loop
   vertex 235.680038 17.319740 495.511810
   vertex 235.577133 18.452919 495.752411
   vertex 235.675568 18.449659 495.768463
  endloop
 endfacet

 facet normal 0.999848 -0.000002 0.017425
  outer loop
   vertex 235.675568 18.449659 495.768463
   vertex 235.677338 17.284521 495.666779
   vertex 235.680038 17.319740 495.511810
  endloop
 endfacet

 facet normal 0.999847 -0.000010 0.017518
  outer loop
   vertex 235.672852 18.414442 495.923462
   vertex 235.677338 17.284521 495.666779
   vertex 235.675568 18.449659 495.768463
  endloop
 endfacet

 facet normal 0.597101 -0.175445 0.782745
  outer loop
   vertex 235.588669 18.400246 495.984497
   vertex 235.677338 17.284521 495.666779
   vertex 235.672852 18.414442 495.923462
  endloop
 endfacet

 facet normal -0.003847 0.975151 0.221508
  outer loop
   vertex 235.672852 18.414442 495.923462
   vertex 235.577133 18.452919 495.752411
   vertex 235.588669 18.400246 495.984497
  endloop
 endfacet

 facet normal -0.003872 0.975151 0.221509
  outer loop
   vertex 235.588669 18.400246 495.984497
   vertex 235.577133 18.452919 495.752411
   vertex 234.747162 18.400246 495.969788
  endloop
 endfacet

 facet normal -0.003870 0.975149 0.221516
  outer loop
   vertex 234.747162 18.400246 495.969788
   vertex 235.577133 18.452919 495.752411
   vertex 235.597351 18.716015 494.594574
  endloop
 endfacet

 facet normal -0.003866 0.975148 0.221519
  outer loop
   vertex 235.597351 18.716015 494.594574
   vertex 234.775467 18.768688 494.348358
   vertex 234.747162 18.400246 495.969788
  endloop
 endfacet

 facet normal -0.003864 0.975150 0.221514
  outer loop
   vertex 235.616974 18.768688 494.363037
   vertex 234.775467 18.768688 494.348358
   vertex 235.597351 18.716015 494.594574
  endloop
 endfacet

 facet normal 0.017008 0.221557 -0.974999
  outer loop
   vertex 234.779953 17.638767 494.091675
   vertex 234.775467 18.768688 494.348358
   vertex 235.616974 18.768688 494.363037
  endloop
 endfacet

 facet normal 0.017043 0.221532 -0.975004
  outer loop
   vertex 235.616974 18.768688 494.363037
   vertex 235.621445 17.638767 494.106384
   vertex 234.779953 17.638767 494.091675
  endloop
 endfacet

 facet normal 0.003873 -0.975143 -0.221541
  outer loop
   vertex 234.779953 17.638767 494.091675
   vertex 235.621445 17.638767 494.106384
   vertex 235.601822 17.586094 494.337891
  endloop
 endfacet

 facet normal 0.003829 -0.975143 -0.221544
  outer loop
   vertex 235.601822 17.586094 494.337891
   vertex 235.621445 17.638767 494.106384
   vertex 235.703461 17.624571 494.170288
  endloop
 endfacet

 facet normal 0.003911 -0.975153 -0.221497
  outer loop
   vertex 235.703461 17.624571 494.170288
   vertex 235.700760 17.589354 494.325287
   vertex 235.601822 17.586094 494.337891
  endloop
 endfacet

 facet normal 0.999848 0.000011 0.017425
  outer loop
   vertex 235.696274 18.719273 494.581970
   vertex 235.700760 17.589354 494.325287
   vertex 235.703461 17.624571 494.170288
  endloop
 endfacet

 facet normal 0.130399 -0.219142 0.966940
  outer loop
   vertex 235.601822 17.586094 494.337891
   vertex 235.700760 17.589354 494.325287
   vertex 235.696274 18.719273 494.581970
  endloop
 endfacet

 facet normal 0.130415 -0.219143 0.966938
  outer loop
   vertex 235.696274 18.719273 494.581970
   vertex 235.597351 18.716015 494.594574
   vertex 235.601822 17.586094 494.337891
  endloop
 endfacet

 facet normal 0.999848 -0.000010 0.017457
  outer loop
   vertex 235.601822 17.586094 494.337891
   vertex 235.597351 18.716015 494.594574
   vertex 235.577133 18.452919 495.752411
  endloop
 endfacet

 facet normal -0.440199 0.197245 -0.875968
  outer loop
   vertex 234.854507 -1.162670 489.820709
   vertex 234.359039 -1.218345 490.057159
   vertex 234.850021 -0.032750 490.077393
  endloop
 endfacet

 facet normal -0.440199 0.197245 -0.875968
  outer loop
   vertex 234.850021 -0.032750 490.077393
   vertex 234.359039 -1.218345 490.057159
   vertex 234.354553 -0.088425 490.313843
  endloop
 endfacet

 facet normal -0.003862 0.975149 0.221517
  outer loop
   vertex 234.354553 -0.088425 490.313843
   vertex 234.334808 -0.345517 491.445251
   vertex 234.850021 -0.032750 490.077393
  endloop
 endfacet

 facet normal -0.999848 -0.000006 -0.017450
  outer loop
   vertex 234.359039 -1.218345 490.057159
   vertex 234.334808 -0.345517 491.445251
   vertex 234.354553 -0.088425 490.313843
  endloop
 endfacet

 facet normal -0.999848 -0.000006 -0.017450
  outer loop
   vertex 234.339294 -1.475437 491.188568
   vertex 234.334808 -0.345517 491.445251
   vertex 234.359039 -1.218345 490.057159
  endloop
 endfacet

 facet normal 0.003872 -0.975149 -0.221517
  outer loop
   vertex 234.359039 -1.218345 490.057159
   vertex 234.826202 -1.531112 491.442169
   vertex 234.339294 -1.475437 491.188568
  endloop
 endfacet

 facet normal -0.470511 -0.197249 0.860066
  outer loop
   vertex 234.339294 -1.475437 491.188568
   vertex 234.826202 -1.531112 491.442169
   vertex 234.334808 -0.345517 491.445251
  endloop
 endfacet

 facet normal -0.470511 -0.197249 0.860066
  outer loop
   vertex 234.334808 -0.345517 491.445251
   vertex 234.826202 -1.531112 491.442169
   vertex 234.821716 -0.401192 491.698853
  endloop
 endfacet

 facet normal -0.003871 0.975149 0.221514
  outer loop
   vertex 234.821716 -0.401192 491.698853
   vertex 234.850021 -0.032750 490.077393
   vertex 234.334808 -0.345517 491.445251
  endloop
 endfacet

 facet normal -0.003862 0.975149 0.221514
  outer loop
   vertex 235.651688 -0.348519 491.481445
   vertex 234.850021 -0.032750 490.077393
   vertex 234.821716 -0.401192 491.698853
  endloop
 endfacet

 facet normal -0.003865 0.975149 0.221516
  outer loop
   vertex 235.671906 -0.085423 490.323608
   vertex 234.850021 -0.032750 490.077393
   vertex 235.651688 -0.348519 491.481445
  endloop
 endfacet

 facet normal 0.999848 -0.000009 0.017457
  outer loop
   vertex 235.651688 -0.348519 491.481445
   vertex 235.676376 -1.215343 490.066956
   vertex 235.671906 -0.085423 490.323608
  endloop
 endfacet

 facet normal 0.130415 -0.219118 0.966943
  outer loop
   vertex 235.671906 -0.085423 490.323608
   vertex 235.676376 -1.215343 490.066956
   vertex 235.770828 -0.082165 490.311005
  endloop
 endfacet

 facet normal 0.130689 -0.219132 0.966903
  outer loop
   vertex 235.770828 -0.082165 490.311005
   vertex 235.676376 -1.215343 490.066956
   vertex 235.775314 -1.212085 490.054321
  endloop
 endfacet

 facet normal 0.999848 0.000011 0.017425
  outer loop
   vertex 235.775314 -1.212085 490.054321
   vertex 235.773529 -0.046946 490.156006
   vertex 235.770828 -0.082165 490.311005
  endloop
 endfacet

 facet normal 0.999848 0.000011 0.017428
  outer loop
   vertex 235.778015 -1.176866 489.899353
   vertex 235.773529 -0.046946 490.156006
   vertex 235.775314 -1.212085 490.054321
  endloop
 endfacet

 facet normal 0.623977 0.175445 -0.761493
  outer loop
   vertex 235.695999 -1.162670 489.835419
   vertex 235.773529 -0.046946 490.156006
   vertex 235.778015 -1.176866 489.899353
  endloop
 endfacet

 facet normal 0.003888 -0.975150 -0.221510
  outer loop
   vertex 235.778015 -1.176866 489.899353
   vertex 235.676376 -1.215343 490.066956
   vertex 235.695999 -1.162670 489.835419
  endloop
 endfacet

 facet normal 0.003872 -0.975150 -0.221511
  outer loop
   vertex 235.695999 -1.162670 489.835419
   vertex 235.676376 -1.215343 490.066956
   vertex 234.854507 -1.162670 489.820709
  endloop
 endfacet

 facet normal 0.003874 -0.975149 -0.221516
  outer loop
   vertex 234.854507 -1.162670 489.820709
   vertex 235.676376 -1.215343 490.066956
   vertex 235.656174 -1.478440 491.224792
  endloop
 endfacet

 facet normal 0.003870 -0.975149 -0.221514
  outer loop
   vertex 235.656174 -1.478440 491.224792
   vertex 234.826202 -1.531112 491.442169
   vertex 234.854507 -1.162670 489.820709
  endloop
 endfacet

 facet normal 0.003864 -0.975145 -0.221534
  outer loop
   vertex 235.667694 -1.531112 491.456848
   vertex 234.826202 -1.531112 491.442169
   vertex 235.656174 -1.478440 491.224792
  endloop
 endfacet

 facet normal -0.017008 -0.221558 0.974999
  outer loop
   vertex 234.821716 -0.401192 491.698853
   vertex 234.826202 -1.531112 491.442169
   vertex 235.667694 -1.531112 491.456848
  endloop
 endfacet

 facet normal -0.017008 -0.221557 0.974999
  outer loop
   vertex 235.667694 -1.531112 491.456848
   vertex 235.663223 -0.401192 491.713531
   vertex 234.821716 -0.401192 491.698853
  endloop
 endfacet

 facet normal -0.003864 0.975151 0.221506
  outer loop
   vertex 234.821716 -0.401192 491.698853
   vertex 235.663223 -0.401192 491.713531
   vertex 235.651688 -0.348519 491.481445
  endloop
 endfacet

 facet normal -0.003845 0.975152 0.221506
  outer loop
   vertex 235.651688 -0.348519 491.481445
   vertex 235.663223 -0.401192 491.713531
   vertex 235.747406 -0.386996 491.652496
  endloop
 endfacet

 facet normal -0.003920 0.975142 0.221545
  outer loop
   vertex 235.747406 -0.386996 491.652496
   vertex 235.750122 -0.351778 491.497528
   vertex 235.651688 -0.348519 491.481445
  endloop
 endfacet

 facet normal 0.999847 -0.000024 0.017519
  outer loop
   vertex 235.754593 -1.481698 491.240845
   vertex 235.750122 -0.351778 491.497528
   vertex 235.747406 -0.386996 491.652496
  endloop
 endfacet

 facet normal 0.164389 0.219130 -0.961748
  outer loop
   vertex 235.651688 -0.348519 491.481445
   vertex 235.750122 -0.351778 491.497528
   vertex 235.754593 -1.481698 491.240845
  endloop
 endfacet

 facet normal 0.164123 0.219116 -0.961796
  outer loop
   vertex 235.754593 -1.481698 491.240845
   vertex 235.656174 -1.478440 491.224792
   vertex 235.651688 -0.348519 491.481445
  endloop
 endfacet

 facet normal 0.999848 0.000007 0.017447
  outer loop
   vertex 235.651688 -0.348519 491.481445
   vertex 235.656174 -1.478440 491.224792
   vertex 235.676376 -1.215343 490.066956
  endloop
 endfacet

 facet normal -0.017125 -0.221506 0.975009
  outer loop
   vertex 233.786163 19.983433 495.716339
   vertex 233.787521 19.642130 495.638824
   vertex 234.035873 20.048756 495.735565
  endloop
 endfacet

 facet normal -0.017041 -0.221555 0.974999
  outer loop
   vertex 234.035873 20.048756 495.735565
   vertex 233.787521 19.642130 495.638824
   vertex 234.212021 19.753180 495.671478
  endloop
 endfacet

 facet normal -0.017014 -0.221540 0.975003
  outer loop
   vertex 234.212021 19.753180 495.671478
   vertex 234.218155 20.227221 495.779297
   vertex 234.035873 20.048756 495.735565
  endloop
 endfacet

 facet normal -0.017005 -0.221540 0.975003
  outer loop
   vertex 234.521896 20.056570 495.745819
   vertex 234.218155 20.227221 495.779297
   vertex 234.212021 19.753180 495.671478
  endloop
 endfacet

 facet normal -0.017013 -0.221555 0.975000
  outer loop
   vertex 234.284164 20.471008 495.835846
   vertex 234.218155 20.227221 495.779297
   vertex 234.521896 20.056570 495.745819
  endloop
 endfacet

 facet normal -0.017005 -0.221550 0.975001
  outer loop
   vertex 234.521896 20.056570 495.745819
   vertex 234.634109 20.471008 495.841949
   vertex 234.284164 20.471008 495.835846
  endloop
 endfacet

 facet normal -0.017006 -0.221507 0.975010
  outer loop
   vertex 234.284164 20.471008 495.835846
   vertex 234.634109 20.471008 495.841949
   vertex 234.216217 20.714794 495.890045
  endloop
 endfacet

 facet normal -0.017044 -0.221571 0.974995
  outer loop
   vertex 234.216217 20.714794 495.890045
   vertex 234.634109 20.471008 495.841949
   vertex 234.518600 20.885447 495.934113
  endloop
 endfacet

 facet normal -0.017029 -0.221597 0.974990
  outer loop
   vertex 234.518600 20.885447 495.934113
   vertex 234.032532 20.893259 495.927399
   vertex 234.216217 20.714794 495.890045
  endloop
 endfacet

 facet normal -0.017028 -0.221521 0.975007
  outer loop
   vertex 234.206329 21.188837 495.997589
   vertex 234.032532 20.893259 495.927399
   vertex 234.518600 20.885447 495.934113
  endloop
 endfacet

 facet normal -0.017040 -0.221514 0.975008
  outer loop
   vertex 233.782303 20.958582 495.937866
   vertex 234.032532 20.893259 495.927399
   vertex 234.206329 21.188837 495.997589
  endloop
 endfacet

 facet normal -0.016997 -0.221589 0.974992
  outer loop
   vertex 234.206329 21.188837 495.997589
   vertex 233.780945 21.299885 496.015411
   vertex 233.782303 20.958582 495.937866
  endloop
 endfacet

 facet normal -0.016982 -0.221589 0.974992
  outer loop
   vertex 233.782303 20.958582 495.937866
   vertex 233.780945 21.299885 496.015411
   vertex 233.532593 20.893259 495.918671
  endloop
 endfacet

 facet normal -0.017022 -0.221566 0.974997
  outer loop
   vertex 233.532593 20.893259 495.918671
   vertex 233.780945 21.299885 496.015411
   vertex 232.781097 21.299885 495.997955
  endloop
 endfacet

 facet normal -0.017010 -0.221545 0.975002
  outer loop
   vertex 232.781097 21.299885 495.997955
   vertex 233.350327 20.714794 495.874939
   vertex 233.532593 20.893259 495.918671
  endloop
 endfacet

 facet normal -0.017020 -0.221554 0.974999
  outer loop
   vertex 233.284317 20.471008 495.818390
   vertex 233.350327 20.714794 495.874939
   vertex 232.781097 21.299885 495.997955
  endloop
 endfacet

 facet normal 0.017061 0.221589 -0.974991
  outer loop
   vertex 233.885254 -2.745858 490.040466
   vertex 233.883896 -2.404555 490.118011
   vertex 234.135468 -2.811180 490.029999
  endloop
 endfacet

 facet normal 0.016987 0.221546 -0.975002
  outer loop
   vertex 234.135468 -2.811180 490.029999
   vertex 233.883896 -2.404555 490.118011
   vertex 234.309265 -2.515604 490.100189
  endloop
 endfacet

 facet normal 0.016980 0.221550 -0.975001
  outer loop
   vertex 234.309265 -2.515604 490.100189
   vertex 234.319168 -2.989645 489.992645
   vertex 234.135468 -2.811180 490.029999
  endloop
 endfacet

 facet normal 0.017058 0.221551 -0.975000
  outer loop
   vertex 234.621552 -2.818995 490.036713
   vertex 234.319168 -2.989645 489.992645
   vertex 234.309265 -2.515604 490.100189
  endloop
 endfacet

 facet normal 0.017074 0.221523 -0.975006
  outer loop
   vertex 234.387100 -3.233432 489.938446
   vertex 234.319168 -2.989645 489.992645
   vertex 234.621552 -2.818995 490.036713
  endloop
 endfacet

 facet normal 0.017005 0.221560 -0.974998
  outer loop
   vertex 234.621552 -2.818995 490.036713
   vertex 234.737045 -3.233432 489.944550
   vertex 234.387100 -3.233432 489.938446
  endloop
 endfacet

 facet normal 0.017005 0.221557 -0.974999
  outer loop
   vertex 234.387100 -3.233432 489.938446
   vertex 234.737045 -3.233432 489.944550
   vertex 234.321091 -3.477220 489.881897
  endloop
 endfacet

 facet normal 0.017011 0.221548 -0.975001
  outer loop
   vertex 234.321091 -3.477220 489.881897
   vertex 234.737045 -3.233432 489.944550
   vertex 234.624832 -3.647872 489.848419
  endloop
 endfacet

 facet normal 0.017009 0.221546 -0.975002
  outer loop
   vertex 234.624832 -3.647872 489.848419
   vertex 234.138824 -3.655684 489.838165
   vertex 234.321091 -3.477220 489.881897
  endloop
 endfacet

 facet normal 0.017010 0.221536 -0.975004
  outer loop
   vertex 234.314957 -3.951261 489.774078
   vertex 234.138824 -3.655684 489.838165
   vertex 234.624832 -3.647872 489.848419
  endloop
 endfacet

 facet normal 0.016999 0.221530 -0.975005
  outer loop
   vertex 233.889114 -3.721007 489.818970
   vertex 234.138824 -3.655684 489.838165
   vertex 234.314957 -3.951261 489.774078
  endloop
 endfacet

 facet normal 0.017033 0.221589 -0.974991
  outer loop
   vertex 234.314957 -3.951261 489.774078
   vertex 233.890472 -4.062309 489.741425
   vertex 233.889114 -3.721007 489.818970
  endloop
 endfacet

 facet normal 0.017061 0.221589 -0.974991
  outer loop
   vertex 233.889114 -3.721007 489.818970
   vertex 233.890472 -4.062309 489.741425
   vertex 233.638901 -3.655684 489.829437
  endloop
 endfacet

 facet normal 0.017022 0.221566 -0.974997
  outer loop
   vertex 233.638901 -3.655684 489.829437
   vertex 233.890472 -4.062309 489.741425
   vertex 232.890625 -4.062309 489.723969
  endloop
 endfacet

 facet normal 0.017013 0.221583 -0.974993
  outer loop
   vertex 232.890625 -4.062309 489.723969
   vertex 233.455200 -3.477220 489.866791
   vertex 233.638901 -3.655684 489.829437
  endloop
 endfacet

 facet normal 0.017076 0.221524 -0.975005
  outer loop
   vertex 233.387253 -3.233432 489.920990
   vertex 233.455200 -3.477220 489.866791
   vertex 232.890625 -4.062309 489.723969
  endloop
 endfacet

 facet normal 0.016992 0.221538 -0.975004
  outer loop
   vertex 232.789612 21.410660 495.510437
   vertex 233.292816 20.581783 495.330872
   vertex 232.796188 19.752905 495.133881
  endloop
 endfacet

 facet normal 0.017036 0.221513 -0.975009
  outer loop
   vertex 232.796188 19.752905 495.133881
   vertex 233.292816 20.581783 495.330872
   vertex 233.360764 20.337996 495.276672
  endloop
 endfacet

 facet normal 0.016987 0.221558 -0.974999
  outer loop
   vertex 233.360764 20.337996 495.276672
   vertex 233.544464 20.159531 495.239319
   vertex 232.796188 19.752905 495.133881
  endloop
 endfacet

 facet normal 0.017010 0.221544 -0.975002
  outer loop
   vertex 233.635544 -2.811180 490.021271
   vertex 233.453262 -2.989645 489.977539
   vertex 232.884048 -2.404555 490.100555
  endloop
 endfacet

 facet normal 0.017019 0.221553 -0.975000
  outer loop
   vertex 232.884048 -2.404555 490.100555
   vertex 233.453262 -2.989645 489.977539
   vertex 233.387253 -3.233432 489.920990
  endloop
 endfacet

 facet normal 0.017023 0.221555 -0.974999
  outer loop
   vertex 233.387253 -3.233432 489.920990
   vertex 232.890625 -4.062309 489.723969
   vertex 232.884048 -2.404555 490.100555
  endloop
 endfacet

 facet normal -0.017052 -0.221538 0.975003
  outer loop
   vertex 232.882111 -4.173084 490.211487
   vertex 233.378754 -3.344207 490.408508
   vertex 232.875534 -2.515330 490.588043
  endloop
 endfacet

 facet normal -0.016921 -0.221463 0.975022
  outer loop
   vertex 232.875534 -2.515330 490.588043
   vertex 233.378754 -3.344207 490.408508
   vertex 233.444763 -3.100420 490.465027
  endloop
 endfacet

 facet normal -0.017094 -0.221622 0.974983
  outer loop
   vertex 233.444763 -3.100420 490.465027
   vertex 233.627029 -2.921955 490.508789
   vertex 232.875534 -2.515330 490.588043
  endloop
 endfacet

 facet normal -0.017071 -0.221480 0.975015
  outer loop
   vertex 233.535950 20.048756 495.726837
   vertex 233.352249 20.227221 495.764160
   vertex 232.787674 19.642130 495.621368
  endloop
 endfacet

 facet normal -0.016938 -0.221603 0.974990
  outer loop
   vertex 232.787674 19.642130 495.621368
   vertex 233.352249 20.227221 495.764160
   vertex 233.284317 20.471008 495.818390
  endloop
 endfacet

 facet normal -0.017022 -0.221555 0.974999
  outer loop
   vertex 233.284317 20.471008 495.818390
   vertex 232.781097 21.299885 495.997955
   vertex 232.787674 19.642130 495.621368
  endloop
 endfacet

 facet normal 0.596849 -0.175495 0.782926
  outer loop
   vertex 235.667694 -1.531112 491.456848
   vertex 235.751892 -1.516916 491.395844
   vertex 235.663223 -0.401192 491.713531
  endloop
 endfacet

 facet normal 0.597101 -0.175425 0.782749
  outer loop
   vertex 235.663223 -0.401192 491.713531
   vertex 235.751892 -1.516916 491.395844
   vertex 235.747406 -0.386996 491.652496
  endloop
 endfacet

 facet normal 0.017025 0.221550 -0.975000
  outer loop
   vertex 234.872528 18.350025 494.337006
   vertex 235.485962 18.350025 494.347717
   vertex 234.948380 -0.779473 489.991516
  endloop
 endfacet

 facet normal 0.017025 0.221550 -0.975000
  outer loop
   vertex 234.948380 -0.779473 489.991516
   vertex 235.485962 18.350025 494.347717
   vertex 235.561829 -0.779473 490.002228
  endloop
 endfacet

 facet normal 0.623805 0.175494 -0.761623
  outer loop
   vertex 235.703461 17.624571 494.170288
   vertex 235.621445 17.638767 494.106384
   vertex 235.698975 18.754492 494.426971
  endloop
 endfacet

 facet normal 0.624049 0.175424 -0.761439
  outer loop
   vertex 235.698975 18.754492 494.426971
   vertex 235.621445 17.638767 494.106384
   vertex 235.616974 18.768688 494.363037
  endloop
 endfacet

 facet normal 0.999847 0.000005 0.017496
  outer loop
   vertex 233.880600 -3.831782 490.306458
   vertex 233.881958 -4.173084 490.228943
   vertex 233.885544 -3.947046 490.023956
  endloop
 endfacet

 facet normal 0.003864 -0.975149 -0.221514
  outer loop
   vertex 234.854507 -1.162670 489.820709
   vertex 234.826202 -1.531112 491.442169
   vertex 234.359039 -1.218345 490.057159
  endloop
 endfacet

 facet normal 0.016983 0.221589 -0.974992
  outer loop
   vertex 233.883896 -2.404555 490.118011
   vertex 233.885254 -2.745858 490.040466
   vertex 233.635544 -2.811180 490.021271
  endloop
 endfacet

 facet normal 0.017039 0.221506 -0.975010
  outer loop
   vertex 233.794678 20.094208 495.228851
   vertex 233.796036 19.752905 495.151337
   vertex 233.544464 20.159531 495.239319
  endloop
 endfacet

 facet normal -0.999847 -0.000010 -0.017464
  outer loop
   vertex 233.881958 -4.173084 490.228943
   vertex 233.889114 -3.721007 489.818970
   vertex 233.890472 -4.062309 489.741425
  endloop
 endfacet

 facet normal -0.017032 -0.221560 0.974998
  outer loop
   vertex 234.402557 18.220808 495.641937
   vertex 234.396179 19.828011 496.007050
   vertex 232.855377 19.828011 495.980133
  endloop
 endfacet

 facet normal 0.017013 0.221560 -0.974998
  outer loop
   vertex 232.957855 -0.983232 490.109467
   vertex 234.498657 -0.983232 490.136353
   vertex 232.964218 -2.590435 489.744354
  endloop
 endfacet

 facet normal -0.999847 -0.000010 -0.017464
  outer loop
   vertex 233.789459 21.410660 495.527893
   vertex 233.782303 20.958582 495.937866
   vertex 233.780945 21.299885 496.015411
  endloop
 endfacet

 facet normal -0.003829 0.975153 0.221498
  outer loop
   vertex 235.672852 18.414442 495.923462
   vertex 235.675568 18.449659 495.768463
   vertex 235.577133 18.452919 495.752411
  endloop
 endfacet

 facet normal -0.999847 -0.000010 -0.017466
  outer loop
   vertex 233.885254 -2.745858 490.040466
   vertex 233.875381 -2.515330 490.605499
   vertex 233.883896 -2.404555 490.118011
  endloop
 endfacet

 facet normal -0.003859 0.975148 0.221519
  outer loop
   vertex 234.747162 18.400246 495.969788
   vertex 234.775467 18.768688 494.348358
   vertex 234.260254 18.455921 495.716217
  endloop
 endfacet

 facet normal 0.003821 -0.975142 -0.221549
  outer loop
   vertex 235.778015 -1.176866 489.899353
   vertex 235.775314 -1.212085 490.054321
   vertex 235.676376 -1.215343 490.066956
  endloop
 endfacet

 facet normal -0.017013 -0.221560 0.974998
  outer loop
   vertex 234.479691 -1.230246 491.223419
   vertex 232.938873 -1.230246 491.196533
   vertex 232.945251 -2.837449 490.831421
  endloop
 endfacet

 facet normal 0.003865 -0.975149 -0.221515
  outer loop
   vertex 232.861740 18.220808 495.615051
   vertex 232.880722 18.467821 494.527985
   vertex 234.421539 18.467821 494.554871
  endloop
 endfacet

 facet normal -0.999847 -0.000012 -0.017466
  outer loop
   vertex 233.786163 19.983433 495.716339
   vertex 233.796036 19.752905 495.151337
   vertex 233.787521 19.642130 495.638824
  endloop
 endfacet

 facet normal -0.016920 -0.221506 0.975012
  outer loop
   vertex 233.787521 19.642130 495.638824
   vertex 233.786163 19.983433 495.716339
   vertex 233.535950 20.048756 495.726837
  endloop
 endfacet

 facet normal 0.704253 0.689543 0.168990
  outer loop
   vertex 233.352249 20.227221 495.764160
   vertex 233.544464 20.159531 495.239319
   vertex 233.360764 20.337996 495.276672
  endloop
 endfacet

 facet normal 0.964791 0.252338 0.074191
  outer loop
   vertex 233.352249 20.227221 495.764160
   vertex 233.360764 20.337996 495.276672
   vertex 233.284317 20.471008 495.818390
  endloop
 endfacet

 facet normal 0.964774 0.252407 0.074172
  outer loop
   vertex 233.284317 20.471008 495.818390
   vertex 233.360764 20.337996 495.276672
   vertex 233.292816 20.581783 495.330872
  endloop
 endfacet

 facet normal 0.966780 -0.252381 -0.040492
  outer loop
   vertex 233.292816 20.581783 495.330872
   vertex 233.350327 20.714794 495.874939
   vertex 233.284317 20.471008 495.818390
  endloop
 endfacet

 facet normal 0.966780 -0.252381 -0.040492
  outer loop
   vertex 233.358826 20.825569 495.387421
   vertex 233.350327 20.714794 495.874939
   vertex 233.292816 20.581783 495.330872
  endloop
 endfacet

 facet normal 0.709754 -0.689512 -0.144299
  outer loop
   vertex 233.532593 20.893259 495.918671
   vertex 233.350327 20.714794 495.874939
   vertex 233.358826 20.825569 495.387421
  endloop
 endfacet

 facet normal 0.709724 -0.689546 -0.144285
  outer loop
   vertex 233.358826 20.825569 495.387421
   vertex 233.541107 21.004034 495.431152
   vertex 233.532593 20.893259 495.918671
  endloop
 endfacet

 facet normal 0.262503 -0.941927 -0.209442
  outer loop
   vertex 233.532593 20.893259 495.918671
   vertex 233.541107 21.004034 495.431152
   vertex 233.782303 20.958582 495.937866
  endloop
 endfacet

 facet normal 0.255044 0.941920 0.218493
  outer loop
   vertex 233.880600 -3.831782 490.306458
   vertex 233.889114 -3.721007 489.818970
   vertex 233.630386 -3.766459 490.316925
  endloop
 endfacet

 facet normal 0.255044 0.941920 0.218493
  outer loop
   vertex 233.630386 -3.766459 490.316925
   vertex 233.889114 -3.721007 489.818970
   vertex 233.638901 -3.655684 489.829437
  endloop
 endfacet

 facet normal 0.704253 0.689544 0.168989
  outer loop
   vertex 233.638901 -3.655684 489.829437
   vertex 233.446686 -3.587994 490.354279
   vertex 233.630386 -3.766459 490.316925
  endloop
 endfacet

 facet normal 0.704253 0.689544 0.168989
  outer loop
   vertex 233.455200 -3.477220 489.866791
   vertex 233.446686 -3.587994 490.354279
   vertex 233.638901 -3.655684 489.829437
  endloop
 endfacet

 facet normal 0.964791 0.252338 0.074191
  outer loop
   vertex 233.378754 -3.344207 490.408508
   vertex 233.446686 -3.587994 490.354279
   vertex 233.455200 -3.477220 489.866791
  endloop
 endfacet

 facet normal 0.964774 0.252408 0.074172
  outer loop
   vertex 233.455200 -3.477220 489.866791
   vertex 233.387253 -3.233432 489.920990
   vertex 233.378754 -3.344207 490.408508
  endloop
 endfacet

 facet normal 0.966779 -0.252384 -0.040493
  outer loop
   vertex 233.378754 -3.344207 490.408508
   vertex 233.387253 -3.233432 489.920990
   vertex 233.444763 -3.100420 490.465027
  endloop
 endfacet

 facet normal 0.966781 -0.252379 -0.040494
  outer loop
   vertex 233.444763 -3.100420 490.465027
   vertex 233.387253 -3.233432 489.920990
   vertex 233.453262 -2.989645 489.977539
  endloop
 endfacet

 facet normal 0.709766 -0.689499 -0.144304
  outer loop
   vertex 233.453262 -2.989645 489.977539
   vertex 233.627029 -2.921955 490.508789
   vertex 233.444763 -3.100420 490.465027
  endloop
 endfacet

 facet normal 0.262519 -0.941920 -0.209453
  outer loop
   vertex 233.787521 19.642130 495.638824
   vertex 233.796036 19.752905 495.151337
   vertex 234.212021 19.753180 495.671478
  endloop
 endfacet

 facet normal 0.262505 -0.941926 -0.209442
  outer loop
   vertex 234.212021 19.753180 495.671478
   vertex 233.796036 19.752905 495.151337
   vertex 234.220535 19.863955 495.183960
  endloop
 endfacet

 facet normal 0.709727 -0.689543 -0.144284
  outer loop
   vertex 234.220535 19.863955 495.183960
   vertex 234.521896 20.056570 495.745819
   vertex 234.212021 19.753180 495.671478
  endloop
 endfacet

 facet normal 0.709745 -0.689521 -0.144301
  outer loop
   vertex 234.530396 20.167345 495.258301
   vertex 234.521896 20.056570 495.745819
   vertex 234.220535 19.863955 495.183960
  endloop
 endfacet

 facet normal 0.966782 -0.252374 -0.040491
  outer loop
   vertex 234.634109 20.471008 495.841949
   vertex 234.521896 20.056570 495.745819
   vertex 234.530396 20.167345 495.258301
  endloop
 endfacet

 facet normal 0.966774 -0.252409 -0.040471
  outer loop
   vertex 234.530396 20.167345 495.258301
   vertex 234.642624 20.581783 495.354462
   vertex 234.634109 20.471008 495.841949
  endloop
 endfacet

 facet normal 0.964775 0.252393 0.074204
  outer loop
   vertex 234.634109 20.471008 495.841949
   vertex 234.642624 20.581783 495.354462
   vertex 234.518600 20.885447 495.934113
  endloop
 endfacet

 facet normal 0.964774 0.252399 0.074200
  outer loop
   vertex 234.518600 20.885447 495.934113
   vertex 234.642624 20.581783 495.354462
   vertex 234.527115 20.996222 495.446594
  endloop
 endfacet

 facet normal 0.704269 0.689530 0.168976
  outer loop
   vertex 234.527115 20.996222 495.446594
   vertex 234.206329 21.188837 495.997589
   vertex 234.518600 20.885447 495.934113
  endloop
 endfacet

 facet normal 0.704260 0.689541 0.168967
  outer loop
   vertex 234.214828 21.299612 495.510101
   vertex 234.206329 21.188837 495.997589
   vertex 234.527115 20.996222 495.446594
  endloop
 endfacet

 facet normal 0.255045 0.941922 0.218486
  outer loop
   vertex 233.780945 21.299885 496.015411
   vertex 234.206329 21.188837 495.997589
   vertex 234.214828 21.299612 495.510101
  endloop
 endfacet

 facet normal 0.255039 0.941924 0.218480
  outer loop
   vertex 234.214828 21.299612 495.510101
   vertex 233.789459 21.410660 495.527893
   vertex 233.780945 21.299885 496.015411
  endloop
 endfacet

 facet normal 0.262502 -0.941927 -0.209442
  outer loop
   vertex 233.881958 -4.173084 490.228943
   vertex 233.890472 -4.062309 489.741425
   vertex 234.306458 -4.062036 490.261566
  endloop
 endfacet

 facet normal 0.262525 -0.941916 -0.209461
  outer loop
   vertex 234.306458 -4.062036 490.261566
   vertex 233.890472 -4.062309 489.741425
   vertex 234.314957 -3.951261 489.774078
  endloop
 endfacet

 facet normal 0.709751 -0.689514 -0.144308
  outer loop
   vertex 234.314957 -3.951261 489.774078
   vertex 234.616318 -3.758647 490.335938
   vertex 234.306458 -4.062036 490.261566
  endloop
 endfacet

 facet normal 0.709726 -0.689544 -0.144285
  outer loop
   vertex 234.624832 -3.647872 489.848419
   vertex 234.616318 -3.758647 490.335938
   vertex 234.314957 -3.951261 489.774078
  endloop
 endfacet

 facet normal 0.966773 -0.252411 -0.040469
  outer loop
   vertex 234.728546 -3.344207 490.432068
   vertex 234.616318 -3.758647 490.335938
   vertex 234.624832 -3.647872 489.848419
  endloop
 endfacet

 facet normal 0.966782 -0.252373 -0.040490
  outer loop
   vertex 234.624832 -3.647872 489.848419
   vertex 234.737045 -3.233432 489.944550
   vertex 234.728546 -3.344207 490.432068
  endloop
 endfacet

 facet normal 0.964774 0.252406 0.074172
  outer loop
   vertex 234.728546 -3.344207 490.432068
   vertex 234.737045 -3.233432 489.944550
   vertex 234.613037 -2.929770 490.524200
  endloop
 endfacet

 facet normal 0.964784 0.252362 0.074197
  outer loop
   vertex 234.613037 -2.929770 490.524200
   vertex 234.737045 -3.233432 489.944550
   vertex 234.621552 -2.818995 490.036713
  endloop
 endfacet

 facet normal 0.704277 0.689520 0.168985
  outer loop
   vertex 234.621552 -2.818995 490.036713
   vertex 234.300766 -2.626379 490.587708
   vertex 234.613037 -2.929770 490.524200
  endloop
 endfacet

 facet normal 0.704252 0.689552 0.168959
  outer loop
   vertex 234.309265 -2.515604 490.100189
   vertex 234.300766 -2.626379 490.587708
   vertex 234.621552 -2.818995 490.036713
  endloop
 endfacet

 facet normal 0.255033 0.941928 0.218473
  outer loop
   vertex 233.875381 -2.515330 490.605499
   vertex 234.300766 -2.626379 490.587708
   vertex 234.309265 -2.515604 490.100189
  endloop
 endfacet

 facet normal 0.255057 0.941917 0.218493
  outer loop
   vertex 234.309265 -2.515604 490.100189
   vertex 233.883896 -2.404555 490.118011
   vertex 233.875381 -2.515330 490.605499
  endloop
 endfacet

 facet normal 0.709724 -0.689546 -0.144285
  outer loop
   vertex 233.453262 -2.989645 489.977539
   vertex 233.635544 -2.811180 490.021271
   vertex 233.627029 -2.921955 490.508789
  endloop
 endfacet

 facet normal 0.262502 -0.941927 -0.209442
  outer loop
   vertex 233.627029 -2.921955 490.508789
   vertex 233.635544 -2.811180 490.021271
   vertex 233.885254 -2.745858 490.040466
  endloop
 endfacet

 facet normal 0.262501 -0.941927 -0.209442
  outer loop
   vertex 233.885254 -2.745858 490.040466
   vertex 233.876740 -2.856633 490.527985
   vertex 233.627029 -2.921955 490.508789
  endloop
 endfacet

 facet normal -0.255045 -0.941923 -0.218480
  outer loop
   vertex 234.135468 -2.811180 490.029999
   vertex 233.876740 -2.856633 490.527985
   vertex 233.885254 -2.745858 490.040466
  endloop
 endfacet

 facet normal -0.255044 -0.941923 -0.218480
  outer loop
   vertex 234.126953 -2.921955 490.517517
   vertex 233.876740 -2.856633 490.527985
   vertex 234.135468 -2.811180 490.029999
  endloop
 endfacet

 facet normal -0.704253 -0.689546 -0.168979
  outer loop
   vertex 234.135468 -2.811180 490.029999
   vertex 234.319168 -2.989645 489.992645
   vertex 234.126953 -2.921955 490.517517
  endloop
 endfacet

 facet normal -0.704254 -0.689545 -0.168980
  outer loop
   vertex 234.126953 -2.921955 490.517517
   vertex 234.319168 -2.989645 489.992645
   vertex 234.310654 -3.100420 490.480164
  endloop
 endfacet

 facet normal -0.964788 -0.252348 -0.074189
  outer loop
   vertex 234.310654 -3.100420 490.480164
   vertex 234.319168 -2.989645 489.992645
   vertex 234.387100 -3.233432 489.938446
  endloop
 endfacet

 facet normal -0.964776 -0.252399 -0.074175
  outer loop
   vertex 234.387100 -3.233432 489.938446
   vertex 234.378601 -3.344207 490.425934
   vertex 234.310654 -3.100420 490.480164
  endloop
 endfacet

 facet normal -0.966781 0.252379 0.040494
  outer loop
   vertex 234.321091 -3.477220 489.881897
   vertex 234.378601 -3.344207 490.425934
   vertex 234.387100 -3.233432 489.938446
  endloop
 endfacet

 facet normal -0.966781 0.252379 0.040494
  outer loop
   vertex 234.312592 -3.587995 490.369385
   vertex 234.378601 -3.344207 490.425934
   vertex 234.321091 -3.477220 489.881897
  endloop
 endfacet

 facet normal -0.709754 0.689510 0.144308
  outer loop
   vertex 234.321091 -3.477220 489.881897
   vertex 234.138824 -3.655684 489.838165
   vertex 234.312592 -3.587995 490.369385
  endloop
 endfacet

 facet normal -0.709724 0.689544 0.144294
  outer loop
   vertex 234.312592 -3.587995 490.369385
   vertex 234.138824 -3.655684 489.838165
   vertex 234.130310 -3.766459 490.325653
  endloop
 endfacet

 facet normal -0.262502 0.941924 0.209455
  outer loop
   vertex 234.130310 -3.766459 490.325653
   vertex 234.138824 -3.655684 489.838165
   vertex 233.889114 -3.721007 489.818970
  endloop
 endfacet

 facet normal -0.262501 0.941925 0.209454
  outer loop
   vertex 233.889114 -3.721007 489.818970
   vertex 233.880600 -3.831782 490.306458
   vertex 234.130310 -3.766459 490.325653
  endloop
 endfacet

 facet normal 0.704239 0.689560 0.168983
  outer loop
   vertex 233.352249 20.227221 495.764160
   vertex 233.535950 20.048756 495.726837
   vertex 233.544464 20.159531 495.239319
  endloop
 endfacet

 facet normal 0.255071 0.941916 0.218479
  outer loop
   vertex 233.544464 20.159531 495.239319
   vertex 233.535950 20.048756 495.726837
   vertex 233.786163 19.983433 495.716339
  endloop
 endfacet

 facet normal 0.255046 0.941920 0.218493
  outer loop
   vertex 233.786163 19.983433 495.716339
   vertex 233.794678 20.094208 495.228851
   vertex 233.544464 20.159531 495.239319
  endloop
 endfacet

 facet normal -0.262527 0.941918 0.209453
  outer loop
   vertex 234.035873 20.048756 495.735565
   vertex 233.794678 20.094208 495.228851
   vertex 233.786163 19.983433 495.716339
  endloop
 endfacet

 facet normal -0.262503 0.941927 0.209442
  outer loop
   vertex 234.044388 20.159531 495.248047
   vertex 233.794678 20.094208 495.228851
   vertex 234.035873 20.048756 495.735565
  endloop
 endfacet

 facet normal -0.709724 0.689546 0.144285
  outer loop
   vertex 234.035873 20.048756 495.735565
   vertex 234.218155 20.227221 495.779297
   vertex 234.044388 20.159531 495.248047
  endloop
 endfacet

 facet normal -0.709754 0.689512 0.144299
  outer loop
   vertex 234.044388 20.159531 495.248047
   vertex 234.218155 20.227221 495.779297
   vertex 234.226654 20.337996 495.291779
  endloop
 endfacet

 facet normal -0.966781 0.252379 0.040492
  outer loop
   vertex 234.226654 20.337996 495.291779
   vertex 234.218155 20.227221 495.779297
   vertex 234.284164 20.471008 495.835846
  endloop
 endfacet

 facet normal -0.966781 0.252379 0.040492
  outer loop
   vertex 234.284164 20.471008 495.835846
   vertex 234.292664 20.581783 495.348328
   vertex 234.226654 20.337996 495.291779
  endloop
 endfacet

 facet normal -0.964774 -0.252409 -0.074172
  outer loop
   vertex 234.216217 20.714794 495.890045
   vertex 234.292664 20.581783 495.348328
   vertex 234.284164 20.471008 495.835846
  endloop
 endfacet

 facet normal -0.964790 -0.252340 -0.074192
  outer loop
   vertex 234.224731 20.825569 495.402557
   vertex 234.292664 20.581783 495.348328
   vertex 234.216217 20.714794 495.890045
  endloop
 endfacet

 facet normal -0.704282 -0.689515 -0.168984
  outer loop
   vertex 234.216217 20.714794 495.890045
   vertex 234.032532 20.893259 495.927399
   vertex 234.224731 20.825569 495.402557
  endloop
 endfacet

 facet normal -0.704239 -0.689564 -0.168962
  outer loop
   vertex 234.224731 20.825569 495.402557
   vertex 234.032532 20.893259 495.927399
   vertex 234.041031 21.004034 495.439880
  endloop
 endfacet

 facet normal -0.255032 -0.941928 -0.218473
  outer loop
   vertex 234.041031 21.004034 495.439880
   vertex 234.032532 20.893259 495.927399
   vertex 233.782303 20.958582 495.937866
  endloop
 endfacet

 facet normal -0.255071 -0.941913 -0.218492
  outer loop
   vertex 233.782303 20.958582 495.937866
   vertex 233.790817 21.069357 495.450378
   vertex 234.041031 21.004034 495.439880
  endloop
 endfacet

 facet normal 0.262527 -0.941918 -0.209453
  outer loop
   vertex 233.541107 21.004034 495.431152
   vertex 233.790817 21.069357 495.450378
   vertex 233.782303 20.958582 495.937866
  endloop
 endfacet

endsolid