solid stl file generated from DOUG
 facet normal -0.858597 -0.272283 -0.434366
  outer loop
   vertex 152.893494 -85.135887 622.189514
   vertex 152.898254 -84.715569 621.916626
   vertex 153.021942 -85.254082 622.009705
  endloop
 endfacet

 facet normal -0.858597 -0.272283 -0.434366
  outer loop
   vertex 153.021942 -85.254082 622.009705
   vertex 152.898254 -84.715569 621.916626
   vertex 153.026703 -84.833763 621.736816
  endloop
 endfacet

 facet normal 0.014708 -0.544599 -0.838567
  outer loop
   vertex 153.026703 -84.833763 621.736816
   vertex 153.272491 -85.254082 622.014099
   vertex 153.021942 -85.254082 622.009705
  endloop
 endfacet

 facet normal 0.014708 -0.544599 -0.838567
  outer loop
   vertex 153.277252 -84.833763 621.741211
   vertex 153.272491 -85.254082 622.014099
   vertex 153.026703 -84.833763 621.736816
  endloop
 endfacet

 facet normal 0.873192 -0.272316 -0.404203
  outer loop
   vertex 153.394592 -85.135887 622.198242
   vertex 153.272491 -85.254082 622.014099
   vertex 153.277252 -84.833763 621.741211
  endloop
 endfacet

 facet normal 0.873192 -0.272316 -0.404203
  outer loop
   vertex 153.277252 -84.833763 621.741211
   vertex 153.399353 -84.715569 621.925354
   vertex 153.394592 -85.135887 622.198242
  endloop
 endfacet

 facet normal 0.858597 0.272283 0.434366
  outer loop
   vertex 153.394592 -85.135887 622.198242
   vertex 153.399353 -84.715569 621.925354
   vertex 153.266144 -85.017693 622.378052
  endloop
 endfacet

 facet normal 0.858597 0.272283 0.434366
  outer loop
   vertex 153.266144 -85.017693 622.378052
   vertex 153.399353 -84.715569 621.925354
   vertex 153.270905 -84.597374 622.105164
  endloop
 endfacet

 facet normal -0.014708 0.544599 0.838567
  outer loop
   vertex 153.270905 -84.597374 622.105164
   vertex 153.015594 -85.017693 622.373657
   vertex 153.266144 -85.017693 622.378052
  endloop
 endfacet

 facet normal -0.014708 0.544599 0.838567
  outer loop
   vertex 153.020355 -84.597374 622.100769
   vertex 153.015594 -85.017693 622.373657
   vertex 153.270905 -84.597374 622.105164
  endloop
 endfacet

 facet normal -0.873192 0.272316 0.404203
  outer loop
   vertex 152.893494 -85.135887 622.189514
   vertex 153.015594 -85.017693 622.373657
   vertex 153.020355 -84.597374 622.100769
  endloop
 endfacet

 facet normal -0.873192 0.272316 0.404203
  outer loop
   vertex 153.020355 -84.597374 622.100769
   vertex 152.898254 -84.715569 621.916626
   vertex 152.893494 -85.135887 622.189514
  endloop
 endfacet

 facet normal 0.873240 -0.272269 -0.404131
  outer loop
   vertex 131.307419 -84.715569 621.539734
   vertex 131.302658 -85.135887 621.812622
   vertex 131.185318 -84.833763 621.355530
  endloop
 endfacet

 facet normal 0.873191 -0.272357 -0.404176
  outer loop
   vertex 131.185318 -84.833763 621.355530
   vertex 131.302658 -85.135887 621.812622
   vertex 131.180557 -85.254082 621.628479
  endloop
 endfacet

 facet normal 0.014503 -0.544685 -0.838515
  outer loop
   vertex 131.180557 -85.254082 621.628479
   vertex 130.934769 -84.833763 621.351196
   vertex 131.185318 -84.833763 621.355530
  endloop
 endfacet

 facet normal 0.014708 -0.544599 -0.838567
  outer loop
   vertex 130.930008 -85.254082 621.624084
   vertex 130.934769 -84.833763 621.351196
   vertex 131.180557 -85.254082 621.628479
  endloop
 endfacet

 facet normal -0.858543 -0.272333 -0.434441
  outer loop
   vertex 130.806320 -84.715569 621.530945
   vertex 130.934769 -84.833763 621.351196
   vertex 130.930008 -85.254082 621.624084
  endloop
 endfacet

 facet normal -0.858597 -0.272327 -0.434337
  outer loop
   vertex 130.930008 -85.254082 621.624084
   vertex 130.801559 -85.135887 621.803894
   vertex 130.806320 -84.715569 621.530945
  endloop
 endfacet

 facet normal -0.873239 0.272310 0.404104
  outer loop
   vertex 130.806320 -84.715569 621.530945
   vertex 130.801559 -85.135887 621.803894
   vertex 130.928421 -84.597374 621.715149
  endloop
 endfacet

 facet normal -0.873192 0.272316 0.404203
  outer loop
   vertex 130.928421 -84.597374 621.715149
   vertex 130.801559 -85.135887 621.803894
   vertex 130.923660 -85.017693 621.988037
  endloop
 endfacet

 facet normal -0.014504 0.544599 0.838571
  outer loop
   vertex 130.923660 -85.017693 621.988037
   vertex 131.178970 -84.597374 621.719482
   vertex 130.928421 -84.597374 621.715149
  endloop
 endfacet

 facet normal -0.014707 0.544685 0.838512
  outer loop
   vertex 131.174210 -85.017693 621.992432
   vertex 131.178970 -84.597374 621.719482
   vertex 130.923660 -85.017693 621.988037
  endloop
 endfacet

 facet normal 0.858543 0.272377 0.434413
  outer loop
   vertex 131.307419 -84.715569 621.539734
   vertex 131.178970 -84.597374 621.719482
   vertex 131.174210 -85.017693 621.992432
  endloop
 endfacet

 facet normal 0.858597 0.272283 0.434366
  outer loop
   vertex 131.174210 -85.017693 621.992432
   vertex 131.302658 -85.135887 621.812622
   vertex 131.307419 -84.715569 621.539734
  endloop
 endfacet

 facet normal -0.009552 -0.838629 0.544619
  outer loop
   vertex 130.930008 -85.254082 621.624084
   vertex 131.180557 -85.254082 621.628479
   vertex 131.052109 -85.135887 621.808228
  endloop
 endfacet

 facet normal -0.009552 -0.838629 0.544619
  outer loop
   vertex 131.052109 -85.135887 621.808228
   vertex 131.180557 -85.254082 621.628479
   vertex 131.302658 -85.135887 621.812622
  endloop
 endfacet

 facet normal -0.009550 -0.838713 0.544490
  outer loop
   vertex 131.302658 -85.135887 621.812622
   vertex 131.174210 -85.017693 621.992432
   vertex 131.052109 -85.135887 621.808228
  endloop
 endfacet

 facet normal -0.009552 -0.838629 0.544619
  outer loop
   vertex 153.015594 -85.017693 622.373657
   vertex 152.893494 -85.135887 622.189514
   vertex 153.144043 -85.135887 622.193909
  endloop
 endfacet

 facet normal -0.009550 -0.838713 0.544490
  outer loop
   vertex 153.144043 -85.135887 622.193909
   vertex 152.893494 -85.135887 622.189514
   vertex 153.021942 -85.254082 622.009705
  endloop
 endfacet

 facet normal -0.009550 -0.838713 0.544490
  outer loop
   vertex 153.021942 -85.254082 622.009705
   vertex 153.272491 -85.254082 622.014099
   vertex 153.144043 -85.135887 622.193909
  endloop
 endfacet

 facet normal -0.009419 -0.838671 0.544557
  outer loop
   vertex 153.272491 -85.254082 622.014099
   vertex 153.394592 -85.135887 622.198242
   vertex 153.144043 -85.135887 622.193909
  endloop
 endfacet

 facet normal -0.009419 -0.838671 0.544557
  outer loop
   vertex 153.144043 -85.135887 622.193909
   vertex 153.394592 -85.135887 622.198242
   vertex 153.266144 -85.017693 622.378052
  endloop
 endfacet

 facet normal -0.009552 -0.838629 0.544619
  outer loop
   vertex 153.266144 -85.017693 622.378052
   vertex 153.015594 -85.017693 622.373657
   vertex 153.144043 -85.135887 622.193909
  endloop
 endfacet

 facet normal -0.009550 -0.838713 0.544490
  outer loop
   vertex 131.174210 -85.017693 621.992432
   vertex 130.923660 -85.017693 621.988037
   vertex 131.052109 -85.135887 621.808228
  endloop
 endfacet

 facet normal -0.009419 -0.838671 0.544557
  outer loop
   vertex 131.052109 -85.135887 621.808228
   vertex 130.923660 -85.017693 621.988037
   vertex 130.801559 -85.135887 621.803894
  endloop
 endfacet

 facet normal -0.009419 -0.838671 0.544557
  outer loop
   vertex 130.801559 -85.135887 621.803894
   vertex 130.930008 -85.254082 621.624084
   vertex 131.052109 -85.135887 621.808228
  endloop
 endfacet

 facet normal -0.009501 -0.838669 0.544559
  outer loop
   vertex 151.697861 -83.088921 621.584595
   vertex 151.716156 -83.769829 620.536255
   vertex 154.688797 -83.088921 621.636780
  endloop
 endfacet

 facet normal -0.009501 -0.838669 0.544559
  outer loop
   vertex 154.688797 -83.088921 621.636780
   vertex 151.716156 -83.769829 620.536255
   vertex 154.707108 -83.769829 620.588440
  endloop
 endfacet

 facet normal 0.999848 0.000005 0.017460
  outer loop
   vertex 154.707108 -83.769829 620.588440
   vertex 154.701996 -81.924355 620.880615
   vertex 154.688797 -83.088921 621.636780
  endloop
 endfacet

 facet normal 0.999848 0.000005 0.017460
  outer loop
   vertex 154.720306 -82.605263 619.832275
   vertex 154.701996 -81.924355 620.880615
   vertex 154.707108 -83.769829 620.588440
  endloop
 endfacet

 facet normal 0.009501 0.838669 -0.544559
  outer loop
   vertex 151.729355 -82.605263 619.780090
   vertex 154.701996 -81.924355 620.880615
   vertex 154.720306 -82.605263 619.832275
  endloop
 endfacet

 facet normal 0.014631 -0.544640 -0.838542
  outer loop
   vertex 154.720306 -82.605263 619.832275
   vertex 151.716156 -83.769829 620.536255
   vertex 151.729355 -82.605263 619.780090
  endloop
 endfacet

 facet normal -0.999848 0.000002 -0.017450
  outer loop
   vertex 151.729355 -82.605263 619.780090
   vertex 151.716156 -83.769829 620.536255
   vertex 151.711060 -81.924355 620.828430
  endloop
 endfacet

 facet normal -0.999848 0.000002 -0.017450
  outer loop
   vertex 151.711060 -81.924355 620.828430
   vertex 151.716156 -83.769829 620.536255
   vertex 151.697861 -83.088921 621.584595
  endloop
 endfacet

 facet normal -0.014631 0.544640 0.838542
  outer loop
   vertex 151.697861 -83.088921 621.584595
   vertex 154.701996 -81.924355 620.880615
   vertex 151.711060 -81.924355 620.828430
  endloop
 endfacet

 facet normal -0.014631 0.544640 0.838542
  outer loop
   vertex 154.688797 -83.088921 621.636780
   vertex 154.701996 -81.924355 620.880615
   vertex 151.697861 -83.088921 621.584595
  endloop
 endfacet

 facet normal -0.999848 0.000011 -0.017456
  outer loop
   vertex 129.540939 -81.924355 620.441406
   vertex 129.559235 -82.605263 619.393066
   vertex 129.527725 -83.088921 621.197571
  endloop
 endfacet

 facet normal -0.999848 -0.000005 -0.017460
  outer loop
   vertex 129.527725 -83.088921 621.197571
   vertex 129.559235 -82.605263 619.393066
   vertex 129.546036 -83.769829 620.149231
  endloop
 endfacet

 facet normal -0.009512 -0.838669 0.544558
  outer loop
   vertex 129.546036 -83.769829 620.149231
   vertex 132.518677 -83.088921 621.249817
   vertex 129.527725 -83.088921 621.197571
  endloop
 endfacet

 facet normal -0.009512 -0.838669 0.544559
  outer loop
   vertex 132.536972 -83.769829 620.201477
   vertex 132.518677 -83.088921 621.249817
   vertex 129.546036 -83.769829 620.149231
  endloop
 endfacet

 facet normal 0.999848 -0.000002 0.017450
  outer loop
   vertex 132.550171 -82.605263 619.445312
   vertex 132.518677 -83.088921 621.249817
   vertex 132.536972 -83.769829 620.201477
  endloop
 endfacet

 facet normal 0.014648 -0.544640 -0.838542
  outer loop
   vertex 132.536972 -83.769829 620.201477
   vertex 129.559235 -82.605263 619.393066
   vertex 132.550171 -82.605263 619.445312
  endloop
 endfacet

 facet normal 0.009512 0.838669 -0.544559
  outer loop
   vertex 132.550171 -82.605263 619.445312
   vertex 129.559235 -82.605263 619.393066
   vertex 132.531876 -81.924355 620.493652
  endloop
 endfacet

 facet normal 0.009512 0.838669 -0.544559
  outer loop
   vertex 132.531876 -81.924355 620.493652
   vertex 129.559235 -82.605263 619.393066
   vertex 129.540939 -81.924355 620.441406
  endloop
 endfacet

 facet normal -0.014648 0.544640 0.838542
  outer loop
   vertex 129.540939 -81.924355 620.441406
   vertex 132.518677 -83.088921 621.249817
   vertex 132.531876 -81.924355 620.493652
  endloop
 endfacet

 facet normal -0.014648 0.544640 0.838542
  outer loop
   vertex 129.527725 -83.088921 621.197571
   vertex 132.518677 -83.088921 621.249817
   vertex 129.540939 -81.924355 620.441406
  endloop
 endfacet

 facet normal 0.014648 -0.544640 -0.838542
  outer loop
   vertex 132.536972 -83.769829 620.201477
   vertex 129.546036 -83.769829 620.149231
   vertex 129.559235 -82.605263 619.393066
  endloop
 endfacet

 facet normal 0.014631 -0.544640 -0.838542
  outer loop
   vertex 154.707108 -83.769829 620.588440
   vertex 151.716156 -83.769829 620.536255
   vertex 154.720306 -82.605263 619.832275
  endloop
 endfacet

 facet normal 0.999848 -0.000002 0.017450
  outer loop
   vertex 132.550171 -82.605263 619.445312
   vertex 132.531876 -81.924355 620.493652
   vertex 132.518677 -83.088921 621.249817
  endloop
 endfacet

 facet normal 0.009501 0.838669 -0.544559
  outer loop
   vertex 151.729355 -82.605263 619.780090
   vertex 151.711060 -81.924355 620.828430
   vertex 154.701996 -81.924355 620.880615
  endloop
 endfacet

 facet normal -0.009505 -0.838679 0.544544
  outer loop
   vertex 151.886597 -85.324837 623.230774
   vertex 132.274200 -85.384537 622.796509
   vertex 151.888199 -85.384537 623.138855
  endloop
 endfacet

 facet normal 0.006132 -0.936226 -0.351345
  outer loop
   vertex 151.888199 -85.384537 623.138855
   vertex 132.274200 -85.384537 622.796509
   vertex 151.890579 -85.333488 623.002869
  endloop
 endfacet

 facet normal 0.005782 -0.943411 -0.331576
  outer loop
   vertex 133.042206 -86.219963 621.631897
   vertex 131.885391 -86.185158 621.512695
   vertex 133.043930 -86.185158 621.532898
  endloop
 endfacet

 facet normal 0.014623 -0.544639 -0.838543
  outer loop
   vertex 133.043930 -86.185158 621.532898
   vertex 131.885391 -86.185158 621.512695
   vertex 131.893402 -85.479309 621.054382
  endloop
 endfacet

 facet normal -0.014623 0.544634 0.838546
  outer loop
   vertex 152.305237 -84.573563 622.805603
   vertex 151.138687 -85.279419 623.243713
   vertex 152.297226 -85.279419 623.263916
  endloop
 endfacet

 facet normal -0.017378 -0.080856 0.996574
  outer loop
   vertex 152.297226 -85.279419 623.263916
   vertex 151.138687 -85.279419 623.243713
   vertex 151.138840 -85.384018 623.235229
  endloop
 endfacet

 facet normal -0.017424 -0.059670 0.998066
  outer loop
   vertex 132.293808 -85.975197 621.672485
   vertex 132.293961 -86.120209 621.663818
   vertex 151.907974 -86.120209 622.006226
  endloop
 endfacet

 facet normal -0.009506 -0.838679 0.544544
  outer loop
   vertex 151.907974 -86.120209 622.006226
   vertex 132.293961 -86.120209 621.663818
   vertex 151.909576 -86.179909 621.914307
  endloop
 endfacet

 facet normal -0.014131 -0.586818 0.809595
  outer loop
   vertex 132.280396 -84.698380 622.441711
   vertex 151.894394 -84.698380 622.784058
   vertex 132.280014 -84.669319 622.462769
  endloop
 endfacet

 facet normal -0.014119 -0.587926 0.808791
  outer loop
   vertex 132.280014 -84.669319 622.462769
   vertex 151.894394 -84.698380 622.784058
   vertex 151.894028 -84.669319 622.805176
  endloop
 endfacet

 facet normal -0.014639 0.544595 0.838572
  outer loop
   vertex 151.894028 -84.669319 622.805176
   vertex 132.280685 -84.610092 622.424316
   vertex 132.280014 -84.669319 622.462769
  endloop
 endfacet

 facet normal -0.999848 -0.000044 -0.017442
  outer loop
   vertex 131.861053 -85.279411 622.907227
   vertex 131.864685 -85.395836 622.699341
   vertex 131.861206 -85.384018 622.898743
  endloop
 endfacet

 facet normal -0.999848 0.000081 -0.017449
  outer loop
   vertex 131.861206 -85.384018 622.898743
   vertex 131.864685 -85.395836 622.699341
   vertex 131.863525 -85.470596 622.765442
  endloop
 endfacet

 facet normal -0.009496 -0.838674 0.544551
  outer loop
   vertex 131.863525 -85.470596 622.765442
   vertex 133.019745 -85.384018 622.918945
   vertex 131.861206 -85.384018 622.898743
  endloop
 endfacet

 facet normal 0.999848 0.000084 0.017444
  outer loop
   vertex 152.321579 -86.185158 621.869446
   vertex 152.318237 -86.042610 622.060303
   vertex 152.319855 -86.219963 621.968445
  endloop
 endfacet

 facet normal 0.999847 0.000067 0.017475
  outer loop
   vertex 152.319855 -86.219963 621.968445
   vertex 152.318237 -86.042610 622.060303
   vertex 152.317520 -86.133385 622.101685
  endloop
 endfacet

 facet normal -0.009528 -0.838561 0.544725
  outer loop
   vertex 152.317520 -86.133385 622.101685
   vertex 151.161316 -86.219963 621.948181
   vertex 152.319855 -86.219963 621.968445
  endloop
 endfacet

 facet normal 0.999849 0.000024 0.017381
  outer loop
   vertex 133.039886 -86.133385 621.765198
   vertex 133.042206 -86.219963 621.631897
   vertex 133.040604 -86.042603 621.723816
  endloop
 endfacet

 facet normal 0.999848 0.000006 0.017416
  outer loop
   vertex 133.040604 -86.042603 621.723816
   vertex 133.042206 -86.219963 621.631897
   vertex 133.043930 -86.185158 621.532898
  endloop
 endfacet

 facet normal 0.999848 -0.000024 0.017439
  outer loop
   vertex 133.043930 -86.185158 621.532898
   vertex 133.051941 -85.479309 621.074585
   vertex 133.040604 -86.042603 621.723816
  endloop
 endfacet

 facet normal 0.014623 -0.544639 -0.838543
  outer loop
   vertex 131.893402 -85.479309 621.054382
   vertex 133.051941 -85.479309 621.074585
   vertex 133.043930 -86.185158 621.532898
  endloop
 endfacet

 facet normal -0.017424 -0.059670 0.998066
  outer loop
   vertex 151.907974 -86.120209 622.006226
   vertex 151.907822 -85.975197 622.014893
   vertex 132.293808 -85.975197 621.672485
  endloop
 endfacet

 facet normal -0.009507 -0.838666 0.544563
  outer loop
   vertex 132.293808 -85.975197 621.672485
   vertex 151.907822 -85.975197 622.014893
   vertex 151.890579 -85.333488 623.002869
  endloop
 endfacet

 facet normal -0.009505 -0.838679 0.544544
  outer loop
   vertex 151.890579 -85.333488 623.002869
   vertex 132.276566 -85.333481 622.660522
   vertex 132.293808 -85.975197 621.672485
  endloop
 endfacet

 facet normal 0.006133 -0.936208 -0.351392
  outer loop
   vertex 132.274200 -85.384537 622.796509
   vertex 132.276566 -85.333481 622.660522
   vertex 151.890579 -85.333488 623.002869
  endloop
 endfacet

 facet normal -0.014623 0.544634 0.838546
  outer loop
   vertex 152.305237 -84.573563 622.805603
   vertex 151.146698 -84.573563 622.785400
   vertex 151.138687 -85.279419 623.243713
  endloop
 endfacet

 facet normal -0.999847 0.000002 -0.017473
  outer loop
   vertex 151.138687 -85.279419 623.243713
   vertex 151.146698 -84.573563 622.785400
   vertex 151.142319 -85.395836 623.035889
  endloop
 endfacet

 facet normal -0.999848 -0.000043 -0.017447
  outer loop
   vertex 151.142319 -85.395836 623.035889
   vertex 151.138840 -85.384018 623.235229
   vertex 151.138687 -85.279419 623.243713
  endloop
 endfacet

 facet normal -0.999848 -0.000104 -0.017444
  outer loop
   vertex 151.141174 -85.470596 623.101929
   vertex 151.138840 -85.384018 623.235229
   vertex 151.142319 -85.395836 623.035889
  endloop
 endfacet

 facet normal 0.003619 0.978260 -0.207350
  outer loop
   vertex 151.888565 -85.212929 623.118164
   vertex 132.274551 -85.212929 622.775818
   vertex 151.887955 -85.205475 623.153320
  endloop
 endfacet

 facet normal 0.003626 0.978187 -0.207695
  outer loop
   vertex 151.887955 -85.205475 623.153320
   vertex 132.274551 -85.212929 622.775818
   vertex 132.273941 -85.205475 622.810913
  endloop
 endfacet

 facet normal -0.014641 0.544397 0.838700
  outer loop
   vertex 132.273941 -85.205475 622.810913
   vertex 151.886597 -85.324837 623.230774
   vertex 151.887955 -85.205475 623.153320
  endloop
 endfacet

 facet normal -0.014635 0.544699 0.838504
  outer loop
   vertex 132.272583 -85.324837 622.888428
   vertex 151.886597 -85.324837 623.230774
   vertex 132.273941 -85.205475 622.810913
  endloop
 endfacet

 facet normal -0.009505 -0.838679 0.544543
  outer loop
   vertex 132.274200 -85.384537 622.796509
   vertex 151.886597 -85.324837 623.230774
   vertex 132.272583 -85.324837 622.888428
  endloop
 endfacet

 facet normal -0.009499 -0.838677 0.544546
  outer loop
   vertex 153.714249 -84.429054 622.409546
   vertex 152.082657 -85.036285 621.445862
   vertex 153.730576 -85.036285 621.474609
  endloop
 endfacet

 facet normal 0.014628 -0.544634 -0.838546
  outer loop
   vertex 153.730576 -85.036285 621.474609
   vertex 152.082657 -85.036285 621.445862
   vertex 153.745224 -83.743858 620.635437
  endloop
 endfacet

 facet normal 0.999848 0.000003 0.017458
  outer loop
   vertex 153.745224 -83.743858 620.635437
   vertex 153.728897 -83.136620 621.570374
   vertex 153.730576 -85.036285 621.474609
  endloop
 endfacet

 facet normal 0.009500 0.838674 -0.544551
  outer loop
   vertex 152.097305 -83.743858 620.606689
   vertex 153.728897 -83.136620 621.570374
   vertex 153.745224 -83.743858 620.635437
  endloop
 endfacet

 facet normal 0.009500 0.838674 -0.544551
  outer loop
   vertex 152.080994 -83.136620 621.541626
   vertex 153.728897 -83.136620 621.570374
   vertex 152.097305 -83.743858 620.606689
  endloop
 endfacet

 facet normal -0.999848 0.000004 -0.017447
  outer loop
   vertex 152.097305 -83.743858 620.606689
   vertex 152.082657 -85.036285 621.445862
   vertex 152.080994 -83.136620 621.541626
  endloop
 endfacet

 facet normal -0.999848 0.000004 -0.017447
  outer loop
   vertex 152.080994 -83.136620 621.541626
   vertex 152.082657 -85.036285 621.445862
   vertex 152.066345 -84.429054 622.380798
  endloop
 endfacet

 facet normal -0.009500 -0.838677 0.544546
  outer loop
   vertex 152.066345 -84.429054 622.380798
   vertex 152.082657 -85.036285 621.445862
   vertex 153.714249 -84.429054 622.409546
  endloop
 endfacet

 facet normal -0.014628 0.544631 0.838548
  outer loop
   vertex 153.714249 -84.429054 622.409546
   vertex 153.728897 -83.136620 621.570374
   vertex 152.066345 -84.429054 622.380798
  endloop
 endfacet

 facet normal 0.999848 0.000003 0.017458
  outer loop
   vertex 153.730576 -85.036285 621.474609
   vertex 153.728897 -83.136620 621.570374
   vertex 153.714249 -84.429054 622.409546
  endloop
 endfacet

 facet normal -0.014628 0.544659 0.838530
  outer loop
   vertex 130.474716 -84.429054 622.003906
   vertex 132.122635 -84.429054 622.032654
   vertex 130.489365 -83.136620 621.164673
  endloop
 endfacet

 facet normal -0.014659 0.544631 0.838547
  outer loop
   vertex 130.489365 -83.136620 621.164673
   vertex 132.122635 -84.429054 622.032654
   vertex 132.137283 -83.136620 621.193481
  endloop
 endfacet

 facet normal 0.009520 0.838661 -0.544571
  outer loop
   vertex 132.137283 -83.136620 621.193481
   vertex 130.505692 -83.743851 620.229797
   vertex 130.489365 -83.136620 621.164673
  endloop
 endfacet

 facet normal 0.009500 0.838677 -0.544546
  outer loop
   vertex 132.153595 -83.743851 620.258545
   vertex 130.505692 -83.743851 620.229797
   vertex 132.137283 -83.136620 621.193481
  endloop
 endfacet

 facet normal 0.014628 -0.544631 -0.838548
  outer loop
   vertex 132.138947 -85.036285 621.097717
   vertex 130.505692 -83.743851 620.229797
   vertex 132.153595 -83.743851 620.258545
  endloop
 endfacet

 facet normal 0.999848 -0.000004 0.017447
  outer loop
   vertex 132.153595 -83.743851 620.258545
   vertex 132.122635 -84.429054 622.032654
   vertex 132.138947 -85.036285 621.097717
  endloop
 endfacet

 facet normal -0.009500 -0.838677 0.544546
  outer loop
   vertex 132.138947 -85.036285 621.097717
   vertex 132.122635 -84.429054 622.032654
   vertex 130.491043 -85.036285 621.068970
  endloop
 endfacet

 facet normal -0.009499 -0.838677 0.544546
  outer loop
   vertex 130.491043 -85.036285 621.068970
   vertex 132.122635 -84.429054 622.032654
   vertex 130.474716 -84.429054 622.003906
  endloop
 endfacet

 facet normal -0.999848 -0.000003 -0.017458
  outer loop
   vertex 130.474716 -84.429054 622.003906
   vertex 130.505692 -83.743851 620.229797
   vertex 130.491043 -85.036285 621.068970
  endloop
 endfacet

 facet normal -0.999848 -0.000004 -0.017459
  outer loop
   vertex 130.489365 -83.136620 621.164673
   vertex 130.505692 -83.743851 620.229797
   vertex 130.474716 -84.429054 622.003906
  endloop
 endfacet

 facet normal 0.009497 0.838697 -0.544515
  outer loop
   vertex 155.171219 -84.353050 621.422668
   vertex 154.821274 -84.353050 621.416565
   vertex 154.813965 -84.080734 621.835876
  endloop
 endfacet

 facet normal -0.009479 -0.838697 0.544515
  outer loop
   vertex 154.813965 -84.080734 621.835876
   vertex 154.821274 -84.353050 621.416565
   vertex 154.992584 -84.216888 621.629272
  endloop
 endfacet

 facet normal -0.009497 -0.838704 0.544504
  outer loop
   vertex 154.992584 -84.216888 621.629272
   vertex 155.163910 -84.080734 621.841980
   vertex 154.813965 -84.080734 621.835876
  endloop
 endfacet

 facet normal -0.009515 -0.838697 0.544514
  outer loop
   vertex 155.171219 -84.353050 621.422668
   vertex 155.163910 -84.080734 621.841980
   vertex 154.992584 -84.216888 621.629272
  endloop
 endfacet

 facet normal 0.999848 -0.000012 0.017436
  outer loop
   vertex 155.173416 -83.242058 621.297424
   vertex 155.163910 -84.080734 621.841980
   vertex 155.171219 -84.353050 621.422668
  endloop
 endfacet

 facet normal 0.999848 -0.000012 0.017436
  outer loop
   vertex 155.171219 -84.353050 621.422668
   vertex 155.180725 -83.514381 620.878113
   vertex 155.173416 -83.242058 621.297424
  endloop
 endfacet

 facet normal 0.009522 0.838691 -0.544525
  outer loop
   vertex 155.173416 -83.242058 621.297424
   vertex 155.180725 -83.514381 620.878113
   vertex 153.473663 -83.242058 621.267700
  endloop
 endfacet

 facet normal 0.009504 0.838654 -0.544581
  outer loop
   vertex 153.473663 -83.242058 621.267700
   vertex 155.180725 -83.514381 620.878113
   vertex 153.480988 -83.514381 620.848450
  endloop
 endfacet

 facet normal -0.999848 -0.000006 -0.017463
  outer loop
   vertex 153.480988 -83.514381 620.848450
   vertex 153.471481 -84.353050 621.393005
   vertex 153.473663 -83.242058 621.267700
  endloop
 endfacet

 facet normal 0.014675 -0.544640 -0.838542
  outer loop
   vertex 153.890778 -84.143379 621.264160
   vertex 153.471481 -84.353050 621.393005
   vertex 153.480988 -83.514381 620.848450
  endloop
 endfacet

 facet normal 0.014626 -0.544571 -0.838588
  outer loop
   vertex 153.821426 -84.353050 621.399109
   vertex 153.471481 -84.353050 621.393005
   vertex 153.890778 -84.143379 621.264160
  endloop
 endfacet

 facet normal -0.014667 0.544636 0.838544
  outer loop
   vertex 130.330948 -83.871063 621.272278
   vertex 130.745499 -84.080734 621.415710
   vertex 130.755005 -83.242058 620.871155
  endloop
 endfacet

 facet normal 0.999848 0.000006 0.017463
  outer loop
   vertex 130.755005 -83.242058 620.871155
   vertex 130.745499 -84.080734 621.415710
   vertex 130.762329 -83.514381 620.451904
  endloop
 endfacet

 facet normal 0.009504 0.838654 -0.544581
  outer loop
   vertex 130.762329 -83.514381 620.451904
   vertex 129.055267 -83.242058 620.841492
   vertex 130.755005 -83.242058 620.871155
  endloop
 endfacet

 facet normal 0.009522 0.838691 -0.544525
  outer loop
   vertex 129.062576 -83.514381 620.422180
   vertex 129.055267 -83.242058 620.841492
   vertex 130.762329 -83.514381 620.451904
  endloop
 endfacet

 facet normal -0.999848 0.000012 -0.017436
  outer loop
   vertex 129.045761 -84.080734 621.386047
   vertex 129.055267 -83.242058 620.841492
   vertex 129.062576 -83.514381 620.422180
  endloop
 endfacet

 facet normal -0.999848 0.000012 -0.017436
  outer loop
   vertex 129.062576 -83.514381 620.422180
   vertex 129.053070 -84.353050 620.966736
   vertex 129.045761 -84.080734 621.386047
  endloop
 endfacet

 facet normal -0.009478 -0.838697 0.544515
  outer loop
   vertex 129.045761 -84.080734 621.386047
   vertex 129.053070 -84.353050 620.966736
   vertex 129.224396 -84.216888 621.179443
  endloop
 endfacet

 facet normal -0.009497 -0.838690 0.544526
  outer loop
   vertex 129.224396 -84.216888 621.179443
   vertex 129.053070 -84.353050 620.966736
   vertex 129.403015 -84.353050 620.972839
  endloop
 endfacet

 facet normal -0.009516 -0.838697 0.544514
  outer loop
   vertex 129.403015 -84.353050 620.972839
   vertex 129.395706 -84.080734 621.392151
   vertex 129.224396 -84.216888 621.179443
  endloop
 endfacet

 facet normal 0.009497 0.838697 -0.544515
  outer loop
   vertex 129.045761 -84.080734 621.386047
   vertex 129.395706 -84.080734 621.392151
   vertex 129.403015 -84.353050 620.972839
  endloop
 endfacet

 facet normal -0.009497 -0.838705 0.544504
  outer loop
   vertex 129.224396 -84.216888 621.179443
   vertex 129.395706 -84.080734 621.392151
   vertex 129.045761 -84.080734 621.386047
  endloop
 endfacet

 facet normal -0.009506 -0.838679 0.544543
  outer loop
   vertex 132.293961 -86.120209 621.663818
   vertex 132.295578 -86.179909 621.571899
   vertex 151.909576 -86.179909 621.914307
  endloop
 endfacet

 facet normal 0.014638 -0.544697 -0.838505
  outer loop
   vertex 151.909576 -86.179909 621.914307
   vertex 132.295578 -86.179909 621.571899
   vertex 132.296921 -86.060547 621.494385
  endloop
 endfacet

 facet normal 0.014638 -0.544699 -0.838504
  outer loop
   vertex 132.296921 -86.060547 621.494385
   vertex 151.910934 -86.060547 621.836792
   vertex 151.909576 -86.179909 621.914307
  endloop
 endfacet

 facet normal 0.014119 0.587926 -0.808791
  outer loop
   vertex 132.296555 -86.031487 621.515503
   vertex 151.910934 -86.060547 621.836792
   vertex 132.296921 -86.060547 621.494385
  endloop
 endfacet

 facet normal 0.014119 0.587926 -0.808791
  outer loop
   vertex 151.910568 -86.031487 621.857910
   vertex 151.910934 -86.060547 621.836792
   vertex 132.296555 -86.031487 621.515503
  endloop
 endfacet

 facet normal 0.014639 -0.544645 -0.838539
  outer loop
   vertex 132.296555 -86.031487 621.515503
   vertex 132.302383 -85.516937 621.181396
   vertex 151.910568 -86.031487 621.857910
  endloop
 endfacet

 facet normal 0.014639 -0.544645 -0.838539
  outer loop
   vertex 151.910568 -86.031487 621.857910
   vertex 132.302383 -85.516937 621.181396
   vertex 151.916397 -85.516937 621.523804
  endloop
 endfacet

 facet normal -0.003626 -0.978187 0.207695
  outer loop
   vertex 151.916397 -85.516937 621.523804
   vertex 132.302383 -85.516937 621.181396
   vertex 132.302994 -85.524391 621.146301
  endloop
 endfacet

 facet normal -0.003619 -0.978260 0.207350
  outer loop
   vertex 132.302994 -85.524391 621.146301
   vertex 151.917007 -85.524391 621.488647
   vertex 151.916397 -85.516937 621.523804
  endloop
 endfacet

 facet normal 0.014637 -0.544595 -0.838572
  outer loop
   vertex 132.303665 -85.465164 621.107849
   vertex 151.917007 -85.524391 621.488647
   vertex 132.302994 -85.524391 621.146301
  endloop
 endfacet

 facet normal 0.014636 -0.544644 -0.838540
  outer loop
   vertex 151.917679 -85.465172 621.450195
   vertex 151.917007 -85.524391 621.488647
   vertex 132.303665 -85.465164 621.107849
  endloop
 endfacet

 facet normal 0.009505 0.838665 -0.544564
  outer loop
   vertex 132.303665 -85.465164 621.107849
   vertex 132.280685 -84.610092 622.424316
   vertex 151.917679 -85.465172 621.450195
  endloop
 endfacet

 facet normal 0.009506 0.838675 -0.544550
  outer loop
   vertex 151.917679 -85.465172 621.450195
   vertex 132.280685 -84.610092 622.424316
   vertex 151.894699 -84.610092 622.766724
  endloop
 endfacet

 facet normal -0.014639 0.544595 0.838572
  outer loop
   vertex 151.894699 -84.610092 622.766724
   vertex 132.280685 -84.610092 622.424316
   vertex 151.894028 -84.669319 622.805176
  endloop
 endfacet

 facet normal -0.014672 0.544636 0.838544
  outer loop
   vertex 153.883469 -83.871063 621.683411
   vertex 153.473663 -83.242058 621.267700
   vertex 153.464157 -84.080734 621.812256
  endloop
 endfacet

 facet normal -0.999848 -0.000006 -0.017463
  outer loop
   vertex 153.464157 -84.080734 621.812256
   vertex 153.473663 -83.242058 621.267700
   vertex 153.471481 -84.353050 621.393005
  endloop
 endfacet

 facet normal -0.009593 -0.838661 0.544569
  outer loop
   vertex 153.471481 -84.353050 621.393005
   vertex 153.814117 -84.080734 621.818420
   vertex 153.464157 -84.080734 621.812256
  endloop
 endfacet

 facet normal -0.009497 -0.838697 0.544515
  outer loop
   vertex 153.821426 -84.353050 621.399109
   vertex 153.814117 -84.080734 621.818420
   vertex 153.471481 -84.353050 621.393005
  endloop
 endfacet

 facet normal 0.009497 0.838697 -0.544515
  outer loop
   vertex 153.471481 -84.353050 621.393005
   vertex 153.814117 -84.080734 621.818420
   vertex 153.821426 -84.353050 621.399109
  endloop
 endfacet

 facet normal 0.014625 -0.544694 -0.838507
  outer loop
   vertex 153.821426 -84.353050 621.399109
   vertex 153.886032 -84.562721 621.536438
   vertex 153.471481 -84.353050 621.393005
  endloop
 endfacet

 facet normal 0.014622 -0.544699 -0.838504
  outer loop
   vertex 153.471481 -84.353050 621.393005
   vertex 153.886032 -84.562721 621.536438
   vertex 153.581299 -84.709488 621.626465
  endloop
 endfacet

 facet normal 0.014583 -0.544642 -0.838542
  outer loop
   vertex 153.581299 -84.709488 621.626465
   vertex 153.886032 -84.562721 621.536438
   vertex 154.067276 -84.716209 621.639282
  endloop
 endfacet

 facet normal 0.014585 -0.544578 -0.838583
  outer loop
   vertex 154.067276 -84.716209 621.639282
   vertex 153.889420 -84.970413 621.801270
   vertex 153.581299 -84.709488 621.626465
  endloop
 endfacet

 facet normal 0.014630 -0.544600 -0.838568
  outer loop
   vertex 154.316605 -84.772385 621.680115
   vertex 153.889420 -84.970413 621.801270
   vertex 154.067276 -84.716209 621.639282
  endloop
 endfacet

 facet normal 0.014674 -0.544667 -0.838524
  outer loop
   vertex 154.313278 -85.065926 621.870728
   vertex 153.889420 -84.970413 621.801270
   vertex 154.316605 -84.772385 621.680115
  endloop
 endfacet

 facet normal 0.014671 -0.544667 -0.838524
  outer loop
   vertex 154.316605 -84.772385 621.680115
   vertex 154.567200 -84.716209 621.648010
   vertex 154.313278 -85.065926 621.870728
  endloop
 endfacet

 facet normal 0.014579 -0.544621 -0.838556
  outer loop
   vertex 154.313278 -85.065926 621.870728
   vertex 154.567200 -84.716209 621.648010
   vertex 154.739288 -84.970413 621.816101
  endloop
 endfacet

 facet normal 0.014516 -0.544651 -0.838537
  outer loop
   vertex 154.739288 -84.970413 621.816101
   vertex 154.567200 -84.716209 621.648010
   vertex 154.751923 -84.562721 621.551514
  endloop
 endfacet

 facet normal 0.014792 -0.544655 -0.838530
  outer loop
   vertex 154.751923 -84.562721 621.551514
   vertex 155.053329 -84.709488 621.652161
   vertex 154.739288 -84.970413 621.816101
  endloop
 endfacet

 facet normal 0.014820 -0.544614 -0.838556
  outer loop
   vertex 154.821274 -84.353050 621.416565
   vertex 155.053329 -84.709488 621.652161
   vertex 154.751923 -84.562721 621.551514
  endloop
 endfacet

 facet normal 0.014625 -0.544705 -0.838500
  outer loop
   vertex 155.171219 -84.353050 621.422668
   vertex 155.053329 -84.709488 621.652161
   vertex 154.821274 -84.353050 621.416565
  endloop
 endfacet

 facet normal 0.014625 -0.544709 -0.838498
  outer loop
   vertex 154.821274 -84.353050 621.416565
   vertex 154.756683 -84.143387 621.279236
   vertex 155.171219 -84.353050 621.422668
  endloop
 endfacet

 facet normal 0.014675 -0.544640 -0.838542
  outer loop
   vertex 155.171219 -84.353050 621.422668
   vertex 154.756683 -84.143387 621.279236
   vertex 155.180725 -83.514381 620.878113
  endloop
 endfacet

 facet normal 0.014617 -0.544613 -0.838560
  outer loop
   vertex 155.180725 -83.514381 620.878113
   vertex 154.756683 -84.143387 621.279236
   vertex 154.575424 -83.989899 621.176392
  endloop
 endfacet

 facet normal 0.014612 -0.544608 -0.838563
  outer loop
   vertex 154.575424 -83.989899 621.176392
   vertex 154.326111 -83.933716 621.135559
   vertex 155.180725 -83.514381 620.878113
  endloop
 endfacet

 facet normal 0.014664 -0.544640 -0.838542
  outer loop
   vertex 130.338272 -84.143379 620.853027
   vertex 130.762329 -83.514381 620.451904
   vertex 130.752823 -84.353050 620.996460
  endloop
 endfacet

 facet normal 0.999848 0.000006 0.017463
  outer loop
   vertex 130.752823 -84.353050 620.996460
   vertex 130.762329 -83.514381 620.451904
   vertex 130.745499 -84.080734 621.415710
  endloop
 endfacet

 facet normal -0.009593 -0.838661 0.544569
  outer loop
   vertex 130.745499 -84.080734 621.415710
   vertex 130.402863 -84.353050 620.990295
   vertex 130.752823 -84.353050 620.996460
  endloop
 endfacet

 facet normal -0.009497 -0.838697 0.544515
  outer loop
   vertex 130.395554 -84.080734 621.409607
   vertex 130.402863 -84.353050 620.990295
   vertex 130.745499 -84.080734 621.415710
  endloop
 endfacet

 facet normal 0.009497 0.838697 -0.544515
  outer loop
   vertex 130.745499 -84.080734 621.415710
   vertex 130.402863 -84.353050 620.990295
   vertex 130.395554 -84.080734 621.409607
  endloop
 endfacet

 facet normal -0.014626 0.544584 0.838578
  outer loop
   vertex 130.395554 -84.080734 621.409607
   vertex 130.326202 -84.290398 621.544556
   vertex 130.745499 -84.080734 621.415710
  endloop
 endfacet

 facet normal -0.014649 0.544618 0.838556
  outer loop
   vertex 130.745499 -84.080734 621.415710
   vertex 130.326202 -84.290398 621.544556
   vertex 130.627594 -84.437164 621.645142
  endloop
 endfacet

 facet normal -0.014585 0.544709 0.838498
  outer loop
   vertex 130.627594 -84.437164 621.645142
   vertex 130.326202 -84.290398 621.544556
   vertex 130.141479 -84.443886 621.641052
  endloop
 endfacet

 facet normal -0.014585 0.544607 0.838565
  outer loop
   vertex 130.141479 -84.443886 621.641052
   vertex 130.313568 -84.698097 621.809143
   vertex 130.627594 -84.437164 621.645142
  endloop
 endfacet

 facet normal -0.014657 0.544572 0.838586
  outer loop
   vertex 129.890869 -84.500069 621.673157
   vertex 130.313568 -84.698097 621.809143
   vertex 130.141479 -84.443886 621.641052
  endloop
 endfacet

 facet normal -0.014586 0.544677 0.838519
  outer loop
   vertex 129.887543 -84.793602 621.863770
   vertex 130.313568 -84.698097 621.809143
   vertex 129.890869 -84.500069 621.673157
  endloop
 endfacet

 facet normal -0.014589 0.544677 0.838519
  outer loop
   vertex 129.890869 -84.500069 621.673157
   vertex 129.641556 -84.443886 621.632324
   vertex 129.887543 -84.793602 621.863770
  endloop
 endfacet

 facet normal -0.014699 0.544622 0.838553
  outer loop
   vertex 129.887543 -84.793602 621.863770
   vertex 129.641556 -84.443886 621.632324
   vertex 129.463699 -84.698097 621.794312
  endloop
 endfacet

 facet normal -0.014816 0.544679 0.838513
  outer loop
   vertex 129.463699 -84.698097 621.794312
   vertex 129.641556 -84.443886 621.632324
   vertex 129.460297 -84.290398 621.529419
  endloop
 endfacet

 facet normal -0.014611 0.544682 0.838515
  outer loop
   vertex 129.460297 -84.290398 621.529419
   vertex 129.155579 -84.437164 621.619446
   vertex 129.463699 -84.698097 621.794312
  endloop
 endfacet

 facet normal -0.014528 0.544559 0.838597
  outer loop
   vertex 129.395706 -84.080734 621.392151
   vertex 129.155579 -84.437164 621.619446
   vertex 129.460297 -84.290398 621.529419
  endloop
 endfacet

 facet normal -0.014626 0.544605 0.838565
  outer loop
   vertex 129.045761 -84.080734 621.386047
   vertex 129.155579 -84.437164 621.619446
   vertex 129.395706 -84.080734 621.392151
  endloop
 endfacet

 facet normal -0.014624 0.544742 0.838476
  outer loop
   vertex 129.395706 -84.080734 621.392151
   vertex 129.465057 -83.871063 621.257141
   vertex 129.045761 -84.080734 621.386047
  endloop
 endfacet

 facet normal -0.014549 0.544636 0.838546
  outer loop
   vertex 129.045761 -84.080734 621.386047
   vertex 129.465057 -83.871063 621.257141
   vertex 129.055267 -83.242058 620.841492
  endloop
 endfacet

 facet normal -0.014697 0.544567 0.838588
  outer loop
   vertex 129.055267 -83.242058 620.841492
   vertex 129.465057 -83.871063 621.257141
   vertex 129.649780 -83.717575 621.160706
  endloop
 endfacet

 facet normal -0.014665 0.544596 0.838571
  outer loop
   vertex 129.649780 -83.717575 621.160706
   vertex 129.900375 -83.661392 621.128601
   vertex 129.055267 -83.242058 620.841492
  endloop
 endfacet

 facet normal 0.017343 -0.102993 -0.994531
  outer loop
   vertex 131.893402 -85.479309 621.054382
   vertex 131.894394 -84.930435 620.997559
   vertex 133.051941 -85.479309 621.074585
  endloop
 endfacet

 facet normal 0.017395 -0.102884 -0.994541
  outer loop
   vertex 133.051941 -85.479309 621.074585
   vertex 131.894394 -84.930435 620.997559
   vertex 133.052933 -84.930435 621.017822
  endloop
 endfacet

 facet normal 0.999847 -0.000000 0.017467
  outer loop
   vertex 133.052933 -84.930435 621.017822
   vertex 133.035934 -84.298424 621.990845
   vertex 133.051941 -85.479309 621.074585
  endloop
 endfacet

 facet normal 0.009525 0.838660 -0.544572
  outer loop
   vertex 131.894394 -84.930435 620.997559
   vertex 133.035934 -84.298424 621.990845
   vertex 133.052933 -84.930435 621.017822
  endloop
 endfacet

 facet normal 0.009496 0.838676 -0.544548
  outer loop
   vertex 131.877396 -84.298424 621.970642
   vertex 133.035934 -84.298424 621.990845
   vertex 131.894394 -84.930435 620.997559
  endloop
 endfacet

 facet normal -0.999848 -0.000014 -0.017457
  outer loop
   vertex 131.894394 -84.930435 620.997559
   vertex 131.869049 -84.573563 622.448914
   vertex 131.877396 -84.298424 621.970642
  endloop
 endfacet

 facet normal -0.008693 0.866835 0.498519
  outer loop
   vertex 131.877396 -84.298424 621.970642
   vertex 131.869049 -84.573563 622.448914
   vertex 133.035934 -84.298424 621.990845
  endloop
 endfacet

 facet normal -0.008693 0.866835 0.498519
  outer loop
   vertex 133.035934 -84.298424 621.990845
   vertex 131.869049 -84.573563 622.448914
   vertex 133.027588 -84.573563 622.469116
  endloop
 endfacet

 facet normal 0.999848 0.000010 0.017454
  outer loop
   vertex 133.027588 -84.573563 622.469116
   vertex 133.051941 -85.479309 621.074585
   vertex 133.035934 -84.298424 621.990845
  endloop
 endfacet

 facet normal 0.999848 0.000010 0.017454
  outer loop
   vertex 133.023224 -85.395836 622.719604
   vertex 133.051941 -85.479309 621.074585
   vertex 133.027588 -84.573563 622.469116
  endloop
 endfacet

 facet normal 0.999848 -0.000006 0.017455
  outer loop
   vertex 133.040604 -86.042603 621.723816
   vertex 133.051941 -85.479309 621.074585
   vertex 133.023224 -85.395836 622.719604
  endloop
 endfacet

 facet normal -0.009525 -0.838672 0.544553
  outer loop
   vertex 133.023224 -85.395836 622.719604
   vertex 131.882065 -86.042603 621.703552
   vertex 133.040604 -86.042603 621.723816
  endloop
 endfacet

 facet normal -0.015912 0.414828 0.909761
  outer loop
   vertex 133.040604 -86.042603 621.723816
   vertex 131.882065 -86.042603 621.703552
   vertex 133.039886 -86.133385 621.765198
  endloop
 endfacet

 facet normal -0.015860 0.415334 0.909531
  outer loop
   vertex 133.039886 -86.133385 621.765198
   vertex 131.882065 -86.042603 621.703552
   vertex 131.881348 -86.133385 621.744995
  endloop
 endfacet

 facet normal -0.009496 -0.838674 0.544551
  outer loop
   vertex 131.881348 -86.133385 621.744995
   vertex 133.042206 -86.219963 621.631897
   vertex 133.039886 -86.133385 621.765198
  endloop
 endfacet

 facet normal -0.009496 -0.838674 0.544551
  outer loop
   vertex 131.883667 -86.219963 621.611694
   vertex 133.042206 -86.219963 621.631897
   vertex 131.881348 -86.133385 621.744995
  endloop
 endfacet

 facet normal 0.005782 -0.943411 -0.331576
  outer loop
   vertex 131.885391 -86.185158 621.512695
   vertex 133.042206 -86.219963 621.631897
   vertex 131.883667 -86.219963 621.611694
  endloop
 endfacet

 facet normal -0.999848 -0.000011 -0.017418
  outer loop
   vertex 131.883667 -86.219963 621.611694
   vertex 131.882065 -86.042603 621.703552
   vertex 131.885391 -86.185158 621.512695
  endloop
 endfacet

 facet normal -0.999848 0.000022 -0.017443
  outer loop
   vertex 131.885391 -86.185158 621.512695
   vertex 131.882065 -86.042603 621.703552
   vertex 131.893402 -85.479309 621.054382
  endloop
 endfacet

 facet normal -0.999848 0.000007 -0.017455
  outer loop
   vertex 131.893402 -85.479309 621.054382
   vertex 131.882065 -86.042603 621.703552
   vertex 131.864685 -85.395836 622.699341
  endloop
 endfacet

 facet normal -0.999848 -0.000009 -0.017454
  outer loop
   vertex 131.864685 -85.395836 622.699341
   vertex 131.869049 -84.573563 622.448914
   vertex 131.893402 -85.479309 621.054382
  endloop
 endfacet

 facet normal -0.999848 -0.000011 -0.017460
  outer loop
   vertex 131.861053 -85.279411 622.907227
   vertex 131.869049 -84.573563 622.448914
   vertex 131.864685 -85.395836 622.699341
  endloop
 endfacet

 facet normal -0.014623 0.544638 0.838544
  outer loop
   vertex 133.027588 -84.573563 622.469116
   vertex 131.869049 -84.573563 622.448914
   vertex 131.861053 -85.279411 622.907227
  endloop
 endfacet

 facet normal -0.014623 0.544638 0.838544
  outer loop
   vertex 131.861053 -85.279411 622.907227
   vertex 133.019592 -85.279411 622.927429
   vertex 133.027588 -84.573563 622.469116
  endloop
 endfacet

 facet normal 0.999847 0.000014 0.017464
  outer loop
   vertex 133.027588 -84.573563 622.469116
   vertex 133.019592 -85.279411 622.927429
   vertex 133.023224 -85.395836 622.719604
  endloop
 endfacet

 facet normal 0.999848 0.000043 0.017447
  outer loop
   vertex 133.023224 -85.395836 622.719604
   vertex 133.019592 -85.279411 622.927429
   vertex 133.019745 -85.384018 622.918945
  endloop
 endfacet

 facet normal 0.999848 -0.000090 0.017455
  outer loop
   vertex 133.019745 -85.384018 622.918945
   vertex 133.022064 -85.470596 622.785645
   vertex 133.023224 -85.395836 622.719604
  endloop
 endfacet

 facet normal -0.009496 -0.838674 0.544551
  outer loop
   vertex 131.863525 -85.470596 622.765442
   vertex 133.022064 -85.470596 622.785645
   vertex 133.019745 -85.384018 622.918945
  endloop
 endfacet

 facet normal 0.013066 -0.662101 -0.749300
  outer loop
   vertex 133.023224 -85.395836 622.719604
   vertex 133.022064 -85.470596 622.785645
   vertex 131.863525 -85.470596 622.765442
  endloop
 endfacet

 facet normal 0.013100 -0.662445 -0.748996
  outer loop
   vertex 131.863525 -85.470596 622.765442
   vertex 131.864685 -85.395836 622.699341
   vertex 133.023224 -85.395836 622.719604
  endloop
 endfacet

 facet normal -0.009525 -0.838672 0.544553
  outer loop
   vertex 133.023224 -85.395836 622.719604
   vertex 131.864685 -85.395836 622.699341
   vertex 131.882065 -86.042603 621.703552
  endloop
 endfacet

 facet normal -0.008694 0.866808 0.498567
  outer loop
   vertex 152.305237 -84.573563 622.805603
   vertex 152.313583 -84.298424 622.327393
   vertex 151.146698 -84.573563 622.785400
  endloop
 endfacet

 facet normal -0.008694 0.866808 0.498567
  outer loop
   vertex 151.146698 -84.573563 622.785400
   vertex 152.313583 -84.298424 622.327393
   vertex 151.155045 -84.298424 622.307190
  endloop
 endfacet

 facet normal -0.999848 0.000001 -0.017451
  outer loop
   vertex 151.155045 -84.298424 622.307190
   vertex 151.172028 -84.930435 621.334106
   vertex 151.146698 -84.573563 622.785400
  endloop
 endfacet

 facet normal 0.009496 0.838676 -0.544549
  outer loop
   vertex 152.313583 -84.298424 622.327393
   vertex 151.172028 -84.930435 621.334106
   vertex 151.155045 -84.298424 622.307190
  endloop
 endfacet

 facet normal 0.009496 0.838676 -0.544549
  outer loop
   vertex 152.330566 -84.930435 621.354309
   vertex 151.172028 -84.930435 621.334106
   vertex 152.313583 -84.298424 622.327393
  endloop
 endfacet

 facet normal 0.999848 -0.000000 0.017450
  outer loop
   vertex 152.313583 -84.298424 622.327393
   vertex 152.329575 -85.479309 621.411133
   vertex 152.330566 -84.930435 621.354309
  endloop
 endfacet

 facet normal 0.017343 -0.102993 -0.994531
  outer loop
   vertex 152.330566 -84.930435 621.354309
   vertex 152.329575 -85.479309 621.411133
   vertex 151.172028 -84.930435 621.334106
  endloop
 endfacet

 facet normal 0.017395 -0.102884 -0.994541
  outer loop
   vertex 151.172028 -84.930435 621.334106
   vertex 152.329575 -85.479309 621.411133
   vertex 151.171036 -85.479309 621.390869
  endloop
 endfacet

 facet normal -0.999848 0.000002 -0.017451
  outer loop
   vertex 151.171036 -85.479309 621.390869
   vertex 151.146698 -84.573563 622.785400
   vertex 151.172028 -84.930435 621.334106
  endloop
 endfacet

 facet normal -0.999848 0.000007 -0.017454
  outer loop
   vertex 151.159698 -86.042610 622.040100
   vertex 151.146698 -84.573563 622.785400
   vertex 151.171036 -85.479309 621.390869
  endloop
 endfacet

 facet normal -0.999848 0.000008 -0.017456
  outer loop
   vertex 151.142319 -85.395836 623.035889
   vertex 151.146698 -84.573563 622.785400
   vertex 151.159698 -86.042610 622.040100
  endloop
 endfacet

 facet normal -0.009496 -0.838669 0.544558
  outer loop
   vertex 151.159698 -86.042610 622.040100
   vertex 152.300858 -85.395836 623.056091
   vertex 151.142319 -85.395836 623.035889
  endloop
 endfacet

 facet normal 0.013066 -0.662100 -0.749302
  outer loop
   vertex 151.142319 -85.395836 623.035889
   vertex 152.300858 -85.395836 623.056091
   vertex 151.141174 -85.470596 623.101929
  endloop
 endfacet

 facet normal 0.013101 -0.662443 -0.748998
  outer loop
   vertex 151.141174 -85.470596 623.101929
   vertex 152.300858 -85.395836 623.056091
   vertex 152.299713 -85.470596 623.122192
  endloop
 endfacet

 facet normal -0.009525 -0.838675 0.544549
  outer loop
   vertex 152.299713 -85.470596 623.122192
   vertex 151.138840 -85.384018 623.235229
   vertex 151.141174 -85.470596 623.101929
  endloop
 endfacet

 facet normal -0.009525 -0.838675 0.544549
  outer loop
   vertex 152.297379 -85.384018 623.255493
   vertex 151.138840 -85.384018 623.235229
   vertex 152.299713 -85.470596 623.122192
  endloop
 endfacet

 facet normal -0.017432 -0.080278 0.996620
  outer loop
   vertex 152.297226 -85.279419 623.263916
   vertex 151.138840 -85.384018 623.235229
   vertex 152.297379 -85.384018 623.255493
  endloop
 endfacet

 facet normal 0.999848 0.000054 0.017441
  outer loop
   vertex 152.297379 -85.384018 623.255493
   vertex 152.300858 -85.395836 623.056091
   vertex 152.297226 -85.279419 623.263916
  endloop
 endfacet

 facet normal 0.999847 -0.000002 0.017473
  outer loop
   vertex 152.297226 -85.279419 623.263916
   vertex 152.300858 -85.395836 623.056091
   vertex 152.305237 -84.573563 622.805603
  endloop
 endfacet

 facet normal 0.999848 -0.000008 0.017456
  outer loop
   vertex 152.305237 -84.573563 622.805603
   vertex 152.300858 -85.395836 623.056091
   vertex 152.318237 -86.042610 622.060303
  endloop
 endfacet

 facet normal 0.999848 -0.000007 0.017455
  outer loop
   vertex 152.318237 -86.042610 622.060303
   vertex 152.329575 -85.479309 621.411133
   vertex 152.305237 -84.573563 622.805603
  endloop
 endfacet

 facet normal 0.999847 0.000028 0.017486
  outer loop
   vertex 152.321579 -86.185158 621.869446
   vertex 152.329575 -85.479309 621.411133
   vertex 152.318237 -86.042610 622.060303
  endloop
 endfacet

 facet normal 0.014667 -0.544638 -0.838543
  outer loop
   vertex 151.171036 -85.479309 621.390869
   vertex 152.329575 -85.479309 621.411133
   vertex 152.321579 -86.185158 621.869446
  endloop
 endfacet

 facet normal 0.014667 -0.544638 -0.838543
  outer loop
   vertex 152.321579 -86.185158 621.869446
   vertex 151.163040 -86.185158 621.849182
   vertex 151.171036 -85.479309 621.390869
  endloop
 endfacet

 facet normal -0.999847 -0.000025 -0.017482
  outer loop
   vertex 151.171036 -85.479309 621.390869
   vertex 151.163040 -86.185158 621.849182
   vertex 151.159698 -86.042610 622.040100
  endloop
 endfacet

 facet normal -0.999848 -0.000079 -0.017442
  outer loop
   vertex 151.159698 -86.042610 622.040100
   vertex 151.163040 -86.185158 621.849182
   vertex 151.161316 -86.219963 621.948181
  endloop
 endfacet

 facet normal -0.999847 -0.000064 -0.017469
  outer loop
   vertex 151.161316 -86.219963 621.948181
   vertex 151.158981 -86.133385 622.081482
   vertex 151.159698 -86.042610 622.040100
  endloop
 endfacet

 facet normal -0.009496 -0.838675 0.544550
  outer loop
   vertex 152.317520 -86.133385 622.101685
   vertex 151.158981 -86.133385 622.081482
   vertex 151.161316 -86.219963 621.948181
  endloop
 endfacet

 facet normal -0.015864 0.414857 0.909748
  outer loop
   vertex 151.159698 -86.042610 622.040100
   vertex 151.158981 -86.133385 622.081482
   vertex 152.317520 -86.133385 622.101685
  endloop
 endfacet

 facet normal -0.015864 0.414857 0.909748
  outer loop
   vertex 152.317520 -86.133385 622.101685
   vertex 152.318237 -86.042610 622.060303
   vertex 151.159698 -86.042610 622.040100
  endloop
 endfacet

 facet normal -0.009496 -0.838669 0.544558
  outer loop
   vertex 151.159698 -86.042610 622.040100
   vertex 152.318237 -86.042610 622.060303
   vertex 152.300858 -85.395836 623.056091
  endloop
 endfacet

 facet normal 0.014769 -0.544775 -0.838452
  outer loop
   vertex 130.402863 -84.353050 620.990295
   vertex 130.752823 -84.353050 620.996460
   vertex 130.333511 -84.562721 621.125305
  endloop
 endfacet

 facet normal 0.014654 -0.544611 -0.838561
  outer loop
   vertex 130.333511 -84.562721 621.125305
   vertex 130.752823 -84.353050 620.996460
   vertex 130.634918 -84.709488 621.225891
  endloop
 endfacet

 facet normal 0.014681 -0.544572 -0.838585
  outer loop
   vertex 130.634918 -84.709488 621.225891
   vertex 130.148788 -84.716202 621.221741
   vertex 130.333511 -84.562721 621.125305
  endloop
 endfacet

 facet normal 0.014682 -0.544701 -0.838502
  outer loop
   vertex 130.320877 -84.970413 621.389893
   vertex 130.148788 -84.716202 621.221741
   vertex 130.634918 -84.709488 621.225891
  endloop
 endfacet

 facet normal 0.014696 -0.544694 -0.838506
  outer loop
   vertex 129.898193 -84.772385 621.253845
   vertex 130.148788 -84.716202 621.221741
   vertex 130.320877 -84.970413 621.389893
  endloop
 endfacet

 facet normal 0.014707 -0.544677 -0.838517
  outer loop
   vertex 130.320877 -84.970413 621.389893
   vertex 129.894867 -85.065918 621.444458
   vertex 129.898193 -84.772385 621.253845
  endloop
 endfacet

 facet normal 0.014588 -0.544677 -0.838519
  outer loop
   vertex 129.898193 -84.772385 621.253845
   vertex 129.894867 -85.065918 621.444458
   vertex 129.648865 -84.716202 621.213013
  endloop
 endfacet

 facet normal 0.014554 -0.544694 -0.838508
  outer loop
   vertex 129.648865 -84.716202 621.213013
   vertex 129.894867 -85.065918 621.444458
   vertex 129.471008 -84.970413 621.375061
  endloop
 endfacet

 facet normal 0.014547 -0.544691 -0.838511
  outer loop
   vertex 129.471008 -84.970413 621.375061
   vertex 129.467621 -84.562721 621.110168
   vertex 129.648865 -84.716202 621.213013
  endloop
 endfacet

 facet normal 0.014616 -0.544690 -0.838510
  outer loop
   vertex 129.162903 -84.709488 621.200195
   vertex 129.467621 -84.562721 621.110168
   vertex 129.471008 -84.970413 621.375061
  endloop
 endfacet

 facet normal 0.014620 -0.544695 -0.838507
  outer loop
   vertex 129.403015 -84.353050 620.972839
   vertex 129.467621 -84.562721 621.110168
   vertex 129.162903 -84.709488 621.200195
  endloop
 endfacet

 facet normal 0.014625 -0.544697 -0.838505
  outer loop
   vertex 129.162903 -84.709488 621.200195
   vertex 129.053070 -84.353050 620.966736
   vertex 129.403015 -84.353050 620.972839
  endloop
 endfacet

 facet normal 0.014626 -0.544571 -0.838587
  outer loop
   vertex 129.403015 -84.353050 620.972839
   vertex 129.053070 -84.353050 620.966736
   vertex 129.472382 -84.143379 620.837891
  endloop
 endfacet

 facet normal 0.014674 -0.544640 -0.838542
  outer loop
   vertex 129.472382 -84.143379 620.837891
   vertex 129.053070 -84.353050 620.966736
   vertex 129.062576 -83.514381 620.422180
  endloop
 endfacet

 facet normal 0.014744 -0.544607 -0.838562
  outer loop
   vertex 129.062576 -83.514381 620.422180
   vertex 129.657104 -83.989891 620.741455
   vertex 129.472382 -84.143379 620.837891
  endloop
 endfacet

 facet normal 0.014511 -0.544812 -0.838433
  outer loop
   vertex 129.907700 -83.933716 620.709290
   vertex 129.657104 -83.989891 620.741455
   vertex 129.062576 -83.514381 620.422180
  endloop
 endfacet

 facet normal -0.014772 0.544505 0.838628
  outer loop
   vertex 153.814117 -84.080734 621.818420
   vertex 153.464157 -84.080734 621.812256
   vertex 153.878708 -84.290398 621.955688
  endloop
 endfacet

 facet normal -0.014627 0.544705 0.838500
  outer loop
   vertex 153.878708 -84.290398 621.955688
   vertex 153.464157 -84.080734 621.812256
   vertex 153.573990 -84.437164 622.045715
  endloop
 endfacet

 facet normal -0.014584 0.544642 0.838542
  outer loop
   vertex 153.573990 -84.437164 622.045715
   vertex 154.059952 -84.443886 622.058533
   vertex 153.878708 -84.290398 621.955688
  endloop
 endfacet

 facet normal -0.014582 0.544707 0.838499
  outer loop
   vertex 153.882095 -84.698097 622.220581
   vertex 154.059952 -84.443886 622.058533
   vertex 153.573990 -84.437164 622.045715
  endloop
 endfacet

 facet normal -0.014755 0.544792 0.838441
  outer loop
   vertex 154.309280 -84.500069 622.099426
   vertex 154.059952 -84.443886 622.058533
   vertex 153.882095 -84.698097 622.220581
  endloop
 endfacet

 facet normal -0.014601 0.544555 0.838598
  outer loop
   vertex 153.882095 -84.698097 622.220581
   vertex 154.305954 -84.793602 622.289978
   vertex 154.309280 -84.500069 622.099426
  endloop
 endfacet

 facet normal -0.014448 0.544555 0.838601
  outer loop
   vertex 154.309280 -84.500069 622.099426
   vertex 154.305954 -84.793602 622.289978
   vertex 154.559875 -84.443886 622.067261
  endloop
 endfacet

 facet normal -0.014709 0.544687 0.838511
  outer loop
   vertex 154.559875 -84.443886 622.067261
   vertex 154.305954 -84.793602 622.289978
   vertex 154.731979 -84.698097 622.235413
  endloop
 endfacet

 facet normal -0.014791 0.544647 0.838535
  outer loop
   vertex 154.731979 -84.698097 622.235413
   vertex 154.744598 -84.290398 621.970825
   vertex 154.559875 -84.443886 622.067261
  endloop
 endfacet

 facet normal -0.014630 0.544645 0.838539
  outer loop
   vertex 155.046005 -84.437164 622.071411
   vertex 154.744598 -84.290398 621.970825
   vertex 154.731979 -84.698097 622.235413
  endloop
 endfacet

 facet normal -0.014665 0.544594 0.838572
  outer loop
   vertex 154.813965 -84.080734 621.835876
   vertex 154.744598 -84.290398 621.970825
   vertex 155.046005 -84.437164 622.071411
  endloop
 endfacet

 facet normal -0.014626 0.544613 0.838560
  outer loop
   vertex 155.046005 -84.437164 622.071411
   vertex 155.163910 -84.080734 621.841980
   vertex 154.813965 -84.080734 621.835876
  endloop
 endfacet

 facet normal -0.014625 0.544694 0.838507
  outer loop
   vertex 154.813965 -84.080734 621.835876
   vertex 155.163910 -84.080734 621.841980
   vertex 154.749359 -83.871063 621.698547
  endloop
 endfacet

 facet normal -0.014667 0.544636 0.838544
  outer loop
   vertex 154.749359 -83.871063 621.698547
   vertex 155.163910 -84.080734 621.841980
   vertex 155.173416 -83.242058 621.297424
  endloop
 endfacet

 facet normal -0.014618 0.544613 0.838560
  outer loop
   vertex 155.173416 -83.242058 621.297424
   vertex 154.568115 -83.717575 621.595703
   vertex 154.749359 -83.871063 621.698547
  endloop
 endfacet

 facet normal -0.014624 0.544619 0.838556
  outer loop
   vertex 154.318787 -83.661400 621.554871
   vertex 154.568115 -83.717575 621.595703
   vertex 155.173416 -83.242058 621.297424
  endloop
 endfacet

 facet normal -0.014634 0.544640 0.838542
  outer loop
   vertex 129.055267 -83.242058 620.841492
   vertex 129.900375 -83.661392 621.128601
   vertex 130.755005 -83.242058 620.871155
  endloop
 endfacet

 facet normal -0.014612 0.544607 0.838564
  outer loop
   vertex 130.755005 -83.242058 620.871155
   vertex 129.900375 -83.661392 621.128601
   vertex 130.149704 -83.717575 621.169434
  endloop
 endfacet

 facet normal -0.014618 0.544613 0.838560
  outer loop
   vertex 130.149704 -83.717575 621.169434
   vertex 130.330948 -83.871063 621.272278
   vertex 130.755005 -83.242058 620.871155
  endloop
 endfacet

 facet normal -0.014741 0.544604 0.838564
  outer loop
   vertex 153.883469 -83.871063 621.683411
   vertex 154.068192 -83.717575 621.586975
   vertex 153.473663 -83.242058 621.267700
  endloop
 endfacet

 facet normal -0.014670 0.544666 0.838525
  outer loop
   vertex 153.473663 -83.242058 621.267700
   vertex 154.068192 -83.717575 621.586975
   vertex 154.318787 -83.661400 621.554871
  endloop
 endfacet

 facet normal -0.014663 0.544676 0.838519
  outer loop
   vertex 154.318787 -83.661400 621.554871
   vertex 155.173416 -83.242058 621.297424
   vertex 153.473663 -83.242058 621.267700
  endloop
 endfacet

 facet normal 0.014634 -0.544639 -0.838543
  outer loop
   vertex 155.180725 -83.514381 620.878113
   vertex 154.326111 -83.933716 621.135559
   vertex 153.480988 -83.514381 620.848450
  endloop
 endfacet

 facet normal 0.014665 -0.544596 -0.838570
  outer loop
   vertex 153.480988 -83.514381 620.848450
   vertex 154.326111 -83.933716 621.135559
   vertex 154.075500 -83.989899 621.167664
  endloop
 endfacet

 facet normal 0.014549 -0.544698 -0.838506
  outer loop
   vertex 154.075500 -83.989899 621.167664
   vertex 153.890778 -84.143379 621.264160
   vertex 153.480988 -83.514381 620.848450
  endloop
 endfacet

 facet normal 0.014614 -0.544616 -0.838558
  outer loop
   vertex 130.338272 -84.143379 620.853027
   vertex 130.157028 -83.989891 620.750183
   vertex 130.762329 -83.514381 620.451904
  endloop
 endfacet

 facet normal 0.014781 -0.544765 -0.838458
  outer loop
   vertex 130.762329 -83.514381 620.451904
   vertex 130.157028 -83.989891 620.750183
   vertex 129.907700 -83.933716 620.709290
  endloop
 endfacet

 facet normal 0.014664 -0.544597 -0.838570
  outer loop
   vertex 129.907700 -83.933716 620.709290
   vertex 129.062576 -83.514381 620.422180
   vertex 130.762329 -83.514381 620.451904
  endloop
 endfacet

 facet normal 0.005799 -0.943411 -0.331576
  outer loop
   vertex 152.321579 -86.185158 621.869446
   vertex 152.319855 -86.219963 621.968445
   vertex 151.163040 -86.185158 621.849182
  endloop
 endfacet

 facet normal 0.005799 -0.943411 -0.331576
  outer loop
   vertex 151.163040 -86.185158 621.849182
   vertex 152.319855 -86.219963 621.968445
   vertex 151.161316 -86.219963 621.948181
  endloop
 endfacet

 facet normal -0.014636 0.544645 0.838539
  outer loop
   vertex 132.280396 -84.698380 622.441711
   vertex 132.274551 -85.212929 622.775818
   vertex 151.894394 -84.698380 622.784058
  endloop
 endfacet

 facet normal -0.014636 0.544645 0.838539
  outer loop
   vertex 151.894394 -84.698380 622.784058
   vertex 132.274551 -85.212929 622.775818
   vertex 151.888565 -85.212929 623.118164
  endloop
 endfacet

 facet normal -0.017378 -0.080850 0.996575
  outer loop
   vertex 133.019745 -85.384018 622.918945
   vertex 133.019592 -85.279411 622.927429
   vertex 131.861206 -85.384018 622.898743
  endloop
 endfacet

 facet normal -0.017378 -0.080850 0.996575
  outer loop
   vertex 131.861206 -85.384018 622.898743
   vertex 133.019592 -85.279411 622.927429
   vertex 131.861053 -85.279411 622.907227
  endloop
 endfacet

 facet normal -0.009497 -0.838691 0.544525
  outer loop
   vertex 154.821274 -84.353050 621.416565
   vertex 155.171219 -84.353050 621.422668
   vertex 154.992584 -84.216888 621.629272
  endloop
 endfacet

 facet normal 0.999848 -0.000001 0.017451
  outer loop
   vertex 152.305237 -84.573563 622.805603
   vertex 152.329575 -85.479309 621.411133
   vertex 152.313583 -84.298424 622.327393
  endloop
 endfacet

 facet normal -0.014769 0.544775 0.838452
  outer loop
   vertex 153.464157 -84.080734 621.812256
   vertex 153.814117 -84.080734 621.818420
   vertex 153.883469 -83.871063 621.683411
  endloop
 endfacet

 facet normal -0.014625 0.544694 0.838507
  outer loop
   vertex 130.395554 -84.080734 621.409607
   vertex 130.745499 -84.080734 621.415710
   vertex 130.330948 -83.871063 621.272278
  endloop
 endfacet

 facet normal 0.009497 0.838697 -0.544515
  outer loop
   vertex 155.171219 -84.353050 621.422668
   vertex 154.813965 -84.080734 621.835876
   vertex 155.163910 -84.080734 621.841980
  endloop
 endfacet

 facet normal 0.014628 -0.544631 -0.838548
  outer loop
   vertex 132.138947 -85.036285 621.097717
   vertex 130.491043 -85.036285 621.068970
   vertex 130.505692 -83.743851 620.229797
  endloop
 endfacet

 facet normal -0.014628 0.544631 0.838548
  outer loop
   vertex 152.080994 -83.136620 621.541626
   vertex 152.066345 -84.429054 622.380798
   vertex 153.728897 -83.136620 621.570374
  endloop
 endfacet

 facet normal 0.009497 0.838697 -0.544515
  outer loop
   vertex 129.045761 -84.080734 621.386047
   vertex 129.403015 -84.353050 620.972839
   vertex 129.053070 -84.353050 620.966736
  endloop
 endfacet

 facet normal -0.999849 -0.000033 -0.017375
  outer loop
   vertex 131.883667 -86.219963 621.611694
   vertex 131.881348 -86.133385 621.744995
   vertex 131.882065 -86.042603 621.703552
  endloop
 endfacet

 facet normal 0.009593 0.838661 -0.544569
  outer loop
   vertex 153.814117 -84.080734 621.818420
   vertex 153.471481 -84.353050 621.393005
   vertex 153.464157 -84.080734 621.812256
  endloop
 endfacet

 facet normal -0.999848 -0.000001 -0.017460
  outer loop
   vertex 131.893402 -85.479309 621.054382
   vertex 131.869049 -84.573563 622.448914
   vertex 131.894394 -84.930435 620.997559
  endloop
 endfacet

 facet normal 0.999848 0.000113 0.017438
  outer loop
   vertex 152.297379 -85.384018 623.255493
   vertex 152.299713 -85.470596 623.122192
   vertex 152.300858 -85.395836 623.056091
  endloop
 endfacet

 facet normal 0.014628 -0.544634 -0.838546
  outer loop
   vertex 152.082657 -85.036285 621.445862
   vertex 152.097305 -83.743858 620.606689
   vertex 153.745224 -83.743858 620.635437
  endloop
 endfacet

 facet normal 0.999848 -0.000004 0.017447
  outer loop
   vertex 132.153595 -83.743851 620.258545
   vertex 132.137283 -83.136620 621.193481
   vertex 132.122635 -84.429054 622.032654
  endloop
 endfacet

 facet normal 0.009593 0.838661 -0.544569
  outer loop
   vertex 130.402863 -84.353050 620.990295
   vertex 130.745499 -84.080734 621.415710
   vertex 130.752823 -84.353050 620.996460
  endloop
 endfacet

 facet normal 0.014773 -0.544491 -0.838637
  outer loop
   vertex 130.752823 -84.353050 620.996460
   vertex 130.402863 -84.353050 620.990295
   vertex 130.338272 -84.143379 620.853027
  endloop
 endfacet

 facet normal -0.713714 -0.593034 0.372725
  outer loop
   vertex 130.157028 -83.989891 620.750183
   vertex 130.330948 -83.871063 621.272278
   vertex 130.149704 -83.717575 621.169434
  endloop
 endfacet

 facet normal -0.268044 -0.810068 0.521481
  outer loop
   vertex 130.157028 -83.989891 620.750183
   vertex 130.149704 -83.717575 621.169434
   vertex 129.907700 -83.933716 620.709290
  endloop
 endfacet

 facet normal -0.267948 -0.810117 0.521454
  outer loop
   vertex 129.907700 -83.933716 620.709290
   vertex 130.149704 -83.717575 621.169434
   vertex 129.900375 -83.661392 621.128601
  endloop
 endfacet

 facet normal 0.249687 -0.810092 0.530479
  outer loop
   vertex 129.900375 -83.661392 621.128601
   vertex 129.657104 -83.989891 620.741455
   vertex 129.907700 -83.933716 620.709290
  endloop
 endfacet

 facet normal 0.249588 -0.810085 0.530535
  outer loop
   vertex 129.649780 -83.717575 621.160706
   vertex 129.657104 -83.989891 620.741455
   vertex 129.900375 -83.661392 621.128601
  endloop
 endfacet

 facet normal 0.700248 -0.593043 0.397433
  outer loop
   vertex 129.472382 -84.143379 620.837891
   vertex 129.657104 -83.989891 620.741455
   vertex 129.649780 -83.717575 621.160706
  endloop
 endfacet

 facet normal 0.700248 -0.593043 0.397433
  outer loop
   vertex 129.649780 -83.717575 621.160706
   vertex 129.465057 -83.871063 621.257141
   vertex 129.472382 -84.143379 620.837891
  endloop
 endfacet

 facet normal 0.963303 -0.217103 0.157843
  outer loop
   vertex 129.472382 -84.143379 620.837891
   vertex 129.465057 -83.871063 621.257141
   vertex 129.403015 -84.353050 620.972839
  endloop
 endfacet

 facet normal -0.968250 -0.217024 0.124066
  outer loop
   vertex 154.821274 -84.353050 621.416565
   vertex 154.813965 -84.080734 621.835876
   vertex 154.756683 -84.143387 621.279236
  endloop
 endfacet

 facet normal -0.968237 -0.217079 0.124070
  outer loop
   vertex 154.756683 -84.143387 621.279236
   vertex 154.813965 -84.080734 621.835876
   vertex 154.749359 -83.871063 621.698547
  endloop
 endfacet

 facet normal -0.713684 -0.593078 0.372711
  outer loop
   vertex 154.749359 -83.871063 621.698547
   vertex 154.575424 -83.989899 621.176392
   vertex 154.756683 -84.143387 621.279236
  endloop
 endfacet

 facet normal -0.713713 -0.593042 0.372713
  outer loop
   vertex 154.568115 -83.717575 621.595703
   vertex 154.575424 -83.989899 621.176392
   vertex 154.749359 -83.871063 621.698547
  endloop
 endfacet

 facet normal -0.267963 -0.810109 0.521458
  outer loop
   vertex 154.326111 -83.933716 621.135559
   vertex 154.575424 -83.989899 621.176392
   vertex 154.568115 -83.717575 621.595703
  endloop
 endfacet

 facet normal -0.267924 -0.810129 0.521447
  outer loop
   vertex 154.568115 -83.717575 621.595703
   vertex 154.318787 -83.661400 621.554871
   vertex 154.326111 -83.933716 621.135559
  endloop
 endfacet

 facet normal 0.249575 -0.810124 0.530483
  outer loop
   vertex 154.326111 -83.933716 621.135559
   vertex 154.318787 -83.661400 621.554871
   vertex 154.075500 -83.989899 621.167664
  endloop
 endfacet

 facet normal 0.249566 -0.810123 0.530488
  outer loop
   vertex 154.075500 -83.989899 621.167664
   vertex 154.318787 -83.661400 621.554871
   vertex 154.068192 -83.717575 621.586975
  endloop
 endfacet

 facet normal 0.700303 -0.593031 0.397353
  outer loop
   vertex 154.068192 -83.717575 621.586975
   vertex 153.890778 -84.143379 621.264160
   vertex 154.075500 -83.989899 621.167664
  endloop
 endfacet

 facet normal 0.963315 -0.217066 0.157820
  outer loop
   vertex 130.752823 -84.353050 620.996460
   vertex 130.745499 -84.080734 621.415710
   vertex 130.634918 -84.709488 621.225891
  endloop
 endfacet

 facet normal 0.963314 -0.217067 0.157825
  outer loop
   vertex 130.634918 -84.709488 621.225891
   vertex 130.745499 -84.080734 621.415710
   vertex 130.627594 -84.437164 621.645142
  endloop
 endfacet

 facet normal 0.700269 -0.593021 0.397429
  outer loop
   vertex 130.627594 -84.437164 621.645142
   vertex 130.320877 -84.970413 621.389893
   vertex 130.634918 -84.709488 621.225891
  endloop
 endfacet

 facet normal 0.700294 -0.593017 0.397391
  outer loop
   vertex 130.313568 -84.698097 621.809143
   vertex 130.320877 -84.970413 621.389893
   vertex 130.627594 -84.437164 621.645142
  endloop
 endfacet

 facet normal 0.249564 -0.810095 0.530532
  outer loop
   vertex 129.894867 -85.065918 621.444458
   vertex 130.320877 -84.970413 621.389893
   vertex 130.313568 -84.698097 621.809143
  endloop
 endfacet

 facet normal 0.249627 -0.810112 0.530476
  outer loop
   vertex 130.313568 -84.698097 621.809143
   vertex 129.887543 -84.793602 621.863770
   vertex 129.894867 -85.065918 621.444458
  endloop
 endfacet

 facet normal -0.267916 -0.810131 0.521449
  outer loop
   vertex 129.894867 -85.065918 621.444458
   vertex 129.887543 -84.793602 621.863770
   vertex 129.471008 -84.970413 621.375061
  endloop
 endfacet

 facet normal -0.267995 -0.810074 0.521496
  outer loop
   vertex 129.471008 -84.970413 621.375061
   vertex 129.887543 -84.793602 621.863770
   vertex 129.463699 -84.698097 621.794312
  endloop
 endfacet

 facet normal -0.713738 -0.593001 0.372730
  outer loop
   vertex 129.463699 -84.698097 621.794312
   vertex 129.162903 -84.709488 621.200195
   vertex 129.471008 -84.970413 621.375061
  endloop
 endfacet

 facet normal -0.713728 -0.593017 0.372725
  outer loop
   vertex 129.155579 -84.437164 621.619446
   vertex 129.162903 -84.709488 621.200195
   vertex 129.463699 -84.698097 621.794312
  endloop
 endfacet

 facet normal -0.968235 -0.217077 0.124087
  outer loop
   vertex 129.053070 -84.353050 620.966736
   vertex 129.162903 -84.709488 621.200195
   vertex 129.155579 -84.437164 621.619446
  endloop
 endfacet

 facet normal -0.968239 -0.217061 0.124090
  outer loop
   vertex 129.155579 -84.437164 621.619446
   vertex 129.045761 -84.080734 621.386047
   vertex 129.053070 -84.353050 620.966736
  endloop
 endfacet

 facet normal 0.963330 -0.217048 0.157750
  outer loop
   vertex 155.171219 -84.353050 621.422668
   vertex 155.163910 -84.080734 621.841980
   vertex 155.053329 -84.709488 621.652161
  endloop
 endfacet

 facet normal 0.963314 -0.217067 0.157825
  outer loop
   vertex 155.053329 -84.709488 621.652161
   vertex 155.163910 -84.080734 621.841980
   vertex 155.046005 -84.437164 622.071411
  endloop
 endfacet

 facet normal 0.700229 -0.593054 0.397450
  outer loop
   vertex 155.046005 -84.437164 622.071411
   vertex 154.739288 -84.970413 621.816101
   vertex 155.053329 -84.709488 621.652161
  endloop
 endfacet

 facet normal 0.700294 -0.593043 0.397350
  outer loop
   vertex 154.731979 -84.698097 622.235413
   vertex 154.739288 -84.970413 621.816101
   vertex 155.046005 -84.437164 622.071411
  endloop
 endfacet

 facet normal 0.249649 -0.810111 0.530467
  outer loop
   vertex 154.313278 -85.065926 621.870728
   vertex 154.739288 -84.970413 621.816101
   vertex 154.731979 -84.698097 622.235413
  endloop
 endfacet

 facet normal 0.249555 -0.810086 0.530550
  outer loop
   vertex 154.731979 -84.698097 622.235413
   vertex 154.305954 -84.793602 622.289978
   vertex 154.313278 -85.065926 621.870728
  endloop
 endfacet

 facet normal -0.268000 -0.810071 0.521499
  outer loop
   vertex 154.313278 -85.065926 621.870728
   vertex 154.305954 -84.793602 622.289978
   vertex 153.889420 -84.970413 621.801270
  endloop
 endfacet

 facet normal -0.267916 -0.810131 0.521449
  outer loop
   vertex 153.889420 -84.970413 621.801270
   vertex 154.305954 -84.793602 622.289978
   vertex 153.882095 -84.698097 622.220581
  endloop
 endfacet

 facet normal -0.713684 -0.593083 0.372703
  outer loop
   vertex 153.882095 -84.698097 622.220581
   vertex 153.581299 -84.709488 621.626465
   vertex 153.889420 -84.970413 621.801270
  endloop
 endfacet

 facet normal -0.713746 -0.592990 0.372733
  outer loop
   vertex 153.573990 -84.437164 622.045715
   vertex 153.581299 -84.709488 621.626465
   vertex 153.882095 -84.698097 622.220581
  endloop
 endfacet

 facet normal -0.968244 -0.217034 0.124094
  outer loop
   vertex 153.471481 -84.353050 621.393005
   vertex 153.581299 -84.709488 621.626465
   vertex 153.573990 -84.437164 622.045715
  endloop
 endfacet

 facet normal -0.968234 -0.217082 0.124087
  outer loop
   vertex 153.573990 -84.437164 622.045715
   vertex 153.464157 -84.080734 621.812256
   vertex 153.471481 -84.353050 621.393005
  endloop
 endfacet

 facet normal 0.700248 -0.593055 0.397415
  outer loop
   vertex 154.068192 -83.717575 621.586975
   vertex 153.883469 -83.871063 621.683411
   vertex 153.890778 -84.143379 621.264160
  endloop
 endfacet

 facet normal 0.963328 -0.217042 0.157770
  outer loop
   vertex 153.890778 -84.143379 621.264160
   vertex 153.883469 -83.871063 621.683411
   vertex 153.814117 -84.080734 621.818420
  endloop
 endfacet

 facet normal 0.963319 -0.217083 0.157773
  outer loop
   vertex 153.814117 -84.080734 621.818420
   vertex 153.821426 -84.353050 621.399109
   vertex 153.890778 -84.143379 621.264160
  endloop
 endfacet

 facet normal 0.968243 0.217047 -0.124081
  outer loop
   vertex 153.878708 -84.290398 621.955688
   vertex 153.821426 -84.353050 621.399109
   vertex 153.814117 -84.080734 621.818420
  endloop
 endfacet

 facet normal 0.968237 0.217071 -0.124083
  outer loop
   vertex 153.886032 -84.562721 621.536438
   vertex 153.821426 -84.353050 621.399109
   vertex 153.878708 -84.290398 621.955688
  endloop
 endfacet

 facet normal 0.713714 0.593029 -0.372733
  outer loop
   vertex 153.878708 -84.290398 621.955688
   vertex 154.059952 -84.443886 622.058533
   vertex 153.886032 -84.562721 621.536438
  endloop
 endfacet

 facet normal 0.713714 0.593029 -0.372733
  outer loop
   vertex 153.886032 -84.562721 621.536438
   vertex 154.059952 -84.443886 622.058533
   vertex 154.067276 -84.716209 621.639282
  endloop
 endfacet

 facet normal 0.268067 0.810056 -0.521488
  outer loop
   vertex 154.067276 -84.716209 621.639282
   vertex 154.059952 -84.443886 622.058533
   vertex 154.309280 -84.500069 622.099426
  endloop
 endfacet

 facet normal 0.267924 0.810129 -0.521447
  outer loop
   vertex 154.309280 -84.500069 622.099426
   vertex 154.316605 -84.772385 621.680115
   vertex 154.067276 -84.716209 621.639282
  endloop
 endfacet

 facet normal -0.249710 0.810093 -0.530466
  outer loop
   vertex 154.559875 -84.443886 622.067261
   vertex 154.316605 -84.772385 621.680115
   vertex 154.309280 -84.500069 622.099426
  endloop
 endfacet

 facet normal -0.249564 0.810084 -0.530549
  outer loop
   vertex 154.567200 -84.716209 621.648010
   vertex 154.316605 -84.772385 621.680115
   vertex 154.559875 -84.443886 622.067261
  endloop
 endfacet

 facet normal -0.700248 0.593038 -0.397440
  outer loop
   vertex 154.559875 -84.443886 622.067261
   vertex 154.744598 -84.290398 621.970825
   vertex 154.567200 -84.716209 621.648010
  endloop
 endfacet

 facet normal -0.700315 0.593009 -0.397365
  outer loop
   vertex 154.567200 -84.716209 621.648010
   vertex 154.744598 -84.290398 621.970825
   vertex 154.751923 -84.562721 621.551514
  endloop
 endfacet

 facet normal -0.963301 0.217116 -0.157833
  outer loop
   vertex 154.751923 -84.562721 621.551514
   vertex 154.744598 -84.290398 621.970825
   vertex 154.813965 -84.080734 621.835876
  endloop
 endfacet

 facet normal -0.963319 0.217083 -0.157773
  outer loop
   vertex 154.813965 -84.080734 621.835876
   vertex 154.821274 -84.353050 621.416565
   vertex 154.751923 -84.562721 621.551514
  endloop
 endfacet

 facet normal -0.713714 -0.593034 0.372725
  outer loop
   vertex 130.157028 -83.989891 620.750183
   vertex 130.338272 -84.143379 620.853027
   vertex 130.330948 -83.871063 621.272278
  endloop
 endfacet

 facet normal -0.968244 -0.217050 0.124066
  outer loop
   vertex 130.330948 -83.871063 621.272278
   vertex 130.338272 -84.143379 620.853027
   vertex 130.402863 -84.353050 620.990295
  endloop
 endfacet

 facet normal -0.968238 -0.217065 0.124092
  outer loop
   vertex 130.402863 -84.353050 620.990295
   vertex 130.395554 -84.080734 621.409607
   vertex 130.330948 -83.871063 621.272278
  endloop
 endfacet

 facet normal -0.963329 0.217053 -0.157754
  outer loop
   vertex 130.333511 -84.562721 621.125305
   vertex 130.395554 -84.080734 621.409607
   vertex 130.402863 -84.353050 620.990295
  endloop
 endfacet

 facet normal -0.963317 0.217076 -0.157795
  outer loop
   vertex 130.326202 -84.290398 621.544556
   vertex 130.395554 -84.080734 621.409607
   vertex 130.333511 -84.562721 621.125305
  endloop
 endfacet

 facet normal -0.700235 0.593060 -0.397429
  outer loop
   vertex 130.333511 -84.562721 621.125305
   vertex 130.148788 -84.716202 621.221741
   vertex 130.326202 -84.290398 621.544556
  endloop
 endfacet

 facet normal -0.700316 0.593026 -0.397339
  outer loop
   vertex 130.326202 -84.290398 621.544556
   vertex 130.148788 -84.716202 621.221741
   vertex 130.141479 -84.443886 621.641052
  endloop
 endfacet

 facet normal -0.249589 0.810125 -0.530475
  outer loop
   vertex 130.141479 -84.443886 621.641052
   vertex 130.148788 -84.716202 621.221741
   vertex 129.898193 -84.772385 621.253845
  endloop
 endfacet

 facet normal -0.249575 0.810124 -0.530483
  outer loop
   vertex 129.898193 -84.772385 621.253845
   vertex 129.890869 -84.500069 621.673157
   vertex 130.141479 -84.443886 621.641052
  endloop
 endfacet

 facet normal 0.267947 0.810124 -0.521443
  outer loop
   vertex 129.648865 -84.716202 621.213013
   vertex 129.890869 -84.500069 621.673157
   vertex 129.898193 -84.772385 621.253845
  endloop
 endfacet

 facet normal 0.267963 0.810116 -0.521448
  outer loop
   vertex 129.641556 -84.443886 621.632324
   vertex 129.890869 -84.500069 621.673157
   vertex 129.648865 -84.716202 621.213013
  endloop
 endfacet

 facet normal 0.713701 0.593057 -0.372712
  outer loop
   vertex 129.648865 -84.716202 621.213013
   vertex 129.467621 -84.562721 621.110168
   vertex 129.641556 -84.443886 621.632324
  endloop
 endfacet

 facet normal 0.713746 0.593001 -0.372714
  outer loop
   vertex 129.641556 -84.443886 621.632324
   vertex 129.467621 -84.562721 621.110168
   vertex 129.460297 -84.290398 621.529419
  endloop
 endfacet

 facet normal 0.968237 0.217071 -0.124083
  outer loop
   vertex 129.460297 -84.290398 621.529419
   vertex 129.467621 -84.562721 621.110168
   vertex 129.403015 -84.353050 620.972839
  endloop
 endfacet

 facet normal 0.968243 0.217047 -0.124081
  outer loop
   vertex 129.403015 -84.353050 620.972839
   vertex 129.395706 -84.080734 621.392151
   vertex 129.460297 -84.290398 621.529419
  endloop
 endfacet

 facet normal 0.963329 -0.217053 0.157754
  outer loop
   vertex 129.465057 -83.871063 621.257141
   vertex 129.395706 -84.080734 621.392151
   vertex 129.403015 -84.353050 620.972839
  endloop
 endfacet

endsolid