solid stl file generated from DOUG
 facet normal -0.863629 0.482973 -0.144504
  outer loop
   vertex 67.379074 -33.183414 485.334656
   vertex 67.370628 -33.053703 485.818665
   vertex 67.505333 -32.973797 485.280670
  endloop
 facet normal -0.863634 0.482965 -0.144506
  outer loop
   vertex 67.505333 -32.973797 485.280670
   vertex 67.370628 -33.053703 485.818665
   vertex 67.496880 -32.844086 485.764709
  endloop
 facet normal 0.004539 0.965929 -0.258767
  outer loop
   vertex 67.496880 -32.844086 485.764709
   vertex 67.755875 -32.973797 485.285065
   vertex 67.505333 -32.973797 485.280670
  endloop
 facet normal 0.004507 0.965925 -0.258783
  outer loop
   vertex 67.747429 -32.844086 485.769073
   vertex 67.755875 -32.973797 485.285065
   vertex 67.496880 -32.844086 485.764709
  endloop
 facet normal 0.868137 0.482987 -0.114289
  outer loop
   vertex 67.880173 -33.183414 485.343384
   vertex 67.755875 -32.973797 485.285065
   vertex 67.747429 -32.844086 485.769073
  endloop
 facet normal 0.868157 0.482958 -0.114260
  outer loop
   vertex 67.747429 -32.844086 485.769073
   vertex 67.871719 -33.053703 485.827423
   vertex 67.880173 -33.183414 485.343384
  endloop
 facet normal 0.863633 -0.482966 0.144506
  outer loop
   vertex 67.880173 -33.183414 485.343384
   vertex 67.871719 -33.053703 485.827423
   vertex 67.753914 -33.393036 485.397369
  endloop
 facet normal 0.863637 -0.482960 0.144500
  outer loop
   vertex 67.753914 -33.393036 485.397369
   vertex 67.871719 -33.053703 485.827423
   vertex 67.745468 -33.263325 485.881378
  endloop
 facet normal -0.004508 -0.965925 0.258783
  outer loop
   vertex 67.745468 -33.263325 485.881378
   vertex 67.503372 -33.393036 485.393005
   vertex 67.753914 -33.393036 485.397369
  endloop
 facet normal -0.004507 -0.965925 0.258783
  outer loop
   vertex 67.494919 -33.263325 485.877014
   vertex 67.503372 -33.393036 485.393005
   vertex 67.745468 -33.263325 485.881378
  endloop
 facet normal -0.868147 -0.482973 0.114271
  outer loop
   vertex 67.379074 -33.183414 485.334656
   vertex 67.503372 -33.393036 485.393005
   vertex 67.494919 -33.263325 485.877014
  endloop
 facet normal -0.868161 -0.482947 0.114278
  outer loop
   vertex 67.494919 -33.263325 485.877014
   vertex 67.370628 -33.053703 485.818665
   vertex 67.379074 -33.183414 485.334656
  endloop
 facet normal 0.868154 0.482960 -0.114274
  outer loop
   vertex 45.779789 -33.053703 485.441772
   vertex 45.788239 -33.183414 484.957764
   vertex 45.655495 -32.844082 485.383423
  endloop
 facet normal 0.868150 0.482965 -0.114280
  outer loop
   vertex 45.655495 -32.844082 485.383423
   vertex 45.788239 -33.183414 484.957764
   vertex 45.663944 -32.973797 484.899414
  endloop
 facet normal 0.004508 0.965923 -0.258790
  outer loop
   vertex 45.663944 -32.973797 484.899414
   vertex 45.404949 -32.844082 485.379059
   vertex 45.655495 -32.844082 485.383423
  endloop
 facet normal 0.004508 0.965923 -0.258790
  outer loop
   vertex 45.413399 -32.973797 484.895050
   vertex 45.404949 -32.844082 485.379059
   vertex 45.663944 -32.973797 484.899414
  endloop
 facet normal -0.863639 0.482954 -0.144509
  outer loop
   vertex 45.278694 -33.053703 485.433044
   vertex 45.404949 -32.844082 485.379059
   vertex 45.413399 -32.973797 484.895050
  endloop
 facet normal -0.863627 0.482978 -0.144502
  outer loop
   vertex 45.413399 -32.973797 484.895050
   vertex 45.287144 -33.183414 484.949005
   vertex 45.278694 -33.053703 485.433044
  endloop
 facet normal -0.868143 -0.482979 0.114273
  outer loop
   vertex 45.278694 -33.053703 485.433044
   vertex 45.287144 -33.183414 484.949005
   vertex 45.402988 -33.263321 485.491364
  endloop
 facet normal -0.868154 -0.482959 0.114278
  outer loop
   vertex 45.402988 -33.263321 485.491364
   vertex 45.287144 -33.183414 484.949005
   vertex 45.411438 -33.393036 485.007355
  endloop
 facet normal -0.004539 -0.965923 0.258789
  outer loop
   vertex 45.411438 -33.393036 485.007355
   vertex 45.653534 -33.263321 485.495758
   vertex 45.402988 -33.263321 485.491364
  endloop
 facet normal -0.004507 -0.965927 0.258775
  outer loop
   vertex 45.661983 -33.393036 485.011719
   vertex 45.653534 -33.263321 485.495758
   vertex 45.411438 -33.393036 485.007355
  endloop
 facet normal 0.863636 -0.482962 0.144502
  outer loop
   vertex 45.779789 -33.053703 485.441772
   vertex 45.653534 -33.263321 485.495758
   vertex 45.661983 -33.393036 485.011719
  endloop
 facet normal 0.863631 -0.482969 0.144509
  outer loop
   vertex 45.661983 -33.393036 485.011719
   vertex 45.788239 -33.183414 484.957764
   vertex 45.779789 -33.053703 485.441772
  endloop
 facet normal 0.016822 -0.258728 -0.965804
  outer loop
   vertex 45.413399 -32.973797 484.895050
   vertex 45.663944 -32.973797 484.899414
   vertex 45.537689 -33.183414 484.953369
  endloop
 facet normal 0.016939 -0.258793 -0.965784
  outer loop
   vertex 45.537689 -33.183414 484.953369
   vertex 45.663944 -32.973797 484.899414
   vertex 45.788239 -33.183414 484.957764
  endloop
 facet normal 0.016939 -0.258789 -0.965785
  outer loop
   vertex 45.788239 -33.183414 484.957764
   vertex 45.661983 -33.393036 485.011719
   vertex 45.537689 -33.183414 484.953369
  endloop
 facet normal 0.016822 -0.258854 -0.965770
  outer loop
   vertex 67.503372 -33.393036 485.393005
   vertex 67.379074 -33.183414 485.334656
   vertex 67.629623 -33.183414 485.339020
  endloop
 facet normal 0.016822 -0.258859 -0.965769
  outer loop
   vertex 67.629623 -33.183414 485.339020
   vertex 67.379074 -33.183414 485.334656
   vertex 67.505333 -32.973797 485.280670
  endloop
 facet normal 0.016940 -0.258793 -0.965784
  outer loop
   vertex 67.505333 -32.973797 485.280670
   vertex 67.755875 -32.973797 485.285065
   vertex 67.629623 -33.183414 485.339020
  endloop
 facet normal 0.016822 -0.258727 -0.965804
  outer loop
   vertex 67.755875 -32.973797 485.285065
   vertex 67.880173 -33.183414 485.343384
   vertex 67.629623 -33.183414 485.339020
  endloop
 facet normal 0.016822 -0.258855 -0.965770
  outer loop
   vertex 67.629623 -33.183414 485.339020
   vertex 67.880173 -33.183414 485.343384
   vertex 67.753914 -33.393036 485.397369
  endloop
 facet normal 0.016822 -0.258855 -0.965770
  outer loop
   vertex 67.753914 -33.393036 485.397369
   vertex 67.503372 -33.393036 485.393005
   vertex 67.629623 -33.183414 485.339020
  endloop
 facet normal 0.016822 -0.258854 -0.965770
  outer loop
   vertex 45.661983 -33.393036 485.011719
   vertex 45.411438 -33.393036 485.007355
   vertex 45.537689 -33.183414 484.953369
  endloop
 facet normal 0.016822 -0.258854 -0.965770
  outer loop
   vertex 45.537689 -33.183414 484.953369
   vertex 45.411438 -33.393036 485.007355
   vertex 45.287144 -33.183414 484.949005
  endloop
 facet normal 0.016822 -0.258728 -0.965804
  outer loop
   vertex 45.287144 -33.183414 484.949005
   vertex 45.413399 -32.973797 484.895050
   vertex 45.537689 -33.183414 484.953369
  endloop
 facet normal 0.016851 -0.258835 -0.965775
  outer loop
   vertex 66.136116 -33.260578 487.440521
   vertex 66.141769 -32.052979 487.116974
   vertex 69.127060 -33.260578 487.492706
  endloop
 facet normal 0.016860 -0.258812 -0.965780
  outer loop
   vertex 69.127060 -33.260578 487.492706
   vertex 66.141769 -32.052979 487.116974
   vertex 69.132713 -32.052979 487.169189
  endloop
 facet normal 0.999848 -0.000005 0.017453
  outer loop
   vertex 69.132713 -32.052979 487.169189
   vertex 69.103653 -32.901188 488.833771
   vertex 69.127060 -33.260578 487.492706
  endloop
 facet normal 0.999848 0.000002 0.017456
  outer loop
   vertex 69.109299 -31.693588 488.510254
   vertex 69.103653 -32.901188 488.833771
   vertex 69.132713 -32.052979 487.169189
  endloop
 facet normal -0.016860 0.258812 0.965781
  outer loop
   vertex 66.118355 -31.693588 488.458038
   vertex 69.103653 -32.901188 488.833771
   vertex 69.109299 -31.693588 488.510254
  endloop
 facet normal 0.004518 0.965926 -0.258779
  outer loop
   vertex 69.109299 -31.693588 488.510254
   vertex 66.141769 -32.052979 487.116974
   vertex 66.118355 -31.693588 488.458038
  endloop
 facet normal -0.999848 -0.000003 -0.017456
  outer loop
   vertex 66.118355 -31.693588 488.458038
   vertex 66.141769 -32.052979 487.116974
   vertex 66.112709 -32.901188 488.781586
  endloop
 facet normal -0.999848 0.000005 -0.017453
  outer loop
   vertex 66.112709 -32.901188 488.781586
   vertex 66.141769 -32.052979 487.116974
   vertex 66.136116 -33.260578 487.440521
  endloop
 facet normal -0.004515 -0.965926 0.258779
  outer loop
   vertex 66.136116 -33.260578 487.440521
   vertex 69.103653 -32.901188 488.833771
   vertex 66.112709 -32.901188 488.781586
  endloop
 facet normal -0.004515 -0.965926 0.258779
  outer loop
   vertex 69.127060 -33.260578 487.492706
   vertex 69.103653 -32.901188 488.833771
   vertex 66.136116 -33.260578 487.440521
  endloop
 facet normal -0.999848 0.000002 -0.017455
  outer loop
   vertex 43.942585 -32.901188 488.394562
   vertex 43.948235 -31.693586 488.071045
   vertex 43.965996 -33.260578 487.053497
  endloop
 facet normal -0.999848 -0.000001 -0.017451
  outer loop
   vertex 43.965996 -33.260578 487.053497
   vertex 43.948235 -31.693586 488.071045
   vertex 43.971642 -32.052979 486.729980
  endloop
 facet normal 0.016860 -0.258812 -0.965781
  outer loop
   vertex 43.971642 -32.052979 486.729980
   vertex 46.956940 -33.260578 487.105713
   vertex 43.965996 -33.260578 487.053497
  endloop
 facet normal 0.016860 -0.258812 -0.965781
  outer loop
   vertex 46.962585 -32.052979 486.782196
   vertex 46.956940 -33.260578 487.105713
   vertex 43.971642 -32.052979 486.729980
  endloop
 facet normal 0.999848 0.000001 0.017451
  outer loop
   vertex 46.939178 -31.693586 488.123260
   vertex 46.956940 -33.260578 487.105713
   vertex 46.962585 -32.052979 486.782196
  endloop
 facet normal 0.004518 0.965926 -0.258780
  outer loop
   vertex 46.962585 -32.052979 486.782196
   vertex 43.948235 -31.693586 488.071045
   vertex 46.939178 -31.693586 488.123260
  endloop
 facet normal -0.016860 0.258812 0.965781
  outer loop
   vertex 46.939178 -31.693586 488.123260
   vertex 43.948235 -31.693586 488.071045
   vertex 46.933529 -32.901188 488.446777
  endloop
 facet normal -0.016860 0.258812 0.965781
  outer loop
   vertex 46.933529 -32.901188 488.446777
   vertex 43.948235 -31.693586 488.071045
   vertex 43.942585 -32.901188 488.394562
  endloop
 facet normal -0.004518 -0.965926 0.258779
  outer loop
   vertex 43.942585 -32.901188 488.394562
   vertex 46.956940 -33.260578 487.105713
   vertex 46.933529 -32.901188 488.446777
  endloop
 facet normal -0.004518 -0.965926 0.258779
  outer loop
   vertex 43.965996 -33.260578 487.053497
   vertex 46.956940 -33.260578 487.105713
   vertex 43.942585 -32.901188 488.394562
  endloop
 facet normal 0.004518 0.965926 -0.258780
  outer loop
   vertex 46.962585 -32.052979 486.782196
   vertex 43.971642 -32.052979 486.729980
   vertex 43.948235 -31.693586 488.071045
  endloop
 facet normal 0.004518 0.965926 -0.258779
  outer loop
   vertex 69.132713 -32.052979 487.169189
   vertex 66.141769 -32.052979 487.116974
   vertex 69.109299 -31.693588 488.510254
  endloop
 facet normal 0.999848 -0.000002 0.017455
  outer loop
   vertex 46.939178 -31.693586 488.123260
   vertex 46.933529 -32.901188 488.446777
   vertex 46.956940 -33.260578 487.105713
  endloop
 facet normal -0.016851 0.258835 0.965775
  outer loop
   vertex 66.118355 -31.693588 488.458038
   vertex 66.112709 -32.901188 488.781586
   vertex 69.103653 -32.901188 488.833771
  endloop
 facet normal 0.016860 -0.258705 -0.965809
  outer loop
   vertex 66.399506 -34.131908 484.810608
   vertex 46.785992 -34.026031 484.439850
   vertex 66.400002 -34.026035 484.782257
  endloop
 facet normal 0.013648 0.623420 -0.781768
  outer loop
   vertex 66.400002 -34.026035 484.782257
   vertex 46.785992 -34.026031 484.439850
   vertex 66.398422 -33.912457 484.872803
  endloop
 facet normal 0.013877 0.606968 -0.794605
  outer loop
   vertex 47.540962 -32.647694 484.022400
   vertex 46.381313 -32.564289 484.065857
   vertex 47.539852 -32.564289 484.086090
  endloop
 facet normal 0.004519 0.965927 -0.258774
  outer loop
   vertex 47.539852 -32.564289 484.086090
   vertex 46.381313 -32.564289 484.065857
   vertex 46.367123 -32.346462 484.878693
  endloop
 facet normal -0.004519 -0.965925 0.258783
  outer loop
   vertex 66.795792 -33.952820 485.665771
   vertex 65.651443 -34.170647 484.832733
   vertex 66.809982 -34.170647 484.852966
  endloop
 facet normal 0.006718 -0.923020 -0.384693
  outer loop
   vertex 66.809982 -34.170647 484.852966
   vertex 65.651443 -34.170647 484.832733
   vertex 65.653130 -34.130264 484.735870
  endloop
 facet normal 0.006376 -0.930887 -0.365253
  outer loop
   vertex 46.789734 -32.774372 484.225525
   vertex 46.792095 -32.721298 484.090302
   vertex 66.406105 -32.721298 484.432709
  endloop
 facet normal 0.016859 -0.258964 -0.965740
  outer loop
   vertex 66.406105 -32.721298 484.432709
   vertex 46.792095 -32.721298 484.090302
   vertex 66.406601 -32.615425 484.404327
  endloop
 facet normal 0.014117 -0.588130 -0.808643
  outer loop
   vertex 46.772690 -33.900570 485.201965
   vertex 66.386703 -33.900570 485.544373
   vertex 46.772320 -33.929615 485.223083
  endloop
 facet normal 0.014117 -0.588131 -0.808643
  outer loop
   vertex 46.772320 -33.929615 485.223083
   vertex 66.386703 -33.900570 485.544373
   vertex 66.386330 -33.929615 485.565491
  endloop
 facet normal -0.004518 -0.965921 0.258797
  outer loop
   vertex 66.386330 -33.929615 485.565491
   vertex 46.771130 -33.911335 485.291290
   vertex 46.772320 -33.929615 485.223083
  endloop
 facet normal -0.999848 0.000007 -0.017447
  outer loop
   vertex 46.373798 -34.170647 484.496216
   vertex 46.374611 -33.936966 484.449738
   vertex 46.375488 -34.130264 484.399384
  endloop
 facet normal -0.999847 0.000013 -0.017473
  outer loop
   vertex 46.375488 -34.130264 484.399384
   vertex 46.374611 -33.936966 484.449738
   vertex 46.376209 -33.976715 484.358246
  endloop
 facet normal 0.016841 -0.258823 -0.965778
  outer loop
   vertex 46.376209 -33.976715 484.358246
   vertex 47.534027 -34.130264 484.419586
   vertex 46.375488 -34.130264 484.399384
  endloop
 facet normal 0.999847 0.000012 0.017471
  outer loop
   vertex 66.817490 -32.564289 484.422607
   vertex 66.816154 -32.789906 484.499176
   vertex 66.818604 -32.647694 484.358917
  endloop
 facet normal 0.999847 0.000010 0.017468
  outer loop
   vertex 66.818604 -32.647694 484.358917
   vertex 66.816154 -32.789906 484.499176
   vertex 66.817886 -32.801243 484.400055
  endloop
 facet normal 0.016867 -0.258822 -0.965778
  outer loop
   vertex 66.817886 -32.801243 484.400055
   vertex 65.660065 -32.647694 484.338684
   vertex 66.818604 -32.647694 484.358917
  endloop
 facet normal 0.999847 0.000010 0.017468
  outer loop
   vertex 47.540245 -32.801243 484.063538
   vertex 47.540962 -32.647694 484.022400
   vertex 47.538513 -32.789902 484.162659
  endloop
 facet normal 0.999848 -0.000014 0.017444
  outer loop
   vertex 47.538513 -32.789902 484.162659
   vertex 47.540962 -32.647694 484.022400
   vertex 47.539852 -32.564289 484.086090
  endloop
 facet normal 0.999848 -0.000009 0.017458
  outer loop
   vertex 47.539852 -32.564289 484.086090
   vertex 47.525661 -32.346462 484.898926
   vertex 47.538513 -32.789902 484.162659
  endloop
 facet normal 0.004519 0.965927 -0.258774
  outer loop
   vertex 46.367123 -32.346462 484.878693
   vertex 47.525661 -32.346462 484.898926
   vertex 47.539852 -32.564289 484.086090
  endloop
 facet normal 0.006377 -0.930858 -0.365324
  outer loop
   vertex 66.406105 -32.721298 484.432709
   vertex 66.403748 -32.774372 484.567902
   vertex 46.789734 -32.774372 484.225525
  endloop
 facet normal 0.016858 -0.258818 -0.965779
  outer loop
   vertex 46.789734 -32.774372 484.225525
   vertex 66.403748 -32.774372 484.567902
   vertex 66.398422 -33.912457 484.872803
  endloop
 facet normal 0.016858 -0.258819 -0.965779
  outer loop
   vertex 66.398422 -33.912457 484.872803
   vertex 46.784412 -33.912453 484.530426
   vertex 46.789734 -32.774372 484.225525
  endloop
 facet normal 0.013645 0.623548 -0.781666
  outer loop
   vertex 46.785992 -34.026031 484.439850
   vertex 46.784412 -33.912453 484.530426
   vertex 66.398422 -33.912457 484.872803
  endloop
 facet normal -0.004513 -0.965927 0.258774
  outer loop
   vertex 66.795792 -33.952820 485.665771
   vertex 65.637253 -33.952820 485.645569
   vertex 65.651443 -34.170647 484.832733
  endloop
 facet normal -0.999848 -0.000011 -0.017453
  outer loop
   vertex 65.651443 -34.170647 484.832733
   vertex 65.637253 -33.952820 485.645569
   vertex 65.652252 -33.936966 484.786255
  endloop
 facet normal -0.999849 -0.000002 -0.017405
  outer loop
   vertex 65.652252 -33.936966 484.786255
   vertex 65.653130 -34.130264 484.735870
   vertex 65.651443 -34.170647 484.832733
  endloop
 facet normal -0.999848 0.000003 -0.017421
  outer loop
   vertex 65.653847 -33.976715 484.694733
   vertex 65.653130 -34.130264 484.735870
   vertex 65.652252 -33.936966 484.786255
  endloop
 facet normal -0.017357 -0.105399 0.994279
  outer loop
   vertex 66.397041 -34.059364 484.951843
   vertex 46.783031 -34.059364 484.609436
   vertex 66.397110 -34.095074 484.948059
  endloop
 facet normal -0.017357 -0.104558 0.994367
  outer loop
   vertex 66.397110 -34.095074 484.948059
   vertex 46.783031 -34.059364 484.609436
   vertex 46.783100 -34.095074 484.605682
  endloop
 facet normal -0.004517 -0.965927 0.258774
  outer loop
   vertex 46.783100 -34.095074 484.605682
   vertex 66.399506 -34.131908 484.810608
   vertex 66.397110 -34.095074 484.948059
  endloop
 facet normal -0.004517 -0.965927 0.258774
  outer loop
   vertex 46.785496 -34.131908 484.468231
   vertex 66.399506 -34.131908 484.810608
   vertex 46.783100 -34.095074 484.605682
  endloop
 facet normal 0.016858 -0.258956 -0.965742
  outer loop
   vertex 46.785992 -34.026031 484.439850
   vertex 66.399506 -34.131908 484.810608
   vertex 46.785496 -34.131908 484.468231
  endloop
 facet normal 0.016848 -0.258811 -0.965781
  outer loop
   vertex 68.192802 -33.597454 485.957611
   vertex 66.549927 -32.520508 485.640350
   vertex 68.197838 -32.520508 485.669098
  endloop
 facet normal 0.004514 0.965926 -0.258778
  outer loop
   vertex 68.197838 -32.520508 485.669098
   vertex 66.549927 -32.520508 485.640350
   vertex 68.171852 -32.121658 487.157410
  endloop
 facet normal 0.999848 0.000002 0.017457
  outer loop
   vertex 68.171852 -32.121658 487.157410
   vertex 68.166817 -33.198605 487.445953
   vertex 68.197838 -32.520508 485.669098
  endloop
 facet normal -0.016848 0.258836 0.965774
  outer loop
   vertex 66.523949 -32.121658 487.128662
   vertex 68.166817 -33.198605 487.445953
   vertex 68.171852 -32.121658 487.157410
  endloop
 facet normal -0.016866 0.258811 0.965781
  outer loop
   vertex 66.518906 -33.198605 487.417175
   vertex 68.166817 -33.198605 487.445953
   vertex 66.523949 -32.121658 487.128662
  endloop
 facet normal -0.999848 0.000006 -0.017454
  outer loop
   vertex 66.523949 -32.121658 487.128662
   vertex 66.549927 -32.520508 485.640350
   vertex 66.518906 -33.198605 487.417175
  endloop
 facet normal -0.999848 -0.000002 -0.017457
  outer loop
   vertex 66.518906 -33.198605 487.417175
   vertex 66.549927 -32.520508 485.640350
   vertex 66.544891 -33.597454 485.928864
  endloop
 facet normal 0.016848 -0.258811 -0.965781
  outer loop
   vertex 66.544891 -33.597454 485.928864
   vertex 66.549927 -32.520508 485.640350
   vertex 68.192802 -33.597454 485.957611
  endloop
 facet normal -0.004514 -0.965928 0.258773
  outer loop
   vertex 68.192802 -33.597454 485.957611
   vertex 68.166817 -33.198605 487.445953
   vertex 66.544891 -33.597454 485.928864
  endloop
 facet normal 0.999848 0.000002 0.017456
  outer loop
   vertex 68.197838 -32.520508 485.669098
   vertex 68.166817 -33.198605 487.445953
   vertex 68.192802 -33.597454 485.957611
  endloop
 facet normal -0.004519 -0.965926 0.258780
  outer loop
   vertex 44.953266 -33.597454 485.551941
   vertex 46.601177 -33.597454 485.580719
   vertex 44.927288 -33.198601 487.040253
  endloop
 facet normal -0.004519 -0.965926 0.258780
  outer loop
   vertex 44.927288 -33.198601 487.040253
   vertex 46.601177 -33.597454 485.580719
   vertex 46.575199 -33.198601 487.069031
  endloop
 facet normal -0.016866 0.258811 0.965781
  outer loop
   vertex 46.575199 -33.198601 487.069031
   vertex 44.932323 -32.121655 486.751740
   vertex 44.927288 -33.198601 487.040253
  endloop
 facet normal -0.016865 0.258812 0.965781
  outer loop
   vertex 46.580235 -32.121658 486.780518
   vertex 44.932323 -32.121655 486.751740
   vertex 46.575199 -33.198601 487.069031
  endloop
 facet normal 0.004521 0.965926 -0.258778
  outer loop
   vertex 46.606213 -32.520508 485.292206
   vertex 44.932323 -32.121655 486.751740
   vertex 46.580235 -32.121658 486.780518
  endloop
 facet normal 0.999848 0.000000 0.017452
  outer loop
   vertex 46.580235 -32.121658 486.780518
   vertex 46.601177 -33.597454 485.580719
   vertex 46.606213 -32.520508 485.292206
  endloop
 facet normal 0.016866 -0.258811 -0.965781
  outer loop
   vertex 46.606213 -32.520508 485.292206
   vertex 46.601177 -33.597454 485.580719
   vertex 44.958305 -32.520508 485.263428
  endloop
 facet normal 0.016866 -0.258811 -0.965781
  outer loop
   vertex 44.958305 -32.520508 485.263428
   vertex 46.601177 -33.597454 485.580719
   vertex 44.953266 -33.597454 485.551941
  endloop
 facet normal -0.999848 0.000002 -0.017455
  outer loop
   vertex 44.953266 -33.597454 485.551941
   vertex 44.932323 -32.121655 486.751740
   vertex 44.958305 -32.520508 485.263428
  endloop
 facet normal -0.999848 -0.000000 -0.017452
  outer loop
   vertex 44.927288 -33.198601 487.040253
   vertex 44.932323 -32.121655 486.751740
   vertex 44.953266 -33.597454 485.551941
  endloop
 facet normal -0.016844 0.258828 0.965777
  outer loop
   vertex 69.625389 -32.658329 486.367737
   vertex 69.275444 -32.658329 486.361633
   vertex 69.273178 -33.141293 486.491028
  endloop
 facet normal 0.016844 -0.258828 -0.965777
  outer loop
   vertex 69.273178 -33.141293 486.491028
   vertex 69.275444 -32.658329 486.361633
   vertex 69.449287 -32.899811 486.429382
  endloop
 facet normal 0.016844 -0.258828 -0.965777
  outer loop
   vertex 69.449287 -32.899811 486.429382
   vertex 69.623131 -33.141293 486.497131
   vertex 69.273178 -33.141293 486.491028
  endloop
 facet normal 0.016844 -0.258828 -0.965777
  outer loop
   vertex 69.625389 -32.658329 486.367737
   vertex 69.623131 -33.141293 486.497131
   vertex 69.449287 -32.899811 486.429382
  endloop
 facet normal 0.999848 0.000001 0.017455
  outer loop
   vertex 69.606270 -32.882473 487.462921
   vertex 69.623131 -33.141293 486.497131
   vertex 69.625389 -32.658329 486.367737
  endloop
 facet normal 0.999848 0.000001 0.017455
  outer loop
   vertex 69.625389 -32.658329 486.367737
   vertex 69.608528 -32.399509 487.333527
   vertex 69.606270 -32.882473 487.462921
  endloop
 facet normal -0.016872 0.258828 0.965776
  outer loop
   vertex 69.606270 -32.882473 487.462921
   vertex 69.608528 -32.399509 487.333527
   vertex 67.906525 -32.882473 487.433228
  endloop
 facet normal -0.016855 0.258771 0.965792
  outer loop
   vertex 67.906525 -32.882473 487.433228
   vertex 69.608528 -32.399509 487.333527
   vertex 67.908783 -32.399509 487.303864
  endloop
 facet normal -0.999848 -0.000000 -0.017455
  outer loop
   vertex 67.908783 -32.399509 487.303864
   vertex 67.925644 -32.658329 486.338074
   vertex 67.906525 -32.882473 487.433228
  endloop
 facet normal 0.004513 0.965926 -0.258777
  outer loop
   vertex 68.338356 -32.593624 486.586792
   vertex 67.925644 -32.658329 486.338074
   vertex 67.908783 -32.399509 487.303864
  endloop
 facet normal 0.004513 0.965926 -0.258778
  outer loop
   vertex 68.275589 -32.658329 486.344177
   vertex 67.925644 -32.658329 486.338074
   vertex 68.338356 -32.593624 486.586792
  endloop
 facet normal -0.004520 -0.965925 0.258781
  outer loop
   vertex 44.783581 -33.076584 486.305054
   vertex 45.204720 -33.141289 486.070892
   vertex 45.187862 -32.882473 487.036652
  endloop
 facet normal 0.999848 -0.000001 0.017452
  outer loop
   vertex 45.187862 -32.882473 487.036652
   vertex 45.204720 -33.141289 486.070892
   vertex 45.190121 -32.399509 486.907288
  endloop
 facet normal -0.016855 0.258771 0.965792
  outer loop
   vertex 45.190121 -32.399509 486.907288
   vertex 43.488121 -32.882473 487.006989
   vertex 45.187862 -32.882473 487.036652
  endloop
 facet normal -0.016872 0.258828 0.965776
  outer loop
   vertex 43.490379 -32.399509 486.877594
   vertex 43.488121 -32.882473 487.006989
   vertex 45.190121 -32.399509 486.907288
  endloop
 facet normal -0.999848 -0.000000 -0.017452
  outer loop
   vertex 43.504978 -33.141289 486.041199
   vertex 43.488121 -32.882473 487.006989
   vertex 43.490379 -32.399509 486.877594
  endloop
 facet normal -0.999848 0.000001 -0.017452
  outer loop
   vertex 43.490379 -32.399509 486.877594
   vertex 43.507236 -32.658325 485.911835
   vertex 43.504978 -33.141289 486.041199
  endloop
 facet normal 0.016929 -0.258771 -0.965790
  outer loop
   vertex 43.504978 -33.141289 486.041199
   vertex 43.507236 -32.658325 485.911835
   vertex 43.681084 -32.899807 485.979584
  endloop
 facet normal 0.016844 -0.258827 -0.965777
  outer loop
   vertex 43.681084 -32.899807 485.979584
   vertex 43.507236 -32.658325 485.911835
   vertex 43.857185 -32.658325 485.917938
  endloop
 facet normal 0.016844 -0.258828 -0.965777
  outer loop
   vertex 43.857185 -32.658325 485.917938
   vertex 43.854927 -33.141289 486.047333
   vertex 43.681084 -32.899807 485.979584
  endloop
 facet normal -0.016928 0.258828 0.965775
  outer loop
   vertex 43.504978 -33.141289 486.041199
   vertex 43.854927 -33.141289 486.047333
   vertex 43.857185 -32.658325 485.917938
  endloop
 facet normal 0.016929 -0.258771 -0.965790
  outer loop
   vertex 43.681084 -32.899807 485.979584
   vertex 43.854927 -33.141289 486.047333
   vertex 43.504978 -33.141289 486.041199
  endloop
 facet normal 0.016859 -0.258696 -0.965812
  outer loop
   vertex 46.792095 -32.721298 484.090302
   vertex 46.792591 -32.615421 484.061951
   vertex 66.406601 -32.615425 484.404327
  endloop
 facet normal 0.004517 0.965927 -0.258774
  outer loop
   vertex 66.406601 -32.615425 484.404327
   vertex 46.792591 -32.615421 484.061951
   vertex 46.790192 -32.578587 484.199402
  endloop
 facet normal 0.004517 0.965927 -0.258774
  outer loop
   vertex 46.790192 -32.578587 484.199402
   vertex 66.404205 -32.578590 484.541779
   vertex 66.406601 -32.615425 484.404327
  endloop
 facet normal -0.014115 0.588130 0.808643
  outer loop
   vertex 46.789822 -32.607632 484.220520
   vertex 66.404205 -32.578590 484.541779
   vertex 46.790192 -32.578587 484.199402
  endloop
 facet normal -0.014115 0.588181 0.808606
  outer loop
   vertex 66.403831 -32.607632 484.562897
   vertex 66.404205 -32.578590 484.541779
   vertex 46.789822 -32.607632 484.220520
  endloop
 facet normal 0.004517 0.965925 -0.258783
  outer loop
   vertex 46.789822 -32.607632 484.220520
   vertex 46.779480 -32.448837 484.813049
   vertex 66.403831 -32.607632 484.562897
  endloop
 facet normal 0.004517 0.965926 -0.258778
  outer loop
   vertex 66.403831 -32.607632 484.562897
   vertex 46.779480 -32.448837 484.813049
   vertex 66.393486 -32.448841 485.155426
  endloop
 facet normal 0.017357 0.104558 -0.994367
  outer loop
   vertex 66.393486 -32.448841 485.155426
   vertex 46.779480 -32.448837 484.813049
   vertex 46.779411 -32.413128 484.816803
  endloop
 facet normal 0.017357 0.105384 -0.994280
  outer loop
   vertex 46.779411 -32.413128 484.816803
   vertex 66.393425 -32.413128 485.159210
   vertex 66.393486 -32.448841 485.155426
  endloop
 facet normal 0.004517 0.965935 -0.258746
  outer loop
   vertex 46.778221 -32.394852 484.885010
   vertex 66.393425 -32.413128 485.159210
   vertex 46.779411 -32.413128 484.816803
  endloop
 facet normal 0.004518 0.965906 -0.258854
  outer loop
   vertex 66.392235 -32.394852 485.227386
   vertex 66.393425 -32.413128 485.159210
   vertex 46.778221 -32.394852 484.885010
  endloop
 facet normal -0.016858 0.258820 0.965778
  outer loop
   vertex 46.778221 -32.394852 484.885010
   vertex 46.771130 -33.911335 485.291290
   vertex 66.392235 -32.394852 485.227386
  endloop
 facet normal -0.016858 0.258820 0.965779
  outer loop
   vertex 66.392235 -32.394852 485.227386
   vertex 46.771130 -33.911335 485.291290
   vertex 66.385139 -33.911339 485.633667
  endloop
 facet normal -0.004519 -0.965906 0.258854
  outer loop
   vertex 66.385139 -33.911339 485.633667
   vertex 46.771130 -33.911335 485.291290
   vertex 66.386330 -33.929615 485.565491
  endloop
 facet normal -0.004518 -0.965924 0.258785
  outer loop
   vertex 68.336098 -33.076588 486.716187
   vertex 67.906525 -32.882473 487.433228
   vertex 67.923386 -33.141293 486.467468
  endloop
 facet normal -0.999848 -0.000001 -0.017456
  outer loop
   vertex 67.923386 -33.141293 486.467468
   vertex 67.906525 -32.882473 487.433228
   vertex 67.925644 -32.658329 486.338074
  endloop
 facet normal 0.016844 -0.258828 -0.965777
  outer loop
   vertex 67.925644 -32.658329 486.338074
   vertex 68.273331 -33.141293 486.473572
   vertex 67.923386 -33.141293 486.467468
  endloop
 facet normal 0.016844 -0.258828 -0.965777
  outer loop
   vertex 68.275589 -32.658329 486.344177
   vertex 68.273331 -33.141293 486.473572
   vertex 67.925644 -32.658329 486.338074
  endloop
 facet normal -0.016844 0.258828 0.965777
  outer loop
   vertex 67.925644 -32.658329 486.338074
   vertex 68.273331 -33.141293 486.473572
   vertex 68.275589 -32.658329 486.344177
  endloop
 facet normal 0.004514 0.965923 -0.258792
  outer loop
   vertex 68.275589 -32.658329 486.344177
   vertex 68.346786 -32.723034 486.103912
   vertex 67.925644 -32.658329 486.338074
  endloop
 facet normal 0.004528 0.965929 -0.258768
  outer loop
   vertex 67.925644 -32.658329 486.338074
   vertex 68.346786 -32.723034 486.103912
   vertex 68.046669 -32.768326 485.929596
  endloop
 facet normal 0.004529 0.965928 -0.258771
  outer loop
   vertex 68.046669 -32.768326 485.929596
   vertex 68.346786 -32.723034 486.103912
   vertex 68.532852 -32.770401 485.930359
  endloop
 facet normal 0.004529 0.965929 -0.258769
  outer loop
   vertex 68.532852 -32.770401 485.930359
   vertex 68.362991 -32.848850 485.634552
   vertex 68.046669 -32.768326 485.929596
  endloop
 facet normal 0.004520 0.965930 -0.258764
  outer loop
   vertex 68.783943 -32.787739 485.870026
   vertex 68.362991 -32.848850 485.634552
   vertex 68.532852 -32.770401 485.930359
  endloop
 facet normal 0.004516 0.965932 -0.258757
  outer loop
   vertex 68.789848 -32.878323 485.531982
   vertex 68.362991 -32.848850 485.634552
   vertex 68.783943 -32.787739 485.870026
  endloop
 facet normal 0.004513 0.965932 -0.258757
  outer loop
   vertex 68.783943 -32.787739 485.870026
   vertex 69.032776 -32.770401 485.939087
   vertex 68.789848 -32.878323 485.531982
  endloop
 facet normal 0.004516 0.965931 -0.258759
  outer loop
   vertex 68.789848 -32.878323 485.531982
   vertex 69.032776 -32.770401 485.939087
   vertex 69.212860 -32.848850 485.649384
  endloop
 facet normal 0.004492 0.965928 -0.258773
  outer loop
   vertex 69.212860 -32.848850 485.649384
   vertex 69.032776 -32.770401 485.939087
   vertex 69.212677 -32.723034 486.119019
  endloop
 facet normal 0.004512 0.965928 -0.258773
  outer loop
   vertex 69.212677 -32.723034 486.119019
   vertex 69.518692 -32.768326 485.955292
   vertex 69.212860 -32.848850 485.649384
  endloop
 facet normal 0.004509 0.965926 -0.258777
  outer loop
   vertex 69.275444 -32.658329 486.361633
   vertex 69.518692 -32.768326 485.955292
   vertex 69.212677 -32.723034 486.119019
  endloop
 facet normal 0.004513 0.965927 -0.258775
  outer loop
   vertex 69.625389 -32.658329 486.367737
   vertex 69.518692 -32.768326 485.955292
   vertex 69.275444 -32.658329 486.361633
  endloop
 facet normal 0.004514 0.965923 -0.258792
  outer loop
   vertex 69.275444 -32.658329 486.361633
   vertex 69.204247 -32.593624 486.601898
   vertex 69.625389 -32.658329 486.367737
  endloop
 facet normal 0.004522 0.965926 -0.258777
  outer loop
   vertex 69.625389 -32.658329 486.367737
   vertex 69.204247 -32.593624 486.601898
   vertex 69.608528 -32.399509 487.333527
  endloop
 facet normal 0.004494 0.965930 -0.258763
  outer loop
   vertex 69.608528 -32.399509 487.333527
   vertex 69.204247 -32.593624 486.601898
   vertex 69.018181 -32.546257 486.775482
  endloop
 facet normal 0.004540 0.965918 -0.258808
  outer loop
   vertex 69.018181 -32.546257 486.775482
   vertex 68.767090 -32.528919 486.835785
   vertex 69.608528 -32.399509 487.333527
  endloop
 facet normal 0.004516 0.965927 -0.258774
  outer loop
   vertex 44.785843 -32.593624 486.175659
   vertex 45.190121 -32.399509 486.907288
   vertex 45.206982 -32.658325 485.941498
  endloop
 facet normal 0.999848 -0.000006 0.017457
  outer loop
   vertex 45.206982 -32.658325 485.941498
   vertex 45.190121 -32.399509 486.907288
   vertex 45.204720 -33.141289 486.070892
  endloop
 facet normal 0.016844 -0.258828 -0.965777
  outer loop
   vertex 45.204720 -33.141289 486.070892
   vertex 44.857033 -32.658325 485.935394
   vertex 45.206982 -32.658325 485.941498
  endloop
 facet normal 0.016844 -0.258828 -0.965777
  outer loop
   vertex 44.854774 -33.141289 486.064789
   vertex 44.857033 -32.658325 485.935394
   vertex 45.204720 -33.141289 486.070892
  endloop
 facet normal -0.016844 0.258828 0.965777
  outer loop
   vertex 45.204720 -33.141289 486.070892
   vertex 44.857033 -32.658325 485.935394
   vertex 44.854774 -33.141289 486.064789
  endloop
 facet normal -0.004513 -0.965926 0.258778
  outer loop
   vertex 44.854774 -33.141289 486.064789
   vertex 44.792011 -33.205994 485.822174
   vertex 45.204720 -33.141289 486.070892
  endloop
 facet normal -0.004517 -0.965925 0.258784
  outer loop
   vertex 45.204720 -33.141289 486.070892
   vertex 44.792011 -33.205994 485.822174
   vertex 45.098022 -33.251289 485.658447
  endloop
 facet normal -0.004528 -0.965930 0.258765
  outer loop
   vertex 45.098022 -33.251289 485.658447
   vertex 44.792011 -33.205994 485.822174
   vertex 44.612114 -33.253361 485.642212
  endloop
 facet normal -0.004529 -0.965926 0.258777
  outer loop
   vertex 44.612114 -33.253361 485.642212
   vertex 44.792194 -33.331810 485.352539
   vertex 45.098022 -33.251289 485.658447
  endloop
 facet normal -0.004520 -0.965925 0.258782
  outer loop
   vertex 44.363281 -33.270699 485.573151
   vertex 44.792194 -33.331810 485.352539
   vertex 44.612114 -33.253361 485.642212
  endloop
 facet normal -0.004516 -0.965923 0.258789
  outer loop
   vertex 44.369179 -33.361286 485.235138
   vertex 44.792194 -33.331810 485.352539
   vertex 44.363281 -33.270699 485.573151
  endloop
 facet normal -0.004514 -0.965923 0.258789
  outer loop
   vertex 44.363281 -33.270699 485.573151
   vertex 44.112190 -33.253361 485.633484
   vertex 44.369179 -33.361286 485.235138
  endloop
 facet normal -0.004517 -0.965924 0.258788
  outer loop
   vertex 44.369179 -33.361286 485.235138
   vertex 44.112190 -33.253361 485.633484
   vertex 43.942326 -33.331810 485.337708
  endloop
 facet normal -0.004514 -0.965924 0.258786
  outer loop
   vertex 43.942326 -33.331810 485.337708
   vertex 44.112190 -33.253361 485.633484
   vertex 43.926117 -33.205994 485.807037
  endloop
 facet normal -0.004500 -0.965924 0.258786
  outer loop
   vertex 43.926117 -33.205994 485.807037
   vertex 43.626007 -33.251289 485.632751
   vertex 43.942326 -33.331810 485.337708
  endloop
 facet normal -0.004489 -0.965929 0.258768
  outer loop
   vertex 43.854927 -33.141289 486.047333
   vertex 43.626007 -33.251289 485.632751
   vertex 43.926117 -33.205994 485.807037
  endloop
 facet normal -0.004536 -0.965922 0.258792
  outer loop
   vertex 43.504978 -33.141289 486.041199
   vertex 43.626007 -33.251289 485.632751
   vertex 43.854927 -33.141289 486.047333
  endloop
 facet normal -0.004536 -0.965925 0.258784
  outer loop
   vertex 43.854927 -33.141289 486.047333
   vertex 43.917690 -33.076584 486.289948
   vertex 43.504978 -33.141289 486.041199
  endloop
 facet normal -0.004530 -0.965927 0.258774
  outer loop
   vertex 43.504978 -33.141289 486.041199
   vertex 43.917690 -33.076584 486.289948
   vertex 43.488121 -32.882473 487.006989
  endloop
 facet normal -0.004507 -0.965924 0.258786
  outer loop
   vertex 43.488121 -32.882473 487.006989
   vertex 43.917690 -33.076584 486.289948
   vertex 44.097588 -33.029217 486.469879
  endloop
 facet normal -0.004518 -0.965927 0.258774
  outer loop
   vertex 44.097588 -33.029217 486.469879
   vertex 44.346420 -33.011879 486.538940
   vertex 43.488121 -32.882473 487.006989
  endloop
 facet normal -0.003658 0.977816 0.209433
  outer loop
   vertex 46.367123 -32.346462 484.878693
   vertex 46.357704 -32.462048 485.418182
   vertex 47.525661 -32.346462 484.898926
  endloop
 facet normal -0.003652 0.977814 0.209444
  outer loop
   vertex 47.525661 -32.346462 484.898926
   vertex 46.357704 -32.462048 485.418182
   vertex 47.516243 -32.462048 485.438385
  endloop
 facet normal 0.999848 0.000001 0.017457
  outer loop
   vertex 47.516243 -32.462048 485.438385
   vertex 47.511002 -33.582935 485.738678
   vertex 47.525661 -32.346462 484.898926
  endloop
 facet normal -0.016841 0.258817 0.965779
  outer loop
   vertex 46.357704 -32.462048 485.418182
   vertex 47.511002 -33.582935 485.738678
   vertex 47.516243 -32.462048 485.438385
  endloop
 facet normal -0.016841 0.258817 0.965779
  outer loop
   vertex 46.352463 -33.582935 485.718475
   vertex 47.511002 -33.582935 485.738678
   vertex 46.357704 -32.462048 485.418182
  endloop
 facet normal -0.999848 -0.000001 -0.017457
  outer loop
   vertex 46.357704 -32.462048 485.418182
   vertex 46.359612 -33.952816 485.309052
   vertex 46.352463 -33.582935 485.718475
  endloop
 facet normal -0.011687 -0.742083 0.670206
  outer loop
   vertex 46.352463 -33.582935 485.718475
   vertex 46.359612 -33.952816 485.309052
   vertex 47.511002 -33.582935 485.738678
  endloop
 facet normal -0.011705 -0.742058 0.670234
  outer loop
   vertex 47.511002 -33.582935 485.738678
   vertex 46.359612 -33.952816 485.309052
   vertex 47.518150 -33.952816 485.329285
  endloop
 facet normal 0.999848 0.000002 0.017457
  outer loop
   vertex 47.518150 -33.952816 485.329285
   vertex 47.525661 -32.346462 484.898926
   vertex 47.511002 -33.582935 485.738678
  endloop
 facet normal 0.999848 0.000001 0.017452
  outer loop
   vertex 47.533150 -33.936966 484.469971
   vertex 47.525661 -32.346462 484.898926
   vertex 47.518150 -33.952816 485.329285
  endloop
 facet normal 0.999848 0.000001 0.017452
  outer loop
   vertex 47.538513 -32.789902 484.162659
   vertex 47.525661 -32.346462 484.898926
   vertex 47.533150 -33.936966 484.469971
  endloop
 facet normal 0.016867 -0.258822 -0.965778
  outer loop
   vertex 47.533150 -33.936966 484.469971
   vertex 46.379974 -32.789902 484.142426
   vertex 47.538513 -32.789902 484.162659
  endloop
 facet normal -0.001985 -0.993520 0.113640
  outer loop
   vertex 47.538513 -32.789902 484.162659
   vertex 46.379974 -32.789902 484.142426
   vertex 47.540245 -32.801243 484.063538
  endloop
 facet normal -0.001985 -0.993520 0.113640
  outer loop
   vertex 47.540245 -32.801243 484.063538
   vertex 46.379974 -32.789902 484.142426
   vertex 46.381706 -32.801243 484.043304
  endloop
 facet normal 0.016867 -0.258822 -0.965778
  outer loop
   vertex 46.381706 -32.801243 484.043304
   vertex 47.540962 -32.647694 484.022400
   vertex 47.540245 -32.801243 484.063538
  endloop
 facet normal 0.016867 -0.258822 -0.965778
  outer loop
   vertex 46.382423 -32.647694 484.002167
   vertex 47.540962 -32.647694 484.022400
   vertex 46.381706 -32.801243 484.043304
  endloop
 facet normal 0.013877 0.606968 -0.794605
  outer loop
   vertex 46.381313 -32.564289 484.065857
   vertex 47.540962 -32.647694 484.022400
   vertex 46.382423 -32.647694 484.002167
  endloop
 facet normal -0.999848 0.000014 -0.017444
  outer loop
   vertex 46.382423 -32.647694 484.002167
   vertex 46.379974 -32.789902 484.142426
   vertex 46.381313 -32.564289 484.065857
  endloop
 facet normal -0.999848 0.000009 -0.017458
  outer loop
   vertex 46.381313 -32.564289 484.065857
   vertex 46.379974 -32.789902 484.142426
   vertex 46.367123 -32.346462 484.878693
  endloop
 facet normal -0.999848 -0.000001 -0.017452
  outer loop
   vertex 46.367123 -32.346462 484.878693
   vertex 46.379974 -32.789902 484.142426
   vertex 46.374611 -33.936966 484.449738
  endloop
 facet normal -0.999848 -0.000001 -0.017452
  outer loop
   vertex 46.374611 -33.936966 484.449738
   vertex 46.359612 -33.952816 485.309052
   vertex 46.367123 -32.346462 484.878693
  endloop
 facet normal -0.999848 0.000005 -0.017452
  outer loop
   vertex 46.373798 -34.170647 484.496216
   vertex 46.359612 -33.952816 485.309052
   vertex 46.374611 -33.936966 484.449738
  endloop
 facet normal -0.004519 -0.965926 0.258778
  outer loop
   vertex 47.518150 -33.952816 485.329285
   vertex 46.359612 -33.952816 485.309052
   vertex 46.373798 -34.170647 484.496216
  endloop
 facet normal -0.004519 -0.965926 0.258778
  outer loop
   vertex 46.373798 -34.170647 484.496216
   vertex 47.532337 -34.170647 484.516449
   vertex 47.518150 -33.952816 485.329285
  endloop
 facet normal 0.999848 -0.000005 0.017452
  outer loop
   vertex 47.518150 -33.952816 485.329285
   vertex 47.532337 -34.170647 484.516449
   vertex 47.533150 -33.936966 484.469971
  endloop
 facet normal 0.999848 -0.000008 0.017441
  outer loop
   vertex 47.533150 -33.936966 484.469971
   vertex 47.532337 -34.170647 484.516449
   vertex 47.534027 -34.130264 484.419586
  endloop
 facet normal 0.999847 -0.000015 0.017468
  outer loop
   vertex 47.534027 -34.130264 484.419586
   vertex 47.534748 -33.976715 484.378448
   vertex 47.533150 -33.936966 484.469971
  endloop
 facet normal 0.016841 -0.258823 -0.965778
  outer loop
   vertex 46.376209 -33.976715 484.358246
   vertex 47.534748 -33.976715 484.378448
   vertex 47.534027 -34.130264 484.419586
  endloop
 facet normal 0.006945 0.917250 -0.398251
  outer loop
   vertex 47.533150 -33.936966 484.469971
   vertex 47.534748 -33.976715 484.378448
   vertex 46.376209 -33.976715 484.358246
  endloop
 facet normal 0.006957 0.917202 -0.398363
  outer loop
   vertex 46.376209 -33.976715 484.358246
   vertex 46.374611 -33.936966 484.449738
   vertex 47.533150 -33.936966 484.469971
  endloop
 facet normal 0.016867 -0.258822 -0.965778
  outer loop
   vertex 47.533150 -33.936966 484.469971
   vertex 46.374611 -33.936966 484.449738
   vertex 46.379974 -32.789902 484.142426
  endloop
 facet normal -0.011687 -0.742079 0.670210
  outer loop
   vertex 66.795792 -33.952820 485.665771
   vertex 66.788643 -33.582935 486.075195
   vertex 65.637253 -33.952820 485.645569
  endloop
 facet normal -0.011687 -0.742079 0.670210
  outer loop
   vertex 65.637253 -33.952820 485.645569
   vertex 66.788643 -33.582935 486.075195
   vertex 65.630104 -33.582935 486.054993
  endloop
 facet normal -0.999848 -0.000001 -0.017457
  outer loop
   vertex 65.630104 -33.582935 486.054993
   vertex 65.635345 -32.462051 485.754700
   vertex 65.637253 -33.952820 485.645569
  endloop
 facet normal -0.016841 0.258818 0.965779
  outer loop
   vertex 66.788643 -33.582935 486.075195
   vertex 65.635345 -32.462051 485.754700
   vertex 65.630104 -33.582935 486.054993
  endloop
 facet normal -0.016841 0.258818 0.965779
  outer loop
   vertex 66.793884 -32.462051 485.774902
   vertex 65.635345 -32.462051 485.754700
   vertex 66.788643 -33.582935 486.075195
  endloop
 facet normal 0.999847 0.000003 0.017464
  outer loop
   vertex 66.788643 -33.582935 486.075195
   vertex 66.803307 -32.346462 485.235443
   vertex 66.793884 -32.462051 485.774902
  endloop
 facet normal -0.003652 0.977812 0.209451
  outer loop
   vertex 66.793884 -32.462051 485.774902
   vertex 66.803307 -32.346462 485.235443
   vertex 65.635345 -32.462051 485.754700
  endloop
 facet normal -0.003658 0.977815 0.209439
  outer loop
   vertex 65.635345 -32.462051 485.754700
   vertex 66.803307 -32.346462 485.235443
   vertex 65.644768 -32.346462 485.215210
  endloop
 facet normal -0.999848 -0.000001 -0.017463
  outer loop
   vertex 65.644768 -32.346462 485.215210
   vertex 65.637253 -33.952820 485.645569
   vertex 65.635345 -32.462051 485.754700
  endloop
 facet normal -0.999848 0.000003 -0.017449
  outer loop
   vertex 65.657616 -32.789906 484.478943
   vertex 65.637253 -33.952820 485.645569
   vertex 65.644768 -32.346462 485.215210
  endloop
 facet normal -0.999848 -0.000001 -0.017452
  outer loop
   vertex 65.652252 -33.936966 484.786255
   vertex 65.637253 -33.952820 485.645569
   vertex 65.657616 -32.789906 484.478943
  endloop
 facet normal 0.016867 -0.258823 -0.965778
  outer loop
   vertex 65.657616 -32.789906 484.478943
   vertex 66.810791 -33.936966 484.806488
   vertex 65.652252 -33.936966 484.786255
  endloop
 facet normal 0.006955 0.917250 -0.398251
  outer loop
   vertex 65.652252 -33.936966 484.786255
   vertex 66.810791 -33.936966 484.806488
   vertex 65.653847 -33.976715 484.694733
  endloop
 facet normal 0.006955 0.917250 -0.398251
  outer loop
   vertex 65.653847 -33.976715 484.694733
   vertex 66.810791 -33.936966 484.806488
   vertex 66.812386 -33.976715 484.714966
  endloop
 facet normal 0.016867 -0.258822 -0.965778
  outer loop
   vertex 66.812386 -33.976715 484.714966
   vertex 65.653130 -34.130264 484.735870
   vertex 65.653847 -33.976715 484.694733
  endloop
 facet normal 0.016867 -0.258822 -0.965778
  outer loop
   vertex 66.811668 -34.130264 484.756104
   vertex 65.653130 -34.130264 484.735870
   vertex 66.812386 -33.976715 484.714966
  endloop
 facet normal 0.006718 -0.923020 -0.384693
  outer loop
   vertex 66.809982 -34.170647 484.852966
   vertex 65.653130 -34.130264 484.735870
   vertex 66.811668 -34.130264 484.756104
  endloop
 facet normal 0.999849 0.000002 0.017405
  outer loop
   vertex 66.811668 -34.130264 484.756104
   vertex 66.810791 -33.936966 484.806488
   vertex 66.809982 -34.170647 484.852966
  endloop
 facet normal 0.999848 0.000011 0.017453
  outer loop
   vertex 66.809982 -34.170647 484.852966
   vertex 66.810791 -33.936966 484.806488
   vertex 66.795792 -33.952820 485.665771
  endloop
 facet normal 0.999848 0.000001 0.017453
  outer loop
   vertex 66.795792 -33.952820 485.665771
   vertex 66.810791 -33.936966 484.806488
   vertex 66.816154 -32.789906 484.499176
  endloop
 facet normal 0.999848 -0.000003 0.017449
  outer loop
   vertex 66.816154 -32.789906 484.499176
   vertex 66.803307 -32.346462 485.235443
   vertex 66.795792 -33.952820 485.665771
  endloop
 facet normal 0.999848 0.000004 0.017445
  outer loop
   vertex 66.817490 -32.564289 484.422607
   vertex 66.803307 -32.346462 485.235443
   vertex 66.816154 -32.789906 484.499176
  endloop
 facet normal 0.004519 0.965927 -0.258774
  outer loop
   vertex 65.644768 -32.346462 485.215210
   vertex 66.803307 -32.346462 485.235443
   vertex 66.817490 -32.564289 484.422607
  endloop
 facet normal 0.004519 0.965927 -0.258774
  outer loop
   vertex 66.817490 -32.564289 484.422607
   vertex 65.658951 -32.564289 484.402374
   vertex 65.644768 -32.346462 485.215210
  endloop
 facet normal -0.999848 -0.000004 -0.017445
  outer loop
   vertex 65.644768 -32.346462 485.215210
   vertex 65.658951 -32.564289 484.402374
   vertex 65.657616 -32.789906 484.478943
  endloop
 facet normal -0.999847 -0.000012 -0.017471
  outer loop
   vertex 65.657616 -32.789906 484.478943
   vertex 65.658951 -32.564289 484.402374
   vertex 65.660065 -32.647694 484.338684
  endloop
 facet normal -0.999847 -0.000010 -0.017468
  outer loop
   vertex 65.660065 -32.647694 484.338684
   vertex 65.659348 -32.801243 484.379822
   vertex 65.657616 -32.789906 484.478943
  endloop
 facet normal 0.016867 -0.258822 -0.965778
  outer loop
   vertex 66.817886 -32.801243 484.400055
   vertex 65.659348 -32.801243 484.379822
   vertex 65.660065 -32.647694 484.338684
  endloop
 facet normal -0.001984 -0.993524 0.113603
  outer loop
   vertex 65.657616 -32.789906 484.478943
   vertex 65.659348 -32.801243 484.379822
   vertex 66.817886 -32.801243 484.400055
  endloop
 facet normal -0.001984 -0.993524 0.113603
  outer loop
   vertex 66.817886 -32.801243 484.400055
   vertex 66.816154 -32.789906 484.499176
   vertex 65.657616 -32.789906 484.478943
  endloop
 facet normal 0.016867 -0.258823 -0.965778
  outer loop
   vertex 65.657616 -32.789906 484.478943
   vertex 66.816154 -32.789906 484.499176
   vertex 66.810791 -33.936966 484.806488
  endloop
 facet normal 0.004513 0.965926 -0.258778
  outer loop
   vertex 44.857033 -32.658325 485.935394
   vertex 45.206982 -32.658325 485.941498
   vertex 44.794270 -32.723030 485.692780
  endloop
 facet normal 0.004517 0.965925 -0.258784
  outer loop
   vertex 44.794270 -32.723030 485.692780
   vertex 45.206982 -32.658325 485.941498
   vertex 45.100285 -32.768326 485.529053
  endloop
 facet normal 0.004528 0.965930 -0.258765
  outer loop
   vertex 45.100285 -32.768326 485.529053
   vertex 44.614372 -32.770397 485.512817
   vertex 44.794270 -32.723030 485.692780
  endloop
 facet normal 0.004529 0.965923 -0.258789
  outer loop
   vertex 44.794453 -32.848850 485.223145
   vertex 44.614372 -32.770397 485.512817
   vertex 45.100285 -32.768326 485.529053
  endloop
 facet normal 0.004523 0.965922 -0.258792
  outer loop
   vertex 44.365540 -32.787735 485.443756
   vertex 44.614372 -32.770397 485.512817
   vertex 44.794453 -32.848850 485.223145
  endloop
 facet normal 0.004525 0.965923 -0.258789
  outer loop
   vertex 44.794453 -32.848850 485.223145
   vertex 44.371437 -32.878323 485.105743
   vertex 44.365540 -32.787735 485.443756
  endloop
 facet normal 0.004514 0.965923 -0.258789
  outer loop
   vertex 44.365540 -32.787735 485.443756
   vertex 44.371437 -32.878323 485.105743
   vertex 44.114449 -32.770397 485.504089
  endloop
 facet normal 0.004517 0.965924 -0.258788
  outer loop
   vertex 44.114449 -32.770397 485.504089
   vertex 44.371437 -32.878323 485.105743
   vertex 43.944584 -32.848846 485.208313
  endloop
 facet normal 0.004514 0.965924 -0.258786
  outer loop
   vertex 43.944584 -32.848846 485.208313
   vertex 43.928375 -32.723030 485.677643
   vertex 44.114449 -32.770397 485.504089
  endloop
 facet normal 0.004500 0.965924 -0.258786
  outer loop
   vertex 43.628265 -32.768326 485.503357
   vertex 43.928375 -32.723030 485.677643
   vertex 43.944584 -32.848846 485.208313
  endloop
 facet normal 0.004489 0.965929 -0.258768
  outer loop
   vertex 43.857185 -32.658325 485.917938
   vertex 43.928375 -32.723030 485.677643
   vertex 43.628265 -32.768326 485.503357
  endloop
 facet normal 0.004513 0.965926 -0.258781
  outer loop
   vertex 43.628265 -32.768326 485.503357
   vertex 43.507236 -32.658325 485.911835
   vertex 43.857185 -32.658325 485.917938
  endloop
 facet normal 0.004513 0.965930 -0.258764
  outer loop
   vertex 43.857185 -32.658325 485.917938
   vertex 43.507236 -32.658325 485.911835
   vertex 43.919949 -32.593624 486.160553
  endloop
 facet normal 0.004524 0.965925 -0.258781
  outer loop
   vertex 43.919949 -32.593624 486.160553
   vertex 43.507236 -32.658325 485.911835
   vertex 43.490379 -32.399509 486.877594
  endloop
 facet normal 0.004510 0.965923 -0.258789
  outer loop
   vertex 43.490379 -32.399509 486.877594
   vertex 44.099846 -32.546257 486.340485
   vertex 43.919949 -32.593624 486.160553
  endloop
 facet normal 0.004520 0.965926 -0.258779
  outer loop
   vertex 44.348679 -32.528919 486.409546
   vertex 44.099846 -32.546257 486.340485
   vertex 43.490379 -32.399509 486.877594
  endloop
 facet normal -0.004514 -0.965923 0.258792
  outer loop
   vertex 68.273331 -33.141293 486.473572
   vertex 67.923386 -33.141293 486.467468
   vertex 68.344528 -33.205997 486.233307
  endloop
 facet normal -0.004528 -0.965929 0.258768
  outer loop
   vertex 68.344528 -33.205997 486.233307
   vertex 67.923386 -33.141293 486.467468
   vertex 68.044411 -33.251289 486.058990
  endloop
 facet normal -0.004529 -0.965928 0.258771
  outer loop
   vertex 68.044411 -33.251289 486.058990
   vertex 68.530594 -33.253365 486.059753
   vertex 68.344528 -33.205997 486.233307
  endloop
 facet normal -0.004529 -0.965929 0.258769
  outer loop
   vertex 68.360733 -33.331814 485.763947
   vertex 68.530594 -33.253365 486.059753
   vertex 68.044411 -33.251289 486.058990
  endloop
 facet normal -0.004520 -0.965930 0.258764
  outer loop
   vertex 68.781685 -33.270702 485.999420
   vertex 68.530594 -33.253365 486.059753
   vertex 68.360733 -33.331814 485.763947
  endloop
 facet normal -0.004516 -0.965932 0.258757
  outer loop
   vertex 68.360733 -33.331814 485.763947
   vertex 68.787590 -33.361286 485.661377
   vertex 68.781685 -33.270702 485.999420
  endloop
 facet normal -0.004513 -0.965932 0.258757
  outer loop
   vertex 68.781685 -33.270702 485.999420
   vertex 68.787590 -33.361286 485.661377
   vertex 69.030518 -33.253365 486.068481
  endloop
 facet normal -0.004516 -0.965931 0.258759
  outer loop
   vertex 69.030518 -33.253365 486.068481
   vertex 68.787590 -33.361286 485.661377
   vertex 69.210602 -33.331814 485.778778
  endloop
 facet normal -0.004492 -0.965928 0.258773
  outer loop
   vertex 69.210602 -33.331814 485.778778
   vertex 69.210419 -33.205997 486.248413
   vertex 69.030518 -33.253365 486.068481
  endloop
 facet normal -0.004512 -0.965928 0.258773
  outer loop
   vertex 69.516434 -33.251289 486.084686
   vertex 69.210419 -33.205997 486.248413
   vertex 69.210602 -33.331814 485.778778
  endloop
 facet normal -0.004509 -0.965927 0.258777
  outer loop
   vertex 69.273178 -33.141293 486.491028
   vertex 69.210419 -33.205997 486.248413
   vertex 69.516434 -33.251289 486.084686
  endloop
 facet normal -0.004513 -0.965927 0.258775
  outer loop
   vertex 69.516434 -33.251289 486.084686
   vertex 69.623131 -33.141293 486.497131
   vertex 69.273178 -33.141293 486.491028
  endloop
 facet normal -0.004514 -0.965923 0.258792
  outer loop
   vertex 69.273178 -33.141293 486.491028
   vertex 69.623131 -33.141293 486.497131
   vertex 69.201988 -33.076588 486.731293
  endloop
 facet normal -0.004522 -0.965926 0.258777
  outer loop
   vertex 69.201988 -33.076588 486.731293
   vertex 69.623131 -33.141293 486.497131
   vertex 69.606270 -32.882473 487.462921
  endloop
 facet normal -0.004522 -0.965926 0.258777
  outer loop
   vertex 69.606270 -32.882473 487.462921
   vertex 69.015923 -33.029221 486.904846
   vertex 69.201988 -33.076588 486.731293
  endloop
 facet normal -0.004518 -0.965928 0.258773
  outer loop
   vertex 68.764832 -33.011883 486.965179
   vertex 69.015923 -33.029221 486.904846
   vertex 69.606270 -32.882473 487.462921
  endloop
 facet normal -0.004516 -0.965926 0.258778
  outer loop
   vertex 43.488121 -32.882473 487.006989
   vertex 44.346420 -33.011879 486.538940
   vertex 45.187862 -32.882473 487.036652
  endloop
 facet normal -0.004517 -0.965926 0.258779
  outer loop
   vertex 45.187862 -32.882473 487.036652
   vertex 44.346420 -33.011879 486.538940
   vertex 44.597511 -33.029217 486.478607
  endloop
 facet normal -0.004519 -0.965926 0.258781
  outer loop
   vertex 44.597511 -33.029217 486.478607
   vertex 44.783581 -33.076584 486.305054
   vertex 45.187862 -32.882473 487.036652
  endloop
 facet normal -0.004510 -0.965923 0.258789
  outer loop
   vertex 68.336098 -33.076588 486.716187
   vertex 68.515999 -33.029221 486.896118
   vertex 67.906525 -32.882473 487.433228
  endloop
 facet normal -0.004519 -0.965926 0.258779
  outer loop
   vertex 67.906525 -32.882473 487.433228
   vertex 68.515999 -33.029221 486.896118
   vertex 68.764832 -33.011883 486.965179
  endloop
 facet normal -0.004521 -0.965926 0.258777
  outer loop
   vertex 68.764832 -33.011883 486.965179
   vertex 69.606270 -32.882473 487.462921
   vertex 67.906525 -32.882473 487.433228
  endloop
 facet normal 0.004516 0.965928 -0.258770
  outer loop
   vertex 69.608528 -32.399509 487.333527
   vertex 68.767090 -32.528919 486.835785
   vertex 67.908783 -32.399509 487.303864
  endloop
 facet normal 0.004495 0.965919 -0.258805
  outer loop
   vertex 67.908783 -32.399509 487.303864
   vertex 68.767090 -32.528919 486.835785
   vertex 68.518257 -32.546257 486.766754
  endloop
 facet normal 0.004531 0.965929 -0.258767
  outer loop
   vertex 68.518257 -32.546257 486.766754
   vertex 68.338356 -32.593624 486.586792
   vertex 67.908783 -32.399509 487.303864
  endloop
 facet normal 0.004522 0.965926 -0.258777
  outer loop
   vertex 44.785843 -32.593624 486.175659
   vertex 44.599770 -32.546257 486.349213
   vertex 45.190121 -32.399509 486.907288
  endloop
 facet normal 0.004518 0.965928 -0.258773
  outer loop
   vertex 45.190121 -32.399509 486.907288
   vertex 44.599770 -32.546257 486.349213
   vertex 44.348679 -32.528919 486.409546
  endloop
 facet normal 0.004521 0.965926 -0.258777
  outer loop
   vertex 44.348679 -32.528919 486.409546
   vertex 43.490379 -32.399509 486.877594
   vertex 45.190121 -32.399509 486.907288
  endloop
 facet normal 0.013877 0.606969 -0.794604
  outer loop
   vertex 66.817490 -32.564289 484.422607
   vertex 66.818604 -32.647694 484.358917
   vertex 65.658951 -32.564289 484.402374
  endloop
 facet normal 0.013877 0.606969 -0.794604
  outer loop
   vertex 65.658951 -32.564289 484.402374
   vertex 66.818604 -32.647694 484.358917
   vertex 65.660065 -32.647694 484.338684
  endloop
 facet normal -0.004518 -0.965925 0.258783
  outer loop
   vertex 46.772690 -33.900570 485.201965
   vertex 46.783031 -34.059364 484.609436
   vertex 66.386703 -33.900570 485.544373
  endloop
 facet normal -0.004518 -0.965925 0.258783
  outer loop
   vertex 66.386703 -33.900570 485.544373
   vertex 46.783031 -34.059364 484.609436
   vertex 66.397041 -34.059364 484.951843
  endloop
 facet normal 0.006708 -0.923020 -0.384693
  outer loop
   vertex 47.534027 -34.130264 484.419586
   vertex 47.532337 -34.170647 484.516449
   vertex 46.375488 -34.130264 484.399384
  endloop
 facet normal 0.006720 -0.922977 -0.384796
  outer loop
   vertex 46.375488 -34.130264 484.399384
   vertex 47.532337 -34.170647 484.516449
   vertex 46.373798 -34.170647 484.496216
  endloop
 facet normal 0.016844 -0.258828 -0.965777
  outer loop
   vertex 69.275444 -32.658329 486.361633
   vertex 69.625389 -32.658329 486.367737
   vertex 69.449287 -32.899811 486.429382
  endloop
 facet normal 0.999848 -0.000001 0.017458
  outer loop
   vertex 66.795792 -33.952820 485.665771
   vertex 66.803307 -32.346462 485.235443
   vertex 66.788643 -33.582935 486.075195
  endloop
 facet normal -0.004513 -0.965926 0.258778
  outer loop
   vertex 67.923386 -33.141293 486.467468
   vertex 68.273331 -33.141293 486.473572
   vertex 68.336098 -33.076588 486.716187
  endloop
 facet normal -0.004514 -0.965923 0.258792
  outer loop
   vertex 44.854774 -33.141289 486.064789
   vertex 45.204720 -33.141289 486.070892
   vertex 44.783581 -33.076584 486.305054
  endloop
 facet normal -0.016844 0.258828 0.965777
  outer loop
   vertex 69.625389 -32.658329 486.367737
   vertex 69.273178 -33.141293 486.491028
   vertex 69.623131 -33.141293 486.497131
  endloop
 facet normal 0.004519 0.965926 -0.258780
  outer loop
   vertex 46.606213 -32.520508 485.292206
   vertex 44.958305 -32.520508 485.263428
   vertex 44.932323 -32.121655 486.751740
  endloop
 facet normal -0.004519 -0.965926 0.258778
  outer loop
   vertex 66.518906 -33.198605 487.417175
   vertex 66.544891 -33.597454 485.928864
   vertex 68.166817 -33.198605 487.445953
  endloop
 facet normal -0.016845 0.258771 0.965792
  outer loop
   vertex 43.504978 -33.141289 486.041199
   vertex 43.857185 -32.658325 485.917938
   vertex 43.507236 -32.658325 485.911835
  endloop
 facet normal -0.999847 -0.000010 -0.017468
  outer loop
   vertex 46.382423 -32.647694 484.002167
   vertex 46.381706 -32.801243 484.043304
   vertex 46.379974 -32.789902 484.142426
  endloop
 facet normal -0.016844 0.258828 0.965777
  outer loop
   vertex 68.273331 -33.141293 486.473572
   vertex 67.925644 -32.658329 486.338074
   vertex 67.923386 -33.141293 486.467468
  endloop
 facet normal -0.999848 -0.000001 -0.017456
  outer loop
   vertex 46.367123 -32.346462 484.878693
   vertex 46.359612 -33.952816 485.309052
   vertex 46.357704 -32.462048 485.418182
  endloop
 facet normal 0.999848 -0.000003 0.017421
  outer loop
   vertex 66.811668 -34.130264 484.756104
   vertex 66.812386 -33.976715 484.714966
   vertex 66.810791 -33.936966 484.806488
  endloop
 facet normal 0.004514 0.965926 -0.258778
  outer loop
   vertex 66.549927 -32.520508 485.640350
   vertex 66.523949 -32.121658 487.128662
   vertex 68.171852 -32.121658 487.157410
  endloop
 facet normal 0.999848 0.000000 0.017452
  outer loop
   vertex 46.580235 -32.121658 486.780518
   vertex 46.575199 -33.198601 487.069031
   vertex 46.601177 -33.597454 485.580719
  endloop
 facet normal -0.016844 0.258828 0.965777
  outer loop
   vertex 44.857033 -32.658325 485.935394
   vertex 45.204720 -33.141289 486.070892
   vertex 45.206982 -32.658325 485.941498
  endloop
 facet normal 0.004513 0.965926 -0.258778
  outer loop
   vertex 45.206982 -32.658325 485.941498
   vertex 44.857033 -32.658325 485.935394
   vertex 44.785843 -32.593624 486.175659
  endloop
 facet normal -0.695075 -0.183021 -0.695251
  outer loop
   vertex 44.599770 -32.546257 486.349213
   vertex 44.783581 -33.076584 486.305054
   vertex 44.597511 -33.029217 486.478607
  endloop
 facet normal -0.242502 -0.250010 -0.937384
  outer loop
   vertex 44.599770 -32.546257 486.349213
   vertex 44.597511 -33.029217 486.478607
   vertex 44.348679 -32.528919 486.409546
  endloop
 facet normal -0.242502 -0.250010 -0.937384
  outer loop
   vertex 44.348679 -32.528919 486.409546
   vertex 44.597511 -33.029217 486.478607
   vertex 44.346420 -33.011879 486.538940
  endloop
 facet normal 0.275074 -0.250009 -0.928348
  outer loop
   vertex 44.346420 -33.011879 486.538940
   vertex 44.099846 -32.546257 486.340485
   vertex 44.348679 -32.528919 486.409546
  endloop
 facet normal 0.275074 -0.250009 -0.928348
  outer loop
   vertex 44.097588 -33.029217 486.469879
   vertex 44.099846 -32.546257 486.340485
   vertex 44.346420 -33.011879 486.538940
  endloop
 facet normal 0.718902 -0.183024 -0.670583
  outer loop
   vertex 43.919949 -32.593624 486.160553
   vertex 44.099846 -32.546257 486.340485
   vertex 44.097588 -33.029217 486.469879
  endloop
 facet normal 0.718902 -0.183024 -0.670583
  outer loop
   vertex 44.097588 -33.029217 486.469879
   vertex 43.917690 -33.076584 486.289948
   vertex 43.919949 -32.593624 486.160553
  endloop
 facet normal 0.970141 -0.066990 -0.233106
  outer loop
   vertex 43.919949 -32.593624 486.160553
   vertex 43.917690 -33.076584 486.289948
   vertex 43.857185 -32.658325 485.917938
  endloop
 facet normal -0.961406 -0.066984 -0.266854
  outer loop
   vertex 69.275444 -32.658329 486.361633
   vertex 69.273178 -33.141293 486.491028
   vertex 69.204247 -32.593624 486.601898
  endloop
 facet normal -0.961414 -0.066991 -0.266823
  outer loop
   vertex 69.204247 -32.593624 486.601898
   vertex 69.273178 -33.141293 486.491028
   vertex 69.201988 -33.076588 486.731293
  endloop
 facet normal -0.695142 -0.183003 -0.695189
  outer loop
   vertex 69.201988 -33.076588 486.731293
   vertex 69.018181 -32.546257 486.775482
   vertex 69.204247 -32.593624 486.601898
  endloop
 facet normal -0.695083 -0.182977 -0.695255
  outer loop
   vertex 69.015923 -33.029221 486.904846
   vertex 69.018181 -32.546257 486.775482
   vertex 69.201988 -33.076588 486.731293
  endloop
 facet normal -0.242394 -0.249960 -0.937425
  outer loop
   vertex 68.767090 -32.528919 486.835785
   vertex 69.018181 -32.546257 486.775482
   vertex 69.015923 -33.029221 486.904846
  endloop
 facet normal -0.242502 -0.250008 -0.937384
  outer loop
   vertex 69.015923 -33.029221 486.904846
   vertex 68.764832 -33.011883 486.965179
   vertex 68.767090 -32.528919 486.835785
  endloop
 facet normal 0.274969 -0.250015 -0.928377
  outer loop
   vertex 68.767090 -32.528919 486.835785
   vertex 68.764832 -33.011883 486.965179
   vertex 68.518257 -32.546257 486.766754
  endloop
 facet normal 0.275075 -0.249953 -0.928363
  outer loop
   vertex 68.518257 -32.546257 486.766754
   vertex 68.764832 -33.011883 486.965179
   vertex 68.515999 -33.029221 486.896118
  endloop
 facet normal 0.718950 -0.182971 -0.670547
  outer loop
   vertex 68.515999 -33.029221 486.896118
   vertex 68.338356 -32.593624 486.586792
   vertex 68.518257 -32.546257 486.766754
  endloop
 facet normal 0.970142 -0.066996 -0.233102
  outer loop
   vertex 45.206982 -32.658325 485.941498
   vertex 45.204720 -33.141289 486.070892
   vertex 45.100285 -32.768326 485.529053
  endloop
 facet normal 0.970142 -0.066996 -0.233102
  outer loop
   vertex 45.100285 -32.768326 485.529053
   vertex 45.204720 -33.141289 486.070892
   vertex 45.098022 -33.251289 485.658447
  endloop
 facet normal 0.718920 -0.183023 -0.670564
  outer loop
   vertex 45.098022 -33.251289 485.658447
   vertex 44.794453 -32.848850 485.223145
   vertex 45.100285 -32.768326 485.529053
  endloop
 facet normal 0.718924 -0.183018 -0.670562
  outer loop
   vertex 44.792194 -33.331810 485.352539
   vertex 44.794453 -32.848850 485.223145
   vertex 45.098022 -33.251289 485.658447
  endloop
 facet normal 0.275067 -0.250010 -0.928350
  outer loop
   vertex 44.371437 -32.878323 485.105743
   vertex 44.794453 -32.848850 485.223145
   vertex 44.792194 -33.331810 485.352539
  endloop
 facet normal 0.275069 -0.250008 -0.928350
  outer loop
   vertex 44.792194 -33.331810 485.352539
   vertex 44.369179 -33.361286 485.235138
   vertex 44.371437 -32.878323 485.105743
  endloop
 facet normal -0.242510 -0.250007 -0.937382
  outer loop
   vertex 44.371437 -32.878323 485.105743
   vertex 44.369179 -33.361286 485.235138
   vertex 43.944584 -32.848846 485.208313
  endloop
 facet normal -0.242510 -0.250007 -0.937382
  outer loop
   vertex 43.944584 -32.848846 485.208313
   vertex 44.369179 -33.361286 485.235138
   vertex 43.942326 -33.331810 485.337708
  endloop
 facet normal -0.695077 -0.183019 -0.695249
  outer loop
   vertex 43.942326 -33.331810 485.337708
   vertex 43.628265 -32.768326 485.503357
   vertex 43.944584 -32.848846 485.208313
  endloop
 facet normal -0.695077 -0.183019 -0.695249
  outer loop
   vertex 43.626007 -33.251289 485.632751
   vertex 43.628265 -32.768326 485.503357
   vertex 43.942326 -33.331810 485.337708
  endloop
 facet normal -0.961415 -0.066990 -0.266820
  outer loop
   vertex 43.507236 -32.658325 485.911835
   vertex 43.628265 -32.768326 485.503357
   vertex 43.626007 -33.251289 485.632751
  endloop
 facet normal -0.961410 -0.066979 -0.266841
  outer loop
   vertex 43.626007 -33.251289 485.632751
   vertex 43.504978 -33.141289 486.041199
   vertex 43.507236 -32.658325 485.911835
  endloop
 facet normal 0.970142 -0.066989 -0.233104
  outer loop
   vertex 69.625389 -32.658329 486.367737
   vertex 69.623131 -33.141293 486.497131
   vertex 69.518692 -32.768326 485.955292
  endloop
 facet normal 0.970142 -0.066989 -0.233104
  outer loop
   vertex 69.518692 -32.768326 485.955292
   vertex 69.623131 -33.141293 486.497131
   vertex 69.516434 -33.251289 486.084686
  endloop
 facet normal 0.718920 -0.183018 -0.670565
  outer loop
   vertex 69.516434 -33.251289 486.084686
   vertex 69.212860 -32.848850 485.649384
   vertex 69.518692 -32.768326 485.955292
  endloop
 facet normal 0.718920 -0.183018 -0.670565
  outer loop
   vertex 69.210602 -33.331814 485.778778
   vertex 69.212860 -32.848850 485.649384
   vertex 69.516434 -33.251289 486.084686
  endloop
 facet normal 0.275069 -0.250008 -0.928350
  outer loop
   vertex 68.789848 -32.878323 485.531982
   vertex 69.212860 -32.848850 485.649384
   vertex 69.210602 -33.331814 485.778778
  endloop
 facet normal 0.275069 -0.250008 -0.928350
  outer loop
   vertex 69.210602 -33.331814 485.778778
   vertex 68.787590 -33.361286 485.661377
   vertex 68.789848 -32.878323 485.531982
  endloop
 facet normal -0.242506 -0.250008 -0.937383
  outer loop
   vertex 68.789848 -32.878323 485.531982
   vertex 68.787590 -33.361286 485.661377
   vertex 68.362991 -32.848850 485.634552
  endloop
 facet normal -0.242506 -0.250008 -0.937383
  outer loop
   vertex 68.362991 -32.848850 485.634552
   vertex 68.787590 -33.361286 485.661377
   vertex 68.360733 -33.331814 485.763947
  endloop
 facet normal -0.695074 -0.183020 -0.695252
  outer loop
   vertex 68.360733 -33.331814 485.763947
   vertex 68.046669 -32.768326 485.929596
   vertex 68.362991 -32.848850 485.634552
  endloop
 facet normal -0.695074 -0.183020 -0.695252
  outer loop
   vertex 68.044411 -33.251289 486.058990
   vertex 68.046669 -32.768326 485.929596
   vertex 68.360733 -33.331814 485.763947
  endloop
 facet normal -0.961417 -0.066988 -0.266813
  outer loop
   vertex 67.925644 -32.658329 486.338074
   vertex 68.046669 -32.768326 485.929596
   vertex 68.044411 -33.251289 486.058990
  endloop
 facet normal -0.961417 -0.066988 -0.266813
  outer loop
   vertex 68.044411 -33.251289 486.058990
   vertex 67.923386 -33.141293 486.467468
   vertex 67.925644 -32.658329 486.338074
  endloop
 facet normal 0.718895 -0.183025 -0.670591
  outer loop
   vertex 68.515999 -33.029221 486.896118
   vertex 68.336098 -33.076588 486.716187
   vertex 68.338356 -32.593624 486.586792
  endloop
 facet normal 0.970138 -0.066993 -0.233118
  outer loop
   vertex 68.338356 -32.593624 486.586792
   vertex 68.336098 -33.076588 486.716187
   vertex 68.273331 -33.141293 486.473572
  endloop
 facet normal 0.970138 -0.066993 -0.233118
  outer loop
   vertex 68.273331 -33.141293 486.473572
   vertex 68.275589 -32.658329 486.344177
   vertex 68.338356 -32.593624 486.586792
  endloop
 facet normal 0.961406 0.066998 0.266850
  outer loop
   vertex 68.344528 -33.205997 486.233307
   vertex 68.275589 -32.658329 486.344177
   vertex 68.273331 -33.141293 486.473572
  endloop
 facet normal 0.961406 0.066998 0.266850
  outer loop
   vertex 68.346786 -32.723034 486.103912
   vertex 68.275589 -32.658329 486.344177
   vertex 68.344528 -33.205997 486.233307
  endloop
 facet normal 0.695083 0.183018 0.695244
  outer loop
   vertex 68.344528 -33.205997 486.233307
   vertex 68.530594 -33.253365 486.059753
   vertex 68.346786 -32.723034 486.103912
  endloop
 facet normal 0.695083 0.183018 0.695244
  outer loop
   vertex 68.346786 -32.723034 486.103912
   vertex 68.530594 -33.253365 486.059753
   vertex 68.532852 -32.770401 485.930359
  endloop
 facet normal 0.242502 0.250008 0.937384
  outer loop
   vertex 68.532852 -32.770401 485.930359
   vertex 68.530594 -33.253365 486.059753
   vertex 68.781685 -33.270702 485.999420
  endloop
 facet normal 0.242502 0.250008 0.937384
  outer loop
   vertex 68.781685 -33.270702 485.999420
   vertex 68.783943 -32.787739 485.870026
   vertex 68.532852 -32.770401 485.930359
  endloop
 facet normal -0.275074 0.250007 0.928348
  outer loop
   vertex 69.030518 -33.253365 486.068481
   vertex 68.783943 -32.787739 485.870026
   vertex 68.781685 -33.270702 485.999420
  endloop
 facet normal -0.275074 0.250007 0.928348
  outer loop
   vertex 69.032776 -32.770401 485.939087
   vertex 68.783943 -32.787739 485.870026
   vertex 69.030518 -33.253365 486.068481
  endloop
 facet normal -0.718895 0.183025 0.670591
  outer loop
   vertex 69.030518 -33.253365 486.068481
   vertex 69.210419 -33.205997 486.248413
   vertex 69.032776 -32.770401 485.939087
  endloop
 facet normal -0.718895 0.183025 0.670591
  outer loop
   vertex 69.032776 -32.770401 485.939087
   vertex 69.210419 -33.205997 486.248413
   vertex 69.212677 -32.723034 486.119019
  endloop
 facet normal -0.970145 0.066986 0.233091
  outer loop
   vertex 69.212677 -32.723034 486.119019
   vertex 69.210419 -33.205997 486.248413
   vertex 69.273178 -33.141293 486.491028
  endloop
 facet normal -0.970138 0.067007 0.233114
  outer loop
   vertex 69.273178 -33.141293 486.491028
   vertex 69.275444 -32.658329 486.361633
   vertex 69.212677 -32.723034 486.119019
  endloop
 facet normal -0.695068 -0.183018 -0.695259
  outer loop
   vertex 44.599770 -32.546257 486.349213
   vertex 44.785843 -32.593624 486.175659
   vertex 44.783581 -33.076584 486.305054
  endloop
 facet normal -0.961414 -0.066985 -0.266826
  outer loop
   vertex 44.783581 -33.076584 486.305054
   vertex 44.785843 -32.593624 486.175659
   vertex 44.857033 -32.658325 485.935394
  endloop
 facet normal -0.961410 -0.066995 -0.266837
  outer loop
   vertex 44.857033 -32.658325 485.935394
   vertex 44.854774 -33.141289 486.064789
   vertex 44.783581 -33.076584 486.305054
  endloop
 facet normal -0.970142 0.066989 0.233105
  outer loop
   vertex 44.794270 -32.723030 485.692780
   vertex 44.854774 -33.141289 486.064789
   vertex 44.857033 -32.658325 485.935394
  endloop
 facet normal -0.970142 0.066989 0.233105
  outer loop
   vertex 44.792011 -33.205994 485.822174
   vertex 44.854774 -33.141289 486.064789
   vertex 44.794270 -32.723030 485.692780
  endloop
 facet normal -0.718957 0.183008 0.670529
  outer loop
   vertex 44.794270 -32.723030 485.692780
   vertex 44.614372 -32.770397 485.512817
   vertex 44.792011 -33.205994 485.822174
  endloop
 facet normal -0.718957 0.183008 0.670529
  outer loop
   vertex 44.792011 -33.205994 485.822174
   vertex 44.614372 -32.770397 485.512817
   vertex 44.612114 -33.253361 485.642212
  endloop
 facet normal -0.275074 0.250007 0.928348
  outer loop
   vertex 44.612114 -33.253361 485.642212
   vertex 44.614372 -32.770397 485.512817
   vertex 44.365540 -32.787735 485.443756
  endloop
 facet normal -0.275074 0.250007 0.928348
  outer loop
   vertex 44.365540 -32.787735 485.443756
   vertex 44.363281 -33.270699 485.573151
   vertex 44.612114 -33.253361 485.642212
  endloop
 facet normal 0.242502 0.250008 0.937384
  outer loop
   vertex 44.114449 -32.770397 485.504089
   vertex 44.363281 -33.270699 485.573151
   vertex 44.365540 -32.787735 485.443756
  endloop
 facet normal 0.242502 0.250008 0.937384
  outer loop
   vertex 44.112190 -33.253361 485.633484
   vertex 44.363281 -33.270699 485.573151
   vertex 44.114449 -32.770397 485.504089
  endloop
 facet normal 0.695068 0.183022 0.695258
  outer loop
   vertex 44.114449 -32.770397 485.504089
   vertex 43.928375 -32.723030 485.677643
   vertex 44.112190 -33.253361 485.633484
  endloop
 facet normal 0.695068 0.183022 0.695258
  outer loop
   vertex 44.112190 -33.253361 485.633484
   vertex 43.928375 -32.723030 485.677643
   vertex 43.926117 -33.205994 485.807037
  endloop
 facet normal 0.961423 0.066983 0.266794
  outer loop
   vertex 43.926117 -33.205994 485.807037
   vertex 43.928375 -32.723030 485.677643
   vertex 43.857185 -32.658325 485.917938
  endloop
 facet normal 0.961423 0.066983 0.266794
  outer loop
   vertex 43.857185 -32.658325 485.917938
   vertex 43.854927 -33.141289 486.047333
   vertex 43.926117 -33.205994 485.807037
  endloop
 facet normal 0.970142 -0.066989 -0.233105
  outer loop
   vertex 43.917690 -33.076584 486.289948
   vertex 43.854927 -33.141289 486.047333
   vertex 43.857185 -32.658325 485.917938
  endloop
endsolid