solid stl file generated from DOUG
 facet normal 0.016797 -0.287448 -0.957649
  outer loop
   vertex 232.306503 -59.744717 643.320374
   vertex 231.805405 -59.744717 643.311584
   vertex 232.307755 -59.504700 643.248352
  endloop
 facet normal 0.016682 -0.287225 -0.957718
  outer loop
   vertex 232.307755 -59.504700 643.248352
   vertex 231.805405 -59.744717 643.311584
   vertex 231.806671 -59.504700 643.239624
  endloop
 facet normal 0.012675 0.685784 -0.727694
  outer loop
   vertex 231.806671 -59.504700 643.239624
   vertex 232.304764 -59.322330 643.420166
   vertex 232.307755 -59.504700 643.248352
  endloop
 facet normal 0.012675 0.685785 -0.727694
  outer loop
   vertex 231.803665 -59.322330 643.411438
   vertex 232.304764 -59.322330 643.420166
   vertex 231.806671 -59.504700 643.239624
  endloop
 facet normal -0.004006 0.973180 0.230010
  outer loop
   vertex 232.300507 -59.379978 643.664001
   vertex 232.304764 -59.322330 643.420166
   vertex 231.803665 -59.322330 643.411438
  endloop
 facet normal -0.004006 0.973180 0.230010
  outer loop
   vertex 231.803665 -59.322330 643.411438
   vertex 231.799408 -59.379978 643.655273
   vertex 232.300507 -59.379978 643.664001
  endloop
 facet normal -0.016680 0.287449 0.957651
  outer loop
   vertex 232.300507 -59.379978 643.664001
   vertex 231.799408 -59.379978 643.655273
   vertex 232.299240 -59.619995 643.736023
  endloop
 facet normal -0.016798 0.287224 0.957716
  outer loop
   vertex 232.299240 -59.619995 643.736023
   vertex 231.799408 -59.379978 643.655273
   vertex 231.798157 -59.619995 643.727234
  endloop
 facet normal -0.012762 -0.685914 0.727571
  outer loop
   vertex 231.798157 -59.619995 643.727234
   vertex 232.302246 -59.802364 643.564148
   vertex 232.299240 -59.619995 643.736023
  endloop
 facet normal -0.012675 -0.685784 0.727694
  outer loop
   vertex 231.801147 -59.802364 643.555420
   vertex 232.302246 -59.802364 643.564148
   vertex 231.798157 -59.619995 643.727234
  endloop
 facet normal 0.004007 -0.973167 -0.230064
  outer loop
   vertex 232.306503 -59.744717 643.320374
   vertex 232.302246 -59.802364 643.564148
   vertex 231.801147 -59.802364 643.555420
  endloop
 facet normal 0.004034 -0.973180 -0.230009
  outer loop
   vertex 231.801147 -59.802364 643.555420
   vertex 231.805405 -59.744717 643.311584
   vertex 232.306503 -59.744717 643.320374
  endloop
 facet normal -0.004006 0.973180 0.230010
  outer loop
   vertex 232.063889 -75.460320 628.504211
   vertex 232.564987 -75.460320 628.512939
   vertex 232.068146 -75.402672 628.260376
  endloop
 facet normal -0.004006 0.973180 0.230010
  outer loop
   vertex 232.068146 -75.402672 628.260376
   vertex 232.564987 -75.460320 628.512939
   vertex 232.569244 -75.402672 628.269104
  endloop
 facet normal 0.012675 0.685792 -0.727687
  outer loop
   vertex 232.569244 -75.402672 628.269104
   vertex 232.071136 -75.585037 628.088562
   vertex 232.068146 -75.402672 628.260376
  endloop
 facet normal 0.012675 0.685792 -0.727687
  outer loop
   vertex 232.572235 -75.585037 628.097290
   vertex 232.071136 -75.585037 628.088562
   vertex 232.569244 -75.402672 628.269104
  endloop
 facet normal 0.016681 -0.287220 -0.957719
  outer loop
   vertex 232.069885 -75.825058 628.160522
   vertex 232.071136 -75.585037 628.088562
   vertex 232.572235 -75.585037 628.097290
  endloop
 facet normal 0.016681 -0.287220 -0.957719
  outer loop
   vertex 232.572235 -75.585037 628.097290
   vertex 232.570984 -75.825058 628.169250
   vertex 232.069885 -75.825058 628.160522
  endloop
 facet normal 0.004006 -0.973180 -0.230010
  outer loop
   vertex 232.069885 -75.825058 628.160522
   vertex 232.570984 -75.825058 628.169250
   vertex 232.065628 -75.882706 628.404358
  endloop
 facet normal 0.004006 -0.973180 -0.230010
  outer loop
   vertex 232.065628 -75.882706 628.404358
   vertex 232.570984 -75.825058 628.169250
   vertex 232.566727 -75.882706 628.413086
  endloop
 facet normal -0.012675 -0.685777 0.727701
  outer loop
   vertex 232.566727 -75.882706 628.413086
   vertex 232.062622 -75.700333 628.576172
   vertex 232.065628 -75.882706 628.404358
  endloop
 facet normal -0.012761 -0.685906 0.727578
  outer loop
   vertex 232.563721 -75.700333 628.584961
   vertex 232.062622 -75.700333 628.576172
   vertex 232.566727 -75.882706 628.413086
  endloop
 facet normal -0.016798 0.287229 0.957715
  outer loop
   vertex 232.063889 -75.460320 628.504211
   vertex 232.062622 -75.700333 628.576172
   vertex 232.563721 -75.700333 628.584961
  endloop
 facet normal -0.016680 0.287453 0.957650
  outer loop
   vertex 232.563721 -75.700333 628.584961
   vertex 232.564987 -75.460320 628.512939
   vertex 232.063889 -75.460320 628.504211
  endloop
 facet normal 0.999848 -0.000041 0.017447
  outer loop
   vertex 232.572235 -75.585037 628.097290
   vertex 232.569244 -75.402672 628.269104
   vertex 232.567978 -75.642685 628.341125
  endloop
 facet normal 0.999848 -0.000041 0.017447
  outer loop
   vertex 232.567978 -75.642685 628.341125
   vertex 232.569244 -75.402672 628.269104
   vertex 232.564987 -75.460320 628.512939
  endloop
 facet normal 0.999848 -0.000041 0.017447
  outer loop
   vertex 232.564987 -75.460320 628.512939
   vertex 232.563721 -75.700333 628.584961
   vertex 232.567978 -75.642685 628.341125
  endloop
 facet normal 0.999847 0.000025 0.017467
  outer loop
   vertex 232.302246 -59.802364 643.564148
   vertex 232.306503 -59.744717 643.320374
   vertex 232.303497 -59.562347 643.492188
  endloop
 facet normal 0.999848 0.000028 0.017463
  outer loop
   vertex 232.303497 -59.562347 643.492188
   vertex 232.306503 -59.744717 643.320374
   vertex 232.307755 -59.504700 643.248352
  endloop
 facet normal 0.999848 -0.000041 0.017447
  outer loop
   vertex 232.307755 -59.504700 643.248352
   vertex 232.304764 -59.322330 643.420166
   vertex 232.303497 -59.562347 643.492188
  endloop
 facet normal 0.999848 -0.000041 0.017447
  outer loop
   vertex 232.304764 -59.322330 643.420166
   vertex 232.300507 -59.379978 643.664001
   vertex 232.303497 -59.562347 643.492188
  endloop
 facet normal 0.999848 -0.000041 0.017447
  outer loop
   vertex 232.303497 -59.562347 643.492188
   vertex 232.300507 -59.379978 643.664001
   vertex 232.299240 -59.619995 643.736023
  endloop
 facet normal 0.999848 0.000023 0.017462
  outer loop
   vertex 232.299240 -59.619995 643.736023
   vertex 232.302246 -59.802364 643.564148
   vertex 232.303497 -59.562347 643.492188
  endloop
 facet normal 0.999848 0.000023 0.017462
  outer loop
   vertex 232.563721 -75.700333 628.584961
   vertex 232.566727 -75.882706 628.413086
   vertex 232.567978 -75.642685 628.341125
  endloop
 facet normal 0.999848 0.000023 0.017462
  outer loop
   vertex 232.567978 -75.642685 628.341125
   vertex 232.566727 -75.882706 628.413086
   vertex 232.570984 -75.825058 628.169250
  endloop
 facet normal 0.999848 0.000023 0.017462
  outer loop
   vertex 232.570984 -75.825058 628.169250
   vertex 232.572235 -75.585037 628.097290
   vertex 232.567978 -75.642685 628.341125
  endloop
 facet normal 0.999848 0.000007 0.017448
  outer loop
   vertex 230.278534 -61.051125 642.912720
   vertex 230.294403 -60.193714 642.002991
   vertex 230.242722 -58.874065 644.963989
  endloop
 facet normal 0.999848 -0.000005 0.017454
  outer loop
   vertex 230.242722 -58.874065 644.963989
   vertex 230.294403 -60.193714 642.002991
   vertex 230.258606 -58.016655 644.054260
  endloop
 facet normal -0.011998 0.727775 0.685711
  outer loop
   vertex 230.258606 -58.016655 644.054260
   vertex 228.854355 -58.874065 644.939697
   vertex 230.242722 -58.874065 644.963989
  endloop
 facet normal -0.011968 0.727752 0.685736
  outer loop
   vertex 228.870224 -58.016655 644.030029
   vertex 228.854355 -58.874065 644.939697
   vertex 230.258606 -58.016655 644.054260
  endloop
 facet normal -0.999848 -0.000007 -0.017449
  outer loop
   vertex 228.906036 -60.193714 641.978760
   vertex 228.854355 -58.874065 644.939697
   vertex 228.870224 -58.016655 644.030029
  endloop
 facet normal 0.012700 0.685823 -0.727658
  outer loop
   vertex 228.870224 -58.016655 644.030029
   vertex 230.294403 -60.193714 642.002991
   vertex 228.906036 -60.193714 641.978760
  endloop
 facet normal 0.011968 -0.727775 -0.685712
  outer loop
   vertex 228.906036 -60.193714 641.978760
   vertex 230.294403 -60.193714 642.002991
   vertex 228.890152 -61.051125 642.888489
  endloop
 facet normal 0.011967 -0.727775 -0.685712
  outer loop
   vertex 228.890152 -61.051125 642.888489
   vertex 230.294403 -60.193714 642.002991
   vertex 230.278534 -61.051125 642.912720
  endloop
 facet normal -0.012700 -0.685812 0.727668
  outer loop
   vertex 230.278534 -61.051125 642.912720
   vertex 228.854355 -58.874065 644.939697
   vertex 228.890152 -61.051125 642.888489
  endloop
 facet normal -0.012732 -0.685823 0.727657
  outer loop
   vertex 230.242722 -58.874065 644.963989
   vertex 228.854355 -58.874065 644.939697
   vertex 230.278534 -61.051125 642.912720
  endloop
 facet normal 0.011968 -0.727773 -0.685713
  outer loop
   vertex 229.155563 -77.188377 627.683777
   vertex 229.171448 -76.330963 626.774048
   vertex 230.543945 -77.188377 627.708008
  endloop
 facet normal 0.011968 -0.727773 -0.685713
  outer loop
   vertex 230.543945 -77.188377 627.708008
   vertex 229.171448 -76.330963 626.774048
   vertex 230.559814 -76.330963 626.798279
  endloop
 facet normal 0.999848 0.000007 0.017448
  outer loop
   vertex 230.559814 -76.330963 626.798279
   vertex 230.508133 -75.011322 629.759277
   vertex 230.543945 -77.188377 627.708008
  endloop
 facet normal 0.999848 -0.000005 0.017454
  outer loop
   vertex 230.524017 -74.153908 628.849548
   vertex 230.508133 -75.011322 629.759277
   vertex 230.559814 -76.330963 626.798279
  endloop
 facet normal -0.011968 0.727773 0.685713
  outer loop
   vertex 229.135651 -74.153908 628.825317
   vertex 230.508133 -75.011322 629.759277
   vertex 230.524017 -74.153908 628.849548
  endloop
 facet normal 0.012700 0.685823 -0.727657
  outer loop
   vertex 230.524017 -74.153908 628.849548
   vertex 229.171448 -76.330963 626.774048
   vertex 229.135651 -74.153908 628.825317
  endloop
 facet normal -0.999848 0.000005 -0.017454
  outer loop
   vertex 229.135651 -74.153908 628.825317
   vertex 229.171448 -76.330963 626.774048
   vertex 229.119766 -75.011322 629.735046
  endloop
 facet normal -0.999848 0.000005 -0.017454
  outer loop
   vertex 229.119766 -75.011322 629.735046
   vertex 229.171448 -76.330963 626.774048
   vertex 229.155563 -77.188377 627.683777
  endloop
 facet normal -0.012700 -0.685823 0.727657
  outer loop
   vertex 229.155563 -77.188377 627.683777
   vertex 230.508133 -75.011322 629.759277
   vertex 229.119766 -75.011322 629.735046
  endloop
 facet normal -0.012700 -0.685823 0.727657
  outer loop
   vertex 230.543945 -77.188377 627.708008
   vertex 230.508133 -75.011322 629.759277
   vertex 229.155563 -77.188377 627.683777
  endloop
 facet normal 0.012700 0.685823 -0.727657
  outer loop
   vertex 230.524017 -74.153908 628.849548
   vertex 230.559814 -76.330963 626.798279
   vertex 229.171448 -76.330963 626.774048
  endloop
 facet normal 0.012700 0.685823 -0.727658
  outer loop
   vertex 230.258606 -58.016655 644.054260
   vertex 230.294403 -60.193714 642.002991
   vertex 228.870224 -58.016655 644.030029
  endloop
 facet normal -0.011968 0.727773 0.685713
  outer loop
   vertex 229.135651 -74.153908 628.825317
   vertex 229.119766 -75.011322 629.735046
   vertex 230.508133 -75.011322 629.759277
  endloop
 facet normal -0.999848 0.000004 -0.017454
  outer loop
   vertex 228.906036 -60.193714 641.978760
   vertex 228.890152 -61.051125 642.888489
   vertex 228.854355 -58.874065 644.939697
  endloop
 facet normal 0.999848 0.000024 0.017427
  outer loop
   vertex 233.043335 -61.002529 643.226501
   vertex 233.279526 -75.204056 629.695068
   vertex 233.044724 -60.927353 643.146729
  endloop
 facet normal 0.603740 0.551915 -0.575228
  outer loop
   vertex 233.044724 -60.927353 643.146729
   vertex 233.279526 -75.204056 629.695068
   vertex 232.928940 -60.868191 643.081970
  endloop
 facet normal 0.620599 0.543111 -0.565586
  outer loop
   vertex 233.348068 -73.670486 629.158875
   vertex 233.279648 -74.469826 628.316223
   vertex 233.265778 -73.626541 629.110779
  endloop
 facet normal 0.012667 0.685821 -0.727660
  outer loop
   vertex 233.265778 -73.626541 629.110779
   vertex 233.279648 -74.469826 628.316223
   vertex 232.438156 -74.469826 628.301575
  endloop
 facet normal -0.012719 -0.685823 0.727658
  outer loop
   vertex 232.172363 -60.735210 643.527161
   vertex 233.027740 -61.578491 642.747314
   vertex 233.013870 -60.735210 643.541870
  endloop
 facet normal 0.600405 -0.543152 0.586941
  outer loop
   vertex 233.013870 -60.735210 643.541870
   vertex 233.027740 -61.578491 642.747314
   vertex 233.111649 -61.534546 642.702148
  endloop
 facet normal 0.583483 -0.551822 0.595853
  outer loop
   vertex 233.178726 -74.336838 628.772949
   vertex 233.296692 -74.277679 628.712219
   vertex 233.061874 -60.000977 642.163879
  endloop
 facet normal 0.999848 0.000025 0.017427
  outer loop
   vertex 233.061874 -60.000977 642.163879
   vertex 233.296692 -74.277679 628.712219
   vertex 233.063263 -59.925804 642.084106
  endloop
 facet normal 0.928751 -0.246009 0.277309
  outer loop
   vertex 232.509949 -75.256241 629.737061
   vertex 232.275146 -60.979538 643.188721
   vertex 232.496643 -75.279228 629.761230
  endloop
 facet normal 0.928761 -0.245993 0.277292
  outer loop
   vertex 232.496643 -75.279228 629.761230
   vertex 232.275146 -60.979538 643.188721
   vertex 232.261841 -61.002529 643.212891
  endloop
 facet normal -0.013210 -0.685819 0.727652
  outer loop
   vertex 232.261841 -61.002529 643.212891
   vertex 232.426041 -75.279228 629.759949
   vertex 232.496643 -75.279228 629.761230
  endloop
 facet normal 0.012008 -0.727793 -0.685692
  outer loop
   vertex 233.258530 -75.610352 629.526367
   vertex 233.245972 -75.447304 629.353088
   vertex 233.342438 -75.566414 629.481201
  endloop
 facet normal 0.011704 -0.727911 -0.685572
  outer loop
   vertex 233.342438 -75.566414 629.481201
   vertex 233.245972 -75.447304 629.353088
   vertex 233.344452 -75.457390 629.365479
  endloop
 facet normal 0.999848 0.000026 0.017427
  outer loop
   vertex 233.344452 -75.457390 629.365479
   vertex 233.328568 -74.723129 630.275696
   vertex 233.342438 -75.566414 629.481201
  endloop
 facet normal -0.011633 0.727760 0.685733
  outer loop
   vertex 233.034988 -59.594677 642.331787
   vertex 233.016403 -59.757729 642.504517
   vertex 233.117279 -59.638622 642.379822
  endloop
 facet normal -0.011587 0.727742 0.685753
  outer loop
   vertex 233.117279 -59.638622 642.379822
   vertex 233.016403 -59.757729 642.504517
   vertex 233.115265 -59.747643 642.495483
  endloop
 facet normal 0.999848 0.000021 0.017432
  outer loop
   vertex 233.115265 -59.747643 642.495483
   vertex 233.131149 -60.481903 641.585266
   vertex 233.117279 -59.638622 642.379822
  endloop
 facet normal -0.012009 0.727731 0.685757
  outer loop
   vertex 233.346039 -73.779510 629.274536
   vertex 233.348068 -73.670486 629.158875
   vertex 233.247177 -73.789597 629.283508
  endloop
 facet normal -0.012120 0.727775 0.685709
  outer loop
   vertex 233.247177 -73.789597 629.283508
   vertex 233.348068 -73.670486 629.158875
   vertex 233.265778 -73.626541 629.110779
  endloop
 facet normal -0.011987 0.727769 0.685718
  outer loop
   vertex 233.265778 -73.626541 629.110779
   vertex 232.424286 -73.626541 629.096069
   vertex 233.247177 -73.789597 629.283508
  endloop
 facet normal 0.012720 0.685793 -0.727686
  outer loop
   vertex 232.438156 -74.469826 628.301575
   vertex 232.424286 -73.626541 629.096069
   vertex 233.265778 -73.626541 629.110779
  endloop
 facet normal 0.583495 -0.551816 0.595847
  outer loop
   vertex 233.061874 -60.000977 642.163879
   vertex 232.943909 -60.060139 642.224609
   vertex 233.178726 -74.336838 628.772949
  endloop
 facet normal 0.999848 -0.000001 0.017455
  outer loop
   vertex 233.178726 -74.336838 628.772949
   vertex 232.943909 -60.060139 642.224609
   vertex 232.928940 -60.868191 643.081970
  endloop
 facet normal 0.999848 -0.000002 0.017456
  outer loop
   vertex 232.928940 -60.868191 643.081970
   vertex 233.163757 -75.144897 629.630249
   vertex 233.178726 -74.336838 628.772949
  endloop
 facet normal 0.603972 0.551799 -0.575097
  outer loop
   vertex 233.279526 -75.204056 629.695068
   vertex 233.163757 -75.144897 629.630249
   vertex 232.928940 -60.868191 643.081970
  endloop
 facet normal -0.012667 -0.685795 0.727685
  outer loop
   vertex 232.172363 -60.735210 643.527161
   vertex 232.186234 -61.578491 642.732666
   vertex 233.027740 -61.578491 642.747314
  endloop
 facet normal 0.011936 -0.727788 -0.685698
  outer loop
   vertex 233.027740 -61.578491 642.747314
   vertex 232.186234 -61.578491 642.732666
   vertex 233.015182 -61.415440 642.574036
  endloop
 facet normal 0.012063 -0.727783 -0.685702
  outer loop
   vertex 233.015182 -61.415440 642.574036
   vertex 233.111649 -61.534546 642.702148
   vertex 233.027740 -61.578491 642.747314
  endloop
 facet normal 0.012165 -0.727743 -0.685742
  outer loop
   vertex 233.113678 -61.425526 642.586487
   vertex 233.111649 -61.534546 642.702148
   vertex 233.015182 -61.415440 642.574036
  endloop
 facet normal -0.937990 -0.245776 0.244478
  outer loop
   vertex 232.888580 -60.979538 643.199402
   vertex 233.123383 -75.256241 629.747742
   vertex 232.901031 -61.002529 643.224060
  endloop
 facet normal -0.937698 -0.246315 0.245053
  outer loop
   vertex 232.901031 -61.002529 643.224060
   vertex 233.123383 -75.256241 629.747742
   vertex 233.135849 -75.279228 629.772339
  endloop
 facet normal -0.012484 -0.685821 0.727663
  outer loop
   vertex 233.135849 -75.279228 629.772339
   vertex 233.043335 -61.002529 643.226501
   vertex 232.901031 -61.002529 643.224060
  endloop
 facet normal -0.012797 -0.685819 0.727660
  outer loop
   vertex 233.278137 -75.279228 629.774841
   vertex 233.043335 -61.002529 643.226501
   vertex 233.135849 -75.279228 629.772339
  endloop
 facet normal 0.999848 0.000024 0.017427
  outer loop
   vertex 233.279526 -75.204056 629.695068
   vertex 233.043335 -61.002529 643.226501
   vertex 233.278137 -75.279228 629.774841
  endloop
 facet normal 0.999848 0.000001 0.017453
  outer loop
   vertex 231.808853 -59.527012 644.282959
   vertex 231.842743 -59.961853 642.341492
   vertex 231.823013 -58.762367 643.471680
  endloop
 facet normal 0.012711 0.685825 -0.727655
  outer loop
   vertex 231.823013 -58.762367 643.471680
   vertex 231.842743 -59.961853 642.341492
   vertex 230.282196 -58.762367 643.444763
  endloop
 facet normal -0.011979 0.727765 0.685722
  outer loop
   vertex 230.282196 -58.762367 643.444763
   vertex 230.268036 -59.527012 644.256042
   vertex 231.823013 -58.762367 643.471680
  endloop
 facet normal -0.999848 -0.000001 -0.017453
  outer loop
   vertex 230.301926 -59.961853 642.314575
   vertex 230.268036 -59.527012 644.256042
   vertex 230.282196 -58.762367 643.444763
  endloop
 facet normal -0.999848 -0.000003 -0.017453
  outer loop
   vertex 230.287766 -60.726498 643.125916
   vertex 230.268036 -59.527012 644.256042
   vertex 230.301926 -59.961853 642.314575
  endloop
 facet normal 0.011978 -0.727791 -0.685695
  outer loop
   vertex 230.301926 -59.961853 642.314575
   vertex 231.842743 -59.961853 642.341492
   vertex 230.287766 -60.726498 643.125916
  endloop
 facet normal 0.011952 -0.727765 -0.685722
  outer loop
   vertex 230.287766 -60.726498 643.125916
   vertex 231.842743 -59.961853 642.341492
   vertex 231.828568 -60.726498 643.152771
  endloop
 facet normal 0.999848 -0.000015 0.017456
  outer loop
   vertex 231.828568 -60.726498 643.152771
   vertex 231.842743 -59.961853 642.341492
   vertex 231.808853 -59.527012 644.282959
  endloop
 facet normal -0.012711 -0.685825 0.727655
  outer loop
   vertex 231.808853 -59.527012 644.282959
   vertex 230.268036 -59.527012 644.256042
   vertex 231.828568 -60.726498 643.152771
  endloop
 facet normal -0.011979 0.727765 0.685722
  outer loop
   vertex 231.823013 -58.762367 643.471680
   vertex 230.268036 -59.527012 644.256042
   vertex 231.808853 -59.527012 644.282959
  endloop
 facet normal -0.012711 -0.685825 0.727655
  outer loop
   vertex 232.087067 -76.442665 628.344849
   vertex 232.067337 -75.243179 629.475037
   vertex 230.546249 -76.442665 628.317932
  endloop
 facet normal -0.012711 -0.685825 0.727655
  outer loop
   vertex 230.546249 -76.442665 628.317932
   vertex 232.067337 -75.243179 629.475037
   vertex 230.526520 -75.243179 629.448120
  endloop
 facet normal -0.999848 -0.000001 -0.017453
  outer loop
   vertex 230.526520 -75.243179 629.448120
   vertex 230.560410 -75.678024 627.506653
   vertex 230.546249 -76.442665 628.317932
  endloop
 facet normal -0.999848 -0.000001 -0.017453
  outer loop
   vertex 230.540680 -74.478539 628.636841
   vertex 230.560410 -75.678024 627.506653
   vertex 230.526520 -75.243179 629.448120
  endloop
 facet normal 0.012683 0.685825 -0.727656
  outer loop
   vertex 232.081497 -74.478539 628.663696
   vertex 230.560410 -75.678024 627.506653
   vertex 230.540680 -74.478539 628.636841
  endloop
 facet normal -0.011951 0.727792 0.685693
  outer loop
   vertex 230.540680 -74.478539 628.636841
   vertex 232.067337 -75.243179 629.475037
   vertex 232.081497 -74.478539 628.663696
  endloop
 facet normal 0.999848 0.000003 0.017453
  outer loop
   vertex 232.081497 -74.478539 628.663696
   vertex 232.067337 -75.243179 629.475037
   vertex 232.101227 -75.678024 627.533569
  endloop
 facet normal 0.999848 0.000001 0.017453
  outer loop
   vertex 232.101227 -75.678024 627.533569
   vertex 232.067337 -75.243179 629.475037
   vertex 232.087067 -76.442665 628.344849
  endloop
 facet normal 0.011979 -0.727767 -0.685720
  outer loop
   vertex 232.087067 -76.442665 628.344849
   vertex 230.560410 -75.678024 627.506653
   vertex 232.101227 -75.678024 627.533569
  endloop
 facet normal 0.011979 -0.727767 -0.685720
  outer loop
   vertex 230.546249 -76.442665 628.317932
   vertex 230.560410 -75.678024 627.506653
   vertex 232.087067 -76.442665 628.344849
  endloop
 facet normal -0.999848 -0.000019 -0.017462
  outer loop
   vertex 231.186966 -57.925587 644.671753
   vertex 231.191162 -58.180305 644.431763
   vertex 231.184814 -58.523216 644.795593
  endloop
 facet normal 0.999847 0.000048 0.017490
  outer loop
   vertex 231.184814 -58.523216 644.795593
   vertex 231.191162 -58.180305 644.431763
   vertex 231.185883 -58.224400 644.733704
  endloop
 facet normal 0.999848 0.000038 0.017441
  outer loop
   vertex 231.185883 -58.224400 644.733704
   vertex 231.180618 -58.268494 645.035583
   vertex 231.184814 -58.523216 644.795593
  endloop
 facet normal 0.999848 -0.000011 0.017434
  outer loop
   vertex 231.186966 -57.925587 644.671753
   vertex 231.180618 -58.268494 645.035583
   vertex 231.185883 -58.224400 644.733704
  endloop
 facet normal -0.011972 0.727775 0.685712
  outer loop
   vertex 230.180771 -58.268494 645.018127
   vertex 231.180618 -58.268494 645.035583
   vertex 231.186966 -57.925587 644.671753
  endloop
 facet normal -0.011972 0.727775 0.685712
  outer loop
   vertex 231.186966 -57.925587 644.671753
   vertex 230.187119 -57.925587 644.654297
   vertex 230.180771 -58.268494 645.018127
  endloop
 facet normal -0.999848 -0.000007 -0.017451
  outer loop
   vertex 230.180771 -58.268494 645.018127
   vertex 230.187119 -57.925587 644.654297
   vertex 230.201126 -59.505707 643.852417
  endloop
 facet normal -0.999848 -0.000007 -0.017451
  outer loop
   vertex 230.201126 -59.505707 643.852417
   vertex 230.187119 -57.925587 644.654297
   vertex 230.207474 -59.162796 643.488586
  endloop
 facet normal 0.011969 -0.727771 -0.685716
  outer loop
   vertex 230.207474 -59.162796 643.488586
   vertex 231.207321 -59.162800 643.506042
   vertex 230.201126 -59.505707 643.852417
  endloop
 facet normal 0.012707 0.685798 -0.727681
  outer loop
   vertex 230.952362 -58.859325 643.787598
   vertex 231.207321 -59.162800 643.506042
   vertex 230.207474 -59.162796 643.488586
  endloop
 facet normal 0.012714 0.685801 -0.727678
  outer loop
   vertex 231.203125 -58.908077 643.746033
   vertex 231.207321 -59.162800 643.506042
   vertex 230.952362 -58.859325 643.787598
  endloop
 facet normal -0.012704 -0.685806 0.727674
  outer loop
   vertex 231.227982 -76.345703 627.998718
   vertex 231.472946 -76.042236 628.289001
   vertex 230.473099 -76.042236 628.271545
  endloop
 facet normal -0.011972 0.727771 0.685716
  outer loop
   vertex 230.473099 -76.042236 628.271545
   vertex 231.472946 -76.042236 628.289001
   vertex 230.479446 -75.699326 627.907715
  endloop
 facet normal -0.999848 -0.000007 -0.017451
  outer loop
   vertex 230.479446 -75.699326 627.907715
   vertex 230.493454 -77.279449 627.105835
   vertex 230.473099 -76.042236 628.271545
  endloop
 facet normal -0.999848 -0.000007 -0.017451
  outer loop
   vertex 230.499802 -76.936539 626.742004
   vertex 230.493454 -77.279449 627.105835
   vertex 230.479446 -75.699326 627.907715
  endloop
 facet normal 0.011972 -0.727771 -0.685716
  outer loop
   vertex 231.493301 -77.279449 627.123291
   vertex 230.493454 -77.279449 627.105835
   vertex 230.499802 -76.936539 626.742004
  endloop
 facet normal 0.011972 -0.727771 -0.685716
  outer loop
   vertex 230.499802 -76.936539 626.742004
   vertex 231.499649 -76.936539 626.759460
   vertex 231.493301 -77.279449 627.123291
  endloop
 facet normal 0.999848 -0.000011 0.017434
  outer loop
   vertex 231.493301 -77.279449 627.123291
   vertex 231.499649 -76.936539 626.759460
   vertex 231.494385 -76.980629 627.061340
  endloop
 facet normal 0.999848 0.000038 0.017441
  outer loop
   vertex 231.494385 -76.980629 627.061340
   vertex 231.499649 -76.936539 626.759460
   vertex 231.495453 -76.681816 626.999451
  endloop
 facet normal 0.999847 0.000048 0.017490
  outer loop
   vertex 231.495453 -76.681816 626.999451
   vertex 231.489105 -77.024727 627.363281
   vertex 231.494385 -76.980629 627.061340
  endloop
 facet normal -0.999848 -0.000019 -0.017462
  outer loop
   vertex 231.493301 -77.279449 627.123291
   vertex 231.489105 -77.024727 627.363281
   vertex 231.495453 -76.681816 626.999451
  endloop
 facet normal 0.999847 -0.000001 0.017483
  outer loop
   vertex 231.494385 -76.980629 627.061340
   vertex 231.489105 -77.024727 627.363281
   vertex 231.493301 -77.279449 627.123291
  endloop
 facet normal 0.999848 0.000025 0.017427
  outer loop
   vertex 233.296692 -74.277679 628.712219
   vertex 233.298080 -74.202507 628.632446
   vertex 233.063263 -59.925804 642.084106
  endloop
 facet normal 0.012797 0.685819 -0.727660
  outer loop
   vertex 233.063263 -59.925804 642.084106
   vertex 233.298080 -74.202507 628.632446
   vertex 233.155792 -74.202507 628.629944
  endloop
 facet normal 0.012797 0.685819 -0.727660
  outer loop
   vertex 233.155792 -74.202507 628.629944
   vertex 232.920975 -59.925804 642.081604
   vertex 233.063263 -59.925804 642.084106
  endloop
 facet normal -0.928751 0.246009 -0.277310
  outer loop
   vertex 233.142487 -74.225494 628.654114
   vertex 232.920975 -59.925804 642.081604
   vertex 233.155792 -74.202507 628.629944
  endloop
 facet normal -0.928751 0.246009 -0.277310
  outer loop
   vertex 232.907669 -59.948792 642.105774
   vertex 232.920975 -59.925804 642.081604
   vertex 233.142487 -74.225494 628.654114
  endloop
 facet normal 0.012670 0.685819 -0.727662
  outer loop
   vertex 233.142487 -74.225494 628.654114
   vertex 232.529037 -74.225494 628.643433
   vertex 232.907669 -59.948792 642.105774
  endloop
 facet normal 0.012670 0.685819 -0.727662
  outer loop
   vertex 232.907669 -59.948792 642.105774
   vertex 232.529037 -74.225494 628.643433
   vertex 232.294235 -59.948792 642.095093
  endloop
 facet normal 0.937981 0.245793 -0.244496
  outer loop
   vertex 232.294235 -59.948792 642.095093
   vertex 232.529037 -74.225494 628.643433
   vertex 232.516586 -74.202507 628.618774
  endloop
 facet normal 0.937843 0.246048 -0.244768
  outer loop
   vertex 232.516586 -74.202507 628.618774
   vertex 232.281769 -59.925804 642.070435
   vertex 232.294235 -59.948792 642.095093
  endloop
 facet normal 0.012581 0.685819 -0.727663
  outer loop
   vertex 232.445984 -74.202507 628.617554
   vertex 232.281769 -59.925804 642.070435
   vertex 232.516586 -74.202507 628.618774
  endloop
 facet normal 0.012581 0.685819 -0.727663
  outer loop
   vertex 232.211166 -59.925804 642.069214
   vertex 232.281769 -59.925804 642.070435
   vertex 232.445984 -74.202507 628.617554
  endloop
 facet normal -0.999848 0.000000 -0.017454
  outer loop
   vertex 232.445984 -74.202507 628.617554
   vertex 232.426041 -75.279228 629.759949
   vertex 232.211166 -59.925804 642.069214
  endloop
 facet normal -0.999848 0.000000 -0.017454
  outer loop
   vertex 232.211166 -59.925804 642.069214
   vertex 232.426041 -75.279228 629.759949
   vertex 232.191223 -61.002529 643.211670
  endloop
 facet normal -0.012578 -0.685821 0.727662
  outer loop
   vertex 232.191223 -61.002529 643.211670
   vertex 232.426041 -75.279228 629.759949
   vertex 232.261841 -61.002529 643.212891
  endloop
 facet normal -0.012704 -0.685801 0.727678
  outer loop
   vertex 230.946014 -59.202236 644.151428
   vertex 230.201126 -59.505707 643.852417
   vertex 231.200974 -59.505707 643.869873
  endloop
 facet normal 0.011972 -0.727775 -0.685712
  outer loop
   vertex 231.200974 -59.505707 643.869873
   vertex 230.201126 -59.505707 643.852417
   vertex 231.207321 -59.162800 643.506042
  endloop
 facet normal 0.999848 0.000019 0.017462
  outer loop
   vertex 231.207321 -59.162800 643.506042
   vertex 231.196777 -59.250988 644.109863
   vertex 231.200974 -59.505707 643.869873
  endloop
 facet normal 0.999848 0.000019 0.017462
  outer loop
   vertex 231.203125 -58.908077 643.746033
   vertex 231.196777 -59.250988 644.109863
   vertex 231.207321 -59.162800 643.506042
  endloop
 facet normal -0.999848 -0.000019 -0.017462
  outer loop
   vertex 231.207321 -59.162800 643.506042
   vertex 231.196777 -59.250988 644.109863
   vertex 231.203125 -58.908077 643.746033
  endloop
 facet normal 0.012695 0.685801 -0.727678
  outer loop
   vertex 231.203125 -58.908077 643.746033
   vertex 231.452286 -58.859325 643.796326
   vertex 231.207321 -59.162800 643.506042
  endloop
 facet normal 0.012720 0.685790 -0.727688
  outer loop
   vertex 231.207321 -59.162800 643.506042
   vertex 231.452286 -58.859325 643.796326
   vertex 231.630890 -59.079922 643.591553
  endloop
 facet normal 0.012823 0.685834 -0.727645
  outer loop
   vertex 231.630890 -59.079922 643.591553
   vertex 231.452286 -58.859325 643.796326
   vertex 231.633087 -58.726135 643.925049
  endloop
 facet normal 0.012622 0.685836 -0.727647
  outer loop
   vertex 231.633087 -58.726135 643.925049
   vertex 231.938248 -58.853493 643.810303
   vertex 231.630890 -59.079922 643.591553
  endloop
 facet normal 0.012636 0.685854 -0.727629
  outer loop
   vertex 231.697067 -58.544193 644.097656
   vertex 231.938248 -58.853493 643.810303
   vertex 231.633087 -58.726135 643.925049
  endloop
 facet normal 0.012690 0.685876 -0.727607
  outer loop
   vertex 232.047012 -58.544193 644.103760
   vertex 231.938248 -58.853493 643.810303
   vertex 231.697067 -58.544193 644.097656
  endloop
 facet normal 0.012693 0.685742 -0.727734
  outer loop
   vertex 231.697067 -58.544193 644.097656
   vertex 231.627106 -58.362247 644.267883
   vertex 232.047012 -58.544193 644.103760
  endloop
 facet normal 0.012745 0.685807 -0.727672
  outer loop
   vertex 232.047012 -58.544193 644.103760
   vertex 231.627106 -58.362247 644.267883
   vertex 231.928070 -58.234886 644.393188
  endloop
 facet normal 0.012700 0.685863 -0.727620
  outer loop
   vertex 231.928070 -58.234886 644.393188
   vertex 231.627106 -58.362247 644.267883
   vertex 231.441925 -58.229057 644.390198
  endloop
 facet normal 0.012699 0.685775 -0.727703
  outer loop
   vertex 231.441925 -58.229057 644.390198
   vertex 231.613266 -58.008461 644.601074
   vertex 231.928070 -58.234886 644.393188
  endloop
 facet normal 0.012704 0.685773 -0.727704
  outer loop
   vertex 231.191162 -58.180305 644.431763
   vertex 231.613266 -58.008461 644.601074
   vertex 231.441925 -58.229057 644.390198
  endloop
 facet normal 0.012678 0.685806 -0.727674
  outer loop
   vertex 231.186966 -57.925587 644.671753
   vertex 231.613266 -58.008461 644.601074
   vertex 231.191162 -58.180305 644.431763
  endloop
 facet normal 0.012693 0.685806 -0.727673
  outer loop
   vertex 231.191162 -58.180305 644.431763
   vertex 230.942001 -58.229057 644.381470
   vertex 231.186966 -57.925587 644.671753
  endloop
 facet normal 0.012704 0.685801 -0.727678
  outer loop
   vertex 231.186966 -57.925587 644.671753
   vertex 230.942001 -58.229057 644.381470
   vertex 230.187119 -57.925587 644.654297
  endloop
 facet normal 0.012677 0.685765 -0.727713
  outer loop
   vertex 230.187119 -57.925587 644.654297
   vertex 230.942001 -58.229057 644.381470
   vertex 230.761200 -58.362247 644.252808
  endloop
 facet normal 0.012760 0.685823 -0.727657
  outer loop
   vertex 230.761200 -58.362247 644.252808
   vertex 230.697220 -58.544193 644.080200
   vertex 230.187119 -57.925587 644.654297
  endloop
 facet normal 0.012704 0.685797 -0.727682
  outer loop
   vertex 231.234329 -76.002800 627.634888
   vertex 230.479446 -75.699326 627.907715
   vertex 231.479294 -75.699326 627.925171
  endloop
 facet normal -0.011972 0.727771 0.685716
  outer loop
   vertex 231.479294 -75.699326 627.925171
   vertex 230.479446 -75.699326 627.907715
   vertex 231.472946 -76.042236 628.289001
  endloop
 facet normal 0.999848 0.000019 0.017462
  outer loop
   vertex 231.472946 -76.042236 628.289001
   vertex 231.483490 -75.954048 627.685181
   vertex 231.479294 -75.699326 627.925171
  endloop
 facet normal 0.999848 0.000019 0.017462
  outer loop
   vertex 231.477142 -76.296951 628.049011
   vertex 231.483490 -75.954048 627.685181
   vertex 231.472946 -76.042236 628.289001
  endloop
 facet normal -0.999848 -0.000019 -0.017462
  outer loop
   vertex 231.472946 -76.042236 628.289001
   vertex 231.483490 -75.954048 627.685181
   vertex 231.477142 -76.296951 628.049011
  endloop
 facet normal -0.012540 -0.685812 0.727671
  outer loop
   vertex 231.477142 -76.296951 628.049011
   vertex 231.727905 -76.345703 628.007385
   vertex 231.472946 -76.042236 628.289001
  endloop
 facet normal -0.012713 -0.685888 0.727596
  outer loop
   vertex 231.472946 -76.042236 628.289001
   vertex 231.727905 -76.345703 628.007385
   vertex 231.899246 -76.125114 628.218323
  endloop
 facet normal -0.012891 -0.685814 0.727663
  outer loop
   vertex 231.899246 -76.125114 628.218323
   vertex 231.727905 -76.345703 628.007385
   vertex 231.913071 -76.478897 627.885132
  endloop
 facet normal -0.012604 -0.685810 0.727671
  outer loop
   vertex 231.913071 -76.478897 627.885132
   vertex 232.214050 -76.351540 628.010376
   vertex 231.899246 -76.125114 628.218323
  endloop
 facet normal -0.012572 -0.685849 0.727635
  outer loop
   vertex 231.983047 -76.660843 627.714844
   vertex 232.214050 -76.351540 628.010376
   vertex 231.913071 -76.478897 627.885132
  endloop
 facet normal -0.012692 -0.685801 0.727678
  outer loop
   vertex 232.332993 -76.660843 627.720947
   vertex 232.214050 -76.351540 628.010376
   vertex 231.983047 -76.660843 627.714844
  endloop
 facet normal -0.012691 -0.685851 0.727631
  outer loop
   vertex 231.983047 -76.660843 627.714844
   vertex 231.919067 -76.842781 627.542236
   vertex 232.332993 -76.660843 627.720947
  endloop
 facet normal -0.012746 -0.685785 0.727692
  outer loop
   vertex 232.332993 -76.660843 627.720947
   vertex 231.919067 -76.842781 627.542236
   vertex 232.224228 -76.970146 627.427551
  endloop
 facet normal -0.012706 -0.685733 0.727742
  outer loop
   vertex 232.224228 -76.970146 627.427551
   vertex 231.919067 -76.842781 627.542236
   vertex 231.738266 -76.975975 627.413574
  endloop
 facet normal -0.012704 -0.685783 0.727695
  outer loop
   vertex 231.738266 -76.975975 627.413574
   vertex 231.916870 -77.196571 627.208801
   vertex 232.224228 -76.970146 627.427551
  endloop
 facet normal -0.012702 -0.685782 0.727696
  outer loop
   vertex 231.489105 -77.024727 627.363281
   vertex 231.916870 -77.196571 627.208801
   vertex 231.738266 -76.975975 627.413574
  endloop
 facet normal -0.012716 -0.685801 0.727678
  outer loop
   vertex 231.493301 -77.279449 627.123291
   vertex 231.916870 -77.196571 627.208801
   vertex 231.489105 -77.024727 627.363281
  endloop
 facet normal -0.012714 -0.685801 0.727678
  outer loop
   vertex 231.489105 -77.024727 627.363281
   vertex 231.238342 -76.975975 627.404846
   vertex 231.493301 -77.279449 627.123291
  endloop
 facet normal -0.012704 -0.685797 0.727682
  outer loop
   vertex 231.493301 -77.279449 627.123291
   vertex 231.238342 -76.975975 627.404846
   vertex 230.493454 -77.279449 627.105835
  endloop
 facet normal -0.012675 -0.685834 0.727647
  outer loop
   vertex 230.493454 -77.279449 627.105835
   vertex 231.238342 -76.975975 627.404846
   vertex 231.053162 -76.842781 627.527161
  endloop
 facet normal -0.012767 -0.685772 0.727704
  outer loop
   vertex 231.053162 -76.842781 627.527161
   vertex 230.983200 -76.660843 627.697388
   vertex 230.493454 -77.279449 627.105835
  endloop
 facet normal -0.443992 0.610563 -0.655808
  outer loop
   vertex 232.438156 -74.469826 628.301575
   vertex 231.943771 -74.642166 628.475830
   vertex 232.424286 -73.626541 629.096069
  endloop
 facet normal -0.444065 0.610565 -0.655756
  outer loop
   vertex 232.424286 -73.626541 629.096069
   vertex 231.943771 -74.642166 628.475830
   vertex 231.929901 -73.798889 629.270386
  endloop
 facet normal -0.011940 0.727784 0.685702
  outer loop
   vertex 231.929901 -73.798889 629.270386
   vertex 231.915161 -74.594727 630.114807
   vertex 232.424286 -73.626541 629.096069
  endloop
 facet normal -0.999848 -0.000000 -0.017453
  outer loop
   vertex 231.943771 -74.642166 628.475830
   vertex 231.915161 -74.594727 630.114807
   vertex 231.929901 -73.798889 629.270386
  endloop
 facet normal -0.999848 -0.000000 -0.017453
  outer loop
   vertex 231.929031 -75.438011 629.320251
   vertex 231.915161 -74.594727 630.114807
   vertex 231.943771 -74.642166 628.475830
  endloop
 facet normal 0.011931 -0.727781 -0.685706
  outer loop
   vertex 231.943771 -74.642166 628.475830
   vertex 232.417023 -75.610352 629.511658
   vertex 231.929031 -75.438011 629.320251
  endloop
 facet normal -0.466620 -0.610584 0.639885
  outer loop
   vertex 231.929031 -75.438011 629.320251
   vertex 232.417023 -75.610352 629.511658
   vertex 231.915161 -74.594727 630.114807
  endloop
 facet normal -0.466627 -0.610585 0.639879
  outer loop
   vertex 231.915161 -74.594727 630.114807
   vertex 232.417023 -75.610352 629.511658
   vertex 232.403152 -74.767075 630.306213
  endloop
 facet normal -0.011921 0.727780 0.685708
  outer loop
   vertex 232.403152 -74.767075 630.306213
   vertex 232.424286 -73.626541 629.096069
   vertex 231.915161 -74.594727 630.114807
  endloop
 facet normal -0.011980 0.727780 0.685707
  outer loop
   vertex 233.232101 -74.604027 630.147644
   vertex 232.424286 -73.626541 629.096069
   vertex 232.403152 -74.767075 630.306213
  endloop
 facet normal -0.011982 0.727779 0.685707
  outer loop
   vertex 233.247177 -73.789597 629.283508
   vertex 232.424286 -73.626541 629.096069
   vertex 233.232101 -74.604027 630.147644
  endloop
 facet normal 0.999848 0.000005 0.017448
  outer loop
   vertex 233.232101 -74.604027 630.147644
   vertex 233.261047 -74.632874 628.488953
   vertex 233.247177 -73.789597 629.283508
  endloop
 facet normal 0.134756 -0.678339 0.722286
  outer loop
   vertex 233.247177 -73.789597 629.283508
   vertex 233.261047 -74.632874 628.488953
   vertex 233.346039 -73.779510 629.274536
  endloop
 facet normal 0.134756 -0.678339 0.722286
  outer loop
   vertex 233.346039 -73.779510 629.274536
   vertex 233.261047 -74.632874 628.488953
   vertex 233.359909 -74.622787 628.479980
  endloop
 facet normal 0.999847 -0.000045 0.017501
  outer loop
   vertex 233.359909 -74.622787 628.479980
   vertex 233.348068 -73.670486 629.158875
   vertex 233.346039 -73.779510 629.274536
  endloop
 facet normal 0.999847 -0.000045 0.017501
  outer loop
   vertex 233.361938 -74.513771 628.364319
   vertex 233.348068 -73.670486 629.158875
   vertex 233.359909 -74.622787 628.479980
  endloop
 facet normal 0.620599 0.543111 -0.565586
  outer loop
   vertex 233.279648 -74.469826 628.316223
   vertex 233.348068 -73.670486 629.158875
   vertex 233.361938 -74.513771 628.364319
  endloop
 facet normal 0.012103 -0.727790 -0.685693
  outer loop
   vertex 233.361938 -74.513771 628.364319
   vertex 233.261047 -74.632874 628.488953
   vertex 233.279648 -74.469826 628.316223
  endloop
 facet normal 0.011937 -0.727783 -0.685704
  outer loop
   vertex 233.279648 -74.469826 628.316223
   vertex 233.261047 -74.632874 628.488953
   vertex 232.438156 -74.469826 628.301575
  endloop
 facet normal 0.011938 -0.727779 -0.685708
  outer loop
   vertex 232.438156 -74.469826 628.301575
   vertex 233.261047 -74.632874 628.488953
   vertex 233.245972 -75.447304 629.353088
  endloop
 facet normal 0.011974 -0.727765 -0.685723
  outer loop
   vertex 233.245972 -75.447304 629.353088
   vertex 232.417023 -75.610352 629.511658
   vertex 232.438156 -74.469826 628.301575
  endloop
 facet normal 0.011986 -0.727794 -0.685691
  outer loop
   vertex 233.258530 -75.610352 629.526367
   vertex 232.417023 -75.610352 629.511658
   vertex 233.245972 -75.447304 629.353088
  endloop
 facet normal -0.012719 -0.685824 0.727656
  outer loop
   vertex 232.403152 -74.767075 630.306213
   vertex 232.417023 -75.610352 629.511658
   vertex 233.258530 -75.610352 629.526367
  endloop
 facet normal -0.012719 -0.685824 0.727656
  outer loop
   vertex 233.258530 -75.610352 629.526367
   vertex 233.244659 -74.767075 630.320923
   vertex 232.403152 -74.767075 630.306213
  endloop
 facet normal -0.011986 0.727794 0.685691
  outer loop
   vertex 232.403152 -74.767075 630.306213
   vertex 233.244659 -74.767075 630.320923
   vertex 233.232101 -74.604027 630.147644
  endloop
 facet normal -0.011592 0.727812 0.685679
  outer loop
   vertex 233.232101 -74.604027 630.147644
   vertex 233.244659 -74.767075 630.320923
   vertex 233.328568 -74.723129 630.275696
  endloop
 facet normal -0.011802 0.727730 0.685762
  outer loop
   vertex 233.328568 -74.723129 630.275696
   vertex 233.330582 -74.614105 630.160034
   vertex 233.232101 -74.604027 630.147644
  endloop
 facet normal 0.999848 0.000021 0.017432
  outer loop
   vertex 233.344452 -75.457390 629.365479
   vertex 233.330582 -74.614105 630.160034
   vertex 233.328568 -74.723129 630.275696
  endloop
 facet normal 0.159653 0.678359 -0.717175
  outer loop
   vertex 233.232101 -74.604027 630.147644
   vertex 233.330582 -74.614105 630.160034
   vertex 233.344452 -75.457390 629.365479
  endloop
 facet normal 0.159704 0.678357 -0.717165
  outer loop
   vertex 233.344452 -75.457390 629.365479
   vertex 233.245972 -75.447304 629.353088
   vertex 233.232101 -74.604027 630.147644
  endloop
 facet normal 0.999848 0.000005 0.017448
  outer loop
   vertex 233.232101 -74.604027 630.147644
   vertex 233.245972 -75.447304 629.353088
   vertex 233.261047 -74.632874 628.488953
  endloop
 facet normal -0.466624 -0.610560 0.639905
  outer loop
   vertex 232.172363 -60.735210 643.527161
   vertex 231.684372 -60.562866 643.335754
   vertex 232.186234 -61.578491 642.732666
  endloop
 facet normal -0.466686 -0.610562 0.639858
  outer loop
   vertex 232.186234 -61.578491 642.732666
   vertex 231.684372 -60.562866 643.335754
   vertex 231.698242 -61.406147 642.541199
  endloop
 facet normal 0.012030 -0.727756 -0.685731
  outer loop
   vertex 231.698242 -61.406147 642.541199
   vertex 231.712982 -60.610302 641.696838
   vertex 232.186234 -61.578491 642.732666
  endloop
 facet normal -0.999848 0.000000 -0.017454
  outer loop
   vertex 231.684372 -60.562866 643.335754
   vertex 231.712982 -60.610302 641.696838
   vertex 231.698242 -61.406147 642.541199
  endloop
 facet normal -0.999848 -0.000001 -0.017454
  outer loop
   vertex 231.699112 -59.767021 642.491333
   vertex 231.712982 -60.610302 641.696838
   vertex 231.684372 -60.562866 643.335754
  endloop
 facet normal -0.012017 0.727781 0.685705
  outer loop
   vertex 231.684372 -60.562866 643.335754
   vertex 232.193497 -59.594677 642.317078
   vertex 231.699112 -59.767021 642.491333
  endloop
 facet normal -0.443996 0.610563 -0.655806
  outer loop
   vertex 231.699112 -59.767021 642.491333
   vertex 232.193497 -59.594677 642.317078
   vertex 231.712982 -60.610302 641.696838
  endloop
 facet normal -0.444061 0.610565 -0.655759
  outer loop
   vertex 231.712982 -60.610302 641.696838
   vertex 232.193497 -59.594677 642.317078
   vertex 232.207367 -60.437958 641.522522
  endloop
 facet normal 0.011931 -0.727780 -0.685707
  outer loop
   vertex 232.207367 -60.437958 641.522522
   vertex 232.186234 -61.578491 642.732666
   vertex 231.712982 -60.610302 641.696838
  endloop
 facet normal 0.011985 -0.727780 -0.685706
  outer loop
   vertex 233.030273 -60.601009 641.709961
   vertex 232.186234 -61.578491 642.732666
   vertex 232.207367 -60.437958 641.522522
  endloop
 facet normal 0.011923 -0.727755 -0.685734
  outer loop
   vertex 233.015182 -61.415440 642.574036
   vertex 232.186234 -61.578491 642.732666
   vertex 233.030273 -60.601009 641.709961
  endloop
 facet normal 0.999848 -0.000004 0.017458
  outer loop
   vertex 233.030273 -60.601009 641.709961
   vertex 233.001312 -60.572159 643.368591
   vertex 233.015182 -61.415440 642.574036
  endloop
 facet normal 0.160113 0.678314 -0.717115
  outer loop
   vertex 233.015182 -61.415440 642.574036
   vertex 233.001312 -60.572159 643.368591
   vertex 233.113678 -61.425526 642.586487
  endloop
 facet normal 0.160113 0.678314 -0.717115
  outer loop
   vertex 233.113678 -61.425526 642.586487
   vertex 233.001312 -60.572159 643.368591
   vertex 233.099808 -60.582245 643.381042
  endloop
 facet normal 0.999847 -0.000045 0.017501
  outer loop
   vertex 233.099808 -60.582245 643.381042
   vertex 233.111649 -61.534546 642.702148
   vertex 233.113678 -61.425526 642.586487
  endloop
 facet normal 0.999847 -0.000045 0.017501
  outer loop
   vertex 233.097778 -60.691265 643.496704
   vertex 233.111649 -61.534546 642.702148
   vertex 233.099808 -60.582245 643.381042
  endloop
 facet normal 0.600405 -0.543152 0.586941
  outer loop
   vertex 233.013870 -60.735210 643.541870
   vertex 233.111649 -61.534546 642.702148
   vertex 233.097778 -60.691265 643.496704
  endloop
 facet normal -0.012063 0.727783 0.685702
  outer loop
   vertex 233.097778 -60.691265 643.496704
   vertex 233.001312 -60.572159 643.368591
   vertex 233.013870 -60.735210 643.541870
  endloop
 facet normal -0.011986 0.727786 0.685700
  outer loop
   vertex 233.013870 -60.735210 643.541870
   vertex 233.001312 -60.572159 643.368591
   vertex 232.172363 -60.735210 643.527161
  endloop
 facet normal -0.011973 0.727755 0.685733
  outer loop
   vertex 232.172363 -60.735210 643.527161
   vertex 233.001312 -60.572159 643.368591
   vertex 233.016403 -59.757729 642.504517
  endloop
 facet normal -0.011993 0.727762 0.685725
  outer loop
   vertex 233.016403 -59.757729 642.504517
   vertex 232.193497 -59.594677 642.317078
   vertex 232.172363 -60.735210 643.527161
  endloop
 facet normal -0.011986 0.727776 0.685710
  outer loop
   vertex 233.034988 -59.594677 642.331787
   vertex 232.193497 -59.594677 642.317078
   vertex 233.016403 -59.757729 642.504517
  endloop
 facet normal 0.012720 0.685823 -0.727658
  outer loop
   vertex 232.207367 -60.437958 641.522522
   vertex 232.193497 -59.594677 642.317078
   vertex 233.034988 -59.594677 642.331787
  endloop
 facet normal 0.012720 0.685823 -0.727658
  outer loop
   vertex 233.034988 -59.594677 642.331787
   vertex 233.048859 -60.437958 641.537231
   vertex 232.207367 -60.437958 641.522522
  endloop
 facet normal 0.011986 -0.727776 -0.685710
  outer loop
   vertex 232.207367 -60.437958 641.522522
   vertex 233.048859 -60.437958 641.537231
   vertex 233.030273 -60.601009 641.709961
  endloop
 facet normal 0.011633 -0.727760 -0.685733
  outer loop
   vertex 233.030273 -60.601009 641.709961
   vertex 233.048859 -60.437958 641.537231
   vertex 233.131149 -60.481903 641.585266
  endloop
 facet normal 0.012047 -0.727923 -0.685553
  outer loop
   vertex 233.131149 -60.481903 641.585266
   vertex 233.129135 -60.590923 641.700989
   vertex 233.030273 -60.601009 641.709961
  endloop
 facet normal 0.999848 0.000026 0.017427
  outer loop
   vertex 233.115265 -59.747643 642.495483
   vertex 233.129135 -60.590923 641.700989
   vertex 233.131149 -60.481903 641.585266
  endloop
 facet normal 0.134756 -0.678309 0.722314
  outer loop
   vertex 233.030273 -60.601009 641.709961
   vertex 233.129135 -60.590923 641.700989
   vertex 233.115265 -59.747643 642.495483
  endloop
 facet normal 0.135194 -0.678292 0.722248
  outer loop
   vertex 233.115265 -59.747643 642.495483
   vertex 233.016403 -59.757729 642.504517
   vertex 233.030273 -60.601009 641.709961
  endloop
 facet normal 0.999848 -0.000004 0.017458
  outer loop
   vertex 233.030273 -60.601009 641.709961
   vertex 233.016403 -59.757729 642.504517
   vertex 233.001312 -60.572159 643.368591
  endloop
 facet normal 0.012536 0.685801 -0.727681
  outer loop
   vertex 231.483490 -75.954048 627.685181
   vertex 231.479294 -75.699326 627.925171
   vertex 231.734253 -76.002800 627.643555
  endloop
 facet normal 0.012709 0.685877 -0.727607
  outer loop
   vertex 231.734253 -76.002800 627.643555
   vertex 231.479294 -75.699326 627.925171
   vertex 231.905594 -75.782204 627.854492
  endloop
 facet normal 0.012861 0.685814 -0.727664
  outer loop
   vertex 231.905594 -75.782204 627.854492
   vertex 231.919434 -76.135986 627.521301
   vertex 231.734253 -76.002800 627.643555
  endloop
 facet normal 0.012604 0.685810 -0.727671
  outer loop
   vertex 232.220398 -76.008629 627.646545
   vertex 231.919434 -76.135986 627.521301
   vertex 231.905594 -75.782204 627.854492
  endloop
 facet normal 0.012573 0.685849 -0.727635
  outer loop
   vertex 231.989395 -76.317932 627.351013
   vertex 231.919434 -76.135986 627.521301
   vertex 232.220398 -76.008629 627.646545
  endloop
 facet normal 0.012692 0.685801 -0.727678
  outer loop
   vertex 232.220398 -76.008629 627.646545
   vertex 232.339340 -76.317932 627.357117
   vertex 231.989395 -76.317932 627.351013
  endloop
 facet normal 0.012691 0.685836 -0.727645
  outer loop
   vertex 231.989395 -76.317932 627.351013
   vertex 232.339340 -76.317932 627.357117
   vertex 231.925415 -76.499878 627.178406
  endloop
 facet normal 0.012731 0.685788 -0.727690
  outer loop
   vertex 231.925415 -76.499878 627.178406
   vertex 232.339340 -76.317932 627.357117
   vertex 232.230576 -76.627235 627.063721
  endloop
 facet normal 0.012705 0.685755 -0.727722
  outer loop
   vertex 232.230576 -76.627235 627.063721
   vertex 231.744614 -76.633064 627.049744
   vertex 231.925415 -76.499878 627.178406
  endloop
 facet normal 0.012704 0.685783 -0.727695
  outer loop
   vertex 231.923218 -76.853661 626.844971
   vertex 231.744614 -76.633064 627.049744
   vertex 232.230576 -76.627235 627.063721
  endloop
 facet normal 0.012702 0.685782 -0.727696
  outer loop
   vertex 231.495453 -76.681816 626.999451
   vertex 231.744614 -76.633064 627.049744
   vertex 231.923218 -76.853661 626.844971
  endloop
 facet normal 0.012716 0.685801 -0.727678
  outer loop
   vertex 231.923218 -76.853661 626.844971
   vertex 231.499649 -76.936539 626.759460
   vertex 231.495453 -76.681816 626.999451
  endloop
 facet normal 0.012714 0.685801 -0.727678
  outer loop
   vertex 231.495453 -76.681816 626.999451
   vertex 231.499649 -76.936539 626.759460
   vertex 231.244690 -76.633064 627.041016
  endloop
 facet normal 0.012704 0.685797 -0.727682
  outer loop
   vertex 231.244690 -76.633064 627.041016
   vertex 231.499649 -76.936539 626.759460
   vertex 230.499802 -76.936539 626.742004
  endloop
 facet normal 0.012665 0.685847 -0.727635
  outer loop
   vertex 230.499802 -76.936539 626.742004
   vertex 231.059525 -76.499878 627.163330
   vertex 231.244690 -76.633064 627.041016
  endloop
 facet normal 0.012790 0.685762 -0.727713
  outer loop
   vertex 230.989548 -76.317932 627.333557
   vertex 231.059525 -76.499878 627.163330
   vertex 230.499802 -76.936539 626.742004
  endloop
 facet normal -0.012693 -0.685806 0.727673
  outer loop
   vertex 231.196777 -59.250988 644.109863
   vertex 231.200974 -59.505707 643.869873
   vertex 231.445938 -59.202236 644.160156
  endloop
 facet normal -0.012718 -0.685795 0.727683
  outer loop
   vertex 231.445938 -59.202236 644.160156
   vertex 231.200974 -59.505707 643.869873
   vertex 231.624542 -59.422829 643.955383
  endloop
 facet normal -0.012818 -0.685838 0.727642
  outer loop
   vertex 231.624542 -59.422829 643.955383
   vertex 231.626740 -59.069046 644.288879
   vertex 231.445938 -59.202236 644.160156
  endloop
 facet normal -0.012626 -0.685840 0.727643
  outer loop
   vertex 231.931885 -59.196404 644.174133
   vertex 231.626740 -59.069046 644.288879
   vertex 231.624542 -59.422829 643.955383
  endloop
 facet normal -0.012632 -0.685848 0.727635
  outer loop
   vertex 231.690720 -58.887100 644.461487
   vertex 231.626740 -59.069046 644.288879
   vertex 231.931885 -59.196404 644.174133
  endloop
 facet normal -0.012691 -0.685872 0.727612
  outer loop
   vertex 231.931885 -59.196404 644.174133
   vertex 232.040665 -58.887100 644.467590
   vertex 231.690720 -58.887100 644.461487
  endloop
 facet normal -0.012693 -0.685751 0.727726
  outer loop
   vertex 231.690720 -58.887100 644.461487
   vertex 232.040665 -58.887100 644.467590
   vertex 231.620743 -58.705158 644.631714
  endloop
 facet normal -0.012741 -0.685811 0.727668
  outer loop
   vertex 231.620743 -58.705158 644.631714
   vertex 232.040665 -58.887100 644.467590
   vertex 231.921722 -58.577797 644.757019
  endloop
 facet normal -0.012700 -0.685862 0.727621
  outer loop
   vertex 231.921722 -58.577797 644.757019
   vertex 231.435577 -58.571968 644.754028
   vertex 231.620743 -58.705158 644.631714
  endloop
 facet normal -0.012699 -0.685775 0.727703
  outer loop
   vertex 231.606918 -58.351372 644.964905
   vertex 231.435577 -58.571968 644.754028
   vertex 231.921722 -58.577797 644.757019
  endloop
 facet normal -0.012704 -0.685773 0.727704
  outer loop
   vertex 231.184814 -58.523216 644.795593
   vertex 231.435577 -58.571968 644.754028
   vertex 231.606918 -58.351372 644.964905
  endloop
 facet normal -0.012682 -0.685801 0.727679
  outer loop
   vertex 231.606918 -58.351372 644.964905
   vertex 231.180618 -58.268494 645.035583
   vertex 231.184814 -58.523216 644.795593
  endloop
 facet normal -0.012695 -0.685801 0.727678
  outer loop
   vertex 231.184814 -58.523216 644.795593
   vertex 231.180618 -58.268494 645.035583
   vertex 230.935654 -58.571968 644.745300
  endloop
 facet normal -0.012704 -0.685797 0.727682
  outer loop
   vertex 230.935654 -58.571968 644.745300
   vertex 231.180618 -58.268494 645.035583
   vertex 230.180771 -58.268494 645.018127
  endloop
 facet normal -0.012679 -0.685763 0.727714
  outer loop
   vertex 230.180771 -58.268494 645.018127
   vertex 230.754852 -58.705158 644.616638
   vertex 230.935654 -58.571968 644.745300
  endloop
 facet normal -0.012772 -0.685828 0.727652
  outer loop
   vertex 230.690872 -58.887100 644.444031
   vertex 230.754852 -58.705158 644.616638
   vertex 230.180771 -58.268494 645.018127
  endloop
 facet normal -0.012660 -0.685818 0.727663
  outer loop
   vertex 230.493454 -77.279449 627.105835
   vertex 230.983200 -76.660843 627.697388
   vertex 230.473099 -76.042236 628.271545
  endloop
 facet normal -0.012699 -0.685835 0.727647
  outer loop
   vertex 230.473099 -76.042236 628.271545
   vertex 230.983200 -76.660843 627.697388
   vertex 231.047180 -76.478897 627.869995
  endloop
 facet normal -0.012754 -0.685873 0.727609
  outer loop
   vertex 231.047180 -76.478897 627.869995
   vertex 231.227982 -76.345703 627.998718
   vertex 230.473099 -76.042236 628.271545
  endloop
 facet normal -0.012677 -0.685836 0.727646
  outer loop
   vertex 230.946014 -59.202236 644.151428
   vertex 230.760834 -59.069042 644.273743
   vertex 230.201126 -59.505707 643.852417
  endloop
 facet normal -0.012631 -0.685868 0.727617
  outer loop
   vertex 230.201126 -59.505707 643.852417
   vertex 230.760834 -59.069042 644.273743
   vertex 230.690872 -58.887100 644.444031
  endloop
 facet normal -0.012748 -0.685818 0.727662
  outer loop
   vertex 230.690872 -58.887100 644.444031
   vertex 230.180771 -58.268494 645.018127
   vertex 230.201126 -59.505707 643.852417
  endloop
 facet normal 0.012751 0.685819 -0.727661
  outer loop
   vertex 230.187119 -57.925587 644.654297
   vertex 230.697220 -58.544193 644.080200
   vertex 230.207474 -59.162796 643.488586
  endloop
 facet normal 0.012633 0.685869 -0.727616
  outer loop
   vertex 230.207474 -59.162796 643.488586
   vertex 230.697220 -58.544193 644.080200
   vertex 230.767197 -58.726135 643.909912
  endloop
 facet normal 0.012673 0.685842 -0.727640
  outer loop
   vertex 230.767197 -58.726135 643.909912
   vertex 230.952362 -58.859325 643.787598
   vertex 230.207474 -59.162796 643.488586
  endloop
 facet normal 0.012769 0.685883 -0.727600
  outer loop
   vertex 231.234329 -76.002800 627.634888
   vertex 231.053528 -76.135986 627.506165
   vertex 230.479446 -75.699326 627.907715
  endloop
 facet normal 0.012699 0.685835 -0.727647
  outer loop
   vertex 230.479446 -75.699326 627.907715
   vertex 231.053528 -76.135986 627.506165
   vertex 230.989548 -76.317932 627.333557
  endloop
 facet normal 0.012660 0.685818 -0.727663
  outer loop
   vertex 230.989548 -76.317932 627.333557
   vertex 230.499802 -76.936539 626.742004
   vertex 230.479446 -75.699326 627.907715
  endloop
 facet normal 0.620341 0.543250 -0.565735
  outer loop
   vertex 233.034988 -59.594677 642.331787
   vertex 233.117279 -59.638622 642.379822
   vertex 233.048859 -60.437958 641.537231
  endloop
 facet normal 0.620341 0.543250 -0.565735
  outer loop
   vertex 233.048859 -60.437958 641.537231
   vertex 233.117279 -59.638622 642.379822
   vertex 233.131149 -60.481903 641.585266
  endloop
 facet normal -0.012670 -0.685819 0.727662
  outer loop
   vertex 232.509949 -75.256241 629.737061
   vertex 233.123383 -75.256241 629.747742
   vertex 232.275146 -60.979538 643.188721
  endloop
 facet normal -0.012670 -0.685819 0.727662
  outer loop
   vertex 232.275146 -60.979538 643.188721
   vertex 233.123383 -75.256241 629.747742
   vertex 232.888580 -60.979538 643.199402
  endloop
 facet normal 0.600677 -0.542985 0.586817
  outer loop
   vertex 233.328568 -74.723129 630.275696
   vertex 233.244659 -74.767075 630.320923
   vertex 233.342438 -75.566414 629.481201
  endloop
 facet normal 0.600373 -0.543170 0.586957
  outer loop
   vertex 233.342438 -75.566414 629.481201
   vertex 233.244659 -74.767075 630.320923
   vertex 233.258530 -75.610352 629.526367
  endloop
 facet normal 0.999847 -0.000001 0.017483
  outer loop
   vertex 231.191162 -58.180305 644.431763
   vertex 231.186966 -57.925587 644.671753
   vertex 231.185883 -58.224400 644.733704
  endloop
 facet normal -0.011940 0.727762 0.685726
  outer loop
   vertex 232.172363 -60.735210 643.527161
   vertex 232.193497 -59.594677 642.317078
   vertex 231.684372 -60.562866 643.335754
  endloop
 facet normal -0.012716 -0.685806 0.727673
  outer loop
   vertex 231.200974 -59.505707 643.869873
   vertex 231.196777 -59.250988 644.109863
   vertex 230.946014 -59.202236 644.151428
  endloop
 facet normal -0.012691 -0.685812 0.727668
  outer loop
   vertex 231.477142 -76.296951 628.049011
   vertex 231.472946 -76.042236 628.289001
   vertex 231.227982 -76.345703 627.998718
  endloop
 facet normal -0.999848 -0.000019 -0.017462
  outer loop
   vertex 231.186966 -57.925587 644.671753
   vertex 231.184814 -58.523216 644.795593
   vertex 231.180618 -58.268494 645.035583
  endloop
 facet normal 0.012712 0.685806 -0.727674
  outer loop
   vertex 232.081497 -74.478539 628.663696
   vertex 232.101227 -75.678024 627.533569
   vertex 230.560410 -75.678024 627.506653
  endloop
 facet normal -0.012683 -0.685806 0.727674
  outer loop
   vertex 230.287766 -60.726498 643.125916
   vertex 231.828568 -60.726498 643.152771
   vertex 230.268036 -59.527012 644.256042
  endloop
 facet normal -0.999848 -0.000019 -0.017462
  outer loop
   vertex 231.493301 -77.279449 627.123291
   vertex 231.495453 -76.681816 626.999451
   vertex 231.499649 -76.936539 626.759460
  endloop
 facet normal 0.012014 -0.727755 -0.685732
  outer loop
   vertex 233.361938 -74.513771 628.364319
   vertex 233.359909 -74.622787 628.479980
   vertex 233.261047 -74.632874 628.488953
  endloop
 facet normal -0.999848 -0.000019 -0.017462
  outer loop
   vertex 231.196777 -59.250988 644.109863
   vertex 231.207321 -59.162800 643.506042
   vertex 231.200974 -59.505707 643.869873
  endloop
 facet normal 0.012000 -0.727765 -0.685722
  outer loop
   vertex 232.438156 -74.469826 628.301575
   vertex 232.417023 -75.610352 629.511658
   vertex 231.943771 -74.642166 628.475830
  endloop
 facet normal -0.012165 0.727743 0.685742
  outer loop
   vertex 233.097778 -60.691265 643.496704
   vertex 233.099808 -60.582245 643.381042
   vertex 233.001312 -60.572159 643.368591
  endloop
 facet normal 0.012711 0.685825 -0.727655
  outer loop
   vertex 231.842743 -59.961853 642.341492
   vertex 230.301926 -59.961853 642.314575
   vertex 230.282196 -58.762367 643.444763
  endloop
 facet normal -0.011979 0.727767 0.685720
  outer loop
   vertex 230.540680 -74.478539 628.636841
   vertex 230.526520 -75.243179 629.448120
   vertex 232.067337 -75.243179 629.475037
  endloop
 facet normal -0.999848 -0.000019 -0.017462
  outer loop
   vertex 231.483490 -75.954048 627.685181
   vertex 231.472946 -76.042236 628.289001
   vertex 231.479294 -75.699326 627.925171
  endloop
 facet normal 0.012695 0.685801 -0.727678
  outer loop
   vertex 231.479294 -75.699326 627.925171
   vertex 231.483490 -75.954048 627.685181
   vertex 231.234329 -76.002800 627.634888
  endloop
 facet normal 0.715497 -0.514584 -0.472513
  outer loop
   vertex 231.053528 -76.135986 627.506165
   vertex 231.227982 -76.345703 627.998718
   vertex 231.047180 -76.478897 627.869995
  endloop
 facet normal 0.968883 -0.188339 -0.160606
  outer loop
   vertex 231.053528 -76.135986 627.506165
   vertex 231.047180 -76.478897 627.869995
   vertex 230.989548 -76.317932 627.333557
  endloop
 facet normal 0.968883 -0.188339 -0.160606
  outer loop
   vertex 230.989548 -76.317932 627.333557
   vertex 231.047180 -76.478897 627.869995
   vertex 230.983200 -76.660843 627.697388
  endloop
 facet normal 0.962667 0.188400 0.194363
  outer loop
   vertex 230.983200 -76.660843 627.697388
   vertex 231.059525 -76.499878 627.163330
   vertex 230.989548 -76.317932 627.333557
  endloop
 facet normal 0.962681 0.188346 0.194348
  outer loop
   vertex 231.053162 -76.842781 627.527161
   vertex 231.059525 -76.499878 627.163330
   vertex 230.983200 -76.660843 627.697388
  endloop
 facet normal 0.698566 0.514583 0.497201
  outer loop
   vertex 231.244690 -76.633064 627.041016
   vertex 231.059525 -76.499878 627.163330
   vertex 231.053162 -76.842781 627.527161
  endloop
 facet normal 0.698548 0.514606 0.497204
  outer loop
   vertex 231.053162 -76.842781 627.527161
   vertex 231.238342 -76.975975 627.404846
   vertex 231.244690 -76.633064 627.041016
  endloop
 facet normal 0.247205 0.702976 0.666869
  outer loop
   vertex 231.244690 -76.633064 627.041016
   vertex 231.238342 -76.975975 627.404846
   vertex 231.495453 -76.681816 626.999451
  endloop
 facet normal 0.270331 -0.702973 -0.657837
  outer loop
   vertex 231.191162 -58.180305 644.431763
   vertex 231.184814 -58.523216 644.795593
   vertex 230.942001 -58.229057 644.381470
  endloop
 facet normal 0.270331 -0.702973 -0.657837
  outer loop
   vertex 230.942001 -58.229057 644.381470
   vertex 231.184814 -58.523216 644.795593
   vertex 230.935654 -58.571968 644.745300
  endloop
 facet normal 0.715413 -0.514645 -0.472572
  outer loop
   vertex 230.935654 -58.571968 644.745300
   vertex 230.761200 -58.362247 644.252808
   vertex 230.942001 -58.229057 644.381470
  endloop
 facet normal 0.715413 -0.514645 -0.472572
  outer loop
   vertex 230.754852 -58.705158 644.616638
   vertex 230.761200 -58.362247 644.252808
   vertex 230.935654 -58.571968 644.745300
  endloop
 facet normal 0.968883 -0.188339 -0.160606
  outer loop
   vertex 230.697220 -58.544193 644.080200
   vertex 230.761200 -58.362247 644.252808
   vertex 230.754852 -58.705158 644.616638
  endloop
 facet normal 0.968882 -0.188342 -0.160607
  outer loop
   vertex 230.754852 -58.705158 644.616638
   vertex 230.690872 -58.887100 644.444031
   vertex 230.697220 -58.544193 644.080200
  endloop
 facet normal 0.962679 0.188371 0.194333
  outer loop
   vertex 230.697220 -58.544193 644.080200
   vertex 230.690872 -58.887100 644.444031
   vertex 230.767197 -58.726135 643.909912
  endloop
 facet normal 0.962694 0.188311 0.194317
  outer loop
   vertex 230.767197 -58.726135 643.909912
   vertex 230.690872 -58.887100 644.444031
   vertex 230.760834 -59.069042 644.273743
  endloop
 facet normal 0.698572 0.514576 0.497201
  outer loop
   vertex 230.760834 -59.069042 644.273743
   vertex 230.952362 -58.859325 643.787598
   vertex 230.767197 -58.726135 643.909912
  endloop
 facet normal 0.247230 0.702971 0.666865
  outer loop
   vertex 231.479294 -75.699326 627.925171
   vertex 231.472946 -76.042236 628.289001
   vertex 231.905594 -75.782204 627.854492
  endloop
 facet normal 0.247230 0.702971 0.666865
  outer loop
   vertex 231.905594 -75.782204 627.854492
   vertex 231.472946 -76.042236 628.289001
   vertex 231.899246 -76.125114 628.218323
  endloop
 facet normal 0.698558 0.514599 0.497198
  outer loop
   vertex 231.899246 -76.125114 628.218323
   vertex 232.220398 -76.008629 627.646545
   vertex 231.905594 -75.782204 627.854492
  endloop
 facet normal 0.698558 0.514599 0.497198
  outer loop
   vertex 232.214050 -76.351540 628.010376
   vertex 232.220398 -76.008629 627.646545
   vertex 231.899246 -76.125114 628.218323
  endloop
 facet normal 0.962683 0.188360 0.194325
  outer loop
   vertex 232.339340 -76.317932 627.357117
   vertex 232.220398 -76.008629 627.646545
   vertex 232.214050 -76.351540 628.010376
  endloop
 facet normal 0.962683 0.188360 0.194325
  outer loop
   vertex 232.214050 -76.351540 628.010376
   vertex 232.332993 -76.660843 627.720947
   vertex 232.339340 -76.317932 627.357117
  endloop
 facet normal 0.968880 -0.188347 -0.160614
  outer loop
   vertex 232.339340 -76.317932 627.357117
   vertex 232.332993 -76.660843 627.720947
   vertex 232.230576 -76.627235 627.063721
  endloop
 facet normal 0.968880 -0.188347 -0.160614
  outer loop
   vertex 232.230576 -76.627235 627.063721
   vertex 232.332993 -76.660843 627.720947
   vertex 232.224228 -76.970146 627.427551
  endloop
 facet normal 0.715438 -0.514626 -0.472554
  outer loop
   vertex 232.224228 -76.970146 627.427551
   vertex 231.923218 -76.853661 626.844971
   vertex 232.230576 -76.627235 627.063721
  endloop
 facet normal 0.715438 -0.514626 -0.472554
  outer loop
   vertex 231.916870 -77.196571 627.208801
   vertex 231.923218 -76.853661 626.844971
   vertex 232.224228 -76.970146 627.427551
  endloop
 facet normal 0.270351 -0.702970 -0.657833
  outer loop
   vertex 231.499649 -76.936539 626.759460
   vertex 231.923218 -76.853661 626.844971
   vertex 231.916870 -77.196571 627.208801
  endloop
 facet normal 0.270351 -0.702970 -0.657833
  outer loop
   vertex 231.916870 -77.196571 627.208801
   vertex 231.493301 -77.279449 627.123291
   vertex 231.499649 -76.936539 626.759460
  endloop
 facet normal 0.247224 0.702976 0.666862
  outer loop
   vertex 231.186966 -57.925587 644.671753
   vertex 231.180618 -58.268494 645.035583
   vertex 231.613266 -58.008461 644.601074
  endloop
 facet normal 0.247230 0.702971 0.666865
  outer loop
   vertex 231.613266 -58.008461 644.601074
   vertex 231.180618 -58.268494 645.035583
   vertex 231.606918 -58.351372 644.964905
  endloop
 facet normal 0.698508 0.514634 0.497230
  outer loop
   vertex 231.606918 -58.351372 644.964905
   vertex 231.928070 -58.234886 644.393188
   vertex 231.613266 -58.008461 644.601074
  endloop
 facet normal 0.698508 0.514634 0.497230
  outer loop
   vertex 231.921722 -58.577797 644.757019
   vertex 231.928070 -58.234886 644.393188
   vertex 231.606918 -58.351372 644.964905
  endloop
 facet normal 0.962683 0.188359 0.194324
  outer loop
   vertex 232.047012 -58.544193 644.103760
   vertex 231.928070 -58.234886 644.393188
   vertex 231.921722 -58.577797 644.757019
  endloop
 facet normal 0.962683 0.188361 0.194324
  outer loop
   vertex 231.921722 -58.577797 644.757019
   vertex 232.040665 -58.887100 644.467590
   vertex 232.047012 -58.544193 644.103760
  endloop
 facet normal 0.968885 -0.188334 -0.160599
  outer loop
   vertex 232.047012 -58.544193 644.103760
   vertex 232.040665 -58.887100 644.467590
   vertex 231.938248 -58.853493 643.810303
  endloop
 facet normal 0.968877 -0.188376 -0.160600
  outer loop
   vertex 231.938248 -58.853493 643.810303
   vertex 232.040665 -58.887100 644.467590
   vertex 231.931885 -59.196404 644.174133
  endloop
 facet normal 0.715441 -0.514639 -0.472536
  outer loop
   vertex 231.931885 -59.196404 644.174133
   vertex 231.630890 -59.079922 643.591553
   vertex 231.938248 -58.853493 643.810303
  endloop
 facet normal 0.715456 -0.514616 -0.472539
  outer loop
   vertex 231.624542 -59.422829 643.955383
   vertex 231.630890 -59.079922 643.591553
   vertex 231.931885 -59.196404 644.174133
  endloop
 facet normal 0.270351 -0.702973 -0.657829
  outer loop
   vertex 231.207321 -59.162800 643.506042
   vertex 231.630890 -59.079922 643.591553
   vertex 231.624542 -59.422829 643.955383
  endloop
 facet normal 0.270351 -0.702973 -0.657829
  outer loop
   vertex 231.624542 -59.422829 643.955383
   vertex 231.200974 -59.505707 643.869873
   vertex 231.207321 -59.162800 643.506042
  endloop
 facet normal 0.698548 0.514606 0.497204
  outer loop
   vertex 230.760834 -59.069042 644.273743
   vertex 230.946014 -59.202236 644.151428
   vertex 230.952362 -58.859325 643.787598
  endloop
 facet normal 0.247205 0.702976 0.666869
  outer loop
   vertex 230.952362 -58.859325 643.787598
   vertex 230.946014 -59.202236 644.151428
   vertex 231.196777 -59.250988 644.109863
  endloop
 facet normal 0.247205 0.702976 0.666869
  outer loop
   vertex 231.196777 -59.250988 644.109863
   vertex 231.203125 -58.908077 643.746033
   vertex 230.952362 -58.859325 643.787598
  endloop
 facet normal -0.270331 0.702973 0.657837
  outer loop
   vertex 231.445938 -59.202236 644.160156
   vertex 231.203125 -58.908077 643.746033
   vertex 231.196777 -59.250988 644.109863
  endloop
 facet normal -0.270331 0.702973 0.657837
  outer loop
   vertex 231.452286 -58.859325 643.796326
   vertex 231.203125 -58.908077 643.746033
   vertex 231.445938 -59.202236 644.160156
  endloop
 facet normal -0.715491 0.514588 0.472516
  outer loop
   vertex 231.445938 -59.202236 644.160156
   vertex 231.626740 -59.069046 644.288879
   vertex 231.452286 -58.859325 643.796326
  endloop
 facet normal -0.715491 0.514588 0.472516
  outer loop
   vertex 231.452286 -58.859325 643.796326
   vertex 231.626740 -59.069046 644.288879
   vertex 231.633087 -58.726135 643.925049
  endloop
 facet normal -0.968883 0.188339 0.160606
  outer loop
   vertex 231.633087 -58.726135 643.925049
   vertex 231.626740 -59.069046 644.288879
   vertex 231.690720 -58.887100 644.461487
  endloop
 facet normal -0.968882 0.188342 0.160607
  outer loop
   vertex 231.690720 -58.887100 644.461487
   vertex 231.697067 -58.544193 644.097656
   vertex 231.633087 -58.726135 643.925049
  endloop
 facet normal -0.962667 -0.188403 -0.194363
  outer loop
   vertex 231.620743 -58.705158 644.631714
   vertex 231.697067 -58.544193 644.097656
   vertex 231.690720 -58.887100 644.461487
  endloop
 facet normal -0.962682 -0.188340 -0.194347
  outer loop
   vertex 231.627106 -58.362247 644.267883
   vertex 231.697067 -58.544193 644.097656
   vertex 231.620743 -58.705158 644.631714
  endloop
 facet normal -0.698572 -0.514574 -0.497203
  outer loop
   vertex 231.620743 -58.705158 644.631714
   vertex 231.435577 -58.571968 644.754028
   vertex 231.627106 -58.362247 644.267883
  endloop
 facet normal -0.698543 -0.514610 -0.497207
  outer loop
   vertex 231.627106 -58.362247 644.267883
   vertex 231.435577 -58.571968 644.754028
   vertex 231.441925 -58.229057 644.390198
  endloop
 facet normal -0.247205 -0.702976 -0.666869
  outer loop
   vertex 231.441925 -58.229057 644.390198
   vertex 231.435577 -58.571968 644.754028
   vertex 231.184814 -58.523216 644.795593
  endloop
 facet normal -0.247205 -0.702976 -0.666869
  outer loop
   vertex 231.184814 -58.523216 644.795593
   vertex 231.191162 -58.180305 644.431763
   vertex 231.441925 -58.229057 644.390198
  endloop
 facet normal 0.715486 -0.514597 -0.472515
  outer loop
   vertex 231.053528 -76.135986 627.506165
   vertex 231.234329 -76.002800 627.634888
   vertex 231.227982 -76.345703 627.998718
  endloop
 facet normal 0.270331 -0.702981 -0.657829
  outer loop
   vertex 231.227982 -76.345703 627.998718
   vertex 231.234329 -76.002800 627.634888
   vertex 231.483490 -75.954048 627.685181
  endloop
 facet normal 0.270331 -0.702981 -0.657829
  outer loop
   vertex 231.483490 -75.954048 627.685181
   vertex 231.477142 -76.296951 628.049011
   vertex 231.227982 -76.345703 627.998718
  endloop
 facet normal -0.247357 -0.702954 -0.666836
  outer loop
   vertex 231.734253 -76.002800 627.643555
   vertex 231.477142 -76.296951 628.049011
   vertex 231.483490 -75.954048 627.685181
  endloop
 facet normal -0.247357 -0.702954 -0.666836
  outer loop
   vertex 231.727905 -76.345703 628.007385
   vertex 231.477142 -76.296951 628.049011
   vertex 231.734253 -76.002800 627.643555
  endloop
 facet normal -0.698453 -0.514679 -0.497261
  outer loop
   vertex 231.734253 -76.002800 627.643555
   vertex 231.919434 -76.135986 627.521301
   vertex 231.727905 -76.345703 628.007385
  endloop
 facet normal -0.698493 -0.514630 -0.497255
  outer loop
   vertex 231.727905 -76.345703 628.007385
   vertex 231.919434 -76.135986 627.521301
   vertex 231.913071 -76.478897 627.885132
  endloop
 facet normal -0.962695 -0.188308 -0.194317
  outer loop
   vertex 231.913071 -76.478897 627.885132
   vertex 231.919434 -76.135986 627.521301
   vertex 231.989395 -76.317932 627.351013
  endloop
 facet normal -0.962680 -0.188368 -0.194333
  outer loop
   vertex 231.989395 -76.317932 627.351013
   vertex 231.983047 -76.660843 627.714844
   vertex 231.913071 -76.478897 627.885132
  endloop
 facet normal -0.968883 0.188339 0.160606
  outer loop
   vertex 231.925415 -76.499878 627.178406
   vertex 231.983047 -76.660843 627.714844
   vertex 231.989395 -76.317932 627.351013
  endloop
 facet normal -0.968882 0.188345 0.160607
  outer loop
   vertex 231.919067 -76.842781 627.542236
   vertex 231.983047 -76.660843 627.714844
   vertex 231.925415 -76.499878 627.178406
  endloop
 facet normal -0.715408 0.514654 0.472570
  outer loop
   vertex 231.925415 -76.499878 627.178406
   vertex 231.744614 -76.633064 627.049744
   vertex 231.919067 -76.842781 627.542236
  endloop
 facet normal -0.715419 0.514641 0.472568
  outer loop
   vertex 231.919067 -76.842781 627.542236
   vertex 231.744614 -76.633064 627.049744
   vertex 231.738266 -76.975975 627.413574
  endloop
 facet normal -0.270331 0.702973 0.657837
  outer loop
   vertex 231.738266 -76.975975 627.413574
   vertex 231.744614 -76.633064 627.049744
   vertex 231.495453 -76.681816 626.999451
  endloop
 facet normal -0.270331 0.702973 0.657837
  outer loop
   vertex 231.495453 -76.681816 626.999451
   vertex 231.489105 -77.024727 627.363281
   vertex 231.738266 -76.975975 627.413574
  endloop
 facet normal 0.247205 0.702976 0.666869
  outer loop
   vertex 231.238342 -76.975975 627.404846
   vertex 231.489105 -77.024727 627.363281
   vertex 231.495453 -76.681816 626.999451
  endloop
endsolid