solid stl file generated from DOUG
 facet normal -0.874612 -0.026128 0.484119
  outer loop
   vertex 108.610184 79.479439 577.302979
   vertex 108.610641 78.978951 577.276794
   vertex 108.731674 79.468079 577.521851
  endloop
 endfacet

 facet normal -0.874611 -0.026128 0.484120
  outer loop
   vertex 108.731674 79.468079 577.521851
   vertex 108.610641 78.978951 577.276794
   vertex 108.732132 78.967598 577.495667
  endloop
 endfacet

 facet normal -0.017513 -0.052254 0.998480
  outer loop
   vertex 108.732132 78.967598 577.495667
   vertex 108.982224 79.468079 577.526245
   vertex 108.731674 79.468079 577.521851
  endloop
 endfacet

 facet normal -0.017270 -0.052376 0.998478
  outer loop
   vertex 108.982681 78.967598 577.500000
   vertex 108.982224 79.468079 577.526245
   vertex 108.732132 78.967598 577.495667
  endloop
 endfacet

 facet normal 0.857154 -0.026191 0.514393
  outer loop
   vertex 109.111282 79.479439 577.311768
   vertex 108.982224 79.468079 577.526245
   vertex 108.982681 78.967598 577.500000
  endloop
 endfacet

 facet normal 0.857154 -0.026190 0.514394
  outer loop
   vertex 108.982681 78.967598 577.500000
   vertex 109.111740 78.978951 577.285522
   vertex 109.111282 79.479439 577.311768
  endloop
 endfacet

 facet normal 0.874612 0.026187 -0.484116
  outer loop
   vertex 109.111282 79.479439 577.311768
   vertex 109.111740 78.978951 577.285522
   vertex 108.989792 79.490799 577.092896
  endloop
 endfacet

 facet normal 0.874612 0.026187 -0.484116
  outer loop
   vertex 108.989792 79.490799 577.092896
   vertex 109.111740 78.978951 577.285522
   vertex 108.990250 78.990311 577.066650
  endloop
 endfacet

 facet normal 0.017513 0.052375 -0.998474
  outer loop
   vertex 108.990250 78.990311 577.066650
   vertex 108.739243 79.490799 577.088501
   vertex 108.989792 79.490799 577.092896
  endloop
 endfacet

 facet normal 0.017513 0.052375 -0.998474
  outer loop
   vertex 108.739700 78.990311 577.062256
   vertex 108.739243 79.490799 577.088501
   vertex 108.990250 78.990311 577.066650
  endloop
 endfacet

 facet normal -0.857154 0.026190 -0.514393
  outer loop
   vertex 108.610184 79.479439 577.302979
   vertex 108.739243 79.490799 577.088501
   vertex 108.739700 78.990311 577.062256
  endloop
 endfacet

 facet normal -0.857219 0.026122 -0.514289
  outer loop
   vertex 108.739700 78.990311 577.062256
   vertex 108.610641 78.978951 577.276794
   vertex 108.610184 79.479439 577.302979
  endloop
 endfacet

 facet normal 0.857154 -0.026128 0.514397
  outer loop
   vertex 87.019806 78.978951 576.899902
   vertex 87.019348 79.479439 576.926086
   vertex 86.890747 78.967598 577.114380
  endloop
 endfacet

 facet normal 0.857219 -0.026185 0.514286
  outer loop
   vertex 86.890747 78.967598 577.114380
   vertex 87.019348 79.479439 576.926086
   vertex 86.890289 79.468079 577.140625
  endloop
 endfacet

 facet normal -0.017513 -0.052376 0.998474
  outer loop
   vertex 86.890289 79.468079 577.140625
   vertex 86.640205 78.967598 577.109985
   vertex 86.890747 78.967598 577.114380
  endloop
 endfacet

 facet normal -0.017513 -0.052376 0.998474
  outer loop
   vertex 86.639748 79.468079 577.136230
   vertex 86.640205 78.967598 577.109985
   vertex 86.890289 79.468079 577.140625
  endloop
 endfacet

 facet normal -0.874598 -0.026188 0.484140
  outer loop
   vertex 86.518707 78.978951 576.891113
   vertex 86.640205 78.967598 577.109985
   vertex 86.639748 79.468079 577.136230
  endloop
 endfacet

 facet normal -0.874599 -0.026188 0.484139
  outer loop
   vertex 86.639748 79.468079 577.136230
   vertex 86.518250 79.479439 576.917358
   vertex 86.518707 78.978951 576.891113
  endloop
 endfacet

 facet normal -0.857154 0.026190 -0.514393
  outer loop
   vertex 86.518707 78.978951 576.891113
   vertex 86.518250 79.479439 576.917358
   vertex 86.647766 78.990311 576.676636
  endloop
 endfacet

 facet normal -0.857154 0.026190 -0.514393
  outer loop
   vertex 86.647766 78.990311 576.676636
   vertex 86.518250 79.479439 576.917358
   vertex 86.647308 79.490799 576.702881
  endloop
 endfacet

 facet normal 0.017513 0.052375 -0.998474
  outer loop
   vertex 86.647308 79.490799 576.702881
   vertex 86.898315 78.990311 576.681030
   vertex 86.647766 78.990311 576.676636
  endloop
 endfacet

 facet normal 0.017270 0.052254 -0.998485
  outer loop
   vertex 86.897858 79.490799 576.707214
   vertex 86.898315 78.990311 576.681030
   vertex 86.647308 79.490799 576.702881
  endloop
 endfacet

 facet normal 0.874612 0.026128 -0.484119
  outer loop
   vertex 87.019806 78.978951 576.899902
   vertex 86.898315 78.990311 576.681030
   vertex 86.897858 79.490799 576.707214
  endloop
 endfacet

 facet normal 0.874612 0.026128 -0.484119
  outer loop
   vertex 86.897858 79.490799 576.707214
   vertex 87.019348 79.479439 576.926086
   vertex 87.019806 78.978951 576.899902
  endloop
 endfacet

 facet normal -0.000918 0.998629 0.052342
  outer loop
   vertex 86.639748 79.468079 577.136230
   vertex 86.890289 79.468079 577.140625
   vertex 86.768799 79.479439 576.921753
  endloop
 endfacet

 facet normal -0.000905 0.998629 0.052335
  outer loop
   vertex 86.768799 79.479439 576.921753
   vertex 86.890289 79.468079 577.140625
   vertex 87.019348 79.479439 576.926086
  endloop
 endfacet

 facet normal -0.000905 0.998629 0.052335
  outer loop
   vertex 87.019348 79.479439 576.926086
   vertex 86.897858 79.490799 576.707214
   vertex 86.768799 79.479439 576.921753
  endloop
 endfacet

 facet normal -0.000918 0.998629 0.052342
  outer loop
   vertex 108.739243 79.490799 577.088501
   vertex 108.610184 79.479439 577.302979
   vertex 108.860733 79.479439 577.307373
  endloop
 endfacet

 facet normal -0.000918 0.998629 0.052342
  outer loop
   vertex 108.860733 79.479439 577.307373
   vertex 108.610184 79.479439 577.302979
   vertex 108.731674 79.468079 577.521851
  endloop
 endfacet

 facet normal -0.000918 0.998629 0.052342
  outer loop
   vertex 108.731674 79.468079 577.521851
   vertex 108.982224 79.468079 577.526245
   vertex 108.860733 79.479439 577.307373
  endloop
 endfacet

 facet normal -0.000918 0.998629 0.052342
  outer loop
   vertex 108.982224 79.468079 577.526245
   vertex 109.111282 79.479439 577.311768
   vertex 108.860733 79.479439 577.307373
  endloop
 endfacet

 facet normal -0.000918 0.998629 0.052342
  outer loop
   vertex 108.860733 79.479439 577.307373
   vertex 109.111282 79.479439 577.311768
   vertex 108.989792 79.490799 577.092896
  endloop
 endfacet

 facet normal -0.000918 0.998629 0.052342
  outer loop
   vertex 108.989792 79.490799 577.092896
   vertex 108.739243 79.490799 577.088501
   vertex 108.860733 79.479439 577.307373
  endloop
 endfacet

 facet normal -0.000905 0.998629 0.052335
  outer loop
   vertex 86.897858 79.490799 576.707214
   vertex 86.647308 79.490799 576.702881
   vertex 86.768799 79.479439 576.921753
  endloop
 endfacet

 facet normal -0.000918 0.998629 0.052342
  outer loop
   vertex 86.768799 79.479439 576.921753
   vertex 86.647308 79.490799 576.702881
   vertex 86.518250 79.479439 576.917358
  endloop
 endfacet

 facet normal -0.000918 0.998629 0.052342
  outer loop
   vertex 86.518250 79.479439 576.917358
   vertex 86.639748 79.468079 577.136230
   vertex 86.768799 79.479439 576.921753
  endloop
 endfacet

 facet normal -0.000913 0.998630 0.052328
  outer loop
   vertex 107.417107 77.480164 576.551331
   vertex 107.395317 77.414734 577.799622
   vertex 110.408051 77.480164 576.603516
  endloop
 endfacet

 facet normal -0.000913 0.998630 0.052328
  outer loop
   vertex 110.408051 77.480164 576.603516
   vertex 107.395317 77.414734 577.799622
   vertex 110.386261 77.414734 577.851807
  endloop
 endfacet

 facet normal 0.999848 0.000005 0.017453
  outer loop
   vertex 110.386261 77.414734 577.851807
   vertex 110.409325 76.093483 576.530884
   vertex 110.408051 77.480164 576.603516
  endloop
 endfacet

 facet normal 0.999848 0.000005 0.017453
  outer loop
   vertex 110.387535 76.028053 577.779175
   vertex 110.409325 76.093483 576.530884
   vertex 110.386261 77.414734 577.851807
  endloop
 endfacet

 facet normal 0.000914 -0.998630 -0.052328
  outer loop
   vertex 107.396591 76.028053 577.726929
   vertex 110.409325 76.093483 576.530884
   vertex 110.387535 76.028053 577.779175
  endloop
 endfacet

 facet normal -0.017441 -0.052358 0.998476
  outer loop
   vertex 110.387535 76.028053 577.779175
   vertex 107.395317 77.414734 577.799622
   vertex 107.396591 76.028053 577.726929
  endloop
 endfacet

 facet normal -0.999848 -0.000004 -0.017453
  outer loop
   vertex 107.396591 76.028053 577.726929
   vertex 107.395317 77.414734 577.799622
   vertex 107.418381 76.093483 576.478638
  endloop
 endfacet

 facet normal -0.999848 -0.000004 -0.017453
  outer loop
   vertex 107.418381 76.093483 576.478638
   vertex 107.395317 77.414734 577.799622
   vertex 107.417107 77.480164 576.551331
  endloop
 endfacet

 facet normal 0.017441 0.052358 -0.998476
  outer loop
   vertex 107.417107 77.480164 576.551331
   vertex 110.409325 76.093483 576.530884
   vertex 107.418381 76.093483 576.478638
  endloop
 endfacet

 facet normal 0.017421 0.052315 -0.998479
  outer loop
   vertex 110.408051 77.480164 576.603516
   vertex 110.409325 76.093483 576.530884
   vertex 107.417107 77.480164 576.551331
  endloop
 endfacet

 facet normal -0.999848 0.000001 -0.017453
  outer loop
   vertex 85.248253 76.093483 576.091675
   vertex 85.226463 76.028053 577.339966
   vertex 85.246986 77.480164 576.164307
  endloop
 endfacet

 facet normal -0.999848 0.000001 -0.017453
  outer loop
   vertex 85.246986 77.480164 576.164307
   vertex 85.226463 76.028053 577.339966
   vertex 85.225197 77.414734 577.412598
  endloop
 endfacet

 facet normal -0.000914 0.998630 0.052328
  outer loop
   vertex 85.225197 77.414734 577.412598
   vertex 88.237930 77.480164 576.216553
   vertex 85.246986 77.480164 576.164307
  endloop
 endfacet

 facet normal -0.000914 0.998630 0.052328
  outer loop
   vertex 88.216141 77.414734 577.464844
   vertex 88.237930 77.480164 576.216553
   vertex 85.225197 77.414734 577.412598
  endloop
 endfacet

 facet normal 0.999848 -0.000002 0.017453
  outer loop
   vertex 88.217407 76.028053 577.392151
   vertex 88.237930 77.480164 576.216553
   vertex 88.216141 77.414734 577.464844
  endloop
 endfacet

 facet normal -0.017421 -0.052358 0.998476
  outer loop
   vertex 88.216141 77.414734 577.464844
   vertex 85.226463 76.028053 577.339966
   vertex 88.217407 76.028053 577.392151
  endloop
 endfacet

 facet normal 0.000913 -0.998630 -0.052328
  outer loop
   vertex 88.217407 76.028053 577.392151
   vertex 85.226463 76.028053 577.339966
   vertex 88.239197 76.093483 576.143860
  endloop
 endfacet

 facet normal 0.000913 -0.998630 -0.052328
  outer loop
   vertex 88.239197 76.093483 576.143860
   vertex 85.226463 76.028053 577.339966
   vertex 85.248253 76.093483 576.091675
  endloop
 endfacet

 facet normal 0.017421 0.052358 -0.998476
  outer loop
   vertex 85.248253 76.093483 576.091675
   vertex 88.237930 77.480164 576.216553
   vertex 88.239197 76.093483 576.143860
  endloop
 endfacet

 facet normal 0.017442 0.052314 -0.998478
  outer loop
   vertex 85.246986 77.480164 576.164307
   vertex 88.237930 77.480164 576.216553
   vertex 85.248253 76.093483 576.091675
  endloop
 endfacet

 facet normal -0.017442 -0.052314 0.998478
  outer loop
   vertex 88.216141 77.414734 577.464844
   vertex 85.225197 77.414734 577.412598
   vertex 85.226463 76.028053 577.339966
  endloop
 endfacet

 facet normal -0.017421 -0.052315 0.998479
  outer loop
   vertex 110.386261 77.414734 577.851807
   vertex 107.395317 77.414734 577.799622
   vertex 110.387535 76.028053 577.779175
  endloop
 endfacet

 facet normal 0.999848 -0.000002 0.017453
  outer loop
   vertex 88.217407 76.028053 577.392151
   vertex 88.239197 76.093483 576.143860
   vertex 88.237930 77.480164 576.216553
  endloop
 endfacet

 facet normal 0.000914 -0.998630 -0.052328
  outer loop
   vertex 107.396591 76.028053 577.726929
   vertex 107.418381 76.093483 576.478638
   vertex 110.409325 76.093483 576.530884
  endloop
 endfacet

 facet normal -0.000914 0.998629 0.052338
  outer loop
   vertex 107.634781 80.254593 576.540405
   vertex 88.018860 80.248856 576.307495
   vertex 107.632874 80.248856 576.649841
  endloop
 endfacet

 facet normal -0.014565 0.550874 0.834461
  outer loop
   vertex 107.632874 80.248856 576.649841
   vertex 88.018860 80.248856 576.307495
   vertex 107.631477 80.127609 576.729858
  endloop
 endfacet

 facet normal -0.014346 0.568308 0.822691
  outer loop
   vertex 88.741112 80.232422 577.764221
   vertex 87.581535 80.146072 577.803650
   vertex 88.740074 80.146072 577.823853
  endloop
 endfacet

 facet normal -0.017411 -0.052367 0.998476
  outer loop
   vertex 88.740074 80.146072 577.823853
   vertex 87.581535 80.146072 577.803650
   vertex 87.582306 79.305595 577.759583
  endloop
 endfacet

 facet normal 0.017412 0.052295 -0.998480
  outer loop
   vertex 108.047470 79.392632 576.455872
   vertex 106.888161 80.233109 576.479675
   vertex 108.046700 80.233109 576.499878
  endloop
 endfacet

 facet normal 0.013234 0.651028 -0.758938
  outer loop
   vertex 108.046700 80.233109 576.499878
   vertex 106.888161 80.233109 576.479675
   vertex 106.886971 80.312752 576.547974
  endloop
 endfacet

 facet normal 0.013478 0.635224 -0.772211
  outer loop
   vertex 87.996925 80.065941 577.563904
   vertex 87.995316 80.178162 577.656189
   vertex 107.609329 80.178162 577.998535
  endloop
 endfacet

 facet normal -0.000913 0.998631 0.052309
  outer loop
   vertex 107.609329 80.178162 577.998535
   vertex 87.995316 80.178162 577.656189
   vertex 107.607422 80.172424 578.108032
  endloop
 endfacet

 facet normal 0.005393 0.951048 -0.308997
  outer loop
   vertex 88.020889 79.485161 576.191284
   vertex 107.634903 79.485161 576.533630
   vertex 88.021484 79.474052 576.157104
  endloop
 endfacet

 facet normal 0.005407 0.950823 -0.309688
  outer loop
   vertex 88.021484 79.474052 576.157104
   vertex 107.634903 79.485161 576.533630
   vertex 107.635498 79.474045 576.499512
  endloop
 endfacet

 facet normal 0.017431 0.051865 -0.998502
  outer loop
   vertex 107.635498 79.474045 576.499512
   vertex 88.021553 79.403526 576.153442
   vertex 88.021484 79.474052 576.157104
  endloop
 endfacet

 facet normal -0.999848 0.000028 -0.017441
  outer loop
   vertex 87.610519 80.233109 576.143127
   vertex 87.606392 80.205109 576.379700
   vertex 87.609329 80.312752 576.211487
  endloop
 endfacet

 facet normal -0.999848 0.000017 -0.017448
  outer loop
   vertex 87.609329 80.312752 576.211487
   vertex 87.606392 80.205109 576.379700
   vertex 87.606560 80.304436 576.370178
  endloop
 endfacet

 facet normal -0.000912 0.998630 0.052316
  outer loop
   vertex 87.606560 80.304436 576.370178
   vertex 88.767868 80.312752 576.231689
   vertex 87.609329 80.312752 576.211487
  endloop
 endfacet

 facet normal 0.999848 0.000037 0.017451
  outer loop
   vertex 108.017715 80.146072 578.160400
   vertex 108.021873 80.142952 577.922180
   vertex 108.018753 80.232422 578.100769
  endloop
 endfacet

 facet normal 0.999848 0.000050 0.017445
  outer loop
   vertex 108.018753 80.232422 578.100769
   vertex 108.021873 80.142952 577.922180
   vertex 108.021523 80.240738 577.942017
  endloop
 endfacet

 facet normal -0.000915 0.998631 0.052296
  outer loop
   vertex 108.021523 80.240738 577.942017
   vertex 106.860214 80.232422 578.080505
   vertex 108.018753 80.232422 578.100769
  endloop
 endfacet

 facet normal 0.999848 0.000048 0.017452
  outer loop
   vertex 88.743881 80.240746 577.605530
   vertex 88.741112 80.232422 577.764221
   vertex 88.744232 80.142952 577.585693
  endloop
 endfacet

 facet normal 0.999848 0.000040 0.017456
  outer loop
   vertex 88.744232 80.142952 577.585693
   vertex 88.741112 80.232422 577.764221
   vertex 88.740074 80.146072 577.823853
  endloop
 endfacet

 facet normal 0.999848 0.000003 0.017456
  outer loop
   vertex 88.740074 80.146072 577.823853
   vertex 88.740845 79.305595 577.779846
   vertex 88.744232 80.142952 577.585693
  endloop
 endfacet

 facet normal -0.017464 -0.052295 0.998479
  outer loop
   vertex 87.582306 79.305595 577.759583
   vertex 88.740845 79.305595 577.779846
   vertex 88.740074 80.146072 577.823853
  endloop
 endfacet

 facet normal 0.013484 0.634973 -0.772417
  outer loop
   vertex 107.609329 80.178162 577.998535
   vertex 107.610939 80.065941 577.906311
   vertex 87.996925 80.065941 577.563904
  endloop
 endfacet

 facet normal -0.000914 0.998629 0.052331
  outer loop
   vertex 87.996925 80.065941 577.563904
   vertex 107.610939 80.065941 577.906311
   vertex 107.631477 80.127609 576.729858
  endloop
 endfacet

 facet normal -0.000913 0.998629 0.052334
  outer loop
   vertex 107.631477 80.127609 576.729858
   vertex 88.017464 80.127609 576.387512
   vertex 87.996925 80.065941 577.563904
  endloop
 endfacet

 facet normal -0.014565 0.550874 0.834461
  outer loop
   vertex 88.018860 80.248856 576.307495
   vertex 88.017464 80.127609 576.387512
   vertex 107.631477 80.127609 576.729858
  endloop
 endfacet

 facet normal 0.017464 0.052367 -0.998475
  outer loop
   vertex 108.047470 79.392632 576.455872
   vertex 106.888931 79.392632 576.435608
   vertex 106.888161 80.233109 576.479675
  endloop
 endfacet

 facet normal -0.999848 -0.000002 -0.017445
  outer loop
   vertex 106.888161 80.233109 576.479675
   vertex 106.888931 79.392632 576.435608
   vertex 106.884033 80.205109 576.716248
  endloop
 endfacet

 facet normal -0.999848 0.000016 -0.017443
  outer loop
   vertex 106.884033 80.205109 576.716248
   vertex 106.886971 80.312752 576.547974
   vertex 106.888161 80.233109 576.479675
  endloop
 endfacet

 facet normal -0.999848 0.000018 -0.017442
  outer loop
   vertex 106.884201 80.304436 576.706726
   vertex 106.886971 80.312752 576.547974
   vertex 106.884033 80.205109 576.716248
  endloop
 endfacet

 facet normal 0.007107 -0.913308 -0.407208
  outer loop
   vertex 107.634338 80.097847 576.565735
   vertex 88.020332 80.097847 576.223389
   vertex 107.634911 80.112465 576.532959
  endloop
 endfacet

 facet normal 0.007107 -0.913308 -0.407208
  outer loop
   vertex 107.634911 80.112465 576.532959
   vertex 88.020332 80.097847 576.223389
   vertex 88.020905 80.112465 576.190613
  endloop
 endfacet

 facet normal 0.017428 0.052328 -0.998478
  outer loop
   vertex 88.020905 80.112465 576.190613
   vertex 107.634781 80.254593 576.540405
   vertex 107.634911 80.112465 576.532959
  endloop
 endfacet

 facet normal 0.017428 0.052328 -0.998478
  outer loop
   vertex 88.020775 80.254593 576.198059
   vertex 107.634781 80.254593 576.540405
   vertex 88.020905 80.112465 576.190613
  endloop
 endfacet

 facet normal -0.000914 0.998629 0.052338
  outer loop
   vertex 88.018860 80.248856 576.307495
   vertex 107.634781 80.254593 576.540405
   vertex 88.020775 80.254593 576.198059
  endloop
 endfacet

 facet normal -0.000915 0.998629 0.052331
  outer loop
   vertex 109.444687 79.028496 576.735596
   vertex 107.777344 78.970139 577.820068
   vertex 109.425255 78.970139 577.848877
  endloop
 endfacet

 facet normal -0.017455 -0.052367 0.998475
  outer loop
   vertex 109.425255 78.970139 577.848877
   vertex 107.777344 78.970139 577.820068
   vertex 109.426659 77.431206 577.768188
  endloop
 endfacet

 facet normal 0.999848 -0.000003 0.017460
  outer loop
   vertex 109.426659 77.431206 577.768188
   vertex 109.446098 77.489555 576.654968
   vertex 109.425255 78.970139 577.848877
  endloop
 endfacet

 facet normal 0.000913 -0.998630 -0.052327
  outer loop
   vertex 107.778755 77.431206 577.739441
   vertex 109.446098 77.489555 576.654968
   vertex 109.426659 77.431206 577.768188
  endloop
 endfacet

 facet normal 0.000913 -0.998630 -0.052327
  outer loop
   vertex 107.798187 77.489555 576.626221
   vertex 109.446098 77.489555 576.654968
   vertex 107.778755 77.431206 577.739441
  endloop
 endfacet

 facet normal -0.999848 -0.000003 -0.017453
  outer loop
   vertex 107.778755 77.431206 577.739441
   vertex 107.777344 78.970139 577.820068
   vertex 107.798187 77.489555 576.626221
  endloop
 endfacet

 facet normal -0.999848 -0.000003 -0.017453
  outer loop
   vertex 107.798187 77.489555 576.626221
   vertex 107.777344 78.970139 577.820068
   vertex 107.796776 79.028496 576.706848
  endloop
 endfacet

 facet normal -0.000913 0.998629 0.052334
  outer loop
   vertex 107.796776 79.028496 576.706848
   vertex 107.777344 78.970139 577.820068
   vertex 109.444687 79.028496 576.735596
  endloop
 endfacet

 facet normal 0.017418 0.052328 -0.998478
  outer loop
   vertex 109.444687 79.028496 576.735596
   vertex 109.446098 77.489555 576.654968
   vertex 107.796776 79.028496 576.706848
  endloop
 endfacet

 facet normal 0.999848 0.000003 0.017452
  outer loop
   vertex 109.425255 78.970139 577.848877
   vertex 109.446098 77.489555 576.654968
   vertex 109.444687 79.028496 576.735596
  endloop
 endfacet

 facet normal 0.017418 0.052367 -0.998476
  outer loop
   vertex 86.205154 79.028496 576.329956
   vertex 87.853065 79.028496 576.358704
   vertex 86.206566 77.489555 576.249268
  endloop
 endfacet

 facet normal 0.017455 0.052328 -0.998477
  outer loop
   vertex 86.206566 77.489555 576.249268
   vertex 87.853065 79.028496 576.358704
   vertex 87.854477 77.489555 576.278076
  endloop
 endfacet

 facet normal 0.000915 -0.998630 -0.052324
  outer loop
   vertex 87.854477 77.489555 576.278076
   vertex 86.187134 77.431206 577.362549
   vertex 86.206566 77.489555 576.249268
  endloop
 endfacet

 facet normal 0.000913 -0.998630 -0.052327
  outer loop
   vertex 87.835045 77.431206 577.391296
   vertex 86.187134 77.431206 577.362549
   vertex 87.854477 77.489555 576.278076
  endloop
 endfacet

 facet normal -0.017418 -0.052328 0.998478
  outer loop
   vertex 87.833633 78.970139 577.471924
   vertex 86.187134 77.431206 577.362549
   vertex 87.835045 77.431206 577.391296
  endloop
 endfacet

 facet normal 0.999848 0.000003 0.017453
  outer loop
   vertex 87.835045 77.431206 577.391296
   vertex 87.853065 79.028496 576.358704
   vertex 87.833633 78.970139 577.471924
  endloop
 endfacet

 facet normal -0.000913 0.998629 0.052334
  outer loop
   vertex 87.833633 78.970139 577.471924
   vertex 87.853065 79.028496 576.358704
   vertex 86.185722 78.970139 577.443176
  endloop
 endfacet

 facet normal -0.000913 0.998629 0.052334
  outer loop
   vertex 86.185722 78.970139 577.443176
   vertex 87.853065 79.028496 576.358704
   vertex 86.205154 79.028496 576.329956
  endloop
 endfacet

 facet normal -0.999848 -0.000003 -0.017453
  outer loop
   vertex 86.205154 79.028496 576.329956
   vertex 86.187134 77.431206 577.362549
   vertex 86.185722 78.970139 577.443176
  endloop
 endfacet

 facet normal -0.999848 -0.000002 -0.017452
  outer loop
   vertex 86.206566 77.489555 576.249268
   vertex 86.187134 77.431206 577.362549
   vertex 86.205154 79.028496 576.329956
  endloop
 endfacet

 facet normal 0.000913 -0.998630 -0.052327
  outer loop
   vertex 110.870483 78.372078 577.534790
   vertex 110.520538 78.372078 577.528687
   vertex 110.529251 78.398247 577.029419
  endloop
 endfacet

 facet normal -0.000913 0.998630 0.052327
  outer loop
   vertex 110.529251 78.398247 577.029419
   vertex 110.520538 78.372078 577.528687
   vertex 110.699867 78.385162 577.282104
  endloop
 endfacet

 facet normal -0.000922 0.998629 0.052333
  outer loop
   vertex 110.699867 78.385162 577.282104
   vertex 110.879196 78.398247 577.035583
   vertex 110.529251 78.398247 577.029419
  endloop
 endfacet

 facet normal -0.000922 0.998629 0.052333
  outer loop
   vertex 110.870483 78.372078 577.534790
   vertex 110.879196 78.398247 577.035583
   vertex 110.699867 78.385162 577.282104
  endloop
 endfacet

 facet normal 0.999848 0.000002 0.017451
  outer loop
   vertex 110.880112 77.399620 576.983215
   vertex 110.879196 78.398247 577.035583
   vertex 110.870483 78.372078 577.534790
  endloop
 endfacet

 facet normal 0.999848 0.000003 0.017449
  outer loop
   vertex 110.870483 78.372078 577.534790
   vertex 110.871399 77.373451 577.482483
   vertex 110.880112 77.399620 576.983215
  endloop
 endfacet

 facet normal 0.000913 -0.998630 -0.052327
  outer loop
   vertex 110.880112 77.399620 576.983215
   vertex 110.871399 77.373451 577.482483
   vertex 109.180374 77.399620 576.953552
  endloop
 endfacet

 facet normal 0.000913 -0.998630 -0.052327
  outer loop
   vertex 109.180374 77.399620 576.953552
   vertex 110.871399 77.373451 577.482483
   vertex 109.171654 77.373451 577.452820
  endloop
 endfacet

 facet normal -0.999848 0.000006 -0.017463
  outer loop
   vertex 109.171654 77.373451 577.452820
   vertex 109.170746 78.372078 577.505127
   vertex 109.180374 77.399620 576.953552
  endloop
 endfacet

 facet normal -0.017431 -0.052315 0.998478
  outer loop
   vertex 109.587898 78.122421 577.499329
   vertex 109.170746 78.372078 577.505127
   vertex 109.171654 77.373451 577.452820
  endloop
 endfacet

 facet normal -0.017415 -0.052288 0.998480
  outer loop
   vertex 109.520691 78.372078 577.511230
   vertex 109.170746 78.372078 577.505127
   vertex 109.587898 78.122421 577.499329
  endloop
 endfacet

 facet normal 0.017467 0.052376 -0.998475
  outer loop
   vertex 86.044098 78.148590 576.588928
   vertex 86.460793 78.398247 576.609314
   vertex 86.461708 77.399620 576.556946
  endloop
 endfacet

 facet normal 0.999847 0.000001 0.017464
  outer loop
   vertex 86.461708 77.399620 576.556946
   vertex 86.460793 78.398247 576.609314
   vertex 86.452988 77.373451 577.056213
  endloop
 endfacet

 facet normal 0.000913 -0.998630 -0.052327
  outer loop
   vertex 86.452988 77.373451 577.056213
   vertex 84.761963 77.399620 576.527283
   vertex 86.461708 77.399620 576.556946
  endloop
 endfacet

 facet normal 0.000913 -0.998630 -0.052327
  outer loop
   vertex 84.753250 77.373451 577.026550
   vertex 84.761963 77.399620 576.527283
   vertex 86.452988 77.373451 577.056213
  endloop
 endfacet

 facet normal -0.999848 -0.000002 -0.017449
  outer loop
   vertex 84.761047 78.398247 576.579651
   vertex 84.761963 77.399620 576.527283
   vertex 84.753250 77.373451 577.026550
  endloop
 endfacet

 facet normal -0.999848 -0.000003 -0.017451
  outer loop
   vertex 84.753250 77.373451 577.026550
   vertex 84.752335 78.372086 577.078857
   vertex 84.761047 78.398247 576.579651
  endloop
 endfacet

 facet normal -0.000882 0.998630 0.052318
  outer loop
   vertex 84.761047 78.398247 576.579651
   vertex 84.752335 78.372086 577.078857
   vertex 84.931664 78.385162 576.832275
  endloop
 endfacet

 facet normal -0.000912 0.998631 0.052296
  outer loop
   vertex 84.931664 78.385162 576.832275
   vertex 84.752335 78.372086 577.078857
   vertex 85.102280 78.372086 577.084961
  endloop
 endfacet

 facet normal -0.000943 0.998630 0.052317
  outer loop
   vertex 85.102280 78.372086 577.084961
   vertex 85.111000 78.398247 576.585754
   vertex 84.931664 78.385162 576.832275
  endloop
 endfacet

 facet normal 0.000912 -0.998630 -0.052318
  outer loop
   vertex 84.761047 78.398247 576.579651
   vertex 85.111000 78.398247 576.585754
   vertex 85.102280 78.372086 577.084961
  endloop
 endfacet

 facet normal -0.000913 0.998629 0.052339
  outer loop
   vertex 84.931664 78.385162 576.832275
   vertex 85.111000 78.398247 576.585754
   vertex 84.761047 78.398247 576.579651
  endloop
 endfacet

 facet normal -0.000914 0.998629 0.052338
  outer loop
   vertex 87.995316 80.178162 577.656189
   vertex 87.993408 80.172424 577.765625
   vertex 107.607422 80.172424 578.108032
  endloop
 endfacet

 facet normal -0.017431 -0.052328 0.998478
  outer loop
   vertex 107.607422 80.172424 578.108032
   vertex 87.993408 80.172424 577.765625
   vertex 87.993538 80.030296 577.758179
  endloop
 endfacet

 facet normal -0.017431 -0.052328 0.998478
  outer loop
   vertex 87.993538 80.030296 577.758179
   vertex 107.607552 80.030296 578.100586
   vertex 107.607422 80.172424 578.108032
  endloop
 endfacet

 facet normal -0.005403 -0.950885 0.309496
  outer loop
   vertex 87.994133 80.019188 577.724060
   vertex 107.607552 80.030296 578.100586
   vertex 87.993538 80.030296 577.758179
  endloop
 endfacet

 facet normal -0.005393 -0.951048 0.308997
  outer loop
   vertex 107.608147 80.019188 578.066406
   vertex 107.607552 80.030296 578.100586
   vertex 87.994133 80.019188 577.724060
  endloop
 endfacet

 facet normal -0.017428 -0.052336 0.998477
  outer loop
   vertex 87.994133 80.019188 577.724060
   vertex 87.994698 79.406502 577.691956
   vertex 107.608147 80.019188 578.066406
  endloop
 endfacet

 facet normal -0.017428 -0.052335 0.998478
  outer loop
   vertex 107.608147 80.019188 578.066406
   vertex 87.994698 79.406502 577.691956
   vertex 107.608704 79.406494 578.034302
  endloop
 endfacet

 facet normal -0.007107 0.913308 0.407206
  outer loop
   vertex 107.608704 79.406494 578.034302
   vertex 87.994698 79.406502 577.691956
   vertex 87.994118 79.391884 577.724731
  endloop
 endfacet

 facet normal -0.007107 0.913308 0.407208
  outer loop
   vertex 87.994118 79.391884 577.724731
   vertex 107.608131 79.391876 578.067078
   vertex 107.608704 79.406494 578.034302
  endloop
 endfacet

 facet normal -0.017427 -0.052727 0.998457
  outer loop
   vertex 87.994186 79.321358 577.721008
   vertex 107.608131 79.391876 578.067078
   vertex 87.994118 79.391884 577.724731
  endloop
 endfacet

 facet normal -0.017431 -0.051870 0.998502
  outer loop
   vertex 107.608200 79.321358 578.063416
   vertex 107.608131 79.391876 578.067078
   vertex 87.994186 79.321358 577.721008
  endloop
 endfacet

 facet normal 0.000914 -0.998629 -0.052330
  outer loop
   vertex 87.994186 79.321358 577.721008
   vertex 88.021553 79.403526 576.153442
   vertex 107.608200 79.321358 578.063416
  endloop
 endfacet

 facet normal 0.000914 -0.998629 -0.052330
  outer loop
   vertex 107.608200 79.321358 578.063416
   vertex 88.021553 79.403526 576.153442
   vertex 107.635559 79.403526 576.495850
  endloop
 endfacet

 facet normal 0.017431 0.051868 -0.998502
  outer loop
   vertex 107.635559 79.403526 576.495850
   vertex 88.021553 79.403526 576.153442
   vertex 107.635498 79.474045 576.499512
  endloop
 endfacet

 facet normal 0.017431 0.052315 -0.998478
  outer loop
   vertex 109.596611 78.148590 577.000061
   vertex 109.180374 77.399620 576.953552
   vertex 109.179459 78.398247 577.005859
  endloop
 endfacet

 facet normal -0.999848 -0.000003 -0.017449
  outer loop
   vertex 109.179459 78.398247 577.005859
   vertex 109.180374 77.399620 576.953552
   vertex 109.170746 78.372078 577.505127
  endloop
 endfacet

 facet normal -0.000913 0.998630 0.052327
  outer loop
   vertex 109.170746 78.372078 577.505127
   vertex 109.529404 78.398247 577.011963
   vertex 109.179459 78.398247 577.005859
  endloop
 endfacet

 facet normal -0.000913 0.998630 0.052327
  outer loop
   vertex 109.520691 78.372078 577.511230
   vertex 109.529404 78.398247 577.011963
   vertex 109.170746 78.372078 577.505127
  endloop
 endfacet

 facet normal 0.000913 -0.998630 -0.052327
  outer loop
   vertex 109.170746 78.372078 577.505127
   vertex 109.529404 78.398247 577.011963
   vertex 109.520691 78.372078 577.511230
  endloop
 endfacet

 facet normal -0.017415 -0.052220 0.998484
  outer loop
   vertex 109.520691 78.372078 577.511230
   vertex 109.587440 78.621735 577.525452
   vertex 109.170746 78.372078 577.505127
  endloop
 endfacet

 facet normal -0.017323 -0.052373 0.998477
  outer loop
   vertex 109.170746 78.372078 577.505127
   vertex 109.587440 78.621735 577.525452
   vertex 109.284218 78.796501 577.529358
  endloop
 endfacet

 facet normal -0.017441 -0.052578 0.998465
  outer loop
   vertex 109.284218 78.796501 577.529358
   vertex 109.587440 78.621735 577.525452
   vertex 109.770256 78.804497 577.538269
  endloop
 endfacet

 facet normal -0.017445 -0.052379 0.998475
  outer loop
   vertex 109.770256 78.804497 577.538269
   vertex 109.595009 79.107193 577.551086
   vertex 109.284218 78.796501 577.529358
  endloop
 endfacet

 facet normal -0.017438 -0.052376 0.998475
  outer loop
   vertex 110.020157 78.871391 577.546143
   vertex 109.595009 79.107193 577.551086
   vertex 109.770256 78.804497 577.538269
  endloop
 endfacet

 facet normal -0.017409 -0.052323 0.998478
  outer loop
   vertex 110.019836 79.220917 577.564453
   vertex 109.595009 79.107193 577.551086
   vertex 110.020157 78.871391 577.546143
  endloop
 endfacet

 facet normal -0.017412 -0.052323 0.998478
  outer loop
   vertex 110.020157 78.871391 577.546143
   vertex 110.270180 78.804497 577.546997
   vertex 110.019836 79.220917 577.564453
  endloop
 endfacet

 facet normal -0.017446 -0.052344 0.998477
  outer loop
   vertex 110.019836 79.220917 577.564453
   vertex 110.270180 78.804497 577.546997
   vertex 110.444878 79.107193 577.565918
  endloop
 endfacet

 facet normal -0.017350 -0.052399 0.998475
  outer loop
   vertex 110.444878 79.107193 577.565918
   vertex 110.270180 78.804497 577.546997
   vertex 110.453331 78.621735 577.540588
  endloop
 endfacet

 facet normal -0.017449 -0.052401 0.998474
  outer loop
   vertex 110.453331 78.621735 577.540588
   vertex 110.756233 78.796501 577.555054
   vertex 110.444878 79.107193 577.565918
  endloop
 endfacet

 facet normal -0.017501 -0.052311 0.998477
  outer loop
   vertex 110.520538 78.372078 577.528687
   vertex 110.756233 78.796501 577.555054
   vertex 110.453331 78.621735 577.540588
  endloop
 endfacet

 facet normal -0.017415 -0.052359 0.998476
  outer loop
   vertex 110.870483 78.372078 577.534790
   vertex 110.756233 78.796501 577.555054
   vertex 110.520538 78.372078 577.528687
  endloop
 endfacet

 facet normal -0.017415 -0.052464 0.998471
  outer loop
   vertex 110.520538 78.372078 577.528687
   vertex 110.453789 78.122421 577.514404
   vertex 110.870483 78.372078 577.534790
  endloop
 endfacet

 facet normal -0.017504 -0.052315 0.998477
  outer loop
   vertex 110.870483 78.372078 577.534790
   vertex 110.453789 78.122421 577.514404
   vertex 110.871399 77.373451 577.482483
  endloop
 endfacet

 facet normal -0.017419 -0.052268 0.998481
  outer loop
   vertex 110.871399 77.373451 577.482483
   vertex 110.453789 78.122421 577.514404
   vertex 110.270973 77.939659 577.501648
  endloop
 endfacet

 facet normal -0.017457 -0.052308 0.998478
  outer loop
   vertex 110.270973 77.939659 577.501648
   vertex 110.021072 77.872765 577.493774
   vertex 110.871399 77.373451 577.482483
  endloop
 endfacet

 facet normal -0.017358 -0.052315 0.998480
  outer loop
   vertex 86.035385 78.122421 577.088196
   vertex 86.452988 77.373451 577.056213
   vertex 86.452080 78.372078 577.108521
  endloop
 endfacet

 facet normal 0.999848 -0.000005 0.017450
  outer loop
   vertex 86.452080 78.372078 577.108521
   vertex 86.452988 77.373451 577.056213
   vertex 86.460793 78.398247 576.609314
  endloop
 endfacet

 facet normal -0.000913 0.998629 0.052333
  outer loop
   vertex 86.460793 78.398247 576.609314
   vertex 86.102127 78.372078 577.102417
   vertex 86.452080 78.372078 577.108521
  endloop
 endfacet

 facet normal -0.000913 0.998629 0.052333
  outer loop
   vertex 86.110847 78.398247 576.603210
   vertex 86.102127 78.372078 577.102417
   vertex 86.460793 78.398247 576.609314
  endloop
 endfacet

 facet normal 0.000913 -0.998629 -0.052333
  outer loop
   vertex 86.460793 78.398247 576.609314
   vertex 86.102127 78.372078 577.102417
   vertex 86.110847 78.398247 576.603210
  endloop
 endfacet

 facet normal 0.017415 0.052287 -0.998480
  outer loop
   vertex 86.110847 78.398247 576.603210
   vertex 86.043640 78.647911 576.615112
   vertex 86.460793 78.398247 576.609314
  endloop
 endfacet

 facet normal 0.017466 0.052373 -0.998475
  outer loop
   vertex 86.460793 78.398247 576.609314
   vertex 86.043640 78.647911 576.615112
   vertex 86.346542 78.822670 576.629578
  endloop
 endfacet

 facet normal 0.017536 0.052253 -0.998480
  outer loop
   vertex 86.346542 78.822670 576.629578
   vertex 86.043640 78.647911 576.615112
   vertex 85.860489 78.830673 576.621460
  endloop
 endfacet

 facet normal 0.017537 0.052293 -0.998478
  outer loop
   vertex 85.860489 78.830673 576.621460
   vertex 86.035187 79.133362 576.640381
   vertex 86.346542 78.822670 576.629578
  endloop
 endfacet

 facet normal 0.017421 0.052359 -0.998476
  outer loop
   vertex 85.610466 78.897568 576.620605
   vertex 86.035187 79.133362 576.640381
   vertex 85.860489 78.830673 576.621460
  endloop
 endfacet

 facet normal 0.017344 0.052498 -0.998470
  outer loop
   vertex 85.610146 79.247086 576.638977
   vertex 86.035187 79.133362 576.640381
   vertex 85.610466 78.897568 576.620605
  endloop
 endfacet

 facet normal 0.017162 0.052498 -0.998474
  outer loop
   vertex 85.610466 78.897568 576.620605
   vertex 85.360565 78.830673 576.612793
   vertex 85.610146 79.247086 576.638977
  endloop
 endfacet

 facet normal 0.017571 0.052253 -0.998479
  outer loop
   vertex 85.610146 79.247086 576.638977
   vertex 85.360565 78.830673 576.612793
   vertex 85.185310 79.133362 576.625549
  endloop
 endfacet

 facet normal 0.017694 0.052324 -0.998473
  outer loop
   vertex 85.185310 79.133362 576.625549
   vertex 85.360565 78.830673 576.612793
   vertex 85.177742 78.647911 576.599976
  endloop
 endfacet

 facet normal 0.017297 0.052331 -0.998480
  outer loop
   vertex 85.177742 78.647911 576.599976
   vertex 84.874519 78.822670 576.603882
   vertex 85.185310 79.133362 576.625549
  endloop
 endfacet

 facet normal 0.017257 0.052262 -0.998484
  outer loop
   vertex 85.111000 78.398247 576.585754
   vertex 84.874519 78.822670 576.603882
   vertex 85.177742 78.647911 576.599976
  endloop
 endfacet

 facet normal 0.017414 0.052349 -0.998477
  outer loop
   vertex 84.761047 78.398247 576.579651
   vertex 84.874519 78.822670 576.603882
   vertex 85.111000 78.398247 576.585754
  endloop
 endfacet

 facet normal 0.017414 0.052288 -0.998480
  outer loop
   vertex 85.111000 78.398247 576.585754
   vertex 85.178200 78.148590 576.573853
   vertex 84.761047 78.398247 576.579651
  endloop
 endfacet

 facet normal 0.017467 0.052376 -0.998475
  outer loop
   vertex 84.761047 78.398247 576.579651
   vertex 85.178200 78.148590 576.573853
   vertex 84.761963 77.399620 576.527283
  endloop
 endfacet

 facet normal 0.017377 0.052426 -0.998474
  outer loop
   vertex 84.761963 77.399620 576.527283
   vertex 85.178200 78.148590 576.573853
   vertex 85.361351 77.965828 576.567444
  endloop
 endfacet

 facet normal 0.017425 0.052376 -0.998475
  outer loop
   vertex 85.361351 77.965828 576.567444
   vertex 85.611382 77.898933 576.568298
   vertex 84.761963 77.399620 576.527283
  endloop
 endfacet

 facet normal -0.015131 -0.501369 0.865101
  outer loop
   vertex 87.582306 79.305595 577.759583
   vertex 87.587135 78.828163 577.482971
   vertex 88.740845 79.305595 577.779846
  endloop
 endfacet

 facet normal -0.015085 -0.501452 0.865054
  outer loop
   vertex 88.740845 79.305595 577.779846
   vertex 87.587135 78.828163 577.482971
   vertex 88.745674 78.828163 577.503174
  endloop
 endfacet

 facet normal 0.999848 -0.000001 0.017454
  outer loop
   vertex 88.745674 78.828163 577.503174
   vertex 88.765900 78.888893 576.344543
   vertex 88.740845 79.305595 577.779846
  endloop
 endfacet

 facet normal 0.000912 -0.998630 -0.052328
  outer loop
   vertex 87.587135 78.828163 577.482971
   vertex 88.765900 78.888893 576.344543
   vertex 88.745674 78.828163 577.503174
  endloop
 endfacet

 facet normal 0.000912 -0.998630 -0.052328
  outer loop
   vertex 87.607361 78.888893 576.324341
   vertex 88.765900 78.888893 576.344543
   vertex 87.587135 78.828163 577.482971
  endloop
 endfacet

 facet normal -0.999848 -0.000005 -0.017454
  outer loop
   vertex 87.587135 78.828163 577.482971
   vertex 87.611290 79.392632 576.099121
   vertex 87.607361 78.888893 576.324341
  endloop
 endfacet

 facet normal 0.015917 -0.408211 -0.912749
  outer loop
   vertex 87.607361 78.888893 576.324341
   vertex 87.611290 79.392632 576.099121
   vertex 88.765900 78.888893 576.344543
  endloop
 endfacet

 facet normal 0.015917 -0.408211 -0.912749
  outer loop
   vertex 88.765900 78.888893 576.344543
   vertex 87.611290 79.392632 576.099121
   vertex 88.769829 79.392632 576.119324
  endloop
 endfacet

 facet normal 0.999848 0.000004 0.017452
  outer loop
   vertex 88.769829 79.392632 576.119324
   vertex 88.740845 79.305595 577.779846
   vertex 88.765900 78.888893 576.344543
  endloop
 endfacet

 facet normal 0.999848 -0.000001 0.017452
  outer loop
   vertex 88.764931 80.205109 576.399963
   vertex 88.740845 79.305595 577.779846
   vertex 88.769829 79.392632 576.119324
  endloop
 endfacet

 facet normal 0.999848 0.000002 0.017454
  outer loop
   vertex 88.744232 80.142952 577.585693
   vertex 88.740845 79.305595 577.779846
   vertex 88.764931 80.205109 576.399963
  endloop
 endfacet

 facet normal -0.000915 0.998629 0.052333
  outer loop
   vertex 88.764931 80.205109 576.399963
   vertex 87.585693 80.142952 577.565430
   vertex 88.744232 80.142952 577.585693
  endloop
 endfacet

 facet normal 0.017139 0.198821 -0.979886
  outer loop
   vertex 88.744232 80.142952 577.585693
   vertex 87.585693 80.142952 577.565430
   vertex 88.743881 80.240746 577.605530
  endloop
 endfacet

 facet normal 0.017139 0.198821 -0.979886
  outer loop
   vertex 88.743881 80.240746 577.605530
   vertex 87.585693 80.142952 577.565430
   vertex 87.585342 80.240746 577.585266
  endloop
 endfacet

 facet normal -0.000916 0.998628 0.052364
  outer loop
   vertex 87.585342 80.240746 577.585266
   vertex 88.741112 80.232422 577.764221
   vertex 88.743881 80.240746 577.605530
  endloop
 endfacet

 facet normal -0.000913 0.998629 0.052344
  outer loop
   vertex 87.582573 80.232422 577.744019
   vertex 88.741112 80.232422 577.764221
   vertex 87.585342 80.240746 577.585266
  endloop
 endfacet

 facet normal -0.014346 0.568308 0.822691
  outer loop
   vertex 87.581535 80.146072 577.803650
   vertex 88.741112 80.232422 577.764221
   vertex 87.582573 80.232422 577.744019
  endloop
 endfacet

 facet normal -0.999848 -0.000037 -0.017451
  outer loop
   vertex 87.582573 80.232422 577.744019
   vertex 87.585693 80.142952 577.565430
   vertex 87.581535 80.146072 577.803650
  endloop
 endfacet

 facet normal -0.999848 -0.000002 -0.017452
  outer loop
   vertex 87.581535 80.146072 577.803650
   vertex 87.585693 80.142952 577.565430
   vertex 87.582306 79.305595 577.759583
  endloop
 endfacet

 facet normal -0.999848 -0.000002 -0.017454
  outer loop
   vertex 87.582306 79.305595 577.759583
   vertex 87.585693 80.142952 577.565430
   vertex 87.606392 80.205109 576.379700
  endloop
 endfacet

 facet normal -0.999848 -0.000001 -0.017453
  outer loop
   vertex 87.606392 80.205109 576.379700
   vertex 87.611290 79.392632 576.099121
   vertex 87.582306 79.305595 577.759583
  endloop
 endfacet

 facet normal -0.999848 -0.000003 -0.017445
  outer loop
   vertex 87.610519 80.233109 576.143127
   vertex 87.611290 79.392632 576.099121
   vertex 87.606392 80.205109 576.379700
  endloop
 endfacet

 facet normal 0.017412 0.052295 -0.998480
  outer loop
   vertex 88.769829 79.392632 576.119324
   vertex 87.611290 79.392632 576.099121
   vertex 87.610519 80.233109 576.143127
  endloop
 endfacet

 facet normal 0.017464 0.052367 -0.998475
  outer loop
   vertex 87.610519 80.233109 576.143127
   vertex 88.769058 80.233109 576.163391
   vertex 88.769829 79.392632 576.119324
  endloop
 endfacet

 facet normal 0.999848 0.000002 0.017445
  outer loop
   vertex 88.769829 79.392632 576.119324
   vertex 88.769058 80.233109 576.163391
   vertex 88.764931 80.205109 576.399963
  endloop
 endfacet

 facet normal 0.999848 -0.000016 0.017443
  outer loop
   vertex 88.764931 80.205109 576.399963
   vertex 88.769058 80.233109 576.163391
   vertex 88.767868 80.312752 576.231689
  endloop
 endfacet

 facet normal 0.999848 -0.000018 0.017442
  outer loop
   vertex 88.767868 80.312752 576.231689
   vertex 88.765099 80.304436 576.390442
   vertex 88.764931 80.205109 576.399963
  endloop
 endfacet

 facet normal -0.000915 0.998631 0.052296
  outer loop
   vertex 87.606560 80.304436 576.370178
   vertex 88.765099 80.304436 576.390442
   vertex 88.767868 80.312752 576.231689
  endloop
 endfacet

 facet normal -0.017408 0.095437 0.995283
  outer loop
   vertex 88.764931 80.205109 576.399963
   vertex 88.765099 80.304436 576.390442
   vertex 87.606560 80.304436 576.370178
  endloop
 endfacet

 facet normal -0.017408 0.095437 0.995283
  outer loop
   vertex 87.606560 80.304436 576.370178
   vertex 87.606392 80.205109 576.379700
   vertex 88.764931 80.205109 576.399963
  endloop
 endfacet

 facet normal -0.000915 0.998629 0.052333
  outer loop
   vertex 88.764931 80.205109 576.399963
   vertex 87.606392 80.205109 576.379700
   vertex 87.585693 80.142952 577.565430
  endloop
 endfacet

 facet normal 0.015965 -0.408119 -0.912789
  outer loop
   vertex 108.047470 79.392632 576.455872
   vertex 108.043541 78.888893 576.681030
   vertex 106.888931 79.392632 576.435608
  endloop
 endfacet

 facet normal 0.015917 -0.408211 -0.912749
  outer loop
   vertex 106.888931 79.392632 576.435608
   vertex 108.043541 78.888893 576.681030
   vertex 106.885002 78.888893 576.660828
  endloop
 endfacet

 facet normal -0.999848 -0.000004 -0.017453
  outer loop
   vertex 106.885002 78.888893 576.660828
   vertex 106.864777 78.828163 577.819519
   vertex 106.888931 79.392632 576.435608
  endloop
 endfacet

 facet normal 0.000912 -0.998630 -0.052325
  outer loop
   vertex 108.043541 78.888893 576.681030
   vertex 106.864777 78.828163 577.819519
   vertex 106.885002 78.888893 576.660828
  endloop
 endfacet

 facet normal 0.000912 -0.998630 -0.052325
  outer loop
   vertex 108.023315 78.828163 577.839722
   vertex 106.864777 78.828163 577.819519
   vertex 108.043541 78.888893 576.681030
  endloop
 endfacet

 facet normal 0.999848 0.000002 0.017453
  outer loop
   vertex 108.043541 78.888893 576.681030
   vertex 108.018486 79.305595 578.116333
   vertex 108.023315 78.828163 577.839722
  endloop
 endfacet

 facet normal -0.015086 -0.501369 0.865102
  outer loop
   vertex 108.023315 78.828163 577.839722
   vertex 108.018486 79.305595 578.116333
   vertex 106.864777 78.828163 577.819519
  endloop
 endfacet

 facet normal -0.015086 -0.501369 0.865102
  outer loop
   vertex 106.864777 78.828163 577.819519
   vertex 108.018486 79.305595 578.116333
   vertex 106.859947 79.305595 578.096130
  endloop
 endfacet

 facet normal -0.999848 -0.000002 -0.017452
  outer loop
   vertex 106.859947 79.305595 578.096130
   vertex 106.888931 79.392632 576.435608
   vertex 106.864777 78.828163 577.819519
  endloop
 endfacet

 facet normal -0.999848 -0.000002 -0.017452
  outer loop
   vertex 106.863335 80.142952 577.901978
   vertex 106.888931 79.392632 576.435608
   vertex 106.859947 79.305595 578.096130
  endloop
 endfacet

 facet normal -0.999848 0.000001 -0.017454
  outer loop
   vertex 106.884033 80.205109 576.716248
   vertex 106.888931 79.392632 576.435608
   vertex 106.863335 80.142952 577.901978
  endloop
 endfacet

 facet normal -0.000913 0.998629 0.052333
  outer loop
   vertex 106.863335 80.142952 577.901978
   vertex 108.042572 80.205109 576.736450
   vertex 106.884033 80.205109 576.716248
  endloop
 endfacet

 facet normal -0.017356 0.095437 0.995284
  outer loop
   vertex 106.884033 80.205109 576.716248
   vertex 108.042572 80.205109 576.736450
   vertex 106.884201 80.304436 576.706726
  endloop
 endfacet

 facet normal -0.017356 0.095437 0.995284
  outer loop
   vertex 106.884201 80.304436 576.706726
   vertex 108.042572 80.205109 576.736450
   vertex 108.042740 80.304436 576.726929
  endloop
 endfacet

 facet normal -0.000912 0.998631 0.052296
  outer loop
   vertex 108.042740 80.304436 576.726929
   vertex 106.886971 80.312752 576.547974
   vertex 106.884201 80.304436 576.706726
  endloop
 endfacet

 facet normal -0.000915 0.998630 0.052316
  outer loop
   vertex 108.045509 80.312752 576.568237
   vertex 106.886971 80.312752 576.547974
   vertex 108.042740 80.304436 576.726929
  endloop
 endfacet

 facet normal 0.013269 0.651363 -0.758650
  outer loop
   vertex 108.046700 80.233109 576.499878
   vertex 106.886971 80.312752 576.547974
   vertex 108.045509 80.312752 576.568237
  endloop
 endfacet

 facet normal 0.999848 -0.000028 0.017441
  outer loop
   vertex 108.045509 80.312752 576.568237
   vertex 108.042572 80.205109 576.736450
   vertex 108.046700 80.233109 576.499878
  endloop
 endfacet

 facet normal 0.999848 0.000003 0.017445
  outer loop
   vertex 108.046700 80.233109 576.499878
   vertex 108.042572 80.205109 576.736450
   vertex 108.047470 79.392632 576.455872
  endloop
 endfacet

 facet normal 0.999848 0.000000 0.017454
  outer loop
   vertex 108.047470 79.392632 576.455872
   vertex 108.042572 80.205109 576.736450
   vertex 108.021873 80.142952 577.922180
  endloop
 endfacet

 facet normal 0.999848 0.000002 0.017453
  outer loop
   vertex 108.021873 80.142952 577.922180
   vertex 108.018486 79.305595 578.116333
   vertex 108.047470 79.392632 576.455872
  endloop
 endfacet

 facet normal 0.999848 0.000002 0.017452
  outer loop
   vertex 108.017715 80.146072 578.160400
   vertex 108.018486 79.305595 578.116333
   vertex 108.021873 80.142952 577.922180
  endloop
 endfacet

 facet normal -0.017411 -0.052367 0.998476
  outer loop
   vertex 106.859947 79.305595 578.096130
   vertex 108.018486 79.305595 578.116333
   vertex 108.017715 80.146072 578.160400
  endloop
 endfacet

 facet normal -0.017464 -0.052295 0.998479
  outer loop
   vertex 108.017715 80.146072 578.160400
   vertex 106.859177 80.146072 578.140137
   vertex 106.859947 79.305595 578.096130
  endloop
 endfacet

 facet normal -0.999848 -0.000003 -0.017456
  outer loop
   vertex 106.859947 79.305595 578.096130
   vertex 106.859177 80.146072 578.140137
   vertex 106.863335 80.142952 577.901978
  endloop
 endfacet

 facet normal -0.999848 -0.000040 -0.017456
  outer loop
   vertex 106.863335 80.142952 577.901978
   vertex 106.859177 80.146072 578.140137
   vertex 106.860214 80.232422 578.080505
  endloop
 endfacet

 facet normal -0.999848 -0.000048 -0.017452
  outer loop
   vertex 106.860214 80.232422 578.080505
   vertex 106.862984 80.240738 577.921814
   vertex 106.863335 80.142952 577.901978
  endloop
 endfacet

 facet normal -0.000912 0.998630 0.052316
  outer loop
   vertex 108.021523 80.240738 577.942017
   vertex 106.862984 80.240738 577.921814
   vertex 106.860214 80.232422 578.080505
  endloop
 endfacet

 facet normal 0.017087 0.198836 -0.979884
  outer loop
   vertex 106.863335 80.142952 577.901978
   vertex 106.862984 80.240738 577.921814
   vertex 108.021523 80.240738 577.942017
  endloop
 endfacet

 facet normal 0.017087 0.198836 -0.979884
  outer loop
   vertex 108.021523 80.240738 577.942017
   vertex 108.021873 80.142952 577.922180
   vertex 106.863335 80.142952 577.901978
  endloop
 endfacet

 facet normal -0.000913 0.998629 0.052333
  outer loop
   vertex 106.863335 80.142952 577.901978
   vertex 108.021873 80.142952 577.922180
   vertex 108.042572 80.205109 576.736450
  endloop
 endfacet

 facet normal -0.017414 -0.052286 0.998480
  outer loop
   vertex 86.102127 78.372078 577.102417
   vertex 86.452080 78.372078 577.108521
   vertex 86.034927 78.621742 577.114319
  endloop
 endfacet

 facet normal -0.017466 -0.052373 0.998475
  outer loop
   vertex 86.034927 78.621742 577.114319
   vertex 86.452080 78.372078 577.108521
   vertex 86.337830 78.796501 577.128784
  endloop
 endfacet

 facet normal -0.017414 -0.052463 0.998471
  outer loop
   vertex 86.337830 78.796501 577.128784
   vertex 85.851776 78.804504 577.120728
   vertex 86.034927 78.621742 577.114319
  endloop
 endfacet

 facet normal -0.017413 -0.052365 0.998476
  outer loop
   vertex 86.026466 79.107193 577.139648
   vertex 85.851776 78.804504 577.120728
   vertex 86.337830 78.796501 577.128784
  endloop
 endfacet

 facet normal -0.017421 -0.052360 0.998476
  outer loop
   vertex 85.601753 78.871399 577.119873
   vertex 85.851776 78.804504 577.120728
   vertex 86.026466 79.107193 577.139648
  endloop
 endfacet

 facet normal -0.017441 -0.052324 0.998478
  outer loop
   vertex 86.026466 79.107193 577.139648
   vertex 85.601433 79.220917 577.138184
   vertex 85.601753 78.871399 577.119873
  endloop
 endfacet

 facet normal -0.017452 -0.052324 0.998478
  outer loop
   vertex 85.601753 78.871399 577.119873
   vertex 85.601433 79.220917 577.138184
   vertex 85.351852 78.804504 577.112000
  endloop
 endfacet

 facet normal -0.017400 -0.052355 0.998477
  outer loop
   vertex 85.351852 78.804504 577.112000
   vertex 85.601433 79.220917 577.138184
   vertex 85.176598 79.107193 577.124817
  endloop
 endfacet

 facet normal -0.017356 -0.052330 0.998479
  outer loop
   vertex 85.176598 79.107193 577.124817
   vertex 85.169029 78.621742 577.099243
   vertex 85.351852 78.804504 577.112000
  endloop
 endfacet

 facet normal -0.017496 -0.052327 0.998477
  outer loop
   vertex 84.865807 78.796501 577.103088
   vertex 85.169029 78.621742 577.099243
   vertex 85.176598 79.107193 577.124817
  endloop
 endfacet

 facet normal -0.017554 -0.052427 0.998470
  outer loop
   vertex 85.102280 78.372086 577.084961
   vertex 85.169029 78.621742 577.099243
   vertex 84.865807 78.796501 577.103088
  endloop
 endfacet

 facet normal -0.017415 -0.052350 0.998477
  outer loop
   vertex 84.865807 78.796501 577.103088
   vertex 84.752335 78.372086 577.078857
   vertex 85.102280 78.372086 577.084961
  endloop
 endfacet

 facet normal -0.017415 -0.052287 0.998480
  outer loop
   vertex 85.102280 78.372086 577.084961
   vertex 84.752335 78.372086 577.078857
   vertex 85.169487 78.122421 577.073059
  endloop
 endfacet

 facet normal -0.017432 -0.052315 0.998478
  outer loop
   vertex 85.169487 78.122421 577.073059
   vertex 84.752335 78.372086 577.078857
   vertex 84.753250 77.373451 577.026550
  endloop
 endfacet

 facet normal -0.017539 -0.052255 0.998480
  outer loop
   vertex 84.753250 77.373451 577.026550
   vertex 85.352638 77.939659 577.066711
   vertex 85.169487 78.122421 577.073059
  endloop
 endfacet

 facet normal -0.017426 -0.052375 0.998475
  outer loop
   vertex 85.602661 77.872765 577.067566
   vertex 85.352638 77.939659 577.066711
   vertex 84.753250 77.373451 577.026550
  endloop
 endfacet

 facet normal 0.017415 0.052464 -0.998471
  outer loop
   vertex 109.529404 78.398247 577.011963
   vertex 109.179459 78.398247 577.005859
   vertex 109.596153 78.647903 577.026245
  endloop
 endfacet

 facet normal 0.017497 0.052327 -0.998477
  outer loop
   vertex 109.596153 78.647903 577.026245
   vertex 109.179459 78.398247 577.005859
   vertex 109.292931 78.822670 577.030090
  endloop
 endfacet

 facet normal 0.017447 0.052239 -0.998482
  outer loop
   vertex 109.292931 78.822670 577.030090
   vertex 109.778969 78.830666 577.039001
   vertex 109.596153 78.647903 577.026245
  endloop
 endfacet

 facet normal 0.017445 0.052379 -0.998475
  outer loop
   vertex 109.603722 79.133362 577.051819
   vertex 109.778969 78.830666 577.039001
   vertex 109.292931 78.822670 577.030090
  endloop
 endfacet

 facet normal 0.017438 0.052376 -0.998475
  outer loop
   vertex 110.028870 78.897560 577.046875
   vertex 109.778969 78.830666 577.039001
   vertex 109.603722 79.133362 577.051819
  endloop
 endfacet

 facet normal 0.017409 0.052323 -0.998478
  outer loop
   vertex 109.603722 79.133362 577.051819
   vertex 110.028549 79.247086 577.065186
   vertex 110.028870 78.897560 577.046875
  endloop
 endfacet

 facet normal 0.017412 0.052323 -0.998478
  outer loop
   vertex 110.028870 78.897560 577.046875
   vertex 110.028549 79.247086 577.065186
   vertex 110.278893 78.830666 577.047729
  endloop
 endfacet

 facet normal 0.017446 0.052344 -0.998477
  outer loop
   vertex 110.278893 78.830666 577.047729
   vertex 110.028549 79.247086 577.065186
   vertex 110.453590 79.133362 577.066650
  endloop
 endfacet

 facet normal 0.017561 0.052278 -0.998478
  outer loop
   vertex 110.453590 79.133362 577.066650
   vertex 110.462044 78.647903 577.041382
   vertex 110.278893 78.830666 577.047729
  endloop
 endfacet

 facet normal 0.017321 0.052274 -0.998483
  outer loop
   vertex 110.764954 78.822670 577.055786
   vertex 110.462044 78.647903 577.041382
   vertex 110.453590 79.133362 577.066650
  endloop
 endfacet

 facet normal 0.017204 0.052476 -0.998474
  outer loop
   vertex 110.529251 78.398247 577.029419
   vertex 110.462044 78.647903 577.041382
   vertex 110.764954 78.822670 577.055786
  endloop
 endfacet

 facet normal 0.017589 0.052262 -0.998478
  outer loop
   vertex 110.764954 78.822670 577.055786
   vertex 110.879196 78.398247 577.035583
   vertex 110.529251 78.398247 577.029419
  endloop
 endfacet

 facet normal 0.017589 0.052174 -0.998483
  outer loop
   vertex 110.529251 78.398247 577.029419
   vertex 110.879196 78.398247 577.035583
   vertex 110.462502 78.148590 577.015198
  endloop
 endfacet

 facet normal 0.017467 0.052376 -0.998475
  outer loop
   vertex 110.462502 78.148590 577.015198
   vertex 110.879196 78.398247 577.035583
   vertex 110.880112 77.399620 576.983215
  endloop
 endfacet

 facet normal 0.017366 0.052320 -0.998479
  outer loop
   vertex 110.880112 77.399620 576.983215
   vertex 110.279686 77.965828 577.002441
   vertex 110.462502 78.148590 577.015198
  endloop
 endfacet

 facet normal 0.017434 0.052392 -0.998474
  outer loop
   vertex 110.029785 77.898933 576.994568
   vertex 110.279686 77.965828 577.002441
   vertex 110.880112 77.399620 576.983215
  endloop
 endfacet

 facet normal 0.017425 0.052376 -0.998475
  outer loop
   vertex 84.761963 77.399620 576.527283
   vertex 85.611382 77.898933 576.568298
   vertex 86.461708 77.399620 576.556946
  endloop
 endfacet

 facet normal 0.017434 0.052392 -0.998474
  outer loop
   vertex 86.461708 77.399620 576.556946
   vertex 85.611382 77.898933 576.568298
   vertex 85.861282 77.965828 576.576172
  endloop
 endfacet

 facet normal 0.017366 0.052320 -0.998479
  outer loop
   vertex 85.861282 77.965828 576.576172
   vertex 86.044098 78.148590 576.588928
   vertex 86.461708 77.399620 576.556946
  endloop
 endfacet

 facet normal 0.017539 0.052255 -0.998480
  outer loop
   vertex 109.596611 78.148590 577.000061
   vertex 109.779762 77.965828 576.993713
   vertex 109.180374 77.399620 576.953552
  endloop
 endfacet

 facet normal 0.017426 0.052375 -0.998475
  outer loop
   vertex 109.180374 77.399620 576.953552
   vertex 109.779762 77.965828 576.993713
   vertex 110.029785 77.898933 576.994568
  endloop
 endfacet

 facet normal 0.017425 0.052376 -0.998475
  outer loop
   vertex 110.029785 77.898933 576.994568
   vertex 110.880112 77.399620 576.983215
   vertex 109.180374 77.399620 576.953552
  endloop
 endfacet

 facet normal -0.017425 -0.052254 0.998482
  outer loop
   vertex 110.871399 77.373451 577.482483
   vertex 110.021072 77.872765 577.493774
   vertex 109.171654 77.373451 577.452820
  endloop
 endfacet

 facet normal -0.017403 -0.052291 0.998480
  outer loop
   vertex 109.171654 77.373451 577.452820
   vertex 110.021072 77.872765 577.493774
   vertex 109.771049 77.939659 577.492920
  endloop
 endfacet

 facet normal -0.017325 -0.052374 0.998477
  outer loop
   vertex 109.771049 77.939659 577.492920
   vertex 109.587898 78.122421 577.499329
   vertex 109.171654 77.373451 577.452820
  endloop
 endfacet

 facet normal -0.017366 -0.052320 0.998479
  outer loop
   vertex 86.035385 78.122421 577.088196
   vertex 85.852562 77.939659 577.075439
   vertex 86.452988 77.373451 577.056213
  endloop
 endfacet

 facet normal -0.017434 -0.052392 0.998474
  outer loop
   vertex 86.452988 77.373451 577.056213
   vertex 85.852562 77.939659 577.075439
   vertex 85.602661 77.872765 577.067566
  endloop
 endfacet

 facet normal -0.017425 -0.052376 0.998475
  outer loop
   vertex 85.602661 77.872765 577.067566
   vertex 84.753250 77.373451 577.026550
   vertex 86.452988 77.373451 577.056213
  endloop
 endfacet

 facet normal -0.014389 0.568308 0.822690
  outer loop
   vertex 108.017715 80.146072 578.160400
   vertex 108.018753 80.232422 578.100769
   vertex 106.859177 80.146072 578.140137
  endloop
 endfacet

 facet normal -0.014389 0.568308 0.822690
  outer loop
   vertex 106.859177 80.146072 578.140137
   vertex 108.018753 80.232422 578.100769
   vertex 106.860214 80.232422 578.080505
  endloop
 endfacet

 facet normal 0.017428 0.052336 -0.998477
  outer loop
   vertex 88.020889 79.485161 576.191284
   vertex 88.020332 80.097847 576.223389
   vertex 107.634903 79.485161 576.533630
  endloop
 endfacet

 facet normal 0.017428 0.052336 -0.998477
  outer loop
   vertex 107.634903 79.485161 576.533630
   vertex 88.020332 80.097847 576.223389
   vertex 107.634338 80.097847 576.565735
  endloop
 endfacet

 facet normal 0.013234 0.651028 -0.758938
  outer loop
   vertex 88.767868 80.312752 576.231689
   vertex 88.769058 80.233109 576.163391
   vertex 87.609329 80.312752 576.211487
  endloop
 endfacet

 facet normal 0.013269 0.651363 -0.758650
  outer loop
   vertex 87.609329 80.312752 576.211487
   vertex 88.769058 80.233109 576.163391
   vertex 87.610519 80.233109 576.143127
  endloop
 endfacet

 facet normal -0.000913 0.998630 0.052327
  outer loop
   vertex 110.520538 78.372078 577.528687
   vertex 110.870483 78.372078 577.534790
   vertex 110.699867 78.385162 577.282104
  endloop
 endfacet

 facet normal 0.999848 0.000002 0.017453
  outer loop
   vertex 108.047470 79.392632 576.455872
   vertex 108.018486 79.305595 578.116333
   vertex 108.043541 78.888893 576.681030
  endloop
 endfacet

 facet normal 0.017415 0.052288 -0.998480
  outer loop
   vertex 109.179459 78.398247 577.005859
   vertex 109.529404 78.398247 577.011963
   vertex 109.596611 78.148590 577.000061
  endloop
 endfacet

 facet normal 0.017415 0.052464 -0.998471
  outer loop
   vertex 86.110847 78.398247 576.603210
   vertex 86.460793 78.398247 576.609314
   vertex 86.044098 78.148590 576.588928
  endloop
 endfacet

 facet normal 0.000922 -0.998629 -0.052333
  outer loop
   vertex 110.870483 78.372078 577.534790
   vertex 110.529251 78.398247 577.029419
   vertex 110.879196 78.398247 577.035583
  endloop
 endfacet

 facet normal -0.017418 -0.052328 0.998478
  outer loop
   vertex 87.833633 78.970139 577.471924
   vertex 86.185722 78.970139 577.443176
   vertex 86.187134 77.431206 577.362549
  endloop
 endfacet

 facet normal 0.017418 0.052328 -0.998478
  outer loop
   vertex 107.798187 77.489555 576.626221
   vertex 107.796776 79.028496 576.706848
   vertex 109.446098 77.489555 576.654968
  endloop
 endfacet

 facet normal 0.000912 -0.998630 -0.052318
  outer loop
   vertex 84.761047 78.398247 576.579651
   vertex 85.102280 78.372086 577.084961
   vertex 84.752335 78.372086 577.078857
  endloop
 endfacet

 facet normal -0.999848 -0.000050 -0.017445
  outer loop
   vertex 87.582573 80.232422 577.744019
   vertex 87.585342 80.240746 577.585266
   vertex 87.585693 80.142952 577.565430
  endloop
 endfacet

 facet normal 0.000913 -0.998630 -0.052327
  outer loop
   vertex 109.529404 78.398247 577.011963
   vertex 109.170746 78.372078 577.505127
   vertex 109.179459 78.398247 577.005859
  endloop
 endfacet

 facet normal -0.999848 -0.000002 -0.017453
  outer loop
   vertex 87.582306 79.305595 577.759583
   vertex 87.611290 79.392632 576.099121
   vertex 87.587135 78.828163 577.482971
  endloop
 endfacet

 facet normal 0.999848 -0.000017 0.017448
  outer loop
   vertex 108.045509 80.312752 576.568237
   vertex 108.042740 80.304436 576.726929
   vertex 108.042572 80.205109 576.736450
  endloop
 endfacet

 facet normal -0.017418 -0.052328 0.998478
  outer loop
   vertex 107.777344 78.970139 577.820068
   vertex 107.778755 77.431206 577.739441
   vertex 109.426659 77.431206 577.768188
  endloop
 endfacet

 facet normal 0.999848 0.000003 0.017453
  outer loop
   vertex 87.835045 77.431206 577.391296
   vertex 87.854477 77.489555 576.278076
   vertex 87.853065 79.028496 576.358704
  endloop
 endfacet

 facet normal 0.000913 -0.998629 -0.052333
  outer loop
   vertex 86.102127 78.372078 577.102417
   vertex 86.460793 78.398247 576.609314
   vertex 86.452080 78.372078 577.108521
  endloop
 endfacet

 facet normal -0.017415 -0.052221 0.998484
  outer loop
   vertex 86.452080 78.372078 577.108521
   vertex 86.102127 78.372078 577.102417
   vertex 86.035385 78.122421 577.088196
  endloop
 endfacet

 facet normal -0.707648 0.706135 0.024652
  outer loop
   vertex 85.852562 77.939659 577.075439
   vertex 86.044098 78.148590 576.588928
   vertex 85.861282 77.965828 576.576172
  endloop
 endfacet

 facet normal -0.259659 0.964603 0.046024
  outer loop
   vertex 85.852562 77.939659 577.075439
   vertex 85.861282 77.965828 576.576172
   vertex 85.602661 77.872765 577.067566
  endloop
 endfacet

 facet normal -0.259659 0.964603 0.046024
  outer loop
   vertex 85.602661 77.872765 577.067566
   vertex 85.861282 77.965828 576.576172
   vertex 85.611382 77.898933 576.568298
  endloop
 endfacet

 facet normal 0.257895 0.964603 0.055064
  outer loop
   vertex 85.611382 77.898933 576.568298
   vertex 85.352638 77.939659 577.066711
   vertex 85.602661 77.872765 577.067566
  endloop
 endfacet

 facet normal 0.257887 0.964605 0.055060
  outer loop
   vertex 85.361351 77.965828 576.567444
   vertex 85.352638 77.939659 577.066711
   vertex 85.611382 77.898933 576.568298
  endloop
 endfacet

 facet normal 0.706350 0.706141 0.049339
  outer loop
   vertex 85.169487 78.122421 577.073059
   vertex 85.352638 77.939659 577.066711
   vertex 85.361351 77.965828 576.567444
  endloop
 endfacet

 facet normal 0.706359 0.706132 0.049344
  outer loop
   vertex 85.361351 77.965828 576.567444
   vertex 85.178200 78.148590 576.573853
   vertex 85.169487 78.122421 577.073059
  endloop
 endfacet

 facet normal 0.965542 0.258466 0.030401
  outer loop
   vertex 85.169487 78.122421 577.073059
   vertex 85.178200 78.148590 576.573853
   vertex 85.102280 78.372086 577.084961
  endloop
 endfacet

 facet normal -0.966014 0.258468 -0.003311
  outer loop
   vertex 110.520538 78.372078 577.528687
   vertex 110.529251 78.398247 577.029419
   vertex 110.453789 78.122421 577.514404
  endloop
 endfacet

 facet normal -0.966014 0.258467 -0.003311
  outer loop
   vertex 110.453789 78.122421 577.514404
   vertex 110.529251 78.398247 577.029419
   vertex 110.462502 78.148590 577.015198
  endloop
 endfacet

 facet normal -0.707649 0.706134 0.024665
  outer loop
   vertex 110.462502 78.148590 577.015198
   vertex 110.270973 77.939659 577.501648
   vertex 110.453789 78.122421 577.514404
  endloop
 endfacet

 facet normal -0.707649 0.706134 0.024665
  outer loop
   vertex 110.279686 77.965828 577.002441
   vertex 110.270973 77.939659 577.501648
   vertex 110.462502 78.148590 577.015198
  endloop
 endfacet

 facet normal -0.259659 0.964602 0.046033
  outer loop
   vertex 110.021072 77.872765 577.493774
   vertex 110.270973 77.939659 577.501648
   vertex 110.279686 77.965828 577.002441
  endloop
 endfacet

 facet normal -0.259659 0.964602 0.046033
  outer loop
   vertex 110.279686 77.965828 577.002441
   vertex 110.029785 77.898933 576.994568
   vertex 110.021072 77.872765 577.493774
  endloop
 endfacet

 facet normal 0.257895 0.964603 0.055066
  outer loop
   vertex 110.021072 77.872765 577.493774
   vertex 110.029785 77.898933 576.994568
   vertex 109.771049 77.939659 577.492920
  endloop
 endfacet

 facet normal 0.257895 0.964603 0.055066
  outer loop
   vertex 109.771049 77.939659 577.492920
   vertex 110.029785 77.898933 576.994568
   vertex 109.779762 77.965828 576.993713
  endloop
 endfacet

 facet normal 0.706359 0.706132 0.049344
  outer loop
   vertex 109.779762 77.965828 576.993713
   vertex 109.587898 78.122421 577.499329
   vertex 109.771049 77.939659 577.492920
  endloop
 endfacet

 facet normal 0.965543 0.258462 0.030401
  outer loop
   vertex 86.452080 78.372078 577.108521
   vertex 86.460793 78.398247 576.609314
   vertex 86.337830 78.796501 577.128784
  endloop
 endfacet

 facet normal 0.965543 0.258462 0.030401
  outer loop
   vertex 86.337830 78.796501 577.128784
   vertex 86.460793 78.398247 576.609314
   vertex 86.346542 78.822670 576.629578
  endloop
 endfacet

 facet normal 0.706345 0.706146 0.049345
  outer loop
   vertex 86.346542 78.822670 576.629578
   vertex 86.026466 79.107193 577.139648
   vertex 86.337830 78.796501 577.128784
  endloop
 endfacet

 facet normal 0.706349 0.706142 0.049349
  outer loop
   vertex 86.035187 79.133362 576.640381
   vertex 86.026466 79.107193 577.139648
   vertex 86.346542 78.822670 576.629578
  endloop
 endfacet

 facet normal 0.257903 0.964601 0.055064
  outer loop
   vertex 85.601433 79.220917 577.138184
   vertex 86.026466 79.107193 577.139648
   vertex 86.035187 79.133362 576.640381
  endloop
 endfacet

 facet normal 0.257906 0.964600 0.055066
  outer loop
   vertex 86.035187 79.133362 576.640381
   vertex 85.610146 79.247086 576.638977
   vertex 85.601433 79.220917 577.138184
  endloop
 endfacet

 facet normal -0.259662 0.964602 0.046033
  outer loop
   vertex 85.601433 79.220917 577.138184
   vertex 85.610146 79.247086 576.638977
   vertex 85.176598 79.107193 577.124817
  endloop
 endfacet

 facet normal -0.259668 0.964600 0.046027
  outer loop
   vertex 85.176598 79.107193 577.124817
   vertex 85.610146 79.247086 576.638977
   vertex 85.185310 79.133362 576.625549
  endloop
 endfacet

 facet normal -0.707641 0.706142 0.024663
  outer loop
   vertex 85.185310 79.133362 576.625549
   vertex 84.865807 78.796501 577.103088
   vertex 85.176598 79.107193 577.124817
  endloop
 endfacet

 facet normal -0.707638 0.706144 0.024666
  outer loop
   vertex 84.874519 78.822670 576.603882
   vertex 84.865807 78.796501 577.103088
   vertex 85.185310 79.133362 576.625549
  endloop
 endfacet

 facet normal -0.966015 0.258463 -0.003311
  outer loop
   vertex 84.752335 78.372086 577.078857
   vertex 84.865807 78.796501 577.103088
   vertex 84.874519 78.822670 576.603882
  endloop
 endfacet

 facet normal -0.966016 0.258459 -0.003315
  outer loop
   vertex 84.874519 78.822670 576.603882
   vertex 84.761047 78.398247 576.579651
   vertex 84.752335 78.372086 577.078857
  endloop
 endfacet

 facet normal 0.965543 0.258462 0.030401
  outer loop
   vertex 110.870483 78.372078 577.534790
   vertex 110.879196 78.398247 577.035583
   vertex 110.756233 78.796501 577.555054
  endloop
 endfacet

 facet normal 0.965546 0.258450 0.030411
  outer loop
   vertex 110.756233 78.796501 577.555054
   vertex 110.879196 78.398247 577.035583
   vertex 110.764954 78.822670 577.055786
  endloop
 endfacet

 facet normal 0.706354 0.706137 0.049349
  outer loop
   vertex 110.764954 78.822670 577.055786
   vertex 110.444878 79.107193 577.565918
   vertex 110.756233 78.796501 577.555054
  endloop
 endfacet

 facet normal 0.706345 0.706146 0.049339
  outer loop
   vertex 110.453590 79.133362 577.066650
   vertex 110.444878 79.107193 577.565918
   vertex 110.764954 78.822670 577.055786
  endloop
 endfacet

 facet normal 0.257899 0.964602 0.055060
  outer loop
   vertex 110.019836 79.220917 577.564453
   vertex 110.444878 79.107193 577.565918
   vertex 110.453590 79.133362 577.066650
  endloop
 endfacet

 facet normal 0.257899 0.964602 0.055060
  outer loop
   vertex 110.453590 79.133362 577.066650
   vertex 110.028549 79.247086 577.065186
   vertex 110.019836 79.220917 577.564453
  endloop
 endfacet

 facet normal -0.259666 0.964601 0.046028
  outer loop
   vertex 110.019836 79.220917 577.564453
   vertex 110.028549 79.247086 577.065186
   vertex 109.595009 79.107193 577.551086
  endloop
 endfacet

 facet normal -0.259666 0.964601 0.046028
  outer loop
   vertex 109.595009 79.107193 577.551086
   vertex 110.028549 79.247086 577.065186
   vertex 109.603722 79.133362 577.051819
  endloop
 endfacet

 facet normal -0.707641 0.706142 0.024663
  outer loop
   vertex 109.603722 79.133362 577.051819
   vertex 109.284218 78.796501 577.529358
   vertex 109.595009 79.107193 577.551086
  endloop
 endfacet

 facet normal -0.707641 0.706142 0.024663
  outer loop
   vertex 109.292931 78.822670 577.030090
   vertex 109.284218 78.796501 577.529358
   vertex 109.603722 79.133362 577.051819
  endloop
 endfacet

 facet normal -0.966017 0.258459 -0.003311
  outer loop
   vertex 109.170746 78.372078 577.505127
   vertex 109.284218 78.796501 577.529358
   vertex 109.292931 78.822670 577.030090
  endloop
 endfacet

 facet normal -0.966017 0.258459 -0.003311
  outer loop
   vertex 109.292931 78.822670 577.030090
   vertex 109.179459 78.398247 577.005859
   vertex 109.170746 78.372078 577.505127
  endloop
 endfacet

 facet normal 0.706350 0.706141 0.049339
  outer loop
   vertex 109.779762 77.965828 576.993713
   vertex 109.596611 78.148590 577.000061
   vertex 109.587898 78.122421 577.499329
  endloop
 endfacet

 facet normal 0.965540 0.258473 0.030397
  outer loop
   vertex 109.587898 78.122421 577.499329
   vertex 109.596611 78.148590 577.000061
   vertex 109.529404 78.398247 577.011963
  endloop
 endfacet

 facet normal 0.965540 0.258473 0.030397
  outer loop
   vertex 109.529404 78.398247 577.011963
   vertex 109.520691 78.372078 577.511230
   vertex 109.587898 78.122421 577.499329
  endloop
 endfacet

 facet normal 0.966014 -0.258468 0.003311
  outer loop
   vertex 109.596153 78.647903 577.026245
   vertex 109.520691 78.372078 577.511230
   vertex 109.529404 78.398247 577.011963
  endloop
 endfacet

 facet normal 0.966014 -0.258467 0.003311
  outer loop
   vertex 109.587440 78.621735 577.525452
   vertex 109.520691 78.372078 577.511230
   vertex 109.596153 78.647903 577.026245
  endloop
 endfacet

 facet normal 0.707649 -0.706134 -0.024665
  outer loop
   vertex 109.596153 78.647903 577.026245
   vertex 109.778969 78.830666 577.039001
   vertex 109.587440 78.621735 577.525452
  endloop
 endfacet

 facet normal 0.707653 -0.706130 -0.024662
  outer loop
   vertex 109.587440 78.621735 577.525452
   vertex 109.778969 78.830666 577.039001
   vertex 109.770256 78.804497 577.538269
  endloop
 endfacet

 facet normal 0.259659 -0.964603 -0.046028
  outer loop
   vertex 109.770256 78.804497 577.538269
   vertex 109.778969 78.830666 577.039001
   vertex 110.028870 78.897560 577.046875
  endloop
 endfacet

 facet normal 0.259659 -0.964603 -0.046028
  outer loop
   vertex 110.028870 78.897560 577.046875
   vertex 110.020157 78.871391 577.546143
   vertex 109.770256 78.804497 577.538269
  endloop
 endfacet

 facet normal -0.257895 -0.964603 -0.055060
  outer loop
   vertex 110.278893 78.830666 577.047729
   vertex 110.020157 78.871391 577.546143
   vertex 110.028870 78.897560 577.046875
  endloop
 endfacet

 facet normal -0.257895 -0.964603 -0.055060
  outer loop
   vertex 110.270180 78.804497 577.546997
   vertex 110.020157 78.871391 577.546143
   vertex 110.278893 78.830666 577.047729
  endloop
 endfacet

 facet normal -0.706350 -0.706141 -0.049339
  outer loop
   vertex 110.278893 78.830666 577.047729
   vertex 110.462044 78.647903 577.041382
   vertex 110.270180 78.804497 577.546997
  endloop
 endfacet

 facet normal -0.706359 -0.706132 -0.049344
  outer loop
   vertex 110.270180 78.804497 577.546997
   vertex 110.462044 78.647903 577.041382
   vertex 110.453331 78.621735 577.540588
  endloop
 endfacet

 facet normal -0.965542 -0.258466 -0.030401
  outer loop
   vertex 110.453331 78.621735 577.540588
   vertex 110.462044 78.647903 577.041382
   vertex 110.529251 78.398247 577.029419
  endloop
 endfacet

 facet normal -0.965540 -0.258473 -0.030397
  outer loop
   vertex 110.529251 78.398247 577.029419
   vertex 110.520538 78.372078 577.528687
   vertex 110.453331 78.621735 577.540588
  endloop
 endfacet

 facet normal -0.707634 0.706149 0.024663
  outer loop
   vertex 85.852562 77.939659 577.075439
   vertex 86.035385 78.122421 577.088196
   vertex 86.044098 78.148590 576.588928
  endloop
 endfacet

 facet normal -0.966022 0.258440 -0.003312
  outer loop
   vertex 86.044098 78.148590 576.588928
   vertex 86.035385 78.122421 577.088196
   vertex 86.102127 78.372078 577.102417
  endloop
 endfacet

 facet normal -0.966014 0.258469 -0.003326
  outer loop
   vertex 86.102127 78.372078 577.102417
   vertex 86.110847 78.398247 576.603210
   vertex 86.044098 78.148590 576.588928
  endloop
 endfacet

 facet normal -0.965549 -0.258438 -0.030414
  outer loop
   vertex 86.034927 78.621742 577.114319
   vertex 86.110847 78.398247 576.603210
   vertex 86.102127 78.372078 577.102417
  endloop
 endfacet

 facet normal -0.965542 -0.258466 -0.030401
  outer loop
   vertex 86.043640 78.647911 576.615112
   vertex 86.110847 78.398247 576.603210
   vertex 86.034927 78.621742 577.114319
  endloop
 endfacet

 facet normal -0.706359 -0.706132 -0.049344
  outer loop
   vertex 86.034927 78.621742 577.114319
   vertex 85.851776 78.804504 577.120728
   vertex 86.043640 78.647911 576.615112
  endloop
 endfacet

 facet normal -0.706350 -0.706141 -0.049339
  outer loop
   vertex 86.043640 78.647911 576.615112
   vertex 85.851776 78.804504 577.120728
   vertex 85.860489 78.830673 576.621460
  endloop
 endfacet

 facet normal -0.257895 -0.964603 -0.055060
  outer loop
   vertex 85.860489 78.830673 576.621460
   vertex 85.851776 78.804504 577.120728
   vertex 85.601753 78.871399 577.119873
  endloop
 endfacet

 facet normal -0.257895 -0.964603 -0.055060
  outer loop
   vertex 85.601753 78.871399 577.119873
   vertex 85.610466 78.897568 576.620605
   vertex 85.860489 78.830673 576.621460
  endloop
 endfacet

 facet normal 0.259659 -0.964603 -0.046028
  outer loop
   vertex 85.351852 78.804504 577.112000
   vertex 85.610466 78.897568 576.620605
   vertex 85.601753 78.871399 577.119873
  endloop
 endfacet

 facet normal 0.259649 -0.964605 -0.046034
  outer loop
   vertex 85.360565 78.830673 576.612793
   vertex 85.610466 78.897568 576.620605
   vertex 85.351852 78.804504 577.112000
  endloop
 endfacet

 facet normal 0.707634 -0.706149 -0.024666
  outer loop
   vertex 85.351852 78.804504 577.112000
   vertex 85.169029 78.621742 577.099243
   vertex 85.360565 78.830673 576.612793
  endloop
 endfacet

 facet normal 0.707638 -0.706145 -0.024663
  outer loop
   vertex 85.360565 78.830673 576.612793
   vertex 85.169029 78.621742 577.099243
   vertex 85.177742 78.647911 576.599976
  endloop
 endfacet

 facet normal 0.966014 -0.258468 0.003311
  outer loop
   vertex 85.177742 78.647911 576.599976
   vertex 85.169029 78.621742 577.099243
   vertex 85.102280 78.372086 577.084961
  endloop
 endfacet

 facet normal 0.966023 -0.258434 0.003332
  outer loop
   vertex 85.102280 78.372086 577.084961
   vertex 85.111000 78.398247 576.585754
   vertex 85.177742 78.647911 576.599976
  endloop
 endfacet

 facet normal 0.965547 0.258445 0.030411
  outer loop
   vertex 85.178200 78.148590 576.573853
   vertex 85.111000 78.398247 576.585754
   vertex 85.102280 78.372086 577.084961
  endloop
 endfacet

endsolid