solid stl file generated from DOUG
 facet normal 0.010958 0.777226 -0.629126
  outer loop
   vertex -82.184471 -2.526007 653.662842
   vertex -81.683372 -2.526007 653.671570
   vertex -82.181076 -2.683706 653.468079
  endloop
 endfacet

 facet normal 0.011037 0.777130 -0.629243
  outer loop
   vertex -82.181076 -2.683706 653.468079
   vertex -81.683372 -2.526007 653.671570
   vertex -81.679977 -2.683706 653.476868
  endloop
 endfacet

 facet normal 0.017321 -0.156396 -0.987543
  outer loop
   vertex -81.679977 -2.683706 653.476868
   vertex -82.181755 -2.931207 653.507263
   vertex -82.181076 -2.683706 653.468079
  endloop
 endfacet

 facet normal 0.017321 -0.156396 -0.987542
  outer loop
   vertex -81.680664 -2.931207 653.516052
   vertex -82.181755 -2.931207 653.507263
   vertex -81.679977 -2.683706 653.476868
  endloop
 endfacet

 facet normal 0.006284 -0.933601 -0.358260
  outer loop
   vertex -82.185837 -3.021010 653.741211
   vertex -82.181755 -2.931207 653.507263
   vertex -81.680664 -2.931207 653.516052
  endloop
 endfacet

 facet normal 0.006242 -0.933570 -0.358342
  outer loop
   vertex -81.680664 -2.931207 653.516052
   vertex -81.684746 -3.021010 653.749939
   vertex -82.185837 -3.021010 653.741211
  endloop
 endfacet

 facet normal -0.010960 -0.777130 0.629245
  outer loop
   vertex -82.185837 -3.021010 653.741211
   vertex -81.684746 -3.021010 653.749939
   vertex -82.189240 -2.863311 653.935913
  endloop
 endfacet

 facet normal -0.010960 -0.777130 0.629245
  outer loop
   vertex -82.189240 -2.863311 653.935913
   vertex -81.684746 -3.021010 653.749939
   vertex -81.688141 -2.863311 653.944641
  endloop
 endfacet

 facet normal -0.017201 0.156396 0.987545
  outer loop
   vertex -81.688141 -2.863311 653.944641
   vertex -82.188553 -2.615809 653.896729
   vertex -82.189240 -2.863311 653.935913
  endloop
 endfacet

 facet normal -0.017201 0.156396 0.987545
  outer loop
   vertex -81.687462 -2.615809 653.905457
   vertex -82.188553 -2.615809 653.896729
   vertex -81.688141 -2.863311 653.944641
  endloop
 endfacet

 facet normal -0.006242 0.933570 0.358341
  outer loop
   vertex -82.184471 -2.526007 653.662842
   vertex -82.188553 -2.615809 653.896729
   vertex -81.687462 -2.615809 653.905457
  endloop
 endfacet

 facet normal -0.006242 0.933570 0.358341
  outer loop
   vertex -81.687462 -2.615809 653.905457
   vertex -81.683372 -2.526007 653.671570
   vertex -82.184471 -2.526007 653.662842
  endloop
 endfacet

 facet normal 0.006242 -0.933569 -0.358343
  outer loop
   vertex -81.651573 8.979462 651.849548
   vertex -82.152664 8.979462 651.840820
   vertex -81.647484 9.069264 651.615662
  endloop
 endfacet

 facet normal 0.006242 -0.933569 -0.358343
  outer loop
   vertex -81.647484 9.069264 651.615662
   vertex -82.152664 8.979462 651.840820
   vertex -82.148582 9.069264 651.606934
  endloop
 endfacet

 facet normal 0.017201 -0.156396 -0.987545
  outer loop
   vertex -82.148582 9.069264 651.606934
   vertex -81.646805 9.316766 651.576477
   vertex -81.647484 9.069264 651.615662
  endloop
 endfacet

 facet normal 0.017321 -0.156634 -0.987505
  outer loop
   vertex -82.147896 9.316766 651.567688
   vertex -81.646805 9.316766 651.576477
   vertex -82.148582 9.069264 651.606934
  endloop
 endfacet

 facet normal 0.011037 0.777130 -0.629243
  outer loop
   vertex -81.650200 9.474464 651.771179
   vertex -81.646805 9.316766 651.576477
   vertex -82.147896 9.316766 651.567688
  endloop
 endfacet

 facet normal 0.010958 0.777227 -0.629125
  outer loop
   vertex -82.147896 9.316766 651.567688
   vertex -82.151299 9.474464 651.762451
   vertex -81.650200 9.474464 651.771179
  endloop
 endfacet

 facet normal -0.006242 0.933569 0.358343
  outer loop
   vertex -81.650200 9.474464 651.771179
   vertex -82.151299 9.474464 651.762451
   vertex -81.654282 9.384662 652.005066
  endloop
 endfacet

 facet normal -0.006242 0.933569 0.358343
  outer loop
   vertex -81.654282 9.384662 652.005066
   vertex -82.151299 9.474464 651.762451
   vertex -82.155380 9.384662 651.996338
  endloop
 endfacet

 facet normal -0.017201 0.156396 0.987545
  outer loop
   vertex -82.155380 9.384662 651.996338
   vertex -81.654968 9.137160 652.044250
   vertex -81.654282 9.384662 652.005066
  endloop
 endfacet

 facet normal -0.017201 0.156396 0.987545
  outer loop
   vertex -82.156067 9.137160 652.035522
   vertex -81.654968 9.137160 652.044250
   vertex -82.155380 9.384662 651.996338
  endloop
 endfacet

 facet normal -0.010960 -0.777130 0.629244
  outer loop
   vertex -81.651573 8.979462 651.849548
   vertex -81.654968 9.137160 652.044250
   vertex -82.156067 9.137160 652.035522
  endloop
 endfacet

 facet normal -0.010960 -0.777131 0.629244
  outer loop
   vertex -82.156067 9.137160 652.035522
   vertex -82.152664 8.979462 651.840820
   vertex -81.651573 8.979462 651.849548
  endloop
 endfacet

 facet normal -0.999847 0.000003 -0.017476
  outer loop
   vertex -82.147896 9.316766 651.567688
   vertex -82.148582 9.069264 651.606934
   vertex -82.151985 9.226963 651.801636
  endloop
 endfacet

 facet normal -0.999848 -0.000021 -0.017457
  outer loop
   vertex -82.151985 9.226963 651.801636
   vertex -82.148582 9.069264 651.606934
   vertex -82.152664 8.979462 651.840820
  endloop
 endfacet

 facet normal -0.999848 -0.000021 -0.017457
  outer loop
   vertex -82.152664 8.979462 651.840820
   vertex -82.156067 9.137160 652.035522
   vertex -82.151985 9.226963 651.801636
  endloop
 endfacet

 facet normal -0.999848 0.000012 -0.017444
  outer loop
   vertex -82.188553 -2.615809 653.896729
   vertex -82.184471 -2.526007 653.662842
   vertex -82.185158 -2.773508 653.702026
  endloop
 endfacet

 facet normal -0.999848 0.000013 -0.017440
  outer loop
   vertex -82.185158 -2.773508 653.702026
   vertex -82.184471 -2.526007 653.662842
   vertex -82.181076 -2.683706 653.468079
  endloop
 endfacet

 facet normal -0.999848 -0.000020 -0.017452
  outer loop
   vertex -82.181076 -2.683706 653.468079
   vertex -82.181755 -2.931207 653.507263
   vertex -82.185158 -2.773508 653.702026
  endloop
 endfacet

 facet normal -0.999848 -0.000020 -0.017452
  outer loop
   vertex -82.181755 -2.931207 653.507263
   vertex -82.185837 -3.021010 653.741211
   vertex -82.185158 -2.773508 653.702026
  endloop
 endfacet

 facet normal -0.999848 -0.000021 -0.017457
  outer loop
   vertex -82.185158 -2.773508 653.702026
   vertex -82.185837 -3.021010 653.741211
   vertex -82.189240 -2.863311 653.935913
  endloop
 endfacet

 facet normal -0.999848 0.000012 -0.017444
  outer loop
   vertex -82.189240 -2.863311 653.935913
   vertex -82.188553 -2.615809 653.896729
   vertex -82.185158 -2.773508 653.702026
  endloop
 endfacet

 facet normal -0.999848 0.000012 -0.017444
  outer loop
   vertex -82.156067 9.137160 652.035522
   vertex -82.155380 9.384662 651.996338
   vertex -82.151985 9.226963 651.801636
  endloop
 endfacet

 facet normal -0.999848 0.000012 -0.017444
  outer loop
   vertex -82.151985 9.226963 651.801636
   vertex -82.155380 9.384662 651.996338
   vertex -82.151299 9.474464 651.762451
  endloop
 endfacet

 facet normal -0.999847 0.000007 -0.017474
  outer loop
   vertex -82.151299 9.474464 651.762451
   vertex -82.147896 9.316766 651.567688
   vertex -82.151985 9.226963 651.801636
  endloop
 endfacet

 facet normal -0.999848 -0.000002 -0.017454
  outer loop
   vertex -80.157486 -1.237057 654.127014
   vertex -80.135933 -1.432630 652.892395
   vertex -80.165649 -4.191627 654.594910
  endloop
 endfacet

 facet normal -0.999848 -0.000002 -0.017454
  outer loop
   vertex -80.165649 -4.191627 654.594910
   vertex -80.135933 -1.432630 652.892395
   vertex -80.144096 -4.387200 653.360291
  endloop
 endfacet

 facet normal -0.002730 -0.987689 0.156410
  outer loop
   vertex -80.144096 -4.387200 653.360291
   vertex -78.777283 -4.191628 654.619141
   vertex -80.165649 -4.191627 654.594910
  endloop
 endfacet

 facet normal -0.002730 -0.987689 0.156410
  outer loop
   vertex -78.755730 -4.387200 653.384521
   vertex -78.777283 -4.191628 654.619141
   vertex -80.144096 -4.387200 653.360291
  endloop
 endfacet

 facet normal 0.999848 -0.000001 0.017455
  outer loop
   vertex -78.747559 -1.432630 652.916626
   vertex -78.777283 -4.191628 654.619141
   vertex -78.755730 -4.387200 653.384521
  endloop
 endfacet

 facet normal 0.017235 -0.156437 -0.987537
  outer loop
   vertex -78.755730 -4.387200 653.384521
   vertex -80.135933 -1.432630 652.892395
   vertex -78.747559 -1.432630 652.916626
  endloop
 endfacet

 facet normal 0.002730 0.987689 -0.156410
  outer loop
   vertex -78.747559 -1.432630 652.916626
   vertex -80.135933 -1.432630 652.892395
   vertex -78.769112 -1.237057 654.151245
  endloop
 endfacet

 facet normal 0.002730 0.987689 -0.156410
  outer loop
   vertex -78.769112 -1.237057 654.151245
   vertex -80.135933 -1.432630 652.892395
   vertex -80.157486 -1.237057 654.127014
  endloop
 endfacet

 facet normal -0.017235 0.156437 0.987537
  outer loop
   vertex -80.157486 -1.237057 654.127014
   vertex -78.777283 -4.191628 654.619141
   vertex -78.769112 -1.237057 654.151245
  endloop
 endfacet

 facet normal -0.017235 0.156437 0.987537
  outer loop
   vertex -80.165649 -4.191627 654.594910
   vertex -78.777283 -4.191628 654.619141
   vertex -80.157486 -1.237057 654.127014
  endloop
 endfacet

 facet normal 0.002737 0.987689 -0.156409
  outer loop
   vertex -78.735725 10.840654 652.238647
   vertex -78.714172 10.645082 651.004028
   vertex -80.124100 10.840654 652.214355
  endloop
 endfacet

 facet normal 0.002737 0.987689 -0.156409
  outer loop
   vertex -80.124100 10.840654 652.214355
   vertex -78.714172 10.645082 651.004028
   vertex -80.102547 10.645082 650.979736
  endloop
 endfacet

 facet normal -0.999848 -0.000002 -0.017454
  outer loop
   vertex -80.102547 10.645082 650.979736
   vertex -80.132263 7.886085 652.682251
   vertex -80.124100 10.840654 652.214355
  endloop
 endfacet

 facet normal -0.999848 -0.000002 -0.017454
  outer loop
   vertex -80.110710 7.690512 651.447632
   vertex -80.132263 7.886085 652.682251
   vertex -80.102547 10.645082 650.979736
  endloop
 endfacet

 facet normal -0.002730 -0.987689 0.156410
  outer loop
   vertex -78.722343 7.690512 651.471863
   vertex -80.132263 7.886085 652.682251
   vertex -80.110710 7.690512 651.447632
  endloop
 endfacet

 facet normal 0.017235 -0.156417 -0.987541
  outer loop
   vertex -80.110710 7.690512 651.447632
   vertex -78.714172 10.645082 651.004028
   vertex -78.722343 7.690512 651.471863
  endloop
 endfacet

 facet normal 0.999848 -0.000002 0.017449
  outer loop
   vertex -78.722343 7.690512 651.471863
   vertex -78.714172 10.645082 651.004028
   vertex -78.743889 7.886085 652.706482
  endloop
 endfacet

 facet normal 0.999848 0.000001 0.017454
  outer loop
   vertex -78.743889 7.886085 652.706482
   vertex -78.714172 10.645082 651.004028
   vertex -78.735725 10.840654 652.238647
  endloop
 endfacet

 facet normal -0.017235 0.156417 0.987541
  outer loop
   vertex -78.735725 10.840654 652.238647
   vertex -80.132263 7.886085 652.682251
   vertex -78.743889 7.886085 652.706482
  endloop
 endfacet

 facet normal -0.017279 0.156437 0.987537
  outer loop
   vertex -80.124100 10.840654 652.214355
   vertex -80.132263 7.886085 652.682251
   vertex -78.735725 10.840654 652.238647
  endloop
 endfacet

 facet normal 0.017279 -0.156437 -0.987537
  outer loop
   vertex -80.110710 7.690512 651.447632
   vertex -80.102547 10.645082 650.979736
   vertex -78.714172 10.645082 651.004028
  endloop
 endfacet

 facet normal 0.017235 -0.156437 -0.987537
  outer loop
   vertex -80.144096 -4.387200 653.360291
   vertex -80.135933 -1.432630 652.892395
   vertex -78.755730 -4.387200 653.384521
  endloop
 endfacet

 facet normal -0.002730 -0.987689 0.156410
  outer loop
   vertex -78.722343 7.690512 651.471863
   vertex -78.743889 7.886085 652.706482
   vertex -80.132263 7.886085 652.682251
  endloop
 endfacet

 facet normal 0.999848 -0.000001 0.017455
  outer loop
   vertex -78.747559 -1.432630 652.916626
   vertex -78.769112 -1.237057 654.151245
   vertex -78.777283 -4.191628 654.619141
  endloop
 endfacet

 facet normal -0.999847 -0.000003 -0.017472
  outer loop
   vertex -82.930717 -1.588920 654.296265
   vertex -82.901520 8.270825 652.623901
   vertex -82.928825 -1.606067 654.187988
  endloop
 endfacet

 facet normal -0.579742 -0.125878 -0.805018
  outer loop
   vertex -82.928825 -1.606067 654.187988
   vertex -82.901520 8.270825 652.623901
   vertex -82.810463 -1.619561 654.104858
  endloop
 endfacet

 facet normal -0.596828 -0.123878 -0.792749
  outer loop
   vertex -82.938293 7.144653 651.340637
   vertex -82.850929 8.279078 651.097595
   vertex -82.854088 7.134629 651.278809
  endloop
 endfacet

 facet normal 0.017191 -0.156416 -0.987542
  outer loop
   vertex -82.854088 7.134629 651.278809
   vertex -82.850929 8.279078 651.097595
   vertex -82.009430 8.279078 651.112244
  endloop
 endfacet

 facet normal -0.017262 0.156416 0.987540
  outer loop
   vertex -82.066750 -1.825624 654.395935
   vertex -82.905083 -0.681174 654.200012
   vertex -82.908249 -1.825624 654.381226
  endloop
 endfacet

 facet normal -0.624311 0.123855 0.771295
  outer loop
   vertex -82.908249 -1.825624 654.381226
   vertex -82.905083 -0.681174 654.200012
   vertex -82.987076 -0.691198 654.135254
  endloop
 endfacet

 facet normal -0.607530 0.125873 0.784259
  outer loop
   vertex -82.762848 8.073016 651.377197
   vertex -82.878235 8.059522 651.289978
   vertex -82.905540 -1.817371 652.854065
  endloop
 endfacet

 facet normal -0.999847 -0.000004 -0.017481
  outer loop
   vertex -82.905540 -1.817371 652.854065
   vertex -82.878235 8.059522 651.289978
   vertex -82.903648 -1.834518 652.745850
  endloop
 endfacet

 facet normal -0.939510 0.056106 0.337896
  outer loop
   vertex -82.134216 8.282729 652.712463
   vertex -82.161522 -1.594164 654.276550
   vertex -82.121918 8.287972 652.745789
  endloop
 endfacet

 facet normal -0.939510 0.056106 0.337896
  outer loop
   vertex -82.121918 8.287972 652.745789
   vertex -82.161522 -1.594164 654.276550
   vertex -82.149223 -1.588920 654.309875
  endloop
 endfacet

 facet normal -0.017074 0.156432 0.987541
  outer loop
   vertex -82.149223 -1.588920 654.309875
   vertex -82.051315 8.287972 652.747009
   vertex -82.121918 8.287972 652.745789
  endloop
 endfacet

 facet normal 0.002786 0.987688 -0.156414
  outer loop
   vertex -82.879593 8.539231 652.739868
   vertex -82.859917 8.502040 652.505371
   vertex -82.961586 8.529207 652.675110
  endloop
 endfacet

 facet normal 0.002797 0.987689 -0.156408
  outer loop
   vertex -82.961586 8.529207 652.675110
   vertex -82.859917 8.502040 652.505371
   vertex -82.958847 8.504340 652.518127
  endloop
 endfacet

 facet normal -0.999848 0.000003 -0.017445
  outer loop
   vertex -82.958847 8.504340 652.518127
   vertex -82.964752 7.384758 652.856384
   vertex -82.961586 8.529207 652.675110
  endloop
 endfacet

 facet normal -0.002722 -0.987688 0.156416
  outer loop
   vertex -82.879578 -2.085776 652.738953
   vertex -82.868095 -2.048585 652.973999
   vertex -82.963783 -2.075753 652.800781
  endloop
 endfacet

 facet normal -0.002715 -0.987688 0.156412
  outer loop
   vertex -82.963783 -2.075753 652.800781
   vertex -82.868095 -2.048585 652.973999
   vertex -82.966522 -2.050885 652.957764
  endloop
 endfacet

 facet normal -0.999848 0.000003 -0.017445
  outer loop
   vertex -82.966522 -2.050885 652.957764
   vertex -82.960617 -0.931303 652.619507
   vertex -82.963783 -2.075753 652.800781
  endloop
 endfacet

 facet normal -0.002718 -0.987688 0.156412
  outer loop
   vertex -82.941032 7.169520 651.497620
   vertex -82.938293 7.144653 651.340637
   vertex -82.842613 7.171821 651.513855
  endloop
 endfacet

 facet normal -0.002723 -0.987688 0.156415
  outer loop
   vertex -82.842613 7.171821 651.513855
   vertex -82.938293 7.144653 651.340637
   vertex -82.854088 7.134629 651.278809
  endloop
 endfacet

 facet normal -0.002734 -0.987688 0.156415
  outer loop
   vertex -82.854088 7.134629 651.278809
   vertex -82.012589 7.134629 651.293518
   vertex -82.842613 7.171821 651.513855
  endloop
 endfacet

 facet normal 0.017262 -0.156467 -0.987532
  outer loop
   vertex -82.009430 8.279078 651.112244
   vertex -82.012589 7.134629 651.293518
   vertex -82.854088 7.134629 651.278809
  endloop
 endfacet

 facet normal -0.607531 0.125873 0.784259
  outer loop
   vertex -82.905540 -1.817371 652.854065
   vertex -82.790154 -1.803876 652.941284
   vertex -82.762848 8.073016 651.377197
  endloop
 endfacet

 facet normal -0.999848 0.000001 -0.017452
  outer loop
   vertex -82.762848 8.073016 651.377197
   vertex -82.790154 -1.803876 652.941284
   vertex -82.810463 -1.619561 654.104858
  endloop
 endfacet

 facet normal -0.999848 -0.000001 -0.017458
  outer loop
   vertex -82.810463 -1.619561 654.104858
   vertex -82.783165 8.257331 652.540771
   vertex -82.762848 8.073016 651.377197
  endloop
 endfacet

 facet normal -0.579767 -0.125876 -0.805000
  outer loop
   vertex -82.901520 8.270825 652.623901
   vertex -82.783165 8.257331 652.540771
   vertex -82.810463 -1.619561 654.104858
  endloop
 endfacet

 facet normal -0.017191 0.156467 0.987534
  outer loop
   vertex -82.066750 -1.825624 654.395935
   vertex -82.063583 -0.681174 654.214661
   vertex -82.905083 -0.681174 654.200012
  endloop
 endfacet

 facet normal 0.002723 0.987687 -0.156421
  outer loop
   vertex -82.905083 -0.681174 654.200012
   vertex -82.063583 -0.681174 654.214661
   vertex -82.885406 -0.718366 653.965515
  endloop
 endfacet

 facet normal 0.002793 0.987688 -0.156415
  outer loop
   vertex -82.885406 -0.718366 653.965515
   vertex -82.987076 -0.691198 654.135254
   vertex -82.905083 -0.681174 654.200012
  endloop
 endfacet

 facet normal 0.002800 0.987688 -0.156411
  outer loop
   vertex -82.984337 -0.716065 653.978271
   vertex -82.987076 -0.691198 654.135254
   vertex -82.885406 -0.718366 653.965515
  endloop
 endfacet

 facet normal 0.926955 0.056181 0.370941
  outer loop
   vertex -82.774963 -1.594164 654.265869
   vertex -82.747658 8.282729 652.701721
   vertex -82.788422 -1.588920 654.298706
  endloop
 endfacet

 facet normal 0.927191 0.056087 0.370366
  outer loop
   vertex -82.788422 -1.588920 654.298706
   vertex -82.747658 8.282729 652.701721
   vertex -82.761116 8.287972 652.734619
  endloop
 endfacet

 facet normal -0.016944 0.156432 0.987543
  outer loop
   vertex -82.761116 8.287972 652.734619
   vertex -82.930717 -1.588920 654.296265
   vertex -82.788422 -1.588920 654.298706
  endloop
 endfacet

 facet normal -0.017367 0.156438 0.987535
  outer loop
   vertex -82.903412 8.287972 652.732117
   vertex -82.930717 -1.588920 654.296265
   vertex -82.761116 8.287972 652.734619
  endloop
 endfacet

 facet normal -0.999847 -0.000004 -0.017481
  outer loop
   vertex -82.901520 8.270825 652.623901
   vertex -82.930717 -1.588920 654.296265
   vertex -82.903412 8.287972 652.732117
  endloop
 endfacet

 facet normal -0.999848 -0.000005 -0.017458
  outer loop
   vertex -81.715630 -3.253123 654.350708
   vertex -81.691910 -1.799667 652.991821
   vertex -81.696404 -3.427536 653.249634
  endloop
 endfacet

 facet normal 0.017251 -0.156448 -0.987536
  outer loop
   vertex -81.696404 -3.427536 653.249634
   vertex -81.691910 -1.799667 652.991821
   vertex -80.155594 -3.427536 653.276550
  endloop
 endfacet

 facet normal -0.002733 -0.987688 0.156413
  outer loop
   vertex -80.155594 -3.427536 653.276550
   vertex -80.174812 -3.253123 654.377563
   vertex -81.696404 -3.427536 653.249634
  endloop
 endfacet

 facet normal 0.999848 -0.000001 0.017453
  outer loop
   vertex -80.151093 -1.799667 653.018738
   vertex -80.174812 -3.253123 654.377563
   vertex -80.155594 -3.427536 653.276550
  endloop
 endfacet

 facet normal 0.999848 -0.000001 0.017452
  outer loop
   vertex -80.170311 -1.625254 654.119812
   vertex -80.174812 -3.253123 654.377563
   vertex -80.151093 -1.799667 653.018738
  endloop
 endfacet

 facet normal 0.002732 0.987689 -0.156405
  outer loop
   vertex -80.151093 -1.799667 653.018738
   vertex -81.691910 -1.799667 652.991821
   vertex -80.170311 -1.625254 654.119812
  endloop
 endfacet

 facet normal 0.002732 0.987689 -0.156405
  outer loop
   vertex -80.170311 -1.625254 654.119812
   vertex -81.691910 -1.799667 652.991821
   vertex -81.711128 -1.625254 654.092896
  endloop
 endfacet

 facet normal -0.999848 0.000001 -0.017452
  outer loop
   vertex -81.711128 -1.625254 654.092896
   vertex -81.691910 -1.799667 652.991821
   vertex -81.715630 -3.253123 654.350708
  endloop
 endfacet

 facet normal -0.017212 0.156448 0.987536
  outer loop
   vertex -81.715630 -3.253123 654.350708
   vertex -80.174812 -3.253123 654.377563
   vertex -81.711128 -1.625254 654.092896
  endloop
 endfacet

 facet normal -0.002726 -0.987689 0.156405
  outer loop
   vertex -81.696404 -3.427536 653.249634
   vertex -80.174812 -3.253123 654.377563
   vertex -81.715630 -3.253123 654.350708
  endloop
 endfacet

 facet normal -0.017251 0.156448 0.987536
  outer loop
   vertex -81.679321 9.880991 652.270752
   vertex -81.683815 8.253122 652.528564
   vertex -80.138504 9.880990 652.297668
  endloop
 endfacet

 facet normal -0.017251 0.156448 0.987536
  outer loop
   vertex -80.138504 9.880990 652.297668
   vertex -81.683815 8.253122 652.528564
   vertex -80.143005 8.253121 652.555481
  endloop
 endfacet

 facet normal 0.999848 -0.000001 0.017453
  outer loop
   vertex -80.143005 8.253121 652.555481
   vertex -80.119286 9.706577 651.196655
   vertex -80.138504 9.880990 652.297668
  endloop
 endfacet

 facet normal 0.999848 -0.000001 0.017452
  outer loop
   vertex -80.123787 8.078708 651.454407
   vertex -80.119286 9.706577 651.196655
   vertex -80.143005 8.253121 652.555481
  endloop
 endfacet

 facet normal 0.017251 -0.156412 -0.987541
  outer loop
   vertex -81.664597 8.078709 651.427490
   vertex -80.119286 9.706577 651.196655
   vertex -80.123787 8.078708 651.454407
  endloop
 endfacet

 facet normal -0.002733 -0.987689 0.156405
  outer loop
   vertex -80.123787 8.078708 651.454407
   vertex -81.683815 8.253122 652.528564
   vertex -81.664597 8.078709 651.427490
  endloop
 endfacet

 facet normal -0.999848 0.000001 -0.017452
  outer loop
   vertex -81.664597 8.078709 651.427490
   vertex -81.683815 8.253122 652.528564
   vertex -81.660095 9.706577 651.169739
  endloop
 endfacet

 facet normal -0.999848 -0.000005 -0.017459
  outer loop
   vertex -81.660095 9.706577 651.169739
   vertex -81.683815 8.253122 652.528564
   vertex -81.679321 9.880991 652.270752
  endloop
 endfacet

 facet normal 0.002732 0.987688 -0.156414
  outer loop
   vertex -81.679321 9.880991 652.270752
   vertex -80.119286 9.706577 651.196655
   vertex -81.660095 9.706577 651.169739
  endloop
 endfacet

 facet normal 0.002733 0.987688 -0.156413
  outer loop
   vertex -80.138504 9.880990 652.297668
   vertex -80.119286 9.706577 651.196655
   vertex -81.679321 9.880991 652.270752
  endloop
 endfacet

 facet normal 0.999848 0.000004 0.017441
  outer loop
   vertex -81.090736 -4.801244 653.789185
   vertex -81.089783 -4.455553 653.734436
   vertex -81.098396 -4.377336 654.228210
  endloop
 endfacet

 facet normal -0.999848 -0.000001 -0.017442
  outer loop
   vertex -81.098396 -4.377336 654.228210
   vertex -81.089783 -4.455553 653.734436
   vertex -81.094566 -4.589290 654.008667
  endloop
 endfacet

 facet normal -0.999848 0.000016 -0.017457
  outer loop
   vertex -81.094566 -4.589290 654.008667
   vertex -81.099358 -4.723027 654.282959
   vertex -81.098396 -4.377336 654.228210
  endloop
 endfacet

 facet normal -0.999848 0.000012 -0.017459
  outer loop
   vertex -81.090736 -4.801244 653.789185
   vertex -81.099358 -4.723027 654.282959
   vertex -81.094566 -4.589290 654.008667
  endloop
 endfacet

 facet normal -0.002731 -0.987689 0.156408
  outer loop
   vertex -80.099503 -4.723027 654.300415
   vertex -81.099358 -4.723027 654.282959
   vertex -81.090736 -4.801244 653.789185
  endloop
 endfacet

 facet normal -0.002731 -0.987689 0.156408
  outer loop
   vertex -81.090736 -4.801244 653.789185
   vertex -80.090889 -4.801244 653.806641
   vertex -80.099503 -4.723027 654.300415
  endloop
 endfacet

 facet normal 0.999848 0.000000 0.017442
  outer loop
   vertex -80.099503 -4.723027 654.300415
   vertex -80.090889 -4.801244 653.806641
   vertex -80.094864 -3.043956 654.034485
  endloop
 endfacet

 facet normal 0.999848 -0.000002 0.017457
  outer loop
   vertex -80.094864 -3.043956 654.034485
   vertex -80.090889 -4.801244 653.806641
   vertex -80.086243 -3.122173 653.540710
  endloop
 endfacet

 facet normal 0.002730 0.987689 -0.156408
  outer loop
   vertex -80.086243 -3.122173 653.540710
   vertex -81.086090 -3.122173 653.523254
   vertex -80.094864 -3.043956 654.034485
  endloop
 endfacet

 facet normal 0.017241 -0.156422 -0.987540
  outer loop
   vertex -80.837273 -3.534027 653.592834
   vertex -81.086090 -3.122173 653.523254
   vertex -80.086243 -3.122173 653.540710
  endloop
 endfacet

 facet normal 0.017198 -0.156448 -0.987536
  outer loop
   vertex -81.087051 -3.467864 653.578003
   vertex -81.086090 -3.122173 653.523254
   vertex -80.837273 -3.534027 653.592834
  endloop
 endfacet

 facet normal -0.017241 0.156422 0.987540
  outer loop
   vertex -80.808723 9.987481 651.957764
   vertex -81.059830 9.575627 652.018616
   vertex -80.059982 9.575627 652.036072
  endloop
 endfacet

 facet normal -0.002731 -0.987689 0.156408
  outer loop
   vertex -80.059982 9.575627 652.036072
   vertex -81.059830 9.575627 652.018616
   vertex -80.051361 9.497411 651.542297
  endloop
 endfacet

 facet normal 0.999848 -0.000002 0.017457
  outer loop
   vertex -80.051361 9.497411 651.542297
   vertex -80.055336 11.254699 651.770142
   vertex -80.059982 9.575627 652.036072
  endloop
 endfacet

 facet normal 0.999848 -0.000002 0.017457
  outer loop
   vertex -80.046715 11.176481 651.276367
   vertex -80.055336 11.254699 651.770142
   vertex -80.051361 9.497411 651.542297
  endloop
 endfacet

 facet normal 0.002731 0.987689 -0.156409
  outer loop
   vertex -81.055183 11.254699 651.752686
   vertex -80.055336 11.254699 651.770142
   vertex -80.046715 11.176481 651.276367
  endloop
 endfacet

 facet normal 0.002721 0.987686 -0.156429
  outer loop
   vertex -80.046715 11.176481 651.276367
   vertex -81.046570 11.176481 651.258972
   vertex -81.055183 11.254699 651.752686
  endloop
 endfacet

 facet normal -0.999848 -0.000004 -0.017443
  outer loop
   vertex -81.055183 11.254699 651.752686
   vertex -81.046570 11.176481 651.258972
   vertex -81.051353 11.042745 651.533203
  endloop
 endfacet

 facet normal -0.999848 -0.000001 -0.017442
  outer loop
   vertex -81.051353 11.042745 651.533203
   vertex -81.046570 11.176481 651.258972
   vertex -81.047523 10.830791 651.313660
  endloop
 endfacet

 facet normal -0.999848 0.000018 -0.017460
  outer loop
   vertex -81.047523 10.830791 651.313660
   vertex -81.056145 10.909007 651.807434
   vertex -81.051353 11.042745 651.533203
  endloop
 endfacet

 facet normal 0.999848 -0.000015 0.017460
  outer loop
   vertex -81.055183 11.254699 651.752686
   vertex -81.056145 10.909007 651.807434
   vertex -81.047523 10.830791 651.313660
  endloop
 endfacet

 facet normal -0.999848 0.000015 -0.017462
  outer loop
   vertex -81.051353 11.042745 651.533203
   vertex -81.056145 10.909007 651.807434
   vertex -81.055183 11.254699 651.752686
  endloop
 endfacet

 facet normal -0.999849 0.000007 -0.017403
  outer loop
   vertex -82.878235 8.059522 651.289978
   vertex -82.876350 8.042375 651.181702
   vertex -82.903648 -1.834518 652.745850
  endloop
 endfacet

 facet normal 0.017366 -0.156438 -0.987535
  outer loop
   vertex -82.903648 -1.834518 652.745850
   vertex -82.876350 8.042375 651.181702
   vertex -82.734047 8.042375 651.184204
  endloop
 endfacet

 facet normal 0.016944 -0.156432 -0.987543
  outer loop
   vertex -82.734047 8.042375 651.184204
   vertex -82.761353 -1.834518 652.748291
   vertex -82.903648 -1.834518 652.745850
  endloop
 endfacet

 facet normal 0.939510 -0.056106 -0.337896
  outer loop
   vertex -82.721748 8.047618 651.217529
   vertex -82.761353 -1.834518 652.748291
   vertex -82.734047 8.042375 651.184204
  endloop
 endfacet

 facet normal 0.939510 -0.056106 -0.337896
  outer loop
   vertex -82.749054 -1.829274 652.781616
   vertex -82.761353 -1.834518 652.748291
   vertex -82.721748 8.047618 651.217529
  endloop
 endfacet

 facet normal 0.017293 -0.156432 -0.987537
  outer loop
   vertex -82.721748 8.047618 651.217529
   vertex -82.108315 8.047618 651.228271
   vertex -82.749054 -1.829274 652.781616
  endloop
 endfacet

 facet normal 0.017293 -0.156432 -0.987537
  outer loop
   vertex -82.749054 -1.829274 652.781616
   vertex -82.108315 8.047618 651.228271
   vertex -82.135612 -1.829274 652.792358
  endloop
 endfacet

 facet normal -0.927191 -0.056088 -0.370366
  outer loop
   vertex -82.135612 -1.829274 652.792358
   vertex -82.108315 8.047618 651.228271
   vertex -82.094856 8.042375 651.195374
  endloop
 endfacet

 facet normal -0.927191 -0.056088 -0.370366
  outer loop
   vertex -82.094856 8.042375 651.195374
   vertex -82.122154 -1.834518 652.759460
   vertex -82.135612 -1.829274 652.792358
  endloop
 endfacet

 facet normal 0.017073 -0.156432 -0.987541
  outer loop
   vertex -82.024246 8.042375 651.196594
   vertex -82.122154 -1.834518 652.759460
   vertex -82.094856 8.042375 651.195374
  endloop
 endfacet

 facet normal 0.017074 -0.156432 -0.987541
  outer loop
   vertex -82.051552 -1.834518 652.760681
   vertex -82.122154 -1.834518 652.759460
   vertex -82.024246 8.042375 651.196594
  endloop
 endfacet

 facet normal 0.999848 0.000000 0.017457
  outer loop
   vertex -82.024246 8.042375 651.196594
   vertex -82.051315 8.287972 652.747009
   vertex -82.051552 -1.834518 652.760681
  endloop
 endfacet

 facet normal 0.999848 0.000000 0.017452
  outer loop
   vertex -82.051552 -1.834518 652.760681
   vertex -82.051315 8.287972 652.747009
   vertex -82.078613 -1.588920 654.311096
  endloop
 endfacet

 facet normal -0.017073 0.156432 0.987541
  outer loop
   vertex -82.078613 -1.588920 654.311096
   vertex -82.051315 8.287972 652.747009
   vertex -82.149223 -1.588920 654.309875
  endloop
 endfacet

 facet normal -0.017241 0.156422 0.987540
  outer loop
   vertex -80.845886 -3.455810 654.086609
   vertex -80.094864 -3.043956 654.034485
   vertex -81.094711 -3.043956 654.017029
  endloop
 endfacet

 facet normal 0.002730 0.987689 -0.156408
  outer loop
   vertex -81.094711 -3.043956 654.017029
   vertex -80.094864 -3.043956 654.034485
   vertex -81.086090 -3.122173 653.523254
  endloop
 endfacet

 facet normal -0.999848 -0.000006 -0.017456
  outer loop
   vertex -81.086090 -3.122173 653.523254
   vertex -81.095665 -3.389647 654.071777
   vertex -81.094711 -3.043956 654.017029
  endloop
 endfacet

 facet normal -0.999848 0.000018 -0.017445
  outer loop
   vertex -81.087051 -3.467864 653.578003
   vertex -81.095665 -3.389647 654.071777
   vertex -81.086090 -3.122173 653.523254
  endloop
 endfacet

 facet normal 0.999848 -0.000018 0.017445
  outer loop
   vertex -81.086090 -3.122173 653.523254
   vertex -81.095665 -3.389647 654.071777
   vertex -81.087051 -3.467864 653.578003
  endloop
 endfacet

 facet normal 0.017284 -0.156448 -0.987535
  outer loop
   vertex -81.087051 -3.467864 653.578003
   vertex -81.337196 -3.534026 653.584106
   vertex -81.086090 -3.122173 653.523254
  endloop
 endfacet

 facet normal 0.017116 -0.156348 -0.987554
  outer loop
   vertex -81.086090 -3.122173 653.523254
   vertex -81.337196 -3.534026 653.584106
   vertex -81.511337 -3.234650 653.533691
  endloop
 endfacet

 facet normal 0.017068 -0.156376 -0.987550
  outer loop
   vertex -81.511337 -3.234650 653.533691
   vertex -81.337196 -3.534026 653.584106
   vertex -81.520676 -3.714786 653.609558
  endloop
 endfacet

 facet normal 0.017244 -0.156378 -0.987547
  outer loop
   vertex -81.520676 -3.714786 653.609558
   vertex -81.823265 -3.541941 653.576904
   vertex -81.511337 -3.234650 653.533691
  endloop
 endfacet

 facet normal 0.017276 -0.156325 -0.987555
  outer loop
   vertex -81.588341 -3.961708 653.647461
   vertex -81.823265 -3.541941 653.576904
   vertex -81.520676 -3.714786 653.609558
  endloop
 endfacet

 facet normal 0.017224 -0.156353 -0.987551
  outer loop
   vertex -81.938286 -3.961709 653.641357
   vertex -81.823265 -3.541941 653.576904
   vertex -81.588341 -3.961708 653.647461
  endloop
 endfacet

 facet normal 0.017224 -0.156482 -0.987531
  outer loop
   vertex -81.588341 -3.961708 653.647461
   vertex -81.522041 -4.208631 653.687744
   vertex -81.938286 -3.961709 653.641357
  endloop
 endfacet

 facet normal 0.017224 -0.156483 -0.987531
  outer loop
   vertex -81.938286 -3.961709 653.641357
   vertex -81.522041 -4.208631 653.687744
   vertex -81.825584 -4.381476 653.709839
  endloop
 endfacet

 facet normal 0.017292 -0.156600 -0.987511
  outer loop
   vertex -81.825584 -4.381476 653.709839
   vertex -81.522041 -4.208631 653.687744
   vertex -81.339561 -4.389390 653.719604
  endloop
 endfacet

 facet normal 0.017297 -0.156327 -0.987554
  outer loop
   vertex -81.339561 -4.389390 653.719604
   vertex -81.515358 -4.688767 653.763916
   vertex -81.825584 -4.381476 653.709839
  endloop
 endfacet

 facet normal 0.017240 -0.156294 -0.987560
  outer loop
   vertex -81.089783 -4.455553 653.734436
   vertex -81.515358 -4.688767 653.763916
   vertex -81.339561 -4.389390 653.719604
  endloop
 endfacet

 facet normal 0.017326 -0.156448 -0.987534
  outer loop
   vertex -81.090736 -4.801244 653.789185
   vertex -81.515358 -4.688767 653.763916
   vertex -81.089783 -4.455553 653.734436
  endloop
 endfacet

 facet normal 0.017284 -0.156448 -0.987535
  outer loop
   vertex -81.089783 -4.455553 653.734436
   vertex -80.839638 -4.389390 653.728333
   vertex -81.090736 -4.801244 653.789185
  endloop
 endfacet

 facet normal 0.017241 -0.156422 -0.987540
  outer loop
   vertex -81.090736 -4.801244 653.789185
   vertex -80.839638 -4.389390 653.728333
   vertex -80.090889 -4.801244 653.806641
  endloop
 endfacet

 facet normal 0.017196 -0.156503 -0.987528
  outer loop
   vertex -80.090889 -4.801244 653.806641
   vertex -80.839638 -4.389390 653.728333
   vertex -80.656151 -4.208631 653.702881
  endloop
 endfacet

 facet normal 0.017163 -0.156533 -0.987524
  outer loop
   vertex -80.656151 -4.208631 653.702881
   vertex -80.588493 -3.961708 653.664917
   vertex -80.090889 -4.801244 653.806641
  endloop
 endfacet

 facet normal 0.017241 -0.156422 -0.987540
  outer loop
   vertex -80.800110 9.909265 651.463989
   vertex -80.051361 9.497411 651.542297
   vertex -81.051208 9.497411 651.524841
  endloop
 endfacet

 facet normal -0.002731 -0.987689 0.156408
  outer loop
   vertex -81.051208 9.497411 651.524841
   vertex -80.051361 9.497411 651.542297
   vertex -81.059830 9.575627 652.018616
  endloop
 endfacet

 facet normal -0.999848 -0.000006 -0.017456
  outer loop
   vertex -81.059830 9.575627 652.018616
   vertex -81.050255 9.843102 651.470093
   vertex -81.051208 9.497411 651.524841
  endloop
 endfacet

 facet normal -0.999848 0.000018 -0.017445
  outer loop
   vertex -81.058868 9.921319 651.963867
   vertex -81.050255 9.843102 651.470093
   vertex -81.059830 9.575627 652.018616
  endloop
 endfacet

 facet normal 0.999848 -0.000018 0.017445
  outer loop
   vertex -81.059830 9.575627 652.018616
   vertex -81.050255 9.843102 651.470093
   vertex -81.058868 9.921319 651.963867
  endloop
 endfacet

 facet normal -0.017198 0.156448 0.987536
  outer loop
   vertex -81.058868 9.921319 651.963867
   vertex -81.308647 9.987481 651.949036
   vertex -81.059830 9.575627 652.018616
  endloop
 endfacet

 facet normal -0.017181 0.156458 0.987535
  outer loop
   vertex -81.059830 9.575627 652.018616
   vertex -81.308647 9.987481 651.949036
   vertex -81.484451 9.688105 651.993408
  endloop
 endfacet

 facet normal -0.017342 0.156550 0.987518
  outer loop
   vertex -81.484451 9.688105 651.993408
   vertex -81.308647 9.987481 651.949036
   vertex -81.491135 10.168241 651.917175
  endloop
 endfacet

 facet normal -0.017263 0.156552 0.987519
  outer loop
   vertex -81.491135 10.168241 651.917175
   vertex -81.794678 9.995396 651.939270
   vertex -81.484451 9.688105 651.993408
  endloop
 endfacet

 facet normal -0.017103 0.156276 0.987565
  outer loop
   vertex -81.557434 10.415163 651.876953
   vertex -81.794678 9.995396 651.939270
   vertex -81.491135 10.168241 651.917175
  endloop
 endfacet

 facet normal -0.017224 0.156343 0.987553
  outer loop
   vertex -81.907379 10.415163 651.870850
   vertex -81.794678 9.995396 651.939270
   vertex -81.557434 10.415163 651.876953
  endloop
 endfacet

 facet normal -0.017224 0.156550 0.987520
  outer loop
   vertex -81.557434 10.415163 651.876953
   vertex -81.489769 10.662085 651.838989
   vertex -81.907379 10.415163 651.870850
  endloop
 endfacet

 facet normal -0.017183 0.156482 0.987531
  outer loop
   vertex -81.907379 10.415163 651.870850
   vertex -81.489769 10.662085 651.838989
   vertex -81.792358 10.834931 651.806335
  endloop
 endfacet

 facet normal -0.017301 0.156280 0.987561
  outer loop
   vertex -81.792358 10.834931 651.806335
   vertex -81.489769 10.662085 651.838989
   vertex -81.306290 10.842845 651.813599
  endloop
 endfacet

 facet normal -0.017303 0.156437 0.987536
  outer loop
   vertex -81.306290 10.842845 651.813599
   vertex -81.480431 11.142222 651.763123
   vertex -81.792358 10.834931 651.806335
  endloop
 endfacet

 facet normal -0.017075 0.156567 0.987520
  outer loop
   vertex -81.056145 10.909007 651.807434
   vertex -81.480431 11.142222 651.763123
   vertex -81.306290 10.842845 651.813599
  endloop
 endfacet

 facet normal -0.017142 0.156448 0.987537
  outer loop
   vertex -81.055183 11.254699 651.752686
   vertex -81.480431 11.142222 651.763123
   vertex -81.056145 10.909007 651.807434
  endloop
 endfacet

 facet normal -0.017198 0.156448 0.987536
  outer loop
   vertex -81.056145 10.909007 651.807434
   vertex -80.806366 10.842845 651.822266
   vertex -81.055183 11.254699 651.752686
  endloop
 endfacet

 facet normal -0.017241 0.156422 0.987540
  outer loop
   vertex -81.055183 11.254699 651.752686
   vertex -80.806366 10.842845 651.822266
   vertex -80.055336 11.254699 651.770142
  endloop
 endfacet

 facet normal -0.017323 0.156568 0.987515
  outer loop
   vertex -80.055336 11.254699 651.770142
   vertex -80.806366 10.842845 651.822266
   vertex -80.623878 10.662085 651.854126
  endloop
 endfacet

 facet normal -0.017230 0.156481 0.987531
  outer loop
   vertex -80.623878 10.662085 651.854126
   vertex -80.557579 10.415163 651.894409
   vertex -80.055336 11.254699 651.770142
  endloop
 endfacet

 facet normal 0.470737 -0.139294 -0.871208
  outer loop
   vertex -82.009430 8.279078 651.112244
   vertex -81.522575 8.318390 651.369019
   vertex -82.012589 7.134629 651.293518
  endloop
 endfacet

 facet normal 0.470652 -0.139255 -0.871260
  outer loop
   vertex -82.012589 7.134629 651.293518
   vertex -81.522575 8.318390 651.369019
   vertex -81.525734 7.173941 651.550232
  endloop
 endfacet

 facet normal -0.002724 -0.987688 0.156413
  outer loop
   vertex -81.525734 7.173941 651.550232
   vertex -81.545738 7.355470 652.696167
   vertex -82.012589 7.134629 651.293518
  endloop
 endfacet

 facet normal 0.999848 0.000004 0.017453
  outer loop
   vertex -81.522575 8.318390 651.369019
   vertex -81.545738 7.355470 652.696167
   vertex -81.525734 7.173941 651.550232
  endloop
 endfacet

 facet normal 0.999848 0.000004 0.017453
  outer loop
   vertex -81.542580 8.499920 652.514954
   vertex -81.545738 7.355470 652.696167
   vertex -81.522575 8.318390 651.369019
  endloop
 endfacet

 facet normal 0.002718 0.987688 -0.156414
  outer loop
   vertex -81.522575 8.318390 651.369019
   vertex -82.038094 8.539231 652.754578
   vertex -81.542580 8.499920 652.514954
  endloop
 endfacet

 facet normal 0.440044 0.139252 0.887113
  outer loop
   vertex -81.542580 8.499920 652.514954
   vertex -82.038094 8.539231 652.754578
   vertex -81.545738 7.355470 652.696167
  endloop
 endfacet

 facet normal 0.440039 0.139250 0.887116
  outer loop
   vertex -81.545738 7.355470 652.696167
   vertex -82.038094 8.539231 652.754578
   vertex -82.041260 7.394782 652.935791
  endloop
 endfacet

 facet normal -0.002720 -0.987688 0.156412
  outer loop
   vertex -82.041260 7.394782 652.935791
   vertex -82.012589 7.134629 651.293518
   vertex -81.545738 7.355470 652.696167
  endloop
 endfacet

 facet normal -0.002732 -0.987688 0.156412
  outer loop
   vertex -82.863083 7.357590 652.686584
   vertex -82.012589 7.134629 651.293518
   vertex -82.041260 7.394782 652.935791
  endloop
 endfacet

 facet normal -0.002736 -0.987689 0.156409
  outer loop
   vertex -82.842613 7.171821 651.513855
   vertex -82.012589 7.134629 651.293518
   vertex -82.863083 7.357590 652.686584
  endloop
 endfacet

 facet normal -0.999848 0.000003 -0.017452
  outer loop
   vertex -82.863083 7.357590 652.686584
   vertex -82.839447 8.316271 651.332642
   vertex -82.842613 7.171821 651.513855
  endloop
 endfacet

 facet normal -0.164321 0.154710 0.974199
  outer loop
   vertex -82.842613 7.171821 651.513855
   vertex -82.839447 8.316271 651.332642
   vertex -82.941032 7.169520 651.497620
  endloop
 endfacet

 facet normal -0.164322 0.154710 0.974199
  outer loop
   vertex -82.941032 7.169520 651.497620
   vertex -82.839447 8.316271 651.332642
   vertex -82.937866 8.313970 651.316406
  endloop
 endfacet

 facet normal -0.999848 0.000004 -0.017445
  outer loop
   vertex -82.937866 8.313970 651.316406
   vertex -82.938293 7.144653 651.340637
   vertex -82.941032 7.169520 651.497620
  endloop
 endfacet

 facet normal -0.999848 0.000004 -0.017439
  outer loop
   vertex -82.935127 8.289103 651.159363
   vertex -82.938293 7.144653 651.340637
   vertex -82.937866 8.313970 651.316406
  endloop
 endfacet

 facet normal -0.596493 -0.123955 -0.792989
  outer loop
   vertex -82.850929 8.279078 651.097595
   vertex -82.938293 7.144653 651.340637
   vertex -82.935127 8.289103 651.159363
  endloop
 endfacet

 facet normal 0.002835 0.987686 -0.156424
  outer loop
   vertex -82.935127 8.289103 651.159363
   vertex -82.839447 8.316271 651.332642
   vertex -82.850929 8.279078 651.097595
  endloop
 endfacet

 facet normal 0.002723 0.987687 -0.156419
  outer loop
   vertex -82.850929 8.279078 651.097595
   vertex -82.839447 8.316271 651.332642
   vertex -82.009430 8.279078 651.112244
  endloop
 endfacet

 facet normal 0.002725 0.987689 -0.156410
  outer loop
   vertex -82.009430 8.279078 651.112244
   vertex -82.839447 8.316271 651.332642
   vertex -82.859917 8.502040 652.505371
  endloop
 endfacet

 facet normal 0.002731 0.987689 -0.156407
  outer loop
   vertex -82.859917 8.502040 652.505371
   vertex -82.038094 8.539231 652.754578
   vertex -82.009430 8.279078 651.112244
  endloop
 endfacet

 facet normal 0.002734 0.987687 -0.156418
  outer loop
   vertex -82.879593 8.539231 652.739868
   vertex -82.038094 8.539231 652.754578
   vertex -82.859917 8.502040 652.505371
  endloop
 endfacet

 facet normal -0.017262 0.156416 0.987540
  outer loop
   vertex -82.041260 7.394782 652.935791
   vertex -82.038094 8.539231 652.754578
   vertex -82.879593 8.539231 652.739868
  endloop
 endfacet

 facet normal -0.017262 0.156416 0.987540
  outer loop
   vertex -82.879593 8.539231 652.739868
   vertex -82.882759 7.394782 652.921082
   vertex -82.041260 7.394782 652.935791
  endloop
 endfacet

 facet normal -0.002734 -0.987687 0.156420
  outer loop
   vertex -82.041260 7.394782 652.935791
   vertex -82.882759 7.394782 652.921082
   vertex -82.863083 7.357590 652.686584
  endloop
 endfacet

 facet normal -0.002679 -0.987686 0.156425
  outer loop
   vertex -82.863083 7.357590 652.686584
   vertex -82.882759 7.394782 652.921082
   vertex -82.964752 7.384758 652.856384
  endloop
 endfacet

 facet normal -0.002706 -0.987689 0.156409
  outer loop
   vertex -82.964752 7.384758 652.856384
   vertex -82.962013 7.359890 652.699402
   vertex -82.863083 7.357590 652.686584
  endloop
 endfacet

 facet normal -0.999848 0.000003 -0.017445
  outer loop
   vertex -82.958847 8.504340 652.518127
   vertex -82.962013 7.359890 652.699402
   vertex -82.964752 7.384758 652.856384
  endloop
 endfacet

 facet normal -0.130477 -0.154755 -0.979299
  outer loop
   vertex -82.863083 7.357590 652.686584
   vertex -82.962013 7.359890 652.699402
   vertex -82.958847 8.504340 652.518127
  endloop
 endfacet

 facet normal -0.129882 -0.154717 -0.979384
  outer loop
   vertex -82.958847 8.504340 652.518127
   vertex -82.859917 8.502040 652.505371
   vertex -82.863083 7.357590 652.686584
  endloop
 endfacet

 facet normal -0.999848 0.000003 -0.017452
  outer loop
   vertex -82.863083 7.357590 652.686584
   vertex -82.859917 8.502040 652.505371
   vertex -82.839447 8.316271 651.332642
  endloop
 endfacet

 facet normal 0.440039 0.139296 0.887109
  outer loop
   vertex -82.066750 -1.825624 654.395935
   vertex -81.571228 -1.864936 654.156311
   vertex -82.063583 -0.681174 654.214661
  endloop
 endfacet

 facet normal 0.439950 0.139257 0.887159
  outer loop
   vertex -82.063583 -0.681174 654.214661
   vertex -81.571228 -1.864936 654.156311
   vertex -81.568062 -0.720486 653.975098
  endloop
 endfacet

 facet normal 0.002738 0.987688 -0.156413
  outer loop
   vertex -81.568062 -0.720486 653.975098
   vertex -81.548058 -0.902015 652.829163
   vertex -82.063583 -0.681174 654.214661
  endloop
 endfacet

 facet normal 0.999848 -0.000002 0.017454
  outer loop
   vertex -81.571228 -1.864936 654.156311
   vertex -81.548058 -0.902015 652.829163
   vertex -81.568062 -0.720486 653.975098
  endloop
 endfacet

 facet normal 0.999848 -0.000002 0.017454
  outer loop
   vertex -81.551224 -2.046465 653.010376
   vertex -81.548058 -0.902015 652.829163
   vertex -81.571228 -1.864936 654.156311
  endloop
 endfacet

 facet normal -0.002743 -0.987688 0.156413
  outer loop
   vertex -81.571228 -1.864936 654.156311
   vertex -82.038078 -2.085776 652.753601
   vertex -81.551224 -2.046465 653.010376
  endloop
 endfacet

 facet normal 0.470737 -0.139251 -0.871215
  outer loop
   vertex -81.551224 -2.046465 653.010376
   vertex -82.038078 -2.085776 652.753601
   vertex -81.548058 -0.902015 652.829163
  endloop
 endfacet

 facet normal 0.470737 -0.139251 -0.871215
  outer loop
   vertex -81.548058 -0.902015 652.829163
   vertex -82.038078 -2.085776 652.753601
   vertex -82.034912 -0.941327 652.572388
  endloop
 endfacet

 facet normal 0.002742 0.987688 -0.156412
  outer loop
   vertex -82.034912 -0.941327 652.572388
   vertex -82.063583 -0.681174 654.214661
   vertex -81.548058 -0.902015 652.829163
  endloop
 endfacet

 facet normal 0.002724 0.987688 -0.156412
  outer loop
   vertex -82.864937 -0.904135 652.792786
   vertex -82.063583 -0.681174 654.214661
   vertex -82.034912 -0.941327 652.572388
  endloop
 endfacet

 facet normal 0.002720 0.987689 -0.156410
  outer loop
   vertex -82.885406 -0.718366 653.965515
   vertex -82.063583 -0.681174 654.214661
   vertex -82.864937 -0.904135 652.792786
  endloop
 endfacet

 facet normal -0.999848 0.000003 -0.017452
  outer loop
   vertex -82.864937 -0.904135 652.792786
   vertex -82.888573 -1.862816 654.146729
   vertex -82.885406 -0.718366 653.965515
  endloop
 endfacet

 facet normal -0.129882 -0.154717 -0.979384
  outer loop
   vertex -82.885406 -0.718366 653.965515
   vertex -82.888573 -1.862816 654.146729
   vertex -82.984337 -0.716065 653.978271
  endloop
 endfacet

 facet normal -0.130476 -0.154755 -0.979299
  outer loop
   vertex -82.984337 -0.716065 653.978271
   vertex -82.888573 -1.862816 654.146729
   vertex -82.987503 -1.860515 654.159546
  endloop
 endfacet

 facet normal -0.999848 0.000003 -0.017445
  outer loop
   vertex -82.987503 -1.860515 654.159546
   vertex -82.987076 -0.691198 654.135254
   vertex -82.984337 -0.716065 653.978271
  endloop
 endfacet

 facet normal -0.999848 0.000003 -0.017445
  outer loop
   vertex -82.990242 -1.835648 654.316528
   vertex -82.987076 -0.691198 654.135254
   vertex -82.987503 -1.860515 654.159546
  endloop
 endfacet

 facet normal -0.623960 0.123938 0.771565
  outer loop
   vertex -82.908249 -1.825624 654.381226
   vertex -82.987076 -0.691198 654.135254
   vertex -82.990242 -1.835648 654.316528
  endloop
 endfacet

 facet normal -0.002685 -0.987686 0.156423
  outer loop
   vertex -82.990242 -1.835648 654.316528
   vertex -82.888573 -1.862816 654.146729
   vertex -82.908249 -1.825624 654.381226
  endloop
 endfacet

 facet normal -0.002734 -0.987687 0.156419
  outer loop
   vertex -82.908249 -1.825624 654.381226
   vertex -82.888573 -1.862816 654.146729
   vertex -82.066750 -1.825624 654.395935
  endloop
 endfacet

 facet normal -0.002731 -0.987689 0.156409
  outer loop
   vertex -82.066750 -1.825624 654.395935
   vertex -82.888573 -1.862816 654.146729
   vertex -82.868095 -2.048585 652.973999
  endloop
 endfacet

 facet normal -0.002725 -0.987689 0.156406
  outer loop
   vertex -82.868095 -2.048585 652.973999
   vertex -82.038078 -2.085776 652.753601
   vertex -82.066750 -1.825624 654.395935
  endloop
 endfacet

 facet normal -0.002723 -0.987688 0.156416
  outer loop
   vertex -82.879578 -2.085776 652.738953
   vertex -82.038078 -2.085776 652.753601
   vertex -82.868095 -2.048585 652.973999
  endloop
 endfacet

 facet normal 0.017191 -0.156416 -0.987542
  outer loop
   vertex -82.034912 -0.941327 652.572388
   vertex -82.038078 -2.085776 652.753601
   vertex -82.879578 -2.085776 652.738953
  endloop
 endfacet

 facet normal 0.017262 -0.156467 -0.987532
  outer loop
   vertex -82.879578 -2.085776 652.738953
   vertex -82.876411 -0.941327 652.557678
   vertex -82.034912 -0.941327 652.572388
  endloop
 endfacet

 facet normal 0.002734 0.987694 -0.156377
  outer loop
   vertex -82.034912 -0.941327 652.572388
   vertex -82.876411 -0.941327 652.557678
   vertex -82.864937 -0.904135 652.792786
  endloop
 endfacet

 facet normal 0.002752 0.987693 -0.156378
  outer loop
   vertex -82.864937 -0.904135 652.792786
   vertex -82.876411 -0.941327 652.557678
   vertex -82.960617 -0.931303 652.619507
  endloop
 endfacet

 facet normal 0.002811 0.987688 -0.156410
  outer loop
   vertex -82.960617 -0.931303 652.619507
   vertex -82.963356 -0.906435 652.776489
   vertex -82.864937 -0.904135 652.792786
  endloop
 endfacet

 facet normal -0.999848 0.000003 -0.017445
  outer loop
   vertex -82.966522 -2.050885 652.957764
   vertex -82.963356 -0.906435 652.776489
   vertex -82.960617 -0.931303 652.619507
  endloop
 endfacet

 facet normal -0.164909 0.154747 0.974094
  outer loop
   vertex -82.864937 -0.904135 652.792786
   vertex -82.963356 -0.906435 652.776489
   vertex -82.966522 -2.050885 652.957764
  endloop
 endfacet

 facet normal -0.164309 0.154709 0.974201
  outer loop
   vertex -82.966522 -2.050885 652.957764
   vertex -82.868095 -2.048585 652.973999
   vertex -82.864937 -0.904135 652.792786
  endloop
 endfacet

 facet normal -0.999848 -0.000005 -0.017458
  outer loop
   vertex -82.864937 -0.904135 652.792786
   vertex -82.868095 -2.048585 652.973999
   vertex -82.888573 -1.862816 654.146729
  endloop
 endfacet

 facet normal 0.017198 -0.156448 -0.987536
  outer loop
   vertex -81.050255 9.843102 651.470093
   vertex -81.051208 9.497411 651.524841
   vertex -81.300034 9.909265 651.455261
  endloop
 endfacet

 facet normal 0.017181 -0.156458 -0.987535
  outer loop
   vertex -81.300034 9.909265 651.455261
   vertex -81.051208 9.497411 651.524841
   vertex -81.475830 9.609888 651.499634
  endloop
 endfacet

 facet normal 0.017134 -0.156431 -0.987540
  outer loop
   vertex -81.475830 9.609888 651.499634
   vertex -81.482513 10.090024 651.423462
   vertex -81.300034 9.909265 651.455261
  endloop
 endfacet

 facet normal 0.017390 -0.156427 -0.987536
  outer loop
   vertex -81.786057 9.917179 651.445496
   vertex -81.482513 10.090024 651.423462
   vertex -81.475830 9.609888 651.499634
  endloop
 endfacet

 facet normal 0.017395 -0.156437 -0.987535
  outer loop
   vertex -81.548813 10.336946 651.383179
   vertex -81.482513 10.090024 651.423462
   vertex -81.786057 9.917179 651.445496
  endloop
 endfacet

 facet normal 0.017224 -0.156343 -0.987553
  outer loop
   vertex -81.786057 9.917179 651.445496
   vertex -81.898758 10.336946 651.377075
   vertex -81.548813 10.336946 651.383179
  endloop
 endfacet

 facet normal 0.017224 -0.156550 -0.987520
  outer loop
   vertex -81.548813 10.336946 651.383179
   vertex -81.898758 10.336946 651.377075
   vertex -81.481148 10.583868 651.345215
  endloop
 endfacet

 facet normal 0.017183 -0.156482 -0.987531
  outer loop
   vertex -81.481148 10.583868 651.345215
   vertex -81.898758 10.336946 651.377075
   vertex -81.783737 10.756714 651.312561
  endloop
 endfacet

 facet normal 0.017302 -0.156280 -0.987561
  outer loop
   vertex -81.783737 10.756714 651.312561
   vertex -81.297668 10.764628 651.319824
   vertex -81.481148 10.583868 651.345215
  endloop
 endfacet

 facet normal 0.017304 -0.156437 -0.987536
  outer loop
   vertex -81.471809 11.064006 651.269348
   vertex -81.297668 10.764628 651.319824
   vertex -81.783737 10.756714 651.312561
  endloop
 endfacet

 facet normal 0.017075 -0.156567 -0.987520
  outer loop
   vertex -81.047523 10.830791 651.313660
   vertex -81.297668 10.764628 651.319824
   vertex -81.471809 11.064006 651.269348
  endloop
 endfacet

 facet normal 0.017238 -0.156278 -0.987563
  outer loop
   vertex -81.471809 11.064006 651.269348
   vertex -81.046570 11.176481 651.258972
   vertex -81.047523 10.830791 651.313660
  endloop
 endfacet

 facet normal 0.017486 -0.156278 -0.987558
  outer loop
   vertex -81.047523 10.830791 651.313660
   vertex -81.046570 11.176481 651.258972
   vertex -80.797745 10.764628 651.328552
  endloop
 endfacet

 facet normal 0.017181 -0.156458 -0.987535
  outer loop
   vertex -80.797745 10.764628 651.328552
   vertex -81.046570 11.176481 651.258972
   vertex -80.046715 11.176481 651.276367
  endloop
 endfacet

 facet normal 0.017154 -0.156410 -0.987543
  outer loop
   vertex -80.046715 11.176481 651.276367
   vertex -80.615257 10.583868 651.360352
   vertex -80.797745 10.764628 651.328552
  endloop
 endfacet

 facet normal 0.017230 -0.156482 -0.987531
  outer loop
   vertex -80.548965 10.336946 651.400635
   vertex -80.615257 10.583868 651.360352
   vertex -80.046715 11.176481 651.276367
  endloop
 endfacet

 facet normal -0.017284 0.156448 0.987535
  outer loop
   vertex -81.095665 -3.389647 654.071777
   vertex -81.094711 -3.043956 654.017029
   vertex -81.345810 -3.455810 654.077881
  endloop
 endfacet

 facet normal -0.017284 0.156448 0.987535
  outer loop
   vertex -81.345810 -3.455810 654.077881
   vertex -81.094711 -3.043956 654.017029
   vertex -81.519958 -3.156433 654.027405
  endloop
 endfacet

 facet normal -0.017193 0.156500 0.987528
  outer loop
   vertex -81.519958 -3.156433 654.027405
   vertex -81.529297 -3.636569 654.103333
   vertex -81.345810 -3.455810 654.077881
  endloop
 endfacet

 facet normal -0.017173 0.156500 0.987529
  outer loop
   vertex -81.831886 -3.463724 654.070679
   vertex -81.529297 -3.636569 654.103333
   vertex -81.519958 -3.156433 654.027405
  endloop
 endfacet

 facet normal -0.017276 0.156324 0.987555
  outer loop
   vertex -81.596954 -3.883492 654.141235
   vertex -81.529297 -3.636569 654.103333
   vertex -81.831886 -3.463724 654.070679
  endloop
 endfacet

 facet normal -0.017224 0.156353 0.987551
  outer loop
   vertex -81.831886 -3.463724 654.070679
   vertex -81.946907 -3.883492 654.135132
   vertex -81.596954 -3.883492 654.141235
  endloop
 endfacet

 facet normal -0.017224 0.156483 0.987530
  outer loop
   vertex -81.596954 -3.883492 654.141235
   vertex -81.946907 -3.883492 654.135132
   vertex -81.530663 -4.130414 654.181519
  endloop
 endfacet

 facet normal -0.017224 0.156483 0.987531
  outer loop
   vertex -81.530663 -4.130414 654.181519
   vertex -81.946907 -3.883492 654.135132
   vertex -81.834206 -4.303260 654.203613
  endloop
 endfacet

 facet normal -0.017292 0.156599 0.987511
  outer loop
   vertex -81.834206 -4.303260 654.203613
   vertex -81.348175 -4.311173 654.213379
   vertex -81.530663 -4.130414 654.181519
  endloop
 endfacet

 facet normal -0.017297 0.156328 0.987554
  outer loop
   vertex -81.523979 -4.610551 654.257690
   vertex -81.348175 -4.311173 654.213379
   vertex -81.834206 -4.303260 654.203613
  endloop
 endfacet

 facet normal -0.017240 0.156295 0.987560
  outer loop
   vertex -81.098396 -4.377336 654.228210
   vertex -81.348175 -4.311173 654.213379
   vertex -81.523979 -4.610551 654.257690
  endloop
 endfacet

 facet normal -0.017326 0.156448 0.987534
  outer loop
   vertex -81.523979 -4.610551 654.257690
   vertex -81.099358 -4.723027 654.282959
   vertex -81.098396 -4.377336 654.228210
  endloop
 endfacet

 facet normal -0.017043 0.156448 0.987539
  outer loop
   vertex -81.098396 -4.377336 654.228210
   vertex -81.099358 -4.723027 654.282959
   vertex -80.848251 -4.311173 654.222046
  endloop
 endfacet

 facet normal -0.017241 0.156565 0.987517
  outer loop
   vertex -80.848251 -4.311173 654.222046
   vertex -81.099358 -4.723027 654.282959
   vertex -80.099503 -4.723027 654.300415
  endloop
 endfacet

 facet normal -0.017366 0.156344 0.987550
  outer loop
   vertex -80.099503 -4.723027 654.300415
   vertex -80.664772 -4.130414 654.196655
   vertex -80.848251 -4.311173 654.222046
  endloop
 endfacet

 facet normal -0.017163 0.156533 0.987524
  outer loop
   vertex -80.597107 -3.883492 654.158691
   vertex -80.664772 -4.130414 654.196655
   vertex -80.099503 -4.723027 654.300415
  endloop
 endfacet

 facet normal -0.017181 0.156453 0.987536
  outer loop
   vertex -80.055336 11.254699 651.770142
   vertex -80.557579 10.415163 651.894409
   vertex -80.059982 9.575627 652.036072
  endloop
 endfacet

 facet normal -0.017362 0.156348 0.987549
  outer loop
   vertex -80.059982 9.575627 652.036072
   vertex -80.557579 10.415163 651.894409
   vertex -80.625244 10.168241 651.932312
  endloop
 endfacet

 facet normal -0.017196 0.156503 0.987528
  outer loop
   vertex -80.625244 10.168241 651.932312
   vertex -80.808723 9.987481 651.957764
   vertex -80.059982 9.575627 652.036072
  endloop
 endfacet

 facet normal -0.017324 0.156569 0.987515
  outer loop
   vertex -80.845886 -3.455810 654.086609
   vertex -80.663406 -3.636569 654.118469
   vertex -80.094864 -3.043956 654.034485
  endloop
 endfacet

 facet normal -0.017031 0.156295 0.987564
  outer loop
   vertex -80.094864 -3.043956 654.034485
   vertex -80.663406 -3.636569 654.118469
   vertex -80.597107 -3.883492 654.158691
  endloop
 endfacet

 facet normal -0.017301 0.156453 0.987534
  outer loop
   vertex -80.597107 -3.883492 654.158691
   vertex -80.099503 -4.723027 654.300415
   vertex -80.094864 -3.043956 654.034485
  endloop
 endfacet

 facet normal 0.017301 -0.156453 -0.987534
  outer loop
   vertex -80.090889 -4.801244 653.806641
   vertex -80.588493 -3.961708 653.664917
   vertex -80.086243 -3.122173 653.540710
  endloop
 endfacet

 facet normal 0.017031 -0.156296 -0.987563
  outer loop
   vertex -80.086243 -3.122173 653.540710
   vertex -80.588493 -3.961708 653.664917
   vertex -80.654785 -3.714786 653.624695
  endloop
 endfacet

 facet normal 0.017323 -0.156569 -0.987515
  outer loop
   vertex -80.654785 -3.714786 653.624695
   vertex -80.837273 -3.534027 653.592834
   vertex -80.086243 -3.122173 653.540710
  endloop
 endfacet

 facet normal 0.017196 -0.156503 -0.987528
  outer loop
   vertex -80.800110 9.909265 651.463989
   vertex -80.616623 10.090024 651.438538
   vertex -80.051361 9.497411 651.542297
  endloop
 endfacet

 facet normal 0.017363 -0.156347 -0.987550
  outer loop
   vertex -80.051361 9.497411 651.542297
   vertex -80.616623 10.090024 651.438538
   vertex -80.548965 10.336946 651.400635
  endloop
 endfacet

 facet normal 0.017181 -0.156453 -0.987536
  outer loop
   vertex -80.548965 10.336946 651.400635
   vertex -80.046715 11.176481 651.276367
   vertex -80.051361 9.497411 651.542297
  endloop
 endfacet

 facet normal -0.596828 -0.123915 -0.792743
  outer loop
   vertex -82.879578 -2.085776 652.738953
   vertex -82.963783 -2.075753 652.800781
   vertex -82.876411 -0.941327 652.557678
  endloop
 endfacet

 facet normal -0.596828 -0.123915 -0.792743
  outer loop
   vertex -82.876411 -0.941327 652.557678
   vertex -82.963783 -2.075753 652.800781
   vertex -82.960617 -0.931303 652.619507
  endloop
 endfacet

 facet normal -0.017293 0.156432 0.987537
  outer loop
   vertex -82.134216 8.282729 652.712463
   vertex -82.747658 8.282729 652.701721
   vertex -82.161522 -1.594164 654.276550
  endloop
 endfacet

 facet normal -0.017195 0.156438 0.987538
  outer loop
   vertex -82.161522 -1.594164 654.276550
   vertex -82.747658 8.282729 652.701721
   vertex -82.774963 -1.594164 654.265869
  endloop
 endfacet

 facet normal -0.623961 0.123938 0.771565
  outer loop
   vertex -82.964752 7.384758 652.856384
   vertex -82.882759 7.394782 652.921082
   vertex -82.961586 8.529207 652.675110
  endloop
 endfacet

 facet normal -0.624312 0.123855 0.771294
  outer loop
   vertex -82.961586 8.529207 652.675110
   vertex -82.882759 7.394782 652.921082
   vertex -82.879593 8.539231 652.739868
  endloop
 endfacet

 facet normal -0.999848 -0.000004 -0.017443
  outer loop
   vertex -81.089783 -4.455553 653.734436
   vertex -81.090736 -4.801244 653.789185
   vertex -81.094566 -4.589290 654.008667
  endloop
 endfacet

 facet normal -0.002722 -0.987689 0.156406
  outer loop
   vertex -82.066750 -1.825624 654.395935
   vertex -82.038078 -2.085776 652.753601
   vertex -81.571228 -1.864936 654.156311
  endloop
 endfacet

 facet normal -0.017198 0.156448 0.987536
  outer loop
   vertex -81.094711 -3.043956 654.017029
   vertex -81.095665 -3.389647 654.071777
   vertex -80.845886 -3.455810 654.086609
  endloop
 endfacet

 facet normal -0.017284 0.156448 0.987535
  outer loop
   vertex -81.058868 9.921319 651.963867
   vertex -81.059830 9.575627 652.018616
   vertex -80.808723 9.987481 651.957764
  endloop
 endfacet

 facet normal 0.999848 -0.000015 0.017460
  outer loop
   vertex -81.090736 -4.801244 653.789185
   vertex -81.098396 -4.377336 654.228210
   vertex -81.099358 -4.723027 654.282959
  endloop
 endfacet

 facet normal 0.017251 -0.156412 -0.987541
  outer loop
   vertex -81.664597 8.078709 651.427490
   vertex -81.660095 9.706577 651.169739
   vertex -80.119286 9.706577 651.196655
  endloop
 endfacet

 facet normal -0.017251 0.156412 0.987541
  outer loop
   vertex -80.170311 -1.625254 654.119812
   vertex -81.711128 -1.625254 654.092896
   vertex -80.174812 -3.253123 654.377563
  endloop
 endfacet

 facet normal 0.999848 0.000001 0.017444
  outer loop
   vertex -81.055183 11.254699 651.752686
   vertex -81.047523 10.830791 651.313660
   vertex -81.046570 11.176481 651.258972
  endloop
 endfacet

 facet normal 0.002698 0.987698 -0.156350
  outer loop
   vertex -82.935127 8.289103 651.159363
   vertex -82.937866 8.313970 651.316406
   vertex -82.839447 8.316271 651.332642
  endloop
 endfacet

 facet normal 0.999848 0.000006 0.017456
  outer loop
   vertex -81.095665 -3.389647 654.071777
   vertex -81.086090 -3.122173 653.523254
   vertex -81.094711 -3.043956 654.017029
  endloop
 endfacet

 facet normal 0.002740 0.987689 -0.156406
  outer loop
   vertex -82.009430 8.279078 651.112244
   vertex -82.038094 8.539231 652.754578
   vertex -81.522575 8.318390 651.369019
  endloop
 endfacet

 facet normal -0.002704 -0.987688 0.156412
  outer loop
   vertex -82.990242 -1.835648 654.316528
   vertex -82.987503 -1.860515 654.159546
   vertex -82.888573 -1.862816 654.146729
  endloop
 endfacet

 facet normal 0.017251 -0.156448 -0.987536
  outer loop
   vertex -81.691910 -1.799667 652.991821
   vertex -80.151093 -1.799667 653.018738
   vertex -80.155594 -3.427536 653.276550
  endloop
 endfacet

 facet normal -0.002733 -0.987689 0.156405
  outer loop
   vertex -80.123787 8.078708 651.454407
   vertex -80.143005 8.253121 652.555481
   vertex -81.683815 8.253122 652.528564
  endloop
 endfacet

 facet normal 0.999848 0.000006 0.017456
  outer loop
   vertex -81.050255 9.843102 651.470093
   vertex -81.059830 9.575627 652.018616
   vertex -81.051208 9.497411 651.524841
  endloop
 endfacet

 facet normal 0.017285 -0.156448 -0.987535
  outer loop
   vertex -81.051208 9.497411 651.524841
   vertex -81.050255 9.843102 651.470093
   vertex -80.800110 9.909265 651.463989
  endloop
 endfacet

 facet normal -0.705085 0.698384 -0.122939
  outer loop
   vertex -80.616623 10.090024 651.438538
   vertex -80.808723 9.987481 651.957764
   vertex -80.625244 10.168241 651.932312
  endloop
 endfacet

 facet normal -0.965072 0.255630 -0.057343
  outer loop
   vertex -80.616623 10.090024 651.438538
   vertex -80.625244 10.168241 651.932312
   vertex -80.548965 10.336946 651.400635
  endloop
 endfacet

 facet normal -0.965065 0.255660 -0.057333
  outer loop
   vertex -80.548965 10.336946 651.400635
   vertex -80.625244 10.168241 651.932312
   vertex -80.557579 10.415163 651.894409
  endloop
 endfacet

 facet normal -0.966488 -0.255621 0.023632
  outer loop
   vertex -80.557579 10.415163 651.894409
   vertex -80.615257 10.583868 651.360352
   vertex -80.548965 10.336946 651.400635
  endloop
 endfacet

 facet normal -0.966481 -0.255650 0.023622
  outer loop
   vertex -80.623878 10.662085 651.854126
   vertex -80.615257 10.583868 651.360352
   vertex -80.557579 10.415163 651.894409
  endloop
 endfacet

 facet normal -0.708921 -0.698410 0.098254
  outer loop
   vertex -80.797745 10.764628 651.328552
   vertex -80.615257 10.583868 651.360352
   vertex -80.623878 10.662085 651.854126
  endloop
 endfacet

 facet normal -0.708938 -0.698392 0.098263
  outer loop
   vertex -80.623878 10.662085 651.854126
   vertex -80.806366 10.842845 651.822266
   vertex -80.797745 10.764628 651.328552
  endloop
 endfacet

 facet normal -0.261444 -0.954024 0.146576
  outer loop
   vertex -80.797745 10.764628 651.328552
   vertex -80.806366 10.842845 651.822266
   vertex -81.047523 10.830791 651.313660
  endloop
 endfacet

 facet normal -0.256136 0.954036 -0.155594
  outer loop
   vertex -81.089783 -4.455553 653.734436
   vertex -81.098396 -4.377336 654.228210
   vertex -80.839638 -4.389390 653.728333
  endloop
 endfacet

 facet normal -0.256170 0.954024 -0.155611
  outer loop
   vertex -80.839638 -4.389390 653.728333
   vertex -81.098396 -4.377336 654.228210
   vertex -80.848251 -4.311173 654.222046
  endloop
 endfacet

 facet normal -0.705070 0.698398 -0.122945
  outer loop
   vertex -80.848251 -4.311173 654.222046
   vertex -80.656151 -4.208631 653.702881
   vertex -80.839638 -4.389390 653.728333
  endloop
 endfacet

 facet normal -0.705066 0.698404 -0.122942
  outer loop
   vertex -80.664772 -4.130414 654.196655
   vertex -80.656151 -4.208631 653.702881
   vertex -80.848251 -4.311173 654.222046
  endloop
 endfacet

 facet normal -0.965076 0.255618 -0.057342
  outer loop
   vertex -80.588493 -3.961708 653.664917
   vertex -80.656151 -4.208631 653.702881
   vertex -80.664772 -4.130414 654.196655
  endloop
 endfacet

 facet normal -0.965069 0.255647 -0.057331
  outer loop
   vertex -80.664772 -4.130414 654.196655
   vertex -80.597107 -3.883492 654.158691
   vertex -80.588493 -3.961708 653.664917
  endloop
 endfacet

 facet normal -0.966487 -0.255625 0.023633
  outer loop
   vertex -80.588493 -3.961708 653.664917
   vertex -80.597107 -3.883492 654.158691
   vertex -80.654785 -3.714786 653.624695
  endloop
 endfacet

 facet normal -0.966479 -0.255655 0.023623
  outer loop
   vertex -80.654785 -3.714786 653.624695
   vertex -80.597107 -3.883492 654.158691
   vertex -80.663406 -3.636569 654.118469
  endloop
 endfacet

 facet normal -0.708935 -0.698396 0.098252
  outer loop
   vertex -80.663406 -3.636569 654.118469
   vertex -80.837273 -3.534027 653.592834
   vertex -80.654785 -3.714786 653.624695
  endloop
 endfacet

 facet normal -0.261413 -0.954035 0.146560
  outer loop
   vertex -81.051208 9.497411 651.524841
   vertex -81.059830 9.575627 652.018616
   vertex -81.475830 9.609888 651.499634
  endloop
 endfacet

 facet normal -0.261413 -0.954035 0.146560
  outer loop
   vertex -81.475830 9.609888 651.499634
   vertex -81.059830 9.575627 652.018616
   vertex -81.484451 9.688105 651.993408
  endloop
 endfacet

 facet normal -0.708935 -0.698397 0.098252
  outer loop
   vertex -81.484451 9.688105 651.993408
   vertex -81.786057 9.917179 651.445496
   vertex -81.475830 9.609888 651.499634
  endloop
 endfacet

 facet normal -0.708935 -0.698397 0.098252
  outer loop
   vertex -81.794678 9.995396 651.939270
   vertex -81.786057 9.917179 651.445496
   vertex -81.484451 9.688105 651.993408
  endloop
 endfacet

 facet normal -0.966484 -0.255637 0.023620
  outer loop
   vertex -81.898758 10.336946 651.377075
   vertex -81.786057 9.917179 651.445496
   vertex -81.794678 9.995396 651.939270
  endloop
 endfacet

 facet normal -0.966484 -0.255637 0.023620
  outer loop
   vertex -81.794678 9.995396 651.939270
   vertex -81.907379 10.415163 651.870850
   vertex -81.898758 10.336946 651.377075
  endloop
 endfacet

 facet normal -0.965073 0.255627 -0.057343
  outer loop
   vertex -81.898758 10.336946 651.377075
   vertex -81.907379 10.415163 651.870850
   vertex -81.783737 10.756714 651.312561
  endloop
 endfacet

 facet normal -0.965073 0.255627 -0.057343
  outer loop
   vertex -81.783737 10.756714 651.312561
   vertex -81.907379 10.415163 651.870850
   vertex -81.792358 10.834931 651.806335
  endloop
 endfacet

 facet normal -0.705061 0.698408 -0.122943
  outer loop
   vertex -81.792358 10.834931 651.806335
   vertex -81.471809 11.064006 651.269348
   vertex -81.783737 10.756714 651.312561
  endloop
 endfacet

 facet normal -0.705060 0.698410 -0.122942
  outer loop
   vertex -81.480431 11.142222 651.763123
   vertex -81.471809 11.064006 651.269348
   vertex -81.792358 10.834931 651.806335
  endloop
 endfacet

 facet normal -0.256138 0.954035 -0.155596
  outer loop
   vertex -81.046570 11.176481 651.258972
   vertex -81.471809 11.064006 651.269348
   vertex -81.480431 11.142222 651.763123
  endloop
 endfacet

 facet normal -0.256156 0.954028 -0.155613
  outer loop
   vertex -81.480431 11.142222 651.763123
   vertex -81.055183 11.254699 651.752686
   vertex -81.046570 11.176481 651.258972
  endloop
 endfacet

 facet normal -0.261431 -0.954031 0.146559
  outer loop
   vertex -81.090736 -4.801244 653.789185
   vertex -81.099358 -4.723027 654.282959
   vertex -81.515358 -4.688767 653.763916
  endloop
 endfacet

 facet normal -0.261431 -0.954031 0.146559
  outer loop
   vertex -81.515358 -4.688767 653.763916
   vertex -81.099358 -4.723027 654.282959
   vertex -81.523979 -4.610551 654.257690
  endloop
 endfacet

 facet normal -0.708925 -0.698406 0.098254
  outer loop
   vertex -81.523979 -4.610551 654.257690
   vertex -81.825584 -4.381476 653.709839
   vertex -81.515358 -4.688767 653.763916
  endloop
 endfacet

 facet normal -0.708925 -0.698406 0.098254
  outer loop
   vertex -81.834206 -4.303260 654.203613
   vertex -81.825584 -4.381476 653.709839
   vertex -81.523979 -4.610551 654.257690
  endloop
 endfacet

 facet normal -0.966485 -0.255634 0.023619
  outer loop
   vertex -81.938286 -3.961709 653.641357
   vertex -81.825584 -4.381476 653.709839
   vertex -81.834206 -4.303260 654.203613
  endloop
 endfacet

 facet normal -0.966485 -0.255634 0.023619
  outer loop
   vertex -81.834206 -4.303260 654.203613
   vertex -81.946907 -3.883492 654.135132
   vertex -81.938286 -3.961709 653.641357
  endloop
 endfacet

 facet normal -0.965071 0.255635 -0.057344
  outer loop
   vertex -81.938286 -3.961709 653.641357
   vertex -81.946907 -3.883492 654.135132
   vertex -81.823265 -3.541941 653.576904
  endloop
 endfacet

 facet normal -0.965071 0.255635 -0.057344
  outer loop
   vertex -81.823265 -3.541941 653.576904
   vertex -81.946907 -3.883492 654.135132
   vertex -81.831886 -3.463724 654.070679
  endloop
 endfacet

 facet normal -0.705060 0.698410 -0.122942
  outer loop
   vertex -81.831886 -3.463724 654.070679
   vertex -81.511337 -3.234650 653.533691
   vertex -81.823265 -3.541941 653.576904
  endloop
 endfacet

 facet normal -0.705072 0.698395 -0.122956
  outer loop
   vertex -81.519958 -3.156433 654.027405
   vertex -81.511337 -3.234650 653.533691
   vertex -81.831886 -3.463724 654.070679
  endloop
 endfacet

 facet normal -0.256157 0.954027 -0.155615
  outer loop
   vertex -81.086090 -3.122173 653.523254
   vertex -81.511337 -3.234650 653.533691
   vertex -81.519958 -3.156433 654.027405
  endloop
 endfacet

 facet normal -0.256137 0.954035 -0.155597
  outer loop
   vertex -81.519958 -3.156433 654.027405
   vertex -81.094711 -3.043956 654.017029
   vertex -81.086090 -3.122173 653.523254
  endloop
 endfacet

 facet normal -0.708950 -0.698380 0.098260
  outer loop
   vertex -80.663406 -3.636569 654.118469
   vertex -80.845886 -3.455810 654.086609
   vertex -80.837273 -3.534027 653.592834
  endloop
 endfacet

 facet normal -0.261413 -0.954035 0.146565
  outer loop
   vertex -80.837273 -3.534027 653.592834
   vertex -80.845886 -3.455810 654.086609
   vertex -81.095665 -3.389647 654.071777
  endloop
 endfacet

 facet normal -0.261413 -0.954035 0.146565
  outer loop
   vertex -81.095665 -3.389647 654.071777
   vertex -81.087051 -3.467864 653.578003
   vertex -80.837273 -3.534027 653.592834
  endloop
 endfacet

 facet normal 0.256135 -0.954036 0.155593
  outer loop
   vertex -81.345810 -3.455810 654.077881
   vertex -81.087051 -3.467864 653.578003
   vertex -81.095665 -3.389647 654.071777
  endloop
 endfacet

 facet normal 0.256135 -0.954036 0.155593
  outer loop
   vertex -81.337196 -3.534026 653.584106
   vertex -81.087051 -3.467864 653.578003
   vertex -81.345810 -3.455810 654.077881
  endloop
 endfacet

 facet normal 0.705071 -0.698400 0.122930
  outer loop
   vertex -81.345810 -3.455810 654.077881
   vertex -81.529297 -3.636569 654.103333
   vertex -81.337196 -3.534026 653.584106
  endloop
 endfacet

 facet normal 0.705086 -0.698384 0.122939
  outer loop
   vertex -81.337196 -3.534026 653.584106
   vertex -81.529297 -3.636569 654.103333
   vertex -81.520676 -3.714786 653.609558
  endloop
 endfacet

 facet normal 0.965072 -0.255631 0.057343
  outer loop
   vertex -81.520676 -3.714786 653.609558
   vertex -81.529297 -3.636569 654.103333
   vertex -81.596954 -3.883492 654.141235
  endloop
 endfacet

 facet normal 0.965065 -0.255660 0.057333
  outer loop
   vertex -81.596954 -3.883492 654.141235
   vertex -81.588341 -3.961708 653.647461
   vertex -81.520676 -3.714786 653.609558
  endloop
 endfacet

 facet normal 0.966488 0.255620 -0.023632
  outer loop
   vertex -81.530663 -4.130414 654.181519
   vertex -81.588341 -3.961708 653.647461
   vertex -81.596954 -3.883492 654.141235
  endloop
 endfacet

 facet normal 0.966481 0.255650 -0.023622
  outer loop
   vertex -81.522041 -4.208631 653.687744
   vertex -81.588341 -3.961708 653.647461
   vertex -81.530663 -4.130414 654.181519
  endloop
 endfacet

 facet normal 0.708937 0.698395 -0.098252
  outer loop
   vertex -81.530663 -4.130414 654.181519
   vertex -81.348175 -4.311173 654.213379
   vertex -81.522041 -4.208631 653.687744
  endloop
 endfacet

 facet normal 0.708951 0.698379 -0.098260
  outer loop
   vertex -81.522041 -4.208631 653.687744
   vertex -81.348175 -4.311173 654.213379
   vertex -81.339561 -4.389390 653.719604
  endloop
 endfacet

 facet normal 0.261410 0.954035 -0.146564
  outer loop
   vertex -81.339561 -4.389390 653.719604
   vertex -81.348175 -4.311173 654.213379
   vertex -81.098396 -4.377336 654.228210
  endloop
 endfacet

 facet normal 0.261412 0.954035 -0.146565
  outer loop
   vertex -81.098396 -4.377336 654.228210
   vertex -81.089783 -4.455553 653.734436
   vertex -81.339561 -4.389390 653.719604
  endloop
 endfacet

 facet normal -0.705071 0.698401 -0.122930
  outer loop
   vertex -80.616623 10.090024 651.438538
   vertex -80.800110 9.909265 651.463989
   vertex -80.808723 9.987481 651.957764
  endloop
 endfacet

 facet normal -0.256138 0.954036 -0.155593
  outer loop
   vertex -80.808723 9.987481 651.957764
   vertex -80.800110 9.909265 651.463989
   vertex -81.050255 9.843102 651.470093
  endloop
 endfacet

 facet normal -0.256134 0.954036 -0.155595
  outer loop
   vertex -81.050255 9.843102 651.470093
   vertex -81.058868 9.921319 651.963867
   vertex -80.808723 9.987481 651.957764
  endloop
 endfacet

 facet normal 0.261414 0.954034 -0.146566
  outer loop
   vertex -81.300034 9.909265 651.455261
   vertex -81.058868 9.921319 651.963867
   vertex -81.050255 9.843102 651.470093
  endloop
 endfacet

 facet normal 0.261410 0.954035 -0.146564
  outer loop
   vertex -81.308647 9.987481 651.949036
   vertex -81.058868 9.921319 651.963867
   vertex -81.300034 9.909265 651.455261
  endloop
 endfacet

 facet normal 0.708934 0.698396 -0.098263
  outer loop
   vertex -81.300034 9.909265 651.455261
   vertex -81.482513 10.090024 651.423462
   vertex -81.308647 9.987481 651.949036
  endloop
 endfacet

 facet normal 0.708936 0.698394 -0.098264
  outer loop
   vertex -81.308647 9.987481 651.949036
   vertex -81.482513 10.090024 651.423462
   vertex -81.491135 10.168241 651.917175
  endloop
 endfacet

 facet normal 0.966481 0.255649 -0.023625
  outer loop
   vertex -81.491135 10.168241 651.917175
   vertex -81.482513 10.090024 651.423462
   vertex -81.548813 10.336946 651.383179
  endloop
 endfacet

 facet normal 0.966480 0.255655 -0.023623
  outer loop
   vertex -81.548813 10.336946 651.383179
   vertex -81.557434 10.415163 651.876953
   vertex -81.491135 10.168241 651.917175
  endloop
 endfacet

 facet normal 0.965068 -0.255646 0.057346
  outer loop
   vertex -81.481148 10.583868 651.345215
   vertex -81.557434 10.415163 651.876953
   vertex -81.548813 10.336946 651.383179
  endloop
 endfacet

 facet normal 0.965068 -0.255646 0.057346
  outer loop
   vertex -81.489769 10.662085 651.838989
   vertex -81.557434 10.415163 651.876953
   vertex -81.481148 10.583868 651.345215
  endloop
 endfacet

 facet normal 0.705067 -0.698403 0.122941
  outer loop
   vertex -81.481148 10.583868 651.345215
   vertex -81.297668 10.764628 651.319824
   vertex -81.489769 10.662085 651.838989
  endloop
 endfacet

 facet normal 0.705067 -0.698403 0.122941
  outer loop
   vertex -81.489769 10.662085 651.838989
   vertex -81.297668 10.764628 651.319824
   vertex -81.306290 10.842845 651.813599
  endloop
 endfacet

 facet normal 0.256170 -0.954027 0.155596
  outer loop
   vertex -81.306290 10.842845 651.813599
   vertex -81.297668 10.764628 651.319824
   vertex -81.047523 10.830791 651.313660
  endloop
 endfacet

 facet normal 0.256170 -0.954027 0.155596
  outer loop
   vertex -81.047523 10.830791 651.313660
   vertex -81.056145 10.909007 651.807434
   vertex -81.306290 10.842845 651.813599
  endloop
 endfacet

 facet normal -0.261410 -0.954036 0.146560
  outer loop
   vertex -80.806366 10.842845 651.822266
   vertex -81.056145 10.909007 651.807434
   vertex -81.047523 10.830791 651.313660
  endloop
 endfacet

endsolid