solid stl file generated from DOUG
 facet normal -0.874610 -0.026128 0.484122
  outer loop
   vertex -14.641038 79.479446 575.151428
   vertex -14.640580 78.978958 575.125244
   vertex -14.519547 79.468086 575.370300
  endloop
 facet normal -0.874610 -0.026128 0.484123
  outer loop
   vertex -14.519547 79.468086 575.370300
   vertex -14.640580 78.978958 575.125244
   vertex -14.519089 78.967606 575.344116
  endloop
 facet normal -0.017513 -0.052254 0.998480
  outer loop
   vertex -14.519089 78.967606 575.344116
   vertex -14.268999 79.468086 575.374695
   vertex -14.519547 79.468086 575.370300
  endloop
 facet normal -0.017270 -0.052376 0.998478
  outer loop
   vertex -14.268541 78.967606 575.348450
   vertex -14.268999 79.468086 575.374695
   vertex -14.519089 78.967606 575.344116
  endloop
 facet normal 0.857156 -0.026191 0.514391
  outer loop
   vertex -14.139941 79.479446 575.160217
   vertex -14.268999 79.468086 575.374695
   vertex -14.268541 78.967606 575.348450
  endloop
 facet normal 0.857156 -0.026190 0.514391
  outer loop
   vertex -14.268541 78.967606 575.348450
   vertex -14.139483 78.978958 575.133972
   vertex -14.139941 79.479446 575.160217
  endloop
 facet normal 0.874609 0.026187 -0.484122
  outer loop
   vertex -14.139941 79.479446 575.160217
   vertex -14.139483 78.978958 575.133972
   vertex -14.261434 79.490807 574.941345
  endloop
 facet normal 0.874609 0.026187 -0.484122
  outer loop
   vertex -14.261434 79.490807 574.941345
   vertex -14.139483 78.978958 575.133972
   vertex -14.260976 78.990318 574.915100
  endloop
 facet normal 0.017513 0.052375 -0.998474
  outer loop
   vertex -14.260976 78.990318 574.915100
   vertex -14.511981 79.490807 574.936951
   vertex -14.261434 79.490807 574.941345
  endloop
 facet normal 0.017513 0.052375 -0.998474
  outer loop
   vertex -14.511523 78.990318 574.910706
   vertex -14.511981 79.490807 574.936951
   vertex -14.260976 78.990318 574.915100
  endloop
 facet normal -0.857158 0.026190 -0.514388
  outer loop
   vertex -14.641038 79.479446 575.151428
   vertex -14.511981 79.490807 574.936951
   vertex -14.511523 78.990318 574.910706
  endloop
 facet normal -0.857222 0.026122 -0.514284
  outer loop
   vertex -14.511523 78.990318 574.910706
   vertex -14.640580 78.978958 575.125244
   vertex -14.641038 79.479446 575.151428
  endloop
 facet normal 0.857154 -0.026128 0.514397
  outer loop
   vertex -36.231415 78.978958 574.748352
   vertex -36.231873 79.479446 574.774536
   vertex -36.360474 78.967606 574.962830
  endloop
 facet normal 0.857219 -0.026185 0.514286
  outer loop
   vertex -36.360474 78.967606 574.962830
   vertex -36.231873 79.479446 574.774536
   vertex -36.360931 79.468086 574.989075
  endloop
 facet normal -0.017513 -0.052376 0.998474
  outer loop
   vertex -36.360931 79.468086 574.989075
   vertex -36.611019 78.967606 574.958435
   vertex -36.360474 78.967606 574.962830
  endloop
 facet normal -0.017513 -0.052376 0.998474
  outer loop
   vertex -36.611477 79.468086 574.984680
   vertex -36.611019 78.967606 574.958435
   vertex -36.360931 79.468086 574.989075
  endloop
 facet normal -0.874605 -0.026188 0.484129
  outer loop
   vertex -36.732513 78.978958 574.739563
   vertex -36.611019 78.967606 574.958435
   vertex -36.611477 79.468086 574.984680
  endloop
 facet normal -0.874605 -0.026187 0.484128
  outer loop
   vertex -36.611477 79.468086 574.984680
   vertex -36.732971 79.479446 574.765808
   vertex -36.732513 78.978958 574.739563
  endloop
 facet normal -0.857154 0.026190 -0.514393
  outer loop
   vertex -36.732513 78.978958 574.739563
   vertex -36.732971 79.479446 574.765808
   vertex -36.603455 78.990318 574.525085
  endloop
 facet normal -0.857154 0.026190 -0.514393
  outer loop
   vertex -36.603455 78.990318 574.525085
   vertex -36.732971 79.479446 574.765808
   vertex -36.603912 79.490807 574.551331
  endloop
 facet normal 0.017513 0.052375 -0.998474
  outer loop
   vertex -36.603912 79.490807 574.551331
   vertex -36.352909 78.990318 574.529480
   vertex -36.603455 78.990318 574.525085
  endloop
 facet normal 0.017270 0.052254 -0.998485
  outer loop
   vertex -36.353367 79.490807 574.555664
   vertex -36.352909 78.990318 574.529480
   vertex -36.603912 79.490807 574.551331
  endloop
 facet normal 0.874605 0.026128 -0.484131
  outer loop
   vertex -36.231415 78.978958 574.748352
   vertex -36.352909 78.990318 574.529480
   vertex -36.353367 79.490807 574.555664
  endloop
 facet normal 0.874605 0.026128 -0.484131
  outer loop
   vertex -36.353367 79.490807 574.555664
   vertex -36.231873 79.479446 574.774536
   vertex -36.231415 78.978958 574.748352
  endloop
 facet normal -0.000918 0.998629 0.052342
  outer loop
   vertex -36.611477 79.468086 574.984680
   vertex -36.360931 79.468086 574.989075
   vertex -36.482422 79.479446 574.770203
  endloop
 facet normal -0.000905 0.998629 0.052335
  outer loop
   vertex -36.482422 79.479446 574.770203
   vertex -36.360931 79.468086 574.989075
   vertex -36.231873 79.479446 574.774536
  endloop
 facet normal -0.000905 0.998629 0.052335
  outer loop
   vertex -36.231873 79.479446 574.774536
   vertex -36.353367 79.490807 574.555664
   vertex -36.482422 79.479446 574.770203
  endloop
 facet normal -0.000918 0.998629 0.052342
  outer loop
   vertex -14.511981 79.490807 574.936951
   vertex -14.641038 79.479446 575.151428
   vertex -14.390490 79.479446 575.155823
  endloop
 facet normal -0.000918 0.998629 0.052342
  outer loop
   vertex -14.390490 79.479446 575.155823
   vertex -14.641038 79.479446 575.151428
   vertex -14.519547 79.468086 575.370300
  endloop
 facet normal -0.000918 0.998629 0.052342
  outer loop
   vertex -14.519547 79.468086 575.370300
   vertex -14.268999 79.468086 575.374695
   vertex -14.390490 79.479446 575.155823
  endloop
 facet normal -0.000918 0.998629 0.052342
  outer loop
   vertex -14.268999 79.468086 575.374695
   vertex -14.139941 79.479446 575.160217
   vertex -14.390490 79.479446 575.155823
  endloop
 facet normal -0.000918 0.998629 0.052342
  outer loop
   vertex -14.390490 79.479446 575.155823
   vertex -14.139941 79.479446 575.160217
   vertex -14.261434 79.490807 574.941345
  endloop
 facet normal -0.000918 0.998629 0.052342
  outer loop
   vertex -14.261434 79.490807 574.941345
   vertex -14.511981 79.490807 574.936951
   vertex -14.390490 79.479446 575.155823
  endloop
 facet normal -0.000905 0.998629 0.052335
  outer loop
   vertex -36.353367 79.490807 574.555664
   vertex -36.603912 79.490807 574.551331
   vertex -36.482422 79.479446 574.770203
  endloop
 facet normal -0.000918 0.998629 0.052342
  outer loop
   vertex -36.482422 79.479446 574.770203
   vertex -36.603912 79.490807 574.551331
   vertex -36.732971 79.479446 574.765808
  endloop
 facet normal -0.000918 0.998629 0.052342
  outer loop
   vertex -36.732971 79.479446 574.765808
   vertex -36.611477 79.468086 574.984680
   vertex -36.482422 79.479446 574.770203
  endloop
 facet normal -0.000913 0.998630 0.052328
  outer loop
   vertex -15.834113 77.480171 574.399780
   vertex -15.855903 77.414742 575.648071
   vertex -12.843168 77.480171 574.451965
  endloop
 facet normal -0.000913 0.998630 0.052328
  outer loop
   vertex -12.843168 77.480171 574.451965
   vertex -15.855903 77.414742 575.648071
   vertex -12.864959 77.414742 575.700256
  endloop
 facet normal 0.999848 0.000000 0.017454
  outer loop
   vertex -12.864959 77.414742 575.700256
   vertex -12.841900 76.093491 574.379333
   vertex -12.843168 77.480171 574.451965
  endloop
 facet normal 0.999848 0.000000 0.017454
  outer loop
   vertex -12.863690 76.028061 575.627625
   vertex -12.841900 76.093491 574.379333
   vertex -12.864959 77.414742 575.700256
  endloop
 facet normal 0.000914 -0.998630 -0.052328
  outer loop
   vertex -15.854635 76.028061 575.575378
   vertex -12.841900 76.093491 574.379333
   vertex -12.863690 76.028061 575.627625
  endloop
 facet normal -0.017441 -0.052358 0.998476
  outer loop
   vertex -12.863690 76.028061 575.627625
   vertex -15.855903 77.414742 575.648071
   vertex -15.854635 76.028061 575.575378
  endloop
 facet normal -0.999848 0.000001 -0.017454
  outer loop
   vertex -15.854635 76.028061 575.575378
   vertex -15.855903 77.414742 575.648071
   vertex -15.832845 76.093491 574.327087
  endloop
 facet normal -0.999848 0.000000 -0.017453
  outer loop
   vertex -15.832845 76.093491 574.327087
   vertex -15.855903 77.414742 575.648071
   vertex -15.834113 77.480171 574.399780
  endloop
 facet normal 0.017441 0.052358 -0.998476
  outer loop
   vertex -15.834113 77.480171 574.399780
   vertex -12.841900 76.093491 574.379333
   vertex -15.832845 76.093491 574.327087
  endloop
 facet normal 0.017421 0.052314 -0.998479
  outer loop
   vertex -12.843168 77.480171 574.451965
   vertex -12.841900 76.093491 574.379333
   vertex -15.834113 77.480171 574.399780
  endloop
 facet normal -0.999848 0.000001 -0.017453
  outer loop
   vertex -38.002968 76.093491 573.940125
   vertex -38.024757 76.028061 575.188416
   vertex -38.004234 77.480171 574.012756
  endloop
 facet normal -0.999848 -0.000002 -0.017456
  outer loop
   vertex -38.004234 77.480171 574.012756
   vertex -38.024757 76.028061 575.188416
   vertex -38.026028 77.414742 575.261047
  endloop
 facet normal -0.000914 0.998630 0.052328
  outer loop
   vertex -38.026028 77.414742 575.261047
   vertex -35.013290 77.480171 574.065002
   vertex -38.004234 77.480171 574.012756
  endloop
 facet normal -0.000914 0.998630 0.052328
  outer loop
   vertex -35.035084 77.414742 575.313293
   vertex -35.013290 77.480171 574.065002
   vertex -38.026028 77.414742 575.261047
  endloop
 facet normal 0.999848 0.000001 0.017456
  outer loop
   vertex -35.033813 76.028061 575.240601
   vertex -35.013290 77.480171 574.065002
   vertex -35.035084 77.414742 575.313293
  endloop
 facet normal -0.017421 -0.052358 0.998476
  outer loop
   vertex -35.035084 77.414742 575.313293
   vertex -38.024757 76.028061 575.188416
   vertex -35.033813 76.028061 575.240601
  endloop
 facet normal 0.000913 -0.998630 -0.052328
  outer loop
   vertex -35.033813 76.028061 575.240601
   vertex -38.024757 76.028061 575.188416
   vertex -35.012024 76.093491 573.992310
  endloop
 facet normal 0.000913 -0.998630 -0.052328
  outer loop
   vertex -35.012024 76.093491 573.992310
   vertex -38.024757 76.028061 575.188416
   vertex -38.002968 76.093491 573.940125
  endloop
 facet normal 0.017421 0.052358 -0.998476
  outer loop
   vertex -38.002968 76.093491 573.940125
   vertex -35.013290 77.480171 574.065002
   vertex -35.012024 76.093491 573.992310
  endloop
 facet normal 0.017442 0.052314 -0.998478
  outer loop
   vertex -38.004234 77.480171 574.012756
   vertex -35.013290 77.480171 574.065002
   vertex -38.002968 76.093491 573.940125
  endloop
 facet normal -0.017442 -0.052314 0.998478
  outer loop
   vertex -35.035084 77.414742 575.313293
   vertex -38.026028 77.414742 575.261047
   vertex -38.024757 76.028061 575.188416
  endloop
 facet normal -0.017421 -0.052314 0.998479
  outer loop
   vertex -12.864959 77.414742 575.700256
   vertex -15.855903 77.414742 575.648071
   vertex -12.863690 76.028061 575.627625
  endloop
 facet normal 0.999848 -0.000002 0.017453
  outer loop
   vertex -35.033813 76.028061 575.240601
   vertex -35.012024 76.093491 573.992310
   vertex -35.013290 77.480171 574.065002
  endloop
 facet normal 0.000914 -0.998630 -0.052328
  outer loop
   vertex -15.854635 76.028061 575.575378
   vertex -15.832845 76.093491 574.327087
   vertex -12.841900 76.093491 574.379333
  endloop
 facet normal -0.000914 0.998629 0.052338
  outer loop
   vertex -15.616440 80.254601 574.388855
   vertex -35.232361 80.248863 574.155945
   vertex -15.618350 80.248863 574.498291
  endloop
 facet normal -0.014565 0.550874 0.834461
  outer loop
   vertex -15.618350 80.248863 574.498291
   vertex -35.232361 80.248863 574.155945
   vertex -15.619747 80.127617 574.578308
  endloop
 facet normal -0.014346 0.568308 0.822691
  outer loop
   vertex -34.510109 80.232430 575.612671
   vertex -35.669689 80.146080 575.652100
   vertex -34.511150 80.146080 575.672302
  endloop
 facet normal -0.017411 -0.052367 0.998476
  outer loop
   vertex -34.511150 80.146080 575.672302
   vertex -35.669689 80.146080 575.652100
   vertex -35.668919 79.305603 575.608032
  endloop
 facet normal 0.017412 0.052295 -0.998480
  outer loop
   vertex -15.203753 79.392639 574.304321
   vertex -16.363062 80.233116 574.328125
   vertex -15.204522 80.233116 574.348328
  endloop
 facet normal 0.013234 0.651028 -0.758938
  outer loop
   vertex -15.204522 80.233116 574.348328
   vertex -16.363062 80.233116 574.328125
   vertex -16.364254 80.312759 574.396423
  endloop
 facet normal 0.013478 0.635224 -0.772211
  outer loop
   vertex -35.254295 80.065948 575.412354
   vertex -35.255905 80.178169 575.504639
   vertex -15.641893 80.178169 575.846985
  endloop
 facet normal -0.000913 0.998631 0.052309
  outer loop
   vertex -15.641893 80.178169 575.846985
   vertex -35.255905 80.178169 575.504639
   vertex -15.643804 80.172432 575.956482
  endloop
 facet normal 0.005393 0.951048 -0.308997
  outer loop
   vertex -35.230331 79.485168 574.039734
   vertex -15.616322 79.485168 574.382080
   vertex -35.229736 79.474060 574.005554
  endloop
 facet normal 0.005407 0.950823 -0.309688
  outer loop
   vertex -35.229736 79.474060 574.005554
   vertex -15.616322 79.485168 574.382080
   vertex -15.615726 79.474052 574.347961
  endloop
 facet normal 0.017431 0.051864 -0.998502
  outer loop
   vertex -15.615726 79.474052 574.347961
   vertex -35.229671 79.403534 574.001892
   vertex -35.229736 79.474060 574.005554
  endloop
 facet normal -0.999848 -0.000003 -0.017461
  outer loop
   vertex -35.640701 80.233116 573.991577
   vertex -35.644833 80.205116 574.228149
   vertex -35.641895 80.312759 574.059937
  endloop
 facet normal -0.999848 0.000017 -0.017448
  outer loop
   vertex -35.641895 80.312759 574.059937
   vertex -35.644833 80.205116 574.228149
   vertex -35.644665 80.304443 574.218628
  endloop
 facet normal -0.000912 0.998630 0.052316
  outer loop
   vertex -35.644665 80.304443 574.218628
   vertex -34.483356 80.312759 574.080139
   vertex -35.641895 80.312759 574.059937
  endloop
 facet normal 0.999848 0.000004 0.017452
  outer loop
   vertex -15.233508 80.146080 576.008850
   vertex -15.229350 80.142960 575.770630
   vertex -15.232468 80.232430 575.949219
  endloop
 facet normal 0.999848 -0.000001 0.017455
  outer loop
   vertex -15.232468 80.232430 575.949219
   vertex -15.229350 80.142960 575.770630
   vertex -15.229696 80.240746 575.790466
  endloop
 facet normal -0.000915 0.998631 0.052296
  outer loop
   vertex -15.229696 80.240746 575.790466
   vertex -16.391006 80.232430 575.928955
   vertex -15.232468 80.232430 575.949219
  endloop
 facet normal 0.999848 0.000010 0.017450
  outer loop
   vertex -34.507339 80.240753 575.453979
   vertex -34.510109 80.232430 575.612671
   vertex -34.506992 80.142960 575.434143
  endloop
 facet normal 0.999848 -0.000004 0.017456
  outer loop
   vertex -34.506992 80.142960 575.434143
   vertex -34.510109 80.232430 575.612671
   vertex -34.511150 80.146080 575.672302
  endloop
 facet normal 0.999848 0.000003 0.017456
  outer loop
   vertex -34.511150 80.146080 575.672302
   vertex -34.510380 79.305603 575.628296
   vertex -34.506992 80.142960 575.434143
  endloop
 facet normal -0.017464 -0.052295 0.998479
  outer loop
   vertex -35.668919 79.305603 575.608032
   vertex -34.510380 79.305603 575.628296
   vertex -34.511150 80.146080 575.672302
  endloop
 facet normal 0.013484 0.634973 -0.772417
  outer loop
   vertex -15.641893 80.178169 575.846985
   vertex -15.640283 80.065948 575.754761
   vertex -35.254295 80.065948 575.412354
  endloop
 facet normal -0.000914 0.998629 0.052331
  outer loop
   vertex -35.254295 80.065948 575.412354
   vertex -15.640283 80.065948 575.754761
   vertex -15.619747 80.127617 574.578308
  endloop
 facet normal -0.000913 0.998629 0.052334
  outer loop
   vertex -15.619747 80.127617 574.578308
   vertex -35.233757 80.127617 574.235962
   vertex -35.254295 80.065948 575.412354
  endloop
 facet normal -0.014565 0.550874 0.834461
  outer loop
   vertex -35.232361 80.248863 574.155945
   vertex -35.233757 80.127617 574.235962
   vertex -15.619747 80.127617 574.578308
  endloop
 facet normal 0.017464 0.052367 -0.998475
  outer loop
   vertex -15.203753 79.392639 574.304321
   vertex -16.362293 79.392639 574.284058
   vertex -16.363062 80.233116 574.328125
  endloop
 facet normal -0.999848 0.000001 -0.017452
  outer loop
   vertex -16.363062 80.233116 574.328125
   vertex -16.362293 79.392639 574.284058
   vertex -16.367191 80.205116 574.564697
  endloop
 facet normal -0.999848 0.000001 -0.017452
  outer loop
   vertex -16.367191 80.205116 574.564697
   vertex -16.364254 80.312759 574.396423
   vertex -16.363062 80.233116 574.328125
  endloop
 facet normal -0.999848 -0.000003 -0.017455
  outer loop
   vertex -16.367025 80.304443 574.555176
   vertex -16.364254 80.312759 574.396423
   vertex -16.367191 80.205116 574.564697
  endloop
 facet normal 0.007107 -0.913308 -0.407208
  outer loop
   vertex -15.616882 80.097855 574.414185
   vertex -35.230892 80.097855 574.071838
   vertex -15.616310 80.112473 574.381409
  endloop
 facet normal 0.007107 -0.913308 -0.407208
  outer loop
   vertex -15.616310 80.112473 574.381409
   vertex -35.230892 80.097855 574.071838
   vertex -35.230320 80.112473 574.039062
  endloop
 facet normal 0.017428 0.052328 -0.998478
  outer loop
   vertex -35.230320 80.112473 574.039062
   vertex -15.616440 80.254601 574.388855
   vertex -15.616310 80.112473 574.381409
  endloop
 facet normal 0.017428 0.052328 -0.998478
  outer loop
   vertex -35.230450 80.254601 574.046509
   vertex -15.616440 80.254601 574.388855
   vertex -35.230320 80.112473 574.039062
  endloop
 facet normal -0.000914 0.998629 0.052338
  outer loop
   vertex -35.232361 80.248863 574.155945
   vertex -15.616440 80.254601 574.388855
   vertex -35.230450 80.254601 574.046509
  endloop
 facet normal -0.000915 0.998629 0.052331
  outer loop
   vertex -13.806535 79.028503 574.584045
   vertex -15.473878 78.970146 575.668518
   vertex -13.825968 78.970146 575.697327
  endloop
 facet normal -0.017455 -0.052367 0.998475
  outer loop
   vertex -13.825968 78.970146 575.697327
   vertex -15.473878 78.970146 575.668518
   vertex -13.824560 77.431213 575.616638
  endloop
 facet normal 0.999848 -0.000001 0.017454
  outer loop
   vertex -13.824560 77.431213 575.616638
   vertex -13.805127 77.489563 574.503418
   vertex -13.825968 78.970146 575.697327
  endloop
 facet normal 0.000913 -0.998630 -0.052327
  outer loop
   vertex -15.472470 77.431213 575.587891
   vertex -13.805127 77.489563 574.503418
   vertex -13.824560 77.431213 575.616638
  endloop
 facet normal 0.000913 -0.998630 -0.052327
  outer loop
   vertex -15.453037 77.489563 574.474670
   vertex -13.805127 77.489563 574.503418
   vertex -15.472470 77.431213 575.587891
  endloop
 facet normal -0.999848 -0.000000 -0.017454
  outer loop
   vertex -15.472470 77.431213 575.587891
   vertex -15.473878 78.970146 575.668518
   vertex -15.453037 77.489563 574.474670
  endloop
 facet normal -0.999848 -0.000000 -0.017454
  outer loop
   vertex -15.453037 77.489563 574.474670
   vertex -15.473878 78.970146 575.668518
   vertex -15.454445 79.028503 574.555298
  endloop
 facet normal -0.000913 0.998629 0.052334
  outer loop
   vertex -15.454445 79.028503 574.555298
   vertex -15.473878 78.970146 575.668518
   vertex -13.806535 79.028503 574.584045
  endloop
 facet normal 0.017418 0.052328 -0.998478
  outer loop
   vertex -13.806535 79.028503 574.584045
   vertex -13.805127 77.489563 574.503418
   vertex -15.454445 79.028503 574.555298
  endloop
 facet normal 0.999848 0.000000 0.017453
  outer loop
   vertex -13.825968 78.970146 575.697327
   vertex -13.805127 77.489563 574.503418
   vertex -13.806535 79.028503 574.584045
  endloop
 facet normal 0.017418 0.052367 -0.998476
  outer loop
   vertex -37.046066 79.028503 574.178406
   vertex -35.398155 79.028503 574.207153
   vertex -37.044659 77.489563 574.097717
  endloop
 facet normal 0.017455 0.052328 -0.998477
  outer loop
   vertex -37.044659 77.489563 574.097717
   vertex -35.398155 79.028503 574.207153
   vertex -35.396748 77.489563 574.126526
  endloop
 facet normal 0.000915 -0.998630 -0.052324
  outer loop
   vertex -35.396748 77.489563 574.126526
   vertex -37.064091 77.431213 575.210999
   vertex -37.044659 77.489563 574.097717
  endloop
 facet normal 0.000913 -0.998630 -0.052327
  outer loop
   vertex -35.416180 77.431213 575.239746
   vertex -37.064091 77.431213 575.210999
   vertex -35.396748 77.489563 574.126526
  endloop
 facet normal -0.017418 -0.052328 0.998478
  outer loop
   vertex -35.417587 78.970146 575.320374
   vertex -37.064091 77.431213 575.210999
   vertex -35.416180 77.431213 575.239746
  endloop
 facet normal 0.999848 0.000000 0.017453
  outer loop
   vertex -35.416180 77.431213 575.239746
   vertex -35.398155 79.028503 574.207153
   vertex -35.417587 78.970146 575.320374
  endloop
 facet normal -0.000913 0.998629 0.052334
  outer loop
   vertex -35.417587 78.970146 575.320374
   vertex -35.398155 79.028503 574.207153
   vertex -37.065498 78.970146 575.291626
  endloop
 facet normal -0.000913 0.998629 0.052334
  outer loop
   vertex -37.065498 78.970146 575.291626
   vertex -35.398155 79.028503 574.207153
   vertex -37.046066 79.028503 574.178406
  endloop
 facet normal -0.999848 -0.000000 -0.017453
  outer loop
   vertex -37.046066 79.028503 574.178406
   vertex -37.064091 77.431213 575.210999
   vertex -37.065498 78.970146 575.291626
  endloop
 facet normal -0.999848 0.000001 -0.017452
  outer loop
   vertex -37.044659 77.489563 574.097717
   vertex -37.064091 77.431213 575.210999
   vertex -37.046066 79.028503 574.178406
  endloop
 facet normal 0.000913 -0.998630 -0.052327
  outer loop
   vertex -12.380738 78.372086 575.383240
   vertex -12.730685 78.372086 575.377136
   vertex -12.721971 78.398254 574.877869
  endloop
 facet normal -0.000913 0.998630 0.052327
  outer loop
   vertex -12.721971 78.398254 574.877869
   vertex -12.730685 78.372086 575.377136
   vertex -12.551354 78.385170 575.130554
  endloop
 facet normal -0.000922 0.998629 0.052333
  outer loop
   vertex -12.551354 78.385170 575.130554
   vertex -12.372023 78.398254 574.884033
   vertex -12.721971 78.398254 574.877869
  endloop
 facet normal -0.000922 0.998629 0.052333
  outer loop
   vertex -12.380738 78.372086 575.383240
   vertex -12.372023 78.398254 574.884033
   vertex -12.551354 78.385170 575.130554
  endloop
 facet normal 0.999848 -0.000002 0.017456
  outer loop
   vertex -12.371110 77.399628 574.831665
   vertex -12.372023 78.398254 574.884033
   vertex -12.380738 78.372086 575.383240
  endloop
 facet normal 0.999848 0.000001 0.017452
  outer loop
   vertex -12.380738 78.372086 575.383240
   vertex -12.379825 77.373459 575.330933
   vertex -12.371110 77.399628 574.831665
  endloop
 facet normal 0.000913 -0.998630 -0.052327
  outer loop
   vertex -12.371110 77.399628 574.831665
   vertex -12.379825 77.373459 575.330933
   vertex -14.070851 77.399628 574.802002
  endloop
 facet normal 0.000913 -0.998630 -0.052327
  outer loop
   vertex -14.070851 77.399628 574.802002
   vertex -12.379825 77.373459 575.330933
   vertex -14.079566 77.373459 575.301270
  endloop
 facet normal -0.999848 -0.000001 -0.017452
  outer loop
   vertex -14.079566 77.373459 575.301270
   vertex -14.080480 78.372086 575.353577
   vertex -14.070851 77.399628 574.802002
  endloop
 facet normal -0.017431 -0.052315 0.998478
  outer loop
   vertex -13.663327 78.122429 575.347778
   vertex -14.080480 78.372086 575.353577
   vertex -14.079566 77.373459 575.301270
  endloop
 facet normal -0.017415 -0.052288 0.998480
  outer loop
   vertex -13.730533 78.372086 575.359680
   vertex -14.080480 78.372086 575.353577
   vertex -13.663327 78.122429 575.347778
  endloop
 facet normal 0.017467 0.052376 -0.998475
  outer loop
   vertex -37.207127 78.148598 574.437378
   vertex -36.790432 78.398254 574.457764
   vertex -36.789516 77.399628 574.405396
  endloop
 facet normal 0.999848 0.000001 0.017456
  outer loop
   vertex -36.789516 77.399628 574.405396
   vertex -36.790432 78.398254 574.457764
   vertex -36.798233 77.373459 574.904663
  endloop
 facet normal 0.000913 -0.998630 -0.052327
  outer loop
   vertex -36.798233 77.373459 574.904663
   vertex -38.489258 77.399628 574.375732
   vertex -36.789516 77.399628 574.405396
  endloop
 facet normal 0.000913 -0.998630 -0.052327
  outer loop
   vertex -38.497974 77.373459 574.875000
   vertex -38.489258 77.399628 574.375732
   vertex -36.798233 77.373459 574.904663
  endloop
 facet normal -0.999848 -0.000001 -0.017456
  outer loop
   vertex -38.490173 78.398254 574.428101
   vertex -38.489258 77.399628 574.375732
   vertex -38.497974 77.373459 574.875000
  endloop
 facet normal -0.999848 0.000001 -0.017451
  outer loop
   vertex -38.497974 77.373459 574.875000
   vertex -38.498886 78.372093 574.927307
   vertex -38.490173 78.398254 574.428101
  endloop
 facet normal -0.000882 0.998630 0.052318
  outer loop
   vertex -38.490173 78.398254 574.428101
   vertex -38.498886 78.372093 574.927307
   vertex -38.319557 78.385170 574.680725
  endloop
 facet normal -0.000912 0.998631 0.052296
  outer loop
   vertex -38.319557 78.385170 574.680725
   vertex -38.498886 78.372093 574.927307
   vertex -38.148941 78.372093 574.933411
  endloop
 facet normal -0.000943 0.998630 0.052317
  outer loop
   vertex -38.148941 78.372093 574.933411
   vertex -38.140224 78.398254 574.434204
   vertex -38.319557 78.385170 574.680725
  endloop
 facet normal 0.000912 -0.998630 -0.052318
  outer loop
   vertex -38.490173 78.398254 574.428101
   vertex -38.140224 78.398254 574.434204
   vertex -38.148941 78.372093 574.933411
  endloop
 facet normal -0.000913 0.998629 0.052339
  outer loop
   vertex -38.319557 78.385170 574.680725
   vertex -38.140224 78.398254 574.434204
   vertex -38.490173 78.398254 574.428101
  endloop
 facet normal -0.000914 0.998629 0.052338
  outer loop
   vertex -35.255905 80.178169 575.504639
   vertex -35.257816 80.172432 575.614075
   vertex -15.643804 80.172432 575.956482
  endloop
 facet normal -0.017431 -0.052328 0.998478
  outer loop
   vertex -15.643804 80.172432 575.956482
   vertex -35.257816 80.172432 575.614075
   vertex -35.257687 80.030304 575.606628
  endloop
 facet normal -0.017431 -0.052328 0.998478
  outer loop
   vertex -35.257687 80.030304 575.606628
   vertex -15.643674 80.030304 575.949036
   vertex -15.643804 80.172432 575.956482
  endloop
 facet normal -0.005403 -0.950885 0.309496
  outer loop
   vertex -35.257088 80.019196 575.572510
   vertex -15.643674 80.030304 575.949036
   vertex -35.257687 80.030304 575.606628
  endloop
 facet normal -0.005393 -0.951048 0.308997
  outer loop
   vertex -15.643078 80.019196 575.914856
   vertex -15.643674 80.030304 575.949036
   vertex -35.257088 80.019196 575.572510
  endloop
 facet normal -0.017428 -0.052336 0.998477
  outer loop
   vertex -35.257088 80.019196 575.572510
   vertex -35.256527 79.406509 575.540405
   vertex -15.643078 80.019196 575.914856
  endloop
 facet normal -0.017428 -0.052335 0.998477
  outer loop
   vertex -15.643078 80.019196 575.914856
   vertex -35.256527 79.406509 575.540405
   vertex -15.642517 79.406502 575.882751
  endloop
 facet normal -0.007107 0.913308 0.407207
  outer loop
   vertex -15.642517 79.406502 575.882751
   vertex -35.256527 79.406509 575.540405
   vertex -35.257103 79.391891 575.573181
  endloop
 facet normal -0.007107 0.913308 0.407208
  outer loop
   vertex -35.257103 79.391891 575.573181
   vertex -15.643090 79.391884 575.915527
   vertex -15.642517 79.406502 575.882751
  endloop
 facet normal -0.017427 -0.052726 0.998457
  outer loop
   vertex -35.257038 79.321365 575.569458
   vertex -15.643090 79.391884 575.915527
   vertex -35.257103 79.391891 575.573181
  endloop
 facet normal -0.017431 -0.051869 0.998502
  outer loop
   vertex -15.643025 79.321365 575.911865
   vertex -15.643090 79.391884 575.915527
   vertex -35.257038 79.321365 575.569458
  endloop
 facet normal 0.000914 -0.998629 -0.052330
  outer loop
   vertex -35.257038 79.321365 575.569458
   vertex -35.229671 79.403534 574.001892
   vertex -15.643025 79.321365 575.911865
  endloop
 facet normal 0.000914 -0.998629 -0.052330
  outer loop
   vertex -15.643025 79.321365 575.911865
   vertex -35.229671 79.403534 574.001892
   vertex -15.615662 79.403534 574.344299
  endloop
 facet normal 0.017431 0.051869 -0.998502
  outer loop
   vertex -15.615662 79.403534 574.344299
   vertex -35.229671 79.403534 574.001892
   vertex -15.615726 79.474052 574.347961
  endloop
 facet normal 0.017431 0.052315 -0.998478
  outer loop
   vertex -13.654613 78.148598 574.848511
   vertex -14.070851 77.399628 574.802002
   vertex -14.071765 78.398254 574.854309
  endloop
 facet normal -0.999848 -0.000001 -0.017452
  outer loop
   vertex -14.071765 78.398254 574.854309
   vertex -14.070851 77.399628 574.802002
   vertex -14.080480 78.372086 575.353577
  endloop
 facet normal -0.000913 0.998630 0.052327
  outer loop
   vertex -14.080480 78.372086 575.353577
   vertex -13.721818 78.398254 574.860413
   vertex -14.071765 78.398254 574.854309
  endloop
 facet normal -0.000913 0.998630 0.052327
  outer loop
   vertex -13.730533 78.372086 575.359680
   vertex -13.721818 78.398254 574.860413
   vertex -14.080480 78.372086 575.353577
  endloop
 facet normal 0.000913 -0.998630 -0.052327
  outer loop
   vertex -14.080480 78.372086 575.353577
   vertex -13.721818 78.398254 574.860413
   vertex -13.730533 78.372086 575.359680
  endloop
 facet normal -0.017415 -0.052221 0.998484
  outer loop
   vertex -13.730533 78.372086 575.359680
   vertex -13.663784 78.621742 575.373901
   vertex -14.080480 78.372086 575.353577
  endloop
 facet normal -0.017323 -0.052373 0.998477
  outer loop
   vertex -14.080480 78.372086 575.353577
   vertex -13.663784 78.621742 575.373901
   vertex -13.967006 78.796509 575.377808
  endloop
 facet normal -0.017441 -0.052577 0.998465
  outer loop
   vertex -13.967006 78.796509 575.377808
   vertex -13.663784 78.621742 575.373901
   vertex -13.480967 78.804504 575.386719
  endloop
 facet normal -0.017445 -0.052379 0.998475
  outer loop
   vertex -13.480967 78.804504 575.386719
   vertex -13.656216 79.107201 575.399536
   vertex -13.967006 78.796509 575.377808
  endloop
 facet normal -0.017438 -0.052376 0.998475
  outer loop
   vertex -13.231066 78.871399 575.394592
   vertex -13.656216 79.107201 575.399536
   vertex -13.480967 78.804504 575.386719
  endloop
 facet normal -0.017409 -0.052323 0.998478
  outer loop
   vertex -13.231385 79.220924 575.412903
   vertex -13.656216 79.107201 575.399536
   vertex -13.231066 78.871399 575.394592
  endloop
 facet normal -0.017412 -0.052323 0.998478
  outer loop
   vertex -13.231066 78.871399 575.394592
   vertex -12.981042 78.804504 575.395447
   vertex -13.231385 79.220924 575.412903
  endloop
 facet normal -0.017446 -0.052344 0.998477
  outer loop
   vertex -13.231385 79.220924 575.412903
   vertex -12.981042 78.804504 575.395447
   vertex -12.806345 79.107201 575.414368
  endloop
 facet normal -0.017350 -0.052399 0.998475
  outer loop
   vertex -12.806345 79.107201 575.414368
   vertex -12.981042 78.804504 575.395447
   vertex -12.797890 78.621742 575.389038
  endloop
 facet normal -0.017449 -0.052401 0.998474
  outer loop
   vertex -12.797890 78.621742 575.389038
   vertex -12.494987 78.796509 575.403503
   vertex -12.806345 79.107201 575.414368
  endloop
 facet normal -0.017501 -0.052311 0.998477
  outer loop
   vertex -12.730685 78.372086 575.377136
   vertex -12.494987 78.796509 575.403503
   vertex -12.797890 78.621742 575.389038
  endloop
 facet normal -0.017415 -0.052359 0.998476
  outer loop
   vertex -12.380738 78.372086 575.383240
   vertex -12.494987 78.796509 575.403503
   vertex -12.730685 78.372086 575.377136
  endloop
 facet normal -0.017415 -0.052464 0.998471
  outer loop
   vertex -12.730685 78.372086 575.377136
   vertex -12.797433 78.122429 575.362854
   vertex -12.380738 78.372086 575.383240
  endloop
 facet normal -0.017504 -0.052315 0.998477
  outer loop
   vertex -12.380738 78.372086 575.383240
   vertex -12.797433 78.122429 575.362854
   vertex -12.379825 77.373459 575.330933
  endloop
 facet normal -0.017418 -0.052268 0.998481
  outer loop
   vertex -12.379825 77.373459 575.330933
   vertex -12.797433 78.122429 575.362854
   vertex -12.980251 77.939667 575.350098
  endloop
 facet normal -0.017457 -0.052308 0.998478
  outer loop
   vertex -12.980251 77.939667 575.350098
   vertex -13.230152 77.872772 575.342224
   vertex -12.379825 77.373459 575.330933
  endloop
 facet normal -0.017358 -0.052315 0.998480
  outer loop
   vertex -37.215839 78.122429 574.936646
   vertex -36.798233 77.373459 574.904663
   vertex -36.799145 78.372086 574.956970
  endloop
 facet normal 0.999848 -0.000001 0.017451
  outer loop
   vertex -36.799145 78.372086 574.956970
   vertex -36.798233 77.373459 574.904663
   vertex -36.790432 78.398254 574.457764
  endloop
 facet normal -0.000913 0.998629 0.052333
  outer loop
   vertex -36.790432 78.398254 574.457764
   vertex -37.149094 78.372086 574.950867
   vertex -36.799145 78.372086 574.956970
  endloop
 facet normal -0.000913 0.998629 0.052333
  outer loop
   vertex -37.140377 78.398254 574.451660
   vertex -37.149094 78.372086 574.950867
   vertex -36.790432 78.398254 574.457764
  endloop
 facet normal 0.000913 -0.998629 -0.052333
  outer loop
   vertex -36.790432 78.398254 574.457764
   vertex -37.149094 78.372086 574.950867
   vertex -37.140377 78.398254 574.451660
  endloop
 facet normal 0.017415 0.052287 -0.998480
  outer loop
   vertex -37.140377 78.398254 574.451660
   vertex -37.207584 78.647919 574.463562
   vertex -36.790432 78.398254 574.457764
  endloop
 facet normal 0.017466 0.052373 -0.998475
  outer loop
   vertex -36.790432 78.398254 574.457764
   vertex -37.207584 78.647919 574.463562
   vertex -36.904682 78.822678 574.478027
  endloop
 facet normal 0.017536 0.052253 -0.998480
  outer loop
   vertex -36.904682 78.822678 574.478027
   vertex -37.207584 78.647919 574.463562
   vertex -37.390736 78.830681 574.469910
  endloop
 facet normal 0.017537 0.052293 -0.998478
  outer loop
   vertex -37.390736 78.830681 574.469910
   vertex -37.216038 79.133369 574.488831
   vertex -36.904682 78.822678 574.478027
  endloop
 facet normal 0.017421 0.052359 -0.998476
  outer loop
   vertex -37.640759 78.897575 574.469055
   vertex -37.216038 79.133369 574.488831
   vertex -37.390736 78.830681 574.469910
  endloop
 facet normal 0.017344 0.052498 -0.998470
  outer loop
   vertex -37.641079 79.247093 574.487427
   vertex -37.216038 79.133369 574.488831
   vertex -37.640759 78.897575 574.469055
  endloop
 facet normal 0.017162 0.052498 -0.998474
  outer loop
   vertex -37.640759 78.897575 574.469055
   vertex -37.890659 78.830681 574.461243
   vertex -37.641079 79.247093 574.487427
  endloop
 facet normal 0.017571 0.052253 -0.998479
  outer loop
   vertex -37.641079 79.247093 574.487427
   vertex -37.890659 78.830681 574.461243
   vertex -38.065910 79.133369 574.473999
  endloop
 facet normal 0.017695 0.052324 -0.998473
  outer loop
   vertex -38.065910 79.133369 574.473999
   vertex -37.890659 78.830681 574.461243
   vertex -38.073479 78.647919 574.448425
  endloop
 facet normal 0.017297 0.052331 -0.998480
  outer loop
   vertex -38.073479 78.647919 574.448425
   vertex -38.376701 78.822678 574.452332
   vertex -38.065910 79.133369 574.473999
  endloop
 facet normal 0.017257 0.052261 -0.998484
  outer loop
   vertex -38.140224 78.398254 574.434204
   vertex -38.376701 78.822678 574.452332
   vertex -38.073479 78.647919 574.448425
  endloop
 facet normal 0.017415 0.052349 -0.998477
  outer loop
   vertex -38.490173 78.398254 574.428101
   vertex -38.376701 78.822678 574.452332
   vertex -38.140224 78.398254 574.434204
  endloop
 facet normal 0.017415 0.052288 -0.998480
  outer loop
   vertex -38.140224 78.398254 574.434204
   vertex -38.073021 78.148598 574.422302
   vertex -38.490173 78.398254 574.428101
  endloop
 facet normal 0.017467 0.052376 -0.998475
  outer loop
   vertex -38.490173 78.398254 574.428101
   vertex -38.073021 78.148598 574.422302
   vertex -38.489258 77.399628 574.375732
  endloop
 facet normal 0.017377 0.052426 -0.998474
  outer loop
   vertex -38.489258 77.399628 574.375732
   vertex -38.073021 78.148598 574.422302
   vertex -37.889870 77.965836 574.415894
  endloop
 facet normal 0.017425 0.052375 -0.998475
  outer loop
   vertex -37.889870 77.965836 574.415894
   vertex -37.639843 77.898941 574.416748
   vertex -38.489258 77.399628 574.375732
  endloop
 facet normal -0.015131 -0.501369 0.865101
  outer loop
   vertex -35.668919 79.305603 575.608032
   vertex -35.664089 78.828171 575.331421
   vertex -34.510380 79.305603 575.628296
  endloop
 facet normal -0.015085 -0.501452 0.865054
  outer loop
   vertex -34.510380 79.305603 575.628296
   vertex -35.664089 78.828171 575.331421
   vertex -34.505550 78.828171 575.351624
  endloop
 facet normal 0.999848 -0.000001 0.017454
  outer loop
   vertex -34.505550 78.828171 575.351624
   vertex -34.485325 78.888901 574.192993
   vertex -34.510380 79.305603 575.628296
  endloop
 facet normal 0.000912 -0.998630 -0.052328
  outer loop
   vertex -35.664089 78.828171 575.331421
   vertex -34.485325 78.888901 574.192993
   vertex -34.505550 78.828171 575.351624
  endloop
 facet normal 0.000912 -0.998630 -0.052328
  outer loop
   vertex -35.643864 78.888901 574.172791
   vertex -34.485325 78.888901 574.192993
   vertex -35.664089 78.828171 575.331421
  endloop
 facet normal -0.999848 -0.000005 -0.017454
  outer loop
   vertex -35.664089 78.828171 575.331421
   vertex -35.639935 79.392639 573.947571
   vertex -35.643864 78.888901 574.172791
  endloop
 facet normal 0.015917 -0.408211 -0.912749
  outer loop
   vertex -35.643864 78.888901 574.172791
   vertex -35.639935 79.392639 573.947571
   vertex -34.485325 78.888901 574.192993
  endloop
 facet normal 0.015917 -0.408211 -0.912749
  outer loop
   vertex -34.485325 78.888901 574.192993
   vertex -35.639935 79.392639 573.947571
   vertex -34.481396 79.392639 573.967773
  endloop
 facet normal 0.999848 0.000004 0.017452
  outer loop
   vertex -34.481396 79.392639 573.967773
   vertex -34.510380 79.305603 575.628296
   vertex -34.485325 78.888901 574.192993
  endloop
 facet normal 0.999848 -0.000001 0.017452
  outer loop
   vertex -34.486294 80.205116 574.248413
   vertex -34.510380 79.305603 575.628296
   vertex -34.481396 79.392639 573.967773
  endloop
 facet normal 0.999848 0.000002 0.017454
  outer loop
   vertex -34.506992 80.142960 575.434143
   vertex -34.510380 79.305603 575.628296
   vertex -34.486294 80.205116 574.248413
  endloop
 facet normal -0.000915 0.998629 0.052333
  outer loop
   vertex -34.486294 80.205116 574.248413
   vertex -35.665531 80.142960 575.413879
   vertex -34.506992 80.142960 575.434143
  endloop
 facet normal 0.017139 0.198821 -0.979886
  outer loop
   vertex -34.506992 80.142960 575.434143
   vertex -35.665531 80.142960 575.413879
   vertex -34.507339 80.240753 575.453979
  endloop
 facet normal 0.017139 0.198821 -0.979886
  outer loop
   vertex -34.507339 80.240753 575.453979
   vertex -35.665531 80.142960 575.413879
   vertex -35.665878 80.240753 575.433716
  endloop
 facet normal -0.000916 0.998628 0.052364
  outer loop
   vertex -35.665878 80.240753 575.433716
   vertex -34.510109 80.232430 575.612671
   vertex -34.507339 80.240753 575.453979
  endloop
 facet normal -0.000913 0.998629 0.052344
  outer loop
   vertex -35.668648 80.232430 575.592468
   vertex -34.510109 80.232430 575.612671
   vertex -35.665878 80.240753 575.433716
  endloop
 facet normal -0.014346 0.568308 0.822691
  outer loop
   vertex -35.669689 80.146080 575.652100
   vertex -34.510109 80.232430 575.612671
   vertex -35.668648 80.232430 575.592468
  endloop
 facet normal -0.999848 0.000007 -0.017452
  outer loop
   vertex -35.668648 80.232430 575.592468
   vertex -35.665531 80.142960 575.413879
   vertex -35.669689 80.146080 575.652100
  endloop
 facet normal -0.999848 -0.000002 -0.017452
  outer loop
   vertex -35.669689 80.146080 575.652100
   vertex -35.665531 80.142960 575.413879
   vertex -35.668919 79.305603 575.608032
  endloop
 facet normal -0.999848 -0.000002 -0.017454
  outer loop
   vertex -35.668919 79.305603 575.608032
   vertex -35.665531 80.142960 575.413879
   vertex -35.644833 80.205116 574.228149
  endloop
 facet normal -0.999848 -0.000001 -0.017453
  outer loop
   vertex -35.644833 80.205116 574.228149
   vertex -35.639935 79.392639 573.947571
   vertex -35.668919 79.305603 575.608032
  endloop
 facet normal -0.999848 0.000002 -0.017460
  outer loop
   vertex -35.640701 80.233116 573.991577
   vertex -35.639935 79.392639 573.947571
   vertex -35.644833 80.205116 574.228149
  endloop
 facet normal 0.017412 0.052295 -0.998480
  outer loop
   vertex -34.481396 79.392639 573.967773
   vertex -35.639935 79.392639 573.947571
   vertex -35.640701 80.233116 573.991577
  endloop
 facet normal 0.017464 0.052367 -0.998475
  outer loop
   vertex -35.640701 80.233116 573.991577
   vertex -34.482162 80.233116 574.011841
   vertex -34.481396 79.392639 573.967773
  endloop
 facet normal 0.999848 -0.000003 0.017460
  outer loop
   vertex -34.481396 79.392639 573.967773
   vertex -34.482162 80.233116 574.011841
   vertex -34.486294 80.205116 574.248413
  endloop
 facet normal 0.999848 0.000015 0.017462
  outer loop
   vertex -34.486294 80.205116 574.248413
   vertex -34.482162 80.233116 574.011841
   vertex -34.483356 80.312759 574.080139
  endloop
 facet normal 0.999848 -0.000018 0.017442
  outer loop
   vertex -34.483356 80.312759 574.080139
   vertex -34.486126 80.304443 574.238892
   vertex -34.486294 80.205116 574.248413
  endloop
 facet normal -0.000915 0.998631 0.052296
  outer loop
   vertex -35.644665 80.304443 574.218628
   vertex -34.486126 80.304443 574.238892
   vertex -34.483356 80.312759 574.080139
  endloop
 facet normal -0.017408 0.095437 0.995283
  outer loop
   vertex -34.486294 80.205116 574.248413
   vertex -34.486126 80.304443 574.238892
   vertex -35.644665 80.304443 574.218628
  endloop
 facet normal -0.017408 0.095437 0.995283
  outer loop
   vertex -35.644665 80.304443 574.218628
   vertex -35.644833 80.205116 574.228149
   vertex -34.486294 80.205116 574.248413
  endloop
 facet normal -0.000915 0.998629 0.052333
  outer loop
   vertex -34.486294 80.205116 574.248413
   vertex -35.644833 80.205116 574.228149
   vertex -35.665531 80.142960 575.413879
  endloop
 facet normal 0.015965 -0.408119 -0.912789
  outer loop
   vertex -15.203753 79.392639 574.304321
   vertex -15.207685 78.888901 574.529480
   vertex -16.362293 79.392639 574.284058
  endloop
 facet normal 0.015917 -0.408211 -0.912749
  outer loop
   vertex -16.362293 79.392639 574.284058
   vertex -15.207685 78.888901 574.529480
   vertex -16.366224 78.888901 574.509277
  endloop
 facet normal -0.999848 -0.000001 -0.017453
  outer loop
   vertex -16.366224 78.888901 574.509277
   vertex -16.386450 78.828171 575.667969
   vertex -16.362293 79.392639 574.284058
  endloop
 facet normal 0.000912 -0.998630 -0.052325
  outer loop
   vertex -15.207685 78.888901 574.529480
   vertex -16.386450 78.828171 575.667969
   vertex -16.366224 78.888901 574.509277
  endloop
 facet normal 0.000912 -0.998630 -0.052325
  outer loop
   vertex -15.227911 78.828171 575.688171
   vertex -16.386450 78.828171 575.667969
   vertex -15.207685 78.888901 574.529480
  endloop
 facet normal 0.999848 0.000000 0.017453
  outer loop
   vertex -15.207685 78.888901 574.529480
   vertex -15.232739 79.305603 575.964783
   vertex -15.227911 78.828171 575.688171
  endloop
 facet normal -0.015086 -0.501369 0.865102
  outer loop
   vertex -15.227911 78.828171 575.688171
   vertex -15.232739 79.305603 575.964783
   vertex -16.386450 78.828171 575.667969
  endloop
 facet normal -0.015086 -0.501369 0.865102
  outer loop
   vertex -16.386450 78.828171 575.667969
   vertex -15.232739 79.305603 575.964783
   vertex -16.391279 79.305603 575.944580
  endloop
 facet normal -0.999848 -0.000002 -0.017453
  outer loop
   vertex -16.391279 79.305603 575.944580
   vertex -16.362293 79.392639 574.284058
   vertex -16.386450 78.828171 575.667969
  endloop
 facet normal -0.999848 0.000000 -0.017453
  outer loop
   vertex -16.387890 80.142960 575.750427
   vertex -16.362293 79.392639 574.284058
   vertex -16.391279 79.305603 575.944580
  endloop
 facet normal -0.999848 0.000001 -0.017454
  outer loop
   vertex -16.367191 80.205116 574.564697
   vertex -16.362293 79.392639 574.284058
   vertex -16.387890 80.142960 575.750427
  endloop
 facet normal -0.000913 0.998629 0.052333
  outer loop
   vertex -16.387890 80.142960 575.750427
   vertex -15.208652 80.205116 574.584900
   vertex -16.367191 80.205116 574.564697
  endloop
 facet normal -0.017356 0.095437 0.995284
  outer loop
   vertex -16.367191 80.205116 574.564697
   vertex -15.208652 80.205116 574.584900
   vertex -16.367025 80.304443 574.555176
  endloop
 facet normal -0.017356 0.095437 0.995284
  outer loop
   vertex -16.367025 80.304443 574.555176
   vertex -15.208652 80.205116 574.584900
   vertex -15.208486 80.304443 574.575378
  endloop
 facet normal -0.000912 0.998631 0.052296
  outer loop
   vertex -15.208486 80.304443 574.575378
   vertex -16.364254 80.312759 574.396423
   vertex -16.367025 80.304443 574.555176
  endloop
 facet normal -0.000915 0.998630 0.052316
  outer loop
   vertex -15.205715 80.312759 574.416687
   vertex -16.364254 80.312759 574.396423
   vertex -15.208486 80.304443 574.575378
  endloop
 facet normal 0.013269 0.651363 -0.758650
  outer loop
   vertex -15.204522 80.233116 574.348328
   vertex -16.364254 80.312759 574.396423
   vertex -15.205715 80.312759 574.416687
  endloop
 facet normal 0.999848 -0.000005 0.017456
  outer loop
   vertex -15.205715 80.312759 574.416687
   vertex -15.208652 80.205116 574.584900
   vertex -15.204522 80.233116 574.348328
  endloop
 facet normal 0.999848 0.000000 0.017457
  outer loop
   vertex -15.204522 80.233116 574.348328
   vertex -15.208652 80.205116 574.584900
   vertex -15.203753 79.392639 574.304321
  endloop
 facet normal 0.999848 0.000002 0.017453
  outer loop
   vertex -15.203753 79.392639 574.304321
   vertex -15.208652 80.205116 574.584900
   vertex -15.229350 80.142960 575.770630
  endloop
 facet normal 0.999848 -0.000000 0.017454
  outer loop
   vertex -15.229350 80.142960 575.770630
   vertex -15.232739 79.305603 575.964783
   vertex -15.203753 79.392639 574.304321
  endloop
 facet normal 0.999848 -0.000001 0.017452
  outer loop
   vertex -15.233508 80.146080 576.008850
   vertex -15.232739 79.305603 575.964783
   vertex -15.229350 80.142960 575.770630
  endloop
 facet normal -0.017411 -0.052367 0.998476
  outer loop
   vertex -16.391279 79.305603 575.944580
   vertex -15.232739 79.305603 575.964783
   vertex -15.233508 80.146080 576.008850
  endloop
 facet normal -0.017464 -0.052295 0.998479
  outer loop
   vertex -15.233508 80.146080 576.008850
   vertex -16.392048 80.146080 575.988586
   vertex -16.391279 79.305603 575.944580
  endloop
 facet normal -0.999848 -0.000000 -0.017456
  outer loop
   vertex -16.391279 79.305603 575.944580
   vertex -16.392048 80.146080 575.988586
   vertex -16.387890 80.142960 575.750427
  endloop
 facet normal -0.999848 0.000004 -0.017456
  outer loop
   vertex -16.387890 80.142960 575.750427
   vertex -16.392048 80.146080 575.988586
   vertex -16.391006 80.232430 575.928955
  endloop
 facet normal -0.999848 0.000012 -0.017461
  outer loop
   vertex -16.391006 80.232430 575.928955
   vertex -16.388235 80.240746 575.770264
   vertex -16.387890 80.142960 575.750427
  endloop
 facet normal -0.000912 0.998630 0.052316
  outer loop
   vertex -15.229696 80.240746 575.790466
   vertex -16.388235 80.240746 575.770264
   vertex -16.391006 80.232430 575.928955
  endloop
 facet normal 0.017087 0.198835 -0.979884
  outer loop
   vertex -16.387890 80.142960 575.750427
   vertex -16.388235 80.240746 575.770264
   vertex -15.229696 80.240746 575.790466
  endloop
 facet normal 0.017087 0.198835 -0.979884
  outer loop
   vertex -15.229696 80.240746 575.790466
   vertex -15.229350 80.142960 575.770630
   vertex -16.387890 80.142960 575.750427
  endloop
 facet normal -0.000913 0.998629 0.052333
  outer loop
   vertex -16.387890 80.142960 575.750427
   vertex -15.229350 80.142960 575.770630
   vertex -15.208652 80.205116 574.584900
  endloop
 facet normal -0.017415 -0.052287 0.998480
  outer loop
   vertex -37.149094 78.372086 574.950867
   vertex -36.799145 78.372086 574.956970
   vertex -37.216297 78.621750 574.962769
  endloop
 facet normal -0.017466 -0.052373 0.998475
  outer loop
   vertex -37.216297 78.621750 574.962769
   vertex -36.799145 78.372086 574.956970
   vertex -36.913395 78.796509 574.977234
  endloop
 facet normal -0.017414 -0.052463 0.998471
  outer loop
   vertex -36.913395 78.796509 574.977234
   vertex -37.399448 78.804512 574.969177
   vertex -37.216297 78.621750 574.962769
  endloop
 facet normal -0.017413 -0.052365 0.998476
  outer loop
   vertex -37.224754 79.107201 574.988098
   vertex -37.399448 78.804512 574.969177
   vertex -36.913395 78.796509 574.977234
  endloop
 facet normal -0.017421 -0.052360 0.998476
  outer loop
   vertex -37.649471 78.871407 574.968323
   vertex -37.399448 78.804512 574.969177
   vertex -37.224754 79.107201 574.988098
  endloop
 facet normal -0.017441 -0.052324 0.998478
  outer loop
   vertex -37.224754 79.107201 574.988098
   vertex -37.649792 79.220924 574.986633
   vertex -37.649471 78.871407 574.968323
  endloop
 facet normal -0.017452 -0.052324 0.998478
  outer loop
   vertex -37.649471 78.871407 574.968323
   vertex -37.649792 79.220924 574.986633
   vertex -37.899372 78.804512 574.960449
  endloop
 facet normal -0.017400 -0.052355 0.998477
  outer loop
   vertex -37.899372 78.804512 574.960449
   vertex -37.649792 79.220924 574.986633
   vertex -38.074627 79.107201 574.973267
  endloop
 facet normal -0.017356 -0.052330 0.998479
  outer loop
   vertex -38.074627 79.107201 574.973267
   vertex -38.082191 78.621750 574.947693
   vertex -37.899372 78.804512 574.960449
  endloop
 facet normal -0.017497 -0.052327 0.998477
  outer loop
   vertex -38.385414 78.796509 574.951538
   vertex -38.082191 78.621750 574.947693
   vertex -38.074627 79.107201 574.973267
  endloop
 facet normal -0.017554 -0.052427 0.998470
  outer loop
   vertex -38.148941 78.372093 574.933411
   vertex -38.082191 78.621750 574.947693
   vertex -38.385414 78.796509 574.951538
  endloop
 facet normal -0.017415 -0.052350 0.998477
  outer loop
   vertex -38.385414 78.796509 574.951538
   vertex -38.498886 78.372093 574.927307
   vertex -38.148941 78.372093 574.933411
  endloop
 facet normal -0.017415 -0.052287 0.998480
  outer loop
   vertex -38.148941 78.372093 574.933411
   vertex -38.498886 78.372093 574.927307
   vertex -38.081734 78.122429 574.921509
  endloop
 facet normal -0.017432 -0.052315 0.998478
  outer loop
   vertex -38.081734 78.122429 574.921509
   vertex -38.498886 78.372093 574.927307
   vertex -38.497974 77.373459 574.875000
  endloop
 facet normal -0.017539 -0.052255 0.998480
  outer loop
   vertex -38.497974 77.373459 574.875000
   vertex -37.898582 77.939667 574.915161
   vertex -38.081734 78.122429 574.921509
  endloop
 facet normal -0.017426 -0.052375 0.998475
  outer loop
   vertex -37.648560 77.872772 574.916016
   vertex -37.898582 77.939667 574.915161
   vertex -38.497974 77.373459 574.875000
  endloop
 facet normal 0.017415 0.052464 -0.998471
  outer loop
   vertex -13.721818 78.398254 574.860413
   vertex -14.071765 78.398254 574.854309
   vertex -13.655069 78.647911 574.874695
  endloop
 facet normal 0.017497 0.052326 -0.998477
  outer loop
   vertex -13.655069 78.647911 574.874695
   vertex -14.071765 78.398254 574.854309
   vertex -13.958291 78.822678 574.878540
  endloop
 facet normal 0.017447 0.052239 -0.998482
  outer loop
   vertex -13.958291 78.822678 574.878540
   vertex -13.472251 78.830673 574.887451
   vertex -13.655069 78.647911 574.874695
  endloop
 facet normal 0.017445 0.052379 -0.998475
  outer loop
   vertex -13.647501 79.133369 574.900269
   vertex -13.472251 78.830673 574.887451
   vertex -13.958291 78.822678 574.878540
  endloop
 facet normal 0.017439 0.052376 -0.998475
  outer loop
   vertex -13.222351 78.897568 574.895325
   vertex -13.472251 78.830673 574.887451
   vertex -13.647501 79.133369 574.900269
  endloop
 facet normal 0.017409 0.052323 -0.998478
  outer loop
   vertex -13.647501 79.133369 574.900269
   vertex -13.222671 79.247093 574.913635
   vertex -13.222351 78.897568 574.895325
  endloop
 facet normal 0.017412 0.052323 -0.998478
  outer loop
   vertex -13.222351 78.897568 574.895325
   vertex -13.222671 79.247093 574.913635
   vertex -12.972327 78.830673 574.896179
  endloop
 facet normal 0.017446 0.052344 -0.998477
  outer loop
   vertex -12.972327 78.830673 574.896179
   vertex -13.222671 79.247093 574.913635
   vertex -12.797630 79.133369 574.915100
  endloop
 facet normal 0.017561 0.052278 -0.998478
  outer loop
   vertex -12.797630 79.133369 574.915100
   vertex -12.789175 78.647911 574.889832
   vertex -12.972327 78.830673 574.896179
  endloop
 facet normal 0.017322 0.052274 -0.998483
  outer loop
   vertex -12.486272 78.822678 574.904236
   vertex -12.789175 78.647911 574.889832
   vertex -12.797630 79.133369 574.915100
  endloop
 facet normal 0.017205 0.052476 -0.998474
  outer loop
   vertex -12.721971 78.398254 574.877869
   vertex -12.789175 78.647911 574.889832
   vertex -12.486272 78.822678 574.904236
  endloop
 facet normal 0.017589 0.052262 -0.998478
  outer loop
   vertex -12.486272 78.822678 574.904236
   vertex -12.372023 78.398254 574.884033
   vertex -12.721971 78.398254 574.877869
  endloop
 facet normal 0.017589 0.052174 -0.998483
  outer loop
   vertex -12.721971 78.398254 574.877869
   vertex -12.372023 78.398254 574.884033
   vertex -12.788718 78.148598 574.863647
  endloop
 facet normal 0.017467 0.052376 -0.998475
  outer loop
   vertex -12.788718 78.148598 574.863647
   vertex -12.372023 78.398254 574.884033
   vertex -12.371110 77.399628 574.831665
  endloop
 facet normal 0.017366 0.052320 -0.998479
  outer loop
   vertex -12.371110 77.399628 574.831665
   vertex -12.971537 77.965836 574.850891
   vertex -12.788718 78.148598 574.863647
  endloop
 facet normal 0.017434 0.052392 -0.998474
  outer loop
   vertex -13.221437 77.898941 574.843018
   vertex -12.971537 77.965836 574.850891
   vertex -12.371110 77.399628 574.831665
  endloop
 facet normal 0.017425 0.052376 -0.998475
  outer loop
   vertex -38.489258 77.399628 574.375732
   vertex -37.639843 77.898941 574.416748
   vertex -36.789516 77.399628 574.405396
  endloop
 facet normal 0.017434 0.052392 -0.998474
  outer loop
   vertex -36.789516 77.399628 574.405396
   vertex -37.639843 77.898941 574.416748
   vertex -37.389942 77.965836 574.424622
  endloop
 facet normal 0.017366 0.052320 -0.998479
  outer loop
   vertex -37.389942 77.965836 574.424622
   vertex -37.207127 78.148598 574.437378
   vertex -36.789516 77.399628 574.405396
  endloop
 facet normal 0.017539 0.052255 -0.998480
  outer loop
   vertex -13.654613 78.148598 574.848511
   vertex -13.471460 77.965836 574.842163
   vertex -14.070851 77.399628 574.802002
  endloop
 facet normal 0.017426 0.052375 -0.998475
  outer loop
   vertex -14.070851 77.399628 574.802002
   vertex -13.471460 77.965836 574.842163
   vertex -13.221437 77.898941 574.843018
  endloop
 facet normal 0.017425 0.052376 -0.998475
  outer loop
   vertex -13.221437 77.898941 574.843018
   vertex -12.371110 77.399628 574.831665
   vertex -14.070851 77.399628 574.802002
  endloop
 facet normal -0.017425 -0.052254 0.998482
  outer loop
   vertex -12.379825 77.373459 575.330933
   vertex -13.230152 77.872772 575.342224
   vertex -14.079566 77.373459 575.301270
  endloop
 facet normal -0.017403 -0.052291 0.998480
  outer loop
   vertex -14.079566 77.373459 575.301270
   vertex -13.230152 77.872772 575.342224
   vertex -13.480175 77.939667 575.341370
  endloop
 facet normal -0.017325 -0.052374 0.998477
  outer loop
   vertex -13.480175 77.939667 575.341370
   vertex -13.663327 78.122429 575.347778
   vertex -14.079566 77.373459 575.301270
  endloop
 facet normal -0.017366 -0.052320 0.998479
  outer loop
   vertex -37.215839 78.122429 574.936646
   vertex -37.398659 77.939667 574.923889
   vertex -36.798233 77.373459 574.904663
  endloop
 facet normal -0.017434 -0.052392 0.998474
  outer loop
   vertex -36.798233 77.373459 574.904663
   vertex -37.398659 77.939667 574.923889
   vertex -37.648560 77.872772 574.916016
  endloop
 facet normal -0.017425 -0.052376 0.998475
  outer loop
   vertex -37.648560 77.872772 574.916016
   vertex -38.497974 77.373459 574.875000
   vertex -36.798233 77.373459 574.904663
  endloop
 facet normal -0.014389 0.568308 0.822690
  outer loop
   vertex -15.233508 80.146080 576.008850
   vertex -15.232468 80.232430 575.949219
   vertex -16.392048 80.146080 575.988586
  endloop
 facet normal -0.014389 0.568308 0.822690
  outer loop
   vertex -16.392048 80.146080 575.988586
   vertex -15.232468 80.232430 575.949219
   vertex -16.391006 80.232430 575.928955
  endloop
 facet normal 0.017428 0.052336 -0.998477
  outer loop
   vertex -35.230331 79.485168 574.039734
   vertex -35.230892 80.097855 574.071838
   vertex -15.616322 79.485168 574.382080
  endloop
 facet normal 0.017428 0.052336 -0.998477
  outer loop
   vertex -15.616322 79.485168 574.382080
   vertex -35.230892 80.097855 574.071838
   vertex -15.616882 80.097855 574.414185
  endloop
 facet normal 0.013234 0.651028 -0.758938
  outer loop
   vertex -34.483356 80.312759 574.080139
   vertex -34.482162 80.233116 574.011841
   vertex -35.641895 80.312759 574.059937
  endloop
 facet normal 0.013269 0.651363 -0.758650
  outer loop
   vertex -35.641895 80.312759 574.059937
   vertex -34.482162 80.233116 574.011841
   vertex -35.640701 80.233116 573.991577
  endloop
 facet normal -0.000913 0.998630 0.052327
  outer loop
   vertex -12.730685 78.372086 575.377136
   vertex -12.380738 78.372086 575.383240
   vertex -12.551354 78.385170 575.130554
  endloop
 facet normal 0.999848 -0.000003 0.017454
  outer loop
   vertex -15.203753 79.392639 574.304321
   vertex -15.232739 79.305603 575.964783
   vertex -15.207685 78.888901 574.529480
  endloop
 facet normal 0.017415 0.052288 -0.998480
  outer loop
   vertex -14.071765 78.398254 574.854309
   vertex -13.721818 78.398254 574.860413
   vertex -13.654613 78.148598 574.848511
  endloop
 facet normal 0.017415 0.052464 -0.998471
  outer loop
   vertex -37.140377 78.398254 574.451660
   vertex -36.790432 78.398254 574.457764
   vertex -37.207127 78.148598 574.437378
  endloop
 facet normal 0.000922 -0.998629 -0.052333
  outer loop
   vertex -12.380738 78.372086 575.383240
   vertex -12.721971 78.398254 574.877869
   vertex -12.372023 78.398254 574.884033
  endloop
 facet normal -0.017418 -0.052328 0.998478
  outer loop
   vertex -35.417587 78.970146 575.320374
   vertex -37.065498 78.970146 575.291626
   vertex -37.064091 77.431213 575.210999
  endloop
 facet normal 0.017418 0.052328 -0.998478
  outer loop
   vertex -15.453037 77.489563 574.474670
   vertex -15.454445 79.028503 574.555298
   vertex -13.805127 77.489563 574.503418
  endloop
 facet normal 0.000912 -0.998630 -0.052318
  outer loop
   vertex -38.490173 78.398254 574.428101
   vertex -38.148941 78.372093 574.933411
   vertex -38.498886 78.372093 574.927307
  endloop
 facet normal -0.999848 -0.000011 -0.017443
  outer loop
   vertex -35.668648 80.232430 575.592468
   vertex -35.665878 80.240753 575.433716
   vertex -35.665531 80.142960 575.413879
  endloop
 facet normal 0.000913 -0.998630 -0.052327
  outer loop
   vertex -13.721818 78.398254 574.860413
   vertex -14.080480 78.372086 575.353577
   vertex -14.071765 78.398254 574.854309
  endloop
 facet normal -0.999848 -0.000002 -0.017453
  outer loop
   vertex -35.668919 79.305603 575.608032
   vertex -35.639935 79.392639 573.947571
   vertex -35.664089 78.828171 575.331421
  endloop
 facet normal 0.999848 -0.000007 0.017455
  outer loop
   vertex -15.205715 80.312759 574.416687
   vertex -15.208486 80.304443 574.575378
   vertex -15.208652 80.205116 574.584900
  endloop
 facet normal -0.017418 -0.052328 0.998478
  outer loop
   vertex -15.473878 78.970146 575.668518
   vertex -15.472470 77.431213 575.587891
   vertex -13.824560 77.431213 575.616638
  endloop
 facet normal 0.999848 0.000000 0.017453
  outer loop
   vertex -35.416180 77.431213 575.239746
   vertex -35.396748 77.489563 574.126526
   vertex -35.398155 79.028503 574.207153
  endloop
 facet normal 0.000913 -0.998629 -0.052333
  outer loop
   vertex -37.149094 78.372086 574.950867
   vertex -36.790432 78.398254 574.457764
   vertex -36.799145 78.372086 574.956970
  endloop
 facet normal -0.017415 -0.052221 0.998484
  outer loop
   vertex -36.799145 78.372086 574.956970
   vertex -37.149094 78.372086 574.950867
   vertex -37.215839 78.122429 574.936646
  endloop
 facet normal -0.707648 0.706134 0.024657
  outer loop
   vertex -37.398659 77.939667 574.923889
   vertex -37.207127 78.148598 574.437378
   vertex -37.389942 77.965836 574.424622
  endloop
 facet normal -0.259659 0.964603 0.046026
  outer loop
   vertex -37.398659 77.939667 574.923889
   vertex -37.389942 77.965836 574.424622
   vertex -37.648560 77.872772 574.916016
  endloop
 facet normal -0.259659 0.964603 0.046026
  outer loop
   vertex -37.648560 77.872772 574.916016
   vertex -37.389942 77.965836 574.424622
   vertex -37.639843 77.898941 574.416748
  endloop
 facet normal 0.257895 0.964603 0.055062
  outer loop
   vertex -37.639843 77.898941 574.416748
   vertex -37.898582 77.939667 574.915161
   vertex -37.648560 77.872772 574.916016
  endloop
 facet normal 0.257891 0.964604 0.055060
  outer loop
   vertex -37.889870 77.965836 574.415894
   vertex -37.898582 77.939667 574.915161
   vertex -37.639843 77.898941 574.416748
  endloop
 facet normal 0.706350 0.706141 0.049339
  outer loop
   vertex -38.081734 78.122429 574.921509
   vertex -37.898582 77.939667 574.915161
   vertex -37.889870 77.965836 574.415894
  endloop
 facet normal 0.706359 0.706132 0.049344
  outer loop
   vertex -37.889870 77.965836 574.415894
   vertex -38.073021 78.148598 574.422302
   vertex -38.081734 78.122429 574.921509
  endloop
 facet normal 0.965542 0.258466 0.030401
  outer loop
   vertex -38.081734 78.122429 574.921509
   vertex -38.073021 78.148598 574.422302
   vertex -38.148941 78.372093 574.933411
  endloop
 facet normal -0.966016 0.258462 -0.003315
  outer loop
   vertex -12.730685 78.372086 575.377136
   vertex -12.721971 78.398254 574.877869
   vertex -12.797433 78.122429 575.362854
  endloop
 facet normal -0.966016 0.258461 -0.003315
  outer loop
   vertex -12.797433 78.122429 575.362854
   vertex -12.721971 78.398254 574.877869
   vertex -12.788718 78.148598 574.863647
  endloop
 facet normal -0.707643 0.706140 0.024663
  outer loop
   vertex -12.788718 78.148598 574.863647
   vertex -12.980251 77.939667 575.350098
   vertex -12.797433 78.122429 575.362854
  endloop
 facet normal -0.707643 0.706140 0.024663
  outer loop
   vertex -12.971537 77.965836 574.850891
   vertex -12.980251 77.939667 575.350098
   vertex -12.788718 78.148598 574.863647
  endloop
 facet normal -0.259659 0.964603 0.046032
  outer loop
   vertex -13.230152 77.872772 575.342224
   vertex -12.980251 77.939667 575.350098
   vertex -12.971537 77.965836 574.850891
  endloop
 facet normal -0.259659 0.964603 0.046032
  outer loop
   vertex -12.971537 77.965836 574.850891
   vertex -13.221437 77.898941 574.843018
   vertex -13.230152 77.872772 575.342224
  endloop
 facet normal 0.257895 0.964602 0.055067
  outer loop
   vertex -13.230152 77.872772 575.342224
   vertex -13.221437 77.898941 574.843018
   vertex -13.480175 77.939667 575.341370
  endloop
 facet normal 0.257895 0.964602 0.055067
  outer loop
   vertex -13.480175 77.939667 575.341370
   vertex -13.221437 77.898941 574.843018
   vertex -13.471460 77.965836 574.842163
  endloop
 facet normal 0.706357 0.706134 0.049347
  outer loop
   vertex -13.471460 77.965836 574.842163
   vertex -13.663327 78.122429 575.347778
   vertex -13.480175 77.939667 575.341370
  endloop
 facet normal 0.965543 0.258462 0.030401
  outer loop
   vertex -36.799145 78.372086 574.956970
   vertex -36.790432 78.398254 574.457764
   vertex -36.913395 78.796509 574.977234
  endloop
 facet normal 0.965543 0.258462 0.030401
  outer loop
   vertex -36.913395 78.796509 574.977234
   vertex -36.790432 78.398254 574.457764
   vertex -36.904682 78.822678 574.478027
  endloop
 facet normal 0.706349 0.706141 0.049345
  outer loop
   vertex -36.904682 78.822678 574.478027
   vertex -37.224754 79.107201 574.988098
   vertex -36.913395 78.796509 574.977234
  endloop
 facet normal 0.706349 0.706142 0.049344
  outer loop
   vertex -37.216038 79.133369 574.488831
   vertex -37.224754 79.107201 574.988098
   vertex -36.904682 78.822678 574.478027
  endloop
 facet normal 0.257901 0.964601 0.055062
  outer loop
   vertex -37.649792 79.220924 574.986633
   vertex -37.224754 79.107201 574.988098
   vertex -37.216038 79.133369 574.488831
  endloop
 facet normal 0.257906 0.964600 0.055066
  outer loop
   vertex -37.216038 79.133369 574.488831
   vertex -37.641079 79.247093 574.487427
   vertex -37.649792 79.220924 574.986633
  endloop
 facet normal -0.259662 0.964602 0.046033
  outer loop
   vertex -37.649792 79.220924 574.986633
   vertex -37.641079 79.247093 574.487427
   vertex -38.074627 79.107201 574.973267
  endloop
 facet normal -0.259670 0.964600 0.046025
  outer loop
   vertex -38.074627 79.107201 574.973267
   vertex -37.641079 79.247093 574.487427
   vertex -38.065910 79.133369 574.473999
  endloop
 facet normal -0.707645 0.706138 0.024657
  outer loop
   vertex -38.065910 79.133369 574.473999
   vertex -38.385414 78.796509 574.951538
   vertex -38.074627 79.107201 574.973267
  endloop
 facet normal -0.707638 0.706144 0.024666
  outer loop
   vertex -38.376701 78.822678 574.452332
   vertex -38.385414 78.796509 574.951538
   vertex -38.065910 79.133369 574.473999
  endloop
 facet normal -0.966015 0.258463 -0.003311
  outer loop
   vertex -38.498886 78.372093 574.927307
   vertex -38.385414 78.796509 574.951538
   vertex -38.376701 78.822678 574.452332
  endloop
 facet normal -0.966016 0.258459 -0.003315
  outer loop
   vertex -38.376701 78.822678 574.452332
   vertex -38.490173 78.398254 574.428101
   vertex -38.498886 78.372093 574.927307
  endloop
 facet normal 0.965544 0.258458 0.030406
  outer loop
   vertex -12.380738 78.372086 575.383240
   vertex -12.372023 78.398254 574.884033
   vertex -12.494987 78.796509 575.403503
  endloop
 facet normal 0.965542 0.258464 0.030401
  outer loop
   vertex -12.494987 78.796509 575.403503
   vertex -12.372023 78.398254 574.884033
   vertex -12.486272 78.822678 574.904236
  endloop
 facet normal 0.706350 0.706141 0.049341
  outer loop
   vertex -12.486272 78.822678 574.904236
   vertex -12.806345 79.107201 575.414368
   vertex -12.494987 78.796509 575.403503
  endloop
 facet normal 0.706350 0.706141 0.049341
  outer loop
   vertex -12.797630 79.133369 574.915100
   vertex -12.806345 79.107201 575.414368
   vertex -12.486272 78.822678 574.904236
  endloop
 facet normal 0.257899 0.964602 0.055061
  outer loop
   vertex -13.231385 79.220924 575.412903
   vertex -12.806345 79.107201 575.414368
   vertex -12.797630 79.133369 574.915100
  endloop
 facet normal 0.257899 0.964602 0.055061
  outer loop
   vertex -12.797630 79.133369 574.915100
   vertex -13.222671 79.247093 574.913635
   vertex -13.231385 79.220924 575.412903
  endloop
 facet normal -0.259664 0.964601 0.046027
  outer loop
   vertex -13.231385 79.220924 575.412903
   vertex -13.222671 79.247093 574.913635
   vertex -13.656216 79.107201 575.399536
  endloop
 facet normal -0.259664 0.964601 0.046027
  outer loop
   vertex -13.656216 79.107201 575.399536
   vertex -13.222671 79.247093 574.913635
   vertex -13.647501 79.133369 574.900269
  endloop
 facet normal -0.707642 0.706141 0.024660
  outer loop
   vertex -13.647501 79.133369 574.900269
   vertex -13.967006 78.796509 575.377808
   vertex -13.656216 79.107201 575.399536
  endloop
 facet normal -0.707642 0.706141 0.024660
  outer loop
   vertex -13.958291 78.822678 574.878540
   vertex -13.967006 78.796509 575.377808
   vertex -13.647501 79.133369 574.900269
  endloop
 facet normal -0.966015 0.258463 -0.003315
  outer loop
   vertex -14.080480 78.372086 575.353577
   vertex -13.967006 78.796509 575.377808
   vertex -13.958291 78.822678 574.878540
  endloop
 facet normal -0.966015 0.258463 -0.003315
  outer loop
   vertex -13.958291 78.822678 574.878540
   vertex -14.071765 78.398254 574.854309
   vertex -14.080480 78.372086 575.353577
  endloop
 facet normal 0.706349 0.706142 0.049341
  outer loop
   vertex -13.471460 77.965836 574.842163
   vertex -13.654613 78.148598 574.848511
   vertex -13.663327 78.122429 575.347778
  endloop
 facet normal 0.965542 0.258466 0.030401
  outer loop
   vertex -13.663327 78.122429 575.347778
   vertex -13.654613 78.148598 574.848511
   vertex -13.721818 78.398254 574.860413
  endloop
 facet normal 0.965542 0.258466 0.030401
  outer loop
   vertex -13.721818 78.398254 574.860413
   vertex -13.730533 78.372086 575.359680
   vertex -13.663327 78.122429 575.347778
  endloop
 facet normal 0.966015 -0.258465 0.003314
  outer loop
   vertex -13.655069 78.647911 574.874695
   vertex -13.730533 78.372086 575.359680
   vertex -13.721818 78.398254 574.860413
  endloop
 facet normal 0.966015 -0.258464 0.003315
  outer loop
   vertex -13.663784 78.621742 575.373901
   vertex -13.730533 78.372086 575.359680
   vertex -13.655069 78.647911 574.874695
  endloop
 facet normal 0.707643 -0.706140 -0.024663
  outer loop
   vertex -13.655069 78.647911 574.874695
   vertex -13.472251 78.830673 574.887451
   vertex -13.663784 78.621742 575.373901
  endloop
 facet normal 0.707649 -0.706134 -0.024658
  outer loop
   vertex -13.663784 78.621742 575.373901
   vertex -13.472251 78.830673 574.887451
   vertex -13.480967 78.804504 575.386719
  endloop
 facet normal 0.259660 -0.964603 -0.046026
  outer loop
   vertex -13.480967 78.804504 575.386719
   vertex -13.472251 78.830673 574.887451
   vertex -13.222351 78.897568 574.895325
  endloop
 facet normal 0.259659 -0.964603 -0.046027
  outer loop
   vertex -13.222351 78.897568 574.895325
   vertex -13.231066 78.871399 575.394592
   vertex -13.480967 78.804504 575.386719
  endloop
 facet normal -0.257894 -0.964603 -0.055061
  outer loop
   vertex -12.972327 78.830673 574.896179
   vertex -13.231066 78.871399 575.394592
   vertex -13.222351 78.897568 574.895325
  endloop
 facet normal -0.257894 -0.964603 -0.055061
  outer loop
   vertex -12.981042 78.804504 575.395447
   vertex -13.231066 78.871399 575.394592
   vertex -12.972327 78.830673 574.896179
  endloop
 facet normal -0.706349 -0.706142 -0.049341
  outer loop
   vertex -12.972327 78.830673 574.896179
   vertex -12.789175 78.647911 574.889832
   vertex -12.981042 78.804504 575.395447
  endloop
 facet normal -0.706357 -0.706134 -0.049347
  outer loop
   vertex -12.981042 78.804504 575.395447
   vertex -12.789175 78.647911 574.889832
   vertex -12.797890 78.621742 575.389038
  endloop
 facet normal -0.965545 -0.258456 -0.030404
  outer loop
   vertex -12.797890 78.621742 575.389038
   vertex -12.789175 78.647911 574.889832
   vertex -12.721971 78.398254 574.877869
  endloop
 facet normal -0.965543 -0.258463 -0.030401
  outer loop
   vertex -12.721971 78.398254 574.877869
   vertex -12.730685 78.372086 575.377136
   vertex -12.797890 78.621742 575.389038
  endloop
 facet normal -0.707641 0.706141 0.024663
  outer loop
   vertex -37.398659 77.939667 574.923889
   vertex -37.215839 78.122429 574.936646
   vertex -37.207127 78.148598 574.437378
  endloop
 facet normal -0.966018 0.258454 -0.003311
  outer loop
   vertex -37.207127 78.148598 574.437378
   vertex -37.215839 78.122429 574.936646
   vertex -37.149094 78.372086 574.950867
  endloop
 facet normal -0.966014 0.258469 -0.003318
  outer loop
   vertex -37.149094 78.372086 574.950867
   vertex -37.140377 78.398254 574.451660
   vertex -37.207127 78.148598 574.437378
  endloop
 facet normal -0.965546 -0.258452 -0.030408
  outer loop
   vertex -37.216297 78.621750 574.962769
   vertex -37.140377 78.398254 574.451660
   vertex -37.149094 78.372086 574.950867
  endloop
 facet normal -0.965542 -0.258466 -0.030401
  outer loop
   vertex -37.207584 78.647919 574.463562
   vertex -37.140377 78.398254 574.451660
   vertex -37.216297 78.621750 574.962769
  endloop
 facet normal -0.706359 -0.706132 -0.049344
  outer loop
   vertex -37.216297 78.621750 574.962769
   vertex -37.399448 78.804512 574.969177
   vertex -37.207584 78.647919 574.463562
  endloop
 facet normal -0.706350 -0.706141 -0.049339
  outer loop
   vertex -37.207584 78.647919 574.463562
   vertex -37.399448 78.804512 574.969177
   vertex -37.390736 78.830681 574.469910
  endloop
 facet normal -0.257895 -0.964603 -0.055060
  outer loop
   vertex -37.390736 78.830681 574.469910
   vertex -37.399448 78.804512 574.969177
   vertex -37.649471 78.871407 574.968323
  endloop
 facet normal -0.257895 -0.964603 -0.055060
  outer loop
   vertex -37.649471 78.871407 574.968323
   vertex -37.640759 78.897575 574.469055
   vertex -37.390736 78.830681 574.469910
  endloop
 facet normal 0.259659 -0.964603 -0.046028
  outer loop
   vertex -37.899372 78.804512 574.960449
   vertex -37.640759 78.897575 574.469055
   vertex -37.649471 78.871407 574.968323
  endloop
 facet normal 0.259649 -0.964605 -0.046034
  outer loop
   vertex -37.890659 78.830681 574.461243
   vertex -37.640759 78.897575 574.469055
   vertex -37.899372 78.804512 574.960449
  endloop
 facet normal 0.707641 -0.706141 -0.024666
  outer loop
   vertex -37.899372 78.804512 574.960449
   vertex -38.082191 78.621750 574.947693
   vertex -37.890659 78.830681 574.461243
  endloop
 facet normal 0.707645 -0.706137 -0.024663
  outer loop
   vertex -37.890659 78.830681 574.461243
   vertex -38.082191 78.621750 574.947693
   vertex -38.073479 78.647919 574.448425
  endloop
 facet normal 0.966014 -0.258468 0.003311
  outer loop
   vertex -38.073479 78.647919 574.448425
   vertex -38.082191 78.621750 574.947693
   vertex -38.148941 78.372093 574.933411
  endloop
 facet normal 0.966020 -0.258447 0.003323
  outer loop
   vertex -38.148941 78.372093 574.933411
   vertex -38.140224 78.398254 574.434204
   vertex -38.073479 78.647919 574.448425
  endloop
 facet normal 0.965544 0.258459 0.030404
  outer loop
   vertex -38.073021 78.148598 574.422302
   vertex -38.140224 78.398254 574.434204
   vertex -38.148941 78.372093 574.933411
  endloop
endsolid