solid stl file generated from DOUG
 facet normal -0.246531 0.749506 0.614380
  outer loop
   vertex -80.173752 -36.349007 494.879639
   vertex -79.693840 -36.303497 495.016693
   vertex -80.136375 -36.184692 494.694183
  endloop
 endfacet

 facet normal -0.246526 0.749511 0.614376
  outer loop
   vertex -80.136375 -36.184692 494.694183
   vertex -79.693840 -36.303497 495.016693
   vertex -79.656456 -36.139183 494.831238
  endloop
 endfacet

 facet normal 0.005933 0.942633 -0.333779
  outer loop
   vertex -79.656456 -36.139183 494.831238
   vertex -80.064186 -36.265198 494.468109
   vertex -80.136375 -36.184692 494.694183
  endloop
 endfacet

 facet normal 0.005922 0.942637 -0.333768
  outer loop
   vertex -79.584267 -36.219685 494.605164
   vertex -80.064186 -36.265198 494.468109
   vertex -79.656456 -36.139183 494.831238
  endloop
 endfacet

 facet normal 0.252458 0.193089 -0.948146
  outer loop
   vertex -80.029381 -36.510010 494.427521
   vertex -80.064186 -36.265198 494.468109
   vertex -79.584267 -36.219685 494.605164
  endloop
 endfacet

 facet normal 0.252460 0.193087 -0.948146
  outer loop
   vertex -79.584267 -36.219685 494.605164
   vertex -79.549461 -36.464500 494.564575
   vertex -80.029381 -36.510010 494.427521
  endloop
 endfacet

 facet normal 0.246516 -0.749555 -0.614326
  outer loop
   vertex -80.029381 -36.510010 494.427521
   vertex -79.549461 -36.464500 494.564575
   vertex -80.066757 -36.674324 494.613007
  endloop
 endfacet

 facet normal 0.246494 -0.749514 -0.614385
  outer loop
   vertex -80.066757 -36.674324 494.613007
   vertex -79.549461 -36.464500 494.564575
   vertex -79.586845 -36.628815 494.750031
  endloop
 endfacet

 facet normal -0.005921 -0.942623 0.333808
  outer loop
   vertex -79.586845 -36.628815 494.750031
   vertex -80.138947 -36.593822 494.839050
   vertex -80.066757 -36.674324 494.613007
  endloop
 endfacet

 facet normal -0.005926 -0.942632 0.333781
  outer loop
   vertex -79.659027 -36.548309 494.976105
   vertex -80.138947 -36.593822 494.839050
   vertex -79.586845 -36.628815 494.750031
  endloop
 endfacet

 facet normal -0.252459 -0.193087 0.948147
  outer loop
   vertex -80.173752 -36.349007 494.879639
   vertex -80.138947 -36.593822 494.839050
   vertex -79.659027 -36.548309 494.976105
  endloop
 endfacet

 facet normal -0.252462 -0.193097 0.948144
  outer loop
   vertex -79.659027 -36.548309 494.976105
   vertex -79.693840 -36.303497 495.016693
   vertex -80.173752 -36.349007 494.879639
  endloop
 endfacet

 facet normal 0.252408 0.193082 -0.948161
  outer loop
   vertex -85.914589 -29.366226 514.497009
   vertex -86.394501 -29.411736 514.359985
   vertex -85.949394 -29.121410 514.537598
  endloop
 endfacet

 facet normal 0.252403 0.193090 -0.948161
  outer loop
   vertex -85.949394 -29.121410 514.537598
   vertex -86.394501 -29.411736 514.359985
   vertex -86.429314 -29.166922 514.400574
  endloop
 endfacet

 facet normal 0.005906 0.942635 -0.333772
  outer loop
   vertex -86.429314 -29.166922 514.400574
   vertex -86.021584 -29.040909 514.763672
   vertex -85.949394 -29.121410 514.537598
  endloop
 endfacet

 facet normal 0.005974 0.942611 -0.333840
  outer loop
   vertex -86.501495 -29.086418 514.626587
   vertex -86.021584 -29.040909 514.763672
   vertex -86.429314 -29.166922 514.400574
  endloop
 endfacet

 facet normal -0.246577 0.749457 0.614421
  outer loop
   vertex -86.058960 -29.205221 514.949097
   vertex -86.021584 -29.040909 514.763672
   vertex -86.501495 -29.086418 514.626587
  endloop
 endfacet

 facet normal -0.246478 0.749568 0.614326
  outer loop
   vertex -86.501495 -29.086418 514.626587
   vertex -86.538879 -29.250731 514.812073
   vertex -86.058960 -29.205221 514.949097
  endloop
 endfacet

 facet normal -0.252404 -0.193083 0.948162
  outer loop
   vertex -86.058960 -29.205221 514.949097
   vertex -86.538879 -29.250731 514.812073
   vertex -86.024155 -29.450035 514.908508
  endloop
 endfacet

 facet normal -0.252404 -0.193081 0.948162
  outer loop
   vertex -86.024155 -29.450035 514.908508
   vertex -86.538879 -29.250731 514.812073
   vertex -86.504074 -29.495546 514.771484
  endloop
 endfacet

 facet normal -0.005931 -0.942607 0.333852
  outer loop
   vertex -86.504074 -29.495546 514.771484
   vertex -85.951965 -29.530539 514.682495
   vertex -86.024155 -29.450035 514.908508
  endloop
 endfacet

 facet normal -0.005948 -0.942639 0.333760
  outer loop
   vertex -86.431885 -29.576048 514.545410
   vertex -85.951965 -29.530539 514.682495
   vertex -86.504074 -29.495546 514.771484
  endloop
 endfacet

 facet normal 0.246551 -0.749556 -0.614312
  outer loop
   vertex -85.914589 -29.366226 514.497009
   vertex -85.951965 -29.530539 514.682495
   vertex -86.431885 -29.576048 514.545410
  endloop
 endfacet

 facet normal 0.246504 -0.749469 -0.614436
  outer loop
   vertex -86.431885 -29.576048 514.545410
   vertex -86.394501 -29.411736 514.359985
   vertex -85.914589 -29.366226 514.497009
  endloop
 endfacet

 facet normal -0.957582 -0.090798 -0.273481
  outer loop
   vertex -86.501495 -29.086418 514.626587
   vertex -86.429314 -29.166922 514.400574
   vertex -86.466690 -29.331234 514.585999
  endloop
 endfacet

 facet normal -0.957574 -0.090824 -0.273502
  outer loop
   vertex -86.466690 -29.331234 514.585999
   vertex -86.429314 -29.166922 514.400574
   vertex -86.394501 -29.411736 514.359985
  endloop
 endfacet

 facet normal -0.957574 -0.090792 -0.273514
  outer loop
   vertex -86.394501 -29.411736 514.359985
   vertex -86.431885 -29.576048 514.545410
   vertex -86.466690 -29.331234 514.585999
  endloop
 endfacet

 facet normal -0.957592 -0.090805 -0.273446
  outer loop
   vertex -80.138947 -36.593822 494.839050
   vertex -80.173752 -36.349007 494.879639
   vertex -80.101570 -36.429508 494.653595
  endloop
 endfacet

 facet normal -0.957592 -0.090805 -0.273446
  outer loop
   vertex -80.101570 -36.429508 494.653595
   vertex -80.173752 -36.349007 494.879639
   vertex -80.136375 -36.184692 494.694183
  endloop
 endfacet

 facet normal -0.957593 -0.090806 -0.273439
  outer loop
   vertex -80.136375 -36.184692 494.694183
   vertex -80.064186 -36.265198 494.468109
   vertex -80.101570 -36.429508 494.653595
  endloop
 endfacet

 facet normal -0.957593 -0.090808 -0.273440
  outer loop
   vertex -80.064186 -36.265198 494.468109
   vertex -80.029381 -36.510010 494.427521
   vertex -80.101570 -36.429508 494.653595
  endloop
 endfacet

 facet normal -0.957593 -0.090838 -0.273430
  outer loop
   vertex -80.101570 -36.429508 494.653595
   vertex -80.029381 -36.510010 494.427521
   vertex -80.066757 -36.674324 494.613007
  endloop
 endfacet

 facet normal -0.957583 -0.090830 -0.273466
  outer loop
   vertex -80.066757 -36.674324 494.613007
   vertex -80.138947 -36.593822 494.839050
   vertex -80.101570 -36.429508 494.653595
  endloop
 endfacet

 facet normal -0.957593 -0.090807 -0.273441
  outer loop
   vertex -86.431885 -29.576048 514.545410
   vertex -86.504074 -29.495546 514.771484
   vertex -86.466690 -29.331234 514.585999
  endloop
 endfacet

 facet normal -0.957593 -0.090806 -0.273440
  outer loop
   vertex -86.466690 -29.331234 514.585999
   vertex -86.504074 -29.495546 514.771484
   vertex -86.538879 -29.250731 514.812073
  endloop
 endfacet

 facet normal -0.957593 -0.090806 -0.273440
  outer loop
   vertex -86.538879 -29.250731 514.812073
   vertex -86.501495 -29.086418 514.626587
   vertex -86.466690 -29.331234 514.585999
  endloop
 endfacet

 facet normal -0.957589 -0.090804 -0.273454
  outer loop
   vertex -78.576401 -36.366028 496.732666
   vertex -78.568985 -35.187557 496.315369
   vertex -77.714653 -37.327038 494.034088
  endloop
 endfacet

 facet normal -0.957589 -0.090804 -0.273454
  outer loop
   vertex -77.714653 -37.327038 494.034088
   vertex -78.568985 -35.187557 496.315369
   vertex -77.707237 -36.148567 493.616791
  endloop
 endfacet

 facet normal 0.288086 -0.321251 -0.902111
  outer loop
   vertex -77.707237 -36.148567 493.616791
   vertex -76.384956 -37.200943 494.413818
   vertex -77.714653 -37.327038 494.034088
  endloop
 endfacet

 facet normal 0.288067 -0.321274 -0.902109
  outer loop
   vertex -76.377541 -36.022472 493.996490
   vertex -76.384956 -37.200943 494.413818
   vertex -77.707237 -36.148567 493.616791
  endloop
 endfacet

 facet normal 0.957589 0.090811 0.273454
  outer loop
   vertex -77.239296 -35.061462 496.695068
   vertex -76.384956 -37.200943 494.413818
   vertex -76.377541 -36.022472 493.996490
  endloop
 endfacet

 facet normal 0.005927 0.942628 -0.333793
  outer loop
   vertex -76.377541 -36.022472 493.996490
   vertex -78.568985 -35.187557 496.315369
   vertex -77.239296 -35.061462 496.695068
  endloop
 endfacet

 facet normal -0.288068 0.321273 0.902109
  outer loop
   vertex -77.239296 -35.061462 496.695068
   vertex -78.568985 -35.187557 496.315369
   vertex -77.246712 -36.239937 497.112396
  endloop
 endfacet

 facet normal -0.288087 0.321251 0.902111
  outer loop
   vertex -77.246712 -36.239937 497.112396
   vertex -78.568985 -35.187557 496.315369
   vertex -78.576401 -36.366028 496.732666
  endloop
 endfacet

 facet normal -0.005936 -0.942629 0.333789
  outer loop
   vertex -78.576401 -36.366028 496.732666
   vertex -76.384956 -37.200943 494.413818
   vertex -77.246712 -36.239937 497.112396
  endloop
 endfacet

 facet normal -0.005934 -0.942628 0.333791
  outer loop
   vertex -77.714653 -37.327038 494.034088
   vertex -76.384956 -37.200943 494.413818
   vertex -78.576401 -36.366028 496.732666
  endloop
 endfacet

 facet normal -0.288068 0.321253 0.902116
  outer loop
   vertex -83.634361 -29.116537 517.115356
   vertex -83.626945 -27.938066 516.698059
   vertex -84.964050 -29.242630 516.735657
  endloop
 endfacet

 facet normal -0.288067 0.321251 0.902117
  outer loop
   vertex -84.964050 -29.242630 516.735657
   vertex -83.626945 -27.938066 516.698059
   vertex -84.956642 -28.064159 516.318359
  endloop
 endfacet

 facet normal -0.957590 -0.090809 -0.273449
  outer loop
   vertex -84.956642 -28.064159 516.318359
   vertex -84.102303 -30.203640 514.037048
   vertex -84.964050 -29.242630 516.735657
  endloop
 endfacet

 facet normal -0.957590 -0.090804 -0.273454
  outer loop
   vertex -84.094887 -29.025167 513.619751
   vertex -84.102303 -30.203640 514.037048
   vertex -84.956642 -28.064159 516.318359
  endloop
 endfacet

 facet normal 0.288106 -0.321249 -0.902105
  outer loop
   vertex -82.765198 -28.899075 513.999512
   vertex -84.102303 -30.203640 514.037048
   vertex -84.094887 -29.025167 513.619751
  endloop
 endfacet

 facet normal 0.005943 0.942628 -0.333791
  outer loop
   vertex -84.094887 -29.025167 513.619751
   vertex -83.626945 -27.938066 516.698059
   vertex -82.765198 -28.899075 513.999512
  endloop
 endfacet

 facet normal 0.957589 0.090805 0.273456
  outer loop
   vertex -82.765198 -28.899075 513.999512
   vertex -83.626945 -27.938066 516.698059
   vertex -82.772614 -30.077547 514.416809
  endloop
 endfacet

 facet normal 0.957589 0.090805 0.273456
  outer loop
   vertex -82.772614 -30.077547 514.416809
   vertex -83.626945 -27.938066 516.698059
   vertex -83.634361 -29.116537 517.115356
  endloop
 endfacet

 facet normal -0.005943 -0.942628 0.333792
  outer loop
   vertex -83.634361 -29.116537 517.115356
   vertex -84.102303 -30.203640 514.037048
   vertex -82.772614 -30.077547 514.416809
  endloop
 endfacet

 facet normal -0.005927 -0.942629 0.333790
  outer loop
   vertex -84.964050 -29.242630 516.735657
   vertex -84.102303 -30.203640 514.037048
   vertex -83.634361 -29.116537 517.115356
  endloop
 endfacet

 facet normal 0.005927 0.942629 -0.333789
  outer loop
   vertex -84.094887 -29.025167 513.619751
   vertex -84.956642 -28.064159 516.318359
   vertex -83.626945 -27.938066 516.698059
  endloop
 endfacet

 facet normal 0.005927 0.942628 -0.333793
  outer loop
   vertex -77.707237 -36.148567 493.616791
   vertex -78.568985 -35.187557 496.315369
   vertex -76.377541 -36.022472 493.996490
  endloop
 endfacet

 facet normal 0.288106 -0.321249 -0.902105
  outer loop
   vertex -82.765198 -28.899075 513.999512
   vertex -82.772614 -30.077547 514.416809
   vertex -84.102303 -30.203640 514.037048
  endloop
 endfacet

 facet normal 0.957589 0.090811 0.273454
  outer loop
   vertex -77.239296 -35.061462 496.695068
   vertex -77.246712 -36.239937 497.112396
   vertex -76.384956 -37.200943 494.413818
  endloop
 endfacet

 facet normal -0.957589 -0.090829 -0.273446
  outer loop
   vertex -81.167091 -36.838127 495.832458
   vertex -86.817627 -30.432701 513.492615
   vertex -81.166443 -36.734806 495.795868
  endloop
 endfacet

 facet normal -0.563822 0.704548 -0.430949
  outer loop
   vertex -81.166443 -36.734806 495.795868
   vertex -86.817627 -30.432701 513.492615
   vertex -81.053993 -36.642876 495.799042
  endloop
 endfacet

 facet normal -0.579975 0.691085 -0.431312
  outer loop
   vertex -86.650368 -29.318197 512.320435
   vertex -86.904198 -28.878006 513.367065
   vertex -86.570404 -29.250252 512.321777
  endloop
 endfacet

 facet normal 0.005936 0.942628 -0.333791
  outer loop
   vertex -86.570404 -29.250252 512.321777
   vertex -86.904198 -28.878006 513.367065
   vertex -86.098267 -28.801579 513.597229
  endloop
 endfacet

 facet normal -0.005928 -0.942628 0.333793
  outer loop
   vertex -80.220062 -36.935463 495.713776
   vertex -81.359795 -36.639641 496.528931
   vertex -81.025993 -37.011887 495.483643
  endloop
 endfacet

 facet normal -0.589408 -0.801946 0.097366
  outer loop
   vertex -81.025993 -37.011887 495.483643
   vertex -81.359795 -36.639641 496.528931
   vertex -81.438995 -36.586788 496.484802
  endloop
 endfacet

 facet normal -0.573381 -0.812377 0.106200
  outer loop
   vertex -86.698196 -29.230139 513.102478
   vertex -86.809616 -29.159437 513.041748
   vertex -81.158432 -35.461540 495.345001
  endloop
 endfacet

 facet normal -0.957589 -0.090829 -0.273446
  outer loop
   vertex -81.158432 -35.461540 495.345001
   vertex -86.809616 -29.159437 513.041748
   vertex -81.157784 -35.358219 495.308411
  endloop
 endfacet

 facet normal -0.896031 -0.422787 -0.135572
  outer loop
   vertex -86.081947 -30.434622 513.728210
   vertex -80.430763 -36.736725 496.031464
   vertex -86.069817 -30.465048 513.742920
  endloop
 endfacet

 facet normal -0.895967 -0.422948 -0.135495
  outer loop
   vertex -86.069817 -30.465048 513.742920
   vertex -80.430763 -36.736725 496.031464
   vertex -80.418625 -36.767151 496.046173
  endloop
 endfacet

 facet normal -0.005825 -0.942618 0.333822
  outer loop
   vertex -80.418625 -36.767151 496.046173
   vertex -86.002190 -30.458635 513.762207
   vertex -86.069817 -30.465048 513.742920
  endloop
 endfacet

 facet normal -0.288098 0.321395 0.902056
  outer loop
   vertex -86.914062 -30.445616 513.922180
   vertex -86.897728 -30.220095 513.847046
   vertex -86.993271 -30.392763 513.878052
  endloop
 endfacet

 facet normal -0.287652 0.321187 0.902272
  outer loop
   vertex -86.993271 -30.392763 513.878052
   vertex -86.897728 -30.220095 513.847046
   vertex -86.992325 -30.242918 513.825012
  endloop
 endfacet

 facet normal -0.957588 -0.090754 -0.273476
  outer loop
   vertex -86.992325 -30.242918 513.825012
   vertex -86.659470 -30.765009 512.832764
   vertex -86.993271 -30.392763 513.878052
  endloop
 endfacet

 facet normal 0.288094 -0.321248 -0.902109
  outer loop
   vertex -81.016129 -35.444275 494.928528
   vertex -81.002617 -35.666969 495.012146
   vertex -81.096100 -35.512222 494.927185
  endloop
 endfacet

 facet normal 0.288010 -0.321303 -0.902117
  outer loop
   vertex -81.096100 -35.512222 494.927185
   vertex -81.002617 -35.666969 495.012146
   vertex -81.097038 -35.662067 494.980255
  endloop
 endfacet

 facet normal -0.957590 -0.090845 -0.273437
  outer loop
   vertex -81.097038 -35.662067 494.980255
   vertex -81.429893 -35.139977 495.972473
   vertex -81.096100 -35.512222 494.927185
  endloop
 endfacet

 facet normal 0.288301 -0.321125 -0.902087
  outer loop
   vertex -86.651314 -29.468042 512.373474
   vertex -86.650368 -29.318197 512.320435
   vertex -86.556892 -29.472944 512.405396
  endloop
 endfacet

 facet normal 0.288114 -0.321247 -0.902104
  outer loop
   vertex -86.556892 -29.472944 512.405396
   vertex -86.650368 -29.318197 512.320435
   vertex -86.570404 -29.250252 512.321777
  endloop
 endfacet

 facet normal 0.288093 -0.321251 -0.902109
  outer loop
   vertex -86.570404 -29.250252 512.321777
   vertex -85.764465 -29.173824 512.551941
   vertex -86.556892 -29.472944 512.405396
  endloop
 endfacet

 facet normal 0.005936 0.942628 -0.333791
  outer loop
   vertex -86.098267 -28.801579 513.597229
   vertex -85.764465 -29.173824 512.551941
   vertex -86.570404 -29.250252 512.321777
  endloop
 endfacet

 facet normal -0.573398 -0.812366 0.106191
  outer loop
   vertex -81.158432 -35.461540 495.345001
   vertex -81.047012 -35.532242 495.405762
   vertex -86.698196 -29.230139 513.102478
  endloop
 endfacet

 facet normal -0.957589 -0.090812 -0.273452
  outer loop
   vertex -86.698196 -29.230139 513.102478
   vertex -81.047012 -35.532242 495.405762
   vertex -81.053993 -36.642876 495.799042
  endloop
 endfacet

 facet normal -0.957589 -0.090813 -0.273452
  outer loop
   vertex -81.053993 -36.642876 495.799042
   vertex -86.705185 -30.340771 513.495789
   vertex -86.698196 -29.230139 513.102478
  endloop
 endfacet

 facet normal -0.563845 0.704529 -0.430950
  outer loop
   vertex -86.817627 -30.432701 513.492615
   vertex -86.705185 -30.340771 513.495789
   vertex -81.053993 -36.642876 495.799042
  endloop
 endfacet

 facet normal -0.005928 -0.942628 0.333793
  outer loop
   vertex -80.220062 -36.935463 495.713776
   vertex -80.553856 -36.563217 496.759064
   vertex -81.359795 -36.639641 496.528931
  endloop
 endfacet

 facet normal -0.288060 0.321287 0.902107
  outer loop
   vertex -81.359795 -36.639641 496.528931
   vertex -80.553856 -36.563217 496.759064
   vertex -81.343460 -36.414120 496.453827
  endloop
 endfacet

 facet normal -0.288204 0.321282 0.902062
  outer loop
   vertex -81.343460 -36.414120 496.453827
   vertex -81.438995 -36.586788 496.484802
   vertex -81.359795 -36.639641 496.528931
  endloop
 endfacet

 facet normal -0.288208 0.321284 0.902060
  outer loop
   vertex -81.438057 -36.436943 496.431732
   vertex -81.438995 -36.586788 496.484802
   vertex -81.343460 -36.414120 496.453827
  endloop
 endfacet

 facet normal 0.891693 -0.253472 0.375015
  outer loop
   vertex -81.018272 -36.792439 495.863708
   vertex -86.669464 -30.490334 513.560425
   vertex -81.030807 -36.825203 495.871368
  endloop
 endfacet

 facet normal 0.891875 -0.252996 0.374903
  outer loop
   vertex -81.030807 -36.825203 495.871368
   vertex -86.669464 -30.490334 513.560425
   vertex -86.681992 -30.523100 513.568115
  endloop
 endfacet

 facet normal -0.005909 -0.942626 0.333798
  outer loop
   vertex -86.681992 -30.523100 513.568115
   vertex -81.167091 -36.838127 495.832458
   vertex -81.030807 -36.825203 495.871368
  endloop
 endfacet

 facet normal -0.005978 -0.942633 0.333779
  outer loop
   vertex -86.818275 -30.536024 513.529175
   vertex -81.167091 -36.838127 495.832458
   vertex -86.681992 -30.523100 513.568115
  endloop
 endfacet

 facet normal -0.957589 -0.090756 -0.273472
  outer loop
   vertex -86.817627 -30.432701 513.492615
   vertex -81.167091 -36.838127 495.832458
   vertex -86.818275 -30.536024 513.529175
  endloop
 endfacet

 facet normal -0.957589 -0.090807 -0.273454
  outer loop
   vertex -79.479164 -37.095699 494.453430
   vertex -79.947342 -35.515247 495.568085
   vertex -79.472549 -36.044731 494.081268
  endloop
 endfacet

 facet normal 0.005934 0.942628 -0.333793
  outer loop
   vertex -79.472549 -36.044731 494.081268
   vertex -79.947342 -35.515247 495.568085
   vertex -77.996857 -35.904793 494.502686
  endloop
 endfacet

 facet normal 0.288082 -0.321239 -0.902117
  outer loop
   vertex -77.996857 -35.904793 494.502686
   vertex -78.003471 -36.955761 494.874817
   vertex -79.472549 -36.044731 494.081268
  endloop
 endfacet

 facet normal 0.957589 0.090800 0.273456
  outer loop
   vertex -78.471649 -35.375309 495.989502
   vertex -78.003471 -36.955761 494.874817
   vertex -77.996857 -35.904793 494.502686
  endloop
 endfacet

 facet normal 0.957591 0.090805 0.273449
  outer loop
   vertex -78.478264 -36.426277 496.361664
   vertex -78.003471 -36.955761 494.874817
   vertex -78.471649 -35.375309 495.989502
  endloop
 endfacet

 facet normal -0.288082 0.321262 0.902108
  outer loop
   vertex -78.471649 -35.375309 495.989502
   vertex -79.947342 -35.515247 495.568085
   vertex -78.478264 -36.426277 496.361664
  endloop
 endfacet

 facet normal -0.288082 0.321262 0.902108
  outer loop
   vertex -78.478264 -36.426277 496.361664
   vertex -79.947342 -35.515247 495.568085
   vertex -79.953957 -36.566216 495.940247
  endloop
 endfacet

 facet normal -0.957589 -0.090807 -0.273454
  outer loop
   vertex -79.953957 -36.566216 495.940247
   vertex -79.947342 -35.515247 495.568085
   vertex -79.479164 -37.095699 494.453430
  endloop
 endfacet

 facet normal -0.005927 -0.942627 0.333795
  outer loop
   vertex -79.479164 -37.095699 494.453430
   vertex -78.003471 -36.955761 494.874817
   vertex -79.953957 -36.566216 495.940247
  endloop
 endfacet

 facet normal 0.288065 -0.321263 -0.902113
  outer loop
   vertex -79.472549 -36.044731 494.081268
   vertex -78.003471 -36.955761 494.874817
   vertex -79.479164 -37.095699 494.453430
  endloop
 endfacet

 facet normal -0.005940 -0.942628 0.333791
  outer loop
   vertex -86.174927 -29.628695 515.421265
   vertex -85.700134 -30.158178 513.934448
   vertex -84.699242 -29.488756 515.842712
  endloop
 endfacet

 facet normal -0.005924 -0.942631 0.333784
  outer loop
   vertex -84.699242 -29.488756 515.842712
   vertex -85.700134 -30.158178 513.934448
   vertex -84.224442 -30.018240 514.355835
  endloop
 endfacet

 facet normal 0.957591 0.090812 0.273446
  outer loop
   vertex -84.224442 -30.018240 514.355835
   vertex -84.692627 -28.437786 515.470520
   vertex -84.699242 -29.488756 515.842712
  endloop
 endfacet

 facet normal 0.957588 0.090801 0.273460
  outer loop
   vertex -84.217827 -28.967270 513.983704
   vertex -84.692627 -28.437786 515.470520
   vertex -84.224442 -30.018240 514.355835
  endloop
 endfacet

 facet normal 0.005927 0.942627 -0.333795
  outer loop
   vertex -85.693520 -29.107208 513.562317
   vertex -84.692627 -28.437786 515.470520
   vertex -84.217827 -28.967270 513.983704
  endloop
 endfacet

 facet normal 0.288065 -0.321240 -0.902122
  outer loop
   vertex -84.217827 -28.967270 513.983704
   vertex -85.700134 -30.158178 513.934448
   vertex -85.693520 -29.107208 513.562317
  endloop
 endfacet

 facet normal -0.957588 -0.090801 -0.273460
  outer loop
   vertex -85.693520 -29.107208 513.562317
   vertex -85.700134 -30.158178 513.934448
   vertex -86.168320 -28.577724 515.049133
  endloop
 endfacet

 facet normal -0.957589 -0.090806 -0.273454
  outer loop
   vertex -86.168320 -28.577724 515.049133
   vertex -85.700134 -30.158178 513.934448
   vertex -86.174927 -29.628695 515.421265
  endloop
 endfacet

 facet normal -0.288065 0.321238 0.902122
  outer loop
   vertex -86.174927 -29.628695 515.421265
   vertex -84.692627 -28.437786 515.470520
   vertex -86.168320 -28.577724 515.049133
  endloop
 endfacet

 facet normal -0.288101 0.321283 0.902095
  outer loop
   vertex -84.699242 -29.488756 515.842712
   vertex -84.692627 -28.437786 515.470520
   vertex -86.174927 -29.628695 515.421265
  endloop
 endfacet

 facet normal 0.957586 0.090823 0.273461
  outer loop
   vertex -78.470764 -36.741173 493.053467
   vertex -78.571594 -36.628731 493.369202
   vertex -78.574554 -37.100044 493.536102
  endloop
 endfacet

 facet normal -0.957593 -0.090815 -0.273439
  outer loop
   vertex -78.574554 -37.100044 493.536102
   vertex -78.571594 -36.628731 493.369202
   vertex -78.522659 -36.920609 493.294769
  endloop
 endfacet

 facet normal -0.957592 -0.090818 -0.273441
  outer loop
   vertex -78.522659 -36.920609 493.294769
   vertex -78.473732 -37.212486 493.220367
   vertex -78.574554 -37.100044 493.536102
  endloop
 endfacet

 facet normal -0.957585 -0.090810 -0.273468
  outer loop
   vertex -78.470764 -36.741173 493.053467
   vertex -78.473732 -37.212486 493.220367
   vertex -78.522659 -36.920609 493.294769
  endloop
 endfacet

 facet normal 0.288063 -0.321268 -0.902112
  outer loop
   vertex -77.516144 -37.121677 493.493805
   vertex -78.473732 -37.212486 493.220367
   vertex -78.470764 -36.741173 493.053467
  endloop
 endfacet

 facet normal 0.288063 -0.321268 -0.902112
  outer loop
   vertex -78.470764 -36.741173 493.053467
   vertex -77.513176 -36.650364 493.326904
   vertex -77.516144 -37.121677 493.493805
  endloop
 endfacet

 facet normal 0.957591 0.090804 0.273450
  outer loop
   vertex -77.516144 -37.121677 493.493805
   vertex -77.513176 -36.650364 493.326904
   vertex -78.005867 -36.575542 495.027405
  endloop
 endfacet

 facet normal 0.957589 0.090818 0.273449
  outer loop
   vertex -78.005867 -36.575542 495.027405
   vertex -77.513176 -36.650364 493.326904
   vertex -78.002907 -36.104225 494.860504
  endloop
 endfacet

 facet normal -0.288089 0.321259 0.902107
  outer loop
   vertex -78.002907 -36.104225 494.860504
   vertex -78.960495 -36.195034 494.587036
   vertex -78.005867 -36.575542 495.027405
  endloop
 endfacet

 facet normal 0.005935 0.942627 -0.333795
  outer loop
   vertex -78.600975 -36.306293 494.279236
   vertex -78.960495 -36.195034 494.587036
   vertex -78.002907 -36.104225 494.860504
  endloop
 endfacet

 facet normal 0.005943 0.942630 -0.333788
  outer loop
   vertex -78.859665 -36.307472 494.271301
   vertex -78.960495 -36.195034 494.587036
   vertex -78.600975 -36.306293 494.279236
  endloop
 endfacet

 facet normal -0.005937 -0.942639 0.333762
  outer loop
   vertex -85.389885 -29.210037 515.696411
   vertex -85.509155 -29.366699 515.251831
   vertex -84.551567 -29.275892 515.525330
  endloop
 endfacet

 facet normal 0.288114 -0.321311 -0.902081
  outer loop
   vertex -84.551567 -29.275892 515.525330
   vertex -85.509155 -29.366699 515.251831
   vertex -84.548607 -28.804579 515.358398
  endloop
 endfacet

 facet normal 0.957588 0.090836 0.273448
  outer loop
   vertex -84.548607 -28.804579 515.358398
   vertex -85.041298 -28.729755 517.058899
   vertex -84.551567 -29.275892 515.525330
  endloop
 endfacet

 facet normal 0.957589 0.090821 0.273449
  outer loop
   vertex -85.038330 -28.258440 516.891968
   vertex -85.041298 -28.729755 517.058899
   vertex -84.548607 -28.804579 515.358398
  endloop
 endfacet

 facet normal -0.288062 0.321319 0.902095
  outer loop
   vertex -85.998886 -28.820562 516.785461
   vertex -85.041298 -28.729755 517.058899
   vertex -85.038330 -28.258440 516.891968
  endloop
 endfacet

 facet normal -0.288060 0.321315 0.902097
  outer loop
   vertex -85.038330 -28.258440 516.891968
   vertex -85.995926 -28.349247 516.618530
   vertex -85.998886 -28.820562 516.785461
  endloop
 endfacet

 facet normal -0.957586 -0.090839 -0.273456
  outer loop
   vertex -85.998886 -28.820562 516.785461
   vertex -85.995926 -28.349247 516.618530
   vertex -85.946991 -28.641125 516.544128
  endloop
 endfacet

 facet normal -0.957586 -0.090839 -0.273455
  outer loop
   vertex -85.946991 -28.641125 516.544128
   vertex -85.995926 -28.349247 516.618530
   vertex -85.895096 -28.461689 516.302795
  endloop
 endfacet

 facet normal -0.957592 -0.090818 -0.273441
  outer loop
   vertex -85.895096 -28.461689 516.302795
   vertex -85.898064 -28.933002 516.469727
   vertex -85.946991 -28.641125 516.544128
  endloop
 endfacet

 facet normal 0.957592 0.090818 0.273442
  outer loop
   vertex -85.998886 -28.820562 516.785461
   vertex -85.898064 -28.933002 516.469727
   vertex -85.895096 -28.461689 516.302795
  endloop
 endfacet

 facet normal -0.957592 -0.090818 -0.273442
  outer loop
   vertex -85.946991 -28.641125 516.544128
   vertex -85.898064 -28.933002 516.469727
   vertex -85.998886 -28.820562 516.785461
  endloop
 endfacet

 facet normal -0.957590 -0.090899 -0.273421
  outer loop
   vertex -86.809616 -29.159437 513.041748
   vertex -86.808968 -29.056114 513.005127
   vertex -81.157784 -35.358219 495.308411
  endloop
 endfacet

 facet normal 0.005990 0.942634 -0.333775
  outer loop
   vertex -81.157784 -35.358219 495.308411
   vertex -86.808968 -29.056114 513.005127
   vertex -86.672684 -29.043192 513.044067
  endloop
 endfacet

 facet normal 0.005909 0.942626 -0.333798
  outer loop
   vertex -86.672684 -29.043192 513.044067
   vertex -81.021500 -35.345295 495.347321
   vertex -81.157784 -35.358219 495.308411
  endloop
 endfacet

 facet normal 0.895967 0.422948 0.135494
  outer loop
   vertex -86.660545 -29.073618 513.058777
   vertex -81.021500 -35.345295 495.347321
   vertex -86.672684 -29.043192 513.044067
  endloop
 endfacet

 facet normal 0.895967 0.422948 0.135494
  outer loop
   vertex -81.009361 -35.375721 495.362030
   vertex -81.021500 -35.345295 495.347321
   vertex -86.660545 -29.073618 513.058777
  endloop
 endfacet

 facet normal 0.005939 0.942629 -0.333789
  outer loop
   vertex -86.660545 -29.073618 513.058777
   vertex -86.073036 -29.017906 513.226562
   vertex -81.009361 -35.375721 495.362030
  endloop
 endfacet

 facet normal 0.005937 0.942629 -0.333790
  outer loop
   vertex -81.009361 -35.375721 495.362030
   vertex -86.073036 -29.017906 513.226562
   vertex -80.421852 -35.320007 495.529816
  endloop
 endfacet

 facet normal -0.891813 0.253157 -0.374940
  outer loop
   vertex -80.421852 -35.320007 495.529816
   vertex -86.073036 -29.017906 513.226562
   vertex -86.060501 -28.985138 513.218872
  endloop
 endfacet

 facet normal -0.891693 0.253472 -0.375015
  outer loop
   vertex -86.060501 -28.985138 513.218872
   vertex -80.409317 -35.287243 495.522156
   vertex -80.421852 -35.320007 495.529816
  endloop
 endfacet

 facet normal 0.005826 0.942618 -0.333822
  outer loop
   vertex -85.992882 -28.978725 513.238159
   vertex -80.409317 -35.287243 495.522156
   vertex -86.060501 -28.985138 513.218872
  endloop
 endfacet

 facet normal 0.005826 0.942618 -0.333822
  outer loop
   vertex -80.341698 -35.280830 495.541443
   vertex -80.409317 -35.287243 495.522156
   vertex -85.992882 -28.978725 513.238159
  endloop
 endfacet

 facet normal 0.957589 0.090809 0.273453
  outer loop
   vertex -85.992882 -28.978725 513.238159
   vertex -86.002190 -30.458635 513.762207
   vertex -80.341698 -35.280830 495.541443
  endloop
 endfacet

 facet normal 0.957589 0.090809 0.273453
  outer loop
   vertex -80.341698 -35.280830 495.541443
   vertex -86.002190 -30.458635 513.762207
   vertex -80.351006 -36.760738 496.065491
  endloop
 endfacet

 facet normal -0.005964 -0.942631 0.333783
  outer loop
   vertex -80.351006 -36.760738 496.065491
   vertex -86.002190 -30.458635 513.762207
   vertex -80.418625 -36.767151 496.046173
  endloop
 endfacet

 facet normal -0.005938 -0.942628 0.333792
  outer loop
   vertex -78.603935 -36.777607 494.446136
   vertex -78.005867 -36.575542 495.027405
   vertex -78.963463 -36.666348 494.753937
  endloop
 endfacet

 facet normal -0.288086 0.321266 0.902106
  outer loop
   vertex -78.963463 -36.666348 494.753937
   vertex -78.005867 -36.575542 495.027405
   vertex -78.960495 -36.195034 494.587036
  endloop
 endfacet

 facet normal -0.957586 -0.090809 -0.273466
  outer loop
   vertex -78.960495 -36.195034 494.587036
   vertex -78.862633 -36.778790 494.438202
   vertex -78.963463 -36.666348 494.753937
  endloop
 endfacet

 facet normal -0.957585 -0.090809 -0.273467
  outer loop
   vertex -78.859665 -36.307472 494.271301
   vertex -78.862633 -36.778790 494.438202
   vertex -78.960495 -36.195034 494.587036
  endloop
 endfacet

 facet normal 0.957585 0.090809 0.273467
  outer loop
   vertex -78.960495 -36.195034 494.587036
   vertex -78.862633 -36.778790 494.438202
   vertex -78.859665 -36.307472 494.271301
  endloop
 endfacet

 facet normal 0.005912 0.942627 -0.333796
  outer loop
   vertex -78.859665 -36.307472 494.271301
   vertex -79.079765 -36.351696 494.142517
   vertex -78.960495 -36.195034 494.587036
  endloop
 endfacet

 facet normal 0.005924 0.942626 -0.333799
  outer loop
   vertex -78.960495 -36.195034 494.587036
   vertex -79.079765 -36.351696 494.142517
   vertex -79.334663 -36.270210 494.368103
  endloop
 endfacet

 facet normal 0.005937 0.942630 -0.333786
  outer loop
   vertex -79.334663 -36.270210 494.368103
   vertex -79.079765 -36.351696 494.142517
   vertex -79.202293 -36.427109 493.927368
  endloop
 endfacet

 facet normal 0.005929 0.942629 -0.333789
  outer loop
   vertex -79.202293 -36.427109 493.927368
   vertex -79.542961 -36.398415 494.002350
   vertex -79.334663 -36.270210 494.368103
  endloop
 endfacet

 facet normal 0.005924 0.942621 -0.333811
  outer loop
   vertex -79.194427 -36.513508 493.683533
   vertex -79.542961 -36.398415 494.002350
   vertex -79.202293 -36.427109 493.927368
  endloop
 endfacet

 facet normal 0.005934 0.942625 -0.333801
  outer loop
   vertex -79.529579 -36.545288 493.587830
   vertex -79.542961 -36.398415 494.002350
   vertex -79.194427 -36.513508 493.683533
  endloop
 endfacet

 facet normal 0.005928 0.942632 -0.333782
  outer loop
   vertex -79.194427 -36.513508 493.683533
   vertex -79.058258 -36.587738 493.476318
   vertex -79.529579 -36.545288 493.587830
  endloop
 endfacet

 facet normal 0.005926 0.942629 -0.333790
  outer loop
   vertex -79.529579 -36.545288 493.587830
   vertex -79.058258 -36.587738 493.476318
   vertex -79.298103 -36.671482 493.235565
  endloop
 endfacet

 facet normal 0.005931 0.942627 -0.333794
  outer loop
   vertex -79.298103 -36.671482 493.235565
   vertex -79.058258 -36.587738 493.476318
   vertex -78.830284 -36.629913 493.361267
  endloop
 endfacet

 facet normal 0.005931 0.942628 -0.333792
  outer loop
   vertex -78.830284 -36.629913 493.361267
   vertex -78.910545 -36.743179 493.039978
   vertex -79.298103 -36.671482 493.235565
  endloop
 endfacet

 facet normal 0.005929 0.942628 -0.333792
  outer loop
   vertex -78.571594 -36.628731 493.369202
   vertex -78.910545 -36.743179 493.039978
   vertex -78.830284 -36.629913 493.361267
  endloop
 endfacet

 facet normal 0.005937 0.942625 -0.333799
  outer loop
   vertex -78.470764 -36.741173 493.053467
   vertex -78.910545 -36.743179 493.039978
   vertex -78.571594 -36.628731 493.369202
  endloop
 endfacet

 facet normal 0.005931 0.942625 -0.333801
  outer loop
   vertex -78.571594 -36.628731 493.369202
   vertex -78.351494 -36.584511 493.497986
   vertex -78.470764 -36.741173 493.053467
  endloop
 endfacet

 facet normal 0.005926 0.942625 -0.333800
  outer loop
   vertex -78.470764 -36.741173 493.053467
   vertex -78.351494 -36.584511 493.497986
   vertex -77.513176 -36.650364 493.326904
  endloop
 endfacet

 facet normal 0.005930 0.942631 -0.333783
  outer loop
   vertex -77.513176 -36.650364 493.326904
   vertex -78.351494 -36.584511 493.497986
   vertex -78.228966 -36.509098 493.713135
  endloop
 endfacet

 facet normal 0.005912 0.942621 -0.333812
  outer loop
   vertex -78.228966 -36.509098 493.713135
   vertex -78.236832 -36.422699 493.956970
   vertex -77.513176 -36.650364 493.326904
  endloop
 endfacet

 facet normal 0.005928 0.942625 -0.333800
  outer loop
   vertex -85.386917 -28.738724 515.529480
   vertex -84.548607 -28.804579 515.358398
   vertex -85.506195 -28.895386 515.084961
  endloop
 endfacet

 facet normal 0.288062 -0.321212 -0.902132
  outer loop
   vertex -85.506195 -28.895386 515.084961
   vertex -84.548607 -28.804579 515.358398
   vertex -85.509155 -29.366699 515.251831
  endloop
 endfacet

 facet normal -0.957591 -0.090801 -0.273448
  outer loop
   vertex -85.509155 -29.366699 515.251831
   vertex -85.607018 -28.782946 515.400696
   vertex -85.506195 -28.895386 515.084961
  endloop
 endfacet

 facet normal -0.957585 -0.090794 -0.273472
  outer loop
   vertex -85.609985 -29.254259 515.567566
   vertex -85.607018 -28.782946 515.400696
   vertex -85.509155 -29.366699 515.251831
  endloop
 endfacet

 facet normal 0.957585 0.090794 0.273472
  outer loop
   vertex -85.509155 -29.366699 515.251831
   vertex -85.607018 -28.782946 515.400696
   vertex -85.609985 -29.254259 515.567566
  endloop
 endfacet

 facet normal -0.005929 -0.942627 0.333797
  outer loop
   vertex -85.609985 -29.254259 515.567566
   vertex -85.868683 -29.255442 515.559631
   vertex -85.509155 -29.366699 515.251831
  endloop
 endfacet

 facet normal -0.005933 -0.942628 0.333792
  outer loop
   vertex -85.509155 -29.366699 515.251831
   vertex -85.868683 -29.255442 515.559631
   vertex -85.948936 -29.368708 515.238342
  endloop
 endfacet

 facet normal -0.005932 -0.942628 0.333792
  outer loop
   vertex -85.948936 -29.368708 515.238342
   vertex -85.868683 -29.255442 515.559631
   vertex -86.096649 -29.213266 515.674683
  endloop
 endfacet

 facet normal -0.005898 -0.942625 0.333803
  outer loop
   vertex -86.096649 -29.213266 515.674683
   vertex -86.336494 -29.297010 515.433960
   vertex -85.948936 -29.368708 515.238342
  endloop
 endfacet

 facet normal -0.005902 -0.942623 0.333806
  outer loop
   vertex -86.232819 -29.139034 515.881897
   vertex -86.336494 -29.297010 515.433960
   vertex -86.096649 -29.213266 515.674683
  endloop
 endfacet

 facet normal -0.005932 -0.942621 0.333812
  outer loop
   vertex -86.567978 -29.170816 515.786194
   vertex -86.336494 -29.297010 515.433960
   vertex -86.232819 -29.139034 515.881897
  endloop
 endfacet

 facet normal -0.005930 -0.942624 0.333804
  outer loop
   vertex -86.232819 -29.139034 515.881897
   vertex -86.240692 -29.052637 516.125732
   vertex -86.567978 -29.170816 515.786194
  endloop
 endfacet

 facet normal -0.005906 -0.942631 0.333784
  outer loop
   vertex -86.567978 -29.170816 515.786194
   vertex -86.240692 -29.052637 516.125732
   vertex -86.581360 -29.023941 516.200745
  endloop
 endfacet

 facet normal -0.005909 -0.942635 0.333772
  outer loop
   vertex -86.581360 -29.023941 516.200745
   vertex -86.240692 -29.052637 516.125732
   vertex -86.118164 -28.977224 516.340881
  endloop
 endfacet

 facet normal -0.005920 -0.942624 0.333804
  outer loop
   vertex -86.118164 -28.977224 516.340881
   vertex -86.373055 -28.895739 516.566467
   vertex -86.581360 -29.023941 516.200745
  endloop
 endfacet

 facet normal -0.005979 -0.942644 0.333745
  outer loop
   vertex -85.898064 -28.933002 516.469727
   vertex -86.373055 -28.895739 516.566467
   vertex -86.118164 -28.977224 516.340881
  endloop
 endfacet

 facet normal -0.005969 -0.942630 0.333785
  outer loop
   vertex -85.998886 -28.820562 516.785461
   vertex -86.373055 -28.895739 516.566467
   vertex -85.898064 -28.933002 516.469727
  endloop
 endfacet

 facet normal -0.005929 -0.942626 0.333797
  outer loop
   vertex -85.898064 -28.933002 516.469727
   vertex -85.639366 -28.931820 516.477661
   vertex -85.998886 -28.820562 516.785461
  endloop
 endfacet

 facet normal -0.005927 -0.942626 0.333798
  outer loop
   vertex -85.998886 -28.820562 516.785461
   vertex -85.639366 -28.931820 516.477661
   vertex -85.041298 -28.729755 517.058899
  endloop
 endfacet

 facet normal -0.005928 -0.942626 0.333799
  outer loop
   vertex -85.041298 -28.729755 517.058899
   vertex -85.639366 -28.931820 516.477661
   vertex -85.411392 -28.973995 516.362610
  endloop
 endfacet

 facet normal -0.005920 -0.942627 0.333795
  outer loop
   vertex -85.411392 -28.973995 516.362610
   vertex -85.275230 -29.048227 516.155396
   vertex -85.041298 -28.729755 517.058899
  endloop
 endfacet

 facet normal 0.441371 0.880561 -0.172637
  outer loop
   vertex -86.098267 -28.801579 513.597229
   vertex -85.629326 -28.993851 513.815430
   vertex -85.764465 -29.173824 512.551941
  endloop
 endfacet

 facet normal 0.441377 0.880558 -0.172637
  outer loop
   vertex -85.764465 -29.173824 512.551941
   vertex -85.629326 -28.993851 513.815430
   vertex -85.295532 -29.366096 512.770142
  endloop
 endfacet

 facet normal 0.288050 -0.321251 -0.902122
  outer loop
   vertex -85.295532 -29.366096 512.770142
   vertex -85.302414 -30.459946 513.157471
   vertex -85.764465 -29.173824 512.551941
  endloop
 endfacet

 facet normal 0.957590 0.090804 0.273452
  outer loop
   vertex -85.629326 -28.993851 513.815430
   vertex -85.302414 -30.459946 513.157471
   vertex -85.295532 -29.366096 512.770142
  endloop
 endfacet

 facet normal 0.957590 0.090804 0.273452
  outer loop
   vertex -85.636208 -30.087700 514.202759
   vertex -85.302414 -30.459946 513.157471
   vertex -85.629326 -28.993851 513.815430
  endloop
 endfacet

 facet normal -0.288103 0.321246 0.902107
  outer loop
   vertex -85.629326 -28.993851 513.815430
   vertex -86.108131 -30.369190 514.152283
   vertex -85.636208 -30.087700 514.202759
  endloop
 endfacet

 facet normal 0.430799 -0.797860 0.421700
  outer loop
   vertex -85.636208 -30.087700 514.202759
   vertex -86.108131 -30.369190 514.152283
   vertex -85.302414 -30.459946 513.157471
  endloop
 endfacet

 facet normal 0.430803 -0.797857 0.421703
  outer loop
   vertex -85.302414 -30.459946 513.157471
   vertex -86.108131 -30.369190 514.152283
   vertex -85.774330 -30.741436 513.106995
  endloop
 endfacet

 facet normal 0.288099 -0.321230 -0.902114
  outer loop
   vertex -85.774330 -30.741436 513.106995
   vertex -85.764465 -29.173824 512.551941
   vertex -85.302414 -30.459946 513.157471
  endloop
 endfacet

 facet normal 0.288076 -0.321232 -0.902121
  outer loop
   vertex -86.563934 -30.592340 512.801758
   vertex -85.764465 -29.173824 512.551941
   vertex -85.774330 -30.741436 513.106995
  endloop
 endfacet

 facet normal 0.288089 -0.321238 -0.902115
  outer loop
   vertex -86.556892 -29.472944 512.405396
   vertex -85.764465 -29.173824 512.551941
   vertex -86.563934 -30.592340 512.801758
  endloop
 endfacet

 facet normal -0.957590 -0.090802 -0.273453
  outer loop
   vertex -86.563934 -30.592340 512.801758
   vertex -86.890686 -29.100698 513.450684
   vertex -86.556892 -29.472944 512.405396
  endloop
 endfacet

 facet normal -0.147077 -0.945713 0.289819
  outer loop
   vertex -86.556892 -29.472944 512.405396
   vertex -86.890686 -29.100698 513.450684
   vertex -86.651314 -29.468042 512.373474
  endloop
 endfacet

 facet normal -0.147077 -0.945713 0.289819
  outer loop
   vertex -86.651314 -29.468042 512.373474
   vertex -86.890686 -29.100698 513.450684
   vertex -86.985107 -29.095797 513.418762
  endloop
 endfacet

 facet normal -0.957590 -0.090752 -0.273470
  outer loop
   vertex -86.985107 -29.095797 513.418762
   vertex -86.650368 -29.318197 512.320435
   vertex -86.651314 -29.468042 512.373474
  endloop
 endfacet

 facet normal -0.957588 -0.090798 -0.273461
  outer loop
   vertex -86.984169 -28.945951 513.365723
   vertex -86.650368 -29.318197 512.320435
   vertex -86.985107 -29.095797 513.418762
  endloop
 endfacet

 facet normal -0.579942 0.691111 -0.431315
  outer loop
   vertex -86.904198 -28.878006 513.367065
   vertex -86.650368 -29.318197 512.320435
   vertex -86.984169 -28.945951 513.365723
  endloop
 endfacet

 facet normal -0.288089 0.321251 0.902110
  outer loop
   vertex -86.984169 -28.945951 513.365723
   vertex -86.890686 -29.100698 513.450684
   vertex -86.904198 -28.878006 513.367065
  endloop
 endfacet

 facet normal -0.288095 0.321250 0.902108
  outer loop
   vertex -86.904198 -28.878006 513.367065
   vertex -86.890686 -29.100698 513.450684
   vertex -86.098267 -28.801579 513.597229
  endloop
 endfacet

 facet normal -0.288092 0.321238 0.902114
  outer loop
   vertex -86.098267 -28.801579 513.597229
   vertex -86.890686 -29.100698 513.450684
   vertex -86.897728 -30.220095 513.847046
  endloop
 endfacet

 facet normal -0.288079 0.321232 0.902120
  outer loop
   vertex -86.897728 -30.220095 513.847046
   vertex -86.108131 -30.369190 514.152283
   vertex -86.098267 -28.801579 513.597229
  endloop
 endfacet

 facet normal -0.288031 0.321397 0.902077
  outer loop
   vertex -86.914062 -30.445616 513.922180
   vertex -86.108131 -30.369190 514.152283
   vertex -86.897728 -30.220095 513.847046
  endloop
 endfacet

 facet normal -0.005915 -0.942626 0.333797
  outer loop
   vertex -85.774330 -30.741436 513.106995
   vertex -86.108131 -30.369190 514.152283
   vertex -86.914062 -30.445616 513.922180
  endloop
 endfacet

 facet normal -0.005915 -0.942626 0.333797
  outer loop
   vertex -86.914062 -30.445616 513.922180
   vertex -86.580261 -30.817862 512.876892
   vertex -85.774330 -30.741436 513.106995
  endloop
 endfacet

 facet normal 0.288031 -0.321388 -0.902080
  outer loop
   vertex -85.774330 -30.741436 513.106995
   vertex -86.580261 -30.817862 512.876892
   vertex -86.563934 -30.592340 512.801758
  endloop
 endfacet

 facet normal 0.288104 -0.321386 -0.902057
  outer loop
   vertex -86.563934 -30.592340 512.801758
   vertex -86.580261 -30.817862 512.876892
   vertex -86.659470 -30.765009 512.832764
  endloop
 endfacet

 facet normal 0.287650 -0.321174 -0.902278
  outer loop
   vertex -86.659470 -30.765009 512.832764
   vertex -86.658531 -30.615164 512.779724
   vertex -86.563934 -30.592340 512.801758
  endloop
 endfacet

 facet normal -0.957590 -0.090796 -0.273455
  outer loop
   vertex -86.992325 -30.242918 513.825012
   vertex -86.658531 -30.615164 512.779724
   vertex -86.659470 -30.765009 512.832764
  endloop
 endfacet

 facet normal -0.135412 0.918915 -0.370484
  outer loop
   vertex -86.563934 -30.592340 512.801758
   vertex -86.658531 -30.615164 512.779724
   vertex -86.992325 -30.242918 513.825012
  endloop
 endfacet

 facet normal -0.135412 0.918915 -0.370484
  outer loop
   vertex -86.992325 -30.242918 513.825012
   vertex -86.897728 -30.220095 513.847046
   vertex -86.563934 -30.592340 512.801758
  endloop
 endfacet

 facet normal -0.957590 -0.090802 -0.273453
  outer loop
   vertex -86.563934 -30.592340 512.801758
   vertex -86.897728 -30.220095 513.847046
   vertex -86.890686 -29.100698 513.450684
  endloop
 endfacet

 facet normal 0.430819 -0.797849 0.421702
  outer loop
   vertex -80.220062 -36.935463 495.713776
   vertex -79.748138 -36.653973 495.764221
   vertex -80.553856 -36.563217 496.759064
  endloop
 endfacet

 facet normal 0.430823 -0.797845 0.421705
  outer loop
   vertex -80.553856 -36.563217 496.759064
   vertex -79.748138 -36.653973 495.764221
   vertex -80.081940 -36.281727 496.809509
  endloop
 endfacet

 facet normal -0.288053 0.321250 0.902122
  outer loop
   vertex -80.081940 -36.281727 496.809509
   vertex -80.075058 -35.187874 496.422180
   vertex -80.553856 -36.563217 496.759064
  endloop
 endfacet

 facet normal 0.957588 0.090806 0.273458
  outer loop
   vertex -79.748138 -36.653973 495.764221
   vertex -80.075058 -35.187874 496.422180
   vertex -80.081940 -36.281727 496.809509
  endloop
 endfacet

 facet normal 0.957588 0.090806 0.273458
  outer loop
   vertex -79.741257 -35.560120 495.376892
   vertex -80.075058 -35.187874 496.422180
   vertex -79.748138 -36.653973 495.764221
  endloop
 endfacet

 facet normal 0.288102 -0.321245 -0.902108
  outer loop
   vertex -79.748138 -36.653973 495.764221
   vertex -80.210197 -35.367851 495.158661
   vertex -79.741257 -35.560120 495.376892
  endloop
 endfacet

 facet normal 0.441374 0.880560 -0.172635
  outer loop
   vertex -79.741257 -35.560120 495.376892
   vertex -80.210197 -35.367851 495.158661
   vertex -80.075058 -35.187874 496.422180
  endloop
 endfacet

 facet normal 0.441380 0.880557 -0.172635
  outer loop
   vertex -80.075058 -35.187874 496.422180
   vertex -80.210197 -35.367851 495.158661
   vertex -80.543991 -34.995605 496.203949
  endloop
 endfacet

 facet normal -0.288098 0.321261 0.902103
  outer loop
   vertex -80.543991 -34.995605 496.203949
   vertex -80.553856 -36.563217 496.759064
   vertex -80.075058 -35.187874 496.422180
  endloop
 endfacet

 facet normal -0.288063 0.321265 0.902113
  outer loop
   vertex -81.336418 -35.294724 496.057434
   vertex -80.553856 -36.563217 496.759064
   vertex -80.543991 -34.995605 496.203949
  endloop
 endfacet

 facet normal -0.288067 0.321262 0.902113
  outer loop
   vertex -81.343460 -36.414120 496.453827
   vertex -80.553856 -36.563217 496.759064
   vertex -81.336418 -35.294724 496.057434
  endloop
 endfacet

 facet normal -0.957590 -0.090808 -0.273450
  outer loop
   vertex -81.336418 -35.294724 496.057434
   vertex -81.009666 -36.786366 495.408539
   vertex -81.343460 -36.414120 496.453827
  endloop
 endfacet

 facet normal -0.135198 0.918967 -0.370434
  outer loop
   vertex -81.343460 -36.414120 496.453827
   vertex -81.009666 -36.786366 495.408539
   vertex -81.438057 -36.436943 496.431732
  endloop
 endfacet

 facet normal -0.135207 0.918965 -0.370437
  outer loop
   vertex -81.438057 -36.436943 496.431732
   vertex -81.009666 -36.786366 495.408539
   vertex -81.104256 -36.809189 495.386444
  endloop
 endfacet

 facet normal -0.957588 -0.090847 -0.273443
  outer loop
   vertex -81.104256 -36.809189 495.386444
   vertex -81.438995 -36.586788 496.484802
   vertex -81.438057 -36.436943 496.431732
  endloop
 endfacet

 facet normal -0.957590 -0.090802 -0.273453
  outer loop
   vertex -81.105202 -36.959034 495.439514
   vertex -81.438995 -36.586788 496.484802
   vertex -81.104256 -36.809189 495.386444
  endloop
 endfacet

 facet normal -0.589377 -0.801966 0.097388
  outer loop
   vertex -81.025993 -37.011887 495.483643
   vertex -81.438995 -36.586788 496.484802
   vertex -81.105202 -36.959034 495.439514
  endloop
 endfacet

 facet normal 0.288186 -0.321274 -0.902071
  outer loop
   vertex -81.105202 -36.959034 495.439514
   vertex -81.009666 -36.786366 495.408539
   vertex -81.025993 -37.011887 495.483643
  endloop
 endfacet

 facet normal 0.288062 -0.321278 -0.902109
  outer loop
   vertex -81.025993 -37.011887 495.483643
   vertex -81.009666 -36.786366 495.408539
   vertex -80.220062 -36.935463 495.713776
  endloop
 endfacet

 facet normal 0.288066 -0.321264 -0.902113
  outer loop
   vertex -80.220062 -36.935463 495.713776
   vertex -81.009666 -36.786366 495.408539
   vertex -81.002617 -35.666969 495.012146
  endloop
 endfacet

 facet normal 0.288066 -0.321264 -0.902113
  outer loop
   vertex -81.002617 -35.666969 495.012146
   vertex -80.210197 -35.367851 495.158661
   vertex -80.220062 -36.935463 495.713776
  endloop
 endfacet

 facet normal 0.288062 -0.321253 -0.902118
  outer loop
   vertex -81.016129 -35.444275 494.928528
   vertex -80.210197 -35.367851 495.158661
   vertex -81.002617 -35.666969 495.012146
  endloop
 endfacet

 facet normal 0.005928 0.942628 -0.333793
  outer loop
   vertex -80.543991 -34.995605 496.203949
   vertex -80.210197 -35.367851 495.158661
   vertex -81.016129 -35.444275 494.928528
  endloop
 endfacet

 facet normal 0.005928 0.942628 -0.333793
  outer loop
   vertex -81.016129 -35.444275 494.928528
   vertex -81.349930 -35.072029 495.973816
   vertex -80.543991 -34.995605 496.203949
  endloop
 endfacet

 facet normal -0.288060 0.321253 0.902118
  outer loop
   vertex -80.543991 -34.995605 496.203949
   vertex -81.349930 -35.072029 495.973816
   vertex -81.336418 -35.294724 496.057434
  endloop
 endfacet

 facet normal -0.288118 0.321244 0.902103
  outer loop
   vertex -81.336418 -35.294724 496.057434
   vertex -81.349930 -35.072029 495.973816
   vertex -81.429893 -35.139977 495.972473
  endloop
 endfacet

 facet normal -0.288008 0.321316 0.902113
  outer loop
   vertex -81.429893 -35.139977 495.972473
   vertex -81.430840 -35.289822 496.025543
   vertex -81.336418 -35.294724 496.057434
  endloop
 endfacet

 facet normal -0.957588 -0.090804 -0.273458
  outer loop
   vertex -81.097038 -35.662067 494.980255
   vertex -81.430840 -35.289822 496.025543
   vertex -81.429893 -35.139977 495.972473
  endloop
 endfacet

 facet normal -0.146993 -0.945718 0.289847
  outer loop
   vertex -81.336418 -35.294724 496.057434
   vertex -81.430840 -35.289822 496.025543
   vertex -81.097038 -35.662067 494.980255
  endloop
 endfacet

 facet normal -0.146993 -0.945718 0.289847
  outer loop
   vertex -81.097038 -35.662067 494.980255
   vertex -81.002617 -35.666969 495.012146
   vertex -81.336418 -35.294724 496.057434
  endloop
 endfacet

 facet normal -0.957588 -0.090805 -0.273458
  outer loop
   vertex -81.336418 -35.294724 496.057434
   vertex -81.002617 -35.666969 495.012146
   vertex -81.009666 -36.786366 495.408539
  endloop
 endfacet

 facet normal 0.005936 0.942627 -0.333795
  outer loop
   vertex -85.607018 -28.782946 515.400696
   vertex -85.506195 -28.895386 515.084961
   vertex -85.865715 -28.784126 515.392761
  endloop
 endfacet

 facet normal 0.005933 0.942626 -0.333798
  outer loop
   vertex -85.865715 -28.784126 515.392761
   vertex -85.506195 -28.895386 515.084961
   vertex -85.945976 -28.897394 515.071472
  endloop
 endfacet

 facet normal 0.005930 0.942626 -0.333797
  outer loop
   vertex -85.945976 -28.897394 515.071472
   vertex -86.093689 -28.741951 515.507812
   vertex -85.865715 -28.784126 515.392761
  endloop
 endfacet

 facet normal 0.005965 0.942630 -0.333786
  outer loop
   vertex -86.333527 -28.825695 515.267029
   vertex -86.093689 -28.741951 515.507812
   vertex -85.945976 -28.897394 515.071472
  endloop
 endfacet

 facet normal 0.005948 0.942635 -0.333771
  outer loop
   vertex -86.229851 -28.667721 515.715027
   vertex -86.093689 -28.741951 515.507812
   vertex -86.333527 -28.825695 515.267029
  endloop
 endfacet

 facet normal 0.005917 0.942638 -0.333765
  outer loop
   vertex -86.333527 -28.825695 515.267029
   vertex -86.565010 -28.699503 515.619324
   vertex -86.229851 -28.667721 515.715027
  endloop
 endfacet

 facet normal 0.005930 0.942624 -0.333804
  outer loop
   vertex -86.229851 -28.667721 515.715027
   vertex -86.565010 -28.699503 515.619324
   vertex -86.237724 -28.581324 515.958862
  endloop
 endfacet

 facet normal 0.005906 0.942631 -0.333784
  outer loop
   vertex -86.237724 -28.581324 515.958862
   vertex -86.565010 -28.699503 515.619324
   vertex -86.578392 -28.552628 516.033875
  endloop
 endfacet

 facet normal 0.005907 0.942633 -0.333779
  outer loop
   vertex -86.578392 -28.552628 516.033875
   vertex -86.115196 -28.505909 516.174011
   vertex -86.237724 -28.581324 515.958862
  endloop
 endfacet

 facet normal 0.005915 0.942625 -0.333802
  outer loop
   vertex -86.370094 -28.424425 516.399597
   vertex -86.115196 -28.505909 516.174011
   vertex -86.578392 -28.552628 516.033875
  endloop
 endfacet

 facet normal 0.005925 0.942628 -0.333792
  outer loop
   vertex -85.895096 -28.461689 516.302795
   vertex -86.115196 -28.505909 516.174011
   vertex -86.370094 -28.424425 516.399597
  endloop
 endfacet

 facet normal 0.005922 0.942624 -0.333804
  outer loop
   vertex -86.370094 -28.424425 516.399597
   vertex -85.995926 -28.349247 516.618530
   vertex -85.895096 -28.461689 516.302795
  endloop
 endfacet

 facet normal 0.005929 0.942625 -0.333802
  outer loop
   vertex -85.895096 -28.461689 516.302795
   vertex -85.995926 -28.349247 516.618530
   vertex -85.636398 -28.460506 516.310730
  endloop
 endfacet

 facet normal 0.005929 0.942625 -0.333802
  outer loop
   vertex -85.636398 -28.460506 516.310730
   vertex -85.995926 -28.349247 516.618530
   vertex -85.038330 -28.258440 516.891968
  endloop
 endfacet

 facet normal 0.005927 0.942625 -0.333801
  outer loop
   vertex -85.038330 -28.258440 516.891968
   vertex -85.408424 -28.502682 516.195679
   vertex -85.636398 -28.460506 516.310730
  endloop
 endfacet

 facet normal 0.005918 0.942627 -0.333796
  outer loop
   vertex -85.272263 -28.576914 515.988464
   vertex -85.408424 -28.502682 516.195679
   vertex -85.038330 -28.258440 516.891968
  endloop
 endfacet

 facet normal -0.005931 -0.942625 0.333801
  outer loop
   vertex -78.862633 -36.778790 494.438202
   vertex -78.963463 -36.666348 494.753937
   vertex -79.082733 -36.823009 494.309418
  endloop
 endfacet

 facet normal -0.005924 -0.942626 0.333799
  outer loop
   vertex -79.082733 -36.823009 494.309418
   vertex -78.963463 -36.666348 494.753937
   vertex -79.337631 -36.741524 494.535004
  endloop
 endfacet

 facet normal -0.005937 -0.942630 0.333786
  outer loop
   vertex -79.337631 -36.741524 494.535004
   vertex -79.205261 -36.898422 494.094269
   vertex -79.082733 -36.823009 494.309418
  endloop
 endfacet

 facet normal -0.005929 -0.942629 0.333789
  outer loop
   vertex -79.545929 -36.869728 494.169250
   vertex -79.205261 -36.898422 494.094269
   vertex -79.337631 -36.741524 494.535004
  endloop
 endfacet

 facet normal -0.005924 -0.942621 0.333811
  outer loop
   vertex -79.197388 -36.984821 493.850433
   vertex -79.205261 -36.898422 494.094269
   vertex -79.545929 -36.869728 494.169250
  endloop
 endfacet

 facet normal -0.005957 -0.942633 0.333778
  outer loop
   vertex -79.545929 -36.869728 494.169250
   vertex -79.532547 -37.016602 493.754700
   vertex -79.197388 -36.984821 493.850433
  endloop
 endfacet

 facet normal -0.005954 -0.942637 0.333767
  outer loop
   vertex -79.197388 -36.984821 493.850433
   vertex -79.532547 -37.016602 493.754700
   vertex -79.061226 -37.059052 493.643219
  endloop
 endfacet

 facet normal -0.005944 -0.942623 0.333805
  outer loop
   vertex -79.061226 -37.059052 493.643219
   vertex -79.532547 -37.016602 493.754700
   vertex -79.301064 -37.142796 493.402466
  endloop
 endfacet

 facet normal -0.005931 -0.942627 0.333794
  outer loop
   vertex -79.301064 -37.142796 493.402466
   vertex -78.833252 -37.101227 493.528168
   vertex -79.061226 -37.059052 493.643219
  endloop
 endfacet

 facet normal -0.005931 -0.942628 0.333792
  outer loop
   vertex -78.913513 -37.214493 493.206879
   vertex -78.833252 -37.101227 493.528168
   vertex -79.301064 -37.142796 493.402466
  endloop
 endfacet

 facet normal -0.005929 -0.942628 0.333792
  outer loop
   vertex -78.574554 -37.100044 493.536102
   vertex -78.833252 -37.101227 493.528168
   vertex -78.913513 -37.214493 493.206879
  endloop
 endfacet

 facet normal -0.005937 -0.942625 0.333799
  outer loop
   vertex -78.913513 -37.214493 493.206879
   vertex -78.473732 -37.212486 493.220367
   vertex -78.574554 -37.100044 493.536102
  endloop
 endfacet

 facet normal -0.005931 -0.942625 0.333801
  outer loop
   vertex -78.574554 -37.100044 493.536102
   vertex -78.473732 -37.212486 493.220367
   vertex -78.354454 -37.055824 493.664886
  endloop
 endfacet

 facet normal -0.005926 -0.942625 0.333800
  outer loop
   vertex -78.354454 -37.055824 493.664886
   vertex -78.473732 -37.212486 493.220367
   vertex -77.516144 -37.121677 493.493805
  endloop
 endfacet

 facet normal -0.005930 -0.942631 0.333783
  outer loop
   vertex -77.516144 -37.121677 493.493805
   vertex -78.231926 -36.980412 493.880035
   vertex -78.354454 -37.055824 493.664886
  endloop
 endfacet

 facet normal -0.005913 -0.942621 0.333811
  outer loop
   vertex -78.239799 -36.894012 494.123871
   vertex -78.231926 -36.980412 493.880035
   vertex -77.516144 -37.121677 493.493805
  endloop
 endfacet

 facet normal -0.005927 -0.942626 0.333797
  outer loop
   vertex -85.041298 -28.729755 517.058899
   vertex -85.275230 -29.048227 516.155396
   vertex -84.551567 -29.275892 515.525330
  endloop
 endfacet

 facet normal -0.005994 -0.942650 0.333728
  outer loop
   vertex -84.551567 -29.275892 515.525330
   vertex -85.275230 -29.048227 516.155396
   vertex -85.267357 -29.134624 515.911499
  endloop
 endfacet

 facet normal -0.005914 -0.942604 0.333859
  outer loop
   vertex -85.267357 -29.134624 515.911499
   vertex -85.389885 -29.210037 515.696411
   vertex -84.551567 -29.275892 515.525330
  endloop
 endfacet

 facet normal -0.005934 -0.942629 0.333789
  outer loop
   vertex -78.603935 -36.777607 494.446136
   vertex -78.375969 -36.819782 494.331085
   vertex -78.005867 -36.575542 495.027405
  endloop
 endfacet

 facet normal -0.005925 -0.942631 0.333784
  outer loop
   vertex -78.005867 -36.575542 495.027405
   vertex -78.375969 -36.819782 494.331085
   vertex -78.239799 -36.894012 494.123871
  endloop
 endfacet

 facet normal -0.005936 -0.942630 0.333787
  outer loop
   vertex -78.239799 -36.894012 494.123871
   vertex -77.516144 -37.121677 493.493805
   vertex -78.005867 -36.575542 495.027405
  endloop
 endfacet

 facet normal 0.005934 0.942629 -0.333790
  outer loop
   vertex -77.513176 -36.650364 493.326904
   vertex -78.236832 -36.422699 493.956970
   vertex -78.002907 -36.104225 494.860504
  endloop
 endfacet

 facet normal 0.005920 0.942630 -0.333787
  outer loop
   vertex -78.002907 -36.104225 494.860504
   vertex -78.236832 -36.422699 493.956970
   vertex -78.373001 -36.348469 494.164185
  endloop
 endfacet

 facet normal 0.005932 0.942628 -0.333793
  outer loop
   vertex -78.373001 -36.348469 494.164185
   vertex -78.600975 -36.306293 494.279236
   vertex -78.002907 -36.104225 494.860504
  endloop
 endfacet

 facet normal 0.005932 0.942631 -0.333784
  outer loop
   vertex -85.386917 -28.738724 515.529480
   vertex -85.264389 -28.663311 515.744629
   vertex -84.548607 -28.804579 515.358398
  endloop
 endfacet

 facet normal 0.005919 0.942624 -0.333805
  outer loop
   vertex -84.548607 -28.804579 515.358398
   vertex -85.264389 -28.663311 515.744629
   vertex -85.272263 -28.576914 515.988464
  endloop
 endfacet

 facet normal 0.005925 0.942626 -0.333798
  outer loop
   vertex -85.272263 -28.576914 515.988464
   vertex -85.038330 -28.258440 516.891968
   vertex -84.548607 -28.804579 515.358398
  endloop
 endfacet

 facet normal -0.579952 0.691103 -0.431315
  outer loop
   vertex -81.016129 -35.444275 494.928528
   vertex -81.096100 -35.512222 494.927185
   vertex -81.349930 -35.072029 495.973816
  endloop
 endfacet

 facet normal -0.579985 0.691077 -0.431312
  outer loop
   vertex -81.349930 -35.072029 495.973816
   vertex -81.096100 -35.512222 494.927185
   vertex -81.429893 -35.139977 495.972473
  endloop
 endfacet

 facet normal -0.005939 -0.942629 0.333789
  outer loop
   vertex -86.081947 -30.434622 513.728210
   vertex -86.669464 -30.490334 513.560425
   vertex -80.430763 -36.736725 496.031464
  endloop
 endfacet

 facet normal -0.005921 -0.942627 0.333795
  outer loop
   vertex -80.430763 -36.736725 496.031464
   vertex -86.669464 -30.490334 513.560425
   vertex -81.018272 -36.792439 495.863708
  endloop
 endfacet

 facet normal -0.589376 -0.801968 0.097384
  outer loop
   vertex -86.659470 -30.765009 512.832764
   vertex -86.580261 -30.817862 512.876892
   vertex -86.993271 -30.392763 513.878052
  endloop
 endfacet

 facet normal -0.589376 -0.801968 0.097384
  outer loop
   vertex -86.993271 -30.392763 513.878052
   vertex -86.580261 -30.817862 512.876892
   vertex -86.914062 -30.445616 513.922180
  endloop
 endfacet

 facet normal -0.957586 -0.090807 -0.273466
  outer loop
   vertex -78.571594 -36.628731 493.369202
   vertex -78.470764 -36.741173 493.053467
   vertex -78.522659 -36.920609 493.294769
  endloop
 endfacet

 facet normal 0.288057 -0.321265 -0.902115
  outer loop
   vertex -80.220062 -36.935463 495.713776
   vertex -80.210197 -35.367851 495.158661
   vertex -79.748138 -36.653973 495.764221
  endloop
 endfacet

 facet normal -0.005929 -0.942625 0.333802
  outer loop
   vertex -78.963463 -36.666348 494.753937
   vertex -78.862633 -36.778790 494.438202
   vertex -78.603935 -36.777607 494.446136
  endloop
 endfacet

 facet normal -0.005999 -0.942633 0.333776
  outer loop
   vertex -85.609985 -29.254259 515.567566
   vertex -85.509155 -29.366699 515.251831
   vertex -85.389885 -29.210037 515.696411
  endloop
 endfacet

 facet normal 0.957592 0.090803 0.273447
  outer loop
   vertex -78.470764 -36.741173 493.053467
   vertex -78.574554 -37.100044 493.536102
   vertex -78.473732 -37.212486 493.220367
  endloop
 endfacet

 facet normal 0.005927 0.942627 -0.333795
  outer loop
   vertex -85.693520 -29.107208 513.562317
   vertex -86.168320 -28.577724 515.049133
   vertex -84.692627 -28.437786 515.470520
  endloop
 endfacet

 facet normal -0.005932 -0.942630 0.333787
  outer loop
   vertex -78.478264 -36.426277 496.361664
   vertex -79.953957 -36.566216 495.940247
   vertex -78.003471 -36.955761 494.874817
  endloop
 endfacet

 facet normal 0.957586 0.090838 0.273455
  outer loop
   vertex -85.998886 -28.820562 516.785461
   vertex -85.895096 -28.461689 516.302795
   vertex -85.995926 -28.349247 516.618530
  endloop
 endfacet

 facet normal -0.288303 0.321112 0.902091
  outer loop
   vertex -86.984169 -28.945951 513.365723
   vertex -86.985107 -29.095797 513.418762
   vertex -86.890686 -29.100698 513.450684
  endloop
 endfacet

 facet normal 0.957586 0.090809 0.273466
  outer loop
   vertex -78.862633 -36.778790 494.438202
   vertex -78.960495 -36.195034 494.587036
   vertex -78.963463 -36.666348 494.753937
  endloop
 endfacet

 facet normal -0.288054 0.321234 0.902127
  outer loop
   vertex -86.098267 -28.801579 513.597229
   vertex -86.108131 -30.369190 514.152283
   vertex -85.629326 -28.993851 513.815430
  endloop
 endfacet

 facet normal 0.288231 -0.321295 -0.902049
  outer loop
   vertex -81.105202 -36.959034 495.439514
   vertex -81.104256 -36.809189 495.386444
   vertex -81.009666 -36.786366 495.408539
  endloop
 endfacet

 facet normal 0.005934 0.942628 -0.333793
  outer loop
   vertex -79.947342 -35.515247 495.568085
   vertex -78.471649 -35.375309 495.989502
   vertex -77.996857 -35.904793 494.502686
  endloop
 endfacet

 facet normal 0.288065 -0.321240 -0.902122
  outer loop
   vertex -84.217827 -28.967270 513.983704
   vertex -84.224442 -30.018240 514.355835
   vertex -85.700134 -30.158178 513.934448
  endloop
 endfacet

 facet normal 0.957591 0.090801 0.273448
  outer loop
   vertex -85.607018 -28.782946 515.400696
   vertex -85.509155 -29.366699 515.251831
   vertex -85.506195 -28.895386 515.084961
  endloop
 endfacet

 facet normal 0.005922 0.942626 -0.333799
  outer loop
   vertex -85.506195 -28.895386 515.084961
   vertex -85.607018 -28.782946 515.400696
   vertex -85.386917 -28.738724 515.529480
  endloop
 endfacet

 facet normal -0.880775 0.162962 0.444610
  outer loop
   vertex -85.264389 -28.663311 515.744629
   vertex -85.389885 -29.210037 515.696411
   vertex -85.267357 -29.134624 515.911499
  endloop
 endfacet

 facet normal -0.999520 -0.004561 -0.030659
  outer loop
   vertex -85.264389 -28.663311 515.744629
   vertex -85.267357 -29.134624 515.911499
   vertex -85.272263 -28.576914 515.988464
  endloop
 endfacet

 facet normal -0.999520 -0.004562 -0.030651
  outer loop
   vertex -85.272263 -28.576914 515.988464
   vertex -85.267357 -29.134624 515.911499
   vertex -85.275230 -29.048227 516.155396
  endloop
 endfacet

 facet normal -0.850411 -0.170884 -0.497593
  outer loop
   vertex -85.275230 -29.048227 516.155396
   vertex -85.408424 -28.502682 516.195679
   vertex -85.272263 -28.576914 515.988464
  endloop
 endfacet

 facet normal -0.850411 -0.170884 -0.497593
  outer loop
   vertex -85.411392 -28.973995 516.362610
   vertex -85.408424 -28.502682 516.195679
   vertex -85.275230 -29.048227 516.155396
  endloop
 endfacet

 facet normal -0.473412 -0.291428 -0.831234
  outer loop
   vertex -85.636398 -28.460506 516.310730
   vertex -85.408424 -28.502682 516.195679
   vertex -85.411392 -28.973995 516.362610
  endloop
 endfacet

 facet normal -0.473412 -0.291428 -0.831234
  outer loop
   vertex -85.411392 -28.973995 516.362610
   vertex -85.639366 -28.931820 516.477661
   vertex -85.636398 -28.460506 516.310730
  endloop
 endfacet

 facet normal 0.030422 -0.333876 -0.942126
  outer loop
   vertex -85.636398 -28.460506 516.310730
   vertex -85.639366 -28.931820 516.477661
   vertex -85.895096 -28.461689 516.302795
  endloop
 endfacet

 facet normal -0.526075 0.286816 0.800613
  outer loop
   vertex -78.571594 -36.628731 493.369202
   vertex -78.574554 -37.100044 493.536102
   vertex -78.351494 -36.584511 493.497986
  endloop
 endfacet

 facet normal -0.526075 0.286816 0.800613
  outer loop
   vertex -78.351494 -36.584511 493.497986
   vertex -78.574554 -37.100044 493.536102
   vertex -78.354454 -37.055824 493.664886
  endloop
 endfacet

 facet normal -0.880825 0.162944 0.444519
  outer loop
   vertex -78.354454 -37.055824 493.664886
   vertex -78.228966 -36.509098 493.713135
   vertex -78.351494 -36.584511 493.497986
  endloop
 endfacet

 facet normal -0.880825 0.162944 0.444519
  outer loop
   vertex -78.231926 -36.980412 493.880035
   vertex -78.228966 -36.509098 493.713135
   vertex -78.354454 -37.055824 493.664886
  endloop
 endfacet

 facet normal -0.999521 -0.004567 -0.030625
  outer loop
   vertex -78.236832 -36.422699 493.956970
   vertex -78.228966 -36.509098 493.713135
   vertex -78.231926 -36.980412 493.880035
  endloop
 endfacet

 facet normal -0.999520 -0.004563 -0.030658
  outer loop
   vertex -78.231926 -36.980412 493.880035
   vertex -78.239799 -36.894012 494.123871
   vertex -78.236832 -36.422699 493.956970
  endloop
 endfacet

 facet normal -0.850397 -0.170863 -0.497625
  outer loop
   vertex -78.236832 -36.422699 493.956970
   vertex -78.239799 -36.894012 494.123871
   vertex -78.373001 -36.348469 494.164185
  endloop
 endfacet

 facet normal -0.850397 -0.170863 -0.497625
  outer loop
   vertex -78.373001 -36.348469 494.164185
   vertex -78.239799 -36.894012 494.123871
   vertex -78.375969 -36.819782 494.331085
  endloop
 endfacet

 facet normal -0.473412 -0.291380 -0.831251
  outer loop
   vertex -78.375969 -36.819782 494.331085
   vertex -78.600975 -36.306293 494.279236
   vertex -78.373001 -36.348469 494.164185
  endloop
 endfacet

 facet normal 0.030422 -0.333768 -0.942164
  outer loop
   vertex -85.506195 -28.895386 515.084961
   vertex -85.509155 -29.366699 515.251831
   vertex -85.945976 -28.897394 515.071472
  endloop
 endfacet

 facet normal 0.030422 -0.333768 -0.942164
  outer loop
   vertex -85.945976 -28.897394 515.071472
   vertex -85.509155 -29.366699 515.251831
   vertex -85.948936 -29.368708 515.238342
  endloop
 endfacet

 facet normal -0.473367 -0.291347 -0.831289
  outer loop
   vertex -85.948936 -29.368708 515.238342
   vertex -86.333527 -28.825695 515.267029
   vertex -85.945976 -28.897394 515.071472
  endloop
 endfacet

 facet normal -0.473460 -0.291418 -0.831210
  outer loop
   vertex -86.336494 -29.297010 515.433960
   vertex -86.333527 -28.825695 515.267029
   vertex -85.948936 -29.368708 515.238342
  endloop
 endfacet

 facet normal -0.850421 -0.170878 -0.497580
  outer loop
   vertex -86.565010 -28.699503 515.619324
   vertex -86.333527 -28.825695 515.267029
   vertex -86.336494 -29.297010 515.433960
  endloop
 endfacet

 facet normal -0.850384 -0.170841 -0.497654
  outer loop
   vertex -86.336494 -29.297010 515.433960
   vertex -86.567978 -29.170816 515.786194
   vertex -86.565010 -28.699503 515.619324
  endloop
 endfacet

 facet normal -0.999520 -0.004558 -0.030650
  outer loop
   vertex -86.565010 -28.699503 515.619324
   vertex -86.567978 -29.170816 515.786194
   vertex -86.578392 -28.552628 516.033875
  endloop
 endfacet

 facet normal -0.999520 -0.004558 -0.030650
  outer loop
   vertex -86.578392 -28.552628 516.033875
   vertex -86.567978 -29.170816 515.786194
   vertex -86.581360 -29.023941 516.200745
  endloop
 endfacet

 facet normal -0.880810 0.162940 0.444549
  outer loop
   vertex -86.581360 -29.023941 516.200745
   vertex -86.370094 -28.424425 516.399597
   vertex -86.578392 -28.552628 516.033875
  endloop
 endfacet

 facet normal -0.880803 0.162932 0.444566
  outer loop
   vertex -86.373055 -28.895739 516.566467
   vertex -86.370094 -28.424425 516.399597
   vertex -86.581360 -29.023941 516.200745
  endloop
 endfacet

 facet normal -0.526080 0.286769 0.800627
  outer loop
   vertex -85.995926 -28.349247 516.618530
   vertex -86.370094 -28.424425 516.399597
   vertex -86.373055 -28.895739 516.566467
  endloop
 endfacet

 facet normal -0.526173 0.286841 0.800540
  outer loop
   vertex -86.373055 -28.895739 516.566467
   vertex -85.998886 -28.820562 516.785461
   vertex -85.995926 -28.349247 516.618530
  endloop
 endfacet

 facet normal 0.030420 -0.333822 -0.942145
  outer loop
   vertex -78.470764 -36.741173 493.053467
   vertex -78.473732 -37.212486 493.220367
   vertex -78.910545 -36.743179 493.039978
  endloop
 endfacet

 facet normal 0.030420 -0.333822 -0.942145
  outer loop
   vertex -78.910545 -36.743179 493.039978
   vertex -78.473732 -37.212486 493.220367
   vertex -78.913513 -37.214493 493.206879
  endloop
 endfacet

 facet normal -0.473409 -0.291381 -0.831253
  outer loop
   vertex -78.913513 -37.214493 493.206879
   vertex -79.298103 -36.671482 493.235565
   vertex -78.910545 -36.743179 493.039978
  endloop
 endfacet

 facet normal -0.473417 -0.291386 -0.831247
  outer loop
   vertex -79.301064 -37.142796 493.402466
   vertex -79.298103 -36.671482 493.235565
   vertex -78.913513 -37.214493 493.206879
  endloop
 endfacet

 facet normal -0.850410 -0.170868 -0.497600
  outer loop
   vertex -79.529579 -36.545288 493.587830
   vertex -79.298103 -36.671482 493.235565
   vertex -79.301064 -37.142796 493.402466
  endloop
 endfacet

 facet normal -0.850384 -0.170841 -0.497654
  outer loop
   vertex -79.301064 -37.142796 493.402466
   vertex -79.532547 -37.016602 493.754700
   vertex -79.529579 -36.545288 493.587830
  endloop
 endfacet

 facet normal -0.999520 -0.004559 -0.030652
  outer loop
   vertex -79.529579 -36.545288 493.587830
   vertex -79.532547 -37.016602 493.754700
   vertex -79.542961 -36.398415 494.002350
  endloop
 endfacet

 facet normal -0.999520 -0.004560 -0.030650
  outer loop
   vertex -79.542961 -36.398415 494.002350
   vertex -79.532547 -37.016602 493.754700
   vertex -79.545929 -36.869728 494.169250
  endloop
 endfacet

 facet normal -0.880825 0.162957 0.444513
  outer loop
   vertex -79.545929 -36.869728 494.169250
   vertex -79.334663 -36.270210 494.368103
   vertex -79.542961 -36.398415 494.002350
  endloop
 endfacet

 facet normal -0.880825 0.162957 0.444513
  outer loop
   vertex -79.337631 -36.741524 494.535004
   vertex -79.334663 -36.270210 494.368103
   vertex -79.545929 -36.869728 494.169250
  endloop
 endfacet

 facet normal -0.526079 0.286823 0.800609
  outer loop
   vertex -78.960495 -36.195034 494.587036
   vertex -79.334663 -36.270210 494.368103
   vertex -79.337631 -36.741524 494.535004
  endloop
 endfacet

 facet normal -0.526079 0.286823 0.800609
  outer loop
   vertex -79.337631 -36.741524 494.535004
   vertex -78.963463 -36.666348 494.753937
   vertex -78.960495 -36.195034 494.587036
  endloop
 endfacet

 facet normal -0.473424 -0.291385 -0.831243
  outer loop
   vertex -78.375969 -36.819782 494.331085
   vertex -78.603935 -36.777607 494.446136
   vertex -78.600975 -36.306293 494.279236
  endloop
 endfacet

 facet normal 0.030423 -0.333822 -0.942145
  outer loop
   vertex -78.600975 -36.306293 494.279236
   vertex -78.603935 -36.777607 494.446136
   vertex -78.862633 -36.778790 494.438202
  endloop
 endfacet

 facet normal 0.030419 -0.333820 -0.942146
  outer loop
   vertex -78.862633 -36.778790 494.438202
   vertex -78.859665 -36.307472 494.271301
   vertex -78.600975 -36.306293 494.279236
  endloop
 endfacet

 facet normal 0.526075 -0.286821 -0.800611
  outer loop
   vertex -79.082733 -36.823009 494.309418
   vertex -78.859665 -36.307472 494.271301
   vertex -78.862633 -36.778790 494.438202
  endloop
 endfacet

 facet normal 0.526079 -0.286823 -0.800609
  outer loop
   vertex -79.079765 -36.351696 494.142517
   vertex -78.859665 -36.307472 494.271301
   vertex -79.082733 -36.823009 494.309418
  endloop
 endfacet

 facet normal 0.880825 -0.162957 -0.444514
  outer loop
   vertex -79.082733 -36.823009 494.309418
   vertex -79.205261 -36.898422 494.094269
   vertex -79.079765 -36.351696 494.142517
  endloop
 endfacet

 facet normal 0.880825 -0.162957 -0.444514
  outer loop
   vertex -79.079765 -36.351696 494.142517
   vertex -79.205261 -36.898422 494.094269
   vertex -79.202293 -36.427109 493.927368
  endloop
 endfacet

 facet normal 0.999520 0.004563 0.030658
  outer loop
   vertex -79.202293 -36.427109 493.927368
   vertex -79.205261 -36.898422 494.094269
   vertex -79.197388 -36.984821 493.850433
  endloop
 endfacet

 facet normal 0.999521 0.004567 0.030625
  outer loop
   vertex -79.197388 -36.984821 493.850433
   vertex -79.194427 -36.513508 493.683533
   vertex -79.202293 -36.427109 493.927368
  endloop
 endfacet

 facet normal 0.850411 0.170868 0.497600
  outer loop
   vertex -79.061226 -37.059052 493.643219
   vertex -79.194427 -36.513508 493.683533
   vertex -79.197388 -36.984821 493.850433
  endloop
 endfacet

 facet normal 0.850397 0.170863 0.497625
  outer loop
   vertex -79.058258 -36.587738 493.476318
   vertex -79.194427 -36.513508 493.683533
   vertex -79.061226 -37.059052 493.643219
  endloop
 endfacet

 facet normal 0.473412 0.291380 0.831251
  outer loop
   vertex -79.061226 -37.059052 493.643219
   vertex -78.833252 -37.101227 493.528168
   vertex -79.058258 -36.587738 493.476318
  endloop
 endfacet

 facet normal 0.473412 0.291380 0.831251
  outer loop
   vertex -79.058258 -36.587738 493.476318
   vertex -78.833252 -37.101227 493.528168
   vertex -78.830284 -36.629913 493.361267
  endloop
 endfacet

 facet normal -0.030423 0.333822 0.942145
  outer loop
   vertex -78.830284 -36.629913 493.361267
   vertex -78.833252 -37.101227 493.528168
   vertex -78.574554 -37.100044 493.536102
  endloop
 endfacet

 facet normal -0.030424 0.333822 0.942145
  outer loop
   vertex -78.574554 -37.100044 493.536102
   vertex -78.571594 -36.628731 493.369202
   vertex -78.830284 -36.629913 493.361267
  endloop
 endfacet

 facet normal -0.880825 0.162983 0.444505
  outer loop
   vertex -85.264389 -28.663311 515.744629
   vertex -85.386917 -28.738724 515.529480
   vertex -85.389885 -29.210037 515.696411
  endloop
 endfacet

 facet normal -0.526076 0.286869 0.800593
  outer loop
   vertex -85.389885 -29.210037 515.696411
   vertex -85.386917 -28.738724 515.529480
   vertex -85.607018 -28.782946 515.400696
  endloop
 endfacet

 facet normal -0.526238 0.286745 0.800532
  outer loop
   vertex -85.607018 -28.782946 515.400696
   vertex -85.609985 -29.254259 515.567566
   vertex -85.389885 -29.210037 515.696411
  endloop
 endfacet

 facet normal -0.030421 0.333768 0.942164
  outer loop
   vertex -85.865715 -28.784126 515.392761
   vertex -85.609985 -29.254259 515.567566
   vertex -85.607018 -28.782946 515.400696
  endloop
 endfacet

 facet normal -0.030423 0.333767 0.942165
  outer loop
   vertex -85.868683 -29.255442 515.559631
   vertex -85.609985 -29.254259 515.567566
   vertex -85.865715 -28.784126 515.392761
  endloop
 endfacet

 facet normal 0.473412 0.291331 0.831269
  outer loop
   vertex -85.865715 -28.784126 515.392761
   vertex -86.093689 -28.741951 515.507812
   vertex -85.868683 -29.255442 515.559631
  endloop
 endfacet

 facet normal 0.473424 0.291336 0.831260
  outer loop
   vertex -85.868683 -29.255442 515.559631
   vertex -86.093689 -28.741951 515.507812
   vertex -86.096649 -29.213266 515.674683
  endloop
 endfacet

 facet normal 0.850410 0.170839 0.497610
  outer loop
   vertex -86.096649 -29.213266 515.674683
   vertex -86.093689 -28.741951 515.507812
   vertex -86.229851 -28.667721 515.715027
  endloop
 endfacet

 facet normal 0.850398 0.170834 0.497634
  outer loop
   vertex -86.229851 -28.667721 515.715027
   vertex -86.232819 -29.139034 515.881897
   vertex -86.096649 -29.213266 515.674683
  endloop
 endfacet

 facet normal 0.999520 0.004561 0.030659
  outer loop
   vertex -86.237724 -28.581324 515.958862
   vertex -86.232819 -29.139034 515.881897
   vertex -86.229851 -28.667721 515.715027
  endloop
 endfacet

 facet normal 0.999520 0.004561 0.030659
  outer loop
   vertex -86.240692 -29.052637 516.125732
   vertex -86.232819 -29.139034 515.881897
   vertex -86.237724 -28.581324 515.958862
  endloop
 endfacet

 facet normal 0.880825 -0.162931 -0.444522
  outer loop
   vertex -86.237724 -28.581324 515.958862
   vertex -86.115196 -28.505909 516.174011
   vertex -86.240692 -29.052637 516.125732
  endloop
 endfacet

 facet normal 0.880825 -0.162931 -0.444523
  outer loop
   vertex -86.240692 -29.052637 516.125732
   vertex -86.115196 -28.505909 516.174011
   vertex -86.118164 -28.977224 516.340881
  endloop
 endfacet

 facet normal 0.526075 -0.286776 -0.800627
  outer loop
   vertex -86.118164 -28.977224 516.340881
   vertex -86.115196 -28.505909 516.174011
   vertex -85.895096 -28.461689 516.302795
  endloop
 endfacet

 facet normal 0.526237 -0.286837 -0.800499
  outer loop
   vertex -85.895096 -28.461689 516.302795
   vertex -85.898064 -28.933002 516.469727
   vertex -86.118164 -28.977224 516.340881
  endloop
 endfacet

 facet normal 0.030422 -0.333876 -0.942126
  outer loop
   vertex -85.639366 -28.931820 516.477661
   vertex -85.898064 -28.933002 516.469727
   vertex -85.895096 -28.461689 516.302795
  endloop
 endfacet

endsolid