solid stl file generated from DOUG
 facet normal -0.873197 0.272316 0.404192
  outer loop
   vertex -13.707535 65.148804 521.674438
   vertex -13.712299 64.728485 521.947327
   vertex -13.585437 65.266998 521.858582
  endloop
 facet normal -0.873244 0.272311 0.404093
  outer loop
   vertex -13.585437 65.266998 521.858582
   vertex -13.712299 64.728485 521.947327
   vertex -13.590201 64.846680 522.131531
  endloop
 facet normal -0.014707 0.544685 0.838512
  outer loop
   vertex -13.590201 64.846680 522.131531
   vertex -13.334889 65.266998 521.862976
   vertex -13.585437 65.266998 521.858582
  endloop
 facet normal -0.014504 0.544599 0.838571
  outer loop
   vertex -13.339654 64.846680 522.135864
   vertex -13.334889 65.266998 521.862976
   vertex -13.590201 64.846680 522.131531
  endloop
 facet normal 0.858592 0.272282 0.434376
  outer loop
   vertex -13.206438 65.148804 521.683167
   vertex -13.334889 65.266998 521.862976
   vertex -13.339654 64.846680 522.135864
  endloop
 facet normal 0.858538 0.272377 0.434423
  outer loop
   vertex -13.339654 64.846680 522.135864
   vertex -13.211203 64.728485 521.956116
   vertex -13.206438 65.148804 521.683167
  endloop
 facet normal 0.873196 -0.272358 -0.404165
  outer loop
   vertex -13.206438 65.148804 521.683167
   vertex -13.211203 64.728485 521.956116
   vertex -13.328536 65.030609 521.499023
  endloop
 facet normal 0.873245 -0.272270 -0.404120
  outer loop
   vertex -13.328536 65.030609 521.499023
   vertex -13.211203 64.728485 521.956116
   vertex -13.333301 64.610291 521.771912
  endloop
 facet normal 0.014708 -0.544599 -0.838567
  outer loop
   vertex -13.333301 64.610291 521.771912
   vertex -13.579083 65.030609 521.494629
   vertex -13.328536 65.030609 521.499023
  endloop
 facet normal 0.014503 -0.544685 -0.838515
  outer loop
   vertex -13.583848 64.610291 521.767578
   vertex -13.579083 65.030609 521.494629
   vertex -13.333301 64.610291 521.771912
  endloop
 facet normal -0.858592 -0.272327 -0.434347
  outer loop
   vertex -13.707535 65.148804 521.674438
   vertex -13.579083 65.030609 521.494629
   vertex -13.583848 64.610291 521.767578
  endloop
 facet normal -0.858538 -0.272332 -0.434452
  outer loop
   vertex -13.583848 64.610291 521.767578
   vertex -13.712299 64.728485 521.947327
   vertex -13.707535 65.148804 521.674438
  endloop
 facet normal 0.858590 0.272284 0.434378
  outer loop
   vertex -35.303135 64.728485 521.570435
   vertex -35.298370 65.148804 521.297546
   vertex -35.431587 64.846680 521.750244
  endloop
 facet normal 0.858590 0.272284 0.434378
  outer loop
   vertex -35.431587 64.846680 521.750244
   vertex -35.298370 65.148804 521.297546
   vertex -35.426823 65.266998 521.477356
  endloop
 facet normal -0.014708 0.544599 0.838567
  outer loop
   vertex -35.426823 65.266998 521.477356
   vertex -35.682133 64.846680 521.745850
   vertex -35.431587 64.846680 521.750244
  endloop
 facet normal -0.014708 0.544599 0.838567
  outer loop
   vertex -35.677368 65.266998 521.472961
   vertex -35.682133 64.846680 521.745850
   vertex -35.426823 65.266998 521.477356
  endloop
 facet normal -0.873198 0.272315 0.404190
  outer loop
   vertex -35.804230 64.728485 521.561707
   vertex -35.682133 64.846680 521.745850
   vertex -35.677368 65.266998 521.472961
  endloop
 facet normal -0.873198 0.272315 0.404190
  outer loop
   vertex -35.677368 65.266998 521.472961
   vertex -35.799465 65.148804 521.288818
   vertex -35.804230 64.728485 521.561707
  endloop
 facet normal -0.858597 -0.272278 -0.434369
  outer loop
   vertex -35.804230 64.728485 521.561707
   vertex -35.799465 65.148804 521.288818
   vertex -35.675781 64.610291 521.381897
  endloop
 facet normal -0.858597 -0.272278 -0.434369
  outer loop
   vertex -35.675781 64.610291 521.381897
   vertex -35.799465 65.148804 521.288818
   vertex -35.671017 65.030609 521.109009
  endloop
 facet normal 0.014708 -0.544599 -0.838567
  outer loop
   vertex -35.671017 65.030609 521.109009
   vertex -35.425232 64.610291 521.386292
   vertex -35.675781 64.610291 521.381897
  endloop
 facet normal 0.014708 -0.544599 -0.838567
  outer loop
   vertex -35.420467 65.030609 521.113403
   vertex -35.425232 64.610291 521.386292
   vertex -35.671017 65.030609 521.109009
  endloop
 facet normal 0.873198 -0.272315 -0.404190
  outer loop
   vertex -35.303135 64.728485 521.570435
   vertex -35.425232 64.610291 521.386292
   vertex -35.420467 65.030609 521.113403
  endloop
 facet normal 0.873198 -0.272315 -0.404190
  outer loop
   vertex -35.420467 65.030609 521.113403
   vertex -35.298370 65.148804 521.297546
   vertex -35.303135 64.728485 521.570435
  endloop
 facet normal 0.009550 0.838713 -0.544490
  outer loop
   vertex -35.677368 65.266998 521.472961
   vertex -35.426823 65.266998 521.477356
   vertex -35.548920 65.148804 521.293152
  endloop
 facet normal 0.009550 0.838713 -0.544490
  outer loop
   vertex -35.548920 65.148804 521.293152
   vertex -35.426823 65.266998 521.477356
   vertex -35.298370 65.148804 521.297546
  endloop
 facet normal 0.009552 0.838629 -0.544619
  outer loop
   vertex -35.298370 65.148804 521.297546
   vertex -35.420467 65.030609 521.113403
   vertex -35.548920 65.148804 521.293152
  endloop
 facet normal 0.009550 0.838713 -0.544490
  outer loop
   vertex -13.579083 65.030609 521.494629
   vertex -13.707535 65.148804 521.674438
   vertex -13.456986 65.148804 521.678833
  endloop
 facet normal 0.009552 0.838629 -0.544619
  outer loop
   vertex -13.456986 65.148804 521.678833
   vertex -13.707535 65.148804 521.674438
   vertex -13.585437 65.266998 521.858582
  endloop
 facet normal 0.009552 0.838629 -0.544619
  outer loop
   vertex -13.585437 65.266998 521.858582
   vertex -13.334889 65.266998 521.862976
   vertex -13.456986 65.148804 521.678833
  endloop
 facet normal 0.009419 0.838671 -0.544557
  outer loop
   vertex -13.334889 65.266998 521.862976
   vertex -13.206438 65.148804 521.683167
   vertex -13.456986 65.148804 521.678833
  endloop
 facet normal 0.009419 0.838671 -0.544557
  outer loop
   vertex -13.456986 65.148804 521.678833
   vertex -13.206438 65.148804 521.683167
   vertex -13.328536 65.030609 521.499023
  endloop
 facet normal 0.009550 0.838713 -0.544490
  outer loop
   vertex -13.328536 65.030609 521.499023
   vertex -13.579083 65.030609 521.494629
   vertex -13.456986 65.148804 521.678833
  endloop
 facet normal 0.009552 0.838629 -0.544619
  outer loop
   vertex -35.420467 65.030609 521.113403
   vertex -35.671017 65.030609 521.109009
   vertex -35.548920 65.148804 521.293152
  endloop
 facet normal 0.009419 0.838671 -0.544557
  outer loop
   vertex -35.548920 65.148804 521.293152
   vertex -35.671017 65.030609 521.109009
   vertex -35.799465 65.148804 521.288818
  endloop
 facet normal 0.009419 0.838671 -0.544557
  outer loop
   vertex -35.799465 65.148804 521.288818
   vertex -35.677368 65.266998 521.472961
   vertex -35.548920 65.148804 521.293152
  endloop
 facet normal 0.009512 0.838670 -0.544556
  outer loop
   vertex -14.923555 63.101837 522.237244
   vertex -14.941855 63.782742 523.285583
   vertex -11.932611 63.101837 522.289490
  endloop
 facet normal 0.009512 0.838670 -0.544556
  outer loop
   vertex -11.932611 63.101837 522.289490
   vertex -14.941855 63.782742 523.285583
   vertex -11.950912 63.782742 523.337830
  endloop
 facet normal 0.999848 -0.000000 0.017454
  outer loop
   vertex -11.950912 63.782742 523.337830
   vertex -11.945811 61.937271 523.045654
   vertex -11.932611 63.101837 522.289490
  endloop
 facet normal 0.999848 -0.000000 0.017454
  outer loop
   vertex -11.964111 62.618179 524.093994
   vertex -11.945811 61.937271 523.045654
   vertex -11.950912 63.782742 523.337830
  endloop
 facet normal -0.009512 -0.838669 0.544559
  outer loop
   vertex -14.955055 62.618179 524.041748
   vertex -11.945811 61.937271 523.045654
   vertex -11.964111 62.618179 524.093994
  endloop
 facet normal -0.014648 0.544641 0.838541
  outer loop
   vertex -11.964111 62.618179 524.093994
   vertex -14.941855 63.782742 523.285583
   vertex -14.955055 62.618179 524.041748
  endloop
 facet normal -0.999848 0.000000 -0.017454
  outer loop
   vertex -14.955055 62.618179 524.041748
   vertex -14.941855 63.782742 523.285583
   vertex -14.936755 61.937271 522.993408
  endloop
 facet normal -0.999848 0.000000 -0.017454
  outer loop
   vertex -14.936755 61.937271 522.993408
   vertex -14.941855 63.782742 523.285583
   vertex -14.923555 63.101837 522.237244
  endloop
 facet normal 0.014648 -0.544640 -0.838542
  outer loop
   vertex -14.923555 63.101837 522.237244
   vertex -11.945811 61.937271 523.045654
   vertex -14.936755 61.937271 522.993408
  endloop
 facet normal 0.014648 -0.544640 -0.838542
  outer loop
   vertex -11.932611 63.101837 522.289490
   vertex -11.945811 61.937271 523.045654
   vertex -14.923555 63.101837 522.237244
  endloop
 facet normal -0.999848 0.000002 -0.017454
  outer loop
   vertex -37.106880 61.937275 522.606445
   vertex -37.125179 62.618179 523.654785
   vertex -37.093678 63.101837 521.850281
  endloop
 facet normal -0.999848 -0.000002 -0.017455
  outer loop
   vertex -37.093678 63.101837 521.850281
   vertex -37.125179 62.618179 523.654785
   vertex -37.111980 63.782745 522.898621
  endloop
 facet normal 0.009501 0.838669 -0.544559
  outer loop
   vertex -37.111980 63.782745 522.898621
   vertex -34.102734 63.101837 521.902466
   vertex -37.093678 63.101837 521.850281
  endloop
 facet normal 0.009501 0.838669 -0.544559
  outer loop
   vertex -34.121033 63.782745 522.950806
   vertex -34.102734 63.101837 521.902466
   vertex -37.111980 63.782745 522.898621
  endloop
 facet normal 0.999848 -0.000002 0.017454
  outer loop
   vertex -34.134235 62.618179 523.706970
   vertex -34.102734 63.101837 521.902466
   vertex -34.121033 63.782745 522.950806
  endloop
 facet normal -0.014631 0.544640 0.838542
  outer loop
   vertex -34.121033 63.782745 522.950806
   vertex -37.125179 62.618179 523.654785
   vertex -34.134235 62.618179 523.706970
  endloop
 facet normal -0.009501 -0.838670 0.544557
  outer loop
   vertex -34.134235 62.618179 523.706970
   vertex -37.125179 62.618179 523.654785
   vertex -34.115932 61.937275 522.658630
  endloop
 facet normal -0.009501 -0.838670 0.544557
  outer loop
   vertex -34.115932 61.937275 522.658630
   vertex -37.125179 62.618179 523.654785
   vertex -37.106880 61.937275 522.606445
  endloop
 facet normal 0.014631 -0.544641 -0.838542
  outer loop
   vertex -37.106880 61.937275 522.606445
   vertex -34.102734 63.101837 521.902466
   vertex -34.115932 61.937275 522.658630
  endloop
 facet normal 0.014631 -0.544641 -0.838542
  outer loop
   vertex -37.093678 63.101837 521.850281
   vertex -34.102734 63.101837 521.902466
   vertex -37.106880 61.937275 522.606445
  endloop
 facet normal -0.014631 0.544640 0.838542
  outer loop
   vertex -34.121033 63.782745 522.950806
   vertex -37.111980 63.782745 522.898621
   vertex -37.125179 62.618179 523.654785
  endloop
 facet normal -0.014648 0.544641 0.838541
  outer loop
   vertex -11.950912 63.782742 523.337830
   vertex -14.941855 63.782742 523.285583
   vertex -11.964111 62.618179 524.093994
  endloop
 facet normal 0.999848 0.000002 0.017455
  outer loop
   vertex -34.134235 62.618179 523.706970
   vertex -34.115932 61.937275 522.658630
   vertex -34.102734 63.101837 521.902466
  endloop
 facet normal -0.009512 -0.838669 0.544559
  outer loop
   vertex -14.955055 62.618179 524.041748
   vertex -14.936755 61.937271 522.993408
   vertex -11.945811 61.937271 523.045654
  endloop
 facet normal 0.009505 0.838679 -0.544544
  outer loop
   vertex -14.677469 65.337753 520.598633
   vertex -34.293083 65.397453 520.348206
   vertex -14.679073 65.397453 520.690552
  endloop
 facet normal -0.006133 0.936209 0.351391
  outer loop
   vertex -14.679073 65.397453 520.690552
   vertex -34.293083 65.397453 520.348206
   vertex -14.681447 65.346397 520.826538
  endloop
 facet normal -0.005799 0.943411 0.331576
  outer loop
   vertex -33.566189 66.232880 521.538879
   vertex -34.726456 66.198074 521.617615
   vertex -33.567917 66.198074 521.637878
  endloop
 facet normal -0.014667 0.544638 0.838543
  outer loop
   vertex -33.567917 66.198074 521.637878
   vertex -34.726456 66.198074 521.617615
   vertex -34.734455 65.492226 522.075928
  endloop
 facet normal 0.014623 -0.544638 -0.838543
  outer loop
   vertex -14.273932 64.586479 521.038147
   vertex -15.424470 65.292328 520.559631
   vertex -14.265931 65.292328 520.579834
  endloop
 facet normal 0.017378 0.080850 -0.996575
  outer loop
   vertex -14.265931 65.292328 520.579834
   vertex -15.424470 65.292328 520.559631
   vertex -15.424618 65.396935 520.568115
  endloop
 facet normal 0.017424 0.059670 -0.998066
  outer loop
   vertex -34.312706 65.988113 521.472168
   vertex -34.312859 66.133125 521.480835
   vertex -14.698846 66.133125 521.823242
  endloop
 facet normal 0.009506 0.838679 -0.544543
  outer loop
   vertex -14.698846 66.133125 521.823242
   vertex -34.312859 66.133125 521.480835
   vertex -14.700450 66.192825 521.915161
  endloop
 facet normal 0.014117 0.587928 -0.808790
  outer loop
   vertex -34.299278 64.711296 520.703003
   vertex -14.685267 64.711296 521.045349
   vertex -34.298908 64.682236 520.681885
  endloop
 facet normal 0.014133 0.586814 -0.809599
  outer loop
   vertex -34.298908 64.682236 520.681885
   vertex -14.685267 64.711296 521.045349
   vertex -14.684899 64.682236 521.024292
  endloop
 facet normal 0.014639 -0.544595 -0.838572
  outer loop
   vertex -14.684899 64.682236 521.024292
   vertex -34.299580 64.623009 520.720337
   vertex -34.298908 64.682236 520.681885
  endloop
 facet normal -0.999848 -0.000017 -0.017444
  outer loop
   vertex -34.702110 65.292328 520.223145
   vertex -34.705738 65.408752 520.430969
   vertex -34.702259 65.396935 520.231567
  endloop
 facet normal -0.999848 -0.000016 -0.017444
  outer loop
   vertex -34.702259 65.396935 520.231567
   vertex -34.705738 65.408752 520.430969
   vertex -34.704586 65.483513 520.364868
  endloop
 facet normal 0.009525 0.838674 -0.544550
  outer loop
   vertex -34.704586 65.483513 520.364868
   vertex -33.543720 65.396935 520.251831
   vertex -34.702259 65.396935 520.231567
  endloop
 facet normal 0.999848 -0.000001 0.017452
  outer loop
   vertex -14.290274 66.198074 521.974365
   vertex -14.286942 66.055519 521.783508
   vertex -14.288546 66.232880 521.875366
  endloop
 facet normal 0.999848 0.000002 0.017445
  outer loop
   vertex -14.288546 66.232880 521.875366
   vertex -14.286942 66.055519 521.783508
   vertex -14.286220 66.146301 521.742065
  endloop
 facet normal 0.009496 0.838674 -0.544550
  outer loop
   vertex -14.286220 66.146301 521.742065
   vertex -15.447084 66.232880 521.855164
   vertex -14.288546 66.232880 521.875366
  endloop
 facet normal 0.999848 0.000012 0.017446
  outer loop
   vertex -33.563862 66.146301 521.405579
   vertex -33.566189 66.232880 521.538879
   vertex -33.564583 66.055527 521.446960
  endloop
 facet normal 0.999848 0.000007 0.017455
  outer loop
   vertex -33.564583 66.055527 521.446960
   vertex -33.566189 66.232880 521.538879
   vertex -33.567917 66.198074 521.637878
  endloop
 facet normal 0.999848 0.000004 0.017458
  outer loop
   vertex -33.567917 66.198074 521.637878
   vertex -33.575916 65.492226 522.096191
   vertex -33.564583 66.055527 521.446960
  endloop
 facet normal -0.014667 0.544638 0.838543
  outer loop
   vertex -34.734455 65.492226 522.075928
   vertex -33.575916 65.492226 522.096191
   vertex -33.567917 66.198074 521.637878
  endloop
 facet normal 0.017424 0.059670 -0.998066
  outer loop
   vertex -14.698846 66.133125 521.823242
   vertex -14.698694 65.988113 521.814575
   vertex -34.312706 65.988113 521.472168
  endloop
 facet normal 0.009506 0.838679 -0.544544
  outer loop
   vertex -34.312706 65.988113 521.472168
   vertex -14.698694 65.988113 521.814575
   vertex -14.681447 65.346397 520.826538
  endloop
 facet normal 0.009505 0.838666 -0.544563
  outer loop
   vertex -14.681447 65.346397 520.826538
   vertex -34.295460 65.346405 520.484192
   vertex -34.312706 65.988113 521.472168
  endloop
 facet normal -0.006132 0.936226 0.351345
  outer loop
   vertex -34.293083 65.397453 520.348206
   vertex -34.295460 65.346405 520.484192
   vertex -14.681447 65.346397 520.826538
  endloop
 facet normal 0.014623 -0.544638 -0.838543
  outer loop
   vertex -14.273932 64.586479 521.038147
   vertex -15.432470 64.586479 521.017944
   vertex -15.424470 65.292328 520.559631
  endloop
 facet normal -0.999848 0.000000 -0.017453
  outer loop
   vertex -15.424470 65.292328 520.559631
   vertex -15.432470 64.586479 521.017944
   vertex -15.428098 65.408752 520.767456
  endloop
 facet normal -0.999848 0.000003 -0.017455
  outer loop
   vertex -15.428098 65.408752 520.767456
   vertex -15.424618 65.396935 520.568115
   vertex -15.424470 65.292328 520.559631
  endloop
 facet normal -0.999848 0.000001 -0.017455
  outer loop
   vertex -15.426945 65.483513 520.701416
   vertex -15.424618 65.396935 520.568115
   vertex -15.428098 65.408752 520.767456
  endloop
 facet normal -0.003625 -0.978187 0.207695
  outer loop
   vertex -14.679435 65.225845 520.711243
   vertex -34.293446 65.225845 520.368896
   vertex -14.678822 65.218391 520.676147
  endloop
 facet normal -0.003620 -0.978260 0.207350
  outer loop
   vertex -14.678822 65.218391 520.676147
   vertex -34.293446 65.225845 520.368896
   vertex -34.292831 65.218391 520.333740
  endloop
 facet normal 0.014638 -0.544698 -0.838505
  outer loop
   vertex -34.292831 65.218391 520.333740
   vertex -14.677469 65.337753 520.598633
   vertex -14.678822 65.218391 520.676147
  endloop
 facet normal 0.014639 -0.544396 -0.838700
  outer loop
   vertex -34.291481 65.337753 520.256287
   vertex -14.677469 65.337753 520.598633
   vertex -34.292831 65.218391 520.333740
  endloop
 facet normal 0.009505 0.838679 -0.544544
  outer loop
   vertex -34.293083 65.397453 520.348206
   vertex -14.677469 65.337753 520.598633
   vertex -34.291481 65.337753 520.256287
  endloop
 facet normal 0.009500 0.838677 -0.544546
  outer loop
   vertex -12.879598 64.441971 521.483154
   vertex -14.543827 65.049202 522.389343
   vertex -12.895918 65.049202 522.418091
  endloop
 facet normal -0.014628 0.544633 0.838547
  outer loop
   vertex -12.895918 65.049202 522.418091
   vertex -14.543827 65.049202 522.389343
   vertex -12.910566 63.756771 523.257263
  endloop
 facet normal 0.999848 0.000001 0.017454
  outer loop
   vertex -12.910566 63.756771 523.257263
   vertex -12.894246 63.149532 522.322388
   vertex -12.895918 65.049202 522.418091
  endloop
 facet normal -0.009500 -0.838658 0.544576
  outer loop
   vertex -14.558476 63.756771 523.228516
   vertex -12.894246 63.149532 522.322388
   vertex -12.910566 63.756771 523.257263
  endloop
 facet normal -0.009520 -0.838674 0.544550
  outer loop
   vertex -14.542156 63.149532 522.293579
   vertex -12.894246 63.149532 522.322388
   vertex -14.558476 63.756771 523.228516
  endloop
 facet normal -0.999848 0.000000 -0.017454
  outer loop
   vertex -14.558476 63.756771 523.228516
   vertex -14.543827 65.049202 522.389343
   vertex -14.542156 63.149532 522.293579
  endloop
 facet normal -0.999848 0.000000 -0.017454
  outer loop
   vertex -14.542156 63.149532 522.293579
   vertex -14.543827 65.049202 522.389343
   vertex -14.527507 64.441971 521.454407
  endloop
 facet normal 0.009500 0.838677 -0.544546
  outer loop
   vertex -14.527507 64.441971 521.454407
   vertex -14.543827 65.049202 522.389343
   vertex -12.879598 64.441971 521.483154
  endloop
 facet normal 0.014628 -0.544658 -0.838531
  outer loop
   vertex -12.879598 64.441971 521.483154
   vertex -12.894246 63.149532 522.322388
   vertex -14.527507 64.441971 521.454407
  endloop
 facet normal 0.999848 0.000001 0.017453
  outer loop
   vertex -12.895918 65.049202 522.418091
   vertex -12.894246 63.149532 522.322388
   vertex -12.879598 64.441971 521.483154
  endloop
 facet normal 0.014628 -0.544631 -0.838548
  outer loop
   vertex -36.119129 64.441971 521.077515
   vertex -34.471218 64.441971 521.106262
   vertex -36.133778 63.149536 521.916687
  endloop
 facet normal 0.014628 -0.544631 -0.838548
  outer loop
   vertex -36.133778 63.149536 521.916687
   vertex -34.471218 64.441971 521.106262
   vertex -34.485867 63.149536 521.945435
  endloop
 facet normal -0.009500 -0.838676 0.544548
  outer loop
   vertex -34.485867 63.149536 521.945435
   vertex -36.150097 63.756771 522.851624
   vertex -36.133778 63.149536 521.916687
  endloop
 facet normal -0.009500 -0.838676 0.544548
  outer loop
   vertex -34.502186 63.756771 522.880371
   vertex -36.150097 63.756771 522.851624
   vertex -34.485867 63.149536 521.945435
  endloop
 facet normal -0.014628 0.544633 0.838547
  outer loop
   vertex -34.487537 65.049202 522.041199
   vertex -36.150097 63.756771 522.851624
   vertex -34.502186 63.756771 522.880371
  endloop
 facet normal 0.999848 -0.000000 0.017453
  outer loop
   vertex -34.502186 63.756771 522.880371
   vertex -34.471218 64.441971 521.106262
   vertex -34.487537 65.049202 522.041199
  endloop
 facet normal 0.009500 0.838677 -0.544546
  outer loop
   vertex -34.487537 65.049202 522.041199
   vertex -34.471218 64.441971 521.106262
   vertex -36.135448 65.049202 522.012451
  endloop
 facet normal 0.009500 0.838677 -0.544546
  outer loop
   vertex -36.135448 65.049202 522.012451
   vertex -34.471218 64.441971 521.106262
   vertex -36.119129 64.441971 521.077515
  endloop
 facet normal -0.999848 0.000000 -0.017453
  outer loop
   vertex -36.119129 64.441971 521.077515
   vertex -36.150097 63.756771 522.851624
   vertex -36.135448 65.049202 522.012451
  endloop
 facet normal -0.999848 0.000000 -0.017453
  outer loop
   vertex -36.133778 63.149536 521.916687
   vertex -36.150097 63.756771 522.851624
   vertex -36.119129 64.441971 521.077515
  endloop
 facet normal -0.009497 -0.838698 0.544515
  outer loop
   vertex -11.457953 64.365967 522.520325
   vertex -11.807900 64.365967 522.514221
   vertex -11.800582 64.093651 522.094910
  endloop
 facet normal 0.009515 0.838698 -0.544514
  outer loop
   vertex -11.800582 64.093651 522.094910
   vertex -11.807900 64.365967 522.514221
   vertex -11.629268 64.229805 522.307617
  endloop
 facet normal 0.009497 0.838705 -0.544504
  outer loop
   vertex -11.629268 64.229805 522.307617
   vertex -11.450635 64.093651 522.101013
   vertex -11.800582 64.093651 522.094910
  endloop
 facet normal 0.009479 0.838698 -0.544515
  outer loop
   vertex -11.457953 64.365967 522.520325
   vertex -11.450635 64.093651 522.101013
   vertex -11.629268 64.229805 522.307617
  endloop
 facet normal 0.999848 -0.000001 0.017451
  outer loop
   vertex -11.460140 63.254974 522.645569
   vertex -11.450635 64.093651 522.101013
   vertex -11.457953 64.365967 522.520325
  endloop
 facet normal 0.999848 -0.000000 0.017454
  outer loop
   vertex -11.457953 64.365967 522.520325
   vertex -11.467460 63.527294 523.064880
   vertex -11.460140 63.254974 522.645569
  endloop
 facet normal -0.009503 -0.838694 0.544520
  outer loop
   vertex -11.460140 63.254974 522.645569
   vertex -11.467460 63.527294 523.064880
   vertex -13.159883 63.254974 522.615906
  endloop
 facet normal -0.009523 -0.838658 0.544575
  outer loop
   vertex -13.159883 63.254974 522.615906
   vertex -11.467460 63.527294 523.064880
   vertex -13.167201 63.527294 523.035156
  endloop
 facet normal -0.999848 -0.000000 -0.017453
  outer loop
   vertex -13.167201 63.527294 523.035156
   vertex -13.157696 64.365967 522.490601
   vertex -13.159883 63.254974 522.615906
  endloop
 facet normal -0.014666 0.544638 0.838543
  outer loop
   vertex -12.743148 64.156296 522.634033
   vertex -13.157696 64.365967 522.490601
   vertex -13.167201 63.527294 523.035156
  endloop
 facet normal -0.014773 0.544490 0.838637
  outer loop
   vertex -12.807749 64.365967 522.496765
   vertex -13.157696 64.365967 522.490601
   vertex -12.743148 64.156296 522.634033
  endloop
 facet normal 0.014673 -0.544638 -0.838543
  outer loop
   vertex -36.288342 63.883980 521.803650
   vertex -35.869041 64.093651 521.674805
   vertex -35.878548 63.254978 522.219360
  endloop
 facet normal 0.999848 0.000002 0.017457
  outer loop
   vertex -35.878548 63.254978 522.219360
   vertex -35.869041 64.093651 521.674805
   vertex -35.885868 63.527298 522.638611
  endloop
 facet normal -0.009523 -0.838658 0.544575
  outer loop
   vertex -35.885868 63.527298 522.638611
   vertex -37.578289 63.254978 522.189636
   vertex -35.878548 63.254978 522.219360
  endloop
 facet normal -0.009503 -0.838694 0.544520
  outer loop
   vertex -37.585609 63.527298 522.608948
   vertex -37.578289 63.254978 522.189636
   vertex -35.885868 63.527298 522.638611
  endloop
 facet normal -0.999848 -0.000001 -0.017455
  outer loop
   vertex -37.568783 64.093651 521.645081
   vertex -37.578289 63.254978 522.189636
   vertex -37.585609 63.527298 522.608948
  endloop
 facet normal -0.999848 -0.000001 -0.017455
  outer loop
   vertex -37.585609 63.527298 522.608948
   vertex -37.576103 64.365967 522.064392
   vertex -37.568783 64.093651 521.645081
  endloop
 facet normal 0.009515 0.838698 -0.544514
  outer loop
   vertex -37.568783 64.093651 521.645081
   vertex -37.576103 64.365967 522.064392
   vertex -37.397469 64.229805 521.857788
  endloop
 facet normal 0.009497 0.838691 -0.544525
  outer loop
   vertex -37.397469 64.229805 521.857788
   vertex -37.576103 64.365967 522.064392
   vertex -37.226154 64.365967 522.070496
  endloop
 facet normal 0.009479 0.838698 -0.544515
  outer loop
   vertex -37.226154 64.365967 522.070496
   vertex -37.218838 64.093651 521.651184
   vertex -37.397469 64.229805 521.857788
  endloop
 facet normal -0.009497 -0.838698 0.544515
  outer loop
   vertex -37.568783 64.093651 521.645081
   vertex -37.218838 64.093651 521.651184
   vertex -37.226154 64.365967 522.070496
  endloop
 facet normal 0.009497 0.838705 -0.544504
  outer loop
   vertex -37.397469 64.229805 521.857788
   vertex -37.218838 64.093651 521.651184
   vertex -37.568783 64.093651 521.645081
  endloop
 facet normal 0.009506 0.838679 -0.544544
  outer loop
   vertex -34.312859 66.133125 521.480835
   vertex -34.314461 66.192825 521.572754
   vertex -14.700450 66.192825 521.915161
  endloop
 facet normal -0.014638 0.544698 0.838504
  outer loop
   vertex -14.700450 66.192825 521.915161
   vertex -34.314461 66.192825 521.572754
   vertex -34.315815 66.073463 521.650269
  endloop
 facet normal -0.014638 0.544698 0.838504
  outer loop
   vertex -34.315815 66.073463 521.650269
   vertex -14.701803 66.073463 521.992676
   vertex -14.700450 66.192825 521.915161
  endloop
 facet normal -0.014119 -0.587928 0.808790
  outer loop
   vertex -34.315445 66.044403 521.629150
   vertex -14.701803 66.073463 521.992676
   vertex -34.315815 66.073463 521.650269
  endloop
 facet normal -0.014119 -0.587927 0.808791
  outer loop
   vertex -14.701435 66.044403 521.971558
   vertex -14.701803 66.073463 521.992676
   vertex -34.315445 66.044403 521.629150
  endloop
 facet normal -0.014639 0.544645 0.838539
  outer loop
   vertex -34.315445 66.044403 521.629150
   vertex -34.321278 65.529854 521.963257
   vertex -14.701435 66.044403 521.971558
  endloop
 facet normal -0.014639 0.544645 0.838539
  outer loop
   vertex -14.701435 66.044403 521.971558
   vertex -34.321278 65.529854 521.963257
   vertex -14.707267 65.529854 522.305664
  endloop
 facet normal 0.003620 0.978260 -0.207350
  outer loop
   vertex -14.707267 65.529854 522.305664
   vertex -34.321278 65.529854 521.963257
   vertex -34.321892 65.537308 521.998413
  endloop
 facet normal 0.003625 0.978187 -0.207695
  outer loop
   vertex -34.321892 65.537308 521.998413
   vertex -14.707880 65.537308 522.340759
   vertex -14.707267 65.529854 522.305664
  endloop
 facet normal -0.014637 0.544595 0.838572
  outer loop
   vertex -34.322563 65.478081 522.036865
   vertex -14.707880 65.537308 522.340759
   vertex -34.321892 65.537308 521.998413
  endloop
 facet normal -0.014637 0.544595 0.838572
  outer loop
   vertex -14.708551 65.478081 522.379211
   vertex -14.707880 65.537308 522.340759
   vertex -34.322563 65.478081 522.036865
  endloop
 facet normal -0.009505 -0.838677 0.544546
  outer loop
   vertex -34.322563 65.478081 522.036865
   vertex -34.299580 64.623009 520.720337
   vertex -14.708551 65.478081 522.379211
  endloop
 facet normal -0.009507 -0.838665 0.544564
  outer loop
   vertex -14.708551 65.478081 522.379211
   vertex -34.299580 64.623009 520.720337
   vertex -14.685570 64.623009 521.062744
  endloop
 facet normal 0.014639 -0.544595 -0.838572
  outer loop
   vertex -14.685570 64.623009 521.062744
   vertex -34.299580 64.623009 520.720337
   vertex -14.684899 64.682236 521.024292
  endloop
 facet normal 0.014667 -0.544636 -0.838544
  outer loop
   vertex -12.735829 63.883980 522.214783
   vertex -13.159883 63.254974 522.615906
   vertex -13.150376 64.093651 522.071350
  endloop
 facet normal -0.999848 -0.000001 -0.017455
  outer loop
   vertex -13.150376 64.093651 522.071350
   vertex -13.159883 63.254974 522.615906
   vertex -13.157696 64.365967 522.490601
  endloop
 facet normal 0.009498 0.838661 -0.544570
  outer loop
   vertex -13.157696 64.365967 522.490601
   vertex -12.800429 64.093651 522.077454
   vertex -13.150376 64.093651 522.071350
  endloop
 facet normal 0.009592 0.838698 -0.544513
  outer loop
   vertex -12.807749 64.365967 522.496765
   vertex -12.800429 64.093651 522.077454
   vertex -13.157696 64.365967 522.490601
  endloop
 facet normal -0.009592 -0.838698 0.544513
  outer loop
   vertex -13.157696 64.365967 522.490601
   vertex -12.800429 64.093651 522.077454
   vertex -12.807749 64.365967 522.496765
  endloop
 facet normal -0.014770 0.544789 0.838443
  outer loop
   vertex -12.807749 64.365967 522.496765
   vertex -12.738395 64.575630 522.361755
   vertex -13.157696 64.365967 522.490601
  endloop
 facet normal -0.014642 0.544608 0.838563
  outer loop
   vertex -13.157696 64.365967 522.490601
   vertex -12.738395 64.575630 522.361755
   vertex -13.039794 64.722404 522.261169
  endloop
 facet normal -0.014681 0.544553 0.838598
  outer loop
   vertex -13.039794 64.722404 522.261169
   vertex -12.738395 64.575630 522.361755
   vertex -12.553670 64.729118 522.265320
  endloop
 facet normal -0.014682 0.544700 0.838502
  outer loop
   vertex -12.553670 64.729118 522.265320
   vertex -12.725761 64.983330 522.097168
   vertex -13.039794 64.722404 522.261169
  endloop
 facet normal -0.014695 0.544694 0.838506
  outer loop
   vertex -12.303072 64.785301 522.233215
   vertex -12.725761 64.983330 522.097168
   vertex -12.553670 64.729118 522.265320
  endloop
 facet normal -0.014707 0.544677 0.838517
  outer loop
   vertex -12.299745 65.078835 522.042603
   vertex -12.725761 64.983330 522.097168
   vertex -12.303072 64.785301 522.233215
  endloop
 facet normal -0.014589 0.544677 0.838519
  outer loop
   vertex -12.303072 64.785301 522.233215
   vertex -12.053746 64.729118 522.274048
   vertex -12.299745 65.078835 522.042603
  endloop
 facet normal -0.014555 0.544694 0.838508
  outer loop
   vertex -12.299745 65.078835 522.042603
   vertex -12.053746 64.729118 522.274048
   vertex -11.875891 64.983330 522.112000
  endloop
 facet normal -0.014547 0.544691 0.838511
  outer loop
   vertex -11.875891 64.983330 522.112000
   vertex -12.053746 64.729118 522.274048
   vertex -11.872501 64.575638 522.376892
  endloop
 facet normal -0.014616 0.544690 0.838510
  outer loop
   vertex -11.872501 64.575638 522.376892
   vertex -11.567775 64.722404 522.286865
   vertex -11.875891 64.983330 522.112000
  endloop
 facet normal -0.014620 0.544696 0.838506
  outer loop
   vertex -11.807900 64.365967 522.514221
   vertex -11.567775 64.722404 522.286865
   vertex -11.872501 64.575638 522.376892
  endloop
 facet normal -0.014625 0.544698 0.838505
  outer loop
   vertex -11.457953 64.365967 522.520325
   vertex -11.567775 64.722404 522.286865
   vertex -11.807900 64.365967 522.514221
  endloop
 facet normal -0.014626 0.544571 0.838587
  outer loop
   vertex -11.807900 64.365967 522.514221
   vertex -11.877254 64.156296 522.649170
   vertex -11.457953 64.365967 522.520325
  endloop
 facet normal -0.014673 0.544638 0.838543
  outer loop
   vertex -11.457953 64.365967 522.520325
   vertex -11.877254 64.156296 522.649170
   vertex -11.467460 63.527294 523.064880
  endloop
 facet normal -0.014742 0.544606 0.838563
  outer loop
   vertex -11.467460 63.527294 523.064880
   vertex -11.877254 64.156296 522.649170
   vertex -12.061979 64.002808 522.745605
  endloop
 facet normal -0.014510 0.544810 0.838434
  outer loop
   vertex -12.061979 64.002808 522.745605
   vertex -12.312577 63.946632 522.777771
   vertex -11.467460 63.527294 523.064880
  endloop
 facet normal -0.014675 0.544640 0.838542
  outer loop
   vertex -36.295662 64.156296 522.222900
   vertex -35.885868 63.527298 522.638611
   vertex -35.876362 64.365967 522.094055
  endloop
 facet normal 0.999848 0.000002 0.017457
  outer loop
   vertex -35.876362 64.365967 522.094055
   vertex -35.885868 63.527298 522.638611
   vertex -35.869041 64.093651 521.674805
  endloop
 facet normal 0.009498 0.838661 -0.544570
  outer loop
   vertex -35.869041 64.093651 521.674805
   vertex -36.226307 64.365967 522.087952
   vertex -35.876362 64.365967 522.094055
  endloop
 facet normal 0.009592 0.838698 -0.544513
  outer loop
   vertex -36.218990 64.093651 521.668640
   vertex -36.226307 64.365967 522.087952
   vertex -35.869041 64.093651 521.674805
  endloop
 facet normal -0.009592 -0.838698 0.544513
  outer loop
   vertex -35.869041 64.093651 521.674805
   vertex -36.226307 64.365967 522.087952
   vertex -36.218990 64.093651 521.668640
  endloop
 facet normal 0.014773 -0.544504 -0.838628
  outer loop
   vertex -36.218990 64.093651 521.668640
   vertex -36.283588 64.303314 521.531372
   vertex -35.869041 64.093651 521.674805
  endloop
 facet normal 0.014627 -0.544706 -0.838500
  outer loop
   vertex -35.869041 64.093651 521.674805
   vertex -36.283588 64.303314 521.531372
   vertex -35.978863 64.450081 521.441345
  endloop
 facet normal 0.014583 -0.544642 -0.838542
  outer loop
   vertex -35.978863 64.450081 521.441345
   vertex -36.283588 64.303314 521.531372
   vertex -36.464836 64.456802 521.428528
  endloop
 facet normal 0.014581 -0.544707 -0.838499
  outer loop
   vertex -36.464836 64.456802 521.428528
   vertex -36.286980 64.711014 521.266479
   vertex -35.978863 64.450081 521.441345
  endloop
 facet normal 0.014755 -0.544792 -0.838441
  outer loop
   vertex -36.714161 64.512985 521.387634
   vertex -36.286980 64.711014 521.266479
   vertex -36.464836 64.456802 521.428528
  endloop
 facet normal 0.014601 -0.544555 -0.838598
  outer loop
   vertex -36.710835 64.806519 521.197083
   vertex -36.286980 64.711014 521.266479
   vertex -36.714161 64.512985 521.387634
  endloop
 facet normal 0.014448 -0.544555 -0.838601
  outer loop
   vertex -36.714161 64.512985 521.387634
   vertex -36.964760 64.456802 521.419800
   vertex -36.710835 64.806519 521.197083
  endloop
 facet normal 0.014710 -0.544687 -0.838510
  outer loop
   vertex -36.710835 64.806519 521.197083
   vertex -36.964760 64.456802 521.419800
   vertex -37.136852 64.711014 521.251648
  endloop
 facet normal 0.014792 -0.544647 -0.838535
  outer loop
   vertex -37.136852 64.711014 521.251648
   vertex -36.964760 64.456802 521.419800
   vertex -37.149483 64.303314 521.516235
  endloop
 facet normal 0.014630 -0.544645 -0.838539
  outer loop
   vertex -37.149483 64.303314 521.516235
   vertex -37.450882 64.450081 521.415649
   vertex -37.136852 64.711014 521.251648
  endloop
 facet normal 0.014666 -0.544594 -0.838572
  outer loop
   vertex -37.218838 64.093651 521.651184
   vertex -37.450882 64.450081 521.415649
   vertex -37.149483 64.303314 521.516235
  endloop
 facet normal 0.014626 -0.544612 -0.838560
  outer loop
   vertex -37.568783 64.093651 521.645081
   vertex -37.450882 64.450081 521.415649
   vertex -37.218838 64.093651 521.651184
  endloop
 facet normal 0.014625 -0.544694 -0.838507
  outer loop
   vertex -37.218838 64.093651 521.651184
   vertex -37.154236 63.883980 521.788513
   vertex -37.568783 64.093651 521.645081
  endloop
 facet normal 0.014666 -0.544638 -0.838543
  outer loop
   vertex -37.568783 64.093651 521.645081
   vertex -37.154236 63.883980 521.788513
   vertex -37.578289 63.254978 522.189636
  endloop
 facet normal 0.014616 -0.544615 -0.838559
  outer loop
   vertex -37.578289 63.254978 522.189636
   vertex -37.154236 63.883980 521.788513
   vertex -36.972992 63.730492 521.891357
  endloop
 facet normal 0.014617 -0.544616 -0.838558
  outer loop
   vertex -36.972992 63.730492 521.891357
   vertex -36.723667 63.674313 521.932190
   vertex -37.578289 63.254978 522.189636
  endloop
 facet normal -0.017395 0.102993 0.994530
  outer loop
   vertex -34.734455 65.492226 522.075928
   vertex -34.735447 64.943352 522.132751
   vertex -33.575916 65.492226 522.096191
  endloop
 facet normal -0.017343 0.102884 0.994542
  outer loop
   vertex -33.575916 65.492226 522.096191
   vertex -34.735447 64.943352 522.132751
   vertex -33.576908 64.943352 522.152954
  endloop
 facet normal 0.999848 -0.000002 0.017455
  outer loop
   vertex -33.576908 64.943352 522.152954
   vertex -33.559921 64.311340 521.179871
   vertex -33.575916 65.492226 522.096191
  endloop
 facet normal -0.009496 -0.838676 0.544549
  outer loop
   vertex -34.735447 64.943352 522.132751
   vertex -33.559921 64.311340 521.179871
   vertex -33.576908 64.943352 522.152954
  endloop
 facet normal -0.009496 -0.838676 0.544549
  outer loop
   vertex -34.718460 64.311340 521.159668
   vertex -33.559921 64.311340 521.179871
   vertex -34.735447 64.943352 522.132751
  endloop
 facet normal -0.999848 -0.000002 -0.017452
  outer loop
   vertex -34.735447 64.943352 522.132751
   vertex -34.710114 64.586479 520.681458
   vertex -34.718460 64.311340 521.159668
  endloop
 facet normal 0.008694 -0.866808 -0.498567
  outer loop
   vertex -34.718460 64.311340 521.159668
   vertex -34.710114 64.586479 520.681458
   vertex -33.559921 64.311340 521.179871
  endloop
 facet normal 0.008694 -0.866808 -0.498567
  outer loop
   vertex -33.559921 64.311340 521.179871
   vertex -34.710114 64.586479 520.681458
   vertex -33.551575 64.586479 520.701660
  endloop
 facet normal 0.999848 0.000001 0.017452
  outer loop
   vertex -33.551575 64.586479 520.701660
   vertex -33.575916 65.492226 522.096191
   vertex -33.559921 64.311340 521.179871
  endloop
 facet normal 0.999848 -0.000003 0.017454
  outer loop
   vertex -33.547199 65.408752 520.451172
   vertex -33.575916 65.492226 522.096191
   vertex -33.551575 64.586479 520.701660
  endloop
 facet normal 0.999848 0.000000 0.017454
  outer loop
   vertex -33.564583 66.055527 521.446960
   vertex -33.575916 65.492226 522.096191
   vertex -33.547199 65.408752 520.451172
  endloop
 facet normal 0.009496 0.838669 -0.544558
  outer loop
   vertex -33.547199 65.408752 520.451172
   vertex -34.723122 66.055527 521.426758
   vertex -33.564583 66.055527 521.446960
  endloop
 facet normal 0.015864 -0.414857 -0.909748
  outer loop
   vertex -33.564583 66.055527 521.446960
   vertex -34.723122 66.055527 521.426758
   vertex -33.563862 66.146301 521.405579
  endloop
 facet normal 0.015864 -0.414857 -0.909748
  outer loop
   vertex -33.563862 66.146301 521.405579
   vertex -34.723122 66.055527 521.426758
   vertex -34.722401 66.146301 521.385376
  endloop
 facet normal 0.009496 0.838674 -0.544550
  outer loop
   vertex -34.722401 66.146301 521.385376
   vertex -33.566189 66.232880 521.538879
   vertex -33.563862 66.146301 521.405579
  endloop
 facet normal 0.009528 0.838561 -0.544725
  outer loop
   vertex -34.724728 66.232880 521.518616
   vertex -33.566189 66.232880 521.538879
   vertex -34.722401 66.146301 521.385376
  endloop
 facet normal -0.005799 0.943411 0.331576
  outer loop
   vertex -34.726456 66.198074 521.617615
   vertex -33.566189 66.232880 521.538879
   vertex -34.724728 66.232880 521.518616
  endloop
 facet normal -0.999848 -0.000012 -0.017457
  outer loop
   vertex -34.724728 66.232880 521.518616
   vertex -34.723122 66.055527 521.426758
   vertex -34.726456 66.198074 521.617615
  endloop
 facet normal -0.999848 -0.000006 -0.017461
  outer loop
   vertex -34.726456 66.198074 521.617615
   vertex -34.723122 66.055527 521.426758
   vertex -34.734455 65.492226 522.075928
  endloop
 facet normal -0.999848 0.000001 -0.017455
  outer loop
   vertex -34.734455 65.492226 522.075928
   vertex -34.723122 66.055527 521.426758
   vertex -34.705738 65.408752 520.430969
  endloop
 facet normal -0.999848 0.000003 -0.017455
  outer loop
   vertex -34.705738 65.408752 520.430969
   vertex -34.710114 64.586479 520.681458
   vertex -34.734455 65.492226 522.075928
  endloop
 facet normal -0.999848 0.000003 -0.017455
  outer loop
   vertex -34.702110 65.292328 520.223145
   vertex -34.710114 64.586479 520.681458
   vertex -34.705738 65.408752 520.430969
  endloop
 facet normal 0.014623 -0.544638 -0.838543
  outer loop
   vertex -33.551575 64.586479 520.701660
   vertex -34.710114 64.586479 520.681458
   vertex -34.702110 65.292328 520.223145
  endloop
 facet normal 0.014623 -0.544638 -0.838543
  outer loop
   vertex -34.702110 65.292328 520.223145
   vertex -33.543571 65.292328 520.243347
   vertex -33.551575 64.586479 520.701660
  endloop
 facet normal 0.999848 -0.000003 0.017455
  outer loop
   vertex -33.551575 64.586479 520.701660
   vertex -33.543571 65.292328 520.243347
   vertex -33.547199 65.408752 520.451172
  endloop
 facet normal 0.999848 0.000007 0.017449
  outer loop
   vertex -33.547199 65.408752 520.451172
   vertex -33.543571 65.292328 520.243347
   vertex -33.543720 65.396935 520.251831
  endloop
 facet normal 0.999848 0.000007 0.017449
  outer loop
   vertex -33.543720 65.396935 520.251831
   vertex -33.546047 65.483513 520.385132
   vertex -33.547199 65.408752 520.451172
  endloop
 facet normal 0.009525 0.838674 -0.544550
  outer loop
   vertex -34.704586 65.483513 520.364868
   vertex -33.546047 65.483513 520.385132
   vertex -33.543720 65.396935 520.251831
  endloop
 facet normal -0.013106 0.662101 0.749300
  outer loop
   vertex -33.547199 65.408752 520.451172
   vertex -33.546047 65.483513 520.385132
   vertex -34.704586 65.483513 520.364868
  endloop
 facet normal -0.013061 0.662444 0.748998
  outer loop
   vertex -34.704586 65.483513 520.364868
   vertex -34.705738 65.408752 520.430969
   vertex -33.547199 65.408752 520.451172
  endloop
 facet normal 0.009496 0.838669 -0.544558
  outer loop
   vertex -33.547199 65.408752 520.451172
   vertex -34.705738 65.408752 520.430969
   vertex -34.723122 66.055527 521.426758
  endloop
 facet normal 0.008693 -0.866835 -0.498519
  outer loop
   vertex -14.273932 64.586479 521.038147
   vertex -14.282280 64.311340 521.516418
   vertex -15.432470 64.586479 521.017944
  endloop
 facet normal 0.008693 -0.866835 -0.498519
  outer loop
   vertex -15.432470 64.586479 521.017944
   vertex -14.282280 64.311340 521.516418
   vertex -15.440819 64.311340 521.496216
  endloop
 facet normal -0.999848 -0.000001 -0.017453
  outer loop
   vertex -15.440819 64.311340 521.496216
   vertex -15.457805 64.943352 522.469238
   vertex -15.432470 64.586479 521.017944
  endloop
 facet normal -0.009496 -0.838660 0.544573
  outer loop
   vertex -14.282280 64.311340 521.516418
   vertex -15.457805 64.943352 522.469238
   vertex -15.440819 64.311340 521.496216
  endloop
 facet normal -0.009525 -0.838676 0.544548
  outer loop
   vertex -14.299266 64.943352 522.489502
   vertex -15.457805 64.943352 522.469238
   vertex -14.282280 64.311340 521.516418
  endloop
 facet normal 0.999848 0.000000 0.017453
  outer loop
   vertex -14.282280 64.311340 521.516418
   vertex -14.298274 65.492226 522.432678
   vertex -14.299266 64.943352 522.489502
  endloop
 facet normal -0.017395 0.102993 0.994530
  outer loop
   vertex -14.299266 64.943352 522.489502
   vertex -14.298274 65.492226 522.432678
   vertex -15.457805 64.943352 522.469238
  endloop
 facet normal -0.017343 0.102884 0.994542
  outer loop
   vertex -15.457805 64.943352 522.469238
   vertex -14.298274 65.492226 522.432678
   vertex -15.456813 65.492226 522.412476
  endloop
 facet normal -0.999848 0.000002 -0.017454
  outer loop
   vertex -15.456813 65.492226 522.412476
   vertex -15.432470 64.586479 521.017944
   vertex -15.457805 64.943352 522.469238
  endloop
 facet normal -0.999848 -0.000001 -0.017452
  outer loop
   vertex -15.445481 66.055519 521.763245
   vertex -15.432470 64.586479 521.017944
   vertex -15.456813 65.492226 522.412476
  endloop
 facet normal -0.999848 -0.000000 -0.017454
  outer loop
   vertex -15.428098 65.408752 520.767456
   vertex -15.432470 64.586479 521.017944
   vertex -15.445481 66.055519 521.763245
  endloop
 facet normal 0.009525 0.838672 -0.544553
  outer loop
   vertex -15.445481 66.055519 521.763245
   vertex -14.269560 65.408752 520.787720
   vertex -15.428098 65.408752 520.767456
  endloop
 facet normal -0.013106 0.662101 0.749300
  outer loop
   vertex -15.428098 65.408752 520.767456
   vertex -14.269560 65.408752 520.787720
   vertex -15.426945 65.483513 520.701416
  endloop
 facet normal -0.013061 0.662444 0.748997
  outer loop
   vertex -15.426945 65.483513 520.701416
   vertex -14.269560 65.408752 520.787720
   vertex -14.268406 65.483513 520.721619
  endloop
 facet normal 0.009496 0.838674 -0.544550
  outer loop
   vertex -14.268406 65.483513 520.721619
   vertex -15.424618 65.396935 520.568115
   vertex -15.426945 65.483513 520.701416
  endloop
 facet normal 0.009496 0.838674 -0.544550
  outer loop
   vertex -14.266079 65.396935 520.588318
   vertex -15.424618 65.396935 520.568115
   vertex -14.268406 65.483513 520.721619
  endloop
 facet normal 0.017378 0.080850 -0.996575
  outer loop
   vertex -14.265931 65.292328 520.579834
   vertex -15.424618 65.396935 520.568115
   vertex -14.266079 65.396935 520.588318
  endloop
 facet normal 0.999848 -0.000003 0.017454
  outer loop
   vertex -14.266079 65.396935 520.588318
   vertex -14.269560 65.408752 520.787720
   vertex -14.265931 65.292328 520.579834
  endloop
 facet normal 0.999848 -0.000000 0.017453
  outer loop
   vertex -14.265931 65.292328 520.579834
   vertex -14.269560 65.408752 520.787720
   vertex -14.273932 64.586479 521.038147
  endloop
 facet normal 0.999848 -0.000000 0.017454
  outer loop
   vertex -14.273932 64.586479 521.038147
   vertex -14.269560 65.408752 520.787720
   vertex -14.286942 66.055519 521.783508
  endloop
 facet normal 0.999848 0.000000 0.017453
  outer loop
   vertex -14.286942 66.055519 521.783508
   vertex -14.298274 65.492226 522.432678
   vertex -14.273932 64.586479 521.038147
  endloop
 facet normal 0.999848 -0.000001 0.017452
  outer loop
   vertex -14.290274 66.198074 521.974365
   vertex -14.298274 65.492226 522.432678
   vertex -14.286942 66.055519 521.783508
  endloop
 facet normal -0.014623 0.544638 0.838543
  outer loop
   vertex -15.456813 65.492226 522.412476
   vertex -14.298274 65.492226 522.432678
   vertex -14.290274 66.198074 521.974365
  endloop
 facet normal -0.014623 0.544638 0.838543
  outer loop
   vertex -14.290274 66.198074 521.974365
   vertex -15.448812 66.198074 521.954163
   vertex -15.456813 65.492226 522.412476
  endloop
 facet normal -0.999848 0.000003 -0.017448
  outer loop
   vertex -15.456813 65.492226 522.412476
   vertex -15.448812 66.198074 521.954163
   vertex -15.445481 66.055519 521.763245
  endloop
 facet normal -0.999848 0.000006 -0.017450
  outer loop
   vertex -15.445481 66.055519 521.763245
   vertex -15.448812 66.198074 521.954163
   vertex -15.447084 66.232880 521.855164
  endloop
 facet normal -0.999848 0.000007 -0.017451
  outer loop
   vertex -15.447084 66.232880 521.855164
   vertex -15.444758 66.146301 521.721863
   vertex -15.445481 66.055519 521.763245
  endloop
 facet normal 0.009496 0.838674 -0.544550
  outer loop
   vertex -14.286220 66.146301 521.742065
   vertex -15.444758 66.146301 521.721863
   vertex -15.447084 66.232880 521.855164
  endloop
 facet normal 0.015864 -0.414829 -0.909761
  outer loop
   vertex -15.445481 66.055519 521.763245
   vertex -15.444758 66.146301 521.721863
   vertex -14.286220 66.146301 521.742065
  endloop
 facet normal 0.015908 -0.415335 -0.909529
  outer loop
   vertex -14.286220 66.146301 521.742065
   vertex -14.286942 66.055519 521.783508
   vertex -15.445481 66.055519 521.763245
  endloop
 facet normal 0.009525 0.838672 -0.544553
  outer loop
   vertex -15.445481 66.055519 521.763245
   vertex -14.286942 66.055519 521.783508
   vertex -14.269560 65.408752 520.787720
  endloop
 facet normal -0.014625 0.544694 0.838507
  outer loop
   vertex -36.226307 64.365967 522.087952
   vertex -35.876362 64.365967 522.094055
   vertex -36.290909 64.575638 521.950623
  endloop
 facet normal -0.014622 0.544698 0.838505
  outer loop
   vertex -36.290909 64.575638 521.950623
   vertex -35.876362 64.365967 522.094055
   vertex -35.986183 64.722404 521.860596
  endloop
 facet normal -0.014583 0.544642 0.838542
  outer loop
   vertex -35.986183 64.722404 521.860596
   vertex -36.472153 64.729126 521.847778
   vertex -36.290909 64.575638 521.950623
  endloop
 facet normal -0.014585 0.544578 0.838583
  outer loop
   vertex -36.294300 64.983330 521.685791
   vertex -36.472153 64.729126 521.847778
   vertex -35.986183 64.722404 521.860596
  endloop
 facet normal -0.014631 0.544600 0.838568
  outer loop
   vertex -36.721478 64.785301 521.806946
   vertex -36.472153 64.729126 521.847778
   vertex -36.294300 64.983330 521.685791
  endloop
 facet normal -0.014674 0.544667 0.838524
  outer loop
   vertex -36.294300 64.983330 521.685791
   vertex -36.718151 65.078842 521.616333
   vertex -36.721478 64.785301 521.806946
  endloop
 facet normal -0.014671 0.544667 0.838524
  outer loop
   vertex -36.721478 64.785301 521.806946
   vertex -36.718151 65.078842 521.616333
   vertex -36.972076 64.729126 521.839050
  endloop
 facet normal -0.014578 0.544621 0.838556
  outer loop
   vertex -36.972076 64.729126 521.839050
   vertex -36.718151 65.078842 521.616333
   vertex -37.144173 64.983330 521.670959
  endloop
 facet normal -0.014516 0.544651 0.838537
  outer loop
   vertex -37.144173 64.983330 521.670959
   vertex -37.156803 64.575638 521.935547
   vertex -36.972076 64.729126 521.839050
  endloop
 facet normal -0.014792 0.544655 0.838530
  outer loop
   vertex -37.458202 64.722404 521.834900
   vertex -37.156803 64.575638 521.935547
   vertex -37.144173 64.983330 521.670959
  endloop
 facet normal -0.014820 0.544614 0.838556
  outer loop
   vertex -37.226154 64.365967 522.070496
   vertex -37.156803 64.575638 521.935547
   vertex -37.458202 64.722404 521.834900
  endloop
 facet normal -0.014624 0.544705 0.838500
  outer loop
   vertex -37.458202 64.722404 521.834900
   vertex -37.576103 64.365967 522.064392
   vertex -37.226154 64.365967 522.070496
  endloop
 facet normal -0.014624 0.544709 0.838498
  outer loop
   vertex -37.226154 64.365967 522.070496
   vertex -37.576103 64.365967 522.064392
   vertex -37.161556 64.156303 522.207825
  endloop
 facet normal -0.014675 0.544640 0.838542
  outer loop
   vertex -37.161556 64.156303 522.207825
   vertex -37.576103 64.365967 522.064392
   vertex -37.585609 63.527298 522.608948
  endloop
 facet normal -0.014618 0.544613 0.838560
  outer loop
   vertex -37.585609 63.527298 522.608948
   vertex -36.980309 64.002815 522.310669
   vertex -37.161556 64.156303 522.207825
  endloop
 facet normal -0.014612 0.544608 0.838564
  outer loop
   vertex -36.730984 63.946632 522.351501
   vertex -36.980309 64.002815 522.310669
   vertex -37.585609 63.527298 522.608948
  endloop
 facet normal 0.014626 -0.544585 -0.838578
  outer loop
   vertex -12.800429 64.093651 522.077454
   vertex -13.150376 64.093651 522.071350
   vertex -12.731076 64.303314 521.942505
  endloop
 facet normal 0.014649 -0.544618 -0.838556
  outer loop
   vertex -12.731076 64.303314 521.942505
   vertex -13.150376 64.093651 522.071350
   vertex -13.032475 64.450081 521.841919
  endloop
 facet normal 0.014585 -0.544709 -0.838498
  outer loop
   vertex -13.032475 64.450081 521.841919
   vertex -12.546351 64.456802 521.846008
   vertex -12.731076 64.303314 521.942505
  endloop
 facet normal 0.014584 -0.544607 -0.838565
  outer loop
   vertex -12.718443 64.711014 521.677917
   vertex -12.546351 64.456802 521.846008
   vertex -13.032475 64.450081 521.841919
  endloop
 facet normal 0.014658 -0.544571 -0.838586
  outer loop
   vertex -12.295753 64.512985 521.813904
   vertex -12.546351 64.456802 521.846008
   vertex -12.718443 64.711014 521.677917
  endloop
 facet normal 0.014586 -0.544677 -0.838519
  outer loop
   vertex -12.718443 64.711014 521.677917
   vertex -12.292426 64.806519 521.623291
   vertex -12.295753 64.512985 521.813904
  endloop
 facet normal 0.014589 -0.544677 -0.838519
  outer loop
   vertex -12.295753 64.512985 521.813904
   vertex -12.292426 64.806519 521.623291
   vertex -12.046428 64.456802 521.854736
  endloop
 facet normal 0.014699 -0.544622 -0.838553
  outer loop
   vertex -12.046428 64.456802 521.854736
   vertex -12.292426 64.806519 521.623291
   vertex -11.868572 64.711014 521.692749
  endloop
 facet normal 0.014817 -0.544680 -0.838513
  outer loop
   vertex -11.868572 64.711014 521.692749
   vertex -11.865182 64.303314 521.957642
   vertex -12.046428 64.456802 521.854736
  endloop
 facet normal 0.014611 -0.544683 -0.838515
  outer loop
   vertex -11.560455 64.450081 521.867615
   vertex -11.865182 64.303314 521.957642
   vertex -11.868572 64.711014 521.692749
  endloop
 facet normal 0.014527 -0.544559 -0.838597
  outer loop
   vertex -11.800582 64.093651 522.094910
   vertex -11.865182 64.303314 521.957642
   vertex -11.560455 64.450081 521.867615
  endloop
 facet normal 0.014626 -0.544605 -0.838565
  outer loop
   vertex -11.560455 64.450081 521.867615
   vertex -11.450635 64.093651 522.101013
   vertex -11.800582 64.093651 522.094910
  endloop
 facet normal 0.014624 -0.544742 -0.838476
  outer loop
   vertex -11.800582 64.093651 522.094910
   vertex -11.450635 64.093651 522.101013
   vertex -11.869935 63.883980 522.229919
  endloop
 facet normal 0.014549 -0.544636 -0.838546
  outer loop
   vertex -11.869935 63.883980 522.229919
   vertex -11.450635 64.093651 522.101013
   vertex -11.460140 63.254974 522.645569
  endloop
 facet normal 0.014697 -0.544567 -0.838588
  outer loop
   vertex -11.460140 63.254974 522.645569
   vertex -12.054660 63.730492 522.326355
   vertex -11.869935 63.883980 522.229919
  endloop
 facet normal 0.014659 -0.544601 -0.838567
  outer loop
   vertex -12.305259 63.674313 522.358459
   vertex -12.054660 63.730492 522.326355
   vertex -11.460140 63.254974 522.645569
  endloop
 facet normal 0.014663 -0.544682 -0.838514
  outer loop
   vertex -37.578289 63.254978 522.189636
   vertex -36.723667 63.674313 521.932190
   vertex -35.878548 63.254978 522.219360
  endloop
 facet normal 0.014677 -0.544663 -0.838527
  outer loop
   vertex -35.878548 63.254978 522.219360
   vertex -36.723667 63.674313 521.932190
   vertex -36.473068 63.730492 521.900085
  endloop
 facet normal 0.014742 -0.544606 -0.838563
  outer loop
   vertex -36.473068 63.730492 521.900085
   vertex -36.288342 63.883980 521.803650
   vertex -35.878548 63.254978 522.219360
  endloop
 facet normal 0.014618 -0.544613 -0.838560
  outer loop
   vertex -12.735829 63.883980 522.214783
   vertex -12.554584 63.730492 522.317627
   vertex -13.159883 63.254974 522.615906
  endloop
 facet normal 0.014618 -0.544613 -0.838560
  outer loop
   vertex -13.159883 63.254974 522.615906
   vertex -12.554584 63.730492 522.317627
   vertex -12.305259 63.674313 522.358459
  endloop
 facet normal 0.014634 -0.544636 -0.838545
  outer loop
   vertex -12.305259 63.674313 522.358459
   vertex -11.460140 63.254974 522.645569
   vertex -13.159883 63.254974 522.615906
  endloop
 facet normal -0.014664 0.544593 0.838572
  outer loop
   vertex -11.467460 63.527294 523.064880
   vertex -12.312577 63.946632 522.777771
   vertex -13.167201 63.527294 523.035156
  endloop
 facet normal -0.014782 0.544763 0.838460
  outer loop
   vertex -13.167201 63.527294 523.035156
   vertex -12.312577 63.946632 522.777771
   vertex -12.561903 64.002808 522.736877
  endloop
 facet normal -0.014616 0.544615 0.838559
  outer loop
   vertex -12.561903 64.002808 522.736877
   vertex -12.743148 64.156296 522.634033
   vertex -13.167201 63.527294 523.035156
  endloop
 facet normal -0.014549 0.544698 0.838506
  outer loop
   vertex -36.295662 64.156296 522.222900
   vertex -36.480385 64.002815 522.319397
   vertex -35.885868 63.527298 522.638611
  endloop
 facet normal -0.014665 0.544596 0.838570
  outer loop
   vertex -35.885868 63.527298 522.638611
   vertex -36.480385 64.002815 522.319397
   vertex -36.730984 63.946632 522.351501
  endloop
 facet normal -0.014634 0.544640 0.838543
  outer loop
   vertex -36.730984 63.946632 522.351501
   vertex -37.585609 63.527298 522.608948
   vertex -35.885868 63.527298 522.638611
  endloop
 facet normal -0.005782 0.943411 0.331576
  outer loop
   vertex -14.290274 66.198074 521.974365
   vertex -14.288546 66.232880 521.875366
   vertex -15.448812 66.198074 521.954163
  endloop
 facet normal -0.005782 0.943411 0.331576
  outer loop
   vertex -15.448812 66.198074 521.954163
   vertex -14.288546 66.232880 521.875366
   vertex -15.447084 66.232880 521.855164
  endloop
 facet normal 0.014636 -0.544645 -0.838539
  outer loop
   vertex -34.299278 64.711296 520.703003
   vertex -34.293446 65.225845 520.368896
   vertex -14.685267 64.711296 521.045349
  endloop
 facet normal 0.014636 -0.544645 -0.838539
  outer loop
   vertex -14.685267 64.711296 521.045349
   vertex -34.293446 65.225845 520.368896
   vertex -14.679435 65.225845 520.711243
  endloop
 facet normal 0.017431 0.080850 -0.996574
  outer loop
   vertex -33.543720 65.396935 520.251831
   vertex -33.543571 65.292328 520.243347
   vertex -34.702259 65.396935 520.231567
  endloop
 facet normal 0.017379 0.080272 -0.996621
  outer loop
   vertex -34.702259 65.396935 520.231567
   vertex -33.543571 65.292328 520.243347
   vertex -34.702110 65.292328 520.223145
  endloop
 facet normal 0.009497 0.838691 -0.544525
  outer loop
   vertex -11.807900 64.365967 522.514221
   vertex -11.457953 64.365967 522.520325
   vertex -11.629268 64.229805 522.307617
  endloop
 facet normal 0.999848 0.000000 0.017453
  outer loop
   vertex -14.273932 64.586479 521.038147
   vertex -14.298274 65.492226 522.432678
   vertex -14.282280 64.311340 521.516418
  endloop
 facet normal 0.014625 -0.544695 -0.838507
  outer loop
   vertex -13.150376 64.093651 522.071350
   vertex -12.800429 64.093651 522.077454
   vertex -12.735829 63.883980 522.214783
  endloop
 facet normal 0.014770 -0.544775 -0.838452
  outer loop
   vertex -36.218990 64.093651 521.668640
   vertex -35.869041 64.093651 521.674805
   vertex -36.288342 63.883980 521.803650
  endloop
 facet normal -0.009497 -0.838698 0.544515
  outer loop
   vertex -11.457953 64.365967 522.520325
   vertex -11.800582 64.093651 522.094910
   vertex -11.450635 64.093651 522.101013
  endloop
 facet normal -0.014628 0.544633 0.838547
  outer loop
   vertex -34.487537 65.049202 522.041199
   vertex -36.135448 65.049202 522.012451
   vertex -36.150097 63.756771 522.851624
  endloop
 facet normal 0.014659 -0.544630 -0.838548
  outer loop
   vertex -14.542156 63.149532 522.293579
   vertex -14.527507 64.441971 521.454407
   vertex -12.894246 63.149532 522.322388
  endloop
 facet normal -0.009497 -0.838698 0.544515
  outer loop
   vertex -37.568783 64.093651 521.645081
   vertex -37.226154 64.365967 522.070496
   vertex -37.576103 64.365967 522.064392
  endloop
 facet normal -0.999848 -0.000015 -0.017452
  outer loop
   vertex -34.724728 66.232880 521.518616
   vertex -34.722401 66.146301 521.385376
   vertex -34.723122 66.055527 521.426758
  endloop
 facet normal -0.009498 -0.838661 0.544570
  outer loop
   vertex -12.800429 64.093651 522.077454
   vertex -13.157696 64.365967 522.490601
   vertex -13.150376 64.093651 522.071350
  endloop
 facet normal -0.999848 -0.000000 -0.017453
  outer loop
   vertex -34.734455 65.492226 522.075928
   vertex -34.710114 64.586479 520.681458
   vertex -34.735447 64.943352 522.132751
  endloop
 facet normal 0.999848 -0.000000 0.017454
  outer loop
   vertex -14.266079 65.396935 520.588318
   vertex -14.268406 65.483513 520.721619
   vertex -14.269560 65.408752 520.787720
  endloop
 facet normal -0.014628 0.544633 0.838547
  outer loop
   vertex -14.543827 65.049202 522.389343
   vertex -14.558476 63.756771 523.228516
   vertex -12.910566 63.756771 523.257263
  endloop
 facet normal 0.999848 -0.000000 0.017453
  outer loop
   vertex -34.502186 63.756771 522.880371
   vertex -34.485867 63.149536 521.945435
   vertex -34.471218 64.441971 521.106262
  endloop
 facet normal -0.009498 -0.838661 0.544570
  outer loop
   vertex -36.226307 64.365967 522.087952
   vertex -35.869041 64.093651 521.674805
   vertex -35.876362 64.365967 522.094055
  endloop
 facet normal -0.014626 0.544571 0.838587
  outer loop
   vertex -35.876362 64.365967 522.094055
   vertex -36.226307 64.365967 522.087952
   vertex -36.295662 64.156296 522.222900
  endloop
 facet normal -0.700241 0.593077 -0.397395
  outer loop
   vertex -36.480385 64.002815 522.319397
   vertex -36.288342 63.883980 521.803650
   vertex -36.473068 63.730492 521.900085
  endloop
 facet normal -0.249585 0.810117 -0.530489
  outer loop
   vertex -36.480385 64.002815 522.319397
   vertex -36.473068 63.730492 521.900085
   vertex -36.730984 63.946632 522.351501
  endloop
 facet normal -0.249574 0.810123 -0.530485
  outer loop
   vertex -36.730984 63.946632 522.351501
   vertex -36.473068 63.730492 521.900085
   vertex -36.723667 63.674313 521.932190
  endloop
 facet normal 0.267951 0.810118 -0.521451
  outer loop
   vertex -36.723667 63.674313 521.932190
   vertex -36.980309 64.002815 522.310669
   vertex -36.730984 63.946632 522.351501
  endloop
 facet normal 0.267940 0.810117 -0.521458
  outer loop
   vertex -36.972992 63.730492 521.891357
   vertex -36.980309 64.002815 522.310669
   vertex -36.723667 63.674313 521.932190
  endloop
 facet normal 0.713706 0.593054 -0.372708
  outer loop
   vertex -37.161556 64.156303 522.207825
   vertex -36.980309 64.002815 522.310669
   vertex -36.972992 63.730492 521.891357
  endloop
 facet normal 0.713713 0.593050 -0.372699
  outer loop
   vertex -36.972992 63.730492 521.891357
   vertex -37.154236 63.883980 521.788513
   vertex -37.161556 64.156303 522.207825
  endloop
 facet normal 0.968243 0.217057 -0.124065
  outer loop
   vertex -37.161556 64.156303 522.207825
   vertex -37.154236 63.883980 521.788513
   vertex -37.226154 64.365967 522.070496
  endloop
 facet normal -0.963315 0.217082 -0.157794
  outer loop
   vertex -11.807900 64.365967 522.514221
   vertex -11.800582 64.093651 522.094910
   vertex -11.877254 64.156296 522.649170
  endloop
 facet normal -0.963326 0.217037 -0.157790
  outer loop
   vertex -11.877254 64.156296 522.649170
   vertex -11.800582 64.093651 522.094910
   vertex -11.869935 63.883980 522.229919
  endloop
 facet normal -0.700244 0.593050 -0.397429
  outer loop
   vertex -11.869935 63.883980 522.229919
   vertex -12.061979 64.002808 522.745605
   vertex -11.877254 64.156296 522.649170
  endloop
 facet normal -0.700244 0.593050 -0.397429
  outer loop
   vertex -12.054660 63.730492 522.326355
   vertex -12.061979 64.002808 522.745605
   vertex -11.869935 63.883980 522.229919
  endloop
 facet normal -0.249683 0.810065 -0.530521
  outer loop
   vertex -12.312577 63.946632 522.777771
   vertex -12.061979 64.002808 522.745605
   vertex -12.054660 63.730492 522.326355
  endloop
 facet normal -0.249574 0.810122 -0.530486
  outer loop
   vertex -12.054660 63.730492 522.326355
   vertex -12.305259 63.674313 522.358459
   vertex -12.312577 63.946632 522.777771
  endloop
 facet normal 0.268046 0.810097 -0.521435
  outer loop
   vertex -12.312577 63.946632 522.777771
   vertex -12.305259 63.674313 522.358459
   vertex -12.561903 64.002808 522.736877
  endloop
 facet normal 0.267941 0.810090 -0.521500
  outer loop
   vertex -12.561903 64.002808 522.736877
   vertex -12.305259 63.674313 522.358459
   vertex -12.554584 63.730492 522.317627
  endloop
 facet normal 0.713712 0.593031 -0.372732
  outer loop
   vertex -12.554584 63.730492 522.317627
   vertex -12.743148 64.156296 522.634033
   vertex -12.561903 64.002808 522.736877
  endloop
 facet normal 0.968242 0.217055 -0.124078
  outer loop
   vertex -35.876362 64.365967 522.094055
   vertex -35.869041 64.093651 521.674805
   vertex -35.986183 64.722404 521.860596
  endloop
 facet normal 0.968241 0.217056 -0.124082
  outer loop
   vertex -35.986183 64.722404 521.860596
   vertex -35.869041 64.093651 521.674805
   vertex -35.978863 64.450081 521.441345
  endloop
 facet normal 0.713689 0.593047 -0.372751
  outer loop
   vertex -35.978863 64.450081 521.441345
   vertex -36.294300 64.983330 521.685791
   vertex -35.986183 64.722404 521.860596
  endloop
 facet normal 0.713731 0.593040 -0.372681
  outer loop
   vertex -36.286980 64.711014 521.266479
   vertex -36.294300 64.983330 521.685791
   vertex -35.978863 64.450081 521.441345
  endloop
 facet normal 0.268003 0.810110 -0.521436
  outer loop
   vertex -36.718151 65.078842 521.616333
   vertex -36.294300 64.983330 521.685791
   vertex -36.286980 64.711014 521.266479
  endloop
 facet normal 0.267919 0.810087 -0.521515
  outer loop
   vertex -36.286980 64.711014 521.266479
   vertex -36.710835 64.806519 521.197083
   vertex -36.718151 65.078842 521.616333
  endloop
 facet normal -0.249642 0.810068 -0.530536
  outer loop
   vertex -36.718151 65.078842 521.616333
   vertex -36.710835 64.806519 521.197083
   vertex -37.144173 64.983330 521.670959
  endloop
 facet normal -0.249560 0.810128 -0.530483
  outer loop
   vertex -37.144173 64.983330 521.670959
   vertex -36.710835 64.806519 521.197083
   vertex -37.136852 64.711014 521.251648
  endloop
 facet normal -0.700243 0.593077 -0.397390
  outer loop
   vertex -37.136852 64.711014 521.251648
   vertex -37.458202 64.722404 521.834900
   vertex -37.144173 64.983330 521.670959
  endloop
 facet normal -0.700289 0.593007 -0.397414
  outer loop
   vertex -37.450882 64.450081 521.415649
   vertex -37.458202 64.722404 521.834900
   vertex -37.136852 64.711014 521.251648
  endloop
 facet normal -0.963323 0.217044 -0.157801
  outer loop
   vertex -37.576103 64.365967 522.064392
   vertex -37.458202 64.722404 521.834900
   vertex -37.450882 64.450081 521.415649
  endloop
 facet normal -0.963316 0.217077 -0.157795
  outer loop
   vertex -37.450882 64.450081 521.415649
   vertex -37.568783 64.093651 521.645081
   vertex -37.576103 64.365967 522.064392
  endloop
 facet normal 0.968242 0.217061 -0.124068
  outer loop
   vertex -11.457953 64.365967 522.520325
   vertex -11.450635 64.093651 522.101013
   vertex -11.567775 64.722404 522.286865
  endloop
 facet normal 0.968237 0.217067 -0.124092
  outer loop
   vertex -11.567775 64.722404 522.286865
   vertex -11.450635 64.093651 522.101013
   vertex -11.560455 64.450081 521.867615
  endloop
 facet normal 0.713726 0.593015 -0.372731
  outer loop
   vertex -11.560455 64.450081 521.867615
   vertex -11.875891 64.983330 522.112000
   vertex -11.567775 64.722404 522.286865
  endloop
 facet normal 0.713732 0.593014 -0.372721
  outer loop
   vertex -11.868572 64.711014 521.692749
   vertex -11.875891 64.983330 522.112000
   vertex -11.560455 64.450081 521.867615
  endloop
 facet normal 0.267919 0.810094 -0.521504
  outer loop
   vertex -12.299745 65.078835 522.042603
   vertex -11.875891 64.983330 522.112000
   vertex -11.868572 64.711014 521.692749
  endloop
 facet normal 0.267988 0.810113 -0.521439
  outer loop
   vertex -11.868572 64.711014 521.692749
   vertex -12.292426 64.806519 521.623291
   vertex -12.299745 65.078835 522.042603
  endloop
 facet normal -0.249561 0.810128 -0.530482
  outer loop
   vertex -12.299745 65.078835 522.042603
   vertex -12.292426 64.806519 521.623291
   vertex -12.725761 64.983330 522.097168
  endloop
 facet normal -0.249631 0.810077 -0.530527
  outer loop
   vertex -12.725761 64.983330 522.097168
   vertex -12.292426 64.806519 521.623291
   vertex -12.718443 64.711014 521.677917
  endloop
 facet normal -0.700279 0.593022 -0.397410
  outer loop
   vertex -12.718443 64.711014 521.677917
   vertex -13.039794 64.722404 522.261169
   vertex -12.725761 64.983330 522.097168
  endloop
 facet normal -0.700287 0.593009 -0.397414
  outer loop
   vertex -13.032475 64.450081 521.841919
   vertex -13.039794 64.722404 522.261169
   vertex -12.718443 64.711014 521.677917
  endloop
 facet normal -0.963316 0.217064 -0.157812
  outer loop
   vertex -13.157696 64.365967 522.490601
   vertex -13.039794 64.722404 522.261169
   vertex -13.032475 64.450081 521.841919
  endloop
 facet normal -0.963316 0.217069 -0.157811
  outer loop
   vertex -13.032475 64.450081 521.841919
   vertex -13.150376 64.093651 522.071350
   vertex -13.157696 64.365967 522.490601
  endloop
 facet normal 0.713710 0.593032 -0.372734
  outer loop
   vertex -12.554584 63.730492 522.317627
   vertex -12.735829 63.883980 522.214783
   vertex -12.743148 64.156296 522.634033
  endloop
 facet normal 0.968243 0.217049 -0.124078
  outer loop
   vertex -12.743148 64.156296 522.634033
   vertex -12.735829 63.883980 522.214783
   vertex -12.800429 64.093651 522.077454
  endloop
 facet normal 0.968234 0.217085 -0.124081
  outer loop
   vertex -12.800429 64.093651 522.077454
   vertex -12.807749 64.365967 522.496765
   vertex -12.743148 64.156296 522.634033
  endloop
 facet normal 0.963315 -0.217083 0.157797
  outer loop
   vertex -12.731076 64.303314 521.942505
   vertex -12.807749 64.365967 522.496765
   vertex -12.800429 64.093651 522.077454
  endloop
 facet normal 0.963323 -0.217046 0.157794
  outer loop
   vertex -12.738395 64.575630 522.361755
   vertex -12.807749 64.365967 522.496765
   vertex -12.731076 64.303314 521.942505
  endloop
 facet normal 0.700311 -0.592995 0.397393
  outer loop
   vertex -12.731076 64.303314 521.942505
   vertex -12.546351 64.456802 521.846008
   vertex -12.738395 64.575630 522.361755
  endloop
 facet normal 0.700245 -0.593077 0.397387
  outer loop
   vertex -12.738395 64.575630 522.361755
   vertex -12.546351 64.456802 521.846008
   vertex -12.553670 64.729118 522.265320
  endloop
 facet normal 0.249585 -0.810123 0.530479
  outer loop
   vertex -12.553670 64.729118 522.265320
   vertex -12.546351 64.456802 521.846008
   vertex -12.295753 64.512985 521.813904
  endloop
 facet normal 0.249586 -0.810122 0.530479
  outer loop
   vertex -12.295753 64.512985 521.813904
   vertex -12.303072 64.785301 522.233215
   vertex -12.553670 64.729118 522.265320
  endloop
 facet normal -0.267951 -0.810122 0.521445
  outer loop
   vertex -12.046428 64.456802 521.854736
   vertex -12.303072 64.785301 522.233215
   vertex -12.295753 64.512985 521.813904
  endloop
 facet normal -0.267950 -0.810122 0.521446
  outer loop
   vertex -12.053746 64.729118 522.274048
   vertex -12.303072 64.785301 522.233215
   vertex -12.046428 64.456802 521.854736
  endloop
 facet normal -0.713771 -0.593005 0.372661
  outer loop
   vertex -12.046428 64.456802 521.854736
   vertex -11.865182 64.303314 521.957642
   vertex -12.053746 64.729118 522.274048
  endloop
 facet normal -0.713700 -0.593037 0.372746
  outer loop
   vertex -12.053746 64.729118 522.274048
   vertex -11.865182 64.303314 521.957642
   vertex -11.872501 64.575638 522.376892
  endloop
 facet normal -0.968234 -0.217077 0.124098
  outer loop
   vertex -11.872501 64.575638 522.376892
   vertex -11.865182 64.303314 521.957642
   vertex -11.800582 64.093651 522.094910
  endloop
 facet normal -0.968242 -0.217060 0.124067
  outer loop
   vertex -11.800582 64.093651 522.094910
   vertex -11.807900 64.365967 522.514221
   vertex -11.872501 64.575638 522.376892
  endloop
 facet normal -0.700302 0.593001 -0.397400
  outer loop
   vertex -36.480385 64.002815 522.319397
   vertex -36.295662 64.156296 522.222900
   vertex -36.288342 63.883980 521.803650
  endloop
 facet normal -0.963314 0.217072 -0.157815
  outer loop
   vertex -36.288342 63.883980 521.803650
   vertex -36.295662 64.156296 522.222900
   vertex -36.226307 64.365967 522.087952
  endloop
 facet normal -0.963328 0.217045 -0.157766
  outer loop
   vertex -36.226307 64.365967 522.087952
   vertex -36.218990 64.093651 521.668640
   vertex -36.288342 63.883980 521.803650
  endloop
 facet normal -0.968241 -0.217061 0.124072
  outer loop
   vertex -36.290909 64.575638 521.950623
   vertex -36.218990 64.093651 521.668640
   vertex -36.226307 64.365967 522.087952
  endloop
 facet normal -0.968236 -0.217072 0.124093
  outer loop
   vertex -36.283588 64.303314 521.531372
   vertex -36.218990 64.093651 521.668640
   vertex -36.290909 64.575638 521.950623
  endloop
 facet normal -0.713714 -0.593026 0.372737
  outer loop
   vertex -36.290909 64.575638 521.950623
   vertex -36.472153 64.729126 521.847778
   vertex -36.283588 64.303314 521.531372
  endloop
 facet normal -0.713707 -0.593029 0.372746
  outer loop
   vertex -36.283588 64.303314 521.531372
   vertex -36.472153 64.729126 521.847778
   vertex -36.464836 64.456802 521.428528
  endloop
 facet normal -0.267929 -0.810085 0.521514
  outer loop
   vertex -36.464836 64.456802 521.428528
   vertex -36.472153 64.729126 521.847778
   vertex -36.721478 64.785301 521.806946
  endloop
 facet normal -0.268070 -0.810094 0.521427
  outer loop
   vertex -36.721478 64.785301 521.806946
   vertex -36.714161 64.512985 521.387634
   vertex -36.464836 64.456802 521.428528
  endloop
 facet normal 0.249562 -0.810129 0.530481
  outer loop
   vertex -36.972076 64.729126 521.839050
   vertex -36.714161 64.512985 521.387634
   vertex -36.721478 64.785301 521.806946
  endloop
 facet normal 0.249705 -0.810054 0.530527
  outer loop
   vertex -36.964760 64.456802 521.419800
   vertex -36.714161 64.512985 521.387634
   vertex -36.972076 64.729126 521.839050
  endloop
 facet normal 0.700307 -0.592995 0.397400
  outer loop
   vertex -36.972076 64.729126 521.839050
   vertex -37.156803 64.575638 521.935547
   vertex -36.964760 64.456802 521.419800
  endloop
 facet normal 0.700248 -0.593068 0.397395
  outer loop
   vertex -36.964760 64.456802 521.419800
   vertex -37.156803 64.575638 521.935547
   vertex -37.149483 64.303314 521.516235
  endloop
 facet normal 0.963318 -0.217069 0.157794
  outer loop
   vertex -37.149483 64.303314 521.516235
   vertex -37.156803 64.575638 521.935547
   vertex -37.226154 64.365967 522.070496
  endloop
 facet normal 0.963313 -0.217092 0.157796
  outer loop
   vertex -37.226154 64.365967 522.070496
   vertex -37.218838 64.093651 521.651184
   vertex -37.149483 64.303314 521.516235
  endloop
 facet normal 0.968241 0.217061 -0.124072
  outer loop
   vertex -37.154236 63.883980 521.788513
   vertex -37.218838 64.093651 521.651184
   vertex -37.226154 64.365967 522.070496
  endloop
endsolid