solid stl file generated from DOUG
 facet normal -0.868152 -0.482965 0.114266
  outer loop
   vertex 19.294888 13.196335 657.612671
   vertex 19.303335 13.066623 657.128601
   vertex 19.419182 12.986715 657.671021
  endloop
 facet normal -0.868152 -0.482965 0.114266
  outer loop
   vertex 19.419182 12.986715 657.671021
   vertex 19.303335 13.066623 657.128601
   vertex 19.427629 12.857003 657.186951
  endloop
 facet normal -0.004475 -0.965933 0.258755
  outer loop
   vertex 19.427629 12.857003 657.186951
   vertex 19.669729 12.986715 657.675354
   vertex 19.419182 12.986715 657.671021
  endloop
 facet normal -0.004539 -0.965925 0.258784
  outer loop
   vertex 19.678177 12.857003 657.191345
   vertex 19.669729 12.986715 657.675354
   vertex 19.427629 12.857003 657.186951
  endloop
 facet normal 0.863629 -0.482973 0.144508
  outer loop
   vertex 19.795984 13.196335 657.621399
   vertex 19.669729 12.986715 657.675354
   vertex 19.678177 12.857003 657.191345
  endloop
 facet normal 0.863629 -0.482973 0.144508
  outer loop
   vertex 19.678177 12.857003 657.191345
   vertex 19.804432 13.066623 657.137390
   vertex 19.795984 13.196335 657.621399
  endloop
 facet normal 0.868153 0.482960 -0.114279
  outer loop
   vertex 19.795984 13.196335 657.621399
   vertex 19.804432 13.066623 657.137390
   vertex 19.671690 13.405955 657.563049
  endloop
 facet normal 0.868152 0.482961 -0.114280
  outer loop
   vertex 19.671690 13.405955 657.563049
   vertex 19.804432 13.066623 657.137390
   vertex 19.680138 13.276242 657.079041
  endloop
 facet normal 0.004539 0.965924 -0.258786
  outer loop
   vertex 19.680138 13.276242 657.079041
   vertex 19.421143 13.405955 657.558655
   vertex 19.671690 13.405955 657.563049
  endloop
 facet normal 0.004539 0.965924 -0.258786
  outer loop
   vertex 19.429590 13.276242 657.074646
   vertex 19.421143 13.405955 657.558655
   vertex 19.680138 13.276242 657.079041
  endloop
 facet normal -0.863647 0.482942 -0.144501
  outer loop
   vertex 19.294888 13.196335 657.612671
   vertex 19.421143 13.405955 657.558655
   vertex 19.429590 13.276242 657.074646
  endloop
 facet normal -0.863629 0.482977 -0.144491
  outer loop
   vertex 19.429590 13.276242 657.074646
   vertex 19.303335 13.066623 657.128601
   vertex 19.294888 13.196335 657.612671
  endloop
 facet normal 0.863647 -0.482947 0.144487
  outer loop
   vertex -2.287499 13.066624 656.751709
   vertex -2.295948 13.196337 657.235779
   vertex -2.413754 12.857004 656.805725
  endloop
 facet normal 0.863629 -0.482972 0.144511
  outer loop
   vertex -2.413754 12.857004 656.805725
   vertex -2.295948 13.196337 657.235779
   vertex -2.422203 12.986717 657.289734
  endloop
 facet normal -0.004539 -0.965924 0.258786
  outer loop
   vertex -2.422203 12.986717 657.289734
   vertex -2.664302 12.857004 656.801331
   vertex -2.413754 12.857004 656.805725
  endloop
 facet normal -0.004539 -0.965924 0.258786
  outer loop
   vertex -2.672751 12.986717 657.285339
   vertex -2.664302 12.857004 656.801331
   vertex -2.422203 12.986717 657.289734
  endloop
 facet normal -0.868152 -0.482962 0.114278
  outer loop
   vertex -2.788596 13.066624 656.742981
   vertex -2.664302 12.857004 656.801331
   vertex -2.672751 12.986717 657.285339
  endloop
 facet normal -0.868152 -0.482962 0.114278
  outer loop
   vertex -2.672751 12.986717 657.285339
   vertex -2.797045 13.196337 657.226990
   vertex -2.788596 13.066624 656.742981
  endloop
 facet normal -0.863629 0.482972 -0.144511
  outer loop
   vertex -2.788596 13.066624 656.742981
   vertex -2.797045 13.196337 657.226990
   vertex -2.662341 13.276243 656.689026
  endloop
 facet normal -0.863629 0.482971 -0.144511
  outer loop
   vertex -2.662341 13.276243 656.689026
   vertex -2.797045 13.196337 657.226990
   vertex -2.670790 13.405956 657.173035
  endloop
 facet normal 0.004476 0.965924 -0.258787
  outer loop
   vertex -2.670790 13.405956 657.173035
   vertex -2.411793 13.276243 656.693359
   vertex -2.662341 13.276243 656.689026
  endloop
 facet normal 0.004538 0.965932 -0.258755
  outer loop
   vertex -2.420243 13.405956 657.177429
   vertex -2.411793 13.276243 656.693359
   vertex -2.670790 13.405956 657.173035
  endloop
 facet normal 0.868152 0.482966 -0.114264
  outer loop
   vertex -2.287499 13.066624 656.751709
   vertex -2.411793 13.276243 656.693359
   vertex -2.420243 13.405956 657.177429
  endloop
 facet normal 0.868152 0.482966 -0.114264
  outer loop
   vertex -2.420243 13.405956 657.177429
   vertex -2.295948 13.196337 657.235779
   vertex -2.287499 13.066624 656.751709
  endloop
 facet normal -0.016940 0.258791 0.965785
  outer loop
   vertex -2.672751 12.986717 657.285339
   vertex -2.422203 12.986717 657.289734
   vertex -2.546497 13.196337 657.231384
  endloop
 facet normal -0.016940 0.258791 0.965785
  outer loop
   vertex -2.546497 13.196337 657.231384
   vertex -2.422203 12.986717 657.289734
   vertex -2.295948 13.196337 657.235779
  endloop
 facet normal -0.016940 0.258791 0.965785
  outer loop
   vertex -2.295948 13.196337 657.235779
   vertex -2.420243 13.405956 657.177429
   vertex -2.546497 13.196337 657.231384
  endloop
 facet normal -0.016704 0.258921 0.965754
  outer loop
   vertex 19.421143 13.405955 657.558655
   vertex 19.294888 13.196335 657.612671
   vertex 19.545435 13.196335 657.617004
  endloop
 facet normal -0.016704 0.258922 0.965754
  outer loop
   vertex 19.545435 13.196335 657.617004
   vertex 19.294888 13.196335 657.612671
   vertex 19.419182 12.986715 657.671021
  endloop
 facet normal -0.016704 0.258922 0.965754
  outer loop
   vertex 19.419182 12.986715 657.671021
   vertex 19.669729 12.986715 657.675354
   vertex 19.545435 13.196335 657.617004
  endloop
 facet normal -0.016939 0.258791 0.965785
  outer loop
   vertex 19.669729 12.986715 657.675354
   vertex 19.795984 13.196335 657.621399
   vertex 19.545435 13.196335 657.617004
  endloop
 facet normal -0.016939 0.258790 0.965785
  outer loop
   vertex 19.545435 13.196335 657.617004
   vertex 19.795984 13.196335 657.621399
   vertex 19.671690 13.405955 657.563049
  endloop
 facet normal -0.016940 0.258790 0.965785
  outer loop
   vertex 19.671690 13.405955 657.563049
   vertex 19.421143 13.405955 657.558655
   vertex 19.545435 13.196335 657.617004
  endloop
 facet normal -0.016940 0.258791 0.965785
  outer loop
   vertex -2.420243 13.405956 657.177429
   vertex -2.670790 13.405956 657.173035
   vertex -2.546497 13.196337 657.231384
  endloop
 facet normal -0.016940 0.258791 0.965785
  outer loop
   vertex -2.546497 13.196337 657.231384
   vertex -2.670790 13.405956 657.173035
   vertex -2.797045 13.196337 657.226990
  endloop
 facet normal -0.016940 0.258791 0.965785
  outer loop
   vertex -2.797045 13.196337 657.226990
   vertex -2.672751 12.986717 657.285339
   vertex -2.546497 13.196337 657.231384
  endloop
 facet normal -0.016870 0.258835 0.965774
  outer loop
   vertex 18.126186 13.273498 655.464661
   vertex 18.120539 12.065898 655.788208
   vertex 21.117130 13.273497 655.516907
  endloop
 facet normal -0.016870 0.258835 0.965774
  outer loop
   vertex 21.117130 13.273497 655.516907
   vertex 18.120539 12.065898 655.788208
   vertex 21.111483 12.065898 655.840454
  endloop
 facet normal 0.999848 0.000000 0.017454
  outer loop
   vertex 21.111483 12.065898 655.840454
   vertex 21.140541 12.914106 654.175842
   vertex 21.117130 13.273497 655.516907
  endloop
 facet normal 0.999848 0.000000 0.017454
  outer loop
   vertex 21.134893 11.706508 654.499390
   vertex 21.140541 12.914106 654.175842
   vertex 21.111483 12.065898 655.840454
  endloop
 facet normal 0.016870 -0.258835 -0.965774
  outer loop
   vertex 18.143950 11.706508 654.447144
   vertex 21.140541 12.914106 654.175842
   vertex 21.134893 11.706508 654.499390
  endloop
 facet normal -0.004520 -0.965926 0.258778
  outer loop
   vertex 21.134893 11.706508 654.499390
   vertex 18.120539 12.065898 655.788208
   vertex 18.143950 11.706508 654.447144
  endloop
 facet normal -0.999848 -0.000000 -0.017454
  outer loop
   vertex 18.143950 11.706508 654.447144
   vertex 18.120539 12.065898 655.788208
   vertex 18.149597 12.914107 654.123596
  endloop
 facet normal -0.999848 -0.000000 -0.017454
  outer loop
   vertex 18.149597 12.914107 654.123596
   vertex 18.120539 12.065898 655.788208
   vertex 18.126186 13.273498 655.464661
  endloop
 facet normal 0.004521 0.965926 -0.258778
  outer loop
   vertex 18.126186 13.273498 655.464661
   vertex 21.140541 12.914106 654.175842
   vertex 18.149597 12.914107 654.123596
  endloop
 facet normal 0.004521 0.965926 -0.258778
  outer loop
   vertex 21.117130 13.273497 655.516907
   vertex 21.140541 12.914106 654.175842
   vertex 18.126186 13.273498 655.464661
  endloop
 facet normal -0.999848 0.000001 -0.017454
  outer loop
   vertex -4.020527 12.914108 653.736633
   vertex -4.026175 11.706509 654.060120
   vertex -4.043937 13.273499 655.077698
  endloop
 facet normal -0.999848 0.000001 -0.017454
  outer loop
   vertex -4.043937 13.273499 655.077698
   vertex -4.026175 11.706509 654.060120
   vertex -4.049584 12.065899 655.401184
  endloop
 facet normal -0.016851 0.258789 0.965787
  outer loop
   vertex -4.049584 12.065899 655.401184
   vertex -1.052993 13.273499 655.129883
   vertex -4.043937 13.273499 655.077698
  endloop
 facet normal -0.016870 0.258835 0.965774
  outer loop
   vertex -1.058640 12.065899 655.453430
   vertex -1.052993 13.273499 655.129883
   vertex -4.049584 12.065899 655.401184
  endloop
 facet normal 0.999848 0.000000 0.017453
  outer loop
   vertex -1.035230 11.706509 654.112366
   vertex -1.052993 13.273499 655.129883
   vertex -1.058640 12.065899 655.453430
  endloop
 facet normal -0.004520 -0.965926 0.258778
  outer loop
   vertex -1.058640 12.065899 655.453430
   vertex -4.026175 11.706509 654.060120
   vertex -1.035230 11.706509 654.112366
  endloop
 facet normal 0.016870 -0.258835 -0.965774
  outer loop
   vertex -1.035230 11.706509 654.112366
   vertex -4.026175 11.706509 654.060120
   vertex -1.029583 12.914108 653.788818
  endloop
 facet normal 0.016851 -0.258789 -0.965787
  outer loop
   vertex -1.029583 12.914108 653.788818
   vertex -4.026175 11.706509 654.060120
   vertex -4.020527 12.914108 653.736633
  endloop
 facet normal 0.004515 0.965926 -0.258779
  outer loop
   vertex -4.020527 12.914108 653.736633
   vertex -1.052993 13.273499 655.129883
   vertex -1.029583 12.914108 653.788818
  endloop
 facet normal 0.004515 0.965926 -0.258779
  outer loop
   vertex -4.043937 13.273499 655.077698
   vertex -1.052993 13.273499 655.129883
   vertex -4.020527 12.914108 653.736633
  endloop
 facet normal -0.004520 -0.965926 0.258778
  outer loop
   vertex -1.058640 12.065899 655.453430
   vertex -4.049584 12.065899 655.401184
   vertex -4.026175 11.706509 654.060120
  endloop
 facet normal -0.004520 -0.965926 0.258778
  outer loop
   vertex 21.111483 12.065898 655.840454
   vertex 18.120539 12.065898 655.788208
   vertex 21.134893 11.706508 654.499390
  endloop
 facet normal 0.999848 0.000000 0.017453
  outer loop
   vertex -1.035230 11.706509 654.112366
   vertex -1.029583 12.914108 653.788818
   vertex -1.052993 13.273499 655.129883
  endloop
 facet normal 0.016870 -0.258835 -0.965774
  outer loop
   vertex 18.143950 11.706508 654.447144
   vertex 18.149597 12.914107 654.123596
   vertex 21.140541 12.914106 654.175842
  endloop
 facet normal -0.016859 0.258956 0.965742
  outer loop
   vertex 18.297628 14.144830 658.102173
   vertex -1.316878 14.038954 657.788147
   vertex 18.297132 14.038953 658.130554
  endloop
 facet normal -0.013646 -0.623548 0.781666
  outer loop
   vertex 18.297132 14.038953 658.130554
   vertex -1.316878 14.038954 657.788147
   vertex 18.298714 13.925374 658.039978
  endloop
 facet normal -0.013859 -0.606789 0.794742
  outer loop
   vertex -0.576939 12.660614 658.231689
   vertex -1.734366 12.577210 658.147827
   vertex -0.575827 12.577210 658.168030
  endloop
 facet normal -0.004512 -0.965929 0.258766
  outer loop
   vertex -0.575827 12.577210 658.168030
   vertex -1.734366 12.577210 658.147827
   vertex -1.720177 12.359383 657.334961
  endloop
 facet normal 0.004513 0.965924 -0.258785
  outer loop
   vertex 18.723516 13.965737 657.261353
   vertex 17.550789 14.183566 658.053955
   vertex 18.709328 14.183566 658.074158
  endloop
 facet normal -0.006708 0.923024 0.384685
  outer loop
   vertex 18.709328 14.183566 658.074158
   vertex 17.550789 14.183566 658.053955
   vertex 17.549097 14.143185 658.150818
  endloop
 facet normal -0.006377 0.930863 0.365313
  outer loop
   vertex -1.320619 12.787292 658.002502
   vertex -1.322980 12.734220 658.137695
   vertex 18.291031 12.734219 658.480103
  endloop
 facet normal -0.016859 0.258957 0.965742
  outer loop
   vertex 18.291031 12.734219 658.480103
   vertex -1.322980 12.734220 658.137695
   vertex 18.290537 12.628343 658.508484
  endloop
 facet normal -0.014114 0.588142 0.808635
  outer loop
   vertex -1.303574 13.913491 657.026062
   vertex 18.310436 13.913490 657.368408
   vertex -1.303206 13.942535 657.004944
  endloop
 facet normal -0.014114 0.588155 0.808625
  outer loop
   vertex -1.303206 13.942535 657.004944
   vertex 18.310436 13.913490 657.368408
   vertex 18.310806 13.942533 657.347290
  endloop
 facet normal 0.004515 0.965960 -0.258651
  outer loop
   vertex 18.310806 13.942533 657.347290
   vertex -1.302015 13.924258 656.936707
   vertex -1.303206 13.942535 657.004944
  endloop
 facet normal -0.999848 0.000001 -0.017462
  outer loop
   vertex -1.726853 14.183567 657.717468
   vertex -1.727665 13.949888 657.763916
   vertex -1.728544 14.143185 657.814270
  endloop
 facet normal -0.999848 -0.000001 -0.017457
  outer loop
   vertex -1.728544 14.143185 657.814270
   vertex -1.727665 13.949888 657.763916
   vertex -1.729262 13.989636 657.855408
  endloop
 facet normal -0.016892 0.258824 0.965777
  outer loop
   vertex -1.729262 13.989636 657.855408
   vertex -0.570005 14.143185 657.834534
   vertex -1.728544 14.143185 657.814270
  endloop
 facet normal 0.999848 -0.000004 0.017454
  outer loop
   vertex 18.701815 12.577209 658.504517
   vertex 18.703152 12.802823 658.427979
   vertex 18.700703 12.660613 658.568237
  endloop
 facet normal 0.999848 -0.000007 0.017451
  outer loop
   vertex 18.700703 12.660613 658.568237
   vertex 18.703152 12.802823 658.427979
   vertex 18.701422 12.814161 658.527100
  endloop
 facet normal -0.016892 0.258824 0.965777
  outer loop
   vertex 18.701422 12.814161 658.527100
   vertex 17.542164 12.660613 658.547974
   vertex 18.700703 12.660613 658.568237
  endloop
 facet normal 0.999848 0.000000 0.017453
  outer loop
   vertex -0.576221 12.814162 658.190552
   vertex -0.576939 12.660614 658.231689
   vertex -0.574490 12.802825 658.091431
  endloop
 facet normal 0.999848 0.000003 0.017456
  outer loop
   vertex -0.574490 12.802825 658.091431
   vertex -0.576939 12.660614 658.231689
   vertex -0.575827 12.577210 658.168030
  endloop
 facet normal 0.999848 0.000002 0.017453
  outer loop
   vertex -0.575827 12.577210 658.168030
   vertex -0.561638 12.359383 657.355225
   vertex -0.574490 12.802825 658.091431
  endloop
 facet normal -0.004526 -0.965925 0.258784
  outer loop
   vertex -1.720177 12.359383 657.334961
   vertex -0.561638 12.359383 657.355225
   vertex -0.575827 12.577210 658.168030
  endloop
 facet normal -0.006374 0.930919 0.365170
  outer loop
   vertex 18.291031 12.734219 658.480103
   vertex 18.293392 12.787291 658.344849
   vertex -1.320619 12.787292 658.002502
  endloop
 facet normal -0.016857 0.258794 0.965785
  outer loop
   vertex -1.320619 12.787292 658.002502
   vertex 18.293392 12.787291 658.344849
   vertex 18.298714 13.925374 658.039978
  endloop
 facet normal -0.016860 0.258842 0.965772
  outer loop
   vertex 18.298714 13.925374 658.039978
   vertex -1.315297 13.925375 657.697571
   vertex -1.320619 12.787292 658.002502
  endloop
 facet normal -0.013646 -0.623548 0.781666
  outer loop
   vertex -1.316878 14.038954 657.788147
   vertex -1.315297 13.925375 657.697571
   vertex 18.298714 13.925374 658.039978
  endloop
 facet normal 0.004513 0.965924 -0.258785
  outer loop
   vertex 18.723516 13.965737 657.261353
   vertex 17.564978 13.965737 657.241150
   vertex 17.550789 14.183566 658.053955
  endloop
 facet normal -0.999848 0.000003 -0.017455
  outer loop
   vertex 17.550789 14.183566 658.053955
   vertex 17.564978 13.965737 657.241150
   vertex 17.549976 13.949886 658.100464
  endloop
 facet normal -0.999848 0.000001 -0.017463
  outer loop
   vertex 17.549976 13.949886 658.100464
   vertex 17.549097 14.143185 658.150818
   vertex 17.550789 14.183566 658.053955
  endloop
 facet normal -0.999848 -0.000004 -0.017445
  outer loop
   vertex 17.548380 13.989635 658.191956
   vertex 17.549097 14.143185 658.150818
   vertex 17.549976 13.949886 658.100464
  endloop
 facet normal 0.017354 0.105388 -0.994280
  outer loop
   vertex 18.300093 14.072283 657.960938
   vertex -1.313918 14.072284 657.618591
   vertex 18.300028 14.107995 657.964722
  endloop
 facet normal 0.017361 0.103708 -0.994456
  outer loop
   vertex 18.300028 14.107995 657.964722
   vertex -1.313918 14.072284 657.618591
   vertex -1.313983 14.107996 657.622314
  endloop
 facet normal 0.004518 0.965927 -0.258774
  outer loop
   vertex -1.313983 14.107996 657.622314
   vertex 18.297628 14.144830 658.102173
   vertex 18.300028 14.107995 657.964722
  endloop
 facet normal 0.004518 0.965927 -0.258774
  outer loop
   vertex -1.316383 14.144831 657.759766
   vertex 18.297628 14.144830 658.102173
   vertex -1.313983 14.107996 657.622314
  endloop
 facet normal -0.016859 0.258955 0.965742
  outer loop
   vertex -1.316878 14.038954 657.788147
   vertex 18.297628 14.144830 658.102173
   vertex -1.316383 14.144831 657.759766
  endloop
 facet normal -0.016848 0.258811 0.965781
  outer loop
   vertex 20.129858 13.610373 657.018433
   vertex 18.476912 12.533428 657.278198
   vertex 20.124823 12.533428 657.306946
  endloop
 facet normal -0.004514 -0.965925 0.258784
  outer loop
   vertex 20.124823 12.533428 657.306946
   vertex 18.476912 12.533428 657.278198
   vertex 20.150803 12.134577 655.818665
  endloop
 facet normal 0.999848 0.000001 0.017453
  outer loop
   vertex 20.150803 12.134577 655.818665
   vertex 20.155838 13.211522 655.530151
   vertex 20.124823 12.533428 657.306946
  endloop
 facet normal 0.016848 -0.258811 -0.965781
  outer loop
   vertex 18.502892 12.134577 655.789917
   vertex 20.155838 13.211522 655.530151
   vertex 20.150803 12.134577 655.818665
  endloop
 facet normal 0.016883 -0.258862 -0.965767
  outer loop
   vertex 18.507929 13.211522 655.501343
   vertex 20.155838 13.211522 655.530151
   vertex 18.502892 12.134577 655.789917
  endloop
 facet normal -0.999848 -0.000000 -0.017454
  outer loop
   vertex 18.502892 12.134577 655.789917
   vertex 18.476912 12.533428 657.278198
   vertex 18.507929 13.211522 655.501343
  endloop
 facet normal -0.999848 0.000001 -0.017453
  outer loop
   vertex 18.507929 13.211522 655.501343
   vertex 18.476912 12.533428 657.278198
   vertex 18.481949 13.610373 656.989685
  endloop
 facet normal -0.016848 0.258811 0.965781
  outer loop
   vertex 18.481949 13.610373 656.989685
   vertex 18.476912 12.533428 657.278198
   vertex 20.129858 13.610373 657.018433
  endloop
 facet normal 0.004514 0.965925 -0.258784
  outer loop
   vertex 20.129858 13.610373 657.018433
   vertex 20.155838 13.211522 655.530151
   vertex 18.481949 13.610373 656.989685
  endloop
 facet normal 0.999848 0.000001 0.017453
  outer loop
   vertex 20.124823 12.533428 657.306946
   vertex 20.155838 13.211522 655.530151
   vertex 20.129858 13.610373 657.018433
  endloop
 facet normal 0.004514 0.965928 -0.258773
  outer loop
   vertex -3.109673 13.610374 656.612793
   vertex -1.461763 13.610374 656.641541
   vertex -3.083692 13.211524 655.124451
  endloop
 facet normal 0.004524 0.965925 -0.258783
  outer loop
   vertex -3.083692 13.211524 655.124451
   vertex -1.461763 13.610374 656.641541
   vertex -1.435782 13.211524 655.153259
  endloop
 facet normal 0.016884 -0.258811 -0.965780
  outer loop
   vertex -1.435782 13.211524 655.153259
   vertex -3.088729 12.134578 655.412964
   vertex -3.083692 13.211524 655.124451
  endloop
 facet normal 0.016884 -0.258811 -0.965780
  outer loop
   vertex -1.440819 12.134578 655.441772
   vertex -3.088729 12.134578 655.412964
   vertex -1.435782 13.211524 655.153259
  endloop
 facet normal -0.004524 -0.965925 0.258784
  outer loop
   vertex -1.466799 12.533429 656.930054
   vertex -3.088729 12.134578 655.412964
   vertex -1.440819 12.134578 655.441772
  endloop
 facet normal 0.999848 -0.000000 0.017454
  outer loop
   vertex -1.440819 12.134578 655.441772
   vertex -1.461763 13.610374 656.641541
   vertex -1.466799 12.533429 656.930054
  endloop
 facet normal -0.016848 0.258811 0.965781
  outer loop
   vertex -1.466799 12.533429 656.930054
   vertex -1.461763 13.610374 656.641541
   vertex -3.114709 12.533429 656.901306
  endloop
 facet normal -0.016848 0.258811 0.965781
  outer loop
   vertex -3.114709 12.533429 656.901306
   vertex -1.461763 13.610374 656.641541
   vertex -3.109673 13.610374 656.612793
  endloop
 facet normal -0.999848 0.000000 -0.017453
  outer loop
   vertex -3.109673 13.610374 656.612793
   vertex -3.088729 12.134578 655.412964
   vertex -3.114709 12.533429 656.901306
  endloop
 facet normal -0.999848 0.000000 -0.017453
  outer loop
   vertex -3.083692 13.211524 655.124451
   vertex -3.088729 12.134578 655.412964
   vertex -3.109673 13.610374 656.612793
  endloop
 facet normal 0.016844 -0.258828 -0.965777
  outer loop
   vertex 21.575888 12.671247 656.658569
   vertex 21.225941 12.671247 656.652466
   vertex 21.228199 13.154210 656.523071
  endloop
 facet normal -0.016845 0.258828 0.965777
  outer loop
   vertex 21.228199 13.154210 656.523071
   vertex 21.225941 12.671247 656.652466
   vertex 21.402044 12.912729 656.590820
  endloop
 facet normal -0.016844 0.258828 0.965776
  outer loop
   vertex 21.402044 12.912729 656.590820
   vertex 21.578146 13.154210 656.529175
   vertex 21.228199 13.154210 656.523071
  endloop
 facet normal -0.016844 0.258828 0.965777
  outer loop
   vertex 21.575888 12.671247 656.658569
   vertex 21.578146 13.154210 656.529175
   vertex 21.402044 12.912729 656.590820
  endloop
 facet normal 0.999848 0.000001 0.017454
  outer loop
   vertex 21.595005 12.895392 655.563416
   vertex 21.578146 13.154210 656.529175
   vertex 21.575888 12.671247 656.658569
  endloop
 facet normal 0.999848 0.000001 0.017454
  outer loop
   vertex 21.575888 12.671247 656.658569
   vertex 21.592747 12.412429 655.692810
   vertex 21.595005 12.895392 655.563416
  endloop
 facet normal 0.016854 -0.258828 -0.965777
  outer loop
   vertex 21.595005 12.895392 655.563416
   vertex 21.592747 12.412429 655.692810
   vertex 19.895264 12.895392 655.533752
  endloop
 facet normal 0.016854 -0.258828 -0.965777
  outer loop
   vertex 19.895264 12.895392 655.533752
   vertex 21.592747 12.412429 655.692810
   vertex 19.893005 12.412429 655.663147
  endloop
 facet normal -0.999848 -0.000001 -0.017454
  outer loop
   vertex 19.893005 12.412429 655.663147
   vertex 19.876146 12.671247 656.628906
   vertex 19.895264 12.895392 655.533752
  endloop
 facet normal -0.004499 -0.965925 0.258784
  outer loop
   vertex 20.297285 12.606543 656.394714
   vertex 19.876146 12.671247 656.628906
   vertex 19.893005 12.412429 655.663147
  endloop
 facet normal -0.004513 -0.965931 0.258761
  outer loop
   vertex 20.226093 12.671247 656.635010
   vertex 19.876146 12.671247 656.628906
   vertex 20.297285 12.606543 656.394714
  endloop
 facet normal 0.004545 0.965929 -0.258768
  outer loop
   vertex -3.252970 13.089507 655.854187
   vertex -2.840261 13.154212 656.102966
   vertex -2.823402 12.895393 655.137146
  endloop
 facet normal 0.999848 -0.000000 0.017453
  outer loop
   vertex -2.823402 12.895393 655.137146
   vertex -2.840261 13.154212 656.102966
   vertex -2.825661 12.412431 655.266541
  endloop
 facet normal 0.016854 -0.258828 -0.965776
  outer loop
   vertex -2.825661 12.412431 655.266541
   vertex -4.523144 12.895393 655.107483
   vertex -2.823402 12.895393 655.137146
  endloop
 facet normal 0.016854 -0.258828 -0.965776
  outer loop
   vertex -4.525403 12.412431 655.236877
   vertex -4.523144 12.895393 655.107483
   vertex -2.825661 12.412431 655.266541
  endloop
 facet normal -0.999848 -0.000000 -0.017454
  outer loop
   vertex -4.540003 13.154212 656.073242
   vertex -4.523144 12.895393 655.107483
   vertex -4.525403 12.412431 655.236877
  endloop
 facet normal -0.999848 -0.000001 -0.017453
  outer loop
   vertex -4.525403 12.412431 655.236877
   vertex -4.542261 12.671248 656.202637
   vertex -4.540003 13.154212 656.073242
  endloop
 facet normal -0.016844 0.258828 0.965777
  outer loop
   vertex -4.540003 13.154212 656.073242
   vertex -4.542261 12.671248 656.202637
   vertex -4.366158 12.912730 656.140991
  endloop
 facet normal -0.016844 0.258828 0.965777
  outer loop
   vertex -4.366158 12.912730 656.140991
   vertex -4.542261 12.671248 656.202637
   vertex -4.192314 12.671248 656.208740
  endloop
 facet normal -0.017013 0.258714 0.965804
  outer loop
   vertex -4.192314 12.671248 656.208740
   vertex -4.190055 13.154212 656.079407
   vertex -4.366158 12.912730 656.140991
  endloop
 facet normal 0.017013 -0.258714 -0.965804
  outer loop
   vertex -4.540003 13.154212 656.073242
   vertex -4.190055 13.154212 656.079407
   vertex -4.192314 12.671248 656.208740
  endloop
 facet normal -0.017013 0.258714 0.965804
  outer loop
   vertex -4.366158 12.912730 656.140991
   vertex -4.190055 13.154212 656.079407
   vertex -4.540003 13.154212 656.073242
  endloop
 facet normal -0.016859 0.258958 0.965742
  outer loop
   vertex -1.322980 12.734220 658.137695
   vertex -1.323475 12.628344 658.166077
   vertex 18.290537 12.628343 658.508484
  endloop
 facet normal -0.004518 -0.965927 0.258774
  outer loop
   vertex 18.290537 12.628343 658.508484
   vertex -1.323475 12.628344 658.166077
   vertex -1.321076 12.591509 658.028625
  endloop
 facet normal -0.004518 -0.965927 0.258774
  outer loop
   vertex -1.321076 12.591509 658.028625
   vertex 18.292936 12.591508 658.371033
   vertex 18.290537 12.628343 658.508484
  endloop
 facet normal 0.014117 -0.588142 -0.808635
  outer loop
   vertex -1.320707 12.620553 658.007507
   vertex 18.292936 12.591508 658.371033
   vertex -1.321076 12.591509 658.028625
  endloop
 facet normal 0.014117 -0.588142 -0.808635
  outer loop
   vertex 18.293304 12.620552 658.349915
   vertex 18.292936 12.591508 658.371033
   vertex -1.320707 12.620553 658.007507
  endloop
 facet normal -0.004518 -0.965926 0.258780
  outer loop
   vertex -1.320707 12.620553 658.007507
   vertex -1.310364 12.461761 657.414978
   vertex 18.293304 12.620552 658.349915
  endloop
 facet normal -0.004516 -0.965932 0.258757
  outer loop
   vertex 18.293304 12.620552 658.349915
   vertex -1.310364 12.461761 657.414978
   vertex 18.303648 12.461759 657.757324
  endloop
 facet normal -0.017354 -0.105389 0.994280
  outer loop
   vertex 18.303648 12.461759 657.757324
   vertex -1.310364 12.461761 657.414978
   vertex -1.310298 12.426048 657.411194
  endloop
 facet normal -0.017361 -0.103710 0.994456
  outer loop
   vertex -1.310298 12.426048 657.411194
   vertex 18.303713 12.426047 657.753601
   vertex 18.303648 12.461759 657.757324
  endloop
 facet normal -0.004519 -0.965902 0.258867
  outer loop
   vertex -1.309107 12.407771 657.343018
   vertex 18.303713 12.426047 657.753601
   vertex -1.310298 12.426048 657.411194
  endloop
 facet normal -0.004515 -0.965960 0.258651
  outer loop
   vertex 18.304903 12.407770 657.685364
   vertex 18.303713 12.426047 657.753601
   vertex -1.309107 12.407771 657.343018
  endloop
 facet normal 0.016857 -0.258838 -0.965774
  outer loop
   vertex -1.309107 12.407771 657.343018
   vertex -1.302015 13.924258 656.936707
   vertex 18.304903 12.407770 657.685364
  endloop
 facet normal 0.016860 -0.258801 -0.965783
  outer loop
   vertex 18.304903 12.407770 657.685364
   vertex -1.302015 13.924258 656.936707
   vertex 18.311996 13.924257 657.279114
  endloop
 facet normal 0.004519 0.965906 -0.258854
  outer loop
   vertex 18.311996 13.924257 657.279114
   vertex -1.302015 13.924258 656.936707
   vertex 18.310806 13.942533 657.347290
  endloop
 facet normal 0.004537 0.965925 -0.258784
  outer loop
   vertex 20.299543 13.089506 656.265381
   vertex 19.895264 12.895392 655.533752
   vertex 19.878405 13.154211 656.499512
  endloop
 facet normal -0.999848 -0.000001 -0.017454
  outer loop
   vertex 19.878405 13.154211 656.499512
   vertex 19.895264 12.895392 655.533752
   vertex 19.876146 12.671247 656.628906
  endloop
 facet normal -0.016844 0.258828 0.965777
  outer loop
   vertex 19.876146 12.671247 656.628906
   vertex 20.228352 13.154211 656.505615
   vertex 19.878405 13.154211 656.499512
  endloop
 facet normal -0.016844 0.258828 0.965777
  outer loop
   vertex 20.226093 12.671247 656.635010
   vertex 20.228352 13.154211 656.505615
   vertex 19.876146 12.671247 656.628906
  endloop
 facet normal 0.016844 -0.258828 -0.965777
  outer loop
   vertex 19.876146 12.671247 656.628906
   vertex 20.228352 13.154211 656.505615
   vertex 20.226093 12.671247 656.635010
  endloop
 facet normal -0.004513 -0.965927 0.258775
  outer loop
   vertex 20.226093 12.671247 656.635010
   vertex 20.288855 12.735951 656.877625
   vertex 19.876146 12.671247 656.628906
  endloop
 facet normal -0.004501 -0.965932 0.258756
  outer loop
   vertex 19.876146 12.671247 656.628906
   vertex 20.288855 12.735951 656.877625
   vertex 19.982843 12.781245 657.041382
  endloop
 facet normal -0.004492 -0.965928 0.258772
  outer loop
   vertex 19.982843 12.781245 657.041382
   vertex 20.288855 12.735951 656.877625
   vertex 20.468756 12.783319 657.057556
  endloop
 facet normal -0.004491 -0.965934 0.258751
  outer loop
   vertex 20.468756 12.783319 657.057556
   vertex 20.288673 12.861769 657.347290
   vertex 19.982843 12.781245 657.041382
  endloop
 facet normal -0.004535 -0.965940 0.258725
  outer loop
   vertex 20.717588 12.800656 657.126648
   vertex 20.288673 12.861769 657.347290
   vertex 20.468756 12.783319 657.057556
  endloop
 facet normal -0.004501 -0.965924 0.258787
  outer loop
   vertex 20.711687 12.891243 657.464661
   vertex 20.288673 12.861769 657.347290
   vertex 20.717588 12.800656 657.126648
  endloop
 facet normal -0.004483 -0.965924 0.258787
  outer loop
   vertex 20.717588 12.800656 657.126648
   vertex 20.968679 12.783319 657.066284
   vertex 20.711687 12.891243 657.464661
  endloop
 facet normal -0.004540 -0.965933 0.258753
  outer loop
   vertex 20.711687 12.891243 657.464661
   vertex 20.968679 12.783319 657.066284
   vertex 21.138544 12.861769 657.362122
  endloop
 facet normal -0.004572 -0.965928 0.258770
  outer loop
   vertex 21.138544 12.861769 657.362122
   vertex 20.968679 12.783319 657.066284
   vertex 21.154749 12.735951 656.892761
  endloop
 facet normal -0.004524 -0.965928 0.258772
  outer loop
   vertex 21.154749 12.735951 656.892761
   vertex 21.454863 12.781245 657.067078
   vertex 21.138544 12.861769 657.362122
  endloop
 facet normal -0.004515 -0.965932 0.258757
  outer loop
   vertex 21.225941 12.671247 656.652466
   vertex 21.454863 12.781245 657.067078
   vertex 21.154749 12.735951 656.892761
  endloop
 facet normal -0.004513 -0.965932 0.258756
  outer loop
   vertex 21.575888 12.671247 656.658569
   vertex 21.454863 12.781245 657.067078
   vertex 21.225941 12.671247 656.652466
  endloop
 facet normal -0.004513 -0.965926 0.258778
  outer loop
   vertex 21.225941 12.671247 656.652466
   vertex 21.163179 12.606543 656.409851
   vertex 21.575888 12.671247 656.658569
  endloop
 facet normal -0.004517 -0.965925 0.258784
  outer loop
   vertex 21.575888 12.671247 656.658569
   vertex 21.163179 12.606543 656.409851
   vertex 21.592747 12.412429 655.692810
  endloop
 facet normal -0.004509 -0.965923 0.258788
  outer loop
   vertex 21.592747 12.412429 655.692810
   vertex 21.163179 12.606543 656.409851
   vertex 20.983278 12.559175 656.229919
  endloop
 facet normal -0.004546 -0.965934 0.258750
  outer loop
   vertex 20.983278 12.559175 656.229919
   vertex 20.734446 12.541839 656.160828
   vertex 21.592747 12.412429 655.692810
  endloop
 facet normal -0.004517 -0.965925 0.258783
  outer loop
   vertex -3.255229 12.606544 655.983582
   vertex -2.825661 12.412431 655.266541
   vertex -2.842520 12.671248 656.232300
  endloop
 facet normal 0.999848 -0.000002 0.017454
  outer loop
   vertex -2.842520 12.671248 656.232300
   vertex -2.825661 12.412431 655.266541
   vertex -2.840261 13.154212 656.102966
  endloop
 facet normal -0.016845 0.258714 0.965807
  outer loop
   vertex -2.840261 13.154212 656.102966
   vertex -3.192466 12.671248 656.226196
   vertex -2.842520 12.671248 656.232300
  endloop
 facet normal -0.017013 0.258828 0.965774
  outer loop
   vertex -3.190208 13.154212 656.096802
   vertex -3.192466 12.671248 656.226196
   vertex -2.840261 13.154212 656.102966
  endloop
 facet normal 0.017013 -0.258828 -0.965774
  outer loop
   vertex -2.840261 13.154212 656.102966
   vertex -3.192466 12.671248 656.226196
   vertex -3.190208 13.154212 656.096802
  endloop
 facet normal 0.004558 0.965935 -0.258745
  outer loop
   vertex -3.190208 13.154212 656.096802
   vertex -3.261400 13.218916 656.337097
   vertex -2.840261 13.154212 656.102966
  endloop
 facet normal 0.004533 0.965924 -0.258787
  outer loop
   vertex -2.840261 13.154212 656.102966
   vertex -3.261400 13.218916 656.337097
   vertex -2.961288 13.264210 656.511414
  endloop
 facet normal 0.004509 0.965934 -0.258748
  outer loop
   vertex -2.961288 13.264210 656.511414
   vertex -3.261400 13.218916 656.337097
   vertex -3.447470 13.266283 656.510681
  endloop
 facet normal 0.004509 0.965924 -0.258786
  outer loop
   vertex -3.447470 13.266283 656.510681
   vertex -3.277607 13.344733 656.806458
   vertex -2.961288 13.264210 656.511414
  endloop
 facet normal 0.004542 0.965919 -0.258804
  outer loop
   vertex -3.698561 13.283621 656.570984
   vertex -3.277607 13.344733 656.806458
   vertex -3.447470 13.266283 656.510681
  endloop
 facet normal 0.004531 0.965924 -0.258786
  outer loop
   vertex -3.704462 13.374207 656.908997
   vertex -3.277607 13.344733 656.806458
   vertex -3.698561 13.283621 656.570984
  endloop
 facet normal 0.004490 0.965924 -0.258787
  outer loop
   vertex -3.698561 13.283621 656.570984
   vertex -3.947394 13.266283 656.501953
   vertex -3.704462 13.374207 656.908997
  endloop
 facet normal 0.004503 0.965922 -0.258795
  outer loop
   vertex -3.704462 13.374207 656.908997
   vertex -3.947394 13.266283 656.501953
   vertex -4.127478 13.344733 656.791626
  endloop
 facet normal 0.004511 0.965923 -0.258790
  outer loop
   vertex -4.127478 13.344733 656.791626
   vertex -3.947394 13.266283 656.501953
   vertex -4.127294 13.218916 656.322021
  endloop
 facet normal 0.004534 0.965923 -0.258790
  outer loop
   vertex -4.127294 13.218916 656.322021
   vertex -4.433307 13.264210 656.485718
   vertex -4.127478 13.344733 656.791626
  endloop
 facet normal 0.004539 0.965925 -0.258781
  outer loop
   vertex -4.190055 13.154212 656.079407
   vertex -4.433307 13.264210 656.485718
   vertex -4.127294 13.218916 656.322021
  endloop
 facet normal 0.004558 0.965928 -0.258770
  outer loop
   vertex -4.540003 13.154212 656.073242
   vertex -4.433307 13.264210 656.485718
   vertex -4.190055 13.154212 656.079407
  endloop
 facet normal 0.004558 0.965934 -0.258749
  outer loop
   vertex -4.190055 13.154212 656.079407
   vertex -4.118864 13.089507 655.839111
   vertex -4.540003 13.154212 656.073242
  endloop
 facet normal 0.004537 0.965925 -0.258784
  outer loop
   vertex -4.540003 13.154212 656.073242
   vertex -4.118864 13.089507 655.839111
   vertex -4.523144 12.895393 655.107483
  endloop
 facet normal 0.004495 0.965931 -0.258762
  outer loop
   vertex -4.523144 12.895393 655.107483
   vertex -4.118864 13.089507 655.839111
   vertex -3.932794 13.042140 655.665527
  endloop
 facet normal 0.004541 0.965918 -0.258807
  outer loop
   vertex -3.932794 13.042140 655.665527
   vertex -3.681702 13.024802 655.605225
   vertex -4.523144 12.895393 655.107483
  endloop
 facet normal 0.003663 -0.977815 -0.209438
  outer loop
   vertex -1.720177 12.359383 657.334961
   vertex -1.710760 12.474971 656.795471
   vertex -0.561638 12.359383 657.355225
  endloop
 facet normal 0.003663 -0.977815 -0.209438
  outer loop
   vertex -0.561638 12.359383 657.355225
   vertex -1.710760 12.474971 656.795471
   vertex -0.552221 12.474971 656.815735
  endloop
 facet normal 0.999848 -0.000000 0.017453
  outer loop
   vertex -0.552221 12.474971 656.815735
   vertex -0.546979 13.595856 656.515442
   vertex -0.561638 12.359383 657.355225
  endloop
 facet normal 0.016892 -0.258818 -0.965778
  outer loop
   vertex -1.710760 12.474971 656.795471
   vertex -0.546979 13.595856 656.515442
   vertex -0.552221 12.474971 656.815735
  endloop
 facet normal 0.016892 -0.258818 -0.965778
  outer loop
   vertex -1.705518 13.595856 656.495178
   vertex -0.546979 13.595856 656.515442
   vertex -1.710760 12.474971 656.795471
  endloop
 facet normal -0.999848 0.000000 -0.017453
  outer loop
   vertex -1.710760 12.474971 656.795471
   vertex -1.712664 13.965738 656.904602
   vertex -1.705518 13.595856 656.495178
  endloop
 facet normal 0.011722 0.742081 -0.670208
  outer loop
   vertex -1.705518 13.595856 656.495178
   vertex -1.712664 13.965738 656.904602
   vertex -0.546979 13.595856 656.515442
  endloop
 facet normal 0.011722 0.742081 -0.670208
  outer loop
   vertex -0.546979 13.595856 656.515442
   vertex -1.712664 13.965738 656.904602
   vertex -0.554126 13.965738 656.924866
  endloop
 facet normal 0.999848 -0.000000 0.017453
  outer loop
   vertex -0.554126 13.965738 656.924866
   vertex -0.561638 12.359383 657.355225
   vertex -0.546979 13.595856 656.515442
  endloop
 facet normal 0.999848 0.000000 0.017455
  outer loop
   vertex -0.569126 13.949888 657.784119
   vertex -0.561638 12.359383 657.355225
   vertex -0.554126 13.965738 656.924866
  endloop
 facet normal 0.999848 0.000000 0.017455
  outer loop
   vertex -0.574490 12.802825 658.091431
   vertex -0.561638 12.359383 657.355225
   vertex -0.569126 13.949888 657.784119
  endloop
 facet normal -0.016841 0.258822 0.965778
  outer loop
   vertex -0.569126 13.949888 657.784119
   vertex -1.733029 12.802824 658.071228
   vertex -0.574490 12.802825 658.091431
  endloop
 facet normal 0.001980 0.993524 -0.113603
  outer loop
   vertex -0.574490 12.802825 658.091431
   vertex -1.733029 12.802824 658.071228
   vertex -0.576221 12.814162 658.190552
  endloop
 facet normal 0.001981 0.993523 -0.113612
  outer loop
   vertex -0.576221 12.814162 658.190552
   vertex -1.733029 12.802824 658.071228
   vertex -1.734759 12.814162 658.170349
  endloop
 facet normal -0.016841 0.258824 0.965778
  outer loop
   vertex -1.734759 12.814162 658.170349
   vertex -0.576939 12.660614 658.231689
   vertex -0.576221 12.814162 658.190552
  endloop
 facet normal -0.016841 0.258824 0.965778
  outer loop
   vertex -1.735477 12.660614 658.211487
   vertex -0.576939 12.660614 658.231689
   vertex -1.734759 12.814162 658.170349
  endloop
 facet normal -0.013859 -0.606789 0.794742
  outer loop
   vertex -1.734366 12.577210 658.147827
   vertex -0.576939 12.660614 658.231689
   vertex -1.735477 12.660614 658.211487
  endloop
 facet normal -0.999848 -0.000003 -0.017456
  outer loop
   vertex -1.735477 12.660614 658.211487
   vertex -1.733029 12.802824 658.071228
   vertex -1.734366 12.577210 658.147827
  endloop
 facet normal -0.999848 -0.000002 -0.017452
  outer loop
   vertex -1.734366 12.577210 658.147827
   vertex -1.733029 12.802824 658.071228
   vertex -1.720177 12.359383 657.334961
  endloop
 facet normal -0.999848 0.000000 -0.017453
  outer loop
   vertex -1.720177 12.359383 657.334961
   vertex -1.733029 12.802824 658.071228
   vertex -1.727665 13.949888 657.763916
  endloop
 facet normal -0.999848 0.000000 -0.017453
  outer loop
   vertex -1.727665 13.949888 657.763916
   vertex -1.712664 13.965738 656.904602
   vertex -1.720177 12.359383 657.334961
  endloop
 facet normal -0.999848 0.000002 -0.017453
  outer loop
   vertex -1.726853 14.183567 657.717468
   vertex -1.712664 13.965738 656.904602
   vertex -1.727665 13.949888 657.763916
  endloop
 facet normal 0.004526 0.965929 -0.258767
  outer loop
   vertex -0.554126 13.965738 656.924866
   vertex -1.712664 13.965738 656.904602
   vertex -1.726853 14.183567 657.717468
  endloop
 facet normal 0.004513 0.965924 -0.258785
  outer loop
   vertex -1.726853 14.183567 657.717468
   vertex -0.568315 14.183567 657.737671
   vertex -0.554126 13.965738 656.924866
  endloop
 facet normal 0.999848 -0.000002 0.017455
  outer loop
   vertex -0.554126 13.965738 656.924866
   vertex -0.568315 14.183567 657.737671
   vertex -0.569126 13.949888 657.784119
  endloop
 facet normal 0.999848 -0.000003 0.017450
  outer loop
   vertex -0.569126 13.949888 657.784119
   vertex -0.568315 14.183567 657.737671
   vertex -0.570005 14.143185 657.834534
  endloop
 facet normal 0.999848 -0.000002 0.017446
  outer loop
   vertex -0.570005 14.143185 657.834534
   vertex -0.570723 13.989636 657.875671
   vertex -0.569126 13.949888 657.784119
  endloop
 facet normal -0.016892 0.258824 0.965777
  outer loop
   vertex -1.729262 13.989636 657.855408
   vertex -0.570723 13.989636 657.875671
   vertex -0.570005 14.143185 657.834534
  endloop
 facet normal -0.006964 -0.917302 0.398131
  outer loop
   vertex -0.569126 13.949888 657.784119
   vertex -0.570723 13.989636 657.875671
   vertex -1.729262 13.989636 657.855408
  endloop
 facet normal -0.006947 -0.917205 0.398355
  outer loop
   vertex -1.729262 13.989636 657.855408
   vertex -1.727665 13.949888 657.763916
   vertex -0.569126 13.949888 657.784119
  endloop
 facet normal -0.016841 0.258822 0.965778
  outer loop
   vertex -0.569126 13.949888 657.784119
   vertex -1.727665 13.949888 657.763916
   vertex -1.733029 12.802824 658.071228
  endloop
 facet normal 0.011687 0.742080 -0.670209
  outer loop
   vertex 18.723516 13.965737 657.261353
   vertex 18.730663 13.595854 656.851929
   vertex 17.564978 13.965737 657.241150
  endloop
 facet normal 0.011688 0.742081 -0.670208
  outer loop
   vertex 17.564978 13.965737 657.241150
   vertex 18.730663 13.595854 656.851929
   vertex 17.572124 13.595855 656.831726
  endloop
 facet normal -0.999848 0.000001 -0.017454
  outer loop
   vertex 17.572124 13.595855 656.831726
   vertex 17.566881 12.474970 657.132019
   vertex 17.564978 13.965737 657.241150
  endloop
 facet normal 0.016841 -0.258818 -0.965779
  outer loop
   vertex 18.730663 13.595854 656.851929
   vertex 17.566881 12.474970 657.132019
   vertex 17.572124 13.595855 656.831726
  endloop
 facet normal 0.016841 -0.258818 -0.965779
  outer loop
   vertex 18.725420 12.474969 657.152222
   vertex 17.566881 12.474970 657.132019
   vertex 18.730663 13.595854 656.851929
  endloop
 facet normal 0.999848 -0.000002 0.017452
  outer loop
   vertex 18.730663 13.595854 656.851929
   vertex 18.716003 12.359381 657.691711
   vertex 18.725420 12.474969 657.152222
  endloop
 facet normal 0.003651 -0.977815 -0.209438
  outer loop
   vertex 18.725420 12.474969 657.152222
   vertex 18.716003 12.359381 657.691711
   vertex 17.566881 12.474970 657.132019
  endloop
 facet normal 0.003652 -0.977815 -0.209439
  outer loop
   vertex 17.566881 12.474970 657.132019
   vertex 18.716003 12.359381 657.691711
   vertex 17.557465 12.359381 657.671509
  endloop
 facet normal -0.999848 0.000001 -0.017452
  outer loop
   vertex 17.557465 12.359381 657.671509
   vertex 17.564978 13.965737 657.241150
   vertex 17.566881 12.474970 657.132019
  endloop
 facet normal -0.999848 0.000000 -0.017454
  outer loop
   vertex 17.544613 12.802823 658.407715
   vertex 17.564978 13.965737 657.241150
   vertex 17.557465 12.359381 657.671509
  endloop
 facet normal -0.999848 -0.000000 -0.017455
  outer loop
   vertex 17.549976 13.949886 658.100464
   vertex 17.564978 13.965737 657.241150
   vertex 17.544613 12.802823 658.407715
  endloop
 facet normal -0.016841 0.258774 0.965791
  outer loop
   vertex 17.544613 12.802823 658.407715
   vertex 18.708515 13.949886 658.120667
   vertex 17.549976 13.949886 658.100464
  endloop
 facet normal -0.006947 -0.917202 0.398363
  outer loop
   vertex 17.549976 13.949886 658.100464
   vertex 18.708515 13.949886 658.120667
   vertex 17.548380 13.989635 658.191956
  endloop
 facet normal -0.006947 -0.917202 0.398363
  outer loop
   vertex 17.548380 13.989635 658.191956
   vertex 18.708515 13.949886 658.120667
   vertex 18.706919 13.989635 658.212158
  endloop
 facet normal -0.016841 0.258822 0.965778
  outer loop
   vertex 18.706919 13.989635 658.212158
   vertex 17.549097 14.143185 658.150818
   vertex 17.548380 13.989635 658.191956
  endloop
 facet normal -0.016841 0.258824 0.965778
  outer loop
   vertex 18.707636 14.143184 658.171021
   vertex 17.549097 14.143185 658.150818
   vertex 18.706919 13.989635 658.212158
  endloop
 facet normal -0.006708 0.923020 0.384693
  outer loop
   vertex 18.709328 14.183566 658.074158
   vertex 17.549097 14.143185 658.150818
   vertex 18.707636 14.143184 658.171021
  endloop
 facet normal 0.999848 -0.000001 0.017463
  outer loop
   vertex 18.707636 14.143184 658.171021
   vertex 18.708515 13.949886 658.120667
   vertex 18.709328 14.183566 658.074158
  endloop
 facet normal 0.999848 -0.000003 0.017455
  outer loop
   vertex 18.709328 14.183566 658.074158
   vertex 18.708515 13.949886 658.120667
   vertex 18.723516 13.965737 657.261353
  endloop
 facet normal 0.999848 0.000001 0.017455
  outer loop
   vertex 18.723516 13.965737 657.261353
   vertex 18.708515 13.949886 658.120667
   vertex 18.703152 12.802823 658.427979
  endloop
 facet normal 0.999848 -0.000001 0.017453
  outer loop
   vertex 18.703152 12.802823 658.427979
   vertex 18.716003 12.359381 657.691711
   vertex 18.723516 13.965737 657.261353
  endloop
 facet normal 0.999848 -0.000004 0.017455
  outer loop
   vertex 18.701815 12.577209 658.504517
   vertex 18.716003 12.359381 657.691711
   vertex 18.703152 12.802823 658.427979
  endloop
 facet normal -0.004513 -0.965924 0.258785
  outer loop
   vertex 17.557465 12.359381 657.671509
   vertex 18.716003 12.359381 657.691711
   vertex 18.701815 12.577209 658.504517
  endloop
 facet normal -0.004513 -0.965924 0.258785
  outer loop
   vertex 18.701815 12.577209 658.504517
   vertex 17.543276 12.577209 658.484314
   vertex 17.557465 12.359381 657.671509
  endloop
 facet normal -0.999848 -0.000000 -0.017454
  outer loop
   vertex 17.557465 12.359381 657.671509
   vertex 17.543276 12.577209 658.484314
   vertex 17.544613 12.802823 658.407715
  endloop
 facet normal -0.999848 -0.000003 -0.017461
  outer loop
   vertex 17.544613 12.802823 658.407715
   vertex 17.543276 12.577209 658.484314
   vertex 17.542164 12.660613 658.547974
  endloop
 facet normal -0.999848 0.000007 -0.017451
  outer loop
   vertex 17.542164 12.660613 658.547974
   vertex 17.542883 12.814161 658.506836
   vertex 17.544613 12.802823 658.407715
  endloop
 facet normal -0.016892 0.258824 0.965777
  outer loop
   vertex 18.701422 12.814161 658.527100
   vertex 17.542883 12.814161 658.506836
   vertex 17.542164 12.660613 658.547974
  endloop
 facet normal 0.001987 0.993523 -0.113612
  outer loop
   vertex 17.544613 12.802823 658.407715
   vertex 17.542883 12.814161 658.506836
   vertex 18.701422 12.814161 658.527100
  endloop
 facet normal 0.001987 0.993523 -0.113612
  outer loop
   vertex 18.701422 12.814161 658.527100
   vertex 18.703152 12.802823 658.427979
   vertex 17.544613 12.802823 658.407715
  endloop
 facet normal -0.016892 0.258822 0.965777
  outer loop
   vertex 17.544613 12.802823 658.407715
   vertex 18.703152 12.802823 658.427979
   vertex 18.708515 13.949886 658.120667
  endloop
 facet normal -0.004513 -0.965931 0.258761
  outer loop
   vertex -3.192466 12.671248 656.226196
   vertex -2.842520 12.671248 656.232300
   vertex -3.263658 12.735953 656.466492
  endloop
 facet normal -0.004517 -0.965932 0.258755
  outer loop
   vertex -3.263658 12.735953 656.466492
   vertex -2.842520 12.671248 656.232300
   vertex -2.963546 12.781246 656.640808
  endloop
 facet normal -0.004511 -0.965935 0.258746
  outer loop
   vertex -2.963546 12.781246 656.640808
   vertex -3.449728 12.783320 656.640076
   vertex -3.263658 12.735953 656.466492
  endloop
 facet normal -0.004511 -0.965925 0.258784
  outer loop
   vertex -3.279866 12.861770 656.935852
   vertex -3.449728 12.783320 656.640076
   vertex -2.963546 12.781246 656.640808
  endloop
 facet normal -0.004539 -0.965920 0.258799
  outer loop
   vertex -3.700820 12.800657 656.700378
   vertex -3.449728 12.783320 656.640076
   vertex -3.279866 12.861770 656.935852
  endloop
 facet normal -0.004531 -0.965924 0.258786
  outer loop
   vertex -3.279866 12.861770 656.935852
   vertex -3.706720 12.891244 657.038391
   vertex -3.700820 12.800657 656.700378
  endloop
 facet normal -0.004490 -0.965924 0.258787
  outer loop
   vertex -3.700820 12.800657 656.700378
   vertex -3.706720 12.891244 657.038391
   vertex -3.949652 12.783319 656.631348
  endloop
 facet normal -0.004503 -0.965922 0.258795
  outer loop
   vertex -3.949652 12.783319 656.631348
   vertex -3.706720 12.891244 657.038391
   vertex -4.129737 12.861770 656.921021
  endloop
 facet normal -0.004569 -0.965932 0.258757
  outer loop
   vertex -4.129737 12.861770 656.921021
   vertex -4.129552 12.735953 656.451355
   vertex -3.949652 12.783319 656.631348
  endloop
 facet normal -0.004498 -0.965932 0.258757
  outer loop
   vertex -4.435565 12.781246 656.615112
   vertex -4.129552 12.735953 656.451355
   vertex -4.129737 12.861770 656.921021
  endloop
 facet normal -0.004489 -0.965928 0.258772
  outer loop
   vertex -4.192314 12.671248 656.208740
   vertex -4.129552 12.735953 656.451355
   vertex -4.435565 12.781246 656.615112
  endloop
 facet normal -0.004513 -0.965931 0.258759
  outer loop
   vertex -4.435565 12.781246 656.615112
   vertex -4.542261 12.671248 656.202637
   vertex -4.192314 12.671248 656.208740
  endloop
 facet normal -0.004514 -0.965915 0.258819
  outer loop
   vertex -4.192314 12.671248 656.208740
   vertex -4.542261 12.671248 656.202637
   vertex -4.121123 12.606544 655.968506
  endloop
 facet normal -0.004536 -0.965925 0.258783
  outer loop
   vertex -4.121123 12.606544 655.968506
   vertex -4.542261 12.671248 656.202637
   vertex -4.525403 12.412431 655.236877
  endloop
 facet normal -0.004495 -0.965931 0.258762
  outer loop
   vertex -4.525403 12.412431 655.236877
   vertex -3.935052 12.559177 655.794922
   vertex -4.121123 12.606544 655.968506
  endloop
 facet normal -0.004541 -0.965918 0.258807
  outer loop
   vertex -3.683961 12.541840 655.734619
   vertex -3.935052 12.559177 655.794922
   vertex -4.525403 12.412431 655.236877
  endloop
 facet normal 0.004513 0.965927 -0.258775
  outer loop
   vertex 20.228352 13.154211 656.505615
   vertex 19.878405 13.154211 656.499512
   vertex 20.291115 13.218915 656.748230
  endloop
 facet normal 0.004500 0.965933 -0.258754
  outer loop
   vertex 20.291115 13.218915 656.748230
   vertex 19.878405 13.154211 656.499512
   vertex 19.985102 13.264208 656.911987
  endloop
 facet normal 0.004490 0.965928 -0.258771
  outer loop
   vertex 19.985102 13.264208 656.911987
   vertex 20.471014 13.266282 656.928162
   vertex 20.291115 13.218915 656.748230
  endloop
 facet normal 0.004490 0.965933 -0.258752
  outer loop
   vertex 20.290932 13.344732 657.217896
   vertex 20.471014 13.266282 656.928162
   vertex 19.985102 13.264208 656.911987
  endloop
 facet normal 0.004535 0.965940 -0.258725
  outer loop
   vertex 20.719847 13.283620 656.997253
   vertex 20.471014 13.266282 656.928162
   vertex 20.290932 13.344732 657.217896
  endloop
 facet normal 0.004503 0.965925 -0.258784
  outer loop
   vertex 20.290932 13.344732 657.217896
   vertex 20.713945 13.374206 657.335266
   vertex 20.719847 13.283620 656.997253
  endloop
 facet normal 0.004484 0.965925 -0.258785
  outer loop
   vertex 20.719847 13.283620 656.997253
   vertex 20.713945 13.374206 657.335266
   vertex 20.970938 13.266282 656.936890
  endloop
 facet normal 0.004538 0.965933 -0.258752
  outer loop
   vertex 20.970938 13.266282 656.936890
   vertex 20.713945 13.374206 657.335266
   vertex 21.140802 13.344732 657.232727
  endloop
 facet normal 0.004572 0.965928 -0.258770
  outer loop
   vertex 21.140802 13.344732 657.232727
   vertex 21.157007 13.218915 656.763367
   vertex 20.970938 13.266282 656.936890
  endloop
 facet normal 0.004527 0.965928 -0.258772
  outer loop
   vertex 21.457121 13.264208 656.937683
   vertex 21.157007 13.218915 656.763367
   vertex 21.140802 13.344732 657.232727
  endloop
 facet normal 0.004519 0.965931 -0.258760
  outer loop
   vertex 21.228199 13.154210 656.523071
   vertex 21.157007 13.218915 656.763367
   vertex 21.457121 13.264208 656.937683
  endloop
 facet normal 0.004513 0.965932 -0.258756
  outer loop
   vertex 21.457121 13.264208 656.937683
   vertex 21.578146 13.154210 656.529175
   vertex 21.228199 13.154210 656.523071
  endloop
 facet normal 0.004513 0.965927 -0.258775
  outer loop
   vertex 21.228199 13.154210 656.523071
   vertex 21.578146 13.154210 656.529175
   vertex 21.165438 13.089506 656.280457
  endloop
 facet normal 0.004519 0.965925 -0.258783
  outer loop
   vertex 21.165438 13.089506 656.280457
   vertex 21.578146 13.154210 656.529175
   vertex 21.595005 12.895392 655.563416
  endloop
 facet normal 0.004509 0.965924 -0.258788
  outer loop
   vertex 21.595005 12.895392 655.563416
   vertex 20.985538 13.042139 656.100525
   vertex 21.165438 13.089506 656.280457
  endloop
 facet normal 0.004495 0.965919 -0.258804
  outer loop
   vertex 20.736706 13.024801 656.031494
   vertex 20.985538 13.042139 656.100525
   vertex 21.595005 12.895392 655.563416
  endloop
 facet normal 0.004516 0.965929 -0.258768
  outer loop
   vertex -4.523144 12.895393 655.107483
   vertex -3.681702 13.024802 655.605225
   vertex -2.823402 12.895393 655.137146
  endloop
 facet normal 0.004495 0.965919 -0.258804
  outer loop
   vertex -2.823402 12.895393 655.137146
   vertex -3.681702 13.024802 655.605225
   vertex -3.432870 13.042140 655.674255
  endloop
 facet normal 0.004509 0.965924 -0.258788
  outer loop
   vertex -3.432870 13.042140 655.674255
   vertex -3.252970 13.089507 655.854187
   vertex -2.823402 12.895393 655.137146
  endloop
 facet normal 0.004495 0.965931 -0.258762
  outer loop
   vertex 20.299543 13.089506 656.265381
   vertex 20.485615 13.042139 656.091797
   vertex 19.895264 12.895392 655.533752
  endloop
 facet normal 0.004541 0.965918 -0.258807
  outer loop
   vertex 19.895264 12.895392 655.533752
   vertex 20.485615 13.042139 656.091797
   vertex 20.736706 13.024801 656.031494
  endloop
 facet normal 0.004516 0.965929 -0.258768
  outer loop
   vertex 20.736706 13.024801 656.031494
   vertex 21.595005 12.895392 655.563416
   vertex 19.895264 12.895392 655.533752
  endloop
 facet normal -0.004516 -0.965920 0.258800
  outer loop
   vertex 21.592747 12.412429 655.692810
   vertex 20.734446 12.541839 656.160828
   vertex 19.893005 12.412429 655.663147
  endloop
 facet normal -0.004488 -0.965933 0.258755
  outer loop
   vertex 19.893005 12.412429 655.663147
   vertex 20.734446 12.541839 656.160828
   vertex 20.483355 12.559175 656.221191
  endloop
 facet normal -0.004538 -0.965919 0.258804
  outer loop
   vertex 20.483355 12.559175 656.221191
   vertex 20.297285 12.606543 656.394714
   vertex 19.893005 12.412429 655.663147
  endloop
 facet normal -0.004512 -0.965924 0.258786
  outer loop
   vertex -3.255229 12.606544 655.983582
   vertex -3.435128 12.559177 655.803650
   vertex -2.825661 12.412431 655.266541
  endloop
 facet normal -0.004495 -0.965919 0.258804
  outer loop
   vertex -2.825661 12.412431 655.266541
   vertex -3.435128 12.559177 655.803650
   vertex -3.683961 12.541840 655.734619
  endloop
 facet normal -0.004516 -0.965929 0.258768
  outer loop
   vertex -3.683961 12.541840 655.734619
   vertex -4.525403 12.412431 655.236877
   vertex -2.825661 12.412431 655.266541
  endloop
 facet normal -0.013854 -0.607157 0.794461
  outer loop
   vertex 18.701815 12.577209 658.504517
   vertex 18.700703 12.660613 658.568237
   vertex 17.543276 12.577209 658.484314
  endloop
 facet normal -0.013901 -0.606789 0.794741
  outer loop
   vertex 17.543276 12.577209 658.484314
   vertex 18.700703 12.660613 658.568237
   vertex 17.542164 12.660613 658.547974
  endloop
 facet normal 0.004517 0.965926 -0.258780
  outer loop
   vertex -1.303574 13.913491 657.026062
   vertex -1.313918 14.072284 657.618591
   vertex 18.310436 13.913490 657.368408
  endloop
 facet normal 0.004517 0.965926 -0.258780
  outer loop
   vertex 18.310436 13.913490 657.368408
   vertex -1.313918 14.072284 657.618591
   vertex 18.300093 14.072283 657.960938
  endloop
 facet normal -0.006729 0.923020 0.384692
  outer loop
   vertex -0.570005 14.143185 657.834534
   vertex -0.568315 14.183567 657.737671
   vertex -1.728544 14.143185 657.814270
  endloop
 facet normal -0.006712 0.922934 0.384899
  outer loop
   vertex -1.728544 14.143185 657.814270
   vertex -0.568315 14.183567 657.737671
   vertex -1.726853 14.183567 657.717468
  endloop
 facet normal -0.016844 0.258828 0.965777
  outer loop
   vertex 21.225941 12.671247 656.652466
   vertex 21.575888 12.671247 656.658569
   vertex 21.402044 12.912729 656.590820
  endloop
 facet normal 0.999848 -0.000000 0.017454
  outer loop
   vertex 18.723516 13.965737 657.261353
   vertex 18.716003 12.359381 657.691711
   vertex 18.730663 13.595854 656.851929
  endloop
 facet normal 0.004514 0.965914 -0.258822
  outer loop
   vertex 19.878405 13.154211 656.499512
   vertex 20.228352 13.154211 656.505615
   vertex 20.299543 13.089506 656.265381
  endloop
 facet normal 0.004559 0.965923 -0.258789
  outer loop
   vertex -3.190208 13.154212 656.096802
   vertex -2.840261 13.154212 656.102966
   vertex -3.252970 13.089507 655.854187
  endloop
 facet normal 0.016844 -0.258828 -0.965777
  outer loop
   vertex 21.575888 12.671247 656.658569
   vertex 21.228199 13.154210 656.523071
   vertex 21.578146 13.154210 656.529175
  endloop
 facet normal -0.004514 -0.965927 0.258774
  outer loop
   vertex -1.466799 12.533429 656.930054
   vertex -3.114709 12.533429 656.901306
   vertex -3.088729 12.134578 655.412964
  endloop
 facet normal 0.004524 0.965927 -0.258774
  outer loop
   vertex 18.507929 13.211522 655.501343
   vertex 18.481949 13.610373 656.989685
   vertex 20.155838 13.211522 655.530151
  endloop
 facet normal 0.016844 -0.258828 -0.965777
  outer loop
   vertex -4.540003 13.154212 656.073242
   vertex -4.192314 12.671248 656.208740
   vertex -4.542261 12.671248 656.202637
  endloop
 facet normal -0.999848 -0.000001 -0.017454
  outer loop
   vertex -1.735477 12.660614 658.211487
   vertex -1.734759 12.814162 658.170349
   vertex -1.733029 12.802824 658.071228
  endloop
 facet normal 0.016844 -0.258828 -0.965777
  outer loop
   vertex 20.228352 13.154211 656.505615
   vertex 19.876146 12.671247 656.628906
   vertex 19.878405 13.154211 656.499512
  endloop
 facet normal -0.999848 0.000000 -0.017453
  outer loop
   vertex -1.720177 12.359383 657.334961
   vertex -1.712664 13.965738 656.904602
   vertex -1.710760 12.474971 656.795471
  endloop
 facet normal 0.999848 0.000004 0.017445
  outer loop
   vertex 18.707636 14.143184 658.171021
   vertex 18.706919 13.989635 658.212158
   vertex 18.708515 13.949886 658.120667
  endloop
 facet normal -0.004514 -0.965925 0.258784
  outer loop
   vertex 18.476912 12.533428 657.278198
   vertex 18.502892 12.134577 655.789917
   vertex 20.150803 12.134577 655.818665
  endloop
 facet normal 0.999848 -0.000000 0.017454
  outer loop
   vertex -1.440819 12.134578 655.441772
   vertex -1.435782 13.211524 655.153259
   vertex -1.461763 13.610374 656.641541
  endloop
 facet normal 0.016845 -0.258714 -0.965807
  outer loop
   vertex -3.192466 12.671248 656.226196
   vertex -2.840261 13.154212 656.102966
   vertex -2.842520 12.671248 656.232300
  endloop
 facet normal -0.004513 -0.965926 0.258778
  outer loop
   vertex -2.842520 12.671248 656.232300
   vertex -3.192466 12.671248 656.226196
   vertex -3.255229 12.606544 655.983582
  endloop
 facet normal -0.718897 0.183025 0.670588
  outer loop
   vertex -3.435128 12.559177 655.803650
   vertex -3.252970 13.089507 655.854187
   vertex -3.432870 13.042140 655.674255
  endloop
 facet normal -0.274969 0.250015 0.928377
  outer loop
   vertex -3.435128 12.559177 655.803650
   vertex -3.432870 13.042140 655.674255
   vertex -3.683961 12.541840 655.734619
  endloop
 facet normal -0.274969 0.250015 0.928377
  outer loop
   vertex -3.683961 12.541840 655.734619
   vertex -3.432870 13.042140 655.674255
   vertex -3.681702 13.024802 655.605225
  endloop
 facet normal 0.242394 0.250016 0.937410
  outer loop
   vertex -3.681702 13.024802 655.605225
   vertex -3.935052 12.559177 655.794922
   vertex -3.683961 12.541840 655.734619
  endloop
 facet normal 0.242394 0.250016 0.937410
  outer loop
   vertex -3.932794 13.042140 655.665527
   vertex -3.935052 12.559177 655.794922
   vertex -3.681702 13.024802 655.605225
  endloop
 facet normal 0.695132 0.183006 0.695198
  outer loop
   vertex -4.121123 12.606544 655.968506
   vertex -3.935052 12.559177 655.794922
   vertex -3.932794 13.042140 655.665527
  endloop
 facet normal 0.695133 0.183005 0.695198
  outer loop
   vertex -3.932794 13.042140 655.665527
   vertex -4.118864 13.089507 655.839111
   vertex -4.121123 12.606544 655.968506
  endloop
 facet normal 0.961404 0.067000 0.266858
  outer loop
   vertex -4.121123 12.606544 655.968506
   vertex -4.118864 13.089507 655.839111
   vertex -4.192314 12.671248 656.208740
  endloop
 facet normal -0.970143 0.066988 0.233098
  outer loop
   vertex 21.225941 12.671247 656.652466
   vertex 21.228199 13.154210 656.523071
   vertex 21.163179 12.606543 656.409851
  endloop
 facet normal -0.970143 0.066988 0.233098
  outer loop
   vertex 21.163179 12.606543 656.409851
   vertex 21.228199 13.154210 656.523071
   vertex 21.165438 13.089506 656.280457
  endloop
 facet normal -0.718895 0.183025 0.670591
  outer loop
   vertex 21.165438 13.089506 656.280457
   vertex 20.983278 12.559175 656.229919
   vertex 21.163179 12.606543 656.409851
  endloop
 facet normal -0.718898 0.183026 0.670587
  outer loop
   vertex 20.985538 13.042139 656.100525
   vertex 20.983278 12.559175 656.229919
   vertex 21.165438 13.089506 656.280457
  endloop
 facet normal -0.275179 0.250001 0.928319
  outer loop
   vertex 20.734446 12.541839 656.160828
   vertex 20.983278 12.559175 656.229919
   vertex 20.985538 13.042139 656.100525
  endloop
 facet normal -0.274970 0.249907 0.928406
  outer loop
   vertex 20.985538 13.042139 656.100525
   vertex 20.736706 13.024801 656.031494
   vertex 20.734446 12.541839 656.160828
  endloop
 facet normal 0.242608 0.249890 0.937388
  outer loop
   vertex 20.734446 12.541839 656.160828
   vertex 20.736706 13.024801 656.031494
   vertex 20.483355 12.559175 656.221191
  endloop
 facet normal 0.242395 0.250014 0.937410
  outer loop
   vertex 20.483355 12.559175 656.221191
   vertex 20.736706 13.024801 656.031494
   vertex 20.485615 13.042139 656.091797
  endloop
 facet normal 0.695016 0.183032 0.695307
  outer loop
   vertex 20.485615 13.042139 656.091797
   vertex 20.297285 12.606543 656.394714
   vertex 20.483355 12.559175 656.221191
  endloop
 facet normal 0.961421 0.066952 0.266808
  outer loop
   vertex -2.842520 12.671248 656.232300
   vertex -2.840261 13.154212 656.102966
   vertex -2.963546 12.781246 656.640808
  endloop
 facet normal 0.961411 0.066994 0.266834
  outer loop
   vertex -2.963546 12.781246 656.640808
   vertex -2.840261 13.154212 656.102966
   vertex -2.961288 13.264210 656.511414
  endloop
 facet normal 0.695077 0.183019 0.695250
  outer loop
   vertex -2.961288 13.264210 656.511414
   vertex -3.279866 12.861770 656.935852
   vertex -2.963546 12.781246 656.640808
  endloop
 facet normal 0.695077 0.183019 0.695250
  outer loop
   vertex -3.277607 13.344733 656.806458
   vertex -3.279866 12.861770 656.935852
   vertex -2.961288 13.264210 656.511414
  endloop
 facet normal 0.242445 0.250012 0.937398
  outer loop
   vertex -3.706720 12.891244 657.038391
   vertex -3.279866 12.861770 656.935852
   vertex -3.277607 13.344733 656.806458
  endloop
 facet normal 0.242445 0.250012 0.937398
  outer loop
   vertex -3.277607 13.344733 656.806458
   vertex -3.704462 13.374207 656.908997
   vertex -3.706720 12.891244 657.038391
  endloop
 facet normal -0.275006 0.250012 0.928367
  outer loop
   vertex -3.706720 12.891244 657.038391
   vertex -3.704462 13.374207 656.908997
   vertex -4.129737 12.861770 656.921021
  endloop
 facet normal -0.275006 0.250012 0.928367
  outer loop
   vertex -4.129737 12.861770 656.921021
   vertex -3.704462 13.374207 656.908997
   vertex -4.127478 13.344733 656.791626
  endloop
 facet normal -0.718924 0.183018 0.670562
  outer loop
   vertex -4.127478 13.344733 656.791626
   vertex -4.435565 12.781246 656.615112
   vertex -4.129737 12.861770 656.921021
  endloop
 facet normal -0.718924 0.183018 0.670562
  outer loop
   vertex -4.433307 13.264210 656.485718
   vertex -4.435565 12.781246 656.615112
   vertex -4.127478 13.344733 656.791626
  endloop
 facet normal -0.970146 0.066985 0.233086
  outer loop
   vertex -4.542261 12.671248 656.202637
   vertex -4.435565 12.781246 656.615112
   vertex -4.433307 13.264210 656.485718
  endloop
 facet normal -0.970146 0.066984 0.233087
  outer loop
   vertex -4.433307 13.264210 656.485718
   vertex -4.540003 13.154212 656.073242
   vertex -4.542261 12.671248 656.202637
  endloop
 facet normal 0.961423 0.066984 0.266795
  outer loop
   vertex 21.575888 12.671247 656.658569
   vertex 21.578146 13.154210 656.529175
   vertex 21.454863 12.781245 657.067078
  endloop
 facet normal 0.961423 0.066984 0.266795
  outer loop
   vertex 21.454863 12.781245 657.067078
   vertex 21.578146 13.154210 656.529175
   vertex 21.457121 13.264208 656.937683
  endloop
 facet normal 0.695078 0.183020 0.695248
  outer loop
   vertex 21.457121 13.264208 656.937683
   vertex 21.138544 12.861769 657.362122
   vertex 21.454863 12.781245 657.067078
  endloop
 facet normal 0.695079 0.183019 0.695248
  outer loop
   vertex 21.140802 13.344732 657.232727
   vertex 21.138544 12.861769 657.362122
   vertex 21.457121 13.264208 656.937683
  endloop
 facet normal 0.242444 0.250012 0.937398
  outer loop
   vertex 20.711687 12.891243 657.464661
   vertex 21.138544 12.861769 657.362122
   vertex 21.140802 13.344732 657.232727
  endloop
 facet normal 0.242443 0.250012 0.937398
  outer loop
   vertex 21.140802 13.344732 657.232727
   vertex 20.713945 13.374206 657.335266
   vertex 20.711687 12.891243 657.464661
  endloop
 facet normal -0.275007 0.250012 0.928367
  outer loop
   vertex 20.711687 12.891243 657.464661
   vertex 20.713945 13.374206 657.335266
   vertex 20.288673 12.861769 657.347290
  endloop
 facet normal -0.275007 0.250012 0.928367
  outer loop
   vertex 20.288673 12.861769 657.347290
   vertex 20.713945 13.374206 657.335266
   vertex 20.290932 13.344732 657.217896
  endloop
 facet normal -0.718922 0.183017 0.670563
  outer loop
   vertex 20.290932 13.344732 657.217896
   vertex 19.982843 12.781245 657.041382
   vertex 20.288673 12.861769 657.347290
  endloop
 facet normal -0.718923 0.183018 0.670563
  outer loop
   vertex 19.985102 13.264208 656.911987
   vertex 19.982843 12.781245 657.041382
   vertex 20.290932 13.344732 657.217896
  endloop
 facet normal -0.970146 0.066985 0.233089
  outer loop
   vertex 19.876146 12.671247 656.628906
   vertex 19.982843 12.781245 657.041382
   vertex 19.985102 13.264208 656.911987
  endloop
 facet normal -0.970146 0.066985 0.233089
  outer loop
   vertex 19.985102 13.264208 656.911987
   vertex 19.878405 13.154211 656.499512
   vertex 19.876146 12.671247 656.628906
  endloop
 facet normal 0.695130 0.182924 0.695221
  outer loop
   vertex 20.485615 13.042139 656.091797
   vertex 20.299543 13.089506 656.265381
   vertex 20.297285 12.606543 656.394714
  endloop
 facet normal 0.961404 0.066969 0.266868
  outer loop
   vertex 20.297285 12.606543 656.394714
   vertex 20.299543 13.089506 656.265381
   vertex 20.228352 13.154211 656.505615
  endloop
 facet normal 0.961421 0.066985 0.266801
  outer loop
   vertex 20.228352 13.154211 656.505615
   vertex 20.226093 12.671247 656.635010
   vertex 20.297285 12.606543 656.394714
  endloop
 facet normal 0.970141 -0.066989 -0.233105
  outer loop
   vertex 20.291115 13.218915 656.748230
   vertex 20.226093 12.671247 656.635010
   vertex 20.228352 13.154211 656.505615
  endloop
 facet normal 0.970143 -0.066991 -0.233097
  outer loop
   vertex 20.288855 12.735951 656.877625
   vertex 20.226093 12.671247 656.635010
   vertex 20.291115 13.218915 656.748230
  endloop
 facet normal 0.718898 -0.183026 -0.670587
  outer loop
   vertex 20.291115 13.218915 656.748230
   vertex 20.471014 13.266282 656.928162
   vertex 20.288855 12.735951 656.877625
  endloop
 facet normal 0.718895 -0.183025 -0.670591
  outer loop
   vertex 20.288855 12.735951 656.877625
   vertex 20.471014 13.266282 656.928162
   vertex 20.468756 12.783319 657.057556
  endloop
 facet normal 0.275180 -0.250000 -0.928319
  outer loop
   vertex 20.468756 12.783319 657.057556
   vertex 20.471014 13.266282 656.928162
   vertex 20.719847 13.283620 656.997253
  endloop
 facet normal 0.275180 -0.250000 -0.928319
  outer loop
   vertex 20.719847 13.283620 656.997253
   vertex 20.717588 12.800656 657.126648
   vertex 20.468756 12.783319 657.057556
  endloop
 facet normal -0.242609 -0.250001 -0.937358
  outer loop
   vertex 20.970938 13.266282 656.936890
   vertex 20.717588 12.800656 657.126648
   vertex 20.719847 13.283620 656.997253
  endloop
 facet normal -0.242609 -0.250001 -0.937358
  outer loop
   vertex 20.968679 12.783319 657.066284
   vertex 20.717588 12.800656 657.126648
   vertex 20.970938 13.266282 656.936890
  endloop
 facet normal -0.695016 -0.183035 -0.695306
  outer loop
   vertex 20.970938 13.266282 656.936890
   vertex 21.157007 13.218915 656.763367
   vertex 20.968679 12.783319 657.066284
  endloop
 facet normal -0.695016 -0.183035 -0.695306
  outer loop
   vertex 20.968679 12.783319 657.066284
   vertex 21.157007 13.218915 656.763367
   vertex 21.154749 12.735951 656.892761
  endloop
 facet normal -0.961421 -0.066985 -0.266801
  outer loop
   vertex 21.154749 12.735951 656.892761
   vertex 21.157007 13.218915 656.763367
   vertex 21.228199 13.154210 656.523071
  endloop
 facet normal -0.961421 -0.066985 -0.266801
  outer loop
   vertex 21.228199 13.154210 656.523071
   vertex 21.225941 12.671247 656.652466
   vertex 21.154749 12.735951 656.892761
  endloop
 facet normal -0.718897 0.183025 0.670589
  outer loop
   vertex -3.435128 12.559177 655.803650
   vertex -3.255229 12.606544 655.983582
   vertex -3.252970 13.089507 655.854187
  endloop
 facet normal -0.970142 0.066989 0.233101
  outer loop
   vertex -3.252970 13.089507 655.854187
   vertex -3.255229 12.606544 655.983582
   vertex -3.192466 12.671248 656.226196
  endloop
 facet normal -0.970143 0.066989 0.233101
  outer loop
   vertex -3.192466 12.671248 656.226196
   vertex -3.190208 13.154212 656.096802
   vertex -3.252970 13.089507 655.854187
  endloop
 facet normal -0.961421 -0.066984 -0.266800
  outer loop
   vertex -3.263658 12.735953 656.466492
   vertex -3.190208 13.154212 656.096802
   vertex -3.192466 12.671248 656.226196
  endloop
 facet normal -0.961421 -0.066985 -0.266800
  outer loop
   vertex -3.261400 13.218916 656.337097
   vertex -3.190208 13.154212 656.096802
   vertex -3.263658 12.735953 656.466492
  endloop
 facet normal -0.695133 -0.183005 -0.695198
  outer loop
   vertex -3.263658 12.735953 656.466492
   vertex -3.449728 12.783320 656.640076
   vertex -3.261400 13.218916 656.337097
  endloop
 facet normal -0.695133 -0.183005 -0.695198
  outer loop
   vertex -3.261400 13.218916 656.337097
   vertex -3.449728 12.783320 656.640076
   vertex -3.447470 13.266283 656.510681
  endloop
 facet normal -0.242393 -0.250016 -0.937410
  outer loop
   vertex -3.447470 13.266283 656.510681
   vertex -3.449728 12.783320 656.640076
   vertex -3.700820 12.800657 656.700378
  endloop
 facet normal -0.242394 -0.250015 -0.937410
  outer loop
   vertex -3.700820 12.800657 656.700378
   vertex -3.698561 13.283621 656.570984
   vertex -3.447470 13.266283 656.510681
  endloop
 facet normal 0.274969 -0.250015 -0.928377
  outer loop
   vertex -3.949652 12.783319 656.631348
   vertex -3.698561 13.283621 656.570984
   vertex -3.700820 12.800657 656.700378
  endloop
 facet normal 0.274969 -0.250015 -0.928377
  outer loop
   vertex -3.947394 13.266283 656.501953
   vertex -3.698561 13.283621 656.570984
   vertex -3.949652 12.783319 656.631348
  endloop
 facet normal 0.719007 -0.182996 -0.670478
  outer loop
   vertex -3.949652 12.783319 656.631348
   vertex -4.129552 12.735953 656.451355
   vertex -3.947394 13.266283 656.501953
  endloop
 facet normal 0.718897 -0.182945 -0.670610
  outer loop
   vertex -3.947394 13.266283 656.501953
   vertex -4.129552 12.735953 656.451355
   vertex -4.127294 13.218916 656.322021
  endloop
 facet normal 0.970143 -0.066961 -0.233109
  outer loop
   vertex -4.127294 13.218916 656.322021
   vertex -4.129552 12.735953 656.451355
   vertex -4.192314 12.671248 656.208740
  endloop
 facet normal 0.970143 -0.066961 -0.233107
  outer loop
   vertex -4.192314 12.671248 656.208740
   vertex -4.190055 13.154212 656.079407
   vertex -4.127294 13.218916 656.322021
  endloop
 facet normal 0.961421 0.066952 0.266808
  outer loop
   vertex -4.118864 13.089507 655.839111
   vertex -4.190055 13.154212 656.079407
   vertex -4.192314 12.671248 656.208740
  endloop
endsolid