solid stl file generated from DOUG
 facet normal -0.858590 -0.272284 -0.434378
  outer loop
   vertex -44.129128 -85.135880 618.750305
   vertex -44.124363 -84.715561 618.477417
   vertex -44.000675 -85.254074 618.570496
  endloop
 facet normal -0.858590 -0.272284 -0.434378
  outer loop
   vertex -44.000675 -85.254074 618.570496
   vertex -44.124363 -84.715561 618.477417
   vertex -43.995911 -84.833755 618.297607
  endloop
 facet normal 0.014708 -0.544599 -0.838567
  outer loop
   vertex -43.995911 -84.833755 618.297607
   vertex -43.750126 -85.254074 618.574890
   vertex -44.000675 -85.254074 618.570496
  endloop
 facet normal 0.014708 -0.544599 -0.838567
  outer loop
   vertex -43.745361 -84.833755 618.302002
   vertex -43.750126 -85.254074 618.574890
   vertex -43.995911 -84.833755 618.297607
  endloop
 facet normal 0.873198 -0.272315 -0.404190
  outer loop
   vertex -43.628029 -85.135880 618.759033
   vertex -43.750126 -85.254074 618.574890
   vertex -43.745361 -84.833755 618.302002
  endloop
 facet normal 0.873198 -0.272315 -0.404190
  outer loop
   vertex -43.745361 -84.833755 618.302002
   vertex -43.623264 -84.715561 618.486145
   vertex -43.628029 -85.135880 618.759033
  endloop
 facet normal 0.858590 0.272284 0.434378
  outer loop
   vertex -43.628029 -85.135880 618.759033
   vertex -43.623264 -84.715561 618.486145
   vertex -43.756481 -85.017685 618.938843
  endloop
 facet normal 0.858590 0.272284 0.434378
  outer loop
   vertex -43.756481 -85.017685 618.938843
   vertex -43.623264 -84.715561 618.486145
   vertex -43.751717 -84.597366 618.665955
  endloop
 facet normal -0.014708 0.544599 0.838567
  outer loop
   vertex -43.751717 -84.597366 618.665955
   vertex -44.007027 -85.017685 618.934448
   vertex -43.756481 -85.017685 618.938843
  endloop
 facet normal -0.014708 0.544599 0.838567
  outer loop
   vertex -44.002262 -84.597366 618.661560
   vertex -44.007027 -85.017685 618.934448
   vertex -43.751717 -84.597366 618.665955
  endloop
 facet normal -0.873192 0.272321 0.404200
  outer loop
   vertex -44.129128 -85.135880 618.750305
   vertex -44.007027 -85.017685 618.934448
   vertex -44.002262 -84.597366 618.661560
  endloop
 facet normal -0.873192 0.272321 0.404200
  outer loop
   vertex -44.002262 -84.597366 618.661560
   vertex -44.124363 -84.715561 618.477417
   vertex -44.129128 -85.135880 618.750305
  endloop
 facet normal 0.873198 -0.272351 -0.404167
  outer loop
   vertex -55.771473 -84.715561 618.274048
   vertex -55.776234 -85.135880 618.546997
   vertex -55.893570 -84.833755 618.089905
  endloop
 facet normal 0.873191 -0.272362 -0.404173
  outer loop
   vertex -55.893570 -84.833755 618.089905
   vertex -55.776234 -85.135880 618.546997
   vertex -55.898335 -85.254074 618.362854
  endloop
 facet normal 0.014503 -0.544685 -0.838515
  outer loop
   vertex -55.898335 -85.254074 618.362854
   vertex -56.144115 -84.833755 618.085571
   vertex -55.893570 -84.833755 618.089905
  endloop
 facet normal 0.014708 -0.544599 -0.838567
  outer loop
   vertex -56.148880 -85.254074 618.358459
   vertex -56.144115 -84.833755 618.085571
   vertex -55.898335 -85.254074 618.362854
  endloop
 facet normal -0.858536 -0.272334 -0.434454
  outer loop
   vertex -56.272568 -84.715561 618.265320
   vertex -56.144115 -84.833755 618.085571
   vertex -56.148880 -85.254074 618.358459
  endloop
 facet normal -0.858591 -0.272328 -0.434350
  outer loop
   vertex -56.148880 -85.254074 618.358459
   vertex -56.277332 -85.135880 618.538269
   vertex -56.272568 -84.715561 618.265320
  endloop
 facet normal -0.873198 0.272356 0.404163
  outer loop
   vertex -56.272568 -84.715561 618.265320
   vertex -56.277332 -85.135880 618.538269
   vertex -56.150471 -84.597366 618.449463
  endloop
 facet normal -0.873198 0.272356 0.404163
  outer loop
   vertex -56.150471 -84.597366 618.449463
   vertex -56.277332 -85.135880 618.538269
   vertex -56.155235 -85.017685 618.722412
  endloop
 facet normal -0.014707 0.544685 0.838512
  outer loop
   vertex -56.155235 -85.017685 618.722412
   vertex -55.899921 -84.597366 618.453857
   vertex -56.150471 -84.597366 618.449463
  endloop
 facet normal -0.014707 0.544685 0.838512
  outer loop
   vertex -55.904686 -85.017685 618.726807
   vertex -55.899921 -84.597366 618.453857
   vertex -56.155235 -85.017685 618.722412
  endloop
 facet normal 0.858597 0.272322 0.434340
  outer loop
   vertex -55.771473 -84.715561 618.274048
   vertex -55.899921 -84.597366 618.453857
   vertex -55.904686 -85.017685 618.726807
  endloop
 facet normal 0.858591 0.272334 0.434346
  outer loop
   vertex -55.904686 -85.017685 618.726807
   vertex -55.776234 -85.135880 618.546997
   vertex -55.771473 -84.715561 618.274048
  endloop
 facet normal -0.009553 -0.838629 0.544619
  outer loop
   vertex -56.148880 -85.254074 618.358459
   vertex -55.898335 -85.254074 618.362854
   vertex -56.026783 -85.135880 618.542603
  endloop
 facet normal -0.009552 -0.838629 0.544619
  outer loop
   vertex -56.026783 -85.135880 618.542603
   vertex -55.898335 -85.254074 618.362854
   vertex -55.776234 -85.135880 618.546997
  endloop
 facet normal -0.009550 -0.838713 0.544490
  outer loop
   vertex -55.776234 -85.135880 618.546997
   vertex -55.904686 -85.017685 618.726807
   vertex -56.026783 -85.135880 618.542603
  endloop
 facet normal -0.009552 -0.838629 0.544619
  outer loop
   vertex -44.007027 -85.017685 618.934448
   vertex -44.129128 -85.135880 618.750305
   vertex -43.878578 -85.135880 618.754700
  endloop
 facet normal -0.009550 -0.838713 0.544490
  outer loop
   vertex -43.878578 -85.135880 618.754700
   vertex -44.129128 -85.135880 618.750305
   vertex -44.000675 -85.254074 618.570496
  endloop
 facet normal -0.009550 -0.838713 0.544490
  outer loop
   vertex -44.000675 -85.254074 618.570496
   vertex -43.750126 -85.254074 618.574890
   vertex -43.878578 -85.135880 618.754700
  endloop
 facet normal -0.009419 -0.838671 0.544557
  outer loop
   vertex -43.750126 -85.254074 618.574890
   vertex -43.628029 -85.135880 618.759033
   vertex -43.878578 -85.135880 618.754700
  endloop
 facet normal -0.009419 -0.838671 0.544557
  outer loop
   vertex -43.878578 -85.135880 618.754700
   vertex -43.628029 -85.135880 618.759033
   vertex -43.756481 -85.017685 618.938843
  endloop
 facet normal -0.009553 -0.838629 0.544619
  outer loop
   vertex -43.756481 -85.017685 618.938843
   vertex -44.007027 -85.017685 618.934448
   vertex -43.878578 -85.135880 618.754700
  endloop
 facet normal -0.009550 -0.838713 0.544490
  outer loop
   vertex -55.904686 -85.017685 618.726807
   vertex -56.155235 -85.017685 618.722412
   vertex -56.026783 -85.135880 618.542603
  endloop
 facet normal -0.009419 -0.838671 0.544557
  outer loop
   vertex -56.026783 -85.135880 618.542603
   vertex -56.155235 -85.017685 618.722412
   vertex -56.277332 -85.135880 618.538269
  endloop
 facet normal -0.009419 -0.838671 0.544557
  outer loop
   vertex -56.277332 -85.135880 618.538269
   vertex -56.148880 -85.254074 618.358459
   vertex -56.026783 -85.135880 618.542603
  endloop
 facet normal -0.009501 -0.838669 0.544559
  outer loop
   vertex -45.324760 -83.088913 618.145386
   vertex -45.306461 -83.769821 617.097046
   vertex -42.333817 -83.088913 618.197571
  endloop
 facet normal -0.009501 -0.838669 0.544559
  outer loop
   vertex -42.333817 -83.088913 618.197571
   vertex -45.306461 -83.769821 617.097046
   vertex -42.315517 -83.769821 617.149231
  endloop
 facet normal 0.999848 0.000000 0.017453
  outer loop
   vertex -42.315517 -83.769821 617.149231
   vertex -42.320618 -81.924347 617.441406
   vertex -42.333817 -83.088913 618.197571
  endloop
 facet normal 0.999848 0.000000 0.017453
  outer loop
   vertex -42.302319 -82.605255 616.393066
   vertex -42.320618 -81.924347 617.441406
   vertex -42.315517 -83.769821 617.149231
  endloop
 facet normal 0.009501 0.838669 -0.544559
  outer loop
   vertex -45.293262 -82.605255 616.340881
   vertex -42.320618 -81.924347 617.441406
   vertex -42.302319 -82.605255 616.393066
  endloop
 facet normal 0.014631 -0.544640 -0.838542
  outer loop
   vertex -42.302319 -82.605255 616.393066
   vertex -45.306461 -83.769821 617.097046
   vertex -45.293262 -82.605255 616.340881
  endloop
 facet normal -0.999848 -0.000000 -0.017453
  outer loop
   vertex -45.293262 -82.605255 616.340881
   vertex -45.306461 -83.769821 617.097046
   vertex -45.311562 -81.924347 617.389221
  endloop
 facet normal -0.999848 -0.000000 -0.017453
  outer loop
   vertex -45.311562 -81.924347 617.389221
   vertex -45.306461 -83.769821 617.097046
   vertex -45.324760 -83.088913 618.145386
  endloop
 facet normal -0.014631 0.544640 0.838542
  outer loop
   vertex -45.324760 -83.088913 618.145386
   vertex -42.320618 -81.924347 617.441406
   vertex -45.311562 -81.924347 617.389221
  endloop
 facet normal -0.014631 0.544640 0.838542
  outer loop
   vertex -42.333817 -83.088913 618.197571
   vertex -42.320618 -81.924347 617.441406
   vertex -45.324760 -83.088913 618.145386
  endloop
 facet normal -0.999848 -0.000002 -0.017455
  outer loop
   vertex -57.537960 -81.924347 617.175781
   vertex -57.519657 -82.605255 616.127441
   vertex -57.551159 -83.088913 617.931946
  endloop
 facet normal -0.999848 0.000002 -0.017454
  outer loop
   vertex -57.551159 -83.088913 617.931946
   vertex -57.519657 -82.605255 616.127441
   vertex -57.532860 -83.769821 616.883606
  endloop
 facet normal -0.009512 -0.838669 0.544559
  outer loop
   vertex -57.532860 -83.769821 616.883606
   vertex -54.560215 -83.088913 617.984192
   vertex -57.551159 -83.088913 617.931946
  endloop
 facet normal -0.009501 -0.838683 0.544536
  outer loop
   vertex -54.541916 -83.769821 616.935791
   vertex -54.560215 -83.088913 617.984192
   vertex -57.532860 -83.769821 616.883606
  endloop
 facet normal 0.999848 -0.000001 0.017452
  outer loop
   vertex -54.528717 -82.605255 616.179688
   vertex -54.560215 -83.088913 617.984192
   vertex -54.541916 -83.769821 616.935791
  endloop
 facet normal 0.014648 -0.544609 -0.838562
  outer loop
   vertex -54.541916 -83.769821 616.935791
   vertex -57.519657 -82.605255 616.127441
   vertex -54.528717 -82.605255 616.179688
  endloop
 facet normal 0.009512 0.838669 -0.544559
  outer loop
   vertex -54.528717 -82.605255 616.179688
   vertex -57.519657 -82.605255 616.127441
   vertex -54.547016 -81.924347 617.228027
  endloop
 facet normal 0.009512 0.838669 -0.544559
  outer loop
   vertex -54.547016 -81.924347 617.228027
   vertex -57.519657 -82.605255 616.127441
   vertex -57.537960 -81.924347 617.175781
  endloop
 facet normal -0.014648 0.544640 0.838542
  outer loop
   vertex -57.537960 -81.924347 617.175781
   vertex -54.560215 -83.088913 617.984192
   vertex -54.547016 -81.924347 617.228027
  endloop
 facet normal -0.014648 0.544640 0.838542
  outer loop
   vertex -57.551159 -83.088913 617.931946
   vertex -54.560215 -83.088913 617.984192
   vertex -57.537960 -81.924347 617.175781
  endloop
 facet normal 0.014631 -0.544640 -0.838542
  outer loop
   vertex -54.541916 -83.769821 616.935791
   vertex -57.532860 -83.769821 616.883606
   vertex -57.519657 -82.605255 616.127441
  endloop
 facet normal 0.014631 -0.544640 -0.838542
  outer loop
   vertex -42.315517 -83.769821 617.149231
   vertex -45.306461 -83.769821 617.097046
   vertex -42.302319 -82.605255 616.393066
  endloop
 facet normal 0.999848 0.000000 0.017453
  outer loop
   vertex -54.528717 -82.605255 616.179688
   vertex -54.547016 -81.924347 617.228027
   vertex -54.560215 -83.088913 617.984192
  endloop
 facet normal 0.009501 0.838669 -0.544559
  outer loop
   vertex -45.293262 -82.605255 616.340881
   vertex -45.311562 -81.924347 617.389221
   vertex -42.320618 -81.924347 617.441406
  endloop
 facet normal -0.009504 -0.838679 0.544544
  outer loop
   vertex -44.971916 -85.324829 619.794434
   vertex -54.968796 -85.384529 619.528015
   vertex -44.970310 -85.384529 619.702515
  endloop
 facet normal 0.006132 -0.936226 -0.351345
  outer loop
   vertex -44.970310 -85.384529 619.702515
   vertex -54.968796 -85.384529 619.528015
   vertex -44.967937 -85.333481 619.566528
  endloop
 facet normal 0.005782 -0.943411 -0.331576
  outer loop
   vertex -54.036686 -86.219955 618.366272
   vertex -55.193497 -86.185150 618.247070
   vertex -54.034958 -86.185150 618.267273
  endloop
 facet normal 0.014623 -0.544638 -0.838543
  outer loop
   vertex -54.034958 -86.185150 618.267273
   vertex -55.193497 -86.185150 618.247070
   vertex -55.185497 -85.479301 617.788757
  endloop
 facet normal -0.014623 0.544638 0.838543
  outer loop
   vertex -44.717384 -84.573555 619.366394
   vertex -45.883923 -85.279404 619.804504
   vertex -44.725384 -85.279404 619.824707
  endloop
 facet normal -0.017378 -0.080850 0.996575
  outer loop
   vertex -44.725384 -85.279404 619.824707
   vertex -45.883923 -85.279404 619.804504
   vertex -45.883774 -85.384010 619.796021
  endloop
 facet normal -0.017425 -0.059670 0.998066
  outer loop
   vertex -54.949177 -85.975189 618.403992
   vertex -54.949024 -86.120201 618.395325
   vertex -44.950539 -86.120201 618.569885
  endloop
 facet normal -0.009507 -0.838679 0.544544
  outer loop
   vertex -44.950539 -86.120201 618.569885
   vertex -54.949024 -86.120201 618.395325
   vertex -44.948936 -86.179901 618.477966
  endloop
 facet normal -0.014130 -0.586813 0.809599
  outer loop
   vertex -54.962605 -84.698372 619.173218
   vertex -44.964119 -84.698372 619.347717
   vertex -54.962971 -84.669312 619.194275
  endloop
 facet normal -0.014120 -0.587926 0.808791
  outer loop
   vertex -54.962971 -84.669312 619.194275
   vertex -44.964119 -84.698372 619.347717
   vertex -44.964485 -84.669312 619.368835
  endloop
 facet normal -0.014640 0.544595 0.838572
  outer loop
   vertex -44.964485 -84.669312 619.368835
   vertex -54.962299 -84.610085 619.155823
   vertex -54.962971 -84.669312 619.194275
  endloop
 facet normal -0.999848 -0.000007 -0.017444
  outer loop
   vertex -55.217838 -85.279404 619.641602
   vertex -55.214211 -85.395828 619.433716
   vertex -55.217690 -85.384010 619.633118
  endloop
 facet normal -0.999848 0.000033 -0.017446
  outer loop
   vertex -55.217690 -85.384010 619.633118
   vertex -55.214211 -85.395828 619.433716
   vertex -55.215366 -85.470589 619.499817
  endloop
 facet normal -0.009496 -0.838674 0.544550
  outer loop
   vertex -55.215366 -85.470589 619.499817
   vertex -54.059151 -85.384010 619.653320
   vertex -55.217690 -85.384010 619.633118
  endloop
 facet normal 0.999848 -0.000006 0.017451
  outer loop
   vertex -44.701042 -86.185150 618.430237
   vertex -44.704372 -86.042603 618.621094
   vertex -44.702770 -86.219955 618.529236
  endloop
 facet normal 0.999848 -0.000011 0.017461
  outer loop
   vertex -44.702770 -86.219955 618.529236
   vertex -44.704372 -86.042603 618.621094
   vertex -44.705097 -86.133377 618.662537
  endloop
 facet normal -0.009525 -0.838674 0.544550
  outer loop
   vertex -44.705097 -86.133377 618.662537
   vertex -45.861309 -86.219955 618.508972
   vertex -44.702770 -86.219955 618.529236
  endloop
 facet normal 0.999847 -0.000020 0.017467
  outer loop
   vertex -54.039013 -86.133377 618.499573
   vertex -54.036686 -86.219955 618.366272
   vertex -54.038288 -86.042595 618.458191
  endloop
 facet normal 0.999848 -0.000011 0.017449
  outer loop
   vertex -54.038288 -86.042595 618.458191
   vertex -54.036686 -86.219955 618.366272
   vertex -54.034958 -86.185150 618.267273
  endloop
 facet normal 0.999848 -0.000005 0.017444
  outer loop
   vertex -54.034958 -86.185150 618.267273
   vertex -54.026958 -85.479301 617.808960
   vertex -54.038288 -86.042595 618.458191
  endloop
 facet normal 0.014623 -0.544638 -0.838543
  outer loop
   vertex -55.185497 -85.479301 617.788757
   vertex -54.026958 -85.479301 617.808960
   vertex -54.034958 -86.185150 618.267273
  endloop
 facet normal -0.017425 -0.059670 0.998066
  outer loop
   vertex -44.950539 -86.120201 618.569885
   vertex -44.950691 -85.975189 618.578552
   vertex -54.949177 -85.975189 618.403992
  endloop
 facet normal -0.009507 -0.838666 0.544563
  outer loop
   vertex -54.949177 -85.975189 618.403992
   vertex -44.950691 -85.975189 618.578552
   vertex -44.967937 -85.333481 619.566528
  endloop
 facet normal -0.009504 -0.838679 0.544544
  outer loop
   vertex -44.967937 -85.333481 619.566528
   vertex -54.966423 -85.333473 619.392029
   vertex -54.949177 -85.975189 618.403992
  endloop
 facet normal 0.006132 -0.936209 -0.351391
  outer loop
   vertex -54.968796 -85.384529 619.528015
   vertex -54.966423 -85.333473 619.392029
   vertex -44.967937 -85.333481 619.566528
  endloop
 facet normal -0.014623 0.544638 0.838543
  outer loop
   vertex -44.717384 -84.573555 619.366394
   vertex -45.875923 -84.573555 619.346191
   vertex -45.883923 -85.279404 619.804504
  endloop
 facet normal -0.999848 -0.000001 -0.017453
  outer loop
   vertex -45.883923 -85.279404 619.804504
   vertex -45.875923 -84.573555 619.346191
   vertex -45.880295 -85.395828 619.596680
  endloop
 facet normal -0.999848 -0.000007 -0.017449
  outer loop
   vertex -45.880295 -85.395828 619.596680
   vertex -45.883774 -85.384010 619.796021
   vertex -45.883923 -85.279404 619.804504
  endloop
 facet normal -0.999848 -0.000007 -0.017449
  outer loop
   vertex -45.881447 -85.470589 619.662720
   vertex -45.883774 -85.384010 619.796021
   vertex -45.880295 -85.395828 619.596680
  endloop
 facet normal 0.003619 0.978260 -0.207350
  outer loop
   vertex -44.969952 -85.212921 619.681824
   vertex -54.968433 -85.212921 619.507324
   vertex -44.970562 -85.205467 619.716980
  endloop
 facet normal 0.003626 0.978187 -0.207695
  outer loop
   vertex -44.970562 -85.205467 619.716980
   vertex -54.968433 -85.212921 619.507324
   vertex -54.969048 -85.205467 619.542419
  endloop
 facet normal -0.014643 0.544397 0.838700
  outer loop
   vertex -54.969048 -85.205467 619.542419
   vertex -44.971916 -85.324829 619.794434
   vertex -44.970562 -85.205467 619.716980
  endloop
 facet normal -0.014634 0.544698 0.838504
  outer loop
   vertex -54.970402 -85.324829 619.619934
   vertex -44.971916 -85.324829 619.794434
   vertex -54.969048 -85.205467 619.542419
  endloop
 facet normal -0.009504 -0.838679 0.544544
  outer loop
   vertex -54.968796 -85.384529 619.528015
   vertex -44.971916 -85.324829 619.794434
   vertex -54.970402 -85.324829 619.619934
  endloop
 facet normal -0.009500 -0.838677 0.544546
  outer loop
   vertex -43.308369 -84.429047 618.970337
   vertex -44.939957 -85.036278 618.006653
   vertex -43.292049 -85.036278 618.035400
  endloop
 facet normal 0.014628 -0.544634 -0.838546
  outer loop
   vertex -43.292049 -85.036278 618.035400
   vertex -44.939957 -85.036278 618.006653
   vertex -43.277397 -83.743851 617.196228
  endloop
 facet normal 0.999848 -0.000001 0.017457
  outer loop
   vertex -43.277397 -83.743851 617.196228
   vertex -43.293720 -83.136612 618.131165
   vertex -43.292049 -85.036278 618.035400
  endloop
 facet normal 0.009500 0.838674 -0.544551
  outer loop
   vertex -44.925308 -83.743851 617.167480
   vertex -43.293720 -83.136612 618.131165
   vertex -43.277397 -83.743851 617.196228
  endloop
 facet normal 0.009500 0.838674 -0.544551
  outer loop
   vertex -44.941628 -83.136612 618.102417
   vertex -43.293720 -83.136612 618.131165
   vertex -44.925308 -83.743851 617.167480
  endloop
 facet normal -0.999848 0.000000 -0.017453
  outer loop
   vertex -44.925308 -83.743851 617.167480
   vertex -44.939957 -85.036278 618.006653
   vertex -44.941628 -83.136612 618.102417
  endloop
 facet normal -0.999848 0.000000 -0.017453
  outer loop
   vertex -44.941628 -83.136612 618.102417
   vertex -44.939957 -85.036278 618.006653
   vertex -44.956276 -84.429047 618.941589
  endloop
 facet normal -0.009500 -0.838677 0.544546
  outer loop
   vertex -44.956276 -84.429047 618.941589
   vertex -44.939957 -85.036278 618.006653
   vertex -43.308369 -84.429047 618.970337
  endloop
 facet normal -0.014628 0.544631 0.838548
  outer loop
   vertex -43.308369 -84.429047 618.970337
   vertex -43.293720 -83.136612 618.131165
   vertex -44.956276 -84.429047 618.941589
  endloop
 facet normal 0.999848 -0.000000 0.017453
  outer loop
   vertex -43.292049 -85.036278 618.035400
   vertex -43.293720 -83.136612 618.131165
   vertex -43.308369 -84.429047 618.970337
  endloop
 facet normal -0.014628 0.544659 0.838530
  outer loop
   vertex -56.604172 -84.429047 618.738281
   vertex -54.956264 -84.429047 618.767029
   vertex -56.589523 -83.136612 617.899048
  endloop
 facet normal -0.014659 0.544631 0.838547
  outer loop
   vertex -56.589523 -83.136612 617.899048
   vertex -54.956264 -84.429047 618.767029
   vertex -54.941612 -83.136612 617.927856
  endloop
 facet normal 0.009520 0.838661 -0.544571
  outer loop
   vertex -54.941612 -83.136612 617.927856
   vertex -56.573204 -83.743843 616.964172
   vertex -56.589523 -83.136612 617.899048
  endloop
 facet normal 0.009500 0.838677 -0.544546
  outer loop
   vertex -54.925293 -83.743843 616.992920
   vertex -56.573204 -83.743843 616.964172
   vertex -54.941612 -83.136612 617.927856
  endloop
 facet normal 0.014628 -0.544631 -0.838548
  outer loop
   vertex -54.939945 -85.036278 617.832092
   vertex -56.573204 -83.743843 616.964172
   vertex -54.925293 -83.743843 616.992920
  endloop
 facet normal 0.999848 -0.000002 0.017454
  outer loop
   vertex -54.925293 -83.743843 616.992920
   vertex -54.956264 -84.429047 618.767029
   vertex -54.939945 -85.036278 617.832092
  endloop
 facet normal -0.009500 -0.838677 0.544546
  outer loop
   vertex -54.939945 -85.036278 617.832092
   vertex -54.956264 -84.429047 618.767029
   vertex -56.587852 -85.036278 617.803345
  endloop
 facet normal -0.009500 -0.838677 0.544546
  outer loop
   vertex -56.587852 -85.036278 617.803345
   vertex -54.956264 -84.429047 618.767029
   vertex -56.604172 -84.429047 618.738281
  endloop
 facet normal -0.999848 0.000000 -0.017453
  outer loop
   vertex -56.604172 -84.429047 618.738281
   vertex -56.573204 -83.743843 616.964172
   vertex -56.587852 -85.036278 617.803345
  endloop
 facet normal -0.999848 -0.000001 -0.017453
  outer loop
   vertex -56.589523 -83.136612 617.899048
   vertex -56.573204 -83.743843 616.964172
   vertex -56.604172 -84.429047 618.738281
  endloop
 facet normal 0.009497 0.838698 -0.544515
  outer loop
   vertex -41.851395 -84.353043 617.983459
   vertex -42.201340 -84.353043 617.977356
   vertex -42.208660 -84.080727 618.396667
  endloop
 facet normal -0.009479 -0.838698 0.544515
  outer loop
   vertex -42.208660 -84.080727 618.396667
   vertex -42.201340 -84.353043 617.977356
   vertex -42.030025 -84.216881 618.190063
  endloop
 facet normal -0.009497 -0.838705 0.544504
  outer loop
   vertex -42.030025 -84.216881 618.190063
   vertex -41.858711 -84.080727 618.402771
   vertex -42.208660 -84.080727 618.396667
  endloop
 facet normal -0.009515 -0.838698 0.544514
  outer loop
   vertex -41.851395 -84.353043 617.983459
   vertex -41.858711 -84.080727 618.402771
   vertex -42.030025 -84.216881 618.190063
  endloop
 facet normal 0.999848 -0.000004 0.017449
  outer loop
   vertex -41.849205 -83.242050 617.858215
   vertex -41.858711 -84.080727 618.402771
   vertex -41.851395 -84.353043 617.983459
  endloop
 facet normal 0.999848 -0.000004 0.017449
  outer loop
   vertex -41.851395 -84.353043 617.983459
   vertex -41.841888 -83.514374 617.438904
   vertex -41.849205 -83.242050 617.858215
  endloop
 facet normal 0.009503 0.838691 -0.544525
  outer loop
   vertex -41.849205 -83.242050 617.858215
   vertex -41.841888 -83.514374 617.438904
   vertex -43.548946 -83.242050 617.828552
  endloop
 facet normal 0.009503 0.838691 -0.544525
  outer loop
   vertex -43.548946 -83.242050 617.828552
   vertex -41.841888 -83.514374 617.438904
   vertex -43.541630 -83.514374 617.409241
  endloop
 facet normal -0.999848 0.000004 -0.017449
  outer loop
   vertex -43.541630 -83.514374 617.409241
   vertex -43.551136 -84.353043 617.953796
   vertex -43.548946 -83.242050 617.828552
  endloop
 facet normal 0.014674 -0.544640 -0.838542
  outer loop
   vertex -43.131832 -84.143372 617.824951
   vertex -43.551136 -84.353043 617.953796
   vertex -43.541630 -83.514374 617.409241
  endloop
 facet normal 0.014626 -0.544571 -0.838587
  outer loop
   vertex -43.201187 -84.353043 617.959900
   vertex -43.551136 -84.353043 617.953796
   vertex -43.131832 -84.143372 617.824951
  endloop
 facet normal -0.014667 0.544636 0.838544
  outer loop
   vertex -56.747940 -83.871056 618.006653
   vertex -56.333393 -84.080727 618.150085
   vertex -56.323887 -83.242050 617.605530
  endloop
 facet normal 0.999848 -0.000004 0.017449
  outer loop
   vertex -56.323887 -83.242050 617.605530
   vertex -56.333393 -84.080727 618.150085
   vertex -56.316570 -83.514374 617.186218
  endloop
 facet normal 0.009503 0.838691 -0.544525
  outer loop
   vertex -56.316570 -83.514374 617.186218
   vertex -58.023628 -83.242050 617.575867
   vertex -56.323887 -83.242050 617.605530
  endloop
 facet normal 0.009503 0.838691 -0.544525
  outer loop
   vertex -58.016312 -83.514374 617.156555
   vertex -58.023628 -83.242050 617.575867
   vertex -56.316570 -83.514374 617.186218
  endloop
 facet normal -0.999848 0.000004 -0.017449
  outer loop
   vertex -58.033134 -84.080727 618.120422
   vertex -58.023628 -83.242050 617.575867
   vertex -58.016312 -83.514374 617.156555
  endloop
 facet normal -0.999848 0.000004 -0.017449
  outer loop
   vertex -58.016312 -83.514374 617.156555
   vertex -58.025818 -84.353043 617.701111
   vertex -58.033134 -84.080727 618.120422
  endloop
 facet normal -0.009479 -0.838698 0.544515
  outer loop
   vertex -58.033134 -84.080727 618.120422
   vertex -58.025818 -84.353043 617.701111
   vertex -57.854504 -84.216881 617.913818
  endloop
 facet normal -0.009497 -0.838691 0.544525
  outer loop
   vertex -57.854504 -84.216881 617.913818
   vertex -58.025818 -84.353043 617.701111
   vertex -57.675869 -84.353043 617.707214
  endloop
 facet normal -0.009515 -0.838698 0.544514
  outer loop
   vertex -57.675869 -84.353043 617.707214
   vertex -57.683189 -84.080727 618.126526
   vertex -57.854504 -84.216881 617.913818
  endloop
 facet normal 0.009497 0.838698 -0.544515
  outer loop
   vertex -58.033134 -84.080727 618.120422
   vertex -57.683189 -84.080727 618.126526
   vertex -57.675869 -84.353043 617.707214
  endloop
 facet normal -0.009497 -0.838705 0.544504
  outer loop
   vertex -57.854504 -84.216881 617.913818
   vertex -57.683189 -84.080727 618.126526
   vertex -58.033134 -84.080727 618.120422
  endloop
 facet normal -0.009507 -0.838679 0.544543
  outer loop
   vertex -54.949024 -86.120201 618.395325
   vertex -54.947418 -86.179901 618.303406
   vertex -44.948936 -86.179901 618.477966
  endloop
 facet normal 0.014643 -0.544396 -0.838700
  outer loop
   vertex -44.948936 -86.179901 618.477966
   vertex -54.947418 -86.179901 618.303406
   vertex -54.946068 -86.060539 618.225952
  endloop
 facet normal 0.014634 -0.544698 -0.838504
  outer loop
   vertex -54.946068 -86.060539 618.225952
   vertex -44.947582 -86.060539 618.400452
   vertex -44.948936 -86.179901 618.477966
  endloop
 facet normal 0.014130 0.586813 -0.809599
  outer loop
   vertex -54.946434 -86.031479 618.247009
   vertex -44.947582 -86.060539 618.400452
   vertex -54.946068 -86.060539 618.225952
  endloop
 facet normal 0.014120 0.587928 -0.808790
  outer loop
   vertex -44.947952 -86.031479 618.421570
   vertex -44.947582 -86.060539 618.400452
   vertex -54.946434 -86.031479 618.247009
  endloop
 facet normal 0.014640 -0.544645 -0.838539
  outer loop
   vertex -54.946434 -86.031479 618.247009
   vertex -54.940601 -85.516930 617.912903
   vertex -44.947952 -86.031479 618.421570
  endloop
 facet normal 0.014640 -0.544645 -0.838539
  outer loop
   vertex -44.947952 -86.031479 618.421570
   vertex -54.940601 -85.516930 617.912903
   vertex -44.942120 -85.516930 618.087463
  endloop
 facet normal -0.003626 -0.978187 0.207695
  outer loop
   vertex -44.942120 -85.516930 618.087463
   vertex -54.940601 -85.516930 617.912903
   vertex -54.939991 -85.524384 617.877808
  endloop
 facet normal -0.003619 -0.978260 0.207350
  outer loop
   vertex -54.939991 -85.524384 617.877808
   vertex -44.941505 -85.524384 618.052307
   vertex -44.942120 -85.516930 618.087463
  endloop
 facet normal 0.014635 -0.544595 -0.838572
  outer loop
   vertex -54.939320 -85.465157 617.839355
   vertex -44.941505 -85.524384 618.052307
   vertex -54.939991 -85.524384 617.877808
  endloop
 facet normal 0.014635 -0.544595 -0.838572
  outer loop
   vertex -44.940834 -85.465157 618.013855
   vertex -44.941505 -85.524384 618.052307
   vertex -54.939320 -85.465157 617.839355
  endloop
 facet normal 0.009504 0.838665 -0.544564
  outer loop
   vertex -54.939320 -85.465157 617.839355
   vertex -54.962299 -84.610085 619.155823
   vertex -44.940834 -85.465157 618.013855
  endloop
 facet normal 0.009507 0.838677 -0.544546
  outer loop
   vertex -44.940834 -85.465157 618.013855
   vertex -54.962299 -84.610085 619.155823
   vertex -44.963814 -84.610085 619.330383
  endloop
 facet normal -0.014640 0.544595 0.838572
  outer loop
   vertex -44.963814 -84.610085 619.330383
   vertex -54.962299 -84.610085 619.155823
   vertex -44.964485 -84.669312 619.368835
  endloop
 facet normal -0.014642 0.544593 0.838573
  outer loop
   vertex -43.139153 -83.871056 618.244202
   vertex -43.548946 -83.242050 617.828552
   vertex -43.558453 -84.080727 618.373047
  endloop
 facet normal -0.999848 0.000003 -0.017451
  outer loop
   vertex -43.558453 -84.080727 618.373047
   vertex -43.548946 -83.242050 617.828552
   vertex -43.551136 -84.353043 617.953796
  endloop
 facet normal -0.009593 -0.838661 0.544569
  outer loop
   vertex -43.551136 -84.353043 617.953796
   vertex -43.208508 -84.080727 618.379211
   vertex -43.558453 -84.080727 618.373047
  endloop
 facet normal -0.009497 -0.838698 0.544515
  outer loop
   vertex -43.201187 -84.353043 617.959900
   vertex -43.208508 -84.080727 618.379211
   vertex -43.551136 -84.353043 617.953796
  endloop
 facet normal 0.009497 0.838698 -0.544515
  outer loop
   vertex -43.551136 -84.353043 617.953796
   vertex -43.208508 -84.080727 618.379211
   vertex -43.201187 -84.353043 617.959900
  endloop
 facet normal 0.014625 -0.544695 -0.838507
  outer loop
   vertex -43.201187 -84.353043 617.959900
   vertex -43.136589 -84.562714 618.097229
   vertex -43.551136 -84.353043 617.953796
  endloop
 facet normal 0.014622 -0.544698 -0.838505
  outer loop
   vertex -43.551136 -84.353043 617.953796
   vertex -43.136589 -84.562714 618.097229
   vertex -43.441315 -84.709480 618.187256
  endloop
 facet normal 0.014583 -0.544642 -0.838542
  outer loop
   vertex -43.441315 -84.709480 618.187256
   vertex -43.136589 -84.562714 618.097229
   vertex -42.955341 -84.716202 618.200073
  endloop
 facet normal 0.014585 -0.544578 -0.838583
  outer loop
   vertex -42.955341 -84.716202 618.200073
   vertex -43.133198 -84.970406 618.362061
   vertex -43.441315 -84.709480 618.187256
  endloop
 facet normal 0.014631 -0.544601 -0.838568
  outer loop
   vertex -42.706017 -84.772377 618.240906
   vertex -43.133198 -84.970406 618.362061
   vertex -42.955341 -84.716202 618.200073
  endloop
 facet normal 0.014681 -0.544677 -0.838517
  outer loop
   vertex -42.709343 -85.065910 618.431519
   vertex -43.133198 -84.970406 618.362061
   vertex -42.706017 -84.772377 618.240906
  endloop
 facet normal 0.014674 -0.544677 -0.838517
  outer loop
   vertex -42.706017 -84.772377 618.240906
   vertex -42.455418 -84.716202 618.208801
   vertex -42.709343 -85.065910 618.431519
  endloop
 facet normal 0.014570 -0.544625 -0.838553
  outer loop
   vertex -42.709343 -85.065910 618.431519
   vertex -42.455418 -84.716202 618.208801
   vertex -42.283325 -84.970406 618.376892
  endloop
 facet normal 0.014694 -0.544565 -0.838590
  outer loop
   vertex -42.283325 -84.970406 618.376892
   vertex -42.455418 -84.716202 618.208801
   vertex -42.270695 -84.562714 618.112366
  endloop
 facet normal 0.014686 -0.544565 -0.838590
  outer loop
   vertex -42.270695 -84.562714 618.112366
   vertex -41.969296 -84.709480 618.212952
   vertex -42.283325 -84.970406 618.376892
  endloop
 facet normal 0.014570 -0.544730 -0.838485
  outer loop
   vertex -42.201340 -84.353043 617.977356
   vertex -41.969296 -84.709480 618.212952
   vertex -42.270695 -84.562714 618.112366
  endloop
 facet normal 0.014625 -0.544705 -0.838500
  outer loop
   vertex -41.851395 -84.353043 617.983459
   vertex -41.969296 -84.709480 618.212952
   vertex -42.201340 -84.353043 617.977356
  endloop
 facet normal 0.014626 -0.544537 -0.838609
  outer loop
   vertex -42.201340 -84.353043 617.977356
   vertex -42.265942 -84.143379 617.840088
   vertex -41.851395 -84.353043 617.983459
  endloop
 facet normal 0.014552 -0.544640 -0.838544
  outer loop
   vertex -41.851395 -84.353043 617.983459
   vertex -42.265942 -84.143379 617.840088
   vertex -41.841888 -83.514374 617.438904
  endloop
 facet normal 0.014752 -0.544734 -0.838479
  outer loop
   vertex -41.841888 -83.514374 617.438904
   vertex -42.265942 -84.143379 617.840088
   vertex -42.447186 -83.989891 617.737183
  endloop
 facet normal 0.014612 -0.544607 -0.838564
  outer loop
   vertex -42.447186 -83.989891 617.737183
   vertex -42.696510 -83.933708 617.696350
   vertex -41.841888 -83.514374 617.438904
  endloop
 facet normal 0.014542 -0.544640 -0.838544
  outer loop
   vertex -56.740623 -84.143372 617.587402
   vertex -56.316570 -83.514374 617.186218
   vertex -56.326077 -84.353043 617.730774
  endloop
 facet normal 0.999848 -0.000004 0.017449
  outer loop
   vertex -56.326077 -84.353043 617.730774
   vertex -56.316570 -83.514374 617.186218
   vertex -56.333393 -84.080727 618.150085
  endloop
 facet normal -0.009497 -0.838698 0.544515
  outer loop
   vertex -56.333393 -84.080727 618.150085
   vertex -56.676022 -84.353043 617.724670
   vertex -56.326077 -84.353043 617.730774
  endloop
 facet normal -0.009497 -0.838698 0.544515
  outer loop
   vertex -56.683342 -84.080727 618.143982
   vertex -56.676022 -84.353043 617.724670
   vertex -56.333393 -84.080727 618.150085
  endloop
 facet normal 0.009497 0.838698 -0.544515
  outer loop
   vertex -56.333393 -84.080727 618.150085
   vertex -56.676022 -84.353043 617.724670
   vertex -56.683342 -84.080727 618.143982
  endloop
 facet normal -0.014626 0.544584 0.838578
  outer loop
   vertex -56.683342 -84.080727 618.143982
   vertex -56.752693 -84.290390 618.278931
   vertex -56.333393 -84.080727 618.150085
  endloop
 facet normal -0.014649 0.544618 0.838556
  outer loop
   vertex -56.333393 -84.080727 618.150085
   vertex -56.752693 -84.290390 618.278931
   vertex -56.451294 -84.437157 618.379517
  endloop
 facet normal -0.014585 0.544709 0.838498
  outer loop
   vertex -56.451294 -84.437157 618.379517
   vertex -56.752693 -84.290390 618.278931
   vertex -56.937420 -84.443878 618.375427
  endloop
 facet normal -0.014584 0.544607 0.838565
  outer loop
   vertex -56.937420 -84.443878 618.375427
   vertex -56.765327 -84.698090 618.543518
   vertex -56.451294 -84.437157 618.379517
  endloop
 facet normal -0.014658 0.544571 0.838586
  outer loop
   vertex -57.188019 -84.500061 618.407532
   vertex -56.765327 -84.698090 618.543518
   vertex -56.937420 -84.443878 618.375427
  endloop
 facet normal -0.014669 0.544555 0.838597
  outer loop
   vertex -57.191345 -84.793594 618.598083
   vertex -56.765327 -84.698090 618.543518
   vertex -57.188019 -84.500061 618.407532
  endloop
 facet normal -0.014629 0.544555 0.838598
  outer loop
   vertex -57.188019 -84.500061 618.407532
   vertex -57.437344 -84.443878 618.366699
   vertex -57.191345 -84.793594 618.598083
  endloop
 facet normal -0.014595 0.544572 0.838587
  outer loop
   vertex -57.191345 -84.793594 618.598083
   vertex -57.437344 -84.443878 618.366699
   vertex -57.615196 -84.698090 618.528687
  endloop
 facet normal -0.014817 0.544680 0.838513
  outer loop
   vertex -57.615196 -84.698090 618.528687
   vertex -57.437344 -84.443878 618.366699
   vertex -57.618587 -84.290390 618.263794
  endloop
 facet normal -0.014611 0.544683 0.838515
  outer loop
   vertex -57.618587 -84.290390 618.263794
   vertex -57.923313 -84.437157 618.353821
   vertex -57.615196 -84.698090 618.528687
  endloop
 facet normal -0.014527 0.544559 0.838597
  outer loop
   vertex -57.683189 -84.080727 618.126526
   vertex -57.923313 -84.437157 618.353821
   vertex -57.618587 -84.290390 618.263794
  endloop
 facet normal -0.014626 0.544605 0.838565
  outer loop
   vertex -58.033134 -84.080727 618.120422
   vertex -57.923313 -84.437157 618.353821
   vertex -57.683189 -84.080727 618.126526
  endloop
 facet normal -0.014624 0.544742 0.838476
  outer loop
   vertex -57.683189 -84.080727 618.126526
   vertex -57.613834 -83.871056 617.991516
   vertex -58.033134 -84.080727 618.120422
  endloop
 facet normal -0.014549 0.544636 0.838546
  outer loop
   vertex -58.033134 -84.080727 618.120422
   vertex -57.613834 -83.871056 617.991516
   vertex -58.023628 -83.242050 617.575867
  endloop
 facet normal -0.014697 0.544567 0.838588
  outer loop
   vertex -58.023628 -83.242050 617.575867
   vertex -57.613834 -83.871056 617.991516
   vertex -57.429111 -83.717567 617.895081
  endloop
 facet normal -0.014665 0.544596 0.838570
  outer loop
   vertex -57.429111 -83.717567 617.895081
   vertex -57.178513 -83.661385 617.862976
   vertex -58.023628 -83.242050 617.575867
  endloop
 facet normal 0.017343 -0.102993 -0.994531
  outer loop
   vertex -55.185497 -85.479301 617.788757
   vertex -55.184505 -84.930428 617.731934
   vertex -54.026958 -85.479301 617.808960
  endloop
 facet normal 0.017395 -0.102884 -0.994541
  outer loop
   vertex -54.026958 -85.479301 617.808960
   vertex -55.184505 -84.930428 617.731934
   vertex -54.025967 -84.930428 617.752197
  endloop
 facet normal 0.999848 -0.000001 0.017456
  outer loop
   vertex -54.025967 -84.930428 617.752197
   vertex -54.042953 -84.298416 618.725220
   vertex -54.026958 -85.479301 617.808960
  endloop
 facet normal 0.009525 0.838660 -0.544572
  outer loop
   vertex -55.184505 -84.930428 617.731934
   vertex -54.042953 -84.298416 618.725220
   vertex -54.025967 -84.930428 617.752197
  endloop
 facet normal 0.009496 0.838676 -0.544549
  outer loop
   vertex -55.201492 -84.298416 618.705017
   vertex -54.042953 -84.298416 618.725220
   vertex -55.184505 -84.930428 617.731934
  endloop
 facet normal -0.999848 -0.000004 -0.017451
  outer loop
   vertex -55.184505 -84.930428 617.731934
   vertex -55.209839 -84.573555 619.183289
   vertex -55.201492 -84.298416 618.705017
  endloop
 facet normal -0.008693 0.866835 0.498519
  outer loop
   vertex -55.201492 -84.298416 618.705017
   vertex -55.209839 -84.573555 619.183289
   vertex -54.042953 -84.298416 618.725220
  endloop
 facet normal -0.008693 0.866835 0.498519
  outer loop
   vertex -54.042953 -84.298416 618.725220
   vertex -55.209839 -84.573555 619.183289
   vertex -54.051300 -84.573555 619.203491
  endloop
 facet normal 0.999848 0.000003 0.017451
  outer loop
   vertex -54.051300 -84.573555 619.203491
   vertex -54.026958 -85.479301 617.808960
   vertex -54.042953 -84.298416 618.725220
  endloop
 facet normal 0.999848 0.000001 0.017452
  outer loop
   vertex -54.055672 -85.395828 619.453979
   vertex -54.026958 -85.479301 617.808960
   vertex -54.051300 -84.573555 619.203491
  endloop
 facet normal 0.999848 0.000004 0.017452
  outer loop
   vertex -54.038288 -86.042595 618.458191
   vertex -54.026958 -85.479301 617.808960
   vertex -54.055672 -85.395828 619.453979
  endloop
 facet normal -0.009525 -0.838672 0.544553
  outer loop
   vertex -54.055672 -85.395828 619.453979
   vertex -55.196827 -86.042595 618.437927
   vertex -54.038288 -86.042595 618.458191
  endloop
 facet normal -0.015912 0.414829 0.909760
  outer loop
   vertex -54.038288 -86.042595 618.458191
   vertex -55.196827 -86.042595 618.437927
   vertex -54.039013 -86.133377 618.499573
  endloop
 facet normal -0.015860 0.415335 0.909530
  outer loop
   vertex -54.039013 -86.133377 618.499573
   vertex -55.196827 -86.042595 618.437927
   vertex -55.197552 -86.133377 618.479370
  endloop
 facet normal -0.009496 -0.838674 0.544550
  outer loop
   vertex -55.197552 -86.133377 618.479370
   vertex -54.036686 -86.219955 618.366272
   vertex -54.039013 -86.133377 618.499573
  endloop
 facet normal -0.009496 -0.838674 0.544550
  outer loop
   vertex -55.195225 -86.219955 618.346069
   vertex -54.036686 -86.219955 618.366272
   vertex -55.197552 -86.133377 618.479370
  endloop
 facet normal 0.005782 -0.943411 -0.331576
  outer loop
   vertex -55.193497 -86.185150 618.247070
   vertex -54.036686 -86.219955 618.366272
   vertex -55.195225 -86.219955 618.346069
  endloop
 facet normal -0.999848 0.000006 -0.017451
  outer loop
   vertex -55.195225 -86.219955 618.346069
   vertex -55.196827 -86.042595 618.437927
   vertex -55.193497 -86.185150 618.247070
  endloop
 facet normal -0.999848 0.000002 -0.017448
  outer loop
   vertex -55.193497 -86.185150 618.247070
   vertex -55.196827 -86.042595 618.437927
   vertex -55.185497 -85.479301 617.788757
  endloop
 facet normal -0.999848 -0.000003 -0.017452
  outer loop
   vertex -55.185497 -85.479301 617.788757
   vertex -55.196827 -86.042595 618.437927
   vertex -55.214211 -85.395828 619.433716
  endloop
 facet normal -0.999848 0.000000 -0.017453
  outer loop
   vertex -55.214211 -85.395828 619.433716
   vertex -55.209839 -84.573555 619.183289
   vertex -55.185497 -85.479301 617.788757
  endloop
 facet normal -0.999848 0.000002 -0.017449
  outer loop
   vertex -55.217838 -85.279404 619.641602
   vertex -55.209839 -84.573555 619.183289
   vertex -55.214211 -85.395828 619.433716
  endloop
 facet normal -0.014623 0.544638 0.838543
  outer loop
   vertex -54.051300 -84.573555 619.203491
   vertex -55.209839 -84.573555 619.183289
   vertex -55.217838 -85.279404 619.641602
  endloop
 facet normal -0.014623 0.544638 0.838543
  outer loop
   vertex -55.217838 -85.279404 619.641602
   vertex -54.059299 -85.279404 619.661804
   vertex -54.051300 -84.573555 619.203491
  endloop
 facet normal 0.999848 0.000001 0.017453
  outer loop
   vertex -54.051300 -84.573555 619.203491
   vertex -54.059299 -85.279404 619.661804
   vertex -54.055672 -85.395828 619.453979
  endloop
 facet normal 0.999848 0.000007 0.017449
  outer loop
   vertex -54.055672 -85.395828 619.453979
   vertex -54.059299 -85.279404 619.661804
   vertex -54.059151 -85.384010 619.653320
  endloop
 facet normal 0.999848 -0.000042 0.017452
  outer loop
   vertex -54.059151 -85.384010 619.653320
   vertex -54.056828 -85.470589 619.520020
   vertex -54.055672 -85.395828 619.453979
  endloop
 facet normal -0.009496 -0.838674 0.544550
  outer loop
   vertex -55.215366 -85.470589 619.499817
   vertex -54.056828 -85.470589 619.520020
   vertex -54.059151 -85.384010 619.653320
  endloop
 facet normal 0.013066 -0.662101 -0.749301
  outer loop
   vertex -54.055672 -85.395828 619.453979
   vertex -54.056828 -85.470589 619.520020
   vertex -55.215366 -85.470589 619.499817
  endloop
 facet normal 0.013100 -0.662444 -0.748997
  outer loop
   vertex -55.215366 -85.470589 619.499817
   vertex -55.214211 -85.395828 619.433716
   vertex -54.055672 -85.395828 619.453979
  endloop
 facet normal -0.009525 -0.838672 0.544553
  outer loop
   vertex -54.055672 -85.395828 619.453979
   vertex -55.214211 -85.395828 619.433716
   vertex -55.196827 -86.042595 618.437927
  endloop
 facet normal -0.008694 0.866808 0.498567
  outer loop
   vertex -44.717384 -84.573555 619.366394
   vertex -44.709034 -84.298416 618.888184
   vertex -45.875923 -84.573555 619.346191
  endloop
 facet normal -0.008694 0.866808 0.498567
  outer loop
   vertex -45.875923 -84.573555 619.346191
   vertex -44.709034 -84.298416 618.888184
   vertex -45.867573 -84.298416 618.867981
  endloop
 facet normal -0.999848 0.000007 -0.017455
  outer loop
   vertex -45.867573 -84.298416 618.867981
   vertex -45.850590 -84.930428 617.894897
   vertex -45.875923 -84.573555 619.346191
  endloop
 facet normal 0.009496 0.838676 -0.544549
  outer loop
   vertex -44.709034 -84.298416 618.888184
   vertex -45.850590 -84.930428 617.894897
   vertex -45.867573 -84.298416 618.867981
  endloop
 facet normal 0.009496 0.838676 -0.544549
  outer loop
   vertex -44.692051 -84.930428 617.915100
   vertex -45.850590 -84.930428 617.894897
   vertex -44.709034 -84.298416 618.888184
  endloop
 facet normal 0.999848 -0.000000 0.017450
  outer loop
   vertex -44.709034 -84.298416 618.888184
   vertex -44.693043 -85.479301 617.971924
   vertex -44.692051 -84.930428 617.915100
  endloop
 facet normal 0.017343 -0.102993 -0.994531
  outer loop
   vertex -44.692051 -84.930428 617.915100
   vertex -44.693043 -85.479301 617.971924
   vertex -45.850590 -84.930428 617.894897
  endloop
 facet normal 0.017395 -0.102884 -0.994541
  outer loop
   vertex -45.850590 -84.930428 617.894897
   vertex -44.693043 -85.479301 617.971924
   vertex -45.851582 -85.479301 617.951660
  endloop
 facet normal -0.999848 0.000002 -0.017454
  outer loop
   vertex -45.851582 -85.479301 617.951660
   vertex -45.875923 -84.573555 619.346191
   vertex -45.850590 -84.930428 617.894897
  endloop
 facet normal -0.999848 -0.000003 -0.017451
  outer loop
   vertex -45.862911 -86.042595 618.600891
   vertex -45.875923 -84.573555 619.346191
   vertex -45.851582 -85.479301 617.951660
  endloop
 facet normal -0.999848 -0.000001 -0.017454
  outer loop
   vertex -45.880295 -85.395828 619.596680
   vertex -45.875923 -84.573555 619.346191
   vertex -45.862911 -86.042595 618.600891
  endloop
 facet normal -0.009496 -0.838672 0.544554
  outer loop
   vertex -45.862911 -86.042595 618.600891
   vertex -44.721756 -85.395828 619.616882
   vertex -45.880295 -85.395828 619.596680
  endloop
 facet normal 0.013066 -0.662101 -0.749301
  outer loop
   vertex -45.880295 -85.395828 619.596680
   vertex -44.721756 -85.395828 619.616882
   vertex -45.881447 -85.470589 619.662720
  endloop
 facet normal 0.013100 -0.662444 -0.748997
  outer loop
   vertex -45.881447 -85.470589 619.662720
   vertex -44.721756 -85.395828 619.616882
   vertex -44.722908 -85.470589 619.682983
  endloop
 facet normal -0.009525 -0.838674 0.544550
  outer loop
   vertex -44.722908 -85.470589 619.682983
   vertex -45.883774 -85.384010 619.796021
   vertex -45.881447 -85.470589 619.662720
  endloop
 facet normal -0.009525 -0.838674 0.544550
  outer loop
   vertex -44.725235 -85.384010 619.816284
   vertex -45.883774 -85.384010 619.796021
   vertex -44.722908 -85.470589 619.682983
  endloop
 facet normal -0.017432 -0.080272 0.996621
  outer loop
   vertex -44.725384 -85.279404 619.824707
   vertex -45.883774 -85.384010 619.796021
   vertex -44.725235 -85.384010 619.816284
  endloop
 facet normal 0.999848 0.000017 0.017444
  outer loop
   vertex -44.725235 -85.384010 619.816284
   vertex -44.721756 -85.395828 619.616882
   vertex -44.725384 -85.279404 619.824707
  endloop
 facet normal 0.999848 0.000001 0.017453
  outer loop
   vertex -44.725384 -85.279404 619.824707
   vertex -44.721756 -85.395828 619.616882
   vertex -44.717384 -84.573555 619.366394
  endloop
 facet normal 0.999848 0.000001 0.017454
  outer loop
   vertex -44.717384 -84.573555 619.366394
   vertex -44.721756 -85.395828 619.616882
   vertex -44.704372 -86.042603 618.621094
  endloop
 facet normal 0.999848 0.000002 0.017452
  outer loop
   vertex -44.704372 -86.042603 618.621094
   vertex -44.693043 -85.479301 617.971924
   vertex -44.717384 -84.573555 619.366394
  endloop
 facet normal 0.999848 -0.000002 0.017448
  outer loop
   vertex -44.701042 -86.185150 618.430237
   vertex -44.693043 -85.479301 617.971924
   vertex -44.704372 -86.042603 618.621094
  endloop
 facet normal 0.014667 -0.544638 -0.838543
  outer loop
   vertex -45.851582 -85.479301 617.951660
   vertex -44.693043 -85.479301 617.971924
   vertex -44.701042 -86.185150 618.430237
  endloop
 facet normal 0.014667 -0.544638 -0.838543
  outer loop
   vertex -44.701042 -86.185150 618.430237
   vertex -45.859581 -86.185150 618.409973
   vertex -45.851582 -85.479301 617.951660
  endloop
 facet normal -0.999848 0.000005 -0.017444
  outer loop
   vertex -45.851582 -85.479301 617.951660
   vertex -45.859581 -86.185150 618.409973
   vertex -45.862911 -86.042595 618.600891
  endloop
 facet normal -0.999848 0.000011 -0.017449
  outer loop
   vertex -45.862911 -86.042595 618.600891
   vertex -45.859581 -86.185150 618.409973
   vertex -45.861309 -86.219955 618.508972
  endloop
 facet normal -0.999847 0.000020 -0.017467
  outer loop
   vertex -45.861309 -86.219955 618.508972
   vertex -45.863636 -86.133377 618.642273
   vertex -45.862911 -86.042595 618.600891
  endloop
 facet normal -0.009525 -0.838674 0.544550
  outer loop
   vertex -44.705097 -86.133377 618.662537
   vertex -45.863636 -86.133377 618.642273
   vertex -45.861309 -86.219955 618.508972
  endloop
 facet normal -0.015912 0.414829 0.909760
  outer loop
   vertex -45.862911 -86.042595 618.600891
   vertex -45.863636 -86.133377 618.642273
   vertex -44.705097 -86.133377 618.662537
  endloop
 facet normal -0.015857 0.415364 0.909517
  outer loop
   vertex -44.705097 -86.133377 618.662537
   vertex -44.704372 -86.042603 618.621094
   vertex -45.862911 -86.042595 618.600891
  endloop
 facet normal -0.009502 -0.838669 0.544558
  outer loop
   vertex -45.862911 -86.042595 618.600891
   vertex -44.704372 -86.042603 618.621094
   vertex -44.721756 -85.395828 619.616882
  endloop
 facet normal 0.014624 -0.544742 -0.838476
  outer loop
   vertex -56.676022 -84.353043 617.724670
   vertex -56.326077 -84.353043 617.730774
   vertex -56.745377 -84.562714 617.859680
  endloop
 facet normal 0.014593 -0.544698 -0.838505
  outer loop
   vertex -56.745377 -84.562714 617.859680
   vertex -56.326077 -84.353043 617.730774
   vertex -56.443977 -84.709480 617.960266
  endloop
 facet normal 0.014681 -0.544573 -0.838585
  outer loop
   vertex -56.443977 -84.709480 617.960266
   vertex -56.930099 -84.716194 617.956116
   vertex -56.745377 -84.562714 617.859680
  endloop
 facet normal 0.014682 -0.544700 -0.838502
  outer loop
   vertex -56.758007 -84.970406 618.124268
   vertex -56.930099 -84.716194 617.956116
   vertex -56.443977 -84.709480 617.960266
  endloop
 facet normal 0.014695 -0.544694 -0.838506
  outer loop
   vertex -57.180698 -84.772377 617.988220
   vertex -56.930099 -84.716194 617.956116
   vertex -56.758007 -84.970406 618.124268
  endloop
 facet normal 0.014707 -0.544677 -0.838517
  outer loop
   vertex -56.758007 -84.970406 618.124268
   vertex -57.184025 -85.065910 618.178833
   vertex -57.180698 -84.772377 617.988220
  endloop
 facet normal 0.014589 -0.544677 -0.838519
  outer loop
   vertex -57.180698 -84.772377 617.988220
   vertex -57.184025 -85.065910 618.178833
   vertex -57.430023 -84.716194 617.947388
  endloop
 facet normal 0.014555 -0.544694 -0.838508
  outer loop
   vertex -57.430023 -84.716194 617.947388
   vertex -57.184025 -85.065910 618.178833
   vertex -57.607880 -84.970406 618.109436
  endloop
 facet normal 0.014547 -0.544691 -0.838511
  outer loop
   vertex -57.607880 -84.970406 618.109436
   vertex -57.611271 -84.562714 617.844543
   vertex -57.430023 -84.716194 617.947388
  endloop
 facet normal 0.014616 -0.544690 -0.838510
  outer loop
   vertex -57.915997 -84.709480 617.934570
   vertex -57.611271 -84.562714 617.844543
   vertex -57.607880 -84.970406 618.109436
  endloop
 facet normal 0.014620 -0.544696 -0.838506
  outer loop
   vertex -57.675869 -84.353043 617.707214
   vertex -57.611271 -84.562714 617.844543
   vertex -57.915997 -84.709480 617.934570
  endloop
 facet normal 0.014625 -0.544698 -0.838505
  outer loop
   vertex -57.915997 -84.709480 617.934570
   vertex -58.025818 -84.353043 617.701111
   vertex -57.675869 -84.353043 617.707214
  endloop
 facet normal 0.014626 -0.544570 -0.838588
  outer loop
   vertex -57.675869 -84.353043 617.707214
   vertex -58.025818 -84.353043 617.701111
   vertex -57.606518 -84.143372 617.572266
  endloop
 facet normal 0.014675 -0.544640 -0.838542
  outer loop
   vertex -57.606518 -84.143372 617.572266
   vertex -58.025818 -84.353043 617.701111
   vertex -58.016312 -83.514374 617.156555
  endloop
 facet normal 0.014744 -0.544607 -0.838562
  outer loop
   vertex -58.016312 -83.514374 617.156555
   vertex -57.421791 -83.989883 617.475830
   vertex -57.606518 -84.143372 617.572266
  endloop
 facet normal 0.014511 -0.544812 -0.838432
  outer loop
   vertex -57.171192 -83.933708 617.443665
   vertex -57.421791 -83.989883 617.475830
   vertex -58.016312 -83.514374 617.156555
  endloop
 facet normal -0.014773 0.544504 0.838628
  outer loop
   vertex -43.208508 -84.080727 618.379211
   vertex -43.558453 -84.080727 618.373047
   vertex -43.143906 -84.290390 618.516479
  endloop
 facet normal -0.014627 0.544706 0.838500
  outer loop
   vertex -43.143906 -84.290390 618.516479
   vertex -43.558453 -84.080727 618.373047
   vertex -43.448631 -84.437157 618.606506
  endloop
 facet normal -0.014583 0.544642 0.838542
  outer loop
   vertex -43.448631 -84.437157 618.606506
   vertex -42.962662 -84.443878 618.619324
   vertex -43.143906 -84.290390 618.516479
  endloop
 facet normal -0.014581 0.544707 0.838500
  outer loop
   vertex -43.140514 -84.698090 618.781372
   vertex -42.962662 -84.443878 618.619324
   vertex -43.448631 -84.437157 618.606506
  endloop
 facet normal -0.014755 0.544792 0.838441
  outer loop
   vertex -42.713337 -84.500061 618.660217
   vertex -42.962662 -84.443878 618.619324
   vertex -43.140514 -84.698090 618.781372
  endloop
 facet normal -0.014601 0.544555 0.838598
  outer loop
   vertex -43.140514 -84.698090 618.781372
   vertex -42.716663 -84.793594 618.850769
   vertex -42.713337 -84.500061 618.660217
  endloop
 facet normal -0.014448 0.544555 0.838601
  outer loop
   vertex -42.713337 -84.500061 618.660217
   vertex -42.716663 -84.793594 618.850769
   vertex -42.462738 -84.443878 618.628052
  endloop
 facet normal -0.014710 0.544687 0.838510
  outer loop
   vertex -42.462738 -84.443878 618.628052
   vertex -42.716663 -84.793594 618.850769
   vertex -42.290646 -84.698090 618.796204
  endloop
 facet normal -0.014792 0.544648 0.838535
  outer loop
   vertex -42.290646 -84.698090 618.796204
   vertex -42.278011 -84.290390 618.531616
   vertex -42.462738 -84.443878 618.628052
  endloop
 facet normal -0.014630 0.544645 0.838539
  outer loop
   vertex -41.976612 -84.437157 618.632202
   vertex -42.278011 -84.290390 618.531616
   vertex -42.290646 -84.698090 618.796204
  endloop
 facet normal -0.014666 0.544594 0.838572
  outer loop
   vertex -42.208660 -84.080727 618.396667
   vertex -42.278011 -84.290390 618.531616
   vertex -41.976612 -84.437157 618.632202
  endloop
 facet normal -0.014625 0.544612 0.838560
  outer loop
   vertex -41.976612 -84.437157 618.632202
   vertex -41.858711 -84.080727 618.402771
   vertex -42.208660 -84.080727 618.396667
  endloop
 facet normal -0.014625 0.544695 0.838507
  outer loop
   vertex -42.208660 -84.080727 618.396667
   vertex -41.858711 -84.080727 618.402771
   vertex -42.273258 -83.871056 618.259338
  endloop
 facet normal -0.014667 0.544636 0.838544
  outer loop
   vertex -42.273258 -83.871056 618.259338
   vertex -41.858711 -84.080727 618.402771
   vertex -41.849205 -83.242050 617.858215
  endloop
 facet normal -0.014618 0.544613 0.838560
  outer loop
   vertex -41.849205 -83.242050 617.858215
   vertex -42.454506 -83.717567 618.156494
   vertex -42.273258 -83.871056 618.259338
  endloop
 facet normal -0.014612 0.544608 0.838564
  outer loop
   vertex -42.703831 -83.661385 618.115662
   vertex -42.454506 -83.717567 618.156494
   vertex -41.849205 -83.242050 617.858215
  endloop
 facet normal -0.014634 0.544640 0.838543
  outer loop
   vertex -58.023628 -83.242050 617.575867
   vertex -57.178513 -83.661385 617.862976
   vertex -56.323887 -83.242050 617.605530
  endloop
 facet normal -0.014612 0.544608 0.838564
  outer loop
   vertex -56.323887 -83.242050 617.605530
   vertex -57.178513 -83.661385 617.862976
   vertex -56.929188 -83.717567 617.903809
  endloop
 facet normal -0.014618 0.544613 0.838560
  outer loop
   vertex -56.929188 -83.717567 617.903809
   vertex -56.747940 -83.871056 618.006653
   vertex -56.323887 -83.242050 617.605530
  endloop
 facet normal -0.014697 0.544567 0.838588
  outer loop
   vertex -43.139153 -83.871056 618.244202
   vertex -42.954430 -83.717567 618.147766
   vertex -43.548946 -83.242050 617.828552
  endloop
 facet normal -0.014665 0.544596 0.838570
  outer loop
   vertex -43.548946 -83.242050 617.828552
   vertex -42.954430 -83.717567 618.147766
   vertex -42.703831 -83.661385 618.115662
  endloop
 facet normal -0.014634 0.544640 0.838543
  outer loop
   vertex -42.703831 -83.661385 618.115662
   vertex -41.849205 -83.242050 617.858215
   vertex -43.548946 -83.242050 617.828552
  endloop
 facet normal 0.014634 -0.544640 -0.838543
  outer loop
   vertex -41.841888 -83.514374 617.438904
   vertex -42.696510 -83.933708 617.696350
   vertex -43.541630 -83.514374 617.409241
  endloop
 facet normal 0.014665 -0.544596 -0.838571
  outer loop
   vertex -43.541630 -83.514374 617.409241
   vertex -42.696510 -83.933708 617.696350
   vertex -42.947109 -83.989891 617.728455
  endloop
 facet normal 0.014549 -0.544698 -0.838506
  outer loop
   vertex -42.947109 -83.989891 617.728455
   vertex -43.131832 -84.143372 617.824951
   vertex -43.541630 -83.514374 617.409241
  endloop
 facet normal 0.014570 -0.544653 -0.838535
  outer loop
   vertex -56.740623 -84.143372 617.587402
   vertex -56.921867 -83.989883 617.484558
   vertex -56.316570 -83.514374 617.186218
  endloop
 facet normal 0.014761 -0.544824 -0.838420
  outer loop
   vertex -56.316570 -83.514374 617.186218
   vertex -56.921867 -83.989883 617.484558
   vertex -57.171192 -83.933708 617.443665
  endloop
 facet normal 0.014634 -0.544640 -0.838543
  outer loop
   vertex -57.171192 -83.933708 617.443665
   vertex -58.016312 -83.514374 617.156555
   vertex -56.316570 -83.514374 617.186218
  endloop
 facet normal 0.005799 -0.943411 -0.331576
  outer loop
   vertex -44.701042 -86.185150 618.430237
   vertex -44.702770 -86.219955 618.529236
   vertex -45.859581 -86.185150 618.409973
  endloop
 facet normal 0.005799 -0.943411 -0.331576
  outer loop
   vertex -45.859581 -86.185150 618.409973
   vertex -44.702770 -86.219955 618.529236
   vertex -45.861309 -86.219955 618.508972
  endloop
 facet normal -0.014635 0.544645 0.838539
  outer loop
   vertex -54.962605 -84.698372 619.173218
   vertex -54.968433 -85.212921 619.507324
   vertex -44.964119 -84.698372 619.347717
  endloop
 facet normal -0.014635 0.544645 0.838539
  outer loop
   vertex -44.964119 -84.698372 619.347717
   vertex -54.968433 -85.212921 619.507324
   vertex -44.969952 -85.212921 619.681824
  endloop
 facet normal -0.017378 -0.080850 0.996575
  outer loop
   vertex -54.059151 -85.384010 619.653320
   vertex -54.059299 -85.279404 619.661804
   vertex -55.217690 -85.384010 619.633118
  endloop
 facet normal -0.017378 -0.080850 0.996575
  outer loop
   vertex -55.217690 -85.384010 619.633118
   vertex -54.059299 -85.279404 619.661804
   vertex -55.217838 -85.279404 619.641602
  endloop
 facet normal -0.009497 -0.838691 0.544525
  outer loop
   vertex -42.201340 -84.353043 617.977356
   vertex -41.851395 -84.353043 617.983459
   vertex -42.030025 -84.216881 618.190063
  endloop
 facet normal 0.999848 -0.000005 0.017456
  outer loop
   vertex -44.717384 -84.573555 619.366394
   vertex -44.693043 -85.479301 617.971924
   vertex -44.709034 -84.298416 618.888184
  endloop
 facet normal -0.014770 0.544775 0.838452
  outer loop
   vertex -43.558453 -84.080727 618.373047
   vertex -43.208508 -84.080727 618.379211
   vertex -43.139153 -83.871056 618.244202
  endloop
 facet normal -0.014625 0.544695 0.838507
  outer loop
   vertex -56.683342 -84.080727 618.143982
   vertex -56.333393 -84.080727 618.150085
   vertex -56.747940 -83.871056 618.006653
  endloop
 facet normal 0.009497 0.838698 -0.544515
  outer loop
   vertex -41.851395 -84.353043 617.983459
   vertex -42.208660 -84.080727 618.396667
   vertex -41.858711 -84.080727 618.402771
  endloop
 facet normal 0.014628 -0.544631 -0.838548
  outer loop
   vertex -54.939945 -85.036278 617.832092
   vertex -56.587852 -85.036278 617.803345
   vertex -56.573204 -83.743843 616.964172
  endloop
 facet normal -0.014628 0.544631 0.838548
  outer loop
   vertex -44.941628 -83.136612 618.102417
   vertex -44.956276 -84.429047 618.941589
   vertex -43.293720 -83.136612 618.131165
  endloop
 facet normal 0.009497 0.838698 -0.544515
  outer loop
   vertex -58.033134 -84.080727 618.120422
   vertex -57.675869 -84.353043 617.707214
   vertex -58.025818 -84.353043 617.701111
  endloop
 facet normal -0.999848 0.000011 -0.017461
  outer loop
   vertex -55.195225 -86.219955 618.346069
   vertex -55.197552 -86.133377 618.479370
   vertex -55.196827 -86.042595 618.437927
  endloop
 facet normal 0.009593 0.838661 -0.544569
  outer loop
   vertex -43.208508 -84.080727 618.379211
   vertex -43.551136 -84.353043 617.953796
   vertex -43.558453 -84.080727 618.373047
  endloop
 facet normal -0.999848 -0.000000 -0.017452
  outer loop
   vertex -55.185497 -85.479301 617.788757
   vertex -55.209839 -84.573555 619.183289
   vertex -55.184505 -84.930428 617.731934
  endloop
 facet normal 0.999848 0.000016 0.017444
  outer loop
   vertex -44.725235 -85.384010 619.816284
   vertex -44.722908 -85.470589 619.682983
   vertex -44.721756 -85.395828 619.616882
  endloop
 facet normal 0.014628 -0.544634 -0.838546
  outer loop
   vertex -44.939957 -85.036278 618.006653
   vertex -44.925308 -83.743851 617.167480
   vertex -43.277397 -83.743851 617.196228
  endloop
 facet normal 0.999848 -0.000002 0.017454
  outer loop
   vertex -54.925293 -83.743843 616.992920
   vertex -54.941612 -83.136612 617.927856
   vertex -54.956264 -84.429047 618.767029
  endloop
 facet normal 0.009497 0.838698 -0.544515
  outer loop
   vertex -56.676022 -84.353043 617.724670
   vertex -56.333393 -84.080727 618.150085
   vertex -56.326077 -84.353043 617.730774
  endloop
 facet normal 0.014627 -0.544523 -0.838619
  outer loop
   vertex -56.326077 -84.353043 617.730774
   vertex -56.676022 -84.353043 617.724670
   vertex -56.740623 -84.143372 617.587402
  endloop
 facet normal -0.713706 -0.593037 0.372734
  outer loop
   vertex -56.921867 -83.989883 617.484558
   vertex -56.747940 -83.871056 618.006653
   vertex -56.929188 -83.717567 617.903809
  endloop
 facet normal -0.268048 -0.810066 0.521482
  outer loop
   vertex -56.921867 -83.989883 617.484558
   vertex -56.929188 -83.717567 617.903809
   vertex -57.171192 -83.933708 617.443665
  endloop
 facet normal -0.267951 -0.810115 0.521455
  outer loop
   vertex -57.171192 -83.933708 617.443665
   vertex -56.929188 -83.717567 617.903809
   vertex -57.178513 -83.661385 617.862976
  endloop
 facet normal 0.249683 -0.810094 0.530478
  outer loop
   vertex -57.178513 -83.661385 617.862976
   vertex -57.421791 -83.989883 617.475830
   vertex -57.171192 -83.933708 617.443665
  endloop
 facet normal 0.249584 -0.810087 0.530534
  outer loop
   vertex -57.429111 -83.717567 617.895081
   vertex -57.421791 -83.989883 617.475830
   vertex -57.178513 -83.661385 617.862976
  endloop
 facet normal 0.700240 -0.593052 0.397432
  outer loop
   vertex -57.606518 -84.143372 617.572266
   vertex -57.421791 -83.989883 617.475830
   vertex -57.429111 -83.717567 617.895081
  endloop
 facet normal 0.700248 -0.593049 0.397424
  outer loop
   vertex -57.429111 -83.717567 617.895081
   vertex -57.613834 -83.871056 617.991516
   vertex -57.606518 -84.143372 617.572266
  endloop
 facet normal 0.963318 -0.217065 0.157801
  outer loop
   vertex -57.606518 -84.143372 617.572266
   vertex -57.613834 -83.871056 617.991516
   vertex -57.675869 -84.353043 617.707214
  endloop
 facet normal -0.968232 -0.217094 0.124085
  outer loop
   vertex -42.201340 -84.353043 617.977356
   vertex -42.208660 -84.080727 618.396667
   vertex -42.265942 -84.143379 617.840088
  endloop
 facet normal -0.968245 -0.217040 0.124080
  outer loop
   vertex -42.265942 -84.143379 617.840088
   vertex -42.208660 -84.080727 618.396667
   vertex -42.273258 -83.871056 618.259338
  endloop
 facet normal -0.713776 -0.592971 0.372707
  outer loop
   vertex -42.273258 -83.871056 618.259338
   vertex -42.447186 -83.989891 617.737183
   vertex -42.265942 -84.143379 617.840088
  endloop
 facet normal -0.713706 -0.593057 0.372703
  outer loop
   vertex -42.454506 -83.717567 618.156494
   vertex -42.447186 -83.989891 617.737183
   vertex -42.273258 -83.871056 618.259338
  endloop
 facet normal -0.267951 -0.810115 0.521455
  outer loop
   vertex -42.696510 -83.933708 617.696350
   vertex -42.447186 -83.989891 617.737183
   vertex -42.454506 -83.717567 618.156494
  endloop
 facet normal -0.267951 -0.810115 0.521455
  outer loop
   vertex -42.454506 -83.717567 618.156494
   vertex -42.703831 -83.661385 618.115662
   vertex -42.696510 -83.933708 617.696350
  endloop
 facet normal 0.249585 -0.810116 0.530490
  outer loop
   vertex -42.696510 -83.933708 617.696350
   vertex -42.703831 -83.661385 618.115662
   vertex -42.947109 -83.989891 617.728455
  endloop
 facet normal 0.249585 -0.810116 0.530490
  outer loop
   vertex -42.947109 -83.989891 617.728455
   vertex -42.703831 -83.661385 618.115662
   vertex -42.954430 -83.717567 618.147766
  endloop
 facet normal 0.700303 -0.593022 0.397367
  outer loop
   vertex -42.954430 -83.717567 618.147766
   vertex -43.131832 -84.143372 617.824951
   vertex -42.947109 -83.989891 617.728455
  endloop
 facet normal 0.963323 -0.217060 0.157776
  outer loop
   vertex -56.326077 -84.353043 617.730774
   vertex -56.333393 -84.080727 618.150085
   vertex -56.443977 -84.709480 617.960266
  endloop
 facet normal 0.963316 -0.217068 0.157808
  outer loop
   vertex -56.443977 -84.709480 617.960266
   vertex -56.333393 -84.080727 618.150085
   vertex -56.451294 -84.437157 618.379517
  endloop
 facet normal 0.700282 -0.593016 0.397414
  outer loop
   vertex -56.451294 -84.437157 618.379517
   vertex -56.758007 -84.970406 618.124268
   vertex -56.443977 -84.709480 617.960266
  endloop
 facet normal 0.700285 -0.593015 0.397409
  outer loop
   vertex -56.765327 -84.698090 618.543518
   vertex -56.758007 -84.970406 618.124268
   vertex -56.451294 -84.437157 618.379517
  endloop
 facet normal 0.249559 -0.810093 0.530537
  outer loop
   vertex -57.184025 -85.065910 618.178833
   vertex -56.758007 -84.970406 618.124268
   vertex -56.765327 -84.698090 618.543518
  endloop
 facet normal 0.249559 -0.810093 0.530537
  outer loop
   vertex -56.765327 -84.698090 618.543518
   vertex -57.191345 -84.793594 618.598083
   vertex -57.184025 -85.065910 618.178833
  endloop
 facet normal -0.267919 -0.810095 0.521503
  outer loop
   vertex -57.184025 -85.065910 618.178833
   vertex -57.191345 -84.793594 618.598083
   vertex -57.607880 -84.970406 618.109436
  endloop
 facet normal -0.267921 -0.810093 0.521505
  outer loop
   vertex -57.607880 -84.970406 618.109436
   vertex -57.191345 -84.793594 618.598083
   vertex -57.615196 -84.698090 618.528687
  endloop
 facet normal -0.713725 -0.593018 0.372728
  outer loop
   vertex -57.615196 -84.698090 618.528687
   vertex -57.915997 -84.709480 617.934570
   vertex -57.607880 -84.970406 618.109436
  endloop
 facet normal -0.713732 -0.593007 0.372731
  outer loop
   vertex -57.923313 -84.437157 618.353821
   vertex -57.915997 -84.709480 617.934570
   vertex -57.615196 -84.698090 618.528687
  endloop
 facet normal -0.968242 -0.217049 0.124087
  outer loop
   vertex -58.025818 -84.353043 617.701111
   vertex -57.915997 -84.709480 617.934570
   vertex -57.923313 -84.437157 618.353821
  endloop
 facet normal -0.968236 -0.217076 0.124082
  outer loop
   vertex -57.923313 -84.437157 618.353821
   vertex -58.033134 -84.080727 618.120422
   vertex -58.025818 -84.353043 617.701111
  endloop
 facet normal 0.963323 -0.217060 0.157776
  outer loop
   vertex -41.851395 -84.353043 617.983459
   vertex -41.858711 -84.080727 618.402771
   vertex -41.969296 -84.709480 618.212952
  endloop
 facet normal 0.963316 -0.217068 0.157808
  outer loop
   vertex -41.969296 -84.709480 618.212952
   vertex -41.858711 -84.080727 618.402771
   vertex -41.976612 -84.437157 618.632202
  endloop
 facet normal 0.700242 -0.593049 0.397434
  outer loop
   vertex -41.976612 -84.437157 618.632202
   vertex -42.283325 -84.970406 618.376892
   vertex -41.969296 -84.709480 618.212952
  endloop
 facet normal 0.700286 -0.593042 0.397368
  outer loop
   vertex -42.290646 -84.698090 618.796204
   vertex -42.283325 -84.970406 618.376892
   vertex -41.976612 -84.437157 618.632202
  endloop
 facet normal 0.249632 -0.810112 0.530474
  outer loop
   vertex -42.709343 -85.065910 618.431519
   vertex -42.283325 -84.970406 618.376892
   vertex -42.290646 -84.698090 618.796204
  endloop
 facet normal 0.249559 -0.810093 0.530537
  outer loop
   vertex -42.290646 -84.698090 618.796204
   vertex -42.716663 -84.793594 618.850769
   vertex -42.709343 -85.065910 618.431519
  endloop
 facet normal -0.267988 -0.810079 0.521492
  outer loop
   vertex -42.709343 -85.065910 618.431519
   vertex -42.716663 -84.793594 618.850769
   vertex -43.133198 -84.970406 618.362061
  endloop
 facet normal -0.267920 -0.810128 0.521451
  outer loop
   vertex -43.133198 -84.970406 618.362061
   vertex -42.716663 -84.793594 618.850769
   vertex -43.140514 -84.698090 618.781372
  endloop
 facet normal -0.713688 -0.593074 0.372710
  outer loop
   vertex -43.140514 -84.698090 618.781372
   vertex -43.441315 -84.709480 618.187256
   vertex -43.133198 -84.970406 618.362061
  endloop
 facet normal -0.713732 -0.593007 0.372731
  outer loop
   vertex -43.448631 -84.437157 618.606506
   vertex -43.441315 -84.709480 618.187256
   vertex -43.140514 -84.698090 618.781372
  endloop
 facet normal -0.968242 -0.217049 0.124087
  outer loop
   vertex -43.551136 -84.353043 617.953796
   vertex -43.441315 -84.709480 618.187256
   vertex -43.448631 -84.437157 618.606506
  endloop
 facet normal -0.968241 -0.217054 0.124086
  outer loop
   vertex -43.448631 -84.437157 618.606506
   vertex -43.558453 -84.080727 618.373047
   vertex -43.551136 -84.353043 617.953796
  endloop
 facet normal 0.700248 -0.593046 0.397428
  outer loop
   vertex -42.954430 -83.717567 618.147766
   vertex -43.139153 -83.871056 618.244202
   vertex -43.131832 -84.143372 617.824951
  endloop
 facet normal 0.963324 -0.217042 0.157796
  outer loop
   vertex -43.131832 -84.143372 617.824951
   vertex -43.139153 -83.871056 618.244202
   vertex -43.208508 -84.080727 618.379211
  endloop
 facet normal 0.963314 -0.217083 0.157799
  outer loop
   vertex -43.208508 -84.080727 618.379211
   vertex -43.201187 -84.353043 617.959900
   vertex -43.131832 -84.143372 617.824951
  endloop
 facet normal 0.968232 0.217094 -0.124085
  outer loop
   vertex -43.143906 -84.290390 618.516479
   vertex -43.201187 -84.353043 617.959900
   vertex -43.208508 -84.080727 618.379211
  endloop
 facet normal 0.968245 0.217040 -0.124080
  outer loop
   vertex -43.136589 -84.562714 618.097229
   vertex -43.201187 -84.353043 617.959900
   vertex -43.143906 -84.290390 618.516479
  endloop
 facet normal 0.713714 0.593023 -0.372742
  outer loop
   vertex -43.143906 -84.290390 618.516479
   vertex -42.962662 -84.443878 618.619324
   vertex -43.136589 -84.562714 618.097229
  endloop
 facet normal 0.713707 0.593032 -0.372741
  outer loop
   vertex -43.136589 -84.562714 618.097229
   vertex -42.962662 -84.443878 618.619324
   vertex -42.955341 -84.716202 618.200073
  endloop
 facet normal 0.268071 0.810054 -0.521489
  outer loop
   vertex -42.955341 -84.716202 618.200073
   vertex -42.962662 -84.443878 618.619324
   vertex -42.713337 -84.500061 618.660217
  endloop
 facet normal 0.267928 0.810127 -0.521448
  outer loop
   vertex -42.713337 -84.500061 618.660217
   vertex -42.706017 -84.772377 618.240906
   vertex -42.955341 -84.716202 618.200073
  endloop
 facet normal -0.249706 0.810095 -0.530464
  outer loop
   vertex -42.462738 -84.443878 618.628052
   vertex -42.706017 -84.772377 618.240906
   vertex -42.713337 -84.500061 618.660217
  endloop
 facet normal -0.249561 0.810086 -0.530548
  outer loop
   vertex -42.455418 -84.716202 618.208801
   vertex -42.706017 -84.772377 618.240906
   vertex -42.462738 -84.443878 618.628052
  endloop
 facet normal -0.700240 0.593047 -0.397440
  outer loop
   vertex -42.462738 -84.443878 618.628052
   vertex -42.278011 -84.290390 618.531616
   vertex -42.455418 -84.716202 618.208801
  endloop
 facet normal -0.700248 0.593044 -0.397432
  outer loop
   vertex -42.455418 -84.716202 618.208801
   vertex -42.278011 -84.290390 618.531616
   vertex -42.270695 -84.562714 618.112366
  endloop
 facet normal -0.963316 0.217068 -0.157808
  outer loop
   vertex -42.270695 -84.562714 618.112366
   vertex -42.278011 -84.290390 618.531616
   vertex -42.208660 -84.080727 618.396667
  endloop
 facet normal -0.963324 0.217052 -0.157780
  outer loop
   vertex -42.208660 -84.080727 618.396667
   vertex -42.201340 -84.353043 617.977356
   vertex -42.270695 -84.562714 618.112366
  endloop
 facet normal -0.713714 -0.593028 0.372734
  outer loop
   vertex -56.921867 -83.989883 617.484558
   vertex -56.740623 -84.143372 617.587402
   vertex -56.747940 -83.871056 618.006653
  endloop
 facet normal -0.968234 -0.217077 0.124101
  outer loop
   vertex -56.747940 -83.871056 618.006653
   vertex -56.740623 -84.143372 617.587402
   vertex -56.676022 -84.353043 617.724670
  endloop
 facet normal -0.968244 -0.217054 0.124059
  outer loop
   vertex -56.676022 -84.353043 617.724670
   vertex -56.683342 -84.080727 618.143982
   vertex -56.747940 -83.871056 618.006653
  endloop
 facet normal -0.963324 0.217052 -0.157780
  outer loop
   vertex -56.745377 -84.562714 617.859680
   vertex -56.683342 -84.080727 618.143982
   vertex -56.676022 -84.353043 617.724670
  endloop
 facet normal -0.963316 0.217068 -0.157808
  outer loop
   vertex -56.752693 -84.290390 618.278931
   vertex -56.683342 -84.080727 618.143982
   vertex -56.745377 -84.562714 617.859680
  endloop
 facet normal -0.700235 0.593055 -0.397438
  outer loop
   vertex -56.745377 -84.562714 617.859680
   vertex -56.930099 -84.716194 617.956116
   vertex -56.752693 -84.290390 618.278931
  endloop
 facet normal -0.700308 0.593023 -0.397357
  outer loop
   vertex -56.752693 -84.290390 618.278931
   vertex -56.930099 -84.716194 617.956116
   vertex -56.937420 -84.443878 618.375427
  endloop
 facet normal -0.249585 0.810122 -0.530480
  outer loop
   vertex -56.937420 -84.443878 618.375427
   vertex -56.930099 -84.716194 617.956116
   vertex -57.180698 -84.772377 617.988220
  endloop
 facet normal -0.249585 0.810122 -0.530480
  outer loop
   vertex -57.180698 -84.772377 617.988220
   vertex -57.188019 -84.500061 618.407532
   vertex -56.937420 -84.443878 618.375427
  endloop
 facet normal 0.267951 0.810122 -0.521444
  outer loop
   vertex -57.430023 -84.716194 617.947388
   vertex -57.188019 -84.500061 618.407532
   vertex -57.180698 -84.772377 617.988220
  endloop
 facet normal 0.267951 0.810122 -0.521444
  outer loop
   vertex -57.437344 -84.443878 618.366699
   vertex -57.188019 -84.500061 618.407532
   vertex -57.430023 -84.716194 617.947388
  endloop
 facet normal 0.713694 0.593072 -0.372703
  outer loop
   vertex -57.430023 -84.716194 617.947388
   vertex -57.611271 -84.562714 617.844543
   vertex -57.437344 -84.443878 618.366699
  endloop
 facet normal 0.713776 0.592971 -0.372707
  outer loop
   vertex -57.437344 -84.443878 618.366699
   vertex -57.611271 -84.562714 617.844543
   vertex -57.618587 -84.290390 618.263794
  endloop
 facet normal 0.968245 0.217040 -0.124080
  outer loop
   vertex -57.618587 -84.290390 618.263794
   vertex -57.611271 -84.562714 617.844543
   vertex -57.675869 -84.353043 617.707214
  endloop
 facet normal 0.968232 0.217094 -0.124085
  outer loop
   vertex -57.675869 -84.353043 617.707214
   vertex -57.683189 -84.080727 618.126526
   vertex -57.618587 -84.290390 618.263794
  endloop
 facet normal 0.963324 -0.217052 0.157780
  outer loop
   vertex -57.613834 -83.871056 617.991516
   vertex -57.683189 -84.080727 618.126526
   vertex -57.675869 -84.353043 617.707214
  endloop
endsolid