solid stl file generated from DOUG
 facet normal -0.014265 0.573653 0.818974
  outer loop
   vertex -80.652946 -95.115868 565.927124
   vertex -80.151855 -95.115868 565.935852
   vertex -80.650444 -94.910599 565.783386
  endloop
 facet normal -0.014265 0.573654 0.818974
  outer loop
   vertex -80.650444 -94.910599 565.783386
   vertex -80.151855 -95.115868 565.935852
   vertex -80.149345 -94.910599 565.792114
  endloop
 facet normal 0.001518 0.996196 -0.087131
  outer loop
   vertex -80.149345 -94.910599 565.792114
   vertex -80.646088 -94.932434 565.533813
   vertex -80.650444 -94.910599 565.783386
  endloop
 facet normal 0.001518 0.996196 -0.087131
  outer loop
   vertex -80.144989 -94.932434 565.542542
   vertex -80.646088 -94.932434 565.533813
   vertex -80.149345 -94.910599 565.792114
  endloop
 facet normal 0.015783 0.422645 -0.906158
  outer loop
   vertex -80.644234 -95.159546 565.427917
   vertex -80.646088 -94.932434 565.533813
   vertex -80.144989 -94.932434 565.542542
  endloop
 facet normal 0.015784 0.422645 -0.906158
  outer loop
   vertex -80.144989 -94.932434 565.542542
   vertex -80.143143 -95.159546 565.436646
   vertex -80.644234 -95.159546 565.427917
  endloop
 facet normal 0.014267 -0.573490 -0.819088
  outer loop
   vertex -80.644234 -95.159546 565.427917
   vertex -80.143143 -95.159546 565.436646
   vertex -80.646744 -95.364815 565.571594
  endloop
 facet normal 0.014364 -0.573653 -0.818972
  outer loop
   vertex -80.646744 -95.364815 565.571594
   vertex -80.143143 -95.159546 565.436646
   vertex -80.145645 -95.364815 565.580383
  endloop
 facet normal -0.001528 -0.996195 0.087140
  outer loop
   vertex -80.145645 -95.364815 565.580383
   vertex -80.651100 -95.342972 565.821228
   vertex -80.646744 -95.364815 565.571594
  endloop
 facet normal -0.001518 -0.996193 0.087162
  outer loop
   vertex -80.150002 -95.342972 565.829956
   vertex -80.651100 -95.342972 565.821228
   vertex -80.145645 -95.364815 565.580383
  endloop
 facet normal -0.015783 -0.422657 0.906153
  outer loop
   vertex -80.652946 -95.115868 565.927124
   vertex -80.651100 -95.342972 565.821228
   vertex -80.150002 -95.342972 565.829956
  endloop
 facet normal -0.015783 -0.422657 0.906152
  outer loop
   vertex -80.150002 -95.342972 565.829956
   vertex -80.151855 -95.115868 565.935852
   vertex -80.652946 -95.115868 565.927124
  endloop
 facet normal 0.015783 0.422657 -0.906153
  outer loop
   vertex -80.527313 -93.233833 587.444519
   vertex -81.028412 -93.233833 587.435791
   vertex -80.529160 -93.006729 587.550415
  endloop
 facet normal 0.015783 0.422657 -0.906153
  outer loop
   vertex -80.529160 -93.006729 587.550415
   vertex -81.028412 -93.233833 587.435791
   vertex -81.030258 -93.006729 587.541687
  endloop
 facet normal 0.001518 0.996193 -0.087162
  outer loop
   vertex -81.030258 -93.006729 587.541687
   vertex -80.533516 -92.984886 587.799988
   vertex -80.529160 -93.006729 587.550415
  endloop
 facet normal 0.001518 0.996193 -0.087162
  outer loop
   vertex -81.034615 -92.984886 587.791260
   vertex -80.533516 -92.984886 587.799988
   vertex -81.030258 -93.006729 587.541687
  endloop
 facet normal -0.014265 0.573654 0.818974
  outer loop
   vertex -80.536026 -93.190155 587.943726
   vertex -80.533516 -92.984886 587.799988
   vertex -81.034615 -92.984886 587.791260
  endloop
 facet normal -0.014265 0.573654 0.818974
  outer loop
   vertex -81.034615 -92.984886 587.791260
   vertex -81.037125 -93.190155 587.934998
   vertex -80.536026 -93.190155 587.943726
  endloop
 facet normal -0.015783 -0.422645 0.906158
  outer loop
   vertex -80.536026 -93.190155 587.943726
   vertex -81.037125 -93.190155 587.934998
   vertex -80.534180 -93.417267 587.837830
  endloop
 facet normal -0.015783 -0.422645 0.906158
  outer loop
   vertex -80.534180 -93.417267 587.837830
   vertex -81.037125 -93.190155 587.934998
   vertex -81.035278 -93.417267 587.829102
  endloop
 facet normal -0.001518 -0.996196 0.087131
  outer loop
   vertex -81.035278 -93.417267 587.829102
   vertex -80.529823 -93.439102 587.588257
   vertex -80.534180 -93.417267 587.837830
  endloop
 facet normal -0.001528 -0.996198 0.087110
  outer loop
   vertex -81.030922 -93.439102 587.579468
   vertex -80.529823 -93.439102 587.588257
   vertex -81.035278 -93.417267 587.829102
  endloop
 facet normal 0.014364 -0.573654 -0.818972
  outer loop
   vertex -80.527313 -93.233833 587.444519
   vertex -80.529823 -93.439102 587.588257
   vertex -81.030922 -93.439102 587.579468
  endloop
 facet normal 0.014267 -0.573490 -0.819088
  outer loop
   vertex -81.030922 -93.439102 587.579468
   vertex -81.028412 -93.233833 587.435791
   vertex -80.527313 -93.233833 587.444519
  endloop
 facet normal -0.999848 0.000010 -0.017454
  outer loop
   vertex -81.034615 -92.984886 587.791260
   vertex -81.030258 -93.006729 587.541687
   vertex -81.032768 -93.211998 587.685364
  endloop
 facet normal -0.999848 0.000010 -0.017454
  outer loop
   vertex -81.032768 -93.211998 587.685364
   vertex -81.030258 -93.006729 587.541687
   vertex -81.028412 -93.233833 587.435791
  endloop
 facet normal -0.999848 0.000010 -0.017454
  outer loop
   vertex -81.028412 -93.233833 587.435791
   vertex -81.030922 -93.439102 587.579468
   vertex -81.032768 -93.211998 587.685364
  endloop
 facet normal -0.999848 0.000008 -0.017449
  outer loop
   vertex -80.651100 -95.342972 565.821228
   vertex -80.652946 -95.115868 565.927124
   vertex -80.648590 -95.137703 565.677490
  endloop
 facet normal -0.999848 -0.000027 -0.017446
  outer loop
   vertex -80.648590 -95.137703 565.677490
   vertex -80.652946 -95.115868 565.927124
   vertex -80.650444 -94.910599 565.783386
  endloop
 facet normal -0.999848 -0.000025 -0.017451
  outer loop
   vertex -80.650444 -94.910599 565.783386
   vertex -80.646088 -94.932434 565.533813
   vertex -80.648590 -95.137703 565.677490
  endloop
 facet normal -0.999848 -0.000025 -0.017451
  outer loop
   vertex -80.646088 -94.932434 565.533813
   vertex -80.644234 -95.159546 565.427917
   vertex -80.648590 -95.137703 565.677490
  endloop
 facet normal -0.999848 0.000010 -0.017454
  outer loop
   vertex -80.648590 -95.137703 565.677490
   vertex -80.644234 -95.159546 565.427917
   vertex -80.646744 -95.364815 565.571594
  endloop
 facet normal -0.999848 0.000008 -0.017449
  outer loop
   vertex -80.646744 -95.364815 565.571594
   vertex -80.651100 -95.342972 565.821228
   vertex -80.648590 -95.137703 565.677490
  endloop
 facet normal -0.999848 0.000008 -0.017449
  outer loop
   vertex -81.030922 -93.439102 587.579468
   vertex -81.035278 -93.417267 587.829102
   vertex -81.032768 -93.211998 587.685364
  endloop
 facet normal -0.999848 0.000008 -0.017449
  outer loop
   vertex -81.032768 -93.211998 587.685364
   vertex -81.035278 -93.417267 587.829102
   vertex -81.037125 -93.190155 587.934998
  endloop
 facet normal -0.999848 0.000008 -0.017449
  outer loop
   vertex -81.037125 -93.190155 587.934998
   vertex -81.034615 -92.984886 587.791260
   vertex -81.032768 -93.211998 587.685364
  endloop
 facet normal -0.999848 -0.000002 -0.017453
  outer loop
   vertex -78.640396 -95.633476 567.218323
   vertex -78.638496 -94.388031 567.109375
   vertex -78.588387 -95.894188 564.238770
  endloop
 facet normal -0.999848 -0.000002 -0.017453
  outer loop
   vertex -78.588387 -95.894188 564.238770
   vertex -78.638496 -94.388031 567.109375
   vertex -78.586487 -94.648750 564.129822
  endloop
 facet normal 0.017384 -0.087158 -0.996043
  outer loop
   vertex -78.586487 -94.648750 564.129822
   vertex -77.200012 -95.894188 564.263000
   vertex -78.588387 -95.894188 564.238770
  endloop
 facet normal 0.017384 -0.087158 -0.996043
  outer loop
   vertex -77.198112 -94.648750 564.154053
   vertex -77.200012 -95.894188 564.263000
   vertex -78.586487 -94.648750 564.129822
  endloop
 facet normal 0.999848 0.000002 0.017453
  outer loop
   vertex -77.250122 -94.388031 567.133606
   vertex -77.200012 -95.894188 564.263000
   vertex -77.198112 -94.648750 564.154053
  endloop
 facet normal 0.001521 0.996195 -0.087143
  outer loop
   vertex -77.198112 -94.648750 564.154053
   vertex -78.638496 -94.388031 567.109375
   vertex -77.250122 -94.388031 567.133606
  endloop
 facet normal -0.017384 0.087157 0.996043
  outer loop
   vertex -77.250122 -94.388031 567.133606
   vertex -78.638496 -94.388031 567.109375
   vertex -77.252029 -95.633476 567.242554
  endloop
 facet normal -0.017384 0.087157 0.996043
  outer loop
   vertex -77.252029 -95.633476 567.242554
   vertex -78.638496 -94.388031 567.109375
   vertex -78.640396 -95.633476 567.218323
  endloop
 facet normal -0.001521 -0.996195 0.087141
  outer loop
   vertex -78.640396 -95.633476 567.218323
   vertex -77.200012 -95.894188 564.263000
   vertex -77.252029 -95.633476 567.242554
  endloop
 facet normal -0.001521 -0.996195 0.087141
  outer loop
   vertex -78.588387 -95.894188 564.238770
   vertex -77.200012 -95.894188 564.263000
   vertex -78.640396 -95.633476 567.218323
  endloop
 facet normal -0.017384 0.087158 0.996043
  outer loop
   vertex -77.637558 -93.700951 589.328308
   vertex -77.635658 -92.455513 589.219360
   vertex -79.025932 -93.700951 589.304077
  endloop
 facet normal -0.017384 0.087158 0.996043
  outer loop
   vertex -79.025932 -93.700951 589.304077
   vertex -77.635658 -92.455513 589.219360
   vertex -79.024033 -92.455513 589.195129
  endloop
 facet normal -0.999848 -0.000002 -0.017453
  outer loop
   vertex -79.024033 -92.455513 589.195129
   vertex -78.973923 -93.961670 586.324524
   vertex -79.025932 -93.700951 589.304077
  endloop
 facet normal -0.999848 -0.000002 -0.017453
  outer loop
   vertex -78.972023 -92.716225 586.215576
   vertex -78.973923 -93.961670 586.324524
   vertex -79.024033 -92.455513 589.195129
  endloop
 facet normal 0.017384 -0.087157 -0.996043
  outer loop
   vertex -77.583649 -92.716225 586.239807
   vertex -78.973923 -93.961670 586.324524
   vertex -78.972023 -92.716225 586.215576
  endloop
 facet normal 0.001521 0.996195 -0.087141
  outer loop
   vertex -78.972023 -92.716225 586.215576
   vertex -77.635658 -92.455513 589.219360
   vertex -77.583649 -92.716225 586.239807
  endloop
 facet normal 0.999848 0.000002 0.017453
  outer loop
   vertex -77.583649 -92.716225 586.239807
   vertex -77.635658 -92.455513 589.219360
   vertex -77.585548 -93.961670 586.348755
  endloop
 facet normal 0.999848 0.000002 0.017453
  outer loop
   vertex -77.585548 -93.961670 586.348755
   vertex -77.635658 -92.455513 589.219360
   vertex -77.637558 -93.700951 589.328308
  endloop
 facet normal -0.001521 -0.996195 0.087143
  outer loop
   vertex -77.637558 -93.700951 589.328308
   vertex -78.973923 -93.961670 586.324524
   vertex -77.585548 -93.961670 586.348755
  endloop
 facet normal -0.001521 -0.996195 0.087143
  outer loop
   vertex -79.025932 -93.700951 589.304077
   vertex -78.973923 -93.961670 586.324524
   vertex -77.637558 -93.700951 589.328308
  endloop
 facet normal 0.001521 0.996195 -0.087141
  outer loop
   vertex -78.972023 -92.716225 586.215576
   vertex -79.024033 -92.455513 589.195129
   vertex -77.635658 -92.455513 589.219360
  endloop
 facet normal 0.001521 0.996195 -0.087143
  outer loop
   vertex -78.586487 -94.648750 564.129822
   vertex -78.638496 -94.388031 567.109375
   vertex -77.198112 -94.648750 564.154053
  endloop
 facet normal 0.017384 -0.087157 -0.996043
  outer loop
   vertex -77.583649 -92.716225 586.239807
   vertex -77.585548 -93.961670 586.348755
   vertex -78.973923 -93.961670 586.324524
  endloop
 facet normal 0.999848 -0.000004 0.017456
  outer loop
   vertex -77.250122 -94.388031 567.133606
   vertex -77.252029 -95.633476 567.242554
   vertex -77.200012 -95.894188 564.263000
  endloop
 facet normal -0.999848 0.000005 -0.017454
  outer loop
   vertex -81.406296 -95.811714 566.967346
   vertex -81.747215 -93.992805 586.497131
   vertex -81.406128 -95.702515 566.957764
  endloop
 facet normal -0.592496 0.801543 -0.080478
  outer loop
   vertex -81.406128 -95.702515 566.957764
   vertex -81.747215 -93.992805 586.497131
   vertex -81.289124 -95.616577 566.952271
  endloop
 facet normal -0.609293 0.788932 -0.079673
  outer loop
   vertex -81.791176 -92.620636 585.625793
   vertex -81.728127 -92.455811 586.775757
   vertex -81.707977 -92.556801 585.621643
  endloop
 facet normal 0.001523 0.996194 -0.087145
  outer loop
   vertex -81.707977 -92.556801 585.621643
   vertex -81.728127 -92.455811 586.775757
   vertex -80.886627 -92.455811 586.790466
  endloop
 facet normal -0.001523 -0.996195 0.087140
  outer loop
   vertex -80.533775 -95.893890 566.576965
   vertex -81.395416 -95.792900 567.716431
   vertex -81.375275 -95.893890 566.562256
  endloop
 facet normal -0.611693 -0.788940 0.058358
  outer loop
   vertex -81.375275 -95.893890 566.562256
   vertex -81.395416 -95.792900 567.716431
   vertex -81.478424 -95.729065 567.709351
  endloop
 facet normal -0.594940 -0.801546 0.059751
  outer loop
   vertex -81.628418 -92.733124 586.388977
   vertex -81.745155 -92.647186 586.379456
   vertex -81.404076 -94.356895 566.840088
  endloop
 facet normal -0.999848 0.000005 -0.017454
  outer loop
   vertex -81.404076 -94.356895 566.840088
   vertex -81.745155 -92.647186 586.379456
   vertex -81.403908 -94.247704 566.830505
  endloop
 facet normal -0.933883 -0.357266 0.014959
  outer loop
   vertex -80.978714 -94.068604 586.517212
   vertex -80.637627 -95.778320 566.977844
   vertex -80.965889 -94.101997 586.520325
  endloop
 facet normal -0.933883 -0.357266 0.014959
  outer loop
   vertex -80.965889 -94.101997 586.520325
   vertex -80.637627 -95.778320 566.977844
   vertex -80.624802 -95.811714 566.980957
  endloop
 facet normal -0.001582 -0.996195 0.087141
  outer loop
   vertex -80.624802 -95.811714 566.980957
   vertex -80.895279 -94.101997 586.521606
   vertex -80.965889 -94.101997 586.520325
  endloop
 facet normal -0.017905 0.087191 0.996031
  outer loop
   vertex -81.730652 -94.112511 586.920715
   vertex -81.714714 -93.875664 586.900269
   vertex -81.813652 -94.048676 586.913635
  endloop
 facet normal -0.017864 0.087168 0.996033
  outer loop
   vertex -81.813652 -94.048676 586.913635
   vertex -81.714714 -93.875664 586.900269
   vertex -81.813416 -93.890312 586.899780
  endloop
 facet normal -0.999848 -0.000033 -0.017446
  outer loop
   vertex -81.813416 -93.890312 586.899780
   vertex -81.793510 -94.149666 585.759521
   vertex -81.813652 -94.048676 586.913635
  endloop
 facet normal 0.017211 -0.087192 -0.996043
  outer loop
   vertex -81.372742 -94.237190 566.417358
   vertex -81.357529 -94.474037 566.438354
   vertex -81.455940 -94.301025 566.421509
  endloop
 facet normal 0.017252 -0.087169 -0.996044
  outer loop
   vertex -81.455940 -94.301025 566.421509
   vertex -81.357529 -94.474037 566.438354
   vertex -81.456184 -94.459389 566.435364
  endloop
 facet normal -0.999848 0.000015 -0.017451
  outer loop
   vertex -81.456184 -94.459389 566.435364
   vertex -81.476082 -94.200035 567.575623
   vertex -81.455940 -94.301025 566.421509
  endloop
 facet normal 0.017245 -0.087172 -0.996044
  outer loop
   vertex -81.791412 -92.778992 585.639648
   vertex -81.791176 -92.620636 585.625793
   vertex -81.692757 -92.793648 585.642639
  endloop
 facet normal 0.017211 -0.087192 -0.996043
  outer loop
   vertex -81.692757 -92.793648 585.642639
   vertex -81.791176 -92.620636 585.625793
   vertex -81.707977 -92.556801 585.621643
  endloop
 facet normal 0.017411 -0.087178 -0.996041
  outer loop
   vertex -81.707977 -92.556801 585.621643
   vertex -80.866478 -92.556801 585.636353
   vertex -81.692757 -92.793648 585.642639
  endloop
 facet normal 0.001523 0.996194 -0.087145
  outer loop
   vertex -80.886627 -92.455811 586.790466
   vertex -80.866478 -92.556801 585.636353
   vertex -81.707977 -92.556801 585.621643
  endloop
 facet normal -0.594915 -0.801564 0.059752
  outer loop
   vertex -81.404076 -94.356895 566.840088
   vertex -81.287331 -94.442833 566.849609
   vertex -81.628418 -92.733124 586.388977
  endloop
 facet normal -0.999848 0.000001 -0.017454
  outer loop
   vertex -81.628418 -92.733124 586.388977
   vertex -81.287331 -94.442833 566.849609
   vertex -81.289124 -95.616577 566.952271
  endloop
 facet normal -0.999848 -0.000000 -0.017454
  outer loop
   vertex -81.289124 -95.616577 566.952271
   vertex -81.630211 -93.906868 586.491699
   vertex -81.628418 -92.733124 586.388977
  endloop
 facet normal -0.592469 0.801563 -0.080479
  outer loop
   vertex -81.747215 -93.992805 586.497131
   vertex -81.630211 -93.906868 586.491699
   vertex -81.289124 -95.616577 566.952271
  endloop
 facet normal -0.001517 -0.996194 0.087145
  outer loop
   vertex -80.533775 -95.893890 566.576965
   vertex -80.553917 -95.792900 567.731079
   vertex -81.395416 -95.792900 567.716431
  endloop
 facet normal -0.017339 0.087157 0.996044
  outer loop
   vertex -81.395416 -95.792900 567.716431
   vertex -80.553917 -95.792900 567.731079
   vertex -81.379478 -95.556061 567.695984
  endloop
 facet normal -0.017901 0.087194 0.996031
  outer loop
   vertex -81.379478 -95.556061 567.695984
   vertex -81.478424 -95.729065 567.709351
   vertex -81.395416 -95.792900 567.716431
  endloop
 facet normal -0.017865 0.087173 0.996033
  outer loop
   vertex -81.478180 -95.570709 567.695496
   vertex -81.478424 -95.729065 567.709351
   vertex -81.379478 -95.556061 567.695984
  endloop
 facet normal 0.932746 -0.357383 0.047554
  outer loop
   vertex -81.251068 -95.778320 566.967102
   vertex -81.592155 -94.068604 586.506470
   vertex -81.264000 -95.811714 566.969788
  endloop
 facet normal 0.932847 -0.357124 0.047532
  outer loop
   vertex -81.264000 -95.811714 566.969788
   vertex -81.592155 -94.068604 586.506470
   vertex -81.605080 -94.101997 586.509216
  endloop
 facet normal -0.001495 -0.996195 0.087142
  outer loop
   vertex -81.605080 -94.101997 586.509216
   vertex -81.406296 -95.811714 566.967346
   vertex -81.264000 -95.811714 566.969788
  endloop
 facet normal -0.001532 -0.996195 0.087141
  outer loop
   vertex -81.747375 -94.101997 586.506714
   vertex -81.406296 -95.811714 566.967346
   vertex -81.605080 -94.101997 586.509216
  endloop
 facet normal -0.999848 -0.000064 -0.017448
  outer loop
   vertex -81.747215 -93.992805 586.497131
   vertex -81.406296 -95.811714 566.967346
   vertex -81.747375 -94.101997 586.506714
  endloop
 facet normal -0.999848 -0.000002 -0.017453
  outer loop
   vertex -80.158752 -95.743065 565.162842
   vertex -80.185715 -94.488731 566.707336
   vertex -80.157059 -94.632378 565.065674
  endloop
 facet normal 0.001522 0.996195 -0.087141
  outer loop
   vertex -80.157059 -94.632378 565.065674
   vertex -80.185715 -94.488731 566.707336
   vertex -78.616249 -94.632378 565.092590
  endloop
 facet normal 0.017400 -0.087165 -0.996042
  outer loop
   vertex -78.616249 -94.632378 565.092590
   vertex -78.617943 -95.743065 565.189758
   vertex -80.157059 -94.632378 565.065674
  endloop
 facet normal 0.999848 0.000002 0.017453
  outer loop
   vertex -78.644905 -94.488731 566.734253
   vertex -78.617943 -95.743065 565.189758
   vertex -78.616249 -94.632378 565.092590
  endloop
 facet normal 0.999848 0.000002 0.017453
  outer loop
   vertex -78.646599 -95.599426 566.831421
   vertex -78.617943 -95.743065 565.189758
   vertex -78.644905 -94.488731 566.734253
  endloop
 facet normal -0.017400 0.087164 0.996042
  outer loop
   vertex -78.644905 -94.488731 566.734253
   vertex -80.185715 -94.488731 566.707336
   vertex -78.646599 -95.599426 566.831421
  endloop
 facet normal -0.017400 0.087164 0.996042
  outer loop
   vertex -78.646599 -95.599426 566.831421
   vertex -80.185715 -94.488731 566.707336
   vertex -80.187416 -95.599426 566.804504
  endloop
 facet normal -0.999848 0.000004 -0.017458
  outer loop
   vertex -80.187416 -95.599426 566.804504
   vertex -80.185715 -94.488731 566.707336
   vertex -80.158752 -95.743065 565.162842
  endloop
 facet normal -0.001522 -0.996195 0.087136
  outer loop
   vertex -80.158752 -95.743065 565.162842
   vertex -78.617943 -95.743065 565.189758
   vertex -80.187416 -95.599426 566.804504
  endloop
 facet normal 0.017400 -0.087165 -0.996042
  outer loop
   vertex -80.157059 -94.632378 565.065674
   vertex -78.617943 -95.743065 565.189758
   vertex -80.158752 -95.743065 565.162842
  endloop
 facet normal -0.001522 -0.996195 0.087141
  outer loop
   vertex -80.562889 -93.717323 588.313965
   vertex -80.534233 -93.860970 586.672302
   vertex -79.022072 -93.717323 588.340881
  endloop
 facet normal -0.001522 -0.996195 0.087141
  outer loop
   vertex -79.022072 -93.717323 588.340881
   vertex -80.534233 -93.860970 586.672302
   vertex -78.993416 -93.860970 586.699219
  endloop
 facet normal 0.999848 0.000002 0.017453
  outer loop
   vertex -78.993416 -93.860970 586.699219
   vertex -79.020378 -92.606636 588.243713
   vertex -79.022072 -93.717323 588.340881
  endloop
 facet normal 0.999848 0.000002 0.017453
  outer loop
   vertex -78.991722 -92.750275 586.602051
   vertex -79.020378 -92.606636 588.243713
   vertex -78.993416 -93.860970 586.699219
  endloop
 facet normal 0.001522 0.996195 -0.087136
  outer loop
   vertex -80.532532 -92.750275 586.575134
   vertex -79.020378 -92.606636 588.243713
   vertex -78.991722 -92.750275 586.602051
  endloop
 facet normal 0.017400 -0.087164 -0.996042
  outer loop
   vertex -78.991722 -92.750275 586.602051
   vertex -80.534233 -93.860970 586.672302
   vertex -80.532532 -92.750275 586.575134
  endloop
 facet normal -0.999848 0.000005 -0.017453
  outer loop
   vertex -80.532532 -92.750275 586.575134
   vertex -80.534233 -93.860970 586.672302
   vertex -80.561188 -92.606636 588.216797
  endloop
 facet normal -0.999848 0.000005 -0.017453
  outer loop
   vertex -80.561188 -92.606636 588.216797
   vertex -80.534233 -93.860970 586.672302
   vertex -80.562889 -93.717323 588.313965
  endloop
 facet normal -0.017400 0.087165 0.996042
  outer loop
   vertex -80.562889 -93.717323 588.313965
   vertex -79.020378 -92.606636 588.243713
   vertex -80.561188 -92.606636 588.216797
  endloop
 facet normal -0.017400 0.087165 0.996042
  outer loop
   vertex -79.022072 -93.717323 588.340881
   vertex -79.020378 -92.606636 588.243713
   vertex -80.562889 -93.717323 588.313965
  endloop
 facet normal 0.999848 -0.000004 0.017461
  outer loop
   vertex -79.517593 -95.064133 563.669373
   vertex -79.523682 -95.033630 564.018005
   vertex -79.524445 -95.531731 564.061584
  endloop
 facet normal -0.999848 0.000004 -0.017461
  outer loop
   vertex -79.524445 -95.531731 564.061584
   vertex -79.523682 -95.033630 564.018005
   vertex -79.521019 -95.297928 563.865479
  endloop
 facet normal -0.999848 0.000004 -0.017461
  outer loop
   vertex -79.521019 -95.297928 563.865479
   vertex -79.518356 -95.562233 563.712952
   vertex -79.524445 -95.531731 564.061584
  endloop
 facet normal -0.999848 0.000004 -0.017461
  outer loop
   vertex -79.517593 -95.064133 563.669373
   vertex -79.518356 -95.562233 563.712952
   vertex -79.521019 -95.297928 563.865479
  endloop
 facet normal 0.017390 -0.087171 -0.996042
  outer loop
   vertex -78.518509 -95.562233 563.730408
   vertex -79.518356 -95.562233 563.712952
   vertex -79.517593 -95.064133 563.669373
  endloop
 facet normal 0.017390 -0.087171 -0.996042
  outer loop
   vertex -79.517593 -95.064133 563.669373
   vertex -78.517746 -95.064133 563.686829
   vertex -78.518509 -95.562233 563.730408
  endloop
 facet normal 0.999848 -0.000005 0.017453
  outer loop
   vertex -78.518509 -95.562233 563.730408
   vertex -78.517746 -95.064133 563.686829
   vertex -78.548065 -95.414070 565.423706
  endloop
 facet normal 0.999848 0.000011 0.017456
  outer loop
   vertex -78.548065 -95.414070 565.423706
   vertex -78.517746 -95.064133 563.686829
   vertex -78.547310 -94.915970 565.380127
  endloop
 facet normal -0.017390 0.087171 0.996042
  outer loop
   vertex -78.547310 -94.915970 565.380127
   vertex -79.547157 -94.915970 565.362671
   vertex -78.548065 -95.414070 565.423706
  endloop
 facet normal 0.001522 0.996194 -0.087156
  outer loop
   vertex -79.289940 -94.952316 564.951721
   vertex -79.547157 -94.915970 565.362671
   vertex -78.547310 -94.915970 565.380127
  endloop
 facet normal 0.001562 0.996196 -0.087131
  outer loop
   vertex -79.541069 -94.946472 565.014038
   vertex -79.547157 -94.915970 565.362671
   vertex -79.289940 -94.952316 564.951721
  endloop
 facet normal -0.001522 -0.996194 0.087156
  outer loop
   vertex -79.700279 -93.397385 588.458130
   vertex -79.942986 -93.433731 588.038452
   vertex -78.943138 -93.433731 588.055908
  endloop
 facet normal 0.017390 -0.087171 -0.996042
  outer loop
   vertex -78.943138 -93.433731 588.055908
   vertex -79.942986 -93.433731 588.038452
   vertex -78.942383 -92.935631 588.012329
  endloop
 facet normal 0.999848 0.000011 0.017456
  outer loop
   vertex -78.942383 -92.935631 588.012329
   vertex -78.972702 -93.285568 589.749207
   vertex -78.943138 -93.433731 588.055908
  endloop
 facet normal 0.999848 -0.000005 0.017453
  outer loop
   vertex -78.971939 -92.787468 589.705627
   vertex -78.972702 -93.285568 589.749207
   vertex -78.942383 -92.935631 588.012329
  endloop
 facet normal -0.017390 0.087171 0.996042
  outer loop
   vertex -79.972549 -93.285568 589.731750
   vertex -78.972702 -93.285568 589.749207
   vertex -78.971939 -92.787468 589.705627
  endloop
 facet normal -0.017390 0.087171 0.996042
  outer loop
   vertex -78.971939 -92.787468 589.705627
   vertex -79.971786 -92.787468 589.688171
   vertex -79.972549 -93.285568 589.731750
  endloop
 facet normal -0.999848 0.000004 -0.017461
  outer loop
   vertex -79.972549 -93.285568 589.731750
   vertex -79.971786 -92.787468 589.688171
   vertex -79.969124 -93.051773 589.535645
  endloop
 facet normal -0.999848 0.000004 -0.017461
  outer loop
   vertex -79.969124 -93.051773 589.535645
   vertex -79.971786 -92.787468 589.688171
   vertex -79.965698 -92.817970 589.339539
  endloop
 facet normal -0.999848 0.000004 -0.017461
  outer loop
   vertex -79.965698 -92.817970 589.339539
   vertex -79.966461 -93.316071 589.383118
   vertex -79.969124 -93.051773 589.535645
  endloop
 facet normal 0.999848 -0.000004 0.017461
  outer loop
   vertex -79.972549 -93.285568 589.731750
   vertex -79.966461 -93.316071 589.383118
   vertex -79.965698 -92.817970 589.339539
  endloop
 facet normal -0.999848 0.000004 -0.017461
  outer loop
   vertex -79.969124 -93.051773 589.535645
   vertex -79.966461 -93.316071 589.383118
   vertex -79.972549 -93.285568 589.731750
  endloop
 facet normal -0.999848 0.000005 -0.017454
  outer loop
   vertex -81.745155 -92.647186 586.379456
   vertex -81.744987 -92.537987 586.369873
   vertex -81.403908 -94.247704 566.830505
  endloop
 facet normal 0.001532 0.996195 -0.087141
  outer loop
   vertex -81.403908 -94.247704 566.830505
   vertex -81.744987 -92.537987 586.369873
   vertex -81.602692 -92.537987 586.372375
  endloop
 facet normal 0.001532 0.996195 -0.087141
  outer loop
   vertex -81.602692 -92.537987 586.372375
   vertex -81.261612 -94.247704 566.833008
   vertex -81.403908 -94.247704 566.830505
  endloop
 facet normal 0.933892 0.357242 -0.014957
  outer loop
   vertex -81.589867 -92.571381 586.375549
   vertex -81.261612 -94.247704 566.833008
   vertex -81.602692 -92.537987 586.372375
  endloop
 facet normal 0.933812 0.357451 -0.014976
  outer loop
   vertex -81.248779 -94.281097 566.836121
   vertex -81.261612 -94.247704 566.833008
   vertex -81.589867 -92.571381 586.375549
  endloop
 facet normal 0.001517 0.996195 -0.087141
  outer loop
   vertex -81.589867 -92.571381 586.375549
   vertex -80.976425 -92.571381 586.386230
   vertex -81.248779 -94.281097 566.836121
  endloop
 facet normal 0.001526 0.996195 -0.087142
  outer loop
   vertex -81.248779 -94.281097 566.836121
   vertex -80.976425 -92.571381 586.386230
   vertex -80.635345 -94.281097 566.846863
  endloop
 facet normal -0.932746 0.357383 -0.047553
  outer loop
   vertex -80.635345 -94.281097 566.846863
   vertex -80.976425 -92.571381 586.386230
   vertex -80.963493 -92.537987 586.383545
  endloop
 facet normal -0.932746 0.357383 -0.047553
  outer loop
   vertex -80.963493 -92.537987 586.383545
   vertex -80.622414 -94.247704 566.844177
   vertex -80.635345 -94.281097 566.846863
  endloop
 facet normal 0.001507 0.996195 -0.087142
  outer loop
   vertex -80.892891 -92.537987 586.384766
   vertex -80.622414 -94.247704 566.844177
   vertex -80.963493 -92.537987 586.383545
  endloop
 facet normal 0.001507 0.996195 -0.087142
  outer loop
   vertex -80.551804 -94.247704 566.845398
   vertex -80.622414 -94.247704 566.844177
   vertex -80.892891 -92.537987 586.384766
  endloop
 facet normal 0.999848 0.000000 0.017454
  outer loop
   vertex -80.892891 -92.537987 586.384766
   vertex -80.895279 -94.101997 586.521606
   vertex -80.551804 -94.247704 566.845398
  endloop
 facet normal 0.999848 -0.000000 0.017454
  outer loop
   vertex -80.551804 -94.247704 566.845398
   vertex -80.895279 -94.101997 586.521606
   vertex -80.554192 -95.811714 566.982178
  endloop
 facet normal -0.001506 -0.996195 0.087142
  outer loop
   vertex -80.554192 -95.811714 566.982178
   vertex -80.895279 -94.101997 586.521606
   vertex -80.624802 -95.811714 566.980957
  endloop
 facet normal -0.001521 -0.996196 0.087125
  outer loop
   vertex -79.290703 -95.450409 564.995239
   vertex -78.548065 -95.414070 565.423706
   vertex -79.547913 -95.414070 565.406250
  endloop
 facet normal -0.017390 0.087171 0.996042
  outer loop
   vertex -79.547913 -95.414070 565.406250
   vertex -78.548065 -95.414070 565.423706
   vertex -79.547157 -94.915970 565.362671
  endloop
 facet normal -0.999848 -0.000009 -0.017438
  outer loop
   vertex -79.547157 -94.915970 565.362671
   vertex -79.541832 -95.444572 565.057617
   vertex -79.547913 -95.414070 565.406250
  endloop
 facet normal -0.999848 0.000004 -0.017461
  outer loop
   vertex -79.541069 -94.946472 565.014038
   vertex -79.541832 -95.444572 565.057617
   vertex -79.547157 -94.915970 565.362671
  endloop
 facet normal 0.999848 -0.000004 0.017461
  outer loop
   vertex -79.547157 -94.915970 565.362671
   vertex -79.541832 -95.444572 565.057617
   vertex -79.541069 -94.946472 565.014038
  endloop
 facet normal 0.001481 0.996196 -0.087133
  outer loop
   vertex -79.541069 -94.946472 565.014038
   vertex -79.789864 -94.952316 564.942993
   vertex -79.547157 -94.915970 565.362671
  endloop
 facet normal 0.001525 0.996193 -0.087158
  outer loop
   vertex -79.547157 -94.915970 565.362671
   vertex -79.789864 -94.952316 564.942993
   vertex -79.970108 -94.925896 565.241821
  endloop
 facet normal 0.001551 0.996195 -0.087142
  outer loop
   vertex -79.970108 -94.925896 565.241821
   vertex -79.789864 -94.952316 564.942993
   vertex -79.969673 -94.968262 564.757507
  endloop
 facet normal 0.001521 0.996195 -0.087142
  outer loop
   vertex -79.969673 -94.968262 564.757507
   vertex -80.275772 -94.953011 564.926514
   vertex -79.970108 -94.925896 565.241821
  endloop
 facet normal 0.001520 0.996195 -0.087144
  outer loop
   vertex -80.032303 -94.990051 564.507324
   vertex -80.275772 -94.953011 564.926514
   vertex -79.969673 -94.968262 564.757507
  endloop
 facet normal 0.001520 0.996195 -0.087144
  outer loop
   vertex -80.382248 -94.990051 564.501221
   vertex -80.275772 -94.953011 564.926514
   vertex -80.032303 -94.990051 564.507324
  endloop
 facet normal 0.001520 0.996195 -0.087138
  outer loop
   vertex -80.032303 -94.990051 564.507324
   vertex -79.960976 -95.011841 564.259460
   vertex -80.382248 -94.990051 564.501221
  endloop
 facet normal 0.001516 0.996195 -0.087144
  outer loop
   vertex -80.382248 -94.990051 564.501221
   vertex -79.960976 -95.011841 564.259460
   vertex -80.260994 -95.027092 564.079895
  endloop
 facet normal 0.001526 0.996193 -0.087160
  outer loop
   vertex -80.260994 -95.027092 564.079895
   vertex -79.960976 -95.011841 564.259460
   vertex -79.774811 -95.027794 564.080383
  endloop
 facet normal 0.001526 0.996197 -0.087121
  outer loop
   vertex -79.774811 -95.027794 564.080383
   vertex -79.944511 -95.054207 563.775391
   vertex -80.260994 -95.027092 564.079895
  endloop
 facet normal 0.001514 0.996197 -0.087115
  outer loop
   vertex -79.523682 -95.033630 564.018005
   vertex -79.944511 -95.054207 563.775391
   vertex -79.774811 -95.027794 564.080383
  endloop
 facet normal 0.001524 0.996196 -0.087132
  outer loop
   vertex -79.517593 -95.064133 563.669373
   vertex -79.944511 -95.054207 563.775391
   vertex -79.523682 -95.033630 564.018005
  endloop
 facet normal 0.001533 0.996196 -0.087132
  outer loop
   vertex -79.523682 -95.033630 564.018005
   vertex -79.274887 -95.027794 564.089111
   vertex -79.517593 -95.064133 563.669373
  endloop
 facet normal 0.001521 0.996196 -0.087125
  outer loop
   vertex -79.517593 -95.064133 563.669373
   vertex -79.274887 -95.027794 564.089111
   vertex -78.517746 -95.064133 563.686829
  endloop
 facet normal 0.001511 0.996195 -0.087144
  outer loop
   vertex -78.517746 -95.064133 563.686829
   vertex -79.274887 -95.027794 564.089111
   vertex -79.095085 -95.011841 564.274597
  endloop
 facet normal 0.001513 0.996195 -0.087142
  outer loop
   vertex -79.095085 -95.011841 564.274597
   vertex -79.032455 -94.990051 564.524780
   vertex -78.517746 -95.064133 563.686829
  endloop
 facet normal 0.001521 0.996196 -0.087125
  outer loop
   vertex -79.699516 -92.899292 588.414612
   vertex -78.942383 -92.935631 588.012329
   vertex -79.942230 -92.935631 587.994873
  endloop
 facet normal 0.017390 -0.087171 -0.996042
  outer loop
   vertex -79.942230 -92.935631 587.994873
   vertex -78.942383 -92.935631 588.012329
   vertex -79.942986 -93.433731 588.038452
  endloop
 facet normal -0.999848 -0.000009 -0.017438
  outer loop
   vertex -79.942986 -93.433731 588.038452
   vertex -79.948311 -92.905128 588.343506
   vertex -79.942230 -92.935631 587.994873
  endloop
 facet normal -0.999848 0.000004 -0.017461
  outer loop
   vertex -79.949074 -93.403229 588.387085
   vertex -79.948311 -92.905128 588.343506
   vertex -79.942986 -93.433731 588.038452
  endloop
 facet normal 0.999848 -0.000004 0.017461
  outer loop
   vertex -79.942986 -93.433731 588.038452
   vertex -79.948311 -92.905128 588.343506
   vertex -79.949074 -93.403229 588.387085
  endloop
 facet normal -0.001562 -0.996196 0.087131
  outer loop
   vertex -79.949074 -93.403229 588.387085
   vertex -80.200203 -93.397385 588.449402
   vertex -79.942986 -93.433731 588.038452
  endloop
 facet normal -0.001517 -0.996193 0.087159
  outer loop
   vertex -79.942986 -93.433731 588.038452
   vertex -80.200203 -93.397385 588.449402
   vertex -80.369904 -93.423805 588.144470
  endloop
 facet normal -0.001478 -0.996195 0.087137
  outer loop
   vertex -80.369904 -93.423805 588.144470
   vertex -80.200203 -93.397385 588.449402
   vertex -80.386368 -93.381439 588.628540
  endloop
 facet normal -0.001529 -0.996195 0.087135
  outer loop
   vertex -80.386368 -93.381439 588.628540
   vertex -80.686386 -93.396690 588.448914
   vertex -80.369904 -93.423805 588.144470
  endloop
 facet normal -0.001540 -0.996194 0.087153
  outer loop
   vertex -80.457695 -93.359650 588.876343
   vertex -80.686386 -93.396690 588.448914
   vertex -80.386368 -93.381439 588.628540
  endloop
 facet normal -0.001520 -0.996195 0.087143
  outer loop
   vertex -80.807640 -93.359650 588.870239
   vertex -80.686386 -93.396690 588.448914
   vertex -80.457695 -93.359650 588.876343
  endloop
 facet normal -0.001520 -0.996195 0.087144
  outer loop
   vertex -80.457695 -93.359650 588.876343
   vertex -80.395058 -93.337860 589.126526
   vertex -80.807640 -93.359650 588.870239
  endloop
 facet normal -0.001511 -0.996196 0.087129
  outer loop
   vertex -80.807640 -93.359650 588.870239
   vertex -80.395058 -93.337860 589.126526
   vertex -80.701164 -93.322609 589.295593
  endloop
 facet normal -0.001505 -0.996195 0.087139
  outer loop
   vertex -80.701164 -93.322609 589.295593
   vertex -80.395058 -93.337860 589.126526
   vertex -80.215256 -93.321907 589.312012
  endloop
 facet normal -0.001505 -0.996196 0.087127
  outer loop
   vertex -80.215256 -93.321907 589.312012
   vertex -80.395500 -93.295494 589.610901
   vertex -80.701164 -93.322609 589.295593
  endloop
 facet normal -0.001527 -0.996197 0.087113
  outer loop
   vertex -79.966461 -93.316071 589.383118
   vertex -80.395500 -93.295494 589.610901
   vertex -80.215256 -93.321907 589.312012
  endloop
 facet normal -0.001517 -0.996196 0.087132
  outer loop
   vertex -79.972549 -93.285568 589.731750
   vertex -80.395500 -93.295494 589.610901
   vertex -79.966461 -93.316071 589.383118
  endloop
 facet normal -0.001510 -0.996196 0.087132
  outer loop
   vertex -79.966461 -93.316071 589.383118
   vertex -79.715332 -93.321907 589.320740
   vertex -79.972549 -93.285568 589.731750
  endloop
 facet normal -0.001521 -0.996196 0.087125
  outer loop
   vertex -79.972549 -93.285568 589.731750
   vertex -79.715332 -93.321907 589.320740
   vertex -78.972702 -93.285568 589.749207
  endloop
 facet normal -0.001535 -0.996194 0.087150
  outer loop
   vertex -78.972702 -93.285568 589.749207
   vertex -79.715332 -93.321907 589.320740
   vertex -79.529167 -93.337860 589.141663
  endloop
 facet normal -0.001522 -0.996195 0.087137
  outer loop
   vertex -79.529167 -93.337860 589.141663
   vertex -79.457840 -93.359650 588.893799
   vertex -78.972702 -93.285568 589.749207
  endloop
 facet normal 0.456695 0.886894 -0.069634
  outer loop
   vertex -80.886627 -92.455811 586.790466
   vertex -80.395821 -92.706154 586.820923
   vertex -80.866478 -92.556801 585.636353
  endloop
 facet normal 0.456695 0.886894 -0.069634
  outer loop
   vertex -80.866478 -92.556801 585.636353
   vertex -80.395821 -92.706154 586.820923
   vertex -80.375671 -92.807144 585.666809
  endloop
 facet normal 0.017348 -0.087167 -0.996043
  outer loop
   vertex -80.375671 -92.807144 585.666809
   vertex -80.377441 -93.963150 585.767944
   vertex -80.866478 -92.556801 585.636353
  endloop
 facet normal 0.999848 -0.000004 0.017456
  outer loop
   vertex -80.395821 -92.706154 586.820923
   vertex -80.377441 -93.963150 585.767944
   vertex -80.375671 -92.807144 585.666809
  endloop
 facet normal 0.999848 0.000002 0.017449
  outer loop
   vertex -80.397583 -93.862167 586.922058
   vertex -80.377441 -93.963150 585.767944
   vertex -80.395821 -92.706154 586.820923
  endloop
 facet normal -0.017431 0.087166 0.996041
  outer loop
   vertex -80.395821 -92.706154 586.820923
   vertex -80.889153 -94.112511 586.935364
   vertex -80.397583 -93.862167 586.922058
  endloop
 facet normal 0.453987 -0.886894 0.085524
  outer loop
   vertex -80.397583 -93.862167 586.922058
   vertex -80.889153 -94.112511 586.935364
   vertex -80.377441 -93.963150 585.767944
  endloop
 facet normal 0.453992 -0.886891 0.085527
  outer loop
   vertex -80.377441 -93.963150 585.767944
   vertex -80.889153 -94.112511 586.935364
   vertex -80.869003 -94.213493 585.781250
  endloop
 facet normal 0.017419 -0.087142 -0.996044
  outer loop
   vertex -80.869003 -94.213493 585.781250
   vertex -80.866478 -92.556801 585.636353
   vertex -80.377441 -93.963150 585.767944
  endloop
 facet normal 0.017417 -0.087142 -0.996044
  outer loop
   vertex -81.694565 -93.976654 585.746094
   vertex -80.866478 -92.556801 585.636353
   vertex -80.869003 -94.213493 585.781250
  endloop
 facet normal 0.017397 -0.087131 -0.996045
  outer loop
   vertex -81.692757 -92.793648 585.642639
   vertex -80.866478 -92.556801 585.636353
   vertex -81.694565 -93.976654 585.746094
  endloop
 facet normal -0.999848 0.000002 -0.017456
  outer loop
   vertex -81.694565 -93.976654 585.746094
   vertex -81.712906 -92.692657 586.796753
   vertex -81.692757 -92.793648 585.642639
  endloop
 facet normal -0.148910 -0.985309 0.083619
  outer loop
   vertex -81.692757 -92.793648 585.642639
   vertex -81.712906 -92.692657 586.796753
   vertex -81.791412 -92.778992 585.639648
  endloop
 facet normal -0.148836 -0.985321 0.083615
  outer loop
   vertex -81.791412 -92.778992 585.639648
   vertex -81.712906 -92.692657 586.796753
   vertex -81.811562 -92.678009 586.793762
  endloop
 facet normal -0.999848 -0.000034 -0.017453
  outer loop
   vertex -81.811562 -92.678009 586.793762
   vertex -81.791176 -92.620636 585.625793
   vertex -81.791412 -92.778992 585.639648
  endloop
 facet normal -0.999848 0.000015 -0.017451
  outer loop
   vertex -81.811317 -92.519646 586.779907
   vertex -81.791176 -92.620636 585.625793
   vertex -81.811562 -92.678009 586.793762
  endloop
 facet normal -0.609328 0.788906 -0.079667
  outer loop
   vertex -81.728127 -92.455811 586.775757
   vertex -81.791176 -92.620636 585.625793
   vertex -81.811317 -92.519646 586.779907
  endloop
 facet normal -0.017212 0.087191 0.996043
  outer loop
   vertex -81.811317 -92.519646 586.779907
   vertex -81.712906 -92.692657 586.796753
   vertex -81.728127 -92.455811 586.775757
  endloop
 facet normal -0.017411 0.087178 0.996041
  outer loop
   vertex -81.728127 -92.455811 586.775757
   vertex -81.712906 -92.692657 586.796753
   vertex -80.886627 -92.455811 586.790466
  endloop
 facet normal -0.017412 0.087182 0.996040
  outer loop
   vertex -80.886627 -92.455811 586.790466
   vertex -81.712906 -92.692657 586.796753
   vertex -81.714714 -93.875664 586.900269
  endloop
 facet normal -0.017342 0.087142 0.996045
  outer loop
   vertex -81.714714 -93.875664 586.900269
   vertex -80.889153 -94.112511 586.935364
   vertex -80.886627 -92.455811 586.790466
  endloop
 facet normal -0.017339 0.087154 0.996044
  outer loop
   vertex -81.730652 -94.112511 586.920715
   vertex -80.889153 -94.112511 586.935364
   vertex -81.714714 -93.875664 586.900269
  endloop
 facet normal -0.001517 -0.996195 0.087139
  outer loop
   vertex -80.869003 -94.213493 585.781250
   vertex -80.889153 -94.112511 586.935364
   vertex -81.730652 -94.112511 586.920715
  endloop
 facet normal -0.001523 -0.996195 0.087134
  outer loop
   vertex -81.730652 -94.112511 586.920715
   vertex -81.710503 -94.213493 585.766541
   vertex -80.869003 -94.213493 585.781250
  endloop
 facet normal 0.017411 -0.087162 -0.996042
  outer loop
   vertex -80.869003 -94.213493 585.781250
   vertex -81.710503 -94.213493 585.766541
   vertex -81.694565 -93.976654 585.746094
  endloop
 facet normal 0.017213 -0.087149 -0.996047
  outer loop
   vertex -81.694565 -93.976654 585.746094
   vertex -81.710503 -94.213493 585.766541
   vertex -81.793510 -94.149666 585.759521
  endloop
 facet normal 0.017248 -0.087169 -0.996044
  outer loop
   vertex -81.793510 -94.149666 585.759521
   vertex -81.793266 -93.991302 585.745667
   vertex -81.694565 -93.976654 585.746094
  endloop
 facet normal -0.999848 0.000014 -0.017457
  outer loop
   vertex -81.813416 -93.890312 586.899780
   vertex -81.793266 -93.991302 585.745667
   vertex -81.793510 -94.149666 585.759521
  endloop
 facet normal -0.145848 0.985317 -0.088766
  outer loop
   vertex -81.694565 -93.976654 585.746094
   vertex -81.793266 -93.991302 585.745667
   vertex -81.813416 -93.890312 586.899780
  endloop
 facet normal -0.145794 0.985325 -0.088761
  outer loop
   vertex -81.813416 -93.890312 586.899780
   vertex -81.714714 -93.875664 586.900269
   vertex -81.694565 -93.976654 585.746094
  endloop
 facet normal -0.999848 0.000001 -0.017455
  outer loop
   vertex -81.694565 -93.976654 585.746094
   vertex -81.714714 -93.875664 586.900269
   vertex -81.712906 -92.692657 586.796753
  endloop
 facet normal 0.453987 -0.886894 0.085530
  outer loop
   vertex -80.533775 -95.893890 566.576965
   vertex -80.042206 -95.643547 566.563660
   vertex -80.553917 -95.792900 567.731079
  endloop
 facet normal 0.453987 -0.886894 0.085530
  outer loop
   vertex -80.553917 -95.792900 567.731079
   vertex -80.042206 -95.643547 566.563660
   vertex -80.062347 -95.542557 567.717773
  endloop
 facet normal -0.017431 0.087167 0.996041
  outer loop
   vertex -80.062347 -95.542557 567.717773
   vertex -80.060585 -94.386551 567.616638
   vertex -80.553917 -95.792900 567.731079
  endloop
 facet normal 0.999848 0.000002 0.017449
  outer loop
   vertex -80.042206 -95.643547 566.563660
   vertex -80.060585 -94.386551 567.616638
   vertex -80.062347 -95.542557 567.717773
  endloop
 facet normal 0.999848 -0.000004 0.017456
  outer loop
   vertex -80.040436 -94.487534 566.462524
   vertex -80.060585 -94.386551 567.616638
   vertex -80.042206 -95.643547 566.563660
  endloop
 facet normal 0.017348 -0.087167 -0.996043
  outer loop
   vertex -80.042206 -95.643547 566.563660
   vertex -80.531242 -94.237190 566.432068
   vertex -80.040436 -94.487534 566.462524
  endloop
 facet normal 0.456695 0.886895 -0.069628
  outer loop
   vertex -80.040436 -94.487534 566.462524
   vertex -80.531242 -94.237190 566.432068
   vertex -80.060585 -94.386551 567.616638
  endloop
 facet normal 0.456695 0.886895 -0.069628
  outer loop
   vertex -80.060585 -94.386551 567.616638
   vertex -80.531242 -94.237190 566.432068
   vertex -80.551392 -94.136208 567.586182
  endloop
 facet normal -0.017360 0.087142 0.996045
  outer loop
   vertex -80.551392 -94.136208 567.586182
   vertex -80.553917 -95.792900 567.731079
   vertex -80.060585 -94.386551 567.616638
  endloop
 facet normal -0.017400 0.087142 0.996044
  outer loop
   vertex -81.377670 -94.373047 567.592468
   vertex -80.553917 -95.792900 567.731079
   vertex -80.551392 -94.136208 567.586182
  endloop
 facet normal -0.017332 0.087182 0.996042
  outer loop
   vertex -81.379478 -95.556061 567.695984
   vertex -80.553917 -95.792900 567.731079
   vertex -81.377670 -94.373047 567.592468
  endloop
 facet normal -0.999848 0.000001 -0.017455
  outer loop
   vertex -81.377670 -94.373047 567.592468
   vertex -81.359329 -95.657043 566.541809
   vertex -81.379478 -95.556061 567.695984
  endloop
 facet normal -0.145795 0.985326 -0.088755
  outer loop
   vertex -81.379478 -95.556061 567.695984
   vertex -81.359329 -95.657043 566.541809
   vertex -81.478180 -95.570709 567.695496
  endloop
 facet normal -0.145848 0.985317 -0.088760
  outer loop
   vertex -81.478180 -95.570709 567.695496
   vertex -81.359329 -95.657043 566.541809
   vertex -81.458031 -95.671692 566.541382
  endloop
 facet normal -0.999848 0.000014 -0.017457
  outer loop
   vertex -81.458031 -95.671692 566.541382
   vertex -81.478424 -95.729065 567.709351
   vertex -81.478180 -95.570709 567.695496
  endloop
 facet normal -0.999848 0.000014 -0.017457
  outer loop
   vertex -81.458275 -95.830055 566.555237
   vertex -81.478424 -95.729065 567.709351
   vertex -81.458031 -95.671692 566.541382
  endloop
 facet normal -0.611701 -0.788934 0.058356
  outer loop
   vertex -81.375275 -95.893890 566.562256
   vertex -81.478424 -95.729065 567.709351
   vertex -81.458275 -95.830055 566.555237
  endloop
 facet normal 0.017208 -0.087146 -0.996047
  outer loop
   vertex -81.458275 -95.830055 566.555237
   vertex -81.359329 -95.657043 566.541809
   vertex -81.375275 -95.893890 566.562256
  endloop
 facet normal 0.017411 -0.087160 -0.996042
  outer loop
   vertex -81.375275 -95.893890 566.562256
   vertex -81.359329 -95.657043 566.541809
   vertex -80.533775 -95.893890 566.576965
  endloop
 facet normal 0.017419 -0.087131 -0.996045
  outer loop
   vertex -80.533775 -95.893890 566.576965
   vertex -81.359329 -95.657043 566.541809
   vertex -81.357529 -94.474037 566.438354
  endloop
 facet normal 0.017400 -0.087142 -0.996044
  outer loop
   vertex -81.357529 -94.474037 566.438354
   vertex -80.531242 -94.237190 566.432068
   vertex -80.533775 -95.893890 566.576965
  endloop
 facet normal 0.017411 -0.087179 -0.996040
  outer loop
   vertex -81.372742 -94.237190 566.417358
   vertex -80.531242 -94.237190 566.432068
   vertex -81.357529 -94.474037 566.438354
  endloop
 facet normal 0.001523 0.996195 -0.087138
  outer loop
   vertex -80.551392 -94.136208 567.586182
   vertex -80.531242 -94.237190 566.432068
   vertex -81.372742 -94.237190 566.417358
  endloop
 facet normal 0.001523 0.996195 -0.087138
  outer loop
   vertex -81.372742 -94.237190 566.417358
   vertex -81.392891 -94.136208 567.571472
   vertex -80.551392 -94.136208 567.586182
  endloop
 facet normal -0.017411 0.087181 0.996040
  outer loop
   vertex -80.551392 -94.136208 567.586182
   vertex -81.392891 -94.136208 567.571472
   vertex -81.377670 -94.373047 567.592468
  endloop
 facet normal -0.017207 0.087195 0.996043
  outer loop
   vertex -81.377670 -94.373047 567.592468
   vertex -81.392891 -94.136208 567.571472
   vertex -81.476082 -94.200035 567.575623
  endloop
 facet normal -0.017252 0.087169 0.996044
  outer loop
   vertex -81.476082 -94.200035 567.575623
   vertex -81.476326 -94.358398 567.589478
   vertex -81.377670 -94.373047 567.592468
  endloop
 facet normal -0.999848 0.000015 -0.017451
  outer loop
   vertex -81.456184 -94.459389 566.435364
   vertex -81.476326 -94.358398 567.589478
   vertex -81.476082 -94.200035 567.575623
  endloop
 facet normal -0.148836 -0.985320 0.083623
  outer loop
   vertex -81.377670 -94.373047 567.592468
   vertex -81.476326 -94.358398 567.589478
   vertex -81.456184 -94.459389 566.435364
  endloop
 facet normal -0.148836 -0.985320 0.083623
  outer loop
   vertex -81.456184 -94.459389 566.435364
   vertex -81.357529 -94.474037 566.438354
   vertex -81.377670 -94.373047 567.592468
  endloop
 facet normal -0.999848 -0.000004 -0.017449
  outer loop
   vertex -81.377670 -94.373047 567.592468
   vertex -81.357529 -94.474037 566.438354
   vertex -81.359329 -95.657043 566.541809
  endloop
 facet normal 0.001510 0.996196 -0.087132
  outer loop
   vertex -79.948311 -92.905128 588.343506
   vertex -79.942230 -92.935631 587.994873
   vertex -80.199440 -92.899292 588.405884
  endloop
 facet normal 0.001526 0.996196 -0.087122
  outer loop
   vertex -80.199440 -92.899292 588.405884
   vertex -79.942230 -92.935631 587.994873
   vertex -80.369141 -92.925705 588.100891
  endloop
 facet normal 0.001550 0.996195 -0.087135
  outer loop
   vertex -80.369141 -92.925705 588.100891
   vertex -80.385605 -92.883339 588.584961
   vertex -80.199440 -92.899292 588.405884
  endloop
 facet normal 0.001529 0.996195 -0.087135
  outer loop
   vertex -80.685631 -92.898590 588.405334
   vertex -80.385605 -92.883339 588.584961
   vertex -80.369141 -92.925705 588.100891
  endloop
 facet normal 0.001529 0.996195 -0.087135
  outer loop
   vertex -80.456932 -92.861549 588.832825
   vertex -80.385605 -92.883339 588.584961
   vertex -80.685631 -92.898590 588.405334
  endloop
 facet normal 0.001535 0.996195 -0.087138
  outer loop
   vertex -80.685631 -92.898590 588.405334
   vertex -80.806877 -92.861549 588.826660
   vertex -80.456932 -92.861549 588.832825
  endloop
 facet normal 0.001536 0.996192 -0.087168
  outer loop
   vertex -80.456932 -92.861549 588.832825
   vertex -80.806877 -92.861549 588.826660
   vertex -80.394302 -92.839760 589.082947
  endloop
 facet normal 0.001511 0.996196 -0.087129
  outer loop
   vertex -80.394302 -92.839760 589.082947
   vertex -80.806877 -92.861549 588.826660
   vertex -80.700409 -92.824509 589.252014
  endloop
 facet normal 0.001520 0.996197 -0.087112
  outer loop
   vertex -80.700409 -92.824509 589.252014
   vertex -80.214500 -92.823814 589.268433
   vertex -80.394302 -92.839760 589.082947
  endloop
 facet normal 0.001521 0.996195 -0.087142
  outer loop
   vertex -80.394745 -92.797394 589.567322
   vertex -80.214500 -92.823814 589.268433
   vertex -80.700409 -92.824509 589.252014
  endloop
 facet normal 0.001507 0.996194 -0.087150
  outer loop
   vertex -79.965698 -92.817970 589.339539
   vertex -80.214500 -92.823814 589.268433
   vertex -80.394745 -92.797394 589.567322
  endloop
 facet normal 0.001517 0.996196 -0.087132
  outer loop
   vertex -80.394745 -92.797394 589.567322
   vertex -79.971786 -92.787468 589.688171
   vertex -79.965698 -92.817970 589.339539
  endloop
 facet normal 0.001540 0.996196 -0.087131
  outer loop
   vertex -79.965698 -92.817970 589.339539
   vertex -79.971786 -92.787468 589.688171
   vertex -79.714577 -92.823814 589.277161
  endloop
 facet normal 0.001521 0.996195 -0.087143
  outer loop
   vertex -79.714577 -92.823814 589.277161
   vertex -79.971786 -92.787468 589.688171
   vertex -78.971939 -92.787468 589.705627
  endloop
 facet normal 0.001514 0.996196 -0.087130
  outer loop
   vertex -78.971939 -92.787468 589.705627
   vertex -79.528404 -92.839760 589.098083
   vertex -79.714577 -92.823814 589.277161
  endloop
 facet normal 0.001539 0.996194 -0.087153
  outer loop
   vertex -79.457085 -92.861549 588.850281
   vertex -79.528404 -92.839760 589.098083
   vertex -78.971939 -92.787468 589.705627
  endloop
 facet normal -0.001533 -0.996196 0.087132
  outer loop
   vertex -79.541832 -95.444572 565.057617
   vertex -79.547913 -95.414070 565.406250
   vertex -79.790627 -95.450409 564.986511
  endloop
 facet normal -0.001514 -0.996197 0.087121
  outer loop
   vertex -79.790627 -95.450409 564.986511
   vertex -79.547913 -95.414070 565.406250
   vertex -79.970871 -95.423996 565.285400
  endloop
 facet normal -0.001479 -0.996195 0.087142
  outer loop
   vertex -79.970871 -95.423996 565.285400
   vertex -79.970428 -95.466362 564.801086
   vertex -79.790627 -95.450409 564.986511
  endloop
 facet normal -0.001521 -0.996195 0.087142
  outer loop
   vertex -80.276535 -95.451111 564.970093
   vertex -79.970428 -95.466362 564.801086
   vertex -79.970871 -95.423996 565.285400
  endloop
 facet normal -0.001520 -0.996195 0.087144
  outer loop
   vertex -80.033058 -95.488152 564.550903
   vertex -79.970428 -95.466362 564.801086
   vertex -80.276535 -95.451111 564.970093
  endloop
 facet normal -0.001535 -0.996195 0.087135
  outer loop
   vertex -80.276535 -95.451111 564.970093
   vertex -80.383011 -95.488152 564.544739
   vertex -80.033058 -95.488152 564.550903
  endloop
 facet normal -0.001535 -0.996195 0.087133
  outer loop
   vertex -80.033058 -95.488152 564.550903
   vertex -80.383011 -95.488152 564.544739
   vertex -79.961739 -95.509941 564.303040
  endloop
 facet normal -0.001531 -0.996195 0.087139
  outer loop
   vertex -79.961739 -95.509941 564.303040
   vertex -80.383011 -95.488152 564.544739
   vertex -80.261757 -95.525192 564.123413
  endloop
 facet normal -0.001521 -0.996196 0.087122
  outer loop
   vertex -80.261757 -95.525192 564.123413
   vertex -79.775566 -95.525887 564.123962
   vertex -79.961739 -95.509941 564.303040
  endloop
 facet normal -0.001521 -0.996195 0.087144
  outer loop
   vertex -79.945274 -95.552307 563.818970
   vertex -79.775566 -95.525887 564.123962
   vertex -80.261757 -95.525192 564.123413
  endloop
 facet normal -0.001535 -0.996194 0.087152
  outer loop
   vertex -79.524445 -95.531731 564.061584
   vertex -79.775566 -95.525887 564.123962
   vertex -79.945274 -95.552307 563.818970
  endloop
 facet normal -0.001524 -0.996196 0.087132
  outer loop
   vertex -79.945274 -95.552307 563.818970
   vertex -79.518356 -95.562233 563.712952
   vertex -79.524445 -95.531731 564.061584
  endloop
 facet normal -0.001502 -0.996196 0.087132
  outer loop
   vertex -79.524445 -95.531731 564.061584
   vertex -79.518356 -95.562233 563.712952
   vertex -79.275642 -95.525887 564.132690
  endloop
 facet normal -0.001521 -0.996195 0.087143
  outer loop
   vertex -79.275642 -95.525887 564.132690
   vertex -79.518356 -95.562233 563.712952
   vertex -78.518509 -95.562233 563.730408
  endloop
 facet normal -0.001532 -0.996196 0.087124
  outer loop
   vertex -78.518509 -95.562233 563.730408
   vertex -79.095840 -95.509941 564.318176
   vertex -79.275642 -95.525887 564.132690
  endloop
 facet normal -0.001513 -0.996195 0.087142
  outer loop
   vertex -79.033211 -95.488152 564.568359
   vertex -79.095840 -95.509941 564.318176
   vertex -78.518509 -95.562233 563.730408
  endloop
 facet normal -0.001527 -0.996195 0.087140
  outer loop
   vertex -78.972702 -93.285568 589.749207
   vertex -79.457840 -93.359650 588.893799
   vertex -78.943138 -93.433731 588.055908
  endloop
 facet normal -0.001521 -0.996195 0.087144
  outer loop
   vertex -78.943138 -93.433731 588.055908
   vertex -79.457840 -93.359650 588.893799
   vertex -79.520477 -93.381439 588.643616
  endloop
 facet normal -0.001536 -0.996196 0.087128
  outer loop
   vertex -79.520477 -93.381439 588.643616
   vertex -79.700279 -93.397385 588.458130
   vertex -78.943138 -93.433731 588.055908
  endloop
 facet normal -0.001535 -0.996194 0.087150
  outer loop
   vertex -79.290703 -95.450409 564.995239
   vertex -79.104538 -95.466362 564.816162
   vertex -78.548065 -95.414070 565.423706
  endloop
 facet normal -0.001539 -0.996194 0.087153
  outer loop
   vertex -78.548065 -95.414070 565.423706
   vertex -79.104538 -95.466362 564.816162
   vertex -79.033211 -95.488152 564.568359
  endloop
 facet normal -0.001516 -0.996195 0.087140
  outer loop
   vertex -79.033211 -95.488152 564.568359
   vertex -78.518509 -95.562233 563.730408
   vertex -78.548065 -95.414070 565.423706
  endloop
 facet normal 0.001516 0.996195 -0.087140
  outer loop
   vertex -78.517746 -95.064133 563.686829
   vertex -79.032455 -94.990051 564.524780
   vertex -78.547310 -94.915970 565.380127
  endloop
 facet normal 0.001539 0.996194 -0.087153
  outer loop
   vertex -78.547310 -94.915970 565.380127
   vertex -79.032455 -94.990051 564.524780
   vertex -79.103775 -94.968262 564.772583
  endloop
 facet normal 0.001499 0.996197 -0.087116
  outer loop
   vertex -79.103775 -94.968262 564.772583
   vertex -79.289940 -94.952316 564.951721
   vertex -78.547310 -94.915970 565.380127
  endloop
 facet normal 0.001511 0.996195 -0.087144
  outer loop
   vertex -79.699516 -92.899292 588.414612
   vertex -79.519714 -92.883339 588.600098
   vertex -78.942383 -92.935631 588.012329
  endloop
 facet normal 0.001513 0.996195 -0.087142
  outer loop
   vertex -78.942383 -92.935631 588.012329
   vertex -79.519714 -92.883339 588.600098
   vertex -79.457085 -92.861549 588.850281
  endloop
 facet normal 0.001516 0.996195 -0.087140
  outer loop
   vertex -79.457085 -92.861549 588.850281
   vertex -78.971939 -92.787468 589.705627
   vertex -78.942383 -92.935631 588.012329
  endloop
 facet normal -0.609293 0.788933 -0.079667
  outer loop
   vertex -81.372742 -94.237190 566.417358
   vertex -81.455940 -94.301025 566.421509
   vertex -81.392891 -94.136208 567.571472
  endloop
 facet normal -0.609283 0.788941 -0.079669
  outer loop
   vertex -81.392891 -94.136208 567.571472
   vertex -81.455940 -94.301025 566.421509
   vertex -81.476082 -94.200035 567.575623
  endloop
 facet normal -0.001526 -0.996195 0.087142
  outer loop
   vertex -80.978714 -94.068604 586.517212
   vertex -81.592155 -94.068604 586.506470
   vertex -80.637627 -95.778320 566.977844
  endloop
 facet normal -0.001526 -0.996195 0.087142
  outer loop
   vertex -80.637627 -95.778320 566.977844
   vertex -81.592155 -94.068604 586.506470
   vertex -81.251068 -95.778320 566.967102
  endloop
 facet normal -0.611621 -0.788995 0.058367
  outer loop
   vertex -81.793510 -94.149666 585.759521
   vertex -81.710503 -94.213493 585.766541
   vertex -81.813652 -94.048676 586.913635
  endloop
 facet normal -0.611728 -0.788914 0.058345
  outer loop
   vertex -81.813652 -94.048676 586.913635
   vertex -81.710503 -94.213493 585.766541
   vertex -81.730652 -94.112511 586.920715
  endloop
 facet normal -0.999848 0.000004 -0.017461
  outer loop
   vertex -79.523682 -95.033630 564.018005
   vertex -79.517593 -95.064133 563.669373
   vertex -79.521019 -95.297928 563.865479
  endloop
 facet normal 0.017419 -0.087142 -0.996044
  outer loop
   vertex -80.533775 -95.893890 566.576965
   vertex -80.531242 -94.237190 566.432068
   vertex -80.042206 -95.643547 566.563660
  endloop
 facet normal -0.001510 -0.996196 0.087132
  outer loop
   vertex -79.547913 -95.414070 565.406250
   vertex -79.541832 -95.444572 565.057617
   vertex -79.290703 -95.450409 564.995239
  endloop
 facet normal -0.001481 -0.996196 0.087133
  outer loop
   vertex -79.949074 -93.403229 588.387085
   vertex -79.942986 -93.433731 588.038452
   vertex -79.700279 -93.397385 588.458130
  endloop
 facet normal 0.999848 -0.000004 0.017461
  outer loop
   vertex -79.517593 -95.064133 563.669373
   vertex -79.524445 -95.531731 564.061584
   vertex -79.518356 -95.562233 563.712952
  endloop
 facet normal 0.001522 0.996195 -0.087136
  outer loop
   vertex -80.532532 -92.750275 586.575134
   vertex -80.561188 -92.606636 588.216797
   vertex -79.020378 -92.606636 588.243713
  endloop
 facet normal -0.001522 -0.996195 0.087136
  outer loop
   vertex -78.646599 -95.599426 566.831421
   vertex -80.187416 -95.599426 566.804504
   vertex -78.617943 -95.743065 565.189758
  endloop
 facet normal 0.999848 -0.000004 0.017461
  outer loop
   vertex -79.972549 -93.285568 589.731750
   vertex -79.965698 -92.817970 589.339539
   vertex -79.971786 -92.787468 589.688171
  endloop
 facet normal -0.017252 0.087169 0.996044
  outer loop
   vertex -81.811317 -92.519646 586.779907
   vertex -81.811562 -92.678009 586.793762
   vertex -81.712906 -92.692657 586.796753
  endloop
 facet normal 0.999848 0.000009 0.017438
  outer loop
   vertex -79.541832 -95.444572 565.057617
   vertex -79.547157 -94.915970 565.362671
   vertex -79.547913 -95.414070 565.406250
  endloop
 facet normal -0.017361 0.087142 0.996045
  outer loop
   vertex -80.886627 -92.455811 586.790466
   vertex -80.889153 -94.112511 586.935364
   vertex -80.395821 -92.706154 586.820923
  endloop
 facet normal 0.017248 -0.087169 -0.996044
  outer loop
   vertex -81.458275 -95.830055 566.555237
   vertex -81.458031 -95.671692 566.541382
   vertex -81.359329 -95.657043 566.541809
  endloop
 facet normal 0.001522 0.996195 -0.087141
  outer loop
   vertex -80.185715 -94.488731 566.707336
   vertex -78.644905 -94.488731 566.734253
   vertex -78.616249 -94.632378 565.092590
  endloop
 facet normal 0.017400 -0.087164 -0.996042
  outer loop
   vertex -78.991722 -92.750275 586.602051
   vertex -78.993416 -93.860970 586.699219
   vertex -80.534233 -93.860970 586.672302
  endloop
 facet normal 0.999848 0.000009 0.017438
  outer loop
   vertex -79.948311 -92.905128 588.343506
   vertex -79.942986 -93.433731 588.038452
   vertex -79.942230 -92.935631 587.994873
  endloop
 facet normal 0.001533 0.996196 -0.087132
  outer loop
   vertex -79.942230 -92.935631 587.994873
   vertex -79.948311 -92.905128 588.343506
   vertex -79.699516 -92.899292 588.414612
  endloop
 facet normal -0.719300 0.061558 0.691967
  outer loop
   vertex -79.519714 -92.883339 588.600098
   vertex -79.700279 -93.397385 588.458130
   vertex -79.520477 -93.381439 588.643616
  endloop
 facet normal -0.970280 0.022536 0.240933
  outer loop
   vertex -79.519714 -92.883339 588.600098
   vertex -79.520477 -93.381439 588.643616
   vertex -79.457085 -92.861549 588.850281
  endloop
 facet normal -0.970273 0.022524 0.240962
  outer loop
   vertex -79.457085 -92.861549 588.850281
   vertex -79.520477 -93.381439 588.643616
   vertex -79.457840 -93.359650 588.893799
  endloop
 facet normal -0.961272 -0.022541 -0.274680
  outer loop
   vertex -79.457840 -93.359650 588.893799
   vertex -79.528404 -92.839760 589.098083
   vertex -79.457085 -92.861549 588.850281
  endloop
 facet normal -0.961282 -0.022556 -0.274643
  outer loop
   vertex -79.529167 -93.337860 589.141663
   vertex -79.528404 -92.839760 589.098083
   vertex -79.457840 -93.359650 588.893799
  endloop
 facet normal -0.694659 -0.061640 -0.716694
  outer loop
   vertex -79.714577 -92.823814 589.277161
   vertex -79.528404 -92.839760 589.098083
   vertex -79.529167 -93.337860 589.141663
  endloop
 facet normal -0.694675 -0.061650 -0.716677
  outer loop
   vertex -79.529167 -93.337860 589.141663
   vertex -79.715332 -93.321907 589.320740
   vertex -79.714577 -92.823814 589.277161
  endloop
 facet normal -0.242061 -0.084203 -0.966601
  outer loop
   vertex -79.714577 -92.823814 589.277161
   vertex -79.715332 -93.321907 589.320740
   vertex -79.965698 -92.817970 589.339539
  endloop
 facet normal -0.275649 0.084200 0.957564
  outer loop
   vertex -79.523682 -95.033630 564.018005
   vertex -79.524445 -95.531731 564.061584
   vertex -79.274887 -95.027794 564.089111
  endloop
 facet normal -0.275643 0.084197 0.957565
  outer loop
   vertex -79.274887 -95.027794 564.089111
   vertex -79.524445 -95.531731 564.061584
   vertex -79.275642 -95.525887 564.132690
  endloop
 facet normal -0.719301 0.061632 0.691959
  outer loop
   vertex -79.275642 -95.525887 564.132690
   vertex -79.095085 -95.011841 564.274597
   vertex -79.274887 -95.027794 564.089111
  endloop
 facet normal -0.719300 0.061631 0.691960
  outer loop
   vertex -79.095840 -95.509941 564.318176
   vertex -79.095085 -95.011841 564.274597
   vertex -79.275642 -95.525887 564.132690
  endloop
 facet normal -0.970280 0.022551 0.240931
  outer loop
   vertex -79.032455 -94.990051 564.524780
   vertex -79.095085 -95.011841 564.274597
   vertex -79.095840 -95.509941 564.318176
  endloop
 facet normal -0.970280 0.022551 0.240931
  outer loop
   vertex -79.095840 -95.509941 564.318176
   vertex -79.033211 -95.488152 564.568359
   vertex -79.032455 -94.990051 564.524780
  endloop
 facet normal -0.961272 -0.022574 -0.274677
  outer loop
   vertex -79.032455 -94.990051 564.524780
   vertex -79.033211 -95.488152 564.568359
   vertex -79.103775 -94.968262 564.772583
  endloop
 facet normal -0.961264 -0.022562 -0.274705
  outer loop
   vertex -79.103775 -94.968262 564.772583
   vertex -79.033211 -95.488152 564.568359
   vertex -79.104538 -95.466362 564.816162
  endloop
 facet normal -0.694795 -0.061628 -0.716563
  outer loop
   vertex -79.104538 -95.466362 564.816162
   vertex -79.289940 -94.952316 564.951721
   vertex -79.103775 -94.968262 564.772583
  endloop
 facet normal -0.242005 -0.084203 -0.966614
  outer loop
   vertex -79.942230 -92.935631 587.994873
   vertex -79.942986 -93.433731 588.038452
   vertex -80.369141 -92.925705 588.100891
  endloop
 facet normal -0.242001 -0.084199 -0.966616
  outer loop
   vertex -80.369141 -92.925705 588.100891
   vertex -79.942986 -93.433731 588.038452
   vertex -80.369904 -93.423805 588.144470
  endloop
 facet normal -0.694677 -0.061638 -0.716676
  outer loop
   vertex -80.369904 -93.423805 588.144470
   vertex -80.685631 -92.898590 588.405334
   vertex -80.369141 -92.925705 588.100891
  endloop
 facet normal -0.694686 -0.061648 -0.716667
  outer loop
   vertex -80.686386 -93.396690 588.448914
   vertex -80.685631 -92.898590 588.405334
   vertex -80.369904 -93.423805 588.144470
  endloop
 facet normal -0.961280 -0.022571 -0.274647
  outer loop
   vertex -80.806877 -92.861549 588.826660
   vertex -80.685631 -92.898590 588.405334
   vertex -80.686386 -93.396690 588.448914
  endloop
 facet normal -0.961276 -0.022558 -0.274664
  outer loop
   vertex -80.686386 -93.396690 588.448914
   vertex -80.807640 -93.359650 588.870239
   vertex -80.806877 -92.861549 588.826660
  endloop
 facet normal -0.970287 0.022563 0.240903
  outer loop
   vertex -80.806877 -92.861549 588.826660
   vertex -80.807640 -93.359650 588.870239
   vertex -80.700409 -92.824509 589.252014
  endloop
 facet normal -0.970283 0.022550 0.240920
  outer loop
   vertex -80.700409 -92.824509 589.252014
   vertex -80.807640 -93.359650 588.870239
   vertex -80.701164 -93.322609 589.295593
  endloop
 facet normal -0.719280 0.061633 0.691981
  outer loop
   vertex -80.701164 -93.322609 589.295593
   vertex -80.394745 -92.797394 589.567322
   vertex -80.700409 -92.824509 589.252014
  endloop
 facet normal -0.719280 0.061633 0.691981
  outer loop
   vertex -80.395500 -93.295494 589.610901
   vertex -80.394745 -92.797394 589.567322
   vertex -80.701164 -93.322609 589.295593
  endloop
 facet normal -0.275581 0.084197 0.957583
  outer loop
   vertex -79.971786 -92.787468 589.688171
   vertex -80.394745 -92.797394 589.567322
   vertex -80.395500 -93.295494 589.610901
  endloop
 facet normal -0.275586 0.084202 0.957582
  outer loop
   vertex -80.395500 -93.295494 589.610901
   vertex -79.972549 -93.285568 589.731750
   vertex -79.971786 -92.787468 589.688171
  endloop
 facet normal -0.242001 -0.084199 -0.966616
  outer loop
   vertex -79.517593 -95.064133 563.669373
   vertex -79.518356 -95.562233 563.712952
   vertex -79.944511 -95.054207 563.775391
  endloop
 facet normal -0.242001 -0.084199 -0.966616
  outer loop
   vertex -79.944511 -95.054207 563.775391
   vertex -79.518356 -95.562233 563.712952
   vertex -79.945274 -95.552307 563.818970
  endloop
 facet normal -0.694757 -0.061632 -0.716599
  outer loop
   vertex -79.945274 -95.552307 563.818970
   vertex -80.260994 -95.027092 564.079895
   vertex -79.944511 -95.054207 563.775391
  endloop
 facet normal -0.694686 -0.061550 -0.716675
  outer loop
   vertex -80.261757 -95.525192 564.123413
   vertex -80.260994 -95.027092 564.079895
   vertex -79.945274 -95.552307 563.818970
  endloop
 facet normal -0.961276 -0.022525 -0.274667
  outer loop
   vertex -80.382248 -94.990051 564.501221
   vertex -80.260994 -95.027092 564.079895
   vertex -80.261757 -95.525192 564.123413
  endloop
 facet normal -0.961276 -0.022525 -0.274667
  outer loop
   vertex -80.261757 -95.525192 564.123413
   vertex -80.383011 -95.488152 564.544739
   vertex -80.382248 -94.990051 564.501221
  endloop
 facet normal -0.970275 0.022538 0.240954
  outer loop
   vertex -80.382248 -94.990051 564.501221
   vertex -80.383011 -95.488152 564.544739
   vertex -80.275772 -94.953011 564.926514
  endloop
 facet normal -0.970283 0.022564 0.240919
  outer loop
   vertex -80.275772 -94.953011 564.926514
   vertex -80.383011 -95.488152 564.544739
   vertex -80.276535 -95.451111 564.970093
  endloop
 facet normal -0.719280 0.061643 0.691980
  outer loop
   vertex -80.276535 -95.451111 564.970093
   vertex -79.970108 -94.925896 565.241821
   vertex -80.275772 -94.953011 564.926514
  endloop
 facet normal -0.719280 0.061643 0.691980
  outer loop
   vertex -79.970871 -95.423996 565.285400
   vertex -79.970108 -94.925896 565.241821
   vertex -80.276535 -95.451111 564.970093
  endloop
 facet normal -0.275586 0.084202 0.957582
  outer loop
   vertex -79.547157 -94.915970 565.362671
   vertex -79.970108 -94.925896 565.241821
   vertex -79.970871 -95.423996 565.285400
  endloop
 facet normal -0.275581 0.084197 0.957583
  outer loop
   vertex -79.970871 -95.423996 565.285400
   vertex -79.547913 -95.414070 565.406250
   vertex -79.547157 -94.915970 565.362671
  endloop
 facet normal -0.694675 -0.061552 -0.716686
  outer loop
   vertex -79.104538 -95.466362 564.816162
   vertex -79.290703 -95.450409 564.995239
   vertex -79.289940 -94.952316 564.951721
  endloop
 facet normal -0.242051 -0.084082 -0.966613
  outer loop
   vertex -79.289940 -94.952316 564.951721
   vertex -79.290703 -95.450409 564.995239
   vertex -79.541832 -95.444572 565.057617
  endloop
 facet normal -0.241833 -0.084203 -0.966658
  outer loop
   vertex -79.541832 -95.444572 565.057617
   vertex -79.541069 -94.946472 565.014038
   vertex -79.289940 -94.952316 564.951721
  endloop
 facet normal 0.275649 -0.084200 -0.957564
  outer loop
   vertex -79.790627 -95.450409 564.986511
   vertex -79.541069 -94.946472 565.014038
   vertex -79.541832 -95.444572 565.057617
  endloop
 facet normal 0.275434 -0.084090 -0.957635
  outer loop
   vertex -79.789864 -94.952316 564.942993
   vertex -79.541069 -94.946472 565.014038
   vertex -79.790627 -95.450409 564.986511
  endloop
 facet normal 0.719188 -0.061568 -0.692082
  outer loop
   vertex -79.790627 -95.450409 564.986511
   vertex -79.970428 -95.466362 564.801086
   vertex -79.789864 -94.952316 564.942993
  endloop
 facet normal 0.719285 -0.061632 -0.691975
  outer loop
   vertex -79.789864 -94.952316 564.942993
   vertex -79.970428 -95.466362 564.801086
   vertex -79.969673 -94.968262 564.757507
  endloop
 facet normal 0.970280 -0.022551 -0.240931
  outer loop
   vertex -79.969673 -94.968262 564.757507
   vertex -79.970428 -95.466362 564.801086
   vertex -80.033058 -95.488152 564.550903
  endloop
 facet normal 0.970280 -0.022551 -0.240931
  outer loop
   vertex -80.033058 -95.488152 564.550903
   vertex -80.032303 -94.990051 564.507324
   vertex -79.969673 -94.968262 564.757507
  endloop
 facet normal 0.961289 0.022569 0.274615
  outer loop
   vertex -79.961739 -95.509941 564.303040
   vertex -80.032303 -94.990051 564.507324
   vertex -80.033058 -95.488152 564.550903
  endloop
 facet normal 0.961282 0.022556 0.274643
  outer loop
   vertex -79.960976 -95.011841 564.259460
   vertex -80.032303 -94.990051 564.507324
   vertex -79.961739 -95.509941 564.303040
  endloop
 facet normal 0.694659 0.061640 0.716694
  outer loop
   vertex -79.961739 -95.509941 564.303040
   vertex -79.775566 -95.525887 564.123962
   vertex -79.960976 -95.011841 564.259460
  endloop
 facet normal 0.694675 0.061650 0.716677
  outer loop
   vertex -79.960976 -95.011841 564.259460
   vertex -79.775566 -95.525887 564.123962
   vertex -79.774811 -95.027794 564.080383
  endloop
 facet normal 0.242061 0.084203 0.966601
  outer loop
   vertex -79.774811 -95.027794 564.080383
   vertex -79.775566 -95.525887 564.123962
   vertex -79.524445 -95.531731 564.061584
  endloop
 facet normal 0.242051 0.084198 0.966603
  outer loop
   vertex -79.524445 -95.531731 564.061584
   vertex -79.523682 -95.033630 564.018005
   vertex -79.774811 -95.027794 564.080383
  endloop
 facet normal -0.719301 0.061558 0.691965
  outer loop
   vertex -79.519714 -92.883339 588.600098
   vertex -79.699516 -92.899292 588.414612
   vertex -79.700279 -93.397385 588.458130
  endloop
 facet normal -0.275649 0.084085 0.957574
  outer loop
   vertex -79.700279 -93.397385 588.458130
   vertex -79.699516 -92.899292 588.414612
   vertex -79.948311 -92.905128 588.343506
  endloop
 facet normal -0.275434 0.084205 0.957625
  outer loop
   vertex -79.948311 -92.905128 588.343506
   vertex -79.949074 -93.403229 588.387085
   vertex -79.700279 -93.397385 588.458130
  endloop
 facet normal 0.242051 0.084198 0.966603
  outer loop
   vertex -80.199440 -92.899292 588.405884
   vertex -79.949074 -93.403229 588.387085
   vertex -79.948311 -92.905128 588.343506
  endloop
 facet normal 0.241832 0.084087 0.966668
  outer loop
   vertex -80.200203 -93.397385 588.449402
   vertex -79.949074 -93.403229 588.387085
   vertex -80.199440 -92.899292 588.405884
  endloop
 facet normal 0.694675 0.061552 0.716686
  outer loop
   vertex -80.199440 -92.899292 588.405884
   vertex -80.385605 -92.883339 588.584961
   vertex -80.200203 -93.397385 588.449402
  endloop
 facet normal 0.694795 0.061628 0.716563
  outer loop
   vertex -80.200203 -93.397385 588.449402
   vertex -80.385605 -92.883339 588.584961
   vertex -80.386368 -93.381439 588.628540
  endloop
 facet normal 0.961282 0.022556 0.274643
  outer loop
   vertex -80.386368 -93.381439 588.628540
   vertex -80.385605 -92.883339 588.584961
   vertex -80.456932 -92.861549 588.832825
  endloop
 facet normal 0.961264 0.022528 0.274708
  outer loop
   vertex -80.456932 -92.861549 588.832825
   vertex -80.457695 -93.359650 588.876343
   vertex -80.386368 -93.381439 588.628540
  endloop
 facet normal 0.970266 -0.022541 -0.240988
  outer loop
   vertex -80.394302 -92.839760 589.082947
   vertex -80.457695 -93.359650 588.876343
   vertex -80.456932 -92.861549 588.832825
  endloop
 facet normal 0.970273 -0.022553 -0.240959
  outer loop
   vertex -80.395058 -93.337860 589.126526
   vertex -80.457695 -93.359650 588.876343
   vertex -80.394302 -92.839760 589.082947
  endloop
 facet normal 0.719300 -0.061631 -0.691960
  outer loop
   vertex -80.394302 -92.839760 589.082947
   vertex -80.214500 -92.823814 589.268433
   vertex -80.395058 -93.337860 589.126526
  endloop
 facet normal 0.719301 -0.061632 -0.691959
  outer loop
   vertex -80.395058 -93.337860 589.126526
   vertex -80.214500 -92.823814 589.268433
   vertex -80.215256 -93.321907 589.312012
  endloop
 facet normal 0.275643 -0.084197 -0.957565
  outer loop
   vertex -80.215256 -93.321907 589.312012
   vertex -80.214500 -92.823814 589.268433
   vertex -79.965698 -92.817970 589.339539
  endloop
 facet normal 0.275649 -0.084200 -0.957564
  outer loop
   vertex -79.965698 -92.817970 589.339539
   vertex -79.966461 -93.316071 589.383118
   vertex -80.215256 -93.321907 589.312012
  endloop
 facet normal -0.242051 -0.084198 -0.966603
  outer loop
   vertex -79.715332 -93.321907 589.320740
   vertex -79.966461 -93.316071 589.383118
   vertex -79.965698 -92.817970 589.339539
  endloop
endsolid