solid stl file generated from DOUG
 facet normal -0.868989 0.466840 0.164071
  outer loop
   vertex 191.569550 22.115942 490.401154
   vertex 191.561386 21.936337 490.868958
   vertex 191.693481 22.318542 490.481079
  endloop
 facet normal -0.869024 0.466794 0.164014
  outer loop
   vertex 191.693481 22.318542 490.481079
   vertex 191.561386 21.936337 490.868958
   vertex 191.685303 22.138937 490.948914
  endloop
 facet normal -0.006285 0.933585 0.358301
  outer loop
   vertex 191.685303 22.138937 490.948914
   vertex 191.944016 22.318542 490.485474
   vertex 191.693481 22.318542 490.481079
  endloop
 facet normal -0.006241 0.933577 0.358322
  outer loop
   vertex 191.935852 22.138937 490.953278
   vertex 191.944016 22.318542 490.485474
   vertex 191.685303 22.138937 490.948914
  endloop
 facet normal 0.862772 0.466781 0.194268
  outer loop
   vertex 192.070648 22.115942 490.409882
   vertex 191.944016 22.318542 490.485474
   vertex 191.935852 22.138937 490.953278
  endloop
 facet normal 0.862760 0.466804 0.194265
  outer loop
   vertex 191.935852 22.138937 490.953278
   vertex 192.062485 21.936337 490.877716
   vertex 192.070648 22.115942 490.409882
  endloop
 facet normal 0.869015 -0.466801 -0.164045
  outer loop
   vertex 192.070648 22.115942 490.409882
   vertex 192.062485 21.936337 490.877716
   vertex 191.946732 21.913342 490.329956
  endloop
 facet normal 0.869023 -0.466784 -0.164047
  outer loop
   vertex 191.946732 21.913342 490.329956
   vertex 192.062485 21.936337 490.877716
   vertex 191.938568 21.733738 490.797760
  endloop
 facet normal 0.006285 -0.933578 -0.358318
  outer loop
   vertex 191.938568 21.733738 490.797760
   vertex 191.696182 21.913342 490.325562
   vertex 191.946732 21.913342 490.329956
  endloop
 facet normal 0.006241 -0.933586 -0.358299
  outer loop
   vertex 191.688019 21.733738 490.793396
   vertex 191.696182 21.913342 490.325562
   vertex 191.938568 21.733738 490.797760
  endloop
 facet normal -0.862772 -0.466786 -0.194256
  outer loop
   vertex 191.569550 22.115942 490.401154
   vertex 191.696182 21.913342 490.325562
   vertex 191.688019 21.733738 490.793396
  endloop
 facet normal -0.862758 -0.466803 -0.194277
  outer loop
   vertex 191.688019 21.733738 490.793396
   vertex 191.561386 21.936337 490.868958
   vertex 191.569550 22.115942 490.401154
  endloop
 facet normal 0.862760 0.466790 0.194300
  outer loop
   vertex 169.970551 21.936338 490.492065
   vertex 169.978729 22.115944 490.024261
   vertex 169.843918 22.138939 490.567627
  endloop
 facet normal 0.862758 0.466794 0.194300
  outer loop
   vertex 169.843918 22.138939 490.567627
   vertex 169.978729 22.115944 490.024261
   vertex 169.852097 22.318542 490.099823
  endloop
 facet normal -0.006241 0.933578 0.358319
  outer loop
   vertex 169.852097 22.318542 490.099823
   vertex 169.593369 22.138939 490.563263
   vertex 169.843918 22.138939 490.567627
  endloop
 facet normal -0.006241 0.933578 0.358319
  outer loop
   vertex 169.601547 22.318542 490.095459
   vertex 169.593369 22.138939 490.563263
   vertex 169.852097 22.318542 490.099823
  endloop
 facet normal -0.869024 0.466791 0.164021
  outer loop
   vertex 169.469452 21.936338 490.483307
   vertex 169.593369 22.138939 490.563263
   vertex 169.601547 22.318542 490.095459
  endloop
 facet normal -0.869023 0.466793 0.164024
  outer loop
   vertex 169.601547 22.318542 490.095459
   vertex 169.477631 22.115944 490.015503
   vertex 169.469452 21.936338 490.483307
  endloop
 facet normal -0.862760 -0.466790 -0.194300
  outer loop
   vertex 169.469452 21.936338 490.483307
   vertex 169.477631 22.115944 490.015503
   vertex 169.596085 21.733738 490.407745
  endloop
 facet normal -0.862760 -0.466790 -0.194300
  outer loop
   vertex 169.596085 21.733738 490.407745
   vertex 169.477631 22.115944 490.015503
   vertex 169.604263 21.913343 489.939941
  endloop
 facet normal 0.006241 -0.933577 -0.358322
  outer loop
   vertex 169.604263 21.913343 489.939941
   vertex 169.846634 21.733738 490.412109
   vertex 169.596085 21.733738 490.407745
  endloop
 facet normal 0.006242 -0.933577 -0.358322
  outer loop
   vertex 169.854797 21.913343 489.944305
   vertex 169.846634 21.733738 490.412109
   vertex 169.604263 21.913343 489.939941
  endloop
 facet normal 0.869025 -0.466781 -0.164048
  outer loop
   vertex 169.970551 21.936338 490.492065
   vertex 169.846634 21.733738 490.412109
   vertex 169.854797 21.913343 489.944305
  endloop
 facet normal 0.868998 -0.466833 -0.164040
  outer loop
   vertex 169.854797 21.913343 489.944305
   vertex 169.978729 22.115944 490.024261
   vertex 169.970551 21.936338 490.492065
  endloop
 facet normal 0.016258 0.358431 -0.933415
  outer loop
   vertex 169.601547 22.318542 490.095459
   vertex 169.852097 22.318542 490.099823
   vertex 169.728180 22.115944 490.019867
  endloop
 facet normal 0.016372 0.358369 -0.933436
  outer loop
   vertex 169.728180 22.115944 490.019867
   vertex 169.852097 22.318542 490.099823
   vertex 169.978729 22.115944 490.024261
  endloop
 facet normal 0.016372 0.358365 -0.933438
  outer loop
   vertex 169.978729 22.115944 490.024261
   vertex 169.854797 21.913343 489.944305
   vertex 169.728180 22.115944 490.019867
  endloop
 facet normal 0.016258 0.358428 -0.933416
  outer loop
   vertex 191.696182 21.913342 490.325562
   vertex 191.569550 22.115942 490.401154
   vertex 191.820099 22.115942 490.405518
  endloop
 facet normal 0.016259 0.358304 -0.933463
  outer loop
   vertex 191.820099 22.115942 490.405518
   vertex 191.569550 22.115942 490.401154
   vertex 191.693481 22.318542 490.481079
  endloop
 facet normal 0.016373 0.358366 -0.933438
  outer loop
   vertex 191.693481 22.318542 490.481079
   vertex 191.944016 22.318542 490.485474
   vertex 191.820099 22.115942 490.405518
  endloop
 facet normal 0.016258 0.358428 -0.933416
  outer loop
   vertex 191.944016 22.318542 490.485474
   vertex 192.070648 22.115942 490.409882
   vertex 191.820099 22.115942 490.405518
  endloop
 facet normal 0.016259 0.358305 -0.933463
  outer loop
   vertex 191.820099 22.115942 490.405518
   vertex 192.070648 22.115942 490.409882
   vertex 191.946732 21.913342 490.329956
  endloop
 facet normal 0.016372 0.358366 -0.933437
  outer loop
   vertex 191.946732 21.913342 490.329956
   vertex 191.696182 21.913342 490.325562
   vertex 191.820099 22.115942 490.405518
  endloop
 facet normal 0.016260 0.358305 -0.933463
  outer loop
   vertex 169.854797 21.913343 489.944305
   vertex 169.604263 21.913343 489.939941
   vertex 169.728180 22.115944 490.019867
  endloop
 facet normal 0.016259 0.358305 -0.933463
  outer loop
   vertex 169.728180 22.115944 490.019867
   vertex 169.604263 21.913343 489.939941
   vertex 169.477631 22.115944 490.015503
  endloop
 facet normal 0.016258 0.358431 -0.933415
  outer loop
   vertex 169.477631 22.115944 490.015503
   vertex 169.601547 22.318542 490.095459
   vertex 169.728180 22.115944 490.019867
  endloop
 facet normal 0.016296 0.358372 -0.933437
  outer loop
   vertex 190.334488 20.803160 492.055450
   vertex 190.326660 21.970320 492.503418
   vertex 193.325424 20.803160 492.107666
  endloop
 facet normal 0.016296 0.358371 -0.933437
  outer loop
   vertex 193.325424 20.803160 492.107666
   vertex 190.326660 21.970320 492.503418
   vertex 193.317612 21.970320 492.555634
  endloop
 facet normal 0.999848 -0.000006 0.017454
  outer loop
   vertex 193.317612 21.970320 492.555634
   vertex 193.302795 20.305534 493.403809
   vertex 193.325424 20.803160 492.107666
  endloop
 facet normal 0.999848 -0.000006 0.017454
  outer loop
   vertex 193.294983 21.472694 493.851776
   vertex 193.302795 20.305534 493.403809
   vertex 193.317612 21.970320 492.555634
  endloop
 facet normal -0.016286 -0.358371 0.933437
  outer loop
   vertex 190.304031 21.472694 493.799591
   vertex 193.302795 20.305534 493.403809
   vertex 193.294983 21.472694 493.851776
  endloop
 facet normal -0.006252 0.933582 0.358310
  outer loop
   vertex 193.294983 21.472694 493.851776
   vertex 190.326660 21.970320 492.503418
   vertex 190.304031 21.472694 493.799591
  endloop
 facet normal -0.999848 -0.000005 -0.017458
  outer loop
   vertex 190.304031 21.472694 493.799591
   vertex 190.326660 21.970320 492.503418
   vertex 190.311859 20.305534 493.351624
  endloop
 facet normal -0.999848 -0.000005 -0.017458
  outer loop
   vertex 190.311859 20.305534 493.351624
   vertex 190.326660 21.970320 492.503418
   vertex 190.334488 20.803160 492.055450
  endloop
 facet normal 0.006252 -0.933582 -0.358310
  outer loop
   vertex 190.334488 20.803160 492.055450
   vertex 193.302795 20.305534 493.403809
   vertex 190.311859 20.305534 493.351624
  endloop
 facet normal 0.006255 -0.933579 -0.358318
  outer loop
   vertex 193.325424 20.803160 492.107666
   vertex 193.302795 20.305534 493.403809
   vertex 190.334488 20.803160 492.055450
  endloop
 facet normal -0.999848 -0.000005 -0.017458
  outer loop
   vertex 168.141739 20.305536 492.964600
   vertex 168.133911 21.472696 493.412567
   vertex 168.164368 20.803162 491.668457
  endloop
 facet normal -0.999848 -0.000005 -0.017458
  outer loop
   vertex 168.164368 20.803162 491.668457
   vertex 168.133911 21.472696 493.412567
   vertex 168.156540 21.970322 492.116425
  endloop
 facet normal 0.016296 0.358372 -0.933437
  outer loop
   vertex 168.156540 21.970322 492.116425
   vertex 171.155304 20.803162 491.720673
   vertex 168.164368 20.803162 491.668457
  endloop
 facet normal 0.016296 0.358371 -0.933437
  outer loop
   vertex 171.147491 21.970322 492.168640
   vertex 171.155304 20.803162 491.720673
   vertex 168.156540 21.970322 492.116425
  endloop
 facet normal 0.999848 -0.000006 0.017454
  outer loop
   vertex 171.124863 21.472696 493.464783
   vertex 171.155304 20.803162 491.720673
   vertex 171.147491 21.970322 492.168640
  endloop
 facet normal -0.006255 0.933579 0.358318
  outer loop
   vertex 171.147491 21.970322 492.168640
   vertex 168.133911 21.472696 493.412567
   vertex 171.124863 21.472696 493.464783
  endloop
 facet normal -0.016296 -0.358371 0.933437
  outer loop
   vertex 171.124863 21.472696 493.464783
   vertex 168.133911 21.472696 493.412567
   vertex 171.132675 20.305536 493.016815
  endloop
 facet normal -0.016296 -0.358372 0.933437
  outer loop
   vertex 171.132675 20.305536 493.016815
   vertex 168.133911 21.472696 493.412567
   vertex 168.141739 20.305536 492.964600
  endloop
 facet normal 0.006255 -0.933579 -0.358318
  outer loop
   vertex 168.141739 20.305536 492.964600
   vertex 171.155304 20.803162 491.720673
   vertex 171.132675 20.305536 493.016815
  endloop
 facet normal 0.006255 -0.933579 -0.358318
  outer loop
   vertex 168.164368 20.803162 491.668457
   vertex 171.155304 20.803162 491.720673
   vertex 168.141739 20.305536 492.964600
  endloop
 facet normal -0.006255 0.933579 0.358318
  outer loop
   vertex 171.147491 21.970322 492.168640
   vertex 168.156540 21.970322 492.116425
   vertex 168.133911 21.472696 493.412567
  endloop
 facet normal -0.006255 0.933579 0.358318
  outer loop
   vertex 193.317612 21.970320 492.555634
   vertex 190.326660 21.970320 492.503418
   vertex 193.294983 21.472694 493.851776
  endloop
 facet normal 0.999848 -0.000006 0.017454
  outer loop
   vertex 171.124863 21.472696 493.464783
   vertex 171.132675 20.305536 493.016815
   vertex 171.155304 20.803162 491.720673
  endloop
 facet normal -0.016286 -0.358372 0.933437
  outer loop
   vertex 190.304031 21.472694 493.799591
   vertex 190.311859 20.305534 493.351624
   vertex 193.302795 20.305534 493.403809
  endloop
 facet normal 0.016294 0.358375 -0.933436
  outer loop
   vertex 190.598038 21.646519 489.416473
   vertex 170.983337 21.748850 489.113373
   vertex 190.597351 21.748850 489.455750
  endloop
 facet normal 0.004643 0.963968 -0.265979
  outer loop
   vertex 190.597351 21.748850 489.455750
   vertex 170.983337 21.748850 489.113373
   vertex 190.594910 21.787495 489.595764
  endloop
 facet normal 0.004991 0.958159 -0.286193
  outer loop
   vertex 171.722733 23.117035 489.588165
   vertex 170.562439 23.147070 489.668488
   vertex 171.720978 23.147070 489.688690
  endloop
 facet normal -0.006248 0.933581 0.358311
  outer loop
   vertex 171.720978 23.147070 489.688690
   vertex 170.562439 23.147070 489.668488
   vertex 170.548721 22.845457 490.454102
  endloop
 facet normal 0.006248 -0.933581 -0.358311
  outer loop
   vertex 190.995300 21.292892 490.214935
   vertex 189.850479 21.594505 489.409119
   vertex 191.009018 21.594505 489.429321
  endloop
 facet normal 0.014886 -0.520588 -0.853678
  outer loop
   vertex 191.009018 21.594505 489.429321
   vertex 189.850479 21.594505 489.409119
   vertex 189.851425 21.684111 489.354492
  endloop
 facet normal 0.014708 -0.538455 -0.842526
  outer loop
   vertex 170.973526 22.887468 489.675568
   vertex 170.974884 23.009892 489.597351
   vertex 190.588898 23.009892 489.939758
  endloop
 facet normal 0.016295 0.358375 -0.933436
  outer loop
   vertex 190.588898 23.009892 489.939758
   vertex 170.974884 23.009892 489.597351
   vertex 190.588211 23.112223 489.979034
  endloop
 facet normal 0.017455 -0.000850 -0.999847
  outer loop
   vertex 170.971283 21.402323 489.803650
   vertex 190.585297 21.402323 490.146057
   vertex 170.971283 21.366413 489.803680
  endloop
 facet normal 0.017453 -0.000000 -0.999848
  outer loop
   vertex 170.971283 21.366413 489.803680
   vertex 190.585297 21.402323 490.146057
   vertex 190.585297 21.366411 490.146057
  endloop
 facet normal 0.006254 -0.933584 -0.358305
  outer loop
   vertex 190.585297 21.366411 490.146057
   vertex 170.970139 21.341106 489.869598
   vertex 170.971283 21.366413 489.803680
  endloop
 facet normal -0.999846 0.000041 -0.017528
  outer loop
   vertex 170.572830 21.594507 489.072601
   vertex 170.571091 21.810879 489.172333
   vertex 170.573792 21.684111 489.017975
  endloop
 facet normal -0.999846 0.000050 -0.017536
  outer loop
   vertex 170.573792 21.684111 489.017975
   vertex 170.571091 21.810879 489.172333
   vertex 170.572800 21.832518 489.074951
  endloop
 facet normal 0.016301 0.358460 -0.933403
  outer loop
   vertex 170.572800 21.832518 489.074951
   vertex 171.732330 21.684111 489.038208
   vertex 170.573792 21.684111 489.017975
  endloop
 facet normal 0.999848 0.000013 0.017449
  outer loop
   vertex 190.998611 23.147070 490.025208
   vertex 190.999847 22.919529 489.954559
   vertex 191.000366 23.117033 489.924683
  endloop
 facet normal 0.999849 0.000005 0.017393
  outer loop
   vertex 191.000366 23.117033 489.924683
   vertex 190.999847 22.919529 489.954559
   vertex 191.001358 22.968628 489.867706
  endloop
 facet normal 0.016301 0.358464 -0.933401
  outer loop
   vertex 191.001358 22.968628 489.867706
   vertex 189.841827 23.117033 489.904449
   vertex 191.000366 23.117033 489.924683
  endloop
 facet normal 0.999849 0.000008 0.017394
  outer loop
   vertex 171.723724 22.968628 489.531219
   vertex 171.722733 23.117035 489.588165
   vertex 171.722214 22.919531 489.618073
  endloop
 facet normal 0.999848 0.000016 0.017449
  outer loop
   vertex 171.722214 22.919531 489.618073
   vertex 171.722733 23.117035 489.588165
   vertex 171.720978 23.147070 489.688690
  endloop
 facet normal 0.999848 0.000011 0.017463
  outer loop
   vertex 171.720978 23.147070 489.688690
   vertex 171.707260 22.845457 490.474304
   vertex 171.722214 22.919531 489.618073
  endloop
 facet normal -0.006248 0.933581 0.358311
  outer loop
   vertex 170.548721 22.845457 490.454102
   vertex 171.707260 22.845457 490.474304
   vertex 171.720978 23.147070 489.688690
  endloop
 facet normal 0.014709 -0.538300 -0.842625
  outer loop
   vertex 190.588898 23.009892 489.939758
   vertex 190.587540 22.887466 490.017944
   vertex 170.973526 22.887468 489.675568
  endloop
 facet normal 0.016294 0.358372 -0.933437
  outer loop
   vertex 170.973526 22.887468 489.675568
   vertex 190.587540 22.887466 490.017944
   vertex 190.594910 21.787495 489.595764
  endloop
 facet normal 0.016294 0.358371 -0.933437
  outer loop
   vertex 190.594910 21.787495 489.595764
   vertex 170.980896 21.787495 489.253387
   vertex 170.973526 22.887468 489.675568
  endloop
 facet normal 0.004643 0.963968 -0.265979
  outer loop
   vertex 170.983337 21.748850 489.113373
   vertex 170.980896 21.787495 489.253387
   vertex 190.594910 21.787495 489.595764
  endloop
 facet normal 0.006248 -0.933581 -0.358311
  outer loop
   vertex 190.995300 21.292892 490.214935
   vertex 189.836761 21.292892 490.194733
   vertex 189.850479 21.594505 489.409119
  endloop
 facet normal -0.999848 0.000008 -0.017456
  outer loop
   vertex 189.850479 21.594505 489.409119
   vertex 189.836761 21.292892 490.194733
   vertex 189.848740 21.810879 489.508850
  endloop
 facet normal -0.999849 -0.000032 -0.017369
  outer loop
   vertex 189.848740 21.810879 489.508850
   vertex 189.851425 21.684111 489.354492
   vertex 189.850479 21.594505 489.409119
  endloop
 facet normal -0.999849 -0.000011 -0.017387
  outer loop
   vertex 189.850433 21.832518 489.411438
   vertex 189.851425 21.684111 489.354492
   vertex 189.848740 21.810879 489.508850
  endloop
 facet normal -0.012964 -0.669601 0.742608
  outer loop
   vertex 190.595291 21.622192 489.573364
   vertex 170.981277 21.622194 489.230957
   vertex 190.595718 21.595514 489.549316
  endloop
 facet normal -0.012970 -0.669132 0.743031
  outer loop
   vertex 190.595718 21.595514 489.549316
   vertex 170.981277 21.622194 489.230957
   vertex 170.981705 21.595516 489.206940
  endloop
 facet normal 0.006255 -0.933573 -0.358332
  outer loop
   vertex 170.981705 21.595516 489.206940
   vertex 190.598038 21.646519 489.416473
   vertex 190.595718 21.595514 489.549316
  endloop
 facet normal 0.006255 -0.933578 -0.358320
  outer loop
   vertex 170.984024 21.646519 489.074097
   vertex 190.598038 21.646519 489.416473
   vertex 170.981705 21.595516 489.206940
  endloop
 facet normal 0.016294 0.358375 -0.933436
  outer loop
   vertex 170.983337 21.748850 489.113373
   vertex 190.598038 21.646519 489.416473
   vertex 170.984024 21.646519 489.074097
  endloop
 facet normal 0.016284 0.358375 -0.933436
  outer loop
   vertex 192.389557 21.423204 490.664551
   vertex 190.734680 22.464087 491.035309
   vertex 192.382584 22.464087 491.064056
  endloop
 facet normal -0.006251 0.933580 0.358314
  outer loop
   vertex 192.382584 22.464087 491.064056
   vertex 190.734680 22.464087 491.035309
   vertex 192.357468 21.911821 492.502533
  endloop
 facet normal 0.999848 -0.000002 0.017457
  outer loop
   vertex 192.357468 21.911821 492.502533
   vertex 192.364441 20.870939 492.103027
   vertex 192.382584 22.464087 491.064056
  endloop
 facet normal -0.016284 -0.358375 0.933436
  outer loop
   vertex 190.709564 21.911821 492.473785
   vertex 192.364441 20.870939 492.103027
   vertex 192.357468 21.911821 492.502533
  endloop
 facet normal -0.016284 -0.358375 0.933436
  outer loop
   vertex 190.716537 20.870939 492.074280
   vertex 192.364441 20.870939 492.103027
   vertex 190.709564 21.911821 492.473785
  endloop
 facet normal -0.999848 0.000002 -0.017457
  outer loop
   vertex 190.709564 21.911821 492.473785
   vertex 190.734680 22.464087 491.035309
   vertex 190.716537 20.870939 492.074280
  endloop
 facet normal -0.999848 0.000002 -0.017457
  outer loop
   vertex 190.716537 20.870939 492.074280
   vertex 190.734680 22.464087 491.035309
   vertex 190.741653 21.423204 490.635803
  endloop
 facet normal 0.016284 0.358375 -0.933436
  outer loop
   vertex 190.741653 21.423204 490.635803
   vertex 190.734680 22.464087 491.035309
   vertex 192.389557 21.423204 490.664551
  endloop
 facet normal 0.006251 -0.933580 -0.358314
  outer loop
   vertex 192.389557 21.423204 490.664551
   vertex 192.364441 20.870939 492.103027
   vertex 190.741653 21.423204 490.635803
  endloop
 facet normal 0.999848 -0.000002 0.017457
  outer loop
   vertex 192.382584 22.464087 491.064056
   vertex 192.364441 20.870939 492.103027
   vertex 192.389557 21.423204 490.664551
  endloop
 facet normal 0.006257 -0.933580 -0.358314
  outer loop
   vertex 169.150024 21.423206 490.258881
   vertex 170.797943 21.423206 490.287659
   vertex 169.124924 20.870941 491.697357
  endloop
 facet normal 0.006257 -0.933580 -0.358314
  outer loop
   vertex 169.124924 20.870941 491.697357
   vertex 170.797943 21.423206 490.287659
   vertex 170.772827 20.870941 491.726135
  endloop
 facet normal -0.016301 -0.358375 0.933435
  outer loop
   vertex 170.772827 20.870941 491.726135
   vertex 169.117950 21.911823 492.096863
   vertex 169.124924 20.870941 491.697357
  endloop
 facet normal -0.016301 -0.358375 0.933435
  outer loop
   vertex 170.765854 21.911823 492.125641
   vertex 169.117950 21.911823 492.096863
   vertex 170.772827 20.870941 491.726135
  endloop
 facet normal -0.006257 0.933580 0.358314
  outer loop
   vertex 170.790970 22.464088 490.687164
   vertex 169.117950 21.911823 492.096863
   vertex 170.765854 21.911823 492.125641
  endloop
 facet normal 0.999848 -0.000002 0.017457
  outer loop
   vertex 170.765854 21.911823 492.125641
   vertex 170.797943 21.423206 490.287659
   vertex 170.790970 22.464088 490.687164
  endloop
 facet normal 0.016301 0.358375 -0.933435
  outer loop
   vertex 170.790970 22.464088 490.687164
   vertex 170.797943 21.423206 490.287659
   vertex 169.143051 22.464088 490.658386
  endloop
 facet normal 0.016301 0.358375 -0.933435
  outer loop
   vertex 169.143051 22.464088 490.658386
   vertex 170.797943 21.423206 490.287659
   vertex 169.150024 21.423206 490.258881
  endloop
 facet normal -0.999848 -0.000002 -0.017448
  outer loop
   vertex 169.150024 21.423206 490.258881
   vertex 169.117950 21.911823 492.096863
   vertex 169.143051 22.464088 490.658386
  endloop
 facet normal -0.999848 -0.000002 -0.017448
  outer loop
   vertex 169.124924 20.870941 491.697357
   vertex 169.117950 21.911823 492.096863
   vertex 169.150024 21.423206 490.258881
  endloop
 facet normal -0.016280 -0.358390 0.933430
  outer loop
   vertex 193.813797 21.956644 491.553070
   vertex 193.463852 21.956644 491.546967
   vertex 193.466980 21.489855 491.367798
  endloop
 facet normal 0.016362 0.358390 -0.933429
  outer loop
   vertex 193.466980 21.489855 491.367798
   vertex 193.463852 21.956644 491.546967
   vertex 193.640381 21.723249 491.460449
  endloop
 facet normal 0.016362 0.358390 -0.933429
  outer loop
   vertex 193.640381 21.723249 491.460449
   vertex 193.816925 21.489855 491.373932
   vertex 193.466980 21.489855 491.367798
  endloop
 facet normal 0.016280 0.358336 -0.933451
  outer loop
   vertex 193.813797 21.956644 491.553070
   vertex 193.816925 21.489855 491.373932
   vertex 193.640381 21.723249 491.460449
  endloop
 facet normal 0.999848 0.000001 0.017456
  outer loop
   vertex 193.800629 21.131485 492.307373
   vertex 193.816925 21.489855 491.373932
   vertex 193.813797 21.956644 491.553070
  endloop
 facet normal 0.999848 0.000001 0.017456
  outer loop
   vertex 193.813797 21.956644 491.553070
   vertex 193.797501 21.598276 492.486511
   vertex 193.800629 21.131485 492.307373
  endloop
 facet normal -0.016307 -0.358335 0.933451
  outer loop
   vertex 193.800629 21.131485 492.307373
   vertex 193.797501 21.598276 492.486511
   vertex 192.100891 21.131485 492.277679
  endloop
 facet normal -0.016290 -0.358388 0.933430
  outer loop
   vertex 192.100891 21.131485 492.277679
   vertex 193.797501 21.598276 492.486511
   vertex 192.097763 21.598276 492.456848
  endloop
 facet normal -0.999848 -0.000000 -0.017456
  outer loop
   vertex 192.097763 21.598276 492.456848
   vertex 192.114059 21.956646 491.523407
   vertex 192.100891 21.131485 492.277679
  endloop
 facet normal -0.006246 0.933580 0.358314
  outer loop
   vertex 192.526901 21.867052 491.764038
   vertex 192.114059 21.956646 491.523407
   vertex 192.097763 21.598276 492.456848
  endloop
 facet normal -0.006250 0.933578 0.358320
  outer loop
   vertex 192.464005 21.956646 491.529510
   vertex 192.114059 21.956646 491.523407
   vertex 192.526901 21.867052 491.764038
  endloop
 facet normal 0.006261 -0.933580 -0.358314
  outer loop
   vertex 168.977524 21.400265 491.173737
   vertex 169.398514 21.489857 490.947662
   vertex 169.382217 21.131487 491.881104
  endloop
 facet normal 0.999848 0.000000 0.017456
  outer loop
   vertex 169.382217 21.131487 491.881104
   vertex 169.398514 21.489857 490.947662
   vertex 169.379089 21.598278 492.060272
  endloop
 facet normal -0.016290 -0.358388 0.933430
  outer loop
   vertex 169.379089 21.598278 492.060272
   vertex 167.682480 21.131487 491.851440
   vertex 169.382217 21.131487 491.881104
  endloop
 facet normal -0.016307 -0.358335 0.933451
  outer loop
   vertex 167.679352 21.598278 492.030579
   vertex 167.682480 21.131487 491.851440
   vertex 169.379089 21.598278 492.060272
  endloop
 facet normal -0.999848 -0.000001 -0.017456
  outer loop
   vertex 167.698776 21.489857 490.917999
   vertex 167.682480 21.131487 491.851440
   vertex 167.679352 21.598278 492.030579
  endloop
 facet normal -0.999848 0.000000 -0.017456
  outer loop
   vertex 167.679352 21.598278 492.030579
   vertex 167.695648 21.956646 491.097168
   vertex 167.698776 21.489857 490.917999
  endloop
 facet normal 0.016200 0.358390 -0.933432
  outer loop
   vertex 167.698776 21.489857 490.917999
   vertex 167.695648 21.956646 491.097168
   vertex 167.872177 21.723251 491.010620
  endloop
 facet normal 0.016280 0.358442 -0.933410
  outer loop
   vertex 167.872177 21.723251 491.010620
   vertex 167.695648 21.956646 491.097168
   vertex 168.045593 21.956646 491.103271
  endloop
 facet normal 0.016361 0.358390 -0.933429
  outer loop
   vertex 168.045593 21.956646 491.103271
   vertex 168.048721 21.489857 490.924103
   vertex 167.872177 21.723251 491.010620
  endloop
 facet normal -0.016280 -0.358390 0.933430
  outer loop
   vertex 167.698776 21.489857 490.917999
   vertex 168.048721 21.489857 490.924103
   vertex 168.045593 21.956646 491.103271
  endloop
 facet normal 0.016281 0.358337 -0.933450
  outer loop
   vertex 167.872177 21.723251 491.010620
   vertex 168.048721 21.489857 490.924103
   vertex 167.698776 21.489857 490.917999
  endloop
 facet normal 0.016295 0.358375 -0.933436
  outer loop
   vertex 170.974884 23.009892 489.597351
   vertex 170.974197 23.112223 489.636627
   vertex 190.588211 23.112223 489.979034
  endloop
 facet normal -0.006255 0.933578 0.358320
  outer loop
   vertex 190.588211 23.112223 489.979034
   vertex 170.974197 23.112223 489.636627
   vertex 170.971878 23.061220 489.769470
  endloop
 facet normal -0.006255 0.933573 0.358332
  outer loop
   vertex 170.971878 23.061220 489.769470
   vertex 190.585892 23.061218 490.111877
   vertex 190.588211 23.112223 489.979034
  endloop
 facet normal -0.017455 0.000850 0.999847
  outer loop
   vertex 170.971878 23.025311 489.769501
   vertex 190.585892 23.061218 490.111877
   vertex 170.971878 23.061220 489.769470
  endloop
 facet normal -0.017453 0.000000 0.999848
  outer loop
   vertex 190.585892 23.025309 490.111877
   vertex 190.585892 23.061218 490.111877
   vertex 170.971878 23.025311 489.769501
  endloop
 facet normal -0.006255 0.933579 0.358316
  outer loop
   vertex 170.971878 23.025311 489.769501
   vertex 170.961884 22.805439 490.342194
   vertex 190.585892 23.025309 490.111877
  endloop
 facet normal -0.006255 0.933580 0.358313
  outer loop
   vertex 190.585892 23.025309 490.111877
   vertex 170.961884 22.805439 490.342194
   vertex 190.575897 22.805439 490.684570
  endloop
 facet normal 0.012970 0.669128 -0.743034
  outer loop
   vertex 190.575897 22.805439 490.684570
   vertex 170.961884 22.805439 490.342194
   vertex 170.961472 22.832117 490.366211
  endloop
 facet normal 0.012964 0.669627 -0.742584
  outer loop
   vertex 170.961472 22.832117 490.366211
   vertex 190.575470 22.832115 490.708618
   vertex 190.575897 22.805439 490.684570
  endloop
 facet normal -0.006255 0.933584 0.358304
  outer loop
   vertex 170.960312 22.806810 490.432129
   vertex 190.575470 22.832115 490.708618
   vertex 170.961472 22.832117 490.366211
  endloop
 facet normal -0.006255 0.933584 0.358305
  outer loop
   vertex 190.574326 22.806808 490.774536
   vertex 190.575470 22.832115 490.708618
   vertex 170.960312 22.806810 490.432129
  endloop
 facet normal -0.016295 -0.358360 0.933441
  outer loop
   vertex 170.960312 22.806810 490.432129
   vertex 170.970139 21.341106 489.869598
   vertex 190.574326 22.806808 490.774536
  endloop
 facet normal -0.016294 -0.358377 0.933435
  outer loop
   vertex 190.574326 22.806808 490.774536
   vertex 170.970139 21.341106 489.869598
   vertex 190.584152 21.341105 490.211975
  endloop
 facet normal 0.006254 -0.933584 -0.358305
  outer loop
   vertex 190.584152 21.341105 490.211975
   vertex 170.970139 21.341106 489.869598
   vertex 190.585297 21.366411 490.146057
  endloop
 facet normal 0.006276 -0.933580 -0.358314
  outer loop
   vertex 192.530029 21.400263 491.584900
   vertex 192.100891 21.131485 492.277679
   vertex 192.117188 21.489855 491.344238
  endloop
 facet normal -0.999848 -0.000000 -0.017456
  outer loop
   vertex 192.117188 21.489855 491.344238
   vertex 192.100891 21.131485 492.277679
   vertex 192.114059 21.956646 491.523407
  endloop
 facet normal 0.016362 0.358388 -0.933429
  outer loop
   vertex 192.114059 21.956646 491.523407
   vertex 192.467133 21.489855 491.350372
   vertex 192.117188 21.489855 491.344238
  endloop
 facet normal 0.016281 0.358335 -0.933451
  outer loop
   vertex 192.464005 21.956646 491.529510
   vertex 192.467133 21.489855 491.350372
   vertex 192.114059 21.956646 491.523407
  endloop
 facet normal -0.016281 -0.358335 0.933451
  outer loop
   vertex 192.114059 21.956646 491.523407
   vertex 192.467133 21.489855 491.350372
   vertex 192.464005 21.956646 491.529510
  endloop
 facet normal -0.006250 0.933573 0.358332
  outer loop
   vertex 192.464005 21.956646 491.529510
   vertex 192.535049 22.046238 491.297333
   vertex 192.114059 21.956646 491.523407
  endloop
 facet normal -0.006258 0.933579 0.358318
  outer loop
   vertex 192.114059 21.956646 491.523407
   vertex 192.535049 22.046238 491.297333
   vertex 192.234848 22.108952 491.128693
  endloop
 facet normal -0.006258 0.933579 0.358318
  outer loop
   vertex 192.234848 22.108952 491.128693
   vertex 192.535049 22.046238 491.297333
   vertex 192.721024 22.111824 491.129700
  endloop
 facet normal -0.006258 0.933590 0.358287
  outer loop
   vertex 192.721024 22.111824 491.129700
   vertex 192.550980 22.220448 490.843689
   vertex 192.234848 22.108952 491.128693
  endloop
 facet normal -0.006259 0.933590 0.358288
  outer loop
   vertex 192.972076 22.135830 491.071533
   vertex 192.550980 22.220448 490.843689
   vertex 192.721024 22.111824 491.129700
  endloop
 facet normal -0.006265 0.933587 0.358297
  outer loop
   vertex 192.977768 22.261259 490.744812
   vertex 192.550980 22.220448 490.843689
   vertex 192.972076 22.135830 491.071533
  endloop
 facet normal -0.006255 0.933587 0.358297
  outer loop
   vertex 192.972076 22.135830 491.071533
   vertex 193.220947 22.111824 491.138428
   vertex 192.977768 22.261259 490.744812
  endloop
 facet normal -0.006269 0.933583 0.358305
  outer loop
   vertex 192.977768 22.261259 490.744812
   vertex 193.220947 22.111824 491.138428
   vertex 193.400848 22.220448 490.858551
  endloop
 facet normal -0.006237 0.933577 0.358323
  outer loop
   vertex 193.400848 22.220448 490.858551
   vertex 193.220947 22.111824 491.138428
   vertex 193.400940 22.046238 491.312439
  endloop
 facet normal -0.006259 0.933577 0.358323
  outer loop
   vertex 193.400940 22.046238 491.312439
   vertex 193.706863 22.108952 491.154388
   vertex 193.400848 22.220448 490.858551
  endloop
 facet normal -0.006259 0.933577 0.358323
  outer loop
   vertex 193.463852 21.956644 491.546967
   vertex 193.706863 22.108952 491.154388
   vertex 193.400940 22.046238 491.312439
  endloop
 facet normal -0.006250 0.933575 0.358328
  outer loop
   vertex 193.813797 21.956644 491.553070
   vertex 193.706863 22.108952 491.154388
   vertex 193.463852 21.956644 491.546967
  endloop
 facet normal -0.006250 0.933574 0.358331
  outer loop
   vertex 193.463852 21.956644 491.546967
   vertex 193.392792 21.867052 491.779144
   vertex 193.813797 21.956644 491.553070
  endloop
 facet normal -0.006262 0.933581 0.358312
  outer loop
   vertex 193.813797 21.956644 491.553070
   vertex 193.392792 21.867052 491.779144
   vertex 193.797501 21.598276 492.486511
  endloop
 facet normal -0.006225 0.933588 0.358294
  outer loop
   vertex 193.797501 21.598276 492.486511
   vertex 193.392792 21.867052 491.779144
   vertex 193.206833 21.801466 491.946808
  endloop
 facet normal -0.006251 0.933578 0.358319
  outer loop
   vertex 193.206833 21.801466 491.946808
   vertex 192.955780 21.777460 492.004974
   vertex 193.797501 21.598276 492.486511
  endloop
 facet normal -0.006262 0.933581 0.358312
  outer loop
   vertex 168.974396 21.867054 491.352905
   vertex 169.379089 21.598278 492.060272
   vertex 169.395386 21.956646 491.126831
  endloop
 facet normal 0.999848 0.000000 0.017456
  outer loop
   vertex 169.395386 21.956646 491.126831
   vertex 169.379089 21.598278 492.060272
   vertex 169.398514 21.489857 490.947662
  endloop
 facet normal 0.016280 0.358390 -0.933430
  outer loop
   vertex 169.398514 21.489857 490.947662
   vertex 169.045441 21.956646 491.120728
   vertex 169.395386 21.956646 491.126831
  endloop
 facet normal 0.016280 0.358390 -0.933430
  outer loop
   vertex 169.048569 21.489857 490.941559
   vertex 169.045441 21.956646 491.120728
   vertex 169.398514 21.489857 490.947662
  endloop
 facet normal -0.016280 -0.358390 0.933430
  outer loop
   vertex 169.398514 21.489857 490.947662
   vertex 169.045441 21.956646 491.120728
   vertex 169.048569 21.489857 490.941559
  endloop
 facet normal 0.006249 -0.933580 -0.358313
  outer loop
   vertex 169.048569 21.489857 490.941559
   vertex 168.985672 21.579449 490.707031
   vertex 169.398514 21.489857 490.947662
  endloop
 facet normal 0.006258 -0.933576 -0.358326
  outer loop
   vertex 169.398514 21.489857 490.947662
   vertex 168.985672 21.579449 490.707031
   vertex 169.291580 21.642162 490.548981
  endloop
 facet normal 0.006251 -0.933572 -0.358337
  outer loop
   vertex 169.291580 21.642162 490.548981
   vertex 168.985672 21.579449 490.707031
   vertex 168.805664 21.645035 490.533020
  endloop
 facet normal 0.006250 -0.933590 -0.358287
  outer loop
   vertex 168.805664 21.645035 490.533020
   vertex 168.985580 21.753660 490.253113
   vertex 169.291580 21.642162 490.548981
  endloop
 facet normal 0.006251 -0.933591 -0.358287
  outer loop
   vertex 168.556793 21.669041 490.466125
   vertex 168.985580 21.753660 490.253113
   vertex 168.805664 21.645035 490.533020
  endloop
 facet normal 0.006245 -0.933587 -0.358297
  outer loop
   vertex 168.562500 21.794470 490.139404
   vertex 168.985580 21.753660 490.253113
   vertex 168.556793 21.669041 490.466125
  endloop
 facet normal 0.006256 -0.933587 -0.358297
  outer loop
   vertex 168.556793 21.669041 490.466125
   vertex 168.305740 21.645035 490.524292
   vertex 168.562500 21.794470 490.139404
  endloop
 facet normal 0.006261 -0.933588 -0.358294
  outer loop
   vertex 168.562500 21.794470 490.139404
   vertex 168.305740 21.645035 490.524292
   vertex 168.135696 21.753660 490.238281
  endloop
 facet normal 0.006275 -0.933585 -0.358302
  outer loop
   vertex 168.135696 21.753660 490.238281
   vertex 168.305740 21.645035 490.524292
   vertex 168.119766 21.579449 490.691925
  endloop
 facet normal 0.006242 -0.933585 -0.358303
  outer loop
   vertex 168.119766 21.579449 490.691925
   vertex 167.819565 21.642164 490.523285
   vertex 168.135696 21.753660 490.238281
  endloop
 facet normal 0.006259 -0.933574 -0.358329
  outer loop
   vertex 168.048721 21.489857 490.924103
   vertex 167.819565 21.642164 490.523285
   vertex 168.119766 21.579449 490.691925
  endloop
 facet normal 0.006250 -0.933576 -0.358324
  outer loop
   vertex 167.698776 21.489857 490.917999
   vertex 167.819565 21.642164 490.523285
   vertex 168.048721 21.489857 490.924103
  endloop
 facet normal 0.006249 -0.933580 -0.358313
  outer loop
   vertex 168.048721 21.489857 490.924103
   vertex 168.111618 21.400265 491.158630
   vertex 167.698776 21.489857 490.917999
  endloop
 facet normal 0.006250 -0.933580 -0.358314
  outer loop
   vertex 167.698776 21.489857 490.917999
   vertex 168.111618 21.400265 491.158630
   vertex 167.682480 21.131487 491.851440
  endloop
 facet normal 0.006273 -0.933585 -0.358301
  outer loop
   vertex 167.682480 21.131487 491.851440
   vertex 168.111618 21.400265 491.158630
   vertex 168.291626 21.334679 491.332672
  endloop
 facet normal 0.006254 -0.933578 -0.358321
  outer loop
   vertex 168.291626 21.334679 491.332672
   vertex 168.540497 21.310671 491.399567
   vertex 167.682480 21.131487 491.851440
  endloop
 facet normal -0.012976 0.667925 0.744115
  outer loop
   vertex 170.548721 22.845457 490.454102
   vertex 170.542282 22.434797 490.822601
   vertex 171.707260 22.845457 490.474304
  endloop
 facet normal -0.012995 0.667956 0.744088
  outer loop
   vertex 171.707260 22.845457 490.474304
   vertex 170.542282 22.434797 490.822601
   vertex 171.700821 22.434797 490.842834
  endloop
 facet normal 0.999847 -0.000001 0.017469
  outer loop
   vertex 171.700821 22.434797 490.842834
   vertex 171.708084 21.351448 490.427032
   vertex 171.707260 22.845457 490.474304
  endloop
 facet normal -0.016302 -0.358373 0.933436
  outer loop
   vertex 170.542282 22.434797 490.822601
   vertex 171.708084 21.351448 490.427032
   vertex 171.700821 22.434797 490.842834
  endloop
 facet normal -0.016302 -0.358373 0.933436
  outer loop
   vertex 170.549545 21.351448 490.406799
   vertex 171.708084 21.351448 490.427032
   vertex 170.542282 22.434797 490.822601
  endloop
 facet normal -0.999847 -0.000000 -0.017465
  outer loop
   vertex 170.542282 22.434797 490.822601
   vertex 170.559128 21.292892 489.858215
   vertex 170.549545 21.351448 490.406799
  endloop
 facet normal -0.001853 -0.994353 0.106104
  outer loop
   vertex 170.549545 21.351448 490.406799
   vertex 170.559128 21.292892 489.858215
   vertex 171.708084 21.351448 490.427032
  endloop
 facet normal -0.001850 -0.994354 0.106099
  outer loop
   vertex 171.708084 21.351448 490.427032
   vertex 170.559128 21.292892 489.858215
   vertex 171.717667 21.292892 489.878418
  endloop
 facet normal 0.999847 -0.000001 0.017464
  outer loop
   vertex 171.717667 21.292892 489.878418
   vertex 171.707260 22.845457 490.474304
   vertex 171.708084 21.351448 490.427032
  endloop
 facet normal 0.999848 0.000006 0.017445
  outer loop
   vertex 171.729630 21.810879 489.192566
   vertex 171.707260 22.845457 490.474304
   vertex 171.717667 21.292892 489.878418
  endloop
 facet normal 0.999848 -0.000013 0.017461
  outer loop
   vertex 171.722214 22.919531 489.618073
   vertex 171.707260 22.845457 490.474304
   vertex 171.729630 21.810879 489.192566
  endloop
 facet normal 0.016302 0.358368 -0.933438
  outer loop
   vertex 171.729630 21.810879 489.192566
   vertex 170.563675 22.919531 489.597839
   vertex 171.722214 22.919531 489.618073
  endloop
 facet normal 0.008592 -0.870568 -0.491973
  outer loop
   vertex 171.722214 22.919531 489.618073
   vertex 170.563675 22.919531 489.597839
   vertex 171.723724 22.968628 489.531219
  endloop
 facet normal 0.008592 -0.870568 -0.491973
  outer loop
   vertex 171.723724 22.968628 489.531219
   vertex 170.563675 22.919531 489.597839
   vertex 170.565186 22.968628 489.510986
  endloop
 facet normal 0.016302 0.358293 -0.933467
  outer loop
   vertex 170.565186 22.968628 489.510986
   vertex 171.722733 23.117035 489.588165
   vertex 171.723724 22.968628 489.531219
  endloop
 facet normal 0.016302 0.358293 -0.933467
  outer loop
   vertex 170.564194 23.117035 489.567932
   vertex 171.722733 23.117035 489.588165
   vertex 170.565186 22.968628 489.510986
  endloop
 facet normal 0.004997 0.958183 -0.286114
  outer loop
   vertex 170.562439 23.147070 489.668488
   vertex 171.722733 23.117035 489.588165
   vertex 170.564194 23.117035 489.567932
  endloop
 facet normal -0.999848 -0.000015 -0.017444
  outer loop
   vertex 170.564194 23.117035 489.567932
   vertex 170.563675 22.919531 489.597839
   vertex 170.562439 23.147070 489.668488
  endloop
 facet normal -0.999848 -0.000009 -0.017462
  outer loop
   vertex 170.562439 23.147070 489.668488
   vertex 170.563675 22.919531 489.597839
   vertex 170.548721 22.845457 490.454102
  endloop
 facet normal -0.999848 0.000013 -0.017460
  outer loop
   vertex 170.548721 22.845457 490.454102
   vertex 170.563675 22.919531 489.597839
   vertex 170.571091 21.810879 489.172333
  endloop
 facet normal -0.999848 -0.000007 -0.017444
  outer loop
   vertex 170.571091 21.810879 489.172333
   vertex 170.559128 21.292892 489.858215
   vertex 170.548721 22.845457 490.454102
  endloop
 facet normal -0.999848 -0.000000 -0.017439
  outer loop
   vertex 170.572830 21.594507 489.072601
   vertex 170.559128 21.292892 489.858215
   vertex 170.571091 21.810879 489.172333
  endloop
 facet normal 0.006248 -0.933580 -0.358313
  outer loop
   vertex 171.717667 21.292892 489.878418
   vertex 170.559128 21.292892 489.858215
   vertex 170.572830 21.594507 489.072601
  endloop
 facet normal 0.006256 -0.933577 -0.358323
  outer loop
   vertex 170.572830 21.594507 489.072601
   vertex 171.731369 21.594505 489.092834
   vertex 171.717667 21.292892 489.878418
  endloop
 facet normal 0.999848 -0.000000 0.017440
  outer loop
   vertex 171.717667 21.292892 489.878418
   vertex 171.731369 21.594505 489.092834
   vertex 171.729630 21.810879 489.192566
  endloop
 facet normal 0.999846 -0.000041 0.017528
  outer loop
   vertex 171.729630 21.810879 489.192566
   vertex 171.731369 21.594505 489.092834
   vertex 171.732330 21.684111 489.038208
  endloop
 facet normal 0.999846 -0.000045 0.017531
  outer loop
   vertex 171.732330 21.684111 489.038208
   vertex 171.731339 21.832518 489.095154
   vertex 171.729630 21.810879 489.192566
  endloop
 facet normal 0.016278 0.358293 -0.933467
  outer loop
   vertex 170.572800 21.832518 489.074951
   vertex 171.731339 21.832518 489.095154
   vertex 171.732330 21.684111 489.038208
  endloop
 facet normal -0.003780 0.976212 0.216787
  outer loop
   vertex 171.729630 21.810879 489.192566
   vertex 171.731339 21.832518 489.095154
   vertex 170.572800 21.832518 489.074951
  endloop
 facet normal -0.003787 0.976197 0.216851
  outer loop
   vertex 170.572800 21.832518 489.074951
   vertex 170.571091 21.810879 489.172333
   vertex 171.729630 21.810879 489.192566
  endloop
 facet normal 0.016302 0.358368 -0.933438
  outer loop
   vertex 171.729630 21.810879 489.192566
   vertex 170.571091 21.810879 489.172333
   vertex 170.563675 22.919531 489.597839
  endloop
 facet normal -0.001850 -0.994354 0.106095
  outer loop
   vertex 190.995300 21.292892 490.214935
   vertex 190.985733 21.351446 490.763550
   vertex 189.836761 21.292892 490.194733
  endloop
 facet normal -0.001853 -0.994354 0.106101
  outer loop
   vertex 189.836761 21.292892 490.194733
   vertex 190.985733 21.351446 490.763550
   vertex 189.827194 21.351446 490.743317
  endloop
 facet normal -0.999848 -0.000011 -0.017436
  outer loop
   vertex 189.827194 21.351446 490.743317
   vertex 189.819931 22.434795 491.159119
   vertex 189.836761 21.292892 490.194733
  endloop
 facet normal -0.016302 -0.358373 0.933436
  outer loop
   vertex 190.985733 21.351446 490.763550
   vertex 189.819931 22.434795 491.159119
   vertex 189.827194 21.351446 490.743317
  endloop
 facet normal -0.016302 -0.358373 0.933436
  outer loop
   vertex 190.978470 22.434795 491.179352
   vertex 189.819931 22.434795 491.159119
   vertex 190.985733 21.351446 490.763550
  endloop
 facet normal 0.999847 -0.000001 0.017469
  outer loop
   vertex 190.985733 21.351446 490.763550
   vertex 190.984909 22.845455 490.810822
   vertex 190.978470 22.434795 491.179352
  endloop
 facet normal -0.012995 0.667956 0.744088
  outer loop
   vertex 190.978470 22.434795 491.179352
   vertex 190.984909 22.845455 490.810822
   vertex 189.819931 22.434795 491.159119
  endloop
 facet normal -0.012995 0.667956 0.744088
  outer loop
   vertex 189.819931 22.434795 491.159119
   vertex 190.984909 22.845455 490.810822
   vertex 189.826370 22.845455 490.790588
  endloop
 facet normal -0.999848 0.000009 -0.017460
  outer loop
   vertex 189.826370 22.845455 490.790588
   vertex 189.836761 21.292892 490.194733
   vertex 189.819931 22.434795 491.159119
  endloop
 facet normal -0.999848 0.000003 -0.017444
  outer loop
   vertex 189.841309 22.919529 489.934357
   vertex 189.836761 21.292892 490.194733
   vertex 189.826370 22.845455 490.790588
  endloop
 facet normal -0.999848 -0.000000 -0.017461
  outer loop
   vertex 189.848740 21.810879 489.508850
   vertex 189.836761 21.292892 490.194733
   vertex 189.841309 22.919529 489.934357
  endloop
 facet normal 0.016277 0.358368 -0.933438
  outer loop
   vertex 189.841309 22.919529 489.934357
   vertex 191.007278 21.810879 489.529053
   vertex 189.848740 21.810879 489.508850
  endloop
 facet normal -0.003780 0.976212 0.216787
  outer loop
   vertex 189.848740 21.810879 489.508850
   vertex 191.007278 21.810879 489.529053
   vertex 189.850433 21.832518 489.411438
  endloop
 facet normal -0.003787 0.976197 0.216852
  outer loop
   vertex 189.850433 21.832518 489.411438
   vertex 191.007278 21.810879 489.529053
   vertex 191.008972 21.832518 489.431671
  endloop
 facet normal 0.016302 0.358293 -0.933467
  outer loop
   vertex 191.008972 21.832518 489.431671
   vertex 189.851425 21.684111 489.354492
   vertex 189.850433 21.832518 489.411438
  endloop
 facet normal 0.016303 0.358289 -0.933468
  outer loop
   vertex 191.009964 21.684109 489.374725
   vertex 189.851425 21.684111 489.354492
   vertex 191.008972 21.832518 489.431671
  endloop
 facet normal 0.014910 -0.520384 -0.853802
  outer loop
   vertex 191.009018 21.594505 489.429321
   vertex 189.851425 21.684111 489.354492
   vertex 191.009964 21.684109 489.374725
  endloop
 facet normal 0.999849 0.000030 0.017374
  outer loop
   vertex 191.009964 21.684109 489.374725
   vertex 191.007278 21.810879 489.529053
   vertex 191.009018 21.594505 489.429321
  endloop
 facet normal 0.999848 -0.000008 0.017456
  outer loop
   vertex 191.009018 21.594505 489.429321
   vertex 191.007278 21.810879 489.529053
   vertex 190.995300 21.292892 490.214935
  endloop
 facet normal 0.999848 0.000000 0.017461
  outer loop
   vertex 190.995300 21.292892 490.214935
   vertex 191.007278 21.810879 489.529053
   vertex 190.999847 22.919529 489.954559
  endloop
 facet normal 0.999848 -0.000003 0.017443
  outer loop
   vertex 190.999847 22.919529 489.954559
   vertex 190.984909 22.845455 490.810822
   vertex 190.995300 21.292892 490.214935
  endloop
 facet normal 0.999848 0.000015 0.017445
  outer loop
   vertex 190.998611 23.147070 490.025208
   vertex 190.984909 22.845455 490.810822
   vertex 190.999847 22.919529 489.954559
  endloop
 facet normal -0.006258 0.933580 0.358313
  outer loop
   vertex 189.826370 22.845455 490.790588
   vertex 190.984909 22.845455 490.810822
   vertex 190.998611 23.147070 490.025208
  endloop
 facet normal -0.006248 0.933576 0.358326
  outer loop
   vertex 190.998611 23.147070 490.025208
   vertex 189.840073 23.147070 490.005005
   vertex 189.826370 22.845455 490.790588
  endloop
 facet normal -0.999848 -0.000015 -0.017445
  outer loop
   vertex 189.826370 22.845455 490.790588
   vertex 189.840073 23.147070 490.005005
   vertex 189.841309 22.919529 489.934357
  endloop
 facet normal -0.999848 -0.000015 -0.017444
  outer loop
   vertex 189.841309 22.919529 489.934357
   vertex 189.840073 23.147070 490.005005
   vertex 189.841827 23.117033 489.904449
  endloop
 facet normal -0.999849 -0.000008 -0.017394
  outer loop
   vertex 189.841827 23.117033 489.904449
   vertex 189.842819 22.968628 489.847504
   vertex 189.841309 22.919529 489.934357
  endloop
 facet normal 0.016278 0.358297 -0.933466
  outer loop
   vertex 191.001358 22.968628 489.867706
   vertex 189.842819 22.968628 489.847504
   vertex 189.841827 23.117033 489.904449
  endloop
 facet normal 0.008579 -0.870560 -0.491988
  outer loop
   vertex 189.841309 22.919529 489.934357
   vertex 189.842819 22.968628 489.847504
   vertex 191.001358 22.968628 489.867706
  endloop
 facet normal 0.008579 -0.870560 -0.491988
  outer loop
   vertex 191.001358 22.968628 489.867706
   vertex 190.999847 22.919529 489.954559
   vertex 189.841309 22.919529 489.934357
  endloop
 facet normal 0.016277 0.358368 -0.933438
  outer loop
   vertex 189.841309 22.919529 489.934357
   vertex 190.999847 22.919529 489.954559
   vertex 191.007278 21.810879 489.529053
  endloop
 facet normal -0.006249 0.933580 0.358313
  outer loop
   vertex 169.045441 21.956646 491.120728
   vertex 169.395386 21.956646 491.126831
   vertex 168.982544 22.046238 490.886200
  endloop
 facet normal -0.006242 0.933585 0.358302
  outer loop
   vertex 168.982544 22.046238 490.886200
   vertex 169.395386 21.956646 491.126831
   vertex 169.288452 22.108953 490.728119
  endloop
 facet normal -0.006253 0.933592 0.358283
  outer loop
   vertex 169.288452 22.108953 490.728119
   vertex 168.802536 22.111824 490.712158
   vertex 168.982544 22.046238 490.886200
  endloop
 facet normal -0.006254 0.933578 0.358319
  outer loop
   vertex 168.982452 22.220449 490.432281
   vertex 168.802536 22.111824 490.712158
   vertex 169.288452 22.108953 490.728119
  endloop
 facet normal -0.006254 0.933578 0.358319
  outer loop
   vertex 168.553665 22.135832 490.645264
   vertex 168.802536 22.111824 490.712158
   vertex 168.982452 22.220449 490.432281
  endloop
 facet normal -0.006250 0.933575 0.358326
  outer loop
   vertex 168.982452 22.220449 490.432281
   vertex 168.559372 22.261261 490.318573
   vertex 168.553665 22.135832 490.645264
  endloop
 facet normal -0.006256 0.933575 0.358326
  outer loop
   vertex 168.553665 22.135832 490.645264
   vertex 168.559372 22.261261 490.318573
   vertex 168.302612 22.111824 490.703430
  endloop
 facet normal -0.006257 0.933576 0.358326
  outer loop
   vertex 168.302612 22.111824 490.703430
   vertex 168.559372 22.261261 490.318573
   vertex 168.132568 22.220449 490.417450
  endloop
 facet normal -0.006253 0.933577 0.358323
  outer loop
   vertex 168.132568 22.220449 490.417450
   vertex 168.116638 22.046238 490.871063
   vertex 168.302612 22.111824 490.703430
  endloop
 facet normal -0.006256 0.933577 0.358323
  outer loop
   vertex 167.816437 22.108953 490.702423
   vertex 168.116638 22.046238 490.871063
   vertex 168.132568 22.220449 490.417450
  endloop
 facet normal -0.006237 0.933588 0.358294
  outer loop
   vertex 168.045593 21.956646 491.103271
   vertex 168.116638 22.046238 490.871063
   vertex 167.816437 22.108953 490.702423
  endloop
 facet normal -0.006249 0.933585 0.358300
  outer loop
   vertex 167.816437 22.108953 490.702423
   vertex 167.695648 21.956646 491.097168
   vertex 168.045593 21.956646 491.103271
  endloop
 facet normal -0.006249 0.933580 0.358313
  outer loop
   vertex 168.045593 21.956646 491.103271
   vertex 167.695648 21.956646 491.097168
   vertex 168.108490 21.867054 491.337799
  endloop
 facet normal -0.006256 0.933577 0.358323
  outer loop
   vertex 168.108490 21.867054 491.337799
   vertex 167.695648 21.956646 491.097168
   vertex 167.679352 21.598278 492.030579
  endloop
 facet normal -0.006243 0.933574 0.358329
  outer loop
   vertex 167.679352 21.598278 492.030579
   vertex 168.288498 21.801468 491.511810
   vertex 168.108490 21.867054 491.337799
  endloop
 facet normal -0.006259 0.933581 0.358313
  outer loop
   vertex 168.537369 21.777462 491.578705
   vertex 168.288498 21.801468 491.511810
   vertex 167.679352 21.598278 492.030579
  endloop
 facet normal 0.006280 -0.933592 -0.358283
  outer loop
   vertex 192.467133 21.489855 491.350372
   vertex 192.117188 21.489855 491.344238
   vertex 192.538177 21.579447 491.118164
  endloop
 facet normal 0.006255 -0.933577 -0.358323
  outer loop
   vertex 192.538177 21.579447 491.118164
   vertex 192.117188 21.489855 491.344238
   vertex 192.237961 21.642162 490.949524
  endloop
 facet normal 0.006254 -0.933577 -0.358322
  outer loop
   vertex 192.237961 21.642162 490.949524
   vertex 192.724152 21.645033 490.950531
   vertex 192.538177 21.579447 491.118164
  endloop
 facet normal 0.006254 -0.933576 -0.358324
  outer loop
   vertex 192.554108 21.753658 490.664551
   vertex 192.724152 21.645033 490.950531
   vertex 192.237961 21.642162 490.949524
  endloop
 facet normal 0.006250 -0.933577 -0.358322
  outer loop
   vertex 192.975204 21.669039 490.892365
   vertex 192.724152 21.645033 490.950531
   vertex 192.554108 21.753658 490.664551
  endloop
 facet normal 0.006253 -0.933575 -0.358327
  outer loop
   vertex 192.554108 21.753658 490.664551
   vertex 192.980896 21.794468 490.565674
   vertex 192.975204 21.669039 490.892365
  endloop
 facet normal 0.006263 -0.933575 -0.358326
  outer loop
   vertex 192.975204 21.669039 490.892365
   vertex 192.980896 21.794468 490.565674
   vertex 193.224075 21.645033 490.959259
  endloop
 facet normal 0.006252 -0.933578 -0.358320
  outer loop
   vertex 193.224075 21.645033 490.959259
   vertex 192.980896 21.794468 490.565674
   vertex 193.403976 21.753658 490.679382
  endloop
 facet normal 0.006241 -0.933575 -0.358327
  outer loop
   vertex 193.403976 21.753658 490.679382
   vertex 193.404068 21.579447 491.133270
   vertex 193.224075 21.645033 490.959259
  endloop
 facet normal 0.006263 -0.933575 -0.358327
  outer loop
   vertex 193.709991 21.642162 490.975220
   vertex 193.404068 21.579447 491.133270
   vertex 193.403976 21.753658 490.679382
  endloop
 facet normal 0.006268 -0.933579 -0.358318
  outer loop
   vertex 193.466980 21.489855 491.367798
   vertex 193.404068 21.579447 491.133270
   vertex 193.709991 21.642162 490.975220
  endloop
 facet normal 0.006281 -0.933581 -0.358311
  outer loop
   vertex 193.709991 21.642162 490.975220
   vertex 193.816925 21.489855 491.373932
   vertex 193.466980 21.489855 491.367798
  endloop
 facet normal 0.006280 -0.933592 -0.358282
  outer loop
   vertex 193.466980 21.489855 491.367798
   vertex 193.816925 21.489855 491.373932
   vertex 193.395920 21.400263 491.600006
  endloop
 facet normal 0.006261 -0.933580 -0.358314
  outer loop
   vertex 193.395920 21.400263 491.600006
   vertex 193.816925 21.489855 491.373932
   vertex 193.800629 21.131485 492.307373
  endloop
 facet normal 0.006262 -0.933580 -0.358315
  outer loop
   vertex 193.800629 21.131485 492.307373
   vertex 193.209961 21.334677 491.767639
   vertex 193.395920 21.400263 491.600006
  endloop
 facet normal 0.006254 -0.933583 -0.358307
  outer loop
   vertex 192.958908 21.310671 491.825806
   vertex 193.209961 21.334677 491.767639
   vertex 193.800629 21.131485 492.307373
  endloop
 facet normal 0.006253 -0.933577 -0.358323
  outer loop
   vertex 167.682480 21.131487 491.851440
   vertex 168.540497 21.310671 491.399567
   vertex 169.382217 21.131487 491.881104
  endloop
 facet normal 0.006256 -0.933575 -0.358326
  outer loop
   vertex 169.382217 21.131487 491.881104
   vertex 168.540497 21.310671 491.399567
   vertex 168.791550 21.334679 491.341400
  endloop
 facet normal 0.006223 -0.933588 -0.358295
  outer loop
   vertex 168.791550 21.334679 491.341400
   vertex 168.977524 21.400265 491.173737
   vertex 169.382217 21.131487 491.881104
  endloop
 facet normal 0.006245 -0.933574 -0.358331
  outer loop
   vertex 192.530029 21.400263 491.584900
   vertex 192.710037 21.334677 491.758911
   vertex 192.100891 21.131485 492.277679
  endloop
 facet normal 0.006260 -0.933580 -0.358315
  outer loop
   vertex 192.100891 21.131485 492.277679
   vertex 192.710037 21.334677 491.758911
   vertex 192.958908 21.310671 491.825806
  endloop
 facet normal 0.006260 -0.933580 -0.358316
  outer loop
   vertex 192.958908 21.310671 491.825806
   vertex 193.800629 21.131485 492.307373
   vertex 192.100891 21.131485 492.277679
  endloop
 facet normal -0.006253 0.933577 0.358323
  outer loop
   vertex 193.797501 21.598276 492.486511
   vertex 192.955780 21.777460 492.004974
   vertex 192.097763 21.598276 492.456848
  endloop
 facet normal -0.006259 0.933581 0.358313
  outer loop
   vertex 192.097763 21.598276 492.456848
   vertex 192.955780 21.777460 492.004974
   vertex 192.706909 21.801466 491.938080
  endloop
 facet normal -0.006272 0.933585 0.358300
  outer loop
   vertex 192.706909 21.801466 491.938080
   vertex 192.526901 21.867052 491.764038
   vertex 192.097763 21.598276 492.456848
  endloop
 facet normal -0.006263 0.933581 0.358313
  outer loop
   vertex 168.974396 21.867054 491.352905
   vertex 168.788422 21.801468 491.520538
   vertex 169.379089 21.598278 492.060272
  endloop
 facet normal -0.006254 0.933584 0.358304
  outer loop
   vertex 169.379089 21.598278 492.060272
   vertex 168.788422 21.801468 491.520538
   vertex 168.537369 21.777462 491.578705
  endloop
 facet normal -0.006260 0.933581 0.358312
  outer loop
   vertex 168.537369 21.777462 491.578705
   vertex 167.679352 21.598278 492.030579
   vertex 169.379089 21.598278 492.060272
  endloop
 facet normal 0.004991 0.958154 -0.286210
  outer loop
   vertex 190.998611 23.147070 490.025208
   vertex 191.000366 23.117033 489.924683
   vertex 189.840073 23.147070 490.005005
  endloop
 facet normal 0.004997 0.958178 -0.286130
  outer loop
   vertex 189.840073 23.147070 490.005005
   vertex 191.000366 23.117033 489.924683
   vertex 189.841827 23.117033 489.904449
  endloop
 facet normal 0.006255 -0.933579 -0.358316
  outer loop
   vertex 170.971283 21.402323 489.803650
   vertex 170.981277 21.622194 489.230957
   vertex 190.585297 21.402323 490.146057
  endloop
 facet normal 0.006255 -0.933580 -0.358313
  outer loop
   vertex 190.585297 21.402323 490.146057
   vertex 170.981277 21.622194 489.230957
   vertex 190.595291 21.622192 489.573364
  endloop
 facet normal 0.014909 -0.520590 -0.853676
  outer loop
   vertex 171.732330 21.684111 489.038208
   vertex 171.731369 21.594505 489.092834
   vertex 170.573792 21.684111 489.017975
  endloop
 facet normal 0.014908 -0.520598 -0.853672
  outer loop
   vertex 170.573792 21.684111 489.017975
   vertex 171.731369 21.594505 489.092834
   vertex 170.572830 21.594507 489.072601
  endloop
 facet normal 0.016281 0.358336 -0.933451
  outer loop
   vertex 193.463852 21.956644 491.546967
   vertex 193.813797 21.956644 491.553070
   vertex 193.640381 21.723249 491.460449
  endloop
 facet normal 0.999848 -0.000000 0.017436
  outer loop
   vertex 190.995300 21.292892 490.214935
   vertex 190.984909 22.845455 490.810822
   vertex 190.985733 21.351446 490.763550
  endloop
 facet normal 0.006281 -0.933577 -0.358321
  outer loop
   vertex 192.117188 21.489855 491.344238
   vertex 192.467133 21.489855 491.350372
   vertex 192.530029 21.400263 491.584900
  endloop
 facet normal 0.006250 -0.933573 -0.358332
  outer loop
   vertex 169.048569 21.489857 490.941559
   vertex 169.398514 21.489857 490.947662
   vertex 168.977524 21.400265 491.173737
  endloop
 facet normal -0.016362 -0.358336 0.933449
  outer loop
   vertex 193.813797 21.956644 491.553070
   vertex 193.466980 21.489855 491.367798
   vertex 193.816925 21.489855 491.373932
  endloop
 facet normal -0.006257 0.933580 0.358314
  outer loop
   vertex 170.790970 22.464088 490.687164
   vertex 169.143051 22.464088 490.658386
   vertex 169.117950 21.911823 492.096863
  endloop
 facet normal 0.006251 -0.933580 -0.358314
  outer loop
   vertex 190.716537 20.870939 492.074280
   vertex 190.741653 21.423204 490.635803
   vertex 192.364441 20.870939 492.103027
  endloop
 facet normal -0.016280 -0.358390 0.933430
  outer loop
   vertex 167.698776 21.489857 490.917999
   vertex 168.045593 21.956646 491.103271
   vertex 167.695648 21.956646 491.097168
  endloop
 facet normal -0.999849 -0.000008 -0.017394
  outer loop
   vertex 170.564194 23.117035 489.567932
   vertex 170.565186 22.968628 489.510986
   vertex 170.563675 22.919531 489.597839
  endloop
 facet normal -0.016362 -0.358388 0.933429
  outer loop
   vertex 192.467133 21.489855 491.350372
   vertex 192.114059 21.956646 491.523407
   vertex 192.117188 21.489855 491.344238
  endloop
 facet normal -0.999847 0.000003 -0.017468
  outer loop
   vertex 170.548721 22.845457 490.454102
   vertex 170.559128 21.292892 489.858215
   vertex 170.542282 22.434797 490.822601
  endloop
 facet normal 0.999849 0.000009 0.017392
  outer loop
   vertex 191.009964 21.684109 489.374725
   vertex 191.008972 21.832518 489.431671
   vertex 191.007278 21.810879 489.529053
  endloop
 facet normal -0.006251 0.933580 0.358314
  outer loop
   vertex 190.734680 22.464087 491.035309
   vertex 190.709564 21.911821 492.473785
   vertex 192.357468 21.911821 492.502533
  endloop
 facet normal 0.999848 -0.000002 0.017457
  outer loop
   vertex 170.765854 21.911823 492.125641
   vertex 170.772827 20.870941 491.726135
   vertex 170.797943 21.423206 490.287659
  endloop
 facet normal -0.016280 -0.358390 0.933430
  outer loop
   vertex 169.045441 21.956646 491.120728
   vertex 169.398514 21.489857 490.947662
   vertex 169.395386 21.956646 491.126831
  endloop
 facet normal -0.006250 0.933573 0.358332
  outer loop
   vertex 169.395386 21.956646 491.126831
   vertex 169.045441 21.956646 491.120728
   vertex 168.974396 21.867054 491.352905
  endloop
 facet normal -0.695513 0.253368 -0.672359
  outer loop
   vertex 168.788422 21.801468 491.520538
   vertex 168.977524 21.400265 491.173737
   vertex 168.791550 21.334679 491.341400
  endloop
 facet normal -0.243045 0.346125 -0.906160
  outer loop
   vertex 168.788422 21.801468 491.520538
   vertex 168.791550 21.334679 491.341400
   vertex 168.537369 21.777462 491.578705
  endloop
 facet normal -0.243048 0.346124 -0.906160
  outer loop
   vertex 168.537369 21.777462 491.578705
   vertex 168.791550 21.334679 491.341400
   vertex 168.540497 21.310671 491.399567
  endloop
 facet normal 0.274527 0.346125 -0.897125
  outer loop
   vertex 168.540497 21.310671 491.399567
   vertex 168.288498 21.801468 491.511810
   vertex 168.537369 21.777462 491.578705
  endloop
 facet normal 0.274529 0.346126 -0.897123
  outer loop
   vertex 168.291626 21.334679 491.332672
   vertex 168.288498 21.801468 491.511810
   vertex 168.540497 21.310671 491.399567
  endloop
 facet normal 0.718487 0.253396 -0.647740
  outer loop
   vertex 168.108490 21.867054 491.337799
   vertex 168.288498 21.801468 491.511810
   vertex 168.291626 21.334679 491.332672
  endloop
 facet normal 0.718540 0.253413 -0.647675
  outer loop
   vertex 168.291626 21.334679 491.332672
   vertex 168.111618 21.400265 491.158630
   vertex 168.108490 21.867054 491.337799
  endloop
 facet normal 0.970002 0.092750 -0.224708
  outer loop
   vertex 168.108490 21.867054 491.337799
   vertex 168.111618 21.400265 491.158630
   vertex 168.045593 21.956646 491.103271
  endloop
 facet normal -0.961548 0.092774 -0.258492
  outer loop
   vertex 193.463852 21.956644 491.546967
   vertex 193.466980 21.489855 491.367798
   vertex 193.392792 21.867052 491.779144
  endloop
 facet normal -0.961557 0.092749 -0.258470
  outer loop
   vertex 193.392792 21.867052 491.779144
   vertex 193.466980 21.489855 491.367798
   vertex 193.395920 21.400263 491.600006
  endloop
 facet normal -0.695543 0.253358 -0.672332
  outer loop
   vertex 193.395920 21.400263 491.600006
   vertex 193.206833 21.801466 491.946808
   vertex 193.392792 21.867052 491.779144
  endloop
 facet normal -0.695486 0.253416 -0.672369
  outer loop
   vertex 193.209961 21.334677 491.767639
   vertex 193.206833 21.801466 491.946808
   vertex 193.395920 21.400263 491.600006
  endloop
 facet normal -0.243046 0.346177 -0.906140
  outer loop
   vertex 192.955780 21.777460 492.004974
   vertex 193.206833 21.801466 491.946808
   vertex 193.209961 21.334677 491.767639
  endloop
 facet normal -0.243046 0.346177 -0.906140
  outer loop
   vertex 193.209961 21.334677 491.767639
   vertex 192.958908 21.310671 491.825806
   vertex 192.955780 21.777460 492.004974
  endloop
 facet normal 0.274527 0.346177 -0.897105
  outer loop
   vertex 192.955780 21.777460 492.004974
   vertex 192.958908 21.310671 491.825806
   vertex 192.706909 21.801466 491.938080
  endloop
 facet normal 0.274527 0.346177 -0.897105
  outer loop
   vertex 192.706909 21.801466 491.938080
   vertex 192.958908 21.310671 491.825806
   vertex 192.710037 21.334677 491.758911
  endloop
 facet normal 0.718540 0.253413 -0.647675
  outer loop
   vertex 192.710037 21.334677 491.758911
   vertex 192.526901 21.867052 491.764038
   vertex 192.706909 21.801466 491.938080
  endloop
 facet normal 0.969999 0.092755 -0.224719
  outer loop
   vertex 169.395386 21.956646 491.126831
   vertex 169.398514 21.489857 490.947662
   vertex 169.288452 22.108953 490.728119
  endloop
 facet normal 0.969995 0.092747 -0.224739
  outer loop
   vertex 169.288452 22.108953 490.728119
   vertex 169.398514 21.489857 490.947662
   vertex 169.291580 21.642162 490.548981
  endloop
 facet normal 0.718521 0.253383 -0.647707
  outer loop
   vertex 169.291580 21.642162 490.548981
   vertex 168.982452 22.220449 490.432281
   vertex 169.288452 22.108953 490.728119
  endloop
 facet normal 0.718553 0.253409 -0.647662
  outer loop
   vertex 168.985580 21.753660 490.253113
   vertex 168.982452 22.220449 490.432281
   vertex 169.291580 21.642162 490.548981
  endloop
 facet normal 0.274504 0.346179 -0.897111
  outer loop
   vertex 168.559372 22.261261 490.318573
   vertex 168.982452 22.220449 490.432281
   vertex 168.985580 21.753660 490.253113
  endloop
 facet normal 0.274502 0.346178 -0.897111
  outer loop
   vertex 168.985580 21.753660 490.253113
   vertex 168.562500 21.794470 490.139404
   vertex 168.559372 22.261261 490.318573
  endloop
 facet normal -0.243027 0.346178 -0.906145
  outer loop
   vertex 168.559372 22.261261 490.318573
   vertex 168.562500 21.794470 490.139404
   vertex 168.132568 22.220449 490.417450
  endloop
 facet normal -0.243026 0.346179 -0.906145
  outer loop
   vertex 168.132568 22.220449 490.417450
   vertex 168.562500 21.794470 490.139404
   vertex 168.135696 21.753660 490.238281
  endloop
 facet normal -0.695481 0.253418 -0.672373
  outer loop
   vertex 168.135696 21.753660 490.238281
   vertex 167.816437 22.108953 490.702423
   vertex 168.132568 22.220449 490.417450
  endloop
 facet normal -0.695514 0.253368 -0.672358
  outer loop
   vertex 167.819565 21.642164 490.523285
   vertex 167.816437 22.108953 490.702423
   vertex 168.135696 21.753660 490.238281
  endloop
 facet normal -0.961563 0.092740 -0.258448
  outer loop
   vertex 167.695648 21.956646 491.097168
   vertex 167.816437 22.108953 490.702423
   vertex 167.819565 21.642164 490.523285
  endloop
 facet normal -0.961559 0.092761 -0.258458
  outer loop
   vertex 167.819565 21.642164 490.523285
   vertex 167.698776 21.489857 490.917999
   vertex 167.695648 21.956646 491.097168
  endloop
 facet normal 0.969995 0.092747 -0.224738
  outer loop
   vertex 193.813797 21.956644 491.553070
   vertex 193.816925 21.489855 491.373932
   vertex 193.706863 22.108952 491.154388
  endloop
 facet normal 0.969999 0.092755 -0.224719
  outer loop
   vertex 193.706863 22.108952 491.154388
   vertex 193.816925 21.489855 491.373932
   vertex 193.709991 21.642162 490.975220
  endloop
 facet normal 0.718503 0.253427 -0.647710
  outer loop
   vertex 193.709991 21.642162 490.975220
   vertex 193.400848 22.220448 490.858551
   vertex 193.706863 22.108952 491.154388
  endloop
 facet normal 0.718503 0.253427 -0.647710
  outer loop
   vertex 193.403976 21.753658 490.679382
   vertex 193.400848 22.220448 490.858551
   vertex 193.709991 21.642162 490.975220
  endloop
 facet normal 0.274564 0.346174 -0.897095
  outer loop
   vertex 192.977768 22.261259 490.744812
   vertex 193.400848 22.220448 490.858551
   vertex 193.403976 21.753658 490.679382
  endloop
 facet normal 0.274503 0.346127 -0.897131
  outer loop
   vertex 193.403976 21.753658 490.679382
   vertex 192.980896 21.794468 490.565674
   vertex 192.977768 22.261259 490.744812
  endloop
 facet normal -0.243035 0.346125 -0.906163
  outer loop
   vertex 192.977768 22.261259 490.744812
   vertex 192.980896 21.794468 490.565674
   vertex 192.550980 22.220448 490.843689
  endloop
 facet normal -0.243034 0.346127 -0.906163
  outer loop
   vertex 192.550980 22.220448 490.843689
   vertex 192.980896 21.794468 490.565674
   vertex 192.554108 21.753658 490.664551
  endloop
 facet normal -0.695514 0.253368 -0.672358
  outer loop
   vertex 192.554108 21.753658 490.664551
   vertex 192.234848 22.108952 491.128693
   vertex 192.550980 22.220448 490.843689
  endloop
 facet normal -0.695464 0.253444 -0.672381
  outer loop
   vertex 192.237961 21.642162 490.949524
   vertex 192.234848 22.108952 491.128693
   vertex 192.554108 21.753658 490.664551
  endloop
 facet normal -0.961559 0.092788 -0.258448
  outer loop
   vertex 192.114059 21.956646 491.523407
   vertex 192.234848 22.108952 491.128693
   vertex 192.237961 21.642162 490.949524
  endloop
 facet normal -0.961568 0.092749 -0.258428
  outer loop
   vertex 192.237961 21.642162 490.949524
   vertex 192.117188 21.489855 491.344238
   vertex 192.114059 21.956646 491.523407
  endloop
 facet normal 0.718487 0.253396 -0.647740
  outer loop
   vertex 192.710037 21.334677 491.758911
   vertex 192.530029 21.400263 491.584900
   vertex 192.526901 21.867052 491.764038
  endloop
 facet normal 0.970002 0.092738 -0.224713
  outer loop
   vertex 192.526901 21.867052 491.764038
   vertex 192.530029 21.400263 491.584900
   vertex 192.467133 21.489855 491.350372
  endloop
 facet normal 0.970002 0.092737 -0.224713
  outer loop
   vertex 192.467133 21.489855 491.350372
   vertex 192.464005 21.956646 491.529510
   vertex 192.526901 21.867052 491.764038
  endloop
 facet normal 0.961572 -0.092729 0.258419
  outer loop
   vertex 192.538177 21.579447 491.118164
   vertex 192.464005 21.956646 491.529510
   vertex 192.467133 21.489855 491.350372
  endloop
 facet normal 0.961564 -0.092754 0.258441
  outer loop
   vertex 192.535049 22.046238 491.297333
   vertex 192.464005 21.956646 491.529510
   vertex 192.538177 21.579447 491.118164
  endloop
 facet normal 0.695456 -0.253426 0.672396
  outer loop
   vertex 192.538177 21.579447 491.118164
   vertex 192.724152 21.645033 490.950531
   vertex 192.535049 22.046238 491.297333
  endloop
 facet normal 0.695456 -0.253426 0.672396
  outer loop
   vertex 192.535049 22.046238 491.297333
   vertex 192.724152 21.645033 490.950531
   vertex 192.721024 22.111824 491.129700
  endloop
 facet normal 0.243046 -0.346176 0.906141
  outer loop
   vertex 192.721024 22.111824 491.129700
   vertex 192.724152 21.645033 490.950531
   vertex 192.975204 21.669039 490.892365
  endloop
 facet normal 0.243046 -0.346176 0.906141
  outer loop
   vertex 192.975204 21.669039 490.892365
   vertex 192.972076 22.135830 491.071533
   vertex 192.721024 22.111824 491.129700
  endloop
 facet normal -0.274527 -0.346176 0.897105
  outer loop
   vertex 193.224075 21.645033 490.959259
   vertex 192.972076 22.135830 491.071533
   vertex 192.975204 21.669039 490.892365
  endloop
 facet normal -0.274527 -0.346176 0.897105
  outer loop
   vertex 193.220947 22.111824 491.138428
   vertex 192.972076 22.135830 491.071533
   vertex 193.224075 21.645033 490.959259
  endloop
 facet normal -0.718516 -0.253421 0.647698
  outer loop
   vertex 193.224075 21.645033 490.959259
   vertex 193.404068 21.579447 491.133270
   vertex 193.220947 22.111824 491.138428
  endloop
 facet normal -0.718516 -0.253421 0.647698
  outer loop
   vertex 193.220947 22.111824 491.138428
   vertex 193.404068 21.579447 491.133270
   vertex 193.400940 22.046238 491.312439
  endloop
 facet normal -0.969988 -0.092770 0.224760
  outer loop
   vertex 193.400940 22.046238 491.312439
   vertex 193.404068 21.579447 491.133270
   vertex 193.466980 21.489855 491.367798
  endloop
 facet normal -0.969988 -0.092770 0.224759
  outer loop
   vertex 193.466980 21.489855 491.367798
   vertex 193.463852 21.956644 491.546967
   vertex 193.400940 22.046238 491.312439
  endloop
 facet normal -0.695456 0.253426 -0.672395
  outer loop
   vertex 168.788422 21.801468 491.520538
   vertex 168.974396 21.867054 491.352905
   vertex 168.977524 21.400265 491.173737
  endloop
 facet normal -0.961564 0.092754 -0.258441
  outer loop
   vertex 168.977524 21.400265 491.173737
   vertex 168.974396 21.867054 491.352905
   vertex 169.045441 21.956646 491.120728
  endloop
 facet normal -0.961564 0.092754 -0.258441
  outer loop
   vertex 169.045441 21.956646 491.120728
   vertex 169.048569 21.489857 490.941559
   vertex 168.977524 21.400265 491.173737
  endloop
 facet normal -0.970002 -0.092750 0.224708
  outer loop
   vertex 168.982544 22.046238 490.886200
   vertex 169.048569 21.489857 490.941559
   vertex 169.045441 21.956646 491.120728
  endloop
 facet normal -0.970002 -0.092750 0.224708
  outer loop
   vertex 168.985672 21.579449 490.707031
   vertex 169.048569 21.489857 490.941559
   vertex 168.982544 22.046238 490.886200
  endloop
 facet normal -0.718540 -0.253413 0.647675
  outer loop
   vertex 168.982544 22.046238 490.886200
   vertex 168.802536 22.111824 490.712158
   vertex 168.985672 21.579449 490.707031
  endloop
 facet normal -0.718487 -0.253396 0.647740
  outer loop
   vertex 168.985672 21.579449 490.707031
   vertex 168.802536 22.111824 490.712158
   vertex 168.805664 21.645035 490.533020
  endloop
 facet normal -0.274529 -0.346126 0.897123
  outer loop
   vertex 168.805664 21.645035 490.533020
   vertex 168.802536 22.111824 490.712158
   vertex 168.553665 22.135832 490.645264
  endloop
 facet normal -0.274527 -0.346125 0.897125
  outer loop
   vertex 168.553665 22.135832 490.645264
   vertex 168.556793 21.669041 490.466125
   vertex 168.805664 21.645035 490.533020
  endloop
 facet normal 0.243048 -0.346124 0.906160
  outer loop
   vertex 168.302612 22.111824 490.703430
   vertex 168.556793 21.669041 490.466125
   vertex 168.553665 22.135832 490.645264
  endloop
 facet normal 0.243045 -0.346125 0.906160
  outer loop
   vertex 168.305740 21.645035 490.524292
   vertex 168.556793 21.669041 490.466125
   vertex 168.302612 22.111824 490.703430
  endloop
 facet normal 0.695456 -0.253388 0.672410
  outer loop
   vertex 168.302612 22.111824 490.703430
   vertex 168.116638 22.046238 490.871063
   vertex 168.305740 21.645035 490.524292
  endloop
 facet normal 0.695456 -0.253388 0.672410
  outer loop
   vertex 168.305740 21.645035 490.524292
   vertex 168.116638 22.046238 490.871063
   vertex 168.119766 21.579449 490.691925
  endloop
 facet normal 0.961572 -0.092729 0.258419
  outer loop
   vertex 168.119766 21.579449 490.691925
   vertex 168.116638 22.046238 490.871063
   vertex 168.045593 21.956646 491.103271
  endloop
 facet normal 0.961564 -0.092754 0.258441
  outer loop
   vertex 168.045593 21.956646 491.103271
   vertex 168.048721 21.489857 490.924103
   vertex 168.119766 21.579449 490.691925
  endloop
 facet normal 0.970002 0.092750 -0.224708
  outer loop
   vertex 168.111618 21.400265 491.158630
   vertex 168.048721 21.489857 490.924103
   vertex 168.045593 21.956646 491.103271
  endloop
endsolid