solid stl file generated from DOUG
 facet normal 0.227559 0.850236 0.474675
  outer loop
   vertex 234.085037 -88.904213 577.562561
   vertex 233.602951 -88.767860 577.549438
   vertex 234.047089 -89.017136 577.783020
  endloop
 facet normal 0.227559 0.850236 0.474675
  outer loop
   vertex 234.047089 -89.017136 577.783020
   vertex 233.602951 -88.767860 577.549438
   vertex 233.565002 -88.880783 577.769897
  endloop
 facet normal -0.017294 0.035023 0.999237
  outer loop
   vertex 233.565002 -88.880783 577.769897
   vertex 233.978745 -89.258110 577.790283
   vertex 234.047089 -89.017136 577.783020
  endloop
 facet normal -0.017477 0.034822 0.999241
  outer loop
   vertex 233.496658 -89.121758 577.777100
   vertex 233.978745 -89.258110 577.790283
   vertex 233.565002 -88.880783 577.769897
  endloop
 facet normal -0.244967 -0.815385 0.524537
  outer loop
   vertex 233.948334 -89.386162 577.577026
   vertex 233.978745 -89.258110 577.790283
   vertex 233.496658 -89.121758 577.777100
  endloop
 facet normal -0.244890 -0.815337 0.524647
  outer loop
   vertex 233.496658 -89.121758 577.777100
   vertex 233.466248 -89.249809 577.563904
   vertex 233.948334 -89.386162 577.577026
  endloop
 facet normal -0.227559 -0.850236 -0.474675
  outer loop
   vertex 233.948334 -89.386162 577.577026
   vertex 233.466248 -89.249809 577.563904
   vertex 233.986282 -89.273239 577.356567
  endloop
 facet normal -0.227559 -0.850236 -0.474675
  outer loop
   vertex 233.986282 -89.273239 577.356567
   vertex 233.466248 -89.249809 577.563904
   vertex 233.504196 -89.136887 577.343445
  endloop
 facet normal 0.017360 -0.034790 -0.999244
  outer loop
   vertex 233.504196 -89.136887 577.343445
   vertex 234.054642 -89.032265 577.349365
   vertex 233.986282 -89.273239 577.356567
  endloop
 facet normal 0.017410 -0.035056 -0.999234
  outer loop
   vertex 233.572540 -88.895912 577.336182
   vertex 234.054642 -89.032265 577.349365
   vertex 233.504196 -89.136887 577.343445
  endloop
 facet normal 0.244946 0.815329 -0.524633
  outer loop
   vertex 234.085037 -88.904213 577.562561
   vertex 234.054642 -89.032265 577.349365
   vertex 233.572540 -88.895912 577.336182
  endloop
 facet normal 0.244905 0.815402 -0.524539
  outer loop
   vertex 233.572540 -88.895912 577.336182
   vertex 233.602951 -88.767860 577.549438
   vertex 234.085037 -88.904213 577.562561
  endloop
 facet normal -0.244905 -0.815402 0.524539
  outer loop
   vertex 239.493286 -68.001945 576.927246
   vertex 239.975372 -68.138298 576.940369
   vertex 239.523697 -67.873894 577.140503
  endloop
 facet normal -0.244905 -0.815402 0.524539
  outer loop
   vertex 239.523697 -67.873894 577.140503
   vertex 239.975372 -68.138298 576.940369
   vertex 240.005783 -68.010246 577.153625
  endloop
 facet normal -0.017294 0.035023 0.999237
  outer loop
   vertex 240.005783 -68.010246 577.153625
   vertex 239.592041 -67.632919 577.133240
   vertex 239.523697 -67.873894 577.140503
  endloop
 facet normal -0.017477 0.034822 0.999241
  outer loop
   vertex 240.074127 -67.769272 577.146423
   vertex 239.592041 -67.632919 577.133240
   vertex 240.005783 -68.010246 577.153625
  endloop
 facet normal 0.227503 0.850251 0.474674
  outer loop
   vertex 239.629990 -67.519997 576.912781
   vertex 239.592041 -67.632919 577.133240
   vertex 240.074127 -67.769272 577.146423
  endloop
 facet normal 0.227503 0.850251 0.474674
  outer loop
   vertex 240.074127 -67.769272 577.146423
   vertex 240.112076 -67.656349 576.925964
   vertex 239.629990 -67.519997 576.912781
  endloop
 facet normal 0.244948 0.815307 -0.524667
  outer loop
   vertex 239.629990 -67.519997 576.912781
   vertex 240.112076 -67.656349 576.925964
   vertex 239.599579 -67.648056 576.699585
  endloop
 facet normal 0.244897 0.815399 -0.524547
  outer loop
   vertex 239.599579 -67.648056 576.699585
   vertex 240.112076 -67.656349 576.925964
   vertex 240.081680 -67.784409 576.712708
  endloop
 facet normal 0.017360 -0.034788 -0.999244
  outer loop
   vertex 240.081680 -67.784409 576.712708
   vertex 239.531235 -67.889030 576.706787
   vertex 239.599579 -67.648056 576.699585
  endloop
 facet normal 0.017360 -0.034790 -0.999244
  outer loop
   vertex 240.013321 -68.025383 576.719910
   vertex 239.531235 -67.889030 576.706787
   vertex 240.081680 -67.784409 576.712708
  endloop
 facet normal -0.227562 -0.850247 -0.474652
  outer loop
   vertex 239.493286 -68.001945 576.927246
   vertex 239.531235 -67.889030 576.706787
   vertex 240.013321 -68.025383 576.719910
  endloop
 facet normal -0.227562 -0.850247 -0.474652
  outer loop
   vertex 240.013321 -68.025383 576.719910
   vertex 239.975372 -68.138298 576.940369
   vertex 239.493286 -68.001945 576.927246
  endloop
 facet normal 0.961930 -0.272034 0.026241
  outer loop
   vertex 240.074127 -67.769272 577.146423
   vertex 240.005783 -68.010246 577.153625
   vertex 240.043732 -67.897324 576.933167
  endloop
 facet normal 0.961914 -0.272092 0.026209
  outer loop
   vertex 240.043732 -67.897324 576.933167
   vertex 240.005783 -68.010246 577.153625
   vertex 239.975372 -68.138298 576.940369
  endloop
 facet normal 0.961914 -0.272091 0.026219
  outer loop
   vertex 239.975372 -68.138298 576.940369
   vertex 240.013321 -68.025383 576.719910
   vertex 240.043732 -67.897324 576.933167
  endloop
 facet normal 0.961931 -0.272028 0.026245
  outer loop
   vertex 234.054642 -89.032265 577.349365
   vertex 234.085037 -88.904213 577.562561
   vertex 234.016693 -89.145187 577.569824
  endloop
 facet normal 0.961931 -0.272028 0.026245
  outer loop
   vertex 234.016693 -89.145187 577.569824
   vertex 234.085037 -88.904213 577.562561
   vertex 234.047089 -89.017136 577.783020
  endloop
 facet normal 0.961931 -0.272028 0.026245
  outer loop
   vertex 234.047089 -89.017136 577.783020
   vertex 233.978745 -89.258110 577.790283
   vertex 234.016693 -89.145187 577.569824
  endloop
 facet normal 0.961914 -0.272092 0.026209
  outer loop
   vertex 233.978745 -89.258110 577.790283
   vertex 233.948334 -89.386162 577.577026
   vertex 234.016693 -89.145187 577.569824
  endloop
 facet normal 0.961914 -0.272092 0.026209
  outer loop
   vertex 234.016693 -89.145187 577.569824
   vertex 233.948334 -89.386162 577.577026
   vertex 233.986282 -89.273239 577.356567
  endloop
 facet normal 0.961914 -0.272092 0.026209
  outer loop
   vertex 233.986282 -89.273239 577.356567
   vertex 234.054642 -89.032265 577.349365
   vertex 234.016693 -89.145187 577.569824
  endloop
 facet normal 0.961914 -0.272091 0.026219
  outer loop
   vertex 240.013321 -68.025383 576.719910
   vertex 240.081680 -67.784409 576.712708
   vertex 240.043732 -67.897324 576.933167
  endloop
 facet normal 0.961930 -0.272034 0.026251
  outer loop
   vertex 240.043732 -67.897324 576.933167
   vertex 240.081680 -67.784409 576.712708
   vertex 240.112076 -67.656349 576.925964
  endloop
 facet normal 0.961930 -0.272034 0.026241
  outer loop
   vertex 240.112076 -67.656349 576.925964
   vertex 240.074127 -67.769272 577.146423
   vertex 240.043732 -67.897324 576.933167
  endloop
 facet normal 0.961921 -0.272067 0.026225
  outer loop
   vertex 232.467575 -87.212654 576.849854
   vertex 232.445847 -87.169060 578.099121
   vertex 231.651596 -90.089325 576.936035
  endloop
 facet normal 0.961921 -0.272067 0.026225
  outer loop
   vertex 231.651596 -90.089325 576.936035
   vertex 232.445847 -87.169060 578.099121
   vertex 231.629868 -90.045731 578.185303
  endloop
 facet normal -0.272777 -0.961646 0.028813
  outer loop
   vertex 231.629868 -90.045731 578.185303
   vertex 230.315887 -89.711533 576.899658
   vertex 231.651596 -90.089325 576.936035
  endloop
 facet normal -0.272773 -0.961647 0.028809
  outer loop
   vertex 230.294159 -89.667946 578.148865
   vertex 230.315887 -89.711533 576.899658
   vertex 231.629868 -90.045731 578.185303
  endloop
 facet normal -0.961921 0.272067 -0.026224
  outer loop
   vertex 231.110138 -86.791275 578.062683
   vertex 230.315887 -89.711533 576.899658
   vertex 230.294159 -89.667946 578.148865
  endloop
 facet normal -0.017397 0.034871 0.999240
  outer loop
   vertex 230.294159 -89.667946 578.148865
   vertex 232.445847 -87.169060 578.099121
   vertex 231.110138 -86.791275 578.062683
  endloop
 facet normal 0.272773 0.961647 -0.028813
  outer loop
   vertex 231.110138 -86.791275 578.062683
   vertex 232.445847 -87.169060 578.099121
   vertex 231.131866 -86.834869 576.813416
  endloop
 facet normal 0.272773 0.961647 -0.028813
  outer loop
   vertex 231.131866 -86.834869 576.813416
   vertex 232.445847 -87.169060 578.099121
   vertex 232.467575 -87.212654 576.849854
  endloop
 facet normal 0.017391 -0.034890 -0.999240
  outer loop
   vertex 232.467575 -87.212654 576.849854
   vertex 230.315887 -89.711533 576.899658
   vertex 231.131866 -86.834869 576.813416
  endloop
 facet normal 0.017354 -0.034859 -0.999242
  outer loop
   vertex 231.651596 -90.089325 576.936035
   vertex 230.315887 -89.711533 576.899658
   vertex 232.467575 -87.212654 576.849854
  endloop
 facet normal 0.272773 0.961647 -0.028813
  outer loop
   vertex 237.180237 -65.511803 576.174561
   vertex 237.158508 -65.468208 577.423828
   vertex 238.515945 -65.889587 576.210999
  endloop
 facet normal 0.272777 0.961646 -0.028809
  outer loop
   vertex 238.515945 -65.889587 576.210999
   vertex 237.158508 -65.468208 577.423828
   vertex 238.494217 -65.846001 577.460205
  endloop
 facet normal 0.961921 -0.272067 0.026224
  outer loop
   vertex 238.494217 -65.846001 577.460205
   vertex 237.699966 -68.766258 576.297180
   vertex 238.515945 -65.889587 576.210999
  endloop
 facet normal 0.961921 -0.272068 0.026226
  outer loop
   vertex 237.678238 -68.722664 577.546387
   vertex 237.699966 -68.766258 576.297180
   vertex 238.494217 -65.846001 577.460205
  endloop
 facet normal -0.272772 -0.961647 0.028815
  outer loop
   vertex 236.342529 -68.344879 577.510010
   vertex 237.699966 -68.766258 576.297180
   vertex 237.678238 -68.722664 577.546387
  endloop
 facet normal -0.017354 0.034859 0.999242
  outer loop
   vertex 237.678238 -68.722664 577.546387
   vertex 237.158508 -65.468208 577.423828
   vertex 236.342529 -68.344879 577.510010
  endloop
 facet normal -0.961921 0.272067 -0.026223
  outer loop
   vertex 236.342529 -68.344879 577.510010
   vertex 237.158508 -65.468208 577.423828
   vertex 236.364258 -68.388466 576.260742
  endloop
 facet normal -0.961921 0.272068 -0.026225
  outer loop
   vertex 236.364258 -68.388466 576.260742
   vertex 237.158508 -65.468208 577.423828
   vertex 237.180237 -65.511803 576.174561
  endloop
 facet normal 0.017396 -0.034871 -0.999240
  outer loop
   vertex 237.180237 -65.511803 576.174561
   vertex 237.699966 -68.766258 576.297180
   vertex 236.364258 -68.388466 576.260742
  endloop
 facet normal 0.017397 -0.034871 -0.999240
  outer loop
   vertex 238.515945 -65.889587 576.210999
   vertex 237.699966 -68.766258 576.297180
   vertex 237.180237 -65.511803 576.174561
  endloop
 facet normal -0.017354 0.034859 0.999242
  outer loop
   vertex 237.678238 -68.722664 577.546387
   vertex 238.494217 -65.846001 577.460205
   vertex 237.158508 -65.468208 577.423828
  endloop
 facet normal -0.017397 0.034871 0.999240
  outer loop
   vertex 231.629868 -90.045731 578.185303
   vertex 232.445847 -87.169060 578.099121
   vertex 230.294159 -89.667946 578.148865
  endloop
 facet normal -0.272778 -0.961646 0.028807
  outer loop
   vertex 236.342529 -68.344879 577.510010
   vertex 236.364258 -68.388466 576.260742
   vertex 237.699966 -68.766258 576.297180
  endloop
 facet normal -0.961921 0.272067 -0.026225
  outer loop
   vertex 231.110138 -86.791275 578.062683
   vertex 231.131866 -86.834869 576.813416
   vertex 230.315887 -89.711533 576.899658
  endloop
 facet normal 0.961920 -0.272066 0.026253
  outer loop
   vertex 235.075424 -88.180923 576.768982
   vertex 240.424545 -69.312485 576.313293
   vertex 235.073517 -88.177101 576.878479
  endloop
 facet normal 0.557195 -0.133496 0.819581
  outer loop
   vertex 235.073517 -88.177101 576.878479
   vertex 240.424545 -69.312485 576.313293
   vertex 234.959579 -88.142296 576.961609
  endloop
 facet normal 0.573836 -0.138588 0.807159
  outer loop
   vertex 240.252457 -69.997169 577.778076
   vertex 240.487473 -68.858055 577.806580
   vertex 240.171402 -69.972328 577.839966
  endloop
 facet normal -0.017406 0.034877 0.999240
  outer loop
   vertex 240.171402 -69.972328 577.839966
   vertex 240.487473 -68.858055 577.806580
   vertex 239.677887 -68.629074 577.784485
  endloop
 facet normal 0.017336 -0.034857 -0.999242
  outer loop
   vertex 234.131454 -88.342430 576.711670
   vertex 235.257111 -87.457138 576.700317
   vertex 234.941040 -88.571411 576.733704
  endloop
 facet normal 0.601202 -0.193763 -0.775249
  outer loop
   vertex 234.941040 -88.571411 576.733704
   vertex 235.257111 -87.457138 576.700317
   vertex 235.335938 -87.477516 576.766541
  endloop
 facet normal 0.585325 -0.189647 -0.788308
  outer loop
   vertex 240.290131 -69.236595 577.573730
   vertex 240.401062 -69.265388 577.663025
   vertex 235.050049 -88.130005 578.228210
  endloop
 facet normal 0.961921 -0.272066 0.026239
  outer loop
   vertex 235.050049 -88.130005 578.228210
   vertex 240.401062 -69.265388 577.663025
   vertex 235.048141 -88.126183 578.337769
  endloop
 facet normal 0.904066 -0.266454 -0.334167
  outer loop
   vertex 239.686401 -69.105995 576.217102
   vertex 234.335373 -87.970612 576.782288
   vertex 239.674591 -69.103661 576.183289
  endloop
 facet normal 0.904066 -0.266454 -0.334167
  outer loop
   vertex 239.674591 -69.103661 576.183289
   vertex 234.335373 -87.970612 576.782288
   vertex 234.323563 -87.968277 576.748474
  endloop
 facet normal 0.017927 -0.035022 -0.999226
  outer loop
   vertex 234.323563 -87.968277 576.748474
   vertex 239.606659 -69.084450 576.181396
   vertex 239.674591 -69.103661 576.183289
  endloop
 facet normal 0.272764 0.961649 -0.028822
  outer loop
   vertex 240.516357 -68.916039 576.144775
   vertex 240.497253 -68.903511 576.381958
   vertex 240.595200 -68.936417 576.210999
  endloop
 facet normal 0.272749 0.961653 -0.028831
  outer loop
   vertex 240.595200 -68.936417 576.210999
   vertex 240.497253 -68.903511 576.381958
   vertex 240.592438 -68.930870 576.369873
  endloop
 facet normal 0.961920 -0.272069 0.026220
  outer loop
   vertex 240.592438 -68.930870 576.369873
   vertex 240.279129 -70.050690 576.244385
   vertex 240.595200 -68.936417 576.210999
  endloop
 facet normal -0.272786 -0.961643 0.028807
  outer loop
   vertex 234.912140 -88.513420 578.395447
   vertex 234.901291 -88.517471 578.157471
   vertex 234.993210 -88.538269 578.333618
  endloop
 facet normal -0.272827 -0.961631 0.028829
  outer loop
   vertex 234.993210 -88.538269 578.333618
   vertex 234.901291 -88.517471 578.157471
   vertex 234.995972 -88.543816 578.174744
  endloop
 facet normal 0.961924 -0.272057 0.026220
  outer loop
   vertex 234.995972 -88.543816 578.174744
   vertex 235.309265 -87.423996 578.300232
   vertex 234.993210 -88.538269 578.333618
  endloop
 facet normal -0.272757 -0.961650 0.028842
  outer loop
   vertex 240.255219 -70.002716 577.619263
   vertex 240.252457 -69.997169 577.778076
   vertex 240.160538 -69.976379 577.601990
  endloop
 facet normal -0.272720 -0.961662 0.028821
  outer loop
   vertex 240.160538 -69.976379 577.601990
   vertex 240.252457 -69.997169 577.778076
   vertex 240.171402 -69.972328 577.839966
  endloop
 facet normal -0.272776 -0.961646 0.028824
  outer loop
   vertex 240.171402 -69.972328 577.839966
   vertex 239.361816 -69.743347 577.817871
   vertex 240.160538 -69.976379 577.601990
  endloop
 facet normal -0.017406 0.034877 0.999240
  outer loop
   vertex 239.677887 -68.629074 577.784485
   vertex 239.361816 -69.743347 577.817871
   vertex 240.171402 -69.972328 577.839966
  endloop
 facet normal 0.585024 -0.189572 -0.788549
  outer loop
   vertex 235.050049 -88.130005 578.228210
   vertex 234.939102 -88.101212 578.138977
   vertex 240.290131 -69.236595 577.573730
  endloop
 facet normal 0.961921 -0.272067 0.026224
  outer loop
   vertex 240.290131 -69.236595 577.573730
   vertex 234.939102 -88.101212 578.138977
   vertex 234.959579 -88.142296 576.961609
  endloop
 facet normal 0.961921 -0.272067 0.026213
  outer loop
   vertex 234.959579 -88.142296 576.961609
   vertex 240.310593 -69.277679 576.396423
   vertex 240.290131 -69.236595 577.573730
  endloop
 facet normal 0.557149 -0.133481 0.819614
  outer loop
   vertex 240.424545 -69.312485 576.313293
   vertex 240.310593 -69.277679 576.396423
   vertex 234.959579 -88.142296 576.961609
  endloop
 facet normal 0.017336 -0.034857 -0.999242
  outer loop
   vertex 234.131454 -88.342430 576.711670
   vertex 234.447525 -87.228157 576.678284
   vertex 235.257111 -87.457138 576.700317
  endloop
 facet normal 0.272774 0.961646 -0.028835
  outer loop
   vertex 235.257111 -87.457138 576.700317
   vertex 234.447525 -87.228157 576.678284
   vertex 235.237991 -87.444603 576.937500
  endloop
 facet normal 0.272819 0.961633 -0.028830
  outer loop
   vertex 235.237991 -87.444603 576.937500
   vertex 235.335938 -87.477516 576.766541
   vertex 235.257111 -87.457138 576.700317
  endloop
 facet normal 0.272802 0.961638 -0.028841
  outer loop
   vertex 235.333176 -87.471970 576.925354
   vertex 235.335938 -87.477516 576.766541
   vertex 235.237991 -87.444603 576.937500
  endloop
 facet normal -0.891635 0.241439 -0.383007
  outer loop
   vertex 234.925552 -88.137527 576.798401
   vertex 240.276566 -69.272919 576.233154
   vertex 234.938522 -88.142204 576.765259
  endloop
 facet normal -0.891654 0.241446 -0.382959
  outer loop
   vertex 234.938522 -88.142204 576.765259
   vertex 240.276566 -69.272919 576.233154
   vertex 240.289536 -69.277588 576.200012
  endloop
 facet normal 0.017318 -0.034853 -0.999242
  outer loop
   vertex 240.289536 -69.277588 576.200012
   vertex 235.075424 -88.180923 576.768982
   vertex 234.938522 -88.142204 576.765259
  endloop
 facet normal 0.017318 -0.034853 -0.999242
  outer loop
   vertex 240.426437 -69.316307 576.203735
   vertex 235.075424 -88.180923 576.768982
   vertex 240.289536 -69.277588 576.200012
  endloop
 facet normal 0.961923 -0.272071 0.026105
  outer loop
   vertex 240.424545 -69.312485 576.313293
   vertex 235.075424 -88.180923 576.768982
   vertex 240.426437 -69.316307 576.203735
  endloop
 facet normal 0.961920 -0.272072 0.026224
  outer loop
   vertex 233.407364 -89.585693 577.016663
   vertex 233.837570 -87.961876 578.083313
   vertex 233.387985 -89.546822 578.130798
  endloop
 facet normal -0.017375 0.034866 0.999241
  outer loop
   vertex 233.387985 -89.546822 578.130798
   vertex 233.837570 -87.961876 578.083313
   vertex 231.905624 -89.127556 578.090393
  endloop
 facet normal -0.272774 -0.961647 0.028811
  outer loop
   vertex 231.905624 -89.127556 578.090393
   vertex 231.924988 -89.166428 576.976257
   vertex 233.387985 -89.546822 578.130798
  endloop
 facet normal -0.961923 0.272063 -0.026210
  outer loop
   vertex 232.355194 -87.542603 578.042908
   vertex 231.924988 -89.166428 576.976257
   vertex 231.905624 -89.127556 578.090393
  endloop
 facet normal -0.961919 0.272072 -0.026225
  outer loop
   vertex 232.374573 -87.581482 576.928772
   vertex 231.924988 -89.166428 576.976257
   vertex 232.355194 -87.542603 578.042908
  endloop
 facet normal 0.272776 0.961646 -0.028814
  outer loop
   vertex 232.355194 -87.542603 578.042908
   vertex 233.837570 -87.961876 578.083313
   vertex 232.374573 -87.581482 576.928772
  endloop
 facet normal 0.272774 0.961647 -0.028811
  outer loop
   vertex 232.374573 -87.581482 576.928772
   vertex 233.837570 -87.961876 578.083313
   vertex 233.856934 -88.000748 576.969177
  endloop
 facet normal 0.961922 -0.272064 0.026210
  outer loop
   vertex 233.856934 -88.000748 576.969177
   vertex 233.837570 -87.961876 578.083313
   vertex 233.407364 -89.585693 577.016663
  endloop
 facet normal 0.017375 -0.034866 -0.999241
  outer loop
   vertex 233.407364 -89.585693 577.016663
   vertex 231.924988 -89.166428 576.976257
   vertex 233.856934 -88.000748 576.969177
  endloop
 facet normal -0.272771 -0.961647 0.028807
  outer loop
   vertex 233.387985 -89.546822 578.130798
   vertex 231.924988 -89.166428 576.976257
   vertex 233.407364 -89.585693 577.016663
  endloop
 facet normal 0.017375 -0.034866 -0.999241
  outer loop
   vertex 239.747482 -67.234085 576.346985
   vertex 239.297913 -68.819031 576.394470
   vertex 238.265121 -66.814812 576.306580
  endloop
 facet normal 0.017375 -0.034866 -0.999241
  outer loop
   vertex 238.265121 -66.814812 576.306580
   vertex 239.297913 -68.819031 576.394470
   vertex 237.815536 -68.399765 576.354065
  endloop
 facet normal -0.961920 0.272071 -0.026225
  outer loop
   vertex 237.815536 -68.399765 576.354065
   vertex 238.245743 -66.775940 577.420654
   vertex 238.265121 -66.814812 576.306580
  endloop
 facet normal -0.961922 0.272064 -0.026213
  outer loop
   vertex 237.796173 -68.360886 577.468140
   vertex 238.245743 -66.775940 577.420654
   vertex 237.815536 -68.399765 576.354065
  endloop
 facet normal -0.017375 0.034866 0.999241
  outer loop
   vertex 239.278534 -68.780159 577.508545
   vertex 238.245743 -66.775940 577.420654
   vertex 237.796173 -68.360886 577.468140
  endloop
 facet normal -0.272779 -0.961645 0.028808
  outer loop
   vertex 237.796173 -68.360886 577.468140
   vertex 239.297913 -68.819031 576.394470
   vertex 239.278534 -68.780159 577.508545
  endloop
 facet normal 0.961922 -0.272062 0.026225
  outer loop
   vertex 239.278534 -68.780159 577.508545
   vertex 239.297913 -68.819031 576.394470
   vertex 239.728104 -67.195206 577.461060
  endloop
 facet normal 0.961922 -0.272063 0.026227
  outer loop
   vertex 239.728104 -67.195206 577.461060
   vertex 239.297913 -68.819031 576.394470
   vertex 239.747482 -67.234085 576.346985
  endloop
 facet normal 0.272774 0.961646 -0.028815
  outer loop
   vertex 239.747482 -67.234085 576.346985
   vertex 238.245743 -66.775940 577.420654
   vertex 239.728104 -67.195206 577.461060
  endloop
 facet normal 0.272779 0.961645 -0.028808
  outer loop
   vertex 238.265121 -66.814812 576.306580
   vertex 238.245743 -66.775940 577.420654
   vertex 239.747482 -67.234085 576.346985
  endloop
 facet normal -0.961917 0.272081 -0.026209
  outer loop
   vertex 232.409088 -90.774536 577.848877
   vertex 232.504562 -90.437965 577.838806
   vertex 232.513245 -90.455399 577.339172
  endloop
 facet normal 0.961919 -0.272076 0.026209
  outer loop
   vertex 232.513245 -90.455399 577.339172
   vertex 232.504562 -90.437965 577.838806
   vertex 232.461166 -90.614967 577.594055
  endloop
 facet normal 0.961919 -0.272075 0.026210
  outer loop
   vertex 232.461166 -90.614967 577.594055
   vertex 232.417770 -90.791977 577.349243
   vertex 232.513245 -90.455399 577.339172
  endloop
 facet normal 0.961918 -0.272079 0.026213
  outer loop
   vertex 232.409088 -90.774536 577.848877
   vertex 232.417770 -90.791977 577.349243
   vertex 232.461166 -90.614967 577.594055
  endloop
 facet normal -0.272780 -0.961644 0.028828
  outer loop
   vertex 231.455856 -90.519905 577.323059
   vertex 232.417770 -90.791977 577.349243
   vertex 232.409088 -90.774536 577.848877
  endloop
 facet normal -0.272769 -0.961648 0.028805
  outer loop
   vertex 232.409088 -90.774536 577.848877
   vertex 231.447159 -90.502472 577.822693
   vertex 231.455856 -90.519905 577.323059
  endloop
 facet normal -0.961921 0.272065 -0.026238
  outer loop
   vertex 231.455856 -90.519905 577.323059
   vertex 231.447159 -90.502472 577.822693
   vertex 231.919571 -88.885109 577.274048
  endloop
 facet normal -0.961921 0.272065 -0.026238
  outer loop
   vertex 231.919571 -88.885109 577.274048
   vertex 231.447159 -90.502472 577.822693
   vertex 231.910873 -88.867676 577.773682
  endloop
 facet normal 0.272771 0.961648 -0.028805
  outer loop
   vertex 231.910873 -88.867676 577.773682
   vertex 232.872803 -89.139740 577.799927
   vertex 231.919571 -88.885109 577.274048
  endloop
 facet normal -0.017413 0.034826 0.999242
  outer loop
   vertex 232.518570 -89.472717 577.805359
   vertex 232.872803 -89.139740 577.799927
   vertex 231.910873 -88.867676 577.773682
  endloop
 facet normal -0.017428 0.034842 0.999241
  outer loop
   vertex 232.777328 -89.476318 577.809998
   vertex 232.872803 -89.139740 577.799927
   vertex 232.518570 -89.472717 577.805359
  endloop
 facet normal 0.017345 -0.034844 -0.999242
  outer loop
   vertex 238.952774 -66.837517 576.627014
   vertex 239.079514 -67.306526 576.645569
   vertex 238.117599 -67.034454 576.619385
  endloop
 facet normal -0.272780 -0.961645 0.028805
  outer loop
   vertex 238.117599 -67.034454 576.619385
   vertex 239.079514 -67.306526 576.645569
   vertex 238.108902 -67.017021 577.119019
  endloop
 facet normal -0.961921 0.272065 -0.026238
  outer loop
   vertex 238.108902 -67.017021 577.119019
   vertex 238.581314 -65.399658 576.570374
   vertex 238.117599 -67.034454 576.619385
  endloop
 facet normal -0.961921 0.272065 -0.026238
  outer loop
   vertex 238.572617 -65.382225 577.070007
   vertex 238.581314 -65.399658 576.570374
   vertex 238.108902 -67.017021 577.119019
  endloop
 facet normal 0.272775 0.961647 -0.028805
  outer loop
   vertex 239.543228 -65.671722 576.596619
   vertex 238.581314 -65.399658 576.570374
   vertex 238.572617 -65.382225 577.070007
  endloop
 facet normal 0.272771 0.961648 -0.028814
  outer loop
   vertex 238.572617 -65.382225 577.070007
   vertex 239.534546 -65.654289 577.096252
   vertex 239.543228 -65.671722 576.596619
  endloop
 facet normal 0.961919 -0.272074 0.026209
  outer loop
   vertex 239.543228 -65.671722 576.596619
   vertex 239.534546 -65.654289 577.096252
   vertex 239.491150 -65.831299 576.851440
  endloop
 facet normal 0.961919 -0.272075 0.026210
  outer loop
   vertex 239.491150 -65.831299 576.851440
   vertex 239.534546 -65.654289 577.096252
   vertex 239.439072 -65.990868 577.106323
  endloop
 facet normal 0.961919 -0.272076 0.026209
  outer loop
   vertex 239.439072 -65.990868 577.106323
   vertex 239.447754 -66.008301 576.606689
   vertex 239.491150 -65.831299 576.851440
  endloop
 facet normal -0.961919 0.272075 -0.026209
  outer loop
   vertex 239.543228 -65.671722 576.596619
   vertex 239.447754 -66.008301 576.606689
   vertex 239.439072 -65.990868 577.106323
  endloop
 facet normal 0.961919 -0.272075 0.026208
  outer loop
   vertex 239.491150 -65.831299 576.851440
   vertex 239.447754 -66.008301 576.606689
   vertex 239.543228 -65.671722 576.596619
  endloop
 facet normal 0.961923 -0.272071 0.026119
  outer loop
   vertex 240.401062 -69.265388 577.663025
   vertex 240.399170 -69.261566 577.772522
   vertex 235.048141 -88.126183 578.337769
  endloop
 facet normal -0.017318 0.034853 0.999242
  outer loop
   vertex 235.048141 -88.126183 578.337769
   vertex 240.399170 -69.261566 577.772522
   vertex 240.262268 -69.222847 577.768799
  endloop
 facet normal -0.017318 0.034853 0.999242
  outer loop
   vertex 240.262268 -69.222847 577.768799
   vertex 234.911240 -88.087463 578.334045
   vertex 235.048141 -88.126183 578.337769
  endloop
 facet normal -0.904065 0.266455 0.334167
  outer loop
   vertex 240.250458 -69.220512 577.734985
   vertex 234.911240 -88.087463 578.334045
   vertex 240.262268 -69.222847 577.768799
  endloop
 facet normal -0.904252 0.266491 0.333633
  outer loop
   vertex 234.899429 -88.085129 578.300171
   vertex 234.911240 -88.087463 578.334045
   vertex 240.250458 -69.220512 577.734985
  endloop
 facet normal -0.017417 0.034878 0.999240
  outer loop
   vertex 240.250458 -69.220512 577.734985
   vertex 239.660294 -69.053589 577.718872
   vertex 234.899429 -88.085129 578.300171
  endloop
 facet normal -0.017321 0.034854 0.999242
  outer loop
   vertex 234.899429 -88.085129 578.300171
   vertex 239.660294 -69.053589 577.718872
   vertex 234.309265 -87.918205 578.284119
  endloop
 facet normal 0.891751 -0.241482 0.382709
  outer loop
   vertex 234.309265 -87.918205 578.284119
   vertex 239.660294 -69.053589 577.718872
   vertex 239.647308 -69.048920 577.752075
  endloop
 facet normal 0.891635 -0.241440 0.383007
  outer loop
   vertex 239.647308 -69.048920 577.752075
   vertex 234.296295 -87.913528 578.317261
   vertex 234.309265 -87.918205 578.284119
  endloop
 facet normal -0.017927 0.035022 0.999226
  outer loop
   vertex 239.579391 -69.029701 577.750183
   vertex 234.296295 -87.913528 578.317261
   vertex 239.647308 -69.048920 577.752075
  endloop
 facet normal -0.017096 0.034790 0.999248
  outer loop
   vertex 234.228363 -87.894318 578.315430
   vertex 234.296295 -87.913528 578.317261
   vertex 239.579391 -69.029701 577.750183
  endloop
 facet normal -0.961921 0.272068 -0.026214
  outer loop
   vertex 239.579391 -69.029701 577.750183
   vertex 239.606659 -69.084450 576.181396
   vertex 234.228363 -87.894318 578.315430
  endloop
 facet normal -0.961921 0.272067 -0.026222
  outer loop
   vertex 234.228363 -87.894318 578.315430
   vertex 239.606659 -69.084450 576.181396
   vertex 234.255646 -87.949059 576.746643
  endloop
 facet normal 0.017095 -0.034790 -0.999248
  outer loop
   vertex 234.255646 -87.949059 576.746643
   vertex 239.606659 -69.084450 576.181396
   vertex 234.323563 -87.968277 576.748474
  endloop
 facet normal 0.017414 -0.034826 -0.999242
  outer loop
   vertex 232.527267 -89.490150 577.305725
   vertex 231.919571 -88.885109 577.274048
   vertex 232.881485 -89.157173 577.300293
  endloop
 facet normal 0.272775 0.961646 -0.028814
  outer loop
   vertex 232.881485 -89.157173 577.300293
   vertex 231.919571 -88.885109 577.274048
   vertex 232.872803 -89.139740 577.799927
  endloop
 facet normal 0.961931 -0.272035 0.026207
  outer loop
   vertex 232.872803 -89.139740 577.799927
   vertex 232.786026 -89.493752 577.310364
   vertex 232.881485 -89.157173 577.300293
  endloop
 facet normal 0.961919 -0.272074 0.026238
  outer loop
   vertex 232.777328 -89.476318 577.809998
   vertex 232.786026 -89.493752 577.310364
   vertex 232.872803 -89.139740 577.799927
  endloop
 facet normal -0.961919 0.272074 -0.026238
  outer loop
   vertex 232.872803 -89.139740 577.799927
   vertex 232.786026 -89.493752 577.310364
   vertex 232.777328 -89.476318 577.809998
  endloop
 facet normal -0.017392 0.034832 0.999242
  outer loop
   vertex 232.777328 -89.476318 577.809998
   vertex 232.999542 -89.608749 577.818481
   vertex 232.872803 -89.139740 577.799927
  endloop
 facet normal -0.017334 0.034847 0.999242
  outer loop
   vertex 232.872803 -89.139740 577.799927
   vertex 232.999542 -89.608749 577.818481
   vertex 233.250549 -89.364883 577.814331
  endloop
 facet normal -0.017359 0.034874 0.999241
  outer loop
   vertex 233.250549 -89.364883 577.814331
   vertex 232.999542 -89.608749 577.818481
   vertex 233.125656 -89.834534 577.828552
  endloop
 facet normal -0.017454 0.034899 0.999238
  outer loop
   vertex 233.125656 -89.834534 577.828552
   vertex 233.464966 -89.748718 577.831482
   vertex 233.250549 -89.364883 577.814331
  endloop
 facet normal -0.017459 0.034917 0.999238
  outer loop
   vertex 233.121902 -90.093170 577.837524
   vertex 233.464966 -89.748718 577.831482
   vertex 233.125656 -89.834534 577.828552
  endloop
 facet normal -0.017332 0.034791 0.999244
  outer loop
   vertex 233.458572 -90.188400 577.846680
   vertex 233.464966 -89.748718 577.831482
   vertex 233.121902 -90.093170 577.837524
  endloop
 facet normal -0.017336 0.034778 0.999245
  outer loop
   vertex 233.121902 -90.093170 577.837524
   vertex 232.989273 -90.315361 577.842957
   vertex 233.458572 -90.188400 577.846680
  endloop
 facet normal -0.017372 0.034913 0.999239
  outer loop
   vertex 233.458572 -90.188400 577.846680
   vertex 232.989273 -90.315361 577.842957
   vertex 233.233109 -90.566116 577.855957
  endloop
 facet normal -0.017351 0.034934 0.999239
  outer loop
   vertex 233.233109 -90.566116 577.855957
   vertex 232.989273 -90.315361 577.842957
   vertex 232.763306 -90.441559 577.843445
  endloop
 facet normal -0.017382 0.034818 0.999243
  outer loop
   vertex 232.763306 -90.441559 577.843445
   vertex 232.848969 -90.780655 577.856750
   vertex 233.233109 -90.566116 577.855957
  endloop
 facet normal -0.017431 0.034806 0.999242
  outer loop
   vertex 232.504562 -90.437965 577.838806
   vertex 232.848969 -90.780655 577.856750
   vertex 232.763306 -90.441559 577.843445
  endloop
 facet normal -0.017401 0.034835 0.999242
  outer loop
   vertex 232.409088 -90.774536 577.848877
   vertex 232.848969 -90.780655 577.856750
   vertex 232.504562 -90.437965 577.838806
  endloop
 facet normal -0.017390 0.034832 0.999242
  outer loop
   vertex 232.504562 -90.437965 577.838806
   vertex 232.282349 -90.305527 577.830322
   vertex 232.409088 -90.774536 577.848877
  endloop
 facet normal -0.017345 0.034844 0.999242
  outer loop
   vertex 232.409088 -90.774536 577.848877
   vertex 232.282349 -90.305527 577.830322
   vertex 231.447159 -90.502472 577.822693
  endloop
 facet normal -0.017352 0.034876 0.999241
  outer loop
   vertex 231.447159 -90.502472 577.822693
   vertex 232.282349 -90.305527 577.830322
   vertex 232.156219 -90.079742 577.820251
  endloop
 facet normal -0.017376 0.034917 0.999239
  outer loop
   vertex 232.156219 -90.079742 577.820251
   vertex 232.159988 -89.821106 577.811279
   vertex 231.447159 -90.502472 577.822693
  endloop
 facet normal -0.017345 0.034844 0.999242
  outer loop
   vertex 238.944092 -66.820076 577.126648
   vertex 238.108902 -67.017021 577.119019
   vertex 239.070831 -67.289093 577.145203
  endloop
 facet normal -0.272776 -0.961646 0.028814
  outer loop
   vertex 239.070831 -67.289093 577.145203
   vertex 238.108902 -67.017021 577.119019
   vertex 239.079514 -67.306526 576.645569
  endloop
 facet normal 0.961931 -0.272035 0.026207
  outer loop
   vertex 239.079514 -67.306526 576.645569
   vertex 239.166290 -66.952515 577.135132
   vertex 239.070831 -67.289093 577.145203
  endloop
 facet normal 0.961919 -0.272074 0.026238
  outer loop
   vertex 239.174988 -66.969948 576.635498
   vertex 239.166290 -66.952515 577.135132
   vertex 239.079514 -67.306526 576.645569
  endloop
 facet normal -0.961919 0.272074 -0.026238
  outer loop
   vertex 239.079514 -67.306526 576.645569
   vertex 239.166290 -66.952515 577.135132
   vertex 239.174988 -66.969948 576.635498
  endloop
 facet normal 0.017429 -0.034842 -0.999241
  outer loop
   vertex 239.174988 -66.969948 576.635498
   vertex 239.433731 -66.973549 576.640137
   vertex 239.079514 -67.306526 576.645569
  endloop
 facet normal 0.017401 -0.034813 -0.999242
  outer loop
   vertex 239.079514 -67.306526 576.645569
   vertex 239.433731 -66.973549 576.640137
   vertex 239.519394 -67.312645 576.653442
  endloop
 facet normal 0.017299 -0.034839 -0.999243
  outer loop
   vertex 239.519394 -67.312645 576.653442
   vertex 239.433731 -66.973549 576.640137
   vertex 239.659698 -66.847343 576.639648
  endloop
 facet normal 0.017413 -0.034873 -0.999240
  outer loop
   vertex 239.659698 -66.847343 576.639648
   vertex 239.903534 -67.098099 576.652649
   vertex 239.519394 -67.312645 576.653442
  endloop
 facet normal 0.017444 -0.034843 -0.999241
  outer loop
   vertex 239.792328 -66.625160 576.634216
   vertex 239.903534 -67.098099 576.652649
   vertex 239.659698 -66.847343 576.639648
  endloop
 facet normal 0.017308 -0.034875 -0.999242
  outer loop
   vertex 240.129013 -66.720383 576.643372
   vertex 239.903534 -67.098099 576.652649
   vertex 239.792328 -66.625160 576.634216
  endloop
 facet normal 0.017297 -0.034916 -0.999241
  outer loop
   vertex 239.792328 -66.625160 576.634216
   vertex 239.796097 -66.366524 576.625244
   vertex 240.129013 -66.720383 576.643372
  endloop
 facet normal 0.017429 -0.034792 -0.999243
  outer loop
   vertex 240.129013 -66.720383 576.643372
   vertex 239.796097 -66.366524 576.625244
   vertex 240.135391 -66.280701 576.628174
  endloop
 facet normal 0.017438 -0.034829 -0.999241
  outer loop
   vertex 240.135391 -66.280701 576.628174
   vertex 239.796097 -66.366524 576.625244
   vertex 239.669968 -66.140739 576.615173
  endloop
 facet normal 0.017409 -0.034925 -0.999238
  outer loop
   vertex 239.669968 -66.140739 576.615173
   vertex 239.920990 -65.896866 576.611023
   vertex 240.135391 -66.280701 576.628174
  endloop
 facet normal 0.017363 -0.034878 -0.999241
  outer loop
   vertex 239.447754 -66.008301 576.606689
   vertex 239.920990 -65.896866 576.611023
   vertex 239.669968 -66.140739 576.615173
  endloop
 facet normal 0.017349 -0.034820 -0.999243
  outer loop
   vertex 239.543228 -65.671722 576.596619
   vertex 239.920990 -65.896866 576.611023
   vertex 239.447754 -66.008301 576.606689
  endloop
 facet normal 0.017429 -0.034842 -0.999241
  outer loop
   vertex 239.447754 -66.008301 576.606689
   vertex 239.189011 -66.004700 576.602051
   vertex 239.543228 -65.671722 576.596619
  endloop
 facet normal 0.017414 -0.034826 -0.999242
  outer loop
   vertex 239.543228 -65.671722 576.596619
   vertex 239.189011 -66.004700 576.602051
   vertex 238.581314 -65.399658 576.570374
  endloop
 facet normal 0.017335 -0.034904 -0.999240
  outer loop
   vertex 238.581314 -65.399658 576.570374
   vertex 239.189011 -66.004700 576.602051
   vertex 238.963043 -66.130905 576.602539
  endloop
 facet normal 0.017448 -0.034846 -0.999240
  outer loop
   vertex 238.963043 -66.130905 576.602539
   vertex 238.830414 -66.353088 576.607971
   vertex 238.581314 -65.399658 576.570374
  endloop
 facet normal -0.453525 0.154942 0.877672
  outer loop
   vertex 239.677887 -68.629074 577.784485
   vertex 239.209702 -68.504181 577.520508
   vertex 239.361816 -69.743347 577.817871
  endloop
 facet normal -0.453525 0.154942 0.877672
  outer loop
   vertex 239.361816 -69.743347 577.817871
   vertex 239.209702 -68.504181 577.520508
   vertex 238.893631 -69.618454 577.553894
  endloop
 facet normal -0.272774 -0.961647 0.028812
  outer loop
   vertex 238.893631 -69.618454 577.553894
   vertex 238.913788 -69.658913 576.394348
   vertex 239.361816 -69.743347 577.817871
  endloop
 facet normal -0.961921 0.272069 -0.026214
  outer loop
   vertex 239.209702 -68.504181 577.520508
   vertex 238.913788 -69.658913 576.394348
   vertex 238.893631 -69.618454 577.553894
  endloop
 facet normal -0.961921 0.272069 -0.026214
  outer loop
   vertex 239.229858 -68.544640 576.360962
   vertex 238.913788 -69.658913 576.394348
   vertex 239.209702 -68.504181 577.520508
  endloop
 facet normal 0.272771 0.961648 -0.028812
  outer loop
   vertex 239.209702 -68.504181 577.520508
   vertex 239.706787 -68.687057 576.122742
   vertex 239.229858 -68.544640 576.360962
  endloop
 facet normal -0.422587 0.092857 -0.901553
  outer loop
   vertex 239.229858 -68.544640 576.360962
   vertex 239.706787 -68.687057 576.122742
   vertex 238.913788 -69.658913 576.394348
  endloop
 facet normal -0.422587 0.092857 -0.901553
  outer loop
   vertex 238.913788 -69.658913 576.394348
   vertex 239.706787 -68.687057 576.122742
   vertex 239.390717 -69.801331 576.156128
  endloop
 facet normal -0.272771 -0.961647 0.028811
  outer loop
   vertex 239.390717 -69.801331 576.156128
   vertex 239.361816 -69.743347 577.817871
   vertex 238.913788 -69.658913 576.394348
  endloop
 facet normal -0.272776 -0.961646 0.028811
  outer loop
   vertex 240.181183 -70.017784 576.415344
   vertex 239.361816 -69.743347 577.817871
   vertex 239.390717 -69.801331 576.156128
  endloop
 facet normal -0.272780 -0.961645 0.028808
  outer loop
   vertex 240.160538 -69.976379 577.601990
   vertex 239.361816 -69.743347 577.817871
   vertex 240.181183 -70.017784 576.415344
  endloop
 facet normal 0.961920 -0.272069 0.026228
  outer loop
   vertex 240.181183 -70.017784 576.415344
   vertex 240.476608 -68.862106 577.568604
   vertex 240.160538 -69.976379 577.601990
  endloop
 facet normal 0.158863 -0.074560 -0.984481
  outer loop
   vertex 240.160538 -69.976379 577.601990
   vertex 240.476608 -68.862106 577.568604
   vertex 240.255219 -70.002716 577.619263
  endloop
 facet normal 0.158863 -0.074560 -0.984481
  outer loop
   vertex 240.255219 -70.002716 577.619263
   vertex 240.476608 -68.862106 577.568604
   vertex 240.571289 -68.888443 577.585876
  endloop
 facet normal 0.961920 -0.272069 0.026230
  outer loop
   vertex 240.571289 -68.888443 577.585876
   vertex 240.252457 -69.997169 577.778076
   vertex 240.255219 -70.002716 577.619263
  endloop
 facet normal 0.961920 -0.272069 0.026230
  outer loop
   vertex 240.568527 -68.882896 577.744690
   vertex 240.252457 -69.997169 577.778076
   vertex 240.571289 -68.888443 577.585876
  endloop
 facet normal 0.573836 -0.138588 0.807159
  outer loop
   vertex 240.487473 -68.858055 577.806580
   vertex 240.252457 -69.997169 577.778076
   vertex 240.568527 -68.882896 577.744690
  endloop
 facet normal 0.272720 0.961662 -0.028821
  outer loop
   vertex 240.568527 -68.882896 577.744690
   vertex 240.476608 -68.862106 577.568604
   vertex 240.487473 -68.858055 577.806580
  endloop
 facet normal 0.272776 0.961646 -0.028824
  outer loop
   vertex 240.487473 -68.858055 577.806580
   vertex 240.476608 -68.862106 577.568604
   vertex 239.677887 -68.629074 577.784485
  endloop
 facet normal 0.272780 0.961645 -0.028808
  outer loop
   vertex 239.677887 -68.629074 577.784485
   vertex 240.476608 -68.862106 577.568604
   vertex 240.497253 -68.903511 576.381958
  endloop
 facet normal 0.272776 0.961646 -0.028811
  outer loop
   vertex 240.497253 -68.903511 576.381958
   vertex 239.706787 -68.687057 576.122742
   vertex 239.677887 -68.629074 577.784485
  endloop
 facet normal 0.272779 0.961645 -0.028821
  outer loop
   vertex 240.516357 -68.916039 576.144775
   vertex 239.706787 -68.687057 576.122742
   vertex 240.497253 -68.903511 576.381958
  endloop
 facet normal 0.017337 -0.034857 -0.999242
  outer loop
   vertex 239.390717 -69.801331 576.156128
   vertex 239.706787 -68.687057 576.122742
   vertex 240.516357 -68.916039 576.144775
  endloop
 facet normal 0.017337 -0.034857 -0.999242
  outer loop
   vertex 240.516357 -68.916039 576.144775
   vertex 240.200302 -70.030312 576.178162
   vertex 239.390717 -69.801331 576.156128
  endloop
 facet normal -0.272774 -0.961647 0.028804
  outer loop
   vertex 239.390717 -69.801331 576.156128
   vertex 240.200302 -70.030312 576.178162
   vertex 240.181183 -70.017784 576.415344
  endloop
 facet normal -0.272797 -0.961640 0.028802
  outer loop
   vertex 240.181183 -70.017784 576.415344
   vertex 240.200302 -70.030312 576.178162
   vertex 240.279129 -70.050690 576.244385
  endloop
 facet normal -0.272827 -0.961633 0.028783
  outer loop
   vertex 240.279129 -70.050690 576.244385
   vertex 240.276367 -70.045151 576.403259
   vertex 240.181183 -70.017784 576.415344
  endloop
 facet normal 0.961921 -0.272068 0.026207
  outer loop
   vertex 240.592438 -68.930870 576.369873
   vertex 240.276367 -70.045151 576.403259
   vertex 240.279129 -70.050690 576.244385
  endloop
 facet normal 0.124380 -0.005552 0.992219
  outer loop
   vertex 240.181183 -70.017784 576.415344
   vertex 240.276367 -70.045151 576.403259
   vertex 240.592438 -68.930870 576.369873
  endloop
 facet normal 0.124380 -0.005552 0.992219
  outer loop
   vertex 240.592438 -68.930870 576.369873
   vertex 240.497253 -68.903511 576.381958
   vertex 240.181183 -70.017784 576.415344
  endloop
 facet normal 0.961920 -0.272069 0.026228
  outer loop
   vertex 240.181183 -70.017784 576.415344
   vertex 240.497253 -68.903511 576.381958
   vertex 240.476608 -68.862106 577.568604
  endloop
 facet normal -0.422597 0.092860 -0.901548
  outer loop
   vertex 234.131454 -88.342430 576.711670
   vertex 233.654541 -88.200012 576.949890
   vertex 234.447525 -87.228157 576.678284
  endloop
 facet normal -0.422597 0.092860 -0.901548
  outer loop
   vertex 234.447525 -87.228157 576.678284
   vertex 233.654541 -88.200012 576.949890
   vertex 233.970612 -87.085739 576.916504
  endloop
 facet normal 0.272778 0.961645 -0.028815
  outer loop
   vertex 233.970612 -87.085739 576.916504
   vertex 233.950439 -87.045273 578.076050
   vertex 234.447525 -87.228157 576.678284
  endloop
 facet normal -0.961920 0.272069 -0.026229
  outer loop
   vertex 233.654541 -88.200012 576.949890
   vertex 233.950439 -87.045273 578.076050
   vertex 233.970612 -87.085739 576.916504
  endloop
 facet normal -0.961921 0.272067 -0.026227
  outer loop
   vertex 233.634369 -88.159554 578.109436
   vertex 233.950439 -87.045273 578.076050
   vertex 233.654541 -88.200012 576.949890
  endloop
 facet normal -0.272764 -0.961650 0.028809
  outer loop
   vertex 233.654541 -88.200012 576.949890
   vertex 234.102570 -88.284447 578.373413
   vertex 233.634369 -88.159554 578.109436
  endloop
 facet normal -0.453515 0.154939 0.877678
  outer loop
   vertex 233.634369 -88.159554 578.109436
   vertex 234.102570 -88.284447 578.373413
   vertex 233.950439 -87.045273 578.076050
  endloop
 facet normal -0.453515 0.154939 0.877678
  outer loop
   vertex 233.950439 -87.045273 578.076050
   vertex 234.102570 -88.284447 578.373413
   vertex 234.418640 -87.170166 578.340027
  endloop
 facet normal 0.272769 0.961648 -0.028818
  outer loop
   vertex 234.418640 -87.170166 578.340027
   vertex 234.447525 -87.228157 576.678284
   vertex 233.950439 -87.045273 578.076050
  endloop
 facet normal 0.272775 0.961646 -0.028818
  outer loop
   vertex 235.217361 -87.403198 578.124084
   vertex 234.447525 -87.228157 576.678284
   vertex 234.418640 -87.170166 578.340027
  endloop
 facet normal 0.272768 0.961648 -0.028813
  outer loop
   vertex 235.237991 -87.444603 576.937500
   vertex 234.447525 -87.228157 576.678284
   vertex 235.217361 -87.403198 578.124084
  endloop
 facet normal 0.961921 -0.272068 0.026217
  outer loop
   vertex 235.217361 -87.403198 578.124084
   vertex 234.921921 -88.558884 576.970886
   vertex 235.237991 -87.444603 576.937500
  endloop
 facet normal 0.124959 -0.005718 0.992145
  outer loop
   vertex 235.237991 -87.444603 576.937500
   vertex 234.921921 -88.558884 576.970886
   vertex 235.333176 -87.471970 576.925354
  endloop
 facet normal 0.124959 -0.005718 0.992145
  outer loop
   vertex 235.333176 -87.471970 576.925354
   vertex 234.921921 -88.558884 576.970886
   vertex 235.017105 -88.586243 576.958740
  endloop
 facet normal 0.961920 -0.272069 0.026230
  outer loop
   vertex 235.017105 -88.586243 576.958740
   vertex 235.335938 -87.477516 576.766541
   vertex 235.333176 -87.471970 576.925354
  endloop
 facet normal 0.961920 -0.272069 0.026230
  outer loop
   vertex 235.019867 -88.591789 576.799927
   vertex 235.335938 -87.477516 576.766541
   vertex 235.017105 -88.586243 576.958740
  endloop
 facet normal 0.601202 -0.193763 -0.775249
  outer loop
   vertex 234.941040 -88.571411 576.733704
   vertex 235.335938 -87.477516 576.766541
   vertex 235.019867 -88.591789 576.799927
  endloop
 facet normal -0.272797 -0.961640 0.028802
  outer loop
   vertex 235.019867 -88.591789 576.799927
   vertex 234.921921 -88.558884 576.970886
   vertex 234.941040 -88.571411 576.733704
  endloop
 facet normal -0.272774 -0.961647 0.028804
  outer loop
   vertex 234.941040 -88.571411 576.733704
   vertex 234.921921 -88.558884 576.970886
   vertex 234.131454 -88.342430 576.711670
  endloop
 facet normal -0.272778 -0.961645 0.028819
  outer loop
   vertex 234.131454 -88.342430 576.711670
   vertex 234.921921 -88.558884 576.970886
   vertex 234.901291 -88.517471 578.157471
  endloop
 facet normal -0.272768 -0.961648 0.028814
  outer loop
   vertex 234.901291 -88.517471 578.157471
   vertex 234.102570 -88.284447 578.373413
   vertex 234.131454 -88.342430 576.711670
  endloop
 facet normal -0.272770 -0.961648 0.028806
  outer loop
   vertex 234.912140 -88.513420 578.395447
   vertex 234.102570 -88.284447 578.373413
   vertex 234.901291 -88.517471 578.157471
  endloop
 facet normal -0.017337 0.034857 0.999242
  outer loop
   vertex 234.418640 -87.170166 578.340027
   vertex 234.102570 -88.284447 578.373413
   vertex 234.912140 -88.513420 578.395447
  endloop
 facet normal -0.017337 0.034857 0.999242
  outer loop
   vertex 234.912140 -88.513420 578.395447
   vertex 235.228210 -87.399147 578.362061
   vertex 234.418640 -87.170166 578.340027
  endloop
 facet normal 0.272778 0.961646 -0.028806
  outer loop
   vertex 234.418640 -87.170166 578.340027
   vertex 235.228210 -87.399147 578.362061
   vertex 235.217361 -87.403198 578.124084
  endloop
 facet normal 0.272832 0.961630 -0.028808
  outer loop
   vertex 235.217361 -87.403198 578.124084
   vertex 235.228210 -87.399147 578.362061
   vertex 235.309265 -87.423996 578.300232
  endloop
 facet normal 0.272763 0.961651 -0.028770
  outer loop
   vertex 235.309265 -87.423996 578.300232
   vertex 235.312042 -87.429535 578.141418
   vertex 235.217361 -87.403198 578.124084
  endloop
 facet normal 0.961919 -0.272066 0.026309
  outer loop
   vertex 234.995972 -88.543816 578.174744
   vertex 235.312042 -87.429535 578.141418
   vertex 235.309265 -87.423996 578.300232
  endloop
 facet normal 0.159448 -0.074668 -0.984378
  outer loop
   vertex 235.217361 -87.403198 578.124084
   vertex 235.312042 -87.429535 578.141418
   vertex 234.995972 -88.543816 578.174744
  endloop
 facet normal 0.158857 -0.074558 -0.984482
  outer loop
   vertex 234.995972 -88.543816 578.174744
   vertex 234.901291 -88.517471 578.157471
   vertex 235.217361 -87.403198 578.124084
  endloop
 facet normal 0.961920 -0.272069 0.026219
  outer loop
   vertex 235.217361 -87.403198 578.124084
   vertex 234.901291 -88.517471 578.157471
   vertex 234.921921 -88.558884 576.970886
  endloop
 facet normal -0.017428 0.034841 0.999241
  outer loop
   vertex 239.166290 -66.952515 577.135132
   vertex 239.070831 -67.289093 577.145203
   vertex 239.425049 -66.956116 577.139771
  endloop
 facet normal -0.017402 0.034814 0.999242
  outer loop
   vertex 239.425049 -66.956116 577.139771
   vertex 239.070831 -67.289093 577.145203
   vertex 239.510712 -67.295204 577.153076
  endloop
 facet normal -0.017299 0.034840 0.999243
  outer loop
   vertex 239.510712 -67.295204 577.153076
   vertex 239.651016 -66.829910 577.139282
   vertex 239.425049 -66.956116 577.139771
  endloop
 facet normal -0.017413 0.034874 0.999240
  outer loop
   vertex 239.894852 -67.080666 577.152283
   vertex 239.651016 -66.829910 577.139282
   vertex 239.510712 -67.295204 577.153076
  endloop
 facet normal -0.017444 0.034843 0.999241
  outer loop
   vertex 239.783646 -66.607727 577.133850
   vertex 239.651016 -66.829910 577.139282
   vertex 239.894852 -67.080666 577.152283
  endloop
 facet normal -0.017309 0.034875 0.999242
  outer loop
   vertex 239.894852 -67.080666 577.152283
   vertex 240.120316 -66.702950 577.143005
   vertex 239.783646 -66.607727 577.133850
  endloop
 facet normal -0.017298 0.034915 0.999241
  outer loop
   vertex 239.783646 -66.607727 577.133850
   vertex 240.120316 -66.702950 577.143005
   vertex 239.787399 -66.349091 577.124878
  endloop
 facet normal -0.017428 0.034793 0.999243
  outer loop
   vertex 239.787399 -66.349091 577.124878
   vertex 240.120316 -66.702950 577.143005
   vertex 240.126709 -66.263268 577.127808
  endloop
 facet normal -0.017437 0.034830 0.999241
  outer loop
   vertex 240.126709 -66.263268 577.127808
   vertex 239.661285 -66.123306 577.114807
   vertex 239.787399 -66.349091 577.124878
  endloop
 facet normal -0.017409 0.034924 0.999238
  outer loop
   vertex 239.912292 -65.879433 577.110657
   vertex 239.661285 -66.123306 577.114807
   vertex 240.126709 -66.263268 577.127808
  endloop
 facet normal -0.017363 0.034877 0.999241
  outer loop
   vertex 239.439072 -65.990868 577.106323
   vertex 239.661285 -66.123306 577.114807
   vertex 239.912292 -65.879433 577.110657
  endloop
 facet normal -0.017350 0.034820 0.999243
  outer loop
   vertex 239.912292 -65.879433 577.110657
   vertex 239.534546 -65.654289 577.096252
   vertex 239.439072 -65.990868 577.106323
  endloop
 facet normal -0.017428 0.034842 0.999241
  outer loop
   vertex 239.439072 -65.990868 577.106323
   vertex 239.534546 -65.654289 577.096252
   vertex 239.180313 -65.987267 577.101685
  endloop
 facet normal -0.017413 0.034826 0.999242
  outer loop
   vertex 239.180313 -65.987267 577.101685
   vertex 239.534546 -65.654289 577.096252
   vertex 238.572617 -65.382225 577.070007
  endloop
 facet normal -0.017336 0.034904 0.999240
  outer loop
   vertex 238.572617 -65.382225 577.070007
   vertex 238.954361 -66.113472 577.102173
   vertex 239.180313 -65.987267 577.101685
  endloop
 facet normal -0.017446 0.034846 0.999240
  outer loop
   vertex 238.821716 -66.335655 577.107605
   vertex 238.954361 -66.113472 577.102173
   vertex 238.572617 -65.382225 577.070007
  endloop
 facet normal 0.017393 -0.034831 -0.999242
  outer loop
   vertex 232.786026 -89.493752 577.310364
   vertex 232.881485 -89.157173 577.300293
   vertex 233.008224 -89.626183 577.318848
  endloop
 facet normal 0.017333 -0.034848 -0.999242
  outer loop
   vertex 233.008224 -89.626183 577.318848
   vertex 232.881485 -89.157173 577.300293
   vertex 233.259247 -89.382317 577.314697
  endloop
 facet normal 0.017358 -0.034873 -0.999241
  outer loop
   vertex 233.259247 -89.382317 577.314697
   vertex 233.134354 -89.851967 577.328918
   vertex 233.008224 -89.626183 577.318848
  endloop
 facet normal 0.017455 -0.034899 -0.999238
  outer loop
   vertex 233.473648 -89.766151 577.331848
   vertex 233.134354 -89.851967 577.328918
   vertex 233.259247 -89.382317 577.314697
  endloop
 facet normal 0.017460 -0.034918 -0.999238
  outer loop
   vertex 233.130585 -90.110603 577.337891
   vertex 233.134354 -89.851967 577.328918
   vertex 233.473648 -89.766151 577.331848
  endloop
 facet normal 0.017331 -0.034791 -0.999244
  outer loop
   vertex 233.473648 -89.766151 577.331848
   vertex 233.467270 -90.205833 577.347046
   vertex 233.130585 -90.110603 577.337891
  endloop
 facet normal 0.017335 -0.034777 -0.999245
  outer loop
   vertex 233.130585 -90.110603 577.337891
   vertex 233.467270 -90.205833 577.347046
   vertex 232.997955 -90.332794 577.343323
  endloop
 facet normal 0.017372 -0.034913 -0.999239
  outer loop
   vertex 232.997955 -90.332794 577.343323
   vertex 233.467270 -90.205833 577.347046
   vertex 233.241791 -90.583549 577.356323
  endloop
 facet normal 0.017351 -0.034933 -0.999239
  outer loop
   vertex 233.241791 -90.583549 577.356323
   vertex 232.772003 -90.458992 577.343811
   vertex 232.997955 -90.332794 577.343323
  endloop
 facet normal 0.017382 -0.034819 -0.999242
  outer loop
   vertex 232.857651 -90.798088 577.357117
   vertex 232.772003 -90.458992 577.343811
   vertex 233.241791 -90.583549 577.356323
  endloop
 facet normal 0.017430 -0.034807 -0.999242
  outer loop
   vertex 232.513245 -90.455399 577.339172
   vertex 232.772003 -90.458992 577.343811
   vertex 232.857651 -90.798088 577.357117
  endloop
 facet normal 0.017402 -0.034835 -0.999242
  outer loop
   vertex 232.857651 -90.798088 577.357117
   vertex 232.417770 -90.791977 577.349243
   vertex 232.513245 -90.455399 577.339172
  endloop
 facet normal 0.017391 -0.034831 -0.999242
  outer loop
   vertex 232.513245 -90.455399 577.339172
   vertex 232.417770 -90.791977 577.349243
   vertex 232.291031 -90.322960 577.330688
  endloop
 facet normal 0.017345 -0.034844 -0.999242
  outer loop
   vertex 232.291031 -90.322960 577.330688
   vertex 232.417770 -90.791977 577.349243
   vertex 231.455856 -90.519905 577.323059
  endloop
 facet normal 0.017353 -0.034877 -0.999241
  outer loop
   vertex 231.455856 -90.519905 577.323059
   vertex 232.164917 -90.097176 577.320618
   vertex 232.291031 -90.322960 577.330688
  endloop
 facet normal 0.017376 -0.034916 -0.999239
  outer loop
   vertex 232.168671 -89.838539 577.311646
   vertex 232.164917 -90.097176 577.320618
   vertex 231.455856 -90.519905 577.323059
  endloop
 facet normal 0.017336 -0.034875 -0.999241
  outer loop
   vertex 238.581314 -65.399658 576.570374
   vertex 238.830414 -66.353088 576.607971
   vertex 238.117599 -67.034454 576.619385
  endloop
 facet normal 0.017376 -0.034916 -0.999239
  outer loop
   vertex 238.117599 -67.034454 576.619385
   vertex 238.830414 -66.353088 576.607971
   vertex 238.826660 -66.611725 576.616943
  endloop
 facet normal 0.017352 -0.034876 -0.999241
  outer loop
   vertex 238.826660 -66.611725 576.616943
   vertex 238.952774 -66.837517 576.627014
   vertex 238.117599 -67.034454 576.619385
  endloop
 facet normal 0.017335 -0.034904 -0.999240
  outer loop
   vertex 232.527267 -89.490150 577.305725
   vertex 232.301300 -89.616356 577.306213
   vertex 231.919571 -88.885109 577.274048
  endloop
 facet normal 0.017448 -0.034846 -0.999240
  outer loop
   vertex 231.919571 -88.885109 577.274048
   vertex 232.301300 -89.616356 577.306213
   vertex 232.168671 -89.838539 577.311646
  endloop
 facet normal 0.017336 -0.034875 -0.999241
  outer loop
   vertex 232.168671 -89.838539 577.311646
   vertex 231.455856 -90.519905 577.323059
   vertex 231.919571 -88.885109 577.274048
  endloop
 facet normal -0.017336 0.034875 0.999241
  outer loop
   vertex 231.447159 -90.502472 577.822693
   vertex 232.159988 -89.821106 577.811279
   vertex 231.910873 -88.867676 577.773682
  endloop
 facet normal -0.017448 0.034845 0.999240
  outer loop
   vertex 231.910873 -88.867676 577.773682
   vertex 232.159988 -89.821106 577.811279
   vertex 232.292618 -89.598923 577.805847
  endloop
 facet normal -0.017336 0.034904 0.999240
  outer loop
   vertex 232.292618 -89.598923 577.805847
   vertex 232.518570 -89.472717 577.805359
   vertex 231.910873 -88.867676 577.773682
  endloop
 facet normal -0.017352 0.034876 0.999241
  outer loop
   vertex 238.944092 -66.820076 577.126648
   vertex 238.817963 -66.594292 577.116577
   vertex 238.108902 -67.017021 577.119019
  endloop
 facet normal -0.017376 0.034916 0.999239
  outer loop
   vertex 238.108902 -67.017021 577.119019
   vertex 238.817963 -66.594292 577.116577
   vertex 238.821716 -66.335655 577.107605
  endloop
 facet normal -0.017336 0.034875 0.999241
  outer loop
   vertex 238.821716 -66.335655 577.107605
   vertex 238.572617 -65.382225 577.070007
   vertex 238.108902 -67.017021 577.119019
  endloop
 facet normal 0.573401 -0.138455 0.807491
  outer loop
   vertex 234.912140 -88.513420 578.395447
   vertex 234.993210 -88.538269 578.333618
   vertex 235.228210 -87.399147 578.362061
  endloop
 facet normal 0.573468 -0.138467 0.807442
  outer loop
   vertex 235.228210 -87.399147 578.362061
   vertex 234.993210 -88.538269 578.333618
   vertex 235.309265 -87.423996 578.300232
  endloop
 facet normal 0.017322 -0.034851 -0.999242
  outer loop
   vertex 239.686401 -69.105995 576.217102
   vertex 240.276566 -69.272919 576.233154
   vertex 234.335373 -87.970612 576.782288
  endloop
 facet normal 0.017417 -0.034881 -0.999240
  outer loop
   vertex 234.335373 -87.970612 576.782288
   vertex 240.276566 -69.272919 576.233154
   vertex 234.925552 -88.137527 576.798401
  endloop
 facet normal 0.601202 -0.193763 -0.775249
  outer loop
   vertex 240.279129 -70.050690 576.244385
   vertex 240.200302 -70.030312 576.178162
   vertex 240.595200 -68.936417 576.210999
  endloop
 facet normal 0.601139 -0.193739 -0.775305
  outer loop
   vertex 240.595200 -68.936417 576.210999
   vertex 240.200302 -70.030312 576.178162
   vertex 240.516357 -68.916039 576.144775
  endloop
 facet normal 0.961917 -0.272081 0.026212
  outer loop
   vertex 232.504562 -90.437965 577.838806
   vertex 232.409088 -90.774536 577.848877
   vertex 232.461166 -90.614967 577.594055
  endloop
 facet normal -0.272778 -0.961645 0.028813
  outer loop
   vertex 234.131454 -88.342430 576.711670
   vertex 234.102570 -88.284447 578.373413
   vertex 233.654541 -88.200012 576.949890
  endloop
 facet normal 0.017428 -0.034841 -0.999241
  outer loop
   vertex 232.881485 -89.157173 577.300293
   vertex 232.786026 -89.493752 577.310364
   vertex 232.527267 -89.490150 577.305725
  endloop
 facet normal 0.017392 -0.034832 -0.999242
  outer loop
   vertex 239.174988 -66.969948 576.635498
   vertex 239.079514 -67.306526 576.645569
   vertex 238.952774 -66.837517 576.627014
  endloop
 facet normal -0.961919 0.272075 -0.026213
  outer loop
   vertex 232.409088 -90.774536 577.848877
   vertex 232.513245 -90.455399 577.339172
   vertex 232.417770 -90.791977 577.349243
  endloop
 facet normal -0.017375 0.034866 0.999241
  outer loop
   vertex 239.278534 -68.780159 577.508545
   vertex 239.728104 -67.195206 577.461060
   vertex 238.245743 -66.775940 577.420654
  endloop
 facet normal 0.017375 -0.034866 -0.999241
  outer loop
   vertex 232.374573 -87.581482 576.928772
   vertex 233.856934 -88.000748 576.969177
   vertex 231.924988 -89.166428 576.976257
  endloop
 facet normal -0.961919 0.272075 -0.026209
  outer loop
   vertex 239.543228 -65.671722 576.596619
   vertex 239.439072 -65.990868 577.106323
   vertex 239.534546 -65.654289 577.096252
  endloop
 facet normal 0.272757 0.961650 -0.028842
  outer loop
   vertex 240.568527 -68.882896 577.744690
   vertex 240.571289 -68.888443 577.585876
   vertex 240.476608 -68.862106 577.568604
  endloop
 facet normal -0.961931 0.272035 -0.026207
  outer loop
   vertex 232.786026 -89.493752 577.310364
   vertex 232.872803 -89.139740 577.799927
   vertex 232.881485 -89.157173 577.300293
  endloop
 facet normal 0.272773 0.961647 -0.028811
  outer loop
   vertex 239.677887 -68.629074 577.784485
   vertex 239.706787 -68.687057 576.122742
   vertex 239.209702 -68.504181 577.520508
  endloop
 facet normal -0.272731 -0.961658 0.028843
  outer loop
   vertex 235.019867 -88.591789 576.799927
   vertex 235.017105 -88.586243 576.958740
   vertex 234.921921 -88.558884 576.970886
  endloop
 facet normal -0.017375 0.034866 0.999241
  outer loop
   vertex 233.837570 -87.961876 578.083313
   vertex 232.355194 -87.542603 578.042908
   vertex 231.905624 -89.127556 578.090393
  endloop
 facet normal -0.272772 -0.961647 0.028819
  outer loop
   vertex 237.796173 -68.360886 577.468140
   vertex 237.815536 -68.399765 576.354065
   vertex 239.297913 -68.819031 576.394470
  endloop
 facet normal -0.961931 0.272035 -0.026207
  outer loop
   vertex 239.166290 -66.952515 577.135132
   vertex 239.079514 -67.306526 576.645569
   vertex 239.070831 -67.289093 577.145203
  endloop
 facet normal -0.017392 0.034831 0.999242
  outer loop
   vertex 239.070831 -67.289093 577.145203
   vertex 239.166290 -66.952515 577.135132
   vertex 238.944092 -66.820076 577.126648
  endloop
 facet normal 0.873082 0.487570 -0.001814
  outer loop
   vertex 238.817963 -66.594292 577.116577
   vertex 238.952774 -66.837517 576.627014
   vertex 238.826660 -66.611725 576.616943
  endloop
 facet normal 0.999744 -0.013889 0.017888
  outer loop
   vertex 238.817963 -66.594292 577.116577
   vertex 238.826660 -66.611725 576.616943
   vertex 238.821716 -66.335655 577.107605
  endloop
 facet normal 0.999744 -0.013889 0.017888
  outer loop
   vertex 238.821716 -66.335655 577.107605
   vertex 238.826660 -66.611725 576.616943
   vertex 238.830414 -66.353088 576.607971
  endloop
 facet normal 0.858516 -0.511737 0.032800
  outer loop
   vertex 238.830414 -66.353088 576.607971
   vertex 238.954361 -66.113472 577.102173
   vertex 238.821716 -66.335655 577.107605
  endloop
 facet normal 0.858542 -0.511694 0.032773
  outer loop
   vertex 238.963043 -66.130905 576.602539
   vertex 238.954361 -66.113472 577.102173
   vertex 238.830414 -66.353088 576.607971
  endloop
 facet normal 0.487334 -0.872349 0.038906
  outer loop
   vertex 239.180313 -65.987267 577.101685
   vertex 238.954361 -66.113472 577.102173
   vertex 238.963043 -66.130905 576.602539
  endloop
 facet normal 0.487309 -0.872362 0.038921
  outer loop
   vertex 238.963043 -66.130905 576.602539
   vertex 239.189011 -66.004700 576.602051
   vertex 239.180313 -65.987267 577.101685
  endloop
 facet normal -0.014527 -0.999295 0.034614
  outer loop
   vertex 239.180313 -65.987267 577.101685
   vertex 239.189011 -66.004700 576.602051
   vertex 239.439072 -65.990868 577.106323
  endloop
 facet normal 0.512444 0.858462 -0.021049
  outer loop
   vertex 232.504562 -90.437965 577.838806
   vertex 232.513245 -90.455399 577.339172
   vertex 232.282349 -90.305527 577.830322
  endloop
 facet normal 0.512444 0.858462 -0.021049
  outer loop
   vertex 232.282349 -90.305527 577.830322
   vertex 232.513245 -90.455399 577.339172
   vertex 232.291031 -90.322960 577.330688
  endloop
 facet normal 0.873050 0.487627 -0.001843
  outer loop
   vertex 232.291031 -90.322960 577.330688
   vertex 232.156219 -90.079742 577.820251
   vertex 232.282349 -90.305527 577.830322
  endloop
 facet normal 0.873075 0.487583 -0.001814
  outer loop
   vertex 232.164917 -90.097176 577.320618
   vertex 232.156219 -90.079742 577.820251
   vertex 232.291031 -90.322960 577.330688
  endloop
 facet normal 0.999743 -0.013948 0.017890
  outer loop
   vertex 232.159988 -89.821106 577.811279
   vertex 232.156219 -90.079742 577.820251
   vertex 232.164917 -90.097176 577.320618
  endloop
 facet normal 0.999744 -0.013890 0.017857
  outer loop
   vertex 232.164917 -90.097176 577.320618
   vertex 232.168671 -89.838539 577.311646
   vertex 232.159988 -89.821106 577.811279
  endloop
 facet normal 0.858542 -0.511694 0.032773
  outer loop
   vertex 232.159988 -89.821106 577.811279
   vertex 232.168671 -89.838539 577.311646
   vertex 232.292618 -89.598923 577.805847
  endloop
 facet normal 0.858542 -0.511694 0.032773
  outer loop
   vertex 232.292618 -89.598923 577.805847
   vertex 232.168671 -89.838539 577.311646
   vertex 232.301300 -89.616356 577.306213
  endloop
 facet normal 0.487334 -0.872349 0.038906
  outer loop
   vertex 232.301300 -89.616356 577.306213
   vertex 232.518570 -89.472717 577.805359
   vertex 232.292618 -89.598923 577.805847
  endloop
 facet normal -0.014503 -0.999295 0.034615
  outer loop
   vertex 239.070831 -67.289093 577.145203
   vertex 239.079514 -67.306526 576.645569
   vertex 239.510712 -67.295204 577.153076
  endloop
 facet normal -0.014520 -0.999295 0.034630
  outer loop
   vertex 239.510712 -67.295204 577.153076
   vertex 239.079514 -67.306526 576.645569
   vertex 239.519394 -67.312645 576.653442
  endloop
 facet normal 0.487292 -0.872372 0.038920
  outer loop
   vertex 239.519394 -67.312645 576.653442
   vertex 239.894852 -67.080666 577.152283
   vertex 239.510712 -67.295204 577.153076
  endloop
 facet normal 0.487305 -0.872365 0.038906
  outer loop
   vertex 239.903534 -67.098099 576.652649
   vertex 239.894852 -67.080666 577.152283
   vertex 239.519394 -67.312645 576.653442
  endloop
 facet normal 0.858553 -0.511677 0.032773
  outer loop
   vertex 240.120316 -66.702950 577.143005
   vertex 239.894852 -67.080666 577.152283
   vertex 239.903534 -67.098099 576.652649
  endloop
 facet normal 0.858537 -0.511702 0.032799
  outer loop
   vertex 239.903534 -67.098099 576.652649
   vertex 240.129013 -66.720383 576.643372
   vertex 240.120316 -66.702950 577.143005
  endloop
 facet normal 0.999743 -0.013919 0.017889
  outer loop
   vertex 240.120316 -66.702950 577.143005
   vertex 240.129013 -66.720383 576.643372
   vertex 240.126709 -66.263268 577.127808
  endloop
 facet normal 0.999744 -0.013885 0.017857
  outer loop
   vertex 240.126709 -66.263268 577.127808
   vertex 240.129013 -66.720383 576.643372
   vertex 240.135391 -66.280701 576.628174
  endloop
 facet normal 0.873054 0.487620 -0.001843
  outer loop
   vertex 240.135391 -66.280701 576.628174
   vertex 239.912292 -65.879433 577.110657
   vertex 240.126709 -66.263268 577.127808
  endloop
 facet normal 0.873068 0.487595 -0.001815
  outer loop
   vertex 239.920990 -65.896866 576.611023
   vertex 239.912292 -65.879433 577.110657
   vertex 240.135391 -66.280701 576.628174
  endloop
 facet normal 0.512456 0.858456 -0.021032
  outer loop
   vertex 239.534546 -65.654289 577.096252
   vertex 239.912292 -65.879433 577.110657
   vertex 239.920990 -65.896866 576.611023
  endloop
 facet normal 0.512441 0.858464 -0.021049
  outer loop
   vertex 239.920990 -65.896866 576.611023
   vertex 239.543228 -65.671722 576.596619
   vertex 239.534546 -65.654289 577.096252
  endloop
 facet normal -0.014520 -0.999295 0.034630
  outer loop
   vertex 232.409088 -90.774536 577.848877
   vertex 232.417770 -90.791977 577.349243
   vertex 232.848969 -90.780655 577.856750
  endloop
 facet normal -0.014503 -0.999295 0.034615
  outer loop
   vertex 232.848969 -90.780655 577.856750
   vertex 232.417770 -90.791977 577.349243
   vertex 232.857651 -90.798088 577.357117
  endloop
 facet normal 0.487292 -0.872372 0.038906
  outer loop
   vertex 232.857651 -90.798088 577.357117
   vertex 233.233109 -90.566116 577.855957
   vertex 232.848969 -90.780655 577.856750
  endloop
 facet normal 0.487292 -0.872372 0.038906
  outer loop
   vertex 233.241791 -90.583549 577.356323
   vertex 233.233109 -90.566116 577.855957
   vertex 232.857651 -90.798088 577.357117
  endloop
 facet normal 0.858553 -0.511677 0.032773
  outer loop
   vertex 233.458572 -90.188400 577.846680
   vertex 233.233109 -90.566116 577.855957
   vertex 233.241791 -90.583549 577.356323
  endloop
 facet normal 0.858537 -0.511702 0.032799
  outer loop
   vertex 233.241791 -90.583549 577.356323
   vertex 233.467270 -90.205833 577.347046
   vertex 233.458572 -90.188400 577.846680
  endloop
 facet normal 0.999743 -0.013919 0.017889
  outer loop
   vertex 233.458572 -90.188400 577.846680
   vertex 233.467270 -90.205833 577.347046
   vertex 233.464966 -89.748718 577.831482
  endloop
 facet normal 0.999744 -0.013885 0.017857
  outer loop
   vertex 233.464966 -89.748718 577.831482
   vertex 233.467270 -90.205833 577.347046
   vertex 233.473648 -89.766151 577.331848
  endloop
 facet normal 0.873054 0.487620 -0.001843
  outer loop
   vertex 233.473648 -89.766151 577.331848
   vertex 233.250549 -89.364883 577.814331
   vertex 233.464966 -89.748718 577.831482
  endloop
 facet normal 0.873068 0.487595 -0.001815
  outer loop
   vertex 233.259247 -89.382317 577.314697
   vertex 233.250549 -89.364883 577.814331
   vertex 233.473648 -89.766151 577.331848
  endloop
 facet normal 0.512456 0.858456 -0.021032
  outer loop
   vertex 232.872803 -89.139740 577.799927
   vertex 233.250549 -89.364883 577.814331
   vertex 233.259247 -89.382317 577.314697
  endloop
 facet normal 0.512441 0.858464 -0.021049
  outer loop
   vertex 233.259247 -89.382317 577.314697
   vertex 232.881485 -89.157173 577.300293
   vertex 232.872803 -89.139740 577.799927
  endloop
 facet normal 0.487309 -0.872362 0.038921
  outer loop
   vertex 232.301300 -89.616356 577.306213
   vertex 232.527267 -89.490150 577.305725
   vertex 232.518570 -89.472717 577.805359
  endloop
 facet normal -0.014527 -0.999295 0.034614
  outer loop
   vertex 232.518570 -89.472717 577.805359
   vertex 232.527267 -89.490150 577.305725
   vertex 232.786026 -89.493752 577.310364
  endloop
 facet normal -0.014527 -0.999295 0.034614
  outer loop
   vertex 232.786026 -89.493752 577.310364
   vertex 232.777328 -89.476318 577.809998
   vertex 232.518570 -89.472717 577.805359
  endloop
 facet normal -0.512448 -0.858460 0.021033
  outer loop
   vertex 233.008224 -89.626183 577.318848
   vertex 232.777328 -89.476318 577.809998
   vertex 232.786026 -89.493752 577.310364
  endloop
 facet normal -0.512423 -0.858475 0.021049
  outer loop
   vertex 232.999542 -89.608749 577.818481
   vertex 232.777328 -89.476318 577.809998
   vertex 233.008224 -89.626183 577.318848
  endloop
 facet normal -0.873050 -0.487627 0.001843
  outer loop
   vertex 233.008224 -89.626183 577.318848
   vertex 233.134354 -89.851967 577.328918
   vertex 232.999542 -89.608749 577.818481
  endloop
 facet normal -0.873075 -0.487583 0.001814
  outer loop
   vertex 232.999542 -89.608749 577.818481
   vertex 233.134354 -89.851967 577.328918
   vertex 233.125656 -89.834534 577.828552
  endloop
 facet normal -0.999743 0.013948 -0.017890
  outer loop
   vertex 233.125656 -89.834534 577.828552
   vertex 233.134354 -89.851967 577.328918
   vertex 233.130585 -90.110603 577.337891
  endloop
 facet normal -0.999744 0.013890 -0.017857
  outer loop
   vertex 233.130585 -90.110603 577.337891
   vertex 233.121902 -90.093170 577.837524
   vertex 233.125656 -89.834534 577.828552
  endloop
 facet normal -0.858550 0.511681 -0.032773
  outer loop
   vertex 232.997955 -90.332794 577.343323
   vertex 233.121902 -90.093170 577.837524
   vertex 233.130585 -90.110603 577.337891
  endloop
 facet normal -0.858550 0.511681 -0.032773
  outer loop
   vertex 232.989273 -90.315361 577.842957
   vertex 233.121902 -90.093170 577.837524
   vertex 232.997955 -90.332794 577.343323
  endloop
 facet normal -0.487311 0.872361 -0.038906
  outer loop
   vertex 232.997955 -90.332794 577.343323
   vertex 232.772003 -90.458992 577.343811
   vertex 232.989273 -90.315361 577.842957
  endloop
 facet normal -0.487286 0.872375 -0.038921
  outer loop
   vertex 232.989273 -90.315361 577.842957
   vertex 232.772003 -90.458992 577.343811
   vertex 232.763306 -90.441559 577.843445
  endloop
 facet normal 0.014498 0.999296 -0.034615
  outer loop
   vertex 232.763306 -90.441559 577.843445
   vertex 232.772003 -90.458992 577.343811
   vertex 232.513245 -90.455399 577.339172
  endloop
 facet normal 0.014499 0.999296 -0.034615
  outer loop
   vertex 232.513245 -90.455399 577.339172
   vertex 232.504562 -90.437965 577.838806
   vertex 232.763306 -90.441559 577.843445
  endloop
 facet normal 0.873050 0.487627 -0.001850
  outer loop
   vertex 238.817963 -66.594292 577.116577
   vertex 238.944092 -66.820076 577.126648
   vertex 238.952774 -66.837517 576.627014
  endloop
 facet normal 0.512471 0.858446 -0.021061
  outer loop
   vertex 238.952774 -66.837517 576.627014
   vertex 238.944092 -66.820076 577.126648
   vertex 239.166290 -66.952515 577.135132
  endloop
 facet normal 0.512422 0.858476 -0.021034
  outer loop
   vertex 239.166290 -66.952515 577.135132
   vertex 239.174988 -66.969948 576.635498
   vertex 238.952774 -66.837517 576.627014
  endloop
 facet normal 0.014527 0.999295 -0.034614
  outer loop
   vertex 239.425049 -66.956116 577.139771
   vertex 239.174988 -66.969948 576.635498
   vertex 239.166290 -66.952515 577.135132
  endloop
 facet normal 0.014528 0.999295 -0.034615
  outer loop
   vertex 239.433731 -66.973549 576.640137
   vertex 239.174988 -66.969948 576.635498
   vertex 239.425049 -66.956116 577.139771
  endloop
 facet normal -0.487309 0.872363 -0.038906
  outer loop
   vertex 239.425049 -66.956116 577.139771
   vertex 239.651016 -66.829910 577.139282
   vertex 239.433731 -66.973549 576.640137
  endloop
 facet normal -0.487309 0.872363 -0.038906
  outer loop
   vertex 239.433731 -66.973549 576.640137
   vertex 239.651016 -66.829910 577.139282
   vertex 239.659698 -66.847343 576.639648
  endloop
 facet normal -0.858542 0.511694 -0.032773
  outer loop
   vertex 239.659698 -66.847343 576.639648
   vertex 239.651016 -66.829910 577.139282
   vertex 239.783646 -66.607727 577.133850
  endloop
 facet normal -0.858542 0.511694 -0.032773
  outer loop
   vertex 239.783646 -66.607727 577.133850
   vertex 239.792328 -66.625160 576.634216
   vertex 239.659698 -66.847343 576.639648
  endloop
 facet normal -0.999744 0.013890 -0.017857
  outer loop
   vertex 239.787399 -66.349091 577.124878
   vertex 239.792328 -66.625160 576.634216
   vertex 239.783646 -66.607727 577.133850
  endloop
 facet normal -0.999743 0.013948 -0.017890
  outer loop
   vertex 239.796097 -66.366524 576.625244
   vertex 239.792328 -66.625160 576.634216
   vertex 239.787399 -66.349091 577.124878
  endloop
 facet normal -0.873075 -0.487583 0.001814
  outer loop
   vertex 239.787399 -66.349091 577.124878
   vertex 239.661285 -66.123306 577.114807
   vertex 239.796097 -66.366524 576.625244
  endloop
 facet normal -0.873050 -0.487627 0.001843
  outer loop
   vertex 239.796097 -66.366524 576.625244
   vertex 239.661285 -66.123306 577.114807
   vertex 239.669968 -66.140739 576.615173
  endloop
 facet normal -0.512444 -0.858462 0.021049
  outer loop
   vertex 239.669968 -66.140739 576.615173
   vertex 239.661285 -66.123306 577.114807
   vertex 239.439072 -65.990868 577.106323
  endloop
 facet normal -0.512444 -0.858462 0.021049
  outer loop
   vertex 239.439072 -65.990868 577.106323
   vertex 239.447754 -66.008301 576.606689
   vertex 239.669968 -66.140739 576.615173
  endloop
 facet normal -0.014528 -0.999295 0.034615
  outer loop
   vertex 239.189011 -66.004700 576.602051
   vertex 239.447754 -66.008301 576.606689
   vertex 239.439072 -65.990868 577.106323
  endloop
endsolid