solid stl file generated from DOUG
 facet normal 0.007687 -0.898819 -0.438253
  outer loop
   vertex -80.043365 66.093475 531.006653
   vertex -79.542267 66.093475 531.015442
   vertex -80.047295 65.983627 531.231873
  endloop
 endfacet

 facet normal 0.007635 -0.898772 -0.438350
  outer loop
   vertex -80.047295 65.983627 531.231873
   vertex -79.542267 66.093475 531.015442
   vertex -79.546196 65.983627 531.240601
  endloop
 endfacet

 facet normal -0.009739 -0.829018 0.559137
  outer loop
   vertex -79.546196 65.983627 531.240601
   vertex -80.050919 66.123756 531.439575
   vertex -80.047295 65.983627 531.231873
  endloop
 endfacet

 facet normal -0.009739 -0.829018 0.559137
  outer loop
   vertex -79.549828 66.123756 531.448303
   vertex -80.050919 66.123756 531.439575
   vertex -79.546196 65.983627 531.240601
  endloop
 endfacet

 facet normal -0.017373 0.069674 0.997419
  outer loop
   vertex -80.050613 66.373726 531.422119
   vertex -80.050919 66.123756 531.439575
   vertex -79.549828 66.123756 531.448303
  endloop
 endfacet

 facet normal -0.017373 0.069674 0.997419
  outer loop
   vertex -79.549828 66.123756 531.448303
   vertex -79.549522 66.373726 531.430847
   vertex -80.050613 66.373726 531.422119
  endloop
 endfacet

 facet normal -0.007634 0.898807 0.438279
  outer loop
   vertex -80.050613 66.373726 531.422119
   vertex -79.549522 66.373726 531.430847
   vertex -80.046684 66.483582 531.196899
  endloop
 endfacet

 facet normal -0.007689 0.898760 0.438373
  outer loop
   vertex -80.046684 66.483582 531.196899
   vertex -79.549522 66.373726 531.430847
   vertex -79.545586 66.483582 531.205688
  endloop
 endfacet

 facet normal 0.009807 0.829018 -0.559136
  outer loop
   vertex -79.545586 66.483582 531.205688
   vertex -80.043060 66.343452 530.989197
   vertex -80.046684 66.483582 531.196899
  endloop
 endfacet

 facet normal 0.009737 0.829094 -0.559024
  outer loop
   vertex -79.541962 66.343452 530.997925
   vertex -80.043060 66.343452 530.989197
   vertex -79.545586 66.483582 531.205688
  endloop
 endfacet

 facet normal 0.017373 -0.069672 -0.997419
  outer loop
   vertex -80.043365 66.093475 531.006653
   vertex -80.043060 66.343452 530.989197
   vertex -79.541962 66.343452 530.997925
  endloop
 endfacet

 facet normal 0.017494 -0.069914 -0.997400
  outer loop
   vertex -79.541962 66.343452 530.997925
   vertex -79.542267 66.093475 531.015442
   vertex -80.043365 66.093475 531.006653
  endloop
 endfacet

 facet normal -0.017373 0.069914 0.997402
  outer loop
   vertex -79.229813 54.018219 513.115784
   vertex -79.730904 54.018219 513.107056
   vertex -79.230118 53.768242 513.133301
  endloop
 endfacet

 facet normal -0.017495 0.069672 0.997417
  outer loop
   vertex -79.230118 53.768242 513.133301
   vertex -79.730904 54.018219 513.107056
   vertex -79.731209 53.768242 513.124512
  endloop
 endfacet

 facet normal -0.009805 -0.829101 0.559013
  outer loop
   vertex -79.731209 53.768242 513.124512
   vertex -79.226494 53.628117 512.925537
   vertex -79.230118 53.768242 513.133301
  endloop
 endfacet

 facet normal -0.009739 -0.829025 0.559127
  outer loop
   vertex -79.727585 53.628117 512.916809
   vertex -79.226494 53.628117 512.925537
   vertex -79.731209 53.768242 513.124512
  endloop
 endfacet

 facet normal 0.007635 -0.898772 -0.438350
  outer loop
   vertex -79.222557 53.737965 512.700378
   vertex -79.226494 53.628117 512.925537
   vertex -79.727585 53.628117 512.916809
  endloop
 endfacet

 facet normal 0.007635 -0.898772 -0.438350
  outer loop
   vertex -79.727585 53.628117 512.916809
   vertex -79.723656 53.737965 512.691650
   vertex -79.222557 53.737965 512.700378
  endloop
 endfacet

 facet normal 0.017373 -0.069672 -0.997419
  outer loop
   vertex -79.222557 53.737965 512.700378
   vertex -79.723656 53.737965 512.691650
   vertex -79.222252 53.987942 512.682922
  endloop
 endfacet

 facet normal 0.017494 -0.069914 -0.997400
  outer loop
   vertex -79.222252 53.987942 512.682922
   vertex -79.723656 53.737965 512.691650
   vertex -79.723351 53.987942 512.674133
  endloop
 endfacet

 facet normal 0.009807 0.829025 -0.559125
  outer loop
   vertex -79.723351 53.987942 512.674133
   vertex -79.225883 54.128067 512.890625
   vertex -79.222252 53.987942 512.682922
  endloop
 endfacet

 facet normal 0.009807 0.829025 -0.559125
  outer loop
   vertex -79.726974 54.128067 512.881836
   vertex -79.225883 54.128067 512.890625
   vertex -79.723351 53.987942 512.674133
  endloop
 endfacet

 facet normal -0.007689 0.898772 0.438349
  outer loop
   vertex -79.229813 54.018219 513.115784
   vertex -79.225883 54.128067 512.890625
   vertex -79.726974 54.128067 512.881836
  endloop
 endfacet

 facet normal -0.007634 0.898819 0.438254
  outer loop
   vertex -79.726974 54.128067 512.881836
   vertex -79.730904 54.018219 513.107056
   vertex -79.229813 54.018219 513.115784
  endloop
 endfacet

 facet normal -0.999848 0.000002 -0.017447
  outer loop
   vertex -79.727585 53.628117 512.916809
   vertex -79.731209 53.768242 513.124512
   vertex -79.727280 53.878090 512.899353
  endloop
 endfacet

 facet normal -0.999848 0.000002 -0.017447
  outer loop
   vertex -79.727280 53.878090 512.899353
   vertex -79.731209 53.768242 513.124512
   vertex -79.730904 54.018219 513.107056
  endloop
 endfacet

 facet normal -0.999848 -0.000002 -0.017444
  outer loop
   vertex -79.730904 54.018219 513.107056
   vertex -79.726974 54.128067 512.881836
   vertex -79.727280 53.878090 512.899353
  endloop
 endfacet

 facet normal -0.999848 0.000003 -0.017442
  outer loop
   vertex -80.043060 66.343452 530.989197
   vertex -80.043365 66.093475 531.006653
   vertex -80.046989 66.233604 531.214417
  endloop
 endfacet

 facet normal -0.999848 0.000003 -0.017442
  outer loop
   vertex -80.046989 66.233604 531.214417
   vertex -80.043365 66.093475 531.006653
   vertex -80.047295 65.983627 531.231873
  endloop
 endfacet

 facet normal -0.999848 0.000002 -0.017447
  outer loop
   vertex -80.047295 65.983627 531.231873
   vertex -80.050919 66.123756 531.439575
   vertex -80.046989 66.233604 531.214417
  endloop
 endfacet

 facet normal -0.999848 0.000002 -0.017447
  outer loop
   vertex -80.050919 66.123756 531.439575
   vertex -80.050613 66.373726 531.422119
   vertex -80.046989 66.233604 531.214417
  endloop
 endfacet

 facet normal -0.999848 -0.000002 -0.017444
  outer loop
   vertex -80.046989 66.233604 531.214417
   vertex -80.050613 66.373726 531.422119
   vertex -80.046684 66.483582 531.196899
  endloop
 endfacet

 facet normal -0.999848 -0.000002 -0.017444
  outer loop
   vertex -80.046684 66.483582 531.196899
   vertex -80.043060 66.343452 530.989197
   vertex -80.046989 66.233604 531.214417
  endloop
 endfacet

 facet normal -0.999848 -0.000002 -0.017444
  outer loop
   vertex -79.726974 54.128067 512.881836
   vertex -79.723351 53.987942 512.674133
   vertex -79.727280 53.878090 512.899353
  endloop
 endfacet

 facet normal -0.999848 -0.000002 -0.017444
  outer loop
   vertex -79.727280 53.878090 512.899353
   vertex -79.723351 53.987942 512.674133
   vertex -79.723656 53.737965 512.691650
  endloop
 endfacet

 facet normal -0.999848 0.000002 -0.017447
  outer loop
   vertex -79.723656 53.737965 512.691650
   vertex -79.727585 53.628117 512.916809
   vertex -79.727280 53.878090 512.899353
  endloop
 endfacet

 facet normal -0.999848 -0.000001 -0.017451
  outer loop
   vertex -77.985344 65.937317 529.692993
   vertex -77.997543 64.900856 530.392029
   vertex -78.028625 67.610085 532.172607
  endloop
 endfacet

 facet normal -0.999848 -0.000001 -0.017451
  outer loop
   vertex -78.028625 67.610085 532.172607
   vertex -77.997543 64.900856 530.392029
   vertex -78.040825 66.573624 532.871643
  endloop
 endfacet

 facet normal -0.014467 0.559215 0.828896
  outer loop
   vertex -78.040825 66.573624 532.871643
   vertex -76.640251 67.610085 532.196838
   vertex -78.028625 67.610085 532.172607
  endloop
 endfacet

 facet normal -0.014467 0.559215 0.828896
  outer loop
   vertex -76.652458 66.573624 532.895874
   vertex -76.640251 67.610085 532.196838
   vertex -78.040825 66.573624 532.871643
  endloop
 endfacet

 facet normal 0.999848 -0.000002 0.017457
  outer loop
   vertex -76.609169 64.900856 530.416260
   vertex -76.640251 67.610085 532.196838
   vertex -76.652458 66.573624 532.895874
  endloop
 endfacet

 facet normal -0.009758 -0.829039 0.559106
  outer loop
   vertex -76.652458 66.573624 532.895874
   vertex -77.997543 64.900856 530.392029
   vertex -76.609169 64.900856 530.416260
  endloop
 endfacet

 facet normal 0.014467 -0.559182 -0.828919
  outer loop
   vertex -76.609169 64.900856 530.416260
   vertex -77.997543 64.900856 530.392029
   vertex -76.596970 65.937317 529.717285
  endloop
 endfacet

 facet normal 0.014503 -0.559215 -0.828896
  outer loop
   vertex -76.596970 65.937317 529.717285
   vertex -77.997543 64.900856 530.392029
   vertex -77.985344 65.937317 529.692993
  endloop
 endfacet

 facet normal 0.009783 0.829032 -0.559115
  outer loop
   vertex -77.985344 65.937317 529.692993
   vertex -76.640251 67.610085 532.196838
   vertex -76.596970 65.937317 529.717285
  endloop
 endfacet

 facet normal 0.009758 0.829039 -0.559106
  outer loop
   vertex -78.028625 67.610085 532.172607
   vertex -76.640251 67.610085 532.196838
   vertex -77.985344 65.937317 529.692993
  endloop
 endfacet

 facet normal 0.014467 -0.559197 -0.828909
  outer loop
   vertex -76.276131 53.538074 511.337372
   vertex -76.288330 52.501610 512.036377
   vertex -77.664505 53.538074 511.313141
  endloop
 endfacet

 facet normal 0.014467 -0.559197 -0.828909
  outer loop
   vertex -77.664505 53.538074 511.313141
   vertex -76.288330 52.501610 512.036377
   vertex -77.676704 52.501610 512.012146
  endloop
 endfacet

 facet normal -0.999848 -0.000001 -0.017452
  outer loop
   vertex -77.676704 52.501610 512.012146
   vertex -77.707787 55.210838 513.792725
   vertex -77.664505 53.538074 511.313141
  endloop
 endfacet

 facet normal -0.999848 -0.000001 -0.017451
  outer loop
   vertex -77.719986 54.174377 514.491760
   vertex -77.707787 55.210838 513.792725
   vertex -77.676704 52.501610 512.012146
  endloop
 endfacet

 facet normal -0.014467 0.559215 0.828896
  outer loop
   vertex -76.331619 54.174377 514.515991
   vertex -77.707787 55.210838 513.792725
   vertex -77.719986 54.174377 514.491760
  endloop
 endfacet

 facet normal -0.009758 -0.829039 0.559106
  outer loop
   vertex -77.719986 54.174377 514.491760
   vertex -76.288330 52.501610 512.036377
   vertex -76.331619 54.174377 514.515991
  endloop
 endfacet

 facet normal 0.999848 -0.000002 0.017457
  outer loop
   vertex -76.331619 54.174377 514.515991
   vertex -76.288330 52.501610 512.036377
   vertex -76.319412 55.210842 513.816956
  endloop
 endfacet

 facet normal 0.999848 0.000001 0.017452
  outer loop
   vertex -76.319412 55.210842 513.816956
   vertex -76.288330 52.501610 512.036377
   vertex -76.276131 53.538074 511.337372
  endloop
 endfacet

 facet normal 0.009756 0.829036 -0.559111
  outer loop
   vertex -76.276131 53.538074 511.337372
   vertex -77.707787 55.210838 513.792725
   vertex -76.319412 55.210842 513.816956
  endloop
 endfacet

 facet normal 0.009758 0.829036 -0.559110
  outer loop
   vertex -77.664505 53.538074 511.313141
   vertex -77.707787 55.210838 513.792725
   vertex -76.276131 53.538074 511.337372
  endloop
 endfacet

 facet normal -0.009758 -0.829039 0.559106
  outer loop
   vertex -77.719986 54.174377 514.491760
   vertex -77.676704 52.501610 512.012146
   vertex -76.288330 52.501610 512.036377
  endloop
 endfacet

 facet normal -0.009758 -0.829039 0.559106
  outer loop
   vertex -78.040825 66.573624 532.871643
   vertex -77.997543 64.900856 530.392029
   vertex -76.652458 66.573624 532.895874
  endloop
 endfacet

 facet normal -0.014468 0.559214 0.828897
  outer loop
   vertex -76.331619 54.174377 514.515991
   vertex -76.319412 55.210842 513.816956
   vertex -77.707787 55.210838 513.792725
  endloop
 endfacet

 facet normal 0.999848 0.000001 0.017452
  outer loop
   vertex -76.609169 64.900856 530.416260
   vertex -76.596970 65.937317 529.717285
   vertex -76.640251 67.610085 532.196838
  endloop
 endfacet

 facet normal -0.999848 -0.000012 -0.017445
  outer loop
   vertex -80.756363 66.191467 529.735535
   vertex -80.473579 55.130928 513.536072
   vertex -80.757431 66.100594 529.796814
  endloop
 endfacet

 facet normal -0.601601 -0.667030 0.439484
  outer loop
   vertex -80.757431 66.100594 529.796814
   vertex -80.473579 55.130928 513.536072
   vertex -80.641403 66.029083 529.847107
  endloop
 endfacet

 facet normal -0.618253 -0.656543 0.432105
  outer loop
   vertex -80.557632 54.352814 514.961365
   vertex -80.458397 53.651749 514.038147
   vertex -80.475159 54.299694 514.998657
  endloop
 endfacet

 facet normal -0.009773 -0.829048 0.559092
  outer loop
   vertex -80.475159 54.299694 514.998657
   vertex -80.458397 53.651749 514.038147
   vertex -79.616898 53.651749 514.052856
  endloop
 endfacet

 facet normal 0.009773 0.829033 -0.559114
  outer loop
   vertex -79.896408 66.459946 530.065430
   vertex -80.721146 65.812004 529.090271
   vertex -80.737915 66.459946 530.050720
  endloop
 endfacet

 facet normal -0.602716 0.656582 -0.453469
  outer loop
   vertex -80.737915 66.459946 530.050720
   vertex -80.721146 65.812004 529.090271
   vertex -80.804871 65.758881 529.124634
  endloop
 endfacet

 facet normal -0.585896 0.667030 -0.460213
  outer loop
   vertex -80.369049 54.082615 514.245056
   vertex -80.486763 54.011097 514.291260
   vertex -80.770615 64.980766 530.552002
  endloop
 endfacet

 facet normal -0.999848 -0.000020 -0.017440
  outer loop
   vertex -80.770615 64.980766 530.552002
   vertex -80.486763 54.011097 514.291260
   vertex -80.771683 64.889893 530.613342
  endloop
 endfacet

 facet normal -0.929757 0.297488 -0.216918
  outer loop
   vertex -79.704224 55.194012 513.506897
   vertex -79.988075 66.163681 529.767700
   vertex -79.691017 55.221802 513.488403
  endloop
 endfacet

 facet normal -0.929881 0.297227 -0.216745
  outer loop
   vertex -79.691017 55.221802 513.488403
   vertex -79.988075 66.163681 529.767700
   vertex -79.974869 66.191467 529.749146
  endloop
 endfacet

 facet normal 0.009667 0.829038 -0.559109
  outer loop
   vertex -79.974869 66.191467 529.749146
   vertex -79.620415 55.221802 513.489624
   vertex -79.691017 55.221802 513.488403
  endloop
 endfacet

 facet normal 0.014097 -0.559333 -0.828823
  outer loop
   vertex -80.442162 55.030457 513.108337
   vertex -80.428909 54.833355 513.241577
   vertex -80.525887 54.977337 513.142761
  endloop
 endfacet

 facet normal 0.014514 -0.559138 -0.828948
  outer loop
   vertex -80.525887 54.977337 513.142761
   vertex -80.428909 54.833355 513.241577
   vertex -80.527443 54.845547 513.231628
  endloop
 endfacet

 facet normal -0.999847 0.000025 -0.017474
  outer loop
   vertex -80.527443 54.845547 513.231628
   vertex -80.542656 55.625278 514.103210
   vertex -80.525887 54.977337 513.142761
  endloop
 endfacet

 facet normal -0.014092 0.559107 0.828976
  outer loop
   vertex -80.754143 65.081238 530.980530
   vertex -80.736244 65.278336 530.847900
   vertex -80.836617 65.134361 530.943298
  endloop
 endfacet

 facet normal -0.014759 0.559423 0.828751
  outer loop
   vertex -80.836617 65.134361 530.943298
   vertex -80.736244 65.278336 530.847900
   vertex -80.835068 65.266144 530.854370
  endloop
 endfacet

 facet normal -0.999848 -0.000020 -0.017443
  outer loop
   vertex -80.835068 65.266144 530.854370
   vertex -80.819847 64.486412 529.982788
   vertex -80.836617 65.134361 530.943298
  endloop
 endfacet

 facet normal -0.014199 0.559137 0.828954
  outer loop
   vertex -80.556084 54.484604 514.872498
   vertex -80.557632 54.352814 514.961365
   vertex -80.457260 54.496796 514.865967
  endloop
 endfacet

 facet normal -0.014544 0.559301 0.828837
  outer loop
   vertex -80.457260 54.496796 514.865967
   vertex -80.557632 54.352814 514.961365
   vertex -80.475159 54.299694 514.998657
  endloop
 endfacet

 facet normal -0.014428 0.559295 0.828843
  outer loop
   vertex -80.475159 54.299694 514.998657
   vertex -79.633659 54.299694 515.013306
   vertex -80.457260 54.496796 514.865967
  endloop
 endfacet

 facet normal -0.009733 -0.829031 0.559117
  outer loop
   vertex -79.616898 53.651749 514.052856
   vertex -79.633659 54.299694 515.013306
   vertex -80.475159 54.299694 514.998657
  endloop
 endfacet

 facet normal -0.585740 0.667126 -0.460274
  outer loop
   vertex -80.770615 64.980766 530.552002
   vertex -80.652901 65.052284 530.505859
   vertex -80.369049 54.082615 514.245056
  endloop
 endfacet

 facet normal -0.999848 -0.000001 -0.017453
  outer loop
   vertex -80.369049 54.082615 514.245056
   vertex -80.652901 65.052284 530.505859
   vertex -80.641403 66.029083 529.847107
  endloop
 endfacet

 facet normal -0.999848 -0.000001 -0.017453
  outer loop
   vertex -80.641403 66.029083 529.847107
   vertex -80.357552 55.059414 513.586304
   vertex -80.369049 54.082615 514.245056
  endloop
 endfacet

 facet normal -0.601468 -0.667113 0.439541
  outer loop
   vertex -80.473579 55.130928 513.536072
   vertex -80.357552 55.059414 513.586304
   vertex -80.641403 66.029083 529.847107
  endloop
 endfacet

 facet normal 0.009773 0.829033 -0.559114
  outer loop
   vertex -79.896408 66.459946 530.065430
   vertex -79.879646 65.812004 529.104980
   vertex -80.721146 65.812004 529.090271
  endloop
 endfacet

 facet normal 0.014490 -0.559127 -0.828955
  outer loop
   vertex -80.721146 65.812004 529.090271
   vertex -79.879646 65.812004 529.104980
   vertex -80.707886 65.614899 529.223450
  endloop
 endfacet

 facet normal 0.014540 -0.559125 -0.828956
  outer loop
   vertex -80.707886 65.614899 529.223450
   vertex -80.804871 65.758881 529.124634
   vertex -80.721146 65.812004 529.090271
  endloop
 endfacet

 facet normal 0.014514 -0.559137 -0.828948
  outer loop
   vertex -80.806419 65.627090 529.213501
   vertex -80.804871 65.758881 529.124634
   vertex -80.707886 65.614899 529.223450
  endloop
 endfacet

 facet normal 0.936664 0.297702 -0.184483
  outer loop
   vertex -80.601509 66.163681 529.756958
   vertex -80.317665 55.194012 513.496216
   vertex -80.614067 66.191467 529.738037
  endloop
 endfacet

 facet normal 0.936854 0.297282 -0.184195
  outer loop
   vertex -80.614067 66.191467 529.738037
   vertex -80.317665 55.194012 513.496216
   vertex -80.330215 55.221802 513.477234
  endloop
 endfacet

 facet normal 0.009833 0.829039 -0.559105
  outer loop
   vertex -80.330215 55.221802 513.477234
   vertex -80.756363 66.191467 529.735535
   vertex -80.614067 66.191467 529.738037
  endloop
 endfacet

 facet normal 0.009833 0.829039 -0.559105
  outer loop
   vertex -80.472511 55.221802 513.474731
   vertex -80.756363 66.191467 529.735535
   vertex -80.330215 55.221802 513.477234
  endloop
 endfacet

 facet normal -0.999848 -0.000020 -0.017440
  outer loop
   vertex -80.473579 55.130928 513.536072
   vertex -80.756363 66.191467 529.735535
   vertex -80.472511 55.221802 513.474731
  endloop
 endfacet

 facet normal -0.999848 0.000000 -0.017449
  outer loop
   vertex -79.569145 67.016678 531.386780
   vertex -79.556183 65.170715 530.643982
   vertex -79.580025 66.092354 532.010193
  endloop
 endfacet

 facet normal -0.009745 -0.829044 0.559099
  outer loop
   vertex -79.580025 66.092354 532.010193
   vertex -79.556183 65.170715 530.643982
   vertex -78.039215 66.092354 532.037048
  endloop
 endfacet

 facet normal -0.014448 0.559182 0.828919
  outer loop
   vertex -78.039215 66.092354 532.037048
   vertex -78.028336 67.016678 531.413696
   vertex -79.580025 66.092354 532.010193
  endloop
 endfacet

 facet normal 0.999848 0.000002 0.017453
  outer loop
   vertex -78.015366 65.170715 530.670898
   vertex -78.028336 67.016678 531.413696
   vertex -78.039215 66.092354 532.037048
  endloop
 endfacet

 facet normal 0.999848 0.000002 0.017453
  outer loop
   vertex -78.004486 66.095039 530.047546
   vertex -78.028336 67.016678 531.413696
   vertex -78.015366 65.170715 530.670898
  endloop
 endfacet

 facet normal 0.014480 -0.559182 -0.828918
  outer loop
   vertex -78.015366 65.170715 530.670898
   vertex -79.556183 65.170715 530.643982
   vertex -78.004486 66.095039 530.047546
  endloop
 endfacet

 facet normal 0.014480 -0.559182 -0.828918
  outer loop
   vertex -78.004486 66.095039 530.047546
   vertex -79.556183 65.170715 530.643982
   vertex -79.545296 66.095039 530.020630
  endloop
 endfacet

 facet normal -0.999848 0.000004 -0.017457
  outer loop
   vertex -79.545296 66.095039 530.020630
   vertex -79.556183 65.170715 530.643982
   vertex -79.569145 67.016678 531.386780
  endloop
 endfacet

 facet normal 0.009767 0.829032 -0.559115
  outer loop
   vertex -79.569145 67.016678 531.386780
   vertex -78.028336 67.016678 531.413696
   vertex -79.545296 66.095039 530.020630
  endloop
 endfacet

 facet normal -0.014480 0.559220 0.828893
  outer loop
   vertex -79.580025 66.092354 532.010193
   vertex -78.028336 67.016678 531.413696
   vertex -79.569145 67.016678 531.386780
  endloop
 endfacet

 facet normal 0.009745 0.829032 -0.559116
  outer loop
   vertex -79.232826 54.019341 512.120361
   vertex -79.256676 54.940979 513.486511
   vertex -77.692017 54.019341 512.147217
  endloop
 endfacet

 facet normal 0.009767 0.829044 -0.559098
  outer loop
   vertex -77.692017 54.019341 512.147217
   vertex -79.256676 54.940979 513.486511
   vertex -77.715866 54.940979 513.513428
  endloop
 endfacet

 facet normal 0.999848 0.000002 0.017452
  outer loop
   vertex -77.715866 54.940979 513.513428
   vertex -77.702896 53.095016 512.770630
   vertex -77.692017 54.019341 512.147217
  endloop
 endfacet

 facet normal 0.999848 0.000002 0.017453
  outer loop
   vertex -77.726746 54.016655 514.136780
   vertex -77.702896 53.095016 512.770630
   vertex -77.715866 54.940979 513.513428
  endloop
 endfacet

 facet normal -0.009767 -0.829032 0.559115
  outer loop
   vertex -79.267563 54.016655 514.109863
   vertex -77.702896 53.095016 512.770630
   vertex -77.726746 54.016655 514.136780
  endloop
 endfacet

 facet normal -0.014480 0.559182 0.828918
  outer loop
   vertex -77.726746 54.016655 514.136780
   vertex -79.256676 54.940979 513.486511
   vertex -79.267563 54.016655 514.109863
  endloop
 endfacet

 facet normal -0.999848 0.000004 -0.017457
  outer loop
   vertex -79.267563 54.016655 514.109863
   vertex -79.256676 54.940979 513.486511
   vertex -79.243713 53.095016 512.743713
  endloop
 endfacet

 facet normal -0.999848 0.000004 -0.017457
  outer loop
   vertex -79.243713 53.095016 512.743713
   vertex -79.256676 54.940979 513.486511
   vertex -79.232826 54.019341 512.120361
  endloop
 endfacet

 facet normal 0.014480 -0.559182 -0.828918
  outer loop
   vertex -79.232826 54.019341 512.120361
   vertex -77.702896 53.095016 512.770630
   vertex -79.243713 53.095016 512.743713
  endloop
 endfacet

 facet normal 0.014447 -0.559220 -0.828894
  outer loop
   vertex -77.692017 54.019341 512.147217
   vertex -77.702896 53.095016 512.770630
   vertex -79.232826 54.019341 512.120361
  endloop
 endfacet

 facet normal 0.999848 -0.000002 0.017461
  outer loop
   vertex -78.982956 67.152229 533.042236
   vertex -78.977890 66.956512 532.752136
   vertex -78.973007 67.371033 532.472595
  endloop
 endfacet

 facet normal -0.999847 0.000000 -0.017464
  outer loop
   vertex -78.973007 67.371033 532.472595
   vertex -78.977890 66.956512 532.752136
   vertex -78.977982 67.261627 532.757385
  endloop
 endfacet

 facet normal -0.999848 0.000004 -0.017463
  outer loop
   vertex -78.977982 67.261627 532.757385
   vertex -78.978073 67.566750 532.762695
   vertex -78.973007 67.371033 532.472595
  endloop
 endfacet

 facet normal -0.999848 0.000004 -0.017459
  outer loop
   vertex -78.982956 67.152229 533.042236
   vertex -78.978073 67.566750 532.762695
   vertex -78.977982 67.261627 532.757385
  endloop
 endfacet

 facet normal -0.014472 0.559174 0.828924
  outer loop
   vertex -77.978226 67.566750 532.780151
   vertex -78.978073 67.566750 532.762695
   vertex -78.982956 67.152229 533.042236
  endloop
 endfacet

 facet normal -0.014472 0.559174 0.828924
  outer loop
   vertex -78.982956 67.152229 533.042236
   vertex -77.983109 67.152229 533.059692
   vertex -77.978226 67.566750 532.780151
  endloop
 endfacet

 facet normal 0.999848 -0.000006 0.017456
  outer loop
   vertex -77.978226 67.566750 532.780151
   vertex -77.983109 67.152229 533.059692
   vertex -77.953629 66.616119 531.370972
  endloop
 endfacet

 facet normal 0.999848 -0.000006 0.017456
  outer loop
   vertex -77.953629 66.616119 531.370972
   vertex -77.983109 67.152229 533.059692
   vertex -77.958511 66.201599 531.650513
  endloop
 endfacet

 facet normal 0.014421 -0.559174 -0.828925
  outer loop
   vertex -77.958511 66.201599 531.650513
   vertex -78.958359 66.201599 531.633118
   vertex -77.953629 66.616119 531.370972
  endloop
 endfacet

 facet normal -0.009728 -0.829023 0.559131
  outer loop
   vertex -78.714424 66.434776 531.983093
   vertex -78.958359 66.201599 531.633118
   vertex -77.958511 66.201599 531.650513
  endloop
 endfacet

 facet normal -0.009761 -0.829012 0.559146
  outer loop
   vertex -78.963425 66.397324 531.923218
   vertex -78.958359 66.201599 531.633118
   vertex -78.714424 66.434776 531.983093
  endloop
 endfacet

 facet normal 0.009761 0.829057 -0.559079
  outer loop
   vertex -78.368706 53.676914 512.177612
   vertex -78.624695 53.910091 512.518921
   vertex -77.624847 53.910091 512.536377
  endloop
 endfacet

 facet normal -0.014472 0.559174 0.828924
  outer loop
   vertex -77.624847 53.910091 512.536377
   vertex -78.624695 53.910091 512.518921
   vertex -77.629730 53.495571 512.815918
  endloop
 endfacet

 facet normal 0.999848 -0.000006 0.017456
  outer loop
   vertex -77.629730 53.495571 512.815918
   vertex -77.600250 52.959465 511.127197
   vertex -77.624847 53.910091 512.536377
  endloop
 endfacet

 facet normal 0.999848 -0.000006 0.017456
  outer loop
   vertex -77.605133 52.544945 511.406738
   vertex -77.600250 52.959465 511.127197
   vertex -77.629730 53.495571 512.815918
  endloop
 endfacet

 facet normal 0.014472 -0.559174 -0.828924
  outer loop
   vertex -78.600098 52.959465 511.109741
   vertex -77.600250 52.959465 511.127197
   vertex -77.605133 52.544945 511.406738
  endloop
 endfacet

 facet normal 0.014472 -0.559174 -0.828924
  outer loop
   vertex -77.605133 52.544945 511.406738
   vertex -78.604980 52.544945 511.389282
   vertex -78.600098 52.959465 511.109741
  endloop
 endfacet

 facet normal -0.999848 0.000004 -0.017459
  outer loop
   vertex -78.600098 52.959465 511.109741
   vertex -78.604980 52.544945 511.389282
   vertex -78.605072 52.850063 511.394592
  endloop
 endfacet

 facet normal -0.999848 0.000004 -0.017461
  outer loop
   vertex -78.605072 52.850063 511.394592
   vertex -78.604980 52.544945 511.389282
   vertex -78.610046 52.740662 511.679413
  endloop
 endfacet

 facet normal -0.999848 0.000002 -0.017461
  outer loop
   vertex -78.610046 52.740662 511.679413
   vertex -78.605164 53.155182 511.399872
   vertex -78.605072 52.850063 511.394592
  endloop
 endfacet

 facet normal 0.999848 -0.000003 0.017460
  outer loop
   vertex -78.600098 52.959465 511.109741
   vertex -78.605164 53.155182 511.399872
   vertex -78.610046 52.740662 511.679413
  endloop
 endfacet

 facet normal -0.999848 0.000002 -0.017460
  outer loop
   vertex -78.605072 52.850063 511.394592
   vertex -78.605164 53.155182 511.399872
   vertex -78.600098 52.959465 511.109741
  endloop
 endfacet

 facet normal -0.999847 0.000046 -0.017484
  outer loop
   vertex -80.486763 54.011097 514.291260
   vertex -80.487839 53.920227 514.352539
   vertex -80.771683 64.889893 530.613342
  endloop
 endfacet

 facet normal -0.009832 -0.829039 0.559105
  outer loop
   vertex -80.771683 64.889893 530.613342
   vertex -80.487839 53.920227 514.352539
   vertex -80.345535 53.920227 514.355042
  endloop
 endfacet

 facet normal -0.009593 -0.829038 0.559110
  outer loop
   vertex -80.345535 53.920227 514.355042
   vertex -80.629387 64.889893 530.615784
   vertex -80.771683 64.889893 530.613342
  endloop
 endfacet

 facet normal 0.929892 -0.297203 0.216728
  outer loop
   vertex -80.332329 53.948017 514.336487
   vertex -80.629387 64.889893 530.615784
   vertex -80.345535 53.920227 514.355042
  endloop
 endfacet

 facet normal 0.929768 -0.297464 0.216902
  outer loop
   vertex -80.616180 64.917686 530.597290
   vertex -80.629387 64.889893 530.615784
   vertex -80.332329 53.948017 514.336487
  endloop
 endfacet

 facet normal -0.009791 -0.829039 0.559105
  outer loop
   vertex -80.332329 53.948017 514.336487
   vertex -79.718895 53.948017 514.347229
   vertex -80.616180 64.917686 530.597290
  endloop
 endfacet

 facet normal -0.009735 -0.829038 0.559108
  outer loop
   vertex -80.616180 64.917686 530.597290
   vertex -79.718895 53.948017 514.347229
   vertex -80.002739 64.917686 530.607971
  endloop
 endfacet

 facet normal -0.936854 -0.297281 0.184196
  outer loop
   vertex -80.002739 64.917686 530.607971
   vertex -79.718895 53.948017 514.347229
   vertex -79.706345 53.920227 514.366211
  endloop
 endfacet

 facet normal -0.936865 -0.297257 0.184179
  outer loop
   vertex -79.706345 53.920227 514.366211
   vertex -79.990189 64.889893 530.626953
   vertex -80.002739 64.917686 530.607971
  endloop
 endfacet

 facet normal -0.009666 -0.829038 0.559109
  outer loop
   vertex -79.635735 53.920227 514.367432
   vertex -79.990189 64.889893 530.626953
   vertex -79.706345 53.920227 514.366211
  endloop
 endfacet

 facet normal -0.009667 -0.829038 0.559109
  outer loop
   vertex -79.919586 64.889893 530.628174
   vertex -79.990189 64.889893 530.626953
   vertex -79.635735 53.920227 514.367432
  endloop
 endfacet

 facet normal 0.999848 0.000002 0.017452
  outer loop
   vertex -79.635735 53.920227 514.367432
   vertex -79.620415 55.221802 513.489624
   vertex -79.919586 64.889893 530.628174
  endloop
 endfacet

 facet normal 0.999848 -0.000003 0.017455
  outer loop
   vertex -79.919586 64.889893 530.628174
   vertex -79.620415 55.221802 513.489624
   vertex -79.904259 66.191467 529.750427
  endloop
 endfacet

 facet normal 0.010149 0.829039 -0.559099
  outer loop
   vertex -79.904259 66.191467 529.750427
   vertex -79.620415 55.221802 513.489624
   vertex -79.974869 66.191467 529.749146
  endloop
 endfacet

 facet normal 0.009761 0.829057 -0.559079
  outer loop
   vertex -78.709549 66.849297 531.703552
   vertex -77.953629 66.616119 531.370972
   vertex -78.953476 66.616119 531.353516
  endloop
 endfacet

 facet normal 0.014471 -0.559258 -0.828867
  outer loop
   vertex -78.953476 66.616119 531.353516
   vertex -77.953629 66.616119 531.370972
   vertex -78.958359 66.201599 531.633118
  endloop
 endfacet

 facet normal -0.999848 0.000002 -0.017458
  outer loop
   vertex -78.958359 66.201599 531.633118
   vertex -78.958542 66.811836 531.643677
   vertex -78.953476 66.616119 531.353516
  endloop
 endfacet

 facet normal -0.999848 0.000002 -0.017461
  outer loop
   vertex -78.963425 66.397324 531.923218
   vertex -78.958542 66.811836 531.643677
   vertex -78.958359 66.201599 531.633118
  endloop
 endfacet

 facet normal 0.999848 -0.000002 0.017461
  outer loop
   vertex -78.958359 66.201599 531.633118
   vertex -78.958542 66.811836 531.643677
   vertex -78.963425 66.397324 531.923218
  endloop
 endfacet

 facet normal -0.009763 -0.829012 0.559146
  outer loop
   vertex -78.963425 66.397324 531.923218
   vertex -79.214355 66.434776 531.974365
   vertex -78.958359 66.201599 531.633118
  endloop
 endfacet

 facet normal -0.009755 -0.829009 0.559150
  outer loop
   vertex -78.958359 66.201599 531.633118
   vertex -79.214355 66.434776 531.974365
   vertex -79.384941 66.265282 531.720093
  endloop
 endfacet

 facet normal -0.009746 -0.829012 0.559147
  outer loop
   vertex -79.384941 66.265282 531.720093
   vertex -79.214355 66.434776 531.974365
   vertex -79.399986 66.537117 532.122864
  endloop
 endfacet

 facet normal -0.009761 -0.829012 0.559146
  outer loop
   vertex -79.399986 66.537117 532.122864
   vertex -79.700516 66.439262 531.972534
   vertex -79.384941 66.265282 531.720093
  endloop
 endfacet

 facet normal -0.009747 -0.829025 0.559126
  outer loop
   vertex -79.470581 66.676918 532.328918
   vertex -79.700516 66.439262 531.972534
   vertex -79.399986 66.537117 532.122864
  endloop
 endfacet

 facet normal -0.009752 -0.829024 0.559128
  outer loop
   vertex -79.820526 66.676918 532.322815
   vertex -79.700516 66.439262 531.972534
   vertex -79.470581 66.676918 532.328918
  endloop
 endfacet

 facet normal -0.009750 -0.829095 0.559022
  outer loop
   vertex -79.470581 66.676918 532.328918
   vertex -79.407219 66.816711 532.537354
   vertex -79.820526 66.676918 532.322815
  endloop
 endfacet

 facet normal -0.009789 -0.829060 0.559074
  outer loop
   vertex -79.820526 66.676918 532.322815
   vertex -79.407219 66.816711 532.537354
   vertex -79.712814 66.914574 532.677124
  endloop
 endfacet

 facet normal -0.009775 -0.829046 0.559095
  outer loop
   vertex -79.712814 66.914574 532.677124
   vertex -79.407219 66.816711 532.537354
   vertex -79.226883 66.919052 532.692261
  endloop
 endfacet

 facet normal -0.009777 -0.829018 0.559137
  outer loop
   vertex -79.226883 66.919052 532.692261
   vertex -79.406242 67.088547 532.940430
   vertex -79.712814 66.914574 532.677124
  endloop
 endfacet

 facet normal -0.009739 -0.829005 0.559156
  outer loop
   vertex -78.977890 66.956512 532.752136
   vertex -79.406242 67.088547 532.940430
   vertex -79.226883 66.919052 532.692261
  endloop
 endfacet

 facet normal -0.009755 -0.829022 0.559131
  outer loop
   vertex -78.982956 67.152229 533.042236
   vertex -79.406242 67.088547 532.940430
   vertex -78.977890 66.956512 532.752136
  endloop
 endfacet

 facet normal -0.009656 -0.829022 0.559133
  outer loop
   vertex -78.977890 66.956512 532.752136
   vertex -78.726959 66.919052 532.700928
   vertex -78.982956 67.152229 533.042236
  endloop
 endfacet

 facet normal -0.009761 -0.829057 0.559079
  outer loop
   vertex -78.982956 67.152229 533.042236
   vertex -78.726959 66.919052 532.700928
   vertex -77.983109 67.152229 533.059692
  endloop
 endfacet

 facet normal -0.009785 -0.829033 0.559113
  outer loop
   vertex -77.983109 67.152229 533.059692
   vertex -78.726959 66.919052 532.700928
   vertex -78.541328 66.816711 532.552429
  endloop
 endfacet

 facet normal -0.009767 -0.829043 0.559100
  outer loop
   vertex -78.541328 66.816711 532.552429
   vertex -78.470734 66.676918 532.346375
   vertex -77.983109 67.152229 533.059692
  endloop
 endfacet

 facet normal -0.009761 -0.829061 0.559073
  outer loop
   vertex -78.373581 53.262398 512.457153
   vertex -77.629730 53.495571 512.815918
   vertex -78.629578 53.495571 512.798462
  endloop
 endfacet

 facet normal -0.014472 0.559174 0.828924
  outer loop
   vertex -78.629578 53.495571 512.798462
   vertex -77.629730 53.495571 512.815918
   vertex -78.624695 53.910091 512.518921
  endloop
 endfacet

 facet normal -0.999848 0.000004 -0.017459
  outer loop
   vertex -78.624695 53.910091 512.518921
   vertex -78.624512 53.299854 512.508301
   vertex -78.629578 53.495571 512.798462
  endloop
 endfacet

 facet normal -0.999848 0.000003 -0.017432
  outer loop
   vertex -78.619637 53.714375 512.228760
   vertex -78.624512 53.299854 512.508301
   vertex -78.624695 53.910091 512.518921
  endloop
 endfacet

 facet normal 0.999848 -0.000003 0.017432
  outer loop
   vertex -78.624695 53.910091 512.518921
   vertex -78.624512 53.299854 512.508301
   vertex -78.619637 53.714375 512.228760
  endloop
 endfacet

 facet normal 0.009703 0.829076 -0.559052
  outer loop
   vertex -78.619637 53.714375 512.228760
   vertex -78.868629 53.676914 512.168884
   vertex -78.624695 53.910091 512.518921
  endloop
 endfacet

 facet normal 0.009837 0.829031 -0.559115
  outer loop
   vertex -78.624695 53.910091 512.518921
   vertex -78.868629 53.676914 512.168884
   vertex -79.047989 53.846413 512.417053
  endloop
 endfacet

 facet normal 0.009825 0.829028 -0.559122
  outer loop
   vertex -79.047989 53.846413 512.417053
   vertex -78.868629 53.676914 512.168884
   vertex -79.048965 53.574577 512.013977
  endloop
 endfacet

 facet normal 0.009747 0.829028 -0.559122
  outer loop
   vertex -79.048965 53.574577 512.013977
   vertex -79.354561 53.672436 512.153748
   vertex -79.047989 53.846413 512.417053
  endloop
 endfacet

 facet normal 0.009734 0.829015 -0.559142
  outer loop
   vertex -79.112320 53.434780 511.805603
   vertex -79.354561 53.672436 512.153748
   vertex -79.048965 53.574577 512.013977
  endloop
 endfacet

 facet normal 0.009800 0.829036 -0.559110
  outer loop
   vertex -79.462273 53.434780 511.799469
   vertex -79.354561 53.672436 512.153748
   vertex -79.112320 53.434780 511.805603
  endloop
 endfacet

 facet normal 0.009799 0.829072 -0.559057
  outer loop
   vertex -79.112320 53.434780 511.805603
   vertex -79.041725 53.294979 511.599518
   vertex -79.462273 53.434780 511.799469
  endloop
 endfacet

 facet normal 0.009744 0.829018 -0.559136
  outer loop
   vertex -79.462273 53.434780 511.799469
   vertex -79.041725 53.294979 511.599518
   vertex -79.342262 53.197121 511.449188
  endloop
 endfacet

 facet normal 0.009743 0.829019 -0.559135
  outer loop
   vertex -79.342262 53.197121 511.449188
   vertex -79.041725 53.294979 511.599518
   vertex -78.856094 53.192642 511.451019
  endloop
 endfacet

 facet normal 0.009743 0.829038 -0.559107
  outer loop
   vertex -78.856094 53.192642 511.451019
   vertex -79.026680 53.023144 511.196716
   vertex -79.342262 53.197121 511.449188
  endloop
 endfacet

 facet normal 0.009793 0.829022 -0.559130
  outer loop
   vertex -78.605164 53.155182 511.399872
   vertex -79.026680 53.023144 511.196716
   vertex -78.856094 53.192642 511.451019
  endloop
 endfacet

 facet normal 0.009766 0.829049 -0.559091
  outer loop
   vertex -78.600098 52.959465 511.109741
   vertex -79.026680 53.023144 511.196716
   vertex -78.605164 53.155182 511.399872
  endloop
 endfacet

 facet normal 0.009717 0.829049 -0.559092
  outer loop
   vertex -78.605164 53.155182 511.399872
   vertex -78.356171 53.192642 511.459747
   vertex -78.600098 52.959465 511.109741
  endloop
 endfacet

 facet normal 0.009761 0.829034 -0.559113
  outer loop
   vertex -78.600098 52.959465 511.109741
   vertex -78.356171 53.192642 511.459747
   vertex -77.600250 52.959465 511.127197
  endloop
 endfacet

 facet normal 0.009779 0.829053 -0.559085
  outer loop
   vertex -77.600250 52.959465 511.127197
   vertex -78.356171 53.192642 511.459747
   vertex -78.175835 53.294979 511.614655
  endloop
 endfacet

 facet normal 0.009759 0.829042 -0.559101
  outer loop
   vertex -78.175835 53.294979 511.614655
   vertex -78.112473 53.434780 511.823059
   vertex -77.600250 52.959465 511.127197
  endloop
 endfacet

 facet normal 0.446623 -0.738084 0.505726
  outer loop
   vertex -79.616898 53.651749 514.052856
   vertex -79.123253 53.860085 513.920959
   vertex -79.633659 54.299694 515.013306
  endloop
 endfacet

 facet normal 0.446629 -0.738080 0.505727
  outer loop
   vertex -79.633659 54.299694 515.013306
   vertex -79.123253 53.860085 513.920959
   vertex -79.140022 54.508030 514.881409
  endloop
 endfacet

 facet normal -0.014524 0.559193 0.828910
  outer loop
   vertex -79.140022 54.508030 514.881409
   vertex -79.128700 55.470066 514.232605
   vertex -79.633659 54.299694 515.013306
  endloop
 endfacet

 facet normal 0.999848 0.000004 0.017454
  outer loop
   vertex -79.123253 53.860085 513.920959
   vertex -79.128700 55.470066 514.232605
   vertex -79.140022 54.508030 514.881409
  endloop
 endfacet

 facet normal 0.999848 0.000004 0.017454
  outer loop
   vertex -79.111931 54.822121 513.272156
   vertex -79.128700 55.470066 514.232605
   vertex -79.123253 53.860085 513.920959
  endloop
 endfacet

 facet normal 0.014523 -0.559193 -0.828910
  outer loop
   vertex -79.123253 53.860085 513.920959
   vertex -79.600662 55.030457 513.123047
   vertex -79.111931 54.822121 513.272156
  endloop
 endfacet

 facet normal 0.464058 0.738060 -0.489813
  outer loop
   vertex -79.111931 54.822121 513.272156
   vertex -79.600662 55.030457 513.123047
   vertex -79.128700 55.470066 514.232605
  endloop
 endfacet

 facet normal 0.464058 0.738060 -0.489813
  outer loop
   vertex -79.128700 55.470066 514.232605
   vertex -79.600662 55.030457 513.123047
   vertex -79.617432 55.678402 514.083496
  endloop
 endfacet

 facet normal -0.014523 0.559193 0.828910
  outer loop
   vertex -79.617432 55.678402 514.083496
   vertex -79.633659 54.299694 515.013306
   vertex -79.128700 55.470066 514.232605
  endloop
 endfacet

 facet normal -0.014448 0.559193 0.828911
  outer loop
   vertex -80.445671 55.481300 514.202026
   vertex -79.633659 54.299694 515.013306
   vertex -79.617432 55.678402 514.083496
  endloop
 endfacet

 facet normal -0.014468 0.559184 0.828917
  outer loop
   vertex -80.457260 54.496796 514.865967
   vertex -79.633659 54.299694 515.013306
   vertex -80.445671 55.481300 514.202026
  endloop
 endfacet

 facet normal -0.999848 0.000001 -0.017450
  outer loop
   vertex -80.445671 55.481300 514.202026
   vertex -80.440498 53.848850 513.905518
   vertex -80.457260 54.496796 514.865967
  endloop
 endfacet

 facet normal -0.137872 0.819958 -0.555572
  outer loop
   vertex -80.457260 54.496796 514.865967
   vertex -80.440498 53.848850 513.905518
   vertex -80.556084 54.484604 514.872498
  endloop
 endfacet

 facet normal -0.137547 0.820014 -0.555570
  outer loop
   vertex -80.556084 54.484604 514.872498
   vertex -80.440498 53.848850 513.905518
   vertex -80.539314 53.836658 513.911987
  endloop
 endfacet

 facet normal -0.999848 -0.000014 -0.017447
  outer loop
   vertex -80.539314 53.836658 513.911987
   vertex -80.557632 54.352814 514.961365
   vertex -80.556084 54.484604 514.872498
  endloop
 endfacet

 facet normal -0.999847 0.000023 -0.017465
  outer loop
   vertex -80.540871 53.704868 514.000916
   vertex -80.557632 54.352814 514.961365
   vertex -80.539314 53.836658 513.911987
  endloop
 endfacet

 facet normal -0.618055 -0.656658 0.432213
  outer loop
   vertex -80.458397 53.651749 514.038147
   vertex -80.557632 54.352814 514.961365
   vertex -80.540871 53.704868 514.000916
  endloop
 endfacet

 facet normal 0.014123 -0.559101 -0.828979
  outer loop
   vertex -80.540871 53.704868 514.000916
   vertex -80.440498 53.848850 513.905518
   vertex -80.458397 53.651749 514.038147
  endloop
 endfacet

 facet normal 0.014490 -0.559121 -0.828959
  outer loop
   vertex -80.458397 53.651749 514.038147
   vertex -80.440498 53.848850 513.905518
   vertex -79.616898 53.651749 514.052856
  endloop
 endfacet

 facet normal 0.014468 -0.559184 -0.828917
  outer loop
   vertex -79.616898 53.651749 514.052856
   vertex -80.440498 53.848850 513.905518
   vertex -80.428909 54.833355 513.241577
  endloop
 endfacet

 facet normal 0.014448 -0.559193 -0.828911
  outer loop
   vertex -80.428909 54.833355 513.241577
   vertex -79.600662 55.030457 513.123047
   vertex -79.616898 53.651749 514.052856
  endloop
 endfacet

 facet normal 0.014488 -0.559312 -0.828831
  outer loop
   vertex -80.442162 55.030457 513.108337
   vertex -79.600662 55.030457 513.123047
   vertex -80.428909 54.833355 513.241577
  endloop
 endfacet

 facet normal 0.009773 0.829031 -0.559117
  outer loop
   vertex -79.617432 55.678402 514.083496
   vertex -79.600662 55.030457 513.123047
   vertex -80.442162 55.030457 513.108337
  endloop
 endfacet

 facet normal 0.009732 0.829048 -0.559093
  outer loop
   vertex -80.442162 55.030457 513.108337
   vertex -80.458931 55.678402 514.068848
   vertex -79.617432 55.678402 514.083496
  endloop
 endfacet

 facet normal -0.014430 0.559138 0.828949
  outer loop
   vertex -79.617432 55.678402 514.083496
   vertex -80.458931 55.678402 514.068848
   vertex -80.445671 55.481300 514.202026
  endloop
 endfacet

 facet normal -0.014547 0.559132 0.828951
  outer loop
   vertex -80.445671 55.481300 514.202026
   vertex -80.458931 55.678402 514.068848
   vertex -80.542656 55.625278 514.103210
  endloop
 endfacet

 facet normal -0.014512 0.559148 0.828941
  outer loop
   vertex -80.542656 55.625278 514.103210
   vertex -80.544205 55.493492 514.192078
   vertex -80.445671 55.481300 514.202026
  endloop
 endfacet

 facet normal -0.999848 -0.000011 -0.017442
  outer loop
   vertex -80.527443 54.845547 513.231628
   vertex -80.544205 55.493492 514.192078
   vertex -80.542656 55.625278 514.103210
  endloop
 endfacet

 facet normal -0.157034 -0.819975 0.550437
  outer loop
   vertex -80.445671 55.481300 514.202026
   vertex -80.544205 55.493492 514.192078
   vertex -80.527443 54.845547 513.231628
  endloop
 endfacet

 facet normal -0.157034 -0.819975 0.550437
  outer loop
   vertex -80.527443 54.845547 513.231628
   vertex -80.428909 54.833355 513.241577
   vertex -80.445671 55.481300 514.202026
  endloop
 endfacet

 facet normal -0.999848 0.000001 -0.017450
  outer loop
   vertex -80.445671 55.481300 514.202026
   vertex -80.428909 54.833355 513.241577
   vertex -80.440498 53.848850 513.905518
  endloop
 endfacet

 facet normal 0.464010 0.738080 -0.489828
  outer loop
   vertex -79.896408 66.459946 530.065430
   vertex -79.407677 66.251610 530.214478
   vertex -79.879646 65.812004 529.104980
  endloop
 endfacet

 facet normal 0.464010 0.738080 -0.489828
  outer loop
   vertex -79.879646 65.812004 529.104980
   vertex -79.407677 66.251610 530.214478
   vertex -79.390915 65.603668 529.254028
  endloop
 endfacet

 facet normal 0.014420 -0.559193 -0.828912
  outer loop
   vertex -79.390915 65.603668 529.254028
   vertex -79.402237 64.641632 529.902832
   vertex -79.879646 65.812004 529.104980
  endloop
 endfacet

 facet normal 0.999848 0.000001 0.017449
  outer loop
   vertex -79.407677 66.251610 530.214478
   vertex -79.402237 64.641632 529.902832
   vertex -79.390915 65.603668 529.254028
  endloop
 endfacet

 facet normal 0.999848 -0.000001 0.017458
  outer loop
   vertex -79.419006 65.289574 530.863281
   vertex -79.402237 64.641632 529.902832
   vertex -79.407677 66.251610 530.214478
  endloop
 endfacet

 facet normal -0.014421 0.559194 0.828912
  outer loop
   vertex -79.407677 66.251610 530.214478
   vertex -79.912643 65.081238 530.995239
   vertex -79.419006 65.289574 530.863281
  endloop
 endfacet

 facet normal 0.446679 -0.738061 0.505712
  outer loop
   vertex -79.419006 65.289574 530.863281
   vertex -79.912643 65.081238 530.995239
   vertex -79.402237 64.641632 529.902832
  endloop
 endfacet

 facet normal 0.446679 -0.738061 0.505712
  outer loop
   vertex -79.402237 64.641632 529.902832
   vertex -79.912643 65.081238 530.995239
   vertex -79.895874 64.433296 530.034790
  endloop
 endfacet

 facet normal 0.014420 -0.559193 -0.828912
  outer loop
   vertex -79.895874 64.433296 530.034790
   vertex -79.879646 65.812004 529.104980
   vertex -79.402237 64.641632 529.902832
  endloop
 endfacet

 facet normal 0.014528 -0.559193 -0.828910
  outer loop
   vertex -80.719475 64.630394 529.887390
   vertex -79.879646 65.812004 529.104980
   vertex -79.895874 64.433296 530.034790
  endloop
 endfacet

 facet normal 0.014509 -0.559184 -0.828917
  outer loop
   vertex -80.707886 65.614899 529.223450
   vertex -79.879646 65.812004 529.104980
   vertex -80.719475 64.630394 529.887390
  endloop
 endfacet

 facet normal -0.999848 -0.000002 -0.017455
  outer loop
   vertex -80.719475 64.630394 529.887390
   vertex -80.724655 66.262840 530.183960
   vertex -80.707886 65.614899 529.223450
  endloop
 endfacet

 facet normal -0.157033 -0.819993 0.550410
  outer loop
   vertex -80.707886 65.614899 529.223450
   vertex -80.724655 66.262840 530.183960
   vertex -80.806419 65.627090 529.213501
  endloop
 endfacet

 facet normal -0.157095 -0.819983 0.550408
  outer loop
   vertex -80.806419 65.627090 529.213501
   vertex -80.724655 66.262840 530.183960
   vertex -80.823189 66.275040 530.174011
  endloop
 endfacet

 facet normal -0.999848 -0.000014 -0.017447
  outer loop
   vertex -80.823189 66.275040 530.174011
   vertex -80.804871 65.758881 529.124634
   vertex -80.806419 65.627090 529.213501
  endloop
 endfacet

 facet normal -0.999847 0.000023 -0.017465
  outer loop
   vertex -80.821632 66.406822 530.085083
   vertex -80.804871 65.758881 529.124634
   vertex -80.823189 66.275040 530.174011
  endloop
 endfacet

 facet normal -0.602751 0.656562 -0.453451
  outer loop
   vertex -80.737915 66.459946 530.050720
   vertex -80.804871 65.758881 529.124634
   vertex -80.821632 66.406822 530.085083
  endloop
 endfacet

 facet normal -0.014696 0.559293 0.828840
  outer loop
   vertex -80.821632 66.406822 530.085083
   vertex -80.724655 66.262840 530.183960
   vertex -80.737915 66.459946 530.050720
  endloop
 endfacet

 facet normal -0.014488 0.559304 0.828836
  outer loop
   vertex -80.737915 66.459946 530.050720
   vertex -80.724655 66.262840 530.183960
   vertex -79.896408 66.459946 530.065430
  endloop
 endfacet

 facet normal -0.014448 0.559184 0.828918
  outer loop
   vertex -79.896408 66.459946 530.065430
   vertex -80.724655 66.262840 530.183960
   vertex -80.736244 65.278336 530.847900
  endloop
 endfacet

 facet normal -0.014467 0.559193 0.828911
  outer loop
   vertex -80.736244 65.278336 530.847900
   vertex -79.912643 65.081238 530.995239
   vertex -79.896408 66.459946 530.065430
  endloop
 endfacet

 facet normal -0.014490 0.559129 0.828954
  outer loop
   vertex -80.754143 65.081238 530.980530
   vertex -79.912643 65.081238 530.995239
   vertex -80.736244 65.278336 530.847900
  endloop
 endfacet

 facet normal -0.009773 -0.829033 0.559114
  outer loop
   vertex -79.895874 64.433296 530.034790
   vertex -79.912643 65.081238 530.995239
   vertex -80.754143 65.081238 530.980530
  endloop
 endfacet

 facet normal -0.009773 -0.829033 0.559114
  outer loop
   vertex -80.754143 65.081238 530.980530
   vertex -80.737373 64.433296 530.020081
   vertex -79.895874 64.433296 530.034790
  endloop
 endfacet

 facet normal 0.014488 -0.559305 -0.828835
  outer loop
   vertex -79.895874 64.433296 530.034790
   vertex -80.737373 64.433296 530.020081
   vertex -80.719475 64.630394 529.887390
  endloop
 endfacet

 facet normal 0.014562 -0.559309 -0.828831
  outer loop
   vertex -80.719475 64.630394 529.887390
   vertex -80.737373 64.433296 530.020081
   vertex -80.819847 64.486412 529.982788
  endloop
 endfacet

 facet normal 0.014199 -0.559137 -0.828954
  outer loop
   vertex -80.819847 64.486412 529.982788
   vertex -80.818298 64.618202 529.893921
   vertex -80.719475 64.630394 529.887390
  endloop
 endfacet

 facet normal -0.999848 -0.000015 -0.017447
  outer loop
   vertex -80.835068 65.266144 530.854370
   vertex -80.818298 64.618202 529.893921
   vertex -80.819847 64.486412 529.982788
  endloop
 endfacet

 facet normal -0.137873 0.819959 -0.555571
  outer loop
   vertex -80.719475 64.630394 529.887390
   vertex -80.818298 64.618202 529.893921
   vertex -80.835068 65.266144 530.854370
  endloop
 endfacet

 facet normal -0.137536 0.820017 -0.555569
  outer loop
   vertex -80.835068 65.266144 530.854370
   vertex -80.736244 65.278336 530.847900
   vertex -80.719475 64.630394 529.887390
  endloop
 endfacet

 facet normal -0.999848 -0.000002 -0.017455
  outer loop
   vertex -80.719475 64.630394 529.887390
   vertex -80.736244 65.278336 530.847900
   vertex -80.724655 66.262840 530.183960
  endloop
 endfacet

 facet normal -0.009716 -0.829076 0.559051
  outer loop
   vertex -78.624512 53.299854 512.508301
   vertex -78.629578 53.495571 512.798462
   vertex -78.873505 53.262398 512.448425
  endloop
 endfacet

 facet normal -0.009739 -0.829069 0.559062
  outer loop
   vertex -78.873505 53.262398 512.448425
   vertex -78.629578 53.495571 512.798462
   vertex -79.052864 53.431892 512.696655
  endloop
 endfacet

 facet normal -0.009735 -0.829068 0.559064
  outer loop
   vertex -79.052864 53.431892 512.696655
   vertex -79.053841 53.160057 512.293518
   vertex -78.873505 53.262398 512.448425
  endloop
 endfacet

 facet normal -0.009786 -0.829067 0.559063
  outer loop
   vertex -79.359436 53.257915 512.433289
   vertex -79.053841 53.160057 512.293518
   vertex -79.052864 53.431892 512.696655
  endloop
 endfacet

 facet normal -0.009733 -0.829015 0.559142
  outer loop
   vertex -79.117203 53.020260 512.085144
   vertex -79.053841 53.160057 512.293518
   vertex -79.359436 53.257915 512.433289
  endloop
 endfacet

 facet normal -0.009752 -0.829021 0.559133
  outer loop
   vertex -79.359436 53.257915 512.433289
   vertex -79.467148 53.020260 512.079041
   vertex -79.117203 53.020260 512.085144
  endloop
 endfacet

 facet normal -0.009752 -0.829033 0.559114
  outer loop
   vertex -79.117203 53.020260 512.085144
   vertex -79.467148 53.020260 512.079041
   vertex -79.046608 52.880463 511.879089
  endloop
 endfacet

 facet normal -0.009763 -0.829044 0.559098
  outer loop
   vertex -79.046608 52.880463 511.879089
   vertex -79.467148 53.020260 512.079041
   vertex -79.347137 52.782600 511.728729
  endloop
 endfacet

 facet normal -0.009778 -0.829030 0.559119
  outer loop
   vertex -79.347137 52.782600 511.728729
   vertex -78.860977 52.778122 511.730591
   vertex -79.046608 52.880463 511.879089
  endloop
 endfacet

 facet normal -0.009778 -0.829033 0.559115
  outer loop
   vertex -79.031563 52.608627 511.476288
   vertex -78.860977 52.778122 511.730591
   vertex -79.347137 52.782600 511.728729
  endloop
 endfacet

 facet normal -0.009736 -0.829046 0.559095
  outer loop
   vertex -78.610046 52.740662 511.679413
   vertex -78.860977 52.778122 511.730591
   vertex -79.031563 52.608627 511.476288
  endloop
 endfacet

 facet normal -0.009733 -0.829049 0.559091
  outer loop
   vertex -79.031563 52.608627 511.476288
   vertex -78.604980 52.544945 511.389282
   vertex -78.610046 52.740662 511.679413
  endloop
 endfacet

 facet normal -0.009785 -0.829049 0.559091
  outer loop
   vertex -78.610046 52.740662 511.679413
   vertex -78.604980 52.544945 511.389282
   vertex -78.361053 52.778122 511.739319
  endloop
 endfacet

 facet normal -0.009761 -0.829057 0.559079
  outer loop
   vertex -78.361053 52.778122 511.739319
   vertex -78.604980 52.544945 511.389282
   vertex -77.605133 52.544945 511.406738
  endloop
 endfacet

 facet normal -0.009726 -0.829021 0.559132
  outer loop
   vertex -77.605133 52.544945 511.406738
   vertex -78.180717 52.880463 511.894196
   vertex -78.361053 52.778122 511.739319
  endloop
 endfacet

 facet normal -0.009774 -0.829047 0.559094
  outer loop
   vertex -78.117355 53.020260 512.102600
   vertex -78.180717 52.880463 511.894196
   vertex -77.605133 52.544945 511.406738
  endloop
 endfacet

 facet normal 0.009817 0.829076 -0.559050
  outer loop
   vertex -78.958542 66.811836 531.643677
   vertex -78.953476 66.616119 531.353516
   vertex -79.209473 66.849297 531.694824
  endloop
 endfacet

 facet normal 0.009780 0.829063 -0.559069
  outer loop
   vertex -79.209473 66.849297 531.694824
   vertex -78.953476 66.616119 531.353516
   vertex -79.380058 66.679802 531.440491
  endloop
 endfacet

 facet normal 0.009816 0.829051 -0.559086
  outer loop
   vertex -79.380058 66.679802 531.440491
   vertex -79.395103 66.951637 531.843323
   vertex -79.209473 66.849297 531.694824
  endloop
 endfacet

 facet normal 0.009720 0.829051 -0.559089
  outer loop
   vertex -79.695633 66.853783 531.692993
   vertex -79.395103 66.951637 531.843323
   vertex -79.380058 66.679802 531.440491
  endloop
 endfacet

 facet normal 0.009747 0.829025 -0.559126
  outer loop
   vertex -79.465698 67.091438 532.049377
   vertex -79.395103 66.951637 531.843323
   vertex -79.695633 66.853783 531.692993
  endloop
 endfacet

 facet normal 0.009752 0.829024 -0.559128
  outer loop
   vertex -79.695633 66.853783 531.692993
   vertex -79.815643 67.091438 532.043274
   vertex -79.465698 67.091438 532.049377
  endloop
 endfacet

 facet normal 0.009752 0.829019 -0.559135
  outer loop
   vertex -79.465698 67.091438 532.049377
   vertex -79.815643 67.091438 532.043274
   vertex -79.402336 67.231232 532.257751
  endloop
 endfacet

 facet normal 0.009750 0.829021 -0.559133
  outer loop
   vertex -79.402336 67.231232 532.257751
   vertex -79.815643 67.091438 532.043274
   vertex -79.707932 67.329094 532.397522
  endloop
 endfacet

 facet normal 0.009775 0.829046 -0.559095
  outer loop
   vertex -79.707932 67.329094 532.397522
   vertex -79.222000 67.333572 532.412659
   vertex -79.402336 67.231232 532.257751
  endloop
 endfacet

 facet normal 0.009773 0.829080 -0.559045
  outer loop
   vertex -79.401360 67.503067 532.660889
   vertex -79.222000 67.333572 532.412659
   vertex -79.707932 67.329094 532.397522
  endloop
 endfacet

 facet normal 0.009829 0.829098 -0.559017
  outer loop
   vertex -78.973007 67.371033 532.472595
   vertex -79.222000 67.333572 532.412659
   vertex -79.401360 67.503067 532.660889
  endloop
 endfacet

 facet normal 0.009755 0.829022 -0.559131
  outer loop
   vertex -79.401360 67.503067 532.660889
   vertex -78.978073 67.566750 532.762695
   vertex -78.973007 67.371033 532.472595
  endloop
 endfacet

 facet normal 0.009656 0.829022 -0.559133
  outer loop
   vertex -78.973007 67.371033 532.472595
   vertex -78.978073 67.566750 532.762695
   vertex -78.722076 67.333572 532.421387
  endloop
 endfacet

 facet normal 0.009761 0.829057 -0.559079
  outer loop
   vertex -78.722076 67.333572 532.421387
   vertex -78.978073 67.566750 532.762695
   vertex -77.978226 67.566750 532.780151
  endloop
 endfacet

 facet normal 0.009785 0.829033 -0.559113
  outer loop
   vertex -77.978226 67.566750 532.780151
   vertex -78.536446 67.231232 532.272888
   vertex -78.722076 67.333572 532.421387
  endloop
 endfacet

 facet normal 0.009767 0.829043 -0.559100
  outer loop
   vertex -78.465851 67.091438 532.066833
   vertex -78.536446 67.231232 532.272888
   vertex -77.978226 67.566750 532.780151
  endloop
 endfacet

 facet normal 0.009764 0.829044 -0.559099
  outer loop
   vertex -77.600250 52.959465 511.127197
   vertex -78.112473 53.434780 511.823059
   vertex -77.624847 53.910091 512.536377
  endloop
 endfacet

 facet normal 0.009782 0.829038 -0.559107
  outer loop
   vertex -77.624847 53.910091 512.536377
   vertex -78.112473 53.434780 511.823059
   vertex -78.183067 53.574577 512.029114
  endloop
 endfacet

 facet normal 0.009778 0.829040 -0.559104
  outer loop
   vertex -78.183067 53.574577 512.029114
   vertex -78.368706 53.676914 512.177612
   vertex -77.624847 53.910091 512.536377
  endloop
 endfacet

 facet normal 0.009759 0.829055 -0.559082
  outer loop
   vertex -78.709549 66.849297 531.703552
   vertex -78.529213 66.951637 531.858459
   vertex -77.953629 66.616119 531.370972
  endloop
 endfacet

 facet normal 0.009684 0.829015 -0.559143
  outer loop
   vertex -77.953629 66.616119 531.370972
   vertex -78.529213 66.951637 531.858459
   vertex -78.465851 67.091438 532.066833
  endloop
 endfacet

 facet normal 0.009767 0.829043 -0.559100
  outer loop
   vertex -78.465851 67.091438 532.066833
   vertex -77.978226 67.566750 532.780151
   vertex -77.953629 66.616119 531.370972
  endloop
 endfacet

 facet normal -0.009767 -0.829043 0.559100
  outer loop
   vertex -77.983109 67.152229 533.059692
   vertex -78.470734 66.676918 532.346375
   vertex -77.958511 66.201599 531.650513
  endloop
 endfacet

 facet normal -0.009685 -0.829015 0.559142
  outer loop
   vertex -77.958511 66.201599 531.650513
   vertex -78.470734 66.676918 532.346375
   vertex -78.534088 66.537117 532.138000
  endloop
 endfacet

 facet normal -0.009759 -0.829055 0.559082
  outer loop
   vertex -78.534088 66.537117 532.138000
   vertex -78.714424 66.434776 531.983093
   vertex -77.958511 66.201599 531.650513
  endloop
 endfacet

 facet normal -0.009787 -0.829035 0.559111
  outer loop
   vertex -78.373581 53.262398 512.457153
   vertex -78.187950 53.160057 512.308655
   vertex -77.629730 53.495571 512.815918
  endloop
 endfacet

 facet normal -0.009782 -0.829038 0.559107
  outer loop
   vertex -77.629730 53.495571 512.815918
   vertex -78.187950 53.160057 512.308655
   vertex -78.117355 53.020260 512.102600
  endloop
 endfacet

 facet normal -0.009764 -0.829044 0.559099
  outer loop
   vertex -78.117355 53.020260 512.102600
   vertex -77.605133 52.544945 511.406738
   vertex -77.629730 53.495571 512.815918
  endloop
 endfacet

 facet normal -0.618074 -0.656649 0.432199
  outer loop
   vertex -80.754143 65.081238 530.980530
   vertex -80.836617 65.134361 530.943298
   vertex -80.737373 64.433296 530.020081
  endloop
 endfacet

 facet normal -0.618234 -0.656556 0.432112
  outer loop
   vertex -80.737373 64.433296 530.020081
   vertex -80.836617 65.134361 530.943298
   vertex -80.819847 64.486412 529.982788
  endloop
 endfacet

 facet normal 0.009735 0.829039 -0.559106
  outer loop
   vertex -79.704224 55.194012 513.506897
   vertex -80.317665 55.194012 513.496216
   vertex -79.988075 66.163681 529.767700
  endloop
 endfacet

 facet normal 0.009791 0.829038 -0.559107
  outer loop
   vertex -79.988075 66.163681 529.767700
   vertex -80.317665 55.194012 513.496216
   vertex -80.601509 66.163681 529.756958
  endloop
 endfacet

 facet normal -0.602716 0.656582 -0.453469
  outer loop
   vertex -80.542656 55.625278 514.103210
   vertex -80.458931 55.678402 514.068848
   vertex -80.525887 54.977337 513.142761
  endloop
 endfacet

 facet normal -0.602907 0.656473 -0.453372
  outer loop
   vertex -80.525887 54.977337 513.142761
   vertex -80.458931 55.678402 514.068848
   vertex -80.442162 55.030457 513.108337
  endloop
 endfacet

 facet normal -0.999848 0.000000 -0.017460
  outer loop
   vertex -78.977890 66.956512 532.752136
   vertex -78.982956 67.152229 533.042236
   vertex -78.977982 67.261627 532.757385
  endloop
 endfacet

 facet normal -0.014420 0.559193 0.828912
  outer loop
   vertex -79.896408 66.459946 530.065430
   vertex -79.912643 65.081238 530.995239
   vertex -79.407677 66.251610 530.214478
  endloop
 endfacet

 facet normal 0.009703 0.829076 -0.559052
  outer loop
   vertex -78.953476 66.616119 531.353516
   vertex -78.958542 66.811836 531.643677
   vertex -78.709549 66.849297 531.703552
  endloop
 endfacet

 facet normal 0.009817 0.829076 -0.559050
  outer loop
   vertex -78.619637 53.714375 512.228760
   vertex -78.624695 53.910091 512.518921
   vertex -78.368706 53.676914 512.177612
  endloop
 endfacet

 facet normal 0.999848 -0.000002 0.017461
  outer loop
   vertex -78.982956 67.152229 533.042236
   vertex -78.973007 67.371033 532.472595
   vertex -78.978073 67.566750 532.762695
  endloop
 endfacet

 facet normal -0.009767 -0.829032 0.559115
  outer loop
   vertex -79.267563 54.016655 514.109863
   vertex -79.243713 53.095016 512.743713
   vertex -77.702896 53.095016 512.770630
  endloop
 endfacet

 facet normal 0.009767 0.829032 -0.559115
  outer loop
   vertex -78.004486 66.095039 530.047546
   vertex -79.545296 66.095039 530.020630
   vertex -78.028336 67.016678 531.413696
  endloop
 endfacet

 facet normal 0.999848 -0.000003 0.017460
  outer loop
   vertex -78.600098 52.959465 511.109741
   vertex -78.610046 52.740662 511.679413
   vertex -78.604980 52.544945 511.389282
  endloop
 endfacet

 facet normal 0.014757 -0.559401 -0.828765
  outer loop
   vertex -80.540871 53.704868 514.000916
   vertex -80.539314 53.836658 513.911987
   vertex -80.440498 53.848850 513.905518
  endloop
 endfacet

 facet normal 0.999848 -0.000002 0.017458
  outer loop
   vertex -78.958542 66.811836 531.643677
   vertex -78.958359 66.201599 531.633118
   vertex -78.953476 66.616119 531.353516
  endloop
 endfacet

 facet normal 0.014523 -0.559193 -0.828910
  outer loop
   vertex -79.616898 53.651749 514.052856
   vertex -79.600662 55.030457 513.123047
   vertex -79.123253 53.860085 513.920959
  endloop
 endfacet

 facet normal -0.014416 0.559424 0.828756
  outer loop
   vertex -80.821632 66.406822 530.085083
   vertex -80.823189 66.275040 530.174011
   vertex -80.724655 66.262840 530.183960
  endloop
 endfacet

 facet normal -0.009767 -0.829032 0.559115
  outer loop
   vertex -79.556183 65.170715 530.643982
   vertex -78.015366 65.170715 530.670898
   vertex -78.039215 66.092354 532.037048
  endloop
 endfacet

 facet normal -0.014480 0.559182 0.828918
  outer loop
   vertex -77.726746 54.016655 514.136780
   vertex -77.715866 54.940979 513.513428
   vertex -79.256676 54.940979 513.486511
  endloop
 endfacet

 facet normal 0.999848 -0.000004 0.017459
  outer loop
   vertex -78.624512 53.299854 512.508301
   vertex -78.624695 53.910091 512.518921
   vertex -78.629578 53.495571 512.798462
  endloop
 endfacet

 facet normal -0.009805 -0.829076 0.559050
  outer loop
   vertex -78.629578 53.495571 512.798462
   vertex -78.624512 53.299854 512.508301
   vertex -78.373581 53.262398 512.457153
  endloop
 endfacet

 facet normal -0.696740 -0.395407 -0.598504
  outer loop
   vertex -78.187950 53.160057 512.308655
   vertex -78.368706 53.676914 512.177612
   vertex -78.183067 53.574577 512.029114
  endloop
 endfacet

 facet normal -0.962032 -0.144723 -0.231408
  outer loop
   vertex -78.187950 53.160057 512.308655
   vertex -78.183067 53.574577 512.029114
   vertex -78.117355 53.020260 512.102600
  endloop
 endfacet

 facet normal -0.962032 -0.144723 -0.231408
  outer loop
   vertex -78.117355 53.020260 512.102600
   vertex -78.183067 53.574577 512.029114
   vertex -78.112473 53.434780 511.823059
  endloop
 endfacet

 facet normal -0.969523 0.144732 0.197682
  outer loop
   vertex -78.112473 53.434780 511.823059
   vertex -78.180717 52.880463 511.894196
   vertex -78.117355 53.020260 512.102600
  endloop
 endfacet

 facet normal -0.969523 0.144732 0.197680
  outer loop
   vertex -78.175835 53.294979 511.614655
   vertex -78.180717 52.880463 511.894196
   vertex -78.112473 53.434780 511.823059
  endloop
 endfacet

 facet normal -0.717204 0.395417 0.573815
  outer loop
   vertex -78.361053 52.778122 511.739319
   vertex -78.180717 52.880463 511.894196
   vertex -78.175835 53.294979 511.614655
  endloop
 endfacet

 facet normal -0.717247 0.395419 0.573760
  outer loop
   vertex -78.175835 53.294979 511.614655
   vertex -78.356171 53.192642 511.459747
   vertex -78.361053 52.778122 511.739319
  endloop
 endfacet

 facet normal -0.272806 0.540155 0.796122
  outer loop
   vertex -78.361053 52.778122 511.739319
   vertex -78.356171 53.192642 511.459747
   vertex -78.610046 52.740662 511.679413
  endloop
 endfacet

 facet normal -0.244943 -0.540098 -0.805169
  outer loop
   vertex -78.977890 66.956512 532.752136
   vertex -78.973007 67.371033 532.472595
   vertex -78.726959 66.919052 532.700928
  endloop
 endfacet

 facet normal -0.244943 -0.540098 -0.805169
  outer loop
   vertex -78.726959 66.919052 532.700928
   vertex -78.973007 67.371033 532.472595
   vertex -78.722076 67.333572 532.421387
  endloop
 endfacet

 facet normal -0.696759 -0.395397 -0.598489
  outer loop
   vertex -78.722076 67.333572 532.421387
   vertex -78.541328 66.816711 532.552429
   vertex -78.726959 66.919052 532.700928
  endloop
 endfacet

 facet normal -0.696759 -0.395397 -0.598489
  outer loop
   vertex -78.536446 67.231232 532.272888
   vertex -78.541328 66.816711 532.552429
   vertex -78.722076 67.333572 532.421387
  endloop
 endfacet

 facet normal -0.962032 -0.144724 -0.231409
  outer loop
   vertex -78.470734 66.676918 532.346375
   vertex -78.541328 66.816711 532.552429
   vertex -78.536446 67.231232 532.272888
  endloop
 endfacet

 facet normal -0.962032 -0.144724 -0.231409
  outer loop
   vertex -78.536446 67.231232 532.272888
   vertex -78.465851 67.091438 532.066833
   vertex -78.470734 66.676918 532.346375
  endloop
 endfacet

 facet normal -0.969525 0.144728 0.197676
  outer loop
   vertex -78.470734 66.676918 532.346375
   vertex -78.465851 67.091438 532.066833
   vertex -78.534088 66.537117 532.138000
  endloop
 endfacet

 facet normal -0.969518 0.144731 0.197708
  outer loop
   vertex -78.534088 66.537117 532.138000
   vertex -78.465851 67.091438 532.066833
   vertex -78.529213 66.951637 531.858459
  endloop
 endfacet

 facet normal -0.717252 0.395378 0.573782
  outer loop
   vertex -78.529213 66.951637 531.858459
   vertex -78.714424 66.434776 531.983093
   vertex -78.534088 66.537117 532.138000
  endloop
 endfacet

 facet normal -0.272745 0.540124 0.796164
  outer loop
   vertex -78.629578 53.495571 512.798462
   vertex -78.624695 53.910091 512.518921
   vertex -79.052864 53.431892 512.696655
  endloop
 endfacet

 facet normal -0.272846 0.540185 0.796087
  outer loop
   vertex -79.052864 53.431892 512.696655
   vertex -78.624695 53.910091 512.518921
   vertex -79.047989 53.846413 512.417053
  endloop
 endfacet

 facet normal -0.717271 0.395425 0.573726
  outer loop
   vertex -79.047989 53.846413 512.417053
   vertex -79.359436 53.257915 512.433289
   vertex -79.052864 53.431892 512.696655
  endloop
 endfacet

 facet normal -0.717216 0.395399 0.573813
  outer loop
   vertex -79.354561 53.672436 512.153748
   vertex -79.359436 53.257915 512.433289
   vertex -79.047989 53.846413 512.417053
  endloop
 endfacet

 facet normal -0.969521 0.144725 0.197698
  outer loop
   vertex -79.467148 53.020260 512.079041
   vertex -79.359436 53.257915 512.433289
   vertex -79.354561 53.672436 512.153748
  endloop
 endfacet

 facet normal -0.969524 0.144727 0.197680
  outer loop
   vertex -79.354561 53.672436 512.153748
   vertex -79.462273 53.434780 511.799469
   vertex -79.467148 53.020260 512.079041
  endloop
 endfacet

 facet normal -0.962036 -0.144740 -0.231381
  outer loop
   vertex -79.467148 53.020260 512.079041
   vertex -79.462273 53.434780 511.799469
   vertex -79.347137 52.782600 511.728729
  endloop
 endfacet

 facet normal -0.962031 -0.144737 -0.231402
  outer loop
   vertex -79.347137 52.782600 511.728729
   vertex -79.462273 53.434780 511.799469
   vertex -79.342262 53.197121 511.449188
  endloop
 endfacet

 facet normal -0.696746 -0.395412 -0.598493
  outer loop
   vertex -79.342262 53.197121 511.449188
   vertex -79.031563 52.608627 511.476288
   vertex -79.347137 52.782600 511.728729
  endloop
 endfacet

 facet normal -0.696770 -0.395423 -0.598458
  outer loop
   vertex -79.026680 53.023144 511.196716
   vertex -79.031563 52.608627 511.476288
   vertex -79.342262 53.197121 511.449188
  endloop
 endfacet

 facet normal -0.244857 -0.540155 -0.805157
  outer loop
   vertex -78.604980 52.544945 511.389282
   vertex -79.031563 52.608627 511.476288
   vertex -79.026680 53.023144 511.196716
  endloop
 endfacet

 facet normal -0.244798 -0.540120 -0.805198
  outer loop
   vertex -79.026680 53.023144 511.196716
   vertex -78.600098 52.959465 511.109741
   vertex -78.604980 52.544945 511.389282
  endloop
 endfacet

 facet normal -0.272749 0.540123 0.796163
  outer loop
   vertex -78.982956 67.152229 533.042236
   vertex -78.978073 67.566750 532.762695
   vertex -79.406242 67.088547 532.940430
  endloop
 endfacet

 facet normal -0.272749 0.540123 0.796163
  outer loop
   vertex -79.406242 67.088547 532.940430
   vertex -78.978073 67.566750 532.762695
   vertex -79.401360 67.503067 532.660889
  endloop
 endfacet

 facet normal -0.717214 0.395409 0.573809
  outer loop
   vertex -79.401360 67.503067 532.660889
   vertex -79.712814 66.914574 532.677124
   vertex -79.406242 67.088547 532.940430
  endloop
 endfacet

 facet normal -0.717268 0.395436 0.573722
  outer loop
   vertex -79.707932 67.329094 532.397522
   vertex -79.712814 66.914574 532.677124
   vertex -79.401360 67.503067 532.660889
  endloop
 endfacet

 facet normal -0.969527 0.144742 0.197654
  outer loop
   vertex -79.820526 66.676918 532.322815
   vertex -79.712814 66.914574 532.677124
   vertex -79.707932 67.329094 532.397522
  endloop
 endfacet

 facet normal -0.969520 0.144737 0.197690
  outer loop
   vertex -79.707932 67.329094 532.397522
   vertex -79.815643 67.091438 532.043274
   vertex -79.820526 66.676918 532.322815
  endloop
 endfacet

 facet normal -0.962031 -0.144725 -0.231411
  outer loop
   vertex -79.820526 66.676918 532.322815
   vertex -79.815643 67.091438 532.043274
   vertex -79.700516 66.439262 531.972534
  endloop
 endfacet

 facet normal -0.962031 -0.144725 -0.231411
  outer loop
   vertex -79.700516 66.439262 531.972534
   vertex -79.815643 67.091438 532.043274
   vertex -79.695633 66.853783 531.692993
  endloop
 endfacet

 facet normal -0.696751 -0.395401 -0.598495
  outer loop
   vertex -79.695633 66.853783 531.692993
   vertex -79.384941 66.265282 531.720093
   vertex -79.700516 66.439262 531.972534
  endloop
 endfacet

 facet normal -0.696811 -0.395429 -0.598406
  outer loop
   vertex -79.380058 66.679802 531.440491
   vertex -79.384941 66.265282 531.720093
   vertex -79.695633 66.853783 531.692993
  endloop
 endfacet

 facet normal -0.244803 -0.540201 -0.805143
  outer loop
   vertex -78.958359 66.201599 531.633118
   vertex -79.384941 66.265282 531.720093
   vertex -79.380058 66.679802 531.440491
  endloop
 endfacet

 facet normal -0.244803 -0.540201 -0.805143
  outer loop
   vertex -79.380058 66.679802 531.440491
   vertex -78.953476 66.616119 531.353516
   vertex -78.958359 66.201599 531.633118
  endloop
 endfacet

 facet normal -0.717252 0.395378 0.573782
  outer loop
   vertex -78.529213 66.951637 531.858459
   vertex -78.709549 66.849297 531.703552
   vertex -78.714424 66.434776 531.983093
  endloop
 endfacet

 facet normal -0.272717 0.540124 0.796173
  outer loop
   vertex -78.714424 66.434776 531.983093
   vertex -78.709549 66.849297 531.703552
   vertex -78.958542 66.811836 531.643677
  endloop
 endfacet

 facet normal -0.272693 0.540138 0.796172
  outer loop
   vertex -78.958542 66.811836 531.643677
   vertex -78.963425 66.397324 531.923218
   vertex -78.714424 66.434776 531.983093
  endloop
 endfacet

 facet normal 0.244759 0.540133 0.805202
  outer loop
   vertex -79.209473 66.849297 531.694824
   vertex -78.963425 66.397324 531.923218
   vertex -78.958542 66.811836 531.643677
  endloop
 endfacet

 facet normal 0.244743 0.540128 0.805209
  outer loop
   vertex -79.214355 66.434776 531.974365
   vertex -78.963425 66.397324 531.923218
   vertex -79.209473 66.849297 531.694824
  endloop
 endfacet

 facet normal 0.696759 0.395397 0.598489
  outer loop
   vertex -79.209473 66.849297 531.694824
   vertex -79.395103 66.951637 531.843323
   vertex -79.214355 66.434776 531.974365
  endloop
 endfacet

 facet normal 0.696759 0.395397 0.598489
  outer loop
   vertex -79.214355 66.434776 531.974365
   vertex -79.395103 66.951637 531.843323
   vertex -79.399986 66.537117 532.122864
  endloop
 endfacet

 facet normal 0.962033 0.144722 0.231406
  outer loop
   vertex -79.399986 66.537117 532.122864
   vertex -79.395103 66.951637 531.843323
   vertex -79.465698 67.091438 532.049377
  endloop
 endfacet

 facet normal 0.962033 0.144722 0.231406
  outer loop
   vertex -79.465698 67.091438 532.049377
   vertex -79.470581 66.676918 532.328918
   vertex -79.399986 66.537117 532.122864
  endloop
 endfacet

 facet normal 0.969517 -0.144746 -0.197703
  outer loop
   vertex -79.402336 67.231232 532.257751
   vertex -79.470581 66.676918 532.328918
   vertex -79.465698 67.091438 532.049377
  endloop
 endfacet

 facet normal 0.969528 -0.144741 -0.197652
  outer loop
   vertex -79.407219 66.816711 532.537354
   vertex -79.470581 66.676918 532.328918
   vertex -79.402336 67.231232 532.257751
  endloop
 endfacet

 facet normal 0.717251 -0.395446 -0.573737
  outer loop
   vertex -79.402336 67.231232 532.257751
   vertex -79.222000 67.333572 532.412659
   vertex -79.407219 66.816711 532.537354
  endloop
 endfacet

 facet normal 0.717251 -0.395446 -0.573737
  outer loop
   vertex -79.407219 66.816711 532.537354
   vertex -79.222000 67.333572 532.412659
   vertex -79.226883 66.919052 532.692261
  endloop
 endfacet

 facet normal 0.272896 -0.540181 -0.796073
  outer loop
   vertex -79.226883 66.919052 532.692261
   vertex -79.222000 67.333572 532.412659
   vertex -78.973007 67.371033 532.472595
  endloop
 endfacet

 facet normal 0.272716 -0.540128 -0.796171
  outer loop
   vertex -78.973007 67.371033 532.472595
   vertex -78.977890 66.956512 532.752136
   vertex -79.226883 66.919052 532.692261
  endloop
 endfacet

 facet normal -0.696759 -0.395408 -0.598481
  outer loop
   vertex -78.187950 53.160057 512.308655
   vertex -78.373581 53.262398 512.457153
   vertex -78.368706 53.676914 512.177612
  endloop
 endfacet

 facet normal -0.244751 -0.540133 -0.805204
  outer loop
   vertex -78.368706 53.676914 512.177612
   vertex -78.373581 53.262398 512.457153
   vertex -78.624512 53.299854 512.508301
  endloop
 endfacet

 facet normal -0.244759 -0.540129 -0.805204
  outer loop
   vertex -78.624512 53.299854 512.508301
   vertex -78.619637 53.714375 512.228760
   vertex -78.368706 53.676914 512.177612
  endloop
 endfacet

 facet normal 0.272709 -0.540126 -0.796175
  outer loop
   vertex -78.873505 53.262398 512.448425
   vertex -78.619637 53.714375 512.228760
   vertex -78.624512 53.299854 512.508301
  endloop
 endfacet

 facet normal 0.272716 -0.540128 -0.796171
  outer loop
   vertex -78.868629 53.676914 512.168884
   vertex -78.619637 53.714375 512.228760
   vertex -78.873505 53.262398 512.448425
  endloop
 endfacet

 facet normal 0.717252 -0.395381 -0.573780
  outer loop
   vertex -78.873505 53.262398 512.448425
   vertex -79.053841 53.160057 512.293518
   vertex -78.868629 53.676914 512.168884
  endloop
 endfacet

 facet normal 0.717248 -0.395381 -0.573786
  outer loop
   vertex -78.868629 53.676914 512.168884
   vertex -79.053841 53.160057 512.293518
   vertex -79.048965 53.574577 512.013977
  endloop
 endfacet

 facet normal 0.969517 -0.144732 -0.197709
  outer loop
   vertex -79.048965 53.574577 512.013977
   vertex -79.053841 53.160057 512.293518
   vertex -79.117203 53.020260 512.085144
  endloop
 endfacet

 facet normal 0.969524 -0.144729 -0.197678
  outer loop
   vertex -79.117203 53.020260 512.085144
   vertex -79.112320 53.434780 511.805603
   vertex -79.048965 53.574577 512.013977
  endloop
 endfacet

 facet normal 0.962032 0.144723 0.231408
  outer loop
   vertex -79.046608 52.880463 511.879089
   vertex -79.112320 53.434780 511.805603
   vertex -79.117203 53.020260 512.085144
  endloop
 endfacet

 facet normal 0.962040 0.144719 0.231376
  outer loop
   vertex -79.041725 53.294979 511.599518
   vertex -79.112320 53.434780 511.805603
   vertex -79.046608 52.880463 511.879089
  endloop
 endfacet

 facet normal 0.696759 0.395430 0.598467
  outer loop
   vertex -79.046608 52.880463 511.879089
   vertex -78.860977 52.778122 511.730591
   vertex -79.041725 53.294979 511.599518
  endloop
 endfacet

 facet normal 0.696755 0.395429 0.598472
  outer loop
   vertex -79.041725 53.294979 511.599518
   vertex -78.860977 52.778122 511.730591
   vertex -78.856094 53.192642 511.451019
  endloop
 endfacet

 facet normal 0.244851 0.540153 0.805160
  outer loop
   vertex -78.856094 53.192642 511.451019
   vertex -78.860977 52.778122 511.730591
   vertex -78.610046 52.740662 511.679413
  endloop
 endfacet

 facet normal 0.244759 0.540126 0.805206
  outer loop
   vertex -78.610046 52.740662 511.679413
   vertex -78.605164 53.155182 511.399872
   vertex -78.856094 53.192642 511.451019
  endloop
 endfacet

 facet normal -0.272716 0.540128 0.796171
  outer loop
   vertex -78.356171 53.192642 511.459747
   vertex -78.605164 53.155182 511.399872
   vertex -78.610046 52.740662 511.679413
  endloop
 endfacet

endsolid