solid stl file generated from DOUG
 facet normal 0.250647 0.470624 -0.845984
  outer loop
   vertex 232.754837 -7.234799 653.702759
   vertex 232.275055 -7.239520 653.557983
   vertex 232.718765 -7.013711 653.815063
  endloop
 endfacet

 facet normal 0.250657 0.470611 -0.845989
  outer loop
   vertex 232.718765 -7.013711 653.815063
   vertex 232.275055 -7.239520 653.557983
   vertex 232.238998 -7.018432 653.670288
  endloop
 endfacet

 facet normal 0.000686 0.999392 -0.034860
  outer loop
   vertex 232.238998 -7.018432 653.670288
   vertex 232.646332 -7.005299 654.054810
   vertex 232.718765 -7.013711 653.815063
  endloop
 endfacet

 facet normal 0.000686 0.999392 -0.034860
  outer loop
   vertex 232.166550 -7.010020 653.910034
   vertex 232.646332 -7.005299 654.054810
   vertex 232.238998 -7.018432 653.670288
  endloop
 endfacet

 facet normal -0.249959 0.528780 0.811118
  outer loop
   vertex 232.609970 -7.217975 654.182251
   vertex 232.646332 -7.005299 654.054810
   vertex 232.166550 -7.010020 653.910034
  endloop
 endfacet

 facet normal -0.249960 0.528779 0.811118
  outer loop
   vertex 232.166550 -7.010020 653.910034
   vertex 232.130188 -7.222696 654.037476
   vertex 232.609970 -7.217975 654.182251
  endloop
 endfacet

 facet normal -0.250647 -0.470623 0.845985
  outer loop
   vertex 232.609970 -7.217975 654.182251
   vertex 232.130188 -7.222696 654.037476
   vertex 232.646042 -7.439064 654.069946
  endloop
 endfacet

 facet normal -0.250647 -0.470624 0.845984
  outer loop
   vertex 232.646042 -7.439064 654.069946
   vertex 232.130188 -7.222696 654.037476
   vertex 232.166260 -7.443784 653.925171
  endloop
 endfacet

 facet normal -0.000685 -0.999392 0.034858
  outer loop
   vertex 232.166260 -7.443784 653.925171
   vertex 232.718475 -7.447475 653.830200
   vertex 232.646042 -7.439064 654.069946
  endloop
 endfacet

 facet normal -0.000685 -0.999392 0.034860
  outer loop
   vertex 232.238693 -7.452197 653.685425
   vertex 232.718475 -7.447475 653.830200
   vertex 232.166260 -7.443784 653.925171
  endloop
 endfacet

 facet normal 0.249960 -0.528780 -0.811117
  outer loop
   vertex 232.754837 -7.234799 653.702759
   vertex 232.718475 -7.447475 653.830200
   vertex 232.238693 -7.452197 653.685425
  endloop
 endfacet

 facet normal 0.249960 -0.528779 -0.811118
  outer loop
   vertex 232.238693 -7.452197 653.685425
   vertex 232.275055 -7.239520 653.557983
   vertex 232.754837 -7.234799 653.702759
  endloop
 endfacet

 facet normal -0.250052 0.528791 0.811082
  outer loop
   vertex 238.517212 -7.964423 632.898438
   vertex 238.996994 -7.959702 633.043274
   vertex 238.553589 -7.751747 632.770996
  endloop
 endfacet

 facet normal -0.250061 0.528779 0.811087
  outer loop
   vertex 238.553589 -7.751747 632.770996
   vertex 238.996994 -7.959702 633.043274
   vertex 239.033356 -7.747026 632.915833
  endloop
 endfacet

 facet normal 0.000690 0.999392 -0.034859
  outer loop
   vertex 239.033356 -7.747026 632.915833
   vertex 238.626022 -7.760159 632.531250
   vertex 238.553589 -7.751747 632.770996
  endloop
 endfacet

 facet normal 0.000688 0.999392 -0.034857
  outer loop
   vertex 239.105804 -7.755438 632.676086
   vertex 238.626022 -7.760159 632.531250
   vertex 239.033356 -7.747026 632.915833
  endloop
 endfacet

 facet normal 0.250745 0.470625 -0.845954
  outer loop
   vertex 238.662094 -7.981247 632.418945
   vertex 238.626022 -7.760159 632.531250
   vertex 239.105804 -7.755438 632.676086
  endloop
 endfacet

 facet normal 0.250746 0.470624 -0.845955
  outer loop
   vertex 239.105804 -7.755438 632.676086
   vertex 239.141876 -7.976526 632.563782
   vertex 238.662094 -7.981247 632.418945
  endloop
 endfacet

 facet normal 0.250052 -0.528792 -0.811081
  outer loop
   vertex 238.662094 -7.981247 632.418945
   vertex 239.141876 -7.976526 632.563782
   vertex 238.625717 -8.193923 632.546387
  endloop
 endfacet

 facet normal 0.250052 -0.528792 -0.811081
  outer loop
   vertex 238.625717 -8.193923 632.546387
   vertex 239.141876 -7.976526 632.563782
   vertex 239.105499 -8.189202 632.691223
  endloop
 endfacet

 facet normal -0.000689 -0.999392 0.034855
  outer loop
   vertex 239.105499 -8.189202 632.691223
   vertex 238.553284 -8.185512 632.786133
   vertex 238.625717 -8.193923 632.546387
  endloop
 endfacet

 facet normal -0.000688 -0.999392 0.034859
  outer loop
   vertex 239.033066 -8.180790 632.930969
   vertex 238.553284 -8.185512 632.786133
   vertex 239.105499 -8.189202 632.691223
  endloop
 endfacet

 facet normal -0.250745 -0.470624 0.845955
  outer loop
   vertex 238.517212 -7.964423 632.898438
   vertex 238.553284 -8.185512 632.786133
   vertex 239.033066 -8.180790 632.930969
  endloop
 endfacet

 facet normal -0.250745 -0.470625 0.845954
  outer loop
   vertex 239.033066 -8.180790 632.930969
   vertex 238.996994 -7.959702 633.043274
   vertex 238.517212 -7.964423 632.898438
  endloop
 endfacet

 facet normal 0.957297 0.009410 0.288955
  outer loop
   vertex 239.105804 -7.755438 632.676086
   vertex 239.033356 -7.747026 632.915833
   vertex 239.069427 -7.968114 632.803528
  endloop
 endfacet

 facet normal 0.957313 0.009442 0.288898
  outer loop
   vertex 239.069427 -7.968114 632.803528
   vertex 239.033356 -7.747026 632.915833
   vertex 238.996994 -7.959702 633.043274
  endloop
 endfacet

 facet normal 0.957313 0.009442 0.288898
  outer loop
   vertex 238.996994 -7.959702 633.043274
   vertex 239.033066 -8.180790 632.930969
   vertex 239.069427 -7.968114 632.803528
  endloop
 endfacet

 facet normal 0.957313 0.009442 0.288898
  outer loop
   vertex 232.718475 -7.447475 653.830200
   vertex 232.754837 -7.234799 653.702759
   vertex 232.682404 -7.226388 653.942505
  endloop
 endfacet

 facet normal 0.957313 0.009442 0.288898
  outer loop
   vertex 232.682404 -7.226388 653.942505
   vertex 232.754837 -7.234799 653.702759
   vertex 232.718765 -7.013711 653.815063
  endloop
 endfacet

 facet normal 0.957313 0.009442 0.288898
  outer loop
   vertex 232.718765 -7.013711 653.815063
   vertex 232.646332 -7.005299 654.054810
   vertex 232.682404 -7.226388 653.942505
  endloop
 endfacet

 facet normal 0.957313 0.009442 0.288898
  outer loop
   vertex 232.646332 -7.005299 654.054810
   vertex 232.609970 -7.217975 654.182251
   vertex 232.682404 -7.226388 653.942505
  endloop
 endfacet

 facet normal 0.957313 0.009442 0.288898
  outer loop
   vertex 232.682404 -7.226388 653.942505
   vertex 232.609970 -7.217975 654.182251
   vertex 232.646042 -7.439064 654.069946
  endloop
 endfacet

 facet normal 0.957313 0.009442 0.288898
  outer loop
   vertex 232.646042 -7.439064 654.069946
   vertex 232.718475 -7.447475 653.830200
   vertex 232.682404 -7.226388 653.942505
  endloop
 endfacet

 facet normal 0.957313 0.009442 0.288898
  outer loop
   vertex 239.033066 -8.180790 632.930969
   vertex 239.105499 -8.189202 632.691223
   vertex 239.069427 -7.968114 632.803528
  endloop
 endfacet

 facet normal 0.957297 0.009410 0.288955
  outer loop
   vertex 239.069427 -7.968114 632.803528
   vertex 239.105499 -8.189202 632.691223
   vertex 239.141876 -7.976526 632.563782
  endloop
 endfacet

 facet normal 0.957297 0.009410 0.288955
  outer loop
   vertex 239.141876 -7.976526 632.563782
   vertex 239.105804 -7.755438 632.676086
   vertex 239.069427 -7.968114 632.803528
  endloop
 endfacet

 facet normal 0.957307 0.009437 0.288919
  outer loop
   vertex 231.155121 -7.919170 651.982910
   vertex 231.155975 -6.669732 651.939270
   vertex 230.290405 -7.818751 654.844788
  endloop
 endfacet

 facet normal 0.957309 0.009422 0.288914
  outer loop
   vertex 230.290405 -7.818751 654.844788
   vertex 231.155975 -6.669732 651.939270
   vertex 230.291260 -6.569313 654.801208
  endloop
 endfacet

 facet normal -0.289066 0.033567 0.956720
  outer loop
   vertex 230.291260 -6.569313 654.801208
   vertex 228.961090 -7.831831 654.443604
   vertex 230.290405 -7.818751 654.844788
  endloop
 endfacet

 facet normal -0.289069 0.033571 0.956719
  outer loop
   vertex 228.961960 -6.582392 654.400024
   vertex 228.961090 -7.831831 654.443604
   vertex 230.291260 -6.569313 654.801208
  endloop
 endfacet

 facet normal -0.957307 -0.009411 -0.288920
  outer loop
   vertex 229.826675 -6.682812 651.538147
   vertex 228.961090 -7.831831 654.443604
   vertex 228.961960 -6.582392 654.400024
  endloop
 endfacet

 facet normal 0.000686 0.999392 -0.034860
  outer loop
   vertex 228.961960 -6.582392 654.400024
   vertex 231.155975 -6.669732 651.939270
   vertex 229.826675 -6.682812 651.538147
  endloop
 endfacet

 facet normal 0.289029 -0.033571 -0.956732
  outer loop
   vertex 229.826675 -6.682812 651.538147
   vertex 231.155975 -6.669732 651.939270
   vertex 229.825806 -7.932250 651.581726
  endloop
 endfacet

 facet normal 0.289066 -0.033614 -0.956719
  outer loop
   vertex 229.825806 -7.932250 651.581726
   vertex 231.155975 -6.669732 651.939270
   vertex 231.155121 -7.919170 651.982910
  endloop
 endfacet

 facet normal -0.000687 -0.999392 0.034860
  outer loop
   vertex 231.155121 -7.919170 651.982910
   vertex 228.961090 -7.831831 654.443604
   vertex 229.825806 -7.932250 651.581726
  endloop
 endfacet

 facet normal -0.000687 -0.999392 0.034860
  outer loop
   vertex 230.290405 -7.818751 654.844788
   vertex 228.961090 -7.831831 654.443604
   vertex 231.155121 -7.919170 651.982910
  endloop
 endfacet

 facet normal 0.289066 -0.033571 -0.956720
  outer loop
   vertex 236.235443 -8.676602 630.367859
   vertex 236.236313 -7.427164 630.324280
   vertex 237.564758 -8.663523 630.769043
  endloop
 endfacet

 facet normal 0.289069 -0.033567 -0.956720
  outer loop
   vertex 237.564758 -8.663523 630.769043
   vertex 236.236313 -7.427164 630.324280
   vertex 237.565613 -7.414084 630.725464
  endloop
 endfacet

 facet normal 0.957309 0.009422 0.288914
  outer loop
   vertex 237.565613 -7.414084 630.725464
   vertex 236.700043 -8.563103 633.630981
   vertex 237.564758 -8.663523 630.769043
  endloop
 endfacet

 facet normal 0.957309 0.009422 0.288914
  outer loop
   vertex 236.700897 -7.313664 633.587402
   vertex 236.700043 -8.563103 633.630981
   vertex 237.565613 -7.414084 630.725464
  endloop
 endfacet

 facet normal -0.289069 0.033567 0.956720
  outer loop
   vertex 235.371597 -7.326745 633.186218
   vertex 236.700043 -8.563103 633.630981
   vertex 236.700897 -7.313664 633.587402
  endloop
 endfacet

 facet normal 0.000687 0.999392 -0.034859
  outer loop
   vertex 236.700897 -7.313664 633.587402
   vertex 236.236313 -7.427164 630.324280
   vertex 235.371597 -7.326745 633.186218
  endloop
 endfacet

 facet normal -0.957309 -0.009411 -0.288914
  outer loop
   vertex 235.371597 -7.326745 633.186218
   vertex 236.236313 -7.427164 630.324280
   vertex 235.370728 -8.576182 633.229797
  endloop
 endfacet

 facet normal -0.957309 -0.009411 -0.288914
  outer loop
   vertex 235.370728 -8.576182 633.229797
   vertex 236.236313 -7.427164 630.324280
   vertex 236.235443 -8.676602 630.367859
  endloop
 endfacet

 facet normal -0.000687 -0.999392 0.034859
  outer loop
   vertex 236.235443 -8.676602 630.367859
   vertex 236.700043 -8.563103 633.630981
   vertex 235.370728 -8.576182 633.229797
  endloop
 endfacet

 facet normal -0.000687 -0.999392 0.034859
  outer loop
   vertex 237.564758 -8.663523 630.769043
   vertex 236.700043 -8.563103 633.630981
   vertex 236.235443 -8.676602 630.367859
  endloop
 endfacet

 facet normal 0.000687 0.999392 -0.034859
  outer loop
   vertex 236.700897 -7.313664 633.587402
   vertex 237.565613 -7.414084 630.725464
   vertex 236.236313 -7.427164 630.324280
  endloop
 endfacet

 facet normal 0.000687 0.999392 -0.034859
  outer loop
   vertex 230.291260 -6.569313 654.801208
   vertex 231.155975 -6.669732 651.939270
   vertex 228.961960 -6.582392 654.400024
  endloop
 endfacet

 facet normal -0.289066 0.033571 0.956720
  outer loop
   vertex 235.371597 -7.326745 633.186218
   vertex 235.370728 -8.576182 633.229797
   vertex 236.700043 -8.563103 633.630981
  endloop
 endfacet

 facet normal -0.957307 -0.009411 -0.288920
  outer loop
   vertex 229.826675 -6.682812 651.538147
   vertex 229.825806 -7.932250 651.581726
   vertex 228.961090 -7.831831 654.443604
  endloop
 endfacet

 facet normal 0.957309 0.009475 0.288913
  outer loop
   vertex 233.743759 -8.045575 652.996765
   vertex 239.414459 -8.594562 634.224976
   vertex 233.743835 -7.936030 652.992920
  endloop
 endfacet

 facet normal 0.568965 0.809745 0.143497
  outer loop
   vertex 233.743835 -7.936030 652.992920
   vertex 239.414459 -8.594562 634.224976
   vertex 233.631989 -7.850919 652.956116
  endloop
 endfacet

 facet normal 0.585075 0.797211 0.148802
  outer loop
   vertex 239.255997 -7.126971 634.906982
   vertex 239.511429 -7.102615 633.772156
   vertex 239.176483 -7.063717 634.880737
  endloop
 endfacet

 facet normal 0.000687 0.999392 -0.034859
  outer loop
   vertex 239.176483 -7.063717 634.880737
   vertex 239.511429 -7.102615 633.772156
   vertex 238.705719 -7.110543 633.528992
  endloop
 endfacet

 facet normal -0.000688 -0.999392 0.034858
  outer loop
   vertex 232.796249 -8.086417 653.141663
   vertex 233.936890 -8.117388 652.276245
   vertex 233.601944 -8.078490 653.384827
  endloop
 endfacet

 facet normal 0.583959 -0.785731 0.204006
  outer loop
   vertex 233.601944 -8.078490 653.384827
   vertex 233.936890 -8.117388 652.276245
   vertex 234.016495 -8.052567 652.298035
  endloop
 endfacet

 facet normal 0.567917 -0.798515 0.199611
  outer loop
   vertex 239.303436 -7.331936 634.147095
   vertex 239.415390 -7.244623 634.177856
   vertex 233.744751 -6.586092 652.945862
  endloop
 endfacet

 facet normal 0.957309 0.009475 0.288913
  outer loop
   vertex 233.744751 -6.586092 652.945862
   vertex 239.415390 -7.244623 634.177856
   vertex 233.744827 -6.476547 652.942017
  endloop
 endfacet

 facet normal 0.893279 -0.349900 0.282176
  outer loop
   vertex 238.678497 -8.677848 634.005493
   vertex 233.007858 -8.019317 652.773499
   vertex 238.666138 -8.711469 634.002930
  endloop
 endfacet

 facet normal 0.893409 -0.349545 0.282202
  outer loop
   vertex 238.666138 -8.711469 634.002930
   vertex 233.007858 -8.019317 652.773499
   vertex 232.995514 -8.052938 652.770935
  endloop
 endfacet

 facet normal -0.000672 -0.999392 0.034863
  outer loop
   vertex 232.995514 -8.052938 652.770935
   vertex 238.598541 -8.712134 633.982544
   vertex 238.666138 -8.711469 634.002930
  endloop
 endfacet

 facet normal 0.288627 -0.033714 -0.956848
  outer loop
   vertex 239.510284 -8.764626 633.830139
   vertex 239.495529 -8.527169 633.817322
   vertex 239.589890 -8.699805 633.851868
  endloop
 endfacet

 facet normal 0.289359 -0.033272 -0.956642
  outer loop
   vertex 239.589890 -8.699805 633.851868
   vertex 239.495529 -8.527169 633.817322
   vertex 239.589996 -8.540937 633.846375
  endloop
 endfacet

 facet normal 0.957310 0.009346 0.288913
  outer loop
   vertex 239.589996 -8.540937 633.846375
   vertex 239.254944 -8.660908 634.960449
   vertex 239.589890 -8.699805 633.851868
  endloop
 endfacet

 facet normal -0.289087 0.033559 0.956714
  outer loop
   vertex 233.603088 -6.416479 653.326843
   vertex 233.588013 -6.654229 653.330627
   vertex 233.682602 -6.479733 653.353088
  endloop
 endfacet

 facet normal -0.289227 0.033641 0.956669
  outer loop
   vertex 233.682602 -6.479733 653.353088
   vertex 233.588013 -6.654229 653.330627
   vertex 233.682495 -6.638602 653.358643
  endloop
 endfacet

 facet normal 0.957306 0.009457 0.288921
  outer loop
   vertex 233.682495 -6.638602 653.358643
   vertex 234.017563 -6.518631 652.244507
   vertex 233.682602 -6.479733 653.353088
  endloop
 endfacet

 facet normal -0.288566 0.033280 0.956881
  outer loop
   vertex 239.255890 -7.285840 634.912476
   vertex 239.255997 -7.126971 634.906982
   vertex 239.161392 -7.301467 634.884521
  endloop
 endfacet

 facet normal -0.289074 0.033576 0.956718
  outer loop
   vertex 239.161392 -7.301467 634.884521
   vertex 239.255997 -7.126971 634.906982
   vertex 239.176483 -7.063717 634.880737
  endloop
 endfacet

 facet normal -0.289069 0.033576 0.956719
  outer loop
   vertex 239.176483 -7.063717 634.880737
   vertex 238.370773 -7.071645 634.637573
   vertex 239.161392 -7.301467 634.884521
  endloop
 endfacet

 facet normal 0.000687 0.999392 -0.034859
  outer loop
   vertex 238.705719 -7.110543 633.528992
   vertex 238.370773 -7.071645 634.637573
   vertex 239.176483 -7.063717 634.880737
  endloop
 endfacet

 facet normal 0.567917 -0.798515 0.199611
  outer loop
   vertex 233.744751 -6.586092 652.945862
   vertex 233.632797 -6.673405 652.915100
   vertex 239.303436 -7.331936 634.147095
  endloop
 endfacet

 facet normal 0.957309 0.009406 0.288915
  outer loop
   vertex 239.303436 -7.331936 634.147095
   vertex 233.632797 -6.673405 652.915100
   vertex 233.631989 -7.850919 652.956116
  endloop
 endfacet

 facet normal 0.957308 0.009421 0.288915
  outer loop
   vertex 233.631989 -7.850919 652.956116
   vertex 239.302628 -8.509451 634.188171
   vertex 239.303436 -7.331936 634.147095
  endloop
 endfacet

 facet normal 0.569009 0.809712 0.143512
  outer loop
   vertex 239.414459 -8.594562 634.224976
   vertex 239.302628 -8.509451 634.188171
   vertex 233.631989 -7.850919 652.956116
  endloop
 endfacet

 facet normal -0.000688 -0.999392 0.034858
  outer loop
   vertex 232.796249 -8.086417 653.141663
   vertex 233.131195 -8.125315 652.033081
   vertex 233.936890 -8.117388 652.276245
  endloop
 endfacet

 facet normal 0.289074 -0.033679 -0.956714
  outer loop
   vertex 233.936890 -8.117388 652.276245
   vertex 233.131195 -8.125315 652.033081
   vertex 233.922134 -7.879931 652.263428
  endloop
 endfacet

 facet normal 0.289268 -0.033664 -0.956656
  outer loop
   vertex 233.922134 -7.879931 652.263428
   vertex 234.016495 -8.052567 652.298035
   vertex 233.936890 -8.117388 652.276245
  endloop
 endfacet

 facet normal 0.289260 -0.033668 -0.956658
  outer loop
   vertex 234.016617 -7.893699 652.292480
   vertex 234.016495 -8.052567 652.298035
   vertex 233.922134 -7.879931 652.263428
  endloop
 endfacet

 facet normal -0.893813 -0.367371 -0.257170
  outer loop
   vertex 233.595200 -8.013537 652.950745
   vertex 239.265839 -8.672069 634.182739
   vertex 233.607513 -8.046915 652.955627
  endloop
 endfacet

 facet normal -0.893817 -0.367362 -0.257171
  outer loop
   vertex 233.607513 -8.046915 652.955627
   vertex 239.265839 -8.672069 634.182739
   vertex 239.278152 -8.705447 634.187622
  endloop
 endfacet

 facet normal -0.000696 -0.999392 0.034856
  outer loop
   vertex 239.278152 -8.705447 634.187622
   vertex 233.743759 -8.045575 652.996765
   vertex 233.607513 -8.046915 652.955627
  endloop
 endfacet

 facet normal -0.000690 -0.999392 0.034858
  outer loop
   vertex 239.414383 -8.704106 634.228760
   vertex 233.743759 -8.045575 652.996765
   vertex 239.278152 -8.705447 634.187622
  endloop
 endfacet

 facet normal 0.957309 0.009314 0.288917
  outer loop
   vertex 239.414459 -8.594562 634.224976
   vertex 233.743759 -8.045575 652.996765
   vertex 239.414383 -8.704106 634.228760
  endloop
 endfacet

 facet normal 0.957310 0.009425 0.288910
  outer loop
   vertex 232.055878 -7.768780 654.372131
   vertex 232.533066 -6.709850 652.756409
   vertex 232.056641 -6.654522 654.333252
  endloop
 endfacet

 facet normal 0.000687 0.999392 -0.034859
  outer loop
   vertex 232.056641 -6.654522 654.333252
   vertex 232.533066 -6.709850 652.756409
   vertex 230.581375 -6.669038 653.888000
  endloop
 endfacet

 facet normal -0.289078 0.033580 0.956716
  outer loop
   vertex 230.581375 -6.669038 653.888000
   vertex 230.580612 -7.783296 653.926880
   vertex 232.056641 -6.654522 654.333252
  endloop
 endfacet

 facet normal -0.957307 -0.009426 -0.288918
  outer loop
   vertex 231.057816 -6.724366 652.311157
   vertex 230.580612 -7.783296 653.926880
   vertex 230.581375 -6.669038 653.888000
  endloop
 endfacet

 facet normal -0.957310 -0.009412 -0.288910
  outer loop
   vertex 231.057037 -7.838624 652.350037
   vertex 230.580612 -7.783296 653.926880
   vertex 231.057816 -6.724366 652.311157
  endloop
 endfacet

 facet normal 0.289081 -0.033584 -0.956715
  outer loop
   vertex 231.057816 -6.724366 652.311157
   vertex 232.533066 -6.709850 652.756409
   vertex 231.057037 -7.838624 652.350037
  endloop
 endfacet

 facet normal 0.289078 -0.033580 -0.956716
  outer loop
   vertex 231.057037 -7.838624 652.350037
   vertex 232.533066 -6.709850 652.756409
   vertex 232.532303 -7.824108 652.795288
  endloop
 endfacet

 facet normal 0.957310 0.009425 0.288910
  outer loop
   vertex 232.532303 -7.824108 652.795288
   vertex 232.533066 -6.709850 652.756409
   vertex 232.055878 -7.768780 654.372131
  endloop
 endfacet

 facet normal -0.000687 -0.999392 0.034859
  outer loop
   vertex 232.055878 -7.768780 654.372131
   vertex 230.580612 -7.783296 653.926880
   vertex 232.532303 -7.824108 652.795288
  endloop
 endfacet

 facet normal -0.289078 0.033580 0.956716
  outer loop
   vertex 232.056641 -6.654522 654.333252
   vertex 230.580612 -7.783296 653.926880
   vertex 232.055878 -7.768780 654.372131
  endloop
 endfacet

 facet normal -0.000688 -0.999392 0.034860
  outer loop
   vertex 238.774689 -8.549037 632.135010
   vertex 238.298264 -8.493709 633.711792
   vertex 237.299423 -8.563553 631.689758
  endloop
 endfacet

 facet normal -0.000685 -0.999392 0.034859
  outer loop
   vertex 237.299423 -8.563553 631.689758
   vertex 238.298264 -8.493709 633.711792
   vertex 236.822998 -8.508225 633.266602
  endloop
 endfacet

 facet normal -0.957310 -0.009425 -0.288910
  outer loop
   vertex 236.822998 -8.508225 633.266602
   vertex 237.300186 -7.449295 631.650879
   vertex 237.299423 -8.563553 631.689758
  endloop
 endfacet

 facet normal -0.957310 -0.009425 -0.288910
  outer loop
   vertex 236.823761 -7.393967 633.227722
   vertex 237.300186 -7.449295 631.650879
   vertex 236.822998 -8.508225 633.266602
  endloop
 endfacet

 facet normal 0.000687 0.999392 -0.034859
  outer loop
   vertex 238.299026 -7.379451 633.672974
   vertex 237.300186 -7.449295 631.650879
   vertex 236.823761 -7.393967 633.227722
  endloop
 endfacet

 facet normal -0.289078 0.033528 0.956718
  outer loop
   vertex 236.823761 -7.393967 633.227722
   vertex 238.298264 -8.493709 633.711792
   vertex 238.299026 -7.379451 633.672974
  endloop
 endfacet

 facet normal 0.957310 0.009410 0.288910
  outer loop
   vertex 238.299026 -7.379451 633.672974
   vertex 238.298264 -8.493709 633.711792
   vertex 238.775452 -7.434779 632.096130
  endloop
 endfacet

 facet normal 0.957307 0.009426 0.288920
  outer loop
   vertex 238.775452 -7.434779 632.096130
   vertex 238.298264 -8.493709 633.711792
   vertex 238.774689 -8.549037 632.135010
  endloop
 endfacet

 facet normal 0.289078 -0.033580 -0.956716
  outer loop
   vertex 238.774689 -8.549037 632.135010
   vertex 237.300186 -7.449295 631.650879
   vertex 238.775452 -7.434779 632.096130
  endloop
 endfacet

 facet normal 0.289078 -0.033580 -0.956716
  outer loop
   vertex 237.299423 -8.563553 631.689758
   vertex 237.300186 -7.449295 631.650879
   vertex 238.774689 -8.549037 632.135010
  endloop
 endfacet

 facet normal -0.957314 -0.009420 -0.288896
  outer loop
   vertex 231.051559 -6.919271 655.543518
   vertex 231.152740 -6.931021 655.208618
   vertex 231.152390 -7.430717 655.226074
  endloop
 endfacet

 facet normal 0.957299 0.009421 0.288944
  outer loop
   vertex 231.152390 -7.430717 655.226074
   vertex 231.152740 -6.931021 655.208618
   vertex 231.101974 -7.174994 655.384766
  endloop
 endfacet

 facet normal 0.957312 0.009449 0.288904
  outer loop
   vertex 231.101974 -7.174994 655.384766
   vertex 231.051224 -7.418968 655.560913
   vertex 231.152390 -7.430717 655.226074
  endloop
 endfacet

 facet normal 0.957326 0.009412 0.288857
  outer loop
   vertex 231.051559 -6.919271 655.543518
   vertex 231.051224 -7.418968 655.560913
   vertex 231.101974 -7.174994 655.384766
  endloop
 endfacet

 facet normal -0.289036 0.033499 0.956732
  outer loop
   vertex 230.093918 -7.428387 655.272034
   vertex 231.051224 -7.418968 655.560913
   vertex 231.051559 -6.919271 655.543518
  endloop
 endfacet

 facet normal -0.289092 0.033615 0.956711
  outer loop
   vertex 231.051559 -6.919271 655.543518
   vertex 230.094254 -6.928691 655.254578
   vertex 230.093918 -7.428387 655.272034
  endloop
 endfacet

 facet normal -0.957311 -0.009449 -0.288904
  outer loop
   vertex 230.093918 -7.428387 655.272034
   vertex 230.094254 -6.928691 655.254578
   vertex 230.585327 -7.485456 653.645569
  endloop
 endfacet

 facet normal -0.957306 -0.009385 -0.288925
  outer loop
   vertex 230.585327 -7.485456 653.645569
   vertex 230.094254 -6.928691 655.254578
   vertex 230.585678 -6.985759 653.628174
  endloop
 endfacet

 facet normal 0.289036 -0.033508 -0.956732
  outer loop
   vertex 230.585678 -6.985759 653.628174
   vertex 231.542984 -6.976340 653.917053
   vertex 230.585327 -7.485456 653.645569
  endloop
 endfacet

 facet normal 0.000686 0.999392 -0.034859
  outer loop
   vertex 231.183121 -6.964697 654.243774
   vertex 231.542984 -6.976340 653.917053
   vertex 230.585678 -6.985759 653.628174
  endloop
 endfacet

 facet normal 0.000691 0.999392 -0.034853
  outer loop
   vertex 231.441803 -6.964591 654.251953
   vertex 231.542984 -6.976340 653.917053
   vertex 231.183121 -6.964697 654.243774
  endloop
 endfacet

 facet normal -0.000688 -0.999392 0.034859
  outer loop
   vertex 237.992081 -8.255158 631.724609
   vertex 238.110870 -8.238805 632.195801
   vertex 237.153549 -8.248224 631.906860
  endloop
 endfacet

 facet normal -0.289087 0.033507 0.956716
  outer loop
   vertex 237.153549 -8.248224 631.906860
   vertex 238.110870 -8.238805 632.195801
   vertex 237.153900 -7.748528 631.889465
  endloop
 endfacet

 facet normal -0.957306 -0.009385 -0.288925
  outer loop
   vertex 237.153900 -7.748528 631.889465
   vertex 237.644974 -8.305292 630.280457
   vertex 237.153549 -8.248224 631.906860
  endloop
 endfacet

 facet normal -0.957311 -0.009449 -0.288904
  outer loop
   vertex 237.645309 -7.805596 630.263000
   vertex 237.644974 -8.305292 630.280457
   vertex 237.153900 -7.748528 631.889465
  endloop
 endfacet

 facet normal 0.289036 -0.033616 -0.956728
  outer loop
   vertex 238.602280 -8.295873 630.569336
   vertex 237.644974 -8.305292 630.280457
   vertex 237.645309 -7.805596 630.263000
  endloop
 endfacet

 facet normal 0.289092 -0.033499 -0.956715
  outer loop
   vertex 237.645309 -7.805596 630.263000
   vertex 238.602615 -7.796177 630.551941
   vertex 238.602280 -8.295873 630.569336
  endloop
 endfacet

 facet normal 0.957326 0.009412 0.288857
  outer loop
   vertex 238.602280 -8.295873 630.569336
   vertex 238.602615 -7.796177 630.551941
   vertex 238.551865 -8.040151 630.728088
  endloop
 endfacet

 facet normal 0.957312 0.009449 0.288904
  outer loop
   vertex 238.551865 -8.040151 630.728088
   vertex 238.602615 -7.796177 630.551941
   vertex 238.501450 -7.784428 630.886780
  endloop
 endfacet

 facet normal 0.957299 0.009421 0.288944
  outer loop
   vertex 238.501450 -7.784428 630.886780
   vertex 238.501099 -8.284123 630.904236
   vertex 238.551865 -8.040151 630.728088
  endloop
 endfacet

 facet normal -0.957314 -0.009420 -0.288896
  outer loop
   vertex 238.602280 -8.295873 630.569336
   vertex 238.501099 -8.284123 630.904236
   vertex 238.501450 -7.784428 630.886780
  endloop
 endfacet

 facet normal 0.957314 0.009385 0.288898
  outer loop
   vertex 238.551865 -8.040151 630.728088
   vertex 238.501099 -8.284123 630.904236
   vertex 238.602280 -8.295873 630.569336
  endloop
 endfacet

 facet normal 0.957309 0.009475 0.288913
  outer loop
   vertex 239.415390 -7.244623 634.177856
   vertex 239.415466 -7.135079 634.174011
   vertex 233.744827 -6.476547 652.942017
  endloop
 endfacet

 facet normal 0.000678 0.999392 -0.034862
  outer loop
   vertex 233.744827 -6.476547 652.942017
   vertex 239.415466 -7.135079 634.174011
   vertex 239.279221 -7.136419 634.132935
  endloop
 endfacet

 facet normal 0.000693 0.999392 -0.034857
  outer loop
   vertex 239.279221 -7.136419 634.132935
   vertex 233.608582 -6.477888 652.900879
   vertex 233.744827 -6.476547 652.942017
  endloop
 endfacet

 facet normal -0.893411 0.349540 -0.282204
  outer loop
   vertex 239.266876 -7.170041 634.130371
   vertex 233.608582 -6.477888 652.900879
   vertex 239.279221 -7.136419 634.132935
  endloop
 endfacet

 facet normal -0.893411 0.349540 -0.282204
  outer loop
   vertex 233.596237 -6.511509 652.898315
   vertex 233.608582 -6.477888 652.900879
   vertex 239.266876 -7.170041 634.130371
  endloop
 endfacet

 facet normal 0.000686 0.999392 -0.034859
  outer loop
   vertex 239.266876 -7.170041 634.130371
   vertex 238.679535 -7.175820 633.953125
   vertex 233.596237 -6.511509 652.898315
  endloop
 endfacet

 facet normal 0.000687 0.999392 -0.034859
  outer loop
   vertex 233.596237 -6.511509 652.898315
   vertex 238.679535 -7.175820 633.953125
   vertex 233.008896 -6.517288 652.721069
  endloop
 endfacet

 facet normal 0.893816 0.367362 0.257172
  outer loop
   vertex 233.008896 -6.517288 652.721069
   vertex 238.679535 -7.175820 633.953125
   vertex 238.667221 -7.142441 633.948242
  endloop
 endfacet

 facet normal 0.893815 0.367367 0.257171
  outer loop
   vertex 238.667221 -7.142441 633.948242
   vertex 232.996582 -6.483910 652.716187
   vertex 233.008896 -6.517288 652.721069
  endloop
 endfacet

 facet normal 0.000708 0.999392 -0.034853
  outer loop
   vertex 238.599625 -7.143106 633.927795
   vertex 232.996582 -6.483910 652.716187
   vertex 238.667221 -7.142441 633.948242
  endloop
 endfacet

 facet normal 0.000679 0.999392 -0.034862
  outer loop
   vertex 232.928986 -6.484575 652.695801
   vertex 232.996582 -6.483910 652.716187
   vertex 238.599625 -7.143106 633.927795
  endloop
 endfacet

 facet normal -0.957309 -0.009420 -0.288914
  outer loop
   vertex 238.599625 -7.143106 633.927795
   vertex 238.598541 -8.712134 633.982544
   vertex 232.928986 -6.484575 652.695801
  endloop
 endfacet

 facet normal -0.957309 -0.009420 -0.288914
  outer loop
   vertex 232.928986 -6.484575 652.695801
   vertex 238.598541 -8.712134 633.982544
   vertex 232.927902 -8.053602 652.750549
  endloop
 endfacet

 facet normal -0.000685 -0.999392 0.034860
  outer loop
   vertex 232.927902 -8.053602 652.750549
   vertex 238.598541 -8.712134 633.982544
   vertex 232.995514 -8.052938 652.770935
  endloop
 endfacet

 facet normal -0.000688 -0.999392 0.034858
  outer loop
   vertex 231.182770 -7.464393 654.261230
   vertex 230.585327 -7.485456 653.645569
   vertex 231.542633 -7.476036 653.934509
  endloop
 endfacet

 facet normal 0.289092 -0.033624 -0.956711
  outer loop
   vertex 231.542633 -7.476036 653.934509
   vertex 230.585327 -7.485456 653.645569
   vertex 231.542984 -6.976340 653.917053
  endloop
 endfacet

 facet normal 0.957312 0.009420 0.288905
  outer loop
   vertex 231.542984 -6.976340 653.917053
   vertex 231.441467 -7.464287 654.269348
   vertex 231.542633 -7.476036 653.934509
  endloop
 endfacet

 facet normal 0.957314 0.009414 0.288897
  outer loop
   vertex 231.441803 -6.964591 654.251953
   vertex 231.441467 -7.464287 654.269348
   vertex 231.542984 -6.976340 653.917053
  endloop
 endfacet

 facet normal -0.957314 -0.009414 -0.288897
  outer loop
   vertex 231.542984 -6.976340 653.917053
   vertex 231.441467 -7.464287 654.269348
   vertex 231.441803 -6.964591 654.251953
  endloop
 endfacet

 facet normal 0.000680 0.999392 -0.034856
  outer loop
   vertex 231.441803 -6.964591 654.251953
   vertex 231.661774 -6.959987 654.388245
   vertex 231.542984 -6.976340 653.917053
  endloop
 endfacet

 facet normal 0.000687 0.999392 -0.034858
  outer loop
   vertex 231.542984 -6.976340 653.917053
   vertex 231.661774 -6.959987 654.388245
   vertex 231.916916 -6.968513 654.148804
  endloop
 endfacet

 facet normal 0.000686 0.999392 -0.034858
  outer loop
   vertex 231.916916 -6.968513 654.148804
   vertex 231.661774 -6.959987 654.388245
   vertex 231.784073 -6.952119 654.616211
  endloop
 endfacet

 facet normal 0.000689 0.999392 -0.034858
  outer loop
   vertex 231.784073 -6.952119 654.616211
   vertex 232.124817 -6.955139 654.536377
   vertex 231.916916 -6.968513 654.148804
  endloop
 endfacet

 facet normal 0.000689 0.999392 -0.034857
  outer loop
   vertex 231.775925 -6.943096 654.874756
   vertex 232.124817 -6.955139 654.536377
   vertex 231.784073 -6.952119 654.616211
  endloop
 endfacet

 facet normal 0.000688 0.999392 -0.034858
  outer loop
   vertex 232.110992 -6.939799 654.975891
   vertex 232.124817 -6.955139 654.536377
   vertex 231.775925 -6.943096 654.874756
  endloop
 endfacet

 facet normal 0.000690 0.999392 -0.034864
  outer loop
   vertex 231.775925 -6.943096 654.874756
   vertex 231.639526 -6.935335 655.094543
   vertex 232.110992 -6.939799 654.975891
  endloop
 endfacet

 facet normal 0.000690 0.999392 -0.034862
  outer loop
   vertex 232.110992 -6.939799 654.975891
   vertex 231.639526 -6.935335 655.094543
   vertex 231.879120 -6.926605 655.349548
  endloop
 endfacet

 facet normal 0.000683 0.999392 -0.034856
  outer loop
   vertex 231.879120 -6.926605 655.349548
   vertex 231.639526 -6.935335 655.094543
   vertex 231.411438 -6.930915 655.216797
  endloop
 endfacet

 facet normal 0.000685 0.999392 -0.034863
  outer loop
   vertex 231.411438 -6.930915 655.216797
   vertex 231.491348 -6.919091 655.557312
   vertex 231.879120 -6.926605 655.349548
  endloop
 endfacet

 facet normal 0.000691 0.999392 -0.034864
  outer loop
   vertex 231.152740 -6.931021 655.208618
   vertex 231.491348 -6.919091 655.557312
   vertex 231.411438 -6.930915 655.216797
  endloop
 endfacet

 facet normal 0.000684 0.999392 -0.034856
  outer loop
   vertex 231.051559 -6.919271 655.543518
   vertex 231.491348 -6.919091 655.557312
   vertex 231.152740 -6.931021 655.208618
  endloop
 endfacet

 facet normal 0.000682 0.999392 -0.034857
  outer loop
   vertex 231.152740 -6.931021 655.208618
   vertex 230.932770 -6.935625 655.072327
   vertex 231.051559 -6.919271 655.543518
  endloop
 endfacet

 facet normal 0.000687 0.999392 -0.034858
  outer loop
   vertex 231.051559 -6.919271 655.543518
   vertex 230.932770 -6.935625 655.072327
   vertex 230.094254 -6.928691 655.254578
  endloop
 endfacet

 facet normal 0.000687 0.999392 -0.034860
  outer loop
   vertex 230.094254 -6.928691 655.254578
   vertex 230.932770 -6.935625 655.072327
   vertex 230.810486 -6.943492 654.844360
  endloop
 endfacet

 facet normal 0.000688 0.999392 -0.034857
  outer loop
   vertex 230.810486 -6.943492 654.844360
   vertex 230.818619 -6.952516 654.585815
   vertex 230.094254 -6.928691 655.254578
  endloop
 endfacet

 facet normal 0.000686 0.999392 -0.034861
  outer loop
   vertex 237.992416 -7.755462 631.707214
   vertex 237.153900 -7.748528 631.889465
   vertex 238.111206 -7.739109 632.178345
  endloop
 endfacet

 facet normal -0.289036 0.033616 0.956728
  outer loop
   vertex 238.111206 -7.739109 632.178345
   vertex 237.153900 -7.748528 631.889465
   vertex 238.110870 -8.238805 632.195801
  endloop
 endfacet

 facet normal 0.957300 0.009451 0.288943
  outer loop
   vertex 238.110870 -8.238805 632.195801
   vertex 238.212387 -7.750858 631.843506
   vertex 238.111206 -7.739109 632.178345
  endloop
 endfacet

 facet normal 0.957312 0.009420 0.288905
  outer loop
   vertex 238.212036 -8.250554 631.860962
   vertex 238.212387 -7.750858 631.843506
   vertex 238.110870 -8.238805 632.195801
  endloop
 endfacet

 facet normal -0.957312 -0.009420 -0.288905
  outer loop
   vertex 238.110870 -8.238805 632.195801
   vertex 238.212387 -7.750858 631.843506
   vertex 238.212036 -8.250554 631.860962
  endloop
 endfacet

 facet normal -0.000685 -0.999392 0.034861
  outer loop
   vertex 238.212036 -8.250554 631.860962
   vertex 238.470734 -8.250448 631.869080
   vertex 238.110870 -8.238805 632.195801
  endloop
 endfacet

 facet normal -0.000689 -0.999392 0.034857
  outer loop
   vertex 238.110870 -8.238805 632.195801
   vertex 238.470734 -8.250448 631.869080
   vertex 238.550644 -8.238625 632.209656
  endloop
 endfacet

 facet normal -0.000690 -0.999392 0.034857
  outer loop
   vertex 238.550644 -8.238625 632.209656
   vertex 238.470734 -8.250448 631.869080
   vertex 238.698837 -8.254868 631.746887
  endloop
 endfacet

 facet normal -0.000683 -0.999392 0.034860
  outer loop
   vertex 238.698837 -8.254868 631.746887
   vertex 238.938416 -8.246139 632.001831
   vertex 238.550644 -8.238625 632.209656
  endloop
 endfacet

 facet normal -0.000684 -0.999392 0.034860
  outer loop
   vertex 238.835220 -8.262630 631.527039
   vertex 238.938416 -8.246139 632.001831
   vertex 238.698837 -8.254868 631.746887
  endloop
 endfacet

 facet normal -0.000689 -0.999392 0.034862
  outer loop
   vertex 239.170288 -8.259333 631.628174
   vertex 238.938416 -8.246139 632.001831
   vertex 238.835220 -8.262630 631.527039
  endloop
 endfacet

 facet normal -0.000687 -0.999392 0.034855
  outer loop
   vertex 238.835220 -8.262630 631.527039
   vertex 238.843369 -8.271652 631.268494
   vertex 239.170288 -8.259333 631.628174
  endloop
 endfacet

 facet normal -0.000691 -0.999392 0.034859
  outer loop
   vertex 239.170288 -8.259333 631.628174
   vertex 238.843369 -8.271652 631.268494
   vertex 239.184128 -8.274673 631.188660
  endloop
 endfacet

 facet normal -0.000690 -0.999392 0.034862
  outer loop
   vertex 239.184128 -8.274673 631.188660
   vertex 238.843369 -8.271652 631.268494
   vertex 238.721069 -8.279520 631.040527
  endloop
 endfacet

 facet normal -0.000688 -0.999392 0.034856
  outer loop
   vertex 238.721069 -8.279520 631.040527
   vertex 238.976212 -8.288047 630.801086
   vertex 239.184128 -8.274673 631.188660
  endloop
 endfacet

 facet normal -0.000685 -0.999392 0.034860
  outer loop
   vertex 238.501099 -8.284123 630.904236
   vertex 238.976212 -8.288047 630.801086
   vertex 238.721069 -8.279520 631.040527
  endloop
 endfacet

 facet normal -0.000686 -0.999392 0.034854
  outer loop
   vertex 238.602280 -8.295873 630.569336
   vertex 238.976212 -8.288047 630.801086
   vertex 238.501099 -8.284123 630.904236
  endloop
 endfacet

 facet normal -0.000689 -0.999392 0.034853
  outer loop
   vertex 238.501099 -8.284123 630.904236
   vertex 238.242416 -8.284230 630.896057
   vertex 238.602280 -8.295873 630.569336
  endloop
 endfacet

 facet normal -0.000685 -0.999392 0.034858
  outer loop
   vertex 238.602280 -8.295873 630.569336
   vertex 238.242416 -8.284230 630.896057
   vertex 237.644974 -8.305292 630.280457
  endloop
 endfacet

 facet normal -0.000685 -0.999392 0.034857
  outer loop
   vertex 237.644974 -8.305292 630.280457
   vertex 238.242416 -8.284230 630.896057
   vertex 238.014313 -8.279810 631.018311
  endloop
 endfacet

 facet normal -0.000692 -0.999392 0.034861
  outer loop
   vertex 238.014313 -8.279810 631.018311
   vertex 237.877914 -8.272049 631.238098
   vertex 237.644974 -8.305292 630.280457
  endloop
 endfacet

 facet normal -0.435359 0.885450 -0.162607
  outer loop
   vertex 238.705719 -7.110543 633.528992
   vertex 238.235260 -7.366316 633.395813
   vertex 238.370773 -7.071645 634.637573
  endloop
 endfacet

 facet normal -0.435359 0.885450 -0.162607
  outer loop
   vertex 238.370773 -7.071645 634.637573
   vertex 238.235260 -7.366316 633.395813
   vertex 237.900314 -7.327418 634.504395
  endloop
 endfacet

 facet normal -0.289086 0.033581 0.956714
  outer loop
   vertex 237.900314 -7.327418 634.504395
   vertex 237.899521 -8.487138 634.544861
   vertex 238.370773 -7.071645 634.637573
  endloop
 endfacet

 facet normal -0.957310 -0.009426 -0.288910
  outer loop
   vertex 238.235260 -7.366316 633.395813
   vertex 237.899521 -8.487138 634.544861
   vertex 237.900314 -7.327418 634.504395
  endloop
 endfacet

 facet normal -0.957310 -0.009426 -0.288910
  outer loop
   vertex 238.234467 -8.526035 633.436279
   vertex 237.899521 -8.487138 634.544861
   vertex 238.235260 -7.366316 633.395813
  endloop
 endfacet

 facet normal 0.289072 -0.033581 -0.956718
  outer loop
   vertex 238.235260 -7.366316 633.395813
   vertex 238.704575 -8.772553 633.586975
   vertex 238.234467 -8.526035 633.436279
  endloop
 endfacet

 facet normal -0.436586 -0.894027 -0.100540
  outer loop
   vertex 238.234467 -8.526035 633.436279
   vertex 238.704575 -8.772553 633.586975
   vertex 237.899521 -8.487138 634.544861
  endloop
 endfacet

 facet normal -0.436594 -0.894022 -0.100549
  outer loop
   vertex 237.899521 -8.487138 634.544861
   vertex 238.704575 -8.772553 633.586975
   vertex 238.369629 -8.733656 634.695496
  endloop
 endfacet

 facet normal -0.288978 0.033542 0.956748
  outer loop
   vertex 238.369629 -8.733656 634.695496
   vertex 238.370773 -7.071645 634.637573
   vertex 237.899521 -8.487138 634.544861
  endloop
 endfacet

 facet normal -0.289099 0.033541 0.956711
  outer loop
   vertex 239.160583 -8.488273 634.925903
   vertex 238.370773 -7.071645 634.637573
   vertex 238.369629 -8.733656 634.695496
  endloop
 endfacet

 facet normal -0.289075 0.033556 0.956718
  outer loop
   vertex 239.161392 -7.301467 634.884521
   vertex 238.370773 -7.071645 634.637573
   vertex 239.160583 -8.488273 634.925903
  endloop
 endfacet

 facet normal 0.957310 0.009421 0.288910
  outer loop
   vertex 239.160583 -8.488273 634.925903
   vertex 239.496338 -7.340364 633.775940
   vertex 239.161392 -7.301467 634.884521
  endloop
 endfacet

 facet normal 0.140440 -0.987085 0.077066
  outer loop
   vertex 239.161392 -7.301467 634.884521
   vertex 239.496338 -7.340364 633.775940
   vertex 239.255890 -7.285840 634.912476
  endloop
 endfacet

 facet normal 0.140389 -0.987093 0.077056
  outer loop
   vertex 239.255890 -7.285840 634.912476
   vertex 239.496338 -7.340364 633.775940
   vertex 239.590836 -7.324738 633.803955
  endloop
 endfacet

 facet normal 0.957305 0.009347 0.288927
  outer loop
   vertex 239.590836 -7.324738 633.803955
   vertex 239.255997 -7.126971 634.906982
   vertex 239.255890 -7.285840 634.912476
  endloop
 endfacet

 facet normal 0.957310 0.009457 0.288909
  outer loop
   vertex 239.590942 -7.165869 633.798401
   vertex 239.255997 -7.126971 634.906982
   vertex 239.590836 -7.324738 633.803955
  endloop
 endfacet

 facet normal 0.585075 0.797211 0.148802
  outer loop
   vertex 239.511429 -7.102615 633.772156
   vertex 239.255997 -7.126971 634.906982
   vertex 239.590942 -7.165869 633.798401
  endloop
 endfacet

 facet normal 0.289074 -0.033576 -0.956718
  outer loop
   vertex 239.590942 -7.165869 633.798401
   vertex 239.496338 -7.340364 633.775940
   vertex 239.511429 -7.102615 633.772156
  endloop
 endfacet

 facet normal 0.289069 -0.033576 -0.956719
  outer loop
   vertex 239.511429 -7.102615 633.772156
   vertex 239.496338 -7.340364 633.775940
   vertex 238.705719 -7.110543 633.528992
  endloop
 endfacet

 facet normal 0.289075 -0.033556 -0.956718
  outer loop
   vertex 238.705719 -7.110543 633.528992
   vertex 239.496338 -7.340364 633.775940
   vertex 239.495529 -8.527169 633.817322
  endloop
 endfacet

 facet normal 0.289041 -0.033577 -0.956728
  outer loop
   vertex 239.495529 -8.527169 633.817322
   vertex 238.704575 -8.772553 633.586975
   vertex 238.705719 -7.110543 633.528992
  endloop
 endfacet

 facet normal 0.289069 -0.033679 -0.956716
  outer loop
   vertex 239.510284 -8.764626 633.830139
   vertex 238.704575 -8.772553 633.586975
   vertex 239.495529 -8.527169 633.817322
  endloop
 endfacet

 facet normal -0.000687 -0.999392 0.034861
  outer loop
   vertex 238.369629 -8.733656 634.695496
   vertex 238.704575 -8.772553 633.586975
   vertex 239.510284 -8.764626 633.830139
  endloop
 endfacet

 facet normal -0.000687 -0.999392 0.034861
  outer loop
   vertex 239.510284 -8.764626 633.830139
   vertex 239.175339 -8.725728 634.938660
   vertex 238.369629 -8.733656 634.695496
  endloop
 endfacet

 facet normal -0.289069 0.033434 0.956724
  outer loop
   vertex 238.369629 -8.733656 634.695496
   vertex 239.175339 -8.725728 634.938660
   vertex 239.160583 -8.488273 634.925903
  endloop
 endfacet

 facet normal -0.289095 0.033432 0.956716
  outer loop
   vertex 239.160583 -8.488273 634.925903
   vertex 239.175339 -8.725728 634.938660
   vertex 239.254944 -8.660908 634.960449
  endloop
 endfacet

 facet normal -0.288741 0.033645 0.956816
  outer loop
   vertex 239.254944 -8.660908 634.960449
   vertex 239.255051 -8.502040 634.954895
   vertex 239.160583 -8.488273 634.925903
  endloop
 endfacet

 facet normal 0.957306 0.009457 0.288923
  outer loop
   vertex 239.589996 -8.540937 633.846375
   vertex 239.255051 -8.502040 634.954895
   vertex 239.254944 -8.660908 634.960449
  endloop
 endfacet

 facet normal 0.141772 0.989866 0.008103
  outer loop
   vertex 239.160583 -8.488273 634.925903
   vertex 239.255051 -8.502040 634.954895
   vertex 239.589996 -8.540937 633.846375
  endloop
 endfacet

 facet normal 0.141776 0.989866 0.008105
  outer loop
   vertex 239.589996 -8.540937 633.846375
   vertex 239.495529 -8.527169 633.817322
   vertex 239.160583 -8.488273 634.925903
  endloop
 endfacet

 facet normal 0.957310 0.009421 0.288910
  outer loop
   vertex 239.160583 -8.488273 634.925903
   vertex 239.495529 -8.527169 633.817322
   vertex 239.496338 -7.340364 633.775940
  endloop
 endfacet

 facet normal -0.436575 -0.894033 -0.100537
  outer loop
   vertex 232.796249 -8.086417 653.141663
   vertex 232.326126 -7.839900 652.990967
   vertex 233.131195 -8.125315 652.033081
  endloop
 endfacet

 facet normal -0.436584 -0.894027 -0.100546
  outer loop
   vertex 233.131195 -8.125315 652.033081
   vertex 232.326126 -7.839900 652.990967
   vertex 232.661087 -7.878797 651.882385
  endloop
 endfacet

 facet normal 0.289072 -0.033581 -0.956718
  outer loop
   vertex 232.661087 -7.878797 651.882385
   vertex 232.661880 -6.719077 651.841919
   vertex 233.131195 -8.125315 652.033081
  endloop
 endfacet

 facet normal -0.957306 -0.009426 -0.288922
  outer loop
   vertex 232.326126 -7.839900 652.990967
   vertex 232.661880 -6.719077 651.841919
   vertex 232.661087 -7.878797 651.882385
  endloop
 endfacet

 facet normal -0.957310 -0.009413 -0.288910
  outer loop
   vertex 232.326935 -6.680180 652.950500
   vertex 232.661880 -6.719077 651.841919
   vertex 232.326126 -7.839900 652.990967
  endloop
 endfacet

 facet normal -0.289088 0.033584 0.956713
  outer loop
   vertex 232.326126 -7.839900 652.990967
   vertex 232.797394 -6.424407 653.083679
   vertex 232.326935 -6.680180 652.950500
  endloop
 endfacet

 facet normal -0.435358 0.885450 -0.162607
  outer loop
   vertex 232.326935 -6.680180 652.950500
   vertex 232.797394 -6.424407 653.083679
   vertex 232.661880 -6.719077 651.841919
  endloop
 endfacet

 facet normal -0.435359 0.885450 -0.162607
  outer loop
   vertex 232.661880 -6.719077 651.841919
   vertex 232.797394 -6.424407 653.083679
   vertex 233.132339 -6.463304 651.975098
  endloop
 endfacet

 facet normal 0.289084 -0.033576 -0.956715
  outer loop
   vertex 233.132339 -6.463304 651.975098
   vertex 233.131195 -8.125315 652.033081
   vertex 232.661880 -6.719077 651.841919
  endloop
 endfacet

 facet normal 0.289069 -0.033577 -0.956719
  outer loop
   vertex 233.922958 -6.693126 652.222046
   vertex 233.131195 -8.125315 652.033081
   vertex 233.132339 -6.463304 651.975098
  endloop
 endfacet

 facet normal 0.289041 -0.033560 -0.956728
  outer loop
   vertex 233.922134 -7.879931 652.263428
   vertex 233.131195 -8.125315 652.033081
   vertex 233.922958 -6.693126 652.222046
  endloop
 endfacet

 facet normal 0.957310 0.009409 0.288910
  outer loop
   vertex 233.922958 -6.693126 652.222046
   vertex 233.587189 -7.841034 653.372009
   vertex 233.922134 -7.879931 652.263428
  endloop
 endfacet

 facet normal 0.141751 0.989869 0.008096
  outer loop
   vertex 233.922134 -7.879931 652.263428
   vertex 233.587189 -7.841034 653.372009
   vertex 234.016617 -7.893699 652.292480
  endloop
 endfacet

 facet normal 0.141771 0.989866 0.008105
  outer loop
   vertex 234.016617 -7.893699 652.292480
   vertex 233.587189 -7.841034 653.372009
   vertex 233.681656 -7.854802 653.401062
  endloop
 endfacet

 facet normal 0.957306 0.009366 0.288924
  outer loop
   vertex 233.681656 -7.854802 653.401062
   vertex 234.016495 -8.052567 652.298035
   vertex 234.016617 -7.893699 652.292480
  endloop
 endfacet

 facet normal 0.957305 0.009347 0.288927
  outer loop
   vertex 233.681549 -8.013671 653.406555
   vertex 234.016495 -8.052567 652.298035
   vertex 233.681656 -7.854802 653.401062
  endloop
 endfacet

 facet normal 0.584041 -0.785662 0.204039
  outer loop
   vertex 233.601944 -8.078490 653.384827
   vertex 234.016495 -8.052567 652.298035
   vertex 233.681549 -8.013671 653.406555
  endloop
 endfacet

 facet normal -0.288627 0.033714 0.956848
  outer loop
   vertex 233.681549 -8.013671 653.406555
   vertex 233.587189 -7.841034 653.372009
   vertex 233.601944 -8.078490 653.384827
  endloop
 endfacet

 facet normal -0.289074 0.033679 0.956714
  outer loop
   vertex 233.601944 -8.078490 653.384827
   vertex 233.587189 -7.841034 653.372009
   vertex 232.796249 -8.086417 653.141663
  endloop
 endfacet

 facet normal -0.289041 0.033560 0.956728
  outer loop
   vertex 232.796249 -8.086417 653.141663
   vertex 233.587189 -7.841034 653.372009
   vertex 233.588013 -6.654229 653.330627
  endloop
 endfacet

 facet normal -0.289069 0.033577 0.956719
  outer loop
   vertex 233.588013 -6.654229 653.330627
   vertex 232.797394 -6.424407 653.083679
   vertex 232.796249 -8.086417 653.141663
  endloop
 endfacet

 facet normal -0.289074 0.033558 0.956718
  outer loop
   vertex 233.603088 -6.416479 653.326843
   vertex 232.797394 -6.424407 653.083679
   vertex 233.588013 -6.654229 653.330627
  endloop
 endfacet

 facet normal 0.000687 0.999392 -0.034858
  outer loop
   vertex 233.132339 -6.463304 651.975098
   vertex 232.797394 -6.424407 653.083679
   vertex 233.603088 -6.416479 653.326843
  endloop
 endfacet

 facet normal 0.000687 0.999392 -0.034859
  outer loop
   vertex 233.603088 -6.416479 653.326843
   vertex 233.938034 -6.455377 652.218262
   vertex 233.132339 -6.463304 651.975098
  endloop
 endfacet

 facet normal 0.289074 -0.033558 -0.956718
  outer loop
   vertex 233.132339 -6.463304 651.975098
   vertex 233.938034 -6.455377 652.218262
   vertex 233.922958 -6.693126 652.222046
  endloop
 endfacet

 facet normal 0.289039 -0.033556 -0.956729
  outer loop
   vertex 233.922958 -6.693126 652.222046
   vertex 233.938034 -6.455377 652.218262
   vertex 234.017563 -6.518631 652.244507
  endloop
 endfacet

 facet normal 0.289231 -0.033668 -0.956667
  outer loop
   vertex 234.017563 -6.518631 652.244507
   vertex 234.017441 -6.677499 652.250061
   vertex 233.922958 -6.693126 652.222046
  endloop
 endfacet

 facet normal 0.957310 0.009365 0.288912
  outer loop
   vertex 233.682495 -6.638602 653.358643
   vertex 234.017441 -6.677499 652.250061
   vertex 234.017563 -6.518631 652.244507
  endloop
 endfacet

 facet normal 0.140411 -0.987090 0.077058
  outer loop
   vertex 233.922958 -6.693126 652.222046
   vertex 234.017441 -6.677499 652.250061
   vertex 233.682495 -6.638602 653.358643
  endloop
 endfacet

 facet normal 0.140411 -0.987090 0.077058
  outer loop
   vertex 233.682495 -6.638602 653.358643
   vertex 233.588013 -6.654229 653.330627
   vertex 233.922958 -6.693126 652.222046
  endloop
 endfacet

 facet normal 0.957310 0.009409 0.288910
  outer loop
   vertex 233.922958 -6.693126 652.222046
   vertex 233.588013 -6.654229 653.330627
   vertex 233.587189 -7.841034 653.372009
  endloop
 endfacet

 facet normal 0.000683 0.999392 -0.034862
  outer loop
   vertex 238.212387 -7.750858 631.843506
   vertex 238.111206 -7.739109 632.178345
   vertex 238.471069 -7.750752 631.851624
  endloop
 endfacet

 facet normal 0.000687 0.999392 -0.034857
  outer loop
   vertex 238.471069 -7.750752 631.851624
   vertex 238.111206 -7.739109 632.178345
   vertex 238.550980 -7.738928 632.192200
  endloop
 endfacet

 facet normal 0.000692 0.999392 -0.034858
  outer loop
   vertex 238.550980 -7.738928 632.192200
   vertex 238.699173 -7.755172 631.729431
   vertex 238.471069 -7.750752 631.851624
  endloop
 endfacet

 facet normal 0.000687 0.999392 -0.034859
  outer loop
   vertex 238.938751 -7.746442 631.984436
   vertex 238.699173 -7.755172 631.729431
   vertex 238.550980 -7.738928 632.192200
  endloop
 endfacet

 facet normal 0.000685 0.999392 -0.034857
  outer loop
   vertex 238.835571 -7.762933 631.509583
   vertex 238.699173 -7.755172 631.729431
   vertex 238.938751 -7.746442 631.984436
  endloop
 endfacet

 facet normal 0.000688 0.999392 -0.034858
  outer loop
   vertex 238.938751 -7.746442 631.984436
   vertex 239.170624 -7.759636 631.610718
   vertex 238.835571 -7.762933 631.509583
  endloop
 endfacet

 facet normal 0.000690 0.999392 -0.034865
  outer loop
   vertex 238.835571 -7.762933 631.509583
   vertex 239.170624 -7.759636 631.610718
   vertex 238.843704 -7.771956 631.251099
  endloop
 endfacet

 facet normal 0.000682 0.999392 -0.034858
  outer loop
   vertex 238.843704 -7.771956 631.251099
   vertex 239.170624 -7.759636 631.610718
   vertex 239.184464 -7.774976 631.171204
  endloop
 endfacet

 facet normal 0.000683 0.999392 -0.034856
  outer loop
   vertex 239.184464 -7.774976 631.171204
   vertex 238.721405 -7.779824 631.023132
   vertex 238.843704 -7.771956 631.251099
  endloop
 endfacet

 facet normal 0.000684 0.999392 -0.034861
  outer loop
   vertex 238.976562 -7.788351 630.783691
   vertex 238.721405 -7.779824 631.023132
   vertex 239.184464 -7.774976 631.171204
  endloop
 endfacet

 facet normal 0.000689 0.999392 -0.034855
  outer loop
   vertex 238.501450 -7.784428 630.886780
   vertex 238.721405 -7.779824 631.023132
   vertex 238.976562 -7.788351 630.783691
  endloop
 endfacet

 facet normal 0.000688 0.999392 -0.034860
  outer loop
   vertex 238.976562 -7.788351 630.783691
   vertex 238.602615 -7.796177 630.551941
   vertex 238.501450 -7.784428 630.886780
  endloop
 endfacet

 facet normal 0.000683 0.999392 -0.034862
  outer loop
   vertex 238.501450 -7.784428 630.886780
   vertex 238.602615 -7.796177 630.551941
   vertex 238.242752 -7.784534 630.878662
  endloop
 endfacet

 facet normal 0.000687 0.999392 -0.034857
  outer loop
   vertex 238.242752 -7.784534 630.878662
   vertex 238.602615 -7.796177 630.551941
   vertex 237.645309 -7.805596 630.263000
  endloop
 endfacet

 facet normal 0.000690 0.999392 -0.034860
  outer loop
   vertex 237.645309 -7.805596 630.263000
   vertex 238.014648 -7.780114 631.000854
   vertex 238.242752 -7.784534 630.878662
  endloop
 endfacet

 facet normal 0.000685 0.999392 -0.034857
  outer loop
   vertex 237.878265 -7.772353 631.220703
   vertex 238.014648 -7.780114 631.000854
   vertex 237.645309 -7.805596 630.263000
  endloop
 endfacet

 facet normal -0.000691 -0.999392 0.034859
  outer loop
   vertex 231.441467 -7.464287 654.269348
   vertex 231.542633 -7.476036 653.934509
   vertex 231.661423 -7.459683 654.405701
  endloop
 endfacet

 facet normal -0.000687 -0.999392 0.034858
  outer loop
   vertex 231.661423 -7.459683 654.405701
   vertex 231.542633 -7.476036 653.934509
   vertex 231.916580 -7.468210 654.166260
  endloop
 endfacet

 facet normal -0.000686 -0.999392 0.034858
  outer loop
   vertex 231.916580 -7.468210 654.166260
   vertex 231.783722 -7.451816 654.633667
   vertex 231.661423 -7.459683 654.405701
  endloop
 endfacet

 facet normal -0.000682 -0.999392 0.034859
  outer loop
   vertex 232.124481 -7.454835 654.553772
   vertex 231.783722 -7.451816 654.633667
   vertex 231.916580 -7.468210 654.166260
  endloop
 endfacet

 facet normal -0.000681 -0.999392 0.034865
  outer loop
   vertex 231.775589 -7.442792 654.892151
   vertex 231.783722 -7.451816 654.633667
   vertex 232.124481 -7.454835 654.553772
  endloop
 endfacet

 facet normal -0.000688 -0.999392 0.034858
  outer loop
   vertex 232.124481 -7.454835 654.553772
   vertex 232.110641 -7.439496 654.993286
   vertex 231.775589 -7.442792 654.892151
  endloop
 endfacet

 facet normal -0.000687 -0.999392 0.034856
  outer loop
   vertex 231.775589 -7.442792 654.892151
   vertex 232.110641 -7.439496 654.993286
   vertex 231.639191 -7.435031 655.112000
  endloop
 endfacet

 facet normal -0.000687 -0.999392 0.034859
  outer loop
   vertex 231.639191 -7.435031 655.112000
   vertex 232.110641 -7.439496 654.993286
   vertex 231.878769 -7.426301 655.367004
  endloop
 endfacet

 facet normal -0.000690 -0.999392 0.034861
  outer loop
   vertex 231.878769 -7.426301 655.367004
   vertex 231.411087 -7.430611 655.234192
   vertex 231.639191 -7.435031 655.112000
  endloop
 endfacet

 facet normal -0.000688 -0.999392 0.034857
  outer loop
   vertex 231.490997 -7.418787 655.574768
   vertex 231.411087 -7.430611 655.234192
   vertex 231.878769 -7.426301 655.367004
  endloop
 endfacet

 facet normal -0.000683 -0.999392 0.034856
  outer loop
   vertex 231.152390 -7.430717 655.226074
   vertex 231.411087 -7.430611 655.234192
   vertex 231.490997 -7.418787 655.574768
  endloop
 endfacet

 facet normal -0.000689 -0.999392 0.034861
  outer loop
   vertex 231.490997 -7.418787 655.574768
   vertex 231.051224 -7.418968 655.560913
   vertex 231.152390 -7.430717 655.226074
  endloop
 endfacet

 facet normal -0.000686 -0.999392 0.034862
  outer loop
   vertex 231.152390 -7.430717 655.226074
   vertex 231.051224 -7.418968 655.560913
   vertex 230.932434 -7.435321 655.089783
  endloop
 endfacet

 facet normal -0.000687 -0.999392 0.034862
  outer loop
   vertex 230.932434 -7.435321 655.089783
   vertex 231.051224 -7.418968 655.560913
   vertex 230.093918 -7.428387 655.272034
  endloop
 endfacet

 facet normal -0.000687 -0.999392 0.034859
  outer loop
   vertex 230.093918 -7.428387 655.272034
   vertex 230.810135 -7.443188 654.861816
   vertex 230.932434 -7.435321 655.089783
  endloop
 endfacet

 facet normal -0.000687 -0.999392 0.034859
  outer loop
   vertex 230.818283 -7.452212 654.603271
   vertex 230.810135 -7.443188 654.861816
   vertex 230.093918 -7.428387 655.272034
  endloop
 endfacet

 facet normal -0.000687 -0.999392 0.034860
  outer loop
   vertex 237.644974 -8.305292 630.280457
   vertex 237.877914 -8.272049 631.238098
   vertex 237.153549 -8.248224 631.906860
  endloop
 endfacet

 facet normal -0.000687 -0.999392 0.034859
  outer loop
   vertex 237.153549 -8.248224 631.906860
   vertex 237.877914 -8.272049 631.238098
   vertex 237.869781 -8.263025 631.496643
  endloop
 endfacet

 facet normal -0.000688 -0.999392 0.034857
  outer loop
   vertex 237.869781 -8.263025 631.496643
   vertex 237.992081 -8.255158 631.724609
   vertex 237.153549 -8.248224 631.906860
  endloop
 endfacet

 facet normal -0.000690 -0.999392 0.034861
  outer loop
   vertex 231.182770 -7.464393 654.261230
   vertex 230.954666 -7.459973 654.383423
   vertex 230.585327 -7.485456 653.645569
  endloop
 endfacet

 facet normal -0.000682 -0.999392 0.034857
  outer loop
   vertex 230.585327 -7.485456 653.645569
   vertex 230.954666 -7.459973 654.383423
   vertex 230.818283 -7.452212 654.603271
  endloop
 endfacet

 facet normal -0.000688 -0.999392 0.034858
  outer loop
   vertex 230.818283 -7.452212 654.603271
   vertex 230.093918 -7.428387 655.272034
   vertex 230.585327 -7.485456 653.645569
  endloop
 endfacet

 facet normal 0.000686 0.999392 -0.034860
  outer loop
   vertex 230.094254 -6.928691 655.254578
   vertex 230.818619 -6.952516 654.585815
   vertex 230.585678 -6.985759 653.628174
  endloop
 endfacet

 facet normal 0.000694 0.999392 -0.034862
  outer loop
   vertex 230.585678 -6.985759 653.628174
   vertex 230.818619 -6.952516 654.585815
   vertex 230.955017 -6.960277 654.366028
  endloop
 endfacet

 facet normal 0.000683 0.999392 -0.034856
  outer loop
   vertex 230.955017 -6.960277 654.366028
   vertex 231.183121 -6.964697 654.243774
   vertex 230.585678 -6.985759 653.628174
  endloop
 endfacet

 facet normal 0.000687 0.999392 -0.034860
  outer loop
   vertex 237.992416 -7.755462 631.707214
   vertex 237.870117 -7.763330 631.479248
   vertex 237.153900 -7.748528 631.889465
  endloop
 endfacet

 facet normal 0.000688 0.999392 -0.034857
  outer loop
   vertex 237.153900 -7.748528 631.889465
   vertex 237.870117 -7.763330 631.479248
   vertex 237.878265 -7.772353 631.220703
  endloop
 endfacet

 facet normal 0.000688 0.999392 -0.034858
  outer loop
   vertex 237.878265 -7.772353 631.220703
   vertex 237.645309 -7.805596 630.263000
   vertex 237.153900 -7.748528 631.889465
  endloop
 endfacet

 facet normal 0.585078 0.797209 0.148803
  outer loop
   vertex 233.603088 -6.416479 653.326843
   vertex 233.682602 -6.479733 653.353088
   vertex 233.938034 -6.455377 652.218262
  endloop
 endfacet

 facet normal 0.585011 0.797260 0.148789
  outer loop
   vertex 233.938034 -6.455377 652.218262
   vertex 233.682602 -6.479733 653.353088
   vertex 234.017563 -6.518631 652.244507
  endloop
 endfacet

 facet normal -0.000686 -0.999392 0.034859
  outer loop
   vertex 238.678497 -8.677848 634.005493
   vertex 239.265839 -8.672069 634.182739
   vertex 233.007858 -8.019317 652.773499
  endloop
 endfacet

 facet normal -0.000686 -0.999392 0.034859
  outer loop
   vertex 233.007858 -8.019317 652.773499
   vertex 239.265839 -8.672069 634.182739
   vertex 233.595200 -8.013537 652.950745
  endloop
 endfacet

 facet normal 0.583959 -0.785731 0.204006
  outer loop
   vertex 239.254944 -8.660908 634.960449
   vertex 239.175339 -8.725728 634.938660
   vertex 239.589890 -8.699805 633.851868
  endloop
 endfacet

 facet normal 0.584046 -0.785657 0.204041
  outer loop
   vertex 239.589890 -8.699805 633.851868
   vertex 239.175339 -8.725728 634.938660
   vertex 239.510284 -8.764626 633.830139
  endloop
 endfacet

 facet normal 0.957314 0.009385 0.288898
  outer loop
   vertex 231.152740 -6.931021 655.208618
   vertex 231.051559 -6.919271 655.543518
   vertex 231.101974 -7.174994 655.384766
  endloop
 endfacet

 facet normal -0.289066 0.033577 0.956720
  outer loop
   vertex 232.796249 -8.086417 653.141663
   vertex 232.797394 -6.424407 653.083679
   vertex 232.326126 -7.839900 652.990967
  endloop
 endfacet

 facet normal -0.000685 -0.999392 0.034861
  outer loop
   vertex 231.542633 -7.476036 653.934509
   vertex 231.441467 -7.464287 654.269348
   vertex 231.182770 -7.464393 654.261230
  endloop
 endfacet

 facet normal -0.000690 -0.999392 0.034860
  outer loop
   vertex 238.212036 -8.250554 631.860962
   vertex 238.110870 -8.238805 632.195801
   vertex 237.992081 -8.255158 631.724609
  endloop
 endfacet

 facet normal -0.957312 -0.009414 -0.288905
  outer loop
   vertex 231.051559 -6.919271 655.543518
   vertex 231.152390 -7.430717 655.226074
   vertex 231.051224 -7.418968 655.560913
  endloop
 endfacet

 facet normal 0.000687 0.999392 -0.034859
  outer loop
   vertex 238.299026 -7.379451 633.672974
   vertex 238.775452 -7.434779 632.096130
   vertex 237.300186 -7.449295 631.650879
  endloop
 endfacet

 facet normal -0.000687 -0.999392 0.034859
  outer loop
   vertex 231.057037 -7.838624 652.350037
   vertex 232.532303 -7.824108 652.795288
   vertex 230.580612 -7.783296 653.926880
  endloop
 endfacet

 facet normal -0.957312 -0.009414 -0.288905
  outer loop
   vertex 238.602280 -8.295873 630.569336
   vertex 238.501450 -7.784428 630.886780
   vertex 238.602615 -7.796177 630.551941
  endloop
 endfacet

 facet normal 0.289185 -0.033641 -0.956682
  outer loop
   vertex 239.590942 -7.165869 633.798401
   vertex 239.590836 -7.324738 633.803955
   vertex 239.496338 -7.340364 633.775940
  endloop
 endfacet

 facet normal -0.957312 -0.009420 -0.288905
  outer loop
   vertex 231.441467 -7.464287 654.269348
   vertex 231.542984 -6.976340 653.917053
   vertex 231.542633 -7.476036 653.934509
  endloop
 endfacet

 facet normal 0.289084 -0.033576 -0.956715
  outer loop
   vertex 238.705719 -7.110543 633.528992
   vertex 238.704575 -8.772553 633.586975
   vertex 238.235260 -7.366316 633.395813
  endloop
 endfacet

 facet normal -0.289360 0.033272 0.956642
  outer loop
   vertex 233.681549 -8.013671 653.406555
   vertex 233.681656 -7.854802 653.401062
   vertex 233.587189 -7.841034 653.372009
  endloop
 endfacet

 facet normal 0.000687 0.999392 -0.034859
  outer loop
   vertex 232.533066 -6.709850 652.756409
   vertex 231.057816 -6.724366 652.311157
   vertex 230.581375 -6.669038 653.888000
  endloop
 endfacet

 facet normal -0.289042 0.033581 0.956727
  outer loop
   vertex 236.823761 -7.393967 633.227722
   vertex 236.822998 -8.508225 633.266602
   vertex 238.298264 -8.493709 633.711792
  endloop
 endfacet

 facet normal -0.957300 -0.009451 -0.288943
  outer loop
   vertex 238.212387 -7.750858 631.843506
   vertex 238.110870 -8.238805 632.195801
   vertex 238.111206 -7.739109 632.178345
  endloop
 endfacet

 facet normal 0.000685 0.999392 -0.034861
  outer loop
   vertex 238.111206 -7.739109 632.178345
   vertex 238.212387 -7.750858 631.843506
   vertex 237.992416 -7.755462 631.707214
  endloop
 endfacet

 facet normal 0.881316 -0.017031 -0.472220
  outer loop
   vertex 237.870117 -7.763330 631.479248
   vertex 237.992081 -8.255158 631.724609
   vertex 237.869781 -8.263025 631.496643
  endloop
 endfacet

 facet normal 0.999504 0.000425 0.031485
  outer loop
   vertex 237.870117 -7.763330 631.479248
   vertex 237.869781 -8.263025 631.496643
   vertex 237.878265 -7.772353 631.220703
  endloop
 endfacet

 facet normal 0.999506 0.000392 0.031427
  outer loop
   vertex 237.878265 -7.772353 631.220703
   vertex 237.869781 -8.263025 631.496643
   vertex 237.877914 -8.272049 631.238098
  endloop
 endfacet

 facet normal 0.849916 0.017735 0.526619
  outer loop
   vertex 237.877914 -8.272049 631.238098
   vertex 238.014648 -7.780114 631.000854
   vertex 237.878265 -7.772353 631.220703
  endloop
 endfacet

 facet normal 0.849824 0.017831 0.526764
  outer loop
   vertex 238.014313 -8.279810 631.018311
   vertex 238.014648 -7.780114 631.000854
   vertex 237.877914 -8.272049 631.238098
  endloop
 endfacet

 facet normal 0.472443 0.030453 0.880835
  outer loop
   vertex 238.242752 -7.784534 630.878662
   vertex 238.014648 -7.780114 631.000854
   vertex 238.014313 -8.279810 631.018311
  endloop
 endfacet

 facet normal 0.472626 0.030342 0.880741
  outer loop
   vertex 238.014313 -8.279810 631.018311
   vertex 238.242416 -8.284230 630.896057
   vertex 238.242752 -7.784534 630.878662
  endloop
 endfacet

 facet normal -0.031359 0.034794 0.998902
  outer loop
   vertex 238.242752 -7.784534 630.878662
   vertex 238.242416 -8.284230 630.896057
   vertex 238.501450 -7.784428 630.886780
  endloop
 endfacet

 facet normal 0.526904 -0.030042 -0.849394
  outer loop
   vertex 231.152740 -6.931021 655.208618
   vertex 231.152390 -7.430717 655.226074
   vertex 230.932770 -6.935625 655.072327
  endloop
 endfacet

 facet normal 0.526930 -0.030026 -0.849378
  outer loop
   vertex 230.932770 -6.935625 655.072327
   vertex 231.152390 -7.430717 655.226074
   vertex 230.932434 -7.435321 655.089783
  endloop
 endfacet

 facet normal 0.881341 -0.017087 -0.472172
  outer loop
   vertex 230.932434 -7.435321 655.089783
   vertex 230.810486 -6.943492 654.844360
   vertex 230.932770 -6.935625 655.072327
  endloop
 endfacet

 facet normal 0.881316 -0.017115 -0.472217
  outer loop
   vertex 230.810135 -7.443188 654.861816
   vertex 230.810486 -6.943492 654.844360
   vertex 230.932434 -7.435321 655.089783
  endloop
 endfacet

 facet normal 0.999506 0.000396 0.031427
  outer loop
   vertex 230.818619 -6.952516 654.585815
   vertex 230.810486 -6.943492 654.844360
   vertex 230.810135 -7.443188 654.861816
  endloop
 endfacet

 facet normal 0.999504 0.000428 0.031485
  outer loop
   vertex 230.810135 -7.443188 654.861816
   vertex 230.818283 -7.452212 654.603271
   vertex 230.818619 -6.952516 654.585815
  endloop
 endfacet

 facet normal 0.849824 0.017831 0.526764
  outer loop
   vertex 230.818619 -6.952516 654.585815
   vertex 230.818283 -7.452212 654.603271
   vertex 230.955017 -6.960277 654.366028
  endloop
 endfacet

 facet normal 0.849916 0.017735 0.526619
  outer loop
   vertex 230.955017 -6.960277 654.366028
   vertex 230.818283 -7.452212 654.603271
   vertex 230.954666 -7.459973 654.383423
  endloop
 endfacet

 facet normal 0.472626 0.030328 0.880741
  outer loop
   vertex 230.954666 -7.459973 654.383423
   vertex 231.183121 -6.964697 654.243774
   vertex 230.955017 -6.960277 654.366028
  endloop
 endfacet

 facet normal -0.031484 0.034916 0.998894
  outer loop
   vertex 238.111206 -7.739109 632.178345
   vertex 238.110870 -8.238805 632.195801
   vertex 238.550980 -7.738928 632.192200
  endloop
 endfacet

 facet normal -0.031484 0.034916 0.998894
  outer loop
   vertex 238.550980 -7.738928 632.192200
   vertex 238.110870 -8.238805 632.195801
   vertex 238.550644 -8.238625 632.209656
  endloop
 endfacet

 facet normal 0.472512 0.030452 0.880798
  outer loop
   vertex 238.550644 -8.238625 632.209656
   vertex 238.938751 -7.746442 631.984436
   vertex 238.550980 -7.738928 632.192200
  endloop
 endfacet

 facet normal 0.472619 0.030342 0.880744
  outer loop
   vertex 238.938416 -8.246139 632.001831
   vertex 238.938751 -7.746442 631.984436
   vertex 238.550644 -8.238625 632.209656
  endloop
 endfacet

 facet normal 0.849879 0.017763 0.526678
  outer loop
   vertex 239.170624 -7.759636 631.610718
   vertex 238.938751 -7.746442 631.984436
   vertex 238.938416 -8.246139 632.001831
  endloop
 endfacet

 facet normal 0.849841 0.017830 0.526738
  outer loop
   vertex 238.938416 -8.246139 632.001831
   vertex 239.170288 -8.259333 631.628174
   vertex 239.170624 -7.759636 631.610718
  endloop
 endfacet

 facet normal 0.999505 0.000427 0.031458
  outer loop
   vertex 239.170624 -7.759636 631.610718
   vertex 239.170288 -8.259333 631.628174
   vertex 239.184464 -7.774976 631.171204
  endloop
 endfacet

 facet normal 0.999505 0.000427 0.031458
  outer loop
   vertex 239.184464 -7.774976 631.171204
   vertex 239.170288 -8.259333 631.628174
   vertex 239.184128 -8.274673 631.188660
  endloop
 endfacet

 facet normal 0.881308 -0.017089 -0.472233
  outer loop
   vertex 239.184128 -8.274673 631.188660
   vertex 238.976562 -7.788351 630.783691
   vertex 239.184464 -7.774976 631.171204
  endloop
 endfacet

 facet normal 0.881324 -0.017057 -0.472204
  outer loop
   vertex 238.976212 -8.288047 630.801086
   vertex 238.976562 -7.788351 630.783691
   vertex 239.184128 -8.274673 631.188660
  endloop
 endfacet

 facet normal 0.526997 -0.029937 -0.849340
  outer loop
   vertex 238.602615 -7.796177 630.551941
   vertex 238.976562 -7.788351 630.783691
   vertex 238.976212 -8.288047 630.801086
  endloop
 endfacet

 facet normal 0.527013 -0.029920 -0.849330
  outer loop
   vertex 238.976212 -8.288047 630.801086
   vertex 238.602280 -8.295873 630.569336
   vertex 238.602615 -7.796177 630.551941
  endloop
 endfacet

 facet normal -0.031345 0.034794 0.998903
  outer loop
   vertex 231.051559 -6.919271 655.543518
   vertex 231.051224 -7.418968 655.560913
   vertex 231.491348 -6.919091 655.557312
  endloop
 endfacet

 facet normal -0.031484 0.034917 0.998894
  outer loop
   vertex 231.491348 -6.919091 655.557312
   vertex 231.051224 -7.418968 655.560913
   vertex 231.490997 -7.418787 655.574768
  endloop
 endfacet

 facet normal 0.472512 0.030437 0.880799
  outer loop
   vertex 231.490997 -7.418787 655.574768
   vertex 231.879120 -6.926605 655.349548
   vertex 231.491348 -6.919091 655.557312
  endloop
 endfacet

 facet normal 0.472512 0.030437 0.880799
  outer loop
   vertex 231.878769 -7.426301 655.367004
   vertex 231.879120 -6.926605 655.349548
   vertex 231.490997 -7.418787 655.574768
  endloop
 endfacet

 facet normal 0.849841 0.017804 0.526739
  outer loop
   vertex 232.110992 -6.939799 654.975891
   vertex 231.879120 -6.926605 655.349548
   vertex 231.878769 -7.426301 655.367004
  endloop
 endfacet

 facet normal 0.849879 0.017737 0.526679
  outer loop
   vertex 231.878769 -7.426301 655.367004
   vertex 232.110641 -7.439496 654.993286
   vertex 232.110992 -6.939799 654.975891
  endloop
 endfacet

 facet normal 0.999506 0.000392 0.031425
  outer loop
   vertex 232.110992 -6.939799 654.975891
   vertex 232.110641 -7.439496 654.993286
   vertex 232.124817 -6.955139 654.536377
  endloop
 endfacet

 facet normal 0.999505 0.000424 0.031458
  outer loop
   vertex 232.124817 -6.955139 654.536377
   vertex 232.110641 -7.439496 654.993286
   vertex 232.124481 -7.454835 654.553772
  endloop
 endfacet

 facet normal 0.881339 -0.017029 -0.472178
  outer loop
   vertex 232.124481 -7.454835 654.553772
   vertex 231.916916 -6.968513 654.148804
   vertex 232.124817 -6.955139 654.536377
  endloop
 endfacet

 facet normal 0.881308 -0.017089 -0.472233
  outer loop
   vertex 231.916580 -7.468210 654.166260
   vertex 231.916916 -6.968513 654.148804
   vertex 232.124481 -7.454835 654.553772
  endloop
 endfacet

 facet normal 0.527013 -0.030024 -0.849327
  outer loop
   vertex 231.542984 -6.976340 653.917053
   vertex 231.916916 -6.968513 654.148804
   vertex 231.916580 -7.468210 654.166260
  endloop
 endfacet

 facet normal 0.526997 -0.030040 -0.849336
  outer loop
   vertex 231.916580 -7.468210 654.166260
   vertex 231.542633 -7.476036 653.934509
   vertex 231.542984 -6.976340 653.917053
  endloop
 endfacet

 facet normal 0.472443 0.030439 0.880836
  outer loop
   vertex 230.954666 -7.459973 654.383423
   vertex 231.182770 -7.464393 654.261230
   vertex 231.183121 -6.964697 654.243774
  endloop
 endfacet

 facet normal -0.031359 0.034917 0.998898
  outer loop
   vertex 231.183121 -6.964697 654.243774
   vertex 231.182770 -7.464393 654.261230
   vertex 231.441467 -7.464287 654.269348
  endloop
 endfacet

 facet normal -0.031596 0.034794 0.998895
  outer loop
   vertex 231.441467 -7.464287 654.269348
   vertex 231.441803 -6.964591 654.251953
   vertex 231.183121 -6.964697 654.243774
  endloop
 endfacet

 facet normal -0.527101 0.029918 0.849276
  outer loop
   vertex 231.661423 -7.459683 654.405701
   vertex 231.441803 -6.964591 654.251953
   vertex 231.441467 -7.464287 654.269348
  endloop
 endfacet

 facet normal -0.526904 0.030042 0.849394
  outer loop
   vertex 231.661774 -6.959987 654.388245
   vertex 231.441803 -6.964591 654.251953
   vertex 231.661423 -7.459683 654.405701
  endloop
 endfacet

 facet normal -0.881316 0.017115 0.472217
  outer loop
   vertex 231.661423 -7.459683 654.405701
   vertex 231.783722 -7.451816 654.633667
   vertex 231.661774 -6.959987 654.388245
  endloop
 endfacet

 facet normal -0.881316 0.017115 0.472217
  outer loop
   vertex 231.661774 -6.959987 654.388245
   vertex 231.783722 -7.451816 654.633667
   vertex 231.784073 -6.952119 654.616211
  endloop
 endfacet

 facet normal -0.999506 -0.000396 -0.031435
  outer loop
   vertex 231.784073 -6.952119 654.616211
   vertex 231.783722 -7.451816 654.633667
   vertex 231.775589 -7.442792 654.892151
  endloop
 endfacet

 facet normal -0.999504 -0.000425 -0.031485
  outer loop
   vertex 231.775589 -7.442792 654.892151
   vertex 231.775925 -6.943096 654.874756
   vertex 231.784073 -6.952119 654.616211
  endloop
 endfacet

 facet normal -0.849890 -0.017763 -0.526661
  outer loop
   vertex 231.639191 -7.435031 655.112000
   vertex 231.775925 -6.943096 654.874756
   vertex 231.775589 -7.442792 654.892151
  endloop
 endfacet

 facet normal -0.849824 -0.017831 -0.526764
  outer loop
   vertex 231.639526 -6.935335 655.094543
   vertex 231.775925 -6.943096 654.874756
   vertex 231.639191 -7.435031 655.112000
  endloop
 endfacet

 facet normal -0.472443 -0.030453 -0.880835
  outer loop
   vertex 231.639191 -7.435031 655.112000
   vertex 231.411087 -7.430611 655.234192
   vertex 231.639526 -6.935335 655.094543
  endloop
 endfacet

 facet normal -0.472650 -0.030327 -0.880728
  outer loop
   vertex 231.639526 -6.935335 655.094543
   vertex 231.411087 -7.430611 655.234192
   vertex 231.411438 -6.930915 655.216797
  endloop
 endfacet

 facet normal 0.031359 -0.034795 -0.998902
  outer loop
   vertex 231.411438 -6.930915 655.216797
   vertex 231.411087 -7.430611 655.234192
   vertex 231.152390 -7.430717 655.226074
  endloop
 endfacet

 facet normal 0.031594 -0.034917 -0.998891
  outer loop
   vertex 231.152390 -7.430717 655.226074
   vertex 231.152740 -6.931021 655.208618
   vertex 231.411438 -6.930915 655.216797
  endloop
 endfacet

 facet normal 0.881316 -0.017031 -0.472220
  outer loop
   vertex 237.870117 -7.763330 631.479248
   vertex 237.992416 -7.755462 631.707214
   vertex 237.992081 -8.255158 631.724609
  endloop
 endfacet

 facet normal 0.526904 -0.029922 -0.849398
  outer loop
   vertex 237.992081 -8.255158 631.724609
   vertex 237.992416 -7.755462 631.707214
   vertex 238.212387 -7.750858 631.843506
  endloop
 endfacet

 facet normal 0.527101 -0.030038 -0.849272
  outer loop
   vertex 238.212387 -7.750858 631.843506
   vertex 238.212036 -8.250554 631.860962
   vertex 237.992081 -8.255158 631.724609
  endloop
 endfacet

 facet normal 0.031361 -0.034917 -0.998898
  outer loop
   vertex 238.471069 -7.750752 631.851624
   vertex 238.212036 -8.250554 631.860962
   vertex 238.212387 -7.750858 631.843506
  endloop
 endfacet

 facet normal 0.031359 -0.034916 -0.998898
  outer loop
   vertex 238.470734 -8.250448 631.869080
   vertex 238.212036 -8.250554 631.860962
   vertex 238.471069 -7.750752 631.851624
  endloop
 endfacet

 facet normal -0.472443 -0.030453 -0.880835
  outer loop
   vertex 238.471069 -7.750752 631.851624
   vertex 238.699173 -7.755172 631.729431
   vertex 238.470734 -8.250448 631.869080
  endloop
 endfacet

 facet normal -0.472443 -0.030453 -0.880835
  outer loop
   vertex 238.470734 -8.250448 631.869080
   vertex 238.699173 -7.755172 631.729431
   vertex 238.698837 -8.254868 631.746887
  endloop
 endfacet

 facet normal -0.849890 -0.017827 -0.526659
  outer loop
   vertex 238.698837 -8.254868 631.746887
   vertex 238.699173 -7.755172 631.729431
   vertex 238.835571 -7.762933 631.509583
  endloop
 endfacet

 facet normal -0.849916 -0.017800 -0.526617
  outer loop
   vertex 238.835571 -7.762933 631.509583
   vertex 238.835220 -8.262630 631.527039
   vertex 238.698837 -8.254868 631.746887
  endloop
 endfacet

 facet normal -0.999506 -0.000396 -0.031435
  outer loop
   vertex 238.843704 -7.771956 631.251099
   vertex 238.835220 -8.262630 631.527039
   vertex 238.835571 -7.762933 631.509583
  endloop
 endfacet

 facet normal -0.999504 -0.000425 -0.031485
  outer loop
   vertex 238.843369 -8.271652 631.268494
   vertex 238.835220 -8.262630 631.527039
   vertex 238.843704 -7.771956 631.251099
  endloop
 endfacet

 facet normal -0.881316 0.017031 0.472220
  outer loop
   vertex 238.843704 -7.771956 631.251099
   vertex 238.721405 -7.779824 631.023132
   vertex 238.843369 -8.271652 631.268494
  endloop
 endfacet

 facet normal -0.881316 0.017031 0.472220
  outer loop
   vertex 238.843369 -8.271652 631.268494
   vertex 238.721405 -7.779824 631.023132
   vertex 238.721069 -8.279520 631.040527
  endloop
 endfacet

 facet normal -0.527101 0.029918 0.849276
  outer loop
   vertex 238.721069 -8.279520 631.040527
   vertex 238.721405 -7.779824 631.023132
   vertex 238.501450 -7.784428 630.886780
  endloop
 endfacet

 facet normal -0.526904 0.030042 0.849394
  outer loop
   vertex 238.501450 -7.784428 630.886780
   vertex 238.501099 -8.284123 630.904236
   vertex 238.721069 -8.279520 631.040527
  endloop
 endfacet

 facet normal -0.031596 0.034917 0.998891
  outer loop
   vertex 238.242416 -8.284230 630.896057
   vertex 238.501099 -8.284123 630.904236
   vertex 238.501450 -7.784428 630.886780
  endloop
 endfacet

endsolid