solid stl file generated from DOUG
 facet normal -0.869015 0.466797 0.164054
  outer loop
   vertex 110.151962 22.115948 488.979919
   vertex 110.143799 21.936342 489.447723
   vertex 110.275879 22.318548 489.059845
  endloop
 endfacet

 facet normal -0.869025 0.466784 0.164038
  outer loop
   vertex 110.275879 22.318548 489.059845
   vertex 110.143799 21.936342 489.447723
   vertex 110.267715 22.138943 489.527679
  endloop
 endfacet

 facet normal -0.006284 0.933585 0.358301
  outer loop
   vertex 110.267715 22.138943 489.527679
   vertex 110.526428 22.318548 489.064240
   vertex 110.275879 22.318548 489.059845
  endloop
 endfacet

 facet normal -0.006241 0.933577 0.358322
  outer loop
   vertex 110.518257 22.138943 489.532043
   vertex 110.526428 22.318548 489.064240
   vertex 110.267715 22.138943 489.527679
  endloop
 endfacet

 facet normal 0.862772 0.466776 0.194281
  outer loop
   vertex 110.653061 22.115948 488.988647
   vertex 110.526428 22.318548 489.064240
   vertex 110.518257 22.138943 489.532043
  endloop
 endfacet

 facet normal 0.862760 0.466799 0.194277
  outer loop
   vertex 110.518257 22.138943 489.532043
   vertex 110.644890 21.936342 489.456482
   vertex 110.653061 22.115948 488.988647
  endloop
 endfacet

 facet normal 0.869015 -0.466805 -0.164032
  outer loop
   vertex 110.653061 22.115948 488.988647
   vertex 110.644890 21.936342 489.456482
   vertex 110.529144 21.913347 488.908722
  endloop
 endfacet

 facet normal 0.869023 -0.466789 -0.164035
  outer loop
   vertex 110.529144 21.913347 488.908722
   vertex 110.644890 21.936342 489.456482
   vertex 110.520973 21.733744 489.376526
  endloop
 endfacet

 facet normal 0.006285 -0.933578 -0.358318
  outer loop
   vertex 110.520973 21.733744 489.376526
   vertex 110.278595 21.913347 488.904327
   vertex 110.529144 21.913347 488.908722
  endloop
 endfacet

 facet normal 0.006241 -0.933586 -0.358299
  outer loop
   vertex 110.270432 21.733744 489.372162
   vertex 110.278595 21.913347 488.904327
   vertex 110.520973 21.733744 489.376526
  endloop
 endfacet

 facet normal -0.862772 -0.466786 -0.194256
  outer loop
   vertex 110.151962 22.115948 488.979919
   vertex 110.278595 21.913347 488.904327
   vertex 110.270432 21.733744 489.372162
  endloop
 endfacet

 facet normal -0.862758 -0.466803 -0.194277
  outer loop
   vertex 110.270432 21.733744 489.372162
   vertex 110.143799 21.936342 489.447723
   vertex 110.151962 22.115948 488.979919
  endloop
 endfacet

 facet normal 0.862760 0.466800 0.194276
  outer loop
   vertex 88.552963 21.936344 489.070831
   vertex 88.561127 22.115950 488.603027
   vertex 88.426331 22.138945 489.146393
  endloop
 endfacet

 facet normal 0.862758 0.466803 0.194275
  outer loop
   vertex 88.426331 22.138945 489.146393
   vertex 88.561127 22.115950 488.603027
   vertex 88.434494 22.318548 488.678589
  endloop
 endfacet

 facet normal -0.006241 0.933578 0.358319
  outer loop
   vertex 88.434494 22.318548 488.678589
   vertex 88.175781 22.138945 489.142029
   vertex 88.426331 22.138945 489.146393
  endloop
 endfacet

 facet normal -0.006241 0.933578 0.358319
  outer loop
   vertex 88.183945 22.318548 488.674225
   vertex 88.175781 22.138945 489.142029
   vertex 88.434494 22.318548 488.678589
  endloop
 endfacet

 facet normal -0.869025 0.466781 0.164046
  outer loop
   vertex 88.051865 21.936344 489.062073
   vertex 88.175781 22.138945 489.142029
   vertex 88.183945 22.318548 488.674225
  endloop
 endfacet

 facet normal -0.869023 0.466784 0.164049
  outer loop
   vertex 88.183945 22.318548 488.674225
   vertex 88.060028 22.115950 488.594269
   vertex 88.051865 21.936344 489.062073
  endloop
 endfacet

 facet normal -0.862760 -0.466800 -0.194276
  outer loop
   vertex 88.051865 21.936344 489.062073
   vertex 88.060028 22.115950 488.594269
   vertex 88.178497 21.733744 488.986511
  endloop
 endfacet

 facet normal -0.862760 -0.466800 -0.194276
  outer loop
   vertex 88.178497 21.733744 488.986511
   vertex 88.060028 22.115950 488.594269
   vertex 88.186661 21.913349 488.518707
  endloop
 endfacet

 facet normal 0.006241 -0.933577 -0.358322
  outer loop
   vertex 88.186661 21.913349 488.518707
   vertex 88.429047 21.733744 488.990875
   vertex 88.178497 21.733744 488.986511
  endloop
 endfacet

 facet normal 0.006241 -0.933577 -0.358322
  outer loop
   vertex 88.437210 21.913349 488.523071
   vertex 88.429047 21.733744 488.990875
   vertex 88.186661 21.913349 488.518707
  endloop
 endfacet

 facet normal 0.869025 -0.466781 -0.164048
  outer loop
   vertex 88.552963 21.936344 489.070831
   vertex 88.429047 21.733744 488.990875
   vertex 88.437210 21.913349 488.523071
  endloop
 endfacet

 facet normal 0.869025 -0.466781 -0.164048
  outer loop
   vertex 88.437210 21.913349 488.523071
   vertex 88.561127 22.115950 488.603027
   vertex 88.552963 21.936344 489.070831
  endloop
 endfacet

 facet normal 0.016258 0.358431 -0.933415
  outer loop
   vertex 88.183945 22.318548 488.674225
   vertex 88.434494 22.318548 488.678589
   vertex 88.310577 22.115950 488.598633
  endloop
 endfacet

 facet normal 0.016372 0.358369 -0.933436
  outer loop
   vertex 88.310577 22.115950 488.598633
   vertex 88.434494 22.318548 488.678589
   vertex 88.561127 22.115950 488.603027
  endloop
 endfacet

 facet normal 0.016372 0.358366 -0.933437
  outer loop
   vertex 88.561127 22.115950 488.603027
   vertex 88.437210 21.913349 488.523071
   vertex 88.310577 22.115950 488.598633
  endloop
 endfacet

 facet normal 0.016258 0.358428 -0.933416
  outer loop
   vertex 110.278595 21.913347 488.904327
   vertex 110.151962 22.115948 488.979919
   vertex 110.402512 22.115948 488.984283
  endloop
 endfacet

 facet normal 0.016259 0.358305 -0.933463
  outer loop
   vertex 110.402512 22.115948 488.984283
   vertex 110.151962 22.115948 488.979919
   vertex 110.275879 22.318548 489.059845
  endloop
 endfacet

 facet normal 0.016372 0.358366 -0.933437
  outer loop
   vertex 110.275879 22.318548 489.059845
   vertex 110.526428 22.318548 489.064240
   vertex 110.402512 22.115948 488.984283
  endloop
 endfacet

 facet normal 0.016258 0.358428 -0.933416
  outer loop
   vertex 110.526428 22.318548 489.064240
   vertex 110.653061 22.115948 488.988647
   vertex 110.402512 22.115948 488.984283
  endloop
 endfacet

 facet normal 0.016259 0.358305 -0.933463
  outer loop
   vertex 110.402512 22.115948 488.984283
   vertex 110.653061 22.115948 488.988647
   vertex 110.529144 21.913347 488.908722
  endloop
 endfacet

 facet normal 0.016372 0.358366 -0.933437
  outer loop
   vertex 110.529144 21.913347 488.908722
   vertex 110.278595 21.913347 488.904327
   vertex 110.402512 22.115948 488.984283
  endloop
 endfacet

 facet normal 0.016259 0.358305 -0.933463
  outer loop
   vertex 88.437210 21.913349 488.523071
   vertex 88.186661 21.913349 488.518707
   vertex 88.310577 22.115950 488.598633
  endloop
 endfacet

 facet normal 0.016259 0.358305 -0.933463
  outer loop
   vertex 88.310577 22.115950 488.598633
   vertex 88.186661 21.913349 488.518707
   vertex 88.060028 22.115950 488.594269
  endloop
 endfacet

 facet normal 0.016258 0.358431 -0.933415
  outer loop
   vertex 88.060028 22.115950 488.594269
   vertex 88.183945 22.318548 488.674225
   vertex 88.310577 22.115950 488.598633
  endloop
 endfacet

 facet normal 0.016296 0.358371 -0.933437
  outer loop
   vertex 108.916885 20.803165 490.634216
   vertex 108.909065 21.970325 491.082184
   vertex 111.907829 20.803165 490.686432
  endloop
 endfacet

 facet normal 0.016296 0.358371 -0.933437
  outer loop
   vertex 111.907829 20.803165 490.686432
   vertex 108.909065 21.970325 491.082184
   vertex 111.900017 21.970325 491.134399
  endloop
 endfacet

 facet normal 0.999848 -0.000004 0.017448
  outer loop
   vertex 111.900017 21.970325 491.134399
   vertex 111.885208 20.305540 491.982574
   vertex 111.907829 20.803165 490.686432
  endloop
 endfacet

 facet normal 0.999848 -0.000001 0.017456
  outer loop
   vertex 111.877388 21.472700 492.430542
   vertex 111.885208 20.305540 491.982574
   vertex 111.900017 21.970325 491.134399
  endloop
 endfacet

 facet normal -0.016286 -0.358371 0.933437
  outer loop
   vertex 108.886444 21.472700 492.378357
   vertex 111.885208 20.305540 491.982574
   vertex 111.877388 21.472700 492.430542
  endloop
 endfacet

 facet normal -0.006252 0.933582 0.358310
  outer loop
   vertex 111.877388 21.472700 492.430542
   vertex 108.909065 21.970325 491.082184
   vertex 108.886444 21.472700 492.378357
  endloop
 endfacet

 facet normal -0.999848 -0.000002 -0.017450
  outer loop
   vertex 108.886444 21.472700 492.378357
   vertex 108.909065 21.970325 491.082184
   vertex 108.894264 20.305540 491.930389
  endloop
 endfacet

 facet normal -0.999848 -0.000002 -0.017450
  outer loop
   vertex 108.894264 20.305540 491.930389
   vertex 108.909065 21.970325 491.082184
   vertex 108.916885 20.803165 490.634216
  endloop
 endfacet

 facet normal 0.006252 -0.933582 -0.358310
  outer loop
   vertex 108.916885 20.803165 490.634216
   vertex 111.885208 20.305540 491.982574
   vertex 108.894264 20.305540 491.930389
  endloop
 endfacet

 facet normal 0.006255 -0.933579 -0.358318
  outer loop
   vertex 111.907829 20.803165 490.686432
   vertex 111.885208 20.305540 491.982574
   vertex 108.916885 20.803165 490.634216
  endloop
 endfacet

 facet normal -0.999848 0.000001 -0.017456
  outer loop
   vertex 86.724136 20.305542 491.543365
   vertex 86.716316 21.472702 491.991333
   vertex 86.746765 20.803167 490.247223
  endloop
 endfacet

 facet normal -0.999848 0.000001 -0.017456
  outer loop
   vertex 86.746765 20.803167 490.247223
   vertex 86.716316 21.472702 491.991333
   vertex 86.738945 21.970327 490.695190
  endloop
 endfacet

 facet normal 0.016296 0.358371 -0.933437
  outer loop
   vertex 86.738945 21.970327 490.695190
   vertex 89.737709 20.803167 490.299438
   vertex 86.746765 20.803167 490.247223
  endloop
 endfacet

 facet normal 0.016296 0.358371 -0.933437
  outer loop
   vertex 89.729889 21.970327 490.747406
   vertex 89.737709 20.803167 490.299438
   vertex 86.738945 21.970327 490.695190
  endloop
 endfacet

 facet normal 0.999848 -0.000001 0.017456
  outer loop
   vertex 89.707260 21.472702 492.043549
   vertex 89.737709 20.803167 490.299438
   vertex 89.729889 21.970327 490.747406
  endloop
 endfacet

 facet normal -0.006255 0.933579 0.358318
  outer loop
   vertex 89.729889 21.970327 490.747406
   vertex 86.716316 21.472702 491.991333
   vertex 89.707260 21.472702 492.043549
  endloop
 endfacet

 facet normal -0.016296 -0.358371 0.933437
  outer loop
   vertex 89.707260 21.472702 492.043549
   vertex 86.716316 21.472702 491.991333
   vertex 89.715080 20.305542 491.595581
  endloop
 endfacet

 facet normal -0.016296 -0.358371 0.933437
  outer loop
   vertex 89.715080 20.305542 491.595581
   vertex 86.716316 21.472702 491.991333
   vertex 86.724136 20.305542 491.543365
  endloop
 endfacet

 facet normal 0.006255 -0.933579 -0.358318
  outer loop
   vertex 86.724136 20.305542 491.543365
   vertex 89.737709 20.803167 490.299438
   vertex 89.715080 20.305542 491.595581
  endloop
 endfacet

 facet normal 0.006255 -0.933579 -0.358318
  outer loop
   vertex 86.746765 20.803167 490.247223
   vertex 89.737709 20.803167 490.299438
   vertex 86.724136 20.305542 491.543365
  endloop
 endfacet

 facet normal -0.006255 0.933579 0.358318
  outer loop
   vertex 89.729889 21.970327 490.747406
   vertex 86.738945 21.970327 490.695190
   vertex 86.716316 21.472702 491.991333
  endloop
 endfacet

 facet normal -0.006255 0.933579 0.358318
  outer loop
   vertex 111.900017 21.970325 491.134399
   vertex 108.909065 21.970325 491.082184
   vertex 111.877388 21.472700 492.430542
  endloop
 endfacet

 facet normal 0.999848 -0.000001 0.017456
  outer loop
   vertex 89.707260 21.472702 492.043549
   vertex 89.715080 20.305542 491.595581
   vertex 89.737709 20.803167 490.299438
  endloop
 endfacet

 facet normal -0.016286 -0.358371 0.933437
  outer loop
   vertex 108.886444 21.472700 492.378357
   vertex 108.894264 20.305540 491.930389
   vertex 111.885208 20.305540 491.982574
  endloop
 endfacet

 facet normal 0.016294 0.358375 -0.933436
  outer loop
   vertex 109.180435 21.646524 487.995239
   vertex 89.565742 21.748856 487.692139
   vertex 109.179749 21.748856 488.034515
  endloop
 endfacet

 facet normal 0.004643 0.963968 -0.265979
  outer loop
   vertex 109.179749 21.748856 488.034515
   vertex 89.565742 21.748856 487.692139
   vertex 109.177307 21.787500 488.174530
  endloop
 endfacet

 facet normal 0.004991 0.958159 -0.286193
  outer loop
   vertex 90.305138 23.117041 488.166931
   vertex 89.144844 23.147076 488.247253
   vertex 90.303383 23.147076 488.267456
  endloop
 endfacet

 facet normal -0.006248 0.933581 0.358311
  outer loop
   vertex 90.303383 23.147076 488.267456
   vertex 89.144844 23.147076 488.247253
   vertex 89.131126 22.845463 489.032867
  endloop
 endfacet

 facet normal 0.006248 -0.933581 -0.358311
  outer loop
   vertex 109.577705 21.292898 488.793701
   vertex 108.432884 21.594511 487.987885
   vertex 109.591423 21.594511 488.008087
  endloop
 endfacet

 facet normal 0.014886 -0.520589 -0.853677
  outer loop
   vertex 109.591423 21.594511 488.008087
   vertex 108.432884 21.594511 487.987885
   vertex 108.433838 21.684116 487.933258
  endloop
 endfacet

 facet normal 0.014708 -0.538456 -0.842525
  outer loop
   vertex 89.555923 22.887474 488.254333
   vertex 89.557289 23.009897 488.176117
   vertex 109.171303 23.009897 488.518524
  endloop
 endfacet

 facet normal 0.016295 0.358375 -0.933436
  outer loop
   vertex 109.171303 23.009897 488.518524
   vertex 89.557289 23.009897 488.176117
   vertex 109.170616 23.112228 488.557800
  endloop
 endfacet

 facet normal 0.017455 -0.000850 -0.999847
  outer loop
   vertex 89.553688 21.402328 488.382416
   vertex 109.167702 21.402328 488.724823
   vertex 89.553688 21.366419 488.382446
  endloop
 endfacet

 facet normal 0.017453 -0.000000 -0.999848
  outer loop
   vertex 89.553688 21.366419 488.382446
   vertex 109.167702 21.402328 488.724823
   vertex 109.167702 21.366417 488.724823
  endloop
 endfacet

 facet normal 0.006254 -0.933584 -0.358305
  outer loop
   vertex 109.167702 21.366417 488.724823
   vertex 89.552536 21.341112 488.448364
   vertex 89.553688 21.366419 488.382446
  endloop
 endfacet

 facet normal -0.999848 0.000004 -0.017448
  outer loop
   vertex 89.155243 21.594513 487.651367
   vertex 89.153503 21.810884 487.751099
   vertex 89.156197 21.684116 487.596741
  endloop
 endfacet

 facet normal -0.999848 0.000022 -0.017463
  outer loop
   vertex 89.156197 21.684116 487.596741
   vertex 89.153503 21.810884 487.751099
   vertex 89.155205 21.832523 487.653717
  endloop
 endfacet

 facet normal 0.016301 0.358460 -0.933403
  outer loop
   vertex 89.155205 21.832523 487.653717
   vertex 90.314735 21.684116 487.616974
   vertex 89.156197 21.684116 487.596741
  endloop
 endfacet

 facet normal 0.999848 -0.000024 0.017460
  outer loop
   vertex 109.581024 23.147076 488.603973
   vertex 109.582253 22.919535 488.533325
   vertex 109.582779 23.117039 488.503448
  endloop
 endfacet

 facet normal 0.999847 -0.000023 0.017465
  outer loop
   vertex 109.582779 23.117039 488.503448
   vertex 109.582253 22.919535 488.533325
   vertex 109.583771 22.968634 488.446472
  endloop
 endfacet

 facet normal 0.016301 0.358464 -0.933401
  outer loop
   vertex 109.583771 22.968634 488.446472
   vertex 108.424240 23.117039 488.483215
   vertex 109.582779 23.117039 488.503448
  endloop
 endfacet

 facet normal 0.999847 -0.000020 0.017467
  outer loop
   vertex 90.306129 22.968634 488.109985
   vertex 90.305138 23.117041 488.166931
   vertex 90.304611 22.919537 488.196838
  endloop
 endfacet

 facet normal 0.999848 -0.000021 0.017460
  outer loop
   vertex 90.304611 22.919537 488.196838
   vertex 90.305138 23.117041 488.166931
   vertex 90.303383 23.147076 488.267456
  endloop
 endfacet

 facet normal 0.999848 -0.000019 0.017451
  outer loop
   vertex 90.303383 23.147076 488.267456
   vertex 90.289665 22.845463 489.053070
   vertex 90.304611 22.919537 488.196838
  endloop
 endfacet

 facet normal -0.006248 0.933581 0.358311
  outer loop
   vertex 89.131126 22.845463 489.032867
   vertex 90.289665 22.845463 489.053070
   vertex 90.303383 23.147076 488.267456
  endloop
 endfacet

 facet normal 0.014709 -0.538301 -0.842624
  outer loop
   vertex 109.171303 23.009897 488.518524
   vertex 109.169937 22.887472 488.596710
   vertex 89.555923 22.887474 488.254333
  endloop
 endfacet

 facet normal 0.016294 0.358372 -0.933437
  outer loop
   vertex 89.555923 22.887474 488.254333
   vertex 109.169937 22.887472 488.596710
   vertex 109.177307 21.787500 488.174530
  endloop
 endfacet

 facet normal 0.016294 0.358371 -0.933437
  outer loop
   vertex 109.177307 21.787500 488.174530
   vertex 89.563293 21.787500 487.832153
   vertex 89.555923 22.887474 488.254333
  endloop
 endfacet

 facet normal 0.004643 0.963968 -0.265979
  outer loop
   vertex 89.565742 21.748856 487.692139
   vertex 89.563293 21.787500 487.832153
   vertex 109.177307 21.787500 488.174530
  endloop
 endfacet

 facet normal 0.006248 -0.933581 -0.358311
  outer loop
   vertex 109.577705 21.292898 488.793701
   vertex 108.419167 21.292898 488.773499
   vertex 108.432884 21.594511 487.987885
  endloop
 endfacet

 facet normal -0.999848 0.000008 -0.017456
  outer loop
   vertex 108.432884 21.594511 487.987885
   vertex 108.419167 21.292898 488.773499
   vertex 108.431145 21.810884 488.087616
  endloop
 endfacet

 facet normal -0.999848 0.000004 -0.017448
  outer loop
   vertex 108.431145 21.810884 488.087616
   vertex 108.433838 21.684116 487.933258
   vertex 108.432884 21.594511 487.987885
  endloop
 endfacet

 facet normal -0.999848 0.000017 -0.017459
  outer loop
   vertex 108.432846 21.832523 487.990204
   vertex 108.433838 21.684116 487.933258
   vertex 108.431145 21.810884 488.087616
  endloop
 endfacet

 facet normal -0.012964 -0.669599 0.742610
  outer loop
   vertex 109.177696 21.622198 488.152130
   vertex 89.563690 21.622200 487.809723
   vertex 109.178116 21.595520 488.128082
  endloop
 endfacet

 facet normal -0.012970 -0.669130 0.743032
  outer loop
   vertex 109.178116 21.595520 488.128082
   vertex 89.563690 21.622200 487.809723
   vertex 89.564110 21.595522 487.785706
  endloop
 endfacet

 facet normal 0.006255 -0.933573 -0.358332
  outer loop
   vertex 89.564110 21.595522 487.785706
   vertex 109.180435 21.646524 487.995239
   vertex 109.178116 21.595520 488.128082
  endloop
 endfacet

 facet normal 0.006255 -0.933578 -0.358320
  outer loop
   vertex 89.566429 21.646524 487.652863
   vertex 109.180435 21.646524 487.995239
   vertex 89.564110 21.595522 487.785706
  endloop
 endfacet

 facet normal 0.016294 0.358375 -0.933436
  outer loop
   vertex 89.565742 21.748856 487.692139
   vertex 109.180435 21.646524 487.995239
   vertex 89.566429 21.646524 487.652863
  endloop
 endfacet

 facet normal 0.016284 0.358375 -0.933436
  outer loop
   vertex 110.971962 21.423210 489.243317
   vertex 109.317078 22.464092 489.614075
   vertex 110.964989 22.464092 489.642822
  endloop
 endfacet

 facet normal -0.006251 0.933580 0.358314
  outer loop
   vertex 110.964989 22.464092 489.642822
   vertex 109.317078 22.464092 489.614075
   vertex 110.939880 21.911827 491.081299
  endloop
 endfacet

 facet normal 0.999848 -0.000000 0.017452
  outer loop
   vertex 110.939880 21.911827 491.081299
   vertex 110.946854 20.870945 490.681793
   vertex 110.964989 22.464092 489.642822
  endloop
 endfacet

 facet normal -0.016284 -0.358375 0.933436
  outer loop
   vertex 109.291969 21.911827 491.052551
   vertex 110.946854 20.870945 490.681793
   vertex 110.939880 21.911827 491.081299
  endloop
 endfacet

 facet normal -0.016284 -0.358375 0.933436
  outer loop
   vertex 109.298943 20.870945 490.653046
   vertex 110.946854 20.870945 490.681793
   vertex 109.291969 21.911827 491.052551
  endloop
 endfacet

 facet normal -0.999848 0.000000 -0.017452
  outer loop
   vertex 109.291969 21.911827 491.052551
   vertex 109.317078 22.464092 489.614075
   vertex 109.298943 20.870945 490.653046
  endloop
 endfacet

 facet normal -0.999848 0.000000 -0.017452
  outer loop
   vertex 109.298943 20.870945 490.653046
   vertex 109.317078 22.464092 489.614075
   vertex 109.324051 21.423210 489.214569
  endloop
 endfacet

 facet normal 0.016284 0.358375 -0.933436
  outer loop
   vertex 109.324051 21.423210 489.214569
   vertex 109.317078 22.464092 489.614075
   vertex 110.971962 21.423210 489.243317
  endloop
 endfacet

 facet normal 0.006251 -0.933580 -0.358314
  outer loop
   vertex 110.971962 21.423210 489.243317
   vertex 110.946854 20.870945 490.681793
   vertex 109.324051 21.423210 489.214569
  endloop
 endfacet

 facet normal 0.999848 -0.000000 0.017452
  outer loop
   vertex 110.964989 22.464092 489.642822
   vertex 110.946854 20.870945 490.681793
   vertex 110.971962 21.423210 489.243317
  endloop
 endfacet

 facet normal 0.006257 -0.933580 -0.358314
  outer loop
   vertex 87.732430 21.423212 488.837646
   vertex 89.380341 21.423212 488.866425
   vertex 87.707321 20.870947 490.276123
  endloop
 endfacet

 facet normal 0.006257 -0.933580 -0.358314
  outer loop
   vertex 87.707321 20.870947 490.276123
   vertex 89.380341 21.423212 488.866425
   vertex 89.355232 20.870947 490.304901
  endloop
 endfacet

 facet normal -0.016301 -0.358375 0.933435
  outer loop
   vertex 89.355232 20.870947 490.304901
   vertex 87.700348 21.911829 490.675629
   vertex 87.707321 20.870947 490.276123
  endloop
 endfacet

 facet normal -0.016301 -0.358375 0.933435
  outer loop
   vertex 89.348259 21.911829 490.704407
   vertex 87.700348 21.911829 490.675629
   vertex 89.355232 20.870947 490.304901
  endloop
 endfacet

 facet normal -0.006257 0.933580 0.358314
  outer loop
   vertex 89.373367 22.464094 489.265930
   vertex 87.700348 21.911829 490.675629
   vertex 89.348259 21.911829 490.704407
  endloop
 endfacet

 facet normal 0.999848 -0.000000 0.017452
  outer loop
   vertex 89.348259 21.911829 490.704407
   vertex 89.380341 21.423212 488.866425
   vertex 89.373367 22.464094 489.265930
  endloop
 endfacet

 facet normal 0.016301 0.358375 -0.933435
  outer loop
   vertex 89.373367 22.464094 489.265930
   vertex 89.380341 21.423212 488.866425
   vertex 87.725456 22.464094 489.237152
  endloop
 endfacet

 facet normal 0.016301 0.358375 -0.933435
  outer loop
   vertex 87.725456 22.464094 489.237152
   vertex 89.380341 21.423212 488.866425
   vertex 87.732430 21.423212 488.837646
  endloop
 endfacet

 facet normal -0.999848 0.000000 -0.017452
  outer loop
   vertex 87.732430 21.423212 488.837646
   vertex 87.700348 21.911829 490.675629
   vertex 87.725456 22.464094 489.237152
  endloop
 endfacet

 facet normal -0.999848 0.000000 -0.017452
  outer loop
   vertex 87.707321 20.870947 490.276123
   vertex 87.700348 21.911829 490.675629
   vertex 87.732430 21.423212 488.837646
  endloop
 endfacet

 facet normal -0.016280 -0.358389 0.933430
  outer loop
   vertex 112.396202 21.956650 490.131836
   vertex 112.046257 21.956650 490.125732
   vertex 112.049377 21.489861 489.946564
  endloop
 endfacet

 facet normal 0.016361 0.358389 -0.933429
  outer loop
   vertex 112.049377 21.489861 489.946564
   vertex 112.046257 21.956650 490.125732
   vertex 112.222794 21.723255 490.039215
  endloop
 endfacet

 facet normal 0.016361 0.358389 -0.933429
  outer loop
   vertex 112.222794 21.723255 490.039215
   vertex 112.399330 21.489861 489.952698
   vertex 112.049377 21.489861 489.946564
  endloop
 endfacet

 facet normal 0.016281 0.358336 -0.933451
  outer loop
   vertex 112.396202 21.956650 490.131836
   vertex 112.399330 21.489861 489.952698
   vertex 112.222794 21.723255 490.039215
  endloop
 endfacet

 facet normal 0.999848 0.000001 0.017456
  outer loop
   vertex 112.383034 21.131491 490.886139
   vertex 112.399330 21.489861 489.952698
   vertex 112.396202 21.956650 490.131836
  endloop
 endfacet

 facet normal 0.999848 0.000001 0.017456
  outer loop
   vertex 112.396202 21.956650 490.131836
   vertex 112.379906 21.598282 491.065277
   vertex 112.383034 21.131491 490.886139
  endloop
 endfacet

 facet normal -0.016307 -0.358335 0.933451
  outer loop
   vertex 112.383034 21.131491 490.886139
   vertex 112.379906 21.598282 491.065277
   vertex 110.683289 21.131491 490.856445
  endloop
 endfacet

 facet normal -0.016290 -0.358388 0.933431
  outer loop
   vertex 110.683289 21.131491 490.856445
   vertex 112.379906 21.598282 491.065277
   vertex 110.680168 21.598282 491.035614
  endloop
 endfacet

 facet normal -0.999848 0.000011 -0.017443
  outer loop
   vertex 110.680168 21.598282 491.035614
   vertex 110.696457 21.956652 490.102173
   vertex 110.683289 21.131491 490.856445
  endloop
 endfacet

 facet normal -0.006246 0.933580 0.358314
  outer loop
   vertex 111.109306 21.867058 490.342804
   vertex 110.696457 21.956652 490.102173
   vertex 110.680168 21.598282 491.035614
  endloop
 endfacet

 facet normal -0.006249 0.933578 0.358320
  outer loop
   vertex 111.046410 21.956652 490.108276
   vertex 110.696457 21.956652 490.102173
   vertex 111.109306 21.867058 490.342804
  endloop
 endfacet

 facet normal 0.006261 -0.933580 -0.358314
  outer loop
   vertex 87.559921 21.400270 489.752502
   vertex 87.980919 21.489862 489.526428
   vertex 87.964622 21.131493 490.459869
  endloop
 endfacet

 facet normal 0.999848 -0.000014 0.017450
  outer loop
   vertex 87.964622 21.131493 490.459869
   vertex 87.980919 21.489862 489.526428
   vertex 87.961502 21.598284 490.639038
  endloop
 endfacet

 facet normal -0.016290 -0.358388 0.933431
  outer loop
   vertex 87.961502 21.598284 490.639038
   vertex 86.264885 21.131493 490.430206
   vertex 87.964622 21.131493 490.459869
  endloop
 endfacet

 facet normal -0.016307 -0.358335 0.933451
  outer loop
   vertex 86.261757 21.598284 490.609344
   vertex 86.264885 21.131493 490.430206
   vertex 87.961502 21.598284 490.639038
  endloop
 endfacet

 facet normal -0.999848 -0.000001 -0.017456
  outer loop
   vertex 86.281181 21.489862 489.496765
   vertex 86.264885 21.131493 490.430206
   vertex 86.261757 21.598284 490.609344
  endloop
 endfacet

 facet normal -0.999848 0.000000 -0.017456
  outer loop
   vertex 86.261757 21.598284 490.609344
   vertex 86.278053 21.956652 489.675934
   vertex 86.281181 21.489862 489.496765
  endloop
 endfacet

 facet normal 0.016199 0.358390 -0.933432
  outer loop
   vertex 86.281181 21.489862 489.496765
   vertex 86.278053 21.956652 489.675934
   vertex 86.454590 21.723257 489.589386
  endloop
 endfacet

 facet normal 0.016280 0.358443 -0.933410
  outer loop
   vertex 86.454590 21.723257 489.589386
   vertex 86.278053 21.956652 489.675934
   vertex 86.627998 21.956652 489.682037
  endloop
 endfacet

 facet normal 0.016362 0.358390 -0.933429
  outer loop
   vertex 86.627998 21.956652 489.682037
   vertex 86.631126 21.489862 489.502869
   vertex 86.454590 21.723257 489.589386
  endloop
 endfacet

 facet normal -0.016280 -0.358390 0.933430
  outer loop
   vertex 86.281181 21.489862 489.496765
   vertex 86.631126 21.489862 489.502869
   vertex 86.627998 21.956652 489.682037
  endloop
 endfacet

 facet normal 0.016281 0.358336 -0.933451
  outer loop
   vertex 86.454590 21.723257 489.589386
   vertex 86.631126 21.489862 489.502869
   vertex 86.281181 21.489862 489.496765
  endloop
 endfacet

 facet normal 0.016295 0.358374 -0.933436
  outer loop
   vertex 89.557289 23.009897 488.176117
   vertex 89.556610 23.112228 488.215393
   vertex 109.170616 23.112228 488.557800
  endloop
 endfacet

 facet normal -0.006255 0.933578 0.358320
  outer loop
   vertex 109.170616 23.112228 488.557800
   vertex 89.556610 23.112228 488.215393
   vertex 89.554291 23.061226 488.348236
  endloop
 endfacet

 facet normal -0.006255 0.933573 0.358332
  outer loop
   vertex 89.554291 23.061226 488.348236
   vertex 109.168297 23.061224 488.690643
   vertex 109.170616 23.112228 488.557800
  endloop
 endfacet

 facet normal -0.017455 0.000850 0.999847
  outer loop
   vertex 89.554291 23.025316 488.348267
   vertex 109.168297 23.061224 488.690643
   vertex 89.554291 23.061226 488.348236
  endloop
 endfacet

 facet normal -0.017453 0.000000 0.999848
  outer loop
   vertex 109.168297 23.025314 488.690643
   vertex 109.168297 23.061224 488.690643
   vertex 89.554291 23.025316 488.348267
  endloop
 endfacet

 facet normal -0.006255 0.933579 0.358316
  outer loop
   vertex 89.554291 23.025316 488.348267
   vertex 89.544289 22.805445 488.920959
   vertex 109.168297 23.025314 488.690643
  endloop
 endfacet

 facet normal -0.006255 0.933580 0.358313
  outer loop
   vertex 109.168297 23.025314 488.690643
   vertex 89.544289 22.805445 488.920959
   vertex 109.158302 22.805445 489.263336
  endloop
 endfacet

 facet normal 0.012970 0.669130 -0.743032
  outer loop
   vertex 109.158302 22.805445 489.263336
   vertex 89.544289 22.805445 488.920959
   vertex 89.543869 22.832123 488.944977
  endloop
 endfacet

 facet normal 0.012964 0.669625 -0.742586
  outer loop
   vertex 89.543869 22.832123 488.944977
   vertex 109.157883 22.832121 489.287384
   vertex 109.158302 22.805445 489.263336
  endloop
 endfacet

 facet normal -0.006255 0.933584 0.358305
  outer loop
   vertex 89.542717 22.806816 489.010895
   vertex 109.157883 22.832121 489.287384
   vertex 89.543869 22.832123 488.944977
  endloop
 endfacet

 facet normal -0.006255 0.933584 0.358305
  outer loop
   vertex 109.156731 22.806814 489.353302
   vertex 109.157883 22.832121 489.287384
   vertex 89.542717 22.806816 489.010895
  endloop
 endfacet

 facet normal -0.016295 -0.358360 0.933441
  outer loop
   vertex 89.542717 22.806816 489.010895
   vertex 89.552536 21.341112 488.448364
   vertex 109.156731 22.806814 489.353302
  endloop
 endfacet

 facet normal -0.016294 -0.358377 0.933435
  outer loop
   vertex 109.156731 22.806814 489.353302
   vertex 89.552536 21.341112 488.448364
   vertex 109.166550 21.341110 488.790741
  endloop
 endfacet

 facet normal 0.006254 -0.933584 -0.358305
  outer loop
   vertex 109.166550 21.341110 488.790741
   vertex 89.552536 21.341112 488.448364
   vertex 109.167702 21.366417 488.724823
  endloop
 endfacet

 facet normal 0.006276 -0.933580 -0.358314
  outer loop
   vertex 111.112434 21.400269 490.163666
   vertex 110.683289 21.131491 490.856445
   vertex 110.699585 21.489861 489.923004
  endloop
 endfacet

 facet normal -0.999848 -0.000000 -0.017456
  outer loop
   vertex 110.699585 21.489861 489.923004
   vertex 110.683289 21.131491 490.856445
   vertex 110.696457 21.956652 490.102173
  endloop
 endfacet

 facet normal 0.016362 0.358388 -0.933429
  outer loop
   vertex 110.696457 21.956652 490.102173
   vertex 111.049530 21.489861 489.929138
   vertex 110.699585 21.489861 489.923004
  endloop
 endfacet

 facet normal 0.016280 0.358335 -0.933451
  outer loop
   vertex 111.046410 21.956652 490.108276
   vertex 111.049530 21.489861 489.929138
   vertex 110.696457 21.956652 490.102173
  endloop
 endfacet

 facet normal -0.016280 -0.358335 0.933451
  outer loop
   vertex 110.696457 21.956652 490.102173
   vertex 111.049530 21.489861 489.929138
   vertex 111.046410 21.956652 490.108276
  endloop
 endfacet

 facet normal -0.006250 0.933573 0.358332
  outer loop
   vertex 111.046410 21.956652 490.108276
   vertex 111.117455 22.046244 489.876099
   vertex 110.696457 21.956652 490.102173
  endloop
 endfacet

 facet normal -0.006258 0.933579 0.358318
  outer loop
   vertex 110.696457 21.956652 490.102173
   vertex 111.117455 22.046244 489.876099
   vertex 110.817245 22.108957 489.707458
  endloop
 endfacet

 facet normal -0.006258 0.933579 0.358318
  outer loop
   vertex 110.817245 22.108957 489.707458
   vertex 111.117455 22.046244 489.876099
   vertex 111.303421 22.111830 489.708466
  endloop
 endfacet

 facet normal -0.006258 0.933591 0.358287
  outer loop
   vertex 111.303421 22.111830 489.708466
   vertex 111.133392 22.220453 489.422455
   vertex 110.817245 22.108957 489.707458
  endloop
 endfacet

 facet normal -0.006259 0.933590 0.358287
  outer loop
   vertex 111.554474 22.135836 489.650299
   vertex 111.133392 22.220453 489.422455
   vertex 111.303421 22.111830 489.708466
  endloop
 endfacet

 facet normal -0.006265 0.933587 0.358297
  outer loop
   vertex 111.560181 22.261265 489.323578
   vertex 111.133392 22.220453 489.422455
   vertex 111.554474 22.135836 489.650299
  endloop
 endfacet

 facet normal -0.006254 0.933587 0.358297
  outer loop
   vertex 111.554474 22.135836 489.650299
   vertex 111.803345 22.111830 489.717194
   vertex 111.560181 22.261265 489.323578
  endloop
 endfacet

 facet normal -0.006269 0.933584 0.358305
  outer loop
   vertex 111.560181 22.261265 489.323578
   vertex 111.803345 22.111830 489.717194
   vertex 111.983261 22.220453 489.437317
  endloop
 endfacet

 facet normal -0.006237 0.933577 0.358323
  outer loop
   vertex 111.983261 22.220453 489.437317
   vertex 111.803345 22.111830 489.717194
   vertex 111.983353 22.046244 489.891205
  endloop
 endfacet

 facet normal -0.006259 0.933577 0.358323
  outer loop
   vertex 111.983353 22.046244 489.891205
   vertex 112.289268 22.108957 489.733154
   vertex 111.983261 22.220453 489.437317
  endloop
 endfacet

 facet normal -0.006260 0.933577 0.358323
  outer loop
   vertex 112.046257 21.956650 490.125732
   vertex 112.289268 22.108957 489.733154
   vertex 111.983353 22.046244 489.891205
  endloop
 endfacet

 facet normal -0.006250 0.933575 0.358328
  outer loop
   vertex 112.396202 21.956650 490.131836
   vertex 112.289268 22.108957 489.733154
   vertex 112.046257 21.956650 490.125732
  endloop
 endfacet

 facet normal -0.006250 0.933573 0.358332
  outer loop
   vertex 112.046257 21.956650 490.125732
   vertex 111.975204 21.867058 490.357910
   vertex 112.396202 21.956650 490.131836
  endloop
 endfacet

 facet normal -0.006262 0.933581 0.358312
  outer loop
   vertex 112.396202 21.956650 490.131836
   vertex 111.975204 21.867058 490.357910
   vertex 112.379906 21.598282 491.065277
  endloop
 endfacet

 facet normal -0.006225 0.933588 0.358294
  outer loop
   vertex 112.379906 21.598282 491.065277
   vertex 111.975204 21.867058 490.357910
   vertex 111.789238 21.801472 490.525574
  endloop
 endfacet

 facet normal -0.006251 0.933578 0.358319
  outer loop
   vertex 111.789238 21.801472 490.525574
   vertex 111.538185 21.777466 490.583740
   vertex 112.379906 21.598282 491.065277
  endloop
 endfacet

 facet normal -0.006262 0.933581 0.358312
  outer loop
   vertex 87.556793 21.867060 489.931671
   vertex 87.961502 21.598284 490.639038
   vertex 87.977791 21.956652 489.705597
  endloop
 endfacet

 facet normal 0.999848 0.000003 0.017449
  outer loop
   vertex 87.977791 21.956652 489.705597
   vertex 87.961502 21.598284 490.639038
   vertex 87.980919 21.489862 489.526428
  endloop
 endfacet

 facet normal 0.016280 0.358390 -0.933430
  outer loop
   vertex 87.980919 21.489862 489.526428
   vertex 87.627846 21.956652 489.699493
   vertex 87.977791 21.956652 489.705597
  endloop
 endfacet

 facet normal 0.016280 0.358390 -0.933430
  outer loop
   vertex 87.630974 21.489862 489.520325
   vertex 87.627846 21.956652 489.699493
   vertex 87.980919 21.489862 489.526428
  endloop
 endfacet

 facet normal -0.016280 -0.358390 0.933430
  outer loop
   vertex 87.980919 21.489862 489.526428
   vertex 87.627846 21.956652 489.699493
   vertex 87.630974 21.489862 489.520325
  endloop
 endfacet

 facet normal 0.006249 -0.933580 -0.358314
  outer loop
   vertex 87.630974 21.489862 489.520325
   vertex 87.568069 21.579454 489.285797
   vertex 87.980919 21.489862 489.526428
  endloop
 endfacet

 facet normal 0.006258 -0.933576 -0.358326
  outer loop
   vertex 87.980919 21.489862 489.526428
   vertex 87.568069 21.579454 489.285797
   vertex 87.873985 21.642168 489.127747
  endloop
 endfacet

 facet normal 0.006251 -0.933572 -0.358336
  outer loop
   vertex 87.873985 21.642168 489.127747
   vertex 87.568069 21.579454 489.285797
   vertex 87.388069 21.645041 489.111786
  endloop
 endfacet

 facet normal 0.006250 -0.933590 -0.358288
  outer loop
   vertex 87.388069 21.645041 489.111786
   vertex 87.567978 21.753666 488.831879
   vertex 87.873985 21.642168 489.127747
  endloop
 endfacet

 facet normal 0.006251 -0.933591 -0.358287
  outer loop
   vertex 87.139198 21.669046 489.044891
   vertex 87.567978 21.753666 488.831879
   vertex 87.388069 21.645041 489.111786
  endloop
 endfacet

 facet normal 0.006245 -0.933587 -0.358297
  outer loop
   vertex 87.144897 21.794476 488.718170
   vertex 87.567978 21.753666 488.831879
   vertex 87.139198 21.669046 489.044891
  endloop
 endfacet

 facet normal 0.006256 -0.933587 -0.358297
  outer loop
   vertex 87.139198 21.669046 489.044891
   vertex 86.888145 21.645041 489.103058
   vertex 87.144897 21.794476 488.718170
  endloop
 endfacet

 facet normal 0.006261 -0.933588 -0.358294
  outer loop
   vertex 87.144897 21.794476 488.718170
   vertex 86.888145 21.645041 489.103058
   vertex 86.718109 21.753666 488.817047
  endloop
 endfacet

 facet normal 0.006275 -0.933585 -0.358301
  outer loop
   vertex 86.718109 21.753666 488.817047
   vertex 86.888145 21.645041 489.103058
   vertex 86.702179 21.579454 489.270691
  endloop
 endfacet

 facet normal 0.006242 -0.933585 -0.358303
  outer loop
   vertex 86.702179 21.579454 489.270691
   vertex 86.401962 21.642170 489.102051
   vertex 86.718109 21.753666 488.817047
  endloop
 endfacet

 facet normal 0.006259 -0.933574 -0.358329
  outer loop
   vertex 86.631126 21.489862 489.502869
   vertex 86.401962 21.642170 489.102051
   vertex 86.702179 21.579454 489.270691
  endloop
 endfacet

 facet normal 0.006250 -0.933576 -0.358325
  outer loop
   vertex 86.281181 21.489862 489.496765
   vertex 86.401962 21.642170 489.102051
   vertex 86.631126 21.489862 489.502869
  endloop
 endfacet

 facet normal 0.006249 -0.933580 -0.358314
  outer loop
   vertex 86.631126 21.489862 489.502869
   vertex 86.694031 21.400270 489.737396
   vertex 86.281181 21.489862 489.496765
  endloop
 endfacet

 facet normal 0.006250 -0.933580 -0.358314
  outer loop
   vertex 86.281181 21.489862 489.496765
   vertex 86.694031 21.400270 489.737396
   vertex 86.264885 21.131493 490.430206
  endloop
 endfacet

 facet normal 0.006273 -0.933585 -0.358301
  outer loop
   vertex 86.264885 21.131493 490.430206
   vertex 86.694031 21.400270 489.737396
   vertex 86.874031 21.334684 489.911438
  endloop
 endfacet

 facet normal 0.006254 -0.933578 -0.358321
  outer loop
   vertex 86.874031 21.334684 489.911438
   vertex 87.122902 21.310677 489.978333
   vertex 86.264885 21.131493 490.430206
  endloop
 endfacet

 facet normal -0.012976 0.667925 0.744116
  outer loop
   vertex 89.131126 22.845463 489.032867
   vertex 89.124695 22.434803 489.401367
   vertex 90.289665 22.845463 489.053070
  endloop
 endfacet

 facet normal -0.012995 0.667955 0.744088
  outer loop
   vertex 90.289665 22.845463 489.053070
   vertex 89.124695 22.434803 489.401367
   vertex 90.283234 22.434803 489.421600
  endloop
 endfacet

 facet normal 0.999848 -0.000001 0.017449
  outer loop
   vertex 90.283234 22.434803 489.421600
   vertex 90.290489 21.351454 489.005798
   vertex 90.289665 22.845463 489.053070
  endloop
 endfacet

 facet normal -0.016302 -0.358373 0.933436
  outer loop
   vertex 89.124695 22.434803 489.401367
   vertex 90.290489 21.351454 489.005798
   vertex 90.283234 22.434803 489.421600
  endloop
 endfacet

 facet normal -0.016302 -0.358373 0.933436
  outer loop
   vertex 89.131950 21.351454 488.985565
   vertex 90.290489 21.351454 489.005798
   vertex 89.124695 22.434803 489.401367
  endloop
 endfacet

 facet normal -0.999848 0.000002 -0.017451
  outer loop
   vertex 89.124695 22.434803 489.401367
   vertex 89.141525 21.292898 488.436981
   vertex 89.131950 21.351454 488.985565
  endloop
 endfacet

 facet normal -0.001853 -0.994353 0.106104
  outer loop
   vertex 89.131950 21.351454 488.985565
   vertex 89.141525 21.292898 488.436981
   vertex 90.290489 21.351454 489.005798
  endloop
 endfacet

 facet normal -0.001850 -0.994354 0.106099
  outer loop
   vertex 90.290489 21.351454 489.005798
   vertex 89.141525 21.292898 488.436981
   vertex 90.300064 21.292898 488.457184
  endloop
 endfacet

 facet normal 0.999848 -0.000001 0.017450
  outer loop
   vertex 90.300064 21.292898 488.457184
   vertex 90.289665 22.845463 489.053070
   vertex 90.290489 21.351454 489.005798
  endloop
 endfacet

 facet normal 0.999848 -0.000004 0.017459
  outer loop
   vertex 90.312042 21.810884 487.771332
   vertex 90.289665 22.845463 489.053070
   vertex 90.300064 21.292898 488.457184
  endloop
 endfacet

 facet normal 0.999848 0.000003 0.017453
  outer loop
   vertex 90.304611 22.919537 488.196838
   vertex 90.289665 22.845463 489.053070
   vertex 90.312042 21.810884 487.771332
  endloop
 endfacet

 facet normal 0.016302 0.358368 -0.933438
  outer loop
   vertex 90.312042 21.810884 487.771332
   vertex 89.146072 22.919537 488.176605
   vertex 90.304611 22.919537 488.196838
  endloop
 endfacet

 facet normal 0.008592 -0.870568 -0.491973
  outer loop
   vertex 90.304611 22.919537 488.196838
   vertex 89.146072 22.919537 488.176605
   vertex 90.306129 22.968634 488.109985
  endloop
 endfacet

 facet normal 0.008592 -0.870568 -0.491973
  outer loop
   vertex 90.306129 22.968634 488.109985
   vertex 89.146072 22.919537 488.176605
   vertex 89.147591 22.968634 488.089752
  endloop
 endfacet

 facet normal 0.016302 0.358293 -0.933467
  outer loop
   vertex 89.147591 22.968634 488.089752
   vertex 90.305138 23.117041 488.166931
   vertex 90.306129 22.968634 488.109985
  endloop
 endfacet

 facet normal 0.016302 0.358293 -0.933467
  outer loop
   vertex 89.146599 23.117041 488.146698
   vertex 90.305138 23.117041 488.166931
   vertex 89.147591 22.968634 488.089752
  endloop
 endfacet

 facet normal 0.004997 0.958183 -0.286114
  outer loop
   vertex 89.144844 23.147076 488.247253
   vertex 90.305138 23.117041 488.166931
   vertex 89.146599 23.117041 488.146698
  endloop
 endfacet

 facet normal -0.999848 0.000022 -0.017455
  outer loop
   vertex 89.146599 23.117041 488.146698
   vertex 89.146072 22.919537 488.176605
   vertex 89.144844 23.147076 488.247253
  endloop
 endfacet

 facet normal -0.999848 0.000021 -0.017450
  outer loop
   vertex 89.144844 23.147076 488.247253
   vertex 89.146072 22.919537 488.176605
   vertex 89.131126 22.845463 489.032867
  endloop
 endfacet

 facet normal -0.999848 -0.000003 -0.017453
  outer loop
   vertex 89.131126 22.845463 489.032867
   vertex 89.146072 22.919537 488.176605
   vertex 89.153503 21.810884 487.751099
  endloop
 endfacet

 facet normal -0.999848 0.000004 -0.017458
  outer loop
   vertex 89.153503 21.810884 487.751099
   vertex 89.141525 21.292898 488.436981
   vertex 89.131126 22.845463 489.032867
  endloop
 endfacet

 facet normal -0.999848 0.000008 -0.017456
  outer loop
   vertex 89.155243 21.594513 487.651367
   vertex 89.141525 21.292898 488.436981
   vertex 89.153503 21.810884 487.751099
  endloop
 endfacet

 facet normal 0.006248 -0.933580 -0.358313
  outer loop
   vertex 90.300064 21.292898 488.457184
   vertex 89.141525 21.292898 488.436981
   vertex 89.155243 21.594513 487.651367
  endloop
 endfacet

 facet normal 0.006256 -0.933577 -0.358323
  outer loop
   vertex 89.155243 21.594513 487.651367
   vertex 90.313782 21.594511 487.671600
   vertex 90.300064 21.292898 488.457184
  endloop
 endfacet

 facet normal 0.999848 -0.000008 0.017456
  outer loop
   vertex 90.300064 21.292898 488.457184
   vertex 90.313782 21.594511 487.671600
   vertex 90.312042 21.810884 487.771332
  endloop
 endfacet

 facet normal 0.999848 -0.000004 0.017448
  outer loop
   vertex 90.312042 21.810884 487.771332
   vertex 90.313782 21.594511 487.671600
   vertex 90.314735 21.684116 487.616974
  endloop
 endfacet

 facet normal 0.999848 -0.000017 0.017459
  outer loop
   vertex 90.314735 21.684116 487.616974
   vertex 90.313744 21.832523 487.673920
   vertex 90.312042 21.810884 487.771332
  endloop
 endfacet

 facet normal 0.016278 0.358293 -0.933467
  outer loop
   vertex 89.155205 21.832523 487.653717
   vertex 90.313744 21.832523 487.673920
   vertex 90.314735 21.684116 487.616974
  endloop
 endfacet

 facet normal -0.003780 0.976212 0.216787
  outer loop
   vertex 90.312042 21.810884 487.771332
   vertex 90.313744 21.832523 487.673920
   vertex 89.155205 21.832523 487.653717
  endloop
 endfacet

 facet normal -0.003787 0.976197 0.216852
  outer loop
   vertex 89.155205 21.832523 487.653717
   vertex 89.153503 21.810884 487.751099
   vertex 90.312042 21.810884 487.771332
  endloop
 endfacet

 facet normal 0.016302 0.358368 -0.933438
  outer loop
   vertex 90.312042 21.810884 487.771332
   vertex 89.153503 21.810884 487.751099
   vertex 89.146072 22.919537 488.176605
  endloop
 endfacet

 facet normal -0.001850 -0.994354 0.106095
  outer loop
   vertex 109.577705 21.292898 488.793701
   vertex 109.568130 21.351452 489.342316
   vertex 108.419167 21.292898 488.773499
  endloop
 endfacet

 facet normal -0.001853 -0.994354 0.106101
  outer loop
   vertex 108.419167 21.292898 488.773499
   vertex 109.568130 21.351452 489.342316
   vertex 108.409592 21.351452 489.322083
  endloop
 endfacet

 facet normal -0.999848 0.000002 -0.017451
  outer loop
   vertex 108.409592 21.351452 489.322083
   vertex 108.402336 22.434801 489.737885
   vertex 108.419167 21.292898 488.773499
  endloop
 endfacet

 facet normal -0.016302 -0.358373 0.933436
  outer loop
   vertex 109.568130 21.351452 489.342316
   vertex 108.402336 22.434801 489.737885
   vertex 108.409592 21.351452 489.322083
  endloop
 endfacet

 facet normal -0.016302 -0.358373 0.933436
  outer loop
   vertex 109.560875 22.434801 489.758118
   vertex 108.402336 22.434801 489.737885
   vertex 109.568130 21.351452 489.342316
  endloop
 endfacet

 facet normal 0.999848 -0.000001 0.017449
  outer loop
   vertex 109.568130 21.351452 489.342316
   vertex 109.567307 22.845461 489.389587
   vertex 109.560875 22.434801 489.758118
  endloop
 endfacet

 facet normal -0.012995 0.667955 0.744088
  outer loop
   vertex 109.560875 22.434801 489.758118
   vertex 109.567307 22.845461 489.389587
   vertex 108.402336 22.434801 489.737885
  endloop
 endfacet

 facet normal -0.012995 0.667955 0.744088
  outer loop
   vertex 108.402336 22.434801 489.737885
   vertex 109.567307 22.845461 489.389587
   vertex 108.408768 22.845461 489.369354
  endloop
 endfacet

 facet normal -0.999848 -0.000000 -0.017449
  outer loop
   vertex 108.408768 22.845461 489.369354
   vertex 108.419167 21.292898 488.773499
   vertex 108.402336 22.434801 489.737885
  endloop
 endfacet

 facet normal -0.999848 0.000001 -0.017453
  outer loop
   vertex 108.423714 22.919535 488.513123
   vertex 108.419167 21.292898 488.773499
   vertex 108.408768 22.845461 489.369354
  endloop
 endfacet

 facet normal -0.999848 -0.000000 -0.017461
  outer loop
   vertex 108.431145 21.810884 488.087616
   vertex 108.419167 21.292898 488.773499
   vertex 108.423714 22.919535 488.513123
  endloop
 endfacet

 facet normal 0.016277 0.358368 -0.933438
  outer loop
   vertex 108.423714 22.919535 488.513123
   vertex 109.589684 21.810884 488.107819
   vertex 108.431145 21.810884 488.087616
  endloop
 endfacet

 facet normal -0.003780 0.976212 0.216787
  outer loop
   vertex 108.431145 21.810884 488.087616
   vertex 109.589684 21.810884 488.107819
   vertex 108.432846 21.832523 487.990204
  endloop
 endfacet

 facet normal -0.003787 0.976197 0.216852
  outer loop
   vertex 108.432846 21.832523 487.990204
   vertex 109.589684 21.810884 488.107819
   vertex 109.591385 21.832523 488.010437
  endloop
 endfacet

 facet normal 0.016302 0.358293 -0.933467
  outer loop
   vertex 109.591385 21.832523 488.010437
   vertex 108.433838 21.684116 487.933258
   vertex 108.432846 21.832523 487.990204
  endloop
 endfacet

 facet normal 0.016303 0.358289 -0.933468
  outer loop
   vertex 109.592377 21.684114 487.953491
   vertex 108.433838 21.684116 487.933258
   vertex 109.591385 21.832523 488.010437
  endloop
 endfacet

 facet normal 0.014910 -0.520385 -0.853801
  outer loop
   vertex 109.591423 21.594511 488.008087
   vertex 108.433838 21.684116 487.933258
   vertex 109.592377 21.684114 487.953491
  endloop
 endfacet

 facet normal 0.999848 -0.000007 0.017454
  outer loop
   vertex 109.592377 21.684114 487.953491
   vertex 109.589684 21.810884 488.107819
   vertex 109.591423 21.594511 488.008087
  endloop
 endfacet

 facet normal 0.999848 -0.000008 0.017456
  outer loop
   vertex 109.591423 21.594511 488.008087
   vertex 109.589684 21.810884 488.107819
   vertex 109.577705 21.292898 488.793701
  endloop
 endfacet

 facet normal 0.999848 0.000000 0.017461
  outer loop
   vertex 109.577705 21.292898 488.793701
   vertex 109.589684 21.810884 488.107819
   vertex 109.582253 22.919535 488.533325
  endloop
 endfacet

 facet normal 0.999848 -0.000001 0.017452
  outer loop
   vertex 109.582253 22.919535 488.533325
   vertex 109.567307 22.845461 489.389587
   vertex 109.577705 21.292898 488.793701
  endloop
 endfacet

 facet normal 0.999848 -0.000021 0.017450
  outer loop
   vertex 109.581024 23.147076 488.603973
   vertex 109.567307 22.845461 489.389587
   vertex 109.582253 22.919535 488.533325
  endloop
 endfacet

 facet normal -0.006258 0.933580 0.358313
  outer loop
   vertex 108.408768 22.845461 489.369354
   vertex 109.567307 22.845461 489.389587
   vertex 109.581024 23.147076 488.603973
  endloop
 endfacet

 facet normal -0.006248 0.933576 0.358325
  outer loop
   vertex 109.581024 23.147076 488.603973
   vertex 108.422485 23.147076 488.583771
   vertex 108.408768 22.845461 489.369354
  endloop
 endfacet

 facet normal -0.999848 0.000021 -0.017451
  outer loop
   vertex 108.408768 22.845461 489.369354
   vertex 108.422485 23.147076 488.583771
   vertex 108.423714 22.919535 488.513123
  endloop
 endfacet

 facet normal -0.999848 0.000022 -0.017455
  outer loop
   vertex 108.423714 22.919535 488.513123
   vertex 108.422485 23.147076 488.583771
   vertex 108.424240 23.117039 488.483215
  endloop
 endfacet

 facet normal -0.999847 0.000020 -0.017467
  outer loop
   vertex 108.424240 23.117039 488.483215
   vertex 108.425232 22.968634 488.426270
   vertex 108.423714 22.919535 488.513123
  endloop
 endfacet

 facet normal 0.016278 0.358297 -0.933466
  outer loop
   vertex 109.583771 22.968634 488.446472
   vertex 108.425232 22.968634 488.426270
   vertex 108.424240 23.117039 488.483215
  endloop
 endfacet

 facet normal 0.008579 -0.870560 -0.491987
  outer loop
   vertex 108.423714 22.919535 488.513123
   vertex 108.425232 22.968634 488.426270
   vertex 109.583771 22.968634 488.446472
  endloop
 endfacet

 facet normal 0.008579 -0.870560 -0.491987
  outer loop
   vertex 109.583771 22.968634 488.446472
   vertex 109.582253 22.919535 488.533325
   vertex 108.423714 22.919535 488.513123
  endloop
 endfacet

 facet normal 0.016277 0.358368 -0.933438
  outer loop
   vertex 108.423714 22.919535 488.513123
   vertex 109.582253 22.919535 488.533325
   vertex 109.589684 21.810884 488.107819
  endloop
 endfacet

 facet normal -0.006249 0.933580 0.358314
  outer loop
   vertex 87.627846 21.956652 489.699493
   vertex 87.977791 21.956652 489.705597
   vertex 87.564941 22.046244 489.464966
  endloop
 endfacet

 facet normal -0.006242 0.933585 0.358302
  outer loop
   vertex 87.564941 22.046244 489.464966
   vertex 87.977791 21.956652 489.705597
   vertex 87.870857 22.108959 489.306885
  endloop
 endfacet

 facet normal -0.006253 0.933592 0.358283
  outer loop
   vertex 87.870857 22.108959 489.306885
   vertex 87.384941 22.111830 489.290924
   vertex 87.564941 22.046244 489.464966
  endloop
 endfacet

 facet normal -0.006254 0.933578 0.358319
  outer loop
   vertex 87.564850 22.220455 489.011047
   vertex 87.384941 22.111830 489.290924
   vertex 87.870857 22.108959 489.306885
  endloop
 endfacet

 facet normal -0.006254 0.933578 0.358319
  outer loop
   vertex 87.136070 22.135838 489.224030
   vertex 87.384941 22.111830 489.290924
   vertex 87.564850 22.220455 489.011047
  endloop
 endfacet

 facet normal -0.006250 0.933575 0.358327
  outer loop
   vertex 87.564850 22.220455 489.011047
   vertex 87.141769 22.261267 488.897339
   vertex 87.136070 22.135838 489.224030
  endloop
 endfacet

 facet normal -0.006256 0.933575 0.358326
  outer loop
   vertex 87.136070 22.135838 489.224030
   vertex 87.141769 22.261267 488.897339
   vertex 86.885017 22.111830 489.282196
  endloop
 endfacet

 facet normal -0.006257 0.933576 0.358326
  outer loop
   vertex 86.885017 22.111830 489.282196
   vertex 87.141769 22.261267 488.897339
   vertex 86.714981 22.220455 488.996216
  endloop
 endfacet

 facet normal -0.006253 0.933577 0.358323
  outer loop
   vertex 86.714981 22.220455 488.996216
   vertex 86.699051 22.046244 489.449829
   vertex 86.885017 22.111830 489.282196
  endloop
 endfacet

 facet normal -0.006255 0.933577 0.358323
  outer loop
   vertex 86.398834 22.108959 489.281189
   vertex 86.699051 22.046244 489.449829
   vertex 86.714981 22.220455 488.996216
  endloop
 endfacet

 facet normal -0.006237 0.933588 0.358294
  outer loop
   vertex 86.627998 21.956652 489.682037
   vertex 86.699051 22.046244 489.449829
   vertex 86.398834 22.108959 489.281189
  endloop
 endfacet

 facet normal -0.006249 0.933585 0.358300
  outer loop
   vertex 86.398834 22.108959 489.281189
   vertex 86.278053 21.956652 489.675934
   vertex 86.627998 21.956652 489.682037
  endloop
 endfacet

 facet normal -0.006249 0.933580 0.358314
  outer loop
   vertex 86.627998 21.956652 489.682037
   vertex 86.278053 21.956652 489.675934
   vertex 86.690903 21.867060 489.916565
  endloop
 endfacet

 facet normal -0.006255 0.933577 0.358323
  outer loop
   vertex 86.690903 21.867060 489.916565
   vertex 86.278053 21.956652 489.675934
   vertex 86.261757 21.598284 490.609344
  endloop
 endfacet

 facet normal -0.006243 0.933574 0.358329
  outer loop
   vertex 86.261757 21.598284 490.609344
   vertex 86.870903 21.801474 490.090576
   vertex 86.690903 21.867060 489.916565
  endloop
 endfacet

 facet normal -0.006259 0.933581 0.358313
  outer loop
   vertex 87.119774 21.777468 490.157471
   vertex 86.870903 21.801474 490.090576
   vertex 86.261757 21.598284 490.609344
  endloop
 endfacet

 facet normal 0.006280 -0.933592 -0.358282
  outer loop
   vertex 111.049530 21.489861 489.929138
   vertex 110.699585 21.489861 489.923004
   vertex 111.120583 21.579453 489.696930
  endloop
 endfacet

 facet normal 0.006255 -0.933577 -0.358323
  outer loop
   vertex 111.120583 21.579453 489.696930
   vertex 110.699585 21.489861 489.923004
   vertex 110.820374 21.642168 489.528290
  endloop
 endfacet

 facet normal 0.006254 -0.933577 -0.358322
  outer loop
   vertex 110.820374 21.642168 489.528290
   vertex 111.306549 21.645039 489.529297
   vertex 111.120583 21.579453 489.696930
  endloop
 endfacet

 facet normal 0.006254 -0.933576 -0.358324
  outer loop
   vertex 111.136520 21.753664 489.243317
   vertex 111.306549 21.645039 489.529297
   vertex 110.820374 21.642168 489.528290
  endloop
 endfacet

 facet normal 0.006250 -0.933577 -0.358322
  outer loop
   vertex 111.557602 21.669044 489.471130
   vertex 111.306549 21.645039 489.529297
   vertex 111.136520 21.753664 489.243317
  endloop
 endfacet

 facet normal 0.006253 -0.933575 -0.358326
  outer loop
   vertex 111.136520 21.753664 489.243317
   vertex 111.563309 21.794474 489.144440
   vertex 111.557602 21.669044 489.471130
  endloop
 endfacet

 facet normal 0.006263 -0.933575 -0.358326
  outer loop
   vertex 111.557602 21.669044 489.471130
   vertex 111.563309 21.794474 489.144440
   vertex 111.806473 21.645039 489.538025
  endloop
 endfacet

 facet normal 0.006252 -0.933578 -0.358320
  outer loop
   vertex 111.806473 21.645039 489.538025
   vertex 111.563309 21.794474 489.144440
   vertex 111.986389 21.753664 489.258148
  endloop
 endfacet

 facet normal 0.006240 -0.933575 -0.358327
  outer loop
   vertex 111.986389 21.753664 489.258148
   vertex 111.986481 21.579453 489.712036
   vertex 111.806473 21.645039 489.538025
  endloop
 endfacet

 facet normal 0.006263 -0.933575 -0.358327
  outer loop
   vertex 112.292389 21.642168 489.553986
   vertex 111.986481 21.579453 489.712036
   vertex 111.986389 21.753664 489.258148
  endloop
 endfacet

 facet normal 0.006268 -0.933579 -0.358318
  outer loop
   vertex 112.049377 21.489861 489.946564
   vertex 111.986481 21.579453 489.712036
   vertex 112.292389 21.642168 489.553986
  endloop
 endfacet

 facet normal 0.006281 -0.933581 -0.358311
  outer loop
   vertex 112.292389 21.642168 489.553986
   vertex 112.399330 21.489861 489.952698
   vertex 112.049377 21.489861 489.946564
  endloop
 endfacet

 facet normal 0.006280 -0.933592 -0.358283
  outer loop
   vertex 112.049377 21.489861 489.946564
   vertex 112.399330 21.489861 489.952698
   vertex 111.978333 21.400269 490.178772
  endloop
 endfacet

 facet normal 0.006261 -0.933580 -0.358314
  outer loop
   vertex 111.978333 21.400269 490.178772
   vertex 112.399330 21.489861 489.952698
   vertex 112.383034 21.131491 490.886139
  endloop
 endfacet

 facet normal 0.006262 -0.933580 -0.358314
  outer loop
   vertex 112.383034 21.131491 490.886139
   vertex 111.792366 21.334682 490.346405
   vertex 111.978333 21.400269 490.178772
  endloop
 endfacet

 facet normal 0.006254 -0.933583 -0.358307
  outer loop
   vertex 111.541313 21.310677 490.404572
   vertex 111.792366 21.334682 490.346405
   vertex 112.383034 21.131491 490.886139
  endloop
 endfacet

 facet normal 0.006253 -0.933577 -0.358323
  outer loop
   vertex 86.264885 21.131493 490.430206
   vertex 87.122902 21.310677 489.978333
   vertex 87.964622 21.131493 490.459869
  endloop
 endfacet

 facet normal 0.006256 -0.933575 -0.358326
  outer loop
   vertex 87.964622 21.131493 490.459869
   vertex 87.122902 21.310677 489.978333
   vertex 87.373955 21.334684 489.920166
  endloop
 endfacet

 facet normal 0.006223 -0.933588 -0.358295
  outer loop
   vertex 87.373955 21.334684 489.920166
   vertex 87.559921 21.400270 489.752502
   vertex 87.964622 21.131493 490.459869
  endloop
 endfacet

 facet normal 0.006245 -0.933574 -0.358331
  outer loop
   vertex 111.112434 21.400269 490.163666
   vertex 111.292442 21.334682 490.337677
   vertex 110.683289 21.131491 490.856445
  endloop
 endfacet

 facet normal 0.006260 -0.933580 -0.358315
  outer loop
   vertex 110.683289 21.131491 490.856445
   vertex 111.292442 21.334682 490.337677
   vertex 111.541313 21.310677 490.404572
  endloop
 endfacet

 facet normal 0.006260 -0.933580 -0.358316
  outer loop
   vertex 111.541313 21.310677 490.404572
   vertex 112.383034 21.131491 490.886139
   vertex 110.683289 21.131491 490.856445
  endloop
 endfacet

 facet normal -0.006253 0.933577 0.358323
  outer loop
   vertex 112.379906 21.598282 491.065277
   vertex 111.538185 21.777466 490.583740
   vertex 110.680168 21.598282 491.035614
  endloop
 endfacet

 facet normal -0.006259 0.933581 0.358313
  outer loop
   vertex 110.680168 21.598282 491.035614
   vertex 111.538185 21.777466 490.583740
   vertex 111.289314 21.801472 490.516846
  endloop
 endfacet

 facet normal -0.006272 0.933585 0.358300
  outer loop
   vertex 111.289314 21.801472 490.516846
   vertex 111.109306 21.867058 490.342804
   vertex 110.680168 21.598282 491.035614
  endloop
 endfacet

 facet normal -0.006263 0.933580 0.358313
  outer loop
   vertex 87.556793 21.867060 489.931671
   vertex 87.370827 21.801474 490.099304
   vertex 87.961502 21.598284 490.639038
  endloop
 endfacet

 facet normal -0.006254 0.933584 0.358305
  outer loop
   vertex 87.961502 21.598284 490.639038
   vertex 87.370827 21.801474 490.099304
   vertex 87.119774 21.777468 490.157471
  endloop
 endfacet

 facet normal -0.006260 0.933581 0.358312
  outer loop
   vertex 87.119774 21.777468 490.157471
   vertex 86.261757 21.598284 490.609344
   vertex 87.961502 21.598284 490.639038
  endloop
 endfacet

 facet normal 0.004991 0.958154 -0.286210
  outer loop
   vertex 109.581024 23.147076 488.603973
   vertex 109.582779 23.117039 488.503448
   vertex 108.422485 23.147076 488.583771
  endloop
 endfacet

 facet normal 0.004997 0.958178 -0.286130
  outer loop
   vertex 108.422485 23.147076 488.583771
   vertex 109.582779 23.117039 488.503448
   vertex 108.424240 23.117039 488.483215
  endloop
 endfacet

 facet normal 0.006255 -0.933579 -0.358316
  outer loop
   vertex 89.553688 21.402328 488.382416
   vertex 89.563690 21.622200 487.809723
   vertex 109.167702 21.402328 488.724823
  endloop
 endfacet

 facet normal 0.006255 -0.933580 -0.358313
  outer loop
   vertex 109.167702 21.402328 488.724823
   vertex 89.563690 21.622200 487.809723
   vertex 109.177696 21.622198 488.152130
  endloop
 endfacet

 facet normal 0.014909 -0.520589 -0.853677
  outer loop
   vertex 90.314735 21.684116 487.616974
   vertex 90.313782 21.594511 487.671600
   vertex 89.156197 21.684116 487.596741
  endloop
 endfacet

 facet normal 0.014908 -0.520597 -0.853672
  outer loop
   vertex 89.156197 21.684116 487.596741
   vertex 90.313782 21.594511 487.671600
   vertex 89.155243 21.594513 487.651367
  endloop
 endfacet

 facet normal 0.016281 0.358336 -0.933451
  outer loop
   vertex 112.046257 21.956650 490.125732
   vertex 112.396202 21.956650 490.131836
   vertex 112.222794 21.723255 490.039215
  endloop
 endfacet

 facet normal 0.999848 -0.000001 0.017450
  outer loop
   vertex 109.577705 21.292898 488.793701
   vertex 109.567307 22.845461 489.389587
   vertex 109.568130 21.351452 489.342316
  endloop
 endfacet

 facet normal 0.006281 -0.933577 -0.358321
  outer loop
   vertex 110.699585 21.489861 489.923004
   vertex 111.049530 21.489861 489.929138
   vertex 111.112434 21.400269 490.163666
  endloop
 endfacet

 facet normal 0.006250 -0.933573 -0.358332
  outer loop
   vertex 87.630974 21.489862 489.520325
   vertex 87.980919 21.489862 489.526428
   vertex 87.559921 21.400270 489.752502
  endloop
 endfacet

 facet normal -0.016362 -0.358336 0.933449
  outer loop
   vertex 112.396202 21.956650 490.131836
   vertex 112.049377 21.489861 489.946564
   vertex 112.399330 21.489861 489.952698
  endloop
 endfacet

 facet normal -0.006257 0.933580 0.358314
  outer loop
   vertex 89.373367 22.464094 489.265930
   vertex 87.725456 22.464094 489.237152
   vertex 87.700348 21.911829 490.675629
  endloop
 endfacet

 facet normal 0.006251 -0.933580 -0.358314
  outer loop
   vertex 109.298943 20.870945 490.653046
   vertex 109.324051 21.423210 489.214569
   vertex 110.946854 20.870945 490.681793
  endloop
 endfacet

 facet normal -0.016280 -0.358390 0.933430
  outer loop
   vertex 86.281181 21.489862 489.496765
   vertex 86.627998 21.956652 489.682037
   vertex 86.278053 21.956652 489.675934
  endloop
 endfacet

 facet normal -0.999847 0.000020 -0.017467
  outer loop
   vertex 89.146599 23.117041 488.146698
   vertex 89.147591 22.968634 488.089752
   vertex 89.146072 22.919537 488.176605
  endloop
 endfacet

 facet normal -0.016362 -0.358388 0.933429
  outer loop
   vertex 111.049530 21.489861 489.929138
   vertex 110.696457 21.956652 490.102173
   vertex 110.699585 21.489861 489.923004
  endloop
 endfacet

 facet normal -0.999848 0.000001 -0.017450
  outer loop
   vertex 89.131126 22.845463 489.032867
   vertex 89.141525 21.292898 488.436981
   vertex 89.124695 22.434803 489.401367
  endloop
 endfacet

 facet normal 0.999847 -0.000019 0.017464
  outer loop
   vertex 109.592377 21.684114 487.953491
   vertex 109.591385 21.832523 488.010437
   vertex 109.589684 21.810884 488.107819
  endloop
 endfacet

 facet normal -0.006251 0.933580 0.358314
  outer loop
   vertex 109.317078 22.464092 489.614075
   vertex 109.291969 21.911827 491.052551
   vertex 110.939880 21.911827 491.081299
  endloop
 endfacet

 facet normal 0.999848 -0.000000 0.017452
  outer loop
   vertex 89.348259 21.911829 490.704407
   vertex 89.355232 20.870947 490.304901
   vertex 89.380341 21.423212 488.866425
  endloop
 endfacet

 facet normal -0.016280 -0.358390 0.933430
  outer loop
   vertex 87.627846 21.956652 489.699493
   vertex 87.980919 21.489862 489.526428
   vertex 87.977791 21.956652 489.705597
  endloop
 endfacet

 facet normal -0.006250 0.933573 0.358332
  outer loop
   vertex 87.977791 21.956652 489.705597
   vertex 87.627846 21.956652 489.699493
   vertex 87.556793 21.867060 489.931671
  endloop
 endfacet

 facet normal -0.695528 0.253363 -0.672345
  outer loop
   vertex 87.370827 21.801474 490.099304
   vertex 87.559921 21.400270 489.752502
   vertex 87.373955 21.334684 489.920166
  endloop
 endfacet

 facet normal -0.243045 0.346125 -0.906160
  outer loop
   vertex 87.370827 21.801474 490.099304
   vertex 87.373955 21.334684 489.920166
   vertex 87.119774 21.777468 490.157471
  endloop
 endfacet

 facet normal -0.243048 0.346124 -0.906160
  outer loop
   vertex 87.119774 21.777468 490.157471
   vertex 87.373955 21.334684 489.920166
   vertex 87.122902 21.310677 489.978333
  endloop
 endfacet

 facet normal 0.274527 0.346125 -0.897125
  outer loop
   vertex 87.122902 21.310677 489.978333
   vertex 86.870903 21.801474 490.090576
   vertex 87.119774 21.777468 490.157471
  endloop
 endfacet

 facet normal 0.274529 0.346126 -0.897123
  outer loop
   vertex 86.874031 21.334684 489.911438
   vertex 86.870903 21.801474 490.090576
   vertex 87.122902 21.310677 489.978333
  endloop
 endfacet

 facet normal 0.718501 0.253390 -0.647726
  outer loop
   vertex 86.690903 21.867060 489.916565
   vertex 86.870903 21.801474 490.090576
   vertex 86.874031 21.334684 489.911438
  endloop
 endfacet

 facet normal 0.718554 0.253408 -0.647660
  outer loop
   vertex 86.874031 21.334684 489.911438
   vertex 86.694031 21.400270 489.737396
   vertex 86.690903 21.867060 489.916565
  endloop
 endfacet

 facet normal 0.969995 0.092760 -0.224734
  outer loop
   vertex 86.690903 21.867060 489.916565
   vertex 86.694031 21.400270 489.737396
   vertex 86.627998 21.956652 489.682037
  endloop
 endfacet

 facet normal -0.961556 0.092778 -0.258461
  outer loop
   vertex 112.046257 21.956650 490.125732
   vertex 112.049377 21.489861 489.946564
   vertex 111.975204 21.867058 490.357910
  endloop
 endfacet

 facet normal -0.961572 0.092729 -0.258419
  outer loop
   vertex 111.975204 21.867058 490.357910
   vertex 112.049377 21.489861 489.946564
   vertex 111.978333 21.400269 490.178772
  endloop
 endfacet

 facet normal -0.695528 0.253363 -0.672345
  outer loop
   vertex 111.978333 21.400269 490.178772
   vertex 111.789238 21.801472 490.525574
   vertex 111.975204 21.867058 490.357910
  endloop
 endfacet

 facet normal -0.695471 0.253421 -0.672382
  outer loop
   vertex 111.792366 21.334682 490.346405
   vertex 111.789238 21.801472 490.525574
   vertex 111.978333 21.400269 490.178772
  endloop
 endfacet

 facet normal -0.243046 0.346177 -0.906140
  outer loop
   vertex 111.538185 21.777466 490.583740
   vertex 111.789238 21.801472 490.525574
   vertex 111.792366 21.334682 490.346405
  endloop
 endfacet

 facet normal -0.243046 0.346177 -0.906140
  outer loop
   vertex 111.792366 21.334682 490.346405
   vertex 111.541313 21.310677 490.404572
   vertex 111.538185 21.777466 490.583740
  endloop
 endfacet

 facet normal 0.274527 0.346177 -0.897105
  outer loop
   vertex 111.538185 21.777466 490.583740
   vertex 111.541313 21.310677 490.404572
   vertex 111.289314 21.801472 490.516846
  endloop
 endfacet

 facet normal 0.274527 0.346177 -0.897105
  outer loop
   vertex 111.289314 21.801472 490.516846
   vertex 111.541313 21.310677 490.404572
   vertex 111.292442 21.334682 490.337677
  endloop
 endfacet

 facet normal 0.718540 0.253413 -0.647675
  outer loop
   vertex 111.292442 21.334682 490.337677
   vertex 111.109306 21.867058 490.342804
   vertex 111.289314 21.801472 490.516846
  endloop
 endfacet

 facet normal 0.969999 0.092755 -0.224719
  outer loop
   vertex 87.977791 21.956652 489.705597
   vertex 87.980919 21.489862 489.526428
   vertex 87.870857 22.108959 489.306885
  endloop
 endfacet

 facet normal 0.969995 0.092747 -0.224739
  outer loop
   vertex 87.870857 22.108959 489.306885
   vertex 87.980919 21.489862 489.526428
   vertex 87.873985 21.642168 489.127747
  endloop
 endfacet

 facet normal 0.718512 0.253386 -0.647716
  outer loop
   vertex 87.873985 21.642168 489.127747
   vertex 87.564850 22.220455 489.011047
   vertex 87.870857 22.108959 489.306885
  endloop
 endfacet

 facet normal 0.718544 0.253412 -0.647670
  outer loop
   vertex 87.567978 21.753666 488.831879
   vertex 87.564850 22.220455 489.011047
   vertex 87.873985 21.642168 489.127747
  endloop
 endfacet

 facet normal 0.274504 0.346179 -0.897111
  outer loop
   vertex 87.141769 22.261267 488.897339
   vertex 87.564850 22.220455 489.011047
   vertex 87.567978 21.753666 488.831879
  endloop
 endfacet

 facet normal 0.274502 0.346178 -0.897111
  outer loop
   vertex 87.567978 21.753666 488.831879
   vertex 87.144897 21.794476 488.718170
   vertex 87.141769 22.261267 488.897339
  endloop
 endfacet

 facet normal -0.243035 0.346177 -0.906143
  outer loop
   vertex 87.141769 22.261267 488.897339
   vertex 87.144897 21.794476 488.718170
   vertex 86.714981 22.220455 488.996216
  endloop
 endfacet

 facet normal -0.243034 0.346178 -0.906143
  outer loop
   vertex 86.714981 22.220455 488.996216
   vertex 87.144897 21.794476 488.718170
   vertex 86.718109 21.753666 488.817047
  endloop
 endfacet

 facet normal -0.695463 0.253424 -0.672389
  outer loop
   vertex 86.718109 21.753666 488.817047
   vertex 86.398834 22.108959 489.281189
   vertex 86.714981 22.220455 488.996216
  endloop
 endfacet

 facet normal -0.695497 0.253374 -0.672373
  outer loop
   vertex 86.401962 21.642170 489.102051
   vertex 86.398834 22.108959 489.281189
   vertex 86.718109 21.753666 488.817047
  endloop
 endfacet

 facet normal -0.961568 0.092734 -0.258433
  outer loop
   vertex 86.278053 21.956652 489.675934
   vertex 86.398834 22.108959 489.281189
   vertex 86.401962 21.642170 489.102051
  endloop
 endfacet

 facet normal -0.961563 0.092755 -0.258443
  outer loop
   vertex 86.401962 21.642170 489.102051
   vertex 86.281181 21.489862 489.496765
   vertex 86.278053 21.956652 489.675934
  endloop
 endfacet

 facet normal 0.969995 0.092747 -0.224738
  outer loop
   vertex 112.396202 21.956650 490.131836
   vertex 112.399330 21.489861 489.952698
   vertex 112.289268 22.108957 489.733154
  endloop
 endfacet

 facet normal 0.969995 0.092747 -0.224740
  outer loop
   vertex 112.289268 22.108957 489.733154
   vertex 112.399330 21.489861 489.952698
   vertex 112.292389 21.642168 489.553986
  endloop
 endfacet

 facet normal 0.718512 0.253413 -0.647705
  outer loop
   vertex 112.292389 21.642168 489.553986
   vertex 111.983261 22.220453 489.437317
   vertex 112.289268 22.108957 489.733154
  endloop
 endfacet

 facet normal 0.718521 0.253420 -0.647693
  outer loop
   vertex 111.986389 21.753664 489.258148
   vertex 111.983261 22.220453 489.437317
   vertex 112.292389 21.642168 489.553986
  endloop
 endfacet

 facet normal 0.274564 0.346174 -0.897095
  outer loop
   vertex 111.560181 22.261265 489.323578
   vertex 111.983261 22.220453 489.437317
   vertex 111.986389 21.753664 489.258148
  endloop
 endfacet

 facet normal 0.274503 0.346127 -0.897131
  outer loop
   vertex 111.986389 21.753664 489.258148
   vertex 111.563309 21.794474 489.144440
   vertex 111.560181 22.261265 489.323578
  endloop
 endfacet

 facet normal -0.243035 0.346125 -0.906163
  outer loop
   vertex 111.560181 22.261265 489.323578
   vertex 111.563309 21.794474 489.144440
   vertex 111.133392 22.220453 489.422455
  endloop
 endfacet

 facet normal -0.243034 0.346127 -0.906163
  outer loop
   vertex 111.133392 22.220453 489.422455
   vertex 111.563309 21.794474 489.144440
   vertex 111.136520 21.753664 489.243317
  endloop
 endfacet

 facet normal -0.695497 0.253374 -0.672373
  outer loop
   vertex 111.136520 21.753664 489.243317
   vertex 110.817245 22.108957 489.707458
   vertex 111.133392 22.220453 489.422455
  endloop
 endfacet

 facet normal -0.695463 0.253424 -0.672389
  outer loop
   vertex 110.820374 21.642168 489.528290
   vertex 110.817245 22.108957 489.707458
   vertex 111.136520 21.753664 489.243317
  endloop
 endfacet

 facet normal -0.961558 0.092761 -0.258458
  outer loop
   vertex 110.696457 21.956652 490.102173
   vertex 110.817245 22.108957 489.707458
   vertex 110.820374 21.642168 489.528290
  endloop
 endfacet

 facet normal -0.961559 0.092761 -0.258458
  outer loop
   vertex 110.820374 21.642168 489.528290
   vertex 110.699585 21.489861 489.923004
   vertex 110.696457 21.956652 490.102173
  endloop
 endfacet

 facet normal 0.718487 0.253396 -0.647740
  outer loop
   vertex 111.292442 21.334682 490.337677
   vertex 111.112434 21.400269 490.163666
   vertex 111.109306 21.867058 490.342804
  endloop
 endfacet

 facet normal 0.969995 0.092747 -0.224739
  outer loop
   vertex 111.109306 21.867058 490.342804
   vertex 111.112434 21.400269 490.163666
   vertex 111.049530 21.489861 489.929138
  endloop
 endfacet

 facet normal 0.970002 0.092723 -0.224718
  outer loop
   vertex 111.049530 21.489861 489.929138
   vertex 111.046410 21.956652 490.108276
   vertex 111.109306 21.867058 490.342804
  endloop
 endfacet

 facet normal 0.961564 -0.092752 0.258439
  outer loop
   vertex 111.120583 21.579453 489.696930
   vertex 111.046410 21.956652 490.108276
   vertex 111.049530 21.489861 489.929138
  endloop
 endfacet

 facet normal 0.961564 -0.092754 0.258441
  outer loop
   vertex 111.117455 22.046244 489.876099
   vertex 111.046410 21.956652 490.108276
   vertex 111.120583 21.579453 489.696930
  endloop
 endfacet

 facet normal 0.695471 -0.253420 0.672382
  outer loop
   vertex 111.120583 21.579453 489.696930
   vertex 111.306549 21.645039 489.529297
   vertex 111.117455 22.046244 489.876099
  endloop
 endfacet

 facet normal 0.695471 -0.253420 0.672382
  outer loop
   vertex 111.117455 22.046244 489.876099
   vertex 111.306549 21.645039 489.529297
   vertex 111.303421 22.111830 489.708466
  endloop
 endfacet

 facet normal 0.243046 -0.346176 0.906141
  outer loop
   vertex 111.303421 22.111830 489.708466
   vertex 111.306549 21.645039 489.529297
   vertex 111.557602 21.669044 489.471130
  endloop
 endfacet

 facet normal 0.243046 -0.346176 0.906141
  outer loop
   vertex 111.557602 21.669044 489.471130
   vertex 111.554474 22.135836 489.650299
   vertex 111.303421 22.111830 489.708466
  endloop
 endfacet

 facet normal -0.274527 -0.346176 0.897105
  outer loop
   vertex 111.806473 21.645039 489.538025
   vertex 111.554474 22.135836 489.650299
   vertex 111.557602 21.669044 489.471130
  endloop
 endfacet

 facet normal -0.274527 -0.346176 0.897105
  outer loop
   vertex 111.803345 22.111830 489.717194
   vertex 111.554474 22.135836 489.650299
   vertex 111.806473 21.645039 489.538025
  endloop
 endfacet

 facet normal -0.718486 -0.253432 0.647726
  outer loop
   vertex 111.806473 21.645039 489.538025
   vertex 111.986481 21.579453 489.712036
   vertex 111.803345 22.111830 489.717194
  endloop
 endfacet

 facet normal -0.718486 -0.253432 0.647726
  outer loop
   vertex 111.803345 22.111830 489.717194
   vertex 111.986481 21.579453 489.712036
   vertex 111.983353 22.046244 489.891205
  endloop
 endfacet

 facet normal -0.970002 -0.092750 0.224708
  outer loop
   vertex 111.983353 22.046244 489.891205
   vertex 111.986481 21.579453 489.712036
   vertex 112.049377 21.489861 489.946564
  endloop
 endfacet

 facet normal -0.969995 -0.092746 0.224739
  outer loop
   vertex 112.049377 21.489861 489.946564
   vertex 112.046257 21.956650 490.125732
   vertex 111.983353 22.046244 489.891205
  endloop
 endfacet

 facet normal -0.695471 0.253421 -0.672382
  outer loop
   vertex 87.370827 21.801474 490.099304
   vertex 87.556793 21.867060 489.931671
   vertex 87.559921 21.400270 489.752502
  endloop
 endfacet

 facet normal -0.961556 0.092764 -0.258466
  outer loop
   vertex 87.559921 21.400270 489.752502
   vertex 87.556793 21.867060 489.931671
   vertex 87.627846 21.956652 489.699493
  endloop
 endfacet

 facet normal -0.961556 0.092764 -0.258466
  outer loop
   vertex 87.627846 21.956652 489.699493
   vertex 87.630974 21.489862 489.520325
   vertex 87.559921 21.400270 489.752502
  endloop
 endfacet

 facet normal -0.969995 -0.092760 0.224734
  outer loop
   vertex 87.564941 22.046244 489.464966
   vertex 87.630974 21.489862 489.520325
   vertex 87.627846 21.956652 489.699493
  endloop
 endfacet

 facet normal -0.969995 -0.092760 0.224734
  outer loop
   vertex 87.568069 21.579454 489.285797
   vertex 87.630974 21.489862 489.520325
   vertex 87.564941 22.046244 489.464966
  endloop
 endfacet

 facet normal -0.718554 -0.253408 0.647660
  outer loop
   vertex 87.564941 22.046244 489.464966
   vertex 87.384941 22.111830 489.290924
   vertex 87.568069 21.579454 489.285797
  endloop
 endfacet

 facet normal -0.718501 -0.253390 0.647726
  outer loop
   vertex 87.568069 21.579454 489.285797
   vertex 87.384941 22.111830 489.290924
   vertex 87.388069 21.645041 489.111786
  endloop
 endfacet

 facet normal -0.274529 -0.346126 0.897123
  outer loop
   vertex 87.388069 21.645041 489.111786
   vertex 87.384941 22.111830 489.290924
   vertex 87.136070 22.135838 489.224030
  endloop
 endfacet

 facet normal -0.274527 -0.346125 0.897125
  outer loop
   vertex 87.136070 22.135838 489.224030
   vertex 87.139198 21.669046 489.044891
   vertex 87.388069 21.645041 489.111786
  endloop
 endfacet

 facet normal 0.243048 -0.346124 0.906160
  outer loop
   vertex 86.885017 22.111830 489.282196
   vertex 87.139198 21.669046 489.044891
   vertex 87.136070 22.135838 489.224030
  endloop
 endfacet

 facet normal 0.243045 -0.346125 0.906160
  outer loop
   vertex 86.888145 21.645041 489.103058
   vertex 87.139198 21.669046 489.044891
   vertex 86.885017 22.111830 489.282196
  endloop
 endfacet

 facet normal 0.695471 -0.253383 0.672397
  outer loop
   vertex 86.885017 22.111830 489.282196
   vertex 86.699051 22.046244 489.449829
   vertex 86.888145 21.645041 489.103058
  endloop
 endfacet

 facet normal 0.695471 -0.253383 0.672397
  outer loop
   vertex 86.888145 21.645041 489.103058
   vertex 86.699051 22.046244 489.449829
   vertex 86.702179 21.579454 489.270691
  endloop
 endfacet

 facet normal 0.961564 -0.092739 0.258445
  outer loop
   vertex 86.702179 21.579454 489.270691
   vertex 86.699051 22.046244 489.449829
   vertex 86.627998 21.956652 489.682037
  endloop
 endfacet

 facet normal 0.961556 -0.092764 0.258466
  outer loop
   vertex 86.627998 21.956652 489.682037
   vertex 86.631126 21.489862 489.502869
   vertex 86.702179 21.579454 489.270691
  endloop
 endfacet

 facet normal 0.969995 0.092760 -0.224734
  outer loop
   vertex 86.694031 21.400270 489.737396
   vertex 86.631126 21.489862 489.502869
   vertex 86.627998 21.956652 489.682037
  endloop
 endfacet

endsolid