solid stl file generated from DOUG
 facet normal -0.857222 0.026122 -0.514284
  outer loop
   vertex 20.887245 -99.466522 566.391907
   vertex 20.886787 -98.966034 566.418091
   vertex 21.016302 -99.455162 566.177368
  endloop
 endfacet

 facet normal -0.857157 0.026190 -0.514388
  outer loop
   vertex 21.016302 -99.455162 566.177368
   vertex 20.886787 -98.966034 566.418091
   vertex 21.015844 -98.954681 566.203613
  endloop
 endfacet

 facet normal 0.017513 0.052376 -0.998474
  outer loop
   vertex 21.015844 -98.954681 566.203613
   vertex 21.266850 -99.455162 566.181763
   vertex 21.016302 -99.455162 566.177368
  endloop
 endfacet

 facet normal 0.017513 0.052376 -0.998474
  outer loop
   vertex 21.266392 -98.954681 566.208008
   vertex 21.266850 -99.455162 566.181763
   vertex 21.015844 -98.954681 566.203613
  endloop
 endfacet

 facet normal 0.874609 0.026187 -0.484122
  outer loop
   vertex 21.388342 -99.466522 566.400635
   vertex 21.266850 -99.455162 566.181763
   vertex 21.266392 -98.954681 566.208008
  endloop
 endfacet

 facet normal 0.874608 0.026187 -0.484123
  outer loop
   vertex 21.266392 -98.954681 566.208008
   vertex 21.387884 -98.966034 566.426880
   vertex 21.388342 -99.466522 566.400635
  endloop
 endfacet

 facet normal 0.857158 -0.026190 0.514388
  outer loop
   vertex 21.388342 -99.466522 566.400635
   vertex 21.387884 -98.966034 566.426880
   vertex 21.259285 -99.477882 566.615112
  endloop
 endfacet

 facet normal 0.857158 -0.026190 0.514388
  outer loop
   vertex 21.259285 -99.477882 566.615112
   vertex 21.387884 -98.966034 566.426880
   vertex 21.258827 -98.977394 566.641357
  endloop
 endfacet

 facet normal -0.017270 -0.052375 0.998478
  outer loop
   vertex 21.258827 -98.977394 566.641357
   vertex 21.008738 -99.477882 566.610779
   vertex 21.259285 -99.477882 566.615112
  endloop
 endfacet

 facet normal -0.017513 -0.052254 0.998480
  outer loop
   vertex 21.008280 -98.977394 566.636963
   vertex 21.008738 -99.477882 566.610779
   vertex 21.258827 -98.977394 566.641357
  endloop
 endfacet

 facet normal -0.874609 -0.026128 0.484125
  outer loop
   vertex 20.887245 -99.466522 566.391907
   vertex 21.008738 -99.477882 566.610779
   vertex 21.008280 -98.977394 566.636963
  endloop
 endfacet

 facet normal -0.874609 -0.026128 0.484125
  outer loop
   vertex 21.008280 -98.977394 566.636963
   vertex 20.886787 -98.966034 566.418091
   vertex 20.887245 -99.466522 566.391907
  endloop
 endfacet

 facet normal 0.874609 0.026128 -0.484125
  outer loop
   vertex -0.704048 -98.966034 566.041199
   vertex -0.703590 -99.466522 566.015015
   vertex -0.825540 -98.954681 565.822327
  endloop
 endfacet

 facet normal 0.874609 0.026128 -0.484125
  outer loop
   vertex -0.825540 -98.954681 565.822327
   vertex -0.703590 -99.466522 566.015015
   vertex -0.825082 -99.455162 565.796143
  endloop
 endfacet

 facet normal 0.017270 0.052254 -0.998484
  outer loop
   vertex -0.825082 -99.455162 565.796143
   vertex -1.076087 -98.954681 565.817993
   vertex -0.825540 -98.954681 565.822327
  endloop
 endfacet

 facet normal 0.017513 0.052376 -0.998474
  outer loop
   vertex -1.075630 -99.455162 565.791748
   vertex -1.076087 -98.954681 565.817993
   vertex -0.825082 -99.455162 565.796143
  endloop
 endfacet

 facet normal -0.857157 0.026190 -0.514389
  outer loop
   vertex -1.205144 -98.966034 566.032471
   vertex -1.076087 -98.954681 565.817993
   vertex -1.075630 -99.455162 565.791748
  endloop
 endfacet

 facet normal -0.857157 0.026190 -0.514388
  outer loop
   vertex -1.075630 -99.455162 565.791748
   vertex -1.204687 -99.466522 566.006226
   vertex -1.205144 -98.966034 566.032471
  endloop
 endfacet

 facet normal -0.874609 -0.026187 0.484121
  outer loop
   vertex -1.205144 -98.966034 566.032471
   vertex -1.204687 -99.466522 566.006226
   vertex -1.083652 -98.977394 566.251343
  endloop
 endfacet

 facet normal -0.874609 -0.026187 0.484121
  outer loop
   vertex -1.083652 -98.977394 566.251343
   vertex -1.204687 -99.466522 566.006226
   vertex -1.083194 -99.477882 566.225098
  endloop
 endfacet

 facet normal -0.017513 -0.052375 0.998474
  outer loop
   vertex -1.083194 -99.477882 566.225098
   vertex -0.833105 -98.977394 566.255737
   vertex -1.083652 -98.977394 566.251343
  endloop
 endfacet

 facet normal -0.017513 -0.052375 0.998474
  outer loop
   vertex -0.832647 -99.477882 566.229492
   vertex -0.833105 -98.977394 566.255737
   vertex -1.083194 -99.477882 566.225098
  endloop
 endfacet

 facet normal 0.857222 -0.026184 0.514281
  outer loop
   vertex -0.704048 -98.966034 566.041199
   vertex -0.833105 -98.977394 566.255737
   vertex -0.832647 -99.477882 566.229492
  endloop
 endfacet

 facet normal 0.857157 -0.026127 0.514392
  outer loop
   vertex -0.832647 -99.477882 566.229492
   vertex -0.703590 -99.466522 566.015015
   vertex -0.704048 -98.966034 566.041199
  endloop
 endfacet

 facet normal 0.000918 -0.998629 -0.052342
  outer loop
   vertex -1.075630 -99.455162 565.791748
   vertex -0.825082 -99.455162 565.796143
   vertex -0.954138 -99.466522 566.010620
  endloop
 endfacet

 facet normal 0.000918 -0.998629 -0.052342
  outer loop
   vertex -0.954138 -99.466522 566.010620
   vertex -0.825082 -99.455162 565.796143
   vertex -0.703590 -99.466522 566.015015
  endloop
 endfacet

 facet normal 0.000918 -0.998629 -0.052342
  outer loop
   vertex -0.703590 -99.466522 566.015015
   vertex -0.832647 -99.477882 566.229492
   vertex -0.954138 -99.466522 566.010620
  endloop
 endfacet

 facet normal 0.000905 -0.998629 -0.052335
  outer loop
   vertex 21.008738 -99.477882 566.610779
   vertex 20.887245 -99.466522 566.391907
   vertex 21.137794 -99.466522 566.396240
  endloop
 endfacet

 facet normal 0.000905 -0.998629 -0.052335
  outer loop
   vertex 21.137794 -99.466522 566.396240
   vertex 20.887245 -99.466522 566.391907
   vertex 21.016302 -99.455162 566.177368
  endloop
 endfacet

 facet normal 0.000918 -0.998629 -0.052342
  outer loop
   vertex 21.016302 -99.455162 566.177368
   vertex 21.266850 -99.455162 566.181763
   vertex 21.137794 -99.466522 566.396240
  endloop
 endfacet

 facet normal 0.000918 -0.998629 -0.052342
  outer loop
   vertex 21.266850 -99.455162 566.181763
   vertex 21.388342 -99.466522 566.400635
   vertex 21.137794 -99.466522 566.396240
  endloop
 endfacet

 facet normal 0.000918 -0.998629 -0.052342
  outer loop
   vertex 21.137794 -99.466522 566.396240
   vertex 21.388342 -99.466522 566.400635
   vertex 21.259285 -99.477882 566.615112
  endloop
 endfacet

 facet normal 0.000905 -0.998629 -0.052335
  outer loop
   vertex 21.259285 -99.477882 566.615112
   vertex 21.008738 -99.477882 566.610779
   vertex 21.137794 -99.466522 566.396240
  endloop
 endfacet

 facet normal 0.000918 -0.998629 -0.052342
  outer loop
   vertex -0.832647 -99.477882 566.229492
   vertex -1.083194 -99.477882 566.225098
   vertex -0.954138 -99.466522 566.010620
  endloop
 endfacet

 facet normal 0.000918 -0.998629 -0.052342
  outer loop
   vertex -0.954138 -99.466522 566.010620
   vertex -1.083194 -99.477882 566.225098
   vertex -1.204687 -99.466522 566.006226
  endloop
 endfacet

 facet normal 0.000918 -0.998629 -0.052342
  outer loop
   vertex -1.204687 -99.466522 566.006226
   vertex -1.075630 -99.455162 565.791748
   vertex -0.954138 -99.466522 566.010620
  endloop
 endfacet

 facet normal 0.000914 -0.998630 -0.052328
  outer loop
   vertex 19.668663 -97.467247 567.101440
   vertex 19.690454 -97.401817 565.853149
   vertex 22.659607 -97.467247 567.153687
  endloop
 endfacet

 facet normal 0.000914 -0.998630 -0.052328
  outer loop
   vertex 22.659607 -97.467247 567.153687
   vertex 19.690454 -97.401817 565.853149
   vertex 22.681398 -97.401817 565.905396
  endloop
 endfacet

 facet normal 0.999848 0.000000 0.017454
  outer loop
   vertex 22.681398 -97.401817 565.905396
   vertex 22.658339 -96.080566 567.226318
   vertex 22.659607 -97.467247 567.153687
  endloop
 endfacet

 facet normal 0.999848 0.000000 0.017454
  outer loop
   vertex 22.680130 -96.015137 565.978027
   vertex 22.658339 -96.080566 567.226318
   vertex 22.681398 -97.401817 565.905396
  endloop
 endfacet

 facet normal -0.000913 0.998630 0.052328
  outer loop
   vertex 19.689186 -96.015137 565.925842
   vertex 22.658339 -96.080566 567.226318
   vertex 22.680130 -96.015137 565.978027
  endloop
 endfacet

 facet normal 0.017421 0.052358 -0.998476
  outer loop
   vertex 22.680130 -96.015137 565.978027
   vertex 19.690454 -97.401817 565.853149
   vertex 19.689186 -96.015137 565.925842
  endloop
 endfacet

 facet normal -0.999848 0.000000 -0.017454
  outer loop
   vertex 19.689186 -96.015137 565.925842
   vertex 19.690454 -97.401817 565.853149
   vertex 19.667395 -96.080566 567.174133
  endloop
 endfacet

 facet normal -0.999848 0.000000 -0.017454
  outer loop
   vertex 19.667395 -96.080566 567.174133
   vertex 19.690454 -97.401817 565.853149
   vertex 19.668663 -97.467247 567.101440
  endloop
 endfacet

 facet normal -0.017421 -0.052358 0.998476
  outer loop
   vertex 19.668663 -97.467247 567.101440
   vertex 22.658339 -96.080566 567.226318
   vertex 19.667395 -96.080566 567.174133
  endloop
 endfacet

 facet normal -0.017442 -0.052314 0.998478
  outer loop
   vertex 22.659607 -97.467247 567.153687
   vertex 22.658339 -96.080566 567.226318
   vertex 19.668663 -97.467247 567.101440
  endloop
 endfacet

 facet normal -0.999848 -0.000000 -0.017454
  outer loop
   vertex -2.502728 -96.080566 566.787109
   vertex -2.480938 -96.015137 565.538818
   vertex -2.501460 -97.467247 566.714478
  endloop
 endfacet

 facet normal -0.999848 -0.000000 -0.017454
  outer loop
   vertex -2.501460 -97.467247 566.714478
   vertex -2.480938 -96.015137 565.538818
   vertex -2.479669 -97.401810 565.466187
  endloop
 endfacet

 facet normal 0.000913 -0.998629 -0.052334
  outer loop
   vertex -2.479669 -97.401810 565.466187
   vertex 0.489484 -97.467247 566.766663
   vertex -2.501460 -97.467247 566.714478
  endloop
 endfacet

 facet normal 0.000910 -0.998630 -0.052328
  outer loop
   vertex 0.511275 -97.401817 565.518372
   vertex 0.489484 -97.467247 566.766663
   vertex -2.479669 -97.401810 565.466187
  endloop
 endfacet

 facet normal 0.999848 -0.000000 0.017454
  outer loop
   vertex 0.510006 -96.015137 565.591064
   vertex 0.489484 -97.467247 566.766663
   vertex 0.511275 -97.401817 565.518372
  endloop
 endfacet

 facet normal 0.017441 0.052358 -0.998476
  outer loop
   vertex 0.511275 -97.401817 565.518372
   vertex -2.480938 -96.015137 565.538818
   vertex 0.510006 -96.015137 565.591064
  endloop
 endfacet

 facet normal -0.000914 0.998630 0.052328
  outer loop
   vertex 0.510006 -96.015137 565.591064
   vertex -2.480938 -96.015137 565.538818
   vertex 0.488216 -96.080566 566.839355
  endloop
 endfacet

 facet normal -0.000914 0.998630 0.052328
  outer loop
   vertex 0.488216 -96.080566 566.839355
   vertex -2.480938 -96.015137 565.538818
   vertex -2.502728 -96.080566 566.787109
  endloop
 endfacet

 facet normal -0.017441 -0.052358 0.998476
  outer loop
   vertex -2.502728 -96.080566 566.787109
   vertex 0.489484 -97.467247 566.766663
   vertex 0.488216 -96.080566 566.839355
  endloop
 endfacet

 facet normal -0.017421 -0.052314 0.998479
  outer loop
   vertex -2.501460 -97.467247 566.714478
   vertex 0.489484 -97.467247 566.766663
   vertex -2.502728 -96.080566 566.787109
  endloop
 endfacet

 facet normal 0.017421 0.052315 -0.998479
  outer loop
   vertex 0.511275 -97.401817 565.518372
   vertex -2.479669 -97.401810 565.466187
   vertex -2.480938 -96.015137 565.538818
  endloop
 endfacet

 facet normal 0.017442 0.052314 -0.998478
  outer loop
   vertex 22.681398 -97.401817 565.905396
   vertex 19.690454 -97.401817 565.853149
   vertex 22.680130 -96.015137 565.978027
  endloop
 endfacet

 facet normal 0.999848 -0.000000 0.017454
  outer loop
   vertex 0.510006 -96.015137 565.591064
   vertex 0.488216 -96.080566 566.839355
   vertex 0.489484 -97.467247 566.766663
  endloop
 endfacet

 facet normal -0.000913 0.998630 0.052328
  outer loop
   vertex 19.689186 -96.015137 565.925842
   vertex 19.667395 -96.080566 567.174133
   vertex 22.658339 -96.080566 567.226318
  endloop
 endfacet

 facet normal 0.000914 -0.998629 -0.052338
  outer loop
   vertex 19.885822 -100.241676 567.119934
   vertex 0.273722 -100.235939 566.668152
   vertex 19.887733 -100.235939 567.010498
  endloop
 endfacet

 facet normal 0.014565 -0.550874 -0.834461
  outer loop
   vertex 19.887733 -100.235939 567.010498
   vertex 0.273722 -100.235939 566.668152
   vertex 19.889130 -100.114693 566.930481
  endloop
 endfacet

 facet normal 0.014389 -0.568308 -0.822690
  outer loop
   vertex 1.046378 -100.219505 565.237488
   vertex -0.111120 -100.133156 565.157593
   vertex 1.047419 -100.133156 565.177856
  endloop
 endfacet

 facet normal 0.017464 0.052367 -0.998475
  outer loop
   vertex 1.047419 -100.133156 565.177856
   vertex -0.111120 -100.133156 565.157593
   vertex -0.111889 -99.292679 565.201660
  endloop
 endfacet

 facet normal -0.017464 -0.052295 0.998479
  outer loop
   vertex 20.295305 -99.379715 567.218872
   vertex 19.137535 -100.220192 567.154602
   vertex 20.296074 -100.220192 567.174866
  endloop
 endfacet

 facet normal -0.013274 -0.651028 0.758937
  outer loop
   vertex 20.296074 -100.220192 567.174866
   vertex 19.137535 -100.220192 567.154602
   vertex 19.138729 -100.299835 567.086304
  endloop
 endfacet

 facet normal -0.013482 -0.634973 0.772417
  outer loop
   vertex 0.295655 -100.053024 565.411682
   vertex 0.297265 -100.165245 565.319458
   vertex 19.911276 -100.165245 565.661804
  endloop
 endfacet

 facet normal 0.000914 -0.998629 -0.052338
  outer loop
   vertex 19.911276 -100.165245 565.661804
   vertex 0.297265 -100.165245 565.319458
   vertex 19.913187 -100.159508 565.552368
  endloop
 endfacet

 facet normal -0.005405 -0.950823 0.309688
  outer loop
   vertex 0.271693 -99.472244 566.784363
   vertex 19.885704 -99.472244 567.126709
   vertex 0.271097 -99.461128 566.818481
  endloop
 endfacet

 facet normal -0.005395 -0.951048 0.308997
  outer loop
   vertex 0.271097 -99.461128 566.818481
   vertex 19.885704 -99.472244 567.126709
   vertex 19.885109 -99.461136 567.160889
  endloop
 endfacet

 facet normal -0.017430 -0.052731 0.998457
  outer loop
   vertex 19.885109 -99.461136 567.160889
   vertex 0.271033 -99.390610 566.822205
   vertex 0.271097 -99.461128 566.818481
  endloop
 endfacet

 facet normal -0.999848 0.000006 -0.017453
  outer loop
   vertex -0.140106 -100.220192 566.818115
   vertex -0.135976 -100.192192 566.581543
   vertex -0.138913 -100.299835 566.749756
  endloop
 endfacet

 facet normal -0.999848 -0.000001 -0.017457
  outer loop
   vertex -0.138913 -100.299835 566.749756
   vertex -0.135976 -100.192192 566.581543
   vertex -0.136142 -100.291519 566.591064
  endloop
 endfacet

 facet normal 0.000915 -0.998630 -0.052316
  outer loop
   vertex -0.136142 -100.291519 566.591064
   vertex 1.019626 -100.299835 566.770020
   vertex -0.138913 -100.299835 566.749756
  endloop
 endfacet

 facet normal 0.999848 -0.000007 0.017452
  outer loop
   vertex 20.325060 -100.133156 565.514343
   vertex 20.320902 -100.130035 565.752563
   vertex 20.324018 -100.219505 565.573975
  endloop
 endfacet

 facet normal 0.999848 0.000011 0.017443
  outer loop
   vertex 20.324018 -100.219505 565.573975
   vertex 20.320902 -100.130035 565.752563
   vertex 20.321249 -100.227829 565.732727
  endloop
 endfacet

 facet normal 0.000913 -0.998629 -0.052344
  outer loop
   vertex 20.321249 -100.227829 565.732727
   vertex 19.165480 -100.219505 565.553772
   vertex 20.324018 -100.219505 565.573975
  endloop
 endfacet

 facet normal 0.999848 0.000002 0.017457
  outer loop
   vertex 1.043607 -100.227821 565.396179
   vertex 1.046378 -100.219505 565.237488
   vertex 1.043261 -100.130035 565.416016
  endloop
 endfacet

 facet normal 0.999848 0.000002 0.017457
  outer loop
   vertex 1.043261 -100.130035 565.416016
   vertex 1.046378 -100.219505 565.237488
   vertex 1.047419 -100.133156 565.177856
  endloop
 endfacet

 facet normal 0.999848 0.000001 0.017457
  outer loop
   vertex 1.047419 -100.133156 565.177856
   vertex 1.046650 -99.292679 565.221863
   vertex 1.043261 -100.130035 565.416016
  endloop
 endfacet

 facet normal 0.017412 0.052295 -0.998480
  outer loop
   vertex -0.111889 -99.292679 565.201660
   vertex 1.046650 -99.292679 565.221863
   vertex 1.047419 -100.133156 565.177856
  endloop
 endfacet

 facet normal -0.013481 -0.635224 0.772211
  outer loop
   vertex 19.911276 -100.165245 565.661804
   vertex 19.909666 -100.053024 565.754089
   vertex 0.295655 -100.053024 565.411682
  endloop
 endfacet

 facet normal 0.000914 -0.998629 -0.052334
  outer loop
   vertex 0.295655 -100.053024 565.411682
   vertex 19.909666 -100.053024 565.754089
   vertex 19.889130 -100.114693 566.930481
  endloop
 endfacet

 facet normal 0.000913 -0.998629 -0.052331
  outer loop
   vertex 19.889130 -100.114693 566.930481
   vertex 0.275119 -100.114693 566.588135
   vertex 0.295655 -100.053024 565.411682
  endloop
 endfacet

 facet normal 0.014565 -0.550874 -0.834461
  outer loop
   vertex 0.273722 -100.235939 566.668152
   vertex 0.275119 -100.114693 566.588135
   vertex 19.889130 -100.114693 566.930481
  endloop
 endfacet

 facet normal -0.017411 -0.052367 0.998476
  outer loop
   vertex 20.295305 -99.379715 567.218872
   vertex 19.136766 -99.379715 567.198669
   vertex 19.137535 -100.220192 567.154602
  endloop
 endfacet

 facet normal -0.999848 0.000001 -0.017452
  outer loop
   vertex 19.137535 -100.220192 567.154602
   vertex 19.136766 -99.379715 567.198669
   vertex 19.141665 -100.192192 566.918030
  endloop
 endfacet

 facet normal -0.999848 -0.000021 -0.017455
  outer loop
   vertex 19.141665 -100.192192 566.918030
   vertex 19.138729 -100.299835 567.086304
   vertex 19.137535 -100.220192 567.154602
  endloop
 endfacet

 facet normal -0.999848 -0.000002 -0.017443
  outer loop
   vertex 19.141499 -100.291519 566.927551
   vertex 19.138729 -100.299835 567.086304
   vertex 19.141665 -100.192192 566.918030
  endloop
 endfacet

 facet normal -0.007107 0.913308 0.407208
  outer loop
   vertex 19.886265 -100.084930 567.094604
   vertex 0.272254 -100.084930 566.752258
   vertex 19.885693 -100.099548 567.127380
  endloop
 endfacet

 facet normal -0.007107 0.913308 0.407208
  outer loop
   vertex 19.885693 -100.099548 567.127380
   vertex 0.272254 -100.084930 566.752258
   vertex 0.271681 -100.099548 566.785034
  endloop
 endfacet

 facet normal -0.017428 -0.052328 0.998478
  outer loop
   vertex 0.271681 -100.099548 566.785034
   vertex 19.885822 -100.241676 567.119934
   vertex 19.885693 -100.099548 567.127380
  endloop
 endfacet

 facet normal -0.017428 -0.052328 0.998478
  outer loop
   vertex 0.271811 -100.241676 566.777588
   vertex 19.885822 -100.241676 567.119934
   vertex 0.271681 -100.099548 566.785034
  endloop
 endfacet

 facet normal 0.000914 -0.998629 -0.052338
  outer loop
   vertex 0.273722 -100.235939 566.668152
   vertex 19.885822 -100.241676 567.119934
   vertex 0.271811 -100.241676 566.777588
  endloop
 endfacet

 facet normal 0.000908 -0.998630 -0.052327
  outer loop
   vertex 21.701437 -99.015579 566.988037
   vertex 20.072960 -98.957222 565.846069
   vertex 21.720871 -98.957230 565.874817
  endloop
 endfacet

 facet normal 0.017419 0.052328 -0.998478
  outer loop
   vertex 21.720871 -98.957230 565.874817
   vertex 20.072960 -98.957222 565.846069
   vertex 21.719463 -97.418289 565.955444
  endloop
 endfacet

 facet normal 0.999848 0.000000 0.017454
  outer loop
   vertex 21.719463 -97.418289 565.955444
   vertex 21.700029 -97.476639 567.068726
   vertex 21.720871 -98.957230 565.874817
  endloop
 endfacet

 facet normal -0.000913 0.998630 0.052325
  outer loop
   vertex 20.071552 -97.418289 565.926697
   vertex 21.700029 -97.476639 567.068726
   vertex 21.719463 -97.418289 565.955444
  endloop
 endfacet

 facet normal -0.000915 0.998630 0.052327
  outer loop
   vertex 20.052120 -97.476639 567.039917
   vertex 21.700029 -97.476639 567.068726
   vertex 20.071552 -97.418289 565.926697
  endloop
 endfacet

 facet normal -0.999848 -0.000000 -0.017453
  outer loop
   vertex 20.071552 -97.418289 565.926697
   vertex 20.072960 -98.957222 565.846069
   vertex 20.052120 -97.476639 567.039917
  endloop
 endfacet

 facet normal -0.999848 -0.000000 -0.017453
  outer loop
   vertex 20.052120 -97.476639 567.039917
   vertex 20.072960 -98.957222 565.846069
   vertex 20.053528 -99.015579 566.959290
  endloop
 endfacet

 facet normal 0.000913 -0.998629 -0.052334
  outer loop
   vertex 20.053528 -99.015579 566.959290
   vertex 20.072960 -98.957222 565.846069
   vertex 21.701437 -99.015579 566.988037
  endloop
 endfacet

 facet normal -0.017418 -0.052367 0.998476
  outer loop
   vertex 21.701437 -99.015579 566.988037
   vertex 21.700029 -97.476639 567.068726
   vertex 20.053528 -99.015579 566.959290
  endloop
 endfacet

 facet normal 0.999848 -0.000001 0.017455
  outer loop
   vertex 21.720871 -98.957230 565.874817
   vertex 21.700029 -97.476639 567.068726
   vertex 21.701437 -99.015579 566.988037
  endloop
 endfacet

 facet normal -0.017418 -0.052328 0.998478
  outer loop
   vertex -1.538093 -99.015579 566.582397
   vertex 0.109817 -99.015579 566.611145
   vertex -1.539501 -97.476639 566.663025
  endloop
 endfacet

 facet normal -0.017418 -0.052328 0.998478
  outer loop
   vertex -1.539501 -97.476639 566.663025
   vertex 0.109817 -99.015579 566.611145
   vertex 0.108409 -97.476639 566.691772
  endloop
 endfacet

 facet normal -0.000913 0.998630 0.052327
  outer loop
   vertex 0.108409 -97.476639 566.691772
   vertex -1.520068 -97.418289 565.549805
   vertex -1.539501 -97.476639 566.663025
  endloop
 endfacet

 facet normal -0.000913 0.998630 0.052327
  outer loop
   vertex 0.127842 -97.418289 565.578552
   vertex -1.520068 -97.418289 565.549805
   vertex 0.108409 -97.476639 566.691772
  endloop
 endfacet

 facet normal 0.017418 0.052328 -0.998478
  outer loop
   vertex 0.129249 -98.957222 565.497925
   vertex -1.520068 -97.418289 565.549805
   vertex 0.127842 -97.418289 565.578552
  endloop
 endfacet

 facet normal 0.999848 0.000000 0.017454
  outer loop
   vertex 0.127842 -97.418289 565.578552
   vertex 0.109817 -99.015579 566.611145
   vertex 0.129249 -98.957222 565.497925
  endloop
 endfacet

 facet normal 0.000915 -0.998629 -0.052334
  outer loop
   vertex 0.129249 -98.957222 565.497925
   vertex 0.109817 -99.015579 566.611145
   vertex -1.518661 -98.957222 565.469116
  endloop
 endfacet

 facet normal 0.000913 -0.998629 -0.052331
  outer loop
   vertex -1.518661 -98.957222 565.469116
   vertex 0.109817 -99.015579 566.611145
   vertex -1.538093 -99.015579 566.582397
  endloop
 endfacet

 facet normal -0.999848 0.000001 -0.017453
  outer loop
   vertex -1.538093 -99.015579 566.582397
   vertex -1.520068 -97.418289 565.549805
   vertex -1.518661 -98.957222 565.469116
  endloop
 endfacet

 facet normal -0.999848 -0.000000 -0.017454
  outer loop
   vertex -1.539501 -97.476639 566.663025
   vertex -1.520068 -97.418289 565.549805
   vertex -1.538093 -99.015579 566.582397
  endloop
 endfacet

 facet normal -0.000912 0.998630 0.052318
  outer loop
   vertex 23.154259 -98.359169 566.239136
   vertex 22.804312 -98.359169 566.233032
   vertex 22.795597 -98.385330 566.732239
  endloop
 endfacet

 facet normal 0.000943 -0.998630 -0.052317
  outer loop
   vertex 22.795597 -98.385330 566.732239
   vertex 22.804312 -98.359169 566.233032
   vertex 22.974928 -98.372246 566.485718
  endloop
 endfacet

 facet normal 0.000913 -0.998629 -0.052339
  outer loop
   vertex 22.974928 -98.372246 566.485718
   vertex 23.145544 -98.385330 566.738342
   vertex 22.795597 -98.385330 566.732239
  endloop
 endfacet

 facet normal 0.000882 -0.998630 -0.052318
  outer loop
   vertex 23.154259 -98.359169 566.239136
   vertex 23.145544 -98.385330 566.738342
   vertex 22.974928 -98.372246 566.485718
  endloop
 endfacet

 facet normal 0.999848 -0.000001 0.017454
  outer loop
   vertex 23.144630 -97.386703 566.790710
   vertex 23.145544 -98.385330 566.738342
   vertex 23.154259 -98.359169 566.239136
  endloop
 endfacet

 facet normal 0.999848 0.000001 0.017452
  outer loop
   vertex 23.154259 -98.359169 566.239136
   vertex 23.153345 -97.360535 566.291443
   vertex 23.144630 -97.386703 566.790710
  endloop
 endfacet

 facet normal -0.000913 0.998630 0.052327
  outer loop
   vertex 23.144630 -97.386703 566.790710
   vertex 23.153345 -97.360535 566.291443
   vertex 21.444889 -97.386703 566.761047
  endloop
 endfacet

 facet normal -0.000913 0.998630 0.052327
  outer loop
   vertex 21.444889 -97.386703 566.761047
   vertex 23.153345 -97.360535 566.291443
   vertex 21.453604 -97.360535 566.261780
  endloop
 endfacet

 facet normal -0.999848 -0.000001 -0.017452
  outer loop
   vertex 21.453604 -97.360535 566.261780
   vertex 21.454517 -98.359161 566.209473
   vertex 21.444889 -97.386703 566.761047
  endloop
 endfacet

 facet normal 0.017358 0.052315 -0.998480
  outer loop
   vertex 21.871212 -98.109505 566.229797
   vertex 21.454517 -98.359161 566.209473
   vertex 21.453604 -97.360535 566.261780
  endloop
 endfacet

 facet normal 0.017416 0.052219 -0.998484
  outer loop
   vertex 21.804464 -98.359169 566.215576
   vertex 21.454517 -98.359161 566.209473
   vertex 21.871212 -98.109505 566.229797
  endloop
 endfacet

 facet normal -0.017431 -0.052315 0.998478
  outer loop
   vertex -1.690016 -98.135674 566.317932
   vertex -1.272864 -98.385330 566.312134
   vertex -1.273777 -97.386703 566.364441
  endloop
 endfacet

 facet normal 0.999848 0.000000 0.017453
  outer loop
   vertex -1.273777 -97.386703 566.364441
   vertex -1.272864 -98.385330 566.312134
   vertex -1.265062 -97.360535 565.865173
  endloop
 endfacet

 facet normal -0.000913 0.998630 0.052327
  outer loop
   vertex -1.265062 -97.360535 565.865173
   vertex -2.973519 -97.386703 566.334778
   vertex -1.273777 -97.386703 566.364441
  endloop
 endfacet

 facet normal -0.000913 0.998630 0.052327
  outer loop
   vertex -2.964804 -97.360535 565.835510
   vertex -2.973519 -97.386703 566.334778
   vertex -1.265062 -97.360535 565.865173
  endloop
 endfacet

 facet normal -0.999848 0.000001 -0.017452
  outer loop
   vertex -2.972605 -98.385330 566.282410
   vertex -2.973519 -97.386703 566.334778
   vertex -2.964804 -97.360535 565.835510
  endloop
 endfacet

 facet normal -0.999848 -0.000000 -0.017454
  outer loop
   vertex -2.964804 -97.360535 565.835510
   vertex -2.963891 -98.359161 565.783203
   vertex -2.972605 -98.385330 566.282410
  endloop
 endfacet

 facet normal 0.000922 -0.998629 -0.052333
  outer loop
   vertex -2.972605 -98.385330 566.282410
   vertex -2.963891 -98.359161 565.783203
   vertex -2.793274 -98.372246 566.035889
  endloop
 endfacet

 facet normal 0.000913 -0.998630 -0.052327
  outer loop
   vertex -2.793274 -98.372246 566.035889
   vertex -2.963891 -98.359161 565.783203
   vertex -2.613943 -98.359161 565.789307
  endloop
 endfacet

 facet normal 0.000913 -0.998630 -0.052327
  outer loop
   vertex -2.613943 -98.359161 565.789307
   vertex -2.622658 -98.385330 566.288574
   vertex -2.793274 -98.372246 566.035889
  endloop
 endfacet

 facet normal -0.000922 0.998630 0.052327
  outer loop
   vertex -2.972605 -98.385330 566.282410
   vertex -2.622658 -98.385330 566.288574
   vertex -2.613943 -98.359161 565.789307
  endloop
 endfacet

 facet normal 0.000922 -0.998629 -0.052333
  outer loop
   vertex -2.793274 -98.372246 566.035889
   vertex -2.622658 -98.385330 566.288574
   vertex -2.972605 -98.385330 566.282410
  endloop
 endfacet

 facet normal 0.000913 -0.998631 -0.052309
  outer loop
   vertex 0.297265 -100.165245 565.319458
   vertex 0.299176 -100.159508 565.209961
   vertex 19.913187 -100.159508 565.552368
  endloop
 endfacet

 facet normal 0.017431 0.052328 -0.998478
  outer loop
   vertex 19.913187 -100.159508 565.552368
   vertex 0.299176 -100.159508 565.209961
   vertex 0.299046 -100.017380 565.217407
  endloop
 endfacet

 facet normal 0.017431 0.052328 -0.998478
  outer loop
   vertex 0.299046 -100.017380 565.217407
   vertex 19.913057 -100.017380 565.559814
   vertex 19.913187 -100.159508 565.552368
  endloop
 endfacet

 facet normal 0.005394 0.951048 -0.308997
  outer loop
   vertex 0.298450 -100.006271 565.251587
   vertex 19.913057 -100.017380 565.559814
   vertex 0.299046 -100.017380 565.217407
  endloop
 endfacet

 facet normal 0.005402 0.950885 -0.309496
  outer loop
   vertex 19.912460 -100.006271 565.593933
   vertex 19.913057 -100.017380 565.559814
   vertex 0.298450 -100.006271 565.251587
  endloop
 endfacet

 facet normal 0.017428 0.052335 -0.998478
  outer loop
   vertex 0.298450 -100.006271 565.251587
   vertex 0.297889 -99.393578 565.283691
   vertex 19.912460 -100.006271 565.593933
  endloop
 endfacet

 facet normal 0.017428 0.052336 -0.998477
  outer loop
   vertex 19.912460 -100.006271 565.593933
   vertex 0.297889 -99.393578 565.283691
   vertex 19.911900 -99.393585 565.626038
  endloop
 endfacet

 facet normal 0.007107 -0.913308 -0.407208
  outer loop
   vertex 19.911900 -99.393585 565.626038
   vertex 0.297889 -99.393578 565.283691
   vertex 0.298462 -99.378960 565.250916
  endloop
 endfacet

 facet normal 0.007107 -0.913308 -0.407207
  outer loop
   vertex 0.298462 -99.378960 565.250916
   vertex 19.912474 -99.378967 565.593262
   vertex 19.911900 -99.393585 565.626038
  endloop
 endfacet

 facet normal 0.017428 0.051869 -0.998502
  outer loop
   vertex 0.298397 -99.308441 565.254578
   vertex 19.912474 -99.378967 565.593262
   vertex 0.298462 -99.378960 565.250916
  endloop
 endfacet

 facet normal 0.017430 0.052726 -0.998457
  outer loop
   vertex 19.912409 -99.308441 565.596985
   vertex 19.912474 -99.378967 565.593262
   vertex 0.298397 -99.308441 565.254578
  endloop
 endfacet

 facet normal -0.000914 0.998630 0.052328
  outer loop
   vertex 0.298397 -99.308441 565.254578
   vertex 0.271033 -99.390610 566.822205
   vertex 19.912409 -99.308441 565.596985
  endloop
 endfacet

 facet normal -0.000913 0.998629 0.052330
  outer loop
   vertex 19.912409 -99.308441 565.596985
   vertex 0.271033 -99.390610 566.822205
   vertex 19.885044 -99.390610 567.164551
  endloop
 endfacet

 facet normal -0.017428 -0.051864 0.998502
  outer loop
   vertex 19.885044 -99.390610 567.164551
   vertex 0.271033 -99.390610 566.822205
   vertex 19.885109 -99.461136 567.160889
  endloop
 endfacet

 facet normal -0.017467 -0.052376 0.998475
  outer loop
   vertex 21.862497 -98.135674 566.729065
   vertex 21.444889 -97.386703 566.761047
   vertex 21.445803 -98.385330 566.708679
  endloop
 endfacet

 facet normal -0.999848 0.000001 -0.017454
  outer loop
   vertex 21.445803 -98.385330 566.708679
   vertex 21.444889 -97.386703 566.761047
   vertex 21.454517 -98.359161 566.209473
  endloop
 endfacet

 facet normal 0.000913 -0.998629 -0.052333
  outer loop
   vertex 21.454517 -98.359161 566.209473
   vertex 21.795750 -98.385330 566.714783
   vertex 21.445803 -98.385330 566.708679
  endloop
 endfacet

 facet normal 0.000891 -0.998630 -0.052318
  outer loop
   vertex 21.804464 -98.359169 566.215576
   vertex 21.795750 -98.385330 566.714783
   vertex 21.454517 -98.359161 566.209473
  endloop
 endfacet

 facet normal -0.000891 0.998630 0.052318
  outer loop
   vertex 21.454517 -98.359161 566.209473
   vertex 21.795750 -98.385330 566.714783
   vertex 21.804464 -98.359169 566.215576
  endloop
 endfacet

 facet normal 0.017416 0.052289 -0.998480
  outer loop
   vertex 21.804464 -98.359169 566.215576
   vertex 21.871670 -98.608826 566.203674
   vertex 21.454517 -98.359161 566.209473
  endloop
 endfacet

 facet normal 0.017466 0.052373 -0.998475
  outer loop
   vertex 21.454517 -98.359161 566.209473
   vertex 21.871670 -98.608826 566.203674
   vertex 21.568768 -98.783585 566.189209
  endloop
 endfacet

 facet normal 0.017414 0.052463 -0.998471
  outer loop
   vertex 21.568768 -98.783585 566.189209
   vertex 21.871670 -98.608826 566.203674
   vertex 22.054821 -98.791588 566.197266
  endloop
 endfacet

 facet normal 0.017413 0.052365 -0.998476
  outer loop
   vertex 22.054821 -98.791588 566.197266
   vertex 21.880125 -99.094276 566.178345
   vertex 21.568768 -98.783585 566.189209
  endloop
 endfacet

 facet normal 0.017421 0.052359 -0.998476
  outer loop
   vertex 22.304844 -98.858482 566.198120
   vertex 21.880125 -99.094276 566.178345
   vertex 22.054821 -98.791588 566.197266
  endloop
 endfacet

 facet normal 0.017441 0.052324 -0.998478
  outer loop
   vertex 22.305164 -99.208000 566.179810
   vertex 21.880125 -99.094276 566.178345
   vertex 22.304844 -98.858482 566.198120
  endloop
 endfacet

 facet normal 0.017452 0.052324 -0.998478
  outer loop
   vertex 22.304844 -98.858482 566.198120
   vertex 22.554745 -98.791588 566.205994
   vertex 22.305164 -99.208000 566.179810
  endloop
 endfacet

 facet normal 0.017400 0.052355 -0.998477
  outer loop
   vertex 22.305164 -99.208000 566.179810
   vertex 22.554745 -98.791588 566.205994
   vertex 22.729998 -99.094276 566.193176
  endloop
 endfacet

 facet normal 0.017356 0.052330 -0.998479
  outer loop
   vertex 22.729998 -99.094276 566.193176
   vertex 22.554745 -98.791588 566.205994
   vertex 22.737564 -98.608826 566.218750
  endloop
 endfacet

 facet normal 0.017496 0.052327 -0.998477
  outer loop
   vertex 22.737564 -98.608826 566.218750
   vertex 23.040787 -98.783585 566.214905
   vertex 22.729998 -99.094276 566.193176
  endloop
 endfacet

 facet normal 0.017554 0.052427 -0.998470
  outer loop
   vertex 22.804312 -98.359169 566.233032
   vertex 23.040787 -98.783585 566.214905
   vertex 22.737564 -98.608826 566.218750
  endloop
 endfacet

 facet normal 0.017415 0.052350 -0.998477
  outer loop
   vertex 23.154259 -98.359169 566.239136
   vertex 23.040787 -98.783585 566.214905
   vertex 22.804312 -98.359169 566.233032
  endloop
 endfacet

 facet normal 0.017415 0.052287 -0.998480
  outer loop
   vertex 22.804312 -98.359169 566.233032
   vertex 22.737106 -98.109505 566.244934
   vertex 23.154259 -98.359169 566.239136
  endloop
 endfacet

 facet normal 0.017432 0.052315 -0.998478
  outer loop
   vertex 23.154259 -98.359169 566.239136
   vertex 22.737106 -98.109505 566.244934
   vertex 23.153345 -97.360535 566.291443
  endloop
 endfacet

 facet normal 0.017539 0.052255 -0.998480
  outer loop
   vertex 23.153345 -97.360535 566.291443
   vertex 22.737106 -98.109505 566.244934
   vertex 22.553955 -97.926743 566.251282
  endloop
 endfacet

 facet normal 0.017425 0.052375 -0.998475
  outer loop
   vertex 22.553955 -97.926743 566.251282
   vertex 22.303930 -97.859848 566.250427
   vertex 23.153345 -97.360535 566.291443
  endloop
 endfacet

 facet normal 0.017431 0.052315 -0.998478
  outer loop
   vertex -1.681301 -98.109505 565.818665
   vertex -1.265062 -97.360535 565.865173
   vertex -1.264149 -98.359161 565.812866
  endloop
 endfacet

 facet normal 0.999848 0.000000 0.017453
  outer loop
   vertex -1.264149 -98.359161 565.812866
   vertex -1.265062 -97.360535 565.865173
   vertex -1.272864 -98.385330 566.312134
  endloop
 endfacet

 facet normal 0.000913 -0.998630 -0.052327
  outer loop
   vertex -1.272864 -98.385330 566.312134
   vertex -1.614096 -98.359161 565.806763
   vertex -1.264149 -98.359161 565.812866
  endloop
 endfacet

 facet normal 0.000913 -0.998630 -0.052327
  outer loop
   vertex -1.622810 -98.385330 566.306030
   vertex -1.614096 -98.359161 565.806763
   vertex -1.272864 -98.385330 566.312134
  endloop
 endfacet

 facet normal -0.000913 0.998630 0.052327
  outer loop
   vertex -1.272864 -98.385330 566.312134
   vertex -1.614096 -98.359161 565.806763
   vertex -1.622810 -98.385330 566.306030
  endloop
 endfacet

 facet normal -0.017415 -0.052464 0.998471
  outer loop
   vertex -1.622810 -98.385330 566.306030
   vertex -1.689559 -98.634987 566.291748
   vertex -1.272864 -98.385330 566.312134
  endloop
 endfacet

 facet normal -0.017497 -0.052326 0.998477
  outer loop
   vertex -1.272864 -98.385330 566.312134
   vertex -1.689559 -98.634987 566.291748
   vertex -1.386337 -98.809753 566.287903
  endloop
 endfacet

 facet normal -0.017447 -0.052239 0.998482
  outer loop
   vertex -1.386337 -98.809753 566.287903
   vertex -1.689559 -98.634987 566.291748
   vertex -1.872377 -98.817749 566.278992
  endloop
 endfacet

 facet normal -0.017445 -0.052379 0.998475
  outer loop
   vertex -1.872377 -98.817749 566.278992
   vertex -1.697127 -99.120445 566.266174
   vertex -1.386337 -98.809753 566.287903
  endloop
 endfacet

 facet normal -0.017438 -0.052376 0.998475
  outer loop
   vertex -2.122278 -98.884644 566.271118
   vertex -1.697127 -99.120445 566.266174
   vertex -1.872377 -98.817749 566.278992
  endloop
 endfacet

 facet normal -0.017409 -0.052323 0.998478
  outer loop
   vertex -2.121958 -99.234169 566.252808
   vertex -1.697127 -99.120445 566.266174
   vertex -2.122278 -98.884644 566.271118
  endloop
 endfacet

 facet normal -0.017412 -0.052323 0.998478
  outer loop
   vertex -2.122278 -98.884644 566.271118
   vertex -2.372301 -98.817749 566.270264
   vertex -2.121958 -99.234169 566.252808
  endloop
 endfacet

 facet normal -0.017446 -0.052344 0.998477
  outer loop
   vertex -2.121958 -99.234169 566.252808
   vertex -2.372301 -98.817749 566.270264
   vertex -2.546999 -99.120445 566.251343
  endloop
 endfacet

 facet normal -0.017561 -0.052278 0.998478
  outer loop
   vertex -2.546999 -99.120445 566.251343
   vertex -2.372301 -98.817749 566.270264
   vertex -2.555453 -98.634987 566.276611
  endloop
 endfacet

 facet normal -0.017322 -0.052274 0.998483
  outer loop
   vertex -2.555453 -98.634987 566.276611
   vertex -2.858356 -98.809753 566.262207
   vertex -2.546999 -99.120445 566.251343
  endloop
 endfacet

 facet normal -0.017205 -0.052476 0.998474
  outer loop
   vertex -2.622658 -98.385330 566.288574
   vertex -2.858356 -98.809753 566.262207
   vertex -2.555453 -98.634987 566.276611
  endloop
 endfacet

 facet normal -0.017589 -0.052262 0.998478
  outer loop
   vertex -2.972605 -98.385330 566.282410
   vertex -2.858356 -98.809753 566.262207
   vertex -2.622658 -98.385330 566.288574
  endloop
 endfacet

 facet normal -0.017589 -0.052174 0.998483
  outer loop
   vertex -2.622658 -98.385330 566.288574
   vertex -2.555910 -98.135674 566.302795
   vertex -2.972605 -98.385330 566.282410
  endloop
 endfacet

 facet normal -0.017467 -0.052376 0.998475
  outer loop
   vertex -2.972605 -98.385330 566.282410
   vertex -2.555910 -98.135674 566.302795
   vertex -2.973519 -97.386703 566.334778
  endloop
 endfacet

 facet normal -0.017366 -0.052320 0.998479
  outer loop
   vertex -2.973519 -97.386703 566.334778
   vertex -2.555910 -98.135674 566.302795
   vertex -2.373092 -97.952911 566.315552
  endloop
 endfacet

 facet normal -0.017434 -0.052392 0.998474
  outer loop
   vertex -2.373092 -97.952911 566.315552
   vertex -2.123191 -97.886017 566.323425
   vertex -2.973519 -97.386703 566.334778
  endloop
 endfacet

 facet normal 0.015086 0.501369 -0.865102
  outer loop
   vertex -0.111889 -99.292679 565.201660
   vertex -0.116717 -98.815247 565.478271
   vertex 1.046650 -99.292679 565.221863
  endloop
 endfacet

 facet normal 0.015086 0.501369 -0.865102
  outer loop
   vertex 1.046650 -99.292679 565.221863
   vertex -0.116717 -98.815247 565.478271
   vertex 1.041821 -98.815247 565.498474
  endloop
 endfacet

 facet normal 0.999848 0.000001 0.017453
  outer loop
   vertex 1.041821 -98.815247 565.498474
   vertex 1.021596 -98.875977 566.657166
   vertex 1.046650 -99.292679 565.221863
  endloop
 endfacet

 facet normal -0.000912 0.998630 0.052325
  outer loop
   vertex -0.116717 -98.815247 565.478271
   vertex 1.021596 -98.875977 566.657166
   vertex 1.041821 -98.815247 565.498474
  endloop
 endfacet

 facet normal -0.000912 0.998630 0.052325
  outer loop
   vertex -0.136943 -98.875977 566.636963
   vertex 1.021596 -98.875977 566.657166
   vertex -0.116717 -98.815247 565.478271
  endloop
 endfacet

 facet normal -0.999848 0.000002 -0.017453
  outer loop
   vertex -0.116717 -98.815247 565.478271
   vertex -0.140875 -99.379715 566.862122
   vertex -0.136943 -98.875977 566.636963
  endloop
 endfacet

 facet normal -0.015917 0.408119 0.912790
  outer loop
   vertex -0.136943 -98.875977 566.636963
   vertex -0.140875 -99.379715 566.862122
   vertex 1.021596 -98.875977 566.657166
  endloop
 endfacet

 facet normal -0.015965 0.408211 0.912748
  outer loop
   vertex 1.021596 -98.875977 566.657166
   vertex -0.140875 -99.379715 566.862122
   vertex 1.017664 -99.379715 566.882385
  endloop
 endfacet

 facet normal 0.999848 0.000000 0.017453
  outer loop
   vertex 1.017664 -99.379715 566.882385
   vertex 1.046650 -99.292679 565.221863
   vertex 1.021596 -98.875977 566.657166
  endloop
 endfacet

 facet normal 0.999848 -0.000000 0.017453
  outer loop
   vertex 1.022563 -100.192192 566.601746
   vertex 1.046650 -99.292679 565.221863
   vertex 1.017664 -99.379715 566.882385
  endloop
 endfacet

 facet normal 0.999848 -0.000000 0.017453
  outer loop
   vertex 1.043261 -100.130035 565.416016
   vertex 1.046650 -99.292679 565.221863
   vertex 1.022563 -100.192192 566.601746
  endloop
 endfacet

 facet normal 0.000913 -0.998629 -0.052333
  outer loop
   vertex 1.022563 -100.192192 566.601746
   vertex -0.115278 -100.130035 565.395813
   vertex 1.043261 -100.130035 565.416016
  endloop
 endfacet

 facet normal -0.017087 -0.198835 0.979884
  outer loop
   vertex 1.043261 -100.130035 565.416016
   vertex -0.115278 -100.130035 565.395813
   vertex 1.043607 -100.227821 565.396179
  endloop
 endfacet

 facet normal -0.017087 -0.198835 0.979884
  outer loop
   vertex 1.043607 -100.227821 565.396179
   vertex -0.115278 -100.130035 565.395813
   vertex -0.114932 -100.227821 565.375977
  endloop
 endfacet

 facet normal 0.000912 -0.998630 -0.052316
  outer loop
   vertex -0.114932 -100.227821 565.375977
   vertex 1.046378 -100.219505 565.237488
   vertex 1.043607 -100.227821 565.396179
  endloop
 endfacet

 facet normal 0.000915 -0.998631 -0.052296
  outer loop
   vertex -0.112161 -100.219505 565.217224
   vertex 1.046378 -100.219505 565.237488
   vertex -0.114932 -100.227821 565.375977
  endloop
 endfacet

 facet normal 0.014389 -0.568308 -0.822690
  outer loop
   vertex -0.111120 -100.133156 565.157593
   vertex 1.046378 -100.219505 565.237488
   vertex -0.112161 -100.219505 565.217224
  endloop
 endfacet

 facet normal -0.999848 0.000001 -0.017452
  outer loop
   vertex -0.112161 -100.219505 565.217224
   vertex -0.115278 -100.130035 565.395813
   vertex -0.111120 -100.133156 565.157593
  endloop
 endfacet

 facet normal -0.999848 0.000001 -0.017452
  outer loop
   vertex -0.111120 -100.133156 565.157593
   vertex -0.115278 -100.130035 565.395813
   vertex -0.111889 -99.292679 565.201660
  endloop
 endfacet

 facet normal -0.999848 0.000000 -0.017453
  outer loop
   vertex -0.111889 -99.292679 565.201660
   vertex -0.115278 -100.130035 565.395813
   vertex -0.135976 -100.192192 566.581543
  endloop
 endfacet

 facet normal -0.999848 -0.000001 -0.017454
  outer loop
   vertex -0.135976 -100.192192 566.581543
   vertex -0.140875 -99.379715 566.862122
   vertex -0.111889 -99.292679 565.201660
  endloop
 endfacet

 facet normal -0.999848 -0.000001 -0.017453
  outer loop
   vertex -0.140106 -100.220192 566.818115
   vertex -0.140875 -99.379715 566.862122
   vertex -0.135976 -100.192192 566.581543
  endloop
 endfacet

 facet normal -0.017464 -0.052295 0.998479
  outer loop
   vertex 1.017664 -99.379715 566.882385
   vertex -0.140875 -99.379715 566.862122
   vertex -0.140106 -100.220192 566.818115
  endloop
 endfacet

 facet normal -0.017411 -0.052367 0.998476
  outer loop
   vertex -0.140106 -100.220192 566.818115
   vertex 1.018433 -100.220192 566.838318
   vertex 1.017664 -99.379715 566.882385
  endloop
 endfacet

 facet normal 0.999848 -0.000001 0.017453
  outer loop
   vertex 1.017664 -99.379715 566.882385
   vertex 1.018433 -100.220192 566.838318
   vertex 1.022563 -100.192192 566.601746
  endloop
 endfacet

 facet normal 0.999848 0.000007 0.017454
  outer loop
   vertex 1.022563 -100.192192 566.601746
   vertex 1.018433 -100.220192 566.838318
   vertex 1.019626 -100.299835 566.770020
  endloop
 endfacet

 facet normal 0.999848 -0.000000 0.017450
  outer loop
   vertex 1.019626 -100.299835 566.770020
   vertex 1.022396 -100.291519 566.611267
   vertex 1.022563 -100.192192 566.601746
  endloop
 endfacet

 facet normal 0.000912 -0.998631 -0.052296
  outer loop
   vertex -0.136142 -100.291519 566.591064
   vertex 1.022396 -100.291519 566.611267
   vertex 1.019626 -100.299835 566.770020
  endloop
 endfacet

 facet normal 0.017356 -0.095437 -0.995284
  outer loop
   vertex 1.022563 -100.192192 566.601746
   vertex 1.022396 -100.291519 566.611267
   vertex -0.136142 -100.291519 566.591064
  endloop
 endfacet

 facet normal 0.017356 -0.095437 -0.995284
  outer loop
   vertex -0.136142 -100.291519 566.591064
   vertex -0.135976 -100.192192 566.581543
   vertex 1.022563 -100.192192 566.601746
  endloop
 endfacet

 facet normal 0.000913 -0.998629 -0.052333
  outer loop
   vertex 1.022563 -100.192192 566.601746
   vertex -0.135976 -100.192192 566.581543
   vertex -0.115278 -100.130035 565.395813
  endloop
 endfacet

 facet normal -0.015917 0.408211 0.912749
  outer loop
   vertex 20.295305 -99.379715 567.218872
   vertex 20.299236 -98.875977 566.993652
   vertex 19.136766 -99.379715 567.198669
  endloop
 endfacet

 facet normal -0.015917 0.408211 0.912749
  outer loop
   vertex 19.136766 -99.379715 567.198669
   vertex 20.299236 -98.875977 566.993652
   vertex 19.140697 -98.875977 566.973450
  endloop
 endfacet

 facet normal -0.999848 -0.000001 -0.017454
  outer loop
   vertex 19.140697 -98.875977 566.973450
   vertex 19.160923 -98.815247 565.814819
   vertex 19.136766 -99.379715 567.198669
  endloop
 endfacet

 facet normal -0.000912 0.998630 0.052328
  outer loop
   vertex 20.299236 -98.875977 566.993652
   vertex 19.160923 -98.815247 565.814819
   vertex 19.140697 -98.875977 566.973450
  endloop
 endfacet

 facet normal -0.000912 0.998630 0.052328
  outer loop
   vertex 20.319462 -98.815247 565.835022
   vertex 19.160923 -98.815247 565.814819
   vertex 20.299236 -98.875977 566.993652
  endloop
 endfacet

 facet normal 0.999848 0.000002 0.017454
  outer loop
   vertex 20.299236 -98.875977 566.993652
   vertex 20.324291 -99.292679 565.558411
   vertex 20.319462 -98.815247 565.835022
  endloop
 endfacet

 facet normal 0.015086 0.501369 -0.865102
  outer loop
   vertex 20.319462 -98.815247 565.835022
   vertex 20.324291 -99.292679 565.558411
   vertex 19.160923 -98.815247 565.814819
  endloop
 endfacet

 facet normal 0.015130 0.501452 -0.865053
  outer loop
   vertex 19.160923 -98.815247 565.814819
   vertex 20.324291 -99.292679 565.558411
   vertex 19.165752 -99.292679 565.538147
  endloop
 endfacet

 facet normal -0.999848 0.000000 -0.017453
  outer loop
   vertex 19.165752 -99.292679 565.538147
   vertex 19.136766 -99.379715 567.198669
   vertex 19.160923 -98.815247 565.814819
  endloop
 endfacet

 facet normal -0.999848 0.000000 -0.017453
  outer loop
   vertex 19.162363 -100.130035 565.732300
   vertex 19.136766 -99.379715 567.198669
   vertex 19.165752 -99.292679 565.538147
  endloop
 endfacet

 facet normal -0.999848 0.000001 -0.017454
  outer loop
   vertex 19.141665 -100.192192 566.918030
   vertex 19.136766 -99.379715 567.198669
   vertex 19.162363 -100.130035 565.732300
  endloop
 endfacet

 facet normal 0.000915 -0.998629 -0.052333
  outer loop
   vertex 19.162363 -100.130035 565.732300
   vertex 20.300203 -100.192192 566.938293
   vertex 19.141665 -100.192192 566.918030
  endloop
 endfacet

 facet normal 0.017408 -0.095437 -0.995283
  outer loop
   vertex 19.141665 -100.192192 566.918030
   vertex 20.300203 -100.192192 566.938293
   vertex 19.141499 -100.291519 566.927551
  endloop
 endfacet

 facet normal 0.017408 -0.095437 -0.995283
  outer loop
   vertex 19.141499 -100.291519 566.927551
   vertex 20.300203 -100.192192 566.938293
   vertex 20.300037 -100.291519 566.947815
  endloop
 endfacet

 facet normal 0.000915 -0.998631 -0.052296
  outer loop
   vertex 20.300037 -100.291519 566.947815
   vertex 19.138729 -100.299835 567.086304
   vertex 19.141499 -100.291519 566.927551
  endloop
 endfacet

 facet normal 0.000912 -0.998630 -0.052316
  outer loop
   vertex 20.297268 -100.299835 567.106506
   vertex 19.138729 -100.299835 567.086304
   vertex 20.300037 -100.291519 566.947815
  endloop
 endfacet

 facet normal -0.013229 -0.651363 0.758651
  outer loop
   vertex 20.296074 -100.220192 567.174866
   vertex 19.138729 -100.299835 567.086304
   vertex 20.297268 -100.299835 567.106506
  endloop
 endfacet

 facet normal 0.999848 0.000009 0.017454
  outer loop
   vertex 20.297268 -100.299835 567.106506
   vertex 20.300203 -100.192192 566.938293
   vertex 20.296074 -100.220192 567.174866
  endloop
 endfacet

 facet normal 0.999848 0.000001 0.017453
  outer loop
   vertex 20.296074 -100.220192 567.174866
   vertex 20.300203 -100.192192 566.938293
   vertex 20.295305 -99.379715 567.218872
  endloop
 endfacet

 facet normal 0.999848 0.000000 0.017454
  outer loop
   vertex 20.295305 -99.379715 567.218872
   vertex 20.300203 -100.192192 566.938293
   vertex 20.320902 -100.130035 565.752563
  endloop
 endfacet

 facet normal 0.999848 -0.000000 0.017454
  outer loop
   vertex 20.320902 -100.130035 565.752563
   vertex 20.324291 -99.292679 565.558411
   vertex 20.295305 -99.379715 567.218872
  endloop
 endfacet

 facet normal 0.999848 -0.000001 0.017452
  outer loop
   vertex 20.325060 -100.133156 565.514343
   vertex 20.324291 -99.292679 565.558411
   vertex 20.320902 -100.130035 565.752563
  endloop
 endfacet

 facet normal 0.017464 0.052367 -0.998475
  outer loop
   vertex 19.165752 -99.292679 565.538147
   vertex 20.324291 -99.292679 565.558411
   vertex 20.325060 -100.133156 565.514343
  endloop
 endfacet

 facet normal 0.017412 0.052295 -0.998480
  outer loop
   vertex 20.325060 -100.133156 565.514343
   vertex 19.166521 -100.133156 565.494141
   vertex 19.165752 -99.292679 565.538147
  endloop
 endfacet

 facet normal -0.999848 -0.000000 -0.017456
  outer loop
   vertex 19.165752 -99.292679 565.538147
   vertex 19.166521 -100.133156 565.494141
   vertex 19.162363 -100.130035 565.732300
  endloop
 endfacet

 facet normal -0.999848 0.000004 -0.017456
  outer loop
   vertex 19.162363 -100.130035 565.732300
   vertex 19.166521 -100.133156 565.494141
   vertex 19.165480 -100.219505 565.553772
  endloop
 endfacet

 facet normal -0.999848 -0.000010 -0.017450
  outer loop
   vertex 19.165480 -100.219505 565.553772
   vertex 19.162710 -100.227829 565.712463
   vertex 19.162363 -100.130035 565.732300
  endloop
 endfacet

 facet normal 0.000916 -0.998628 -0.052364
  outer loop
   vertex 20.321249 -100.227829 565.732727
   vertex 19.162710 -100.227829 565.712463
   vertex 19.165480 -100.219505 565.553772
  endloop
 endfacet

 facet normal -0.017139 -0.198821 0.979886
  outer loop
   vertex 19.162363 -100.130035 565.732300
   vertex 19.162710 -100.227829 565.712463
   vertex 20.321249 -100.227829 565.732727
  endloop
 endfacet

 facet normal -0.017139 -0.198821 0.979886
  outer loop
   vertex 20.321249 -100.227829 565.732727
   vertex 20.320902 -100.130035 565.752563
   vertex 19.162363 -100.130035 565.732300
  endloop
 endfacet

 facet normal 0.000915 -0.998629 -0.052333
  outer loop
   vertex 19.162363 -100.130035 565.732300
   vertex 20.320902 -100.130035 565.752563
   vertex 20.300203 -100.192192 566.938293
  endloop
 endfacet

 facet normal 0.017415 0.052221 -0.998484
  outer loop
   vertex -1.614096 -98.359161 565.806763
   vertex -1.264149 -98.359161 565.812866
   vertex -1.680844 -98.608818 565.792542
  endloop
 endfacet

 facet normal 0.017323 0.052373 -0.998477
  outer loop
   vertex -1.680844 -98.608818 565.792542
   vertex -1.264149 -98.359161 565.812866
   vertex -1.377622 -98.783585 565.788635
  endloop
 endfacet

 facet normal 0.017441 0.052577 -0.998465
  outer loop
   vertex -1.377622 -98.783585 565.788635
   vertex -1.863662 -98.791580 565.779724
   vertex -1.680844 -98.608818 565.792542
  endloop
 endfacet

 facet normal 0.017445 0.052379 -0.998475
  outer loop
   vertex -1.688413 -99.094276 565.766907
   vertex -1.863662 -98.791580 565.779724
   vertex -1.377622 -98.783585 565.788635
  endloop
 endfacet

 facet normal 0.017438 0.052376 -0.998475
  outer loop
   vertex -2.113563 -98.858475 565.771851
   vertex -1.863662 -98.791580 565.779724
   vertex -1.688413 -99.094276 565.766907
  endloop
 endfacet

 facet normal 0.017409 0.052323 -0.998478
  outer loop
   vertex -1.688413 -99.094276 565.766907
   vertex -2.113243 -99.208000 565.753540
   vertex -2.113563 -98.858475 565.771851
  endloop
 endfacet

 facet normal 0.017412 0.052323 -0.998478
  outer loop
   vertex -2.113563 -98.858475 565.771851
   vertex -2.113243 -99.208000 565.753540
   vertex -2.363586 -98.791580 565.770996
  endloop
 endfacet

 facet normal 0.017446 0.052344 -0.998477
  outer loop
   vertex -2.363586 -98.791580 565.770996
   vertex -2.113243 -99.208000 565.753540
   vertex -2.538284 -99.094276 565.752075
  endloop
 endfacet

 facet normal 0.017350 0.052399 -0.998475
  outer loop
   vertex -2.538284 -99.094276 565.752075
   vertex -2.546738 -98.608818 565.777405
   vertex -2.363586 -98.791580 565.770996
  endloop
 endfacet

 facet normal 0.017449 0.052401 -0.998474
  outer loop
   vertex -2.849641 -98.783585 565.762939
   vertex -2.546738 -98.608818 565.777405
   vertex -2.538284 -99.094276 565.752075
  endloop
 endfacet

 facet normal 0.017501 0.052311 -0.998477
  outer loop
   vertex -2.613943 -98.359161 565.789307
   vertex -2.546738 -98.608818 565.777405
   vertex -2.849641 -98.783585 565.762939
  endloop
 endfacet

 facet normal 0.017415 0.052359 -0.998476
  outer loop
   vertex -2.849641 -98.783585 565.762939
   vertex -2.963891 -98.359161 565.783203
   vertex -2.613943 -98.359161 565.789307
  endloop
 endfacet

 facet normal 0.017415 0.052464 -0.998471
  outer loop
   vertex -2.613943 -98.359161 565.789307
   vertex -2.963891 -98.359161 565.783203
   vertex -2.547195 -98.109505 565.803589
  endloop
 endfacet

 facet normal 0.017504 0.052315 -0.998477
  outer loop
   vertex -2.547195 -98.109505 565.803589
   vertex -2.963891 -98.359161 565.783203
   vertex -2.964804 -97.360535 565.835510
  endloop
 endfacet

 facet normal 0.017418 0.052268 -0.998481
  outer loop
   vertex -2.964804 -97.360535 565.835510
   vertex -2.364377 -97.926743 565.816345
   vertex -2.547195 -98.109505 565.803589
  endloop
 endfacet

 facet normal 0.017457 0.052308 -0.998478
  outer loop
   vertex -2.114476 -97.859848 565.824219
   vertex -2.364377 -97.926743 565.816345
   vertex -2.964804 -97.360535 565.835510
  endloop
 endfacet

 facet normal -0.017415 -0.052287 0.998480
  outer loop
   vertex 21.795750 -98.385330 566.714783
   vertex 21.445803 -98.385330 566.708679
   vertex 21.862955 -98.634995 566.702881
  endloop
 endfacet

 facet normal -0.017466 -0.052373 0.998475
  outer loop
   vertex 21.862955 -98.634995 566.702881
   vertex 21.445803 -98.385330 566.708679
   vertex 21.560053 -98.809753 566.688416
  endloop
 endfacet

 facet normal -0.017536 -0.052253 0.998480
  outer loop
   vertex 21.560053 -98.809753 566.688416
   vertex 22.046106 -98.817757 566.696533
   vertex 21.862955 -98.634995 566.702881
  endloop
 endfacet

 facet normal -0.017537 -0.052293 0.998478
  outer loop
   vertex 21.871410 -99.120445 566.677612
   vertex 22.046106 -98.817757 566.696533
   vertex 21.560053 -98.809753 566.688416
  endloop
 endfacet

 facet normal -0.017421 -0.052359 0.998476
  outer loop
   vertex 22.296129 -98.884651 566.697388
   vertex 22.046106 -98.817757 566.696533
   vertex 21.871410 -99.120445 566.677612
  endloop
 endfacet

 facet normal -0.017441 -0.052324 0.998478
  outer loop
   vertex 21.871410 -99.120445 566.677612
   vertex 22.296450 -99.234169 566.679077
   vertex 22.296129 -98.884651 566.697388
  endloop
 endfacet

 facet normal -0.017452 -0.052324 0.998478
  outer loop
   vertex 22.296129 -98.884651 566.697388
   vertex 22.296450 -99.234169 566.679077
   vertex 22.546030 -98.817757 566.705261
  endloop
 endfacet

 facet normal -0.017401 -0.052355 0.998477
  outer loop
   vertex 22.546030 -98.817757 566.705261
   vertex 22.296450 -99.234169 566.679077
   vertex 22.721281 -99.120445 566.692444
  endloop
 endfacet

 facet normal -0.017356 -0.052330 0.998479
  outer loop
   vertex 22.721281 -99.120445 566.692444
   vertex 22.728849 -98.634995 566.718018
   vertex 22.546030 -98.817757 566.705261
  endloop
 endfacet

 facet normal -0.017297 -0.052331 0.998480
  outer loop
   vertex 23.032072 -98.809753 566.714111
   vertex 22.728849 -98.634995 566.718018
   vertex 22.721281 -99.120445 566.692444
  endloop
 endfacet

 facet normal -0.017257 -0.052261 0.998484
  outer loop
   vertex 22.795597 -98.385330 566.732239
   vertex 22.728849 -98.634995 566.718018
   vertex 23.032072 -98.809753 566.714111
  endloop
 endfacet

 facet normal -0.017415 -0.052349 0.998477
  outer loop
   vertex 23.032072 -98.809753 566.714111
   vertex 23.145544 -98.385330 566.738342
   vertex 22.795597 -98.385330 566.732239
  endloop
 endfacet

 facet normal -0.017415 -0.052288 0.998480
  outer loop
   vertex 22.795597 -98.385330 566.732239
   vertex 23.145544 -98.385330 566.738342
   vertex 22.728392 -98.135674 566.744141
  endloop
 endfacet

 facet normal -0.017467 -0.052376 0.998475
  outer loop
   vertex 22.728392 -98.135674 566.744141
   vertex 23.145544 -98.385330 566.738342
   vertex 23.144630 -97.386703 566.790710
  endloop
 endfacet

 facet normal -0.017377 -0.052426 0.998474
  outer loop
   vertex 23.144630 -97.386703 566.790710
   vertex 22.545240 -97.952911 566.750549
   vertex 22.728392 -98.135674 566.744141
  endloop
 endfacet

 facet normal -0.017425 -0.052375 0.998475
  outer loop
   vertex 22.295216 -97.886017 566.749695
   vertex 22.545240 -97.952911 566.750549
   vertex 23.144630 -97.386703 566.790710
  endloop
 endfacet

 facet normal -0.017425 -0.052376 0.998475
  outer loop
   vertex -2.973519 -97.386703 566.334778
   vertex -2.123191 -97.886017 566.323425
   vertex -1.273777 -97.386703 566.364441
  endloop
 endfacet

 facet normal -0.017426 -0.052375 0.998475
  outer loop
   vertex -1.273777 -97.386703 566.364441
   vertex -2.123191 -97.886017 566.323425
   vertex -1.873168 -97.952911 566.324280
  endloop
 endfacet

 facet normal -0.017539 -0.052255 0.998480
  outer loop
   vertex -1.873168 -97.952911 566.324280
   vertex -1.690016 -98.135674 566.317932
   vertex -1.273777 -97.386703 566.364441
  endloop
 endfacet

 facet normal -0.017366 -0.052320 0.998479
  outer loop
   vertex 21.862497 -98.135674 566.729065
   vertex 22.045315 -97.952911 566.741821
   vertex 21.444889 -97.386703 566.761047
  endloop
 endfacet

 facet normal -0.017434 -0.052392 0.998474
  outer loop
   vertex 21.444889 -97.386703 566.761047
   vertex 22.045315 -97.952911 566.741821
   vertex 22.295216 -97.886017 566.749695
  endloop
 endfacet

 facet normal -0.017425 -0.052376 0.998475
  outer loop
   vertex 22.295216 -97.886017 566.749695
   vertex 23.144630 -97.386703 566.790710
   vertex 21.444889 -97.386703 566.761047
  endloop
 endfacet

 facet normal 0.017425 0.052376 -0.998475
  outer loop
   vertex 23.153345 -97.360535 566.291443
   vertex 22.303930 -97.859848 566.250427
   vertex 21.453604 -97.360535 566.261780
  endloop
 endfacet

 facet normal 0.017434 0.052392 -0.998474
  outer loop
   vertex 21.453604 -97.360535 566.261780
   vertex 22.303930 -97.859848 566.250427
   vertex 22.054031 -97.926743 566.242554
  endloop
 endfacet

 facet normal 0.017366 0.052320 -0.998479
  outer loop
   vertex 22.054031 -97.926743 566.242554
   vertex 21.871212 -98.109505 566.229797
   vertex 21.453604 -97.360535 566.261780
  endloop
 endfacet

 facet normal 0.017325 0.052374 -0.998477
  outer loop
   vertex -1.681301 -98.109505 565.818665
   vertex -1.864453 -97.926743 565.825073
   vertex -1.265062 -97.360535 565.865173
  endloop
 endfacet

 facet normal 0.017403 0.052291 -0.998480
  outer loop
   vertex -1.265062 -97.360535 565.865173
   vertex -1.864453 -97.926743 565.825073
   vertex -2.114476 -97.859848 565.824219
  endloop
 endfacet

 facet normal 0.017425 0.052254 -0.998482
  outer loop
   vertex -2.114476 -97.859848 565.824219
   vertex -2.964804 -97.360535 565.835510
   vertex -1.265062 -97.360535 565.865173
  endloop
 endfacet

 facet normal 0.014346 -0.568308 -0.822691
  outer loop
   vertex 20.325060 -100.133156 565.514343
   vertex 20.324018 -100.219505 565.573975
   vertex 19.166521 -100.133156 565.494141
  endloop
 endfacet

 facet normal 0.014346 -0.568308 -0.822691
  outer loop
   vertex 19.166521 -100.133156 565.494141
   vertex 20.324018 -100.219505 565.573975
   vertex 19.165480 -100.219505 565.553772
  endloop
 endfacet

 facet normal -0.017428 -0.052336 0.998477
  outer loop
   vertex 0.271693 -99.472244 566.784363
   vertex 0.272254 -100.084930 566.752258
   vertex 19.885704 -99.472244 567.126709
  endloop
 endfacet

 facet normal -0.017428 -0.052336 0.998477
  outer loop
   vertex 19.885704 -99.472244 567.126709
   vertex 0.272254 -100.084930 566.752258
   vertex 19.886265 -100.084930 567.094604
  endloop
 endfacet

 facet normal -0.013274 -0.651028 0.758937
  outer loop
   vertex 1.019626 -100.299835 566.770020
   vertex 1.018433 -100.220192 566.838318
   vertex -0.138913 -100.299835 566.749756
  endloop
 endfacet

 facet normal -0.013229 -0.651363 0.758651
  outer loop
   vertex -0.138913 -100.299835 566.749756
   vertex 1.018433 -100.220192 566.838318
   vertex -0.140106 -100.220192 566.818115
  endloop
 endfacet

 facet normal 0.000912 -0.998631 -0.052296
  outer loop
   vertex 22.804312 -98.359169 566.233032
   vertex 23.154259 -98.359169 566.239136
   vertex 22.974928 -98.372246 566.485718
  endloop
 endfacet

 facet normal 0.999848 0.000001 0.017454
  outer loop
   vertex 20.295305 -99.379715 567.218872
   vertex 20.324291 -99.292679 565.558411
   vertex 20.299236 -98.875977 566.993652
  endloop
 endfacet

 facet normal -0.017415 -0.052464 0.998471
  outer loop
   vertex 21.445803 -98.385330 566.708679
   vertex 21.795750 -98.385330 566.714783
   vertex 21.862497 -98.135674 566.729065
  endloop
 endfacet

 facet normal -0.017415 -0.052288 0.998480
  outer loop
   vertex -1.622810 -98.385330 566.306030
   vertex -1.272864 -98.385330 566.312134
   vertex -1.690016 -98.135674 566.317932
  endloop
 endfacet

 facet normal -0.000912 0.998630 0.052318
  outer loop
   vertex 23.154259 -98.359169 566.239136
   vertex 22.795597 -98.385330 566.732239
   vertex 23.145544 -98.385330 566.738342
  endloop
 endfacet

 facet normal 0.017455 0.052367 -0.998475
  outer loop
   vertex 0.129249 -98.957222 565.497925
   vertex -1.518661 -98.957222 565.469116
   vertex -1.520068 -97.418289 565.549805
  endloop
 endfacet

 facet normal -0.017455 -0.052328 0.998477
  outer loop
   vertex 20.052120 -97.476639 567.039917
   vertex 20.053528 -99.015579 566.959290
   vertex 21.700029 -97.476639 567.068726
  endloop
 endfacet

 facet normal -0.000913 0.998629 0.052333
  outer loop
   vertex -2.972605 -98.385330 566.282410
   vertex -2.613943 -98.359161 565.789307
   vertex -2.963891 -98.359161 565.783203
  endloop
 endfacet

 facet normal -0.999848 -0.000003 -0.017450
  outer loop
   vertex -0.112161 -100.219505 565.217224
   vertex -0.114932 -100.227821 565.375977
   vertex -0.115278 -100.130035 565.395813
  endloop
 endfacet

 facet normal -0.000913 0.998629 0.052333
  outer loop
   vertex 21.795750 -98.385330 566.714783
   vertex 21.454517 -98.359161 566.209473
   vertex 21.445803 -98.385330 566.708679
  endloop
 endfacet

 facet normal -0.999848 -0.000000 -0.017454
  outer loop
   vertex -0.111889 -99.292679 565.201660
   vertex -0.140875 -99.379715 566.862122
   vertex -0.116717 -98.815247 565.478271
  endloop
 endfacet

 facet normal 0.999848 0.000002 0.017449
  outer loop
   vertex 20.297268 -100.299835 567.106506
   vertex 20.300037 -100.291519 566.947815
   vertex 20.300203 -100.192192 566.938293
  endloop
 endfacet

 facet normal 0.017418 0.052328 -0.998478
  outer loop
   vertex 20.072960 -98.957222 565.846069
   vertex 20.071552 -97.418289 565.926697
   vertex 21.719463 -97.418289 565.955444
  endloop
 endfacet

 facet normal 0.999848 0.000000 0.017454
  outer loop
   vertex 0.127842 -97.418289 565.578552
   vertex 0.108409 -97.476639 566.691772
   vertex 0.109817 -99.015579 566.611145
  endloop
 endfacet

 facet normal -0.000913 0.998630 0.052327
  outer loop
   vertex -1.614096 -98.359161 565.806763
   vertex -1.272864 -98.385330 566.312134
   vertex -1.264149 -98.359161 565.812866
  endloop
 endfacet

 facet normal 0.017415 0.052288 -0.998480
  outer loop
   vertex -1.264149 -98.359161 565.812866
   vertex -1.614096 -98.359161 565.806763
   vertex -1.681301 -98.109505 565.818665
  endloop
 endfacet

 facet normal -0.706348 -0.706142 -0.049347
  outer loop
   vertex -1.864453 -97.926743 565.825073
   vertex -1.690016 -98.135674 566.317932
   vertex -1.873168 -97.952911 566.324280
  endloop
 endfacet

 facet normal -0.257895 -0.964602 -0.055067
  outer loop
   vertex -1.864453 -97.926743 565.825073
   vertex -1.873168 -97.952911 566.324280
   vertex -2.114476 -97.859848 565.824219
  endloop
 endfacet

 facet normal -0.257894 -0.964603 -0.055067
  outer loop
   vertex -2.114476 -97.859848 565.824219
   vertex -1.873168 -97.952911 566.324280
   vertex -2.123191 -97.886017 566.323425
  endloop
 endfacet

 facet normal 0.259659 -0.964603 -0.046032
  outer loop
   vertex -2.123191 -97.886017 566.323425
   vertex -2.364377 -97.926743 565.816345
   vertex -2.114476 -97.859848 565.824219
  endloop
 endfacet

 facet normal 0.259659 -0.964603 -0.046032
  outer loop
   vertex -2.373092 -97.952911 566.315552
   vertex -2.364377 -97.926743 565.816345
   vertex -2.123191 -97.886017 566.323425
  endloop
 endfacet

 facet normal 0.707644 -0.706139 -0.024663
  outer loop
   vertex -2.547195 -98.109505 565.803589
   vertex -2.364377 -97.926743 565.816345
   vertex -2.373092 -97.952911 566.315552
  endloop
 endfacet

 facet normal 0.707644 -0.706139 -0.024663
  outer loop
   vertex -2.373092 -97.952911 566.315552
   vertex -2.555910 -98.135674 566.302795
   vertex -2.547195 -98.109505 565.803589
  endloop
 endfacet

 facet normal 0.966015 -0.258464 0.003315
  outer loop
   vertex -2.547195 -98.109505 565.803589
   vertex -2.555910 -98.135674 566.302795
   vertex -2.613943 -98.359161 565.789307
  endloop
 endfacet

 facet normal -0.965544 -0.258459 -0.030400
  outer loop
   vertex 22.804312 -98.359169 566.233032
   vertex 22.795597 -98.385330 566.732239
   vertex 22.737106 -98.109505 566.244934
  endloop
 endfacet

 facet normal -0.965542 -0.258466 -0.030405
  outer loop
   vertex 22.737106 -98.109505 566.244934
   vertex 22.795597 -98.385330 566.732239
   vertex 22.728392 -98.135674 566.744141
  endloop
 endfacet

 facet normal -0.706350 -0.706140 -0.049347
  outer loop
   vertex 22.728392 -98.135674 566.744141
   vertex 22.553955 -97.926743 566.251282
   vertex 22.737106 -98.109505 566.244934
  endloop
 endfacet

 facet normal -0.706359 -0.706132 -0.049341
  outer loop
   vertex 22.545240 -97.952911 566.750549
   vertex 22.553955 -97.926743 566.251282
   vertex 22.728392 -98.135674 566.744141
  endloop
 endfacet

 facet normal -0.257893 -0.964603 -0.055061
  outer loop
   vertex 22.303930 -97.859848 566.250427
   vertex 22.553955 -97.926743 566.251282
   vertex 22.545240 -97.952911 566.750549
  endloop
 endfacet

 facet normal -0.257893 -0.964603 -0.055061
  outer loop
   vertex 22.545240 -97.952911 566.750549
   vertex 22.295216 -97.886017 566.749695
   vertex 22.303930 -97.859848 566.250427
  endloop
 endfacet

 facet normal 0.259661 -0.964602 -0.046027
  outer loop
   vertex 22.303930 -97.859848 566.250427
   vertex 22.295216 -97.886017 566.749695
   vertex 22.054031 -97.926743 566.242554
  endloop
 endfacet

 facet normal 0.259659 -0.964603 -0.046026
  outer loop
   vertex 22.054031 -97.926743 566.242554
   vertex 22.295216 -97.886017 566.749695
   vertex 22.045315 -97.952911 566.741821
  endloop
 endfacet

 facet normal 0.707641 -0.706142 -0.024657
  outer loop
   vertex 22.045315 -97.952911 566.741821
   vertex 21.871212 -98.109505 566.229797
   vertex 22.054031 -97.926743 566.242554
  endloop
 endfacet

 facet normal 0.966016 -0.258463 0.003315
  outer loop
   vertex -1.264149 -98.359161 565.812866
   vertex -1.272864 -98.385330 566.312134
   vertex -1.377622 -98.783585 565.788635
  endloop
 endfacet

 facet normal 0.966016 -0.258463 0.003315
  outer loop
   vertex -1.377622 -98.783585 565.788635
   vertex -1.272864 -98.385330 566.312134
   vertex -1.386337 -98.809753 566.287903
  endloop
 endfacet

 facet normal 0.707642 -0.706141 -0.024660
  outer loop
   vertex -1.386337 -98.809753 566.287903
   vertex -1.688413 -99.094276 565.766907
   vertex -1.377622 -98.783585 565.788635
  endloop
 endfacet

 facet normal 0.707642 -0.706141 -0.024660
  outer loop
   vertex -1.697127 -99.120445 566.266174
   vertex -1.688413 -99.094276 565.766907
   vertex -1.386337 -98.809753 566.287903
  endloop
 endfacet

 facet normal 0.259664 -0.964601 -0.046027
  outer loop
   vertex -2.113243 -99.208000 565.753540
   vertex -1.688413 -99.094276 565.766907
   vertex -1.697127 -99.120445 566.266174
  endloop
 endfacet

 facet normal 0.259664 -0.964601 -0.046026
  outer loop
   vertex -1.697127 -99.120445 566.266174
   vertex -2.121958 -99.234169 566.252808
   vertex -2.113243 -99.208000 565.753540
  endloop
 endfacet

 facet normal -0.257899 -0.964602 -0.055061
  outer loop
   vertex -2.113243 -99.208000 565.753540
   vertex -2.121958 -99.234169 566.252808
   vertex -2.538284 -99.094276 565.752075
  endloop
 endfacet

 facet normal -0.257899 -0.964602 -0.055061
  outer loop
   vertex -2.538284 -99.094276 565.752075
   vertex -2.121958 -99.234169 566.252808
   vertex -2.546999 -99.120445 566.251343
  endloop
 endfacet

 facet normal -0.706351 -0.706140 -0.049342
  outer loop
   vertex -2.546999 -99.120445 566.251343
   vertex -2.849641 -98.783585 565.762939
   vertex -2.538284 -99.094276 565.752075
  endloop
 endfacet

 facet normal -0.706351 -0.706140 -0.049342
  outer loop
   vertex -2.858356 -98.809753 566.262207
   vertex -2.849641 -98.783585 565.762939
   vertex -2.546999 -99.120445 566.251343
  endloop
 endfacet

 facet normal -0.965543 -0.258460 -0.030401
  outer loop
   vertex -2.963891 -98.359161 565.783203
   vertex -2.849641 -98.783585 565.762939
   vertex -2.858356 -98.809753 566.262207
  endloop
 endfacet

 facet normal -0.965542 -0.258464 -0.030404
  outer loop
   vertex -2.858356 -98.809753 566.262207
   vertex -2.972605 -98.385330 566.282410
   vertex -2.963891 -98.359161 565.783203
  endloop
 endfacet

 facet normal 0.966015 -0.258464 0.003319
  outer loop
   vertex 23.154259 -98.359169 566.239136
   vertex 23.145544 -98.385330 566.738342
   vertex 23.040787 -98.783585 566.214905
  endloop
 endfacet

 facet normal 0.966016 -0.258459 0.003315
  outer loop
   vertex 23.040787 -98.783585 566.214905
   vertex 23.145544 -98.385330 566.738342
   vertex 23.032072 -98.809753 566.714111
  endloop
 endfacet

 facet normal 0.707643 -0.706140 -0.024663
  outer loop
   vertex 23.032072 -98.809753 566.714111
   vertex 22.729998 -99.094276 566.193176
   vertex 23.040787 -98.783585 566.214905
  endloop
 endfacet

 facet normal 0.707638 -0.706145 -0.024658
  outer loop
   vertex 22.721281 -99.120445 566.692444
   vertex 22.729998 -99.094276 566.193176
   vertex 23.032072 -98.809753 566.714111
  endloop
 endfacet

 facet normal 0.259663 -0.964602 -0.046026
  outer loop
   vertex 22.305164 -99.208000 566.179810
   vertex 22.729998 -99.094276 566.193176
   vertex 22.721281 -99.120445 566.692444
  endloop
 endfacet

 facet normal 0.259664 -0.964602 -0.046027
  outer loop
   vertex 22.721281 -99.120445 566.692444
   vertex 22.296450 -99.234169 566.679077
   vertex 22.305164 -99.208000 566.179810
  endloop
 endfacet

 facet normal -0.257900 -0.964602 -0.055061
  outer loop
   vertex 22.305164 -99.208000 566.179810
   vertex 22.296450 -99.234169 566.679077
   vertex 21.880125 -99.094276 566.178345
  endloop
 endfacet

 facet normal -0.257900 -0.964602 -0.055061
  outer loop
   vertex 21.880125 -99.094276 566.178345
   vertex 22.296450 -99.234169 566.679077
   vertex 21.871410 -99.120445 566.677612
  endloop
 endfacet

 facet normal -0.706351 -0.706140 -0.049341
  outer loop
   vertex 21.871410 -99.120445 566.677612
   vertex 21.568768 -98.783585 566.189209
   vertex 21.880125 -99.094276 566.178345
  endloop
 endfacet

 facet normal -0.706347 -0.706144 -0.049347
  outer loop
   vertex 21.560053 -98.809753 566.688416
   vertex 21.568768 -98.783585 566.189209
   vertex 21.871410 -99.120445 566.677612
  endloop
 endfacet

 facet normal -0.965543 -0.258462 -0.030404
  outer loop
   vertex 21.454517 -98.359161 566.209473
   vertex 21.568768 -98.783585 566.189209
   vertex 21.560053 -98.809753 566.688416
  endloop
 endfacet

 facet normal -0.965543 -0.258462 -0.030404
  outer loop
   vertex 21.560053 -98.809753 566.688416
   vertex 21.445803 -98.385330 566.708679
   vertex 21.454517 -98.359161 566.209473
  endloop
 endfacet

 facet normal 0.707645 -0.706138 -0.024660
  outer loop
   vertex 22.045315 -97.952911 566.741821
   vertex 21.862497 -98.135674 566.729065
   vertex 21.871212 -98.109505 566.229797
  endloop
 endfacet

 facet normal 0.966016 -0.258462 0.003315
  outer loop
   vertex 21.871212 -98.109505 566.229797
   vertex 21.862497 -98.135674 566.729065
   vertex 21.795750 -98.385330 566.714783
  endloop
 endfacet

 facet normal 0.966018 -0.258454 0.003319
  outer loop
   vertex 21.795750 -98.385330 566.714783
   vertex 21.804464 -98.359169 566.215576
   vertex 21.871212 -98.109505 566.229797
  endloop
 endfacet

 facet normal 0.965544 0.258459 0.030400
  outer loop
   vertex 21.862955 -98.634995 566.702881
   vertex 21.804464 -98.359169 566.215576
   vertex 21.795750 -98.385330 566.714783
  endloop
 endfacet

 facet normal 0.965542 0.258466 0.030405
  outer loop
   vertex 21.871670 -98.608826 566.203674
   vertex 21.804464 -98.359169 566.215576
   vertex 21.862955 -98.634995 566.702881
  endloop
 endfacet

 facet normal 0.706350 0.706140 0.049347
  outer loop
   vertex 21.862955 -98.634995 566.702881
   vertex 22.046106 -98.817757 566.696533
   vertex 21.871670 -98.608826 566.203674
  endloop
 endfacet

 facet normal 0.706359 0.706132 0.049341
  outer loop
   vertex 21.871670 -98.608826 566.203674
   vertex 22.046106 -98.817757 566.696533
   vertex 22.054821 -98.791588 566.197266
  endloop
 endfacet

 facet normal 0.257895 0.964603 0.055061
  outer loop
   vertex 22.054821 -98.791588 566.197266
   vertex 22.046106 -98.817757 566.696533
   vertex 22.296129 -98.884651 566.697388
  endloop
 endfacet

 facet normal 0.257895 0.964603 0.055061
  outer loop
   vertex 22.296129 -98.884651 566.697388
   vertex 22.304844 -98.858482 566.198120
   vertex 22.054821 -98.791588 566.197266
  endloop
 endfacet

 facet normal -0.259659 0.964603 0.046027
  outer loop
   vertex 22.546030 -98.817757 566.705261
   vertex 22.304844 -98.858482 566.198120
   vertex 22.296129 -98.884651 566.697388
  endloop
 endfacet

 facet normal -0.259659 0.964603 0.046027
  outer loop
   vertex 22.554745 -98.791588 566.205994
   vertex 22.304844 -98.858482 566.198120
   vertex 22.546030 -98.817757 566.705261
  endloop
 endfacet

 facet normal -0.707641 0.706142 0.024660
  outer loop
   vertex 22.546030 -98.817757 566.705261
   vertex 22.728849 -98.634995 566.718018
   vertex 22.554745 -98.791588 566.205994
  endloop
 endfacet

 facet normal -0.707641 0.706142 0.024660
  outer loop
   vertex 22.554745 -98.791588 566.205994
   vertex 22.728849 -98.634995 566.718018
   vertex 22.737564 -98.608826 566.218750
  endloop
 endfacet

 facet normal -0.966018 0.258453 -0.003315
  outer loop
   vertex 22.737564 -98.608826 566.218750
   vertex 22.728849 -98.634995 566.718018
   vertex 22.795597 -98.385330 566.732239
  endloop
 endfacet

 facet normal -0.966016 0.258462 -0.003319
  outer loop
   vertex 22.795597 -98.385330 566.732239
   vertex 22.804312 -98.359169 566.233032
   vertex 22.737564 -98.608826 566.218750
  endloop
 endfacet

 facet normal -0.706357 -0.706134 -0.049341
  outer loop
   vertex -1.864453 -97.926743 565.825073
   vertex -1.681301 -98.109505 565.818665
   vertex -1.690016 -98.135674 566.317932
  endloop
 endfacet

 facet normal -0.965542 -0.258465 -0.030401
  outer loop
   vertex -1.690016 -98.135674 566.317932
   vertex -1.681301 -98.109505 565.818665
   vertex -1.614096 -98.359161 565.806763
  endloop
 endfacet

 facet normal -0.965542 -0.258465 -0.030401
  outer loop
   vertex -1.614096 -98.359161 565.806763
   vertex -1.622810 -98.385330 566.306030
   vertex -1.690016 -98.135674 566.317932
  endloop
 endfacet

 facet normal -0.966015 0.258464 -0.003315
  outer loop
   vertex -1.680844 -98.608818 565.792542
   vertex -1.622810 -98.385330 566.306030
   vertex -1.614096 -98.359161 565.806763
  endloop
 endfacet

 facet normal -0.966015 0.258465 -0.003315
  outer loop
   vertex -1.689559 -98.634987 566.291748
   vertex -1.622810 -98.385330 566.306030
   vertex -1.680844 -98.608818 565.792542
  endloop
 endfacet

 facet normal -0.707648 0.706134 0.024663
  outer loop
   vertex -1.680844 -98.608818 565.792542
   vertex -1.863662 -98.791580 565.779724
   vertex -1.689559 -98.634987 566.291748
  endloop
 endfacet

 facet normal -0.707644 0.706139 0.024660
  outer loop
   vertex -1.689559 -98.634987 566.291748
   vertex -1.863662 -98.791580 565.779724
   vertex -1.872377 -98.817749 566.278992
  endloop
 endfacet

 facet normal -0.259659 0.964603 0.046027
  outer loop
   vertex -1.872377 -98.817749 566.278992
   vertex -1.863662 -98.791580 565.779724
   vertex -2.113563 -98.858475 565.771851
  endloop
 endfacet

 facet normal -0.259659 0.964603 0.046027
  outer loop
   vertex -2.113563 -98.858475 565.771851
   vertex -2.122278 -98.884644 566.271118
   vertex -1.872377 -98.817749 566.278992
  endloop
 endfacet

 facet normal 0.257895 0.964603 0.055061
  outer loop
   vertex -2.363586 -98.791580 565.770996
   vertex -2.122278 -98.884644 566.271118
   vertex -2.113563 -98.858475 565.771851
  endloop
 endfacet

 facet normal 0.257895 0.964603 0.055061
  outer loop
   vertex -2.372301 -98.817749 566.270264
   vertex -2.122278 -98.884644 566.271118
   vertex -2.363586 -98.791580 565.770996
  endloop
 endfacet

 facet normal 0.706357 0.706134 0.049341
  outer loop
   vertex -2.363586 -98.791580 565.770996
   vertex -2.546738 -98.608818 565.777405
   vertex -2.372301 -98.817749 566.270264
  endloop
 endfacet

 facet normal 0.706348 0.706142 0.049348
  outer loop
   vertex -2.372301 -98.817749 566.270264
   vertex -2.546738 -98.608818 565.777405
   vertex -2.555453 -98.634987 566.276611
  endloop
 endfacet

 facet normal 0.965542 0.258465 0.030405
  outer loop
   vertex -2.555453 -98.634987 566.276611
   vertex -2.546738 -98.608818 565.777405
   vertex -2.613943 -98.359161 565.789307
  endloop
 endfacet

 facet normal 0.965544 0.258458 0.030401
  outer loop
   vertex -2.613943 -98.359161 565.789307
   vertex -2.622658 -98.385330 566.288574
   vertex -2.555453 -98.634987 566.276611
  endloop
 endfacet

 facet normal 0.966015 -0.258463 0.003315
  outer loop
   vertex -2.555910 -98.135674 566.302795
   vertex -2.622658 -98.385330 566.288574
   vertex -2.613943 -98.359161 565.789307
  endloop
 endfacet

endsolid