solid stl file generated from DOUG
 facet normal -0.862762 -0.466799 -0.194268
  outer loop
   vertex 19.345467 -42.103031 654.714905
   vertex 19.353634 -41.923428 654.247070
   vertex 19.472099 -42.305634 654.639343
  endloop
 endfacet

 facet normal -0.862758 -0.466804 -0.194273
  outer loop
   vertex 19.472099 -42.305634 654.639343
   vertex 19.353634 -41.923428 654.247070
   vertex 19.480267 -42.126026 654.171509
  endloop
 endfacet

 facet normal 0.006285 -0.933584 -0.358304
  outer loop
   vertex 19.480267 -42.126026 654.171509
   vertex 19.722647 -42.305634 654.643738
   vertex 19.472099 -42.305634 654.639343
  endloop
 endfacet

 facet normal 0.006285 -0.933584 -0.358304
  outer loop
   vertex 19.730814 -42.126026 654.175903
   vertex 19.722647 -42.305634 654.643738
   vertex 19.480267 -42.126026 654.171509
  endloop
 endfacet

 facet normal 0.869007 -0.466816 -0.164045
  outer loop
   vertex 19.846563 -42.103031 654.723633
   vertex 19.722647 -42.305634 654.643738
   vertex 19.730814 -42.126026 654.175903
  endloop
 endfacet

 facet normal 0.869023 -0.466783 -0.164050
  outer loop
   vertex 19.730814 -42.126026 654.175903
   vertex 19.854731 -41.923428 654.255859
   vertex 19.846563 -42.103031 654.723633
  endloop
 endfacet

 facet normal 0.862785 0.466753 0.194276
  outer loop
   vertex 19.846563 -42.103031 654.723633
   vertex 19.854731 -41.923428 654.255859
   vertex 19.719933 -41.900433 654.799255
  endloop
 endfacet

 facet normal 0.862758 0.466806 0.194267
  outer loop
   vertex 19.719933 -41.900433 654.799255
   vertex 19.854731 -41.923428 654.255859
   vertex 19.728098 -41.720829 654.331421
  endloop
 endfacet

 facet normal -0.006284 0.933586 0.358298
  outer loop
   vertex 19.728098 -41.720829 654.331421
   vertex 19.469385 -41.900433 654.794861
   vertex 19.719933 -41.900433 654.799255
  endloop
 endfacet

 facet normal -0.006284 0.933586 0.358298
  outer loop
   vertex 19.477551 -41.720829 654.327026
   vertex 19.469385 -41.900433 654.794861
   vertex 19.728098 -41.720829 654.331421
  endloop
 endfacet

 facet normal -0.869019 0.466794 0.164037
  outer loop
   vertex 19.345467 -42.103031 654.714905
   vertex 19.469385 -41.900433 654.794861
   vertex 19.477551 -41.720829 654.327026
  endloop
 endfacet

 facet normal -0.869023 0.466790 0.164032
  outer loop
   vertex 19.477551 -41.720829 654.327026
   vertex 19.353634 -41.923428 654.247070
   vertex 19.345467 -42.103031 654.714905
  endloop
 endfacet

 facet normal 0.869002 -0.466824 -0.164047
  outer loop
   vertex -2.237201 -41.923428 653.870178
   vertex -2.245368 -42.103031 654.338013
   vertex -2.361119 -42.126026 653.790283
  endloop
 endfacet

 facet normal 0.869022 -0.466785 -0.164053
  outer loop
   vertex -2.361119 -42.126026 653.790283
   vertex -2.245368 -42.103031 654.338013
   vertex -2.369285 -42.305630 654.258057
  endloop
 endfacet

 facet normal 0.006285 -0.933571 -0.358339
  outer loop
   vertex -2.369285 -42.305630 654.258057
   vertex -2.611666 -42.126026 653.785889
   vertex -2.361119 -42.126026 653.790283
  endloop
 endfacet

 facet normal 0.006197 -0.933586 -0.358299
  outer loop
   vertex -2.619833 -42.305630 654.253723
   vertex -2.611666 -42.126026 653.785889
   vertex -2.369285 -42.305630 654.258057
  endloop
 endfacet

 facet normal -0.862760 -0.466804 -0.194268
  outer loop
   vertex -2.738298 -41.923428 653.861450
   vertex -2.611666 -42.126026 653.785889
   vertex -2.619833 -42.305630 654.253723
  endloop
 endfacet

 facet normal -0.862760 -0.466804 -0.194268
  outer loop
   vertex -2.619833 -42.305630 654.253723
   vertex -2.746464 -42.103031 654.329285
   vertex -2.738298 -41.923428 653.861450
  endloop
 endfacet

 facet normal -0.869025 0.466785 0.164031
  outer loop
   vertex -2.738298 -41.923428 653.861450
   vertex -2.746464 -42.103031 654.329285
   vertex -2.614381 -41.720825 653.941406
  endloop
 endfacet

 facet normal -0.869022 0.466790 0.164038
  outer loop
   vertex -2.614381 -41.720825 653.941406
   vertex -2.746464 -42.103031 654.329285
   vertex -2.622547 -41.900433 654.409241
  endloop
 endfacet

 facet normal -0.006285 0.933584 0.358305
  outer loop
   vertex -2.622547 -41.900433 654.409241
   vertex -2.363834 -41.720825 653.945801
   vertex -2.614381 -41.720825 653.941406
  endloop
 endfacet

 facet normal -0.006198 0.933568 0.358347
  outer loop
   vertex -2.372000 -41.900433 654.413574
   vertex -2.363834 -41.720825 653.945801
   vertex -2.622547 -41.900433 654.409241
  endloop
 endfacet

 facet normal 0.862786 0.466751 0.194277
  outer loop
   vertex -2.237201 -41.923428 653.870178
   vertex -2.363834 -41.720825 653.945801
   vertex -2.372000 -41.900433 654.413574
  endloop
 endfacet

 facet normal 0.862760 0.466804 0.194268
  outer loop
   vertex -2.372000 -41.900433 654.413574
   vertex -2.245368 -42.103031 654.338013
   vertex -2.237201 -41.923428 653.870178
  endloop
 endfacet

 facet normal -0.016146 -0.358247 0.933487
  outer loop
   vertex -2.619833 -42.305630 654.253723
   vertex -2.369285 -42.305630 654.258057
   vertex -2.495916 -42.103031 654.333618
  endloop
 endfacet

 facet normal -0.016372 -0.358369 0.933436
  outer loop
   vertex -2.495916 -42.103031 654.333618
   vertex -2.369285 -42.305630 654.258057
   vertex -2.245368 -42.103031 654.338013
  endloop
 endfacet

 facet normal -0.016372 -0.358369 0.933436
  outer loop
   vertex -2.245368 -42.103031 654.338013
   vertex -2.372000 -41.900433 654.413574
   vertex -2.495916 -42.103031 654.333618
  endloop
 endfacet

 facet normal -0.016372 -0.358369 0.933436
  outer loop
   vertex 19.469385 -41.900433 654.794861
   vertex 19.345467 -42.103031 654.714905
   vertex 19.596016 -42.103031 654.719299
  endloop
 endfacet

 facet normal -0.016372 -0.358363 0.933439
  outer loop
   vertex 19.596016 -42.103031 654.719299
   vertex 19.345467 -42.103031 654.714905
   vertex 19.472099 -42.305634 654.639343
  endloop
 endfacet

 facet normal -0.016372 -0.358363 0.933439
  outer loop
   vertex 19.472099 -42.305634 654.639343
   vertex 19.722647 -42.305634 654.643738
   vertex 19.596016 -42.103031 654.719299
  endloop
 endfacet

 facet normal -0.016146 -0.358241 0.933490
  outer loop
   vertex 19.722647 -42.305634 654.643738
   vertex 19.846563 -42.103031 654.723633
   vertex 19.596016 -42.103031 654.719299
  endloop
 endfacet

 facet normal -0.016144 -0.358492 0.933393
  outer loop
   vertex 19.596016 -42.103031 654.719299
   vertex 19.846563 -42.103031 654.723633
   vertex 19.719933 -41.900433 654.799255
  endloop
 endfacet

 facet normal -0.016372 -0.358369 0.933436
  outer loop
   vertex 19.719933 -41.900433 654.799255
   vertex 19.469385 -41.900433 654.794861
   vertex 19.596016 -42.103031 654.719299
  endloop
 endfacet

 facet normal -0.016144 -0.358492 0.933393
  outer loop
   vertex -2.372000 -41.900433 654.413574
   vertex -2.622547 -41.900433 654.409241
   vertex -2.495916 -42.103031 654.333618
  endloop
 endfacet

 facet normal -0.016144 -0.358492 0.933393
  outer loop
   vertex -2.495916 -42.103031 654.333618
   vertex -2.622547 -41.900433 654.409241
   vertex -2.746464 -42.103031 654.329285
  endloop
 endfacet

 facet normal -0.016146 -0.358247 0.933487
  outer loop
   vertex -2.746464 -42.103031 654.329285
   vertex -2.619833 -42.305630 654.253723
   vertex -2.495916 -42.103031 654.333618
  endloop
 endfacet

 facet normal -0.016306 -0.358350 0.933445
  outer loop
   vertex 18.168884 -40.790249 653.018494
   vertex 18.176704 -41.957409 652.570557
   vertex 21.159828 -40.790249 653.070740
  endloop
 endfacet

 facet normal -0.016286 -0.358393 0.933429
  outer loop
   vertex 21.159828 -40.790249 653.070740
   vertex 18.176704 -41.957409 652.570557
   vertex 21.167648 -41.957409 652.622742
  endloop
 endfacet

 facet normal 0.999848 -0.000000 0.017454
  outer loop
   vertex 21.167648 -41.957409 652.622742
   vertex 21.182455 -40.292625 651.774536
   vertex 21.159828 -40.790249 653.070740
  endloop
 endfacet

 facet normal 0.999848 0.000000 0.017455
  outer loop
   vertex 21.190275 -41.459785 651.326599
   vertex 21.182455 -40.292625 651.774536
   vertex 21.167648 -41.957409 652.622742
  endloop
 endfacet

 facet normal 0.016286 0.358350 -0.933445
  outer loop
   vertex 18.199331 -41.459785 651.274414
   vertex 21.182455 -40.292625 651.774536
   vertex 21.190275 -41.459785 651.326599
  endloop
 endfacet

 facet normal 0.006252 -0.933579 -0.358317
  outer loop
   vertex 21.190275 -41.459785 651.326599
   vertex 18.176704 -41.957409 652.570557
   vertex 18.199331 -41.459785 651.274414
  endloop
 endfacet

 facet normal -0.999848 -0.000000 -0.017455
  outer loop
   vertex 18.199331 -41.459785 651.274414
   vertex 18.176704 -41.957409 652.570557
   vertex 18.191511 -40.292625 651.722351
  endloop
 endfacet

 facet normal -0.999848 -0.000000 -0.017455
  outer loop
   vertex 18.191511 -40.292625 651.722351
   vertex 18.176704 -41.957409 652.570557
   vertex 18.168884 -40.790249 653.018494
  endloop
 endfacet

 facet normal -0.006252 0.933579 0.358317
  outer loop
   vertex 18.168884 -40.790249 653.018494
   vertex 21.182455 -40.292625 651.774536
   vertex 18.191511 -40.292625 651.722351
  endloop
 endfacet

 facet normal -0.006259 0.933585 0.358302
  outer loop
   vertex 21.159828 -40.790249 653.070740
   vertex 21.182455 -40.292625 651.774536
   vertex 18.168884 -40.790249 653.018494
  endloop
 endfacet

 facet normal -0.999848 -0.000000 -0.017454
  outer loop
   vertex -3.978612 -40.292622 651.335327
   vertex -3.970793 -41.459782 650.887390
   vertex -4.001238 -40.790249 652.631470
  endloop
 endfacet

 facet normal -0.999848 -0.000000 -0.017454
  outer loop
   vertex -4.001238 -40.790249 652.631470
   vertex -3.970793 -41.459782 650.887390
   vertex -3.993419 -41.957409 652.183533
  endloop
 endfacet

 facet normal -0.016306 -0.358350 0.933445
  outer loop
   vertex -3.993419 -41.957409 652.183533
   vertex -1.010294 -40.790249 652.683716
   vertex -4.001238 -40.790249 652.631470
  endloop
 endfacet

 facet normal -0.016286 -0.358393 0.933429
  outer loop
   vertex -1.002475 -41.957409 652.235718
   vertex -1.010294 -40.790249 652.683716
   vertex -3.993419 -41.957409 652.183533
  endloop
 endfacet

 facet normal 0.999848 -0.000001 0.017454
  outer loop
   vertex -0.979849 -41.459785 650.939575
   vertex -1.010294 -40.790249 652.683716
   vertex -1.002475 -41.957409 652.235718
  endloop
 endfacet

 facet normal 0.006251 -0.933579 -0.358317
  outer loop
   vertex -1.002475 -41.957409 652.235718
   vertex -3.970793 -41.459782 650.887390
   vertex -0.979849 -41.459785 650.939575
  endloop
 endfacet

 facet normal 0.016287 0.358392 -0.933429
  outer loop
   vertex -0.979849 -41.459785 650.939575
   vertex -3.970793 -41.459782 650.887390
   vertex -0.987668 -40.292622 651.387573
  endloop
 endfacet

 facet normal 0.016306 0.358350 -0.933445
  outer loop
   vertex -0.987668 -40.292622 651.387573
   vertex -3.970793 -41.459782 650.887390
   vertex -3.978612 -40.292622 651.335327
  endloop
 endfacet

 facet normal -0.006259 0.933578 0.358319
  outer loop
   vertex -3.978612 -40.292622 651.335327
   vertex -1.010294 -40.790249 652.683716
   vertex -0.987668 -40.292622 651.387573
  endloop
 endfacet

 facet normal -0.006259 0.933578 0.358319
  outer loop
   vertex -4.001238 -40.790249 652.631470
   vertex -1.010294 -40.790249 652.683716
   vertex -3.978612 -40.292622 651.335327
  endloop
 endfacet

 facet normal 0.006252 -0.933578 -0.358319
  outer loop
   vertex -1.002475 -41.957409 652.235718
   vertex -3.993419 -41.957409 652.183533
   vertex -3.970793 -41.459782 650.887390
  endloop
 endfacet

 facet normal 0.006252 -0.933579 -0.358317
  outer loop
   vertex 21.167648 -41.957409 652.622742
   vertex 18.176704 -41.957409 652.570557
   vertex 21.190275 -41.459785 651.326599
  endloop
 endfacet

 facet normal 0.999848 -0.000001 0.017454
  outer loop
   vertex -0.979849 -41.459785 650.939575
   vertex -0.987668 -40.292622 651.387573
   vertex -1.010294 -40.790249 652.683716
  endloop
 endfacet

 facet normal 0.016286 0.358350 -0.933445
  outer loop
   vertex 18.199331 -41.459785 651.274414
   vertex 18.191511 -40.292625 651.722351
   vertex 21.182455 -40.292625 651.774536
  endloop
 endfacet

 facet normal -0.016291 -0.358623 0.933340
  outer loop
   vertex 18.340168 -41.633610 655.665100
   vertex -1.273158 -41.735939 655.283447
   vertex 18.340853 -41.735939 655.625793
  endloop
 endfacet

 facet normal -0.004643 -0.963964 0.265991
  outer loop
   vertex 18.340853 -41.735939 655.625793
   vertex -1.273158 -41.735939 655.283447
   vertex 18.343298 -41.774586 655.485779
  endloop
 endfacet

 facet normal -0.005006 -0.958154 0.286210
  outer loop
   vertex -0.517643 -43.104122 654.834717
   vertex -1.674427 -43.134159 654.713928
   vertex -0.515888 -43.134159 654.734192
  endloop
 endfacet

 facet normal 0.006267 -0.933577 -0.358323
  outer loop
   vertex -0.515888 -43.134159 654.734192
   vertex -1.674427 -43.134159 654.713928
   vertex -1.660713 -42.832546 653.928345
  endloop
 endfacet

 facet normal -0.006248 0.933577 0.358323
  outer loop
   vertex 18.765066 -41.279984 654.880981
   vertex 17.592813 -41.581596 655.646362
   vertex 18.751352 -41.581596 655.666565
  endloop
 endfacet

 facet normal -0.014886 0.520597 0.853673
  outer loop
   vertex 18.751352 -41.581596 655.666565
   vertex 17.592813 -41.581596 655.646362
   vertex 17.591860 -41.671200 655.700989
  endloop
 endfacet

 facet normal -0.014704 0.538599 0.842434
  outer loop
   vertex -1.263344 -42.874554 654.721191
   vertex -1.264709 -42.996979 654.799438
   vertex 18.349302 -42.996983 655.141785
  endloop
 endfacet

 facet normal -0.016294 -0.358138 0.933527
  outer loop
   vertex 18.349302 -42.996983 655.141785
   vertex -1.264709 -42.996979 654.799438
   vertex 18.349987 -43.099312 655.102539
  endloop
 endfacet

 facet normal -0.017451 0.001700 0.999846
  outer loop
   vertex -1.261108 -41.389412 654.593140
   vertex 18.352903 -41.389412 654.935486
   vertex -1.261107 -41.353500 654.593079
  endloop
 endfacet

 facet normal -0.017455 -0.000000 0.999848
  outer loop
   vertex -1.261107 -41.353500 654.593079
   vertex 18.352903 -41.389412 654.935486
   vertex 18.352903 -41.353504 654.935486
  endloop
 endfacet

 facet normal -0.006255 0.933584 0.358305
  outer loop
   vertex 18.352903 -41.353504 654.935486
   vertex -1.259957 -41.328194 654.527161
   vertex -1.261107 -41.353500 654.593079
  endloop
 endfacet

 facet normal -0.999848 -0.000000 -0.017453
  outer loop
   vertex -1.684828 -41.581593 655.309814
   vertex -1.683087 -41.797966 655.210083
   vertex -1.685782 -41.671200 655.364441
  endloop
 endfacet

 facet normal -0.999848 -0.000003 -0.017451
  outer loop
   vertex -1.685782 -41.671200 655.364441
   vertex -1.683087 -41.797966 655.210083
   vertex -1.684788 -41.819607 655.307495
  endloop
 endfacet

 facet normal -0.016327 -0.358293 0.933466
  outer loop
   vertex -1.684788 -41.819607 655.307495
   vertex -0.527243 -41.671200 655.384705
   vertex -1.685782 -41.671200 655.364441
  endloop
 endfacet

 facet normal 0.999848 -0.000008 0.017456
  outer loop
   vertex 18.761753 -43.134159 655.070679
   vertex 18.760521 -42.906620 655.141357
   vertex 18.759998 -43.104122 655.171204
  endloop
 endfacet

 facet normal 0.999848 -0.000009 0.017451
  outer loop
   vertex 18.759998 -43.104122 655.171204
   vertex 18.760521 -42.906620 655.141357
   vertex 18.759005 -42.955719 655.228210
  endloop
 endfacet

 facet normal -0.016276 -0.358636 0.933336
  outer loop
   vertex 18.759005 -42.955719 655.228210
   vertex 17.601460 -43.104122 655.151001
   vertex 18.759998 -43.104122 655.171204
  endloop
 endfacet

 facet normal 0.999848 0.000001 0.017454
  outer loop
   vertex -0.518637 -42.955715 654.891663
   vertex -0.517643 -43.104122 654.834717
   vertex -0.517121 -42.906620 654.804810
  endloop
 endfacet

 facet normal 0.999848 0.000001 0.017455
  outer loop
   vertex -0.517121 -42.906620 654.804810
   vertex -0.517643 -43.104122 654.834717
   vertex -0.515888 -43.134159 654.734192
  endloop
 endfacet

 facet normal 0.999848 0.000002 0.017453
  outer loop
   vertex -0.515888 -43.134159 654.734192
   vertex -0.502174 -42.832546 653.948547
   vertex -0.517121 -42.906620 654.804810
  endloop
 endfacet

 facet normal 0.006248 -0.933586 -0.358299
  outer loop
   vertex -1.660713 -42.832546 653.928345
   vertex -0.502174 -42.832546 653.948547
   vertex -0.515888 -43.134159 654.734192
  endloop
 endfacet

 facet normal -0.014710 0.538301 0.842624
  outer loop
   vertex 18.349302 -42.996983 655.141785
   vertex 18.350668 -42.874557 655.063599
   vertex -1.263344 -42.874554 654.721191
  endloop
 endfacet

 facet normal -0.016295 -0.358372 0.933437
  outer loop
   vertex -1.263344 -42.874554 654.721191
   vertex 18.350668 -42.874557 655.063599
   vertex 18.343298 -41.774586 655.485779
  endloop
 endfacet

 facet normal -0.016295 -0.358372 0.933437
  outer loop
   vertex 18.343298 -41.774586 655.485779
   vertex -1.270713 -41.774582 655.143372
   vertex -1.263344 -42.874554 654.721191
  endloop
 endfacet

 facet normal -0.004641 -0.964001 0.265859
  outer loop
   vertex -1.273158 -41.735939 655.283447
   vertex -1.270713 -41.774582 655.143372
   vertex 18.343298 -41.774586 655.485779
  endloop
 endfacet

 facet normal -0.006267 0.933586 0.358299
  outer loop
   vertex 18.765066 -41.279984 654.880981
   vertex 17.606527 -41.279984 654.860718
   vertex 17.592813 -41.581596 655.646362
  endloop
 endfacet

 facet normal -0.999848 0.000005 -0.017451
  outer loop
   vertex 17.592813 -41.581596 655.646362
   vertex 17.606527 -41.279984 654.860718
   vertex 17.594553 -41.797970 655.546631
  endloop
 endfacet

 facet normal -0.999848 0.000004 -0.017448
  outer loop
   vertex 17.594553 -41.797970 655.546631
   vertex 17.591860 -41.671200 655.700989
   vertex 17.592813 -41.581596 655.646362
  endloop
 endfacet

 facet normal -0.999848 0.000009 -0.017452
  outer loop
   vertex 17.592854 -41.819607 655.643982
   vertex 17.591860 -41.671200 655.700989
   vertex 17.594553 -41.797970 655.546631
  endloop
 endfacet

 facet normal 0.012961 0.669625 -0.742586
  outer loop
   vertex 18.342907 -41.609283 655.508179
   vertex -1.271105 -41.609283 655.165833
   vertex 18.342487 -41.582607 655.532227
  endloop
 endfacet

 facet normal 0.012979 0.668633 -0.743479
  outer loop
   vertex 18.342487 -41.582607 655.532227
   vertex -1.271105 -41.609283 655.165833
   vertex -1.271524 -41.582603 655.189819
  endloop
 endfacet

 facet normal -0.006254 0.933605 0.358248
  outer loop
   vertex -1.271524 -41.582603 655.189819
   vertex 18.340168 -41.633610 655.665100
   vertex 18.342487 -41.582607 655.532227
  endloop
 endfacet

 facet normal -0.006254 0.933605 0.358248
  outer loop
   vertex -1.273843 -41.633606 655.322693
   vertex 18.340168 -41.633610 655.665100
   vertex -1.271524 -41.582603 655.189819
  endloop
 endfacet

 facet normal -0.016297 -0.358126 0.933531
  outer loop
   vertex -1.273158 -41.735939 655.283447
   vertex 18.340168 -41.633610 655.665100
   vertex -1.273843 -41.633606 655.322693
  endloop
 endfacet

 facet normal -0.016284 -0.358399 0.933426
  outer loop
   vertex 20.174162 -41.410294 654.480286
   vertex 18.533226 -42.451176 654.052002
   vertex 20.181135 -42.451176 654.080750
  endloop
 endfacet

 facet normal 0.006251 -0.933580 -0.358314
  outer loop
   vertex 20.181135 -42.451176 654.080750
   vertex 18.533226 -42.451176 654.052002
   vertex 20.206245 -41.898911 652.642273
  endloop
 endfacet

 facet normal 0.999848 -0.000001 0.017453
  outer loop
   vertex 20.206245 -41.898911 652.642273
   vertex 20.199272 -40.858032 653.041809
   vertex 20.181135 -42.451176 654.080750
  endloop
 endfacet

 facet normal 0.016283 0.358400 -0.933426
  outer loop
   vertex 18.558336 -41.898911 652.613525
   vertex 20.199272 -40.858032 653.041809
   vertex 20.206245 -41.898911 652.642273
  endloop
 endfacet

 facet normal 0.016283 0.358400 -0.933426
  outer loop
   vertex 18.551363 -40.858032 653.013062
   vertex 20.199272 -40.858032 653.041809
   vertex 18.558336 -41.898911 652.613525
  endloop
 endfacet

 facet normal -0.999848 0.000001 -0.017453
  outer loop
   vertex 18.558336 -41.898911 652.613525
   vertex 18.533226 -42.451176 654.052002
   vertex 18.551363 -40.858032 653.013062
  endloop
 endfacet

 facet normal -0.999848 0.000001 -0.017453
  outer loop
   vertex 18.551363 -40.858032 653.013062
   vertex 18.533226 -42.451176 654.052002
   vertex 18.526253 -41.410294 654.451538
  endloop
 endfacet

 facet normal -0.016284 -0.358399 0.933426
  outer loop
   vertex 18.526253 -41.410294 654.451538
   vertex 18.533226 -42.451176 654.052002
   vertex 20.174162 -41.410294 654.480286
  endloop
 endfacet

 facet normal -0.006251 0.933581 0.358312
  outer loop
   vertex 20.174162 -41.410294 654.480286
   vertex 20.199272 -40.858032 653.041809
   vertex 18.526253 -41.410294 654.451538
  endloop
 endfacet

 facet normal 0.999848 -0.000001 0.017453
  outer loop
   vertex 20.181135 -42.451176 654.080750
   vertex 20.199272 -40.858032 653.041809
   vertex 20.174162 -41.410294 654.480286
  endloop
 endfacet

 facet normal -0.006264 0.933580 0.358314
  outer loop
   vertex -3.065368 -41.410294 654.074585
   vertex -1.417459 -41.410294 654.103394
   vertex -3.040258 -40.858028 652.636108
  endloop
 endfacet

 facet normal -0.006264 0.933580 0.358314
  outer loop
   vertex -3.040258 -40.858028 652.636108
   vertex -1.417459 -41.410294 654.103394
   vertex -1.392348 -40.858028 652.664917
  endloop
 endfacet

 facet normal 0.016318 0.358351 -0.933444
  outer loop
   vertex -1.392348 -40.858028 652.664917
   vertex -3.033285 -41.898911 652.236633
   vertex -3.040258 -40.858028 652.636108
  endloop
 endfacet

 facet normal 0.016283 0.358399 -0.933426
  outer loop
   vertex -1.385375 -41.898911 652.265381
   vertex -3.033285 -41.898911 652.236633
   vertex -1.392348 -40.858028 652.664917
  endloop
 endfacet

 facet normal 0.006251 -0.933580 -0.358314
  outer loop
   vertex -1.410485 -42.451176 653.703857
   vertex -3.033285 -41.898911 652.236633
   vertex -1.385375 -41.898911 652.265381
  endloop
 endfacet

 facet normal 0.999848 -0.000001 0.017453
  outer loop
   vertex -1.385375 -41.898911 652.265381
   vertex -1.417459 -41.410294 654.103394
   vertex -1.410485 -42.451176 653.703857
  endloop
 endfacet

 facet normal -0.016283 -0.358399 0.933426
  outer loop
   vertex -1.410485 -42.451176 653.703857
   vertex -1.417459 -41.410294 654.103394
   vertex -3.058395 -42.451176 653.675110
  endloop
 endfacet

 facet normal -0.016318 -0.358351 0.933444
  outer loop
   vertex -3.058395 -42.451176 653.675110
   vertex -1.417459 -41.410294 654.103394
   vertex -3.065368 -41.410294 654.074585
  endloop
 endfacet

 facet normal -0.999848 -0.000000 -0.017454
  outer loop
   vertex -3.065368 -41.410294 654.074585
   vertex -3.033285 -41.898911 652.236633
   vertex -3.058395 -42.451176 653.675110
  endloop
 endfacet

 facet normal -0.999848 -0.000000 -0.017454
  outer loop
   vertex -3.040258 -40.858028 652.636108
   vertex -3.033285 -41.898911 652.236633
   vertex -3.065368 -41.410294 654.074585
  endloop
 endfacet

 facet normal 0.016281 0.358334 -0.933452
  outer loop
   vertex 21.628544 -41.943737 653.642029
   vertex 21.278597 -41.943737 653.635925
   vertex 21.275469 -41.476944 653.815063
  endloop
 endfacet

 facet normal -0.016114 -0.358334 0.933454
  outer loop
   vertex 21.275469 -41.476944 653.815063
   vertex 21.278597 -41.943737 653.635925
   vertex 21.452005 -41.710339 653.728516
  endloop
 endfacet

 facet normal -0.016280 -0.358443 0.933410
  outer loop
   vertex 21.452005 -41.710339 653.728516
   vertex 21.625416 -41.476944 653.821167
   vertex 21.275469 -41.476944 653.815063
  endloop
 endfacet

 facet normal -0.016447 -0.358334 0.933449
  outer loop
   vertex 21.628544 -41.943737 653.642029
   vertex 21.625416 -41.476944 653.821167
   vertex 21.452005 -41.710339 653.728516
  endloop
 endfacet

 facet normal 0.999848 0.000002 0.017455
  outer loop
   vertex 21.641710 -41.118576 652.887756
   vertex 21.625416 -41.476944 653.821167
   vertex 21.628544 -41.943737 653.642029
  endloop
 endfacet

 facet normal 0.999848 -0.000003 0.017450
  outer loop
   vertex 21.628544 -41.943737 653.642029
   vertex 21.644836 -41.585365 652.708557
   vertex 21.641710 -41.118576 652.887756
  endloop
 endfacet

 facet normal 0.016323 0.358443 -0.933409
  outer loop
   vertex 21.641710 -41.118576 652.887756
   vertex 21.644836 -41.585365 652.708557
   vertex 19.941969 -41.118576 652.858032
  endloop
 endfacet

 facet normal 0.016290 0.358336 -0.933450
  outer loop
   vertex 19.941969 -41.118576 652.858032
   vertex 21.644836 -41.585365 652.708557
   vertex 19.945095 -41.585365 652.678894
  endloop
 endfacet

 facet normal -0.999848 0.000002 -0.017453
  outer loop
   vertex 19.945095 -41.585365 652.678894
   vertex 19.928801 -41.943737 653.612366
   vertex 19.941969 -41.118576 652.858032
  endloop
 endfacet

 facet normal 0.006222 -0.933583 -0.358306
  outer loop
   vertex 20.349798 -41.854141 653.386230
   vertex 19.928801 -41.943737 653.612366
   vertex 19.945095 -41.585365 652.678894
  endloop
 endfacet

 facet normal 0.006249 -0.933600 -0.358263
  outer loop
   vertex 20.278748 -41.943737 653.618469
   vertex 19.928801 -41.943737 653.612366
   vertex 20.349798 -41.854141 653.386230
  endloop
 endfacet

 facet normal -0.006229 0.933577 0.358323
  outer loop
   vertex -3.205842 -41.387352 653.154297
   vertex -2.792992 -41.476944 653.394897
   vertex -2.776698 -41.118576 652.461487
  endloop
 endfacet

 facet normal 0.999848 0.000000 0.017454
  outer loop
   vertex -2.776698 -41.118576 652.461487
   vertex -2.792992 -41.476944 653.394897
   vertex -2.773570 -41.585365 652.282349
  endloop
 endfacet

 facet normal 0.016290 0.358336 -0.933450
  outer loop
   vertex -2.773570 -41.585365 652.282349
   vertex -4.476439 -41.118576 652.431824
   vertex -2.776698 -41.118576 652.461487
  endloop
 endfacet

 facet normal 0.016323 0.358443 -0.933409
  outer loop
   vertex -4.473312 -41.585365 652.252625
   vertex -4.476439 -41.118576 652.431824
   vertex -2.773570 -41.585365 652.282349
  endloop
 endfacet

 facet normal -0.999848 0.000001 -0.017453
  outer loop
   vertex -4.492733 -41.476944 653.365234
   vertex -4.476439 -41.118576 652.431824
   vertex -4.473312 -41.585365 652.252625
  endloop
 endfacet

 facet normal -0.999848 -0.000000 -0.017453
  outer loop
   vertex -4.473312 -41.585365 652.252625
   vertex -4.489606 -41.943733 653.186096
   vertex -4.492733 -41.476944 653.365234
  endloop
 endfacet

 facet normal -0.016443 -0.358336 0.933448
  outer loop
   vertex -4.492733 -41.476944 653.365234
   vertex -4.489606 -41.943733 653.186096
   vertex -4.316196 -41.710339 653.278748
  endloop
 endfacet

 facet normal -0.016280 -0.358443 0.933410
  outer loop
   vertex -4.316196 -41.710339 653.278748
   vertex -4.489606 -41.943733 653.186096
   vertex -4.139659 -41.943733 653.192200
  endloop
 endfacet

 facet normal -0.016118 -0.358336 0.933453
  outer loop
   vertex -4.139659 -41.943733 653.192200
   vertex -4.142787 -41.476944 653.371338
   vertex -4.316196 -41.710339 653.278748
  endloop
 endfacet

 facet normal 0.016281 0.358336 -0.933451
  outer loop
   vertex -4.492733 -41.476944 653.365234
   vertex -4.142787 -41.476944 653.371338
   vertex -4.139659 -41.943733 653.192200
  endloop
 endfacet

 facet normal -0.016281 -0.358230 0.933491
  outer loop
   vertex -4.316196 -41.710339 653.278748
   vertex -4.142787 -41.476944 653.371338
   vertex -4.492733 -41.476944 653.365234
  endloop
 endfacet

 facet normal -0.016294 -0.358611 0.933345
  outer loop
   vertex -1.264709 -42.996979 654.799438
   vertex -1.264023 -43.099312 654.760132
   vertex 18.349987 -43.099312 655.102539
  endloop
 endfacet

 facet normal 0.006257 -0.933550 -0.358392
  outer loop
   vertex 18.349987 -43.099312 655.102539
   vertex -1.264023 -43.099312 654.760132
   vertex -1.261704 -43.048309 654.627319
  endloop
 endfacet

 facet normal 0.006253 -0.933605 -0.358248
  outer loop
   vertex -1.261704 -43.048309 654.627319
   vertex 18.352306 -43.048309 654.969666
   vertex 18.349987 -43.099312 655.102539
  endloop
 endfacet

 facet normal 0.017451 -0.001699 -0.999846
  outer loop
   vertex -1.261704 -43.012398 654.627258
   vertex 18.352306 -43.048309 654.969666
   vertex -1.261704 -43.048309 654.627319
  endloop
 endfacet

 facet normal 0.017455 0.000000 -0.999848
  outer loop
   vertex 18.352306 -43.012398 654.969666
   vertex 18.352306 -43.048309 654.969666
   vertex -1.261704 -43.012398 654.627258
  endloop
 endfacet

 facet normal 0.006255 -0.933579 -0.358316
  outer loop
   vertex -1.261704 -43.012398 654.627258
   vertex -1.251707 -42.792526 654.054565
   vertex 18.352306 -43.012398 654.969666
  endloop
 endfacet

 facet normal 0.006255 -0.933582 -0.358311
  outer loop
   vertex 18.352306 -43.012398 654.969666
   vertex -1.251707 -42.792526 654.054565
   vertex 18.362305 -42.792530 654.396973
  endloop
 endfacet

 facet normal -0.012979 -0.668633 0.743479
  outer loop
   vertex 18.362305 -42.792530 654.396973
   vertex -1.251707 -42.792526 654.054565
   vertex -1.251288 -42.819206 654.030579
  endloop
 endfacet

 facet normal -0.012961 -0.669625 0.742586
  outer loop
   vertex -1.251288 -42.819206 654.030579
   vertex 18.362724 -42.819206 654.372925
   vertex 18.362305 -42.792530 654.396973
  endloop
 endfacet

 facet normal 0.006254 -0.933584 -0.358305
  outer loop
   vertex -1.250137 -42.793900 653.964661
   vertex 18.362724 -42.819206 654.372925
   vertex -1.251288 -42.819206 654.030579
  endloop
 endfacet

 facet normal 0.006254 -0.933584 -0.358305
  outer loop
   vertex 18.363874 -42.793900 654.307007
   vertex 18.362724 -42.819206 654.372925
   vertex -1.250137 -42.793900 653.964661
  endloop
 endfacet

 facet normal 0.016293 0.358342 -0.933448
  outer loop
   vertex -1.250137 -42.793900 653.964661
   vertex -1.259957 -41.328194 654.527161
   vertex 18.363874 -42.793900 654.307007
  endloop
 endfacet

 facet normal 0.016295 0.358376 -0.933435
  outer loop
   vertex 18.363874 -42.793900 654.307007
   vertex -1.259957 -41.328194 654.527161
   vertex 18.354055 -41.328194 654.869568
  endloop
 endfacet

 facet normal -0.006256 0.933566 0.358352
  outer loop
   vertex 18.354055 -41.328194 654.869568
   vertex -1.259957 -41.328194 654.527161
   vertex 18.352903 -41.353504 654.935486
  endloop
 endfacet

 facet normal -0.006268 0.933585 0.358302
  outer loop
   vertex 20.346672 -41.387352 653.565430
   vertex 19.941969 -41.118576 652.858032
   vertex 19.925674 -41.476944 653.791504
  endloop
 endfacet

 facet normal -0.999848 0.000002 -0.017453
  outer loop
   vertex 19.925674 -41.476944 653.791504
   vertex 19.941969 -41.118576 652.858032
   vertex 19.928801 -41.943737 653.612366
  endloop
 endfacet

 facet normal -0.016281 -0.358334 0.933452
  outer loop
   vertex 19.928801 -41.943737 653.612366
   vertex 20.275621 -41.476944 653.797607
   vertex 19.925674 -41.476944 653.791504
  endloop
 endfacet

 facet normal -0.016281 -0.358334 0.933452
  outer loop
   vertex 20.278748 -41.943737 653.618469
   vertex 20.275621 -41.476944 653.797607
   vertex 19.928801 -41.943737 653.612366
  endloop
 endfacet

 facet normal 0.016281 0.358334 -0.933452
  outer loop
   vertex 19.928801 -41.943737 653.612366
   vertex 20.275621 -41.476944 653.797607
   vertex 20.278748 -41.943737 653.618469
  endloop
 endfacet

 facet normal 0.006250 -0.933565 -0.358354
  outer loop
   vertex 20.278748 -41.943737 653.618469
   vertex 20.341652 -42.033329 653.852966
   vertex 19.928801 -41.943737 653.612366
  endloop
 endfacet

 facet normal 0.006226 -0.933579 -0.358319
  outer loop
   vertex 19.928801 -41.943737 653.612366
   vertex 20.341652 -42.033329 653.852966
   vertex 20.035738 -42.096043 654.011047
  endloop
 endfacet

 facet normal 0.006228 -0.933580 -0.358316
  outer loop
   vertex 20.035738 -42.096043 654.011047
   vertex 20.341652 -42.033329 653.852966
   vertex 20.521654 -42.098915 654.026978
  endloop
 endfacet

 facet normal 0.006227 -0.933588 -0.358294
  outer loop
   vertex 20.521654 -42.098915 654.026978
   vertex 20.341743 -42.207539 654.306885
   vertex 20.035738 -42.096043 654.011047
  endloop
 endfacet

 facet normal 0.006250 -0.933593 -0.358282
  outer loop
   vertex 20.770525 -42.122921 654.093872
   vertex 20.341743 -42.207539 654.306885
   vertex 20.521654 -42.098915 654.026978
  endloop
 endfacet

 facet normal 0.006244 -0.933588 -0.358293
  outer loop
   vertex 20.764822 -42.248348 654.420593
   vertex 20.341743 -42.207539 654.306885
   vertex 20.770525 -42.122921 654.093872
  endloop
 endfacet

 facet normal 0.006258 -0.933588 -0.358292
  outer loop
   vertex 20.770525 -42.122921 654.093872
   vertex 21.021578 -42.098915 654.035706
   vertex 20.764822 -42.248348 654.420593
  endloop
 endfacet

 facet normal 0.006263 -0.933590 -0.358290
  outer loop
   vertex 20.764822 -42.248348 654.420593
   vertex 21.021578 -42.098915 654.035706
   vertex 21.191614 -42.207539 654.321716
  endloop
 endfacet

 facet normal 0.006317 -0.933578 -0.358318
  outer loop
   vertex 21.191614 -42.207539 654.321716
   vertex 21.021578 -42.098915 654.035706
   vertex 21.207546 -42.033329 653.868103
  endloop
 endfacet

 facet normal 0.006259 -0.933578 -0.358320
  outer loop
   vertex 21.207546 -42.033329 653.868103
   vertex 21.507757 -42.096043 654.036743
   vertex 21.191614 -42.207539 654.321716
  endloop
 endfacet

 facet normal 0.006264 -0.933575 -0.358328
  outer loop
   vertex 21.278597 -41.943737 653.635925
   vertex 21.507757 -42.096043 654.036743
   vertex 21.207546 -42.033329 653.868103
  endloop
 endfacet

 facet normal 0.006250 -0.933578 -0.358321
  outer loop
   vertex 21.628544 -41.943737 653.642029
   vertex 21.507757 -42.096043 654.036743
   vertex 21.278597 -41.943737 653.635925
  endloop
 endfacet

 facet normal 0.006249 -0.933596 -0.358273
  outer loop
   vertex 21.278597 -41.943737 653.635925
   vertex 21.215693 -41.854145 653.401367
   vertex 21.628544 -41.943737 653.642029
  endloop
 endfacet

 facet normal 0.006270 -0.933583 -0.358305
  outer loop
   vertex 21.628544 -41.943737 653.642029
   vertex 21.215693 -41.854145 653.401367
   vertex 21.644836 -41.585365 652.708557
  endloop
 endfacet

 facet normal 0.006237 -0.933577 -0.358323
  outer loop
   vertex 21.644836 -41.585365 652.708557
   vertex 21.215693 -41.854145 653.401367
   vertex 21.035690 -41.788559 653.227356
  endloop
 endfacet

 facet normal 0.006245 -0.933580 -0.358315
  outer loop
   vertex 21.035690 -41.788559 653.227356
   vertex 20.786819 -41.764549 653.160461
   vertex 21.644836 -41.585365 652.708557
  endloop
 endfacet

 facet normal 0.006282 -0.933577 -0.358322
  outer loop
   vertex -3.202715 -41.854141 652.975098
   vertex -2.773570 -41.585365 652.282349
   vertex -2.789865 -41.943733 653.215759
  endloop
 endfacet

 facet normal 0.999848 0.000000 0.017454
  outer loop
   vertex -2.789865 -41.943733 653.215759
   vertex -2.773570 -41.585365 652.282349
   vertex -2.792992 -41.476944 653.394897
  endloop
 endfacet

 facet normal -0.016281 -0.358336 0.933451
  outer loop
   vertex -2.792992 -41.476944 653.394897
   vertex -3.139812 -41.943733 653.209656
   vertex -2.789865 -41.943733 653.215759
  endloop
 endfacet

 facet normal -0.016281 -0.358336 0.933451
  outer loop
   vertex -3.142939 -41.476944 653.388794
   vertex -3.139812 -41.943733 653.209656
   vertex -2.792992 -41.476944 653.394897
  endloop
 endfacet

 facet normal 0.016281 0.358336 -0.933451
  outer loop
   vertex -2.792992 -41.476944 653.394897
   vertex -3.139812 -41.943733 653.209656
   vertex -3.142939 -41.476944 653.388794
  endloop
 endfacet

 facet normal -0.006250 0.933573 0.358332
  outer loop
   vertex -3.142939 -41.476944 653.388794
   vertex -3.213989 -41.566536 653.620972
   vertex -2.792992 -41.476944 653.394897
  endloop
 endfacet

 facet normal -0.006258 0.933579 0.358318
  outer loop
   vertex -2.792992 -41.476944 653.394897
   vertex -3.213989 -41.566536 653.620972
   vertex -2.913779 -41.629250 653.789612
  endloop
 endfacet

 facet normal -0.006236 0.933592 0.358283
  outer loop
   vertex -2.913779 -41.629250 653.789612
   vertex -3.213989 -41.566536 653.620972
   vertex -3.399956 -41.632122 653.788635
  endloop
 endfacet

 facet normal -0.006236 0.933595 0.358275
  outer loop
   vertex -3.399956 -41.632122 653.788635
   vertex -3.229923 -41.740746 654.074646
   vertex -2.913779 -41.629250 653.789612
  endloop
 endfacet

 facet normal -0.006259 0.933590 0.358288
  outer loop
   vertex -3.651010 -41.656128 653.846802
   vertex -3.229923 -41.740746 654.074646
   vertex -3.399956 -41.632122 653.788635
  endloop
 endfacet

 facet normal -0.006268 0.933585 0.358302
  outer loop
   vertex -3.656713 -41.781559 654.173523
   vertex -3.229923 -41.740746 654.074646
   vertex -3.651010 -41.656128 653.846802
  endloop
 endfacet

 facet normal -0.006256 0.933585 0.358302
  outer loop
   vertex -3.651010 -41.656128 653.846802
   vertex -3.899880 -41.632122 653.779907
   vertex -3.656713 -41.781559 654.173523
  endloop
 endfacet

 facet normal -0.006234 0.933589 0.358290
  outer loop
   vertex -3.656713 -41.781559 654.173523
   vertex -3.899880 -41.632122 653.779907
   vertex -4.079794 -41.740746 654.059814
  endloop
 endfacet

 facet normal -0.006213 0.933585 0.358302
  outer loop
   vertex -4.079794 -41.740746 654.059814
   vertex -3.899880 -41.632122 653.779907
   vertex -4.079884 -41.566536 653.605896
  endloop
 endfacet

 facet normal -0.006308 0.933584 0.358302
  outer loop
   vertex -4.079884 -41.566536 653.605896
   vertex -4.385798 -41.629250 653.763916
   vertex -4.079794 -41.740746 654.059814
  endloop
 endfacet

 facet normal -0.006316 0.933590 0.358288
  outer loop
   vertex -4.142787 -41.476944 653.371338
   vertex -4.385798 -41.629250 653.763916
   vertex -4.079884 -41.566536 653.605896
  endloop
 endfacet

 facet normal -0.006250 0.933576 0.358324
  outer loop
   vertex -4.492733 -41.476944 653.365234
   vertex -4.385798 -41.629250 653.763916
   vertex -4.142787 -41.476944 653.371338
  endloop
 endfacet

 facet normal -0.006250 0.933573 0.358332
  outer loop
   vertex -4.142787 -41.476944 653.371338
   vertex -4.071736 -41.387352 653.139160
   vertex -4.492733 -41.476944 653.365234
  endloop
 endfacet

 facet normal -0.006255 0.933577 0.358323
  outer loop
   vertex -4.492733 -41.476944 653.365234
   vertex -4.071736 -41.387352 653.139160
   vertex -4.476439 -41.118576 652.431824
  endloop
 endfacet

 facet normal -0.006293 0.933569 0.358341
  outer loop
   vertex -4.476439 -41.118576 652.431824
   vertex -4.071736 -41.387352 653.139160
   vertex -3.885769 -41.321766 652.971558
  endloop
 endfacet

 facet normal -0.006254 0.933584 0.358304
  outer loop
   vertex -3.885769 -41.321766 652.971558
   vertex -3.634716 -41.297760 652.913391
   vertex -4.476439 -41.118576 652.431824
  endloop
 endfacet

 facet normal 0.012975 -0.667955 -0.744088
  outer loop
   vertex -1.660713 -42.832546 653.928345
   vertex -1.654280 -42.421886 653.559814
   vertex -0.502174 -42.832546 653.948547
  endloop
 endfacet

 facet normal 0.012975 -0.667955 -0.744088
  outer loop
   vertex -0.502174 -42.832546 653.948547
   vertex -1.654280 -42.421886 653.559814
   vertex -0.495741 -42.421886 653.580017
  endloop
 endfacet

 facet normal 0.999848 -0.000000 0.017453
  outer loop
   vertex -0.495741 -42.421886 653.580017
   vertex -0.502999 -41.338535 653.995850
   vertex -0.502174 -42.832546 653.948547
  endloop
 endfacet

 facet normal 0.016277 0.358395 -0.933428
  outer loop
   vertex -1.654280 -42.421886 653.559814
   vertex -0.502999 -41.338535 653.995850
   vertex -0.495741 -42.421886 653.580017
  endloop
 endfacet

 facet normal 0.016277 0.358395 -0.933428
  outer loop
   vertex -1.661538 -41.338535 653.975647
   vertex -0.502999 -41.338535 653.995850
   vertex -1.654280 -42.421886 653.559814
  endloop
 endfacet

 facet normal -0.999848 0.000001 -0.017454
  outer loop
   vertex -1.654280 -42.421886 653.559814
   vertex -1.671115 -41.279980 654.524231
   vertex -1.661538 -41.338535 653.975647
  endloop
 endfacet

 facet normal 0.001850 0.994353 -0.106105
  outer loop
   vertex -1.661538 -41.338535 653.975647
   vertex -1.671115 -41.279980 654.524231
   vertex -0.502999 -41.338535 653.995850
  endloop
 endfacet

 facet normal 0.001850 0.994353 -0.106105
  outer loop
   vertex -0.502999 -41.338535 653.995850
   vertex -1.671115 -41.279980 654.524231
   vertex -0.512576 -41.279980 654.544434
  endloop
 endfacet

 facet normal 0.999848 -0.000000 0.017454
  outer loop
   vertex -0.512576 -41.279980 654.544434
   vertex -0.502174 -42.832546 653.948547
   vertex -0.502999 -41.338535 653.995850
  endloop
 endfacet

 facet normal 0.999848 0.000000 0.017453
  outer loop
   vertex -0.524549 -41.797966 655.230347
   vertex -0.502174 -42.832546 653.948547
   vertex -0.512576 -41.279980 654.544434
  endloop
 endfacet

 facet normal 0.999848 -0.000000 0.017453
  outer loop
   vertex -0.517121 -42.906620 654.804810
   vertex -0.502174 -42.832546 653.948547
   vertex -0.524549 -41.797966 655.230347
  endloop
 endfacet

 facet normal -0.016277 -0.358390 0.933430
  outer loop
   vertex -0.524549 -41.797966 655.230347
   vertex -1.675660 -42.906620 654.784607
   vertex -0.517121 -42.906620 654.804810
  endloop
 endfacet

 facet normal -0.008579 0.870576 0.491958
  outer loop
   vertex -0.517121 -42.906620 654.804810
   vertex -1.675660 -42.906620 654.784607
   vertex -0.518637 -42.955715 654.891663
  endloop
 endfacet

 facet normal -0.008579 0.870576 0.491958
  outer loop
   vertex -0.518637 -42.955715 654.891663
   vertex -1.675660 -42.906620 654.784607
   vertex -1.677176 -42.955715 654.871460
  endloop
 endfacet

 facet normal -0.016278 -0.358293 0.933467
  outer loop
   vertex -1.677176 -42.955715 654.871460
   vertex -0.517643 -43.104122 654.834717
   vertex -0.518637 -42.955715 654.891663
  endloop
 endfacet

 facet normal -0.016278 -0.358293 0.933467
  outer loop
   vertex -1.676182 -43.104122 654.814514
   vertex -0.517643 -43.104122 654.834717
   vertex -1.677176 -42.955715 654.871460
  endloop
 endfacet

 facet normal -0.004988 -0.958202 0.286051
  outer loop
   vertex -1.674427 -43.134159 654.713928
   vertex -0.517643 -43.104122 654.834717
   vertex -1.676182 -43.104122 654.814514
  endloop
 endfacet

 facet normal -0.999848 -0.000000 -0.017445
  outer loop
   vertex -1.676182 -43.104122 654.814514
   vertex -1.675660 -42.906620 654.784607
   vertex -1.674427 -43.134159 654.713928
  endloop
 endfacet

 facet normal -0.999848 0.000002 -0.017453
  outer loop
   vertex -1.674427 -43.134159 654.713928
   vertex -1.675660 -42.906620 654.784607
   vertex -1.660713 -42.832546 653.928345
  endloop
 endfacet

 facet normal -0.999848 -0.000000 -0.017453
  outer loop
   vertex -1.660713 -42.832546 653.928345
   vertex -1.675660 -42.906620 654.784607
   vertex -1.683087 -41.797966 655.210083
  endloop
 endfacet

 facet normal -0.999848 0.000000 -0.017454
  outer loop
   vertex -1.683087 -41.797966 655.210083
   vertex -1.671115 -41.279980 654.524231
   vertex -1.660713 -42.832546 653.928345
  endloop
 endfacet

 facet normal -0.999848 0.000000 -0.017454
  outer loop
   vertex -1.684828 -41.581593 655.309814
   vertex -1.671115 -41.279980 654.524231
   vertex -1.683087 -41.797966 655.210083
  endloop
 endfacet

 facet normal -0.006248 0.933577 0.358323
  outer loop
   vertex -0.512576 -41.279980 654.544434
   vertex -1.671115 -41.279980 654.524231
   vertex -1.684828 -41.581593 655.309814
  endloop
 endfacet

 facet normal -0.006267 0.933586 0.358299
  outer loop
   vertex -1.684828 -41.581593 655.309814
   vertex -0.526290 -41.581593 655.330078
   vertex -0.512576 -41.279980 654.544434
  endloop
 endfacet

 facet normal 0.999848 0.000000 0.017453
  outer loop
   vertex -0.512576 -41.279980 654.544434
   vertex -0.526290 -41.581593 655.330078
   vertex -0.524549 -41.797966 655.230347
  endloop
 endfacet

 facet normal 0.999848 0.000000 0.017453
  outer loop
   vertex -0.524549 -41.797966 655.230347
   vertex -0.526290 -41.581593 655.330078
   vertex -0.527243 -41.671200 655.384705
  endloop
 endfacet

 facet normal 0.999848 -0.000008 0.017459
  outer loop
   vertex -0.527243 -41.671200 655.384705
   vertex -0.526249 -41.819607 655.327698
   vertex -0.524549 -41.797966 655.230347
  endloop
 endfacet

 facet normal -0.016276 -0.358628 0.933339
  outer loop
   vertex -1.684788 -41.819607 655.307495
   vertex -0.526249 -41.819607 655.327698
   vertex -0.527243 -41.671200 655.384705
  endloop
 endfacet

 facet normal 0.003783 -0.976179 -0.216935
  outer loop
   vertex -0.524549 -41.797966 655.230347
   vertex -0.526249 -41.819607 655.327698
   vertex -1.684788 -41.819607 655.307495
  endloop
 endfacet

 facet normal 0.003792 -0.976208 -0.216805
  outer loop
   vertex -1.684788 -41.819607 655.307495
   vertex -1.683087 -41.797966 655.210083
   vertex -0.524549 -41.797966 655.230347
  endloop
 endfacet

 facet normal -0.016327 -0.358345 0.933447
  outer loop
   vertex -0.524549 -41.797966 655.230347
   vertex -1.683087 -41.797966 655.210083
   vertex -1.675660 -42.906620 654.784607
  endloop
 endfacet

 facet normal 0.001856 0.994355 -0.106086
  outer loop
   vertex 18.765066 -41.279984 654.880981
   vertex 18.774643 -41.338535 654.332336
   vertex 17.606527 -41.279984 654.860718
  endloop
 endfacet

 facet normal 0.001850 0.994354 -0.106098
  outer loop
   vertex 17.606527 -41.279984 654.860718
   vertex 18.774643 -41.338535 654.332336
   vertex 17.616104 -41.338535 654.312134
  endloop
 endfacet

 facet normal -0.999848 0.000001 -0.017455
  outer loop
   vertex 17.616104 -41.338535 654.312134
   vertex 17.623362 -42.421886 653.896362
   vertex 17.606527 -41.279984 654.860718
  endloop
 endfacet

 facet normal 0.016277 0.358349 -0.933446
  outer loop
   vertex 18.774643 -41.338535 654.332336
   vertex 17.623362 -42.421886 653.896362
   vertex 17.616104 -41.338535 654.312134
  endloop
 endfacet

 facet normal 0.016277 0.358349 -0.933446
  outer loop
   vertex 18.781900 -42.421886 653.916565
   vertex 17.623362 -42.421886 653.896362
   vertex 18.774643 -41.338535 654.332336
  endloop
 endfacet

 facet normal 0.999848 -0.000000 0.017454
  outer loop
   vertex 18.774643 -41.338535 654.332336
   vertex 18.775467 -42.832546 654.285095
   vertex 18.781900 -42.421886 653.916565
  endloop
 endfacet

 facet normal 0.012975 -0.667955 -0.744088
  outer loop
   vertex 18.781900 -42.421886 653.916565
   vertex 18.775467 -42.832546 654.285095
   vertex 17.623362 -42.421886 653.896362
  endloop
 endfacet

 facet normal 0.013016 -0.667894 -0.744142
  outer loop
   vertex 17.623362 -42.421886 653.896362
   vertex 18.775467 -42.832546 654.285095
   vertex 17.616928 -42.832546 654.264832
  endloop
 endfacet

 facet normal -0.999848 0.000002 -0.017456
  outer loop
   vertex 17.616928 -42.832546 654.264832
   vertex 17.606527 -41.279984 654.860718
   vertex 17.623362 -42.421886 653.896362
  endloop
 endfacet

 facet normal -0.999848 0.000000 -0.017452
  outer loop
   vertex 17.601982 -42.906620 655.121094
   vertex 17.606527 -41.279984 654.860718
   vertex 17.616928 -42.832546 654.264832
  endloop
 endfacet

 facet normal -0.999848 -0.000000 -0.017455
  outer loop
   vertex 17.594553 -41.797970 655.546631
   vertex 17.606527 -41.279984 654.860718
   vertex 17.601982 -42.906620 655.121094
  endloop
 endfacet

 facet normal -0.016277 -0.358391 0.933430
  outer loop
   vertex 17.601982 -42.906620 655.121094
   vertex 18.753092 -41.797970 655.566833
   vertex 17.594553 -41.797970 655.546631
  endloop
 endfacet

 facet normal 0.003782 -0.976187 -0.216898
  outer loop
   vertex 17.594553 -41.797970 655.546631
   vertex 18.753092 -41.797970 655.566833
   vertex 17.592854 -41.819607 655.643982
  endloop
 endfacet

 facet normal 0.003791 -0.976216 -0.216769
  outer loop
   vertex 17.592854 -41.819607 655.643982
   vertex 18.753092 -41.797970 655.566833
   vertex 18.751392 -41.819607 655.664246
  endloop
 endfacet

 facet normal -0.016325 -0.358628 0.933338
  outer loop
   vertex 18.751392 -41.819607 655.664246
   vertex 17.591860 -41.671200 655.700989
   vertex 17.592854 -41.819607 655.643982
  endloop
 endfacet

 facet normal -0.016278 -0.358293 0.933467
  outer loop
   vertex 18.750399 -41.671200 655.721191
   vertex 17.591860 -41.671200 655.700989
   vertex 18.751392 -41.819607 655.664246
  endloop
 endfacet

 facet normal -0.014886 0.520597 0.853673
  outer loop
   vertex 18.751352 -41.581596 655.666565
   vertex 17.591860 -41.671200 655.700989
   vertex 18.750399 -41.671200 655.721191
  endloop
 endfacet

 facet normal 0.999848 -0.000004 0.017448
  outer loop
   vertex 18.750399 -41.671200 655.721191
   vertex 18.753092 -41.797970 655.566833
   vertex 18.751352 -41.581596 655.666565
  endloop
 endfacet

 facet normal 0.999848 -0.000006 0.017452
  outer loop
   vertex 18.751352 -41.581596 655.666565
   vertex 18.753092 -41.797970 655.566833
   vertex 18.765066 -41.279984 654.880981
  endloop
 endfacet

 facet normal 0.999848 0.000000 0.017457
  outer loop
   vertex 18.765066 -41.279984 654.880981
   vertex 18.753092 -41.797970 655.566833
   vertex 18.760521 -42.906620 655.141357
  endloop
 endfacet

 facet normal 0.999848 -0.000000 0.017452
  outer loop
   vertex 18.760521 -42.906620 655.141357
   vertex 18.775467 -42.832546 654.285095
   vertex 18.765066 -41.279984 654.880981
  endloop
 endfacet

 facet normal 0.999848 -0.000007 0.017452
  outer loop
   vertex 18.761753 -43.134159 655.070679
   vertex 18.775467 -42.832546 654.285095
   vertex 18.760521 -42.906620 655.141357
  endloop
 endfacet

 facet normal 0.006267 -0.933577 -0.358323
  outer loop
   vertex 17.616928 -42.832546 654.264832
   vertex 18.775467 -42.832546 654.285095
   vertex 18.761753 -43.134159 655.070679
  endloop
 endfacet

 facet normal 0.006248 -0.933586 -0.358299
  outer loop
   vertex 18.761753 -43.134159 655.070679
   vertex 17.603214 -43.134159 655.050476
   vertex 17.616928 -42.832546 654.264832
  endloop
 endfacet

 facet normal -0.999848 0.000002 -0.017452
  outer loop
   vertex 17.616928 -42.832546 654.264832
   vertex 17.603214 -43.134159 655.050476
   vertex 17.601982 -42.906620 655.121094
  endloop
 endfacet

 facet normal -0.999848 0.000003 -0.017454
  outer loop
   vertex 17.601982 -42.906620 655.121094
   vertex 17.603214 -43.134159 655.050476
   vertex 17.601460 -43.104122 655.151001
  endloop
 endfacet

 facet normal -0.999848 0.000003 -0.017455
  outer loop
   vertex 17.601460 -43.104122 655.151001
   vertex 17.600466 -42.955719 655.207947
   vertex 17.601982 -42.906620 655.121094
  endloop
 endfacet

 facet normal -0.016327 -0.358301 0.933463
  outer loop
   vertex 18.759005 -42.955719 655.228210
   vertex 17.600466 -42.955719 655.207947
   vertex 17.601460 -43.104122 655.151001
  endloop
 endfacet

 facet normal -0.008605 0.870560 0.491987
  outer loop
   vertex 17.601982 -42.906620 655.121094
   vertex 17.600466 -42.955719 655.207947
   vertex 18.759005 -42.955719 655.228210
  endloop
 endfacet

 facet normal -0.008605 0.870560 0.491987
  outer loop
   vertex 18.759005 -42.955719 655.228210
   vertex 18.760521 -42.906620 655.141357
   vertex 17.601982 -42.906620 655.121094
  endloop
 endfacet

 facet normal -0.016327 -0.358346 0.933446
  outer loop
   vertex 17.601982 -42.906620 655.121094
   vertex 18.760521 -42.906620 655.141357
   vertex 18.753092 -41.797970 655.566833
  endloop
 endfacet

 facet normal 0.006250 -0.933573 -0.358332
  outer loop
   vertex -3.139812 -41.943733 653.209656
   vertex -2.789865 -41.943733 653.215759
   vertex -3.210862 -42.033325 653.441833
  endloop
 endfacet

 facet normal 0.006252 -0.933575 -0.358328
  outer loop
   vertex -3.210862 -42.033325 653.441833
   vertex -2.789865 -41.943733 653.215759
   vertex -2.910651 -42.096043 653.610474
  endloop
 endfacet

 facet normal 0.006228 -0.933589 -0.358290
  outer loop
   vertex -2.910651 -42.096043 653.610474
   vertex -3.396829 -42.098911 653.609497
   vertex -3.210862 -42.033325 653.441833
  endloop
 endfacet

 facet normal 0.006228 -0.933567 -0.358349
  outer loop
   vertex -3.226795 -42.207539 653.895447
   vertex -3.396829 -42.098911 653.609497
   vertex -2.910651 -42.096043 653.610474
  endloop
 endfacet

 facet normal 0.006241 -0.933564 -0.358356
  outer loop
   vertex -3.647882 -42.122917 653.667664
   vertex -3.396829 -42.098911 653.609497
   vertex -3.226795 -42.207539 653.895447
  endloop
 endfacet

 facet normal 0.006244 -0.933562 -0.358361
  outer loop
   vertex -3.226795 -42.207539 653.895447
   vertex -3.653585 -42.248348 653.994324
   vertex -3.647882 -42.122917 653.667664
  endloop
 endfacet

 facet normal 0.006274 -0.933562 -0.358360
  outer loop
   vertex -3.647882 -42.122917 653.667664
   vertex -3.653585 -42.248348 653.994324
   vertex -3.896753 -42.098911 653.600769
  endloop
 endfacet

 facet normal 0.006262 -0.933565 -0.358354
  outer loop
   vertex -3.896753 -42.098911 653.600769
   vertex -3.653585 -42.248348 653.994324
   vertex -4.076666 -42.207539 653.880615
  endloop
 endfacet

 facet normal 0.006342 -0.933582 -0.358309
  outer loop
   vertex -4.076666 -42.207539 653.880615
   vertex -4.076756 -42.033325 653.426697
   vertex -3.896753 -42.098911 653.600769
  endloop
 endfacet

 facet normal 0.006244 -0.933582 -0.358309
  outer loop
   vertex -4.382670 -42.096043 653.584778
   vertex -4.076756 -42.033325 653.426697
   vertex -4.076666 -42.207539 653.880615
  endloop
 endfacet

 facet normal 0.006221 -0.933568 -0.358348
  outer loop
   vertex -4.139659 -41.943733 653.192200
   vertex -4.076756 -42.033325 653.426697
   vertex -4.382670 -42.096043 653.584778
  endloop
 endfacet

 facet normal 0.006250 -0.933573 -0.358332
  outer loop
   vertex -4.382670 -42.096043 653.584778
   vertex -4.489606 -41.943733 653.186096
   vertex -4.139659 -41.943733 653.192200
  endloop
 endfacet

 facet normal 0.006250 -0.933573 -0.358332
  outer loop
   vertex -4.139659 -41.943733 653.192200
   vertex -4.489606 -41.943733 653.186096
   vertex -4.068609 -41.854141 652.960022
  endloop
 endfacet

 facet normal 0.006268 -0.933585 -0.358302
  outer loop
   vertex -4.068609 -41.854141 652.960022
   vertex -4.489606 -41.943733 653.186096
   vertex -4.473312 -41.585365 652.252625
  endloop
 endfacet

 facet normal 0.006234 -0.933592 -0.358285
  outer loop
   vertex -4.473312 -41.585365 652.252625
   vertex -3.882642 -41.788555 652.792358
   vertex -4.068609 -41.854141 652.960022
  endloop
 endfacet

 facet normal 0.006254 -0.933584 -0.358304
  outer loop
   vertex -3.631588 -41.764549 652.734192
   vertex -3.882642 -41.788555 652.792358
   vertex -4.473312 -41.585365 652.252625
  endloop
 endfacet

 facet normal -0.006250 0.933565 0.358354
  outer loop
   vertex 20.275621 -41.476944 653.797607
   vertex 19.925674 -41.476944 653.791504
   vertex 20.338524 -41.566536 654.032104
  endloop
 endfacet

 facet normal -0.006232 0.933575 0.358328
  outer loop
   vertex 20.338524 -41.566536 654.032104
   vertex 19.925674 -41.476944 653.791504
   vertex 20.032610 -41.629253 654.190186
  endloop
 endfacet

 facet normal -0.006278 0.933604 0.358251
  outer loop
   vertex 20.032610 -41.629253 654.190186
   vertex 20.518528 -41.632122 654.206177
   vertex 20.338524 -41.566536 654.032104
  endloop
 endfacet

 facet normal -0.006281 0.933569 0.358343
  outer loop
   vertex 20.338615 -41.740749 654.486023
   vertex 20.518528 -41.632122 654.206177
   vertex 20.032610 -41.629253 654.190186
  endloop
 endfacet

 facet normal -0.006270 0.933567 0.358349
  outer loop
   vertex 20.767397 -41.656128 654.273071
   vertex 20.518528 -41.632122 654.206177
   vertex 20.338615 -41.740749 654.486023
  endloop
 endfacet

 facet normal -0.006264 0.933562 0.358360
  outer loop
   vertex 20.338615 -41.740749 654.486023
   vertex 20.761694 -41.781559 654.599731
   vertex 20.767397 -41.656128 654.273071
  endloop
 endfacet

 facet normal -0.006239 0.933562 0.358361
  outer loop
   vertex 20.767397 -41.656128 654.273071
   vertex 20.761694 -41.781559 654.599731
   vertex 21.018452 -41.632122 654.214905
  endloop
 endfacet

 facet normal -0.006244 0.933563 0.358358
  outer loop
   vertex 21.018452 -41.632122 654.214905
   vertex 20.761694 -41.781559 654.599731
   vertex 21.188486 -41.740749 654.500854
  endloop
 endfacet

 facet normal -0.006188 0.933575 0.358329
  outer loop
   vertex 21.188486 -41.740749 654.500854
   vertex 21.204418 -41.566536 654.047241
   vertex 21.018452 -41.632122 654.214905
  endloop
 endfacet

 facet normal -0.006252 0.933575 0.358327
  outer loop
   vertex 21.504629 -41.629253 654.215881
   vertex 21.204418 -41.566536 654.047241
   vertex 21.188486 -41.740749 654.500854
  endloop
 endfacet

 facet normal -0.006254 0.933574 0.358331
  outer loop
   vertex 21.275469 -41.476944 653.815063
   vertex 21.204418 -41.566536 654.047241
   vertex 21.504629 -41.629253 654.215881
  endloop
 endfacet

 facet normal -0.006250 0.933575 0.358328
  outer loop
   vertex 21.504629 -41.629253 654.215881
   vertex 21.625416 -41.476944 653.821167
   vertex 21.275469 -41.476944 653.815063
  endloop
 endfacet

 facet normal -0.006249 0.933596 0.358273
  outer loop
   vertex 21.275469 -41.476944 653.815063
   vertex 21.625416 -41.476944 653.821167
   vertex 21.212564 -41.387352 653.580505
  endloop
 endfacet

 facet normal -0.006282 0.933577 0.358322
  outer loop
   vertex 21.212564 -41.387352 653.580505
   vertex 21.625416 -41.476944 653.821167
   vertex 21.641710 -41.118576 652.887756
  endloop
 endfacet

 facet normal -0.006253 0.933571 0.358338
  outer loop
   vertex 21.641710 -41.118576 652.887756
   vertex 21.032562 -41.321766 653.406494
   vertex 21.212564 -41.387352 653.580505
  endloop
 endfacet

 facet normal -0.006263 0.933575 0.358327
  outer loop
   vertex 20.783691 -41.297760 653.339600
   vertex 21.032562 -41.321766 653.406494
   vertex 21.641710 -41.118576 652.887756
  endloop
 endfacet

 facet normal -0.006253 0.933585 0.358302
  outer loop
   vertex -4.476439 -41.118576 652.431824
   vertex -3.634716 -41.297760 652.913391
   vertex -2.776698 -41.118576 652.461487
  endloop
 endfacet

 facet normal -0.006197 0.933549 0.358395
  outer loop
   vertex -2.776698 -41.118576 652.461487
   vertex -3.634716 -41.297760 652.913391
   vertex -3.385845 -41.321766 652.980225
  endloop
 endfacet

 facet normal -0.006310 0.933593 0.358279
  outer loop
   vertex -3.385845 -41.321766 652.980225
   vertex -3.205842 -41.387352 653.154297
   vertex -2.776698 -41.118576 652.461487
  endloop
 endfacet

 facet normal -0.006234 0.933592 0.358285
  outer loop
   vertex 20.346672 -41.387352 653.565430
   vertex 20.532639 -41.321766 653.397766
   vertex 19.941969 -41.118576 652.858032
  endloop
 endfacet

 facet normal -0.006254 0.933584 0.358304
  outer loop
   vertex 19.941969 -41.118576 652.858032
   vertex 20.532639 -41.321766 653.397766
   vertex 20.783691 -41.297760 653.339600
  endloop
 endfacet

 facet normal -0.006266 0.933577 0.358322
  outer loop
   vertex 20.783691 -41.297760 653.339600
   vertex 21.641710 -41.118576 652.887756
   vertex 19.941969 -41.118576 652.858032
  endloop
 endfacet

 facet normal 0.006253 -0.933585 -0.358302
  outer loop
   vertex 21.644836 -41.585365 652.708557
   vertex 20.786819 -41.764549 653.160461
   vertex 19.945095 -41.585365 652.678894
  endloop
 endfacet

 facet normal 0.006254 -0.933584 -0.358304
  outer loop
   vertex 19.945095 -41.585365 652.678894
   vertex 20.786819 -41.764549 653.160461
   vertex 20.535767 -41.788555 653.218628
  endloop
 endfacet

 facet normal 0.006293 -0.933569 -0.358341
  outer loop
   vertex 20.535767 -41.788555 653.218628
   vertex 20.349798 -41.854141 653.386230
   vertex 19.945095 -41.585365 652.678894
  endloop
 endfacet

 facet normal 0.006253 -0.933571 -0.358338
  outer loop
   vertex -3.202715 -41.854141 652.975098
   vertex -3.382718 -41.788555 652.801086
   vertex -2.773570 -41.585365 652.282349
  endloop
 endfacet

 facet normal 0.006263 -0.933575 -0.358327
  outer loop
   vertex -2.773570 -41.585365 652.282349
   vertex -3.382718 -41.788555 652.801086
   vertex -3.631588 -41.764549 652.734192
  endloop
 endfacet

 facet normal 0.006266 -0.933577 -0.358322
  outer loop
   vertex -3.631588 -41.764549 652.734192
   vertex -4.473312 -41.585365 652.252625
   vertex -2.773570 -41.585365 652.282349
  endloop
 endfacet

 facet normal -0.004991 -0.958154 0.286210
  outer loop
   vertex 18.761753 -43.134159 655.070679
   vertex 18.759998 -43.104122 655.171204
   vertex 17.603214 -43.134159 655.050476
  endloop
 endfacet

 facet normal -0.004991 -0.958154 0.286210
  outer loop
   vertex 17.603214 -43.134159 655.050476
   vertex 18.759998 -43.104122 655.171204
   vertex 17.601460 -43.104122 655.151001
  endloop
 endfacet

 facet normal -0.006254 0.933579 0.358316
  outer loop
   vertex -1.261108 -41.389412 654.593140
   vertex -1.271105 -41.609283 655.165833
   vertex 18.352903 -41.389412 654.935486
  endloop
 endfacet

 facet normal -0.006254 0.933579 0.358316
  outer loop
   vertex 18.352903 -41.389412 654.935486
   vertex -1.271105 -41.609283 655.165833
   vertex 18.342907 -41.609283 655.508179
  endloop
 endfacet

 facet normal -0.014932 0.520581 0.853682
  outer loop
   vertex -0.527243 -41.671200 655.384705
   vertex -0.526290 -41.581593 655.330078
   vertex -1.685782 -41.671200 655.364441
  endloop
 endfacet

 facet normal -0.014932 0.520581 0.853682
  outer loop
   vertex -1.685782 -41.671200 655.364441
   vertex -0.526290 -41.581593 655.330078
   vertex -1.684828 -41.581593 655.309814
  endloop
 endfacet

 facet normal -0.016281 -0.358225 0.933493
  outer loop
   vertex 21.278597 -41.943737 653.635925
   vertex 21.628544 -41.943737 653.642029
   vertex 21.452005 -41.710339 653.728516
  endloop
 endfacet

 facet normal 0.999848 -0.000000 0.017453
  outer loop
   vertex 18.765066 -41.279984 654.880981
   vertex 18.775467 -42.832546 654.285095
   vertex 18.774643 -41.338535 654.332336
  endloop
 endfacet

 facet normal -0.006250 0.933573 0.358332
  outer loop
   vertex 19.925674 -41.476944 653.791504
   vertex 20.275621 -41.476944 653.797607
   vertex 20.346672 -41.387352 653.565430
  endloop
 endfacet

 facet normal -0.006250 0.933565 0.358354
  outer loop
   vertex -3.142939 -41.476944 653.388794
   vertex -2.792992 -41.476944 653.394897
   vertex -3.205842 -41.387352 653.154297
  endloop
 endfacet

 facet normal 0.016281 0.358334 -0.933452
  outer loop
   vertex 21.628544 -41.943737 653.642029
   vertex 21.275469 -41.476944 653.815063
   vertex 21.625416 -41.476944 653.821167
  endloop
 endfacet

 facet normal 0.006251 -0.933580 -0.358314
  outer loop
   vertex -1.410485 -42.451176 653.703857
   vertex -3.058395 -42.451176 653.675110
   vertex -3.033285 -41.898911 652.236633
  endloop
 endfacet

 facet normal -0.006251 0.933581 0.358312
  outer loop
   vertex 18.551363 -40.858032 653.013062
   vertex 18.526253 -41.410294 654.451538
   vertex 20.199272 -40.858032 653.041809
  endloop
 endfacet

 facet normal 0.016281 0.358336 -0.933451
  outer loop
   vertex -4.492733 -41.476944 653.365234
   vertex -4.139659 -41.943733 653.192200
   vertex -4.489606 -41.943733 653.186096
  endloop
 endfacet

 facet normal -0.999848 -0.000002 -0.017454
  outer loop
   vertex -1.676182 -43.104122 654.814514
   vertex -1.677176 -42.955715 654.871460
   vertex -1.675660 -42.906620 654.784607
  endloop
 endfacet

 facet normal 0.016281 0.358334 -0.933452
  outer loop
   vertex 20.275621 -41.476944 653.797607
   vertex 19.928801 -41.943737 653.612366
   vertex 19.925674 -41.476944 653.791504
  endloop
 endfacet

 facet normal -0.999848 -0.000000 -0.017453
  outer loop
   vertex -1.660713 -42.832546 653.928345
   vertex -1.671115 -41.279980 654.524231
   vertex -1.654280 -42.421886 653.559814
  endloop
 endfacet

 facet normal 0.999848 0.000002 0.017444
  outer loop
   vertex 18.750399 -41.671200 655.721191
   vertex 18.751392 -41.819607 655.664246
   vertex 18.753092 -41.797970 655.566833
  endloop
 endfacet

 facet normal 0.006251 -0.933580 -0.358314
  outer loop
   vertex 18.533226 -42.451176 654.052002
   vertex 18.558336 -41.898911 652.613525
   vertex 20.206245 -41.898911 652.642273
  endloop
 endfacet

 facet normal 0.999848 -0.000001 0.017453
  outer loop
   vertex -1.385375 -41.898911 652.265381
   vertex -1.392348 -40.858028 652.664917
   vertex -1.417459 -41.410294 654.103394
  endloop
 endfacet

 facet normal 0.016281 0.358336 -0.933451
  outer loop
   vertex -3.139812 -41.943733 653.209656
   vertex -2.792992 -41.476944 653.394897
   vertex -2.789865 -41.943733 653.215759
  endloop
 endfacet

 facet normal 0.006249 -0.933596 -0.358273
  outer loop
   vertex -2.789865 -41.943733 653.215759
   vertex -3.139812 -41.943733 653.209656
   vertex -3.202715 -41.854141 652.975098
  endloop
 endfacet

 facet normal -0.718603 -0.253353 0.647629
  outer loop
   vertex -3.382718 -41.788555 652.801086
   vertex -3.205842 -41.387352 653.154297
   vertex -3.385845 -41.321766 652.980225
  endloop
 endfacet

 facet normal -0.274527 -0.346126 0.897124
  outer loop
   vertex -3.382718 -41.788555 652.801086
   vertex -3.385845 -41.321766 652.980225
   vertex -3.631588 -41.764549 652.734192
  endloop
 endfacet

 facet normal -0.274323 -0.346247 0.897140
  outer loop
   vertex -3.631588 -41.764549 652.734192
   vertex -3.385845 -41.321766 652.980225
   vertex -3.634716 -41.297760 652.913391
  endloop
 endfacet

 facet normal 0.243045 -0.346229 0.906121
  outer loop
   vertex -3.634716 -41.297760 652.913391
   vertex -3.882642 -41.788555 652.792358
   vertex -3.631588 -41.764549 652.734192
  endloop
 endfacet

 facet normal 0.243045 -0.346229 0.906121
  outer loop
   vertex -3.885769 -41.321766 652.971558
   vertex -3.882642 -41.788555 652.792358
   vertex -3.634716 -41.297760 652.913391
  endloop
 endfacet

 facet normal 0.695528 -0.253441 0.672316
  outer loop
   vertex -4.068609 -41.854141 652.960022
   vertex -3.882642 -41.788555 652.792358
   vertex -3.885769 -41.321766 652.971558
  endloop
 endfacet

 facet normal 0.695413 -0.253404 0.672449
  outer loop
   vertex -3.885769 -41.321766 652.971558
   vertex -4.071736 -41.387352 653.139160
   vertex -4.068609 -41.854141 652.960022
  endloop
 endfacet

 facet normal 0.961558 -0.092748 0.258465
  outer loop
   vertex -4.068609 -41.854141 652.960022
   vertex -4.071736 -41.387352 653.139160
   vertex -4.139659 -41.943733 653.192200
  endloop
 endfacet

 facet normal -0.970001 -0.092738 0.224715
  outer loop
   vertex 21.278597 -41.943737 653.635925
   vertex 21.275469 -41.476944 653.815063
   vertex 21.215693 -41.854145 653.401367
  endloop
 endfacet

 facet normal -0.970001 -0.092738 0.224715
  outer loop
   vertex 21.215693 -41.854145 653.401367
   vertex 21.275469 -41.476944 653.815063
   vertex 21.212564 -41.387352 653.580505
  endloop
 endfacet

 facet normal -0.718498 -0.253390 0.647730
  outer loop
   vertex 21.212564 -41.387352 653.580505
   vertex 21.035690 -41.788559 653.227356
   vertex 21.215693 -41.854145 653.401367
  endloop
 endfacet

 facet normal -0.718498 -0.253390 0.647730
  outer loop
   vertex 21.032562 -41.321766 653.406494
   vertex 21.035690 -41.788559 653.227356
   vertex 21.212564 -41.387352 653.580505
  endloop
 endfacet

 facet normal -0.274532 -0.346123 0.897124
  outer loop
   vertex 20.786819 -41.764549 653.160461
   vertex 21.035690 -41.788559 653.227356
   vertex 21.032562 -41.321766 653.406494
  endloop
 endfacet

 facet normal -0.274527 -0.346126 0.897124
  outer loop
   vertex 21.032562 -41.321766 653.406494
   vertex 20.783691 -41.297760 653.339600
   vertex 20.786819 -41.764549 653.160461
  endloop
 endfacet

 facet normal 0.243045 -0.346125 0.906160
  outer loop
   vertex 20.786819 -41.764549 653.160461
   vertex 20.783691 -41.297760 653.339600
   vertex 20.535767 -41.788555 653.218628
  endloop
 endfacet

 facet normal 0.243045 -0.346125 0.906160
  outer loop
   vertex 20.535767 -41.788555 653.218628
   vertex 20.783691 -41.297760 653.339600
   vertex 20.532639 -41.321766 653.397766
  endloop
 endfacet

 facet normal 0.695410 -0.253404 0.672451
  outer loop
   vertex 20.532639 -41.321766 653.397766
   vertex 20.349798 -41.854141 653.386230
   vertex 20.535767 -41.788555 653.218628
  endloop
 endfacet

 facet normal 0.961560 -0.092746 0.258460
  outer loop
   vertex -2.789865 -41.943733 653.215759
   vertex -2.792992 -41.476944 653.394897
   vertex -2.910651 -42.096043 653.610474
  endloop
 endfacet

 facet normal 0.961559 -0.092746 0.258461
  outer loop
   vertex -2.910651 -42.096043 653.610474
   vertex -2.792992 -41.476944 653.394897
   vertex -2.913779 -41.629250 653.789612
  endloop
 endfacet

 facet normal 0.695466 -0.253384 0.672401
  outer loop
   vertex -2.913779 -41.629250 653.789612
   vertex -3.226795 -42.207539 653.895447
   vertex -2.910651 -42.096043 653.610474
  endloop
 endfacet

 facet normal 0.695534 -0.253437 0.672311
  outer loop
   vertex -3.229923 -41.740746 654.074646
   vertex -3.226795 -42.207539 653.895447
   vertex -2.913779 -41.629250 653.789612
  endloop
 endfacet

 facet normal 0.243033 -0.346228 0.906124
  outer loop
   vertex -3.653585 -42.248348 653.994324
   vertex -3.226795 -42.207539 653.895447
   vertex -3.229923 -41.740746 654.074646
  endloop
 endfacet

 facet normal 0.243036 -0.346230 0.906123
  outer loop
   vertex -3.229923 -41.740746 654.074646
   vertex -3.656713 -41.781559 654.173523
   vertex -3.653585 -42.248348 653.994324
  endloop
 endfacet

 facet normal -0.274502 -0.346230 0.897092
  outer loop
   vertex -3.653585 -42.248348 653.994324
   vertex -3.656713 -41.781559 654.173523
   vertex -4.076666 -42.207539 653.880615
  endloop
 endfacet

 facet normal -0.274505 -0.346228 0.897092
  outer loop
   vertex -4.076666 -42.207539 653.880615
   vertex -3.656713 -41.781559 654.173523
   vertex -4.079794 -41.740746 654.059814
  endloop
 endfacet

 facet normal -0.718516 -0.253457 0.647684
  outer loop
   vertex -4.079794 -41.740746 654.059814
   vertex -4.382670 -42.096043 653.584778
   vertex -4.076666 -42.207539 653.880615
  endloop
 endfacet

 facet normal -0.718579 -0.253360 0.647652
  outer loop
   vertex -4.385798 -41.629250 653.763916
   vertex -4.382670 -42.096043 653.584778
   vertex -4.079794 -41.740746 654.059814
  endloop
 endfacet

 facet normal -0.969994 -0.092747 0.224743
  outer loop
   vertex -4.489606 -41.943733 653.186096
   vertex -4.382670 -42.096043 653.584778
   vertex -4.385798 -41.629250 653.763916
  endloop
 endfacet

 facet normal -0.969994 -0.092747 0.224743
  outer loop
   vertex -4.385798 -41.629250 653.763916
   vertex -4.492733 -41.476944 653.365234
   vertex -4.489606 -41.943733 653.186096
  endloop
 endfacet

 facet normal 0.961559 -0.092744 0.258461
  outer loop
   vertex 21.628544 -41.943737 653.642029
   vertex 21.625416 -41.476944 653.821167
   vertex 21.507757 -42.096043 654.036743
  endloop
 endfacet

 facet normal 0.961560 -0.092745 0.258460
  outer loop
   vertex 21.507757 -42.096043 654.036743
   vertex 21.625416 -41.476944 653.821167
   vertex 21.504629 -41.629253 654.215881
  endloop
 endfacet

 facet normal 0.695467 -0.253384 0.672400
  outer loop
   vertex 21.504629 -41.629253 654.215881
   vertex 21.191614 -42.207539 654.321716
   vertex 21.507757 -42.096043 654.036743
  endloop
 endfacet

 facet normal 0.695467 -0.253384 0.672400
  outer loop
   vertex 21.188486 -41.740749 654.500854
   vertex 21.191614 -42.207539 654.321716
   vertex 21.504629 -41.629253 654.215881
  endloop
 endfacet

 facet normal 0.243032 -0.346127 0.906163
  outer loop
   vertex 20.764822 -42.248348 654.420593
   vertex 21.191614 -42.207539 654.321716
   vertex 21.188486 -41.740749 654.500854
  endloop
 endfacet

 facet normal 0.243032 -0.346127 0.906163
  outer loop
   vertex 21.188486 -41.740749 654.500854
   vertex 20.761694 -41.781559 654.599731
   vertex 20.764822 -42.248348 654.420593
  endloop
 endfacet

 facet normal -0.274504 -0.346128 0.897130
  outer loop
   vertex 20.764822 -42.248348 654.420593
   vertex 20.761694 -41.781559 654.599731
   vertex 20.341743 -42.207539 654.306885
  endloop
 endfacet

 facet normal -0.274504 -0.346128 0.897130
  outer loop
   vertex 20.341743 -42.207539 654.306885
   vertex 20.761694 -41.781559 654.599731
   vertex 20.338615 -41.740749 654.486023
  endloop
 endfacet

 facet normal -0.718514 -0.253386 0.647713
  outer loop
   vertex 20.338615 -41.740749 654.486023
   vertex 20.035738 -42.096043 654.011047
   vertex 20.341743 -42.207539 654.306885
  endloop
 endfacet

 facet normal -0.718514 -0.253386 0.647713
  outer loop
   vertex 20.032610 -41.629253 654.190186
   vertex 20.035738 -42.096043 654.011047
   vertex 20.338615 -41.740749 654.486023
  endloop
 endfacet

 facet normal -0.969993 -0.092750 0.224746
  outer loop
   vertex 19.928801 -41.943737 653.612366
   vertex 20.035738 -42.096043 654.011047
   vertex 20.032610 -41.629253 654.190186
  endloop
 endfacet

 facet normal -0.969994 -0.092744 0.224743
  outer loop
   vertex 20.032610 -41.629253 654.190186
   vertex 19.925674 -41.476944 653.791504
   vertex 19.928801 -41.943737 653.612366
  endloop
 endfacet

 facet normal 0.695528 -0.253442 0.672315
  outer loop
   vertex 20.532639 -41.321766 653.397766
   vertex 20.346672 -41.387352 653.565430
   vertex 20.349798 -41.854141 653.386230
  endloop
 endfacet

 facet normal 0.961558 -0.092780 0.258453
  outer loop
   vertex 20.349798 -41.854141 653.386230
   vertex 20.346672 -41.387352 653.565430
   vertex 20.275621 -41.476944 653.797607
  endloop
 endfacet

 facet normal 0.961575 -0.092728 0.258409
  outer loop
   vertex 20.275621 -41.476944 653.797607
   vertex 20.278748 -41.943737 653.618469
   vertex 20.349798 -41.854141 653.386230
  endloop
 endfacet

 facet normal 0.969990 0.092750 -0.224758
  outer loop
   vertex 20.338524 -41.566536 654.032104
   vertex 20.278748 -41.943737 653.618469
   vertex 20.275621 -41.476944 653.797607
  endloop
 endfacet

 facet normal 0.969989 0.092756 -0.224763
  outer loop
   vertex 20.341652 -42.033329 653.852966
   vertex 20.278748 -41.943737 653.618469
   vertex 20.338524 -41.566536 654.032104
  endloop
 endfacet

 facet normal 0.718600 0.253353 -0.647631
  outer loop
   vertex 20.338524 -41.566536 654.032104
   vertex 20.518528 -41.632122 654.206177
   vertex 20.341652 -42.033329 653.852966
  endloop
 endfacet

 facet normal 0.718497 0.253461 -0.647703
  outer loop
   vertex 20.341652 -42.033329 653.852966
   vertex 20.518528 -41.632122 654.206177
   vertex 20.521654 -42.098915 654.026978
  endloop
 endfacet

 facet normal 0.274528 0.346225 -0.897086
  outer loop
   vertex 20.521654 -42.098915 654.026978
   vertex 20.518528 -41.632122 654.206177
   vertex 20.767397 -41.656128 654.273071
  endloop
 endfacet

 facet normal 0.274526 0.346226 -0.897086
  outer loop
   vertex 20.767397 -41.656128 654.273071
   vertex 20.770525 -42.122921 654.093872
   vertex 20.521654 -42.098915 654.026978
  endloop
 endfacet

 facet normal -0.243044 0.346226 -0.906122
  outer loop
   vertex 21.018452 -41.632122 654.214905
   vertex 20.770525 -42.122921 654.093872
   vertex 20.767397 -41.656128 654.273071
  endloop
 endfacet

 facet normal -0.243046 0.346227 -0.906121
  outer loop
   vertex 21.021578 -42.098915 654.035706
   vertex 20.770525 -42.122921 654.093872
   vertex 21.018452 -41.632122 654.214905
  endloop
 endfacet

 facet normal -0.695528 0.253440 -0.672316
  outer loop
   vertex 21.018452 -41.632122 654.214905
   vertex 21.204418 -41.566536 654.047241
   vertex 21.021578 -42.098915 654.035706
  endloop
 endfacet

 facet normal -0.695410 0.253403 -0.672452
  outer loop
   vertex 21.021578 -42.098915 654.035706
   vertex 21.204418 -41.566536 654.047241
   vertex 21.207546 -42.033329 653.868103
  endloop
 endfacet

 facet normal -0.961558 0.092746 -0.258466
  outer loop
   vertex 21.207546 -42.033329 653.868103
   vertex 21.204418 -41.566536 654.047241
   vertex 21.275469 -41.476944 653.815063
  endloop
 endfacet

 facet normal -0.961558 0.092746 -0.258466
  outer loop
   vertex 21.275469 -41.476944 653.815063
   vertex 21.278597 -41.943737 653.635925
   vertex 21.207546 -42.033329 653.868103
  endloop
 endfacet

 facet normal -0.718496 -0.253465 0.647703
  outer loop
   vertex -3.382718 -41.788555 652.801086
   vertex -3.202715 -41.854141 652.975098
   vertex -3.205842 -41.387352 653.154297
  endloop
 endfacet

 facet normal -0.970002 -0.092761 0.224702
  outer loop
   vertex -3.205842 -41.387352 653.154297
   vertex -3.202715 -41.854141 652.975098
   vertex -3.139812 -41.943733 653.209656
  endloop
 endfacet

 facet normal -0.969989 -0.092754 0.224760
  outer loop
   vertex -3.139812 -41.943733 653.209656
   vertex -3.142939 -41.476944 653.388794
   vertex -3.205842 -41.387352 653.154297
  endloop
 endfacet

 facet normal -0.961558 0.092748 -0.258464
  outer loop
   vertex -3.210862 -42.033325 653.441833
   vertex -3.142939 -41.476944 653.388794
   vertex -3.139812 -41.943733 653.209656
  endloop
 endfacet

 facet normal -0.961558 0.092748 -0.258464
  outer loop
   vertex -3.213989 -41.566536 653.620972
   vertex -3.142939 -41.476944 653.388794
   vertex -3.210862 -42.033325 653.441833
  endloop
 endfacet

 facet normal -0.695527 0.253364 -0.672346
  outer loop
   vertex -3.210862 -42.033325 653.441833
   vertex -3.396829 -42.098911 653.609497
   vertex -3.213989 -41.566536 653.620972
  endloop
 endfacet

 facet normal -0.695527 0.253364 -0.672346
  outer loop
   vertex -3.213989 -41.566536 653.620972
   vertex -3.396829 -42.098911 653.609497
   vertex -3.399956 -41.632122 653.788635
  endloop
 endfacet

 facet normal -0.243045 0.346126 -0.906160
  outer loop
   vertex -3.399956 -41.632122 653.788635
   vertex -3.396829 -42.098911 653.609497
   vertex -3.647882 -42.122917 653.667664
  endloop
 endfacet

 facet normal -0.243045 0.346126 -0.906160
  outer loop
   vertex -3.647882 -42.122917 653.667664
   vertex -3.651010 -41.656128 653.846802
   vertex -3.399956 -41.632122 653.788635
  endloop
 endfacet

 facet normal 0.274527 0.346126 -0.897124
  outer loop
   vertex -3.896753 -42.098911 653.600769
   vertex -3.651010 -41.656128 653.846802
   vertex -3.647882 -42.122917 653.667664
  endloop
 endfacet

 facet normal 0.274527 0.346126 -0.897124
  outer loop
   vertex -3.899880 -41.632122 653.779907
   vertex -3.651010 -41.656128 653.846802
   vertex -3.896753 -42.098911 653.600769
  endloop
 endfacet

 facet normal 0.718602 0.253353 -0.647629
  outer loop
   vertex -3.896753 -42.098911 653.600769
   vertex -4.076756 -42.033325 653.426697
   vertex -3.899880 -41.632122 653.779907
  endloop
 endfacet

 facet normal 0.718495 0.253466 -0.647703
  outer loop
   vertex -3.899880 -41.632122 653.779907
   vertex -4.076756 -42.033325 653.426697
   vertex -4.079884 -41.566536 653.605896
  endloop
 endfacet

 facet normal 0.969989 0.092780 -0.224750
  outer loop
   vertex -4.079884 -41.566536 653.605896
   vertex -4.076756 -42.033325 653.426697
   vertex -4.139659 -41.943733 653.192200
  endloop
 endfacet

 facet normal 0.970003 0.092735 -0.224711
  outer loop
   vertex -4.139659 -41.943733 653.192200
   vertex -4.142787 -41.476944 653.371338
   vertex -4.079884 -41.566536 653.605896
  endloop
 endfacet

 facet normal 0.961558 -0.092748 0.258463
  outer loop
   vertex -4.071736 -41.387352 653.139160
   vertex -4.142787 -41.476944 653.371338
   vertex -4.139659 -41.943733 653.192200
  endloop
 endfacet

endsolid