solid stl file generated from DOUG
 facet normal -0.863642 0.482948 -0.144511
  outer loop
   vertex 191.620148 -33.183422 487.503418
   vertex 191.611694 -33.053711 487.987427
   vertex 191.746399 -32.973804 487.449432
  endloop
 endfacet

 facet normal -0.863607 0.483016 -0.144492
  outer loop
   vertex 191.746399 -32.973804 487.449432
   vertex 191.611694 -33.053711 487.987427
   vertex 191.737961 -32.844093 487.933472
  endloop
 endfacet

 facet normal 0.004539 0.965929 -0.258767
  outer loop
   vertex 191.737961 -32.844093 487.933472
   vertex 191.996948 -32.973804 487.453827
   vertex 191.746399 -32.973804 487.449432
  endloop
 endfacet

 facet normal 0.004508 0.965925 -0.258783
  outer loop
   vertex 191.988495 -32.844093 487.937836
   vertex 191.996948 -32.973804 487.453827
   vertex 191.737961 -32.844093 487.933472
  endloop
 endfacet

 facet normal 0.868137 0.482990 -0.114276
  outer loop
   vertex 192.121246 -33.183422 487.512146
   vertex 191.996948 -32.973804 487.453827
   vertex 191.988495 -32.844093 487.937836
  endloop
 endfacet

 facet normal 0.868144 0.482980 -0.114266
  outer loop
   vertex 191.988495 -32.844093 487.937836
   vertex 192.112793 -33.053711 487.996185
   vertex 192.121246 -33.183422 487.512146
  endloop
 endfacet

 facet normal 0.863646 -0.482944 0.144501
  outer loop
   vertex 192.121246 -33.183422 487.512146
   vertex 192.112793 -33.053711 487.996185
   vertex 191.994995 -33.393044 487.566132
  endloop
 endfacet

 facet normal 0.863637 -0.482957 0.144513
  outer loop
   vertex 191.994995 -33.393044 487.566132
   vertex 192.112793 -33.053711 487.996185
   vertex 191.986542 -33.263332 488.050140
  endloop
 endfacet

 facet normal -0.004507 -0.965925 0.258783
  outer loop
   vertex 191.986542 -33.263332 488.050140
   vertex 191.744446 -33.393044 487.561768
   vertex 191.994995 -33.393044 487.566132
  endloop
 endfacet

 facet normal -0.004507 -0.965925 0.258783
  outer loop
   vertex 191.735992 -33.263332 488.045776
   vertex 191.744446 -33.393044 487.561768
   vertex 191.986542 -33.263332 488.050140
  endloop
 endfacet

 facet normal -0.868147 -0.482973 0.114271
  outer loop
   vertex 191.620148 -33.183422 487.503418
   vertex 191.744446 -33.393044 487.561768
   vertex 191.735992 -33.263332 488.045776
  endloop
 endfacet

 facet normal -0.868147 -0.482973 0.114271
  outer loop
   vertex 191.735992 -33.263332 488.045776
   vertex 191.611694 -33.053711 487.987427
   vertex 191.620148 -33.183422 487.503418
  endloop
 endfacet

 facet normal 0.868174 0.482928 -0.114259
  outer loop
   vertex 170.020859 -33.053711 487.610535
   vertex 170.029312 -33.183422 487.126526
   vertex 169.896576 -32.844090 487.552185
  endloop
 endfacet

 facet normal 0.868144 0.482971 -0.114302
  outer loop
   vertex 169.896576 -32.844090 487.552185
   vertex 170.029312 -33.183422 487.126526
   vertex 169.905014 -32.973804 487.068176
  endloop
 endfacet

 facet normal 0.004508 0.965923 -0.258790
  outer loop
   vertex 169.905014 -32.973804 487.068176
   vertex 169.646027 -32.844090 487.547821
   vertex 169.896576 -32.844090 487.552185
  endloop
 endfacet

 facet normal 0.004508 0.965923 -0.258790
  outer loop
   vertex 169.654465 -32.973804 487.063812
   vertex 169.646027 -32.844090 487.547821
   vertex 169.905014 -32.973804 487.068176
  endloop
 endfacet

 facet normal -0.863620 0.482992 -0.144499
  outer loop
   vertex 169.519760 -33.053711 487.601807
   vertex 169.646027 -32.844090 487.547821
   vertex 169.654465 -32.973804 487.063812
  endloop
 endfacet

 facet normal -0.863634 0.482965 -0.144506
  outer loop
   vertex 169.654465 -32.973804 487.063812
   vertex 169.528214 -33.183422 487.117767
   vertex 169.519760 -33.053711 487.601807
  endloop
 endfacet

 facet normal -0.868137 -0.482992 0.114269
  outer loop
   vertex 169.519760 -33.053711 487.601807
   vertex 169.528214 -33.183422 487.117767
   vertex 169.644058 -33.263329 487.660126
  endloop
 endfacet

 facet normal -0.868147 -0.482972 0.114275
  outer loop
   vertex 169.644058 -33.263329 487.660126
   vertex 169.528214 -33.183422 487.117767
   vertex 169.652512 -33.393044 487.176117
  endloop
 endfacet

 facet normal -0.004539 -0.965923 0.258789
  outer loop
   vertex 169.652512 -33.393044 487.176117
   vertex 169.894608 -33.263329 487.664520
   vertex 169.644058 -33.263329 487.660126
  endloop
 endfacet

 facet normal -0.004507 -0.965927 0.258775
  outer loop
   vertex 169.903061 -33.393044 487.180481
   vertex 169.894608 -33.263329 487.664520
   vertex 169.652512 -33.393044 487.176117
  endloop
 endfacet

 facet normal 0.863642 -0.482949 0.144506
  outer loop
   vertex 170.020859 -33.053711 487.610535
   vertex 169.894608 -33.263329 487.664520
   vertex 169.903061 -33.393044 487.180481
  endloop
 endfacet

 facet normal 0.863637 -0.482957 0.144513
  outer loop
   vertex 169.903061 -33.393044 487.180481
   vertex 170.029312 -33.183422 487.126526
   vertex 170.020859 -33.053711 487.610535
  endloop
 endfacet

 facet normal 0.016822 -0.258727 -0.965804
  outer loop
   vertex 169.654465 -32.973804 487.063812
   vertex 169.905014 -32.973804 487.068176
   vertex 169.778763 -33.183422 487.122131
  endloop
 endfacet

 facet normal 0.016939 -0.258793 -0.965784
  outer loop
   vertex 169.778763 -33.183422 487.122131
   vertex 169.905014 -32.973804 487.068176
   vertex 170.029312 -33.183422 487.126526
  endloop
 endfacet

 facet normal 0.016939 -0.258789 -0.965785
  outer loop
   vertex 170.029312 -33.183422 487.126526
   vertex 169.903061 -33.393044 487.180481
   vertex 169.778763 -33.183422 487.122131
  endloop
 endfacet

 facet normal 0.016822 -0.258854 -0.965770
  outer loop
   vertex 191.744446 -33.393044 487.561768
   vertex 191.620148 -33.183422 487.503418
   vertex 191.870697 -33.183422 487.507782
  endloop
 endfacet

 facet normal 0.016822 -0.258859 -0.965769
  outer loop
   vertex 191.870697 -33.183422 487.507782
   vertex 191.620148 -33.183422 487.503418
   vertex 191.746399 -32.973804 487.449432
  endloop
 endfacet

 facet normal 0.016939 -0.258793 -0.965784
  outer loop
   vertex 191.746399 -32.973804 487.449432
   vertex 191.996948 -32.973804 487.453827
   vertex 191.870697 -33.183422 487.507782
  endloop
 endfacet

 facet normal 0.016822 -0.258727 -0.965804
  outer loop
   vertex 191.996948 -32.973804 487.453827
   vertex 192.121246 -33.183422 487.512146
   vertex 191.870697 -33.183422 487.507782
  endloop
 endfacet

 facet normal 0.016822 -0.258854 -0.965770
  outer loop
   vertex 191.870697 -33.183422 487.507782
   vertex 192.121246 -33.183422 487.512146
   vertex 191.994995 -33.393044 487.566132
  endloop
 endfacet

 facet normal 0.016822 -0.258854 -0.965770
  outer loop
   vertex 191.994995 -33.393044 487.566132
   vertex 191.744446 -33.393044 487.561768
   vertex 191.870697 -33.183422 487.507782
  endloop
 endfacet

 facet normal 0.016822 -0.258854 -0.965770
  outer loop
   vertex 169.903061 -33.393044 487.180481
   vertex 169.652512 -33.393044 487.176117
   vertex 169.778763 -33.183422 487.122131
  endloop
 endfacet

 facet normal 0.016822 -0.258854 -0.965770
  outer loop
   vertex 169.778763 -33.183422 487.122131
   vertex 169.652512 -33.393044 487.176117
   vertex 169.528214 -33.183422 487.117767
  endloop
 endfacet

 facet normal 0.016822 -0.258727 -0.965804
  outer loop
   vertex 169.528214 -33.183422 487.117767
   vertex 169.654465 -32.973804 487.063812
   vertex 169.778763 -33.183422 487.122131
  endloop
 endfacet

 facet normal 0.016851 -0.258835 -0.965775
  outer loop
   vertex 190.377197 -33.260586 489.609283
   vertex 190.382843 -32.052986 489.285736
   vertex 193.368134 -33.260586 489.661469
  endloop
 endfacet

 facet normal 0.016861 -0.258812 -0.965781
  outer loop
   vertex 193.368134 -33.260586 489.661469
   vertex 190.382843 -32.052986 489.285736
   vertex 193.373779 -32.052986 489.337952
  endloop
 endfacet

 facet normal 0.999848 0.000001 0.017451
  outer loop
   vertex 193.373779 -32.052986 489.337952
   vertex 193.344727 -32.901196 491.002533
   vertex 193.368134 -33.260586 489.661469
  endloop
 endfacet

 facet normal 0.999848 0.000001 0.017451
  outer loop
   vertex 193.350372 -31.693596 490.679016
   vertex 193.344727 -32.901196 491.002533
   vertex 193.373779 -32.052986 489.337952
  endloop
 endfacet

 facet normal -0.016861 0.258812 0.965781
  outer loop
   vertex 190.359436 -31.693596 490.626801
   vertex 193.344727 -32.901196 491.002533
   vertex 193.350372 -31.693596 490.679016
  endloop
 endfacet

 facet normal 0.004518 0.965926 -0.258779
  outer loop
   vertex 193.350372 -31.693596 490.679016
   vertex 190.382843 -32.052986 489.285736
   vertex 190.359436 -31.693596 490.626801
  endloop
 endfacet

 facet normal -0.999848 0.000011 -0.017454
  outer loop
   vertex 190.359436 -31.693596 490.626801
   vertex 190.382843 -32.052986 489.285736
   vertex 190.353775 -32.901196 490.950348
  endloop
 endfacet

 facet normal -0.999848 -0.000004 -0.017462
  outer loop
   vertex 190.353775 -32.901196 490.950348
   vertex 190.382843 -32.052986 489.285736
   vertex 190.377197 -33.260586 489.609283
  endloop
 endfacet

 facet normal -0.004515 -0.965926 0.258779
  outer loop
   vertex 190.377197 -33.260586 489.609283
   vertex 193.344727 -32.901196 491.002533
   vertex 190.353775 -32.901196 490.950348
  endloop
 endfacet

 facet normal -0.004515 -0.965926 0.258779
  outer loop
   vertex 193.368134 -33.260586 489.661469
   vertex 193.344727 -32.901196 491.002533
   vertex 190.377197 -33.260586 489.609283
  endloop
 endfacet

 facet normal -0.999848 -0.000001 -0.017451
  outer loop
   vertex 168.183655 -32.901196 490.563324
   vertex 168.189301 -31.693594 490.239807
   vertex 168.207062 -33.260586 489.222260
  endloop
 endfacet

 facet normal -0.999847 0.000008 -0.017465
  outer loop
   vertex 168.207062 -33.260586 489.222260
   vertex 168.189301 -31.693594 490.239807
   vertex 168.212723 -32.052986 488.898743
  endloop
 endfacet

 facet normal 0.016860 -0.258812 -0.965780
  outer loop
   vertex 168.212723 -32.052986 488.898743
   vertex 171.198013 -33.260586 489.274475
   vertex 168.207062 -33.260586 489.222260
  endloop
 endfacet

 facet normal 0.016861 -0.258812 -0.965781
  outer loop
   vertex 171.203659 -32.052986 488.950958
   vertex 171.198013 -33.260586 489.274475
   vertex 168.212723 -32.052986 488.898743
  endloop
 endfacet

 facet normal 0.999848 0.000001 0.017451
  outer loop
   vertex 171.180252 -31.693594 490.292023
   vertex 171.198013 -33.260586 489.274475
   vertex 171.203659 -32.052986 488.950958
  endloop
 endfacet

 facet normal 0.004518 0.965926 -0.258780
  outer loop
   vertex 171.203659 -32.052986 488.950958
   vertex 168.189301 -31.693594 490.239807
   vertex 171.180252 -31.693594 490.292023
  endloop
 endfacet

 facet normal -0.016860 0.258812 0.965781
  outer loop
   vertex 171.180252 -31.693594 490.292023
   vertex 168.189301 -31.693594 490.239807
   vertex 171.174606 -32.901196 490.615540
  endloop
 endfacet

 facet normal -0.016860 0.258812 0.965781
  outer loop
   vertex 171.174606 -32.901196 490.615540
   vertex 168.189301 -31.693594 490.239807
   vertex 168.183655 -32.901196 490.563324
  endloop
 endfacet

 facet normal -0.004518 -0.965926 0.258779
  outer loop
   vertex 168.183655 -32.901196 490.563324
   vertex 171.198013 -33.260586 489.274475
   vertex 171.174606 -32.901196 490.615540
  endloop
 endfacet

 facet normal -0.004518 -0.965926 0.258779
  outer loop
   vertex 168.207062 -33.260586 489.222260
   vertex 171.198013 -33.260586 489.274475
   vertex 168.183655 -32.901196 490.563324
  endloop
 endfacet

 facet normal 0.004518 0.965926 -0.258780
  outer loop
   vertex 171.203659 -32.052986 488.950958
   vertex 168.212723 -32.052986 488.898743
   vertex 168.189301 -31.693594 490.239807
  endloop
 endfacet

 facet normal 0.004518 0.965926 -0.258779
  outer loop
   vertex 193.373779 -32.052986 489.337952
   vertex 190.382843 -32.052986 489.285736
   vertex 193.350372 -31.693596 490.679016
  endloop
 endfacet

 facet normal 0.999848 0.000001 0.017451
  outer loop
   vertex 171.180252 -31.693594 490.292023
   vertex 171.174606 -32.901196 490.615540
   vertex 171.198013 -33.260586 489.274475
  endloop
 endfacet

 facet normal -0.016850 0.258835 0.965775
  outer loop
   vertex 190.359436 -31.693596 490.626801
   vertex 190.353775 -32.901196 490.950348
   vertex 193.344727 -32.901196 491.002533
  endloop
 endfacet

 facet normal 0.016860 -0.258706 -0.965809
  outer loop
   vertex 190.640579 -34.131916 486.979370
   vertex 171.027069 -34.026039 486.608612
   vertex 190.641083 -34.026043 486.951019
  endloop
 endfacet

 facet normal 0.013648 0.623420 -0.781768
  outer loop
   vertex 190.641083 -34.026043 486.951019
   vertex 171.027069 -34.026039 486.608612
   vertex 190.639496 -33.912464 487.041565
  endloop
 endfacet

 facet normal 0.013877 0.606967 -0.794606
  outer loop
   vertex 171.782028 -32.647701 486.191162
   vertex 170.622391 -32.564297 486.234619
   vertex 171.780930 -32.564297 486.254852
  endloop
 endfacet

 facet normal 0.004519 0.965927 -0.258774
  outer loop
   vertex 171.780930 -32.564297 486.254852
   vertex 170.622391 -32.564297 486.234619
   vertex 170.608200 -32.346470 487.047455
  endloop
 endfacet

 facet normal -0.004519 -0.965925 0.258783
  outer loop
   vertex 191.036865 -33.952827 487.834534
   vertex 189.892517 -34.170654 487.001495
   vertex 191.051056 -34.170654 487.021729
  endloop
 endfacet

 facet normal 0.006718 -0.923020 -0.384692
  outer loop
   vertex 191.051056 -34.170654 487.021729
   vertex 189.892517 -34.170654 487.001495
   vertex 189.894211 -34.130272 486.904633
  endloop
 endfacet

 facet normal 0.006376 -0.930887 -0.365253
  outer loop
   vertex 171.030807 -32.774380 486.394287
   vertex 171.033173 -32.721306 486.259064
   vertex 190.647186 -32.721306 486.601471
  endloop
 endfacet

 facet normal 0.016859 -0.258963 -0.965740
  outer loop
   vertex 190.647186 -32.721306 486.601471
   vertex 171.033173 -32.721306 486.259064
   vertex 190.647675 -32.615433 486.573090
  endloop
 endfacet

 facet normal 0.014117 -0.588128 -0.808644
  outer loop
   vertex 171.013763 -33.900578 487.370728
   vertex 190.627777 -33.900578 487.713135
   vertex 171.013397 -33.929623 487.391846
  endloop
 endfacet

 facet normal 0.014117 -0.588128 -0.808644
  outer loop
   vertex 171.013397 -33.929623 487.391846
   vertex 190.627777 -33.900578 487.713135
   vertex 190.627411 -33.929623 487.734253
  endloop
 endfacet

 facet normal -0.004518 -0.965921 0.258797
  outer loop
   vertex 190.627411 -33.929623 487.734253
   vertex 171.012207 -33.911343 487.460052
   vertex 171.013397 -33.929623 487.391846
  endloop
 endfacet

 facet normal -0.999847 -0.000020 -0.017497
  outer loop
   vertex 170.614868 -34.170654 486.664978
   vertex 170.615677 -33.936974 486.618500
   vertex 170.616562 -34.130272 486.568146
  endloop
 endfacet

 facet normal -0.999847 -0.000019 -0.017501
  outer loop
   vertex 170.616562 -34.130272 486.568146
   vertex 170.615677 -33.936974 486.618500
   vertex 170.617279 -33.976723 486.527008
  endloop
 endfacet

 facet normal 0.016841 -0.258822 -0.965778
  outer loop
   vertex 170.617279 -33.976723 486.527008
   vertex 171.775101 -34.130272 486.588348
   vertex 170.616562 -34.130272 486.568146
  endloop
 endfacet

 facet normal 0.999848 0.000036 0.017440
  outer loop
   vertex 191.058563 -32.564297 486.591370
   vertex 191.057236 -32.789913 486.667938
   vertex 191.059677 -32.647701 486.527679
  endloop
 endfacet

 facet normal 0.999849 -0.000010 0.017394
  outer loop
   vertex 191.059677 -32.647701 486.527679
   vertex 191.057236 -32.789913 486.667938
   vertex 191.058960 -32.801250 486.568817
  endloop
 endfacet

 facet normal 0.016867 -0.258822 -0.965778
  outer loop
   vertex 191.058960 -32.801250 486.568817
   vertex 189.901138 -32.647701 486.507446
   vertex 191.059677 -32.647701 486.527679
  endloop
 endfacet

 facet normal 0.999849 -0.000010 0.017394
  outer loop
   vertex 171.781311 -32.801250 486.232300
   vertex 171.782028 -32.647701 486.191162
   vertex 171.779587 -32.789909 486.331421
  endloop
 endfacet

 facet normal 0.999850 -0.000067 0.017335
  outer loop
   vertex 171.779587 -32.789909 486.331421
   vertex 171.782028 -32.647701 486.191162
   vertex 171.780930 -32.564297 486.254852
  endloop
 endfacet

 facet normal 0.999848 -0.000024 0.017462
  outer loop
   vertex 171.780930 -32.564297 486.254852
   vertex 171.766739 -32.346470 487.067688
   vertex 171.779587 -32.789909 486.331421
  endloop
 endfacet

 facet normal 0.004519 0.965927 -0.258774
  outer loop
   vertex 170.608200 -32.346470 487.047455
   vertex 171.766739 -32.346470 487.067688
   vertex 171.780930 -32.564297 486.254852
  endloop
 endfacet

 facet normal 0.006377 -0.930859 -0.365324
  outer loop
   vertex 190.647186 -32.721306 486.601471
   vertex 190.644821 -32.774380 486.736664
   vertex 171.030807 -32.774380 486.394287
  endloop
 endfacet

 facet normal 0.016858 -0.258818 -0.965779
  outer loop
   vertex 171.030807 -32.774380 486.394287
   vertex 190.644821 -32.774380 486.736664
   vertex 190.639496 -33.912464 487.041565
  endloop
 endfacet

 facet normal 0.016858 -0.258819 -0.965779
  outer loop
   vertex 190.639496 -33.912464 487.041565
   vertex 171.025482 -33.912460 486.699188
   vertex 171.030807 -32.774380 486.394287
  endloop
 endfacet

 facet normal 0.013645 0.623549 -0.781665
  outer loop
   vertex 171.027069 -34.026039 486.608612
   vertex 171.025482 -33.912460 486.699188
   vertex 190.639496 -33.912464 487.041565
  endloop
 endfacet

 facet normal -0.004513 -0.965927 0.258774
  outer loop
   vertex 191.036865 -33.952827 487.834534
   vertex 189.878326 -33.952827 487.814331
   vertex 189.892517 -34.170654 487.001495
  endloop
 endfacet

 facet normal -0.999848 -0.000011 -0.017453
  outer loop
   vertex 189.892517 -34.170654 487.001495
   vertex 189.878326 -33.952827 487.814331
   vertex 189.893326 -33.936974 486.955017
  endloop
 endfacet

 facet normal -0.999847 -0.000019 -0.017491
  outer loop
   vertex 189.893326 -33.936974 486.955017
   vertex 189.894211 -34.130272 486.904633
   vertex 189.892517 -34.170654 487.001495
  endloop
 endfacet

 facet normal -0.999847 -0.000017 -0.017496
  outer loop
   vertex 189.894928 -33.976723 486.863495
   vertex 189.894211 -34.130272 486.904633
   vertex 189.893326 -33.936974 486.955017
  endloop
 endfacet

 facet normal -0.017357 -0.105395 0.994279
  outer loop
   vertex 190.638123 -34.059372 487.120605
   vertex 171.024109 -34.059372 486.778198
   vertex 190.638184 -34.095081 487.116821
  endloop
 endfacet

 facet normal -0.017357 -0.104555 0.994368
  outer loop
   vertex 190.638184 -34.095081 487.116821
   vertex 171.024109 -34.059372 486.778198
   vertex 171.024170 -34.095081 486.774445
  endloop
 endfacet

 facet normal -0.004517 -0.965927 0.258774
  outer loop
   vertex 171.024170 -34.095081 486.774445
   vertex 190.640579 -34.131916 486.979370
   vertex 190.638184 -34.095081 487.116821
  endloop
 endfacet

 facet normal -0.004517 -0.965927 0.258774
  outer loop
   vertex 171.026566 -34.131916 486.636993
   vertex 190.640579 -34.131916 486.979370
   vertex 171.024170 -34.095081 486.774445
  endloop
 endfacet

 facet normal 0.016858 -0.258957 -0.965742
  outer loop
   vertex 171.027069 -34.026039 486.608612
   vertex 190.640579 -34.131916 486.979370
   vertex 171.026566 -34.131916 486.636993
  endloop
 endfacet

 facet normal 0.016848 -0.258811 -0.965781
  outer loop
   vertex 192.433868 -33.597462 488.126373
   vertex 190.791000 -32.520515 487.809113
   vertex 192.438904 -32.520515 487.837860
  endloop
 endfacet

 facet normal 0.004514 0.965926 -0.258778
  outer loop
   vertex 192.438904 -32.520515 487.837860
   vertex 190.791000 -32.520515 487.809113
   vertex 192.412933 -32.121666 489.326172
  endloop
 endfacet

 facet normal 0.999848 -0.000000 0.017447
  outer loop
   vertex 192.412933 -32.121666 489.326172
   vertex 192.407898 -33.198612 489.614716
   vertex 192.438904 -32.520515 487.837860
  endloop
 endfacet

 facet normal -0.016848 0.258836 0.965774
  outer loop
   vertex 190.765015 -32.121666 489.297424
   vertex 192.407898 -33.198612 489.614716
   vertex 192.412933 -32.121666 489.326172
  endloop
 endfacet

 facet normal -0.016866 0.258811 0.965781
  outer loop
   vertex 190.759979 -33.198612 489.585938
   vertex 192.407898 -33.198612 489.614716
   vertex 190.765015 -32.121666 489.297424
  endloop
 endfacet

 facet normal -0.999848 -0.000002 -0.017457
  outer loop
   vertex 190.765015 -32.121666 489.297424
   vertex 190.791000 -32.520515 487.809113
   vertex 190.759979 -33.198612 489.585938
  endloop
 endfacet

 facet normal -0.999848 -0.000002 -0.017457
  outer loop
   vertex 190.759979 -33.198612 489.585938
   vertex 190.791000 -32.520515 487.809113
   vertex 190.785965 -33.597462 488.097626
  endloop
 endfacet

 facet normal 0.016848 -0.258811 -0.965781
  outer loop
   vertex 190.785965 -33.597462 488.097626
   vertex 190.791000 -32.520515 487.809113
   vertex 192.433868 -33.597462 488.126373
  endloop
 endfacet

 facet normal -0.004514 -0.965928 0.258773
  outer loop
   vertex 192.433868 -33.597462 488.126373
   vertex 192.407898 -33.198612 489.614716
   vertex 190.785965 -33.597462 488.097626
  endloop
 endfacet

 facet normal 0.999848 -0.000001 0.017447
  outer loop
   vertex 192.438904 -32.520515 487.837860
   vertex 192.407898 -33.198612 489.614716
   vertex 192.433868 -33.597462 488.126373
  endloop
 endfacet

 facet normal -0.004519 -0.965926 0.258780
  outer loop
   vertex 169.194336 -33.597462 487.720703
   vertex 170.842255 -33.597462 487.749481
   vertex 169.168365 -33.198608 489.209015
  endloop
 endfacet

 facet normal -0.004519 -0.965926 0.258780
  outer loop
   vertex 169.168365 -33.198608 489.209015
   vertex 170.842255 -33.597462 487.749481
   vertex 170.816269 -33.198608 489.237793
  endloop
 endfacet

 facet normal -0.016866 0.258811 0.965781
  outer loop
   vertex 170.816269 -33.198608 489.237793
   vertex 169.173401 -32.121662 488.920502
   vertex 169.168365 -33.198608 489.209015
  endloop
 endfacet

 facet normal -0.016865 0.258812 0.965781
  outer loop
   vertex 170.821304 -32.121666 488.949280
   vertex 169.173401 -32.121662 488.920502
   vertex 170.816269 -33.198608 489.237793
  endloop
 endfacet

 facet normal 0.004521 0.965926 -0.258778
  outer loop
   vertex 170.847290 -32.520515 487.460968
   vertex 169.173401 -32.121662 488.920502
   vertex 170.821304 -32.121666 488.949280
  endloop
 endfacet

 facet normal 0.999848 0.000002 0.017457
  outer loop
   vertex 170.821304 -32.121666 488.949280
   vertex 170.842255 -33.597462 487.749481
   vertex 170.847290 -32.520515 487.460968
  endloop
 endfacet

 facet normal 0.016866 -0.258811 -0.965781
  outer loop
   vertex 170.847290 -32.520515 487.460968
   vertex 170.842255 -33.597462 487.749481
   vertex 169.199371 -32.520515 487.432190
  endloop
 endfacet

 facet normal 0.016866 -0.258811 -0.965781
  outer loop
   vertex 169.199371 -32.520515 487.432190
   vertex 170.842255 -33.597462 487.749481
   vertex 169.194336 -33.597462 487.720703
  endloop
 endfacet

 facet normal -0.999848 0.000001 -0.017447
  outer loop
   vertex 169.194336 -33.597462 487.720703
   vertex 169.173401 -32.121662 488.920502
   vertex 169.199371 -32.520515 487.432190
  endloop
 endfacet

 facet normal -0.999848 0.000001 -0.017447
  outer loop
   vertex 169.168365 -33.198608 489.209015
   vertex 169.173401 -32.121662 488.920502
   vertex 169.194336 -33.597462 487.720703
  endloop
 endfacet

 facet normal -0.016844 0.258828 0.965777
  outer loop
   vertex 193.866455 -32.658337 488.536499
   vertex 193.516510 -32.658337 488.530396
   vertex 193.514252 -33.141300 488.659790
  endloop
 endfacet

 facet normal 0.016844 -0.258828 -0.965777
  outer loop
   vertex 193.514252 -33.141300 488.659790
   vertex 193.516510 -32.658337 488.530396
   vertex 193.690353 -32.899818 488.598145
  endloop
 endfacet

 facet normal 0.016844 -0.258828 -0.965777
  outer loop
   vertex 193.690353 -32.899818 488.598145
   vertex 193.864197 -33.141300 488.665894
   vertex 193.514252 -33.141300 488.659790
  endloop
 endfacet

 facet normal 0.016844 -0.258828 -0.965777
  outer loop
   vertex 193.866455 -32.658337 488.536499
   vertex 193.864197 -33.141300 488.665894
   vertex 193.690353 -32.899818 488.598145
  endloop
 endfacet

 facet normal 0.999848 -0.000003 0.017440
  outer loop
   vertex 193.847351 -32.882481 489.631683
   vertex 193.864197 -33.141300 488.665894
   vertex 193.866455 -32.658337 488.536499
  endloop
 endfacet

 facet normal 0.999848 -0.000003 0.017440
  outer loop
   vertex 193.866455 -32.658337 488.536499
   vertex 193.849609 -32.399517 489.502289
   vertex 193.847351 -32.882481 489.631683
  endloop
 endfacet

 facet normal -0.016871 0.258828 0.965776
  outer loop
   vertex 193.847351 -32.882481 489.631683
   vertex 193.849609 -32.399517 489.502289
   vertex 192.147598 -32.882481 489.601990
  endloop
 endfacet

 facet normal -0.016854 0.258771 0.965792
  outer loop
   vertex 192.147598 -32.882481 489.601990
   vertex 193.849609 -32.399517 489.502289
   vertex 192.149857 -32.399517 489.472626
  endloop
 endfacet

 facet normal -0.999848 -0.000000 -0.017455
  outer loop
   vertex 192.149857 -32.399517 489.472626
   vertex 192.166718 -32.658337 488.506836
   vertex 192.147598 -32.882481 489.601990
  endloop
 endfacet

 facet normal 0.004513 0.965926 -0.258777
  outer loop
   vertex 192.579422 -32.593632 488.755554
   vertex 192.166718 -32.658337 488.506836
   vertex 192.149857 -32.399517 489.472626
  endloop
 endfacet

 facet normal 0.004513 0.965926 -0.258778
  outer loop
   vertex 192.516663 -32.658337 488.512939
   vertex 192.166718 -32.658337 488.506836
   vertex 192.579422 -32.593632 488.755554
  endloop
 endfacet

 facet normal -0.004520 -0.965925 0.258781
  outer loop
   vertex 169.024658 -33.076591 488.473816
   vertex 169.445801 -33.141296 488.239655
   vertex 169.428940 -32.882481 489.205414
  endloop
 endfacet

 facet normal 0.999848 0.000000 0.017456
  outer loop
   vertex 169.428940 -32.882481 489.205414
   vertex 169.445801 -33.141296 488.239655
   vertex 169.431198 -32.399517 489.076050
  endloop
 endfacet

 facet normal -0.016854 0.258771 0.965792
  outer loop
   vertex 169.431198 -32.399517 489.076050
   vertex 167.729187 -32.882481 489.175751
   vertex 169.428940 -32.882481 489.205414
  endloop
 endfacet

 facet normal -0.016871 0.258828 0.965776
  outer loop
   vertex 167.731445 -32.399517 489.046356
   vertex 167.729187 -32.882481 489.175751
   vertex 169.431198 -32.399517 489.076050
  endloop
 endfacet

 facet normal -0.999848 -0.000001 -0.017455
  outer loop
   vertex 167.746048 -33.141296 488.209961
   vertex 167.729187 -32.882481 489.175751
   vertex 167.731445 -32.399517 489.046356
  endloop
 endfacet

 facet normal -0.999848 -0.000000 -0.017456
  outer loop
   vertex 167.731445 -32.399517 489.046356
   vertex 167.748306 -32.658333 488.080597
   vertex 167.746048 -33.141296 488.209961
  endloop
 endfacet

 facet normal 0.016929 -0.258771 -0.965790
  outer loop
   vertex 167.746048 -33.141296 488.209961
   vertex 167.748306 -32.658333 488.080597
   vertex 167.922150 -32.899815 488.148346
  endloop
 endfacet

 facet normal 0.016844 -0.258828 -0.965777
  outer loop
   vertex 167.922150 -32.899815 488.148346
   vertex 167.748306 -32.658333 488.080597
   vertex 168.098251 -32.658333 488.086700
  endloop
 endfacet

 facet normal 0.016844 -0.258828 -0.965777
  outer loop
   vertex 168.098251 -32.658333 488.086700
   vertex 168.095993 -33.141296 488.216095
   vertex 167.922150 -32.899815 488.148346
  endloop
 endfacet

 facet normal -0.016929 0.258828 0.965775
  outer loop
   vertex 167.746048 -33.141296 488.209961
   vertex 168.095993 -33.141296 488.216095
   vertex 168.098251 -32.658333 488.086700
  endloop
 endfacet

 facet normal 0.016929 -0.258771 -0.965790
  outer loop
   vertex 167.922150 -32.899815 488.148346
   vertex 168.095993 -33.141296 488.216095
   vertex 167.746048 -33.141296 488.209961
  endloop
 endfacet

 facet normal 0.016859 -0.258695 -0.965812
  outer loop
   vertex 171.033173 -32.721306 486.259064
   vertex 171.033661 -32.615429 486.230713
   vertex 190.647675 -32.615433 486.573090
  endloop
 endfacet

 facet normal 0.004517 0.965927 -0.258774
  outer loop
   vertex 190.647675 -32.615433 486.573090
   vertex 171.033661 -32.615429 486.230713
   vertex 171.031265 -32.578594 486.368164
  endloop
 endfacet

 facet normal 0.004517 0.965927 -0.258774
  outer loop
   vertex 171.031265 -32.578594 486.368164
   vertex 190.645279 -32.578598 486.710541
   vertex 190.647675 -32.615433 486.573090
  endloop
 endfacet

 facet normal -0.014115 0.588128 0.808644
  outer loop
   vertex 171.030899 -32.607639 486.389282
   vertex 190.645279 -32.578598 486.710541
   vertex 171.031265 -32.578594 486.368164
  endloop
 endfacet

 facet normal -0.014115 0.588179 0.808608
  outer loop
   vertex 190.644913 -32.607639 486.731659
   vertex 190.645279 -32.578598 486.710541
   vertex 171.030899 -32.607639 486.389282
  endloop
 endfacet

 facet normal 0.004517 0.965925 -0.258783
  outer loop
   vertex 171.030899 -32.607639 486.389282
   vertex 171.020554 -32.448845 486.981812
   vertex 190.644913 -32.607639 486.731659
  endloop
 endfacet

 facet normal 0.004517 0.965926 -0.258778
  outer loop
   vertex 190.644913 -32.607639 486.731659
   vertex 171.020554 -32.448845 486.981812
   vertex 190.634567 -32.448849 487.324188
  endloop
 endfacet

 facet normal 0.017357 0.104555 -0.994368
  outer loop
   vertex 190.634567 -32.448849 487.324188
   vertex 171.020554 -32.448845 486.981812
   vertex 171.020493 -32.413136 486.985565
  endloop
 endfacet

 facet normal 0.017357 0.105391 -0.994279
  outer loop
   vertex 171.020493 -32.413136 486.985565
   vertex 190.634491 -32.413136 487.327972
   vertex 190.634567 -32.448849 487.324188
  endloop
 endfacet

 facet normal 0.004517 0.965935 -0.258746
  outer loop
   vertex 171.019302 -32.394859 487.053772
   vertex 190.634491 -32.413136 487.327972
   vertex 171.020493 -32.413136 486.985565
  endloop
 endfacet

 facet normal 0.004518 0.965906 -0.258854
  outer loop
   vertex 190.633301 -32.394859 487.396149
   vertex 190.634491 -32.413136 487.327972
   vertex 171.019302 -32.394859 487.053772
  endloop
 endfacet

 facet normal -0.016858 0.258820 0.965778
  outer loop
   vertex 171.019302 -32.394859 487.053772
   vertex 171.012207 -33.911343 487.460052
   vertex 190.633301 -32.394859 487.396149
  endloop
 endfacet

 facet normal -0.016858 0.258819 0.965779
  outer loop
   vertex 190.633301 -32.394859 487.396149
   vertex 171.012207 -33.911343 487.460052
   vertex 190.626221 -33.911346 487.802429
  endloop
 endfacet

 facet normal -0.004519 -0.965906 0.258854
  outer loop
   vertex 190.626221 -33.911346 487.802429
   vertex 171.012207 -33.911343 487.460052
   vertex 190.627411 -33.929623 487.734253
  endloop
 endfacet

 facet normal -0.004518 -0.965924 0.258785
  outer loop
   vertex 192.577164 -33.076595 488.884949
   vertex 192.147598 -32.882481 489.601990
   vertex 192.164459 -33.141300 488.636230
  endloop
 endfacet

 facet normal -0.999848 -0.000001 -0.017456
  outer loop
   vertex 192.164459 -33.141300 488.636230
   vertex 192.147598 -32.882481 489.601990
   vertex 192.166718 -32.658337 488.506836
  endloop
 endfacet

 facet normal 0.016844 -0.258828 -0.965777
  outer loop
   vertex 192.166718 -32.658337 488.506836
   vertex 192.514404 -33.141300 488.642334
   vertex 192.164459 -33.141300 488.636230
  endloop
 endfacet

 facet normal 0.016844 -0.258828 -0.965777
  outer loop
   vertex 192.516663 -32.658337 488.512939
   vertex 192.514404 -33.141300 488.642334
   vertex 192.166718 -32.658337 488.506836
  endloop
 endfacet

 facet normal -0.016844 0.258828 0.965777
  outer loop
   vertex 192.166718 -32.658337 488.506836
   vertex 192.514404 -33.141300 488.642334
   vertex 192.516663 -32.658337 488.512939
  endloop
 endfacet

 facet normal 0.004514 0.965923 -0.258792
  outer loop
   vertex 192.516663 -32.658337 488.512939
   vertex 192.587860 -32.723042 488.272675
   vertex 192.166718 -32.658337 488.506836
  endloop
 endfacet

 facet normal 0.004528 0.965929 -0.258768
  outer loop
   vertex 192.166718 -32.658337 488.506836
   vertex 192.587860 -32.723042 488.272675
   vertex 192.287750 -32.768333 488.098358
  endloop
 endfacet

 facet normal 0.004529 0.965928 -0.258770
  outer loop
   vertex 192.287750 -32.768333 488.098358
   vertex 192.587860 -32.723042 488.272675
   vertex 192.773926 -32.770409 488.099121
  endloop
 endfacet

 facet normal 0.004529 0.965929 -0.258769
  outer loop
   vertex 192.773926 -32.770409 488.099121
   vertex 192.604065 -32.848858 487.803314
   vertex 192.287750 -32.768333 488.098358
  endloop
 endfacet

 facet normal 0.004520 0.965930 -0.258764
  outer loop
   vertex 193.025024 -32.787746 488.038788
   vertex 192.604065 -32.848858 487.803314
   vertex 192.773926 -32.770409 488.099121
  endloop
 endfacet

 facet normal 0.004516 0.965932 -0.258757
  outer loop
   vertex 193.030914 -32.878330 487.700745
   vertex 192.604065 -32.848858 487.803314
   vertex 193.025024 -32.787746 488.038788
  endloop
 endfacet

 facet normal 0.004513 0.965932 -0.258757
  outer loop
   vertex 193.025024 -32.787746 488.038788
   vertex 193.273849 -32.770409 488.107849
   vertex 193.030914 -32.878330 487.700745
  endloop
 endfacet

 facet normal 0.004516 0.965931 -0.258759
  outer loop
   vertex 193.030914 -32.878330 487.700745
   vertex 193.273849 -32.770409 488.107849
   vertex 193.453934 -32.848858 487.818146
  endloop
 endfacet

 facet normal 0.004492 0.965928 -0.258773
  outer loop
   vertex 193.453934 -32.848858 487.818146
   vertex 193.273849 -32.770409 488.107849
   vertex 193.453751 -32.723042 488.287781
  endloop
 endfacet

 facet normal 0.004512 0.965928 -0.258773
  outer loop
   vertex 193.453751 -32.723042 488.287781
   vertex 193.759766 -32.768333 488.124054
   vertex 193.453934 -32.848858 487.818146
  endloop
 endfacet

 facet normal 0.004509 0.965927 -0.258777
  outer loop
   vertex 193.516510 -32.658337 488.530396
   vertex 193.759766 -32.768333 488.124054
   vertex 193.453751 -32.723042 488.287781
  endloop
 endfacet

 facet normal 0.004513 0.965927 -0.258775
  outer loop
   vertex 193.866455 -32.658337 488.536499
   vertex 193.759766 -32.768333 488.124054
   vertex 193.516510 -32.658337 488.530396
  endloop
 endfacet

 facet normal 0.004514 0.965923 -0.258792
  outer loop
   vertex 193.516510 -32.658337 488.530396
   vertex 193.445328 -32.593632 488.770660
   vertex 193.866455 -32.658337 488.536499
  endloop
 endfacet

 facet normal 0.004522 0.965926 -0.258777
  outer loop
   vertex 193.866455 -32.658337 488.536499
   vertex 193.445328 -32.593632 488.770660
   vertex 193.849609 -32.399517 489.502289
  endloop
 endfacet

 facet normal 0.004494 0.965930 -0.258763
  outer loop
   vertex 193.849609 -32.399517 489.502289
   vertex 193.445328 -32.593632 488.770660
   vertex 193.259247 -32.546265 488.944244
  endloop
 endfacet

 facet normal 0.004540 0.965918 -0.258809
  outer loop
   vertex 193.259247 -32.546265 488.944244
   vertex 193.008163 -32.528927 489.004547
   vertex 193.849609 -32.399517 489.502289
  endloop
 endfacet

 facet normal 0.004516 0.965927 -0.258774
  outer loop
   vertex 169.026917 -32.593632 488.344421
   vertex 169.431198 -32.399517 489.076050
   vertex 169.448059 -32.658333 488.110260
  endloop
 endfacet

 facet normal 0.999848 0.000001 0.017455
  outer loop
   vertex 169.448059 -32.658333 488.110260
   vertex 169.431198 -32.399517 489.076050
   vertex 169.445801 -33.141296 488.239655
  endloop
 endfacet

 facet normal 0.016844 -0.258828 -0.965777
  outer loop
   vertex 169.445801 -33.141296 488.239655
   vertex 169.098114 -32.658333 488.104156
   vertex 169.448059 -32.658333 488.110260
  endloop
 endfacet

 facet normal 0.016844 -0.258828 -0.965777
  outer loop
   vertex 169.095840 -33.141296 488.233551
   vertex 169.098114 -32.658333 488.104156
   vertex 169.445801 -33.141296 488.239655
  endloop
 endfacet

 facet normal -0.016844 0.258828 0.965777
  outer loop
   vertex 169.445801 -33.141296 488.239655
   vertex 169.098114 -32.658333 488.104156
   vertex 169.095840 -33.141296 488.233551
  endloop
 endfacet

 facet normal -0.004513 -0.965926 0.258778
  outer loop
   vertex 169.095840 -33.141296 488.233551
   vertex 169.033081 -33.206001 487.990936
   vertex 169.445801 -33.141296 488.239655
  endloop
 endfacet

 facet normal -0.004517 -0.965925 0.258784
  outer loop
   vertex 169.445801 -33.141296 488.239655
   vertex 169.033081 -33.206001 487.990936
   vertex 169.339096 -33.251297 487.827209
  endloop
 endfacet

 facet normal -0.004528 -0.965930 0.258765
  outer loop
   vertex 169.339096 -33.251297 487.827209
   vertex 169.033081 -33.206001 487.990936
   vertex 168.853180 -33.253368 487.810974
  endloop
 endfacet

 facet normal -0.004529 -0.965926 0.258777
  outer loop
   vertex 168.853180 -33.253368 487.810974
   vertex 169.033264 -33.331818 487.521301
   vertex 169.339096 -33.251297 487.827209
  endloop
 endfacet

 facet normal -0.004520 -0.965925 0.258782
  outer loop
   vertex 168.604355 -33.270706 487.741913
   vertex 169.033264 -33.331818 487.521301
   vertex 168.853180 -33.253368 487.810974
  endloop
 endfacet

 facet normal -0.004516 -0.965923 0.258789
  outer loop
   vertex 168.610260 -33.361294 487.403900
   vertex 169.033264 -33.331818 487.521301
   vertex 168.604355 -33.270706 487.741913
  endloop
 endfacet

 facet normal -0.004514 -0.965923 0.258789
  outer loop
   vertex 168.604355 -33.270706 487.741913
   vertex 168.353256 -33.253368 487.802246
   vertex 168.610260 -33.361294 487.403900
  endloop
 endfacet

 facet normal -0.004517 -0.965924 0.258787
  outer loop
   vertex 168.610260 -33.361294 487.403900
   vertex 168.353256 -33.253368 487.802246
   vertex 168.183395 -33.331818 487.506470
  endloop
 endfacet

 facet normal -0.004514 -0.965924 0.258786
  outer loop
   vertex 168.183395 -33.331818 487.506470
   vertex 168.353256 -33.253368 487.802246
   vertex 168.167191 -33.206001 487.975800
  endloop
 endfacet

 facet normal -0.004500 -0.965924 0.258786
  outer loop
   vertex 168.167191 -33.206001 487.975800
   vertex 167.867081 -33.251297 487.801514
   vertex 168.183395 -33.331818 487.506470
  endloop
 endfacet

 facet normal -0.004489 -0.965929 0.258768
  outer loop
   vertex 168.095993 -33.141296 488.216095
   vertex 167.867081 -33.251297 487.801514
   vertex 168.167191 -33.206001 487.975800
  endloop
 endfacet

 facet normal -0.004536 -0.965922 0.258792
  outer loop
   vertex 167.746048 -33.141296 488.209961
   vertex 167.867081 -33.251297 487.801514
   vertex 168.095993 -33.141296 488.216095
  endloop
 endfacet

 facet normal -0.004536 -0.965925 0.258784
  outer loop
   vertex 168.095993 -33.141296 488.216095
   vertex 168.158768 -33.076591 488.458710
   vertex 167.746048 -33.141296 488.209961
  endloop
 endfacet

 facet normal -0.004529 -0.965927 0.258774
  outer loop
   vertex 167.746048 -33.141296 488.209961
   vertex 168.158768 -33.076591 488.458710
   vertex 167.729187 -32.882481 489.175751
  endloop
 endfacet

 facet normal -0.004507 -0.965924 0.258786
  outer loop
   vertex 167.729187 -32.882481 489.175751
   vertex 168.158768 -33.076591 488.458710
   vertex 168.338669 -33.029224 488.638641
  endloop
 endfacet

 facet normal -0.004518 -0.965927 0.258774
  outer loop
   vertex 168.338669 -33.029224 488.638641
   vertex 168.587494 -33.011887 488.707703
   vertex 167.729187 -32.882481 489.175751
  endloop
 endfacet

 facet normal -0.003658 0.977816 0.209433
  outer loop
   vertex 170.608200 -32.346470 487.047455
   vertex 170.598785 -32.462055 487.586945
   vertex 171.766739 -32.346470 487.067688
  endloop
 endfacet

 facet normal -0.003652 0.977814 0.209444
  outer loop
   vertex 171.766739 -32.346470 487.067688
   vertex 170.598785 -32.462055 487.586945
   vertex 171.757324 -32.462055 487.607147
  endloop
 endfacet

 facet normal 0.999848 -0.000008 0.017448
  outer loop
   vertex 171.757324 -32.462055 487.607147
   vertex 171.752075 -33.582943 487.907440
   vertex 171.766739 -32.346470 487.067688
  endloop
 endfacet

 facet normal -0.016841 0.258817 0.965779
  outer loop
   vertex 170.598785 -32.462055 487.586945
   vertex 171.752075 -33.582943 487.907440
   vertex 171.757324 -32.462055 487.607147
  endloop
 endfacet

 facet normal -0.016841 0.258817 0.965779
  outer loop
   vertex 170.593536 -33.582943 487.887238
   vertex 171.752075 -33.582943 487.907440
   vertex 170.598785 -32.462055 487.586945
  endloop
 endfacet

 facet normal -0.999848 0.000008 -0.017447
  outer loop
   vertex 170.598785 -32.462055 487.586945
   vertex 170.600677 -33.952824 487.477814
   vertex 170.593536 -33.582943 487.887238
  endloop
 endfacet

 facet normal -0.011687 -0.742083 0.670207
  outer loop
   vertex 170.593536 -33.582943 487.887238
   vertex 170.600677 -33.952824 487.477814
   vertex 171.752075 -33.582943 487.907440
  endloop
 endfacet

 facet normal -0.011705 -0.742058 0.670234
  outer loop
   vertex 171.752075 -33.582943 487.907440
   vertex 170.600677 -33.952824 487.477814
   vertex 171.759216 -33.952824 487.498047
  endloop
 endfacet

 facet normal 0.999848 -0.000008 0.017448
  outer loop
   vertex 171.759216 -33.952824 487.498047
   vertex 171.766739 -32.346470 487.067688
   vertex 171.752075 -33.582943 487.907440
  endloop
 endfacet

 facet normal 0.999848 -0.000007 0.017452
  outer loop
   vertex 171.774216 -33.936974 486.638733
   vertex 171.766739 -32.346470 487.067688
   vertex 171.759216 -33.952824 487.498047
  endloop
 endfacet

 facet normal 0.999848 -0.000006 0.017451
  outer loop
   vertex 171.779587 -32.789909 486.331421
   vertex 171.766739 -32.346470 487.067688
   vertex 171.774216 -33.936974 486.638733
  endloop
 endfacet

 facet normal 0.016867 -0.258822 -0.965778
  outer loop
   vertex 171.774216 -33.936974 486.638733
   vertex 170.621048 -32.789909 486.311188
   vertex 171.779587 -32.789909 486.331421
  endloop
 endfacet

 facet normal -0.001985 -0.993520 0.113641
  outer loop
   vertex 171.779587 -32.789909 486.331421
   vertex 170.621048 -32.789909 486.311188
   vertex 171.781311 -32.801250 486.232300
  endloop
 endfacet

 facet normal -0.001985 -0.993520 0.113641
  outer loop
   vertex 171.781311 -32.801250 486.232300
   vertex 170.621048 -32.789909 486.311188
   vertex 170.622772 -32.801250 486.212067
  endloop
 endfacet

 facet normal 0.016867 -0.258822 -0.965778
  outer loop
   vertex 170.622772 -32.801250 486.212067
   vertex 171.782028 -32.647701 486.191162
   vertex 171.781311 -32.801250 486.232300
  endloop
 endfacet

 facet normal 0.016867 -0.258822 -0.965778
  outer loop
   vertex 170.623489 -32.647701 486.170929
   vertex 171.782028 -32.647701 486.191162
   vertex 170.622772 -32.801250 486.212067
  endloop
 endfacet

 facet normal 0.013877 0.606967 -0.794606
  outer loop
   vertex 170.622391 -32.564297 486.234619
   vertex 171.782028 -32.647701 486.191162
   vertex 170.623489 -32.647701 486.170929
  endloop
 endfacet

 facet normal -0.999850 0.000067 -0.017335
  outer loop
   vertex 170.623489 -32.647701 486.170929
   vertex 170.621048 -32.789909 486.311188
   vertex 170.622391 -32.564297 486.234619
  endloop
 endfacet

 facet normal -0.999848 0.000024 -0.017462
  outer loop
   vertex 170.622391 -32.564297 486.234619
   vertex 170.621048 -32.789909 486.311188
   vertex 170.608200 -32.346470 487.047455
  endloop
 endfacet

 facet normal -0.999848 0.000006 -0.017451
  outer loop
   vertex 170.608200 -32.346470 487.047455
   vertex 170.621048 -32.789909 486.311188
   vertex 170.615677 -33.936974 486.618500
  endloop
 endfacet

 facet normal -0.999848 0.000007 -0.017452
  outer loop
   vertex 170.615677 -33.936974 486.618500
   vertex 170.600677 -33.952824 487.477814
   vertex 170.608200 -32.346470 487.047455
  endloop
 endfacet

 facet normal -0.999848 -0.000011 -0.017453
  outer loop
   vertex 170.614868 -34.170654 486.664978
   vertex 170.600677 -33.952824 487.477814
   vertex 170.615677 -33.936974 486.618500
  endloop
 endfacet

 facet normal -0.004519 -0.965926 0.258778
  outer loop
   vertex 171.759216 -33.952824 487.498047
   vertex 170.600677 -33.952824 487.477814
   vertex 170.614868 -34.170654 486.664978
  endloop
 endfacet

 facet normal -0.004519 -0.965926 0.258778
  outer loop
   vertex 170.614868 -34.170654 486.664978
   vertex 171.773407 -34.170654 486.685211
   vertex 171.759216 -33.952824 487.498047
  endloop
 endfacet

 facet normal 0.999848 0.000011 0.017453
  outer loop
   vertex 171.759216 -33.952824 487.498047
   vertex 171.773407 -34.170654 486.685211
   vertex 171.774216 -33.936974 486.638733
  endloop
 endfacet

 facet normal 0.999847 0.000019 0.017491
  outer loop
   vertex 171.774216 -33.936974 486.638733
   vertex 171.773407 -34.170654 486.685211
   vertex 171.775101 -34.130272 486.588348
  endloop
 endfacet

 facet normal 0.999847 0.000017 0.017496
  outer loop
   vertex 171.775101 -34.130272 486.588348
   vertex 171.775818 -33.976723 486.547211
   vertex 171.774216 -33.936974 486.638733
  endloop
 endfacet

 facet normal 0.016841 -0.258822 -0.965778
  outer loop
   vertex 170.617279 -33.976723 486.527008
   vertex 171.775818 -33.976723 486.547211
   vertex 171.775101 -34.130272 486.588348
  endloop
 endfacet

 facet normal 0.006945 0.917250 -0.398251
  outer loop
   vertex 171.774216 -33.936974 486.638733
   vertex 171.775818 -33.976723 486.547211
   vertex 170.617279 -33.976723 486.527008
  endloop
 endfacet

 facet normal 0.006957 0.917202 -0.398362
  outer loop
   vertex 170.617279 -33.976723 486.527008
   vertex 170.615677 -33.936974 486.618500
   vertex 171.774216 -33.936974 486.638733
  endloop
 endfacet

 facet normal 0.016867 -0.258822 -0.965778
  outer loop
   vertex 171.774216 -33.936974 486.638733
   vertex 170.615677 -33.936974 486.618500
   vertex 170.621048 -32.789909 486.311188
  endloop
 endfacet

 facet normal -0.011687 -0.742079 0.670210
  outer loop
   vertex 191.036865 -33.952827 487.834534
   vertex 191.029724 -33.582943 488.243958
   vertex 189.878326 -33.952827 487.814331
  endloop
 endfacet

 facet normal -0.011687 -0.742079 0.670210
  outer loop
   vertex 189.878326 -33.952827 487.814331
   vertex 191.029724 -33.582943 488.243958
   vertex 189.871185 -33.582943 488.223755
  endloop
 endfacet

 facet normal -0.999848 -0.000003 -0.017437
  outer loop
   vertex 189.871185 -33.582943 488.223755
   vertex 189.876419 -32.462059 487.923462
   vertex 189.878326 -33.952827 487.814331
  endloop
 endfacet

 facet normal -0.016841 0.258818 0.965779
  outer loop
   vertex 191.029724 -33.582943 488.243958
   vertex 189.876419 -32.462059 487.923462
   vertex 189.871185 -33.582943 488.223755
  endloop
 endfacet

 facet normal -0.016841 0.258818 0.965779
  outer loop
   vertex 191.034958 -32.462059 487.943665
   vertex 189.876419 -32.462059 487.923462
   vertex 191.029724 -33.582943 488.243958
  endloop
 endfacet

 facet normal 0.999848 0.000007 0.017451
  outer loop
   vertex 191.029724 -33.582943 488.243958
   vertex 191.044373 -32.346470 487.404205
   vertex 191.034958 -32.462059 487.943665
  endloop
 endfacet

 facet normal -0.003652 0.977812 0.209451
  outer loop
   vertex 191.034958 -32.462059 487.943665
   vertex 191.044373 -32.346470 487.404205
   vertex 189.876419 -32.462059 487.923462
  endloop
 endfacet

 facet normal -0.003658 0.977815 0.209439
  outer loop
   vertex 189.876419 -32.462059 487.923462
   vertex 191.044373 -32.346470 487.404205
   vertex 189.885834 -32.346470 487.383972
  endloop
 endfacet

 facet normal -0.999848 -0.000002 -0.017449
  outer loop
   vertex 189.885834 -32.346470 487.383972
   vertex 189.878326 -33.952827 487.814331
   vertex 189.876419 -32.462059 487.923462
  endloop
 endfacet

 facet normal -0.999847 -0.000006 -0.017464
  outer loop
   vertex 189.898697 -32.789913 486.647705
   vertex 189.878326 -33.952827 487.814331
   vertex 189.885834 -32.346470 487.383972
  endloop
 endfacet

 facet normal -0.999848 0.000006 -0.017452
  outer loop
   vertex 189.893326 -33.936974 486.955017
   vertex 189.878326 -33.952827 487.814331
   vertex 189.898697 -32.789913 486.647705
  endloop
 endfacet

 facet normal 0.016867 -0.258823 -0.965777
  outer loop
   vertex 189.898697 -32.789913 486.647705
   vertex 191.051865 -33.936974 486.975250
   vertex 189.893326 -33.936974 486.955017
  endloop
 endfacet

 facet normal 0.006955 0.917250 -0.398251
  outer loop
   vertex 189.893326 -33.936974 486.955017
   vertex 191.051865 -33.936974 486.975250
   vertex 189.894928 -33.976723 486.863495
  endloop
 endfacet

 facet normal 0.006955 0.917250 -0.398251
  outer loop
   vertex 189.894928 -33.976723 486.863495
   vertex 191.051865 -33.936974 486.975250
   vertex 191.053467 -33.976723 486.883728
  endloop
 endfacet

 facet normal 0.016867 -0.258822 -0.965778
  outer loop
   vertex 191.053467 -33.976723 486.883728
   vertex 189.894211 -34.130272 486.904633
   vertex 189.894928 -33.976723 486.863495
  endloop
 endfacet

 facet normal 0.016867 -0.258822 -0.965778
  outer loop
   vertex 191.052750 -34.130272 486.924866
   vertex 189.894211 -34.130272 486.904633
   vertex 191.053467 -33.976723 486.883728
  endloop
 endfacet

 facet normal 0.006718 -0.923020 -0.384692
  outer loop
   vertex 191.051056 -34.170654 487.021729
   vertex 189.894211 -34.130272 486.904633
   vertex 191.052750 -34.130272 486.924866
  endloop
 endfacet

 facet normal 0.999847 0.000019 0.017491
  outer loop
   vertex 191.052750 -34.130272 486.924866
   vertex 191.051865 -33.936974 486.975250
   vertex 191.051056 -34.170654 487.021729
  endloop
 endfacet

 facet normal 0.999848 0.000011 0.017453
  outer loop
   vertex 191.051056 -34.170654 487.021729
   vertex 191.051865 -33.936974 486.975250
   vertex 191.036865 -33.952827 487.834534
  endloop
 endfacet

 facet normal 0.999848 -0.000006 0.017453
  outer loop
   vertex 191.036865 -33.952827 487.834534
   vertex 191.051865 -33.936974 486.975250
   vertex 191.057236 -32.789913 486.667938
  endloop
 endfacet

 facet normal 0.999847 0.000006 0.017465
  outer loop
   vertex 191.057236 -32.789913 486.667938
   vertex 191.044373 -32.346470 487.404205
   vertex 191.036865 -33.952827 487.834534
  endloop
 endfacet

 facet normal 0.999848 0.000038 0.017446
  outer loop
   vertex 191.058563 -32.564297 486.591370
   vertex 191.044373 -32.346470 487.404205
   vertex 191.057236 -32.789913 486.667938
  endloop
 endfacet

 facet normal 0.004519 0.965927 -0.258774
  outer loop
   vertex 189.885834 -32.346470 487.383972
   vertex 191.044373 -32.346470 487.404205
   vertex 191.058563 -32.564297 486.591370
  endloop
 endfacet

 facet normal 0.004519 0.965927 -0.258774
  outer loop
   vertex 191.058563 -32.564297 486.591370
   vertex 189.900024 -32.564297 486.571136
   vertex 189.885834 -32.346470 487.383972
  endloop
 endfacet

 facet normal -0.999848 -0.000038 -0.017446
  outer loop
   vertex 189.885834 -32.346470 487.383972
   vertex 189.900024 -32.564297 486.571136
   vertex 189.898697 -32.789913 486.647705
  endloop
 endfacet

 facet normal -0.999848 -0.000036 -0.017440
  outer loop
   vertex 189.898697 -32.789913 486.647705
   vertex 189.900024 -32.564297 486.571136
   vertex 189.901138 -32.647701 486.507446
  endloop
 endfacet

 facet normal -0.999849 0.000010 -0.017394
  outer loop
   vertex 189.901138 -32.647701 486.507446
   vertex 189.900421 -32.801250 486.548584
   vertex 189.898697 -32.789913 486.647705
  endloop
 endfacet

 facet normal 0.016867 -0.258822 -0.965778
  outer loop
   vertex 191.058960 -32.801250 486.568817
   vertex 189.900421 -32.801250 486.548584
   vertex 189.901138 -32.647701 486.507446
  endloop
 endfacet

 facet normal -0.001984 -0.993524 0.113603
  outer loop
   vertex 189.898697 -32.789913 486.647705
   vertex 189.900421 -32.801250 486.548584
   vertex 191.058960 -32.801250 486.568817
  endloop
 endfacet

 facet normal -0.001984 -0.993524 0.113603
  outer loop
   vertex 191.058960 -32.801250 486.568817
   vertex 191.057236 -32.789913 486.667938
   vertex 189.898697 -32.789913 486.647705
  endloop
 endfacet

 facet normal 0.016867 -0.258823 -0.965777
  outer loop
   vertex 189.898697 -32.789913 486.647705
   vertex 191.057236 -32.789913 486.667938
   vertex 191.051865 -33.936974 486.975250
  endloop
 endfacet

 facet normal 0.004513 0.965926 -0.258778
  outer loop
   vertex 169.098114 -32.658333 488.104156
   vertex 169.448059 -32.658333 488.110260
   vertex 169.035339 -32.723038 487.861542
  endloop
 endfacet

 facet normal 0.004517 0.965925 -0.258784
  outer loop
   vertex 169.035339 -32.723038 487.861542
   vertex 169.448059 -32.658333 488.110260
   vertex 169.341354 -32.768333 487.697815
  endloop
 endfacet

 facet normal 0.004528 0.965930 -0.258765
  outer loop
   vertex 169.341354 -32.768333 487.697815
   vertex 168.855438 -32.770405 487.681580
   vertex 169.035339 -32.723038 487.861542
  endloop
 endfacet

 facet normal 0.004529 0.965923 -0.258789
  outer loop
   vertex 169.035522 -32.848858 487.391907
   vertex 168.855438 -32.770405 487.681580
   vertex 169.341354 -32.768333 487.697815
  endloop
 endfacet

 facet normal 0.004523 0.965923 -0.258792
  outer loop
   vertex 168.606613 -32.787743 487.612518
   vertex 168.855438 -32.770405 487.681580
   vertex 169.035522 -32.848858 487.391907
  endloop
 endfacet

 facet normal 0.004525 0.965923 -0.258789
  outer loop
   vertex 169.035522 -32.848858 487.391907
   vertex 168.612518 -32.878330 487.274506
   vertex 168.606613 -32.787743 487.612518
  endloop
 endfacet

 facet normal 0.004514 0.965923 -0.258789
  outer loop
   vertex 168.606613 -32.787743 487.612518
   vertex 168.612518 -32.878330 487.274506
   vertex 168.355515 -32.770405 487.672852
  endloop
 endfacet

 facet normal 0.004517 0.965924 -0.258787
  outer loop
   vertex 168.355515 -32.770405 487.672852
   vertex 168.612518 -32.878330 487.274506
   vertex 168.185654 -32.848854 487.377075
  endloop
 endfacet

 facet normal 0.004514 0.965924 -0.258786
  outer loop
   vertex 168.185654 -32.848854 487.377075
   vertex 168.169449 -32.723038 487.846405
   vertex 168.355515 -32.770405 487.672852
  endloop
 endfacet

 facet normal 0.004500 0.965924 -0.258786
  outer loop
   vertex 167.869339 -32.768333 487.672119
   vertex 168.169449 -32.723038 487.846405
   vertex 168.185654 -32.848854 487.377075
  endloop
 endfacet

 facet normal 0.004489 0.965929 -0.258768
  outer loop
   vertex 168.098251 -32.658333 488.086700
   vertex 168.169449 -32.723038 487.846405
   vertex 167.869339 -32.768333 487.672119
  endloop
 endfacet

 facet normal 0.004513 0.965926 -0.258781
  outer loop
   vertex 167.869339 -32.768333 487.672119
   vertex 167.748306 -32.658333 488.080597
   vertex 168.098251 -32.658333 488.086700
  endloop
 endfacet

 facet normal 0.004513 0.965930 -0.258764
  outer loop
   vertex 168.098251 -32.658333 488.086700
   vertex 167.748306 -32.658333 488.080597
   vertex 168.161026 -32.593632 488.329315
  endloop
 endfacet

 facet normal 0.004524 0.965925 -0.258781
  outer loop
   vertex 168.161026 -32.593632 488.329315
   vertex 167.748306 -32.658333 488.080597
   vertex 167.731445 -32.399517 489.046356
  endloop
 endfacet

 facet normal 0.004510 0.965923 -0.258789
  outer loop
   vertex 167.731445 -32.399517 489.046356
   vertex 168.340927 -32.546265 488.509247
   vertex 168.161026 -32.593632 488.329315
  endloop
 endfacet

 facet normal 0.004520 0.965926 -0.258779
  outer loop
   vertex 168.589752 -32.528927 488.578308
   vertex 168.340927 -32.546265 488.509247
   vertex 167.731445 -32.399517 489.046356
  endloop
 endfacet

 facet normal -0.004514 -0.965923 0.258792
  outer loop
   vertex 192.514404 -33.141300 488.642334
   vertex 192.164459 -33.141300 488.636230
   vertex 192.585602 -33.206005 488.402069
  endloop
 endfacet

 facet normal -0.004528 -0.965929 0.258768
  outer loop
   vertex 192.585602 -33.206005 488.402069
   vertex 192.164459 -33.141300 488.636230
   vertex 192.285492 -33.251297 488.227753
  endloop
 endfacet

 facet normal -0.004529 -0.965928 0.258770
  outer loop
   vertex 192.285492 -33.251297 488.227753
   vertex 192.771667 -33.253372 488.228516
   vertex 192.585602 -33.206005 488.402069
  endloop
 endfacet

 facet normal -0.004529 -0.965929 0.258769
  outer loop
   vertex 192.601807 -33.331821 487.932709
   vertex 192.771667 -33.253372 488.228516
   vertex 192.285492 -33.251297 488.227753
  endloop
 endfacet

 facet normal -0.004520 -0.965930 0.258764
  outer loop
   vertex 193.022766 -33.270710 488.168182
   vertex 192.771667 -33.253372 488.228516
   vertex 192.601807 -33.331821 487.932709
  endloop
 endfacet

 facet normal -0.004516 -0.965932 0.258757
  outer loop
   vertex 192.601807 -33.331821 487.932709
   vertex 193.028656 -33.361294 487.830139
   vertex 193.022766 -33.270710 488.168182
  endloop
 endfacet

 facet normal -0.004513 -0.965932 0.258757
  outer loop
   vertex 193.022766 -33.270710 488.168182
   vertex 193.028656 -33.361294 487.830139
   vertex 193.271591 -33.253372 488.237244
  endloop
 endfacet

 facet normal -0.004516 -0.965931 0.258759
  outer loop
   vertex 193.271591 -33.253372 488.237244
   vertex 193.028656 -33.361294 487.830139
   vertex 193.451675 -33.331821 487.947540
  endloop
 endfacet

 facet normal -0.004492 -0.965928 0.258773
  outer loop
   vertex 193.451675 -33.331821 487.947540
   vertex 193.451492 -33.206005 488.417175
   vertex 193.271591 -33.253372 488.237244
  endloop
 endfacet

 facet normal -0.004512 -0.965928 0.258773
  outer loop
   vertex 193.757507 -33.251297 488.253448
   vertex 193.451492 -33.206005 488.417175
   vertex 193.451675 -33.331821 487.947540
  endloop
 endfacet

 facet normal -0.004509 -0.965927 0.258777
  outer loop
   vertex 193.514252 -33.141300 488.659790
   vertex 193.451492 -33.206005 488.417175
   vertex 193.757507 -33.251297 488.253448
  endloop
 endfacet

 facet normal -0.004513 -0.965927 0.258775
  outer loop
   vertex 193.757507 -33.251297 488.253448
   vertex 193.864197 -33.141300 488.665894
   vertex 193.514252 -33.141300 488.659790
  endloop
 endfacet

 facet normal -0.004514 -0.965923 0.258792
  outer loop
   vertex 193.514252 -33.141300 488.659790
   vertex 193.864197 -33.141300 488.665894
   vertex 193.443069 -33.076595 488.900055
  endloop
 endfacet

 facet normal -0.004522 -0.965926 0.258777
  outer loop
   vertex 193.443069 -33.076595 488.900055
   vertex 193.864197 -33.141300 488.665894
   vertex 193.847351 -32.882481 489.631683
  endloop
 endfacet

 facet normal -0.004522 -0.965926 0.258777
  outer loop
   vertex 193.847351 -32.882481 489.631683
   vertex 193.256989 -33.029228 489.073608
   vertex 193.443069 -33.076595 488.900055
  endloop
 endfacet

 facet normal -0.004518 -0.965928 0.258773
  outer loop
   vertex 193.005905 -33.011890 489.133942
   vertex 193.256989 -33.029228 489.073608
   vertex 193.847351 -32.882481 489.631683
  endloop
 endfacet

 facet normal -0.004516 -0.965926 0.258778
  outer loop
   vertex 167.729187 -32.882481 489.175751
   vertex 168.587494 -33.011887 488.707703
   vertex 169.428940 -32.882481 489.205414
  endloop
 endfacet

 facet normal -0.004516 -0.965926 0.258779
  outer loop
   vertex 169.428940 -32.882481 489.205414
   vertex 168.587494 -33.011887 488.707703
   vertex 168.838593 -33.029224 488.647369
  endloop
 endfacet

 facet normal -0.004519 -0.965926 0.258781
  outer loop
   vertex 168.838593 -33.029224 488.647369
   vertex 169.024658 -33.076591 488.473816
   vertex 169.428940 -32.882481 489.205414
  endloop
 endfacet

 facet normal -0.004510 -0.965923 0.258789
  outer loop
   vertex 192.577164 -33.076595 488.884949
   vertex 192.757065 -33.029228 489.064880
   vertex 192.147598 -32.882481 489.601990
  endloop
 endfacet

 facet normal -0.004519 -0.965926 0.258779
  outer loop
   vertex 192.147598 -32.882481 489.601990
   vertex 192.757065 -33.029228 489.064880
   vertex 193.005905 -33.011890 489.133942
  endloop
 endfacet

 facet normal -0.004521 -0.965926 0.258777
  outer loop
   vertex 193.005905 -33.011890 489.133942
   vertex 193.847351 -32.882481 489.631683
   vertex 192.147598 -32.882481 489.601990
  endloop
 endfacet

 facet normal 0.004516 0.965928 -0.258770
  outer loop
   vertex 193.849609 -32.399517 489.502289
   vertex 193.008163 -32.528927 489.004547
   vertex 192.149857 -32.399517 489.472626
  endloop
 endfacet

 facet normal 0.004495 0.965919 -0.258805
  outer loop
   vertex 192.149857 -32.399517 489.472626
   vertex 193.008163 -32.528927 489.004547
   vertex 192.759323 -32.546265 488.935516
  endloop
 endfacet

 facet normal 0.004531 0.965929 -0.258767
  outer loop
   vertex 192.759323 -32.546265 488.935516
   vertex 192.579422 -32.593632 488.755554
   vertex 192.149857 -32.399517 489.472626
  endloop
 endfacet

 facet normal 0.004522 0.965926 -0.258777
  outer loop
   vertex 169.026917 -32.593632 488.344421
   vertex 168.840851 -32.546265 488.517975
   vertex 169.431198 -32.399517 489.076050
  endloop
 endfacet

 facet normal 0.004518 0.965928 -0.258773
  outer loop
   vertex 169.431198 -32.399517 489.076050
   vertex 168.840851 -32.546265 488.517975
   vertex 168.589752 -32.528927 488.578308
  endloop
 endfacet

 facet normal 0.004521 0.965926 -0.258777
  outer loop
   vertex 168.589752 -32.528927 488.578308
   vertex 167.731445 -32.399517 489.046356
   vertex 169.431198 -32.399517 489.076050
  endloop
 endfacet

 facet normal 0.013877 0.606969 -0.794604
  outer loop
   vertex 191.058563 -32.564297 486.591370
   vertex 191.059677 -32.647701 486.527679
   vertex 189.900024 -32.564297 486.571136
  endloop
 endfacet

 facet normal 0.013877 0.606969 -0.794604
  outer loop
   vertex 189.900024 -32.564297 486.571136
   vertex 191.059677 -32.647701 486.527679
   vertex 189.901138 -32.647701 486.507446
  endloop
 endfacet

 facet normal -0.004518 -0.965925 0.258783
  outer loop
   vertex 171.013763 -33.900578 487.370728
   vertex 171.024109 -34.059372 486.778198
   vertex 190.627777 -33.900578 487.713135
  endloop
 endfacet

 facet normal -0.004518 -0.965925 0.258783
  outer loop
   vertex 190.627777 -33.900578 487.713135
   vertex 171.024109 -34.059372 486.778198
   vertex 190.638123 -34.059372 487.120605
  endloop
 endfacet

 facet normal 0.006708 -0.923020 -0.384693
  outer loop
   vertex 171.775101 -34.130272 486.588348
   vertex 171.773407 -34.170654 486.685211
   vertex 170.616562 -34.130272 486.568146
  endloop
 endfacet

 facet normal 0.006720 -0.922977 -0.384796
  outer loop
   vertex 170.616562 -34.130272 486.568146
   vertex 171.773407 -34.170654 486.685211
   vertex 170.614868 -34.170654 486.664978
  endloop
 endfacet

 facet normal 0.016844 -0.258828 -0.965777
  outer loop
   vertex 193.516510 -32.658337 488.530396
   vertex 193.866455 -32.658337 488.536499
   vertex 193.690353 -32.899818 488.598145
  endloop
 endfacet

 facet normal 0.999848 -0.000001 0.017440
  outer loop
   vertex 191.036865 -33.952827 487.834534
   vertex 191.044373 -32.346470 487.404205
   vertex 191.029724 -33.582943 488.243958
  endloop
 endfacet

 facet normal -0.004513 -0.965926 0.258778
  outer loop
   vertex 192.164459 -33.141300 488.636230
   vertex 192.514404 -33.141300 488.642334
   vertex 192.577164 -33.076595 488.884949
  endloop
 endfacet

 facet normal -0.004513 -0.965923 0.258792
  outer loop
   vertex 169.095840 -33.141296 488.233551
   vertex 169.445801 -33.141296 488.239655
   vertex 169.024658 -33.076591 488.473816
  endloop
 endfacet

 facet normal -0.016844 0.258828 0.965777
  outer loop
   vertex 193.866455 -32.658337 488.536499
   vertex 193.514252 -33.141300 488.659790
   vertex 193.864197 -33.141300 488.665894
  endloop
 endfacet

 facet normal 0.004519 0.965926 -0.258780
  outer loop
   vertex 170.847290 -32.520515 487.460968
   vertex 169.199371 -32.520515 487.432190
   vertex 169.173401 -32.121662 488.920502
  endloop
 endfacet

 facet normal -0.004519 -0.965926 0.258778
  outer loop
   vertex 190.759979 -33.198612 489.585938
   vertex 190.785965 -33.597462 488.097626
   vertex 192.407898 -33.198612 489.614716
  endloop
 endfacet

 facet normal -0.016845 0.258771 0.965792
  outer loop
   vertex 167.746048 -33.141296 488.209961
   vertex 168.098251 -32.658333 488.086700
   vertex 167.748306 -32.658333 488.080597
  endloop
 endfacet

 facet normal -0.999849 0.000010 -0.017394
  outer loop
   vertex 170.623489 -32.647701 486.170929
   vertex 170.622772 -32.801250 486.212067
   vertex 170.621048 -32.789909 486.311188
  endloop
 endfacet

 facet normal -0.016844 0.258828 0.965777
  outer loop
   vertex 192.514404 -33.141300 488.642334
   vertex 192.166718 -32.658337 488.506836
   vertex 192.164459 -33.141300 488.636230
  endloop
 endfacet

 facet normal -0.999848 0.000008 -0.017447
  outer loop
   vertex 170.608200 -32.346470 487.047455
   vertex 170.600677 -33.952824 487.477814
   vertex 170.598785 -32.462055 487.586945
  endloop
 endfacet

 facet normal 0.999847 0.000017 0.017496
  outer loop
   vertex 191.052750 -34.130272 486.924866
   vertex 191.053467 -33.976723 486.883728
   vertex 191.051865 -33.936974 486.975250
  endloop
 endfacet

 facet normal 0.004514 0.965926 -0.258778
  outer loop
   vertex 190.791000 -32.520515 487.809113
   vertex 190.765015 -32.121666 489.297424
   vertex 192.412933 -32.121666 489.326172
  endloop
 endfacet

 facet normal 0.999848 0.000002 0.017457
  outer loop
   vertex 170.821304 -32.121666 488.949280
   vertex 170.816269 -33.198608 489.237793
   vertex 170.842255 -33.597462 487.749481
  endloop
 endfacet

 facet normal -0.016844 0.258828 0.965777
  outer loop
   vertex 169.098114 -32.658333 488.104156
   vertex 169.445801 -33.141296 488.239655
   vertex 169.448059 -32.658333 488.110260
  endloop
 endfacet

 facet normal 0.004513 0.965926 -0.258777
  outer loop
   vertex 169.448059 -32.658333 488.110260
   vertex 169.098114 -32.658333 488.104156
   vertex 169.026917 -32.593632 488.344421
  endloop
 endfacet

 facet normal -0.695083 -0.183019 -0.695244
  outer loop
   vertex 168.840851 -32.546265 488.517975
   vertex 169.024658 -33.076591 488.473816
   vertex 168.838593 -33.029224 488.647369
  endloop
 endfacet

 facet normal -0.242495 -0.250010 -0.937385
  outer loop
   vertex 168.840851 -32.546265 488.517975
   vertex 168.838593 -33.029224 488.647369
   vertex 168.589752 -32.528927 488.578308
  endloop
 endfacet

 facet normal -0.242495 -0.250010 -0.937385
  outer loop
   vertex 168.589752 -32.528927 488.578308
   vertex 168.838593 -33.029224 488.647369
   vertex 168.587494 -33.011887 488.707703
  endloop
 endfacet

 facet normal 0.275082 -0.250009 -0.928346
  outer loop
   vertex 168.587494 -33.011887 488.707703
   vertex 168.340927 -32.546265 488.509247
   vertex 168.589752 -32.528927 488.578308
  endloop
 endfacet

 facet normal 0.275082 -0.250009 -0.928346
  outer loop
   vertex 168.338669 -33.029224 488.638641
   vertex 168.340927 -32.546265 488.509247
   vertex 168.587494 -33.011887 488.707703
  endloop
 endfacet

 facet normal 0.718895 -0.183026 -0.670591
  outer loop
   vertex 168.161026 -32.593632 488.329315
   vertex 168.340927 -32.546265 488.509247
   vertex 168.338669 -33.029224 488.638641
  endloop
 endfacet

 facet normal 0.718895 -0.183026 -0.670591
  outer loop
   vertex 168.338669 -33.029224 488.638641
   vertex 168.158768 -33.076591 488.458710
   vertex 168.161026 -32.593632 488.329315
  endloop
 endfacet

 facet normal 0.970131 -0.067001 -0.233146
  outer loop
   vertex 168.161026 -32.593632 488.329315
   vertex 168.158768 -33.076591 488.458710
   vertex 168.098251 -32.658333 488.086700
  endloop
 endfacet

 facet normal -0.961422 -0.066984 -0.266797
  outer loop
   vertex 193.516510 -32.658337 488.530396
   vertex 193.514252 -33.141300 488.659790
   vertex 193.445328 -32.593632 488.770660
  endloop
 endfacet

 facet normal -0.961422 -0.066984 -0.266797
  outer loop
   vertex 193.445328 -32.593632 488.770660
   vertex 193.514252 -33.141300 488.659790
   vertex 193.443069 -33.076595 488.900055
  endloop
 endfacet

 facet normal -0.695112 -0.183011 -0.695217
  outer loop
   vertex 193.443069 -33.076595 488.900055
   vertex 193.259247 -32.546265 488.944244
   vertex 193.445328 -32.593632 488.770660
  endloop
 endfacet

 facet normal -0.695053 -0.182985 -0.695283
  outer loop
   vertex 193.256989 -33.029228 489.073608
   vertex 193.259247 -32.546265 488.944244
   vertex 193.443069 -33.076595 488.900055
  endloop
 endfacet

 facet normal -0.242401 -0.249960 -0.937423
  outer loop
   vertex 193.008163 -32.528927 489.004547
   vertex 193.259247 -32.546265 488.944244
   vertex 193.256989 -33.029228 489.073608
  endloop
 endfacet

 facet normal -0.242509 -0.250007 -0.937382
  outer loop
   vertex 193.256989 -33.029228 489.073608
   vertex 193.005905 -33.011890 489.133942
   vertex 193.008163 -32.528927 489.004547
  endloop
 endfacet

 facet normal 0.274961 -0.250015 -0.928380
  outer loop
   vertex 193.008163 -32.528927 489.004547
   vertex 193.005905 -33.011890 489.133942
   vertex 192.759323 -32.546265 488.935516
  endloop
 endfacet

 facet normal 0.275067 -0.249953 -0.928365
  outer loop
   vertex 192.759323 -32.546265 488.935516
   vertex 193.005905 -33.011890 489.133942
   vertex 192.757065 -33.029228 489.064880
  endloop
 endfacet

 facet normal 0.718950 -0.182971 -0.670547
  outer loop
   vertex 192.757065 -33.029228 489.064880
   vertex 192.579422 -32.593632 488.755554
   vertex 192.759323 -32.546265 488.935516
  endloop
 endfacet

 facet normal 0.970138 -0.066993 -0.233119
  outer loop
   vertex 169.448059 -32.658333 488.110260
   vertex 169.445801 -33.141296 488.239655
   vertex 169.341354 -32.768333 487.697815
  endloop
 endfacet

 facet normal 0.970138 -0.066993 -0.233119
  outer loop
   vertex 169.341354 -32.768333 487.697815
   vertex 169.445801 -33.141296 488.239655
   vertex 169.339096 -33.251297 487.827209
  endloop
 endfacet

 facet normal 0.718920 -0.183018 -0.670565
  outer loop
   vertex 169.339096 -33.251297 487.827209
   vertex 169.035522 -32.848858 487.391907
   vertex 169.341354 -32.768333 487.697815
  endloop
 endfacet

 facet normal 0.718919 -0.183020 -0.670566
  outer loop
   vertex 169.033264 -33.331818 487.521301
   vertex 169.035522 -32.848858 487.391907
   vertex 169.339096 -33.251297 487.827209
  endloop
 endfacet

 facet normal 0.275074 -0.250009 -0.928348
  outer loop
   vertex 168.612518 -32.878330 487.274506
   vertex 169.035522 -32.848858 487.391907
   vertex 169.033264 -33.331818 487.521301
  endloop
 endfacet

 facet normal 0.275076 -0.250007 -0.928348
  outer loop
   vertex 169.033264 -33.331818 487.521301
   vertex 168.610260 -33.361294 487.403900
   vertex 168.612518 -32.878330 487.274506
  endloop
 endfacet

 facet normal -0.242504 -0.250008 -0.937384
  outer loop
   vertex 168.612518 -32.878330 487.274506
   vertex 168.610260 -33.361294 487.403900
   vertex 168.185654 -32.848854 487.377075
  endloop
 endfacet

 facet normal -0.242504 -0.250008 -0.937384
  outer loop
   vertex 168.185654 -32.848854 487.377075
   vertex 168.610260 -33.361294 487.403900
   vertex 168.183395 -33.331818 487.506470
  endloop
 endfacet

 facet normal -0.695082 -0.183018 -0.695245
  outer loop
   vertex 168.183395 -33.331818 487.506470
   vertex 167.869339 -32.768333 487.672119
   vertex 168.185654 -32.848854 487.377075
  endloop
 endfacet

 facet normal -0.695082 -0.183018 -0.695245
  outer loop
   vertex 167.867081 -33.251297 487.801514
   vertex 167.869339 -32.768333 487.672119
   vertex 168.183395 -33.331818 487.506470
  endloop
 endfacet

 facet normal -0.961413 -0.066992 -0.266828
  outer loop
   vertex 167.748306 -32.658333 488.080597
   vertex 167.869339 -32.768333 487.672119
   vertex 167.867081 -33.251297 487.801514
  endloop
 endfacet

 facet normal -0.961408 -0.066981 -0.266849
  outer loop
   vertex 167.867081 -33.251297 487.801514
   vertex 167.746048 -33.141296 488.209961
   vertex 167.748306 -32.658333 488.080597
  endloop
 endfacet

 facet normal 0.970146 -0.066985 -0.233088
  outer loop
   vertex 193.866455 -32.658337 488.536499
   vertex 193.864197 -33.141300 488.665894
   vertex 193.759766 -32.768333 488.124054
  endloop
 endfacet

 facet normal 0.970146 -0.066985 -0.233088
  outer loop
   vertex 193.759766 -32.768333 488.124054
   vertex 193.864197 -33.141300 488.665894
   vertex 193.757507 -33.251297 488.253448
  endloop
 endfacet

 facet normal 0.718920 -0.183018 -0.670565
  outer loop
   vertex 193.757507 -33.251297 488.253448
   vertex 193.453934 -32.848858 487.818146
   vertex 193.759766 -32.768333 488.124054
  endloop
 endfacet

 facet normal 0.718920 -0.183018 -0.670565
  outer loop
   vertex 193.451675 -33.331821 487.947540
   vertex 193.453934 -32.848858 487.818146
   vertex 193.757507 -33.251297 488.253448
  endloop
 endfacet

 facet normal 0.275065 -0.250008 -0.928351
  outer loop
   vertex 193.030914 -32.878330 487.700745
   vertex 193.453934 -32.848858 487.818146
   vertex 193.451675 -33.331821 487.947540
  endloop
 endfacet

 facet normal 0.275065 -0.250008 -0.928351
  outer loop
   vertex 193.451675 -33.331821 487.947540
   vertex 193.028656 -33.361294 487.830139
   vertex 193.030914 -32.878330 487.700745
  endloop
 endfacet

 facet normal -0.242510 -0.250007 -0.937382
  outer loop
   vertex 193.030914 -32.878330 487.700745
   vertex 193.028656 -33.361294 487.830139
   vertex 192.604065 -32.848858 487.803314
  endloop
 endfacet

 facet normal -0.242510 -0.250007 -0.937382
  outer loop
   vertex 192.604065 -32.848858 487.803314
   vertex 193.028656 -33.361294 487.830139
   vertex 192.601807 -33.331821 487.932709
  endloop
 endfacet

 facet normal -0.695083 -0.183018 -0.695244
  outer loop
   vertex 192.601807 -33.331821 487.932709
   vertex 192.287750 -32.768333 488.098358
   vertex 192.604065 -32.848858 487.803314
  endloop
 endfacet

 facet normal -0.695083 -0.183018 -0.695244
  outer loop
   vertex 192.285492 -33.251297 488.227753
   vertex 192.287750 -32.768333 488.098358
   vertex 192.601807 -33.331821 487.932709
  endloop
 endfacet

 facet normal -0.961413 -0.066993 -0.266828
  outer loop
   vertex 192.166718 -32.658337 488.506836
   vertex 192.287750 -32.768333 488.098358
   vertex 192.285492 -33.251297 488.227753
  endloop
 endfacet

 facet normal -0.961413 -0.066993 -0.266828
  outer loop
   vertex 192.285492 -33.251297 488.227753
   vertex 192.164459 -33.141300 488.636230
   vertex 192.166718 -32.658337 488.506836
  endloop
 endfacet

 facet normal 0.718895 -0.183025 -0.670591
  outer loop
   vertex 192.757065 -33.029228 489.064880
   vertex 192.577164 -33.076595 488.884949
   vertex 192.579422 -32.593632 488.755554
  endloop
 endfacet

 facet normal 0.970145 -0.066986 -0.233091
  outer loop
   vertex 192.579422 -32.593632 488.755554
   vertex 192.577164 -33.076595 488.884949
   vertex 192.514404 -33.141300 488.642334
  endloop
 endfacet

 facet normal 0.970145 -0.066986 -0.233091
  outer loop
   vertex 192.514404 -33.141300 488.642334
   vertex 192.516663 -32.658337 488.512939
   vertex 192.579422 -32.593632 488.755554
  endloop
 endfacet

 facet normal 0.961406 0.066998 0.266850
  outer loop
   vertex 192.585602 -33.206005 488.402069
   vertex 192.516663 -32.658337 488.512939
   vertex 192.514404 -33.141300 488.642334
  endloop
 endfacet

 facet normal 0.961406 0.066998 0.266850
  outer loop
   vertex 192.587860 -32.723042 488.272675
   vertex 192.516663 -32.658337 488.512939
   vertex 192.585602 -33.206005 488.402069
  endloop
 endfacet

 facet normal 0.695083 0.183018 0.695244
  outer loop
   vertex 192.585602 -33.206005 488.402069
   vertex 192.771667 -33.253372 488.228516
   vertex 192.587860 -32.723042 488.272675
  endloop
 endfacet

 facet normal 0.695083 0.183018 0.695244
  outer loop
   vertex 192.587860 -32.723042 488.272675
   vertex 192.771667 -33.253372 488.228516
   vertex 192.773926 -32.770409 488.099121
  endloop
 endfacet

 facet normal 0.242495 0.250008 0.937386
  outer loop
   vertex 192.773926 -32.770409 488.099121
   vertex 192.771667 -33.253372 488.228516
   vertex 193.022766 -33.270710 488.168182
  endloop
 endfacet

 facet normal 0.242495 0.250008 0.937386
  outer loop
   vertex 193.022766 -33.270710 488.168182
   vertex 193.025024 -32.787746 488.038788
   vertex 192.773926 -32.770409 488.099121
  endloop
 endfacet

 facet normal -0.275082 0.250007 0.928346
  outer loop
   vertex 193.271591 -33.253372 488.237244
   vertex 193.025024 -32.787746 488.038788
   vertex 193.022766 -33.270710 488.168182
  endloop
 endfacet

 facet normal -0.275082 0.250007 0.928346
  outer loop
   vertex 193.273849 -32.770409 488.107849
   vertex 193.025024 -32.787746 488.038788
   vertex 193.271591 -33.253372 488.237244
  endloop
 endfacet

 facet normal -0.718895 0.183025 0.670591
  outer loop
   vertex 193.271591 -33.253372 488.237244
   vertex 193.451492 -33.206005 488.417175
   vertex 193.273849 -32.770409 488.107849
  endloop
 endfacet

 facet normal -0.718895 0.183025 0.670591
  outer loop
   vertex 193.273849 -32.770409 488.107849
   vertex 193.451492 -33.206005 488.417175
   vertex 193.453751 -32.723042 488.287781
  endloop
 endfacet

 facet normal -0.970145 0.066986 0.233091
  outer loop
   vertex 193.453751 -32.723042 488.287781
   vertex 193.451492 -33.206005 488.417175
   vertex 193.514252 -33.141300 488.659790
  endloop
 endfacet

 facet normal -0.970145 0.066986 0.233091
  outer loop
   vertex 193.514252 -33.141300 488.659790
   vertex 193.516510 -32.658337 488.530396
   vertex 193.453751 -32.723042 488.287781
  endloop
 endfacet

 facet normal -0.695083 -0.183019 -0.695244
  outer loop
   vertex 168.840851 -32.546265 488.517975
   vertex 169.026917 -32.593632 488.344421
   vertex 169.024658 -33.076591 488.473816
  endloop
 endfacet

 facet normal -0.961406 -0.066999 -0.266851
  outer loop
   vertex 169.024658 -33.076591 488.473816
   vertex 169.026917 -32.593632 488.344421
   vertex 169.098114 -32.658333 488.104156
  endloop
 endfacet

 facet normal -0.961422 -0.066956 -0.266805
  outer loop
   vertex 169.098114 -32.658333 488.104156
   vertex 169.095840 -33.141296 488.233551
   vertex 169.024658 -33.076591 488.473816
  endloop
 endfacet

 facet normal -0.970131 0.067029 0.233137
  outer loop
   vertex 169.035339 -32.723038 487.861542
   vertex 169.095840 -33.141296 488.233551
   vertex 169.098114 -32.658333 488.104156
  endloop
 endfacet

 facet normal -0.970145 0.066986 0.233091
  outer loop
   vertex 169.033081 -33.206001 487.990936
   vertex 169.095840 -33.141296 488.233551
   vertex 169.035339 -32.723038 487.861542
  endloop
 endfacet

 facet normal -0.718949 0.183010 0.670536
  outer loop
   vertex 169.035339 -32.723038 487.861542
   vertex 168.855438 -32.770405 487.681580
   vertex 169.033081 -33.206001 487.990936
  endloop
 endfacet

 facet normal -0.718949 0.183010 0.670536
  outer loop
   vertex 169.033081 -33.206001 487.990936
   vertex 168.855438 -32.770405 487.681580
   vertex 168.853180 -33.253368 487.810974
  endloop
 endfacet

 facet normal -0.275082 0.250007 0.928346
  outer loop
   vertex 168.853180 -33.253368 487.810974
   vertex 168.855438 -32.770405 487.681580
   vertex 168.606613 -32.787743 487.612518
  endloop
 endfacet

 facet normal -0.275082 0.250007 0.928346
  outer loop
   vertex 168.606613 -32.787743 487.612518
   vertex 168.604355 -33.270706 487.741913
   vertex 168.853180 -33.253368 487.810974
  endloop
 endfacet

 facet normal 0.242495 0.250008 0.937386
  outer loop
   vertex 168.355515 -32.770405 487.672852
   vertex 168.604355 -33.270706 487.741913
   vertex 168.606613 -32.787743 487.612518
  endloop
 endfacet

 facet normal 0.242495 0.250008 0.937386
  outer loop
   vertex 168.353256 -33.253368 487.802246
   vertex 168.604355 -33.270706 487.741913
   vertex 168.355515 -32.770405 487.672852
  endloop
 endfacet

 facet normal 0.695083 0.183018 0.695244
  outer loop
   vertex 168.355515 -32.770405 487.672852
   vertex 168.169449 -32.723038 487.846405
   vertex 168.353256 -33.253368 487.802246
  endloop
 endfacet

 facet normal 0.695083 0.183018 0.695244
  outer loop
   vertex 168.353256 -33.253368 487.802246
   vertex 168.169449 -32.723038 487.846405
   vertex 168.167191 -33.206001 487.975800
  endloop
 endfacet

 facet normal 0.961415 0.066990 0.266821
  outer loop
   vertex 168.167191 -33.206001 487.975800
   vertex 168.169449 -32.723038 487.846405
   vertex 168.098251 -32.658333 488.086700
  endloop
 endfacet

 facet normal 0.961415 0.066990 0.266821
  outer loop
   vertex 168.098251 -32.658333 488.086700
   vertex 168.095993 -33.141296 488.216095
   vertex 168.167191 -33.206001 487.975800
  endloop
 endfacet

 facet normal 0.970131 -0.067000 -0.233145
  outer loop
   vertex 168.158768 -33.076591 488.458710
   vertex 168.095993 -33.141296 488.216095
   vertex 168.098251 -32.658333 488.086700
  endloop
 endfacet

endsolid