solid stl file generated from DOUG
 facet normal -0.868145 -0.482979 0.114259
  outer loop
   vertex 152.234634 13.196327 659.933289
   vertex 152.243088 13.066615 659.449219
   vertex 152.358932 12.986708 659.991638
  endloop
 endfacet

 facet normal -0.868172 -0.482928 0.114272
  outer loop
   vertex 152.358932 12.986708 659.991638
   vertex 152.243088 13.066615 659.449219
   vertex 152.367371 12.856996 659.507568
  endloop
 endfacet

 facet normal -0.004475 -0.965933 0.258755
  outer loop
   vertex 152.367371 12.856996 659.507568
   vertex 152.609482 12.986708 659.995972
   vertex 152.358932 12.986708 659.991638
  endloop
 endfacet

 facet normal -0.004539 -0.965925 0.258784
  outer loop
   vertex 152.617920 12.856996 659.511963
   vertex 152.609482 12.986708 659.995972
   vertex 152.367371 12.856996 659.507568
  endloop
 endfacet

 facet normal 0.863636 -0.482966 0.144489
  outer loop
   vertex 152.735733 13.196327 659.942017
   vertex 152.609482 12.986708 659.995972
   vertex 152.617920 12.856996 659.511963
  endloop
 endfacet

 facet normal 0.863609 -0.483003 0.144526
  outer loop
   vertex 152.617920 12.856996 659.511963
   vertex 152.744186 13.066615 659.458008
   vertex 152.735733 13.196327 659.942017
  endloop
 endfacet

 facet normal 0.868146 0.482974 -0.114272
  outer loop
   vertex 152.735733 13.196327 659.942017
   vertex 152.744186 13.066615 659.458008
   vertex 152.611435 13.405948 659.883667
  endloop
 endfacet

 facet normal 0.868145 0.482975 -0.114274
  outer loop
   vertex 152.611435 13.405948 659.883667
   vertex 152.744186 13.066615 659.458008
   vertex 152.619888 13.276235 659.399658
  endloop
 endfacet

 facet normal 0.004539 0.965924 -0.258786
  outer loop
   vertex 152.619888 13.276235 659.399658
   vertex 152.360886 13.405948 659.879272
   vertex 152.611435 13.405948 659.883667
  endloop
 endfacet

 facet normal 0.004539 0.965924 -0.258786
  outer loop
   vertex 152.369339 13.276235 659.395264
   vertex 152.360886 13.405948 659.879272
   vertex 152.619888 13.276235 659.399658
  endloop
 endfacet

 facet normal -0.863654 0.482928 -0.144507
  outer loop
   vertex 152.234634 13.196327 659.933289
   vertex 152.360886 13.405948 659.879272
   vertex 152.369339 13.276235 659.395264
  endloop
 endfacet

 facet normal -0.863636 0.482964 -0.144498
  outer loop
   vertex 152.369339 13.276235 659.395264
   vertex 152.243088 13.066615 659.449219
   vertex 152.234634 13.196327 659.933289
  endloop
 endfacet

 facet normal 0.863627 -0.482978 0.144502
  outer loop
   vertex 130.652252 13.066616 659.072327
   vertex 130.643799 13.196329 659.556396
   vertex 130.525986 12.856997 659.126343
  endloop
 endfacet

 facet normal 0.863636 -0.482966 0.144490
  outer loop
   vertex 130.525986 12.856997 659.126343
   vertex 130.643799 13.196329 659.556396
   vertex 130.517548 12.986710 659.610352
  endloop
 endfacet

 facet normal -0.004539 -0.965924 0.258786
  outer loop
   vertex 130.517548 12.986710 659.610352
   vertex 130.275452 12.856997 659.121948
   vertex 130.525986 12.856997 659.126343
  endloop
 endfacet

 facet normal -0.004539 -0.965924 0.258786
  outer loop
   vertex 130.266998 12.986710 659.605957
   vertex 130.275452 12.856997 659.121948
   vertex 130.517548 12.986710 659.610352
  endloop
 endfacet

 facet normal -0.868145 -0.482975 0.114274
  outer loop
   vertex 130.151154 13.066616 659.063599
   vertex 130.275452 12.856997 659.121948
   vertex 130.266998 12.986710 659.605957
  endloop
 endfacet

 facet normal -0.868145 -0.482975 0.114274
  outer loop
   vertex 130.266998 12.986710 659.605957
   vertex 130.142700 13.196329 659.547607
   vertex 130.151154 13.066616 659.063599
  endloop
 endfacet

 facet normal -0.863635 0.482959 -0.144515
  outer loop
   vertex 130.151154 13.066616 659.063599
   vertex 130.142700 13.196329 659.547607
   vertex 130.277405 13.276236 659.009644
  endloop
 endfacet

 facet normal -0.863635 0.482959 -0.144515
  outer loop
   vertex 130.277405 13.276236 659.009644
   vertex 130.142700 13.196329 659.547607
   vertex 130.268951 13.405949 659.493652
  endloop
 endfacet

 facet normal 0.004476 0.965924 -0.258787
  outer loop
   vertex 130.268951 13.405949 659.493652
   vertex 130.527954 13.276236 659.013977
   vertex 130.277405 13.276236 659.009644
  endloop
 endfacet

 facet normal 0.004538 0.965932 -0.258755
  outer loop
   vertex 130.519501 13.405949 659.498047
   vertex 130.527954 13.276236 659.013977
   vertex 130.268951 13.405949 659.493652
  endloop
 endfacet

 facet normal 0.868145 0.482979 -0.114260
  outer loop
   vertex 130.652252 13.066616 659.072327
   vertex 130.527954 13.276236 659.013977
   vertex 130.519501 13.405949 659.498047
  endloop
 endfacet

 facet normal 0.868145 0.482979 -0.114260
  outer loop
   vertex 130.519501 13.405949 659.498047
   vertex 130.643799 13.196329 659.556396
   vertex 130.652252 13.066616 659.072327
  endloop
 endfacet

 facet normal -0.016939 0.258791 0.965785
  outer loop
   vertex 130.266998 12.986710 659.605957
   vertex 130.517548 12.986710 659.610352
   vertex 130.393250 13.196329 659.552002
  endloop
 endfacet

 facet normal -0.016939 0.258791 0.965785
  outer loop
   vertex 130.393250 13.196329 659.552002
   vertex 130.517548 12.986710 659.610352
   vertex 130.643799 13.196329 659.556396
  endloop
 endfacet

 facet normal -0.016939 0.258791 0.965785
  outer loop
   vertex 130.643799 13.196329 659.556396
   vertex 130.519501 13.405949 659.498047
   vertex 130.393250 13.196329 659.552002
  endloop
 endfacet

 facet normal -0.016704 0.258921 0.965754
  outer loop
   vertex 152.360886 13.405948 659.879272
   vertex 152.234634 13.196327 659.933289
   vertex 152.485184 13.196327 659.937622
  endloop
 endfacet

 facet normal -0.016704 0.258922 0.965754
  outer loop
   vertex 152.485184 13.196327 659.937622
   vertex 152.234634 13.196327 659.933289
   vertex 152.358932 12.986708 659.991638
  endloop
 endfacet

 facet normal -0.016704 0.258922 0.965754
  outer loop
   vertex 152.358932 12.986708 659.991638
   vertex 152.609482 12.986708 659.995972
   vertex 152.485184 13.196327 659.937622
  endloop
 endfacet

 facet normal -0.016939 0.258791 0.965785
  outer loop
   vertex 152.609482 12.986708 659.995972
   vertex 152.735733 13.196327 659.942017
   vertex 152.485184 13.196327 659.937622
  endloop
 endfacet

 facet normal -0.016939 0.258790 0.965785
  outer loop
   vertex 152.485184 13.196327 659.937622
   vertex 152.735733 13.196327 659.942017
   vertex 152.611435 13.405948 659.883667
  endloop
 endfacet

 facet normal -0.016939 0.258790 0.965785
  outer loop
   vertex 152.611435 13.405948 659.883667
   vertex 152.360886 13.405948 659.879272
   vertex 152.485184 13.196327 659.937622
  endloop
 endfacet

 facet normal -0.016939 0.258791 0.965785
  outer loop
   vertex 130.519501 13.405949 659.498047
   vertex 130.268951 13.405949 659.493652
   vertex 130.393250 13.196329 659.552002
  endloop
 endfacet

 facet normal -0.016939 0.258791 0.965785
  outer loop
   vertex 130.393250 13.196329 659.552002
   vertex 130.268951 13.405949 659.493652
   vertex 130.142700 13.196329 659.547607
  endloop
 endfacet

 facet normal -0.016939 0.258791 0.965785
  outer loop
   vertex 130.142700 13.196329 659.547607
   vertex 130.266998 12.986710 659.605957
   vertex 130.393250 13.196329 659.552002
  endloop
 endfacet

 facet normal -0.016870 0.258835 0.965774
  outer loop
   vertex 151.065933 13.273490 657.785278
   vertex 151.060287 12.065890 658.108826
   vertex 154.056885 13.273489 657.837524
  endloop
 endfacet

 facet normal -0.016870 0.258835 0.965774
  outer loop
   vertex 154.056885 13.273489 657.837524
   vertex 151.060287 12.065890 658.108826
   vertex 154.051224 12.065890 658.161072
  endloop
 endfacet

 facet normal 0.999848 -0.000011 0.017454
  outer loop
   vertex 154.051224 12.065890 658.161072
   vertex 154.080292 12.914099 656.496460
   vertex 154.056885 13.273489 657.837524
  endloop
 endfacet

 facet normal 0.999848 0.000004 0.017462
  outer loop
   vertex 154.074646 11.706500 656.820007
   vertex 154.080292 12.914099 656.496460
   vertex 154.051224 12.065890 658.161072
  endloop
 endfacet

 facet normal 0.016870 -0.258835 -0.965774
  outer loop
   vertex 151.083694 11.706500 656.767761
   vertex 154.080292 12.914099 656.496460
   vertex 154.074646 11.706500 656.820007
  endloop
 endfacet

 facet normal -0.004520 -0.965926 0.258778
  outer loop
   vertex 154.074646 11.706500 656.820007
   vertex 151.060287 12.065890 658.108826
   vertex 151.083694 11.706500 656.767761
  endloop
 endfacet

 facet normal -0.999848 -0.000001 -0.017451
  outer loop
   vertex 151.083694 11.706500 656.767761
   vertex 151.060287 12.065890 658.108826
   vertex 151.089340 12.914100 656.444214
  endloop
 endfacet

 facet normal -0.999848 -0.000001 -0.017451
  outer loop
   vertex 151.089340 12.914100 656.444214
   vertex 151.060287 12.065890 658.108826
   vertex 151.065933 13.273490 657.785278
  endloop
 endfacet

 facet normal 0.004521 0.965926 -0.258778
  outer loop
   vertex 151.065933 13.273490 657.785278
   vertex 154.080292 12.914099 656.496460
   vertex 151.089340 12.914100 656.444214
  endloop
 endfacet

 facet normal 0.004521 0.965926 -0.258778
  outer loop
   vertex 154.056885 13.273489 657.837524
   vertex 154.080292 12.914099 656.496460
   vertex 151.065933 13.273490 657.785278
  endloop
 endfacet

 facet normal -0.999848 -0.000000 -0.017451
  outer loop
   vertex 128.919220 12.914101 656.057251
   vertex 128.913574 11.706501 656.380737
   vertex 128.895813 13.273491 657.398315
  endloop
 endfacet

 facet normal -0.999848 -0.000000 -0.017451
  outer loop
   vertex 128.895813 13.273491 657.398315
   vertex 128.913574 11.706501 656.380737
   vertex 128.890167 12.065891 657.721802
  endloop
 endfacet

 facet normal -0.016851 0.258789 0.965787
  outer loop
   vertex 128.890167 12.065891 657.721802
   vertex 131.886749 13.273491 657.450500
   vertex 128.895813 13.273491 657.398315
  endloop
 endfacet

 facet normal -0.016870 0.258835 0.965774
  outer loop
   vertex 131.881104 12.065891 657.774048
   vertex 131.886749 13.273491 657.450500
   vertex 128.890167 12.065891 657.721802
  endloop
 endfacet

 facet normal 0.999848 0.000001 0.017451
  outer loop
   vertex 131.904510 11.706501 656.432983
   vertex 131.886749 13.273491 657.450500
   vertex 131.881104 12.065891 657.774048
  endloop
 endfacet

 facet normal -0.004520 -0.965926 0.258778
  outer loop
   vertex 131.881104 12.065891 657.774048
   vertex 128.913574 11.706501 656.380737
   vertex 131.904510 11.706501 656.432983
  endloop
 endfacet

 facet normal 0.016870 -0.258835 -0.965774
  outer loop
   vertex 131.904510 11.706501 656.432983
   vertex 128.913574 11.706501 656.380737
   vertex 131.910172 12.914101 656.109436
  endloop
 endfacet

 facet normal 0.016851 -0.258789 -0.965787
  outer loop
   vertex 131.910172 12.914101 656.109436
   vertex 128.913574 11.706501 656.380737
   vertex 128.919220 12.914101 656.057251
  endloop
 endfacet

 facet normal 0.004515 0.965926 -0.258779
  outer loop
   vertex 128.919220 12.914101 656.057251
   vertex 131.886749 13.273491 657.450500
   vertex 131.910172 12.914101 656.109436
  endloop
 endfacet

 facet normal 0.004515 0.965926 -0.258779
  outer loop
   vertex 128.895813 13.273491 657.398315
   vertex 131.886749 13.273491 657.450500
   vertex 128.919220 12.914101 656.057251
  endloop
 endfacet

 facet normal -0.004520 -0.965926 0.258778
  outer loop
   vertex 131.881104 12.065891 657.774048
   vertex 128.890167 12.065891 657.721802
   vertex 128.913574 11.706501 656.380737
  endloop
 endfacet

 facet normal -0.004520 -0.965926 0.258778
  outer loop
   vertex 154.051224 12.065890 658.161072
   vertex 151.060287 12.065890 658.108826
   vertex 154.074646 11.706500 656.820007
  endloop
 endfacet

 facet normal 0.999847 -0.000008 0.017465
  outer loop
   vertex 131.904510 11.706501 656.432983
   vertex 131.910172 12.914101 656.109436
   vertex 131.886749 13.273491 657.450500
  endloop
 endfacet

 facet normal 0.016870 -0.258835 -0.965774
  outer loop
   vertex 151.083694 11.706500 656.767761
   vertex 151.089340 12.914100 656.444214
   vertex 154.080292 12.914099 656.496460
  endloop
 endfacet

 facet normal -0.016859 0.258957 0.965742
  outer loop
   vertex 151.237381 14.144822 660.422791
   vertex 131.622864 14.038946 660.108765
   vertex 151.236877 14.038945 660.451172
  endloop
 endfacet

 facet normal -0.013646 -0.623549 0.781665
  outer loop
   vertex 151.236877 14.038945 660.451172
   vertex 131.622864 14.038946 660.108765
   vertex 151.238464 13.925366 660.360596
  endloop
 endfacet

 facet normal -0.013859 -0.606790 0.794742
  outer loop
   vertex 132.362808 12.660606 660.552307
   vertex 131.205383 12.577203 660.468445
   vertex 132.363922 12.577203 660.488647
  endloop
 endfacet

 facet normal -0.004512 -0.965929 0.258766
  outer loop
   vertex 132.363922 12.577203 660.488647
   vertex 131.205383 12.577203 660.468445
   vertex 131.219574 12.359375 659.655579
  endloop
 endfacet

 facet normal 0.004513 0.965924 -0.258785
  outer loop
   vertex 151.663269 13.965730 659.581970
   vertex 150.490540 14.183558 660.374573
   vertex 151.649078 14.183558 660.394775
  endloop
 endfacet

 facet normal -0.006708 0.923024 0.384685
  outer loop
   vertex 151.649078 14.183558 660.394775
   vertex 150.490540 14.183558 660.374573
   vertex 150.488846 14.143177 660.471436
  endloop
 endfacet

 facet normal -0.006377 0.930863 0.365313
  outer loop
   vertex 131.619125 12.787284 660.323120
   vertex 131.616760 12.734212 660.458313
   vertex 151.230774 12.734211 660.800720
  endloop
 endfacet

 facet normal -0.016859 0.258957 0.965742
  outer loop
   vertex 151.230774 12.734211 660.800720
   vertex 131.616760 12.734212 660.458313
   vertex 151.230286 12.628335 660.829102
  endloop
 endfacet

 facet normal -0.014114 0.588141 0.808635
  outer loop
   vertex 131.636169 13.913484 659.346680
   vertex 151.250183 13.913483 659.689026
   vertex 131.636536 13.942528 659.325562
  endloop
 endfacet

 facet normal -0.014114 0.588154 0.808626
  outer loop
   vertex 131.636536 13.942528 659.325562
   vertex 151.250183 13.913483 659.689026
   vertex 151.250549 13.942526 659.667908
  endloop
 endfacet

 facet normal 0.004515 0.965960 -0.258651
  outer loop
   vertex 151.250549 13.942526 659.667908
   vertex 131.637726 13.924251 659.257324
   vertex 131.636536 13.942528 659.325562
  endloop
 endfacet

 facet normal -0.999847 -0.000019 -0.017502
  outer loop
   vertex 131.212891 14.183559 660.038086
   vertex 131.212082 13.949881 660.084534
   vertex 131.211197 14.143177 660.134888
  endloop
 endfacet

 facet normal -0.999847 -0.000019 -0.017501
  outer loop
   vertex 131.211197 14.143177 660.134888
   vertex 131.212082 13.949881 660.084534
   vertex 131.210480 13.989629 660.176025
  endloop
 endfacet

 facet normal -0.016892 0.258824 0.965777
  outer loop
   vertex 131.210480 13.989629 660.176025
   vertex 132.369736 14.143177 660.155151
   vertex 131.211197 14.143177 660.134888
  endloop
 endfacet

 facet normal 0.999850 -0.000071 0.017332
  outer loop
   vertex 151.641556 12.577202 660.825134
   vertex 151.642899 12.802815 660.748596
   vertex 151.640457 12.660605 660.888855
  endloop
 endfacet

 facet normal 0.999849 -0.000010 0.017394
  outer loop
   vertex 151.640457 12.660605 660.888855
   vertex 151.642899 12.802815 660.748596
   vertex 151.641174 12.814154 660.847717
  endloop
 endfacet

 facet normal -0.016892 0.258824 0.965777
  outer loop
   vertex 151.641174 12.814154 660.847717
   vertex 150.481918 12.660605 660.868591
   vertex 151.640457 12.660605 660.888855
  endloop
 endfacet

 facet normal 0.999849 -0.000010 0.017394
  outer loop
   vertex 132.363525 12.814155 660.511169
   vertex 132.362808 12.660606 660.552307
   vertex 132.365250 12.802817 660.412048
  endloop
 endfacet

 facet normal 0.999848 0.000039 0.017444
  outer loop
   vertex 132.365250 12.802817 660.412048
   vertex 132.362808 12.660606 660.552307
   vertex 132.363922 12.577203 660.488647
  endloop
 endfacet

 facet normal 0.999848 0.000040 0.017446
  outer loop
   vertex 132.363922 12.577203 660.488647
   vertex 132.378113 12.359375 659.675842
   vertex 132.365250 12.802817 660.412048
  endloop
 endfacet

 facet normal -0.004526 -0.965925 0.258784
  outer loop
   vertex 131.219574 12.359375 659.655579
   vertex 132.378113 12.359375 659.675842
   vertex 132.363922 12.577203 660.488647
  endloop
 endfacet

 facet normal -0.006374 0.930919 0.365170
  outer loop
   vertex 151.230774 12.734211 660.800720
   vertex 151.233139 12.787283 660.665466
   vertex 131.619125 12.787284 660.323120
  endloop
 endfacet

 facet normal -0.016857 0.258794 0.965785
  outer loop
   vertex 131.619125 12.787284 660.323120
   vertex 151.233139 12.787283 660.665466
   vertex 151.238464 13.925366 660.360596
  endloop
 endfacet

 facet normal -0.016860 0.258842 0.965772
  outer loop
   vertex 151.238464 13.925366 660.360596
   vertex 131.624451 13.925367 660.018188
   vertex 131.619125 12.787284 660.323120
  endloop
 endfacet

 facet normal -0.013646 -0.623549 0.781665
  outer loop
   vertex 131.622864 14.038946 660.108765
   vertex 131.624451 13.925367 660.018188
   vertex 151.238464 13.925366 660.360596
  endloop
 endfacet

 facet normal 0.004513 0.965924 -0.258785
  outer loop
   vertex 151.663269 13.965730 659.581970
   vertex 150.504730 13.965730 659.561768
   vertex 150.490540 14.183558 660.374573
  endloop
 endfacet

 facet normal -0.999848 -0.000013 -0.017453
  outer loop
   vertex 150.490540 14.183558 660.374573
   vertex 150.504730 13.965730 659.561768
   vertex 150.489731 13.949879 660.421082
  endloop
 endfacet

 facet normal -0.999847 -0.000021 -0.017492
  outer loop
   vertex 150.489731 13.949879 660.421082
   vertex 150.488846 14.143177 660.471436
   vertex 150.490540 14.183558 660.374573
  endloop
 endfacet

 facet normal -0.999847 -0.000019 -0.017501
  outer loop
   vertex 150.488129 13.989628 660.512573
   vertex 150.488846 14.143177 660.471436
   vertex 150.489731 13.949879 660.421082
  endloop
 endfacet

 facet normal 0.017354 0.105387 -0.994280
  outer loop
   vertex 151.239838 14.072275 660.281555
   vertex 131.625824 14.072276 659.939209
   vertex 151.239777 14.107987 660.285339
  endloop
 endfacet

 facet normal 0.017361 0.103706 -0.994456
  outer loop
   vertex 151.239777 14.107987 660.285339
   vertex 131.625824 14.072276 659.939209
   vertex 131.625763 14.107988 659.942932
  endloop
 endfacet

 facet normal 0.004518 0.965927 -0.258774
  outer loop
   vertex 131.625763 14.107988 659.942932
   vertex 151.237381 14.144822 660.422791
   vertex 151.239777 14.107987 660.285339
  endloop
 endfacet

 facet normal 0.004518 0.965927 -0.258774
  outer loop
   vertex 131.623367 14.144823 660.080383
   vertex 151.237381 14.144822 660.422791
   vertex 131.625763 14.107988 659.942932
  endloop
 endfacet

 facet normal -0.016859 0.258957 0.965742
  outer loop
   vertex 131.622864 14.038946 660.108765
   vertex 151.237381 14.144822 660.422791
   vertex 131.623367 14.144823 660.080383
  endloop
 endfacet

 facet normal -0.016848 0.258811 0.965781
  outer loop
   vertex 153.069611 13.610366 659.339050
   vertex 151.416656 12.533421 659.598816
   vertex 153.064575 12.533421 659.627563
  endloop
 endfacet

 facet normal -0.004514 -0.965925 0.258784
  outer loop
   vertex 153.064575 12.533421 659.627563
   vertex 151.416656 12.533421 659.598816
   vertex 153.090546 12.134569 658.139282
  endloop
 endfacet

 facet normal 0.999848 -0.000001 0.017448
  outer loop
   vertex 153.090546 12.134569 658.139282
   vertex 153.095581 13.211514 657.850769
   vertex 153.064575 12.533421 659.627563
  endloop
 endfacet

 facet normal 0.016848 -0.258811 -0.965781
  outer loop
   vertex 151.442642 12.134569 658.110535
   vertex 153.095581 13.211514 657.850769
   vertex 153.090546 12.134569 658.139282
  endloop
 endfacet

 facet normal 0.016884 -0.258862 -0.965767
  outer loop
   vertex 151.447678 13.211514 657.821960
   vertex 153.095581 13.211514 657.850769
   vertex 151.442642 12.134569 658.110535
  endloop
 endfacet

 facet normal -0.999848 -0.000003 -0.017457
  outer loop
   vertex 151.442642 12.134569 658.110535
   vertex 151.416656 12.533421 659.598816
   vertex 151.447678 13.211514 657.821960
  endloop
 endfacet

 facet normal -0.999848 -0.000002 -0.017456
  outer loop
   vertex 151.447678 13.211514 657.821960
   vertex 151.416656 12.533421 659.598816
   vertex 151.421692 13.610366 659.310303
  endloop
 endfacet

 facet normal -0.016848 0.258811 0.965781
  outer loop
   vertex 151.421692 13.610366 659.310303
   vertex 151.416656 12.533421 659.598816
   vertex 153.069611 13.610366 659.339050
  endloop
 endfacet

 facet normal 0.004514 0.965925 -0.258784
  outer loop
   vertex 153.069611 13.610366 659.339050
   vertex 153.095581 13.211514 657.850769
   vertex 151.421692 13.610366 659.310303
  endloop
 endfacet

 facet normal 0.999848 -0.000001 0.017448
  outer loop
   vertex 153.064575 12.533421 659.627563
   vertex 153.095581 13.211514 657.850769
   vertex 153.069611 13.610366 659.339050
  endloop
 endfacet

 facet normal 0.004514 0.965928 -0.258773
  outer loop
   vertex 129.830078 13.610367 658.933411
   vertex 131.477982 13.610367 658.962158
   vertex 129.856049 13.211516 657.445068
  endloop
 endfacet

 facet normal 0.004524 0.965925 -0.258783
  outer loop
   vertex 129.856049 13.211516 657.445068
   vertex 131.477982 13.610367 658.962158
   vertex 131.503967 13.211516 657.473877
  endloop
 endfacet

 facet normal 0.016884 -0.258811 -0.965780
  outer loop
   vertex 131.503967 13.211516 657.473877
   vertex 129.851013 12.134570 657.733582
   vertex 129.856049 13.211516 657.445068
  endloop
 endfacet

 facet normal 0.016884 -0.258811 -0.965780
  outer loop
   vertex 131.498932 12.134570 657.762390
   vertex 129.851013 12.134570 657.733582
   vertex 131.503967 13.211516 657.473877
  endloop
 endfacet

 facet normal -0.004524 -0.965925 0.258784
  outer loop
   vertex 131.472946 12.533422 659.250671
   vertex 129.851013 12.134570 657.733582
   vertex 131.498932 12.134570 657.762390
  endloop
 endfacet

 facet normal 0.999848 0.000002 0.017457
  outer loop
   vertex 131.498932 12.134570 657.762390
   vertex 131.477982 13.610367 658.962158
   vertex 131.472946 12.533422 659.250671
  endloop
 endfacet

 facet normal -0.016848 0.258811 0.965781
  outer loop
   vertex 131.472946 12.533422 659.250671
   vertex 131.477982 13.610367 658.962158
   vertex 129.825043 12.533422 659.221924
  endloop
 endfacet

 facet normal -0.016848 0.258811 0.965781
  outer loop
   vertex 129.825043 12.533422 659.221924
   vertex 131.477982 13.610367 658.962158
   vertex 129.830078 13.610367 658.933411
  endloop
 endfacet

 facet normal -0.999848 0.000001 -0.017447
  outer loop
   vertex 129.830078 13.610367 658.933411
   vertex 129.851013 12.134570 657.733582
   vertex 129.825043 12.533422 659.221924
  endloop
 endfacet

 facet normal -0.999848 0.000001 -0.017447
  outer loop
   vertex 129.856049 13.211516 657.445068
   vertex 129.851013 12.134570 657.733582
   vertex 129.830078 13.610367 658.933411
  endloop
 endfacet

 facet normal 0.016844 -0.258828 -0.965777
  outer loop
   vertex 154.515640 12.671240 658.979187
   vertex 154.165695 12.671240 658.973083
   vertex 154.167953 13.154202 658.843689
  endloop
 endfacet

 facet normal -0.016845 0.258828 0.965777
  outer loop
   vertex 154.167953 13.154202 658.843689
   vertex 154.165695 12.671240 658.973083
   vertex 154.341797 12.912722 658.911438
  endloop
 endfacet

 facet normal -0.016844 0.258828 0.965776
  outer loop
   vertex 154.341797 12.912722 658.911438
   vertex 154.517899 13.154202 658.849792
   vertex 154.167953 13.154202 658.843689
  endloop
 endfacet

 facet normal -0.016844 0.258828 0.965777
  outer loop
   vertex 154.515640 12.671240 658.979187
   vertex 154.517899 13.154202 658.849792
   vertex 154.341797 12.912722 658.911438
  endloop
 endfacet

 facet normal 0.999848 0.000001 0.017456
  outer loop
   vertex 154.534760 12.895385 657.884033
   vertex 154.517899 13.154202 658.849792
   vertex 154.515640 12.671240 658.979187
  endloop
 endfacet

 facet normal 0.999848 0.000001 0.017456
  outer loop
   vertex 154.515640 12.671240 658.979187
   vertex 154.532501 12.412421 658.013428
   vertex 154.534760 12.895385 657.884033
  endloop
 endfacet

 facet normal 0.016854 -0.258828 -0.965777
  outer loop
   vertex 154.534760 12.895385 657.884033
   vertex 154.532501 12.412421 658.013428
   vertex 152.835007 12.895385 657.854370
  endloop
 endfacet

 facet normal 0.016854 -0.258828 -0.965777
  outer loop
   vertex 152.835007 12.895385 657.854370
   vertex 154.532501 12.412421 658.013428
   vertex 152.832748 12.412421 657.983765
  endloop
 endfacet

 facet normal -0.999848 -0.000001 -0.017456
  outer loop
   vertex 152.832748 12.412421 657.983765
   vertex 152.815887 12.671240 658.949524
   vertex 152.835007 12.895385 657.854370
  endloop
 endfacet

 facet normal -0.004499 -0.965925 0.258784
  outer loop
   vertex 153.237030 12.606535 658.715332
   vertex 152.815887 12.671240 658.949524
   vertex 152.832748 12.412421 657.983765
  endloop
 endfacet

 facet normal -0.004513 -0.965931 0.258761
  outer loop
   vertex 153.165833 12.671240 658.955627
   vertex 152.815887 12.671240 658.949524
   vertex 153.237030 12.606535 658.715332
  endloop
 endfacet

 facet normal 0.004545 0.965929 -0.258768
  outer loop
   vertex 129.686783 13.089499 658.174805
   vertex 130.099487 13.154204 658.423584
   vertex 130.116348 12.895386 657.457764
  endloop
 endfacet

 facet normal 0.999848 0.000001 0.017455
  outer loop
   vertex 130.116348 12.895386 657.457764
   vertex 130.099487 13.154204 658.423584
   vertex 130.114090 12.412423 657.587158
  endloop
 endfacet

 facet normal 0.016854 -0.258828 -0.965776
  outer loop
   vertex 130.114090 12.412423 657.587158
   vertex 128.416595 12.895386 657.428101
   vertex 130.116348 12.895386 657.457764
  endloop
 endfacet

 facet normal 0.016854 -0.258828 -0.965776
  outer loop
   vertex 128.414337 12.412423 657.557495
   vertex 128.416595 12.895386 657.428101
   vertex 130.114090 12.412423 657.587158
  endloop
 endfacet

 facet normal -0.999848 0.000002 -0.017441
  outer loop
   vertex 128.399750 13.154204 658.393860
   vertex 128.416595 12.895386 657.428101
   vertex 128.414337 12.412423 657.557495
  endloop
 endfacet

 facet normal -0.999848 0.000002 -0.017441
  outer loop
   vertex 128.414337 12.412423 657.557495
   vertex 128.397491 12.671241 658.523254
   vertex 128.399750 13.154204 658.393860
  endloop
 endfacet

 facet normal -0.016844 0.258828 0.965777
  outer loop
   vertex 128.399750 13.154204 658.393860
   vertex 128.397491 12.671241 658.523254
   vertex 128.573593 12.912723 658.461609
  endloop
 endfacet

 facet normal -0.016844 0.258828 0.965777
  outer loop
   vertex 128.573593 12.912723 658.461609
   vertex 128.397491 12.671241 658.523254
   vertex 128.747437 12.671241 658.529358
  endloop
 endfacet

 facet normal -0.017013 0.258714 0.965804
  outer loop
   vertex 128.747437 12.671241 658.529358
   vertex 128.749695 13.154204 658.400024
   vertex 128.573593 12.912723 658.461609
  endloop
 endfacet

 facet normal 0.017013 -0.258714 -0.965804
  outer loop
   vertex 128.399750 13.154204 658.393860
   vertex 128.749695 13.154204 658.400024
   vertex 128.747437 12.671241 658.529358
  endloop
 endfacet

 facet normal -0.017013 0.258714 0.965804
  outer loop
   vertex 128.573593 12.912723 658.461609
   vertex 128.749695 13.154204 658.400024
   vertex 128.399750 13.154204 658.393860
  endloop
 endfacet

 facet normal -0.016859 0.258957 0.965742
  outer loop
   vertex 131.616760 12.734212 660.458313
   vertex 131.616272 12.628336 660.486694
   vertex 151.230286 12.628335 660.829102
  endloop
 endfacet

 facet normal -0.004518 -0.965927 0.258774
  outer loop
   vertex 151.230286 12.628335 660.829102
   vertex 131.616272 12.628336 660.486694
   vertex 131.618668 12.591501 660.349243
  endloop
 endfacet

 facet normal -0.004518 -0.965927 0.258774
  outer loop
   vertex 131.618668 12.591501 660.349243
   vertex 151.232681 12.591500 660.691650
   vertex 151.230286 12.628335 660.829102
  endloop
 endfacet

 facet normal 0.014117 -0.588141 -0.808635
  outer loop
   vertex 131.619034 12.620545 660.328125
   vertex 151.232681 12.591500 660.691650
   vertex 131.618668 12.591501 660.349243
  endloop
 endfacet

 facet normal 0.014117 -0.588141 -0.808635
  outer loop
   vertex 151.233047 12.620544 660.670532
   vertex 151.232681 12.591500 660.691650
   vertex 131.619034 12.620545 660.328125
  endloop
 endfacet

 facet normal -0.004518 -0.965926 0.258780
  outer loop
   vertex 131.619034 12.620545 660.328125
   vertex 131.629379 12.461753 659.735596
   vertex 151.233047 12.620544 660.670532
  endloop
 endfacet

 facet normal -0.004516 -0.965932 0.258757
  outer loop
   vertex 151.233047 12.620544 660.670532
   vertex 131.629379 12.461753 659.735596
   vertex 151.243393 12.461751 660.077942
  endloop
 endfacet

 facet normal -0.017354 -0.105394 0.994279
  outer loop
   vertex 151.243393 12.461751 660.077942
   vertex 131.629379 12.461753 659.735596
   vertex 131.629456 12.426041 659.731812
  endloop
 endfacet

 facet normal -0.017361 -0.103708 0.994456
  outer loop
   vertex 131.629456 12.426041 659.731812
   vertex 151.243454 12.426040 660.074219
   vertex 151.243393 12.461751 660.077942
  endloop
 endfacet

 facet normal -0.004519 -0.965902 0.258867
  outer loop
   vertex 131.630646 12.407763 659.663635
   vertex 151.243454 12.426040 660.074219
   vertex 131.629456 12.426041 659.731812
  endloop
 endfacet

 facet normal -0.004515 -0.965960 0.258651
  outer loop
   vertex 151.244644 12.407763 660.005981
   vertex 151.243454 12.426040 660.074219
   vertex 131.630646 12.407763 659.663635
  endloop
 endfacet

 facet normal 0.016857 -0.258838 -0.965774
  outer loop
   vertex 131.630646 12.407763 659.663635
   vertex 131.637726 13.924251 659.257324
   vertex 151.244644 12.407763 660.005981
  endloop
 endfacet

 facet normal 0.016860 -0.258801 -0.965783
  outer loop
   vertex 151.244644 12.407763 660.005981
   vertex 131.637726 13.924251 659.257324
   vertex 151.251740 13.924250 659.599731
  endloop
 endfacet

 facet normal 0.004519 0.965906 -0.258854
  outer loop
   vertex 151.251740 13.924250 659.599731
   vertex 131.637726 13.924251 659.257324
   vertex 151.250549 13.942526 659.667908
  endloop
 endfacet

 facet normal 0.004537 0.965925 -0.258784
  outer loop
   vertex 153.239288 13.089499 658.585999
   vertex 152.835007 12.895385 657.854370
   vertex 152.818146 13.154203 658.820129
  endloop
 endfacet

 facet normal -0.999848 -0.000001 -0.017456
  outer loop
   vertex 152.818146 13.154203 658.820129
   vertex 152.835007 12.895385 657.854370
   vertex 152.815887 12.671240 658.949524
  endloop
 endfacet

 facet normal -0.016844 0.258828 0.965777
  outer loop
   vertex 152.815887 12.671240 658.949524
   vertex 153.168106 13.154203 658.826233
   vertex 152.818146 13.154203 658.820129
  endloop
 endfacet

 facet normal -0.016844 0.258828 0.965777
  outer loop
   vertex 153.165833 12.671240 658.955627
   vertex 153.168106 13.154203 658.826233
   vertex 152.815887 12.671240 658.949524
  endloop
 endfacet

 facet normal 0.016844 -0.258828 -0.965777
  outer loop
   vertex 152.815887 12.671240 658.949524
   vertex 153.168106 13.154203 658.826233
   vertex 153.165833 12.671240 658.955627
  endloop
 endfacet

 facet normal -0.004513 -0.965927 0.258775
  outer loop
   vertex 153.165833 12.671240 658.955627
   vertex 153.228607 12.735944 659.198242
   vertex 152.815887 12.671240 658.949524
  endloop
 endfacet

 facet normal -0.004501 -0.965932 0.258756
  outer loop
   vertex 152.815887 12.671240 658.949524
   vertex 153.228607 12.735944 659.198242
   vertex 152.922592 12.781238 659.362000
  endloop
 endfacet

 facet normal -0.004492 -0.965928 0.258772
  outer loop
   vertex 152.922592 12.781238 659.362000
   vertex 153.228607 12.735944 659.198242
   vertex 153.408508 12.783311 659.378174
  endloop
 endfacet

 facet normal -0.004491 -0.965934 0.258751
  outer loop
   vertex 153.408508 12.783311 659.378174
   vertex 153.228424 12.861761 659.667908
   vertex 152.922592 12.781238 659.362000
  endloop
 endfacet

 facet normal -0.004535 -0.965940 0.258725
  outer loop
   vertex 153.657333 12.800649 659.447266
   vertex 153.228424 12.861761 659.667908
   vertex 153.408508 12.783311 659.378174
  endloop
 endfacet

 facet normal -0.004501 -0.965924 0.258787
  outer loop
   vertex 153.651428 12.891235 659.785278
   vertex 153.228424 12.861761 659.667908
   vertex 153.657333 12.800649 659.447266
  endloop
 endfacet

 facet normal -0.004483 -0.965924 0.258787
  outer loop
   vertex 153.657333 12.800649 659.447266
   vertex 153.908432 12.783311 659.386902
   vertex 153.651428 12.891235 659.785278
  endloop
 endfacet

 facet normal -0.004540 -0.965933 0.258753
  outer loop
   vertex 153.651428 12.891235 659.785278
   vertex 153.908432 12.783311 659.386902
   vertex 154.078293 12.861761 659.682739
  endloop
 endfacet

 facet normal -0.004572 -0.965928 0.258770
  outer loop
   vertex 154.078293 12.861761 659.682739
   vertex 153.908432 12.783311 659.386902
   vertex 154.094498 12.735944 659.213379
  endloop
 endfacet

 facet normal -0.004524 -0.965928 0.258772
  outer loop
   vertex 154.094498 12.735944 659.213379
   vertex 154.394608 12.781238 659.387695
   vertex 154.078293 12.861761 659.682739
  endloop
 endfacet

 facet normal -0.004515 -0.965932 0.258757
  outer loop
   vertex 154.165695 12.671240 658.973083
   vertex 154.394608 12.781238 659.387695
   vertex 154.094498 12.735944 659.213379
  endloop
 endfacet

 facet normal -0.004513 -0.965932 0.258756
  outer loop
   vertex 154.515640 12.671240 658.979187
   vertex 154.394608 12.781238 659.387695
   vertex 154.165695 12.671240 658.973083
  endloop
 endfacet

 facet normal -0.004513 -0.965926 0.258778
  outer loop
   vertex 154.165695 12.671240 658.973083
   vertex 154.102921 12.606535 658.730469
   vertex 154.515640 12.671240 658.979187
  endloop
 endfacet

 facet normal -0.004517 -0.965925 0.258784
  outer loop
   vertex 154.515640 12.671240 658.979187
   vertex 154.102921 12.606535 658.730469
   vertex 154.532501 12.412421 658.013428
  endloop
 endfacet

 facet normal -0.004509 -0.965924 0.258788
  outer loop
   vertex 154.532501 12.412421 658.013428
   vertex 154.102921 12.606535 658.730469
   vertex 153.923019 12.559168 658.550537
  endloop
 endfacet

 facet normal -0.004546 -0.965934 0.258749
  outer loop
   vertex 153.923019 12.559168 658.550537
   vertex 153.674194 12.541831 658.481445
   vertex 154.532501 12.412421 658.013428
  endloop
 endfacet

 facet normal -0.004517 -0.965925 0.258783
  outer loop
   vertex 129.684525 12.606536 658.304199
   vertex 130.114090 12.412423 657.587158
   vertex 130.097229 12.671241 658.552917
  endloop
 endfacet

 facet normal 0.999848 -0.000001 0.017456
  outer loop
   vertex 130.097229 12.671241 658.552917
   vertex 130.114090 12.412423 657.587158
   vertex 130.099487 13.154204 658.423584
  endloop
 endfacet

 facet normal -0.016845 0.258714 0.965807
  outer loop
   vertex 130.099487 13.154204 658.423584
   vertex 129.747284 12.671241 658.546814
   vertex 130.097229 12.671241 658.552917
  endloop
 endfacet

 facet normal -0.017013 0.258828 0.965774
  outer loop
   vertex 129.749542 13.154204 658.417419
   vertex 129.747284 12.671241 658.546814
   vertex 130.099487 13.154204 658.423584
  endloop
 endfacet

 facet normal 0.017013 -0.258828 -0.965774
  outer loop
   vertex 130.099487 13.154204 658.423584
   vertex 129.747284 12.671241 658.546814
   vertex 129.749542 13.154204 658.417419
  endloop
 endfacet

 facet normal 0.004558 0.965935 -0.258745
  outer loop
   vertex 129.749542 13.154204 658.417419
   vertex 129.678345 13.218908 658.657715
   vertex 130.099487 13.154204 658.423584
  endloop
 endfacet

 facet normal 0.004533 0.965924 -0.258787
  outer loop
   vertex 130.099487 13.154204 658.423584
   vertex 129.678345 13.218908 658.657715
   vertex 129.978455 13.264202 658.832031
  endloop
 endfacet

 facet normal 0.004509 0.965934 -0.258748
  outer loop
   vertex 129.978455 13.264202 658.832031
   vertex 129.678345 13.218908 658.657715
   vertex 129.492279 13.266275 658.831299
  endloop
 endfacet

 facet normal 0.004509 0.965924 -0.258786
  outer loop
   vertex 129.492279 13.266275 658.831299
   vertex 129.662140 13.344726 659.127075
   vertex 129.978455 13.264202 658.832031
  endloop
 endfacet

 facet normal 0.004541 0.965919 -0.258804
  outer loop
   vertex 129.241180 13.283613 658.891602
   vertex 129.662140 13.344726 659.127075
   vertex 129.492279 13.266275 658.831299
  endloop
 endfacet

 facet normal 0.004531 0.965924 -0.258787
  outer loop
   vertex 129.235291 13.374200 659.229614
   vertex 129.662140 13.344726 659.127075
   vertex 129.241180 13.283613 658.891602
  endloop
 endfacet

 facet normal 0.004490 0.965924 -0.258787
  outer loop
   vertex 129.241180 13.283613 658.891602
   vertex 128.992355 13.266275 658.822571
   vertex 129.235291 13.374200 659.229614
  endloop
 endfacet

 facet normal 0.004503 0.965922 -0.258795
  outer loop
   vertex 129.235291 13.374200 659.229614
   vertex 128.992355 13.266275 658.822571
   vertex 128.812271 13.344726 659.112244
  endloop
 endfacet

 facet normal 0.004511 0.965923 -0.258790
  outer loop
   vertex 128.812271 13.344726 659.112244
   vertex 128.992355 13.266275 658.822571
   vertex 128.812454 13.218908 658.642639
  endloop
 endfacet

 facet normal 0.004534 0.965923 -0.258790
  outer loop
   vertex 128.812454 13.218908 658.642639
   vertex 128.506439 13.264202 658.806335
   vertex 128.812271 13.344726 659.112244
  endloop
 endfacet

 facet normal 0.004539 0.965925 -0.258781
  outer loop
   vertex 128.749695 13.154204 658.400024
   vertex 128.506439 13.264202 658.806335
   vertex 128.812454 13.218908 658.642639
  endloop
 endfacet

 facet normal 0.004558 0.965928 -0.258770
  outer loop
   vertex 128.399750 13.154204 658.393860
   vertex 128.506439 13.264202 658.806335
   vertex 128.749695 13.154204 658.400024
  endloop
 endfacet

 facet normal 0.004558 0.965934 -0.258749
  outer loop
   vertex 128.749695 13.154204 658.400024
   vertex 128.820877 13.089499 658.159729
   vertex 128.399750 13.154204 658.393860
  endloop
 endfacet

 facet normal 0.004537 0.965925 -0.258784
  outer loop
   vertex 128.399750 13.154204 658.393860
   vertex 128.820877 13.089499 658.159729
   vertex 128.416595 12.895386 657.428101
  endloop
 endfacet

 facet normal 0.004495 0.965931 -0.258762
  outer loop
   vertex 128.416595 12.895386 657.428101
   vertex 128.820877 13.089499 658.159729
   vertex 129.006958 13.042132 657.986145
  endloop
 endfacet

 facet normal 0.004541 0.965918 -0.258807
  outer loop
   vertex 129.006958 13.042132 657.986145
   vertex 129.258041 13.024795 657.925842
   vertex 128.416595 12.895386 657.428101
  endloop
 endfacet

 facet normal 0.003663 -0.977815 -0.209438
  outer loop
   vertex 131.219574 12.359375 659.655579
   vertex 131.228989 12.474963 659.116089
   vertex 132.378113 12.359375 659.675842
  endloop
 endfacet

 facet normal 0.003663 -0.977815 -0.209438
  outer loop
   vertex 132.378113 12.359375 659.675842
   vertex 131.228989 12.474963 659.116089
   vertex 132.387527 12.474963 659.136353
  endloop
 endfacet

 facet normal 0.999848 0.000006 0.017450
  outer loop
   vertex 132.387527 12.474963 659.136353
   vertex 132.392761 13.595848 658.836060
   vertex 132.378113 12.359375 659.675842
  endloop
 endfacet

 facet normal 0.016892 -0.258818 -0.965778
  outer loop
   vertex 131.228989 12.474963 659.116089
   vertex 132.392761 13.595848 658.836060
   vertex 132.387527 12.474963 659.136353
  endloop
 endfacet

 facet normal 0.016892 -0.258818 -0.965778
  outer loop
   vertex 131.234222 13.595848 658.815796
   vertex 132.392761 13.595848 658.836060
   vertex 131.228989 12.474963 659.116089
  endloop
 endfacet

 facet normal -0.999848 -0.000003 -0.017437
  outer loop
   vertex 131.228989 12.474963 659.116089
   vertex 131.227081 13.965731 659.225220
   vertex 131.234222 13.595848 658.815796
  endloop
 endfacet

 facet normal 0.011722 0.742081 -0.670208
  outer loop
   vertex 131.234222 13.595848 658.815796
   vertex 131.227081 13.965731 659.225220
   vertex 132.392761 13.595848 658.836060
  endloop
 endfacet

 facet normal 0.011722 0.742081 -0.670208
  outer loop
   vertex 132.392761 13.595848 658.836060
   vertex 131.227081 13.965731 659.225220
   vertex 132.385620 13.965731 659.245483
  endloop
 endfacet

 facet normal 0.999848 -0.000001 0.017440
  outer loop
   vertex 132.385620 13.965731 659.245483
   vertex 132.378113 12.359375 659.675842
   vertex 132.392761 13.595848 658.836060
  endloop
 endfacet

 facet normal 0.999848 0.000003 0.017454
  outer loop
   vertex 132.370621 13.949881 660.104736
   vertex 132.378113 12.359375 659.675842
   vertex 132.385620 13.965731 659.245483
  endloop
 endfacet

 facet normal 0.999847 -0.000001 0.017470
  outer loop
   vertex 132.365250 12.802817 660.412048
   vertex 132.378113 12.359375 659.675842
   vertex 132.370621 13.949881 660.104736
  endloop
 endfacet

 facet normal -0.016841 0.258822 0.965778
  outer loop
   vertex 132.370621 13.949881 660.104736
   vertex 131.206711 12.802816 660.391846
   vertex 132.365250 12.802817 660.412048
  endloop
 endfacet

 facet normal 0.001980 0.993524 -0.113603
  outer loop
   vertex 132.365250 12.802817 660.412048
   vertex 131.206711 12.802816 660.391846
   vertex 132.363525 12.814155 660.511169
  endloop
 endfacet

 facet normal 0.001981 0.993523 -0.113612
  outer loop
   vertex 132.363525 12.814155 660.511169
   vertex 131.206711 12.802816 660.391846
   vertex 131.204987 12.814155 660.490967
  endloop
 endfacet

 facet normal -0.016841 0.258824 0.965778
  outer loop
   vertex 131.204987 12.814155 660.490967
   vertex 132.362808 12.660606 660.552307
   vertex 132.363525 12.814155 660.511169
  endloop
 endfacet

 facet normal -0.016841 0.258824 0.965778
  outer loop
   vertex 131.204269 12.660606 660.532104
   vertex 132.362808 12.660606 660.552307
   vertex 131.204987 12.814155 660.490967
  endloop
 endfacet

 facet normal -0.013859 -0.606790 0.794742
  outer loop
   vertex 131.205383 12.577203 660.468445
   vertex 132.362808 12.660606 660.552307
   vertex 131.204269 12.660606 660.532104
  endloop
 endfacet

 facet normal -0.999848 -0.000039 -0.017444
  outer loop
   vertex 131.204269 12.660606 660.532104
   vertex 131.206711 12.802816 660.391846
   vertex 131.205383 12.577203 660.468445
  endloop
 endfacet

 facet normal -0.999848 -0.000039 -0.017444
  outer loop
   vertex 131.205383 12.577203 660.468445
   vertex 131.206711 12.802816 660.391846
   vertex 131.219574 12.359375 659.655579
  endloop
 endfacet

 facet normal -0.999847 0.000002 -0.017469
  outer loop
   vertex 131.219574 12.359375 659.655579
   vertex 131.206711 12.802816 660.391846
   vertex 131.212082 13.949881 660.084534
  endloop
 endfacet

 facet normal -0.999848 -0.000003 -0.017452
  outer loop
   vertex 131.212082 13.949881 660.084534
   vertex 131.227081 13.965731 659.225220
   vertex 131.219574 12.359375 659.655579
  endloop
 endfacet

 facet normal -0.999848 -0.000009 -0.017453
  outer loop
   vertex 131.212891 14.183559 660.038086
   vertex 131.227081 13.965731 659.225220
   vertex 131.212082 13.949881 660.084534
  endloop
 endfacet

 facet normal 0.004526 0.965929 -0.258767
  outer loop
   vertex 132.385620 13.965731 659.245483
   vertex 131.227081 13.965731 659.225220
   vertex 131.212891 14.183559 660.038086
  endloop
 endfacet

 facet normal 0.004513 0.965924 -0.258785
  outer loop
   vertex 131.212891 14.183559 660.038086
   vertex 132.371429 14.183559 660.058289
   vertex 132.385620 13.965731 659.245483
  endloop
 endfacet

 facet normal 0.999848 0.000009 0.017454
  outer loop
   vertex 132.385620 13.965731 659.245483
   vertex 132.371429 14.183559 660.058289
   vertex 132.370621 13.949881 660.104736
  endloop
 endfacet

 facet normal 0.999847 0.000016 0.017490
  outer loop
   vertex 132.370621 13.949881 660.104736
   vertex 132.371429 14.183559 660.058289
   vertex 132.369736 14.143177 660.155151
  endloop
 endfacet

 facet normal 0.999847 0.000016 0.017490
  outer loop
   vertex 132.369736 14.143177 660.155151
   vertex 132.369019 13.989629 660.196289
   vertex 132.370621 13.949881 660.104736
  endloop
 endfacet

 facet normal -0.016892 0.258824 0.965777
  outer loop
   vertex 131.210480 13.989629 660.176025
   vertex 132.369019 13.989629 660.196289
   vertex 132.369736 14.143177 660.155151
  endloop
 endfacet

 facet normal -0.006964 -0.917302 0.398131
  outer loop
   vertex 132.370621 13.949881 660.104736
   vertex 132.369019 13.989629 660.196289
   vertex 131.210480 13.989629 660.176025
  endloop
 endfacet

 facet normal -0.006947 -0.917205 0.398354
  outer loop
   vertex 131.210480 13.989629 660.176025
   vertex 131.212082 13.949881 660.084534
   vertex 132.370621 13.949881 660.104736
  endloop
 endfacet

 facet normal -0.016841 0.258822 0.965778
  outer loop
   vertex 132.370621 13.949881 660.104736
   vertex 131.212082 13.949881 660.084534
   vertex 131.206711 12.802816 660.391846
  endloop
 endfacet

 facet normal 0.011687 0.742080 -0.670209
  outer loop
   vertex 151.663269 13.965730 659.581970
   vertex 151.670410 13.595846 659.172546
   vertex 150.504730 13.965730 659.561768
  endloop
 endfacet

 facet normal 0.011688 0.742081 -0.670208
  outer loop
   vertex 150.504730 13.965730 659.561768
   vertex 151.670410 13.595846 659.172546
   vertex 150.511871 13.595847 659.152344
  endloop
 endfacet

 facet normal -0.999848 0.000008 -0.017447
  outer loop
   vertex 150.511871 13.595847 659.152344
   vertex 150.506622 12.474962 659.452637
   vertex 150.504730 13.965730 659.561768
  endloop
 endfacet

 facet normal 0.016841 -0.258818 -0.965779
  outer loop
   vertex 151.670410 13.595846 659.172546
   vertex 150.506622 12.474962 659.452637
   vertex 150.511871 13.595847 659.152344
  endloop
 endfacet

 facet normal 0.016841 -0.258818 -0.965779
  outer loop
   vertex 151.665161 12.474961 659.472839
   vertex 150.506622 12.474962 659.452637
   vertex 151.670410 13.595846 659.172546
  endloop
 endfacet

 facet normal 0.999848 -0.000008 0.017447
  outer loop
   vertex 151.670410 13.595846 659.172546
   vertex 151.655746 12.359373 660.012329
   vertex 151.665161 12.474961 659.472839
  endloop
 endfacet

 facet normal 0.003651 -0.977815 -0.209438
  outer loop
   vertex 151.665161 12.474961 659.472839
   vertex 151.655746 12.359373 660.012329
   vertex 150.506622 12.474962 659.452637
  endloop
 endfacet

 facet normal 0.003652 -0.977815 -0.209439
  outer loop
   vertex 150.506622 12.474962 659.452637
   vertex 151.655746 12.359373 660.012329
   vertex 150.497208 12.359373 659.992126
  endloop
 endfacet

 facet normal -0.999848 0.000008 -0.017447
  outer loop
   vertex 150.497208 12.359373 659.992126
   vertex 150.504730 13.965730 659.561768
   vertex 150.506622 12.474962 659.452637
  endloop
 endfacet

 facet normal -0.999848 0.000007 -0.017453
  outer loop
   vertex 150.484360 12.802815 660.728333
   vertex 150.504730 13.965730 659.561768
   vertex 150.497208 12.359373 659.992126
  endloop
 endfacet

 facet normal -0.999848 0.000007 -0.017452
  outer loop
   vertex 150.489731 13.949879 660.421082
   vertex 150.504730 13.965730 659.561768
   vertex 150.484360 12.802815 660.728333
  endloop
 endfacet

 facet normal -0.016841 0.258774 0.965791
  outer loop
   vertex 150.484360 12.802815 660.728333
   vertex 151.648270 13.949879 660.441284
   vertex 150.489731 13.949879 660.421082
  endloop
 endfacet

 facet normal -0.006947 -0.917202 0.398362
  outer loop
   vertex 150.489731 13.949879 660.421082
   vertex 151.648270 13.949879 660.441284
   vertex 150.488129 13.989628 660.512573
  endloop
 endfacet

 facet normal -0.006947 -0.917202 0.398362
  outer loop
   vertex 150.488129 13.989628 660.512573
   vertex 151.648270 13.949879 660.441284
   vertex 151.646667 13.989628 660.532776
  endloop
 endfacet

 facet normal -0.016841 0.258822 0.965778
  outer loop
   vertex 151.646667 13.989628 660.532776
   vertex 150.488846 14.143177 660.471436
   vertex 150.488129 13.989628 660.512573
  endloop
 endfacet

 facet normal -0.016841 0.258824 0.965778
  outer loop
   vertex 151.647385 14.143176 660.491638
   vertex 150.488846 14.143177 660.471436
   vertex 151.646667 13.989628 660.532776
  endloop
 endfacet

 facet normal -0.006708 0.923020 0.384693
  outer loop
   vertex 151.649078 14.183558 660.394775
   vertex 150.488846 14.143177 660.471436
   vertex 151.647385 14.143176 660.491638
  endloop
 endfacet

 facet normal 0.999847 0.000021 0.017492
  outer loop
   vertex 151.647385 14.143176 660.491638
   vertex 151.648270 13.949879 660.441284
   vertex 151.649078 14.183558 660.394775
  endloop
 endfacet

 facet normal 0.999848 0.000013 0.017453
  outer loop
   vertex 151.649078 14.183558 660.394775
   vertex 151.648270 13.949879 660.441284
   vertex 151.663269 13.965730 659.581970
  endloop
 endfacet

 facet normal 0.999848 -0.000006 0.017452
  outer loop
   vertex 151.663269 13.965730 659.581970
   vertex 151.648270 13.949879 660.441284
   vertex 151.642899 12.802815 660.748596
  endloop
 endfacet

 facet normal 0.999848 -0.000007 0.017452
  outer loop
   vertex 151.642899 12.802815 660.748596
   vertex 151.655746 12.359373 660.012329
   vertex 151.663269 13.965730 659.581970
  endloop
 endfacet

 facet normal 0.999848 -0.000026 0.017463
  outer loop
   vertex 151.641556 12.577202 660.825134
   vertex 151.655746 12.359373 660.012329
   vertex 151.642899 12.802815 660.748596
  endloop
 endfacet

 facet normal -0.004513 -0.965924 0.258785
  outer loop
   vertex 150.497208 12.359373 659.992126
   vertex 151.655746 12.359373 660.012329
   vertex 151.641556 12.577202 660.825134
  endloop
 endfacet

 facet normal -0.004513 -0.965924 0.258785
  outer loop
   vertex 151.641556 12.577202 660.825134
   vertex 150.483017 12.577202 660.804932
   vertex 150.497208 12.359373 659.992126
  endloop
 endfacet

 facet normal -0.999848 0.000022 -0.017462
  outer loop
   vertex 150.497208 12.359373 659.992126
   vertex 150.483017 12.577202 660.804932
   vertex 150.484360 12.802815 660.728333
  endloop
 endfacet

 facet normal -0.999850 0.000064 -0.017339
  outer loop
   vertex 150.484360 12.802815 660.728333
   vertex 150.483017 12.577202 660.804932
   vertex 150.481918 12.660605 660.868591
  endloop
 endfacet

 facet normal -0.999849 0.000010 -0.017394
  outer loop
   vertex 150.481918 12.660605 660.868591
   vertex 150.482635 12.814154 660.827454
   vertex 150.484360 12.802815 660.728333
  endloop
 endfacet

 facet normal -0.016892 0.258824 0.965777
  outer loop
   vertex 151.641174 12.814154 660.847717
   vertex 150.482635 12.814154 660.827454
   vertex 150.481918 12.660605 660.868591
  endloop
 endfacet

 facet normal 0.001987 0.993523 -0.113612
  outer loop
   vertex 150.484360 12.802815 660.728333
   vertex 150.482635 12.814154 660.827454
   vertex 151.641174 12.814154 660.847717
  endloop
 endfacet

 facet normal 0.001987 0.993523 -0.113612
  outer loop
   vertex 151.641174 12.814154 660.847717
   vertex 151.642899 12.802815 660.748596
   vertex 150.484360 12.802815 660.728333
  endloop
 endfacet

 facet normal -0.016892 0.258822 0.965777
  outer loop
   vertex 150.484360 12.802815 660.728333
   vertex 151.642899 12.802815 660.748596
   vertex 151.648270 13.949879 660.441284
  endloop
 endfacet

 facet normal -0.004513 -0.965931 0.258761
  outer loop
   vertex 129.747284 12.671241 658.546814
   vertex 130.097229 12.671241 658.552917
   vertex 129.676086 12.735946 658.787109
  endloop
 endfacet

 facet normal -0.004517 -0.965932 0.258755
  outer loop
   vertex 129.676086 12.735946 658.787109
   vertex 130.097229 12.671241 658.552917
   vertex 129.976196 12.781239 658.961426
  endloop
 endfacet

 facet normal -0.004511 -0.965935 0.258746
  outer loop
   vertex 129.976196 12.781239 658.961426
   vertex 129.490021 12.783313 658.960693
   vertex 129.676086 12.735946 658.787109
  endloop
 endfacet

 facet normal -0.004511 -0.965925 0.258784
  outer loop
   vertex 129.659882 12.861762 659.256470
   vertex 129.490021 12.783313 658.960693
   vertex 129.976196 12.781239 658.961426
  endloop
 endfacet

 facet normal -0.004539 -0.965920 0.258799
  outer loop
   vertex 129.238922 12.800650 659.020996
   vertex 129.490021 12.783313 658.960693
   vertex 129.659882 12.861762 659.256470
  endloop
 endfacet

 facet normal -0.004531 -0.965924 0.258787
  outer loop
   vertex 129.659882 12.861762 659.256470
   vertex 129.233032 12.891236 659.359009
   vertex 129.238922 12.800650 659.020996
  endloop
 endfacet

 facet normal -0.004490 -0.965924 0.258787
  outer loop
   vertex 129.238922 12.800650 659.020996
   vertex 129.233032 12.891236 659.359009
   vertex 128.990097 12.783312 658.951965
  endloop
 endfacet

 facet normal -0.004503 -0.965922 0.258795
  outer loop
   vertex 128.990097 12.783312 658.951965
   vertex 129.233032 12.891236 659.359009
   vertex 128.810013 12.861762 659.241638
  endloop
 endfacet

 facet normal -0.004568 -0.965932 0.258757
  outer loop
   vertex 128.810013 12.861762 659.241638
   vertex 128.810196 12.735946 658.771973
   vertex 128.990097 12.783312 658.951965
  endloop
 endfacet

 facet normal -0.004498 -0.965932 0.258757
  outer loop
   vertex 128.504181 12.781239 658.935730
   vertex 128.810196 12.735946 658.771973
   vertex 128.810013 12.861762 659.241638
  endloop
 endfacet

 facet normal -0.004489 -0.965928 0.258772
  outer loop
   vertex 128.747437 12.671241 658.529358
   vertex 128.810196 12.735946 658.771973
   vertex 128.504181 12.781239 658.935730
  endloop
 endfacet

 facet normal -0.004513 -0.965931 0.258759
  outer loop
   vertex 128.504181 12.781239 658.935730
   vertex 128.397491 12.671241 658.523254
   vertex 128.747437 12.671241 658.529358
  endloop
 endfacet

 facet normal -0.004514 -0.965915 0.258819
  outer loop
   vertex 128.747437 12.671241 658.529358
   vertex 128.397491 12.671241 658.523254
   vertex 128.818619 12.606537 658.289124
  endloop
 endfacet

 facet normal -0.004536 -0.965925 0.258783
  outer loop
   vertex 128.818619 12.606537 658.289124
   vertex 128.397491 12.671241 658.523254
   vertex 128.414337 12.412423 657.557495
  endloop
 endfacet

 facet normal -0.004495 -0.965931 0.258762
  outer loop
   vertex 128.414337 12.412423 657.557495
   vertex 129.004700 12.559170 658.115540
   vertex 128.818619 12.606537 658.289124
  endloop
 endfacet

 facet normal -0.004541 -0.965918 0.258807
  outer loop
   vertex 129.255783 12.541832 658.055237
   vertex 129.004700 12.559170 658.115540
   vertex 128.414337 12.412423 657.557495
  endloop
 endfacet

 facet normal 0.004513 0.965927 -0.258775
  outer loop
   vertex 153.168106 13.154203 658.826233
   vertex 152.818146 13.154203 658.820129
   vertex 153.230865 13.218907 659.068848
  endloop
 endfacet

 facet normal 0.004500 0.965933 -0.258754
  outer loop
   vertex 153.230865 13.218907 659.068848
   vertex 152.818146 13.154203 658.820129
   vertex 152.924850 13.264200 659.232605
  endloop
 endfacet

 facet normal 0.004490 0.965928 -0.258771
  outer loop
   vertex 152.924850 13.264200 659.232605
   vertex 153.410767 13.266274 659.248779
   vertex 153.230865 13.218907 659.068848
  endloop
 endfacet

 facet normal 0.004490 0.965933 -0.258752
  outer loop
   vertex 153.230682 13.344725 659.538513
   vertex 153.410767 13.266274 659.248779
   vertex 152.924850 13.264200 659.232605
  endloop
 endfacet

 facet normal 0.004535 0.965940 -0.258725
  outer loop
   vertex 153.659592 13.283612 659.317871
   vertex 153.410767 13.266274 659.248779
   vertex 153.230682 13.344725 659.538513
  endloop
 endfacet

 facet normal 0.004503 0.965925 -0.258784
  outer loop
   vertex 153.230682 13.344725 659.538513
   vertex 153.653687 13.374198 659.655884
   vertex 153.659592 13.283612 659.317871
  endloop
 endfacet

 facet normal 0.004483 0.965925 -0.258785
  outer loop
   vertex 153.659592 13.283612 659.317871
   vertex 153.653687 13.374198 659.655884
   vertex 153.910690 13.266274 659.257507
  endloop
 endfacet

 facet normal 0.004538 0.965933 -0.258752
  outer loop
   vertex 153.910690 13.266274 659.257507
   vertex 153.653687 13.374198 659.655884
   vertex 154.080551 13.344725 659.553345
  endloop
 endfacet

 facet normal 0.004572 0.965928 -0.258770
  outer loop
   vertex 154.080551 13.344725 659.553345
   vertex 154.096756 13.218907 659.083984
   vertex 153.910690 13.266274 659.257507
  endloop
 endfacet

 facet normal 0.004527 0.965928 -0.258772
  outer loop
   vertex 154.396866 13.264200 659.258301
   vertex 154.096756 13.218907 659.083984
   vertex 154.080551 13.344725 659.553345
  endloop
 endfacet

 facet normal 0.004519 0.965931 -0.258760
  outer loop
   vertex 154.167953 13.154202 658.843689
   vertex 154.096756 13.218907 659.083984
   vertex 154.396866 13.264200 659.258301
  endloop
 endfacet

 facet normal 0.004513 0.965932 -0.258756
  outer loop
   vertex 154.396866 13.264200 659.258301
   vertex 154.517899 13.154202 658.849792
   vertex 154.167953 13.154202 658.843689
  endloop
 endfacet

 facet normal 0.004513 0.965927 -0.258775
  outer loop
   vertex 154.167953 13.154202 658.843689
   vertex 154.517899 13.154202 658.849792
   vertex 154.105179 13.089499 658.601074
  endloop
 endfacet

 facet normal 0.004519 0.965925 -0.258783
  outer loop
   vertex 154.105179 13.089499 658.601074
   vertex 154.517899 13.154202 658.849792
   vertex 154.534760 12.895385 657.884033
  endloop
 endfacet

 facet normal 0.004509 0.965924 -0.258788
  outer loop
   vertex 154.534760 12.895385 657.884033
   vertex 153.925278 13.042131 658.421143
   vertex 154.105179 13.089499 658.601074
  endloop
 endfacet

 facet normal 0.004495 0.965920 -0.258803
  outer loop
   vertex 153.676453 13.024794 658.352112
   vertex 153.925278 13.042131 658.421143
   vertex 154.534760 12.895385 657.884033
  endloop
 endfacet

 facet normal 0.004516 0.965929 -0.258768
  outer loop
   vertex 128.416595 12.895386 657.428101
   vertex 129.258041 13.024795 657.925842
   vertex 130.116348 12.895386 657.457764
  endloop
 endfacet

 facet normal 0.004495 0.965919 -0.258804
  outer loop
   vertex 130.116348 12.895386 657.457764
   vertex 129.258041 13.024795 657.925842
   vertex 129.506882 13.042132 657.994873
  endloop
 endfacet

 facet normal 0.004509 0.965923 -0.258788
  outer loop
   vertex 129.506882 13.042132 657.994873
   vertex 129.686783 13.089499 658.174805
   vertex 130.116348 12.895386 657.457764
  endloop
 endfacet

 facet normal 0.004495 0.965931 -0.258762
  outer loop
   vertex 153.239288 13.089499 658.585999
   vertex 153.425354 13.042131 658.412415
   vertex 152.835007 12.895385 657.854370
  endloop
 endfacet

 facet normal 0.004541 0.965918 -0.258807
  outer loop
   vertex 152.835007 12.895385 657.854370
   vertex 153.425354 13.042131 658.412415
   vertex 153.676453 13.024794 658.352112
  endloop
 endfacet

 facet normal 0.004516 0.965929 -0.258768
  outer loop
   vertex 153.676453 13.024794 658.352112
   vertex 154.534760 12.895385 657.884033
   vertex 152.835007 12.895385 657.854370
  endloop
 endfacet

 facet normal -0.004516 -0.965920 0.258800
  outer loop
   vertex 154.532501 12.412421 658.013428
   vertex 153.674194 12.541831 658.481445
   vertex 152.832748 12.412421 657.983765
  endloop
 endfacet

 facet normal -0.004488 -0.965933 0.258755
  outer loop
   vertex 152.832748 12.412421 657.983765
   vertex 153.674194 12.541831 658.481445
   vertex 153.423096 12.559168 658.541809
  endloop
 endfacet

 facet normal -0.004538 -0.965919 0.258804
  outer loop
   vertex 153.423096 12.559168 658.541809
   vertex 153.237030 12.606535 658.715332
   vertex 152.832748 12.412421 657.983765
  endloop
 endfacet

 facet normal -0.004512 -0.965924 0.258786
  outer loop
   vertex 129.684525 12.606536 658.304199
   vertex 129.504623 12.559170 658.124268
   vertex 130.114090 12.412423 657.587158
  endloop
 endfacet

 facet normal -0.004495 -0.965919 0.258804
  outer loop
   vertex 130.114090 12.412423 657.587158
   vertex 129.504623 12.559170 658.124268
   vertex 129.255783 12.541832 658.055237
  endloop
 endfacet

 facet normal -0.004516 -0.965929 0.258768
  outer loop
   vertex 129.255783 12.541832 658.055237
   vertex 128.414337 12.412423 657.557495
   vertex 130.114090 12.412423 657.587158
  endloop
 endfacet

 facet normal -0.013854 -0.607155 0.794462
  outer loop
   vertex 151.641556 12.577202 660.825134
   vertex 151.640457 12.660605 660.888855
   vertex 150.483017 12.577202 660.804932
  endloop
 endfacet

 facet normal -0.013901 -0.606788 0.794742
  outer loop
   vertex 150.483017 12.577202 660.804932
   vertex 151.640457 12.660605 660.888855
   vertex 150.481918 12.660605 660.868591
  endloop
 endfacet

 facet normal 0.004517 0.965926 -0.258780
  outer loop
   vertex 131.636169 13.913484 659.346680
   vertex 131.625824 14.072276 659.939209
   vertex 151.250183 13.913483 659.689026
  endloop
 endfacet

 facet normal 0.004517 0.965926 -0.258780
  outer loop
   vertex 151.250183 13.913483 659.689026
   vertex 131.625824 14.072276 659.939209
   vertex 151.239838 14.072275 660.281555
  endloop
 endfacet

 facet normal -0.006729 0.923020 0.384692
  outer loop
   vertex 132.369736 14.143177 660.155151
   vertex 132.371429 14.183559 660.058289
   vertex 131.211197 14.143177 660.134888
  endloop
 endfacet

 facet normal -0.006712 0.922934 0.384899
  outer loop
   vertex 131.211197 14.143177 660.134888
   vertex 132.371429 14.183559 660.058289
   vertex 131.212891 14.183559 660.038086
  endloop
 endfacet

 facet normal -0.016844 0.258828 0.965777
  outer loop
   vertex 154.165695 12.671240 658.973083
   vertex 154.515640 12.671240 658.979187
   vertex 154.341797 12.912722 658.911438
  endloop
 endfacet

 facet normal 0.999848 -0.000008 0.017447
  outer loop
   vertex 151.663269 13.965730 659.581970
   vertex 151.655746 12.359373 660.012329
   vertex 151.670410 13.595846 659.172546
  endloop
 endfacet

 facet normal 0.004514 0.965914 -0.258823
  outer loop
   vertex 152.818146 13.154203 658.820129
   vertex 153.168106 13.154203 658.826233
   vertex 153.239288 13.089499 658.585999
  endloop
 endfacet

 facet normal 0.004559 0.965923 -0.258789
  outer loop
   vertex 129.749542 13.154204 658.417419
   vertex 130.099487 13.154204 658.423584
   vertex 129.686783 13.089499 658.174805
  endloop
 endfacet

 facet normal 0.016844 -0.258828 -0.965777
  outer loop
   vertex 154.515640 12.671240 658.979187
   vertex 154.167953 13.154202 658.843689
   vertex 154.517899 13.154202 658.849792
  endloop
 endfacet

 facet normal -0.004514 -0.965927 0.258774
  outer loop
   vertex 131.472946 12.533422 659.250671
   vertex 129.825043 12.533422 659.221924
   vertex 129.851013 12.134570 657.733582
  endloop
 endfacet

 facet normal 0.004524 0.965927 -0.258774
  outer loop
   vertex 151.447678 13.211514 657.821960
   vertex 151.421692 13.610366 659.310303
   vertex 153.095581 13.211514 657.850769
  endloop
 endfacet

 facet normal 0.016844 -0.258828 -0.965777
  outer loop
   vertex 128.399750 13.154204 658.393860
   vertex 128.747437 12.671241 658.529358
   vertex 128.397491 12.671241 658.523254
  endloop
 endfacet

 facet normal -0.999849 0.000010 -0.017394
  outer loop
   vertex 131.204269 12.660606 660.532104
   vertex 131.204987 12.814155 660.490967
   vertex 131.206711 12.802816 660.391846
  endloop
 endfacet

 facet normal 0.016844 -0.258828 -0.965777
  outer loop
   vertex 153.168106 13.154203 658.826233
   vertex 152.815887 12.671240 658.949524
   vertex 152.818146 13.154203 658.820129
  endloop
 endfacet

 facet normal -0.999848 -0.000002 -0.017449
  outer loop
   vertex 131.219574 12.359375 659.655579
   vertex 131.227081 13.965731 659.225220
   vertex 131.228989 12.474963 659.116089
  endloop
 endfacet

 facet normal 0.999847 0.000019 0.017501
  outer loop
   vertex 151.647385 14.143176 660.491638
   vertex 151.646667 13.989628 660.532776
   vertex 151.648270 13.949879 660.441284
  endloop
 endfacet

 facet normal -0.004514 -0.965925 0.258784
  outer loop
   vertex 151.416656 12.533421 659.598816
   vertex 151.442642 12.134569 658.110535
   vertex 153.090546 12.134569 658.139282
  endloop
 endfacet

 facet normal 0.999848 0.000002 0.017457
  outer loop
   vertex 131.498932 12.134570 657.762390
   vertex 131.503967 13.211516 657.473877
   vertex 131.477982 13.610367 658.962158
  endloop
 endfacet

 facet normal 0.016845 -0.258714 -0.965807
  outer loop
   vertex 129.747284 12.671241 658.546814
   vertex 130.099487 13.154204 658.423584
   vertex 130.097229 12.671241 658.552917
  endloop
 endfacet

 facet normal -0.004513 -0.965926 0.258778
  outer loop
   vertex 130.097229 12.671241 658.552917
   vertex 129.747284 12.671241 658.546814
   vertex 129.684525 12.606536 658.304199
  endloop
 endfacet

 facet normal -0.718895 0.183025 0.670591
  outer loop
   vertex 129.504623 12.559170 658.124268
   vertex 129.686783 13.089499 658.174805
   vertex 129.506882 13.042132 657.994873
  endloop
 endfacet

 facet normal -0.274961 0.250016 0.928379
  outer loop
   vertex 129.504623 12.559170 658.124268
   vertex 129.506882 13.042132 657.994873
   vertex 129.255783 12.541832 658.055237
  endloop
 endfacet

 facet normal -0.274961 0.250016 0.928379
  outer loop
   vertex 129.255783 12.541832 658.055237
   vertex 129.506882 13.042132 657.994873
   vertex 129.258041 13.024795 657.925842
  endloop
 endfacet

 facet normal 0.242401 0.250015 0.937408
  outer loop
   vertex 129.258041 13.024795 657.925842
   vertex 129.004700 12.559170 658.115540
   vertex 129.255783 12.541832 658.055237
  endloop
 endfacet

 facet normal 0.242401 0.250015 0.937408
  outer loop
   vertex 129.006958 13.042132 657.986145
   vertex 129.004700 12.559170 658.115540
   vertex 129.258041 13.024795 657.925842
  endloop
 endfacet

 facet normal 0.695112 0.183011 0.695216
  outer loop
   vertex 128.818619 12.606537 658.289124
   vertex 129.004700 12.559170 658.115540
   vertex 129.006958 13.042132 657.986145
  endloop
 endfacet

 facet normal 0.695112 0.183011 0.695216
  outer loop
   vertex 129.006958 13.042132 657.986145
   vertex 128.820877 13.089499 658.159729
   vertex 128.818619 12.606537 658.289124
  endloop
 endfacet

 facet normal 0.961413 0.066992 0.266827
  outer loop
   vertex 128.818619 12.606537 658.289124
   vertex 128.820877 13.089499 658.159729
   vertex 128.747437 12.671241 658.529358
  endloop
 endfacet

 facet normal -0.970131 0.067000 0.233145
  outer loop
   vertex 154.165695 12.671240 658.973083
   vertex 154.167953 13.154202 658.843689
   vertex 154.102921 12.606535 658.730469
  endloop
 endfacet

 facet normal -0.970131 0.067000 0.233145
  outer loop
   vertex 154.102921 12.606535 658.730469
   vertex 154.167953 13.154202 658.843689
   vertex 154.105179 13.089499 658.601074
  endloop
 endfacet

 facet normal -0.718895 0.183025 0.670591
  outer loop
   vertex 154.105179 13.089499 658.601074
   vertex 153.923019 12.559168 658.550537
   vertex 154.102921 12.606535 658.730469
  endloop
 endfacet

 facet normal -0.718895 0.183025 0.670591
  outer loop
   vertex 153.925278 13.042131 658.421143
   vertex 153.923019 12.559168 658.550537
   vertex 154.105179 13.089499 658.601074
  endloop
 endfacet

 facet normal -0.275186 0.249999 0.928317
  outer loop
   vertex 153.674194 12.541831 658.481445
   vertex 153.923019 12.559168 658.550537
   vertex 153.925278 13.042131 658.421143
  endloop
 endfacet

 facet normal -0.274977 0.249905 0.928404
  outer loop
   vertex 153.925278 13.042131 658.421143
   vertex 153.676453 13.024794 658.352112
   vertex 153.674194 12.541831 658.481445
  endloop
 endfacet

 facet normal 0.242601 0.249891 0.937390
  outer loop
   vertex 153.674194 12.541831 658.481445
   vertex 153.676453 13.024794 658.352112
   vertex 153.423096 12.559168 658.541809
  endloop
 endfacet

 facet normal 0.242388 0.250016 0.937412
  outer loop
   vertex 153.423096 12.559168 658.541809
   vertex 153.676453 13.024794 658.352112
   vertex 153.425354 13.042131 658.412415
  endloop
 endfacet

 facet normal 0.695024 0.183033 0.695299
  outer loop
   vertex 153.425354 13.042131 658.412415
   vertex 153.237030 12.606535 658.715332
   vertex 153.423096 12.559168 658.541809
  endloop
 endfacet

 facet normal 0.961418 0.066956 0.266819
  outer loop
   vertex 130.097229 12.671241 658.552917
   vertex 130.099487 13.154204 658.423584
   vertex 129.976196 12.781239 658.961426
  endloop
 endfacet

 facet normal 0.961408 0.066997 0.266845
  outer loop
   vertex 129.976196 12.781239 658.961426
   vertex 130.099487 13.154204 658.423584
   vertex 129.978455 13.264202 658.832031
  endloop
 endfacet

 facet normal 0.695083 0.183018 0.695244
  outer loop
   vertex 129.978455 13.264202 658.832031
   vertex 129.659882 12.861762 659.256470
   vertex 129.976196 12.781239 658.961426
  endloop
 endfacet

 facet normal 0.695083 0.183018 0.695244
  outer loop
   vertex 129.662140 13.344726 659.127075
   vertex 129.659882 12.861762 659.256470
   vertex 129.978455 13.264202 658.832031
  endloop
 endfacet

 facet normal 0.242448 0.250012 0.937397
  outer loop
   vertex 129.233032 12.891236 659.359009
   vertex 129.659882 12.861762 659.256470
   vertex 129.662140 13.344726 659.127075
  endloop
 endfacet

 facet normal 0.242448 0.250012 0.937397
  outer loop
   vertex 129.662140 13.344726 659.127075
   vertex 129.235291 13.374200 659.229614
   vertex 129.233032 12.891236 659.359009
  endloop
 endfacet

 facet normal -0.275004 0.250012 0.928368
  outer loop
   vertex 129.233032 12.891236 659.359009
   vertex 129.235291 13.374200 659.229614
   vertex 128.810013 12.861762 659.241638
  endloop
 endfacet

 facet normal -0.275004 0.250012 0.928368
  outer loop
   vertex 128.810013 12.861762 659.241638
   vertex 129.235291 13.374200 659.229614
   vertex 128.812271 13.344726 659.112244
  endloop
 endfacet

 facet normal -0.718920 0.183018 0.670566
  outer loop
   vertex 128.812271 13.344726 659.112244
   vertex 128.504181 12.781239 658.935730
   vertex 128.810013 12.861762 659.241638
  endloop
 endfacet

 facet normal -0.718920 0.183018 0.670566
  outer loop
   vertex 128.506439 13.264202 658.806335
   vertex 128.504181 12.781239 658.935730
   vertex 128.812271 13.344726 659.112244
  endloop
 endfacet

 facet normal -0.970150 0.066981 0.233073
  outer loop
   vertex 128.397491 12.671241 658.523254
   vertex 128.504181 12.781239 658.935730
   vertex 128.506439 13.264202 658.806335
  endloop
 endfacet

 facet normal -0.970150 0.066981 0.233073
  outer loop
   vertex 128.506439 13.264202 658.806335
   vertex 128.399750 13.154204 658.393860
   vertex 128.397491 12.671241 658.523254
  endloop
 endfacet

 facet normal 0.961418 0.066988 0.266811
  outer loop
   vertex 154.515640 12.671240 658.979187
   vertex 154.517899 13.154202 658.849792
   vertex 154.394608 12.781238 659.387695
  endloop
 endfacet

 facet normal 0.961418 0.066988 0.266811
  outer loop
   vertex 154.394608 12.781238 659.387695
   vertex 154.517899 13.154202 658.849792
   vertex 154.396866 13.264200 659.258301
  endloop
 endfacet

 facet normal 0.695083 0.183018 0.695244
  outer loop
   vertex 154.396866 13.264200 659.258301
   vertex 154.078293 12.861761 659.682739
   vertex 154.394608 12.781238 659.387695
  endloop
 endfacet

 facet normal 0.695083 0.183018 0.695244
  outer loop
   vertex 154.080551 13.344725 659.553345
   vertex 154.078293 12.861761 659.682739
   vertex 154.396866 13.264200 659.258301
  endloop
 endfacet

 facet normal 0.242440 0.250012 0.937399
  outer loop
   vertex 153.651428 12.891235 659.785278
   vertex 154.078293 12.861761 659.682739
   vertex 154.080551 13.344725 659.553345
  endloop
 endfacet

 facet normal 0.242439 0.250013 0.937399
  outer loop
   vertex 154.080551 13.344725 659.553345
   vertex 153.653687 13.374198 659.655884
   vertex 153.651428 12.891235 659.785278
  endloop
 endfacet

 facet normal -0.275013 0.250012 0.928365
  outer loop
   vertex 153.651428 12.891235 659.785278
   vertex 153.653687 13.374198 659.655884
   vertex 153.228424 12.861761 659.667908
  endloop
 endfacet

 facet normal -0.275013 0.250012 0.928365
  outer loop
   vertex 153.228424 12.861761 659.667908
   vertex 153.653687 13.374198 659.655884
   vertex 153.230682 13.344725 659.538513
  endloop
 endfacet

 facet normal -0.718920 0.183018 0.670566
  outer loop
   vertex 153.230682 13.344725 659.538513
   vertex 152.922592 12.781238 659.362000
   vertex 153.228424 12.861761 659.667908
  endloop
 endfacet

 facet normal -0.718920 0.183018 0.670565
  outer loop
   vertex 152.924850 13.264200 659.232605
   vertex 152.922592 12.781238 659.362000
   vertex 153.230682 13.344725 659.538513
  endloop
 endfacet

 facet normal -0.970142 0.066989 0.233105
  outer loop
   vertex 152.815887 12.671240 658.949524
   vertex 152.922592 12.781238 659.362000
   vertex 152.924850 13.264200 659.232605
  endloop
 endfacet

 facet normal -0.970142 0.066989 0.233105
  outer loop
   vertex 152.924850 13.264200 659.232605
   vertex 152.818146 13.154203 658.820129
   vertex 152.815887 12.671240 658.949524
  endloop
 endfacet

 facet normal 0.695141 0.182921 0.695211
  outer loop
   vertex 153.425354 13.042131 658.412415
   vertex 153.239288 13.089499 658.585999
   vertex 153.237030 12.606535 658.715332
  endloop
 endfacet

 facet normal 0.961413 0.066961 0.266835
  outer loop
   vertex 153.237030 12.606535 658.715332
   vertex 153.239288 13.089499 658.585999
   vertex 153.168106 13.154203 658.826233
  endloop
 endfacet

 facet normal 0.961415 0.066962 0.266828
  outer loop
   vertex 153.168106 13.154203 658.826233
   vertex 153.165833 12.671240 658.955627
   vertex 153.237030 12.606535 658.715332
  endloop
 endfacet

 facet normal 0.970145 -0.067014 -0.233084
  outer loop
   vertex 153.230865 13.218907 659.068848
   vertex 153.165833 12.671240 658.955627
   vertex 153.168106 13.154203 658.826233
  endloop
 endfacet

 facet normal 0.970131 -0.067000 -0.233145
  outer loop
   vertex 153.228607 12.735944 659.198242
   vertex 153.165833 12.671240 658.955627
   vertex 153.230865 13.218907 659.068848
  endloop
 endfacet

 facet normal 0.718895 -0.183025 -0.670591
  outer loop
   vertex 153.230865 13.218907 659.068848
   vertex 153.410767 13.266274 659.248779
   vertex 153.228607 12.735944 659.198242
  endloop
 endfacet

 facet normal 0.718895 -0.183025 -0.670591
  outer loop
   vertex 153.228607 12.735944 659.198242
   vertex 153.410767 13.266274 659.248779
   vertex 153.408508 12.783311 659.378174
  endloop
 endfacet

 facet normal 0.275187 -0.249999 -0.928317
  outer loop
   vertex 153.408508 12.783311 659.378174
   vertex 153.410767 13.266274 659.248779
   vertex 153.659592 13.283612 659.317871
  endloop
 endfacet

 facet normal 0.275187 -0.249999 -0.928317
  outer loop
   vertex 153.659592 13.283612 659.317871
   vertex 153.657333 12.800649 659.447266
   vertex 153.408508 12.783311 659.378174
  endloop
 endfacet

 facet normal -0.242602 -0.250001 -0.937360
  outer loop
   vertex 153.910690 13.266274 659.257507
   vertex 153.657333 12.800649 659.447266
   vertex 153.659592 13.283612 659.317871
  endloop
 endfacet

 facet normal -0.242602 -0.250001 -0.937360
  outer loop
   vertex 153.908432 12.783311 659.386902
   vertex 153.657333 12.800649 659.447266
   vertex 153.910690 13.266274 659.257507
  endloop
 endfacet

 facet normal -0.695024 -0.183033 -0.695299
  outer loop
   vertex 153.910690 13.266274 659.257507
   vertex 154.096756 13.218907 659.083984
   vertex 153.908432 12.783311 659.386902
  endloop
 endfacet

 facet normal -0.695024 -0.183033 -0.695299
  outer loop
   vertex 153.908432 12.783311 659.386902
   vertex 154.096756 13.218907 659.083984
   vertex 154.094498 12.735944 659.213379
  endloop
 endfacet

 facet normal -0.961415 -0.066990 -0.266821
  outer loop
   vertex 154.094498 12.735944 659.213379
   vertex 154.096756 13.218907 659.083984
   vertex 154.167953 13.154202 658.843689
  endloop
 endfacet

 facet normal -0.961415 -0.066991 -0.266821
  outer loop
   vertex 154.167953 13.154202 658.843689
   vertex 154.165695 12.671240 658.973083
   vertex 154.094498 12.735944 659.213379
  endloop
 endfacet

 facet normal -0.718894 0.183025 0.670592
  outer loop
   vertex 129.504623 12.559170 658.124268
   vertex 129.684525 12.606536 658.304199
   vertex 129.686783 13.089499 658.174805
  endloop
 endfacet

 facet normal -0.970145 0.066986 0.233091
  outer loop
   vertex 129.686783 13.089499 658.174805
   vertex 129.684525 12.606536 658.304199
   vertex 129.747284 12.671241 658.546814
  endloop
 endfacet

 facet normal -0.970145 0.066986 0.233091
  outer loop
   vertex 129.747284 12.671241 658.546814
   vertex 129.749542 13.154204 658.417419
   vertex 129.686783 13.089499 658.174805
  endloop
 endfacet

 facet normal -0.961415 -0.066990 -0.266821
  outer loop
   vertex 129.676086 12.735946 658.787109
   vertex 129.749542 13.154204 658.417419
   vertex 129.747284 12.671241 658.546814
  endloop
 endfacet

 facet normal -0.961415 -0.066991 -0.266821
  outer loop
   vertex 129.678345 13.218908 658.657715
   vertex 129.749542 13.154204 658.417419
   vertex 129.676086 12.735946 658.787109
  endloop
 endfacet

 facet normal -0.695142 -0.183003 -0.695189
  outer loop
   vertex 129.676086 12.735946 658.787109
   vertex 129.490021 12.783313 658.960693
   vertex 129.678345 13.218908 658.657715
  endloop
 endfacet

 facet normal -0.695142 -0.183003 -0.695189
  outer loop
   vertex 129.678345 13.218908 658.657715
   vertex 129.490021 12.783313 658.960693
   vertex 129.492279 13.266275 658.831299
  endloop
 endfacet

 facet normal -0.242387 -0.250016 -0.937412
  outer loop
   vertex 129.492279 13.266275 658.831299
   vertex 129.490021 12.783313 658.960693
   vertex 129.238922 12.800650 659.020996
  endloop
 endfacet

 facet normal -0.242388 -0.250016 -0.937412
  outer loop
   vertex 129.238922 12.800650 659.020996
   vertex 129.241180 13.283613 658.891602
   vertex 129.492279 13.266275 658.831299
  endloop
 endfacet

 facet normal 0.274977 -0.250014 -0.928375
  outer loop
   vertex 128.990097 12.783312 658.951965
   vertex 129.241180 13.283613 658.891602
   vertex 129.238922 12.800650 659.020996
  endloop
 endfacet

 facet normal 0.274977 -0.250014 -0.928375
  outer loop
   vertex 128.992355 13.266275 658.822571
   vertex 129.241180 13.283613 658.891602
   vertex 128.990097 12.783312 658.951965
  endloop
 endfacet

 facet normal 0.719004 -0.182996 -0.670482
  outer loop
   vertex 128.990097 12.783312 658.951965
   vertex 128.810196 12.735946 658.771973
   vertex 128.992355 13.266275 658.822571
  endloop
 endfacet

 facet normal 0.718895 -0.182946 -0.670612
  outer loop
   vertex 128.992355 13.266275 658.822571
   vertex 128.810196 12.735946 658.771973
   vertex 128.812454 13.218908 658.642639
  endloop
 endfacet

 facet normal 0.970145 -0.066958 -0.233099
  outer loop
   vertex 128.812454 13.218908 658.642639
   vertex 128.810196 12.735946 658.771973
   vertex 128.747437 12.671241 658.529358
  endloop
 endfacet

 facet normal 0.970145 -0.066958 -0.233099
  outer loop
   vertex 128.747437 12.671241 658.529358
   vertex 128.749695 13.154204 658.400024
   vertex 128.812454 13.218908 658.642639
  endloop
 endfacet

 facet normal 0.961431 0.066945 0.266776
  outer loop
   vertex 128.820877 13.089499 658.159729
   vertex 128.749695 13.154204 658.400024
   vertex 128.747437 12.671241 658.529358
  endloop
 endfacet

endsolid