solid stl file generated from DOUG
 facet normal -0.863642 0.482948 -0.144511
  outer loop
   vertex 155.255676 -33.183422 486.868652
   vertex 155.247223 -33.053711 487.352661
   vertex 155.381927 -32.973804 486.814667
  endloop
 endfacet

 facet normal -0.863607 0.483016 -0.144492
  outer loop
   vertex 155.381927 -32.973804 486.814667
   vertex 155.247223 -33.053711 487.352661
   vertex 155.373489 -32.844093 487.298706
  endloop
 endfacet

 facet normal 0.004539 0.965929 -0.258767
  outer loop
   vertex 155.373489 -32.844093 487.298706
   vertex 155.632477 -32.973804 486.819061
   vertex 155.381927 -32.973804 486.814667
  endloop
 endfacet

 facet normal 0.004508 0.965925 -0.258783
  outer loop
   vertex 155.624023 -32.844093 487.303070
   vertex 155.632477 -32.973804 486.819061
   vertex 155.373489 -32.844093 487.298706
  endloop
 endfacet

 facet normal 0.868137 0.482990 -0.114276
  outer loop
   vertex 155.756775 -33.183422 486.877380
   vertex 155.632477 -32.973804 486.819061
   vertex 155.624023 -32.844093 487.303070
  endloop
 endfacet

 facet normal 0.868144 0.482980 -0.114266
  outer loop
   vertex 155.624023 -32.844093 487.303070
   vertex 155.748322 -33.053711 487.361420
   vertex 155.756775 -33.183422 486.877380
  endloop
 endfacet

 facet normal 0.863646 -0.482944 0.144501
  outer loop
   vertex 155.756775 -33.183422 486.877380
   vertex 155.748322 -33.053711 487.361420
   vertex 155.630524 -33.393044 486.931366
  endloop
 endfacet

 facet normal 0.863637 -0.482957 0.144513
  outer loop
   vertex 155.630524 -33.393044 486.931366
   vertex 155.748322 -33.053711 487.361420
   vertex 155.622070 -33.263332 487.415375
  endloop
 endfacet

 facet normal -0.004507 -0.965925 0.258783
  outer loop
   vertex 155.622070 -33.263332 487.415375
   vertex 155.379974 -33.393044 486.927002
   vertex 155.630524 -33.393044 486.931366
  endloop
 endfacet

 facet normal -0.004507 -0.965925 0.258783
  outer loop
   vertex 155.371521 -33.263332 487.411011
   vertex 155.379974 -33.393044 486.927002
   vertex 155.622070 -33.263332 487.415375
  endloop
 endfacet

 facet normal -0.868147 -0.482973 0.114271
  outer loop
   vertex 155.255676 -33.183422 486.868652
   vertex 155.379974 -33.393044 486.927002
   vertex 155.371521 -33.263332 487.411011
  endloop
 endfacet

 facet normal -0.868147 -0.482973 0.114271
  outer loop
   vertex 155.371521 -33.263332 487.411011
   vertex 155.247223 -33.053711 487.352661
   vertex 155.255676 -33.183422 486.868652
  endloop
 endfacet

 facet normal 0.868174 0.482928 -0.114259
  outer loop
   vertex 133.656387 -33.053711 486.975769
   vertex 133.664841 -33.183422 486.491760
   vertex 133.532104 -32.844090 486.917419
  endloop
 endfacet

 facet normal 0.868144 0.482971 -0.114302
  outer loop
   vertex 133.532104 -32.844090 486.917419
   vertex 133.664841 -33.183422 486.491760
   vertex 133.540543 -32.973804 486.433411
  endloop
 endfacet

 facet normal 0.004508 0.965923 -0.258790
  outer loop
   vertex 133.540543 -32.973804 486.433411
   vertex 133.281555 -32.844090 486.913055
   vertex 133.532104 -32.844090 486.917419
  endloop
 endfacet

 facet normal 0.004508 0.965923 -0.258790
  outer loop
   vertex 133.289993 -32.973804 486.429047
   vertex 133.281555 -32.844090 486.913055
   vertex 133.540543 -32.973804 486.433411
  endloop
 endfacet

 facet normal -0.863620 0.482992 -0.144499
  outer loop
   vertex 133.155289 -33.053711 486.967041
   vertex 133.281555 -32.844090 486.913055
   vertex 133.289993 -32.973804 486.429047
  endloop
 endfacet

 facet normal -0.863634 0.482965 -0.144506
  outer loop
   vertex 133.289993 -32.973804 486.429047
   vertex 133.163742 -33.183422 486.483002
   vertex 133.155289 -33.053711 486.967041
  endloop
 endfacet

 facet normal -0.868137 -0.482992 0.114269
  outer loop
   vertex 133.155289 -33.053711 486.967041
   vertex 133.163742 -33.183422 486.483002
   vertex 133.279587 -33.263329 487.025360
  endloop
 endfacet

 facet normal -0.868147 -0.482972 0.114275
  outer loop
   vertex 133.279587 -33.263329 487.025360
   vertex 133.163742 -33.183422 486.483002
   vertex 133.288040 -33.393044 486.541351
  endloop
 endfacet

 facet normal -0.004539 -0.965923 0.258789
  outer loop
   vertex 133.288040 -33.393044 486.541351
   vertex 133.530136 -33.263329 487.029755
   vertex 133.279587 -33.263329 487.025360
  endloop
 endfacet

 facet normal -0.004507 -0.965927 0.258775
  outer loop
   vertex 133.538589 -33.393044 486.545715
   vertex 133.530136 -33.263329 487.029755
   vertex 133.288040 -33.393044 486.541351
  endloop
 endfacet

 facet normal 0.863642 -0.482949 0.144506
  outer loop
   vertex 133.656387 -33.053711 486.975769
   vertex 133.530136 -33.263329 487.029755
   vertex 133.538589 -33.393044 486.545715
  endloop
 endfacet

 facet normal 0.863637 -0.482957 0.144513
  outer loop
   vertex 133.538589 -33.393044 486.545715
   vertex 133.664841 -33.183422 486.491760
   vertex 133.656387 -33.053711 486.975769
  endloop
 endfacet

 facet normal 0.016822 -0.258727 -0.965804
  outer loop
   vertex 133.289993 -32.973804 486.429047
   vertex 133.540543 -32.973804 486.433411
   vertex 133.414291 -33.183422 486.487366
  endloop
 endfacet

 facet normal 0.016939 -0.258793 -0.965784
  outer loop
   vertex 133.414291 -33.183422 486.487366
   vertex 133.540543 -32.973804 486.433411
   vertex 133.664841 -33.183422 486.491760
  endloop
 endfacet

 facet normal 0.016939 -0.258789 -0.965785
  outer loop
   vertex 133.664841 -33.183422 486.491760
   vertex 133.538589 -33.393044 486.545715
   vertex 133.414291 -33.183422 486.487366
  endloop
 endfacet

 facet normal 0.016822 -0.258854 -0.965770
  outer loop
   vertex 155.379974 -33.393044 486.927002
   vertex 155.255676 -33.183422 486.868652
   vertex 155.506226 -33.183422 486.873016
  endloop
 endfacet

 facet normal 0.016822 -0.258859 -0.965769
  outer loop
   vertex 155.506226 -33.183422 486.873016
   vertex 155.255676 -33.183422 486.868652
   vertex 155.381927 -32.973804 486.814667
  endloop
 endfacet

 facet normal 0.016939 -0.258793 -0.965784
  outer loop
   vertex 155.381927 -32.973804 486.814667
   vertex 155.632477 -32.973804 486.819061
   vertex 155.506226 -33.183422 486.873016
  endloop
 endfacet

 facet normal 0.016822 -0.258727 -0.965804
  outer loop
   vertex 155.632477 -32.973804 486.819061
   vertex 155.756775 -33.183422 486.877380
   vertex 155.506226 -33.183422 486.873016
  endloop
 endfacet

 facet normal 0.016822 -0.258854 -0.965770
  outer loop
   vertex 155.506226 -33.183422 486.873016
   vertex 155.756775 -33.183422 486.877380
   vertex 155.630524 -33.393044 486.931366
  endloop
 endfacet

 facet normal 0.016822 -0.258854 -0.965770
  outer loop
   vertex 155.630524 -33.393044 486.931366
   vertex 155.379974 -33.393044 486.927002
   vertex 155.506226 -33.183422 486.873016
  endloop
 endfacet

 facet normal 0.016822 -0.258854 -0.965770
  outer loop
   vertex 133.538589 -33.393044 486.545715
   vertex 133.288040 -33.393044 486.541351
   vertex 133.414291 -33.183422 486.487366
  endloop
 endfacet

 facet normal 0.016822 -0.258854 -0.965770
  outer loop
   vertex 133.414291 -33.183422 486.487366
   vertex 133.288040 -33.393044 486.541351
   vertex 133.163742 -33.183422 486.483002
  endloop
 endfacet

 facet normal 0.016822 -0.258727 -0.965804
  outer loop
   vertex 133.163742 -33.183422 486.483002
   vertex 133.289993 -32.973804 486.429047
   vertex 133.414291 -33.183422 486.487366
  endloop
 endfacet

 facet normal 0.016851 -0.258835 -0.965775
  outer loop
   vertex 154.012726 -33.260586 488.974518
   vertex 154.018372 -32.052986 488.650970
   vertex 157.003662 -33.260586 489.026703
  endloop
 endfacet

 facet normal 0.016861 -0.258812 -0.965781
  outer loop
   vertex 157.003662 -33.260586 489.026703
   vertex 154.018372 -32.052986 488.650970
   vertex 157.009308 -32.052986 488.703186
  endloop
 endfacet

 facet normal 0.999848 0.000001 0.017451
  outer loop
   vertex 157.009308 -32.052986 488.703186
   vertex 156.980255 -32.901196 490.367767
   vertex 157.003662 -33.260586 489.026703
  endloop
 endfacet

 facet normal 0.999848 0.000001 0.017451
  outer loop
   vertex 156.985901 -31.693596 490.044250
   vertex 156.980255 -32.901196 490.367767
   vertex 157.009308 -32.052986 488.703186
  endloop
 endfacet

 facet normal -0.016861 0.258812 0.965781
  outer loop
   vertex 153.994965 -31.693596 489.992035
   vertex 156.980255 -32.901196 490.367767
   vertex 156.985901 -31.693596 490.044250
  endloop
 endfacet

 facet normal 0.004518 0.965926 -0.258779
  outer loop
   vertex 156.985901 -31.693596 490.044250
   vertex 154.018372 -32.052986 488.650970
   vertex 153.994965 -31.693596 489.992035
  endloop
 endfacet

 facet normal -0.999848 0.000011 -0.017454
  outer loop
   vertex 153.994965 -31.693596 489.992035
   vertex 154.018372 -32.052986 488.650970
   vertex 153.989304 -32.901196 490.315582
  endloop
 endfacet

 facet normal -0.999848 -0.000004 -0.017462
  outer loop
   vertex 153.989304 -32.901196 490.315582
   vertex 154.018372 -32.052986 488.650970
   vertex 154.012726 -33.260586 488.974518
  endloop
 endfacet

 facet normal -0.004515 -0.965926 0.258779
  outer loop
   vertex 154.012726 -33.260586 488.974518
   vertex 156.980255 -32.901196 490.367767
   vertex 153.989304 -32.901196 490.315582
  endloop
 endfacet

 facet normal -0.004515 -0.965926 0.258779
  outer loop
   vertex 157.003662 -33.260586 489.026703
   vertex 156.980255 -32.901196 490.367767
   vertex 154.012726 -33.260586 488.974518
  endloop
 endfacet

 facet normal -0.999848 -0.000001 -0.017451
  outer loop
   vertex 131.819183 -32.901196 489.928558
   vertex 131.824829 -31.693594 489.605042
   vertex 131.842590 -33.260586 488.587494
  endloop
 endfacet

 facet normal -0.999847 0.000008 -0.017465
  outer loop
   vertex 131.842590 -33.260586 488.587494
   vertex 131.824829 -31.693594 489.605042
   vertex 131.848251 -32.052986 488.263977
  endloop
 endfacet

 facet normal 0.016860 -0.258812 -0.965780
  outer loop
   vertex 131.848251 -32.052986 488.263977
   vertex 134.833542 -33.260586 488.639709
   vertex 131.842590 -33.260586 488.587494
  endloop
 endfacet

 facet normal 0.016861 -0.258812 -0.965781
  outer loop
   vertex 134.839188 -32.052986 488.316193
   vertex 134.833542 -33.260586 488.639709
   vertex 131.848251 -32.052986 488.263977
  endloop
 endfacet

 facet normal 0.999848 0.000001 0.017451
  outer loop
   vertex 134.815781 -31.693594 489.657257
   vertex 134.833542 -33.260586 488.639709
   vertex 134.839188 -32.052986 488.316193
  endloop
 endfacet

 facet normal 0.004518 0.965926 -0.258780
  outer loop
   vertex 134.839188 -32.052986 488.316193
   vertex 131.824829 -31.693594 489.605042
   vertex 134.815781 -31.693594 489.657257
  endloop
 endfacet

 facet normal -0.016860 0.258812 0.965781
  outer loop
   vertex 134.815781 -31.693594 489.657257
   vertex 131.824829 -31.693594 489.605042
   vertex 134.810135 -32.901196 489.980774
  endloop
 endfacet

 facet normal -0.016860 0.258812 0.965781
  outer loop
   vertex 134.810135 -32.901196 489.980774
   vertex 131.824829 -31.693594 489.605042
   vertex 131.819183 -32.901196 489.928558
  endloop
 endfacet

 facet normal -0.004518 -0.965926 0.258779
  outer loop
   vertex 131.819183 -32.901196 489.928558
   vertex 134.833542 -33.260586 488.639709
   vertex 134.810135 -32.901196 489.980774
  endloop
 endfacet

 facet normal -0.004518 -0.965926 0.258779
  outer loop
   vertex 131.842590 -33.260586 488.587494
   vertex 134.833542 -33.260586 488.639709
   vertex 131.819183 -32.901196 489.928558
  endloop
 endfacet

 facet normal 0.004518 0.965926 -0.258780
  outer loop
   vertex 134.839188 -32.052986 488.316193
   vertex 131.848251 -32.052986 488.263977
   vertex 131.824829 -31.693594 489.605042
  endloop
 endfacet

 facet normal 0.004518 0.965926 -0.258779
  outer loop
   vertex 157.009308 -32.052986 488.703186
   vertex 154.018372 -32.052986 488.650970
   vertex 156.985901 -31.693596 490.044250
  endloop
 endfacet

 facet normal 0.999848 0.000001 0.017451
  outer loop
   vertex 134.815781 -31.693594 489.657257
   vertex 134.810135 -32.901196 489.980774
   vertex 134.833542 -33.260586 488.639709
  endloop
 endfacet

 facet normal -0.016850 0.258835 0.965775
  outer loop
   vertex 153.994965 -31.693596 489.992035
   vertex 153.989304 -32.901196 490.315582
   vertex 156.980255 -32.901196 490.367767
  endloop
 endfacet

 facet normal 0.016860 -0.258706 -0.965809
  outer loop
   vertex 154.276108 -34.131916 486.344604
   vertex 134.662598 -34.026039 485.973846
   vertex 154.276611 -34.026043 486.316254
  endloop
 endfacet

 facet normal 0.013648 0.623420 -0.781768
  outer loop
   vertex 154.276611 -34.026043 486.316254
   vertex 134.662598 -34.026039 485.973846
   vertex 154.275024 -33.912464 486.406799
  endloop
 endfacet

 facet normal 0.013877 0.606967 -0.794606
  outer loop
   vertex 135.417557 -32.647701 485.556396
   vertex 134.257919 -32.564297 485.599854
   vertex 135.416458 -32.564297 485.620087
  endloop
 endfacet

 facet normal 0.004519 0.965927 -0.258774
  outer loop
   vertex 135.416458 -32.564297 485.620087
   vertex 134.257919 -32.564297 485.599854
   vertex 134.243729 -32.346470 486.412689
  endloop
 endfacet

 facet normal -0.004519 -0.965925 0.258783
  outer loop
   vertex 154.672394 -33.952827 487.199768
   vertex 153.528046 -34.170654 486.366730
   vertex 154.686584 -34.170654 486.386963
  endloop
 endfacet

 facet normal 0.006718 -0.923020 -0.384692
  outer loop
   vertex 154.686584 -34.170654 486.386963
   vertex 153.528046 -34.170654 486.366730
   vertex 153.529739 -34.130272 486.269867
  endloop
 endfacet

 facet normal 0.006376 -0.930887 -0.365253
  outer loop
   vertex 134.666336 -32.774380 485.759521
   vertex 134.668701 -32.721306 485.624298
   vertex 154.282715 -32.721306 485.966705
  endloop
 endfacet

 facet normal 0.016859 -0.258963 -0.965740
  outer loop
   vertex 154.282715 -32.721306 485.966705
   vertex 134.668701 -32.721306 485.624298
   vertex 154.283203 -32.615433 485.938324
  endloop
 endfacet

 facet normal 0.014117 -0.588128 -0.808644
  outer loop
   vertex 134.649292 -33.900578 486.735962
   vertex 154.263306 -33.900578 487.078369
   vertex 134.648926 -33.929623 486.757080
  endloop
 endfacet

 facet normal 0.014117 -0.588128 -0.808644
  outer loop
   vertex 134.648926 -33.929623 486.757080
   vertex 154.263306 -33.900578 487.078369
   vertex 154.262939 -33.929623 487.099487
  endloop
 endfacet

 facet normal -0.004518 -0.965921 0.258797
  outer loop
   vertex 154.262939 -33.929623 487.099487
   vertex 134.647736 -33.911343 486.825287
   vertex 134.648926 -33.929623 486.757080
  endloop
 endfacet

 facet normal -0.999847 -0.000020 -0.017497
  outer loop
   vertex 134.250397 -34.170654 486.030212
   vertex 134.251205 -33.936974 485.983734
   vertex 134.252090 -34.130272 485.933380
  endloop
 endfacet

 facet normal -0.999847 -0.000019 -0.017501
  outer loop
   vertex 134.252090 -34.130272 485.933380
   vertex 134.251205 -33.936974 485.983734
   vertex 134.252808 -33.976723 485.892242
  endloop
 endfacet

 facet normal 0.016841 -0.258822 -0.965778
  outer loop
   vertex 134.252808 -33.976723 485.892242
   vertex 135.410629 -34.130272 485.953583
   vertex 134.252090 -34.130272 485.933380
  endloop
 endfacet

 facet normal 0.999848 0.000036 0.017440
  outer loop
   vertex 154.694092 -32.564297 485.956604
   vertex 154.692764 -32.789913 486.033173
   vertex 154.695206 -32.647701 485.892914
  endloop
 endfacet

 facet normal 0.999849 -0.000010 0.017394
  outer loop
   vertex 154.695206 -32.647701 485.892914
   vertex 154.692764 -32.789913 486.033173
   vertex 154.694489 -32.801250 485.934052
  endloop
 endfacet

 facet normal 0.016867 -0.258822 -0.965778
  outer loop
   vertex 154.694489 -32.801250 485.934052
   vertex 153.536667 -32.647701 485.872681
   vertex 154.695206 -32.647701 485.892914
  endloop
 endfacet

 facet normal 0.999849 -0.000010 0.017394
  outer loop
   vertex 135.416840 -32.801250 485.597534
   vertex 135.417557 -32.647701 485.556396
   vertex 135.415115 -32.789909 485.696655
  endloop
 endfacet

 facet normal 0.999850 -0.000067 0.017335
  outer loop
   vertex 135.415115 -32.789909 485.696655
   vertex 135.417557 -32.647701 485.556396
   vertex 135.416458 -32.564297 485.620087
  endloop
 endfacet

 facet normal 0.999848 -0.000024 0.017462
  outer loop
   vertex 135.416458 -32.564297 485.620087
   vertex 135.402267 -32.346470 486.432922
   vertex 135.415115 -32.789909 485.696655
  endloop
 endfacet

 facet normal 0.004519 0.965927 -0.258774
  outer loop
   vertex 134.243729 -32.346470 486.412689
   vertex 135.402267 -32.346470 486.432922
   vertex 135.416458 -32.564297 485.620087
  endloop
 endfacet

 facet normal 0.006377 -0.930859 -0.365324
  outer loop
   vertex 154.282715 -32.721306 485.966705
   vertex 154.280350 -32.774380 486.101898
   vertex 134.666336 -32.774380 485.759521
  endloop
 endfacet

 facet normal 0.016858 -0.258818 -0.965779
  outer loop
   vertex 134.666336 -32.774380 485.759521
   vertex 154.280350 -32.774380 486.101898
   vertex 154.275024 -33.912464 486.406799
  endloop
 endfacet

 facet normal 0.016858 -0.258819 -0.965779
  outer loop
   vertex 154.275024 -33.912464 486.406799
   vertex 134.661011 -33.912460 486.064423
   vertex 134.666336 -32.774380 485.759521
  endloop
 endfacet

 facet normal 0.013645 0.623549 -0.781665
  outer loop
   vertex 134.662598 -34.026039 485.973846
   vertex 134.661011 -33.912460 486.064423
   vertex 154.275024 -33.912464 486.406799
  endloop
 endfacet

 facet normal -0.004513 -0.965927 0.258774
  outer loop
   vertex 154.672394 -33.952827 487.199768
   vertex 153.513855 -33.952827 487.179565
   vertex 153.528046 -34.170654 486.366730
  endloop
 endfacet

 facet normal -0.999848 -0.000011 -0.017453
  outer loop
   vertex 153.528046 -34.170654 486.366730
   vertex 153.513855 -33.952827 487.179565
   vertex 153.528854 -33.936974 486.320251
  endloop
 endfacet

 facet normal -0.999847 -0.000019 -0.017491
  outer loop
   vertex 153.528854 -33.936974 486.320251
   vertex 153.529739 -34.130272 486.269867
   vertex 153.528046 -34.170654 486.366730
  endloop
 endfacet

 facet normal -0.999847 -0.000017 -0.017496
  outer loop
   vertex 153.530457 -33.976723 486.228729
   vertex 153.529739 -34.130272 486.269867
   vertex 153.528854 -33.936974 486.320251
  endloop
 endfacet

 facet normal -0.017357 -0.105395 0.994279
  outer loop
   vertex 154.273651 -34.059372 486.485840
   vertex 134.659637 -34.059372 486.143433
   vertex 154.273712 -34.095081 486.482056
  endloop
 endfacet

 facet normal -0.017357 -0.104555 0.994368
  outer loop
   vertex 154.273712 -34.095081 486.482056
   vertex 134.659637 -34.059372 486.143433
   vertex 134.659698 -34.095081 486.139679
  endloop
 endfacet

 facet normal -0.004517 -0.965927 0.258774
  outer loop
   vertex 134.659698 -34.095081 486.139679
   vertex 154.276108 -34.131916 486.344604
   vertex 154.273712 -34.095081 486.482056
  endloop
 endfacet

 facet normal -0.004517 -0.965927 0.258774
  outer loop
   vertex 134.662094 -34.131916 486.002228
   vertex 154.276108 -34.131916 486.344604
   vertex 134.659698 -34.095081 486.139679
  endloop
 endfacet

 facet normal 0.016858 -0.258957 -0.965742
  outer loop
   vertex 134.662598 -34.026039 485.973846
   vertex 154.276108 -34.131916 486.344604
   vertex 134.662094 -34.131916 486.002228
  endloop
 endfacet

 facet normal 0.016848 -0.258811 -0.965781
  outer loop
   vertex 156.069397 -33.597462 487.491608
   vertex 154.426529 -32.520515 487.174347
   vertex 156.074432 -32.520515 487.203094
  endloop
 endfacet

 facet normal 0.004514 0.965926 -0.258778
  outer loop
   vertex 156.074432 -32.520515 487.203094
   vertex 154.426529 -32.520515 487.174347
   vertex 156.048462 -32.121666 488.691406
  endloop
 endfacet

 facet normal 0.999848 -0.000000 0.017447
  outer loop
   vertex 156.048462 -32.121666 488.691406
   vertex 156.043427 -33.198612 488.979950
   vertex 156.074432 -32.520515 487.203094
  endloop
 endfacet

 facet normal -0.016848 0.258836 0.965774
  outer loop
   vertex 154.400543 -32.121666 488.662659
   vertex 156.043427 -33.198612 488.979950
   vertex 156.048462 -32.121666 488.691406
  endloop
 endfacet

 facet normal -0.016866 0.258811 0.965781
  outer loop
   vertex 154.395508 -33.198612 488.951172
   vertex 156.043427 -33.198612 488.979950
   vertex 154.400543 -32.121666 488.662659
  endloop
 endfacet

 facet normal -0.999848 -0.000002 -0.017457
  outer loop
   vertex 154.400543 -32.121666 488.662659
   vertex 154.426529 -32.520515 487.174347
   vertex 154.395508 -33.198612 488.951172
  endloop
 endfacet

 facet normal -0.999848 -0.000002 -0.017457
  outer loop
   vertex 154.395508 -33.198612 488.951172
   vertex 154.426529 -32.520515 487.174347
   vertex 154.421494 -33.597462 487.462860
  endloop
 endfacet

 facet normal 0.016848 -0.258811 -0.965781
  outer loop
   vertex 154.421494 -33.597462 487.462860
   vertex 154.426529 -32.520515 487.174347
   vertex 156.069397 -33.597462 487.491608
  endloop
 endfacet

 facet normal -0.004514 -0.965928 0.258773
  outer loop
   vertex 156.069397 -33.597462 487.491608
   vertex 156.043427 -33.198612 488.979950
   vertex 154.421494 -33.597462 487.462860
  endloop
 endfacet

 facet normal 0.999848 -0.000001 0.017447
  outer loop
   vertex 156.074432 -32.520515 487.203094
   vertex 156.043427 -33.198612 488.979950
   vertex 156.069397 -33.597462 487.491608
  endloop
 endfacet

 facet normal -0.004519 -0.965926 0.258780
  outer loop
   vertex 132.829865 -33.597462 487.085938
   vertex 134.477783 -33.597462 487.114716
   vertex 132.803894 -33.198608 488.574249
  endloop
 endfacet

 facet normal -0.004519 -0.965926 0.258780
  outer loop
   vertex 132.803894 -33.198608 488.574249
   vertex 134.477783 -33.597462 487.114716
   vertex 134.451797 -33.198608 488.603027
  endloop
 endfacet

 facet normal -0.016866 0.258811 0.965781
  outer loop
   vertex 134.451797 -33.198608 488.603027
   vertex 132.808929 -32.121662 488.285736
   vertex 132.803894 -33.198608 488.574249
  endloop
 endfacet

 facet normal -0.016865 0.258812 0.965781
  outer loop
   vertex 134.456833 -32.121666 488.314514
   vertex 132.808929 -32.121662 488.285736
   vertex 134.451797 -33.198608 488.603027
  endloop
 endfacet

 facet normal 0.004521 0.965926 -0.258778
  outer loop
   vertex 134.482819 -32.520515 486.826202
   vertex 132.808929 -32.121662 488.285736
   vertex 134.456833 -32.121666 488.314514
  endloop
 endfacet

 facet normal 0.999848 0.000002 0.017457
  outer loop
   vertex 134.456833 -32.121666 488.314514
   vertex 134.477783 -33.597462 487.114716
   vertex 134.482819 -32.520515 486.826202
  endloop
 endfacet

 facet normal 0.016866 -0.258811 -0.965781
  outer loop
   vertex 134.482819 -32.520515 486.826202
   vertex 134.477783 -33.597462 487.114716
   vertex 132.834900 -32.520515 486.797424
  endloop
 endfacet

 facet normal 0.016866 -0.258811 -0.965781
  outer loop
   vertex 132.834900 -32.520515 486.797424
   vertex 134.477783 -33.597462 487.114716
   vertex 132.829865 -33.597462 487.085938
  endloop
 endfacet

 facet normal -0.999848 0.000001 -0.017447
  outer loop
   vertex 132.829865 -33.597462 487.085938
   vertex 132.808929 -32.121662 488.285736
   vertex 132.834900 -32.520515 486.797424
  endloop
 endfacet

 facet normal -0.999848 0.000001 -0.017447
  outer loop
   vertex 132.803894 -33.198608 488.574249
   vertex 132.808929 -32.121662 488.285736
   vertex 132.829865 -33.597462 487.085938
  endloop
 endfacet

 facet normal -0.016844 0.258828 0.965777
  outer loop
   vertex 157.501984 -32.658337 487.901733
   vertex 157.152039 -32.658337 487.895630
   vertex 157.149780 -33.141300 488.025024
  endloop
 endfacet

 facet normal 0.016844 -0.258828 -0.965777
  outer loop
   vertex 157.149780 -33.141300 488.025024
   vertex 157.152039 -32.658337 487.895630
   vertex 157.325882 -32.899818 487.963379
  endloop
 endfacet

 facet normal 0.016844 -0.258828 -0.965777
  outer loop
   vertex 157.325882 -32.899818 487.963379
   vertex 157.499725 -33.141300 488.031128
   vertex 157.149780 -33.141300 488.025024
  endloop
 endfacet

 facet normal 0.016844 -0.258828 -0.965777
  outer loop
   vertex 157.501984 -32.658337 487.901733
   vertex 157.499725 -33.141300 488.031128
   vertex 157.325882 -32.899818 487.963379
  endloop
 endfacet

 facet normal 0.999848 -0.000003 0.017440
  outer loop
   vertex 157.482880 -32.882481 488.996918
   vertex 157.499725 -33.141300 488.031128
   vertex 157.501984 -32.658337 487.901733
  endloop
 endfacet

 facet normal 0.999848 -0.000003 0.017440
  outer loop
   vertex 157.501984 -32.658337 487.901733
   vertex 157.485138 -32.399517 488.867523
   vertex 157.482880 -32.882481 488.996918
  endloop
 endfacet

 facet normal -0.016871 0.258828 0.965776
  outer loop
   vertex 157.482880 -32.882481 488.996918
   vertex 157.485138 -32.399517 488.867523
   vertex 155.783127 -32.882481 488.967224
  endloop
 endfacet

 facet normal -0.016854 0.258771 0.965792
  outer loop
   vertex 155.783127 -32.882481 488.967224
   vertex 157.485138 -32.399517 488.867523
   vertex 155.785385 -32.399517 488.837860
  endloop
 endfacet

 facet normal -0.999848 -0.000000 -0.017455
  outer loop
   vertex 155.785385 -32.399517 488.837860
   vertex 155.802246 -32.658337 487.872070
   vertex 155.783127 -32.882481 488.967224
  endloop
 endfacet

 facet normal 0.004513 0.965926 -0.258777
  outer loop
   vertex 156.214951 -32.593632 488.120789
   vertex 155.802246 -32.658337 487.872070
   vertex 155.785385 -32.399517 488.837860
  endloop
 endfacet

 facet normal 0.004513 0.965926 -0.258778
  outer loop
   vertex 156.152191 -32.658337 487.878174
   vertex 155.802246 -32.658337 487.872070
   vertex 156.214951 -32.593632 488.120789
  endloop
 endfacet

 facet normal -0.004520 -0.965925 0.258781
  outer loop
   vertex 132.660187 -33.076591 487.839050
   vertex 133.081329 -33.141296 487.604889
   vertex 133.064468 -32.882481 488.570648
  endloop
 endfacet

 facet normal 0.999848 0.000000 0.017456
  outer loop
   vertex 133.064468 -32.882481 488.570648
   vertex 133.081329 -33.141296 487.604889
   vertex 133.066727 -32.399517 488.441284
  endloop
 endfacet

 facet normal -0.016854 0.258771 0.965792
  outer loop
   vertex 133.066727 -32.399517 488.441284
   vertex 131.364716 -32.882481 488.540985
   vertex 133.064468 -32.882481 488.570648
  endloop
 endfacet

 facet normal -0.016871 0.258828 0.965776
  outer loop
   vertex 131.366974 -32.399517 488.411591
   vertex 131.364716 -32.882481 488.540985
   vertex 133.066727 -32.399517 488.441284
  endloop
 endfacet

 facet normal -0.999848 -0.000001 -0.017455
  outer loop
   vertex 131.381577 -33.141296 487.575195
   vertex 131.364716 -32.882481 488.540985
   vertex 131.366974 -32.399517 488.411591
  endloop
 endfacet

 facet normal -0.999848 -0.000000 -0.017456
  outer loop
   vertex 131.366974 -32.399517 488.411591
   vertex 131.383835 -32.658333 487.445831
   vertex 131.381577 -33.141296 487.575195
  endloop
 endfacet

 facet normal 0.016929 -0.258771 -0.965790
  outer loop
   vertex 131.381577 -33.141296 487.575195
   vertex 131.383835 -32.658333 487.445831
   vertex 131.557678 -32.899815 487.513580
  endloop
 endfacet

 facet normal 0.016844 -0.258828 -0.965777
  outer loop
   vertex 131.557678 -32.899815 487.513580
   vertex 131.383835 -32.658333 487.445831
   vertex 131.733780 -32.658333 487.451935
  endloop
 endfacet

 facet normal 0.016844 -0.258828 -0.965777
  outer loop
   vertex 131.733780 -32.658333 487.451935
   vertex 131.731522 -33.141296 487.581329
   vertex 131.557678 -32.899815 487.513580
  endloop
 endfacet

 facet normal -0.016929 0.258828 0.965775
  outer loop
   vertex 131.381577 -33.141296 487.575195
   vertex 131.731522 -33.141296 487.581329
   vertex 131.733780 -32.658333 487.451935
  endloop
 endfacet

 facet normal 0.016929 -0.258771 -0.965790
  outer loop
   vertex 131.557678 -32.899815 487.513580
   vertex 131.731522 -33.141296 487.581329
   vertex 131.381577 -33.141296 487.575195
  endloop
 endfacet

 facet normal 0.016859 -0.258695 -0.965812
  outer loop
   vertex 134.668701 -32.721306 485.624298
   vertex 134.669189 -32.615429 485.595947
   vertex 154.283203 -32.615433 485.938324
  endloop
 endfacet

 facet normal 0.004517 0.965927 -0.258774
  outer loop
   vertex 154.283203 -32.615433 485.938324
   vertex 134.669189 -32.615429 485.595947
   vertex 134.666794 -32.578594 485.733398
  endloop
 endfacet

 facet normal 0.004517 0.965927 -0.258774
  outer loop
   vertex 134.666794 -32.578594 485.733398
   vertex 154.280807 -32.578598 486.075775
   vertex 154.283203 -32.615433 485.938324
  endloop
 endfacet

 facet normal -0.014115 0.588128 0.808644
  outer loop
   vertex 134.666428 -32.607639 485.754517
   vertex 154.280807 -32.578598 486.075775
   vertex 134.666794 -32.578594 485.733398
  endloop
 endfacet

 facet normal -0.014115 0.588179 0.808608
  outer loop
   vertex 154.280441 -32.607639 486.096893
   vertex 154.280807 -32.578598 486.075775
   vertex 134.666428 -32.607639 485.754517
  endloop
 endfacet

 facet normal 0.004517 0.965925 -0.258783
  outer loop
   vertex 134.666428 -32.607639 485.754517
   vertex 134.656082 -32.448845 486.347046
   vertex 154.280441 -32.607639 486.096893
  endloop
 endfacet

 facet normal 0.004517 0.965926 -0.258778
  outer loop
   vertex 154.280441 -32.607639 486.096893
   vertex 134.656082 -32.448845 486.347046
   vertex 154.270096 -32.448849 486.689423
  endloop
 endfacet

 facet normal 0.017357 0.104555 -0.994368
  outer loop
   vertex 154.270096 -32.448849 486.689423
   vertex 134.656082 -32.448845 486.347046
   vertex 134.656021 -32.413136 486.350800
  endloop
 endfacet

 facet normal 0.017357 0.105391 -0.994279
  outer loop
   vertex 134.656021 -32.413136 486.350800
   vertex 154.270020 -32.413136 486.693207
   vertex 154.270096 -32.448849 486.689423
  endloop
 endfacet

 facet normal 0.004517 0.965935 -0.258746
  outer loop
   vertex 134.654831 -32.394859 486.419006
   vertex 154.270020 -32.413136 486.693207
   vertex 134.656021 -32.413136 486.350800
  endloop
 endfacet

 facet normal 0.004518 0.965906 -0.258854
  outer loop
   vertex 154.268829 -32.394859 486.761383
   vertex 154.270020 -32.413136 486.693207
   vertex 134.654831 -32.394859 486.419006
  endloop
 endfacet

 facet normal -0.016858 0.258820 0.965778
  outer loop
   vertex 134.654831 -32.394859 486.419006
   vertex 134.647736 -33.911343 486.825287
   vertex 154.268829 -32.394859 486.761383
  endloop
 endfacet

 facet normal -0.016858 0.258819 0.965779
  outer loop
   vertex 154.268829 -32.394859 486.761383
   vertex 134.647736 -33.911343 486.825287
   vertex 154.261749 -33.911346 487.167664
  endloop
 endfacet

 facet normal -0.004519 -0.965906 0.258854
  outer loop
   vertex 154.261749 -33.911346 487.167664
   vertex 134.647736 -33.911343 486.825287
   vertex 154.262939 -33.929623 487.099487
  endloop
 endfacet

 facet normal -0.004518 -0.965924 0.258785
  outer loop
   vertex 156.212692 -33.076595 488.250183
   vertex 155.783127 -32.882481 488.967224
   vertex 155.799988 -33.141300 488.001465
  endloop
 endfacet

 facet normal -0.999848 -0.000001 -0.017456
  outer loop
   vertex 155.799988 -33.141300 488.001465
   vertex 155.783127 -32.882481 488.967224
   vertex 155.802246 -32.658337 487.872070
  endloop
 endfacet

 facet normal 0.016844 -0.258828 -0.965777
  outer loop
   vertex 155.802246 -32.658337 487.872070
   vertex 156.149933 -33.141300 488.007568
   vertex 155.799988 -33.141300 488.001465
  endloop
 endfacet

 facet normal 0.016844 -0.258828 -0.965777
  outer loop
   vertex 156.152191 -32.658337 487.878174
   vertex 156.149933 -33.141300 488.007568
   vertex 155.802246 -32.658337 487.872070
  endloop
 endfacet

 facet normal -0.016844 0.258828 0.965777
  outer loop
   vertex 155.802246 -32.658337 487.872070
   vertex 156.149933 -33.141300 488.007568
   vertex 156.152191 -32.658337 487.878174
  endloop
 endfacet

 facet normal 0.004514 0.965923 -0.258792
  outer loop
   vertex 156.152191 -32.658337 487.878174
   vertex 156.223389 -32.723042 487.637909
   vertex 155.802246 -32.658337 487.872070
  endloop
 endfacet

 facet normal 0.004528 0.965929 -0.258768
  outer loop
   vertex 155.802246 -32.658337 487.872070
   vertex 156.223389 -32.723042 487.637909
   vertex 155.923279 -32.768333 487.463593
  endloop
 endfacet

 facet normal 0.004529 0.965928 -0.258770
  outer loop
   vertex 155.923279 -32.768333 487.463593
   vertex 156.223389 -32.723042 487.637909
   vertex 156.409454 -32.770409 487.464355
  endloop
 endfacet

 facet normal 0.004529 0.965929 -0.258769
  outer loop
   vertex 156.409454 -32.770409 487.464355
   vertex 156.239594 -32.848858 487.168549
   vertex 155.923279 -32.768333 487.463593
  endloop
 endfacet

 facet normal 0.004520 0.965930 -0.258764
  outer loop
   vertex 156.660553 -32.787746 487.404022
   vertex 156.239594 -32.848858 487.168549
   vertex 156.409454 -32.770409 487.464355
  endloop
 endfacet

 facet normal 0.004516 0.965932 -0.258757
  outer loop
   vertex 156.666443 -32.878330 487.065979
   vertex 156.239594 -32.848858 487.168549
   vertex 156.660553 -32.787746 487.404022
  endloop
 endfacet

 facet normal 0.004513 0.965932 -0.258757
  outer loop
   vertex 156.660553 -32.787746 487.404022
   vertex 156.909378 -32.770409 487.473083
   vertex 156.666443 -32.878330 487.065979
  endloop
 endfacet

 facet normal 0.004516 0.965931 -0.258759
  outer loop
   vertex 156.666443 -32.878330 487.065979
   vertex 156.909378 -32.770409 487.473083
   vertex 157.089462 -32.848858 487.183380
  endloop
 endfacet

 facet normal 0.004492 0.965928 -0.258773
  outer loop
   vertex 157.089462 -32.848858 487.183380
   vertex 156.909378 -32.770409 487.473083
   vertex 157.089279 -32.723042 487.653015
  endloop
 endfacet

 facet normal 0.004512 0.965928 -0.258773
  outer loop
   vertex 157.089279 -32.723042 487.653015
   vertex 157.395294 -32.768333 487.489288
   vertex 157.089462 -32.848858 487.183380
  endloop
 endfacet

 facet normal 0.004509 0.965927 -0.258777
  outer loop
   vertex 157.152039 -32.658337 487.895630
   vertex 157.395294 -32.768333 487.489288
   vertex 157.089279 -32.723042 487.653015
  endloop
 endfacet

 facet normal 0.004513 0.965927 -0.258775
  outer loop
   vertex 157.501984 -32.658337 487.901733
   vertex 157.395294 -32.768333 487.489288
   vertex 157.152039 -32.658337 487.895630
  endloop
 endfacet

 facet normal 0.004514 0.965923 -0.258792
  outer loop
   vertex 157.152039 -32.658337 487.895630
   vertex 157.080856 -32.593632 488.135895
   vertex 157.501984 -32.658337 487.901733
  endloop
 endfacet

 facet normal 0.004522 0.965926 -0.258777
  outer loop
   vertex 157.501984 -32.658337 487.901733
   vertex 157.080856 -32.593632 488.135895
   vertex 157.485138 -32.399517 488.867523
  endloop
 endfacet

 facet normal 0.004494 0.965930 -0.258763
  outer loop
   vertex 157.485138 -32.399517 488.867523
   vertex 157.080856 -32.593632 488.135895
   vertex 156.894775 -32.546265 488.309479
  endloop
 endfacet

 facet normal 0.004540 0.965918 -0.258809
  outer loop
   vertex 156.894775 -32.546265 488.309479
   vertex 156.643692 -32.528927 488.369781
   vertex 157.485138 -32.399517 488.867523
  endloop
 endfacet

 facet normal 0.004516 0.965927 -0.258774
  outer loop
   vertex 132.662445 -32.593632 487.709656
   vertex 133.066727 -32.399517 488.441284
   vertex 133.083588 -32.658333 487.475494
  endloop
 endfacet

 facet normal 0.999848 0.000001 0.017455
  outer loop
   vertex 133.083588 -32.658333 487.475494
   vertex 133.066727 -32.399517 488.441284
   vertex 133.081329 -33.141296 487.604889
  endloop
 endfacet

 facet normal 0.016844 -0.258828 -0.965777
  outer loop
   vertex 133.081329 -33.141296 487.604889
   vertex 132.733643 -32.658333 487.469391
   vertex 133.083588 -32.658333 487.475494
  endloop
 endfacet

 facet normal 0.016844 -0.258828 -0.965777
  outer loop
   vertex 132.731369 -33.141296 487.598785
   vertex 132.733643 -32.658333 487.469391
   vertex 133.081329 -33.141296 487.604889
  endloop
 endfacet

 facet normal -0.016844 0.258828 0.965777
  outer loop
   vertex 133.081329 -33.141296 487.604889
   vertex 132.733643 -32.658333 487.469391
   vertex 132.731369 -33.141296 487.598785
  endloop
 endfacet

 facet normal -0.004513 -0.965926 0.258778
  outer loop
   vertex 132.731369 -33.141296 487.598785
   vertex 132.668610 -33.206001 487.356171
   vertex 133.081329 -33.141296 487.604889
  endloop
 endfacet

 facet normal -0.004517 -0.965925 0.258784
  outer loop
   vertex 133.081329 -33.141296 487.604889
   vertex 132.668610 -33.206001 487.356171
   vertex 132.974625 -33.251297 487.192444
  endloop
 endfacet

 facet normal -0.004528 -0.965930 0.258765
  outer loop
   vertex 132.974625 -33.251297 487.192444
   vertex 132.668610 -33.206001 487.356171
   vertex 132.488708 -33.253368 487.176208
  endloop
 endfacet

 facet normal -0.004529 -0.965926 0.258777
  outer loop
   vertex 132.488708 -33.253368 487.176208
   vertex 132.668793 -33.331818 486.886536
   vertex 132.974625 -33.251297 487.192444
  endloop
 endfacet

 facet normal -0.004520 -0.965925 0.258782
  outer loop
   vertex 132.239883 -33.270706 487.107147
   vertex 132.668793 -33.331818 486.886536
   vertex 132.488708 -33.253368 487.176208
  endloop
 endfacet

 facet normal -0.004516 -0.965923 0.258789
  outer loop
   vertex 132.245789 -33.361294 486.769135
   vertex 132.668793 -33.331818 486.886536
   vertex 132.239883 -33.270706 487.107147
  endloop
 endfacet

 facet normal -0.004514 -0.965923 0.258789
  outer loop
   vertex 132.239883 -33.270706 487.107147
   vertex 131.988785 -33.253368 487.167480
   vertex 132.245789 -33.361294 486.769135
  endloop
 endfacet

 facet normal -0.004517 -0.965924 0.258787
  outer loop
   vertex 132.245789 -33.361294 486.769135
   vertex 131.988785 -33.253368 487.167480
   vertex 131.818924 -33.331818 486.871704
  endloop
 endfacet

 facet normal -0.004514 -0.965924 0.258786
  outer loop
   vertex 131.818924 -33.331818 486.871704
   vertex 131.988785 -33.253368 487.167480
   vertex 131.802719 -33.206001 487.341034
  endloop
 endfacet

 facet normal -0.004500 -0.965924 0.258786
  outer loop
   vertex 131.802719 -33.206001 487.341034
   vertex 131.502609 -33.251297 487.166748
   vertex 131.818924 -33.331818 486.871704
  endloop
 endfacet

 facet normal -0.004489 -0.965929 0.258768
  outer loop
   vertex 131.731522 -33.141296 487.581329
   vertex 131.502609 -33.251297 487.166748
   vertex 131.802719 -33.206001 487.341034
  endloop
 endfacet

 facet normal -0.004536 -0.965922 0.258792
  outer loop
   vertex 131.381577 -33.141296 487.575195
   vertex 131.502609 -33.251297 487.166748
   vertex 131.731522 -33.141296 487.581329
  endloop
 endfacet

 facet normal -0.004536 -0.965925 0.258784
  outer loop
   vertex 131.731522 -33.141296 487.581329
   vertex 131.794296 -33.076591 487.823944
   vertex 131.381577 -33.141296 487.575195
  endloop
 endfacet

 facet normal -0.004529 -0.965927 0.258774
  outer loop
   vertex 131.381577 -33.141296 487.575195
   vertex 131.794296 -33.076591 487.823944
   vertex 131.364716 -32.882481 488.540985
  endloop
 endfacet

 facet normal -0.004507 -0.965924 0.258786
  outer loop
   vertex 131.364716 -32.882481 488.540985
   vertex 131.794296 -33.076591 487.823944
   vertex 131.974197 -33.029224 488.003876
  endloop
 endfacet

 facet normal -0.004518 -0.965927 0.258774
  outer loop
   vertex 131.974197 -33.029224 488.003876
   vertex 132.223022 -33.011887 488.072937
   vertex 131.364716 -32.882481 488.540985
  endloop
 endfacet

 facet normal -0.003658 0.977816 0.209433
  outer loop
   vertex 134.243729 -32.346470 486.412689
   vertex 134.234314 -32.462055 486.952179
   vertex 135.402267 -32.346470 486.432922
  endloop
 endfacet

 facet normal -0.003652 0.977814 0.209444
  outer loop
   vertex 135.402267 -32.346470 486.432922
   vertex 134.234314 -32.462055 486.952179
   vertex 135.392853 -32.462055 486.972382
  endloop
 endfacet

 facet normal 0.999848 -0.000008 0.017448
  outer loop
   vertex 135.392853 -32.462055 486.972382
   vertex 135.387604 -33.582943 487.272675
   vertex 135.402267 -32.346470 486.432922
  endloop
 endfacet

 facet normal -0.016841 0.258817 0.965779
  outer loop
   vertex 134.234314 -32.462055 486.952179
   vertex 135.387604 -33.582943 487.272675
   vertex 135.392853 -32.462055 486.972382
  endloop
 endfacet

 facet normal -0.016841 0.258817 0.965779
  outer loop
   vertex 134.229065 -33.582943 487.252472
   vertex 135.387604 -33.582943 487.272675
   vertex 134.234314 -32.462055 486.952179
  endloop
 endfacet

 facet normal -0.999848 0.000008 -0.017447
  outer loop
   vertex 134.234314 -32.462055 486.952179
   vertex 134.236206 -33.952824 486.843048
   vertex 134.229065 -33.582943 487.252472
  endloop
 endfacet

 facet normal -0.011687 -0.742083 0.670207
  outer loop
   vertex 134.229065 -33.582943 487.252472
   vertex 134.236206 -33.952824 486.843048
   vertex 135.387604 -33.582943 487.272675
  endloop
 endfacet

 facet normal -0.011705 -0.742058 0.670234
  outer loop
   vertex 135.387604 -33.582943 487.272675
   vertex 134.236206 -33.952824 486.843048
   vertex 135.394745 -33.952824 486.863281
  endloop
 endfacet

 facet normal 0.999848 -0.000008 0.017448
  outer loop
   vertex 135.394745 -33.952824 486.863281
   vertex 135.402267 -32.346470 486.432922
   vertex 135.387604 -33.582943 487.272675
  endloop
 endfacet

 facet normal 0.999848 -0.000007 0.017452
  outer loop
   vertex 135.409744 -33.936974 486.003967
   vertex 135.402267 -32.346470 486.432922
   vertex 135.394745 -33.952824 486.863281
  endloop
 endfacet

 facet normal 0.999848 -0.000006 0.017451
  outer loop
   vertex 135.415115 -32.789909 485.696655
   vertex 135.402267 -32.346470 486.432922
   vertex 135.409744 -33.936974 486.003967
  endloop
 endfacet

 facet normal 0.016867 -0.258822 -0.965778
  outer loop
   vertex 135.409744 -33.936974 486.003967
   vertex 134.256577 -32.789909 485.676422
   vertex 135.415115 -32.789909 485.696655
  endloop
 endfacet

 facet normal -0.001985 -0.993520 0.113641
  outer loop
   vertex 135.415115 -32.789909 485.696655
   vertex 134.256577 -32.789909 485.676422
   vertex 135.416840 -32.801250 485.597534
  endloop
 endfacet

 facet normal -0.001985 -0.993520 0.113641
  outer loop
   vertex 135.416840 -32.801250 485.597534
   vertex 134.256577 -32.789909 485.676422
   vertex 134.258301 -32.801250 485.577301
  endloop
 endfacet

 facet normal 0.016867 -0.258822 -0.965778
  outer loop
   vertex 134.258301 -32.801250 485.577301
   vertex 135.417557 -32.647701 485.556396
   vertex 135.416840 -32.801250 485.597534
  endloop
 endfacet

 facet normal 0.016867 -0.258822 -0.965778
  outer loop
   vertex 134.259018 -32.647701 485.536163
   vertex 135.417557 -32.647701 485.556396
   vertex 134.258301 -32.801250 485.577301
  endloop
 endfacet

 facet normal 0.013877 0.606967 -0.794606
  outer loop
   vertex 134.257919 -32.564297 485.599854
   vertex 135.417557 -32.647701 485.556396
   vertex 134.259018 -32.647701 485.536163
  endloop
 endfacet

 facet normal -0.999850 0.000067 -0.017335
  outer loop
   vertex 134.259018 -32.647701 485.536163
   vertex 134.256577 -32.789909 485.676422
   vertex 134.257919 -32.564297 485.599854
  endloop
 endfacet

 facet normal -0.999848 0.000024 -0.017462
  outer loop
   vertex 134.257919 -32.564297 485.599854
   vertex 134.256577 -32.789909 485.676422
   vertex 134.243729 -32.346470 486.412689
  endloop
 endfacet

 facet normal -0.999848 0.000006 -0.017451
  outer loop
   vertex 134.243729 -32.346470 486.412689
   vertex 134.256577 -32.789909 485.676422
   vertex 134.251205 -33.936974 485.983734
  endloop
 endfacet

 facet normal -0.999848 0.000007 -0.017452
  outer loop
   vertex 134.251205 -33.936974 485.983734
   vertex 134.236206 -33.952824 486.843048
   vertex 134.243729 -32.346470 486.412689
  endloop
 endfacet

 facet normal -0.999848 -0.000011 -0.017453
  outer loop
   vertex 134.250397 -34.170654 486.030212
   vertex 134.236206 -33.952824 486.843048
   vertex 134.251205 -33.936974 485.983734
  endloop
 endfacet

 facet normal -0.004519 -0.965926 0.258778
  outer loop
   vertex 135.394745 -33.952824 486.863281
   vertex 134.236206 -33.952824 486.843048
   vertex 134.250397 -34.170654 486.030212
  endloop
 endfacet

 facet normal -0.004519 -0.965926 0.258778
  outer loop
   vertex 134.250397 -34.170654 486.030212
   vertex 135.408936 -34.170654 486.050446
   vertex 135.394745 -33.952824 486.863281
  endloop
 endfacet

 facet normal 0.999848 0.000011 0.017453
  outer loop
   vertex 135.394745 -33.952824 486.863281
   vertex 135.408936 -34.170654 486.050446
   vertex 135.409744 -33.936974 486.003967
  endloop
 endfacet

 facet normal 0.999847 0.000019 0.017491
  outer loop
   vertex 135.409744 -33.936974 486.003967
   vertex 135.408936 -34.170654 486.050446
   vertex 135.410629 -34.130272 485.953583
  endloop
 endfacet

 facet normal 0.999847 0.000017 0.017496
  outer loop
   vertex 135.410629 -34.130272 485.953583
   vertex 135.411346 -33.976723 485.912445
   vertex 135.409744 -33.936974 486.003967
  endloop
 endfacet

 facet normal 0.016841 -0.258822 -0.965778
  outer loop
   vertex 134.252808 -33.976723 485.892242
   vertex 135.411346 -33.976723 485.912445
   vertex 135.410629 -34.130272 485.953583
  endloop
 endfacet

 facet normal 0.006945 0.917250 -0.398251
  outer loop
   vertex 135.409744 -33.936974 486.003967
   vertex 135.411346 -33.976723 485.912445
   vertex 134.252808 -33.976723 485.892242
  endloop
 endfacet

 facet normal 0.006957 0.917202 -0.398362
  outer loop
   vertex 134.252808 -33.976723 485.892242
   vertex 134.251205 -33.936974 485.983734
   vertex 135.409744 -33.936974 486.003967
  endloop
 endfacet

 facet normal 0.016867 -0.258822 -0.965778
  outer loop
   vertex 135.409744 -33.936974 486.003967
   vertex 134.251205 -33.936974 485.983734
   vertex 134.256577 -32.789909 485.676422
  endloop
 endfacet

 facet normal -0.011687 -0.742079 0.670210
  outer loop
   vertex 154.672394 -33.952827 487.199768
   vertex 154.665253 -33.582943 487.609192
   vertex 153.513855 -33.952827 487.179565
  endloop
 endfacet

 facet normal -0.011687 -0.742079 0.670210
  outer loop
   vertex 153.513855 -33.952827 487.179565
   vertex 154.665253 -33.582943 487.609192
   vertex 153.506714 -33.582943 487.588989
  endloop
 endfacet

 facet normal -0.999848 -0.000003 -0.017437
  outer loop
   vertex 153.506714 -33.582943 487.588989
   vertex 153.511948 -32.462059 487.288696
   vertex 153.513855 -33.952827 487.179565
  endloop
 endfacet

 facet normal -0.016841 0.258818 0.965779
  outer loop
   vertex 154.665253 -33.582943 487.609192
   vertex 153.511948 -32.462059 487.288696
   vertex 153.506714 -33.582943 487.588989
  endloop
 endfacet

 facet normal -0.016841 0.258818 0.965779
  outer loop
   vertex 154.670486 -32.462059 487.308899
   vertex 153.511948 -32.462059 487.288696
   vertex 154.665253 -33.582943 487.609192
  endloop
 endfacet

 facet normal 0.999848 0.000007 0.017451
  outer loop
   vertex 154.665253 -33.582943 487.609192
   vertex 154.679901 -32.346470 486.769440
   vertex 154.670486 -32.462059 487.308899
  endloop
 endfacet

 facet normal -0.003652 0.977812 0.209451
  outer loop
   vertex 154.670486 -32.462059 487.308899
   vertex 154.679901 -32.346470 486.769440
   vertex 153.511948 -32.462059 487.288696
  endloop
 endfacet

 facet normal -0.003658 0.977815 0.209439
  outer loop
   vertex 153.511948 -32.462059 487.288696
   vertex 154.679901 -32.346470 486.769440
   vertex 153.521362 -32.346470 486.749207
  endloop
 endfacet

 facet normal -0.999848 -0.000002 -0.017449
  outer loop
   vertex 153.521362 -32.346470 486.749207
   vertex 153.513855 -33.952827 487.179565
   vertex 153.511948 -32.462059 487.288696
  endloop
 endfacet

 facet normal -0.999847 -0.000006 -0.017464
  outer loop
   vertex 153.534225 -32.789913 486.012939
   vertex 153.513855 -33.952827 487.179565
   vertex 153.521362 -32.346470 486.749207
  endloop
 endfacet

 facet normal -0.999848 0.000006 -0.017452
  outer loop
   vertex 153.528854 -33.936974 486.320251
   vertex 153.513855 -33.952827 487.179565
   vertex 153.534225 -32.789913 486.012939
  endloop
 endfacet

 facet normal 0.016867 -0.258823 -0.965777
  outer loop
   vertex 153.534225 -32.789913 486.012939
   vertex 154.687393 -33.936974 486.340485
   vertex 153.528854 -33.936974 486.320251
  endloop
 endfacet

 facet normal 0.006955 0.917250 -0.398251
  outer loop
   vertex 153.528854 -33.936974 486.320251
   vertex 154.687393 -33.936974 486.340485
   vertex 153.530457 -33.976723 486.228729
  endloop
 endfacet

 facet normal 0.006955 0.917250 -0.398251
  outer loop
   vertex 153.530457 -33.976723 486.228729
   vertex 154.687393 -33.936974 486.340485
   vertex 154.688995 -33.976723 486.248962
  endloop
 endfacet

 facet normal 0.016867 -0.258822 -0.965778
  outer loop
   vertex 154.688995 -33.976723 486.248962
   vertex 153.529739 -34.130272 486.269867
   vertex 153.530457 -33.976723 486.228729
  endloop
 endfacet

 facet normal 0.016867 -0.258822 -0.965778
  outer loop
   vertex 154.688278 -34.130272 486.290100
   vertex 153.529739 -34.130272 486.269867
   vertex 154.688995 -33.976723 486.248962
  endloop
 endfacet

 facet normal 0.006718 -0.923020 -0.384692
  outer loop
   vertex 154.686584 -34.170654 486.386963
   vertex 153.529739 -34.130272 486.269867
   vertex 154.688278 -34.130272 486.290100
  endloop
 endfacet

 facet normal 0.999847 0.000019 0.017491
  outer loop
   vertex 154.688278 -34.130272 486.290100
   vertex 154.687393 -33.936974 486.340485
   vertex 154.686584 -34.170654 486.386963
  endloop
 endfacet

 facet normal 0.999848 0.000011 0.017453
  outer loop
   vertex 154.686584 -34.170654 486.386963
   vertex 154.687393 -33.936974 486.340485
   vertex 154.672394 -33.952827 487.199768
  endloop
 endfacet

 facet normal 0.999848 -0.000006 0.017453
  outer loop
   vertex 154.672394 -33.952827 487.199768
   vertex 154.687393 -33.936974 486.340485
   vertex 154.692764 -32.789913 486.033173
  endloop
 endfacet

 facet normal 0.999847 0.000006 0.017465
  outer loop
   vertex 154.692764 -32.789913 486.033173
   vertex 154.679901 -32.346470 486.769440
   vertex 154.672394 -33.952827 487.199768
  endloop
 endfacet

 facet normal 0.999848 0.000038 0.017446
  outer loop
   vertex 154.694092 -32.564297 485.956604
   vertex 154.679901 -32.346470 486.769440
   vertex 154.692764 -32.789913 486.033173
  endloop
 endfacet

 facet normal 0.004519 0.965927 -0.258774
  outer loop
   vertex 153.521362 -32.346470 486.749207
   vertex 154.679901 -32.346470 486.769440
   vertex 154.694092 -32.564297 485.956604
  endloop
 endfacet

 facet normal 0.004519 0.965927 -0.258774
  outer loop
   vertex 154.694092 -32.564297 485.956604
   vertex 153.535553 -32.564297 485.936371
   vertex 153.521362 -32.346470 486.749207
  endloop
 endfacet

 facet normal -0.999848 -0.000038 -0.017446
  outer loop
   vertex 153.521362 -32.346470 486.749207
   vertex 153.535553 -32.564297 485.936371
   vertex 153.534225 -32.789913 486.012939
  endloop
 endfacet

 facet normal -0.999848 -0.000036 -0.017440
  outer loop
   vertex 153.534225 -32.789913 486.012939
   vertex 153.535553 -32.564297 485.936371
   vertex 153.536667 -32.647701 485.872681
  endloop
 endfacet

 facet normal -0.999849 0.000010 -0.017394
  outer loop
   vertex 153.536667 -32.647701 485.872681
   vertex 153.535950 -32.801250 485.913818
   vertex 153.534225 -32.789913 486.012939
  endloop
 endfacet

 facet normal 0.016867 -0.258822 -0.965778
  outer loop
   vertex 154.694489 -32.801250 485.934052
   vertex 153.535950 -32.801250 485.913818
   vertex 153.536667 -32.647701 485.872681
  endloop
 endfacet

 facet normal -0.001984 -0.993524 0.113603
  outer loop
   vertex 153.534225 -32.789913 486.012939
   vertex 153.535950 -32.801250 485.913818
   vertex 154.694489 -32.801250 485.934052
  endloop
 endfacet

 facet normal -0.001984 -0.993524 0.113603
  outer loop
   vertex 154.694489 -32.801250 485.934052
   vertex 154.692764 -32.789913 486.033173
   vertex 153.534225 -32.789913 486.012939
  endloop
 endfacet

 facet normal 0.016867 -0.258823 -0.965777
  outer loop
   vertex 153.534225 -32.789913 486.012939
   vertex 154.692764 -32.789913 486.033173
   vertex 154.687393 -33.936974 486.340485
  endloop
 endfacet

 facet normal 0.004513 0.965926 -0.258778
  outer loop
   vertex 132.733643 -32.658333 487.469391
   vertex 133.083588 -32.658333 487.475494
   vertex 132.670868 -32.723038 487.226776
  endloop
 endfacet

 facet normal 0.004517 0.965925 -0.258784
  outer loop
   vertex 132.670868 -32.723038 487.226776
   vertex 133.083588 -32.658333 487.475494
   vertex 132.976883 -32.768333 487.063049
  endloop
 endfacet

 facet normal 0.004528 0.965930 -0.258765
  outer loop
   vertex 132.976883 -32.768333 487.063049
   vertex 132.490967 -32.770405 487.046814
   vertex 132.670868 -32.723038 487.226776
  endloop
 endfacet

 facet normal 0.004529 0.965923 -0.258789
  outer loop
   vertex 132.671051 -32.848858 486.757141
   vertex 132.490967 -32.770405 487.046814
   vertex 132.976883 -32.768333 487.063049
  endloop
 endfacet

 facet normal 0.004523 0.965923 -0.258792
  outer loop
   vertex 132.242142 -32.787743 486.977753
   vertex 132.490967 -32.770405 487.046814
   vertex 132.671051 -32.848858 486.757141
  endloop
 endfacet

 facet normal 0.004525 0.965923 -0.258789
  outer loop
   vertex 132.671051 -32.848858 486.757141
   vertex 132.248047 -32.878330 486.639740
   vertex 132.242142 -32.787743 486.977753
  endloop
 endfacet

 facet normal 0.004514 0.965923 -0.258789
  outer loop
   vertex 132.242142 -32.787743 486.977753
   vertex 132.248047 -32.878330 486.639740
   vertex 131.991043 -32.770405 487.038086
  endloop
 endfacet

 facet normal 0.004517 0.965924 -0.258787
  outer loop
   vertex 131.991043 -32.770405 487.038086
   vertex 132.248047 -32.878330 486.639740
   vertex 131.821182 -32.848854 486.742310
  endloop
 endfacet

 facet normal 0.004514 0.965924 -0.258786
  outer loop
   vertex 131.821182 -32.848854 486.742310
   vertex 131.804977 -32.723038 487.211639
   vertex 131.991043 -32.770405 487.038086
  endloop
 endfacet

 facet normal 0.004500 0.965924 -0.258786
  outer loop
   vertex 131.504868 -32.768333 487.037354
   vertex 131.804977 -32.723038 487.211639
   vertex 131.821182 -32.848854 486.742310
  endloop
 endfacet

 facet normal 0.004489 0.965929 -0.258768
  outer loop
   vertex 131.733780 -32.658333 487.451935
   vertex 131.804977 -32.723038 487.211639
   vertex 131.504868 -32.768333 487.037354
  endloop
 endfacet

 facet normal 0.004513 0.965926 -0.258781
  outer loop
   vertex 131.504868 -32.768333 487.037354
   vertex 131.383835 -32.658333 487.445831
   vertex 131.733780 -32.658333 487.451935
  endloop
 endfacet

 facet normal 0.004513 0.965930 -0.258764
  outer loop
   vertex 131.733780 -32.658333 487.451935
   vertex 131.383835 -32.658333 487.445831
   vertex 131.796555 -32.593632 487.694550
  endloop
 endfacet

 facet normal 0.004524 0.965925 -0.258781
  outer loop
   vertex 131.796555 -32.593632 487.694550
   vertex 131.383835 -32.658333 487.445831
   vertex 131.366974 -32.399517 488.411591
  endloop
 endfacet

 facet normal 0.004510 0.965923 -0.258789
  outer loop
   vertex 131.366974 -32.399517 488.411591
   vertex 131.976456 -32.546265 487.874481
   vertex 131.796555 -32.593632 487.694550
  endloop
 endfacet

 facet normal 0.004520 0.965926 -0.258779
  outer loop
   vertex 132.225281 -32.528927 487.943542
   vertex 131.976456 -32.546265 487.874481
   vertex 131.366974 -32.399517 488.411591
  endloop
 endfacet

 facet normal -0.004514 -0.965923 0.258792
  outer loop
   vertex 156.149933 -33.141300 488.007568
   vertex 155.799988 -33.141300 488.001465
   vertex 156.221130 -33.206005 487.767303
  endloop
 endfacet

 facet normal -0.004528 -0.965929 0.258768
  outer loop
   vertex 156.221130 -33.206005 487.767303
   vertex 155.799988 -33.141300 488.001465
   vertex 155.921021 -33.251297 487.592987
  endloop
 endfacet

 facet normal -0.004529 -0.965928 0.258770
  outer loop
   vertex 155.921021 -33.251297 487.592987
   vertex 156.407196 -33.253372 487.593750
   vertex 156.221130 -33.206005 487.767303
  endloop
 endfacet

 facet normal -0.004529 -0.965929 0.258769
  outer loop
   vertex 156.237335 -33.331821 487.297943
   vertex 156.407196 -33.253372 487.593750
   vertex 155.921021 -33.251297 487.592987
  endloop
 endfacet

 facet normal -0.004520 -0.965930 0.258764
  outer loop
   vertex 156.658295 -33.270710 487.533417
   vertex 156.407196 -33.253372 487.593750
   vertex 156.237335 -33.331821 487.297943
  endloop
 endfacet

 facet normal -0.004516 -0.965932 0.258757
  outer loop
   vertex 156.237335 -33.331821 487.297943
   vertex 156.664185 -33.361294 487.195374
   vertex 156.658295 -33.270710 487.533417
  endloop
 endfacet

 facet normal -0.004513 -0.965932 0.258757
  outer loop
   vertex 156.658295 -33.270710 487.533417
   vertex 156.664185 -33.361294 487.195374
   vertex 156.907120 -33.253372 487.602478
  endloop
 endfacet

 facet normal -0.004516 -0.965931 0.258759
  outer loop
   vertex 156.907120 -33.253372 487.602478
   vertex 156.664185 -33.361294 487.195374
   vertex 157.087204 -33.331821 487.312775
  endloop
 endfacet

 facet normal -0.004492 -0.965928 0.258773
  outer loop
   vertex 157.087204 -33.331821 487.312775
   vertex 157.087021 -33.206005 487.782410
   vertex 156.907120 -33.253372 487.602478
  endloop
 endfacet

 facet normal -0.004512 -0.965928 0.258773
  outer loop
   vertex 157.393036 -33.251297 487.618683
   vertex 157.087021 -33.206005 487.782410
   vertex 157.087204 -33.331821 487.312775
  endloop
 endfacet

 facet normal -0.004509 -0.965927 0.258777
  outer loop
   vertex 157.149780 -33.141300 488.025024
   vertex 157.087021 -33.206005 487.782410
   vertex 157.393036 -33.251297 487.618683
  endloop
 endfacet

 facet normal -0.004513 -0.965927 0.258775
  outer loop
   vertex 157.393036 -33.251297 487.618683
   vertex 157.499725 -33.141300 488.031128
   vertex 157.149780 -33.141300 488.025024
  endloop
 endfacet

 facet normal -0.004514 -0.965923 0.258792
  outer loop
   vertex 157.149780 -33.141300 488.025024
   vertex 157.499725 -33.141300 488.031128
   vertex 157.078598 -33.076595 488.265289
  endloop
 endfacet

 facet normal -0.004522 -0.965926 0.258777
  outer loop
   vertex 157.078598 -33.076595 488.265289
   vertex 157.499725 -33.141300 488.031128
   vertex 157.482880 -32.882481 488.996918
  endloop
 endfacet

 facet normal -0.004522 -0.965926 0.258777
  outer loop
   vertex 157.482880 -32.882481 488.996918
   vertex 156.892517 -33.029228 488.438843
   vertex 157.078598 -33.076595 488.265289
  endloop
 endfacet

 facet normal -0.004518 -0.965928 0.258773
  outer loop
   vertex 156.641434 -33.011890 488.499176
   vertex 156.892517 -33.029228 488.438843
   vertex 157.482880 -32.882481 488.996918
  endloop
 endfacet

 facet normal -0.004516 -0.965926 0.258778
  outer loop
   vertex 131.364716 -32.882481 488.540985
   vertex 132.223022 -33.011887 488.072937
   vertex 133.064468 -32.882481 488.570648
  endloop
 endfacet

 facet normal -0.004516 -0.965926 0.258779
  outer loop
   vertex 133.064468 -32.882481 488.570648
   vertex 132.223022 -33.011887 488.072937
   vertex 132.474121 -33.029224 488.012604
  endloop
 endfacet

 facet normal -0.004519 -0.965926 0.258781
  outer loop
   vertex 132.474121 -33.029224 488.012604
   vertex 132.660187 -33.076591 487.839050
   vertex 133.064468 -32.882481 488.570648
  endloop
 endfacet

 facet normal -0.004510 -0.965923 0.258789
  outer loop
   vertex 156.212692 -33.076595 488.250183
   vertex 156.392593 -33.029228 488.430115
   vertex 155.783127 -32.882481 488.967224
  endloop
 endfacet

 facet normal -0.004519 -0.965926 0.258779
  outer loop
   vertex 155.783127 -32.882481 488.967224
   vertex 156.392593 -33.029228 488.430115
   vertex 156.641434 -33.011890 488.499176
  endloop
 endfacet

 facet normal -0.004521 -0.965926 0.258777
  outer loop
   vertex 156.641434 -33.011890 488.499176
   vertex 157.482880 -32.882481 488.996918
   vertex 155.783127 -32.882481 488.967224
  endloop
 endfacet

 facet normal 0.004516 0.965928 -0.258770
  outer loop
   vertex 157.485138 -32.399517 488.867523
   vertex 156.643692 -32.528927 488.369781
   vertex 155.785385 -32.399517 488.837860
  endloop
 endfacet

 facet normal 0.004495 0.965919 -0.258805
  outer loop
   vertex 155.785385 -32.399517 488.837860
   vertex 156.643692 -32.528927 488.369781
   vertex 156.394852 -32.546265 488.300751
  endloop
 endfacet

 facet normal 0.004531 0.965929 -0.258767
  outer loop
   vertex 156.394852 -32.546265 488.300751
   vertex 156.214951 -32.593632 488.120789
   vertex 155.785385 -32.399517 488.837860
  endloop
 endfacet

 facet normal 0.004522 0.965926 -0.258777
  outer loop
   vertex 132.662445 -32.593632 487.709656
   vertex 132.476379 -32.546265 487.883209
   vertex 133.066727 -32.399517 488.441284
  endloop
 endfacet

 facet normal 0.004518 0.965928 -0.258773
  outer loop
   vertex 133.066727 -32.399517 488.441284
   vertex 132.476379 -32.546265 487.883209
   vertex 132.225281 -32.528927 487.943542
  endloop
 endfacet

 facet normal 0.004521 0.965926 -0.258777
  outer loop
   vertex 132.225281 -32.528927 487.943542
   vertex 131.366974 -32.399517 488.411591
   vertex 133.066727 -32.399517 488.441284
  endloop
 endfacet

 facet normal 0.013877 0.606969 -0.794604
  outer loop
   vertex 154.694092 -32.564297 485.956604
   vertex 154.695206 -32.647701 485.892914
   vertex 153.535553 -32.564297 485.936371
  endloop
 endfacet

 facet normal 0.013877 0.606969 -0.794604
  outer loop
   vertex 153.535553 -32.564297 485.936371
   vertex 154.695206 -32.647701 485.892914
   vertex 153.536667 -32.647701 485.872681
  endloop
 endfacet

 facet normal -0.004518 -0.965925 0.258783
  outer loop
   vertex 134.649292 -33.900578 486.735962
   vertex 134.659637 -34.059372 486.143433
   vertex 154.263306 -33.900578 487.078369
  endloop
 endfacet

 facet normal -0.004518 -0.965925 0.258783
  outer loop
   vertex 154.263306 -33.900578 487.078369
   vertex 134.659637 -34.059372 486.143433
   vertex 154.273651 -34.059372 486.485840
  endloop
 endfacet

 facet normal 0.006708 -0.923020 -0.384693
  outer loop
   vertex 135.410629 -34.130272 485.953583
   vertex 135.408936 -34.170654 486.050446
   vertex 134.252090 -34.130272 485.933380
  endloop
 endfacet

 facet normal 0.006720 -0.922977 -0.384796
  outer loop
   vertex 134.252090 -34.130272 485.933380
   vertex 135.408936 -34.170654 486.050446
   vertex 134.250397 -34.170654 486.030212
  endloop
 endfacet

 facet normal 0.016844 -0.258828 -0.965777
  outer loop
   vertex 157.152039 -32.658337 487.895630
   vertex 157.501984 -32.658337 487.901733
   vertex 157.325882 -32.899818 487.963379
  endloop
 endfacet

 facet normal 0.999848 -0.000001 0.017440
  outer loop
   vertex 154.672394 -33.952827 487.199768
   vertex 154.679901 -32.346470 486.769440
   vertex 154.665253 -33.582943 487.609192
  endloop
 endfacet

 facet normal -0.004513 -0.965926 0.258778
  outer loop
   vertex 155.799988 -33.141300 488.001465
   vertex 156.149933 -33.141300 488.007568
   vertex 156.212692 -33.076595 488.250183
  endloop
 endfacet

 facet normal -0.004513 -0.965923 0.258792
  outer loop
   vertex 132.731369 -33.141296 487.598785
   vertex 133.081329 -33.141296 487.604889
   vertex 132.660187 -33.076591 487.839050
  endloop
 endfacet

 facet normal -0.016844 0.258828 0.965777
  outer loop
   vertex 157.501984 -32.658337 487.901733
   vertex 157.149780 -33.141300 488.025024
   vertex 157.499725 -33.141300 488.031128
  endloop
 endfacet

 facet normal 0.004519 0.965926 -0.258780
  outer loop
   vertex 134.482819 -32.520515 486.826202
   vertex 132.834900 -32.520515 486.797424
   vertex 132.808929 -32.121662 488.285736
  endloop
 endfacet

 facet normal -0.004519 -0.965926 0.258778
  outer loop
   vertex 154.395508 -33.198612 488.951172
   vertex 154.421494 -33.597462 487.462860
   vertex 156.043427 -33.198612 488.979950
  endloop
 endfacet

 facet normal -0.016845 0.258771 0.965792
  outer loop
   vertex 131.381577 -33.141296 487.575195
   vertex 131.733780 -32.658333 487.451935
   vertex 131.383835 -32.658333 487.445831
  endloop
 endfacet

 facet normal -0.999849 0.000010 -0.017394
  outer loop
   vertex 134.259018 -32.647701 485.536163
   vertex 134.258301 -32.801250 485.577301
   vertex 134.256577 -32.789909 485.676422
  endloop
 endfacet

 facet normal -0.016844 0.258828 0.965777
  outer loop
   vertex 156.149933 -33.141300 488.007568
   vertex 155.802246 -32.658337 487.872070
   vertex 155.799988 -33.141300 488.001465
  endloop
 endfacet

 facet normal -0.999848 0.000008 -0.017447
  outer loop
   vertex 134.243729 -32.346470 486.412689
   vertex 134.236206 -33.952824 486.843048
   vertex 134.234314 -32.462055 486.952179
  endloop
 endfacet

 facet normal 0.999847 0.000017 0.017496
  outer loop
   vertex 154.688278 -34.130272 486.290100
   vertex 154.688995 -33.976723 486.248962
   vertex 154.687393 -33.936974 486.340485
  endloop
 endfacet

 facet normal 0.004514 0.965926 -0.258778
  outer loop
   vertex 154.426529 -32.520515 487.174347
   vertex 154.400543 -32.121666 488.662659
   vertex 156.048462 -32.121666 488.691406
  endloop
 endfacet

 facet normal 0.999848 0.000002 0.017457
  outer loop
   vertex 134.456833 -32.121666 488.314514
   vertex 134.451797 -33.198608 488.603027
   vertex 134.477783 -33.597462 487.114716
  endloop
 endfacet

 facet normal -0.016844 0.258828 0.965777
  outer loop
   vertex 132.733643 -32.658333 487.469391
   vertex 133.081329 -33.141296 487.604889
   vertex 133.083588 -32.658333 487.475494
  endloop
 endfacet

 facet normal 0.004513 0.965926 -0.258777
  outer loop
   vertex 133.083588 -32.658333 487.475494
   vertex 132.733643 -32.658333 487.469391
   vertex 132.662445 -32.593632 487.709656
  endloop
 endfacet

 facet normal -0.695083 -0.183019 -0.695244
  outer loop
   vertex 132.476379 -32.546265 487.883209
   vertex 132.660187 -33.076591 487.839050
   vertex 132.474121 -33.029224 488.012604
  endloop
 endfacet

 facet normal -0.242495 -0.250010 -0.937385
  outer loop
   vertex 132.476379 -32.546265 487.883209
   vertex 132.474121 -33.029224 488.012604
   vertex 132.225281 -32.528927 487.943542
  endloop
 endfacet

 facet normal -0.242495 -0.250010 -0.937385
  outer loop
   vertex 132.225281 -32.528927 487.943542
   vertex 132.474121 -33.029224 488.012604
   vertex 132.223022 -33.011887 488.072937
  endloop
 endfacet

 facet normal 0.275082 -0.250009 -0.928346
  outer loop
   vertex 132.223022 -33.011887 488.072937
   vertex 131.976456 -32.546265 487.874481
   vertex 132.225281 -32.528927 487.943542
  endloop
 endfacet

 facet normal 0.275082 -0.250009 -0.928346
  outer loop
   vertex 131.974197 -33.029224 488.003876
   vertex 131.976456 -32.546265 487.874481
   vertex 132.223022 -33.011887 488.072937
  endloop
 endfacet

 facet normal 0.718895 -0.183026 -0.670591
  outer loop
   vertex 131.796555 -32.593632 487.694550
   vertex 131.976456 -32.546265 487.874481
   vertex 131.974197 -33.029224 488.003876
  endloop
 endfacet

 facet normal 0.718895 -0.183026 -0.670591
  outer loop
   vertex 131.974197 -33.029224 488.003876
   vertex 131.794296 -33.076591 487.823944
   vertex 131.796555 -32.593632 487.694550
  endloop
 endfacet

 facet normal 0.970131 -0.067001 -0.233146
  outer loop
   vertex 131.796555 -32.593632 487.694550
   vertex 131.794296 -33.076591 487.823944
   vertex 131.733780 -32.658333 487.451935
  endloop
 endfacet

 facet normal -0.961422 -0.066984 -0.266797
  outer loop
   vertex 157.152039 -32.658337 487.895630
   vertex 157.149780 -33.141300 488.025024
   vertex 157.080856 -32.593632 488.135895
  endloop
 endfacet

 facet normal -0.961422 -0.066984 -0.266797
  outer loop
   vertex 157.080856 -32.593632 488.135895
   vertex 157.149780 -33.141300 488.025024
   vertex 157.078598 -33.076595 488.265289
  endloop
 endfacet

 facet normal -0.695112 -0.183011 -0.695217
  outer loop
   vertex 157.078598 -33.076595 488.265289
   vertex 156.894775 -32.546265 488.309479
   vertex 157.080856 -32.593632 488.135895
  endloop
 endfacet

 facet normal -0.695053 -0.182985 -0.695283
  outer loop
   vertex 156.892517 -33.029228 488.438843
   vertex 156.894775 -32.546265 488.309479
   vertex 157.078598 -33.076595 488.265289
  endloop
 endfacet

 facet normal -0.242401 -0.249960 -0.937423
  outer loop
   vertex 156.643692 -32.528927 488.369781
   vertex 156.894775 -32.546265 488.309479
   vertex 156.892517 -33.029228 488.438843
  endloop
 endfacet

 facet normal -0.242509 -0.250007 -0.937382
  outer loop
   vertex 156.892517 -33.029228 488.438843
   vertex 156.641434 -33.011890 488.499176
   vertex 156.643692 -32.528927 488.369781
  endloop
 endfacet

 facet normal 0.274961 -0.250015 -0.928380
  outer loop
   vertex 156.643692 -32.528927 488.369781
   vertex 156.641434 -33.011890 488.499176
   vertex 156.394852 -32.546265 488.300751
  endloop
 endfacet

 facet normal 0.275067 -0.249953 -0.928365
  outer loop
   vertex 156.394852 -32.546265 488.300751
   vertex 156.641434 -33.011890 488.499176
   vertex 156.392593 -33.029228 488.430115
  endloop
 endfacet

 facet normal 0.718950 -0.182971 -0.670547
  outer loop
   vertex 156.392593 -33.029228 488.430115
   vertex 156.214951 -32.593632 488.120789
   vertex 156.394852 -32.546265 488.300751
  endloop
 endfacet

 facet normal 0.970138 -0.066993 -0.233119
  outer loop
   vertex 133.083588 -32.658333 487.475494
   vertex 133.081329 -33.141296 487.604889
   vertex 132.976883 -32.768333 487.063049
  endloop
 endfacet

 facet normal 0.970138 -0.066993 -0.233119
  outer loop
   vertex 132.976883 -32.768333 487.063049
   vertex 133.081329 -33.141296 487.604889
   vertex 132.974625 -33.251297 487.192444
  endloop
 endfacet

 facet normal 0.718920 -0.183018 -0.670565
  outer loop
   vertex 132.974625 -33.251297 487.192444
   vertex 132.671051 -32.848858 486.757141
   vertex 132.976883 -32.768333 487.063049
  endloop
 endfacet

 facet normal 0.718919 -0.183020 -0.670566
  outer loop
   vertex 132.668793 -33.331818 486.886536
   vertex 132.671051 -32.848858 486.757141
   vertex 132.974625 -33.251297 487.192444
  endloop
 endfacet

 facet normal 0.275074 -0.250009 -0.928348
  outer loop
   vertex 132.248047 -32.878330 486.639740
   vertex 132.671051 -32.848858 486.757141
   vertex 132.668793 -33.331818 486.886536
  endloop
 endfacet

 facet normal 0.275076 -0.250007 -0.928348
  outer loop
   vertex 132.668793 -33.331818 486.886536
   vertex 132.245789 -33.361294 486.769135
   vertex 132.248047 -32.878330 486.639740
  endloop
 endfacet

 facet normal -0.242504 -0.250008 -0.937384
  outer loop
   vertex 132.248047 -32.878330 486.639740
   vertex 132.245789 -33.361294 486.769135
   vertex 131.821182 -32.848854 486.742310
  endloop
 endfacet

 facet normal -0.242504 -0.250008 -0.937384
  outer loop
   vertex 131.821182 -32.848854 486.742310
   vertex 132.245789 -33.361294 486.769135
   vertex 131.818924 -33.331818 486.871704
  endloop
 endfacet

 facet normal -0.695082 -0.183018 -0.695245
  outer loop
   vertex 131.818924 -33.331818 486.871704
   vertex 131.504868 -32.768333 487.037354
   vertex 131.821182 -32.848854 486.742310
  endloop
 endfacet

 facet normal -0.695082 -0.183018 -0.695245
  outer loop
   vertex 131.502609 -33.251297 487.166748
   vertex 131.504868 -32.768333 487.037354
   vertex 131.818924 -33.331818 486.871704
  endloop
 endfacet

 facet normal -0.961413 -0.066992 -0.266828
  outer loop
   vertex 131.383835 -32.658333 487.445831
   vertex 131.504868 -32.768333 487.037354
   vertex 131.502609 -33.251297 487.166748
  endloop
 endfacet

 facet normal -0.961408 -0.066981 -0.266849
  outer loop
   vertex 131.502609 -33.251297 487.166748
   vertex 131.381577 -33.141296 487.575195
   vertex 131.383835 -32.658333 487.445831
  endloop
 endfacet

 facet normal 0.970146 -0.066985 -0.233088
  outer loop
   vertex 157.501984 -32.658337 487.901733
   vertex 157.499725 -33.141300 488.031128
   vertex 157.395294 -32.768333 487.489288
  endloop
 endfacet

 facet normal 0.970146 -0.066985 -0.233088
  outer loop
   vertex 157.395294 -32.768333 487.489288
   vertex 157.499725 -33.141300 488.031128
   vertex 157.393036 -33.251297 487.618683
  endloop
 endfacet

 facet normal 0.718920 -0.183018 -0.670565
  outer loop
   vertex 157.393036 -33.251297 487.618683
   vertex 157.089462 -32.848858 487.183380
   vertex 157.395294 -32.768333 487.489288
  endloop
 endfacet

 facet normal 0.718920 -0.183018 -0.670565
  outer loop
   vertex 157.087204 -33.331821 487.312775
   vertex 157.089462 -32.848858 487.183380
   vertex 157.393036 -33.251297 487.618683
  endloop
 endfacet

 facet normal 0.275065 -0.250008 -0.928351
  outer loop
   vertex 156.666443 -32.878330 487.065979
   vertex 157.089462 -32.848858 487.183380
   vertex 157.087204 -33.331821 487.312775
  endloop
 endfacet

 facet normal 0.275065 -0.250008 -0.928351
  outer loop
   vertex 157.087204 -33.331821 487.312775
   vertex 156.664185 -33.361294 487.195374
   vertex 156.666443 -32.878330 487.065979
  endloop
 endfacet

 facet normal -0.242510 -0.250007 -0.937382
  outer loop
   vertex 156.666443 -32.878330 487.065979
   vertex 156.664185 -33.361294 487.195374
   vertex 156.239594 -32.848858 487.168549
  endloop
 endfacet

 facet normal -0.242510 -0.250007 -0.937382
  outer loop
   vertex 156.239594 -32.848858 487.168549
   vertex 156.664185 -33.361294 487.195374
   vertex 156.237335 -33.331821 487.297943
  endloop
 endfacet

 facet normal -0.695083 -0.183018 -0.695244
  outer loop
   vertex 156.237335 -33.331821 487.297943
   vertex 155.923279 -32.768333 487.463593
   vertex 156.239594 -32.848858 487.168549
  endloop
 endfacet

 facet normal -0.695083 -0.183018 -0.695244
  outer loop
   vertex 155.921021 -33.251297 487.592987
   vertex 155.923279 -32.768333 487.463593
   vertex 156.237335 -33.331821 487.297943
  endloop
 endfacet

 facet normal -0.961413 -0.066993 -0.266828
  outer loop
   vertex 155.802246 -32.658337 487.872070
   vertex 155.923279 -32.768333 487.463593
   vertex 155.921021 -33.251297 487.592987
  endloop
 endfacet

 facet normal -0.961413 -0.066993 -0.266828
  outer loop
   vertex 155.921021 -33.251297 487.592987
   vertex 155.799988 -33.141300 488.001465
   vertex 155.802246 -32.658337 487.872070
  endloop
 endfacet

 facet normal 0.718895 -0.183025 -0.670591
  outer loop
   vertex 156.392593 -33.029228 488.430115
   vertex 156.212692 -33.076595 488.250183
   vertex 156.214951 -32.593632 488.120789
  endloop
 endfacet

 facet normal 0.970145 -0.066986 -0.233091
  outer loop
   vertex 156.214951 -32.593632 488.120789
   vertex 156.212692 -33.076595 488.250183
   vertex 156.149933 -33.141300 488.007568
  endloop
 endfacet

 facet normal 0.970145 -0.066986 -0.233091
  outer loop
   vertex 156.149933 -33.141300 488.007568
   vertex 156.152191 -32.658337 487.878174
   vertex 156.214951 -32.593632 488.120789
  endloop
 endfacet

 facet normal 0.961406 0.066998 0.266850
  outer loop
   vertex 156.221130 -33.206005 487.767303
   vertex 156.152191 -32.658337 487.878174
   vertex 156.149933 -33.141300 488.007568
  endloop
 endfacet

 facet normal 0.961406 0.066998 0.266850
  outer loop
   vertex 156.223389 -32.723042 487.637909
   vertex 156.152191 -32.658337 487.878174
   vertex 156.221130 -33.206005 487.767303
  endloop
 endfacet

 facet normal 0.695083 0.183018 0.695244
  outer loop
   vertex 156.221130 -33.206005 487.767303
   vertex 156.407196 -33.253372 487.593750
   vertex 156.223389 -32.723042 487.637909
  endloop
 endfacet

 facet normal 0.695083 0.183018 0.695244
  outer loop
   vertex 156.223389 -32.723042 487.637909
   vertex 156.407196 -33.253372 487.593750
   vertex 156.409454 -32.770409 487.464355
  endloop
 endfacet

 facet normal 0.242495 0.250008 0.937386
  outer loop
   vertex 156.409454 -32.770409 487.464355
   vertex 156.407196 -33.253372 487.593750
   vertex 156.658295 -33.270710 487.533417
  endloop
 endfacet

 facet normal 0.242495 0.250008 0.937386
  outer loop
   vertex 156.658295 -33.270710 487.533417
   vertex 156.660553 -32.787746 487.404022
   vertex 156.409454 -32.770409 487.464355
  endloop
 endfacet

 facet normal -0.275082 0.250007 0.928346
  outer loop
   vertex 156.907120 -33.253372 487.602478
   vertex 156.660553 -32.787746 487.404022
   vertex 156.658295 -33.270710 487.533417
  endloop
 endfacet

 facet normal -0.275082 0.250007 0.928346
  outer loop
   vertex 156.909378 -32.770409 487.473083
   vertex 156.660553 -32.787746 487.404022
   vertex 156.907120 -33.253372 487.602478
  endloop
 endfacet

 facet normal -0.718895 0.183025 0.670591
  outer loop
   vertex 156.907120 -33.253372 487.602478
   vertex 157.087021 -33.206005 487.782410
   vertex 156.909378 -32.770409 487.473083
  endloop
 endfacet

 facet normal -0.718895 0.183025 0.670591
  outer loop
   vertex 156.909378 -32.770409 487.473083
   vertex 157.087021 -33.206005 487.782410
   vertex 157.089279 -32.723042 487.653015
  endloop
 endfacet

 facet normal -0.970145 0.066986 0.233091
  outer loop
   vertex 157.089279 -32.723042 487.653015
   vertex 157.087021 -33.206005 487.782410
   vertex 157.149780 -33.141300 488.025024
  endloop
 endfacet

 facet normal -0.970145 0.066986 0.233091
  outer loop
   vertex 157.149780 -33.141300 488.025024
   vertex 157.152039 -32.658337 487.895630
   vertex 157.089279 -32.723042 487.653015
  endloop
 endfacet

 facet normal -0.695083 -0.183019 -0.695244
  outer loop
   vertex 132.476379 -32.546265 487.883209
   vertex 132.662445 -32.593632 487.709656
   vertex 132.660187 -33.076591 487.839050
  endloop
 endfacet

 facet normal -0.961406 -0.066999 -0.266851
  outer loop
   vertex 132.660187 -33.076591 487.839050
   vertex 132.662445 -32.593632 487.709656
   vertex 132.733643 -32.658333 487.469391
  endloop
 endfacet

 facet normal -0.961422 -0.066956 -0.266805
  outer loop
   vertex 132.733643 -32.658333 487.469391
   vertex 132.731369 -33.141296 487.598785
   vertex 132.660187 -33.076591 487.839050
  endloop
 endfacet

 facet normal -0.970131 0.067029 0.233137
  outer loop
   vertex 132.670868 -32.723038 487.226776
   vertex 132.731369 -33.141296 487.598785
   vertex 132.733643 -32.658333 487.469391
  endloop
 endfacet

 facet normal -0.970145 0.066986 0.233091
  outer loop
   vertex 132.668610 -33.206001 487.356171
   vertex 132.731369 -33.141296 487.598785
   vertex 132.670868 -32.723038 487.226776
  endloop
 endfacet

 facet normal -0.718949 0.183010 0.670536
  outer loop
   vertex 132.670868 -32.723038 487.226776
   vertex 132.490967 -32.770405 487.046814
   vertex 132.668610 -33.206001 487.356171
  endloop
 endfacet

 facet normal -0.718949 0.183010 0.670536
  outer loop
   vertex 132.668610 -33.206001 487.356171
   vertex 132.490967 -32.770405 487.046814
   vertex 132.488708 -33.253368 487.176208
  endloop
 endfacet

 facet normal -0.275082 0.250007 0.928346
  outer loop
   vertex 132.488708 -33.253368 487.176208
   vertex 132.490967 -32.770405 487.046814
   vertex 132.242142 -32.787743 486.977753
  endloop
 endfacet

 facet normal -0.275082 0.250007 0.928346
  outer loop
   vertex 132.242142 -32.787743 486.977753
   vertex 132.239883 -33.270706 487.107147
   vertex 132.488708 -33.253368 487.176208
  endloop
 endfacet

 facet normal 0.242495 0.250008 0.937386
  outer loop
   vertex 131.991043 -32.770405 487.038086
   vertex 132.239883 -33.270706 487.107147
   vertex 132.242142 -32.787743 486.977753
  endloop
 endfacet

 facet normal 0.242495 0.250008 0.937386
  outer loop
   vertex 131.988785 -33.253368 487.167480
   vertex 132.239883 -33.270706 487.107147
   vertex 131.991043 -32.770405 487.038086
  endloop
 endfacet

 facet normal 0.695083 0.183018 0.695244
  outer loop
   vertex 131.991043 -32.770405 487.038086
   vertex 131.804977 -32.723038 487.211639
   vertex 131.988785 -33.253368 487.167480
  endloop
 endfacet

 facet normal 0.695083 0.183018 0.695244
  outer loop
   vertex 131.988785 -33.253368 487.167480
   vertex 131.804977 -32.723038 487.211639
   vertex 131.802719 -33.206001 487.341034
  endloop
 endfacet

 facet normal 0.961415 0.066990 0.266821
  outer loop
   vertex 131.802719 -33.206001 487.341034
   vertex 131.804977 -32.723038 487.211639
   vertex 131.733780 -32.658333 487.451935
  endloop
 endfacet

 facet normal 0.961415 0.066990 0.266821
  outer loop
   vertex 131.733780 -32.658333 487.451935
   vertex 131.731522 -33.141296 487.581329
   vertex 131.802719 -33.206001 487.341034
  endloop
 endfacet

 facet normal 0.970131 -0.067000 -0.233145
  outer loop
   vertex 131.794296 -33.076591 487.823944
   vertex 131.731522 -33.141296 487.581329
   vertex 131.733780 -32.658333 487.451935
  endloop
 endfacet

endsolid