solid stl file generated from DOUG
 facet normal -0.596696 0.041451 -0.801396
  outer loop
   vertex -7.114227 206.564041 473.461609
   vertex -7.031070 207.724518 473.459717
   vertex -7.030012 206.567398 473.399078
  endloop
 endfacet

 facet normal 0.017417 0.052341 -0.998477
  outer loop
   vertex -7.030012 206.567398 473.399078
   vertex -7.031070 207.724518 473.459717
   vertex -6.189569 207.724518 473.474396
  endloop
 endfacet

 facet normal -0.000914 0.998629 0.052340
  outer loop
   vertex -5.152983 181.723114 473.790802
   vertex -3.319478 181.740509 473.490936
   vertex -5.147192 181.740509 473.459015
  endloop
 endfacet

 facet normal 0.017439 0.052323 -0.998478
  outer loop
   vertex -5.147192 181.740509 473.459015
   vertex -3.319478 181.740509 473.490936
   vertex -5.218360 181.457321 473.442932
  endloop
 endfacet

 facet normal 0.017439 0.052404 -0.998474
  outer loop
   vertex -5.243746 209.213043 474.897339
   vertex -3.344347 208.929855 474.915649
   vertex -5.172060 208.929855 474.883728
  endloop
 endfacet

 facet normal 0.000913 -0.998631 -0.052295
  outer loop
   vertex -5.172060 208.929855 474.883728
   vertex -3.344347 208.929855 474.915649
   vertex -5.177852 208.912476 475.215515
  endloop
 endfacet

 facet normal -0.999848 -0.000000 -0.017452
  outer loop
   vertex -7.082698 207.098251 475.044952
   vertex -7.080788 207.103989 474.935516
   vertex -7.059242 183.547485 473.701172
  endloop
 endfacet

 facet normal -0.579747 0.042107 -0.813708
  outer loop
   vertex -7.059242 183.547485 473.701172
   vertex -7.080788 207.103989 474.935516
   vertex -6.940866 183.552002 473.617065
  endloop
 endfacet

 facet normal 0.017417 0.052341 -0.998477
  outer loop
   vertex -6.167033 183.084686 472.183289
   vertex -7.009592 184.241806 472.229248
   vertex -6.168091 184.241806 472.243927
  endloop
 endfacet

 facet normal -0.000912 0.998631 0.052303
  outer loop
   vertex -6.168091 184.241806 472.243927
   vertex -7.009592 184.241806 472.229248
   vertex -6.998157 184.229370 472.466888
  endloop
 endfacet

 facet normal -0.927133 0.018763 -0.374262
  outer loop
   vertex -6.273842 207.180420 473.490997
   vertex -6.252296 183.623917 472.256653
   vertex -6.287306 207.178665 473.524261
  endloop
 endfacet

 facet normal -0.927009 0.018780 -0.374568
  outer loop
   vertex -6.287306 207.178665 473.524261
   vertex -6.252296 183.623917 472.256653
   vertex -6.265760 183.622162 472.289886
  endloop
 endfacet

 facet normal 0.017385 0.052337 -0.998478
  outer loop
   vertex -6.265760 183.622162 472.289886
   vertex -6.879198 183.622162 472.279205
   vertex -6.287306 207.178665 473.524261
  endloop
 endfacet

 facet normal 0.017424 0.052324 -0.998478
  outer loop
   vertex -2.245672 208.484299 474.911469
   vertex -1.148073 209.213043 474.968811
   vertex -1.146241 207.210312 474.863892
  endloop
 endfacet

 facet normal 0.999848 0.000000 0.017453
  outer loop
   vertex -1.146241 207.210312 474.863892
   vertex -1.148073 209.213043 474.968811
   vertex -1.152032 207.192917 475.195679
  endloop
 endfacet

 facet normal 0.000914 -0.998629 -0.052340
  outer loop
   vertex -1.152032 207.192917 475.195679
   vertex -5.513382 207.192917 475.119537
   vertex -1.146241 207.210312 474.863892
  endloop
 endfacet

 facet normal -0.999848 0.000000 -0.017455
  outer loop
   vertex -7.139265 207.649155 474.896057
   vertex -7.140977 206.483719 474.994141
   vertex -7.142035 207.640839 475.054779
  endloop
 endfacet

 facet normal -0.624286 -0.041452 0.780096
  outer loop
   vertex -7.142035 207.640839 475.054779
   vertex -7.140977 206.483719 474.994141
   vertex -7.058994 206.480362 475.059570
  endloop
 endfacet

 facet normal -0.624286 -0.041452 0.780096
  outer loop
   vertex -7.058994 206.480362 475.059570
   vertex -7.060053 207.637482 475.120209
   vertex -7.142035 207.640839 475.054779
  endloop
 endfacet

 facet normal 0.999848 -0.000000 0.017453
  outer loop
   vertex -1.124518 183.460052 473.619385
   vertex -1.130310 183.442657 473.951172
   vertex -1.122686 181.457321 473.514435
  endloop
 endfacet

 facet normal 0.999848 -0.000000 0.017453
  outer loop
   vertex -1.122686 181.457321 473.514435
   vertex -1.130310 183.442657 473.951172
   vertex -1.128478 181.439941 473.846222
  endloop
 endfacet

 facet normal 0.000913 -0.998631 -0.052295
  outer loop
   vertex -1.128478 181.439941 473.846222
   vertex -5.224151 181.439941 473.774719
   vertex -1.122686 181.457321 473.514435
  endloop
 endfacet

 facet normal -0.999848 0.000000 -0.017453
  outer loop
   vertex -5.515017 208.980301 475.213196
   vertex -5.509225 208.997696 474.881409
   vertex -5.507591 207.210312 474.787750
  endloop
 endfacet

 facet normal 0.017427 0.052336 -0.998477
  outer loop
   vertex -5.507591 207.210312 474.787750
   vertex -5.509225 208.997696 474.881409
   vertex -5.170986 207.755554 474.822205
  endloop
 endfacet

 facet normal 0.017422 0.052339 -0.998477
  outer loop
   vertex -5.170986 207.755554 474.822205
   vertex -3.343272 207.755554 474.854095
   vertex -5.507591 207.210312 474.787750
  endloop
 endfacet

 facet normal -0.607697 -0.042112 0.793052
  outer loop
   vertex -6.941877 207.170166 473.674988
   vertex -7.057247 207.174683 473.586823
   vertex -7.035701 183.618179 472.352448
  endloop
 endfacet

 facet normal -0.999848 -0.000000 -0.017452
  outer loop
   vertex -7.035701 183.618179 472.352448
   vertex -7.057247 207.174683 473.586823
   vertex -7.055336 207.180420 473.477356
  endloop
 endfacet

 facet normal -0.999848 0.000000 -0.017452
  outer loop
   vertex -7.055336 207.180420 473.477356
   vertex -7.033791 183.623917 472.243011
   vertex -7.035701 183.618179 472.352448
  endloop
 endfacet

 facet normal 0.017422 0.052312 -0.998479
  outer loop
   vertex -3.320552 182.914825 473.552460
   vertex -5.148266 182.914825 473.520569
   vertex -5.485868 183.460052 473.543243
  endloop
 endfacet

 facet normal 0.017462 0.052336 -0.998477
  outer loop
   vertex -5.485868 183.460052 473.543243
   vertex -5.148266 182.914825 473.520569
   vertex -5.484233 181.672684 473.449585
  endloop
 endfacet

 facet normal -0.999848 0.000000 -0.017452
  outer loop
   vertex -5.484233 181.672684 473.449585
   vertex -5.490024 181.655289 473.781372
   vertex -5.485868 183.460052 473.543243
  endloop
 endfacet

 facet normal -0.624281 -0.041431 0.780100
  outer loop
   vertex -7.037516 182.997650 473.829102
   vertex -7.038575 184.154770 473.889709
   vertex -7.119499 183.000992 473.763672
  endloop
 endfacet

 facet normal -0.624286 -0.041431 0.780097
  outer loop
   vertex -7.119499 183.000992 473.763672
   vertex -7.038575 184.154770 473.889709
   vertex -7.120557 184.158127 473.824280
  endloop
 endfacet

 facet normal -0.999848 -0.000001 -0.017452
  outer loop
   vertex -7.120557 184.158127 473.824280
   vertex -7.116728 183.009323 473.604950
   vertex -7.119499 183.000992 473.763672
  endloop
 endfacet

 facet normal -0.000984 0.998631 0.052305
  outer loop
   vertex -7.096577 184.230133 472.450470
   vertex -6.998157 184.229370 472.466888
   vertex -7.093807 184.238449 472.291748
  endloop
 endfacet

 facet normal -0.000988 0.998631 0.052307
  outer loop
   vertex -7.093807 184.238449 472.291748
   vertex -6.998157 184.229370 472.466888
   vertex -7.009592 184.241806 472.229248
  endloop
 endfacet

 facet normal -0.596509 0.041459 -0.801535
  outer loop
   vertex -7.009592 184.241806 472.229248
   vertex -7.008533 183.084686 472.168610
   vertex -7.093807 184.238449 472.291748
  endloop
 endfacet

 facet normal 0.017417 0.052341 -0.998477
  outer loop
   vertex -6.167033 183.084686 472.183289
   vertex -7.008533 183.084686 472.168610
   vertex -7.009592 184.241806 472.229248
  endloop
 endfacet

 facet normal 0.017453 0.052314 -0.998478
  outer loop
   vertex -6.189569 207.724518 473.474396
   vertex -6.188511 206.567398 473.413788
   vertex -7.030012 206.567398 473.399078
  endloop
 endfacet

 facet normal 0.000915 -0.998628 -0.052360
  outer loop
   vertex -7.030012 206.567398 473.399078
   vertex -6.188511 206.567398 473.413788
   vertex -7.018576 206.554947 473.636749
  endloop
 endfacet

 facet normal 0.000928 -0.998628 -0.052361
  outer loop
   vertex -7.018576 206.554947 473.636749
   vertex -7.114227 206.564041 473.461609
   vertex -7.030012 206.567398 473.399078
  endloop
 endfacet

 facet normal 0.000830 -0.998631 -0.052308
  outer loop
   vertex -7.116997 206.555725 473.620331
   vertex -7.114227 206.564041 473.461609
   vertex -7.018576 206.554947 473.636749
  endloop
 endfacet

 facet normal -0.607831 -0.042106 0.792950
  outer loop
   vertex -7.035701 183.618179 472.352448
   vertex -6.920331 183.613663 472.440643
   vertex -6.941877 207.170166 473.674988
  endloop
 endfacet

 facet normal -0.999848 0.000000 -0.017452
  outer loop
   vertex -6.941877 207.170166 473.674988
   vertex -6.920331 183.613663 472.440643
   vertex -6.940866 183.552002 473.617065
  endloop
 endfacet

 facet normal -0.999848 0.000000 -0.017453
  outer loop
   vertex -6.940866 183.552002 473.617065
   vertex -6.962412 207.108505 474.851410
   vertex -6.941877 207.170166 473.674988
  endloop
 endfacet

 facet normal -0.579747 0.042107 -0.813708
  outer loop
   vertex -7.080788 207.103989 474.935516
   vertex -6.962412 207.108505 474.851410
   vertex -6.940866 183.552002 473.617065
  endloop
 endfacet

 facet normal -0.017439 -0.052329 0.998478
  outer loop
   vertex -5.176777 207.738159 475.153992
   vertex -5.513382 207.192917 475.119537
   vertex -3.349064 207.738159 475.185913
  endloop
 endfacet

 facet normal -0.017432 -0.052357 0.998476
  outer loop
   vertex -3.349064 207.738159 475.185913
   vertex -5.513382 207.192917 475.119537
   vertex -1.152032 207.192917 475.195679
  endloop
 endfacet

 facet normal -0.017424 -0.052324 0.998478
  outer loop
   vertex -1.152032 207.192917 475.195679
   vertex -1.153864 209.195648 475.300598
   vertex -3.349064 207.738159 475.185913
  endloop
 endfacet

 facet normal 0.999848 0.000000 0.017453
  outer loop
   vertex -1.148073 209.213043 474.968811
   vertex -1.153864 209.195648 475.300598
   vertex -1.152032 207.192917 475.195679
  endloop
 endfacet

 facet normal -0.000913 0.998629 0.052340
  outer loop
   vertex -5.249538 209.195648 475.229126
   vertex -1.153864 209.195648 475.300598
   vertex -1.148073 209.213043 474.968811
  endloop
 endfacet

 facet normal -0.000914 0.998629 0.052340
  outer loop
   vertex -1.124518 183.460052 473.619385
   vertex -5.491659 183.442657 473.875031
   vertex -1.130310 183.442657 473.951172
  endloop
 endfacet

 facet normal -0.017432 -0.052350 0.998477
  outer loop
   vertex -1.130310 183.442657 473.951172
   vertex -5.491659 183.442657 473.875031
   vertex -3.326344 182.897430 473.884247
  endloop
 endfacet

 facet normal -0.017434 -0.052340 0.998477
  outer loop
   vertex -3.326344 182.897430 473.884247
   vertex -1.128478 181.439941 473.846222
   vertex -1.130310 183.442657 473.951172
  endloop
 endfacet

 facet normal -0.017426 -0.052327 0.998478
  outer loop
   vertex -3.325269 181.723114 473.822723
   vertex -1.128478 181.439941 473.846222
   vertex -3.326344 182.897430 473.884247
  endloop
 endfacet

 facet normal -0.017431 -0.052373 0.998475
  outer loop
   vertex -5.224151 181.439941 473.774719
   vertex -1.128478 181.439941 473.846222
   vertex -3.325269 181.723114 473.822723
  endloop
 endfacet

 facet normal 0.000896 -0.998628 -0.052349
  outer loop
   vertex -1.152133 207.188828 475.195374
   vertex -5.469558 207.257431 473.812775
   vertex -1.129323 207.257355 473.888519
  endloop
 endfacet

 facet normal 0.017426 0.052327 -0.998478
  outer loop
   vertex -1.129323 207.257355 473.888519
   vertex -5.469558 207.257431 473.812775
   vertex -5.469854 207.587708 473.830078
  endloop
 endfacet

 facet normal 0.017426 0.052327 -0.998478
  outer loop
   vertex -5.469854 207.587708 473.830078
   vertex -1.129619 207.587631 473.905823
   vertex -1.129323 207.257355 473.888519
  endloop
 endfacet

 facet normal -0.000896 0.998627 0.052373
  outer loop
   vertex -5.492610 207.519150 475.136932
   vertex -1.129619 207.587631 473.905823
   vertex -5.469854 207.587708 473.830078
  endloop
 endfacet

 facet normal -0.000903 0.998628 0.052349
  outer loop
   vertex -1.152430 207.519104 475.212677
   vertex -1.129619 207.587631 473.905823
   vertex -5.492610 207.519150 475.136932
  endloop
 endfacet

 facet normal 0.017345 0.052335 -0.998479
  outer loop
   vertex -7.033791 183.623917 472.243011
   vertex -7.055336 207.180420 473.477356
   vertex -6.891493 183.623917 472.245483
  endloop
 endfacet

 facet normal 0.017559 0.052337 -0.998475
  outer loop
   vertex -6.891493 183.623917 472.245483
   vertex -7.055336 207.180420 473.477356
   vertex -6.913039 207.180420 473.479858
  endloop
 endfacet

 facet normal 0.939653 0.018760 -0.341614
  outer loop
   vertex -6.913039 207.180420 473.479858
   vertex -6.879198 183.622162 472.279205
   vertex -6.891493 183.623917 472.245483
  endloop
 endfacet

 facet normal 0.939554 0.018774 -0.341887
  outer loop
   vertex -6.900744 207.178665 473.513550
   vertex -6.879198 183.622162 472.279205
   vertex -6.913039 207.180420 473.479858
  endloop
 endfacet

 facet normal 0.017435 0.052335 -0.998477
  outer loop
   vertex -6.287306 207.178665 473.524261
   vertex -6.879198 183.622162 472.279205
   vertex -6.900744 207.178665 473.513550
  endloop
 endfacet

 facet normal 0.000924 -0.998630 -0.052314
  outer loop
   vertex -1.130110 183.116486 473.933990
   vertex -5.470290 183.116440 473.858246
   vertex -1.107299 183.184967 472.627136
  endloop
 endfacet

 facet normal 0.000930 -0.998632 -0.052289
  outer loop
   vertex -1.107299 183.184967 472.627136
   vertex -5.470290 183.116440 473.858246
   vertex -5.447535 183.184891 472.551361
  endloop
 endfacet

 facet normal 0.017431 0.052327 -0.998478
  outer loop
   vertex -5.447535 183.184891 472.551361
   vertex -1.107607 183.515244 472.644440
   vertex -1.107299 183.184967 472.627136
  endloop
 endfacet

 facet normal 0.017431 0.052327 -0.998478
  outer loop
   vertex -5.447842 183.515167 472.568665
   vertex -1.107607 183.515244 472.644440
   vertex -5.447535 183.184891 472.551361
  endloop
 endfacet

 facet normal -0.000931 0.998630 0.052314
  outer loop
   vertex -1.130418 183.446762 473.951294
   vertex -1.107607 183.515244 472.644440
   vertex -5.447842 183.515167 472.568665
  endloop
 endfacet

 facet normal -0.000931 0.998630 0.052314
  outer loop
   vertex -5.447842 183.515167 472.568665
   vertex -5.470653 183.446686 473.875519
   vertex -1.130418 183.446762 473.951294
  endloop
 endfacet

 facet normal 0.017694 0.052337 -0.998473
  outer loop
   vertex -6.273842 207.180420 473.490997
   vertex -6.203236 207.180420 473.492249
   vertex -6.181690 183.623917 472.257874
  endloop
 endfacet

 facet normal 0.999848 0.000000 0.017452
  outer loop
   vertex -6.181690 183.623917 472.257874
   vertex -6.203236 207.180420 473.492249
   vertex -6.230598 207.098251 475.059845
  endloop
 endfacet

 facet normal 0.999848 -0.000000 0.017452
  outer loop
   vertex -6.230598 207.098251 475.059845
   vertex -6.209053 183.541748 473.825470
   vertex -6.181690 183.623917 472.257874
  endloop
 endfacet

 facet normal -0.017694 -0.052337 0.998473
  outer loop
   vertex -6.301204 207.098251 475.058594
   vertex -6.209053 183.541748 473.825470
   vertex -6.230598 207.098251 475.059845
  endloop
 endfacet

 facet normal -0.017263 -0.052335 0.998480
  outer loop
   vertex -6.279658 183.541748 473.824249
   vertex -6.209053 183.541748 473.825470
   vertex -6.301204 207.098251 475.058594
  endloop
 endfacet

 facet normal -0.939549 -0.018775 0.341899
  outer loop
   vertex -6.301204 207.098251 475.058594
   vertex -6.313499 207.100006 475.024902
   vertex -6.279658 183.541748 473.824249
  endloop
 endfacet

 facet normal -0.939549 -0.018775 0.341899
  outer loop
   vertex -6.279658 183.541748 473.824249
   vertex -6.313499 207.100006 475.024902
   vertex -6.291954 183.543503 473.790558
  endloop
 endfacet

 facet normal -0.017435 -0.052335 0.998477
  outer loop
   vertex -6.291954 183.543503 473.790558
   vertex -6.313499 207.100006 475.024902
   vertex -6.926937 207.100006 475.014191
  endloop
 endfacet

 facet normal -0.017435 -0.052335 0.998477
  outer loop
   vertex -6.926937 207.100006 475.014191
   vertex -6.905391 183.543503 473.779846
   vertex -6.291954 183.543503 473.790558
  endloop
 endfacet

 facet normal 0.927133 -0.018763 0.374262
  outer loop
   vertex -6.940401 207.098251 475.047455
   vertex -6.905391 183.543503 473.779846
   vertex -6.926937 207.100006 475.014191
  endloop
 endfacet

 facet normal 0.927014 -0.018779 0.374557
  outer loop
   vertex -6.918855 183.541748 473.813080
   vertex -6.905391 183.543503 473.779846
   vertex -6.940401 207.098251 475.047455
  endloop
 endfacet

 facet normal -0.017559 -0.052337 0.998475
  outer loop
   vertex -6.940401 207.098251 475.047455
   vertex -7.082698 207.098251 475.044952
   vertex -6.918855 183.541748 473.813080
  endloop
 endfacet

 facet normal -0.017345 -0.052335 0.998479
  outer loop
   vertex -6.918855 183.541748 473.813080
   vertex -7.082698 207.098251 475.044952
   vertex -7.061153 183.541748 473.810608
  endloop
 endfacet

 facet normal -0.999848 0.000000 -0.017457
  outer loop
   vertex -7.061153 183.541748 473.810608
   vertex -7.082698 207.098251 475.044952
   vertex -7.059242 183.547485 473.701172
  endloop
 endfacet

 facet normal 0.000913 -0.998631 -0.052295
  outer loop
   vertex -5.224151 181.439941 473.774719
   vertex -5.218360 181.457321 473.442932
   vertex -1.122686 181.457321 473.514435
  endloop
 endfacet

 facet normal 0.017431 0.052370 -0.998476
  outer loop
   vertex -1.122686 181.457321 473.514435
   vertex -5.218360 181.457321 473.442932
   vertex -3.319478 181.740509 473.490936
  endloop
 endfacet

 facet normal 0.017426 0.052326 -0.998478
  outer loop
   vertex -3.319478 181.740509 473.490936
   vertex -2.221619 182.186081 473.533447
   vertex -1.122686 181.457321 473.514435
  endloop
 endfacet

 facet normal 0.017426 0.052327 -0.998478
  outer loop
   vertex -3.320552 182.914825 473.552460
   vertex -2.221619 182.186081 473.533447
   vertex -3.319478 181.740509 473.490936
  endloop
 endfacet

 facet normal 0.017434 0.052340 -0.998477
  outer loop
   vertex -1.124518 183.460052 473.619385
   vertex -2.221619 182.186081 473.533447
   vertex -3.320552 182.914825 473.552460
  endloop
 endfacet

 facet normal 0.017432 0.052350 -0.998477
  outer loop
   vertex -3.320552 182.914825 473.552460
   vertex -5.485868 183.460052 473.543243
   vertex -1.124518 183.460052 473.619385
  endloop
 endfacet

 facet normal -0.000914 0.998629 0.052340
  outer loop
   vertex -1.124518 183.460052 473.619385
   vertex -5.485868 183.460052 473.543243
   vertex -5.491659 183.442657 473.875031
  endloop
 endfacet

 facet normal -0.999848 -0.000000 -0.017453
  outer loop
   vertex -5.491659 183.442657 473.875031
   vertex -5.485868 183.460052 473.543243
   vertex -5.490024 181.655289 473.781372
  endloop
 endfacet

 facet normal -0.017462 -0.052336 0.998477
  outer loop
   vertex -5.490024 181.655289 473.781372
   vertex -5.154057 182.897430 473.852356
   vertex -5.491659 183.442657 473.875031
  endloop
 endfacet

 facet normal -0.017401 -0.052353 0.998477
  outer loop
   vertex -5.152983 181.723114 473.790802
   vertex -5.154057 182.897430 473.852356
   vertex -5.490024 181.655289 473.781372
  endloop
 endfacet

 facet normal 0.999848 -0.000000 0.017452
  outer loop
   vertex -5.148266 182.914825 473.520569
   vertex -5.154057 182.897430 473.852356
   vertex -5.152983 181.723114 473.790802
  endloop
 endfacet

 facet normal 0.999848 -0.000000 0.017453
  outer loop
   vertex -5.152983 181.723114 473.790802
   vertex -5.147192 181.740509 473.459015
   vertex -5.148266 182.914825 473.520569
  endloop
 endfacet

 facet normal 0.017401 0.052353 -0.998477
  outer loop
   vertex -5.148266 182.914825 473.520569
   vertex -5.147192 181.740509 473.459015
   vertex -5.484233 181.672684 473.449585
  endloop
 endfacet

 facet normal 0.017405 0.052331 -0.998478
  outer loop
   vertex -5.484233 181.672684 473.449585
   vertex -5.147192 181.740509 473.459015
   vertex -5.218360 181.457321 473.442932
  endloop
 endfacet

 facet normal -0.629372 -0.775387 -0.051638
  outer loop
   vertex -5.218360 181.457321 473.442932
   vertex -5.490024 181.655289 473.781372
   vertex -5.484233 181.672684 473.449585
  endloop
 endfacet

 facet normal -0.629345 -0.775411 -0.051603
  outer loop
   vertex -5.224151 181.439941 473.774719
   vertex -5.490024 181.655289 473.781372
   vertex -5.218360 181.457321 473.442932
  endloop
 endfacet

 facet normal -0.017404 -0.052334 0.998478
  outer loop
   vertex -5.152983 181.723114 473.790802
   vertex -5.490024 181.655289 473.781372
   vertex -5.224151 181.439941 473.774719
  endloop
 endfacet

 facet normal -0.017439 -0.052326 0.998478
  outer loop
   vertex -5.224151 181.439941 473.774719
   vertex -3.325269 181.723114 473.822723
   vertex -5.152983 181.723114 473.790802
  endloop
 endfacet

 facet normal -0.000914 0.998629 0.052340
  outer loop
   vertex -5.152983 181.723114 473.790802
   vertex -3.325269 181.723114 473.822723
   vertex -3.319478 181.740509 473.490936
  endloop
 endfacet

 facet normal -0.999848 -0.000000 -0.017453
  outer loop
   vertex -3.319478 181.740509 473.490936
   vertex -3.325269 181.723114 473.822723
   vertex -3.326344 182.897430 473.884247
  endloop
 endfacet

 facet normal -0.999848 -0.000000 -0.017453
  outer loop
   vertex -3.326344 182.897430 473.884247
   vertex -3.320552 182.914825 473.552460
   vertex -3.319478 181.740509 473.490936
  endloop
 endfacet

 facet normal 0.000913 -0.998629 -0.052340
  outer loop
   vertex -5.154057 182.897430 473.852356
   vertex -3.320552 182.914825 473.552460
   vertex -3.326344 182.897430 473.884247
  endloop
 endfacet

 facet normal 0.000913 -0.998629 -0.052340
  outer loop
   vertex -5.148266 182.914825 473.520569
   vertex -3.320552 182.914825 473.552460
   vertex -5.154057 182.897430 473.852356
  endloop
 endfacet

 facet normal -0.000913 0.998629 0.052340
  outer loop
   vertex -5.170986 207.755554 474.822205
   vertex -5.176777 207.738159 475.153992
   vertex -3.343272 207.755554 474.854095
  endloop
 endfacet

 facet normal -0.000914 0.998629 0.052336
  outer loop
   vertex -3.343272 207.755554 474.854095
   vertex -5.176777 207.738159 475.153992
   vertex -3.349064 207.738159 475.185913
  endloop
 endfacet

 facet normal -0.999848 0.000000 -0.017451
  outer loop
   vertex -3.349064 207.738159 475.185913
   vertex -3.344347 208.929855 474.915649
   vertex -3.343272 207.755554 474.854095
  endloop
 endfacet

 facet normal -0.999848 -0.000000 -0.017453
  outer loop
   vertex -3.350138 208.912476 475.247437
   vertex -3.344347 208.929855 474.915649
   vertex -3.349064 207.738159 475.185913
  endloop
 endfacet

 facet normal 0.000913 -0.998631 -0.052295
  outer loop
   vertex -5.177852 208.912476 475.215515
   vertex -3.344347 208.929855 474.915649
   vertex -3.350138 208.912476 475.247437
  endloop
 endfacet

 facet normal -0.017439 -0.052407 0.998474
  outer loop
   vertex -3.350138 208.912476 475.247437
   vertex -5.249538 209.195648 475.229126
   vertex -5.177852 208.912476 475.215515
  endloop
 endfacet

 facet normal -0.017409 -0.052399 0.998474
  outer loop
   vertex -5.177852 208.912476 475.215515
   vertex -5.249538 209.195648 475.229126
   vertex -5.515017 208.980301 475.213196
  endloop
 endfacet

 facet normal -0.630763 0.775409 0.029643
  outer loop
   vertex -5.515017 208.980301 475.213196
   vertex -5.249538 209.195648 475.229126
   vertex -5.243746 209.213043 474.897339
  endloop
 endfacet

 facet normal -0.630763 0.775409 0.029643
  outer loop
   vertex -5.243746 209.213043 474.897339
   vertex -5.509225 208.997696 474.881409
   vertex -5.515017 208.980301 475.213196
  endloop
 endfacet

 facet normal 0.017411 0.052397 -0.998475
  outer loop
   vertex -5.172060 208.929855 474.883728
   vertex -5.509225 208.997696 474.881409
   vertex -5.243746 209.213043 474.897339
  endloop
 endfacet

 facet normal 0.017397 0.052328 -0.998478
  outer loop
   vertex -5.170986 207.755554 474.822205
   vertex -5.509225 208.997696 474.881409
   vertex -5.172060 208.929855 474.883728
  endloop
 endfacet

 facet normal 0.999848 -0.000000 0.017453
  outer loop
   vertex -5.172060 208.929855 474.883728
   vertex -5.177852 208.912476 475.215515
   vertex -5.170986 207.755554 474.822205
  endloop
 endfacet

 facet normal 0.999848 0.000000 0.017452
  outer loop
   vertex -5.170986 207.755554 474.822205
   vertex -5.177852 208.912476 475.215515
   vertex -5.176777 207.738159 475.153992
  endloop
 endfacet

 facet normal -0.017395 -0.052327 0.998478
  outer loop
   vertex -5.176777 207.738159 475.153992
   vertex -5.177852 208.912476 475.215515
   vertex -5.515017 208.980301 475.213196
  endloop
 endfacet

 facet normal -0.017427 -0.052336 0.998477
  outer loop
   vertex -5.515017 208.980301 475.213196
   vertex -5.513382 207.192917 475.119537
   vertex -5.176777 207.738159 475.153992
  endloop
 endfacet

 facet normal -0.999848 -0.000000 -0.017452
  outer loop
   vertex -5.507591 207.210312 474.787750
   vertex -5.513382 207.192917 475.119537
   vertex -5.515017 208.980301 475.213196
  endloop
 endfacet

 facet normal 0.000914 -0.998629 -0.052340
  outer loop
   vertex -1.146241 207.210312 474.863892
   vertex -5.513382 207.192917 475.119537
   vertex -5.507591 207.210312 474.787750
  endloop
 endfacet

 facet normal 0.017432 0.052301 -0.998479
  outer loop
   vertex -5.507591 207.210312 474.787750
   vertex -3.343272 207.755554 474.854095
   vertex -1.146241 207.210312 474.863892
  endloop
 endfacet

 facet normal 0.017441 0.052340 -0.998477
  outer loop
   vertex -1.146241 207.210312 474.863892
   vertex -3.343272 207.755554 474.854095
   vertex -2.245672 208.484299 474.911469
  endloop
 endfacet

 facet normal 0.017432 0.052354 -0.998476
  outer loop
   vertex -2.245672 208.484299 474.911469
   vertex -3.343272 207.755554 474.854095
   vertex -3.344347 208.929855 474.915649
  endloop
 endfacet

 facet normal 0.017421 0.052328 -0.998478
  outer loop
   vertex -3.344347 208.929855 474.915649
   vertex -1.148073 209.213043 474.968811
   vertex -2.245672 208.484299 474.911469
  endloop
 endfacet

 facet normal 0.017424 0.052307 -0.998479
  outer loop
   vertex -5.243746 209.213043 474.897339
   vertex -1.148073 209.213043 474.968811
   vertex -3.344347 208.929855 474.915649
  endloop
 endfacet

 facet normal -0.000913 0.998629 0.052340
  outer loop
   vertex -5.249538 209.195648 475.229126
   vertex -1.148073 209.213043 474.968811
   vertex -5.243746 209.213043 474.897339
  endloop
 endfacet

 facet normal -0.130212 0.051742 -0.990135
  outer loop
   vertex -7.040331 207.649933 474.883087
   vertex -7.039273 206.492798 474.822479
   vertex -7.139265 207.649155 474.896057
  endloop
 endfacet

 facet normal -0.129903 0.051771 -0.990174
  outer loop
   vertex -7.139265 207.649155 474.896057
   vertex -7.039273 206.492798 474.822479
   vertex -7.138206 206.492035 474.835419
  endloop
 endfacet

 facet normal -0.999848 0.000000 -0.017452
  outer loop
   vertex -7.138206 206.492035 474.835419
   vertex -7.140977 206.483719 474.994141
   vertex -7.139265 207.649155 474.896057
  endloop
 endfacet

 facet normal 0.000860 -0.998631 -0.052307
  outer loop
   vertex -7.039273 206.492798 474.822479
   vertex -7.140977 206.483719 474.994141
   vertex -7.138206 206.492035 474.835419
  endloop
 endfacet

 facet normal 0.000857 -0.998631 -0.052309
  outer loop
   vertex -7.058994 206.480362 475.059570
   vertex -7.140977 206.483719 474.994141
   vertex -7.039273 206.492798 474.822479
  endloop
 endfacet

 facet normal 0.000914 -0.998631 -0.052304
  outer loop
   vertex -7.039273 206.492798 474.822479
   vertex -6.217495 206.480362 475.074280
   vertex -7.058994 206.480362 475.059570
  endloop
 endfacet

 facet normal -0.017453 -0.052341 0.998477
  outer loop
   vertex -7.058994 206.480362 475.059570
   vertex -6.217495 206.480362 475.074280
   vertex -7.060053 207.637482 475.120209
  endloop
 endfacet

 facet normal -0.017417 -0.052315 0.998479
  outer loop
   vertex -7.060053 207.637482 475.120209
   vertex -6.217495 206.480362 475.074280
   vertex -6.218554 207.637482 475.134888
  endloop
 endfacet

 facet normal -0.000913 0.998628 0.052362
  outer loop
   vertex -6.218554 207.637482 475.134888
   vertex -7.040331 207.649933 474.883087
   vertex -7.060053 207.637482 475.120209
  endloop
 endfacet

 facet normal -0.000903 0.998630 0.052328
  outer loop
   vertex -6.189569 207.724518 473.474396
   vertex -7.040331 207.649933 474.883087
   vertex -6.218554 207.637482 475.134888
  endloop
 endfacet

 facet normal -0.000904 0.998630 0.052328
  outer loop
   vertex -7.019635 207.712082 473.697388
   vertex -7.040331 207.649933 474.883087
   vertex -6.189569 207.724518 473.474396
  endloop
 endfacet

 facet normal -0.000912 0.998631 0.052296
  outer loop
   vertex -6.189569 207.724518 473.474396
   vertex -7.031070 207.724518 473.459717
   vertex -7.019635 207.712082 473.697388
  endloop
 endfacet

 facet normal -0.000799 0.998632 0.052291
  outer loop
   vertex -7.019635 207.712082 473.697388
   vertex -7.031070 207.724518 473.459717
   vertex -7.115285 207.721176 473.522247
  endloop
 endfacet

 facet normal -0.596691 0.041451 -0.801400
  outer loop
   vertex -7.115285 207.721176 473.522247
   vertex -7.031070 207.724518 473.459717
   vertex -7.114227 206.564041 473.461609
  endloop
 endfacet

 facet normal -0.999848 0.000000 -0.017452
  outer loop
   vertex -7.114227 206.564041 473.461609
   vertex -7.118055 207.712845 473.680969
   vertex -7.115285 207.721176 473.522247
  endloop
 endfacet

 facet normal -0.999848 0.000000 -0.017452
  outer loop
   vertex -7.116997 206.555725 473.620331
   vertex -7.118055 207.712845 473.680969
   vertex -7.114227 206.564041 473.461609
  endloop
 endfacet

 facet normal -0.164715 -0.051768 0.984982
  outer loop
   vertex -7.019635 207.712082 473.697388
   vertex -7.118055 207.712845 473.680969
   vertex -7.116997 206.555725 473.620331
  endloop
 endfacet

 facet normal -0.164722 -0.051768 0.984981
  outer loop
   vertex -7.116997 206.555725 473.620331
   vertex -7.018576 206.554947 473.636749
   vertex -7.019635 207.712082 473.697388
  endloop
 endfacet

 facet normal -0.999848 -0.000000 -0.017452
  outer loop
   vertex -7.019635 207.712082 473.697388
   vertex -7.018576 206.554947 473.636749
   vertex -7.039273 206.492798 474.822479
  endloop
 endfacet

 facet normal 0.000924 -0.998630 -0.052326
  outer loop
   vertex -7.039273 206.492798 474.822479
   vertex -7.018576 206.554947 473.636749
   vertex -6.188511 206.567398 473.413788
  endloop
 endfacet

 facet normal 0.000922 -0.998630 -0.052328
  outer loop
   vertex -6.188511 206.567398 473.413788
   vertex -6.217495 206.480362 475.074280
   vertex -7.039273 206.492798 474.822479
  endloop
 endfacet

 facet normal 0.000914 -0.998630 -0.052328
  outer loop
   vertex -5.477954 206.493515 474.836182
   vertex -6.217495 206.480362 475.074280
   vertex -6.188511 206.567398 473.413788
  endloop
 endfacet

 facet normal 0.306884 -0.049503 0.950459
  outer loop
   vertex -6.218554 207.637482 475.134888
   vertex -6.217495 206.480362 475.074280
   vertex -5.477954 206.493515 474.836182
  endloop
 endfacet

 facet normal 0.306849 -0.049528 0.950469
  outer loop
   vertex -5.477954 206.493515 474.836182
   vertex -5.479012 207.650635 474.896820
   vertex -6.218554 207.637482 475.134888
  endloop
 endfacet

 facet normal -0.000917 0.998630 0.052326
  outer loop
   vertex -6.218554 207.637482 475.134888
   vertex -5.479012 207.650635 474.896820
   vertex -5.458788 207.711365 473.738159
  endloop
 endfacet

 facet normal 0.999848 -0.000000 0.017452
  outer loop
   vertex -5.458788 207.711365 473.738159
   vertex -5.479012 207.650635 474.896820
   vertex -5.477954 206.493515 474.836182
  endloop
 endfacet

 facet normal 0.999848 0.000000 0.017452
  outer loop
   vertex -5.477954 206.493515 474.836182
   vertex -5.457729 206.554245 473.677521
   vertex -5.458788 207.711365 473.738159
  endloop
 endfacet

 facet normal 0.000910 -0.998630 -0.052326
  outer loop
   vertex -6.188511 206.567398 473.413788
   vertex -5.457729 206.554245 473.677521
   vertex -5.477954 206.493515 474.836182
  endloop
 endfacet

 facet normal 0.339834 0.049528 -0.939181
  outer loop
   vertex -5.458788 207.711365 473.738159
   vertex -5.457729 206.554245 473.677521
   vertex -6.188511 206.567398 473.413788
  endloop
 endfacet

 facet normal 0.339868 0.049503 -0.939169
  outer loop
   vertex -6.188511 206.567398 473.413788
   vertex -6.189569 207.724518 473.474396
   vertex -5.458788 207.711365 473.738159
  endloop
 endfacet

 facet normal -0.000913 0.998630 0.052328
  outer loop
   vertex -5.458788 207.711365 473.738159
   vertex -6.189569 207.724518 473.474396
   vertex -6.218554 207.637482 475.134888
  endloop
 endfacet

 facet normal 0.000911 -0.998630 -0.052328
  outer loop
   vertex -6.196017 182.997650 473.843781
   vertex -6.167033 183.084686 472.183289
   vertex -5.436251 183.071533 472.447021
  endloop
 endfacet

 facet normal 0.339834 0.049528 -0.939181
  outer loop
   vertex -5.436251 183.071533 472.447021
   vertex -6.167033 183.084686 472.183289
   vertex -6.168091 184.241806 472.243927
  endloop
 endfacet

 facet normal 0.339834 0.049528 -0.939180
  outer loop
   vertex -6.168091 184.241806 472.243927
   vertex -5.437310 184.228653 472.507660
   vertex -5.436251 183.071533 472.447021
  endloop
 endfacet

 facet normal -0.000910 0.998630 0.052326
  outer loop
   vertex -5.457534 184.167923 473.666321
   vertex -5.437310 184.228653 472.507660
   vertex -6.168091 184.241806 472.243927
  endloop
 endfacet

 facet normal 0.999848 0.000000 0.017452
  outer loop
   vertex -5.436251 183.071533 472.447021
   vertex -5.437310 184.228653 472.507660
   vertex -5.457534 184.167923 473.666321
  endloop
 endfacet

 facet normal 0.999848 -0.000000 0.017452
  outer loop
   vertex -5.457534 184.167923 473.666321
   vertex -5.456476 183.010803 473.605682
   vertex -5.436251 183.071533 472.447021
  endloop
 endfacet

 facet normal 0.000914 -0.998630 -0.052326
  outer loop
   vertex -5.436251 183.071533 472.447021
   vertex -5.456476 183.010803 473.605682
   vertex -6.196017 182.997650 473.843781
  endloop
 endfacet

 facet normal 0.306884 -0.049528 0.950457
  outer loop
   vertex -6.196017 182.997650 473.843781
   vertex -5.456476 183.010803 473.605682
   vertex -5.457534 184.167923 473.666321
  endloop
 endfacet

 facet normal 0.306884 -0.049528 0.950457
  outer loop
   vertex -5.457534 184.167923 473.666321
   vertex -6.197075 184.154770 473.904419
   vertex -6.196017 182.997650 473.843781
  endloop
 endfacet

 facet normal -0.000914 0.998630 0.052328
  outer loop
   vertex -6.168091 184.241806 472.243927
   vertex -6.197075 184.154770 473.904419
   vertex -5.457534 184.167923 473.666321
  endloop
 endfacet

 facet normal -0.000903 0.998630 0.052328
  outer loop
   vertex -7.018853 184.167221 473.652618
   vertex -6.197075 184.154770 473.904419
   vertex -6.168091 184.241806 472.243927
  endloop
 endfacet

 facet normal -0.000906 0.998630 0.052327
  outer loop
   vertex -6.168091 184.241806 472.243927
   vertex -6.998157 184.229370 472.466888
   vertex -7.018853 184.167221 473.652618
  endloop
 endfacet

 facet normal -0.999848 -0.000000 -0.017452
  outer loop
   vertex -7.018853 184.167221 473.652618
   vertex -6.998157 184.229370 472.466888
   vertex -6.997098 183.072235 472.406250
  endloop
 endfacet

 facet normal -0.164715 -0.051768 0.984982
  outer loop
   vertex -6.997098 183.072235 472.406250
   vertex -6.998157 184.229370 472.466888
   vertex -7.096577 184.230133 472.450470
  endloop
 endfacet

 facet normal -0.164425 -0.051745 0.985031
  outer loop
   vertex -7.096577 184.230133 472.450470
   vertex -7.095519 183.073013 472.389862
   vertex -6.997098 183.072235 472.406250
  endloop
 endfacet

 facet normal -0.999848 -0.000000 -0.017452
  outer loop
   vertex -7.093807 184.238449 472.291748
   vertex -7.095519 183.073013 472.389862
   vertex -7.096577 184.230133 472.450470
  endloop
 endfacet

 facet normal -0.999848 -0.000000 -0.017455
  outer loop
   vertex -7.092748 183.081329 472.231140
   vertex -7.095519 183.073013 472.389862
   vertex -7.093807 184.238449 472.291748
  endloop
 endfacet

 facet normal -0.596698 0.041430 -0.801396
  outer loop
   vertex -7.093807 184.238449 472.291748
   vertex -7.008533 183.084686 472.168610
   vertex -7.092748 183.081329 472.231140
  endloop
 endfacet

 facet normal 0.000923 -0.998627 -0.052368
  outer loop
   vertex -7.092748 183.081329 472.231140
   vertex -7.008533 183.084686 472.168610
   vertex -6.997098 183.072235 472.406250
  endloop
 endfacet

 facet normal 0.000913 -0.998627 -0.052367
  outer loop
   vertex -6.997098 183.072235 472.406250
   vertex -7.008533 183.084686 472.168610
   vertex -6.167033 183.084686 472.183289
  endloop
 endfacet

 facet normal 0.000924 -0.998630 -0.052326
  outer loop
   vertex -6.167033 183.084686 472.183289
   vertex -7.017795 183.010086 473.591980
   vertex -6.997098 183.072235 472.406250
  endloop
 endfacet

 facet normal 0.000922 -0.998630 -0.052328
  outer loop
   vertex -6.196017 182.997650 473.843781
   vertex -7.017795 183.010086 473.591980
   vertex -6.167033 183.084686 472.183289
  endloop
 endfacet

 facet normal 0.000912 -0.998631 -0.052298
  outer loop
   vertex -7.037516 182.997650 473.829102
   vertex -7.017795 183.010086 473.591980
   vertex -6.196017 182.997650 473.843781
  endloop
 endfacet

 facet normal -0.017417 -0.052341 0.998477
  outer loop
   vertex -6.196017 182.997650 473.843781
   vertex -6.197075 184.154770 473.904419
   vertex -7.037516 182.997650 473.829102
  endloop
 endfacet

 facet normal -0.017453 -0.052315 0.998478
  outer loop
   vertex -7.037516 182.997650 473.829102
   vertex -6.197075 184.154770 473.904419
   vertex -7.038575 184.154770 473.889709
  endloop
 endfacet

 facet normal -0.000915 0.998627 0.052368
  outer loop
   vertex -7.038575 184.154770 473.889709
   vertex -6.197075 184.154770 473.904419
   vertex -7.018853 184.167221 473.652618
  endloop
 endfacet

 facet normal -0.000905 0.998627 0.052369
  outer loop
   vertex -7.018853 184.167221 473.652618
   vertex -7.120557 184.158127 473.824280
   vertex -7.038575 184.154770 473.889709
  endloop
 endfacet

 facet normal -0.001014 0.998631 0.052304
  outer loop
   vertex -7.117786 184.166443 473.665558
   vertex -7.120557 184.158127 473.824280
   vertex -7.018853 184.167221 473.652618
  endloop
 endfacet

 facet normal -0.999848 -0.000000 -0.017455
  outer loop
   vertex -7.116728 183.009323 473.604950
   vertex -7.120557 184.158127 473.824280
   vertex -7.117786 184.166443 473.665558
  endloop
 endfacet

 facet normal -0.129912 0.051745 -0.990174
  outer loop
   vertex -7.117786 184.166443 473.665558
   vertex -7.018853 184.167221 473.652618
   vertex -7.116728 183.009323 473.604950
  endloop
 endfacet

 facet normal -0.130204 0.051768 -0.990135
  outer loop
   vertex -7.116728 183.009323 473.604950
   vertex -7.018853 184.167221 473.652618
   vertex -7.017795 183.010086 473.591980
  endloop
 endfacet

 facet normal -0.999848 -0.000000 -0.017452
  outer loop
   vertex -7.017795 183.010086 473.591980
   vertex -7.018853 184.167221 473.652618
   vertex -6.997098 183.072235 472.406250
  endloop
 endfacet

 facet normal -0.017422 -0.052327 0.998478
  outer loop
   vertex -3.349064 207.738159 475.185913
   vertex -1.153864 209.195648 475.300598
   vertex -3.350138 208.912476 475.247437
  endloop
 endfacet

 facet normal -0.017424 -0.052310 0.998479
  outer loop
   vertex -3.350138 208.912476 475.247437
   vertex -1.153864 209.195648 475.300598
   vertex -5.249538 209.195648 475.229126
  endloop
 endfacet

 facet normal 0.001026 -0.998632 -0.052288
  outer loop
   vertex -7.037516 182.997650 473.829102
   vertex -7.119499 183.000992 473.763672
   vertex -7.017795 183.010086 473.591980
  endloop
 endfacet

 facet normal 0.000831 -0.998626 -0.052403
  outer loop
   vertex -7.017795 183.010086 473.591980
   vertex -7.119499 183.000992 473.763672
   vertex -7.116728 183.009323 473.604950
  endloop
 endfacet

 facet normal -0.000900 0.998628 0.052363
  outer loop
   vertex -7.060053 207.637482 475.120209
   vertex -7.040331 207.649933 474.883087
   vertex -7.142035 207.640839 475.054779
  endloop
 endfacet

 facet normal -0.000998 0.998631 0.052305
  outer loop
   vertex -7.142035 207.640839 475.054779
   vertex -7.040331 207.649933 474.883087
   vertex -7.139265 207.649155 474.896057
  endloop
 endfacet

 facet normal 0.000814 -0.998631 -0.052308
  outer loop
   vertex -7.092748 183.081329 472.231140
   vertex -6.997098 183.072235 472.406250
   vertex -7.095519 183.073013 472.389862
  endloop
 endfacet

 facet normal -0.001000 0.998626 0.052400
  outer loop
   vertex -7.115285 207.721176 473.522247
   vertex -7.118055 207.712845 473.680969
   vertex -7.019635 207.712082 473.697388
  endloop
 endfacet

 facet normal 0.017435 0.052340 -0.998477
  outer loop
   vertex -1.122686 181.457321 473.514435
   vertex -2.221619 182.186081 473.533447
   vertex -1.124518 183.460052 473.619385
  endloop
 endfacet

 facet normal -0.999848 -0.000001 -0.017453
  outer loop
   vertex -7.019635 207.712082 473.697388
   vertex -7.039273 206.492798 474.822479
   vertex -7.040331 207.649933 474.883087
  endloop
 endfacet

 facet normal -0.999848 0.000014 -0.017409
  outer loop
   vertex -5.469854 207.587708 473.830078
   vertex -5.469558 207.257431 473.812775
   vertex -5.492610 207.519150 475.136932
  endloop
 endfacet

 facet normal -0.999848 -0.000019 -0.017410
  outer loop
   vertex -5.447535 183.184891 472.551361
   vertex -5.470290 183.116440 473.858246
   vertex -5.447842 183.515167 472.568665
  endloop
 endfacet

 facet normal 0.017263 0.052335 -0.998480
  outer loop
   vertex -6.181690 183.623917 472.257874
   vertex -6.252296 183.623917 472.256653
   vertex -6.273842 207.180420 473.490997
  endloop
 endfacet

 facet normal 0.000896 -0.998628 -0.052350
  outer loop
   vertex -5.469558 207.257431 473.812775
   vertex -1.152133 207.188828 475.195374
   vertex -5.492369 207.188904 475.119598
  endloop
 endfacet

 facet normal -0.017422 -0.052312 0.998479
  outer loop
   vertex -5.491659 183.442657 473.875031
   vertex -5.154057 182.897430 473.852356
   vertex -3.326344 182.897430 473.884247
  endloop
 endfacet

endsolid