solid stl file generated from DOUG
 facet normal -0.109262 -0.547714 0.829501
  outer loop
   vertex 29.662949 114.435493 450.634369
   vertex 29.781128 114.483788 450.681824
   vertex 25.296425 121.493599 454.719635
  endloop
 endfacet

 facet normal 0.633385 -0.039930 0.772806
  outer loop
   vertex 25.296425 121.493599 454.719635
   vertex 29.781128 114.483788 450.681824
   vertex 25.358395 121.560509 454.672302
  endloop
 endfacet

 facet normal 0.861369 0.500259 0.088231
  outer loop
   vertex 24.512108 120.726036 455.181030
   vertex 24.532745 120.668999 455.302948
   vertex 29.017448 113.659187 451.265137
  endloop
 endfacet

 facet normal 0.633518 -0.039786 0.772704
  outer loop
   vertex 29.017448 113.659187 451.265137
   vertex 24.532745 120.668999 455.302948
   vertex 24.470774 120.602081 455.350311
  endloop
 endfacet

 facet normal 0.633388 -0.039930 0.772803
  outer loop
   vertex 24.470774 120.602081 455.350311
   vertex 28.955479 113.592270 451.312469
   vertex 29.017448 113.659187 451.265137
  endloop
 endfacet

 facet normal 0.375194 -0.270638 0.886558
  outer loop
   vertex 24.006666 120.631332 454.784058
   vertex 28.491371 113.621521 450.746246
   vertex 24.033266 120.651314 454.778900
  endloop
 endfacet

 facet normal 0.375194 -0.270638 0.886558
  outer loop
   vertex 24.033266 120.651314 454.778900
   vertex 28.491371 113.621521 450.746246
   vertex 28.517971 113.641502 450.741089
  endloop
 endfacet

 facet normal -0.603102 -0.651200 0.460659
  outer loop
   vertex 28.517971 113.641502 450.741089
   vertex 28.882275 113.618538 451.185577
   vertex 24.033266 120.651314 454.778900
  endloop
 endfacet

 facet normal -0.109126 -0.547661 0.829554
  outer loop
   vertex 25.296425 121.493599 454.719635
   vertex 25.178246 121.445312 454.672211
   vertex 29.662949 114.435493 450.634369
  endloop
 endfacet

 facet normal 0.633396 -0.039921 0.772797
  outer loop
   vertex 29.662949 114.435493 450.634369
   vertex 25.178246 121.445312 454.672211
   vertex 24.512108 120.726036 455.181030
  endloop
 endfacet

 facet normal 0.633408 -0.039905 0.772788
  outer loop
   vertex 24.512108 120.726036 455.181030
   vertex 28.996813 113.716225 451.143219
   vertex 29.662949 114.435493 450.634369
  endloop
 endfacet

 facet normal 0.861370 0.500254 0.088242
  outer loop
   vertex 29.017448 113.659187 451.265137
   vertex 28.996813 113.716225 451.143219
   vertex 24.512108 120.726036 455.181030
  endloop
 endfacet

 facet normal -0.603054 -0.651204 0.460716
  outer loop
   vertex 28.955479 113.592270 451.312469
   vertex 24.470774 120.602081 455.350311
   vertex 28.870972 113.597595 451.209381
  endloop
 endfacet

 facet normal -0.603122 -0.651199 0.460635
  outer loop
   vertex 28.870972 113.597595 451.209381
   vertex 24.470774 120.602081 455.350311
   vertex 24.386267 120.607407 455.247192
  endloop
 endfacet

 facet normal -0.807559 -0.196294 -0.556162
  outer loop
   vertex 24.386267 120.607407 455.247192
   vertex 28.882275 113.618538 451.185577
   vertex 28.870972 113.597595 451.209381
  endloop
 endfacet

 facet normal -0.807544 -0.196266 -0.556194
  outer loop
   vertex 24.397570 120.628357 455.223389
   vertex 28.882275 113.618538 451.185577
   vertex 24.386267 120.607407 455.247192
  endloop
 endfacet

 facet normal -0.603097 -0.651200 0.460666
  outer loop
   vertex 24.033266 120.651314 454.778900
   vertex 28.882275 113.618538 451.185577
   vertex 24.397570 120.628357 455.223389
  endloop
 endfacet

 facet normal -0.484861 0.757853 0.436542
  outer loop
   vertex 25.119505 121.978844 454.913910
   vertex 23.678957 121.031769 454.958069
   vertex 24.211329 120.998222 455.607605
  endloop
 endfacet

 facet normal -0.603096 -0.651193 0.460677
  outer loop
   vertex 24.211329 120.998222 455.607605
   vertex 23.678957 121.031769 454.958069
   vertex 24.696186 120.240364 455.171082
  endloop
 endfacet

 facet normal 0.633396 -0.039899 0.772798
  outer loop
   vertex 24.696186 120.240364 455.171082
   vertex 25.604362 121.220985 454.477356
   vertex 24.211329 120.998222 455.607605
  endloop
 endfacet

 facet normal 0.484851 -0.757858 -0.436544
  outer loop
   vertex 24.163813 120.273918 454.521545
   vertex 25.604362 121.220985 454.477356
   vertex 24.696186 120.240364 455.171082
  endloop
 endfacet

 facet normal 0.484851 -0.757858 -0.436544
  outer loop
   vertex 25.071989 121.254539 453.827820
   vertex 25.604362 121.220985 454.477356
   vertex 24.163813 120.273918 454.521545
  endloop
 endfacet

 facet normal -0.633397 0.039900 -0.772798
  outer loop
   vertex 24.163813 120.273918 454.521545
   vertex 23.678957 121.031769 454.958069
   vertex 25.071989 121.254539 453.827820
  endloop
 endfacet

 facet normal -0.633399 0.039927 -0.772795
  outer loop
   vertex 25.071989 121.254539 453.827820
   vertex 23.678957 121.031769 454.958069
   vertex 24.587132 122.012390 454.264374
  endloop
 endfacet

 facet normal -0.484861 0.757852 0.436543
  outer loop
   vertex 24.587132 122.012390 454.264374
   vertex 23.678957 121.031769 454.958069
   vertex 25.119505 121.978844 454.913910
  endloop
 endfacet

 facet normal 0.603089 0.651204 -0.460671
  outer loop
   vertex 25.119505 121.978844 454.913910
   vertex 25.604362 121.220985 454.477356
   vertex 24.587132 122.012390 454.264374
  endloop
 endfacet

 facet normal 0.633398 -0.039927 0.772795
  outer loop
   vertex 24.211329 120.998222 455.607605
   vertex 25.604362 121.220985 454.477356
   vertex 25.119505 121.978844 454.913910
  endloop
 endfacet

 facet normal -0.484856 0.757852 0.436548
  outer loop
   vertex 28.733210 113.930298 451.536316
   vertex 29.641386 114.910919 450.842621
   vertex 28.200836 113.963852 450.886780
  endloop
 endfacet

 facet normal -0.484856 0.757852 0.436548
  outer loop
   vertex 28.200836 113.963852 450.886780
   vertex 29.641386 114.910919 450.842621
   vertex 29.109013 114.944473 450.193085
  endloop
 endfacet

 facet normal -0.633398 0.039927 -0.772795
  outer loop
   vertex 29.109013 114.944473 450.193085
   vertex 29.593870 114.186615 449.756531
   vertex 28.200836 113.963852 450.886780
  endloop
 endfacet

 facet normal 0.603092 0.651203 -0.460667
  outer loop
   vertex 29.641386 114.910919 450.842621
   vertex 29.593870 114.186615 449.756531
   vertex 29.109013 114.944473 450.193085
  endloop
 endfacet

 facet normal 0.603088 0.651206 -0.460669
  outer loop
   vertex 30.126242 114.153069 450.406067
   vertex 29.593870 114.186615 449.756531
   vertex 29.641386 114.910919 450.842621
  endloop
 endfacet

 facet normal 0.633409 -0.039917 0.772787
  outer loop
   vertex 29.641386 114.910919 450.842621
   vertex 29.218067 113.172447 451.099792
   vertex 30.126242 114.153069 450.406067
  endloop
 endfacet

 facet normal 0.484856 -0.757858 -0.436538
  outer loop
   vertex 30.126242 114.153069 450.406067
   vertex 29.218067 113.172447 451.099792
   vertex 29.593870 114.186615 449.756531
  endloop
 endfacet

 facet normal 0.484855 -0.757858 -0.436539
  outer loop
   vertex 29.593870 114.186615 449.756531
   vertex 29.218067 113.172447 451.099792
   vertex 28.685694 113.205994 450.450256
  endloop
 endfacet

 facet normal -0.633396 0.039899 -0.772798
  outer loop
   vertex 28.685694 113.205994 450.450256
   vertex 28.200836 113.963852 450.886780
   vertex 29.593870 114.186615 449.756531
  endloop
 endfacet

 facet normal -0.603095 -0.651193 0.460678
  outer loop
   vertex 29.218067 113.172447 451.099792
   vertex 28.200836 113.963852 450.886780
   vertex 28.685694 113.205994 450.450256
  endloop
 endfacet

 facet normal -0.603097 -0.651196 0.460671
  outer loop
   vertex 28.733210 113.930298 451.536316
   vertex 28.200836 113.963852 450.886780
   vertex 29.218067 113.172447 451.099792
  endloop
 endfacet

 facet normal 0.633387 -0.039909 0.772805
  outer loop
   vertex 29.218067 113.172447 451.099792
   vertex 29.641386 114.910919 450.842621
   vertex 28.733210 113.930298 451.536316
  endloop
 endfacet

 facet normal 0.633518 -0.039790 0.772704
  outer loop
   vertex 29.781128 114.483788 450.681824
   vertex 29.843100 114.550697 450.634460
   vertex 25.358395 121.560509 454.672302
  endloop
 endfacet

 facet normal 0.603054 0.651204 -0.460716
  outer loop
   vertex 25.358395 121.560509 454.672302
   vertex 29.843100 114.550697 450.634460
   vertex 29.758593 114.556023 450.531372
  endloop
 endfacet

 facet normal 0.603122 0.651199 -0.460635
  outer loop
   vertex 29.758593 114.556023 450.531372
   vertex 25.273888 121.565834 454.569183
   vertex 25.358395 121.560509 454.672302
  endloop
 endfacet

 facet normal -0.374559 0.271115 -0.886681
  outer loop
   vertex 29.731993 114.536041 450.536499
   vertex 25.273888 121.565834 454.569183
   vertex 29.758593 114.556023 450.531372
  endloop
 endfacet

 facet normal -0.375195 0.270640 -0.886557
  outer loop
   vertex 25.247288 121.545853 454.574341
   vertex 25.273888 121.565834 454.569183
   vertex 29.731993 114.536041 450.536499
  endloop
 endfacet

 facet normal 0.603080 0.651202 -0.460684
  outer loop
   vertex 29.731993 114.536041 450.536499
   vertex 29.367689 114.558998 450.092041
   vertex 25.247288 121.545853 454.574341
  endloop
 endfacet

 facet normal 0.603096 0.651200 -0.460666
  outer loop
   vertex 25.247288 121.545853 454.574341
   vertex 29.367689 114.558998 450.092041
   vertex 24.882984 121.568810 454.129852
  endloop
 endfacet

 facet normal 0.807544 0.196267 0.556194
  outer loop
   vertex 24.882984 121.568810 454.129852
   vertex 29.367689 114.558998 450.092041
   vertex 29.378992 114.579948 450.068237
  endloop
 endfacet

 facet normal 0.807544 0.196267 0.556194
  outer loop
   vertex 29.378992 114.579948 450.068237
   vertex 24.894287 121.589760 454.106049
   vertex 24.882984 121.568810 454.129852
  endloop
 endfacet

 facet normal 0.603158 0.651196 -0.460591
  outer loop
   vertex 29.337061 114.582588 450.017059
   vertex 24.894287 121.589760 454.106049
   vertex 29.378992 114.579948 450.068237
  endloop
 endfacet

 facet normal 0.603158 0.651196 -0.460591
  outer loop
   vertex 24.852356 121.592400 454.054871
   vertex 24.894287 121.589760 454.106049
   vertex 29.337061 114.582588 450.017059
  endloop
 endfacet

 facet normal -0.633399 0.039915 -0.772796
  outer loop
   vertex 29.337061 114.582588 450.017059
   vertex 28.449440 113.624161 450.695068
   vertex 24.852356 121.592400 454.054871
  endloop
 endfacet

 facet normal -0.633399 0.039915 -0.772796
  outer loop
   vertex 24.852356 121.592400 454.054871
   vertex 28.449440 113.624161 450.695068
   vertex 23.964735 120.633972 454.732880
  endloop
 endfacet

 facet normal -0.603158 -0.651196 0.460591
  outer loop
   vertex 23.964735 120.633972 454.732880
   vertex 28.449440 113.624161 450.695068
   vertex 24.006666 120.631332 454.784058
  endloop
 endfacet

 facet normal -0.603097 -0.651196 0.460671
  outer loop
   vertex 24.163813 120.273918 454.521545
   vertex 24.696186 120.240364 455.171082
   vertex 23.678957 121.031769 454.958069
  endloop
 endfacet

 facet normal 0.603090 0.651207 -0.460665
  outer loop
   vertex 25.604362 121.220985 454.477356
   vertex 25.071989 121.254539 453.827820
   vertex 24.587132 122.012390 454.264374
  endloop
 endfacet

 facet normal -0.603158 -0.651196 0.460591
  outer loop
   vertex 28.449440 113.624161 450.695068
   vertex 28.491371 113.621521 450.746246
   vertex 24.006666 120.631332 454.784058
  endloop
 endfacet

 facet normal 0.678746 -0.450957 -0.579605
  outer loop
   vertex 28.158840 113.385818 448.380280
   vertex 27.525442 113.425735 447.607483
   vertex 28.443279 114.068260 448.182404
  endloop
 endfacet

 facet normal 0.678746 -0.450957 -0.579605
  outer loop
   vertex 28.443279 114.068260 448.182404
   vertex 27.525442 113.425735 447.607483
   vertex 27.809881 114.108177 447.409607
  endloop
 endfacet

 facet normal 0.742730 0.311622 -0.592659
  outer loop
   vertex 27.809881 114.108177 447.409607
   vertex 28.277075 114.794876 448.356171
   vertex 28.443279 114.068260 448.182404
  endloop
 endfacet

 facet normal 0.742730 0.311622 -0.592659
  outer loop
   vertex 27.643677 114.834793 447.583374
   vertex 28.277075 114.794876 448.356171
   vertex 27.809881 114.108177 447.409607
  endloop
 endfacet

 facet normal 0.371642 0.891647 -0.258548
  outer loop
   vertex 27.757589 115.140030 448.799774
   vertex 28.277075 114.794876 448.356171
   vertex 27.643677 114.834793 447.583374
  endloop
 endfacet

 facet normal 0.371641 0.891648 -0.258548
  outer loop
   vertex 27.643677 114.834793 447.583374
   vertex 27.124189 115.179947 448.026978
   vertex 27.757589 115.140030 448.799774
  endloop
 endfacet

 facet normal -0.217150 0.949373 0.227019
  outer loop
   vertex 27.757589 115.140030 448.799774
   vertex 27.124189 115.179947 448.026978
   vertex 27.189127 114.901535 449.253387
  endloop
 endfacet

 facet normal -0.217163 0.949370 0.227019
  outer loop
   vertex 27.189127 114.901535 449.253387
   vertex 27.124189 115.179947 448.026978
   vertex 26.555729 114.941444 448.480591
  endloop
 endfacet

 facet normal -0.678748 0.450957 0.579603
  outer loop
   vertex 26.555729 114.941444 448.480591
   vertex 26.904688 114.219093 449.451263
   vertex 27.189127 114.901535 449.253387
  endloop
 endfacet

 facet normal -0.678744 0.450961 0.579604
  outer loop
   vertex 26.271290 114.259010 448.678467
   vertex 26.904688 114.219093 449.451263
   vertex 26.555729 114.941444 448.480591
  endloop
 endfacet

 facet normal -0.742730 -0.311622 0.592659
  outer loop
   vertex 27.070892 113.492477 449.277496
   vertex 26.904688 114.219093 449.451263
   vertex 26.271290 114.259010 448.678467
  endloop
 endfacet

 facet normal -0.742729 -0.311620 0.592660
  outer loop
   vertex 26.271290 114.259010 448.678467
   vertex 26.437492 113.532394 448.504700
   vertex 27.070892 113.492477 449.277496
  endloop
 endfacet

 facet normal -0.371641 -0.891648 0.258548
  outer loop
   vertex 27.070892 113.492477 449.277496
   vertex 26.437492 113.532394 448.504700
   vertex 27.590380 113.147324 448.833893
  endloop
 endfacet

 facet normal -0.371641 -0.891648 0.258548
  outer loop
   vertex 27.590380 113.147324 448.833893
   vertex 26.437492 113.532394 448.504700
   vertex 26.956980 113.187241 448.061096
  endloop
 endfacet

 facet normal 0.217151 -0.949372 -0.227019
  outer loop
   vertex 26.956980 113.187241 448.061096
   vertex 28.158840 113.385818 448.380280
   vertex 27.590380 113.147324 448.833893
  endloop
 endfacet

 facet normal 0.217151 -0.949373 -0.227018
  outer loop
   vertex 27.525442 113.425735 447.607483
   vertex 28.158840 113.385818 448.380280
   vertex 26.956980 113.187241 448.061096
  endloop
 endfacet

 facet normal -0.678746 0.450961 0.579601
  outer loop
   vertex 23.575289 121.208961 453.822144
   vertex 24.279797 121.339661 454.545471
   vertex 23.646399 121.379570 453.772675
  endloop
 endfacet

 facet normal -0.217156 0.949373 0.227013
  outer loop
   vertex 23.646399 121.379570 453.772675
   vertex 24.279797 121.339661 454.545471
   vertex 24.421911 121.399284 454.432068
  endloop
 endfacet

 facet normal -0.217180 0.949360 0.227041
  outer loop
   vertex 24.421911 121.399284 454.432068
   vertex 23.788513 121.439201 453.659271
   vertex 23.646399 121.379570 453.772675
  endloop
 endfacet

 facet normal 0.371639 0.891649 -0.258546
  outer loop
   vertex 24.551785 121.312996 454.321167
   vertex 23.788513 121.439201 453.659271
   vertex 24.421911 121.399284 454.432068
  endloop
 endfacet

 facet normal 0.371641 0.891647 -0.258549
  outer loop
   vertex 23.918385 121.352913 453.548370
   vertex 23.788513 121.439201 453.659271
   vertex 24.551785 121.312996 454.321167
  endloop
 endfacet

 facet normal 0.742739 0.311576 -0.592671
  outer loop
   vertex 24.551785 121.312996 454.321167
   vertex 24.593336 121.131340 454.277740
   vertex 23.918385 121.352913 453.548370
  endloop
 endfacet

 facet normal 0.742739 0.311576 -0.592671
  outer loop
   vertex 23.918385 121.352913 453.548370
   vertex 24.593336 121.131340 454.277740
   vertex 23.959936 121.171257 453.504944
  endloop
 endfacet

 facet normal 0.678743 -0.450961 -0.579605
  outer loop
   vertex 23.959936 121.171257 453.504944
   vertex 24.593336 121.131340 454.277740
   vertex 24.522226 120.960732 454.327209
  endloop
 endfacet

 facet normal 0.678743 -0.450961 -0.579605
  outer loop
   vertex 24.522226 120.960732 454.327209
   vertex 23.888826 121.000648 453.554413
   vertex 23.959936 121.171257 453.504944
  endloop
 endfacet

 facet normal 0.217150 -0.949373 -0.227018
  outer loop
   vertex 24.380110 120.901108 454.440613
   vertex 23.888826 121.000648 453.554413
   vertex 24.522226 120.960732 454.327209
  endloop
 endfacet

 facet normal 0.217184 -0.949361 -0.227036
  outer loop
   vertex 23.746712 120.941017 453.667816
   vertex 23.888826 121.000648 453.554413
   vertex 24.380110 120.901108 454.440613
  endloop
 endfacet

 facet normal -0.371638 -0.891648 0.258554
  outer loop
   vertex 24.380110 120.901108 454.440613
   vertex 24.250238 120.987396 454.551514
   vertex 23.746712 120.941017 453.667816
  endloop
 endfacet

 facet normal -0.371635 -0.891649 0.258552
  outer loop
   vertex 23.746712 120.941017 453.667816
   vertex 24.250238 120.987396 454.551514
   vertex 23.616838 121.027306 453.778717
  endloop
 endfacet

 facet normal -0.742735 -0.311588 0.592670
  outer loop
   vertex 23.616838 121.027306 453.778717
   vertex 24.250238 120.987396 454.551514
   vertex 24.208687 121.169044 454.594940
  endloop
 endfacet

 facet normal -0.742742 -0.311569 0.592671
  outer loop
   vertex 24.208687 121.169044 454.594940
   vertex 23.575289 121.208961 453.822144
   vertex 23.616838 121.027306 453.778717
  endloop
 endfacet

 facet normal -0.678751 0.450945 0.579609
  outer loop
   vertex 24.279797 121.339661 454.545471
   vertex 23.575289 121.208961 453.822144
   vertex 24.208687 121.169044 454.594940
  endloop
 endfacet

 facet normal -0.678745 0.450955 0.579607
  outer loop
   vertex 21.737877 121.344955 452.760132
   vertex 22.655714 121.987480 453.335052
   vertex 22.022314 122.027397 452.562256
  endloop
 endfacet

 facet normal -0.217150 0.949373 0.227019
  outer loop
   vertex 22.022314 122.027397 452.562256
   vertex 22.655714 121.987480 453.335052
   vertex 23.224176 122.225975 452.881439
  endloop
 endfacet

 facet normal -0.217150 0.949373 0.227019
  outer loop
   vertex 23.224176 122.225975 452.881439
   vertex 22.590776 122.265892 452.108643
   vertex 22.022314 122.027397 452.562256
  endloop
 endfacet

 facet normal 0.371641 0.891647 -0.258549
  outer loop
   vertex 23.743662 121.880821 452.437836
   vertex 22.590776 122.265892 452.108643
   vertex 23.224176 122.225975 452.881439
  endloop
 endfacet

 facet normal 0.371641 0.891648 -0.258548
  outer loop
   vertex 23.110264 121.920738 451.665039
   vertex 22.590776 122.265892 452.108643
   vertex 23.743662 121.880821 452.437836
  endloop
 endfacet

 facet normal 0.742730 0.311622 -0.592659
  outer loop
   vertex 23.743662 121.880821 452.437836
   vertex 23.909866 121.154205 452.264069
   vertex 23.110264 121.920738 451.665039
  endloop
 endfacet

 facet normal 0.742730 0.311622 -0.592659
  outer loop
   vertex 23.110264 121.920738 451.665039
   vertex 23.909866 121.154205 452.264069
   vertex 23.276468 121.194122 451.491272
  endloop
 endfacet

 facet normal 0.678735 -0.450981 -0.579598
  outer loop
   vertex 23.276468 121.194122 451.491272
   vertex 23.909866 121.154205 452.264069
   vertex 23.625427 120.471771 452.461975
  endloop
 endfacet

 facet normal 0.678739 -0.450978 -0.579597
  outer loop
   vertex 23.625427 120.471771 452.461975
   vertex 22.992029 120.511681 451.689178
   vertex 23.276468 121.194122 451.491272
  endloop
 endfacet

 facet normal 0.217169 -0.949367 -0.227024
  outer loop
   vertex 23.056967 120.233269 452.915558
   vertex 22.992029 120.511681 451.689178
   vertex 23.625427 120.471771 452.461975
  endloop
 endfacet

 facet normal 0.217158 -0.949370 -0.227024
  outer loop
   vertex 22.423569 120.273186 452.142761
   vertex 22.992029 120.511681 451.689178
   vertex 23.056967 120.233269 452.915558
  endloop
 endfacet

 facet normal -0.371641 -0.891648 0.258548
  outer loop
   vertex 23.056967 120.233269 452.915558
   vertex 22.537479 120.578423 453.359161
   vertex 22.423569 120.273186 452.142761
  endloop
 endfacet

 facet normal -0.371641 -0.891648 0.258548
  outer loop
   vertex 22.423569 120.273186 452.142761
   vertex 22.537479 120.578423 453.359161
   vertex 21.904081 120.618340 452.586365
  endloop
 endfacet

 facet normal -0.742730 -0.311622 0.592659
  outer loop
   vertex 21.904081 120.618340 452.586365
   vertex 22.537479 120.578423 453.359161
   vertex 22.371275 121.305038 453.532928
  endloop
 endfacet

 facet normal -0.742730 -0.311622 0.592659
  outer loop
   vertex 22.371275 121.305038 453.532928
   vertex 21.737877 121.344955 452.760132
   vertex 21.904081 120.618340 452.586365
  endloop
 endfacet

 facet normal -0.678746 0.450957 0.579605
  outer loop
   vertex 22.655714 121.987480 453.335052
   vertex 21.737877 121.344955 452.760132
   vertex 22.371275 121.305038 453.532928
  endloop
 endfacet

 facet normal -0.197147 0.347929 0.916558
  outer loop
   vertex 22.371275 121.305038 453.532928
   vertex 23.652756 121.379173 453.780426
   vertex 22.655714 121.987480 453.335052
  endloop
 endfacet

 facet normal 0.182266 0.757612 0.626740
  outer loop
   vertex 22.655714 121.987480 453.335052
   vertex 23.652756 121.379173 453.780426
   vertex 23.794870 121.438797 453.667023
  endloop
 endfacet

 facet normal 0.182266 0.757612 0.626741
  outer loop
   vertex 23.794870 121.438797 453.667023
   vertex 23.224176 122.225975 452.881439
   vertex 22.655714 121.987480 453.335052
  endloop
 endfacet

 facet normal 0.666217 0.710168 0.227631
  outer loop
   vertex 23.924744 121.352509 453.556122
   vertex 23.224176 122.225975 452.881439
   vertex 23.794870 121.438797 453.667023
  endloop
 endfacet

 facet normal 0.666221 0.710167 0.227625
  outer loop
   vertex 23.743662 121.880821 452.437836
   vertex 23.224176 122.225975 452.881439
   vertex 23.924744 121.352509 453.556122
  endloop
 endfacet

 facet normal 0.971246 0.233389 -0.047012
  outer loop
   vertex 23.924744 121.352509 453.556122
   vertex 23.966293 121.170853 453.512695
   vertex 23.743662 121.880821 452.437836
  endloop
 endfacet

 facet normal 0.971244 0.233401 -0.047004
  outer loop
   vertex 23.743662 121.880821 452.437836
   vertex 23.966293 121.170853 453.512695
   vertex 23.909866 121.154205 452.264069
  endloop
 endfacet

 facet normal 0.918648 -0.393410 -0.036270
  outer loop
   vertex 23.909866 121.154205 452.264069
   vertex 23.966293 121.170853 453.512695
   vertex 23.895184 121.000244 453.562164
  endloop
 endfacet

 facet normal 0.918647 -0.393411 -0.036270
  outer loop
   vertex 23.895184 121.000244 453.562164
   vertex 23.625427 120.471771 452.461975
   vertex 23.909866 121.154205 452.264069
  endloop
 endfacet

 facet normal 0.539245 -0.803078 0.253538
  outer loop
   vertex 23.753069 120.940620 453.675568
   vertex 23.625427 120.471771 452.461975
   vertex 23.895184 121.000244 453.562164
  endloop
 endfacet

 facet normal 0.539242 -0.803079 0.253539
  outer loop
   vertex 23.056967 120.233269 452.915558
   vertex 23.625427 120.471771 452.461975
   vertex 23.753069 120.940620 453.675568
  endloop
 endfacet

 facet normal 0.055269 -0.755634 0.652658
  outer loop
   vertex 23.753069 120.940620 453.675568
   vertex 23.623198 121.026909 453.786469
   vertex 23.056967 120.233269 452.915558
  endloop
 endfacet

 facet normal 0.055269 -0.755634 0.652658
  outer loop
   vertex 23.056967 120.233269 452.915558
   vertex 23.623198 121.026909 453.786469
   vertex 22.537479 120.578423 453.359161
  endloop
 endfacet

 facet normal -0.249784 -0.278813 0.927292
  outer loop
   vertex 22.537479 120.578423 453.359161
   vertex 23.623198 121.026909 453.786469
   vertex 23.581646 121.208565 453.829895
  endloop
 endfacet

 facet normal -0.249739 -0.278881 0.927284
  outer loop
   vertex 23.581646 121.208565 453.829895
   vertex 22.371275 121.305038 453.532928
   vertex 22.537479 120.578423 453.359161
  endloop
 endfacet

 facet normal -0.197147 0.347932 0.916557
  outer loop
   vertex 23.652756 121.379173 453.780426
   vertex 22.371275 121.305038 453.532928
   vertex 23.581646 121.208565 453.829895
  endloop
 endfacet

 facet normal 0.678711 -0.451043 -0.579579
  outer loop
   vertex 29.055639 113.874786 450.245544
   vertex 28.422239 113.914696 449.472748
   vertex 29.126749 114.045395 450.196045
  endloop
 endfacet

 facet normal 0.678734 -0.450960 -0.579616
  outer loop
   vertex 29.126749 114.045395 450.196045
   vertex 28.422239 113.914696 449.472748
   vertex 28.493349 114.085304 449.423279
  endloop
 endfacet

 facet normal 0.742706 0.311667 -0.592665
  outer loop
   vertex 28.493349 114.085304 449.423279
   vertex 29.085197 114.227051 450.239502
   vertex 29.126749 114.045395 450.196045
  endloop
 endfacet

 facet normal 0.742738 0.311576 -0.592673
  outer loop
   vertex 28.451797 114.266960 449.466705
   vertex 29.085197 114.227051 450.239502
   vertex 28.493349 114.085304 449.423279
  endloop
 endfacet

 facet normal 0.371613 0.891664 -0.258534
  outer loop
   vertex 28.955326 114.313332 450.350403
   vertex 29.085197 114.227051 450.239502
   vertex 28.451797 114.266960 449.466705
  endloop
 endfacet

 facet normal 0.371641 0.891647 -0.258549
  outer loop
   vertex 28.451797 114.266960 449.466705
   vertex 28.321926 114.353249 449.577606
   vertex 28.955326 114.313332 450.350403
  endloop
 endfacet

 facet normal -0.217150 0.949373 0.227018
  outer loop
   vertex 28.955326 114.313332 450.350403
   vertex 28.321926 114.353249 449.577606
   vertex 28.813210 114.253708 450.463806
  endloop
 endfacet

 facet normal -0.217152 0.949372 0.227019
  outer loop
   vertex 28.813210 114.253708 450.463806
   vertex 28.321926 114.353249 449.577606
   vertex 28.179811 114.293625 449.691010
  endloop
 endfacet

 facet normal -0.678744 0.450961 0.579604
  outer loop
   vertex 28.179811 114.293625 449.691010
   vertex 28.742100 114.083099 450.513275
   vertex 28.813210 114.253708 450.463806
  endloop
 endfacet

 facet normal -0.678744 0.450961 0.579604
  outer loop
   vertex 28.108702 114.123016 449.740479
   vertex 28.742100 114.083099 450.513275
   vertex 28.179811 114.293625 449.691010
  endloop
 endfacet

 facet normal -0.742740 -0.311576 0.592670
  outer loop
   vertex 28.783651 113.901443 450.469849
   vertex 28.742100 114.083099 450.513275
   vertex 28.108702 114.123016 449.740479
  endloop
 endfacet

 facet normal -0.742741 -0.311569 0.592672
  outer loop
   vertex 28.108702 114.123016 449.740479
   vertex 28.150251 113.941360 449.697052
   vertex 28.783651 113.901443 450.469849
  endloop
 endfacet

 facet normal -0.371589 -0.891682 0.258504
  outer loop
   vertex 28.783651 113.901443 450.469849
   vertex 28.150251 113.941360 449.697052
   vertex 28.913523 113.815163 450.358917
  endloop
 endfacet

 facet normal -0.371630 -0.891650 0.258558
  outer loop
   vertex 28.913523 113.815163 450.358917
   vertex 28.150251 113.941360 449.697052
   vertex 28.280125 113.855072 449.586151
  endloop
 endfacet

 facet normal 0.217177 -0.949362 -0.227039
  outer loop
   vertex 28.280125 113.855072 449.586151
   vertex 29.055639 113.874786 450.245544
   vertex 28.913523 113.815163 450.358917
  endloop
 endfacet

 facet normal 0.217156 -0.949373 -0.227014
  outer loop
   vertex 28.422239 113.914696 449.472748
   vertex 29.055639 113.874786 450.245544
   vertex 28.280125 113.855072 449.586151
  endloop
 endfacet

 facet normal 0.539244 -0.803079 0.253537
  outer loop
   vertex 28.286482 113.854675 449.593903
   vertex 27.590380 113.147324 448.833893
   vertex 28.428596 113.914299 449.480499
  endloop
 endfacet

 facet normal 0.539243 -0.803079 0.253538
  outer loop
   vertex 28.428596 113.914299 449.480499
   vertex 27.590380 113.147324 448.833893
   vertex 28.158840 113.385818 448.380280
  endloop
 endfacet

 facet normal 0.918648 -0.393409 -0.036267
  outer loop
   vertex 28.158840 113.385818 448.380280
   vertex 28.499706 114.084908 449.431030
   vertex 28.428596 113.914299 449.480499
  endloop
 endfacet

 facet normal 0.918649 -0.393406 -0.036270
  outer loop
   vertex 28.443279 114.068260 448.182404
   vertex 28.499706 114.084908 449.431030
   vertex 28.158840 113.385818 448.380280
  endloop
 endfacet

 facet normal 0.971247 0.233387 -0.047004
  outer loop
   vertex 28.458157 114.266563 449.474457
   vertex 28.499706 114.084908 449.431030
   vertex 28.443279 114.068260 448.182404
  endloop
 endfacet

 facet normal 0.971244 0.233401 -0.047006
  outer loop
   vertex 28.443279 114.068260 448.182404
   vertex 28.277075 114.794876 448.356171
   vertex 28.458157 114.266563 449.474457
  endloop
 endfacet

 facet normal 0.666216 0.710171 0.227627
  outer loop
   vertex 28.458157 114.266563 449.474457
   vertex 28.277075 114.794876 448.356171
   vertex 28.328283 114.352852 449.585358
  endloop
 endfacet

 facet normal 0.666221 0.710166 0.227626
  outer loop
   vertex 28.328283 114.352852 449.585358
   vertex 28.277075 114.794876 448.356171
   vertex 27.757589 115.140030 448.799774
  endloop
 endfacet

 facet normal 0.182267 0.757612 0.626740
  outer loop
   vertex 27.757589 115.140030 448.799774
   vertex 28.186169 114.293228 449.698761
   vertex 28.328283 114.352852 449.585358
  endloop
 endfacet

 facet normal 0.182266 0.757612 0.626741
  outer loop
   vertex 27.189127 114.901535 449.253387
   vertex 28.186169 114.293228 449.698761
   vertex 27.757589 115.140030 448.799774
  endloop
 endfacet

 facet normal -0.197153 0.347920 0.916560
  outer loop
   vertex 28.115059 114.122612 449.748230
   vertex 28.186169 114.293228 449.698761
   vertex 27.189127 114.901535 449.253387
  endloop
 endfacet

 facet normal -0.197145 0.347928 0.916559
  outer loop
   vertex 27.189127 114.901535 449.253387
   vertex 26.904688 114.219093 449.451263
   vertex 28.115059 114.122612 449.748230
  endloop
 endfacet

 facet normal -0.249740 -0.278817 0.927303
  outer loop
   vertex 28.115059 114.122612 449.748230
   vertex 26.904688 114.219093 449.451263
   vertex 28.156610 113.940964 449.704803
  endloop
 endfacet

 facet normal -0.249750 -0.278883 0.927281
  outer loop
   vertex 28.156610 113.940964 449.704803
   vertex 26.904688 114.219093 449.451263
   vertex 27.070892 113.492477 449.277496
  endloop
 endfacet

 facet normal 0.055269 -0.755634 0.652658
  outer loop
   vertex 27.070892 113.492477 449.277496
   vertex 28.286482 113.854675 449.593903
   vertex 28.156610 113.940964 449.704803
  endloop
 endfacet

 facet normal 0.055269 -0.755634 0.652658
  outer loop
   vertex 27.590380 113.147324 448.833893
   vertex 28.286482 113.854675 449.593903
   vertex 27.070892 113.492477 449.277496
  endloop
 endfacet

endsolid