solid stl file generated from DOUG
 facet normal 0.803940 0.592997 0.045115
  outer loop
   vertex 18.529558 -58.824146 372.608307
   vertex 18.448601 -58.714718 372.612610
   vertex 18.287395 -59.198799 381.848083
  endloop
 endfacet

 facet normal -0.000917 0.998630 0.052328
  outer loop
   vertex 18.287395 -59.198799 381.848083
   vertex 18.448601 -58.714718 372.612610
   vertex 18.184654 -59.198799 381.846283
  endloop
 endfacet

 facet normal -0.805038 0.592979 0.017029
  outer loop
   vertex 19.472719 -59.308231 381.863037
   vertex 19.553476 -59.198799 381.870178
   vertex 19.714682 -58.714718 372.634705
  endloop
 endfacet

 facet normal -0.000917 0.998630 0.052328
  outer loop
   vertex 19.714682 -58.714718 372.634705
   vertex 19.553476 -59.198799 381.870178
   vertex 19.656216 -59.198799 381.871979
  endloop
 endfacet

 facet normal -0.000917 0.998630 0.052328
  outer loop
   vertex 19.656216 -59.198799 381.871979
   vertex 19.817423 -58.714718 372.636505
   vertex 19.714682 -58.714718 372.634705
  endloop
 endfacet

 facet normal 0.357800 0.932171 0.055106
  outer loop
   vertex 19.656885 -59.930523 381.833618
   vertex 19.818092 -59.446438 372.598175
   vertex 19.625456 -59.918465 381.833710
  endloop
 endfacet

 facet normal 0.357734 0.932196 0.055106
  outer loop
   vertex 19.625456 -59.918465 381.833710
   vertex 19.818092 -59.446438 372.598175
   vertex 19.786661 -59.434380 372.598236
  endloop
 endfacet

 facet normal 0.999848 -0.000002 0.017452
  outer loop
   vertex 19.786661 -59.434380 372.598236
   vertex 19.786137 -58.860012 372.628357
   vertex 19.625456 -59.918465 381.833710
  endloop
 endfacet

 facet normal 0.803962 0.592967 0.045114
  outer loop
   vertex 18.287395 -59.198799 381.848083
   vertex 18.368351 -59.308231 381.843750
   vertex 18.529558 -58.824146 372.608307
  endloop
 endfacet

 facet normal -0.000914 0.998630 0.052328
  outer loop
   vertex 18.529558 -58.824146 372.608307
   vertex 18.368351 -59.308231 381.843750
   vertex 19.472719 -59.308231 381.863037
  endloop
 endfacet

 facet normal -0.000912 0.998630 0.052328
  outer loop
   vertex 19.472719 -59.308231 381.863037
   vertex 19.633926 -58.824146 372.627563
   vertex 18.529558 -58.824146 372.608307
  endloop
 endfacet

 facet normal -0.805035 0.592983 0.017030
  outer loop
   vertex 19.714682 -58.714718 372.634705
   vertex 19.633926 -58.824146 372.627563
   vertex 19.472719 -59.308231 381.863037
  endloop
 endfacet

 facet normal 0.999848 0.000001 0.017453
  outer loop
   vertex 19.817423 -58.714718 372.636505
   vertex 19.656216 -59.198799 381.871979
   vertex 19.817545 -58.847950 372.629517
  endloop
 endfacet

 facet normal 0.999848 0.000001 0.017453
  outer loop
   vertex 19.817545 -58.847950 372.629517
   vertex 19.656216 -59.198799 381.871979
   vertex 19.656338 -59.332035 381.864990
  endloop
 endfacet

 facet normal 0.359556 -0.932151 -0.042583
  outer loop
   vertex 19.656338 -59.332035 381.864990
   vertex 19.786137 -58.860012 372.628357
   vertex 19.817545 -58.847950 372.629517
  endloop
 endfacet

 facet normal 0.359494 -0.932175 -0.042585
  outer loop
   vertex 19.624929 -59.344093 381.863800
   vertex 19.786137 -58.860012 372.628357
   vertex 19.656338 -59.332035 381.864990
  endloop
 endfacet

 facet normal 0.999848 0.000002 0.017453
  outer loop
   vertex 19.625456 -59.918465 381.833710
   vertex 19.786137 -58.860012 372.628357
   vertex 19.624929 -59.344093 381.863800
  endloop
 endfacet

 facet normal -0.017425 -0.052329 0.998478
  outer loop
   vertex 18.158216 -59.208294 382.384491
   vertex 19.664623 -60.047642 382.366791
   vertex 19.663855 -59.208294 382.410767
  endloop
 endfacet

 facet normal 0.999848 0.000001 0.017453
  outer loop
   vertex 19.663855 -59.208294 382.410767
   vertex 19.664623 -60.047642 382.366791
   vertex 19.681284 -59.155956 381.412292
  endloop
 endfacet

 facet normal -0.000913 0.998629 0.052330
  outer loop
   vertex 19.681284 -59.155956 381.412292
   vertex 18.175646 -59.155956 381.386017
   vertex 19.663855 -59.208294 382.410767
  endloop
 endfacet

 facet normal 0.017425 0.052365 -0.998476
  outer loop
   vertex 19.682051 -59.995308 381.368286
   vertex 18.175646 -59.155956 381.386017
   vertex 19.681284 -59.155956 381.412292
  endloop
 endfacet

 facet normal 0.017425 0.052365 -0.998476
  outer loop
   vertex 18.176413 -59.995308 381.342010
   vertex 18.175646 -59.155956 381.386017
   vertex 19.682051 -59.995308 381.368286
  endloop
 endfacet

 facet normal 0.000913 -0.998630 -0.052324
  outer loop
   vertex 19.682051 -59.995308 381.368286
   vertex 19.664623 -60.047642 382.366791
   vertex 18.176413 -59.995308 381.342010
  endloop
 endfacet

 facet normal 0.000914 -0.998630 -0.052326
  outer loop
   vertex 18.176413 -59.995308 381.342010
   vertex 19.664623 -60.047642 382.366791
   vertex 18.158985 -60.047642 382.340485
  endloop
 endfacet

 facet normal -0.017445 -0.052365 0.998476
  outer loop
   vertex 18.158985 -60.047642 382.340485
   vertex 19.664623 -60.047642 382.366791
   vertex 18.158216 -59.208294 382.384491
  endloop
 endfacet

 facet normal -0.999848 -0.000001 -0.017453
  outer loop
   vertex 18.158216 -59.208294 382.384491
   vertex 18.175646 -59.155956 381.386017
   vertex 18.158985 -60.047642 382.340485
  endloop
 endfacet

 facet normal -0.000913 0.998629 0.052330
  outer loop
   vertex 19.663855 -59.208294 382.410767
   vertex 18.175646 -59.155956 381.386017
   vertex 18.158216 -59.208294 382.384491
  endloop
 endfacet

 facet normal -0.017425 -0.052365 0.998476
  outer loop
   vertex 19.826397 -58.720196 373.098755
   vertex 18.320759 -58.720196 373.072479
   vertex 19.827166 -59.559547 373.054749
  endloop
 endfacet

 facet normal -0.017425 -0.052365 0.998476
  outer loop
   vertex 19.827166 -59.559547 373.054749
   vertex 18.320759 -58.720196 373.072479
   vertex 18.321527 -59.559547 373.028473
  endloop
 endfacet

 facet normal 0.000913 -0.998629 -0.052330
  outer loop
   vertex 18.321527 -59.559547 373.028473
   vertex 18.338955 -59.507210 372.029999
   vertex 19.827166 -59.559547 373.054749
  endloop
 endfacet

 facet normal -0.999848 -0.000001 -0.017451
  outer loop
   vertex 18.320759 -58.720196 373.072479
   vertex 18.338955 -59.507210 372.029999
   vertex 18.321527 -59.559547 373.028473
  endloop
 endfacet

 facet normal -0.999848 0.000001 -0.017453
  outer loop
   vertex 18.338188 -58.667862 372.073975
   vertex 18.338955 -59.507210 372.029999
   vertex 18.320759 -58.720196 373.072479
  endloop
 endfacet

 facet normal -0.000914 0.998630 0.052324
  outer loop
   vertex 18.320759 -58.720196 373.072479
   vertex 19.843826 -58.667862 372.100281
   vertex 18.338188 -58.667862 372.073975
  endloop
 endfacet

 facet normal 0.017445 0.052329 -0.998478
  outer loop
   vertex 18.338188 -58.667862 372.073975
   vertex 19.843826 -58.667862 372.100281
   vertex 18.338955 -59.507210 372.029999
  endloop
 endfacet

 facet normal 0.017425 0.052365 -0.998476
  outer loop
   vertex 18.338955 -59.507210 372.029999
   vertex 19.843826 -58.667862 372.100281
   vertex 19.844593 -59.507210 372.056274
  endloop
 endfacet

 facet normal 0.000913 -0.998629 -0.052330
  outer loop
   vertex 19.844593 -59.507210 372.056274
   vertex 19.827166 -59.559547 373.054749
   vertex 18.338955 -59.507210 372.029999
  endloop
 endfacet

 facet normal 0.999848 -0.000002 0.017451
  outer loop
   vertex 19.843826 -58.667862 372.100281
   vertex 19.827166 -59.559547 373.054749
   vertex 19.844593 -59.507210 372.056274
  endloop
 endfacet

 facet normal 0.999848 0.000001 0.017453
  outer loop
   vertex 19.826397 -58.720196 373.098755
   vertex 19.827166 -59.559547 373.054749
   vertex 19.843826 -58.667862 372.100281
  endloop
 endfacet

 facet normal -0.000913 0.998630 0.052326
  outer loop
   vertex 19.843826 -58.667862 372.100281
   vertex 18.320759 -58.720196 373.072479
   vertex 19.826397 -58.720196 373.098755
  endloop
 endfacet

 facet normal -0.000917 0.998630 0.052328
  outer loop
   vertex 18.448601 -58.714718 372.612610
   vertex 18.345861 -58.714718 372.610809
   vertex 18.184654 -59.198799 381.846283
  endloop
 endfacet

 facet normal -0.999848 -0.000005 -0.017453
  outer loop
   vertex 18.184654 -59.198799 381.846283
   vertex 18.345861 -58.714718 372.610809
   vertex 18.345984 -58.847954 372.603851
  endloop
 endfacet

 facet normal -0.999848 -0.000001 -0.017453
  outer loop
   vertex 18.345984 -58.847954 372.603851
   vertex 18.184776 -59.332035 381.839294
   vertex 18.184654 -59.198799 381.846283
  endloop
 endfacet

 facet normal -0.357800 -0.932171 -0.055106
  outer loop
   vertex 18.377413 -58.860012 372.603760
   vertex 18.184776 -59.332035 381.839294
   vertex 18.345984 -58.847954 372.603851
  endloop
 endfacet

 facet normal -0.357781 -0.932178 -0.055106
  outer loop
   vertex 18.216208 -59.344093 381.839203
   vertex 18.184776 -59.332035 381.839294
   vertex 18.377413 -58.860012 372.603760
  endloop
 endfacet

 facet normal -0.999848 -0.000002 -0.017453
  outer loop
   vertex 18.377413 -58.860012 372.603760
   vertex 18.377939 -59.434380 372.573669
   vertex 18.216208 -59.344093 381.839203
  endloop
 endfacet

 facet normal -0.999848 0.000001 -0.017453
  outer loop
   vertex 18.216208 -59.344093 381.839203
   vertex 18.377939 -59.434380 372.573669
   vertex 18.216732 -59.918465 381.809113
  endloop
 endfacet

 facet normal -0.359494 0.932175 0.042586
  outer loop
   vertex 18.216732 -59.918465 381.809113
   vertex 18.377939 -59.434380 372.573669
   vertex 18.346531 -59.446438 372.572479
  endloop
 endfacet

 facet normal -0.359458 0.932189 0.042587
  outer loop
   vertex 18.346531 -59.446438 372.572479
   vertex 18.185324 -59.930523 381.807953
   vertex 18.216732 -59.918465 381.809113
  endloop
 endfacet

 facet normal -0.999848 0.000016 -0.017452
  outer loop
   vertex 18.346590 -59.512547 372.569031
   vertex 18.185324 -59.930523 381.807953
   vertex 18.346531 -59.446438 372.572479
  endloop
 endfacet

 facet normal -0.999848 -0.000005 -0.017453
  outer loop
   vertex 18.185385 -59.996632 381.804474
   vertex 18.185324 -59.930523 381.807953
   vertex 18.346590 -59.512547 372.569031
  endloop
 endfacet

 facet normal 0.000913 -0.998630 -0.052328
  outer loop
   vertex 18.346590 -59.512547 372.569031
   vertex 19.818151 -59.512547 372.594696
   vertex 18.185385 -59.996632 381.804474
  endloop
 endfacet

 facet normal 0.000914 -0.998630 -0.052328
  outer loop
   vertex 18.185385 -59.996632 381.804474
   vertex 19.818151 -59.512547 372.594696
   vertex 19.656946 -59.996632 381.830170
  endloop
 endfacet

 facet normal 0.999848 0.000013 0.017453
  outer loop
   vertex 19.656946 -59.996632 381.830170
   vertex 19.818151 -59.512547 372.594696
   vertex 19.656885 -59.930523 381.833618
  endloop
 endfacet

 facet normal 0.999848 -0.000002 0.017451
  outer loop
   vertex 19.682051 -59.995308 381.368286
   vertex 19.681284 -59.155956 381.412292
   vertex 19.664623 -60.047642 382.366791
  endloop
 endfacet

 facet normal -0.999848 0.000002 -0.017451
  outer loop
   vertex 18.175646 -59.155956 381.386017
   vertex 18.176413 -59.995308 381.342010
   vertex 18.158985 -60.047642 382.340485
  endloop
 endfacet

 facet normal 0.999848 -0.000024 0.017451
  outer loop
   vertex 19.818151 -59.512547 372.594696
   vertex 19.818092 -59.446438 372.598175
   vertex 19.656885 -59.930523 381.833618
  endloop
 endfacet

 facet normal -0.366540 0.048332 -0.929146
  outer loop
   vertex 19.102468 -61.418301 371.430481
   vertex 19.103382 -62.416927 371.378174
   vertex 18.390366 -61.433628 371.710602
  endloop
 endfacet

 facet normal -0.366505 0.048362 -0.929158
  outer loop
   vertex 18.390366 -61.433628 371.710602
   vertex 19.103382 -62.416927 371.378174
   vertex 18.391277 -62.432259 371.658264
  endloop
 endfacet

 facet normal -0.917064 0.020034 -0.398236
  outer loop
   vertex 18.391277 -62.432259 371.658264
   vertex 18.085192 -61.470634 372.411499
   vertex 18.390366 -61.433628 371.710602
  endloop
 endfacet

 facet normal -0.917071 0.020019 -0.398220
  outer loop
   vertex 18.086105 -62.469265 372.359192
   vertex 18.085192 -61.470634 372.411499
   vertex 18.391277 -62.432259 371.658264
  endloop
 endfacet

 facet normal -0.930410 -0.020020 0.365974
  outer loop
   vertex 18.365717 -61.507641 373.122650
   vertex 18.085192 -61.470634 372.411499
   vertex 18.086105 -62.469265 372.359192
  endloop
 endfacet

 facet normal -0.930405 -0.020032 0.365987
  outer loop
   vertex 18.086105 -62.469265 372.359192
   vertex 18.366631 -62.506271 373.070312
   vertex 18.365717 -61.507641 373.122650
  endloop
 endfacet

 facet normal -0.398717 -0.048361 0.915798
  outer loop
   vertex 18.365717 -61.507641 373.122650
   vertex 18.366631 -62.506271 373.070312
   vertex 19.067612 -61.522972 373.427429
  endloop
 endfacet

 facet normal -0.398750 -0.048333 0.915785
  outer loop
   vertex 19.067612 -61.522972 373.427429
   vertex 18.366631 -62.506271 373.070312
   vertex 19.068525 -62.521599 373.375122
  endloop
 endfacet

 facet normal 0.366506 -0.048333 0.929160
  outer loop
   vertex 19.068525 -62.521599 373.375122
   vertex 19.779715 -61.507641 373.147339
   vertex 19.067612 -61.522972 373.427429
  endloop
 endfacet

 facet normal 0.366540 -0.048361 0.929145
  outer loop
   vertex 19.780628 -62.506271 373.095001
   vertex 19.779715 -61.507641 373.147339
   vertex 19.068525 -62.521599 373.375122
  endloop
 endfacet

 facet normal 0.917070 -0.020032 0.398222
  outer loop
   vertex 20.084888 -61.470634 372.446411
   vertex 19.779715 -61.507641 373.147339
   vertex 19.780628 -62.506271 373.095001
  endloop
 endfacet

 facet normal 0.917065 -0.020022 0.398235
  outer loop
   vertex 19.780628 -62.506271 373.095001
   vertex 20.085800 -62.469265 372.394104
   vertex 20.084888 -61.470634 372.446411
  endloop
 endfacet

 facet normal 0.930405 0.020019 -0.365987
  outer loop
   vertex 20.084888 -61.470634 372.446411
   vertex 20.085800 -62.469265 372.394104
   vertex 19.804363 -61.433628 371.735291
  endloop
 endfacet

 facet normal 0.930411 0.020032 -0.365971
  outer loop
   vertex 19.804363 -61.433628 371.735291
   vertex 20.085800 -62.469265 372.394104
   vertex 19.805277 -62.432259 371.682953
  endloop
 endfacet

 facet normal 0.398750 0.048360 -0.915783
  outer loop
   vertex 19.805277 -62.432259 371.682953
   vertex 19.102468 -61.418301 371.430481
   vertex 19.804363 -61.433628 371.735291
  endloop
 endfacet

 facet normal 0.398717 0.048333 -0.915799
  outer loop
   vertex 19.103382 -62.416927 371.378174
   vertex 19.102468 -61.418301 371.430481
   vertex 19.805277 -62.432259 371.682953
  endloop
 endfacet

 facet normal 0.366574 -0.048332 0.929133
  outer loop
   vertex 19.094849 -60.980621 381.996124
   vertex 18.915909 -59.985825 382.118469
   vertex 18.916822 -60.984455 382.066162
  endloop
 endfacet

 facet normal -0.398615 -0.048336 0.915844
  outer loop
   vertex 18.916822 -60.984455 382.066162
   vertex 18.915909 -59.985825 382.118469
   vertex 18.740435 -59.981995 382.042297
  endloop
 endfacet

 facet normal -0.398750 -0.048361 0.915784
  outer loop
   vertex 18.740435 -59.981995 382.042297
   vertex 18.741348 -60.980621 381.989960
   vertex 18.916822 -60.984455 382.066162
  endloop
 endfacet

 facet normal -0.930415 -0.020031 0.365959
  outer loop
   vertex 18.670303 -59.972740 381.864502
   vertex 18.741348 -60.980621 381.989960
   vertex 18.740435 -59.981995 382.042297
  endloop
 endfacet

 facet normal -0.930415 -0.020031 0.365960
  outer loop
   vertex 18.671217 -60.971371 381.812164
   vertex 18.741348 -60.980621 381.989960
   vertex 18.670303 -59.972740 381.864502
  endloop
 endfacet

 facet normal -0.917069 0.020032 -0.398224
  outer loop
   vertex 18.670303 -59.972740 381.864502
   vertex 18.746597 -59.963490 381.689270
   vertex 18.671217 -60.971371 381.812164
  endloop
 endfacet

 facet normal -0.917069 0.020032 -0.398224
  outer loop
   vertex 18.671217 -60.971371 381.812164
   vertex 18.746597 -59.963490 381.689270
   vertex 18.747511 -60.962120 381.636932
  endloop
 endfacet

 facet normal -0.366574 0.048360 -0.929131
  outer loop
   vertex 18.747511 -60.962120 381.636932
   vertex 18.746597 -59.963490 381.689270
   vertex 18.924623 -59.959656 381.619232
  endloop
 endfacet

 facet normal -0.366439 0.048335 -0.929186
  outer loop
   vertex 18.924623 -59.959656 381.619232
   vertex 18.925535 -60.958286 381.566925
   vertex 18.747511 -60.962120 381.636932
  endloop
 endfacet

 facet normal 0.398754 0.048332 -0.915784
  outer loop
   vertex 19.100096 -59.963490 381.695435
   vertex 18.925535 -60.958286 381.566925
   vertex 18.924623 -59.959656 381.619232
  endloop
 endfacet

 facet normal 0.398616 0.048363 -0.915842
  outer loop
   vertex 19.101009 -60.962120 381.643097
   vertex 18.925535 -60.958286 381.566925
   vertex 19.100096 -59.963490 381.695435
  endloop
 endfacet

 facet normal 0.930415 0.020031 -0.365960
  outer loop
   vertex 19.100096 -59.963490 381.695435
   vertex 19.170227 -59.972740 381.873230
   vertex 19.101009 -60.962120 381.643097
  endloop
 endfacet

 facet normal 0.930415 0.020031 -0.365960
  outer loop
   vertex 19.101009 -60.962120 381.643097
   vertex 19.170227 -59.972740 381.873230
   vertex 19.171141 -60.971371 381.820892
  endloop
 endfacet

 facet normal 0.917073 -0.020031 0.398215
  outer loop
   vertex 19.171141 -60.971371 381.820892
   vertex 19.170227 -59.972740 381.873230
   vertex 19.093935 -59.981995 382.048462
  endloop
 endfacet

 facet normal 0.917073 -0.020031 0.398216
  outer loop
   vertex 19.093935 -59.981995 382.048462
   vertex 19.094849 -60.980621 381.996124
   vertex 19.171141 -60.971371 381.820892
  endloop
 endfacet

 facet normal 0.366435 -0.048363 0.929186
  outer loop
   vertex 18.915909 -59.985825 382.118469
   vertex 19.094849 -60.980621 381.996124
   vertex 19.093935 -59.981995 382.048462
  endloop
 endfacet

 facet normal 0.366504 -0.048362 0.929159
  outer loop
   vertex 19.617672 -62.995613 382.430786
   vertex 18.904654 -62.012314 382.763214
   vertex 18.905567 -63.010941 382.710876
  endloop
 endfacet

 facet normal -0.398752 -0.048361 0.915783
  outer loop
   vertex 18.905567 -63.010941 382.710876
   vertex 18.904654 -62.012314 382.763214
   vertex 18.202761 -61.996983 382.458405
  endloop
 endfacet

 facet normal -0.398718 -0.048333 0.915799
  outer loop
   vertex 18.202761 -61.996983 382.458405
   vertex 18.203674 -62.995613 382.406097
   vertex 18.905567 -63.010941 382.710876
  endloop
 endfacet

 facet normal -0.930405 -0.020021 0.365987
  outer loop
   vertex 17.922235 -61.959976 381.747284
   vertex 18.203674 -62.995613 382.406097
   vertex 18.202761 -61.996983 382.458405
  endloop
 endfacet

 facet normal -0.930410 -0.020032 0.365973
  outer loop
   vertex 17.923149 -62.958607 381.694946
   vertex 18.203674 -62.995613 382.406097
   vertex 17.922235 -61.959976 381.747284
  endloop
 endfacet

 facet normal -0.917071 0.020031 -0.398220
  outer loop
   vertex 17.922235 -61.959976 381.747284
   vertex 18.227407 -61.922970 381.046356
   vertex 17.923149 -62.958607 381.694946
  endloop
 endfacet

 facet normal -0.917071 0.020031 -0.398220
  outer loop
   vertex 17.923149 -62.958607 381.694946
   vertex 18.227407 -61.922970 381.046356
   vertex 18.228321 -62.921600 380.994019
  endloop
 endfacet

 facet normal -0.366505 0.048361 -0.929158
  outer loop
   vertex 18.228321 -62.921600 380.994019
   vertex 18.227407 -61.922970 381.046356
   vertex 18.939512 -61.907639 380.766266
  endloop
 endfacet

 facet normal -0.366506 0.048362 -0.929158
  outer loop
   vertex 18.939512 -61.907639 380.766266
   vertex 18.940424 -62.906269 380.713928
   vertex 18.228321 -62.921600 380.994019
  endloop
 endfacet

 facet normal 0.398718 0.048360 -0.915798
  outer loop
   vertex 19.641405 -61.922970 381.071045
   vertex 18.940424 -62.906269 380.713928
   vertex 18.939512 -61.907639 380.766266
  endloop
 endfacet

 facet normal 0.398717 0.048361 -0.915798
  outer loop
   vertex 19.642319 -62.921600 381.018707
   vertex 18.940424 -62.906269 380.713928
   vertex 19.641405 -61.922970 381.071045
  endloop
 endfacet

 facet normal 0.930410 0.020032 -0.365973
  outer loop
   vertex 19.641405 -61.922970 381.071045
   vertex 19.921930 -61.959976 381.782196
   vertex 19.642319 -62.921600 381.018707
  endloop
 endfacet

 facet normal 0.930410 0.020032 -0.365973
  outer loop
   vertex 19.642319 -62.921600 381.018707
   vertex 19.921930 -61.959976 381.782196
   vertex 19.922844 -62.958607 381.729858
  endloop
 endfacet

 facet normal 0.917065 -0.020032 0.398234
  outer loop
   vertex 19.922844 -62.958607 381.729858
   vertex 19.921930 -61.959976 381.782196
   vertex 19.616758 -61.996983 382.483093
  endloop
 endfacet

 facet normal 0.917071 -0.020019 0.398220
  outer loop
   vertex 19.616758 -61.996983 382.483093
   vertex 19.617672 -62.995613 382.430786
   vertex 19.922844 -62.958607 381.729858
  endloop
 endfacet

 facet normal 0.366539 -0.048332 0.929146
  outer loop
   vertex 18.904654 -62.012314 382.763214
   vertex 19.617672 -62.995613 382.430786
   vertex 19.616758 -61.996983 382.483093
  endloop
 endfacet

 facet normal 0.300760 0.529019 0.793526
  outer loop
   vertex 19.616758 -61.996983 382.483093
   vertex 18.916813 -60.974430 382.066681
   vertex 18.904654 -62.012314 382.763214
  endloop
 endfacet

 facet normal -0.328284 0.529017 0.782541
  outer loop
   vertex 18.904654 -62.012314 382.763214
   vertex 18.916813 -60.974430 382.066681
   vertex 18.741339 -60.970600 381.990479
  endloop
 endfacet

 facet normal -0.328278 0.529019 0.782543
  outer loop
   vertex 18.741339 -60.970600 381.990479
   vertex 18.202761 -61.996983 382.458405
   vertex 18.904654 -62.012314 382.763214
  endloop
 endfacet

 facet normal -0.765285 0.552298 0.330614
  outer loop
   vertex 18.671207 -60.961346 381.812683
   vertex 18.202761 -61.996983 382.458405
   vertex 18.741339 -60.970600 381.990479
  endloop
 endfacet

 facet normal -0.765275 0.552303 0.330630
  outer loop
   vertex 17.922235 -61.959976 381.747284
   vertex 18.202761 -61.996983 382.458405
   vertex 18.671207 -60.961346 381.812683
  endloop
 endfacet

 facet normal -0.754317 0.585222 -0.297526
  outer loop
   vertex 18.671207 -60.961346 381.812683
   vertex 18.747501 -60.952095 381.637451
   vertex 17.922235 -61.959976 381.747284
  endloop
 endfacet

 facet normal -0.754318 0.585223 -0.297520
  outer loop
   vertex 17.922235 -61.959976 381.747284
   vertex 18.747501 -60.952095 381.637451
   vertex 18.227407 -61.922970 381.046356
  endloop
 endfacet

 facet normal -0.301728 0.608490 -0.733962
  outer loop
   vertex 18.227407 -61.922970 381.046356
   vertex 18.747501 -60.952095 381.637451
   vertex 18.925528 -60.948261 381.567444
  endloop
 endfacet

 facet normal -0.301775 0.608507 -0.733929
  outer loop
   vertex 18.925528 -60.948261 381.567444
   vertex 18.939512 -61.907639 380.766266
   vertex 18.227407 -61.922970 381.046356
  endloop
 endfacet

 facet normal 0.327246 0.608498 -0.722939
  outer loop
   vertex 19.101000 -60.952095 381.643646
   vertex 18.939512 -61.907639 380.766266
   vertex 18.925528 -60.948261 381.567444
  endloop
 endfacet

 facet normal 0.327212 0.608509 -0.722945
  outer loop
   vertex 19.641405 -61.922970 381.071045
   vertex 18.939512 -61.907639 380.766266
   vertex 19.101000 -60.952095 381.643646
  endloop
 endfacet

 facet normal 0.764222 0.585235 -0.271044
  outer loop
   vertex 19.101000 -60.952095 381.643646
   vertex 19.171131 -60.961346 381.821411
   vertex 19.641405 -61.922970 381.071045
  endloop
 endfacet

 facet normal 0.764242 0.585222 -0.271015
  outer loop
   vertex 19.641405 -61.922970 381.071045
   vertex 19.171131 -60.961346 381.821411
   vertex 19.921930 -61.959976 381.782196
  endloop
 endfacet

 facet normal 0.753271 0.552307 0.357126
  outer loop
   vertex 19.921930 -61.959976 381.782196
   vertex 19.171131 -60.961346 381.821411
   vertex 19.094839 -60.970600 381.996643
  endloop
 endfacet

 facet normal 0.753269 0.552303 0.357136
  outer loop
   vertex 19.094839 -60.970600 381.996643
   vertex 19.616758 -61.996983 382.483093
   vertex 19.921930 -61.959976 381.782196
  endloop
 endfacet

 facet normal 0.300793 0.529033 0.793504
  outer loop
   vertex 18.916813 -60.974430 382.066681
   vertex 19.616758 -61.996983 382.483093
   vertex 19.094839 -60.970600 381.996643
  endloop
 endfacet

 facet normal -0.366573 0.048360 -0.929132
  outer loop
   vertex 19.087580 -59.470318 372.283478
   vertex 19.088493 -60.468945 372.231140
   vertex 18.909554 -59.474148 372.353516
  endloop
 endfacet

 facet normal -0.366574 0.048360 -0.929131
  outer loop
   vertex 18.909554 -59.474148 372.353516
   vertex 19.088493 -60.468945 372.231140
   vertex 18.910467 -60.472778 372.301178
  endloop
 endfacet

 facet normal -0.917073 0.020031 -0.398216
  outer loop
   vertex 18.910467 -60.472778 372.301178
   vertex 18.833261 -59.483398 372.528748
   vertex 18.909554 -59.474148 372.353516
  endloop
 endfacet

 facet normal -0.917069 0.020033 -0.398224
  outer loop
   vertex 18.834173 -60.482029 372.476410
   vertex 18.833261 -59.483398 372.528748
   vertex 18.910467 -60.472778 372.301178
  endloop
 endfacet

 facet normal -0.930394 -0.020032 0.366014
  outer loop
   vertex 18.903393 -59.492653 372.706512
   vertex 18.833261 -59.483398 372.528748
   vertex 18.834173 -60.482029 372.476410
  endloop
 endfacet

 facet normal -0.930415 -0.020018 0.365960
  outer loop
   vertex 18.834173 -60.482029 372.476410
   vertex 18.904305 -60.491283 372.654205
   vertex 18.903393 -59.492653 372.706512
  endloop
 endfacet

 facet normal -0.398753 -0.048332 0.915784
  outer loop
   vertex 18.903393 -59.492653 372.706512
   vertex 18.904305 -60.491283 372.654205
   vertex 19.078865 -59.496483 372.782715
  endloop
 endfacet

 facet normal -0.398615 -0.048363 0.915842
  outer loop
   vertex 19.078865 -59.496483 372.782715
   vertex 18.904305 -60.491283 372.654205
   vertex 19.079779 -60.495113 372.730377
  endloop
 endfacet

 facet normal 0.366573 -0.048360 0.929132
  outer loop
   vertex 19.079779 -60.495113 372.730377
   vertex 19.256891 -59.492653 372.712677
   vertex 19.078865 -59.496483 372.782715
  endloop
 endfacet

 facet normal 0.366435 -0.048335 0.929187
  outer loop
   vertex 19.257805 -60.491283 372.660370
   vertex 19.256891 -59.492653 372.712677
   vertex 19.079779 -60.495113 372.730377
  endloop
 endfacet

 facet normal 0.917070 -0.020020 0.398224
  outer loop
   vertex 19.333185 -59.483398 372.537445
   vertex 19.256891 -59.492653 372.712677
   vertex 19.257805 -60.491283 372.660370
  endloop
 endfacet

 facet normal 0.917073 -0.020021 0.398216
  outer loop
   vertex 19.257805 -60.491283 372.660370
   vertex 19.334097 -60.482029 372.485138
   vertex 19.333185 -59.483398 372.537445
  endloop
 endfacet

 facet normal 0.930394 0.020021 -0.366014
  outer loop
   vertex 19.333185 -59.483398 372.537445
   vertex 19.334097 -60.482029 372.485138
   vertex 19.263054 -59.474148 372.359680
  endloop
 endfacet

 facet normal 0.930419 0.020030 -0.365951
  outer loop
   vertex 19.263054 -59.474148 372.359680
   vertex 19.334097 -60.482029 372.485138
   vertex 19.263968 -60.472778 372.307343
  endloop
 endfacet

 facet normal 0.398749 0.048361 -0.915784
  outer loop
   vertex 19.263968 -60.472778 372.307343
   vertex 19.087580 -59.470318 372.283478
   vertex 19.263054 -59.474148 372.359680
  endloop
 endfacet

 facet normal 0.398750 0.048361 -0.915784
  outer loop
   vertex 19.088493 -60.468945 372.231140
   vertex 19.087580 -59.470318 372.283478
   vertex 19.263968 -60.472778 372.307343
  endloop
 endfacet

 facet normal 0.327232 0.608498 -0.722945
  outer loop
   vertex 19.263958 -60.462753 372.307861
   vertex 19.804363 -61.433628 371.735291
   vertex 19.088484 -60.458923 372.231659
  endloop
 endfacet

 facet normal 0.327237 0.608500 -0.722941
  outer loop
   vertex 19.088484 -60.458923 372.231659
   vertex 19.804363 -61.433628 371.735291
   vertex 19.102468 -61.418301 371.430481
  endloop
 endfacet

 facet normal -0.301824 0.608496 -0.733917
  outer loop
   vertex 19.102468 -61.418301 371.430481
   vertex 18.910458 -60.462753 372.301697
   vertex 19.088484 -60.458923 372.231659
  endloop
 endfacet

 facet normal -0.301801 0.608504 -0.733921
  outer loop
   vertex 18.390366 -61.433628 371.710602
   vertex 18.910458 -60.462753 372.301697
   vertex 19.102468 -61.418301 371.430481
  endloop
 endfacet

 facet normal -0.754319 0.585222 -0.297519
  outer loop
   vertex 18.834166 -60.472004 372.476929
   vertex 18.910458 -60.462753 372.301697
   vertex 18.390366 -61.433628 371.710602
  endloop
 endfacet

 facet normal -0.754310 0.585228 -0.297531
  outer loop
   vertex 18.390366 -61.433628 371.710602
   vertex 18.085192 -61.470634 372.411499
   vertex 18.834166 -60.472004 372.476929
  endloop
 endfacet

 facet normal -0.765283 0.552301 0.330613
  outer loop
   vertex 18.834166 -60.472004 372.476929
   vertex 18.085192 -61.470634 372.411499
   vertex 18.904297 -60.481258 372.654724
  endloop
 endfacet

 facet normal -0.765282 0.552300 0.330618
  outer loop
   vertex 18.904297 -60.481258 372.654724
   vertex 18.085192 -61.470634 372.411499
   vertex 18.365717 -61.507641 373.122650
  endloop
 endfacet

 facet normal -0.328286 0.529021 0.782537
  outer loop
   vertex 18.365717 -61.507641 373.122650
   vertex 19.079769 -60.485088 372.730927
   vertex 18.904297 -60.481258 372.654724
  endloop
 endfacet

 facet normal -0.328252 0.529006 0.782562
  outer loop
   vertex 19.067612 -61.522972 373.427429
   vertex 19.079769 -60.485088 372.730927
   vertex 18.365717 -61.507641 373.122650
  endloop
 endfacet

 facet normal 0.300803 0.528995 0.793525
  outer loop
   vertex 19.257795 -60.481258 372.660889
   vertex 19.079769 -60.485088 372.730927
   vertex 19.067612 -61.522972 373.427429
  endloop
 endfacet

 facet normal 0.300731 0.529017 0.793537
  outer loop
   vertex 19.067612 -61.522972 373.427429
   vertex 19.779715 -61.507641 373.147339
   vertex 19.257795 -60.481258 372.660889
  endloop
 endfacet

 facet normal 0.753271 0.552303 0.357134
  outer loop
   vertex 19.257795 -60.481258 372.660889
   vertex 19.779715 -61.507641 373.147339
   vertex 19.334089 -60.472004 372.485657
  endloop
 endfacet

 facet normal 0.753277 0.552300 0.357125
  outer loop
   vertex 19.334089 -60.472004 372.485657
   vertex 19.779715 -61.507641 373.147339
   vertex 20.084888 -61.470634 372.446411
  endloop
 endfacet

 facet normal 0.764241 0.585229 -0.271005
  outer loop
   vertex 20.084888 -61.470634 372.446411
   vertex 19.263958 -60.462753 372.307861
   vertex 19.334089 -60.472004 372.485657
  endloop
 endfacet

 facet normal 0.764238 0.585223 -0.271024
  outer loop
   vertex 19.804363 -61.433628 371.735291
   vertex 19.263958 -60.462753 372.307861
   vertex 20.084888 -61.470634 372.446411
  endloop
 endfacet

endsolid