solid stl file generated from DOUG
 facet normal -0.594546 0.803435 0.031735
  outer loop
   vertex -4.330533 260.718109 324.255310
   vertex -4.440022 260.637329 324.249176
   vertex -4.901156 259.252594 350.667419
  endloop
 endfacet

 facet normal -0.999848 0.000003 -0.017452
  outer loop
   vertex -4.901156 259.252594 350.667419
   vertex -4.440022 260.637329 324.249176
   vertex -4.901062 259.149994 350.662048
  endloop
 endfacet

 facet normal -0.593078 -0.803434 -0.052465
  outer loop
   vertex -4.792676 260.436371 350.731354
   vertex -4.902313 260.517151 350.733673
   vertex -4.441178 261.901886 324.315430
  endloop
 endfacet

 facet normal -0.999848 0.000008 -0.017452
  outer loop
   vertex -4.441178 261.901886 324.315430
   vertex -4.902313 260.517151 350.733673
   vertex -4.902406 260.619751 350.739075
  endloop
 endfacet

 facet normal -0.999848 0.000003 -0.017452
  outer loop
   vertex -4.902406 260.619751 350.739075
   vertex -4.441272 262.004486 324.320831
   vertex -4.441178 261.901886 324.315430
  endloop
 endfacet

 facet normal -0.933599 0.358310 0.002485
  outer loop
   vertex -4.169792 260.619751 350.751862
   vertex -3.708658 262.004486 324.333618
   vertex -4.181838 260.588379 350.750000
  endloop
 endfacet

 facet normal -0.933602 0.358304 0.002485
  outer loop
   vertex -4.181838 260.588379 350.750000
   vertex -3.708658 262.004486 324.333618
   vertex -3.720703 261.973114 324.331757
  endloop
 endfacet

 facet normal -0.000914 0.998630 0.052328
  outer loop
   vertex -3.720703 261.973114 324.331757
   vertex -4.295773 261.973114 324.321716
   vertex -4.181838 260.588379 350.750000
  endloop
 endfacet

 facet normal -0.594546 0.803435 0.031735
  outer loop
   vertex -4.901156 259.252594 350.667419
   vertex -4.791667 259.333374 350.673553
   vertex -4.330533 260.718109 324.255310
  endloop
 endfacet

 facet normal -0.999848 -0.000000 -0.017452
  outer loop
   vertex -4.330533 260.718109 324.255310
   vertex -4.791667 259.333374 350.673553
   vertex -4.792676 260.436371 350.731354
  endloop
 endfacet

 facet normal -0.999848 0.000000 -0.017452
  outer loop
   vertex -4.792676 260.436371 350.731354
   vertex -4.331542 261.821106 324.313110
   vertex -4.330533 260.718109 324.255310
  endloop
 endfacet

 facet normal -0.593078 -0.803434 -0.052465
  outer loop
   vertex -4.441178 261.901886 324.315430
   vertex -4.331542 261.821106 324.313110
   vertex -4.792676 260.436371 350.731354
  endloop
 endfacet

 facet normal -0.000910 0.998630 0.052328
  outer loop
   vertex -4.441272 262.004486 324.320831
   vertex -4.902406 260.619751 350.739075
   vertex -4.307875 262.004486 324.323151
  endloop
 endfacet

 facet normal -0.000910 0.998630 0.052328
  outer loop
   vertex -4.307875 262.004486 324.323151
   vertex -4.902406 260.619751 350.739075
   vertex -4.769009 260.619751 350.741394
  endloop
 endfacet

 facet normal 0.932946 0.358305 0.035066
  outer loop
   vertex -4.769009 260.619751 350.741394
   vertex -4.295773 261.973114 324.321716
   vertex -4.307875 262.004486 324.323151
  endloop
 endfacet

 facet normal 0.932950 0.358293 0.035065
  outer loop
   vertex -4.756907 260.588379 350.739960
   vertex -4.295773 261.973114 324.321716
   vertex -4.769009 260.619751 350.741394
  endloop
 endfacet

 facet normal -0.000914 0.998630 0.052328
  outer loop
   vertex -4.181838 260.588379 350.750000
   vertex -4.295773 261.973114 324.321716
   vertex -4.756907 260.588379 350.739960
  endloop
 endfacet

 facet normal -0.017441 -0.052334 0.998477
  outer loop
   vertex -4.926990 259.111237 351.075500
   vertex -4.087992 260.615051 351.168976
   vertex -4.928365 260.615051 351.154297
  endloop
 endfacet

 facet normal -0.000914 0.998629 0.052330
  outer loop
   vertex -4.928365 260.615051 351.154297
   vertex -4.087992 260.615051 351.168976
   vertex -4.910936 260.667389 350.155823
  endloop
 endfacet

 facet normal -0.999848 0.000000 -0.017453
  outer loop
   vertex -4.910936 260.667389 350.155823
   vertex -4.909561 259.163574 350.077026
   vertex -4.928365 260.615051 351.154297
  endloop
 endfacet

 facet normal 0.017441 0.052334 -0.998477
  outer loop
   vertex -4.070563 260.667389 350.170502
   vertex -4.909561 259.163574 350.077026
   vertex -4.910936 260.667389 350.155823
  endloop
 endfacet

 facet normal 0.017441 0.052334 -0.998477
  outer loop
   vertex -4.069188 259.163574 350.091705
   vertex -4.909561 259.163574 350.077026
   vertex -4.070563 260.667389 350.170502
  endloop
 endfacet

 facet normal 0.999848 -0.000000 0.017452
  outer loop
   vertex -4.070563 260.667389 350.170502
   vertex -4.087992 260.615051 351.168976
   vertex -4.069188 259.163574 350.091705
  endloop
 endfacet

 facet normal 0.999848 -0.000000 0.017452
  outer loop
   vertex -4.069188 259.163574 350.091705
   vertex -4.087992 260.615051 351.168976
   vertex -4.086617 259.111237 351.090179
  endloop
 endfacet

 facet normal -0.017441 -0.052334 0.998477
  outer loop
   vertex -4.086617 259.111237 351.090179
   vertex -4.087992 260.615051 351.168976
   vertex -4.926990 259.111237 351.075500
  endloop
 endfacet

 facet normal 0.000914 -0.998629 -0.052330
  outer loop
   vertex -4.926990 259.111237 351.075500
   vertex -4.909561 259.163574 350.077026
   vertex -4.086617 259.111237 351.090179
  endloop
 endfacet

 facet normal -0.999848 0.000000 -0.017453
  outer loop
   vertex -4.928365 260.615051 351.154297
   vertex -4.909561 259.163574 350.077026
   vertex -4.926990 259.111237 351.075500
  endloop
 endfacet

 facet normal -0.017404 -0.052334 0.998478
  outer loop
   vertex -4.470183 261.990906 324.905182
   vertex -4.468808 260.487091 324.826385
   vertex -3.629809 261.990906 324.919830
  endloop
 endfacet

 facet normal -0.017404 -0.052334 0.998478
  outer loop
   vertex -3.629809 261.990906 324.919830
   vertex -4.468808 260.487091 324.826385
   vertex -3.628434 260.487091 324.841034
  endloop
 endfacet

 facet normal 0.999848 -0.000000 0.017452
  outer loop
   vertex -3.628434 260.487091 324.841034
   vertex -3.611006 260.539429 323.842560
   vertex -3.629809 261.990906 324.919830
  endloop
 endfacet

 facet normal 0.000912 -0.998629 -0.052330
  outer loop
   vertex -4.468808 260.487091 324.826385
   vertex -3.611006 260.539429 323.842560
   vertex -3.628434 260.487091 324.841034
  endloop
 endfacet

 facet normal 0.000912 -0.998629 -0.052330
  outer loop
   vertex -4.451379 260.539429 323.827911
   vertex -3.611006 260.539429 323.842560
   vertex -4.468808 260.487091 324.826385
  endloop
 endfacet

 facet normal -0.999848 0.000000 -0.017453
  outer loop
   vertex -4.468808 260.487091 324.826385
   vertex -4.452754 262.043243 323.906708
   vertex -4.451379 260.539429 323.827911
  endloop
 endfacet

 facet normal 0.017404 0.052334 -0.998478
  outer loop
   vertex -4.451379 260.539429 323.827911
   vertex -4.452754 262.043243 323.906708
   vertex -3.611006 260.539429 323.842560
  endloop
 endfacet

 facet normal 0.017404 0.052334 -0.998478
  outer loop
   vertex -3.611006 260.539429 323.842560
   vertex -4.452754 262.043243 323.906708
   vertex -3.612381 262.043243 323.921356
  endloop
 endfacet

 facet normal 0.999848 -0.000000 0.017452
  outer loop
   vertex -3.612381 262.043243 323.921356
   vertex -3.629809 261.990906 324.919830
   vertex -3.611006 260.539429 323.842560
  endloop
 endfacet

 facet normal -0.000912 0.998629 0.052330
  outer loop
   vertex -4.452754 262.043243 323.906708
   vertex -3.629809 261.990906 324.919830
   vertex -3.612381 262.043243 323.921356
  endloop
 endfacet

 facet normal -0.000912 0.998629 0.052330
  outer loop
   vertex -4.470183 261.990906 324.905182
   vertex -3.629809 261.990906 324.919830
   vertex -4.452754 262.043243 323.906708
  endloop
 endfacet

 facet normal -0.999848 0.000000 -0.017453
  outer loop
   vertex -4.452754 262.043243 323.906708
   vertex -4.468808 260.487091 324.826385
   vertex -4.470183 261.990906 324.905182
  endloop
 endfacet

 facet normal -0.999848 -0.000002 -0.017453
  outer loop
   vertex -4.440022 260.637329 324.249176
   vertex -4.439928 260.534729 324.243805
   vertex -4.901062 259.149994 350.662048
  endloop
 endfacet

 facet normal 0.000910 -0.998630 -0.052328
  outer loop
   vertex -4.901062 259.149994 350.662048
   vertex -4.439928 260.534729 324.243805
   vertex -4.306530 260.534729 324.246124
  endloop
 endfacet

 facet normal 0.000910 -0.998630 -0.052328
  outer loop
   vertex -4.306530 260.534729 324.246124
   vertex -4.767664 259.149994 350.664368
   vertex -4.901062 259.149994 350.662048
  endloop
 endfacet

 facet normal 0.933599 -0.358310 -0.002485
  outer loop
   vertex -4.294485 260.566101 324.247986
   vertex -4.767664 259.149994 350.664368
   vertex -4.306530 260.534729 324.246124
  endloop
 endfacet

 facet normal 0.933604 -0.358298 -0.002484
  outer loop
   vertex -4.755620 259.181366 350.666229
   vertex -4.767664 259.149994 350.664368
   vertex -4.294485 260.566101 324.247986
  endloop
 endfacet

 facet normal 0.000914 -0.998630 -0.052328
  outer loop
   vertex -4.294485 260.566101 324.247986
   vertex -3.719416 260.566101 324.258026
   vertex -4.755620 259.181366 350.666229
  endloop
 endfacet

 facet normal 0.000914 -0.998630 -0.052328
  outer loop
   vertex -4.755620 259.181366 350.666229
   vertex -3.719416 260.566101 324.258026
   vertex -4.180551 259.181366 350.676270
  endloop
 endfacet

 facet normal -0.932943 -0.358311 -0.035066
  outer loop
   vertex -4.180551 259.181366 350.676270
   vertex -3.719416 260.566101 324.258026
   vertex -3.707314 260.534729 324.256592
  endloop
 endfacet

 facet normal -0.932946 -0.358305 -0.035066
  outer loop
   vertex -3.707314 260.534729 324.256592
   vertex -4.168448 259.149994 350.674835
   vertex -4.180551 259.181366 350.676270
  endloop
 endfacet

 facet normal 0.000917 -0.998630 -0.052328
  outer loop
   vertex -3.641124 260.534729 324.257751
   vertex -4.168448 259.149994 350.674835
   vertex -3.707314 260.534729 324.256592
  endloop
 endfacet

 facet normal 0.000917 -0.998630 -0.052328
  outer loop
   vertex -4.102258 259.149994 350.675995
   vertex -4.168448 259.149994 350.674835
   vertex -3.641124 260.534729 324.257751
  endloop
 endfacet

 facet normal 0.999848 -0.000000 0.017452
  outer loop
   vertex -3.641124 260.534729 324.257751
   vertex -3.642468 262.004486 324.334747
   vertex -4.102258 259.149994 350.675995
  endloop
 endfacet

 facet normal 0.999848 0.000000 0.017453
  outer loop
   vertex -4.102258 259.149994 350.675995
   vertex -3.642468 262.004486 324.334747
   vertex -4.103602 260.619751 350.752991
  endloop
 endfacet

 facet normal -0.000893 0.998630 0.052328
  outer loop
   vertex -4.103602 260.619751 350.752991
   vertex -3.642468 262.004486 324.334747
   vertex -4.169792 260.619751 350.751862
  endloop
 endfacet

 facet normal -0.000914 0.998629 0.052330
  outer loop
   vertex -4.070563 260.667389 350.170502
   vertex -4.910936 260.667389 350.155823
   vertex -4.087992 260.615051 351.168976
  endloop
 endfacet

 facet normal 0.000914 -0.998629 -0.052330
  outer loop
   vertex -4.909561 259.163574 350.077026
   vertex -4.069188 259.163574 350.091705
   vertex -4.086617 259.111237 351.090179
  endloop
 endfacet

 facet normal -0.000893 0.998630 0.052328
  outer loop
   vertex -3.642468 262.004486 324.334747
   vertex -3.708658 262.004486 324.333618
   vertex -4.169792 260.619751 350.751862
  endloop
 endfacet

 facet normal -0.555938 -0.274391 -0.784629
  outer loop
   vertex -2.676257 261.276459 324.182526
   vertex -1.663338 261.315704 323.451111
   vertex -2.677372 261.096069 324.246399
  endloop
 endfacet

 facet normal -0.555938 -0.274392 -0.784629
  outer loop
   vertex -2.677372 261.096069 324.246399
   vertex -1.663338 261.315704 323.451111
   vertex -1.667797 260.594238 323.706573
  endloop
 endfacet

 facet normal -0.563272 -0.741903 -0.363738
  outer loop
   vertex -1.667797 260.594238 323.706573
   vertex -2.680386 261.013702 324.419067
   vertex -2.677372 261.096069 324.246399
  endloop
 endfacet

 facet normal -0.563276 -0.741893 -0.363750
  outer loop
   vertex -1.679854 260.264740 324.397278
   vertex -2.680386 261.013702 324.419067
   vertex -1.667797 260.594238 323.706573
  endloop
 endfacet

 facet normal -0.574238 -0.774812 0.264419
  outer loop
   vertex -2.683534 261.077576 324.599396
   vertex -2.680386 261.013702 324.419067
   vertex -1.679854 260.264740 324.397278
  endloop
 endfacet

 facet normal -0.574241 -0.774813 0.264408
  outer loop
   vertex -1.679854 260.264740 324.397278
   vertex -1.692445 260.520233 325.118622
   vertex -2.683534 261.077576 324.599396
  endloop
 endfacet

 facet normal -0.582407 -0.353884 0.731825
  outer loop
   vertex -2.683534 261.077576 324.599396
   vertex -1.692445 260.520233 325.118622
   vertex -2.684972 261.250275 324.681763
  endloop
 endfacet

 facet normal -0.582407 -0.353884 0.731825
  outer loop
   vertex -2.684972 261.250275 324.681763
   vertex -1.692445 260.520233 325.118622
   vertex -1.698195 261.211029 325.448090
  endloop
 endfacet

 facet normal -0.583002 0.274312 0.764763
  outer loop
   vertex -1.698195 261.211029 325.448090
   vertex -2.683857 261.430634 324.617920
   vertex -2.684972 261.250275 324.681763
  endloop
 endfacet

 facet normal -0.582976 0.274393 0.764753
  outer loop
   vertex -1.693736 261.932495 325.192627
   vertex -2.683857 261.430634 324.617920
   vertex -1.698195 261.211029 325.448090
  endloop
 endfacet

 facet normal -0.575646 0.741862 0.343908
  outer loop
   vertex -2.680843 261.513031 324.445221
   vertex -2.683857 261.430634 324.617920
   vertex -1.693736 261.932495 325.192627
  endloop
 endfacet

 facet normal -0.575630 0.741892 0.343870
  outer loop
   vertex -1.693736 261.932495 325.192627
   vertex -1.681680 262.261993 324.501923
   vertex -2.680843 261.513031 324.445221
  endloop
 endfacet

 facet normal -0.564658 0.774813 -0.284300
  outer loop
   vertex -2.680843 261.513031 324.445221
   vertex -1.681680 262.261993 324.501923
   vertex -2.677695 261.449158 324.264893
  endloop
 endfacet

 facet normal -0.564662 0.774814 -0.284288
  outer loop
   vertex -2.677695 261.449158 324.264893
   vertex -1.681680 262.261993 324.501923
   vertex -1.669089 262.006500 323.780579
  endloop
 endfacet

 facet normal -0.556509 0.353886 -0.751706
  outer loop
   vertex -1.669089 262.006500 323.780579
   vertex -2.676257 261.276459 324.182526
   vertex -2.677695 261.449158 324.264893
  endloop
 endfacet

 facet normal -0.556508 0.353886 -0.751707
  outer loop
   vertex -1.663338 261.315704 323.451111
   vertex -2.676257 261.276459 324.182526
   vertex -1.669089 262.006500 323.780579
  endloop
 endfacet

 facet normal 0.016455 -0.333733 -0.942524
  outer loop
   vertex -4.123045 259.904205 350.345337
   vertex -3.123198 259.904205 350.362793
   vertex -4.124160 259.723846 350.409180
  endloop
 endfacet

 facet normal 0.016455 -0.333733 -0.942524
  outer loop
   vertex -4.124160 259.723846 350.409180
   vertex -3.123198 259.904205 350.362793
   vertex -3.124313 259.723846 350.426636
  endloop
 endfacet

 facet normal 0.007516 -0.902561 -0.430495
  outer loop
   vertex -3.124313 259.723846 350.426636
   vertex -4.127174 259.641449 350.581879
   vertex -4.124160 259.723846 350.409180
  endloop
 endfacet

 facet normal 0.007516 -0.902561 -0.430495
  outer loop
   vertex -3.127327 259.641449 350.599335
   vertex -4.127174 259.641449 350.581879
   vertex -3.124313 259.723846 350.426636
  endloop
 endfacet

 facet normal -0.005827 -0.942632 0.333784
  outer loop
   vertex -4.130322 259.705322 350.762207
   vertex -4.127174 259.641449 350.581879
   vertex -3.127327 259.641449 350.599335
  endloop
 endfacet

 facet normal -0.005827 -0.942632 0.333784
  outer loop
   vertex -3.127327 259.641449 350.599335
   vertex -3.130475 259.705322 350.779663
   vertex -4.130322 259.705322 350.762207
  endloop
 endfacet

 facet normal -0.015755 -0.430538 0.902435
  outer loop
   vertex -4.130322 259.705322 350.762207
   vertex -3.130475 259.705322 350.779663
   vertex -4.131760 259.878021 350.844574
  endloop
 endfacet

 facet normal -0.015755 -0.430538 0.902435
  outer loop
   vertex -4.131760 259.878021 350.844574
   vertex -3.130475 259.705322 350.779663
   vertex -3.131912 259.878021 350.862030
  endloop
 endfacet

 facet normal -0.016455 0.333824 0.942492
  outer loop
   vertex -3.131912 259.878021 350.862030
   vertex -4.130645 260.058411 350.780701
   vertex -4.131760 259.878021 350.844574
  endloop
 endfacet

 facet normal -0.016455 0.333824 0.942492
  outer loop
   vertex -3.130797 260.058411 350.798157
   vertex -4.130645 260.058411 350.780701
   vertex -3.131912 259.878021 350.862030
  endloop
 endfacet

 facet normal -0.007515 0.902594 0.430427
  outer loop
   vertex -4.127631 260.140778 350.608032
   vertex -4.130645 260.058411 350.780701
   vertex -3.130797 260.058411 350.798157
  endloop
 endfacet

 facet normal -0.007515 0.902594 0.430427
  outer loop
   vertex -3.130797 260.058411 350.798157
   vertex -3.127783 260.140778 350.625488
   vertex -4.127631 260.140778 350.608032
  endloop
 endfacet

 facet normal 0.005827 0.942632 -0.333784
  outer loop
   vertex -4.127631 260.140778 350.608032
   vertex -3.127783 260.140778 350.625488
   vertex -4.124483 260.076904 350.427704
  endloop
 endfacet

 facet normal 0.005816 0.942649 -0.333734
  outer loop
   vertex -4.124483 260.076904 350.427704
   vertex -3.127783 260.140778 350.625488
   vertex -3.124635 260.076904 350.445129
  endloop
 endfacet

 facet normal 0.015728 0.430538 -0.902435
  outer loop
   vertex -3.124635 260.076904 350.445129
   vertex -4.123045 259.904205 350.345337
   vertex -4.124483 260.076904 350.427704
  endloop
 endfacet

 facet normal 0.015756 0.430408 -0.902497
  outer loop
   vertex -3.123198 259.904205 350.362793
   vertex -4.123045 259.904205 350.345337
   vertex -3.124635 260.076904 350.445129
  endloop
 endfacet

 facet normal 0.016455 -0.333827 -0.942491
  outer loop
   vertex -2.120315 259.943451 349.631195
   vertex -1.120467 259.943451 349.648651
   vertex -2.124774 259.221985 349.886658
  endloop
 endfacet

 facet normal 0.016455 -0.333827 -0.942491
  outer loop
   vertex -2.124774 259.221985 349.886658
   vertex -1.120467 259.943451 349.648651
   vertex -1.124926 259.221985 349.904114
  endloop
 endfacet

 facet normal 0.007515 -0.902586 -0.430444
  outer loop
   vertex -1.124926 259.221985 349.904114
   vertex -2.136831 258.892487 350.577362
   vertex -2.124774 259.221985 349.886658
  endloop
 endfacet

 facet normal 0.007515 -0.902586 -0.430444
  outer loop
   vertex -1.136983 258.892487 350.594818
   vertex -2.136831 258.892487 350.577362
   vertex -1.124926 259.221985 349.904114
  endloop
 endfacet

 facet normal -0.005827 -0.942636 0.333771
  outer loop
   vertex -2.149422 259.147980 351.298706
   vertex -2.136831 258.892487 350.577362
   vertex -1.136983 258.892487 350.594818
  endloop
 endfacet

 facet normal -0.005827 -0.942636 0.333771
  outer loop
   vertex -1.136983 258.892487 350.594818
   vertex -1.149574 259.147980 351.316162
   vertex -2.149422 259.147980 351.298706
  endloop
 endfacet

 facet normal -0.015756 -0.430505 0.902450
  outer loop
   vertex -2.149422 259.147980 351.298706
   vertex -1.149574 259.147980 351.316162
   vertex -2.155172 259.838776 351.628143
  endloop
 endfacet

 facet normal -0.015756 -0.430505 0.902450
  outer loop
   vertex -2.155172 259.838776 351.628143
   vertex -1.149574 259.147980 351.316162
   vertex -1.155325 259.838776 351.645599
  endloop
 endfacet

 facet normal -0.016455 0.333791 0.942503
  outer loop
   vertex -1.155325 259.838776 351.645599
   vertex -2.150713 260.560242 351.372711
   vertex -2.155172 259.838776 351.628143
  endloop
 endfacet

 facet normal -0.016455 0.333791 0.942503
  outer loop
   vertex -1.150866 260.560242 351.390167
   vertex -2.150713 260.560242 351.372711
   vertex -1.155325 259.838776 351.645599
  endloop
 endfacet

 facet normal -0.007515 0.902586 0.430444
  outer loop
   vertex -2.138657 260.889740 350.682007
   vertex -2.150713 260.560242 351.372711
   vertex -1.150866 260.560242 351.390167
  endloop
 endfacet

 facet normal -0.007515 0.902586 0.430444
  outer loop
   vertex -1.150866 260.560242 351.390167
   vertex -1.138809 260.889740 350.699463
   vertex -2.138657 260.889740 350.682007
  endloop
 endfacet

 facet normal 0.005827 0.942636 -0.333771
  outer loop
   vertex -2.138657 260.889740 350.682007
   vertex -1.138809 260.889740 350.699463
   vertex -2.126066 260.634247 349.960663
  endloop
 endfacet

 facet normal 0.005817 0.942641 -0.333759
  outer loop
   vertex -2.126066 260.634247 349.960663
   vertex -1.138809 260.889740 350.699463
   vertex -1.126218 260.634247 349.978088
  endloop
 endfacet

 facet normal 0.015728 0.430538 -0.902435
  outer loop
   vertex -1.126218 260.634247 349.978088
   vertex -2.120315 259.943451 349.631195
   vertex -2.126066 260.634247 349.960663
  endloop
 endfacet

 facet normal 0.015756 0.430505 -0.902450
  outer loop
   vertex -1.120467 259.943451 349.648651
   vertex -2.120315 259.943451 349.631195
   vertex -1.126218 260.634247 349.978088
  endloop
 endfacet

 facet normal -0.555930 -0.274434 -0.784620
  outer loop
   vertex -3.133234 259.904205 350.362610
   vertex -2.120315 259.943451 349.631195
   vertex -3.134349 259.723846 350.426483
  endloop
 endfacet

 facet normal -0.555944 -0.274390 -0.784625
  outer loop
   vertex -3.134349 259.723846 350.426483
   vertex -2.120315 259.943451 349.631195
   vertex -2.124774 259.221985 349.886658
  endloop
 endfacet

 facet normal -0.563308 -0.741828 -0.363834
  outer loop
   vertex -2.124774 259.221985 349.886658
   vertex -3.137363 259.641449 350.599152
   vertex -3.134349 259.723846 350.426483
  endloop
 endfacet

 facet normal -0.563276 -0.741893 -0.363750
  outer loop
   vertex -2.136831 258.892487 350.577362
   vertex -3.137363 259.641449 350.599152
   vertex -2.124774 259.221985 349.886658
  endloop
 endfacet

 facet normal -0.574238 -0.774812 0.264419
  outer loop
   vertex -3.140511 259.705322 350.779480
   vertex -3.137363 259.641449 350.599152
   vertex -2.136831 258.892487 350.577362
  endloop
 endfacet

 facet normal -0.574241 -0.774813 0.264408
  outer loop
   vertex -2.136831 258.892487 350.577362
   vertex -2.149422 259.147980 351.298706
   vertex -3.140511 259.705322 350.779480
  endloop
 endfacet

 facet normal -0.582407 -0.353884 0.731825
  outer loop
   vertex -3.140511 259.705322 350.779480
   vertex -2.149422 259.147980 351.298706
   vertex -3.141948 259.878021 350.861847
  endloop
 endfacet

 facet normal -0.582398 -0.353861 0.731844
  outer loop
   vertex -3.141948 259.878021 350.861847
   vertex -2.149422 259.147980 351.298706
   vertex -2.155172 259.838776 351.628143
  endloop
 endfacet

 facet normal -0.582971 0.274392 0.764757
  outer loop
   vertex -2.155172 259.838776 351.628143
   vertex -3.140834 260.058411 350.797974
   vertex -3.141948 259.878021 350.861847
  endloop
 endfacet

 facet normal -0.582980 0.274363 0.764761
  outer loop
   vertex -2.150713 260.560242 351.372711
   vertex -3.140834 260.058411 350.797974
   vertex -2.155172 259.838776 351.628143
  endloop
 endfacet

 facet normal -0.575624 0.741902 0.343857
  outer loop
   vertex -3.137820 260.140778 350.625305
   vertex -3.140834 260.058411 350.797974
   vertex -2.150713 260.560242 351.372711
  endloop
 endfacet

 facet normal -0.575629 0.741892 0.343870
  outer loop
   vertex -2.150713 260.560242 351.372711
   vertex -2.138657 260.889740 350.682007
   vertex -3.137820 260.140778 350.625305
  endloop
 endfacet

 facet normal -0.564658 0.774813 -0.284300
  outer loop
   vertex -3.137820 260.140778 350.625305
   vertex -2.138657 260.889740 350.682007
   vertex -3.134672 260.076904 350.444977
  endloop
 endfacet

 facet normal -0.564662 0.774814 -0.284288
  outer loop
   vertex -3.134672 260.076904 350.444977
   vertex -2.138657 260.889740 350.682007
   vertex -2.126066 260.634247 349.960663
  endloop
 endfacet

 facet normal -0.556508 0.353886 -0.751707
  outer loop
   vertex -2.126066 260.634247 349.960663
   vertex -3.133234 259.904205 350.362610
   vertex -3.134672 260.076904 350.444977
  endloop
 endfacet

 facet normal -0.556508 0.353886 -0.751707
  outer loop
   vertex -2.120315 259.943451 349.631195
   vertex -3.133234 259.904205 350.362610
   vertex -2.126066 260.634247 349.960663
  endloop
 endfacet

 facet normal 0.016455 -0.333824 -0.942492
  outer loop
   vertex -3.666069 261.276459 324.165253
   vertex -2.666221 261.276459 324.182709
   vertex -3.667183 261.096069 324.229126
  endloop
 endfacet

 facet normal 0.016427 -0.333683 -0.942542
  outer loop
   vertex -3.667183 261.096069 324.229126
   vertex -2.666221 261.276459 324.182709
   vertex -2.667336 261.096069 324.246552
  endloop
 endfacet

 facet normal 0.007502 -0.902594 -0.430428
  outer loop
   vertex -2.667336 261.096069 324.246552
   vertex -3.670197 261.013702 324.401794
   vertex -3.667183 261.096069 324.229126
  endloop
 endfacet

 facet normal 0.007514 -0.902623 -0.430366
  outer loop
   vertex -2.670350 261.013702 324.419250
   vertex -3.670197 261.013702 324.401794
   vertex -2.667336 261.096069 324.246552
  endloop
 endfacet

 facet normal -0.005827 -0.942632 0.333784
  outer loop
   vertex -3.673345 261.077576 324.582123
   vertex -3.670197 261.013702 324.401794
   vertex -2.670350 261.013702 324.419250
  endloop
 endfacet

 facet normal -0.005827 -0.942632 0.333784
  outer loop
   vertex -2.670350 261.013702 324.419250
   vertex -2.673498 261.077576 324.599579
   vertex -3.673345 261.077576 324.582123
  endloop
 endfacet

 facet normal -0.015755 -0.430538 0.902435
  outer loop
   vertex -3.673345 261.077576 324.582123
   vertex -2.673498 261.077576 324.599579
   vertex -3.674783 261.250275 324.664490
  endloop
 endfacet

 facet normal -0.015755 -0.430538 0.902435
  outer loop
   vertex -3.674783 261.250275 324.664490
   vertex -2.673498 261.077576 324.599579
   vertex -2.674935 261.250275 324.681946
  endloop
 endfacet

 facet normal -0.016454 0.333875 0.942474
  outer loop
   vertex -2.674935 261.250275 324.681946
   vertex -3.673668 261.430634 324.600616
   vertex -3.674783 261.250275 324.664490
  endloop
 endfacet

 facet normal -0.016454 0.333875 0.942474
  outer loop
   vertex -2.673820 261.430634 324.618073
   vertex -3.673668 261.430634 324.600616
   vertex -2.674935 261.250275 324.681946
  endloop
 endfacet

 facet normal -0.007517 0.902532 0.430557
  outer loop
   vertex -3.670654 261.513031 324.427948
   vertex -3.673668 261.430634 324.600616
   vertex -2.673820 261.430634 324.618073
  endloop
 endfacet

 facet normal -0.007517 0.902532 0.430557
  outer loop
   vertex -2.673820 261.430634 324.618073
   vertex -2.670806 261.513031 324.445404
   vertex -3.670654 261.513031 324.427948
  endloop
 endfacet

 facet normal 0.005827 0.942632 -0.333784
  outer loop
   vertex -3.670654 261.513031 324.427948
   vertex -2.670806 261.513031 324.445404
   vertex -3.667506 261.449158 324.247620
  endloop
 endfacet

 facet normal 0.005827 0.942632 -0.333784
  outer loop
   vertex -3.667506 261.449158 324.247620
   vertex -2.670806 261.513031 324.445404
   vertex -2.667659 261.449158 324.265076
  endloop
 endfacet

 facet normal 0.015755 0.430538 -0.902435
  outer loop
   vertex -2.667659 261.449158 324.265076
   vertex -3.666069 261.276459 324.165253
   vertex -3.667506 261.449158 324.247620
  endloop
 endfacet

 facet normal 0.015755 0.430538 -0.902435
  outer loop
   vertex -2.666221 261.276459 324.182709
   vertex -3.666069 261.276459 324.165253
   vertex -2.667659 261.449158 324.265076
  endloop
 endfacet

 facet normal 0.015755 0.430538 -0.902435
  outer loop
   vertex -1.669089 262.006500 323.780579
   vertex -0.669241 262.006500 323.798035
   vertex -1.663338 261.315704 323.451111
  endloop
 endfacet

 facet normal 0.015755 0.430538 -0.902435
  outer loop
   vertex -1.663338 261.315704 323.451111
   vertex -0.669241 262.006500 323.798035
   vertex -0.663491 261.315704 323.468567
  endloop
 endfacet

 facet normal 0.016455 -0.333827 -0.942491
  outer loop
   vertex -0.663491 261.315704 323.468567
   vertex -1.667797 260.594238 323.706573
   vertex -1.663338 261.315704 323.451111
  endloop
 endfacet

 facet normal 0.016455 -0.333827 -0.942491
  outer loop
   vertex -0.667949 260.594238 323.724030
   vertex -1.667797 260.594238 323.706573
   vertex -0.663491 261.315704 323.468567
  endloop
 endfacet

 facet normal 0.007515 -0.902586 -0.430444
  outer loop
   vertex -1.679854 260.264740 324.397278
   vertex -1.667797 260.594238 323.706573
   vertex -0.667949 260.594238 323.724030
  endloop
 endfacet

 facet normal 0.007515 -0.902586 -0.430444
  outer loop
   vertex -0.667949 260.594238 323.724030
   vertex -0.680006 260.264740 324.414734
   vertex -1.679854 260.264740 324.397278
  endloop
 endfacet

 facet normal -0.005827 -0.942636 0.333771
  outer loop
   vertex -1.679854 260.264740 324.397278
   vertex -0.680006 260.264740 324.414734
   vertex -1.692445 260.520233 325.118622
  endloop
 endfacet

 facet normal -0.005827 -0.942636 0.333771
  outer loop
   vertex -1.692445 260.520233 325.118622
   vertex -0.680006 260.264740 324.414734
   vertex -0.692597 260.520233 325.136078
  endloop
 endfacet

 facet normal -0.015755 -0.430538 0.902435
  outer loop
   vertex -0.692597 260.520233 325.136078
   vertex -1.698195 261.211029 325.448090
   vertex -1.692445 260.520233 325.118622
  endloop
 endfacet

 facet normal -0.015755 -0.430538 0.902435
  outer loop
   vertex -0.698348 261.211029 325.465546
   vertex -1.698195 261.211029 325.448090
   vertex -0.692597 260.520233 325.136078
  endloop
 endfacet

 facet normal -0.016455 0.333827 0.942491
  outer loop
   vertex -1.693736 261.932495 325.192627
   vertex -1.698195 261.211029 325.448090
   vertex -0.698348 261.211029 325.465546
  endloop
 endfacet

 facet normal -0.016455 0.333827 0.942491
  outer loop
   vertex -0.698348 261.211029 325.465546
   vertex -0.693889 261.932495 325.210083
   vertex -1.693736 261.932495 325.192627
  endloop
 endfacet

 facet normal -0.007515 0.902586 0.430444
  outer loop
   vertex -1.693736 261.932495 325.192627
   vertex -0.693889 261.932495 325.210083
   vertex -1.681680 262.261993 324.501923
  endloop
 endfacet

 facet normal -0.007515 0.902586 0.430444
  outer loop
   vertex -1.681680 262.261993 324.501923
   vertex -0.693889 261.932495 325.210083
   vertex -0.681832 262.261993 324.519379
  endloop
 endfacet

 facet normal 0.005827 0.942636 -0.333771
  outer loop
   vertex -0.681832 262.261993 324.519379
   vertex -1.669089 262.006500 323.780579
   vertex -1.681680 262.261993 324.501923
  endloop
 endfacet

 facet normal 0.005827 0.942636 -0.333771
  outer loop
   vertex -0.669241 262.006500 323.798035
   vertex -1.669089 262.006500 323.780579
   vertex -0.681832 262.261993 324.519379
  endloop
 endfacet

endsolid