solid stl file generated from DOUG
 facet normal 0.803962 0.592967 0.045114
  outer loop
   vertex 1.467657 -154.079163 339.335022
   vertex 1.386701 -153.969727 339.339325
   vertex 1.225495 -154.453812 348.574799
  endloop
 endfacet

 facet normal -0.000917 0.998630 0.052328
  outer loop
   vertex 1.225495 -154.453812 348.574799
   vertex 1.386701 -153.969727 339.339325
   vertex 1.122755 -154.453812 348.572998
  endloop
 endfacet

 facet normal -0.805010 0.593016 0.017032
  outer loop
   vertex 2.410819 -154.563232 348.589752
   vertex 2.491576 -154.453812 348.596893
   vertex 2.652782 -153.969727 339.361420
  endloop
 endfacet

 facet normal -0.000917 0.998630 0.052328
  outer loop
   vertex 2.652782 -153.969727 339.361420
   vertex 2.491576 -154.453812 348.596893
   vertex 2.594316 -154.453812 348.598694
  endloop
 endfacet

 facet normal -0.000917 0.998630 0.052328
  outer loop
   vertex 2.594316 -154.453812 348.598694
   vertex 2.755522 -153.969727 339.363220
   vertex 2.652782 -153.969727 339.361420
  endloop
 endfacet

 facet normal 0.357697 0.932210 0.055106
  outer loop
   vertex 2.594985 -155.185532 348.560333
   vertex 2.756191 -154.701447 339.324890
   vertex 2.563555 -155.173477 348.560425
  endloop
 endfacet

 facet normal 0.357650 0.932228 0.055106
  outer loop
   vertex 2.563555 -155.173477 348.560425
   vertex 2.756191 -154.701447 339.324890
   vertex 2.724761 -154.689392 339.324951
  endloop
 endfacet

 facet normal 0.999848 -0.000001 0.017452
  outer loop
   vertex 2.724761 -154.689392 339.324951
   vertex 2.724236 -154.115021 339.355072
   vertex 2.563555 -155.173477 348.560425
  endloop
 endfacet

 facet normal 0.803929 0.593012 0.045115
  outer loop
   vertex 1.225495 -154.453812 348.574799
   vertex 1.306451 -154.563232 348.570465
   vertex 1.467657 -154.079163 339.335022
  endloop
 endfacet

 facet normal -0.000914 0.998630 0.052327
  outer loop
   vertex 1.467657 -154.079163 339.335022
   vertex 1.306451 -154.563232 348.570465
   vertex 2.410819 -154.563232 348.589752
  endloop
 endfacet

 facet normal -0.000912 0.998630 0.052326
  outer loop
   vertex 2.410819 -154.563232 348.589752
   vertex 2.572025 -154.079163 339.354279
   vertex 1.467657 -154.079163 339.335022
  endloop
 endfacet

 facet normal -0.805050 0.592963 0.017027
  outer loop
   vertex 2.652782 -153.969727 339.361420
   vertex 2.572025 -154.079163 339.354279
   vertex 2.410819 -154.563232 348.589752
  endloop
 endfacet

 facet normal 0.999848 -0.000001 0.017452
  outer loop
   vertex 2.755522 -153.969727 339.363220
   vertex 2.594316 -154.453812 348.598694
   vertex 2.755644 -154.102966 339.356232
  endloop
 endfacet

 facet normal 0.999848 -0.000001 0.017452
  outer loop
   vertex 2.755644 -154.102966 339.356232
   vertex 2.594316 -154.453812 348.598694
   vertex 2.594438 -154.587051 348.591705
  endloop
 endfacet

 facet normal 0.359366 -0.932224 -0.042591
  outer loop
   vertex 2.594438 -154.587051 348.591705
   vertex 2.724236 -154.115021 339.355072
   vertex 2.755644 -154.102966 339.356232
  endloop
 endfacet

 facet normal 0.359402 -0.932210 -0.042589
  outer loop
   vertex 2.563030 -154.599106 348.590515
   vertex 2.724236 -154.115021 339.355072
   vertex 2.594438 -154.587051 348.591705
  endloop
 endfacet

 facet normal 0.999848 0.000000 0.017453
  outer loop
   vertex 2.563555 -155.173477 348.560425
   vertex 2.724236 -154.115021 339.355072
   vertex 2.563030 -154.599106 348.590515
  endloop
 endfacet

 facet normal -0.017425 -0.052329 0.998478
  outer loop
   vertex 1.096317 -154.463303 349.111206
   vertex 2.602722 -155.302658 349.093506
   vertex 2.601955 -154.463303 349.137482
  endloop
 endfacet

 facet normal 0.999848 0.000000 0.017453
  outer loop
   vertex 2.601955 -154.463303 349.137482
   vertex 2.602722 -155.302658 349.093506
   vertex 2.619383 -154.410965 348.139008
  endloop
 endfacet

 facet normal -0.000913 0.998629 0.052330
  outer loop
   vertex 2.619383 -154.410965 348.139008
   vertex 1.113745 -154.410965 348.112732
   vertex 2.601955 -154.463303 349.137482
  endloop
 endfacet

 facet normal 0.017425 0.052365 -0.998476
  outer loop
   vertex 2.620151 -155.250320 348.095001
   vertex 1.113745 -154.410965 348.112732
   vertex 2.619383 -154.410965 348.139008
  endloop
 endfacet

 facet normal 0.017425 0.052365 -0.998476
  outer loop
   vertex 1.114513 -155.250320 348.068726
   vertex 1.113745 -154.410965 348.112732
   vertex 2.620151 -155.250320 348.095001
  endloop
 endfacet

 facet normal 0.000913 -0.998630 -0.052328
  outer loop
   vertex 2.620151 -155.250320 348.095001
   vertex 2.602722 -155.302658 349.093506
   vertex 1.114513 -155.250320 348.068726
  endloop
 endfacet

 facet normal 0.000914 -0.998629 -0.052330
  outer loop
   vertex 1.114513 -155.250320 348.068726
   vertex 2.602722 -155.302658 349.093506
   vertex 1.097084 -155.302658 349.067200
  endloop
 endfacet

 facet normal -0.017445 -0.052365 0.998476
  outer loop
   vertex 1.097084 -155.302658 349.067200
   vertex 2.602722 -155.302658 349.093506
   vertex 1.096317 -154.463303 349.111206
  endloop
 endfacet

 facet normal -0.999848 0.000001 -0.017452
  outer loop
   vertex 1.096317 -154.463303 349.111206
   vertex 1.113745 -154.410965 348.112732
   vertex 1.097084 -155.302658 349.067200
  endloop
 endfacet

 facet normal -0.000913 0.998629 0.052330
  outer loop
   vertex 2.601955 -154.463303 349.137482
   vertex 1.113745 -154.410965 348.112732
   vertex 1.096317 -154.463303 349.111206
  endloop
 endfacet

 facet normal -0.017425 -0.052365 0.998476
  outer loop
   vertex 2.764497 -153.975204 339.825470
   vertex 1.258859 -153.975204 339.799194
   vertex 2.765265 -154.814560 339.781464
  endloop
 endfacet

 facet normal -0.017425 -0.052365 0.998476
  outer loop
   vertex 2.765265 -154.814560 339.781464
   vertex 1.258859 -153.975204 339.799194
   vertex 1.259627 -154.814560 339.755188
  endloop
 endfacet

 facet normal 0.000913 -0.998629 -0.052330
  outer loop
   vertex 1.259627 -154.814560 339.755188
   vertex 1.277056 -154.762222 338.756714
   vertex 2.765265 -154.814560 339.781464
  endloop
 endfacet

 facet normal -0.999848 0.000001 -0.017452
  outer loop
   vertex 1.258859 -153.975204 339.799194
   vertex 1.277056 -154.762222 338.756714
   vertex 1.259627 -154.814560 339.755188
  endloop
 endfacet

 facet normal -0.999848 -0.000000 -0.017452
  outer loop
   vertex 1.276288 -153.922867 338.800690
   vertex 1.277056 -154.762222 338.756714
   vertex 1.258859 -153.975204 339.799194
  endloop
 endfacet

 facet normal -0.000914 0.998630 0.052328
  outer loop
   vertex 1.258859 -153.975204 339.799194
   vertex 2.781926 -153.922867 338.826996
   vertex 1.276288 -153.922867 338.800690
  endloop
 endfacet

 facet normal 0.017445 0.052329 -0.998478
  outer loop
   vertex 1.276288 -153.922867 338.800690
   vertex 2.781926 -153.922867 338.826996
   vertex 1.277056 -154.762222 338.756714
  endloop
 endfacet

 facet normal 0.017425 0.052365 -0.998476
  outer loop
   vertex 1.277056 -154.762222 338.756714
   vertex 2.781926 -153.922867 338.826996
   vertex 2.782694 -154.762222 338.782990
  endloop
 endfacet

 facet normal 0.000913 -0.998629 -0.052330
  outer loop
   vertex 2.782694 -154.762222 338.782990
   vertex 2.765265 -154.814560 339.781464
   vertex 1.277056 -154.762222 338.756714
  endloop
 endfacet

 facet normal 0.999848 -0.000001 0.017453
  outer loop
   vertex 2.781926 -153.922867 338.826996
   vertex 2.765265 -154.814560 339.781464
   vertex 2.782694 -154.762222 338.782990
  endloop
 endfacet

 facet normal 0.999848 -0.000001 0.017453
  outer loop
   vertex 2.764497 -153.975204 339.825470
   vertex 2.765265 -154.814560 339.781464
   vertex 2.781926 -153.922867 338.826996
  endloop
 endfacet

 facet normal -0.000913 0.998629 0.052330
  outer loop
   vertex 2.781926 -153.922867 338.826996
   vertex 1.258859 -153.975204 339.799194
   vertex 2.764497 -153.975204 339.825470
  endloop
 endfacet

 facet normal -0.000917 0.998630 0.052328
  outer loop
   vertex 1.386701 -153.969727 339.339325
   vertex 1.283961 -153.969727 339.337524
   vertex 1.122755 -154.453812 348.572998
  endloop
 endfacet

 facet normal -0.999848 -0.000003 -0.017453
  outer loop
   vertex 1.122755 -154.453812 348.572998
   vertex 1.283961 -153.969727 339.337524
   vertex 1.284083 -154.102966 339.330566
  endloop
 endfacet

 facet normal -0.999848 0.000001 -0.017452
  outer loop
   vertex 1.284083 -154.102966 339.330566
   vertex 1.122877 -154.587051 348.566010
   vertex 1.122755 -154.453812 348.572998
  endloop
 endfacet

 facet normal -0.357695 -0.932211 -0.055106
  outer loop
   vertex 1.315513 -154.115021 339.330475
   vertex 1.122877 -154.587051 348.566010
   vertex 1.284083 -154.102966 339.330566
  endloop
 endfacet

 facet normal -0.357695 -0.932211 -0.055106
  outer loop
   vertex 1.154307 -154.599106 348.565918
   vertex 1.122877 -154.587051 348.566010
   vertex 1.315513 -154.115021 339.330475
  endloop
 endfacet

 facet normal -0.999848 -0.000000 -0.017453
  outer loop
   vertex 1.315513 -154.115021 339.330475
   vertex 1.316038 -154.689392 339.300385
   vertex 1.154307 -154.599106 348.565918
  endloop
 endfacet

 facet normal -0.999848 -0.000000 -0.017453
  outer loop
   vertex 1.154307 -154.599106 348.565918
   vertex 1.316038 -154.689392 339.300385
   vertex 1.154832 -155.173477 348.535828
  endloop
 endfacet

 facet normal -0.359401 0.932211 0.042589
  outer loop
   vertex 1.154832 -155.173477 348.535828
   vertex 1.316038 -154.689392 339.300385
   vertex 1.284630 -154.701447 339.299194
  endloop
 endfacet

 facet normal -0.359364 0.932225 0.042591
  outer loop
   vertex 1.284630 -154.701447 339.299194
   vertex 1.123424 -155.185532 348.534668
   vertex 1.154832 -155.173477 348.535828
  endloop
 endfacet

 facet normal -0.999848 -0.000004 -0.017453
  outer loop
   vertex 1.284691 -154.767563 339.295746
   vertex 1.123424 -155.185532 348.534668
   vertex 1.284630 -154.701447 339.299194
  endloop
 endfacet

 facet normal -0.999848 0.000004 -0.017452
  outer loop
   vertex 1.123484 -155.251633 348.531189
   vertex 1.123424 -155.185532 348.534668
   vertex 1.284691 -154.767563 339.295746
  endloop
 endfacet

 facet normal 0.000913 -0.998630 -0.052327
  outer loop
   vertex 1.284691 -154.767563 339.295746
   vertex 2.756252 -154.767563 339.321411
   vertex 1.123484 -155.251633 348.531189
  endloop
 endfacet

 facet normal 0.000914 -0.998630 -0.052326
  outer loop
   vertex 1.123484 -155.251633 348.531189
   vertex 2.756252 -154.767563 339.321411
   vertex 2.595045 -155.251633 348.556885
  endloop
 endfacet

 facet normal 0.999848 0.000002 0.017453
  outer loop
   vertex 2.595045 -155.251633 348.556885
   vertex 2.756252 -154.767563 339.321411
   vertex 2.594985 -155.185532 348.560333
  endloop
 endfacet

 facet normal 0.999848 -0.000000 0.017452
  outer loop
   vertex 2.620151 -155.250320 348.095001
   vertex 2.619383 -154.410965 348.139008
   vertex 2.602722 -155.302658 349.093506
  endloop
 endfacet

 facet normal -0.999848 0.000001 -0.017452
  outer loop
   vertex 1.113745 -154.410965 348.112732
   vertex 1.114513 -155.250320 348.068726
   vertex 1.097084 -155.302658 349.067200
  endloop
 endfacet

 facet normal 0.999848 -0.000006 0.017452
  outer loop
   vertex 2.756252 -154.767563 339.321411
   vertex 2.756191 -154.701447 339.324890
   vertex 2.594985 -155.185532 348.560333
  endloop
 endfacet

 facet normal -0.366539 0.048333 -0.929146
  outer loop
   vertex 2.040568 -156.673309 338.157196
   vertex 2.041482 -157.671936 338.104889
   vertex 1.328465 -156.688629 338.437317
  endloop
 endfacet

 facet normal -0.366505 0.048361 -0.929158
  outer loop
   vertex 1.328465 -156.688629 338.437317
   vertex 2.041482 -157.671936 338.104889
   vertex 1.329378 -157.687271 338.384979
  endloop
 endfacet

 facet normal -0.917065 0.020032 -0.398235
  outer loop
   vertex 1.329378 -157.687271 338.384979
   vertex 1.023292 -156.725647 339.138214
   vertex 1.328465 -156.688629 338.437317
  endloop
 endfacet

 facet normal -0.917071 0.020020 -0.398221
  outer loop
   vertex 1.024205 -157.724274 339.085907
   vertex 1.023292 -156.725647 339.138214
   vertex 1.329378 -157.687271 338.384979
  endloop
 endfacet

 facet normal -0.930410 -0.020020 0.365973
  outer loop
   vertex 1.303817 -156.762650 339.849365
   vertex 1.023292 -156.725647 339.138214
   vertex 1.024205 -157.724274 339.085907
  endloop
 endfacet

 facet normal -0.930405 -0.020032 0.365986
  outer loop
   vertex 1.024205 -157.724274 339.085907
   vertex 1.304730 -157.761276 339.797028
   vertex 1.303817 -156.762650 339.849365
  endloop
 endfacet

 facet normal -0.398718 -0.048361 0.915798
  outer loop
   vertex 1.303817 -156.762650 339.849365
   vertex 1.304730 -157.761276 339.797028
   vertex 2.005711 -156.777985 340.154144
  endloop
 endfacet

 facet normal -0.398751 -0.048333 0.915785
  outer loop
   vertex 2.005711 -156.777985 340.154144
   vertex 1.304730 -157.761276 339.797028
   vertex 2.006624 -157.776611 340.101837
  endloop
 endfacet

 facet normal 0.366505 -0.048333 0.929160
  outer loop
   vertex 2.006624 -157.776611 340.101837
   vertex 2.717815 -156.762650 339.874054
   vertex 2.005711 -156.777985 340.154144
  endloop
 endfacet

 facet normal 0.366540 -0.048361 0.929145
  outer loop
   vertex 2.718728 -157.761276 339.821716
   vertex 2.717815 -156.762650 339.874054
   vertex 2.006624 -157.776611 340.101837
  endloop
 endfacet

 facet normal 0.917071 -0.020032 0.398220
  outer loop
   vertex 3.022988 -156.725647 339.173126
   vertex 2.717815 -156.762650 339.874054
   vertex 2.718728 -157.761276 339.821716
  endloop
 endfacet

 facet normal 0.917065 -0.020021 0.398236
  outer loop
   vertex 2.718728 -157.761276 339.821716
   vertex 3.023901 -157.724274 339.120819
   vertex 3.022988 -156.725647 339.173126
  endloop
 endfacet

 facet normal 0.930405 0.020021 -0.365986
  outer loop
   vertex 3.022988 -156.725647 339.173126
   vertex 3.023901 -157.724274 339.120819
   vertex 2.742463 -156.688629 338.462006
  endloop
 endfacet

 facet normal 0.930410 0.020031 -0.365972
  outer loop
   vertex 2.742463 -156.688629 338.462006
   vertex 3.023901 -157.724274 339.120819
   vertex 2.743376 -157.687271 338.409668
  endloop
 endfacet

 facet normal 0.398750 0.048360 -0.915784
  outer loop
   vertex 2.743376 -157.687271 338.409668
   vertex 2.040568 -156.673309 338.157196
   vertex 2.742463 -156.688629 338.462006
  endloop
 endfacet

 facet normal 0.398717 0.048333 -0.915799
  outer loop
   vertex 2.041482 -157.671936 338.104889
   vertex 2.040568 -156.673309 338.157196
   vertex 2.743376 -157.687271 338.409668
  endloop
 endfacet

 facet normal 0.366573 -0.048332 0.929133
  outer loop
   vertex 2.032948 -156.235626 348.722839
   vertex 1.854008 -155.240829 348.845184
   vertex 1.854921 -156.239456 348.792877
  endloop
 endfacet

 facet normal -0.398616 -0.048336 0.915843
  outer loop
   vertex 1.854921 -156.239456 348.792877
   vertex 1.854008 -155.240829 348.845184
   vertex 1.678535 -155.237000 348.769012
  endloop
 endfacet

 facet normal -0.398750 -0.048361 0.915784
  outer loop
   vertex 1.678535 -155.237000 348.769012
   vertex 1.679448 -156.235626 348.716675
   vertex 1.854921 -156.239456 348.792877
  endloop
 endfacet

 facet normal -0.930415 -0.020031 0.365959
  outer loop
   vertex 1.608403 -155.227753 348.591217
   vertex 1.679448 -156.235626 348.716675
   vertex 1.678535 -155.237000 348.769012
  endloop
 endfacet

 facet normal -0.930415 -0.020031 0.365959
  outer loop
   vertex 1.609317 -156.226379 348.538879
   vertex 1.679448 -156.235626 348.716675
   vertex 1.608403 -155.227753 348.591217
  endloop
 endfacet

 facet normal -0.917071 0.020032 -0.398221
  outer loop
   vertex 1.608403 -155.227753 348.591217
   vertex 1.684696 -155.218506 348.415985
   vertex 1.609317 -156.226379 348.538879
  endloop
 endfacet

 facet normal -0.917071 0.020032 -0.398221
  outer loop
   vertex 1.609317 -156.226379 348.538879
   vertex 1.684696 -155.218506 348.415985
   vertex 1.685610 -156.217133 348.363647
  endloop
 endfacet

 facet normal -0.366577 0.048360 -0.929130
  outer loop
   vertex 1.685610 -156.217133 348.363647
   vertex 1.684696 -155.218506 348.415985
   vertex 1.862722 -155.214661 348.345947
  endloop
 endfacet

 facet normal -0.366436 0.048334 -0.929187
  outer loop
   vertex 1.862722 -155.214661 348.345947
   vertex 1.863636 -156.213303 348.293640
   vertex 1.685610 -156.217133 348.363647
  endloop
 endfacet

 facet normal 0.398754 0.048332 -0.915784
  outer loop
   vertex 2.038196 -155.218506 348.422150
   vertex 1.863636 -156.213303 348.293640
   vertex 1.862722 -155.214661 348.345947
  endloop
 endfacet

 facet normal 0.398616 0.048363 -0.915842
  outer loop
   vertex 2.039109 -156.217133 348.369812
   vertex 1.863636 -156.213303 348.293640
   vertex 2.038196 -155.218506 348.422150
  endloop
 endfacet

 facet normal 0.930415 0.020031 -0.365959
  outer loop
   vertex 2.038196 -155.218506 348.422150
   vertex 2.108327 -155.227753 348.599945
   vertex 2.039109 -156.217133 348.369812
  endloop
 endfacet

 facet normal 0.930415 0.020031 -0.365960
  outer loop
   vertex 2.039109 -156.217133 348.369812
   vertex 2.108327 -155.227753 348.599945
   vertex 2.109241 -156.226379 348.547607
  endloop
 endfacet

 facet normal 0.917071 -0.020032 0.398220
  outer loop
   vertex 2.109241 -156.226379 348.547607
   vertex 2.108327 -155.227753 348.599945
   vertex 2.032034 -155.237000 348.775177
  endloop
 endfacet

 facet normal 0.917071 -0.020032 0.398220
  outer loop
   vertex 2.032034 -155.237000 348.775177
   vertex 2.032948 -156.235626 348.722839
   vertex 2.109241 -156.226379 348.547607
  endloop
 endfacet

 facet normal 0.366435 -0.048363 0.929186
  outer loop
   vertex 1.854008 -155.240829 348.845184
   vertex 2.032948 -156.235626 348.722839
   vertex 2.032034 -155.237000 348.775177
  endloop
 endfacet

 facet normal 0.366504 -0.048362 0.929159
  outer loop
   vertex 2.555772 -158.250626 349.157501
   vertex 1.842754 -157.267319 349.489929
   vertex 1.843668 -158.265945 349.437592
  endloop
 endfacet

 facet normal -0.398750 -0.048361 0.915784
  outer loop
   vertex 1.843668 -158.265945 349.437592
   vertex 1.842754 -157.267319 349.489929
   vertex 1.140860 -157.251999 349.185120
  endloop
 endfacet

 facet normal -0.398717 -0.048333 0.915800
  outer loop
   vertex 1.140860 -157.251999 349.185120
   vertex 1.141773 -158.250626 349.132812
   vertex 1.843668 -158.265945 349.437592
  endloop
 endfacet

 facet normal -0.930405 -0.020021 0.365986
  outer loop
   vertex 0.860335 -157.214981 348.473999
   vertex 1.141773 -158.250626 349.132812
   vertex 1.140860 -157.251999 349.185120
  endloop
 endfacet

 facet normal -0.930410 -0.020031 0.365972
  outer loop
   vertex 0.861248 -158.213608 348.421661
   vertex 1.141773 -158.250626 349.132812
   vertex 0.860335 -157.214981 348.473999
  endloop
 endfacet

 facet normal -0.917071 0.020032 -0.398220
  outer loop
   vertex 0.860335 -157.214981 348.473999
   vertex 1.165508 -157.177979 347.773071
   vertex 0.861248 -158.213608 348.421661
  endloop
 endfacet

 facet normal -0.917071 0.020032 -0.398220
  outer loop
   vertex 0.861248 -158.213608 348.421661
   vertex 1.165508 -157.177979 347.773071
   vertex 1.166421 -158.176605 347.720734
  endloop
 endfacet

 facet normal -0.366505 0.048362 -0.929158
  outer loop
   vertex 1.166421 -158.176605 347.720734
   vertex 1.165508 -157.177979 347.773071
   vertex 1.877611 -157.162643 347.492981
  endloop
 endfacet

 facet normal -0.366505 0.048361 -0.929159
  outer loop
   vertex 1.877611 -157.162643 347.492981
   vertex 1.878524 -158.161285 347.440643
   vertex 1.166421 -158.176605 347.720734
  endloop
 endfacet

 facet normal 0.398718 0.048361 -0.915798
  outer loop
   vertex 2.579505 -157.177979 347.797760
   vertex 1.878524 -158.161285 347.440643
   vertex 1.877611 -157.162643 347.492981
  endloop
 endfacet

 facet normal 0.398717 0.048361 -0.915798
  outer loop
   vertex 2.580419 -158.176605 347.745422
   vertex 1.878524 -158.161285 347.440643
   vertex 2.579505 -157.177979 347.797760
  endloop
 endfacet

 facet normal 0.930410 0.020031 -0.365973
  outer loop
   vertex 2.579505 -157.177979 347.797760
   vertex 2.860030 -157.214981 348.508911
   vertex 2.580419 -158.176605 347.745422
  endloop
 endfacet

 facet normal 0.930410 0.020031 -0.365973
  outer loop
   vertex 2.580419 -158.176605 347.745422
   vertex 2.860030 -157.214981 348.508911
   vertex 2.860944 -158.213608 348.456573
  endloop
 endfacet

 facet normal 0.917065 -0.020033 0.398234
  outer loop
   vertex 2.860944 -158.213608 348.456573
   vertex 2.860030 -157.214981 348.508911
   vertex 2.554858 -157.251999 349.209808
  endloop
 endfacet

 facet normal 0.917071 -0.020020 0.398220
  outer loop
   vertex 2.554858 -157.251999 349.209808
   vertex 2.555772 -158.250626 349.157501
   vertex 2.860944 -158.213608 348.456573
  endloop
 endfacet

 facet normal 0.366539 -0.048333 0.929147
  outer loop
   vertex 1.842754 -157.267319 349.489929
   vertex 2.555772 -158.250626 349.157501
   vertex 2.554858 -157.251999 349.209808
  endloop
 endfacet

 facet normal 0.300767 0.529022 0.793521
  outer loop
   vertex 2.554858 -157.251999 349.209808
   vertex 1.854912 -156.229446 348.793396
   vertex 1.842754 -157.267319 349.489929
  endloop
 endfacet

 facet normal -0.328243 0.529028 0.782551
  outer loop
   vertex 1.842754 -157.267319 349.489929
   vertex 1.854912 -156.229446 348.793396
   vertex 1.679439 -156.225601 348.717194
  endloop
 endfacet

 facet normal -0.328286 0.529015 0.782542
  outer loop
   vertex 1.679439 -156.225601 348.717194
   vertex 1.140860 -157.251999 349.185120
   vertex 1.842754 -157.267319 349.489929
  endloop
 endfacet

 facet normal -0.765300 0.552289 0.330595
  outer loop
   vertex 1.609308 -156.216354 348.539398
   vertex 1.140860 -157.251999 349.185120
   vertex 1.679439 -156.225601 348.717194
  endloop
 endfacet

 facet normal -0.765272 0.552303 0.330637
  outer loop
   vertex 0.860335 -157.214981 348.473999
   vertex 1.140860 -157.251999 349.185120
   vertex 1.609308 -156.216354 348.539398
  endloop
 endfacet

 facet normal -0.754313 0.585222 -0.297534
  outer loop
   vertex 1.609308 -156.216354 348.539398
   vertex 1.685601 -156.207108 348.364166
   vertex 0.860335 -157.214981 348.473999
  endloop
 endfacet

 facet normal -0.754316 0.585225 -0.297522
  outer loop
   vertex 0.860335 -157.214981 348.473999
   vertex 1.685601 -156.207108 348.364166
   vertex 1.165508 -157.177979 347.773071
  endloop
 endfacet

 facet normal -0.301718 0.608490 -0.733966
  outer loop
   vertex 1.165508 -157.177979 347.773071
   vertex 1.685601 -156.207108 348.364166
   vertex 1.863626 -156.203278 348.294159
  endloop
 endfacet

 facet normal -0.301777 0.608510 -0.733925
  outer loop
   vertex 1.863626 -156.203278 348.294159
   vertex 1.877611 -157.162643 347.492981
   vertex 1.165508 -157.177979 347.773071
  endloop
 endfacet

 facet normal 0.327230 0.608506 -0.722939
  outer loop
   vertex 2.039100 -156.207108 348.370361
   vertex 1.877611 -157.162643 347.492981
   vertex 1.863626 -156.203278 348.294159
  endloop
 endfacet

 facet normal 0.327213 0.608511 -0.722942
  outer loop
   vertex 2.579505 -157.177979 347.797760
   vertex 1.877611 -157.162643 347.492981
   vertex 2.039100 -156.207108 348.370361
  endloop
 endfacet

 facet normal 0.764215 0.585239 -0.271054
  outer loop
   vertex 2.039100 -156.207108 348.370361
   vertex 2.109231 -156.216354 348.548126
   vertex 2.579505 -157.177979 347.797760
  endloop
 endfacet

 facet normal 0.764241 0.585223 -0.271017
  outer loop
   vertex 2.579505 -157.177979 347.797760
   vertex 2.109231 -156.216354 348.548126
   vertex 2.860030 -157.214981 348.508911
  endloop
 endfacet

 facet normal 0.753275 0.552313 0.357109
  outer loop
   vertex 2.860030 -157.214981 348.508911
   vertex 2.109231 -156.216354 348.548126
   vertex 2.032938 -156.225601 348.723358
  endloop
 endfacet

 facet normal 0.753268 0.552299 0.357144
  outer loop
   vertex 2.032938 -156.225601 348.723358
   vertex 2.554858 -157.251999 349.209808
   vertex 2.860030 -157.214981 348.508911
  endloop
 endfacet

 facet normal 0.300758 0.529018 0.793527
  outer loop
   vertex 1.854912 -156.229446 348.793396
   vertex 2.554858 -157.251999 349.209808
   vertex 2.032938 -156.225601 348.723358
  endloop
 endfacet

 facet normal -0.366573 0.048360 -0.929132
  outer loop
   vertex 2.025680 -154.725327 339.010193
   vertex 2.026593 -155.723953 338.957855
   vertex 1.847654 -154.729156 339.080231
  endloop
 endfacet

 facet normal -0.366574 0.048360 -0.929131
  outer loop
   vertex 1.847654 -154.729156 339.080231
   vertex 2.026593 -155.723953 338.957855
   vertex 1.848567 -155.727783 339.027893
  endloop
 endfacet

 facet normal -0.917071 0.020032 -0.398221
  outer loop
   vertex 1.848567 -155.727783 339.027893
   vertex 1.771360 -154.738403 339.255463
   vertex 1.847654 -154.729156 339.080231
  endloop
 endfacet

 facet normal -0.917072 0.020031 -0.398219
  outer loop
   vertex 1.772274 -155.737045 339.203125
   vertex 1.771360 -154.738403 339.255463
   vertex 1.848567 -155.727783 339.027893
  endloop
 endfacet

 facet normal -0.930394 -0.020033 0.366012
  outer loop
   vertex 1.841492 -154.747665 339.433228
   vertex 1.771360 -154.738403 339.255463
   vertex 1.772274 -155.737045 339.203125
  endloop
 endfacet

 facet normal -0.930415 -0.020020 0.365960
  outer loop
   vertex 1.772274 -155.737045 339.203125
   vertex 1.842405 -155.746292 339.380920
   vertex 1.841492 -154.747665 339.433228
  endloop
 endfacet

 facet normal -0.398750 -0.048333 0.915785
  outer loop
   vertex 1.841492 -154.747665 339.433228
   vertex 1.842405 -155.746292 339.380920
   vertex 2.016965 -154.751495 339.509430
  endloop
 endfacet

 facet normal -0.398616 -0.048364 0.915842
  outer loop
   vertex 2.016965 -154.751495 339.509430
   vertex 1.842405 -155.746292 339.380920
   vertex 2.017879 -155.750122 339.457092
  endloop
 endfacet

 facet normal 0.366573 -0.048360 0.929131
  outer loop
   vertex 2.017879 -155.750122 339.457092
   vertex 2.194991 -154.747665 339.439392
   vertex 2.016965 -154.751495 339.509430
  endloop
 endfacet

 facet normal 0.366435 -0.048335 0.929187
  outer loop
   vertex 2.195904 -155.746292 339.387085
   vertex 2.194991 -154.747665 339.439392
   vertex 2.017879 -155.750122 339.457092
  endloop
 endfacet

 facet normal 0.917071 -0.020020 0.398220
  outer loop
   vertex 2.271284 -154.738403 339.264160
   vertex 2.194991 -154.747665 339.439392
   vertex 2.195904 -155.746292 339.387085
  endloop
 endfacet

 facet normal 0.917071 -0.020020 0.398221
  outer loop
   vertex 2.195904 -155.746292 339.387085
   vertex 2.272197 -155.737045 339.211853
   vertex 2.271284 -154.738403 339.264160
  endloop
 endfacet

 facet normal 0.930394 0.020022 -0.366014
  outer loop
   vertex 2.271284 -154.738403 339.264160
   vertex 2.272197 -155.737045 339.211853
   vertex 2.201153 -154.729156 339.086395
  endloop
 endfacet

 facet normal 0.930416 0.020030 -0.365957
  outer loop
   vertex 2.201153 -154.729156 339.086395
   vertex 2.272197 -155.737045 339.211853
   vertex 2.202066 -155.727783 339.034058
  endloop
 endfacet

 facet normal 0.398750 0.048360 -0.915784
  outer loop
   vertex 2.202066 -155.727783 339.034058
   vertex 2.025680 -154.725327 339.010193
   vertex 2.201153 -154.729156 339.086395
  endloop
 endfacet

 facet normal 0.398750 0.048360 -0.915784
  outer loop
   vertex 2.026593 -155.723953 338.957855
   vertex 2.025680 -154.725327 339.010193
   vertex 2.202066 -155.727783 339.034058
  endloop
 endfacet

 facet normal 0.327232 0.608500 -0.722944
  outer loop
   vertex 2.202057 -155.717758 339.034576
   vertex 2.742463 -156.688629 338.462006
   vertex 2.026584 -155.713928 338.958374
  endloop
 endfacet

 facet normal 0.327232 0.608499 -0.722944
  outer loop
   vertex 2.026584 -155.713928 338.958374
   vertex 2.742463 -156.688629 338.462006
   vertex 2.040568 -156.673309 338.157196
  endloop
 endfacet

 facet normal -0.301824 0.608495 -0.733918
  outer loop
   vertex 2.040568 -156.673309 338.157196
   vertex 1.848558 -155.717758 339.028412
   vertex 2.026584 -155.713928 338.958374
  endloop
 endfacet

 facet normal -0.301795 0.608504 -0.733923
  outer loop
   vertex 1.328465 -156.688629 338.437317
   vertex 1.848558 -155.717758 339.028412
   vertex 2.040568 -156.673309 338.157196
  endloop
 endfacet

 facet normal -0.754334 0.585217 -0.297492
  outer loop
   vertex 1.772265 -155.727020 339.203644
   vertex 1.848558 -155.717758 339.028412
   vertex 1.328465 -156.688629 338.437317
  endloop
 endfacet

 facet normal -0.754313 0.585230 -0.297521
  outer loop
   vertex 1.328465 -156.688629 338.437317
   vertex 1.023292 -156.725647 339.138214
   vertex 1.772265 -155.727020 339.203644
  endloop
 endfacet

 facet normal -0.765288 0.552308 0.330591
  outer loop
   vertex 1.772265 -155.727020 339.203644
   vertex 1.023292 -156.725647 339.138214
   vertex 1.842396 -155.736267 339.381439
  endloop
 endfacet

 facet normal -0.765284 0.552298 0.330616
  outer loop
   vertex 1.842396 -155.736267 339.381439
   vertex 1.023292 -156.725647 339.138214
   vertex 1.303817 -156.762650 339.849365
  endloop
 endfacet

 facet normal -0.328284 0.529020 0.782539
  outer loop
   vertex 1.303817 -156.762650 339.849365
   vertex 2.017869 -155.740097 339.457642
   vertex 1.842396 -155.736267 339.381439
  endloop
 endfacet

 facet normal -0.328250 0.529006 0.782563
  outer loop
   vertex 2.005711 -156.777985 340.154144
   vertex 2.017869 -155.740097 339.457642
   vertex 1.303817 -156.762650 339.849365
  endloop
 endfacet

 facet normal 0.300803 0.528993 0.793526
  outer loop
   vertex 2.195895 -155.736267 339.387604
   vertex 2.017869 -155.740097 339.457642
   vertex 2.005711 -156.777985 340.154144
  endloop
 endfacet

 facet normal 0.300729 0.529017 0.793539
  outer loop
   vertex 2.005711 -156.777985 340.154144
   vertex 2.717815 -156.762650 339.874054
   vertex 2.195895 -155.736267 339.387604
  endloop
 endfacet

 facet normal 0.753283 0.552300 0.357112
  outer loop
   vertex 2.195895 -155.736267 339.387604
   vertex 2.717815 -156.762650 339.874054
   vertex 2.272188 -155.727020 339.212372
  endloop
 endfacet

 facet normal 0.753277 0.552303 0.357121
  outer loop
   vertex 2.272188 -155.727020 339.212372
   vertex 2.717815 -156.762650 339.874054
   vertex 3.022988 -156.725647 339.173126
  endloop
 endfacet

 facet normal 0.764248 0.585235 -0.270969
  outer loop
   vertex 3.022988 -156.725647 339.173126
   vertex 2.202057 -155.717758 339.034576
   vertex 2.272188 -155.727020 339.212372
  endloop
 endfacet

 facet normal 0.764241 0.585223 -0.271015
  outer loop
   vertex 2.742463 -156.688629 338.462006
   vertex 2.202057 -155.717758 339.034576
   vertex 3.022988 -156.725647 339.173126
  endloop
 endfacet

endsolid