solid stl file generated from DOUG
 facet normal 0.579802 -0.042247 0.813661
  outer loop
   vertex -54.955692 2.873428 348.490051
   vertex -54.844719 2.877674 348.411194
   vertex -54.868965 29.299700 349.800354
  endloop
 endfacet

 facet normal 0.999848 0.000001 0.017435
  outer loop
   vertex -54.868965 29.299700 349.800354
   vertex -54.844719 2.877674 348.411194
   vertex -54.867176 29.305096 349.697754
  endloop
 endfacet

 facet normal 0.607668 0.042253 -0.793066
  outer loop
   vertex -54.999187 29.237453 350.982025
   vertex -54.891037 29.233208 351.064667
   vertex -54.866787 2.811182 349.675537
  endloop
 endfacet

 facet normal 0.999848 0.000001 0.017435
  outer loop
   vertex -54.866787 2.811182 349.675537
   vertex -54.891037 29.233208 351.064667
   vertex -54.892826 29.227812 351.167267
  endloop
 endfacet

 facet normal 0.999847 -0.000001 0.017472
  outer loop
   vertex -54.892826 29.227812 351.167267
   vertex -54.868580 2.805786 349.778137
   vertex -54.866787 2.811182 349.675537
  endloop
 endfacet

 facet normal 0.927014 -0.018841 0.374552
  outer loop
   vertex -55.625443 29.227812 351.154480
   vertex -55.601192 2.805786 349.765350
   vertex -55.612820 29.229462 351.123322
  endloop
 endfacet

 facet normal 0.927054 -0.018836 0.374455
  outer loop
   vertex -55.612820 29.229462 351.123322
   vertex -55.601192 2.805786 349.765350
   vertex -55.588573 2.807436 349.734192
  endloop
 endfacet

 facet normal -0.017433 -0.052510 0.998468
  outer loop
   vertex -55.588573 2.807436 349.734192
   vertex -55.013504 2.807436 349.744232
   vertex -55.612820 29.229462 351.123322
  endloop
 endfacet

 facet normal 0.579654 -0.042252 0.813767
  outer loop
   vertex -54.868965 29.299700 349.800354
   vertex -54.979939 29.295454 349.879181
   vertex -54.955692 2.873428 348.490051
  endloop
 endfacet

 facet normal 0.999848 0.000000 0.017451
  outer loop
   vertex -54.955692 2.873428 348.490051
   vertex -54.979939 29.295454 349.879181
   vertex -54.999187 29.237453 350.982025
  endloop
 endfacet

 facet normal 0.999848 0.000000 0.017451
  outer loop
   vertex -54.999187 29.237453 350.982025
   vertex -54.974941 2.815428 349.592896
   vertex -54.955692 2.873428 348.490051
  endloop
 endfacet

 facet normal 0.607655 0.042253 -0.793076
  outer loop
   vertex -54.866787 2.811182 349.675537
   vertex -54.974941 2.815428 349.592896
   vertex -54.999187 29.237453 350.982025
  endloop
 endfacet

 facet normal -0.017360 -0.052510 0.998469
  outer loop
   vertex -54.868580 2.805786 349.778137
   vertex -54.892826 29.227812 351.167267
   vertex -55.001976 2.805786 349.775818
  endloop
 endfacet

 facet normal -0.017360 -0.052510 0.998469
  outer loop
   vertex -55.001976 2.805786 349.775818
   vertex -54.892826 29.227812 351.167267
   vertex -55.026222 29.227812 351.164948
  endloop
 endfacet

 facet normal -0.939539 -0.018839 0.341925
  outer loop
   vertex -55.026222 29.227812 351.164948
   vertex -55.013504 2.807436 349.744232
   vertex -55.001976 2.805786 349.775818
  endloop
 endfacet

 facet normal -0.939538 -0.018839 0.341925
  outer loop
   vertex -55.037750 29.229462 351.133362
   vertex -55.013504 2.807436 349.744232
   vertex -55.026222 29.227812 351.164948
  endloop
 endfacet

 facet normal -0.017433 -0.052510 0.998468
  outer loop
   vertex -55.612820 29.229462 351.123322
   vertex -55.013504 2.807436 349.744232
   vertex -55.037750 29.229462 351.133362
  endloop
 endfacet

 facet normal -0.000917 0.998620 0.052502
  outer loop
   vertex -54.848557 29.720734 349.702850
   vertex -55.715172 29.641661 351.191742
   vertex -54.874798 29.641661 351.206421
  endloop
 endfacet

 facet normal -0.017440 -0.052498 0.998469
  outer loop
   vertex -54.874798 29.641661 351.206421
   vertex -55.715172 29.641661 351.191742
   vertex -54.873882 28.643040 351.153931
  endloop
 endfacet

 facet normal 0.999848 -0.000001 0.017452
  outer loop
   vertex -54.873882 28.643040 351.153931
   vertex -54.847637 28.722115 349.650360
   vertex -54.874798 29.641661 351.206421
  endloop
 endfacet

 facet normal 0.000917 -0.998620 -0.052503
  outer loop
   vertex -55.714256 28.643040 351.139252
   vertex -54.847637 28.722115 349.650360
   vertex -54.873882 28.643040 351.153931
  endloop
 endfacet

 facet normal 0.000917 -0.998620 -0.052503
  outer loop
   vertex -55.688011 28.722115 349.635681
   vertex -54.847637 28.722115 349.650360
   vertex -55.714256 28.643040 351.139252
  endloop
 endfacet

 facet normal -0.999848 0.000001 -0.017452
  outer loop
   vertex -55.714256 28.643040 351.139252
   vertex -55.715172 29.641661 351.191742
   vertex -55.688011 28.722115 349.635681
  endloop
 endfacet

 facet normal -0.999848 0.000001 -0.017453
  outer loop
   vertex -55.688011 28.722115 349.635681
   vertex -55.715172 29.641661 351.191742
   vertex -55.688927 29.720734 349.688202
  endloop
 endfacet

 facet normal -0.000915 0.998620 0.052503
  outer loop
   vertex -55.688927 29.720734 349.688202
   vertex -55.715172 29.641661 351.191742
   vertex -54.848557 29.720734 349.702850
  endloop
 endfacet

 facet normal 0.017404 0.052498 -0.998469
  outer loop
   vertex -54.848557 29.720734 349.702850
   vertex -54.847637 28.722115 349.650360
   vertex -55.688927 29.720734 349.688202
  endloop
 endfacet

 facet normal 0.999848 0.000003 0.017450
  outer loop
   vertex -54.874798 29.641661 351.206421
   vertex -54.847637 28.722115 349.650360
   vertex -54.848557 29.720734 349.702850
  endloop
 endfacet

 facet normal -0.000917 0.998620 0.052502
  outer loop
   vertex -54.850708 3.388768 349.826172
   vertex -54.824463 3.467841 348.322601
   vertex -55.691082 3.388768 349.811493
  endloop
 endfacet

 facet normal -0.000915 0.998620 0.052503
  outer loop
   vertex -55.691082 3.388768 349.811493
   vertex -54.824463 3.467841 348.322601
   vertex -55.664837 3.467841 348.307953
  endloop
 endfacet

 facet normal -0.999848 -0.000003 -0.017453
  outer loop
   vertex -55.664837 3.467841 348.307953
   vertex -55.663918 2.469221 348.255432
   vertex -55.691082 3.388768 349.811493
  endloop
 endfacet

 facet normal 0.017404 0.052529 -0.998468
  outer loop
   vertex -54.824463 3.467841 348.322601
   vertex -55.663918 2.469221 348.255432
   vertex -55.664837 3.467841 348.307953
  endloop
 endfacet

 facet normal 0.017441 0.052498 -0.998469
  outer loop
   vertex -54.823547 2.469221 348.270111
   vertex -55.663918 2.469221 348.255432
   vertex -54.824463 3.467841 348.322601
  endloop
 endfacet

 facet normal 0.999848 -0.000001 0.017452
  outer loop
   vertex -54.824463 3.467841 348.322601
   vertex -54.849792 2.390147 349.773682
   vertex -54.823547 2.469221 348.270111
  endloop
 endfacet

 facet normal 0.000917 -0.998620 -0.052502
  outer loop
   vertex -54.823547 2.469221 348.270111
   vertex -54.849792 2.390147 349.773682
   vertex -55.663918 2.469221 348.255432
  endloop
 endfacet

 facet normal 0.000917 -0.998620 -0.052502
  outer loop
   vertex -55.663918 2.469221 348.255432
   vertex -54.849792 2.390147 349.773682
   vertex -55.690163 2.390147 349.759003
  endloop
 endfacet

 facet normal -0.999848 -0.000003 -0.017453
  outer loop
   vertex -55.690163 2.390147 349.759003
   vertex -55.691082 3.388768 349.811493
   vertex -55.663918 2.469221 348.255432
  endloop
 endfacet

 facet normal -0.017441 -0.052498 0.998469
  outer loop
   vertex -54.849792 2.390147 349.773682
   vertex -55.691082 3.388768 349.811493
   vertex -55.690163 2.390147 349.759003
  endloop
 endfacet

 facet normal -0.017440 -0.052498 0.998469
  outer loop
   vertex -54.850708 3.388768 349.826172
   vertex -55.691082 3.388768 349.811493
   vertex -54.849792 2.390147 349.773682
  endloop
 endfacet

 facet normal 0.999848 -0.000001 0.017452
  outer loop
   vertex -54.849792 2.390147 349.773682
   vertex -54.824463 3.467841 348.322601
   vertex -54.850708 3.388768 349.826172
  endloop
 endfacet

 facet normal 0.999848 0.000001 0.017435
  outer loop
   vertex -54.844719 2.877674 348.411194
   vertex -54.842930 2.883070 348.308594
   vertex -54.867176 29.305096 349.697754
  endloop
 endfacet

 facet normal 0.017360 0.052511 -0.998469
  outer loop
   vertex -54.867176 29.305096 349.697754
   vertex -54.842930 2.883070 348.308594
   vertex -54.976326 2.883070 348.306274
  endloop
 endfacet

 facet normal 0.017589 0.052510 -0.998465
  outer loop
   vertex -54.976326 2.883070 348.306274
   vertex -55.000572 29.305096 349.695404
   vertex -54.867176 29.305096 349.697754
  endloop
 endfacet

 facet normal -0.927014 0.018841 -0.374552
  outer loop
   vertex -54.988949 2.881420 348.337433
   vertex -55.000572 29.305096 349.695404
   vertex -54.976326 2.883070 348.306274
  endloop
 endfacet

 facet normal -0.927014 0.018841 -0.374552
  outer loop
   vertex -55.013195 29.303446 349.726562
   vertex -55.000572 29.305096 349.695404
   vertex -54.988949 2.881420 348.337433
  endloop
 endfacet

 facet normal 0.017433 0.052510 -0.998468
  outer loop
   vertex -54.988949 2.881420 348.337433
   vertex -55.564018 2.881420 348.327393
   vertex -55.013195 29.303446 349.726562
  endloop
 endfacet

 facet normal 0.017380 0.052511 -0.998469
  outer loop
   vertex -55.013195 29.303446 349.726562
   vertex -55.564018 2.881420 348.327393
   vertex -55.588264 29.303446 349.716553
  endloop
 endfacet

 facet normal 0.939575 0.018834 -0.341825
  outer loop
   vertex -55.588264 29.303446 349.716553
   vertex -55.564018 2.881420 348.327393
   vertex -55.575542 2.883070 348.295807
  endloop
 endfacet

 facet normal 0.939575 0.018834 -0.341825
  outer loop
   vertex -55.575542 2.883070 348.295807
   vertex -55.599789 29.305096 349.684967
   vertex -55.588264 29.303446 349.716553
  endloop
 endfacet

 facet normal 0.017034 0.052511 -0.998475
  outer loop
   vertex -55.641731 2.883070 348.294678
   vertex -55.599789 29.305096 349.684967
   vertex -55.575542 2.883070 348.295807
  endloop
 endfacet

 facet normal 0.017493 0.052510 -0.998467
  outer loop
   vertex -55.665981 29.305096 349.683807
   vertex -55.599789 29.305096 349.684967
   vertex -55.641731 2.883070 348.294678
  endloop
 endfacet

 facet normal -0.999848 0.000000 -0.017455
  outer loop
   vertex -55.641731 2.883070 348.294678
   vertex -55.667385 2.805786 349.764191
   vertex -55.665981 29.305096 349.683807
  endloop
 endfacet

 facet normal -0.999848 0.000000 -0.017452
  outer loop
   vertex -55.665981 29.305096 349.683807
   vertex -55.667385 2.805786 349.764191
   vertex -55.691631 29.227812 351.153320
  endloop
 endfacet

 facet normal -0.017494 -0.052510 0.998467
  outer loop
   vertex -55.691631 29.227812 351.153320
   vertex -55.667385 2.805786 349.764191
   vertex -55.625443 29.227812 351.154480
  endloop
 endfacet

 facet normal -0.017440 -0.052498 0.998469
  outer loop
   vertex -55.714256 28.643040 351.139252
   vertex -54.873882 28.643040 351.153931
   vertex -55.715172 29.641661 351.191742
  endloop
 endfacet

 facet normal 0.017440 0.052529 -0.998467
  outer loop
   vertex -54.847637 28.722115 349.650360
   vertex -55.688011 28.722115 349.635681
   vertex -55.688927 29.720734 349.688202
  endloop
 endfacet

 facet normal -0.017493 -0.052510 0.998467
  outer loop
   vertex -55.667385 2.805786 349.764191
   vertex -55.601192 2.805786 349.765350
   vertex -55.625443 29.227812 351.154480
  endloop
 endfacet

 facet normal 0.575627 -0.741816 -0.344040
  outer loop
   vertex -56.617699 2.713873 349.005737
   vertex -57.616859 1.964908 348.948914
   vertex -56.614685 2.796278 348.833099
  endloop
 endfacet

 facet normal 0.575639 -0.741825 -0.344000
  outer loop
   vertex -56.614685 2.796278 348.833099
   vertex -57.616859 1.964908 348.948914
   vertex -57.604805 2.294527 348.258270
  endloop
 endfacet

 facet normal 0.582998 -0.274284 -0.764776
  outer loop
   vertex -57.604805 2.294527 348.258270
   vertex -56.613571 2.976655 348.769257
   vertex -56.614685 2.796278 348.833099
  endloop
 endfacet

 facet normal 0.582979 -0.274234 -0.764808
  outer loop
   vertex -57.600346 3.016038 348.002960
   vertex -56.613571 2.976655 348.769257
   vertex -57.604805 2.294527 348.258270
  endloop
 endfacet

 facet normal 0.582398 0.354012 -0.731771
  outer loop
   vertex -56.615009 3.149343 348.851654
   vertex -56.613571 2.976655 348.769257
   vertex -57.600346 3.016038 348.002960
  endloop
 endfacet

 facet normal 0.582407 0.353983 -0.731777
  outer loop
   vertex -57.600346 3.016038 348.002960
   vertex -57.606098 3.706789 348.332520
   vertex -56.615009 3.149343 348.851654
  endloop
 endfacet

 facet normal 0.574244 0.774865 -0.264250
  outer loop
   vertex -56.615009 3.149343 348.851654
   vertex -57.606098 3.706789 348.332520
   vertex -56.618156 3.213183 349.032013
  endloop
 endfacet

 facet normal 0.574247 0.774860 -0.264257
  outer loop
   vertex -56.618156 3.213183 349.032013
   vertex -57.606098 3.706789 348.332520
   vertex -57.618690 3.962148 349.053925
  endloop
 endfacet

 facet normal 0.563268 0.741816 0.363921
  outer loop
   vertex -57.618690 3.962148 349.053925
   vertex -56.621170 3.130778 349.204651
   vertex -56.618156 3.213183 349.032013
  endloop
 endfacet

 facet normal 0.563281 0.741825 0.363882
  outer loop
   vertex -57.630749 3.632529 349.744568
   vertex -56.621170 3.130778 349.204651
   vertex -57.618690 3.962148 349.053925
  endloop
 endfacet

 facet normal 0.555949 0.274288 0.784658
  outer loop
   vertex -56.622284 2.950400 349.268494
   vertex -56.621170 3.130778 349.204651
   vertex -57.630749 3.632529 349.744568
  endloop
 endfacet

 facet normal 0.555928 0.274234 0.784691
  outer loop
   vertex -57.630749 3.632529 349.744568
   vertex -57.635204 2.911018 349.999878
   vertex -56.622284 2.950400 349.268494
  endloop
 endfacet

 facet normal 0.556499 -0.354014 0.751653
  outer loop
   vertex -56.622284 2.950400 349.268494
   vertex -57.635204 2.911018 349.999878
   vertex -56.620846 2.777712 349.186096
  endloop
 endfacet

 facet normal 0.556509 -0.353985 0.751660
  outer loop
   vertex -56.620846 2.777712 349.186096
   vertex -57.635204 2.911018 349.999878
   vertex -57.629452 2.220266 349.670319
  endloop
 endfacet

 facet normal 0.564668 -0.774870 0.284124
  outer loop
   vertex -57.629452 2.220266 349.670319
   vertex -56.617699 2.713873 349.005737
   vertex -56.620846 2.777712 349.186096
  endloop
 endfacet

 facet normal 0.564673 -0.774862 0.284138
  outer loop
   vertex -57.616859 1.964908 348.948914
   vertex -56.617699 2.713873 349.005737
   vertex -57.629452 2.220266 349.670319
  endloop
 endfacet

 facet normal 0.007505 -0.902491 -0.430644
  outer loop
   vertex -55.651917 28.897699 350.399628
   vertex -56.651764 28.897699 350.382202
   vertex -55.648903 28.980103 350.226990
  endloop
 endfacet

 facet normal 0.007517 -0.902520 -0.430582
  outer loop
   vertex -55.648903 28.980103 350.226990
   vertex -56.651764 28.897699 350.382202
   vertex -56.648750 28.980103 350.209534
  endloop
 endfacet

 facet normal 0.016455 -0.333698 -0.942536
  outer loop
   vertex -56.648750 28.980103 350.209534
   vertex -55.647789 29.160482 350.163147
   vertex -55.648903 28.980103 350.226990
  endloop
 endfacet

 facet normal 0.016455 -0.333698 -0.942536
  outer loop
   vertex -56.647636 29.160482 350.145691
   vertex -55.647789 29.160482 350.163147
   vertex -56.648750 28.980103 350.209534
  endloop
 endfacet

 facet normal 0.015754 0.430691 -0.902362
  outer loop
   vertex -55.649227 29.333170 350.245544
   vertex -55.647789 29.160482 350.163147
   vertex -56.647636 29.160482 350.145691
  endloop
 endfacet

 facet normal 0.015754 0.430691 -0.902362
  outer loop
   vertex -56.647636 29.160482 350.145691
   vertex -56.649075 29.333170 350.228088
   vertex -55.649227 29.333170 350.245544
  endloop
 endfacet

 facet normal 0.005824 0.942706 -0.333574
  outer loop
   vertex -55.649227 29.333170 350.245544
   vertex -56.649075 29.333170 350.228088
   vertex -55.652374 29.397009 350.425903
  endloop
 endfacet

 facet normal 0.005824 0.942706 -0.333574
  outer loop
   vertex -55.652374 29.397009 350.425903
   vertex -56.649075 29.333170 350.228088
   vertex -56.652222 29.397009 350.408447
  endloop
 endfacet

 facet normal -0.007519 0.902487 0.430652
  outer loop
   vertex -56.652222 29.397009 350.408447
   vertex -55.655388 29.314604 350.598541
   vertex -55.652374 29.397009 350.425903
  endloop
 endfacet

 facet normal -0.007519 0.902487 0.430652
  outer loop
   vertex -56.655235 29.314604 350.581085
   vertex -55.655388 29.314604 350.598541
   vertex -56.652222 29.397009 350.408447
  endloop
 endfacet

 facet normal -0.016455 0.333701 0.942535
  outer loop
   vertex -55.656502 29.134226 350.662384
   vertex -55.655388 29.314604 350.598541
   vertex -56.655235 29.314604 350.581085
  endloop
 endfacet

 facet normal -0.016455 0.333701 0.942535
  outer loop
   vertex -56.655235 29.314604 350.581085
   vertex -56.656349 29.134226 350.644928
   vertex -55.656502 29.134226 350.662384
  endloop
 endfacet

 facet normal -0.015754 -0.430691 0.902362
  outer loop
   vertex -55.656502 29.134226 350.662384
   vertex -56.656349 29.134226 350.644928
   vertex -55.655064 28.961538 350.579987
  endloop
 endfacet

 facet normal -0.015754 -0.430691 0.902362
  outer loop
   vertex -55.655064 28.961538 350.579987
   vertex -56.656349 29.134226 350.644928
   vertex -56.654911 28.961538 350.562531
  endloop
 endfacet

 facet normal -0.005824 -0.942706 0.333574
  outer loop
   vertex -56.654911 28.961538 350.562531
   vertex -55.651917 28.897699 350.399628
   vertex -55.655064 28.961538 350.579987
  endloop
 endfacet

 facet normal -0.005814 -0.942688 0.333624
  outer loop
   vertex -56.651764 28.897699 350.382202
   vertex -55.651917 28.897699 350.399628
   vertex -56.654911 28.961538 350.562531
  endloop
 endfacet

 facet normal 0.007518 -0.902509 -0.430605
  outer loop
   vertex -57.640888 28.148733 350.325531
   vertex -58.640736 28.148733 350.308075
   vertex -57.628834 28.478354 349.634888
  endloop
 endfacet

 facet normal 0.007518 -0.902509 -0.430605
  outer loop
   vertex -57.628834 28.478354 349.634888
   vertex -58.640736 28.148733 350.308075
   vertex -58.628681 28.478354 349.617432
  endloop
 endfacet

 facet normal 0.016456 -0.333631 -0.942560
  outer loop
   vertex -58.628681 28.478354 349.617432
   vertex -57.624374 29.199863 349.379578
   vertex -57.628834 28.478354 349.634888
  endloop
 endfacet

 facet normal 0.016456 -0.333631 -0.942560
  outer loop
   vertex -58.624222 29.199863 349.362122
   vertex -57.624374 29.199863 349.379578
   vertex -58.628681 28.478354 349.617432
  endloop
 endfacet

 facet normal 0.015754 0.430658 -0.902378
  outer loop
   vertex -57.630127 29.890615 349.709137
   vertex -57.624374 29.199863 349.379578
   vertex -58.624222 29.199863 349.362122
  endloop
 endfacet

 facet normal 0.015754 0.430658 -0.902378
  outer loop
   vertex -58.624222 29.199863 349.362122
   vertex -58.629974 29.890615 349.691681
   vertex -57.630127 29.890615 349.709137
  endloop
 endfacet

 facet normal 0.005824 0.942700 -0.333591
  outer loop
   vertex -57.630127 29.890615 349.709137
   vertex -58.629974 29.890615 349.691681
   vertex -57.642719 30.145975 350.430542
  endloop
 endfacet

 facet normal 0.005824 0.942700 -0.333591
  outer loop
   vertex -57.642719 30.145975 350.430542
   vertex -58.629974 29.890615 349.691681
   vertex -58.642567 30.145975 350.413086
  endloop
 endfacet

 facet normal -0.007518 0.902509 0.430605
  outer loop
   vertex -58.642567 30.145975 350.413086
   vertex -57.654778 29.816355 351.121185
   vertex -57.642719 30.145975 350.430542
  endloop
 endfacet

 facet normal -0.007518 0.902509 0.430605
  outer loop
   vertex -58.654625 29.816355 351.103729
   vertex -57.654778 29.816355 351.121185
   vertex -58.642567 30.145975 350.413086
  endloop
 endfacet

 facet normal -0.016456 0.333631 0.942560
  outer loop
   vertex -57.659233 29.094843 351.376495
   vertex -57.654778 29.816355 351.121185
   vertex -58.654625 29.816355 351.103729
  endloop
 endfacet

 facet normal -0.016456 0.333631 0.942560
  outer loop
   vertex -58.654625 29.816355 351.103729
   vertex -58.659081 29.094843 351.359039
   vertex -57.659233 29.094843 351.376495
  endloop
 endfacet

 facet normal -0.015754 -0.430659 0.902377
  outer loop
   vertex -57.659233 29.094843 351.376495
   vertex -58.659081 29.094843 351.359039
   vertex -57.653481 28.404093 351.046936
  endloop
 endfacet

 facet normal -0.015754 -0.430659 0.902377
  outer loop
   vertex -57.653481 28.404093 351.046936
   vertex -58.659081 29.094843 351.359039
   vertex -58.653328 28.404093 351.029480
  endloop
 endfacet

 facet normal -0.005824 -0.942700 0.333591
  outer loop
   vertex -58.653328 28.404093 351.029480
   vertex -57.640888 28.148733 350.325531
   vertex -57.653481 28.404093 351.046936
  endloop
 endfacet

 facet normal -0.005824 -0.942700 0.333591
  outer loop
   vertex -58.640736 28.148733 350.308075
   vertex -57.640888 28.148733 350.325531
   vertex -58.653328 28.404093 351.029480
  endloop
 endfacet

 facet normal 0.575638 -0.741834 -0.343981
  outer loop
   vertex -56.641727 28.897699 350.382355
   vertex -57.640888 28.148733 350.325531
   vertex -56.638714 28.980103 350.209686
  endloop
 endfacet

 facet normal 0.575632 -0.741829 -0.344003
  outer loop
   vertex -56.638714 28.980103 350.209686
   vertex -57.640888 28.148733 350.325531
   vertex -57.628834 28.478354 349.634888
  endloop
 endfacet

 facet normal 0.582959 -0.274176 -0.764844
  outer loop
   vertex -57.628834 28.478354 349.634888
   vertex -56.637600 29.160482 350.145874
   vertex -56.638714 28.980103 350.209686
  endloop
 endfacet

 facet normal 0.582980 -0.274234 -0.764807
  outer loop
   vertex -57.624374 29.199863 349.379578
   vertex -56.637600 29.160482 350.145874
   vertex -57.628834 28.478354 349.634888
  endloop
 endfacet

 facet normal 0.582397 0.354013 -0.731771
  outer loop
   vertex -56.639038 29.333170 350.228271
   vertex -56.637600 29.160482 350.145874
   vertex -57.624374 29.199863 349.379578
  endloop
 endfacet

 facet normal 0.582407 0.353983 -0.731777
  outer loop
   vertex -57.624374 29.199863 349.379578
   vertex -57.630127 29.890615 349.709137
   vertex -56.639038 29.333170 350.228271
  endloop
 endfacet

 facet normal 0.574252 0.774847 -0.264286
  outer loop
   vertex -56.639038 29.333170 350.228271
   vertex -57.630127 29.890615 349.709137
   vertex -56.642185 29.397009 350.408600
  endloop
 endfacet

 facet normal 0.574242 0.774864 -0.264259
  outer loop
   vertex -56.642185 29.397009 350.408600
   vertex -57.630127 29.890615 349.709137
   vertex -57.642719 30.145975 350.430542
  endloop
 endfacet

 facet normal 0.563288 0.741828 0.363865
  outer loop
   vertex -57.642719 30.145975 350.430542
   vertex -56.645199 29.314604 350.581268
   vertex -56.642185 29.397009 350.408600
  endloop
 endfacet

 facet normal 0.563282 0.741825 0.363882
  outer loop
   vertex -57.654778 29.816355 351.121185
   vertex -56.645199 29.314604 350.581268
   vertex -57.642719 30.145975 350.430542
  endloop
 endfacet

 facet normal 0.555949 0.274288 0.784657
  outer loop
   vertex -56.646313 29.134226 350.645111
   vertex -56.645199 29.314604 350.581268
   vertex -57.654778 29.816355 351.121185
  endloop
 endfacet

 facet normal 0.555928 0.274233 0.784691
  outer loop
   vertex -57.654778 29.816355 351.121185
   vertex -57.659233 29.094843 351.376495
   vertex -56.646313 29.134226 350.645111
  endloop
 endfacet

 facet normal 0.556499 -0.354015 0.751653
  outer loop
   vertex -56.646313 29.134226 350.645111
   vertex -57.659233 29.094843 351.376495
   vertex -56.644875 28.961538 350.562714
  endloop
 endfacet

 facet normal 0.556509 -0.353985 0.751660
  outer loop
   vertex -56.644875 28.961538 350.562714
   vertex -57.659233 29.094843 351.376495
   vertex -57.653481 28.404093 351.046936
  endloop
 endfacet

 facet normal 0.564667 -0.774871 0.284123
  outer loop
   vertex -57.653481 28.404093 351.046936
   vertex -56.641727 28.897699 350.382355
   vertex -56.644875 28.961538 350.562714
  endloop
 endfacet

 facet normal 0.564673 -0.774861 0.284138
  outer loop
   vertex -57.640888 28.148733 350.325531
   vertex -56.641727 28.897699 350.382355
   vertex -57.653481 28.404093 351.046936
  endloop
 endfacet

 facet normal 0.007518 -0.902517 -0.430588
  outer loop
   vertex -55.627888 2.713873 349.023041
   vertex -56.627735 2.713873 349.005585
   vertex -55.624874 2.796278 348.850372
  endloop
 endfacet

 facet normal 0.007518 -0.902517 -0.430588
  outer loop
   vertex -55.624874 2.796278 348.850372
   vertex -56.627735 2.713873 349.005585
   vertex -56.624722 2.796278 348.832916
  endloop
 endfacet

 facet normal 0.016455 -0.333701 -0.942535
  outer loop
   vertex -56.624722 2.796278 348.832916
   vertex -55.623760 2.976655 348.786530
   vertex -55.624874 2.796278 348.850372
  endloop
 endfacet

 facet normal 0.016455 -0.333701 -0.942535
  outer loop
   vertex -56.623608 2.976655 348.769073
   vertex -55.623760 2.976655 348.786530
   vertex -56.624722 2.796278 348.832916
  endloop
 endfacet

 facet normal 0.015754 0.430690 -0.902362
  outer loop
   vertex -55.625198 3.149343 348.868927
   vertex -55.623760 2.976655 348.786530
   vertex -56.623608 2.976655 348.769073
  endloop
 endfacet

 facet normal 0.015754 0.430690 -0.902362
  outer loop
   vertex -56.623608 2.976655 348.769073
   vertex -56.625046 3.149343 348.851471
   vertex -55.625198 3.149343 348.868927
  endloop
 endfacet

 facet normal 0.005824 0.942705 -0.333576
  outer loop
   vertex -55.625198 3.149343 348.868927
   vertex -56.625046 3.149343 348.851471
   vertex -55.628345 3.213183 349.049286
  endloop
 endfacet

 facet normal 0.005824 0.942705 -0.333576
  outer loop
   vertex -55.628345 3.213183 349.049286
   vertex -56.625046 3.149343 348.851471
   vertex -56.628193 3.213183 349.031830
  endloop
 endfacet

 facet normal -0.007518 0.902517 0.430588
  outer loop
   vertex -56.628193 3.213183 349.031830
   vertex -55.631359 3.130778 349.221954
   vertex -55.628345 3.213183 349.049286
  endloop
 endfacet

 facet normal -0.007518 0.902517 0.430588
  outer loop
   vertex -56.631207 3.130778 349.204498
   vertex -55.631359 3.130778 349.221954
   vertex -56.628193 3.213183 349.031830
  endloop
 endfacet

 facet normal -0.016456 0.333560 0.942585
  outer loop
   vertex -55.632473 2.950400 349.285767
   vertex -55.631359 3.130778 349.221954
   vertex -56.631207 3.130778 349.204498
  endloop
 endfacet

 facet normal -0.016456 0.333560 0.942585
  outer loop
   vertex -56.631207 3.130778 349.204498
   vertex -56.632320 2.950400 349.268311
   vertex -55.632473 2.950400 349.285767
  endloop
 endfacet

 facet normal -0.015754 -0.430690 0.902362
  outer loop
   vertex -55.632473 2.950400 349.285767
   vertex -56.632320 2.950400 349.268311
   vertex -55.631035 2.777712 349.203369
  endloop
 endfacet

 facet normal -0.015754 -0.430690 0.902362
  outer loop
   vertex -55.631035 2.777712 349.203369
   vertex -56.632320 2.950400 349.268311
   vertex -56.630882 2.777712 349.185913
  endloop
 endfacet

 facet normal -0.005825 -0.942687 0.333626
  outer loop
   vertex -56.630882 2.777712 349.185913
   vertex -55.627888 2.713873 349.023041
   vertex -55.631035 2.777712 349.203369
  endloop
 endfacet

 facet normal -0.005825 -0.942687 0.333626
  outer loop
   vertex -56.627735 2.713873 349.005585
   vertex -55.627888 2.713873 349.023041
   vertex -56.630882 2.777712 349.185913
  endloop
 endfacet

 facet normal -0.005824 -0.942700 0.333590
  outer loop
   vertex -57.629452 2.220266 349.670319
   vertex -58.629299 2.220266 349.652863
   vertex -57.616859 1.964908 348.948914
  endloop
 endfacet

 facet normal -0.005824 -0.942700 0.333590
  outer loop
   vertex -57.616859 1.964908 348.948914
   vertex -58.629299 2.220266 349.652863
   vertex -58.616707 1.964908 348.931458
  endloop
 endfacet

 facet normal 0.007518 -0.902509 -0.430605
  outer loop
   vertex -58.616707 1.964908 348.931458
   vertex -57.604805 2.294527 348.258270
   vertex -57.616859 1.964908 348.948914
  endloop
 endfacet

 facet normal 0.007518 -0.902509 -0.430605
  outer loop
   vertex -58.604652 2.294527 348.240814
   vertex -57.604805 2.294527 348.258270
   vertex -58.616707 1.964908 348.931458
  endloop
 endfacet

 facet normal 0.016456 -0.333631 -0.942560
  outer loop
   vertex -57.600346 3.016038 348.002960
   vertex -57.604805 2.294527 348.258270
   vertex -58.604652 2.294527 348.240814
  endloop
 endfacet

 facet normal 0.016456 -0.333631 -0.942560
  outer loop
   vertex -58.604652 2.294527 348.240814
   vertex -58.600193 3.016038 347.985504
   vertex -57.600346 3.016038 348.002960
  endloop
 endfacet

 facet normal 0.015754 0.430658 -0.902378
  outer loop
   vertex -57.600346 3.016038 348.002960
   vertex -58.600193 3.016038 347.985504
   vertex -57.606098 3.706789 348.332520
  endloop
 endfacet

 facet normal 0.015754 0.430658 -0.902378
  outer loop
   vertex -57.606098 3.706789 348.332520
   vertex -58.600193 3.016038 347.985504
   vertex -58.605946 3.706789 348.315063
  endloop
 endfacet

 facet normal 0.005824 0.942700 -0.333590
  outer loop
   vertex -58.605946 3.706789 348.315063
   vertex -57.618690 3.962148 349.053925
   vertex -57.606098 3.706789 348.332520
  endloop
 endfacet

 facet normal 0.005824 0.942700 -0.333590
  outer loop
   vertex -58.618538 3.962148 349.036469
   vertex -57.618690 3.962148 349.053925
   vertex -58.605946 3.706789 348.315063
  endloop
 endfacet

 facet normal -0.007518 0.902509 0.430605
  outer loop
   vertex -57.630749 3.632529 349.744568
   vertex -57.618690 3.962148 349.053925
   vertex -58.618538 3.962148 349.036469
  endloop
 endfacet

 facet normal -0.007518 0.902509 0.430605
  outer loop
   vertex -58.618538 3.962148 349.036469
   vertex -58.630596 3.632529 349.727112
   vertex -57.630749 3.632529 349.744568
  endloop
 endfacet

 facet normal -0.016456 0.333631 0.942560
  outer loop
   vertex -57.630749 3.632529 349.744568
   vertex -58.630596 3.632529 349.727112
   vertex -57.635204 2.911018 349.999878
  endloop
 endfacet

 facet normal -0.016427 0.333666 0.942548
  outer loop
   vertex -57.635204 2.911018 349.999878
   vertex -58.630596 3.632529 349.727112
   vertex -58.635052 2.911018 349.982452
  endloop
 endfacet

 facet normal -0.015727 -0.430658 0.902378
  outer loop
   vertex -58.635052 2.911018 349.982452
   vertex -57.629452 2.220266 349.670319
   vertex -57.635204 2.911018 349.999878
  endloop
 endfacet

 facet normal -0.015754 -0.430691 0.902362
  outer loop
   vertex -58.629299 2.220266 349.652863
   vertex -57.629452 2.220266 349.670319
   vertex -58.635052 2.911018 349.982452
  endloop
 endfacet

endsolid