solid stl file generated from DOUG
 facet normal 0.348159 -0.554793 -0.755639
  outer loop
   vertex 45.241833 154.731003 410.950958
   vertex 45.206993 154.617737 411.018066
   vertex 36.865364 154.819244 407.026733
  endloop
 endfacet

 facet normal 0.000881 -0.998633 -0.052258
  outer loop
   vertex 36.865364 154.819244 407.026733
   vertex 45.206993 154.617737 411.018066
   vertex 36.820965 154.814362 407.119293
  endloop
 endfacet

 facet normal -0.347110 -0.631251 0.693568
  outer loop
   vertex 37.377434 154.985077 405.964905
   vertex 37.412476 154.879501 405.886353
   vertex 45.754105 154.677994 409.877686
  endloop
 endfacet

 facet normal 0.000952 -0.998625 -0.052406
  outer loop
   vertex 45.754105 154.677994 409.877686
   vertex 37.412476 154.879501 405.886353
   vertex 37.456871 154.884399 405.793823
  endloop
 endfacet

 facet normal 0.000879 -0.998633 -0.052259
  outer loop
   vertex 37.456871 154.884399 405.793823
   vertex 45.798500 154.682877 409.785126
   vertex 45.754105 154.677994 409.877686
  endloop
 endfacet

 facet normal 0.155898 -0.915041 -0.372017
  outer loop
   vertex 37.456203 155.616119 405.832153
   vertex 45.797832 155.414597 409.823486
   vertex 37.442635 155.602554 405.859833
  endloop
 endfacet

 facet normal 0.155867 -0.915072 -0.371953
  outer loop
   vertex 37.442635 155.602554 405.859833
   vertex 45.797832 155.414597 409.823486
   vertex 45.784264 155.401047 409.851135
  endloop
 endfacet

 facet normal 0.432063 0.047576 -0.900588
  outer loop
   vertex 45.784264 155.401047 409.851135
   vertex 45.784790 154.826675 409.821045
   vertex 37.442635 155.602554 405.859833
  endloop
 endfacet

 facet normal 0.348215 -0.554601 -0.755754
  outer loop
   vertex 36.865364 154.819244 407.026733
   vertex 36.900204 154.932526 406.959656
   vertex 45.241833 154.731003 410.950958
  endloop
 endfacet

 facet normal 0.000909 -0.998630 -0.052320
  outer loop
   vertex 45.241833 154.731003 410.950958
   vertex 36.900204 154.932526 406.959656
   vertex 37.377434 154.985077 405.964905
  endloop
 endfacet

 facet normal 0.000917 -0.998629 -0.052333
  outer loop
   vertex 37.377434 154.985077 405.964905
   vertex 45.719063 154.783569 409.956238
   vertex 45.241833 154.731003 410.950958
  endloop
 endfacet

 facet normal -0.347110 -0.631251 0.693568
  outer loop
   vertex 45.754105 154.677994 409.877686
   vertex 45.719063 154.783569 409.956238
   vertex 37.377434 154.985077 405.964905
  endloop
 endfacet

 facet normal 0.432063 0.047632 -0.900585
  outer loop
   vertex 45.798500 154.682877 409.785126
   vertex 37.456871 154.884399 405.793823
   vertex 45.798378 154.816116 409.792114
  endloop
 endfacet

 facet normal 0.432065 0.047432 -0.900594
  outer loop
   vertex 45.798378 154.816116 409.792114
   vertex 37.456871 154.884399 405.793823
   vertex 37.456749 155.017624 405.800781
  endloop
 endfacet

 facet normal 0.154083 0.949278 -0.274098
  outer loop
   vertex 37.456749 155.017624 405.800781
   vertex 45.784790 154.826675 409.821045
   vertex 45.798378 154.816116 409.792114
  endloop
 endfacet

 facet normal 0.154157 0.949221 -0.274254
  outer loop
   vertex 37.443161 155.028198 405.829742
   vertex 45.784790 154.826675 409.821045
   vertex 37.456749 155.017624 405.800781
  endloop
 endfacet

 facet normal 0.432063 0.047578 -0.900588
  outer loop
   vertex 37.442635 155.602554 405.859833
   vertex 45.784790 154.826675 409.821045
   vertex 37.443161 155.028198 405.829742
  endloop
 endfacet

 facet normal -0.901840 0.021785 -0.431522
  outer loop
   vertex 36.328125 154.806595 406.901337
   vertex 36.977989 155.717606 405.589172
   vertex 36.978756 154.878250 405.545197
  endloop
 endfacet

 facet normal 0.432066 0.047579 -0.900586
  outer loop
   vertex 36.978756 154.878250 405.545197
   vertex 36.977989 155.717606 405.589172
   vertex 37.880600 154.856461 405.976715
  endloop
 endfacet

 facet normal 0.000910 -0.998630 -0.052328
  outer loop
   vertex 37.880600 154.856461 405.976715
   vertex 37.229969 154.784805 407.332855
   vertex 36.978756 154.878250 405.545197
  endloop
 endfacet

 facet normal 0.901840 -0.021781 0.431522
  outer loop
   vertex 37.879829 155.695816 406.020691
   vertex 37.229969 154.784805 407.332855
   vertex 37.880600 154.856461 405.976715
  endloop
 endfacet

 facet normal 0.901843 -0.021796 0.431513
  outer loop
   vertex 37.229198 155.624161 407.376862
   vertex 37.229969 154.784805 407.332855
   vertex 37.879829 155.695816 406.020691
  endloop
 endfacet

 facet normal -0.000910 0.998630 0.052328
  outer loop
   vertex 37.879829 155.695816 406.020691
   vertex 36.977989 155.717606 405.589172
   vertex 37.229198 155.624161 407.376862
  endloop
 endfacet

 facet normal -0.000928 0.998629 0.052330
  outer loop
   vertex 37.229198 155.624161 407.376862
   vertex 36.977989 155.717606 405.589172
   vertex 36.327358 155.645935 406.945343
  endloop
 endfacet

 facet normal -0.901843 0.021800 -0.431513
  outer loop
   vertex 36.327358 155.645935 406.945343
   vertex 36.977989 155.717606 405.589172
   vertex 36.328125 154.806595 406.901337
  endloop
 endfacet

 facet normal -0.432066 -0.047612 0.900584
  outer loop
   vertex 36.328125 154.806595 406.901337
   vertex 37.229969 154.784805 407.332855
   vertex 36.327358 155.645935 406.945343
  endloop
 endfacet

 facet normal 0.000910 -0.998630 -0.052328
  outer loop
   vertex 36.978756 154.878250 405.545197
   vertex 37.229969 154.784805 407.332855
   vertex 36.328125 154.806595 406.901337
  endloop
 endfacet

 facet normal -0.901843 0.021800 -0.431513
  outer loop
   vertex 45.389534 154.675064 409.569580
   vertex 44.738903 154.603409 410.925751
   vertex 45.388767 155.514420 409.613586
  endloop
 endfacet

 facet normal -0.901840 0.021785 -0.431522
  outer loop
   vertex 45.388767 155.514420 409.613586
   vertex 44.738903 154.603409 410.925751
   vertex 44.738136 155.442764 410.969727
  endloop
 endfacet

 facet normal -0.000910 0.998630 0.052328
  outer loop
   vertex 44.738136 155.442764 410.969727
   vertex 45.639977 155.420975 411.401245
   vertex 45.388767 155.514420 409.613586
  endloop
 endfacet

 facet normal -0.432068 -0.047579 0.900585
  outer loop
   vertex 44.738903 154.603409 410.925751
   vertex 45.639977 155.420975 411.401245
   vertex 44.738136 155.442764 410.969727
  endloop
 endfacet

 facet normal -0.432068 -0.047579 0.900585
  outer loop
   vertex 45.640743 154.581619 411.357269
   vertex 45.639977 155.420975 411.401245
   vertex 44.738903 154.603409 410.925751
  endloop
 endfacet

 facet normal 0.000910 -0.998630 -0.052328
  outer loop
   vertex 44.738903 154.603409 410.925751
   vertex 46.291374 154.653275 410.001099
   vertex 45.640743 154.581619 411.357269
  endloop
 endfacet

 facet normal 0.901843 -0.021784 0.431514
  outer loop
   vertex 45.640743 154.581619 411.357269
   vertex 46.291374 154.653275 410.001099
   vertex 45.639977 155.420975 411.401245
  endloop
 endfacet

 facet normal 0.901840 -0.021800 0.431521
  outer loop
   vertex 45.639977 155.420975 411.401245
   vertex 46.291374 154.653275 410.001099
   vertex 46.290607 155.492630 410.045105
  endloop
 endfacet

 facet normal -0.000910 0.998630 0.052328
  outer loop
   vertex 46.290607 155.492630 410.045105
   vertex 45.388767 155.514420 409.613586
   vertex 45.639977 155.420975 411.401245
  endloop
 endfacet

 facet normal 0.432068 0.047611 -0.900584
  outer loop
   vertex 46.291374 154.653275 410.001099
   vertex 45.388767 155.514420 409.613586
   vertex 46.290607 155.492630 410.045105
  endloop
 endfacet

 facet normal 0.432068 0.047611 -0.900584
  outer loop
   vertex 45.389534 154.675064 409.569580
   vertex 45.388767 155.514420 409.613586
   vertex 46.291374 154.653275 410.001099
  endloop
 endfacet

 facet normal 0.000910 -0.998630 -0.052328
  outer loop
   vertex 46.291374 154.653275 410.001099
   vertex 44.738903 154.603409 410.925751
   vertex 45.389534 154.675064 409.569580
  endloop
 endfacet

 facet normal 0.000950 -0.998625 -0.052407
  outer loop
   vertex 45.206993 154.617737 411.018066
   vertex 45.162594 154.612839 411.110596
   vertex 36.820965 154.814362 407.119293
  endloop
 endfacet

 facet normal -0.432063 -0.047632 0.900585
  outer loop
   vertex 36.820965 154.814362 407.119293
   vertex 45.162594 154.612839 411.110596
   vertex 45.162472 154.746078 411.117584
  endloop
 endfacet

 facet normal -0.432065 -0.047432 0.900594
  outer loop
   vertex 45.162472 154.746078 411.117584
   vertex 36.820843 154.947586 407.126251
   vertex 36.820965 154.814362 407.119293
  endloop
 endfacet

 facet normal -0.155732 0.915208 0.371676
  outer loop
   vertex 45.176041 154.759628 411.089905
   vertex 36.820843 154.947586 407.126251
   vertex 45.162472 154.746078 411.117584
  endloop
 endfacet

 facet normal -0.156033 0.914905 0.372295
  outer loop
   vertex 36.834412 154.961151 407.098602
   vertex 36.820843 154.947586 407.126251
   vertex 45.176041 154.759628 411.089905
  endloop
 endfacet

 facet normal -0.432063 -0.047624 0.900585
  outer loop
   vertex 45.176041 154.759628 411.089905
   vertex 45.175514 155.334000 411.120026
   vertex 36.834412 154.961151 407.098602
  endloop
 endfacet

 facet normal -0.432065 -0.047577 0.900586
  outer loop
   vertex 36.834412 154.961151 407.098602
   vertex 45.175514 155.334000 411.120026
   vertex 36.833885 155.535507 407.128693
  endloop
 endfacet

 facet normal -0.154083 -0.949278 0.274098
  outer loop
   vertex 36.833885 155.535507 407.128693
   vertex 45.175514 155.334000 411.120026
   vertex 45.161926 155.344559 411.148956
  endloop
 endfacet

 facet normal -0.154258 -0.949143 0.274467
  outer loop
   vertex 45.161926 155.344559 411.148956
   vertex 36.820297 155.546082 407.157623
   vertex 36.833885 155.535507 407.128693
  endloop
 endfacet

 facet normal -0.432065 -0.047372 0.900597
  outer loop
   vertex 45.161865 155.410675 411.152405
   vertex 36.820297 155.546082 407.157623
   vertex 45.161926 155.344559 411.148956
  endloop
 endfacet

 facet normal -0.432062 -0.047798 0.900576
  outer loop
   vertex 36.820236 155.612183 407.161102
   vertex 36.820297 155.546082 407.157623
   vertex 45.161865 155.410675 411.152405
  endloop
 endfacet

 facet normal -0.000915 0.998629 0.052329
  outer loop
   vertex 45.161865 155.410675 411.152405
   vertex 45.797771 155.480713 409.826935
   vertex 36.820236 155.612183 407.161102
  endloop
 endfacet

 facet normal -0.000915 0.998629 0.052329
  outer loop
   vertex 36.820236 155.612183 407.161102
   vertex 45.797771 155.480713 409.826935
   vertex 37.456142 155.682220 405.835632
  endloop
 endfacet

 facet normal 0.432062 0.047798 -0.900576
  outer loop
   vertex 37.456142 155.682220 405.835632
   vertex 45.797771 155.480713 409.826935
   vertex 37.456203 155.616119 405.832153
  endloop
 endfacet

 facet normal 0.432068 0.047580 -0.900585
  outer loop
   vertex 37.879829 155.695816 406.020691
   vertex 37.880600 154.856461 405.976715
   vertex 36.977989 155.717606 405.589172
  endloop
 endfacet

 facet normal -0.432067 -0.047613 0.900584
  outer loop
   vertex 37.229969 154.784805 407.332855
   vertex 37.229198 155.624161 407.376862
   vertex 36.327358 155.645935 406.945343
  endloop
 endfacet

 facet normal 0.432065 0.047372 -0.900597
  outer loop
   vertex 45.797771 155.480713 409.826935
   vertex 45.797832 155.414597 409.823486
   vertex 37.456203 155.616119 405.832153
  endloop
 endfacet

 facet normal 0.667859 -0.038346 0.743299
  outer loop
   vertex 46.425167 157.383530 411.045593
   vertex 46.424255 158.382156 411.097931
   vertex 45.855507 157.356262 411.556030
  endloop
 endfacet

 facet normal 0.667859 -0.038346 0.743299
  outer loop
   vertex 45.855507 157.356262 411.556030
   vertex 46.424255 158.382156 411.097931
   vertex 45.854595 158.354889 411.608368
  endloop
 endfacet

 facet normal -0.054054 -0.052310 0.997167
  outer loop
   vertex 45.854595 158.354889 411.608368
   vertex 45.091259 157.357727 411.514679
   vertex 45.855507 157.356262 411.556030
  endloop
 endfacet

 facet normal -0.054054 -0.052310 0.997167
  outer loop
   vertex 45.090347 158.356354 411.567017
   vertex 45.091259 157.357727 411.514679
   vertex 45.854595 158.354889 411.608368
  endloop
 endfacet

 facet normal -0.744298 -0.035631 0.666896
  outer loop
   vertex 44.580109 157.387070 410.945770
   vertex 45.091259 157.357727 411.514679
   vertex 45.090347 158.356354 411.567017
  endloop
 endfacet

 facet normal -0.744298 -0.035631 0.666896
  outer loop
   vertex 45.090347 158.356354 411.567017
   vertex 44.579197 158.385696 410.998108
   vertex 44.580109 157.387070 410.945770
  endloop
 endfacet

 facet normal -0.998537 0.001920 -0.054033
  outer loop
   vertex 44.580109 157.387070 410.945770
   vertex 44.579197 158.385696 410.998108
   vertex 44.621483 157.427094 410.182587
  endloop
 endfacet

 facet normal -0.998538 0.001914 -0.054026
  outer loop
   vertex 44.621483 157.427094 410.182587
   vertex 44.579197 158.385696 410.998108
   vertex 44.620567 158.425735 410.234894
  endloop
 endfacet

 facet normal -0.667862 0.038320 -0.743298
  outer loop
   vertex 44.620567 158.425735 410.234894
   vertex 45.191139 157.454361 409.672150
   vertex 44.621483 157.427094 410.182587
  endloop
 endfacet

 facet normal -0.667837 0.038347 -0.743319
  outer loop
   vertex 45.190228 158.453003 409.724487
   vertex 45.191139 157.454361 409.672150
   vertex 44.620567 158.425735 410.234894
  endloop
 endfacet

 facet normal 0.054054 0.052310 -0.997167
  outer loop
   vertex 45.955387 157.452896 409.713501
   vertex 45.191139 157.454361 409.672150
   vertex 45.190228 158.453003 409.724487
  endloop
 endfacet

 facet normal 0.054055 0.052310 -0.997167
  outer loop
   vertex 45.190228 158.453003 409.724487
   vertex 45.954475 158.451523 409.765839
   vertex 45.955387 157.452896 409.713501
  endloop
 endfacet

 facet normal 0.744298 0.035631 -0.666896
  outer loop
   vertex 45.955387 157.452896 409.713501
   vertex 45.954475 158.451523 409.765839
   vertex 46.466537 157.423553 410.282410
  endloop
 endfacet

 facet normal 0.744298 0.035631 -0.666896
  outer loop
   vertex 46.466537 157.423553 410.282410
   vertex 45.954475 158.451523 409.765839
   vertex 46.465626 158.422180 410.334747
  endloop
 endfacet

 facet normal 0.998538 -0.001920 0.054028
  outer loop
   vertex 46.465626 158.422180 410.334747
   vertex 46.425167 157.383530 411.045593
   vertex 46.466537 157.423553 410.282410
  endloop
 endfacet

 facet normal 0.998538 -0.001920 0.054028
  outer loop
   vertex 46.424255 158.382156 411.097931
   vertex 46.425167 157.383530 411.045593
   vertex 46.465626 158.422180 410.334747
  endloop
 endfacet

 facet normal -0.667818 0.038346 -0.743336
  outer loop
   vertex 37.008953 156.632675 406.292145
   vertex 36.867455 155.627228 406.367401
   vertex 36.866539 156.625854 406.419739
  endloop
 endfacet

 facet normal -0.998537 0.001917 -0.054043
  outer loop
   vertex 36.866539 156.625854 406.419739
   vertex 36.867455 155.627228 406.367401
   vertex 36.857109 155.617218 406.558197
  endloop
 endfacet

 facet normal -0.998538 0.001920 -0.054023
  outer loop
   vertex 36.857109 155.617218 406.558197
   vertex 36.856197 156.615845 406.610535
   vertex 36.866539 156.625854 406.419739
  endloop
 endfacet

 facet normal -0.744332 -0.035629 0.666859
  outer loop
   vertex 36.984898 155.609879 406.700439
   vertex 36.856197 156.615845 406.610535
   vertex 36.857109 155.617218 406.558197
  endloop
 endfacet

 facet normal -0.744330 -0.035629 0.666861
  outer loop
   vertex 36.983986 156.608521 406.752777
   vertex 36.856197 156.615845 406.610535
   vertex 36.984898 155.609879 406.700439
  endloop
 endfacet

 facet normal -0.054094 -0.052310 0.997165
  outer loop
   vertex 36.984898 155.609879 406.700439
   vertex 37.175961 155.609512 406.710785
   vertex 36.983986 156.608521 406.752777
  endloop
 endfacet

 facet normal -0.053936 -0.052280 0.997175
  outer loop
   vertex 36.983986 156.608521 406.752777
   vertex 37.175961 155.609512 406.710785
   vertex 37.175045 156.608154 406.763092
  endloop
 endfacet

 facet normal 0.667907 -0.038318 0.743258
  outer loop
   vertex 37.175045 156.608154 406.763092
   vertex 37.175961 155.609512 406.710785
   vertex 37.318375 155.616333 406.583160
  endloop
 endfacet

 facet normal 0.667806 -0.038349 0.743347
  outer loop
   vertex 37.318375 155.616333 406.583160
   vertex 37.317463 156.614960 406.635498
   vertex 37.175045 156.608154 406.763092
  endloop
 endfacet

 facet normal 0.998538 -0.001920 0.054023
  outer loop
   vertex 37.328716 155.626343 406.392365
   vertex 37.317463 156.614960 406.635498
   vertex 37.318375 155.616333 406.583160
  endloop
 endfacet

 facet normal 0.998538 -0.001920 0.054023
  outer loop
   vertex 37.327805 156.624969 406.444702
   vertex 37.317463 156.614960 406.635498
   vertex 37.328716 155.626343 406.392365
  endloop
 endfacet

 facet normal 0.744271 0.035633 -0.666927
  outer loop
   vertex 37.328716 155.626343 406.392365
   vertex 37.200932 155.633682 406.250153
   vertex 37.327805 156.624969 406.444702
  endloop
 endfacet

 facet normal 0.744332 0.035612 -0.666860
  outer loop
   vertex 37.327805 156.624969 406.444702
   vertex 37.200932 155.633682 406.250153
   vertex 37.200016 156.632309 406.302460
  endloop
 endfacet

 facet normal 0.054094 0.052280 -0.997166
  outer loop
   vertex 37.200016 156.632309 406.302460
   vertex 37.200932 155.633682 406.250153
   vertex 37.009869 155.634048 406.239807
  endloop
 endfacet

 facet normal 0.053935 0.052311 -0.997173
  outer loop
   vertex 37.009869 155.634048 406.239807
   vertex 37.008953 156.632675 406.292145
   vertex 37.200016 156.632309 406.302460
  endloop
 endfacet

 facet normal -0.667818 0.038346 -0.743336
  outer loop
   vertex 36.867455 155.627228 406.367401
   vertex 37.008953 156.632675 406.292145
   vertex 37.009869 155.634048 406.239807
  endloop
 endfacet

 facet normal -0.667837 0.038322 -0.743320
  outer loop
   vertex 36.757999 158.656693 405.689819
   vertex 36.189255 157.630798 406.147919
   vertex 36.188339 158.629425 406.200226
  endloop
 endfacet

 facet normal -0.998537 0.001915 -0.054033
  outer loop
   vertex 36.188339 158.629425 406.200226
   vertex 36.189255 157.630798 406.147919
   vertex 36.147881 157.590775 406.911102
  endloop
 endfacet

 facet normal -0.998538 0.001920 -0.054026
  outer loop
   vertex 36.147881 157.590775 406.911102
   vertex 36.146969 158.589401 406.963440
   vertex 36.188339 158.629425 406.200226
  endloop
 endfacet

 facet normal -0.744298 -0.035631 0.666896
  outer loop
   vertex 36.659031 157.561432 407.480011
   vertex 36.146969 158.589401 406.963440
   vertex 36.147881 157.590775 406.911102
  endloop
 endfacet

 facet normal -0.744298 -0.035631 0.666896
  outer loop
   vertex 36.658119 158.560059 407.532349
   vertex 36.146969 158.589401 406.963440
   vertex 36.659031 157.561432 407.480011
  endloop
 endfacet

 facet normal -0.054054 -0.052310 0.997167
  outer loop
   vertex 36.659031 157.561432 407.480011
   vertex 37.423279 157.559967 407.521362
   vertex 36.658119 158.560059 407.532349
  endloop
 endfacet

 facet normal -0.054054 -0.052310 0.997167
  outer loop
   vertex 36.658119 158.560059 407.532349
   vertex 37.423279 157.559967 407.521362
   vertex 37.422367 158.558594 407.573700
  endloop
 endfacet

 facet normal 0.667859 -0.038346 0.743299
  outer loop
   vertex 37.422367 158.558594 407.573700
   vertex 37.423279 157.559967 407.521362
   vertex 37.992939 157.587234 407.010925
  endloop
 endfacet

 facet normal 0.667859 -0.038346 0.743299
  outer loop
   vertex 37.992939 157.587234 407.010925
   vertex 37.992027 158.585861 407.063263
   vertex 37.422367 158.558594 407.573700
  endloop
 endfacet

 facet normal 0.998538 -0.001920 0.054028
  outer loop
   vertex 38.034309 157.627258 406.247742
   vertex 37.992027 158.585861 407.063263
   vertex 37.992939 157.587234 407.010925
  endloop
 endfacet

 facet normal 0.998538 -0.001920 0.054028
  outer loop
   vertex 38.033398 158.625885 406.300079
   vertex 37.992027 158.585861 407.063263
   vertex 38.034309 157.627258 406.247742
  endloop
 endfacet

 facet normal 0.744298 0.035631 -0.666896
  outer loop
   vertex 38.034309 157.627258 406.247742
   vertex 37.523159 157.656601 405.678833
   vertex 38.033398 158.625885 406.300079
  endloop
 endfacet

 facet normal 0.744298 0.035631 -0.666896
  outer loop
   vertex 38.033398 158.625885 406.300079
   vertex 37.523159 157.656601 405.678833
   vertex 37.522247 158.655228 405.731171
  endloop
 endfacet

 facet normal 0.054054 0.052310 -0.997167
  outer loop
   vertex 37.522247 158.655228 405.731171
   vertex 37.523159 157.656601 405.678833
   vertex 36.758915 157.658066 405.637482
  endloop
 endfacet

 facet normal 0.054054 0.052311 -0.997167
  outer loop
   vertex 36.758915 157.658066 405.637482
   vertex 36.757999 158.656693 405.689819
   vertex 37.522247 158.655228 405.731171
  endloop
 endfacet

 facet normal -0.667859 0.038344 -0.743299
  outer loop
   vertex 36.189255 157.630798 406.147919
   vertex 36.757999 158.656693 405.689819
   vertex 36.758915 157.658066 405.637482
  endloop
 endfacet

 facet normal -0.548434 -0.537251 -0.640766
  outer loop
   vertex 36.758915 157.658066 405.637482
   vertex 36.866550 156.615829 406.419220
   vertex 36.189255 157.630798 406.147919
  endloop
 endfacet

 facet normal -0.820235 -0.567190 -0.074232
  outer loop
   vertex 36.189255 157.630798 406.147919
   vertex 36.866550 156.615829 406.419220
   vertex 36.856205 156.605820 406.610016
  endloop
 endfacet

 facet normal -0.820240 -0.567185 -0.074212
  outer loop
   vertex 36.856205 156.605820 406.610016
   vertex 36.147881 157.590775 406.911102
   vertex 36.189255 157.630798 406.147919
  endloop
 endfacet

 facet normal -0.611220 -0.598031 0.518429
  outer loop
   vertex 36.983994 156.598495 406.752228
   vertex 36.147881 157.590775 406.911102
   vertex 36.856205 156.605820 406.610016
  endloop
 endfacet

 facet normal -0.611260 -0.598054 0.518356
  outer loop
   vertex 36.659031 157.561432 407.480011
   vertex 36.147881 157.590775 406.911102
   vertex 36.983994 156.598495 406.752228
  endloop
 endfacet

 facet normal -0.043939 -0.611768 0.789816
  outer loop
   vertex 36.983994 156.598495 406.752228
   vertex 37.175056 156.598129 406.762573
   vertex 36.659031 157.561432 407.480011
  endloop
 endfacet

 facet normal -0.043908 -0.611758 0.789825
  outer loop
   vertex 36.659031 157.561432 407.480011
   vertex 37.175056 156.598129 406.762573
   vertex 37.423279 157.559967 407.521362
  endloop
 endfacet

 facet normal 0.549407 -0.600295 0.581204
  outer loop
   vertex 37.423279 157.559967 407.521362
   vertex 37.175056 156.598129 406.762573
   vertex 37.317471 156.604935 406.634979
  endloop
 endfacet

 facet normal 0.549478 -0.600267 0.581165
  outer loop
   vertex 37.317471 156.604935 406.634979
   vertex 37.992939 157.587234 407.010925
   vertex 37.423279 157.559967 407.521362
  endloop
 endfacet

 facet normal 0.821284 -0.570333 0.014594
  outer loop
   vertex 37.327812 156.614944 406.444183
   vertex 37.992939 157.587234 407.010925
   vertex 37.317471 156.604935 406.634979
  endloop
 endfacet

 facet normal 0.821280 -0.570339 0.014609
  outer loop
   vertex 38.034309 157.627258 406.247742
   vertex 37.992939 157.587234 407.010925
   vertex 37.327812 156.614944 406.444183
  endloop
 endfacet

 facet normal 0.612328 -0.539494 -0.577928
  outer loop
   vertex 37.327812 156.614944 406.444183
   vertex 37.200027 156.622284 406.301941
   vertex 38.034309 157.627258 406.247742
  endloop
 endfacet

 facet normal 0.612306 -0.539478 -0.577966
  outer loop
   vertex 38.034309 157.627258 406.247742
   vertex 37.200027 156.622284 406.301941
   vertex 37.523159 157.656601 405.678833
  endloop
 endfacet

 facet normal 0.044986 -0.525780 -0.849430
  outer loop
   vertex 37.523159 157.656601 405.678833
   vertex 37.200027 156.622284 406.301941
   vertex 37.008965 156.622650 406.291595
  endloop
 endfacet

 facet normal 0.044953 -0.525769 -0.849439
  outer loop
   vertex 37.008965 156.622650 406.291595
   vertex 36.758915 157.658066 405.637482
   vertex 37.523159 157.656601 405.678833
  endloop
 endfacet

 facet normal -0.548473 -0.537238 -0.640744
  outer loop
   vertex 36.866550 156.615829 406.419220
   vertex 36.758915 157.658066 405.637482
   vertex 37.008965 156.622650 406.291595
  endloop
 endfacet

 facet normal 0.667907 -0.038344 0.743257
  outer loop
   vertex 45.750603 155.412628 410.617828
   vertex 45.749691 156.411255 410.670166
   vertex 45.608189 155.405807 410.745453
  endloop
 endfacet

 facet normal 0.667806 -0.038323 0.743348
  outer loop
   vertex 45.608189 155.405807 410.745453
   vertex 45.749691 156.411255 410.670166
   vertex 45.607273 156.404449 410.797760
  endloop
 endfacet

 facet normal -0.054098 -0.052279 0.997166
  outer loop
   vertex 45.607273 156.404449 410.797760
   vertex 45.417126 155.406189 410.735107
   vertex 45.608189 155.405807 410.745453
  endloop
 endfacet

 facet normal -0.053936 -0.052311 0.997173
  outer loop
   vertex 45.416214 156.404816 410.787445
   vertex 45.417126 155.406189 410.735107
   vertex 45.607273 156.404449 410.797760
  endloop
 endfacet

 facet normal -0.744259 -0.035634 0.666940
  outer loop
   vertex 45.289337 155.413513 410.592896
   vertex 45.417126 155.406189 410.735107
   vertex 45.416214 156.404816 410.787445
  endloop
 endfacet

 facet normal -0.744330 -0.035609 0.666862
  outer loop
   vertex 45.416214 156.404816 410.787445
   vertex 45.288425 156.412140 410.645203
   vertex 45.289337 155.413513 410.592896
  endloop
 endfacet

 facet normal -0.998537 0.001919 -0.054034
  outer loop
   vertex 45.289337 155.413513 410.592896
   vertex 45.288425 156.412140 410.645203
   vertex 45.299683 155.423523 410.402069
  endloop
 endfacet

 facet normal -0.998538 0.001916 -0.054023
  outer loop
   vertex 45.299683 155.423523 410.402069
   vertex 45.288425 156.412140 410.645203
   vertex 45.298767 156.422150 410.454407
  endloop
 endfacet

 facet normal -0.667818 0.038346 -0.743336
  outer loop
   vertex 45.298767 156.422150 410.454407
   vertex 45.442097 155.430344 410.274475
   vertex 45.299683 155.423523 410.402069
  endloop
 endfacet

 facet normal -0.667818 0.038346 -0.743336
  outer loop
   vertex 45.441181 156.428970 410.326813
   vertex 45.442097 155.430344 410.274475
   vertex 45.298767 156.422150 410.454407
  endloop
 endfacet

 facet normal 0.054094 0.052311 -0.997165
  outer loop
   vertex 45.633160 155.429977 410.284821
   vertex 45.442097 155.430344 410.274475
   vertex 45.441181 156.428970 410.326813
  endloop
 endfacet

 facet normal 0.053935 0.052281 -0.997175
  outer loop
   vertex 45.441181 156.428970 410.326813
   vertex 45.632244 156.428604 410.337128
   vertex 45.633160 155.429977 410.284821
  endloop
 endfacet

 facet normal 0.744271 0.035615 -0.666928
  outer loop
   vertex 45.633160 155.429977 410.284821
   vertex 45.632244 156.428604 410.337128
   vertex 45.760944 155.422638 410.427032
  endloop
 endfacet

 facet normal 0.744332 0.035629 -0.666859
  outer loop
   vertex 45.760944 155.422638 410.427032
   vertex 45.632244 156.428604 410.337128
   vertex 45.760033 156.421265 410.479370
  endloop
 endfacet

 facet normal 0.998538 -0.001920 0.054023
  outer loop
   vertex 45.760033 156.421265 410.479370
   vertex 45.750603 155.412628 410.617828
   vertex 45.760944 155.422638 410.427032
  endloop
 endfacet

 facet normal 0.998538 -0.001920 0.054023
  outer loop
   vertex 45.749691 156.411255 410.670166
   vertex 45.750603 155.412628 410.617828
   vertex 45.760033 156.421265 410.479370
  endloop
 endfacet

 facet normal 0.821278 -0.570341 0.014594
  outer loop
   vertex 45.760040 156.411240 410.478851
   vertex 46.466537 157.423553 410.282410
   vertex 45.749699 156.401230 410.669647
  endloop
 endfacet

 facet normal 0.821281 -0.570337 0.014609
  outer loop
   vertex 45.749699 156.401230 410.669647
   vertex 46.466537 157.423553 410.282410
   vertex 46.425167 157.383530 411.045593
  endloop
 endfacet

 facet normal 0.549426 -0.600255 0.581227
  outer loop
   vertex 46.425167 157.383530 411.045593
   vertex 45.607285 156.394424 410.797241
   vertex 45.749699 156.401230 410.669647
  endloop
 endfacet

 facet normal 0.549474 -0.600277 0.581159
  outer loop
   vertex 45.855507 157.356262 411.556030
   vertex 45.607285 156.394424 410.797241
   vertex 46.425167 157.383530 411.045593
  endloop
 endfacet

 facet normal -0.043939 -0.611752 0.789828
  outer loop
   vertex 45.416222 156.394791 410.786896
   vertex 45.607285 156.394424 410.797241
   vertex 45.855507 157.356262 411.556030
  endloop
 endfacet

 facet normal -0.043908 -0.611762 0.789822
  outer loop
   vertex 45.855507 157.356262 411.556030
   vertex 45.091259 157.357727 411.514679
   vertex 45.416222 156.394791 410.786896
  endloop
 endfacet

 facet normal -0.611235 -0.598061 0.518377
  outer loop
   vertex 45.416222 156.394791 410.786896
   vertex 45.091259 157.357727 411.514679
   vertex 45.288433 156.402130 410.644684
  endloop
 endfacet

 facet normal -0.611262 -0.598049 0.518358
  outer loop
   vertex 45.288433 156.402130 410.644684
   vertex 45.091259 157.357727 411.514679
   vertex 44.580109 157.387070 410.945770
  endloop
 endfacet

 facet normal -0.820234 -0.567197 -0.074187
  outer loop
   vertex 44.580109 157.387070 410.945770
   vertex 45.298779 156.412125 410.453888
   vertex 45.288433 156.402130 410.644684
  endloop
 endfacet

 facet normal -0.820238 -0.567188 -0.074212
  outer loop
   vertex 44.621483 157.427094 410.182587
   vertex 45.298779 156.412125 410.453888
   vertex 44.580109 157.387070 410.945770
  endloop
 endfacet

 facet normal -0.548463 -0.537261 -0.640733
  outer loop
   vertex 45.441193 156.418945 410.326263
   vertex 45.298779 156.412125 410.453888
   vertex 44.621483 157.427094 410.182587
  endloop
 endfacet

 facet normal -0.548439 -0.537246 -0.640766
  outer loop
   vertex 44.621483 157.427094 410.182587
   vertex 45.191139 157.454361 409.672150
   vertex 45.441193 156.418945 410.326263
  endloop
 endfacet

 facet normal 0.044987 -0.525762 -0.849441
  outer loop
   vertex 45.441193 156.418945 410.326263
   vertex 45.191139 157.454361 409.672150
   vertex 45.632256 156.418579 410.336609
  endloop
 endfacet

 facet normal 0.044953 -0.525773 -0.849436
  outer loop
   vertex 45.632256 156.418579 410.336609
   vertex 45.191139 157.454361 409.672150
   vertex 45.955387 157.452896 409.713501
  endloop
 endfacet

 facet normal 0.612340 -0.539470 -0.577937
  outer loop
   vertex 45.955387 157.452896 409.713501
   vertex 45.760040 156.411240 410.478851
   vertex 45.632256 156.418579 410.336609
  endloop
 endfacet

 facet normal 0.612303 -0.539484 -0.577964
  outer loop
   vertex 46.466537 157.423553 410.282410
   vertex 45.760040 156.411240 410.478851
   vertex 45.955387 157.452896 409.713501
  endloop
 endfacet

endsolid