solid stl file generated from DOUG
 facet normal 0.875791 -0.349056 -0.333391
  outer loop
   vertex -27.036751 105.933937 446.244263
   vertex -27.022860 105.860214 446.357941
   vertex -31.386793 98.784966 442.301941
  endloop
 endfacet

 facet normal 0.602110 -0.642833 0.473529
  outer loop
   vertex -31.386793 98.784966 442.301941
   vertex -27.022860 105.860214 446.357941
   vertex -31.452978 98.780792 442.380432
  endloop
 endfacet

 facet normal -0.160711 -0.414402 0.895792
  outer loop
   vertex -30.689247 98.903557 441.344574
   vertex -30.571180 98.836395 441.334686
   vertex -26.207245 105.911644 445.390686
  endloop
 endfacet

 facet normal 0.602110 -0.642833 0.473529
  outer loop
   vertex -26.207245 105.911644 445.390686
   vertex -30.571180 98.836395 441.334686
   vertex -30.504995 98.840569 441.256195
  endloop
 endfacet

 facet normal 0.602110 -0.642833 0.473529
  outer loop
   vertex -30.504995 98.840569 441.256195
   vertex -26.141060 105.915817 445.312195
   vertex -26.207245 105.911644 445.390686
  endloop
 endfacet

 facet normal 0.793113 -0.585462 0.167947
  outer loop
   vertex -30.946175 99.311592 440.909241
   vertex -26.582239 106.386833 444.965210
   vertex -30.959143 99.302551 440.938965
  endloop
 endfacet

 facet normal 0.793096 -0.585474 0.167987
  outer loop
   vertex -30.959143 99.302551 440.938965
   vertex -26.582239 106.386833 444.965210
   vertex -26.595209 106.377792 444.994934
  endloop
 endfacet

 facet normal 0.644116 0.040602 -0.763850
  outer loop
   vertex -26.595209 106.377792 444.994934
   vertex -26.248903 106.008064 445.267303
   vertex -30.959143 99.302551 440.938965
  endloop
 endfacet

 facet normal 0.875781 -0.349006 -0.333470
  outer loop
   vertex -31.386793 98.784966 442.301941
   vertex -31.400684 98.858696 442.188293
   vertex -27.036751 105.933937 446.244263
  endloop
 endfacet

 facet normal 0.602111 -0.642832 0.473529
  outer loop
   vertex -27.036751 105.933937 446.244263
   vertex -31.400684 98.858696 442.188293
   vertex -30.689247 98.903557 441.344574
  endloop
 endfacet

 facet normal 0.602101 -0.642834 0.473539
  outer loop
   vertex -30.689247 98.903557 441.344574
   vertex -26.325312 105.978798 445.400574
   vertex -27.036751 105.933937 446.244263
  endloop
 endfacet

 facet normal -0.160691 -0.414414 0.895790
  outer loop
   vertex -26.207245 105.911644 445.390686
   vertex -26.325312 105.978798 445.400574
   vertex -30.689247 98.903557 441.344574
  endloop
 endfacet

 facet normal 0.644084 0.040640 -0.763875
  outer loop
   vertex -26.141060 105.915817 445.312195
   vertex -30.504995 98.840569 441.256195
   vertex -26.221392 106.001579 445.249023
  endloop
 endfacet

 facet normal 0.644091 0.040633 -0.763869
  outer loop
   vertex -26.221392 106.001579 445.249023
   vertex -30.504995 98.840569 441.256195
   vertex -30.585325 98.926338 441.193024
  endloop
 endfacet

 facet normal -0.330917 0.614605 -0.716069
  outer loop
   vertex -30.585325 98.926338 441.193024
   vertex -26.248903 106.008064 445.267303
   vertex -26.221392 106.001579 445.249023
  endloop
 endfacet

 facet normal -0.330917 0.614605 -0.716069
  outer loop
   vertex -30.612837 98.932823 441.211304
   vertex -26.248903 106.008064 445.267303
   vertex -30.585325 98.926338 441.193024
  endloop
 endfacet

 facet normal 0.644093 0.040630 -0.763868
  outer loop
   vertex -30.959143 99.302551 440.938965
   vertex -26.248903 106.008064 445.267303
   vertex -30.612837 98.932823 441.211304
  endloop
 endfacet

 facet normal -0.471796 -0.764933 -0.438505
  outer loop
   vertex -31.706678 98.356285 442.166260
   vertex -31.242813 98.957748 440.617981
   vertex -30.736742 98.417450 441.015991
  endloop
 endfacet

 facet normal 0.644109 0.040612 -0.763855
  outer loop
   vertex -30.736742 98.417450 441.015991
   vertex -31.242813 98.957748 440.617981
   vertex -30.264942 99.182373 441.454498
  endloop
 endfacet

 facet normal 0.602104 -0.642836 0.473532
  outer loop
   vertex -30.264942 99.182373 441.454498
   vertex -31.234879 99.121216 442.604767
   vertex -30.736742 98.417450 441.015991
  endloop
 endfacet

 facet normal 0.471803 0.764928 0.438506
  outer loop
   vertex -30.771013 99.722679 441.056488
   vertex -31.234879 99.121216 442.604767
   vertex -30.264942 99.182373 441.454498
  endloop
 endfacet

 facet normal 0.471796 0.764933 0.438505
  outer loop
   vertex -31.740950 99.661514 442.206757
   vertex -31.234879 99.121216 442.604767
   vertex -30.771013 99.722679 441.056488
  endloop
 endfacet

 facet normal -0.602109 0.642832 -0.473532
  outer loop
   vertex -30.771013 99.722679 441.056488
   vertex -31.242813 98.957748 440.617981
   vertex -31.740950 99.661514 442.206757
  endloop
 endfacet

 facet normal -0.602109 0.642832 -0.473532
  outer loop
   vertex -31.740950 99.661514 442.206757
   vertex -31.242813 98.957748 440.617981
   vertex -32.212749 98.896584 441.768250
  endloop
 endfacet

 facet normal -0.471796 -0.764933 -0.438505
  outer loop
   vertex -32.212749 98.896584 441.768250
   vertex -31.242813 98.957748 440.617981
   vertex -31.706678 98.356285 442.166260
  endloop
 endfacet

 facet normal -0.644109 -0.040612 0.763855
  outer loop
   vertex -31.706678 98.356285 442.166260
   vertex -31.234879 99.121216 442.604767
   vertex -32.212749 98.896584 441.768250
  endloop
 endfacet

 facet normal 0.602109 -0.642832 0.473532
  outer loop
   vertex -30.736742 98.417450 441.015991
   vertex -31.234879 99.121216 442.604767
   vertex -31.706678 98.356285 442.166260
  endloop
 endfacet

 facet normal -0.471801 -0.764929 -0.438506
  outer loop
   vertex -26.336632 105.551338 445.105591
   vertex -27.306570 105.490181 446.255859
   vertex -26.842705 106.091644 444.707581
  endloop
 endfacet

 facet normal -0.471796 -0.764933 -0.438505
  outer loop
   vertex -26.842705 106.091644 444.707581
   vertex -27.306570 105.490181 446.255859
   vertex -27.812641 106.030479 445.857849
  endloop
 endfacet

 facet normal -0.602109 0.642832 -0.473532
  outer loop
   vertex -27.812641 106.030479 445.857849
   vertex -27.340841 106.795410 446.296356
   vertex -26.842705 106.091644 444.707581
  endloop
 endfacet

 facet normal -0.644109 -0.040612 0.763855
  outer loop
   vertex -27.306570 105.490181 446.255859
   vertex -27.340841 106.795410 446.296356
   vertex -27.812641 106.030479 445.857849
  endloop
 endfacet

 facet normal -0.644109 -0.040612 0.763855
  outer loop
   vertex -26.834770 106.255112 446.694366
   vertex -27.340841 106.795410 446.296356
   vertex -27.306570 105.490181 446.255859
  endloop
 endfacet

 facet normal 0.602106 -0.642832 0.473535
  outer loop
   vertex -27.306570 105.490181 446.255859
   vertex -25.864832 106.316269 445.544098
   vertex -26.834770 106.255112 446.694366
  endloop
 endfacet

 facet normal 0.471798 0.764933 0.438503
  outer loop
   vertex -26.834770 106.255112 446.694366
   vertex -25.864832 106.316269 445.544098
   vertex -27.340841 106.795410 446.296356
  endloop
 endfacet

 facet normal 0.471799 0.764929 0.438508
  outer loop
   vertex -27.340841 106.795410 446.296356
   vertex -25.864832 106.316269 445.544098
   vertex -26.370905 106.856575 445.146088
  endloop
 endfacet

 facet normal -0.602109 0.642832 -0.473532
  outer loop
   vertex -26.370905 106.856575 445.146088
   vertex -26.842705 106.091644 444.707581
   vertex -27.340841 106.795410 446.296356
  endloop
 endfacet

 facet normal 0.644108 0.040613 -0.763856
  outer loop
   vertex -25.864832 106.316269 445.544098
   vertex -26.842705 106.091644 444.707581
   vertex -26.370905 106.856575 445.146088
  endloop
 endfacet

 facet normal 0.644108 0.040613 -0.763856
  outer loop
   vertex -26.336632 105.551338 445.105591
   vertex -26.842705 106.091644 444.707581
   vertex -25.864832 106.316269 445.544098
  endloop
 endfacet

 facet normal 0.602106 -0.642832 0.473535
  outer loop
   vertex -25.864832 106.316269 445.544098
   vertex -27.306570 105.490181 446.255859
   vertex -26.336632 105.551338 445.105591
  endloop
 endfacet

 facet normal 0.602110 -0.642833 0.473529
  outer loop
   vertex -27.022860 105.860214 446.357941
   vertex -27.089045 105.856041 446.436432
   vertex -31.452978 98.780792 442.380432
  endloop
 endfacet

 facet normal -0.644084 -0.040640 0.763875
  outer loop
   vertex -31.452978 98.780792 442.380432
   vertex -27.089045 105.856041 446.436432
   vertex -27.169376 105.941803 446.373260
  endloop
 endfacet

 facet normal -0.644085 -0.040639 0.763874
  outer loop
   vertex -27.169376 105.941803 446.373260
   vertex -31.533310 98.866562 442.317261
   vertex -31.452978 98.780792 442.380432
  endloop
 endfacet

 facet normal -0.793096 0.585474 -0.167987
  outer loop
   vertex -27.156406 105.950844 446.343536
   vertex -31.533310 98.866562 442.317261
   vertex -27.169376 105.941803 446.373260
  endloop
 endfacet

 facet normal -0.793062 0.585497 -0.168064
  outer loop
   vertex -31.520342 98.875595 442.287537
   vertex -31.533310 98.866562 442.317261
   vertex -27.156406 105.950844 446.343536
  endloop
 endfacet

 facet normal -0.644117 -0.040604 0.763849
  outer loop
   vertex -27.156406 105.950844 446.343536
   vertex -27.502712 106.320572 446.071167
   vertex -31.520342 98.875595 442.287537
  endloop
 endfacet

 facet normal -0.644092 -0.040628 0.763869
  outer loop
   vertex -31.520342 98.875595 442.287537
   vertex -27.502712 106.320572 446.071167
   vertex -31.866648 99.245331 442.015198
  endloop
 endfacet

 facet normal 0.330918 -0.614603 0.716070
  outer loop
   vertex -31.866648 99.245331 442.015198
   vertex -27.502712 106.320572 446.071167
   vertex -27.530224 106.327057 446.089447
  endloop
 endfacet

 facet normal 0.330918 -0.614603 0.716070
  outer loop
   vertex -27.530224 106.327057 446.089447
   vertex -31.894159 99.251816 442.033478
   vertex -31.866648 99.245331 442.015198
  endloop
 endfacet

 facet normal -0.644060 -0.040662 0.763894
  outer loop
   vertex -27.570084 106.369614 446.058105
   vertex -31.894159 99.251816 442.033478
   vertex -27.530224 106.327057 446.089447
  endloop
 endfacet

 facet normal -0.644071 -0.040650 0.763885
  outer loop
   vertex -31.934017 99.294373 442.002136
   vertex -31.894159 99.251816 442.033478
   vertex -27.570084 106.369614 446.058105
  endloop
 endfacet

 facet normal -0.602108 0.642832 -0.473533
  outer loop
   vertex -27.570084 106.369614 446.058105
   vertex -26.622099 106.429390 444.933868
   vertex -31.934017 99.294373 442.002136
  endloop
 endfacet

 facet normal -0.602108 0.642832 -0.473532
  outer loop
   vertex -31.934017 99.294373 442.002136
   vertex -26.622099 106.429390 444.933868
   vertex -30.986034 99.354149 440.877899
  endloop
 endfacet

 facet normal 0.644060 0.040662 -0.763894
  outer loop
   vertex -30.986034 99.354149 440.877899
   vertex -26.622099 106.429390 444.933868
   vertex -30.946175 99.311592 440.909241
  endloop
 endfacet

 facet normal 0.644109 0.040612 -0.763855
  outer loop
   vertex -30.771013 99.722679 441.056488
   vertex -30.264942 99.182373 441.454498
   vertex -31.242813 98.957748 440.617981
  endloop
 endfacet

 facet normal -0.644109 -0.040612 0.763855
  outer loop
   vertex -31.234879 99.121216 442.604767
   vertex -31.740950 99.661514 442.206757
   vertex -32.212749 98.896584 441.768250
  endloop
 endfacet

 facet normal 0.644060 0.040662 -0.763894
  outer loop
   vertex -26.622099 106.429390 444.933868
   vertex -26.582239 106.386833 444.965210
   vertex -30.946175 99.311592 440.909241
  endloop
 endfacet

 facet normal 0.189385 0.691161 0.697445
  outer loop
   vertex -27.782774 108.464996 445.026794
   vertex -28.384882 109.107826 444.553253
   vertex -28.376413 108.212234 445.438477
  endloop
 endfacet

 facet normal 0.189386 0.691161 0.697445
  outer loop
   vertex -28.376413 108.212234 445.438477
   vertex -28.384882 109.107826 444.553253
   vertex -28.978519 108.855064 444.964935
  endloop
 endfacet

 facet normal -0.414524 0.255215 0.873519
  outer loop
   vertex -28.978519 108.855064 444.964935
   vertex -28.898680 107.659454 445.352142
   vertex -28.376413 108.212234 445.438477
  endloop
 endfacet

 facet normal -0.414523 0.255215 0.873519
  outer loop
   vertex -29.500788 108.302284 444.878601
   vertex -28.898680 107.659454 445.352142
   vertex -28.978519 108.855064 444.964935
  endloop
 endfacet

 facet normal -0.775629 -0.330254 0.537895
  outer loop
   vertex -29.043638 107.130463 444.818329
   vertex -28.898680 107.659454 445.352142
   vertex -29.500788 108.302284 444.878601
  endloop
 endfacet

 facet normal -0.775616 -0.330250 0.537918
  outer loop
   vertex -29.500788 108.302284 444.878601
   vertex -29.645746 107.773293 444.344818
   vertex -29.043638 107.130463 444.818329
  endloop
 endfacet

 facet normal -0.682376 -0.722244 -0.112809
  outer loop
   vertex -29.043638 107.130463 444.818329
   vertex -29.645746 107.773293 444.344818
   vertex -28.726376 106.935135 444.149780
  endloop
 endfacet

 facet normal -0.682376 -0.722243 -0.112814
  outer loop
   vertex -28.726376 106.935135 444.149780
   vertex -29.645746 107.773293 444.344818
   vertex -29.328482 107.577972 443.676239
  endloop
 endfacet

 facet normal -0.189410 -0.691167 -0.697433
  outer loop
   vertex -29.328482 107.577972 443.676239
   vertex -28.132736 107.187897 443.738068
   vertex -28.726376 106.935135 444.149780
  endloop
 endfacet

 facet normal -0.189401 -0.691144 -0.697457
  outer loop
   vertex -28.734844 107.830734 443.264557
   vertex -28.132736 107.187897 443.738068
   vertex -29.328482 107.577972 443.676239
  endloop
 endfacet

 facet normal 0.414530 -0.255171 -0.873529
  outer loop
   vertex -27.610470 107.740677 443.824432
   vertex -28.132736 107.187897 443.738068
   vertex -28.734844 107.830734 443.264557
  endloop
 endfacet

 facet normal 0.414523 -0.255213 -0.873520
  outer loop
   vertex -28.734844 107.830734 443.264557
   vertex -28.212578 108.383514 443.350891
   vertex -27.610470 107.740677 443.824432
  endloop
 endfacet

 facet normal 0.775627 0.330236 -0.537910
  outer loop
   vertex -27.610470 107.740677 443.824432
   vertex -28.212578 108.383514 443.350891
   vertex -27.465509 108.269669 444.358215
  endloop
 endfacet

 facet normal 0.775627 0.330236 -0.537910
  outer loop
   vertex -27.465509 108.269669 444.358215
   vertex -28.212578 108.383514 443.350891
   vertex -28.067617 108.912506 443.884674
  endloop
 endfacet

 facet normal 0.682379 0.722242 0.112807
  outer loop
   vertex -28.067617 108.912506 443.884674
   vertex -27.782774 108.464996 445.026794
   vertex -27.465509 108.269669 444.358215
  endloop
 endfacet

 facet normal 0.682372 0.722248 0.112811
  outer loop
   vertex -28.384882 109.107826 444.553253
   vertex -27.782774 108.464996 445.026794
   vertex -28.067617 108.912506 443.884674
  endloop
 endfacet

 facet normal -0.189355 -0.691144 -0.697470
  outer loop
   vertex -32.039383 99.783554 440.744476
   vertex -31.585686 99.077530 441.320923
   vertex -32.187794 99.720367 440.847382
  endloop
 endfacet

 facet normal -0.682386 -0.722238 -0.112792
  outer loop
   vertex -32.187794 99.720367 440.847382
   vertex -31.585686 99.077530 441.320923
   vertex -31.665001 99.126366 441.488068
  endloop
 endfacet

 facet normal -0.682371 -0.722249 -0.112814
  outer loop
   vertex -31.665001 99.126366 441.488068
   vertex -32.267109 99.769196 441.014526
   vertex -32.187794 99.720367 440.847382
  endloop
 endfacet

 facet normal -0.775629 -0.330254 0.537895
  outer loop
   vertex -31.628761 99.258614 441.621521
   vertex -32.267109 99.769196 441.014526
   vertex -31.665001 99.126366 441.488068
  endloop
 endfacet

 facet normal -0.775629 -0.330254 0.537895
  outer loop
   vertex -32.230869 99.901443 441.147980
   vertex -32.267109 99.769196 441.014526
   vertex -31.628761 99.258614 441.621521
  endloop
 endfacet

 facet normal -0.414495 0.255244 0.873524
  outer loop
   vertex -31.628761 99.258614 441.621521
   vertex -31.498194 99.396805 441.643097
   vertex -32.230869 99.901443 441.147980
  endloop
 endfacet

 facet normal -0.414582 0.255115 0.873520
  outer loop
   vertex -32.230869 99.901443 441.147980
   vertex -31.498194 99.396805 441.643097
   vertex -32.100304 100.039642 441.169586
  endloop
 endfacet

 facet normal 0.189348 0.691122 0.697494
  outer loop
   vertex -32.100304 100.039642 441.169586
   vertex -31.498194 99.396805 441.643097
   vertex -31.349785 99.459999 441.540192
  endloop
 endfacet

 facet normal 0.189438 0.691184 0.697408
  outer loop
   vertex -31.349785 99.459999 441.540192
   vertex -31.951893 100.102829 441.066650
   vertex -32.100304 100.039642 441.169586
  endloop
 endfacet

 facet normal 0.682383 0.722241 0.112789
  outer loop
   vertex -31.270470 99.411163 441.373047
   vertex -31.951893 100.102829 441.066650
   vertex -31.349785 99.459999 441.540192
  endloop
 endfacet

 facet normal 0.682372 0.722246 0.112823
  outer loop
   vertex -31.872576 100.054001 440.899506
   vertex -31.951893 100.102829 441.066650
   vertex -31.270470 99.411163 441.373047
  endloop
 endfacet

 facet normal 0.775632 0.330251 -0.537893
  outer loop
   vertex -31.270470 99.411163 441.373047
   vertex -31.306709 99.278915 441.239594
   vertex -31.872576 100.054001 440.899506
  endloop
 endfacet

 facet normal 0.775632 0.330251 -0.537893
  outer loop
   vertex -31.872576 100.054001 440.899506
   vertex -31.306709 99.278915 441.239594
   vertex -31.908815 99.921753 440.766052
  endloop
 endfacet

 facet normal 0.414497 -0.255241 -0.873524
  outer loop
   vertex -31.908815 99.921753 440.766052
   vertex -31.306709 99.278915 441.239594
   vertex -31.437275 99.140724 441.218018
  endloop
 endfacet

 facet normal 0.414502 -0.255237 -0.873523
  outer loop
   vertex -31.437275 99.140724 441.218018
   vertex -32.039383 99.783554 440.744476
   vertex -31.908815 99.921753 440.766052
  endloop
 endfacet

 facet normal -0.189330 -0.691138 -0.697483
  outer loop
   vertex -31.585686 99.077530 441.320923
   vertex -32.039383 99.783554 440.744476
   vertex -31.437275 99.140724 441.218018
  endloop
 endfacet

 facet normal -0.189385 -0.691161 -0.697445
  outer loop
   vertex -33.146175 100.678642 439.164520
   vertex -33.137707 99.783051 440.049744
   vertex -33.739815 100.425880 439.576202
  endloop
 endfacet

 facet normal -0.682370 -0.722249 -0.112815
  outer loop
   vertex -33.739815 100.425880 439.576202
   vertex -33.137707 99.783051 440.049744
   vertex -33.454971 99.978371 440.718292
  endloop
 endfacet

 facet normal -0.682377 -0.722243 -0.112811
  outer loop
   vertex -33.454971 99.978371 440.718292
   vertex -34.057076 100.621201 440.244781
   vertex -33.739815 100.425880 439.576202
  endloop
 endfacet

 facet normal -0.775621 -0.330263 0.537902
  outer loop
   vertex -33.310013 100.507362 441.252106
   vertex -34.057076 100.621201 440.244781
   vertex -33.454971 99.978371 440.718292
  endloop
 endfacet

 facet normal -0.775627 -0.330237 0.537909
  outer loop
   vertex -33.912117 101.150192 440.778564
   vertex -34.057076 100.621201 440.244781
   vertex -33.310013 100.507362 441.252106
  endloop
 endfacet

 facet normal -0.414523 0.255217 0.873519
  outer loop
   vertex -33.310013 100.507362 441.252106
   vertex -32.787743 101.060143 441.338440
   vertex -33.912117 101.150192 440.778564
  endloop
 endfacet

 facet normal -0.414524 0.255211 0.873520
  outer loop
   vertex -33.912117 101.150192 440.778564
   vertex -32.787743 101.060143 441.338440
   vertex -33.389851 101.702980 440.864899
  endloop
 endfacet

 facet normal 0.189389 0.691158 0.697447
  outer loop
   vertex -33.389851 101.702980 440.864899
   vertex -32.787743 101.060143 441.338440
   vertex -32.194107 101.312904 440.926758
  endloop
 endfacet

 facet normal 0.189389 0.691157 0.697448
  outer loop
   vertex -32.194107 101.312904 440.926758
   vertex -32.796211 101.955742 440.453217
   vertex -33.389851 101.702980 440.864899
  endloop
 endfacet

 facet normal 0.682377 0.722243 0.112815
  outer loop
   vertex -31.876842 101.117584 440.258179
   vertex -32.796211 101.955742 440.453217
   vertex -32.194107 101.312904 440.926758
  endloop
 endfacet

 facet normal 0.682377 0.722245 0.112802
  outer loop
   vertex -32.478951 101.760414 439.784637
   vertex -32.796211 101.955742 440.453217
   vertex -31.876842 101.117584 440.258179
  endloop
 endfacet

 facet normal 0.775625 0.330239 -0.537910
  outer loop
   vertex -31.876842 101.117584 440.258179
   vertex -32.021801 100.588593 439.724396
   vertex -32.478951 101.760414 439.784637
  endloop
 endfacet

 facet normal 0.775625 0.330239 -0.537910
  outer loop
   vertex -32.478951 101.760414 439.784637
   vertex -32.021801 100.588593 439.724396
   vertex -32.623909 101.231422 439.250854
  endloop
 endfacet

 facet normal 0.414548 -0.255189 -0.873515
  outer loop
   vertex -32.623909 101.231422 439.250854
   vertex -32.021801 100.588593 439.724396
   vertex -32.544067 100.035812 439.638031
  endloop
 endfacet

 facet normal 0.414508 -0.255197 -0.873532
  outer loop
   vertex -32.544067 100.035812 439.638031
   vertex -33.146175 100.678642 439.164520
   vertex -32.623909 101.231422 439.250854
  endloop
 endfacet

 facet normal -0.189419 -0.691157 -0.697440
  outer loop
   vertex -33.137707 99.783051 440.049744
   vertex -33.146175 100.678642 439.164520
   vertex -32.544067 100.035812 439.638031
  endloop
 endfacet

 facet normal 0.187241 -0.934230 -0.303571
  outer loop
   vertex -32.544067 100.035812 439.638031
   vertex -32.181747 99.713913 440.852142
   vertex -33.137707 99.783051 440.049744
  endloop
 endfacet

 facet normal -0.217945 -0.959785 0.176956
  outer loop
   vertex -33.137707 99.783051 440.049744
   vertex -32.181747 99.713913 440.852142
   vertex -32.261066 99.762741 441.019287
  endloop
 endfacet

 facet normal -0.217960 -0.959779 0.176970
  outer loop
   vertex -32.261066 99.762741 441.019287
   vertex -33.454971 99.978371 440.718292
   vertex -33.137707 99.783051 440.049744
  endloop
 endfacet

 facet normal -0.294611 -0.637577 0.711829
  outer loop
   vertex -32.224823 99.894989 441.152740
   vertex -33.454971 99.978371 440.718292
   vertex -32.261066 99.762741 441.019287
  endloop
 endfacet

 facet normal -0.294610 -0.637582 0.711825
  outer loop
   vertex -33.310013 100.507362 441.252106
   vertex -33.454971 99.978371 440.718292
   vertex -32.224823 99.894989 441.152740
  endloop
 endfacet

 facet normal 0.002232 -0.156312 0.987705
  outer loop
   vertex -32.224823 99.894989 441.152740
   vertex -32.094257 100.033188 441.174316
   vertex -33.310013 100.507362 441.252106
  endloop
 endfacet

 facet normal 0.002215 -0.156354 0.987699
  outer loop
   vertex -33.310013 100.507362 441.252106
   vertex -32.094257 100.033188 441.174316
   vertex -32.787743 101.060143 441.338440
  endloop
 endfacet

 facet normal 0.498555 0.201940 0.843008
  outer loop
   vertex -32.787743 101.060143 441.338440
   vertex -32.094257 100.033188 441.174316
   vertex -31.945848 100.096375 441.071411
  endloop
 endfacet

 facet normal 0.498595 0.201984 0.842974
  outer loop
   vertex -31.945848 100.096375 441.071411
   vertex -32.194107 101.312904 440.926758
   vertex -32.787743 101.060143 441.338440
  endloop
 endfacet

 facet normal 0.903815 0.227536 0.362417
  outer loop
   vertex -31.866533 100.047546 440.904266
   vertex -32.194107 101.312904 440.926758
   vertex -31.945848 100.096375 441.071411
  endloop
 endfacet

 facet normal 0.903814 0.227536 0.362419
  outer loop
   vertex -31.876842 101.117584 440.258179
   vertex -32.194107 101.312904 440.926758
   vertex -31.866533 100.047546 440.904266
  endloop
 endfacet

 facet normal 0.980461 -0.094669 -0.172433
  outer loop
   vertex -31.866533 100.047546 440.904266
   vertex -31.902773 99.915298 440.770813
   vertex -31.876842 101.117584 440.258179
  endloop
 endfacet

 facet normal 0.980460 -0.094672 -0.172440
  outer loop
   vertex -31.876842 101.117584 440.258179
   vertex -31.902773 99.915298 440.770813
   vertex -32.021801 100.588593 439.724396
  endloop
 endfacet

 facet normal 0.683638 -0.575896 -0.448310
  outer loop
   vertex -32.021801 100.588593 439.724396
   vertex -31.902773 99.915298 440.770813
   vertex -32.033340 99.777100 440.749237
  endloop
 endfacet

 facet normal 0.683660 -0.575881 -0.448298
  outer loop
   vertex -32.033340 99.777100 440.749237
   vertex -32.544067 100.035812 439.638031
   vertex -32.021801 100.588593 439.724396
  endloop
 endfacet

 facet normal 0.187262 -0.934224 -0.303576
  outer loop
   vertex -32.181747 99.713913 440.852142
   vertex -32.544067 100.035812 439.638031
   vertex -32.033340 99.777100 440.749237
  endloop
 endfacet

 facet normal 0.189356 0.691144 0.697469
  outer loop
   vertex -26.938454 106.612083 445.640228
   vertex -27.540562 107.254921 445.166687
   vertex -27.086863 106.548897 445.743134
  endloop
 endfacet

 facet normal 0.189332 0.691139 0.697482
  outer loop
   vertex -27.086863 106.548897 445.743134
   vertex -27.540562 107.254921 445.166687
   vertex -27.688971 107.191727 445.269592
  endloop
 endfacet

 facet normal -0.414502 0.255237 0.873523
  outer loop
   vertex -27.688971 107.191727 445.269592
   vertex -27.217430 106.410698 445.721558
   vertex -27.086863 106.548897 445.743134
  endloop
 endfacet

 facet normal -0.414494 0.255243 0.873525
  outer loop
   vertex -27.819538 107.053535 445.248016
   vertex -27.217430 106.410698 445.721558
   vertex -27.688971 107.191727 445.269592
  endloop
 endfacet

 facet normal -0.775631 -0.330252 0.537894
  outer loop
   vertex -27.253670 106.278450 445.588104
   vertex -27.217430 106.410698 445.721558
   vertex -27.819538 107.053535 445.248016
  endloop
 endfacet

 facet normal -0.775631 -0.330252 0.537894
  outer loop
   vertex -27.819538 107.053535 445.248016
   vertex -27.855778 106.921288 445.114563
   vertex -27.253670 106.278450 445.588104
  endloop
 endfacet

 facet normal -0.682374 -0.722245 -0.112817
  outer loop
   vertex -27.253670 106.278450 445.588104
   vertex -27.855778 106.921288 445.114563
   vertex -27.174355 106.229622 445.420959
  endloop
 endfacet

 facet normal -0.682381 -0.722242 -0.112796
  outer loop
   vertex -27.174355 106.229622 445.420959
   vertex -27.855778 106.921288 445.114563
   vertex -27.776461 106.872452 444.947418
  endloop
 endfacet

 facet normal -0.189352 -0.691147 -0.697468
  outer loop
   vertex -27.776461 106.872452 444.947418
   vertex -27.025944 106.292809 445.318054
   vertex -27.174355 106.229622 445.420959
  endloop
 endfacet

 facet normal -0.189335 -0.691135 -0.697484
  outer loop
   vertex -27.628052 106.935646 444.844513
   vertex -27.025944 106.292809 445.318054
   vertex -27.776461 106.872452 444.947418
  endloop
 endfacet

 facet normal 0.414504 -0.255233 -0.873523
  outer loop
   vertex -26.895378 106.431007 445.339630
   vertex -27.025944 106.292809 445.318054
   vertex -27.628052 106.935646 444.844513
  endloop
 endfacet

 facet normal 0.414496 -0.255245 -0.873524
  outer loop
   vertex -27.628052 106.935646 444.844513
   vertex -27.497484 107.073837 444.866089
   vertex -26.895378 106.431007 445.339630
  endloop
 endfacet

 facet normal 0.775630 0.330253 -0.537894
  outer loop
   vertex -26.895378 106.431007 445.339630
   vertex -27.497484 107.073837 444.866089
   vertex -26.859138 106.563255 445.473083
  endloop
 endfacet

 facet normal 0.775630 0.330253 -0.537894
  outer loop
   vertex -26.859138 106.563255 445.473083
   vertex -27.497484 107.073837 444.866089
   vertex -27.461245 107.206085 444.999542
  endloop
 endfacet

 facet normal 0.682371 0.722248 0.112815
  outer loop
   vertex -27.461245 107.206085 444.999542
   vertex -26.938454 106.612083 445.640228
   vertex -26.859138 106.563255 445.473083
  endloop
 endfacet

 facet normal 0.682383 0.722240 0.112798
  outer loop
   vertex -27.540562 107.254921 445.166687
   vertex -26.938454 106.612083 445.640228
   vertex -27.461245 107.206085 444.999542
  endloop
 endfacet

 facet normal 0.903815 0.227535 0.362417
  outer loop
   vertex -27.455202 107.199638 445.004303
   vertex -27.465509 108.269669 444.358215
   vertex -27.534517 107.248466 445.171448
  endloop
 endfacet

 facet normal 0.903815 0.227535 0.362417
  outer loop
   vertex -27.534517 107.248466 445.171448
   vertex -27.465509 108.269669 444.358215
   vertex -27.782774 108.464996 445.026794
  endloop
 endfacet

 facet normal 0.498533 0.201975 0.843013
  outer loop
   vertex -27.782774 108.464996 445.026794
   vertex -27.682926 107.185272 445.274353
   vertex -27.534517 107.248466 445.171448
  endloop
 endfacet

 facet normal 0.498597 0.201973 0.842976
  outer loop
   vertex -28.376413 108.212234 445.438477
   vertex -27.682926 107.185272 445.274353
   vertex -27.782774 108.464996 445.026794
  endloop
 endfacet

 facet normal 0.002246 -0.156333 0.987702
  outer loop
   vertex -27.813494 107.047081 445.252777
   vertex -27.682926 107.185272 445.274353
   vertex -28.376413 108.212234 445.438477
  endloop
 endfacet

 facet normal 0.002211 -0.156349 0.987699
  outer loop
   vertex -28.376413 108.212234 445.438477
   vertex -28.898680 107.659454 445.352142
   vertex -27.813494 107.047081 445.252777
  endloop
 endfacet

 facet normal -0.294611 -0.637581 0.711825
  outer loop
   vertex -27.813494 107.047081 445.252777
   vertex -28.898680 107.659454 445.352142
   vertex -27.849733 106.914833 445.119324
  endloop
 endfacet

 facet normal -0.294611 -0.637581 0.711825
  outer loop
   vertex -27.849733 106.914833 445.119324
   vertex -28.898680 107.659454 445.352142
   vertex -29.043638 107.130463 444.818329
  endloop
 endfacet

 facet normal -0.217957 -0.959782 0.176955
  outer loop
   vertex -29.043638 107.130463 444.818329
   vertex -27.770418 106.866005 444.952179
   vertex -27.849733 106.914833 445.119324
  endloop
 endfacet

 facet normal -0.217959 -0.959777 0.176982
  outer loop
   vertex -28.726376 106.935135 444.149780
   vertex -27.770418 106.866005 444.952179
   vertex -29.043638 107.130463 444.818329
  endloop
 endfacet

 facet normal 0.187255 -0.934225 -0.303578
  outer loop
   vertex -27.622007 106.929192 444.849274
   vertex -27.770418 106.866005 444.952179
   vertex -28.726376 106.935135 444.149780
  endloop
 endfacet

 facet normal 0.187246 -0.934231 -0.303564
  outer loop
   vertex -28.726376 106.935135 444.149780
   vertex -28.132736 107.187897 443.738068
   vertex -27.622007 106.929192 444.849274
  endloop
 endfacet

 facet normal 0.683647 -0.575899 -0.448293
  outer loop
   vertex -27.622007 106.929192 444.849274
   vertex -28.132736 107.187897 443.738068
   vertex -27.491442 107.067390 444.870850
  endloop
 endfacet

 facet normal 0.683660 -0.575880 -0.448298
  outer loop
   vertex -27.491442 107.067390 444.870850
   vertex -28.132736 107.187897 443.738068
   vertex -27.610470 107.740677 443.824432
  endloop
 endfacet

 facet normal 0.980461 -0.094666 -0.172436
  outer loop
   vertex -27.610470 107.740677 443.824432
   vertex -27.455202 107.199638 445.004303
   vertex -27.491442 107.067390 444.870850
  endloop
 endfacet

 facet normal 0.980460 -0.094675 -0.172440
  outer loop
   vertex -27.465509 108.269669 444.358215
   vertex -27.455202 107.199638 445.004303
   vertex -27.610470 107.740677 443.824432
  endloop
 endfacet

endsolid