solid stl file generated from DOUG
 facet normal -0.118039 0.461987 -0.878996
  outer loop
   vertex 41.724857 18.302246 325.272461
   vertex 41.849564 18.262516 325.234833
   vertex 38.296654 10.515832 321.640411
  endloop
 endfacet

 facet normal 0.666680 0.039584 -0.744292
  outer loop
   vertex 38.296654 10.515832 321.640411
   vertex 41.849564 18.262516 325.234833
   vertex 38.362293 10.459834 321.696228
  endloop
 endfacet

 facet normal 0.909824 -0.414965 -0.004986
  outer loop
   vertex 37.466393 11.157498 321.078186
   vertex 37.487785 11.205911 320.952698
   vertex 41.040695 18.952595 324.547089
  endloop
 endfacet

 facet normal 0.666679 0.039582 -0.744293
  outer loop
   vertex 41.040695 18.952595 324.547089
   vertex 37.487785 11.205911 320.952698
   vertex 37.422146 11.261909 320.896881
  endloop
 endfacet

 facet normal 0.666679 0.039582 -0.744293
  outer loop
   vertex 37.422146 11.261909 320.896881
   vertex 40.975056 19.008593 324.491272
   vertex 41.040695 18.952595 324.547089
  endloop
 endfacet

 facet normal 0.393350 0.232341 -0.889547
  outer loop
   vertex 36.933678 11.232884 321.442261
   vertex 40.486591 18.979568 325.036682
   vertex 36.961800 11.216237 321.450348
  endloop
 endfacet

 facet normal 0.392675 0.232737 -0.889742
  outer loop
   vertex 36.961800 11.216237 321.450348
   vertex 40.486591 18.979568 325.036682
   vertex 40.514713 18.962921 325.044739
  endloop
 endfacet

 facet normal -0.638780 0.544967 -0.543112
  outer loop
   vertex 40.514713 18.962921 325.044739
   vertex 40.898136 18.985704 324.616638
   vertex 36.961800 11.216237 321.450348
  endloop
 endfacet

 facet normal -0.118218 0.462041 -0.878944
  outer loop
   vertex 38.296654 10.515832 321.640411
   vertex 38.171947 10.555563 321.678070
   vertex 41.724857 18.302246 325.272461
  endloop
 endfacet

 facet normal 0.666642 0.039613 -0.744324
  outer loop
   vertex 41.724857 18.302246 325.272461
   vertex 38.171947 10.555563 321.678070
   vertex 37.466393 11.157498 321.078186
  endloop
 endfacet

 facet normal 0.666642 0.039613 -0.744324
  outer loop
   vertex 37.466393 11.157498 321.078186
   vertex 41.019302 18.904182 324.672577
   vertex 41.724857 18.302246 325.272461
  endloop
 endfacet

 facet normal 0.909824 -0.414965 -0.004986
  outer loop
   vertex 41.040695 18.952595 324.547089
   vertex 41.019302 18.904182 324.672577
   vertex 37.466393 11.157498 321.078186
  endloop
 endfacet

 facet normal -0.638784 0.544967 -0.543108
  outer loop
   vertex 40.975056 19.008593 324.491272
   vertex 37.422146 11.261909 320.896881
   vertex 40.886116 19.003307 324.590576
  endloop
 endfacet

 facet normal -0.638769 0.544968 -0.543125
  outer loop
   vertex 40.886116 19.003307 324.590576
   vertex 37.422146 11.261909 320.896881
   vertex 37.333202 11.256624 320.996185
  endloop
 endfacet

 facet normal -0.851477 0.158600 0.499834
  outer loop
   vertex 37.333202 11.256624 320.996185
   vertex 40.898136 18.985704 324.616638
   vertex 40.886116 19.003307 324.590576
  endloop
 endfacet

 facet normal -0.851441 0.158547 0.499912
  outer loop
   vertex 37.345226 11.239020 321.022247
   vertex 40.898136 18.985704 324.616638
   vertex 37.333202 11.256624 320.996185
  endloop
 endfacet

 facet normal -0.638777 0.544967 -0.543116
  outer loop
   vertex 36.961800 11.216237 321.450348
   vertex 40.898136 18.985704 324.616638
   vertex 37.345226 11.239020 321.022247
  endloop
 endfacet

 facet normal -0.384113 -0.837519 -0.388612
  outer loop
   vertex 38.178864 10.000420 321.482361
   vertex 36.656631 10.787774 321.290100
   vertex 37.216946 10.821068 320.664520
  endloop
 endfacet

 facet normal -0.638774 0.544957 -0.543129
  outer loop
   vertex 37.216946 10.821068 320.664520
   vertex 36.656631 10.787774 321.290100
   vertex 37.601063 11.658589 321.053101
  endloop
 endfacet

 facet normal 0.666643 0.039595 -0.744325
  outer loop
   vertex 37.601063 11.658589 321.053101
   vertex 38.562981 10.837940 321.870972
   vertex 37.216946 10.821068 320.664520
  endloop
 endfacet

 facet normal 0.384117 0.837523 0.388599
  outer loop
   vertex 37.040749 11.625295 321.678711
   vertex 38.562981 10.837940 321.870972
   vertex 37.601063 11.658589 321.053101
  endloop
 endfacet

 facet normal 0.384117 0.837524 0.388598
  outer loop
   vertex 38.002666 10.804646 322.496582
   vertex 38.562981 10.837940 321.870972
   vertex 37.040749 11.625295 321.678711
  endloop
 endfacet

 facet normal -0.666651 -0.039614 0.744316
  outer loop
   vertex 37.040749 11.625295 321.678711
   vertex 36.656631 10.787774 321.290100
   vertex 38.002666 10.804646 322.496582
  endloop
 endfacet

 facet normal -0.666651 -0.039614 0.744316
  outer loop
   vertex 38.002666 10.804646 322.496582
   vertex 36.656631 10.787774 321.290100
   vertex 37.618549 9.967126 322.107971
  endloop
 endfacet

 facet normal -0.384117 -0.837524 -0.388598
  outer loop
   vertex 37.618549 9.967126 322.107971
   vertex 36.656631 10.787774 321.290100
   vertex 38.178864 10.000420 321.482361
  endloop
 endfacet

 facet normal 0.638781 -0.544971 0.543108
  outer loop
   vertex 38.178864 10.000420 321.482361
   vertex 38.562981 10.837940 321.870972
   vertex 37.618549 9.967126 322.107971
  endloop
 endfacet

 facet normal 0.666642 0.039622 -0.744325
  outer loop
   vertex 37.216946 10.821068 320.664520
   vertex 38.562981 10.837940 321.870972
   vertex 38.178864 10.000420 321.482361
  endloop
 endfacet

 facet normal -0.384117 -0.837524 -0.388598
  outer loop
   vertex 40.799309 18.631969 324.288696
   vertex 41.761227 17.811321 325.106567
   vertex 40.238995 18.598675 324.914307
  endloop
 endfacet

 facet normal -0.384112 -0.837519 -0.388613
  outer loop
   vertex 40.238995 18.598675 324.914307
   vertex 41.761227 17.811321 325.106567
   vertex 41.200912 17.778027 325.732147
  endloop
 endfacet

 facet normal -0.666642 -0.039622 0.744325
  outer loop
   vertex 41.200912 17.778027 325.732147
   vertex 41.585030 18.615547 326.120758
   vertex 40.238995 18.598675 324.914307
  endloop
 endfacet

 facet normal 0.638768 -0.544971 0.543122
  outer loop
   vertex 41.761227 17.811321 325.106567
   vertex 41.585030 18.615547 326.120758
   vertex 41.200912 17.778027 325.732147
  endloop
 endfacet

 facet normal 0.638788 -0.544957 0.543114
  outer loop
   vertex 42.145344 18.648842 325.495148
   vertex 41.585030 18.615547 326.120758
   vertex 41.761227 17.811321 325.106567
  endloop
 endfacet

 facet normal 0.666633 0.039603 -0.744333
  outer loop
   vertex 41.761227 17.811321 325.106567
   vertex 41.183426 19.469490 324.677307
   vertex 42.145344 18.648842 325.495148
  endloop
 endfacet

 facet normal 0.384122 0.837519 0.388603
  outer loop
   vertex 42.145344 18.648842 325.495148
   vertex 41.183426 19.469490 324.677307
   vertex 41.585030 18.615547 326.120758
  endloop
 endfacet

 facet normal 0.384122 0.837519 0.388603
  outer loop
   vertex 41.585030 18.615547 326.120758
   vertex 41.183426 19.469490 324.677307
   vertex 40.623112 19.436195 325.302917
  endloop
 endfacet

 facet normal -0.666642 -0.039622 0.744325
  outer loop
   vertex 40.623112 19.436195 325.302917
   vertex 40.238995 18.598675 324.914307
   vertex 41.585030 18.615547 326.120758
  endloop
 endfacet

 facet normal -0.638781 0.544971 -0.543107
  outer loop
   vertex 41.183426 19.469490 324.677307
   vertex 40.238995 18.598675 324.914307
   vertex 40.623112 19.436195 325.302917
  endloop
 endfacet

 facet normal -0.638781 0.544971 -0.543107
  outer loop
   vertex 40.799309 18.631969 324.288696
   vertex 40.238995 18.598675 324.914307
   vertex 41.183426 19.469490 324.677307
  endloop
 endfacet

 facet normal 0.666651 0.039614 -0.744316
  outer loop
   vertex 41.183426 19.469490 324.677307
   vertex 41.761227 17.811321 325.106567
   vertex 40.799309 18.631969 324.288696
  endloop
 endfacet

 facet normal 0.666538 0.039703 -0.744413
  outer loop
   vertex 41.849564 18.262516 325.234833
   vertex 41.915203 18.206518 325.290619
   vertex 38.362293 10.459834 321.696228
  endloop
 endfacet

 facet normal 0.638772 -0.544967 0.543122
  outer loop
   vertex 38.362293 10.459834 321.696228
   vertex 41.915203 18.206518 325.290619
   vertex 41.826260 18.201233 325.389923
  endloop
 endfacet

 facet normal 0.638772 -0.544967 0.543122
  outer loop
   vertex 41.826260 18.201233 325.389923
   vertex 38.273350 10.454549 321.795532
   vertex 38.362293 10.459834 321.696228
  endloop
 endfacet

 facet normal -0.392675 -0.232737 0.889742
  outer loop
   vertex 41.798138 18.217880 325.381866
   vertex 38.273350 10.454549 321.795532
   vertex 41.826260 18.201233 325.389923
  endloop
 endfacet

 facet normal -0.393344 -0.232344 0.889549
  outer loop
   vertex 38.245228 10.471195 321.787445
   vertex 38.273350 10.454549 321.795532
   vertex 41.798138 18.217880 325.381866
  endloop
 endfacet

 facet normal 0.638777 -0.544969 0.543115
  outer loop
   vertex 41.798138 18.217880 325.381866
   vertex 41.414711 18.195097 325.809967
   vertex 38.245228 10.471195 321.787445
  endloop
 endfacet

 facet normal 0.638777 -0.544969 0.543115
  outer loop
   vertex 38.245228 10.471195 321.787445
   vertex 41.414711 18.195097 325.809967
   vertex 37.861801 10.448412 322.215546
  endloop
 endfacet

 facet normal 0.851281 -0.158311 -0.500258
  outer loop
   vertex 37.861801 10.448412 322.215546
   vertex 41.414711 18.195097 325.809967
   vertex 41.426735 18.177494 325.835999
  endloop
 endfacet

 facet normal 0.851442 -0.158549 -0.499908
  outer loop
   vertex 41.426735 18.177494 325.835999
   vertex 37.873825 10.430809 322.241608
   vertex 37.861801 10.448412 322.215546
  endloop
 endfacet

 facet normal 0.638843 -0.544963 0.543043
  outer loop
   vertex 41.382603 18.174871 325.885284
   vertex 37.873825 10.430809 322.241608
   vertex 41.426735 18.177494 325.835999
  endloop
 endfacet

 facet normal 0.638843 -0.544963 0.543043
  outer loop
   vertex 37.829693 10.428186 322.290894
   vertex 37.873825 10.430809 322.241608
   vertex 41.382603 18.174871 325.885284
  endloop
 endfacet

 facet normal -0.666645 -0.039611 0.744322
  outer loop
   vertex 41.382603 18.174871 325.885284
   vertex 40.442459 18.976946 325.085938
   vertex 37.829693 10.428186 322.290894
  endloop
 endfacet

 facet normal -0.666644 -0.039612 0.744323
  outer loop
   vertex 37.829693 10.428186 322.290894
   vertex 40.442459 18.976946 325.085938
   vertex 36.889545 11.230262 321.491547
  endloop
 endfacet

 facet normal -0.638843 0.544963 -0.543042
  outer loop
   vertex 36.889545 11.230262 321.491547
   vertex 40.442459 18.976946 325.085938
   vertex 36.933678 11.232884 321.442261
  endloop
 endfacet

 facet normal -0.638781 0.544971 -0.543107
  outer loop
   vertex 37.040749 11.625295 321.678711
   vertex 37.601063 11.658589 321.053101
   vertex 36.656631 10.787774 321.290100
  endloop
 endfacet

 facet normal 0.638781 -0.544971 0.543108
  outer loop
   vertex 38.562981 10.837940 321.870972
   vertex 38.002666 10.804646 322.496582
   vertex 37.618549 9.967126 322.107971
  endloop
 endfacet

 facet normal -0.638675 0.544975 -0.543228
  outer loop
   vertex 40.442459 18.976946 325.085938
   vertex 40.486591 18.979568 325.036682
   vertex 36.933678 11.232884 321.442261
  endloop
 endfacet

 facet normal 0.599325 0.565226 0.566859
  outer loop
   vertex 40.007050 19.377724 327.355133
   vertex 39.340405 19.338112 328.099457
   vertex 40.346230 18.747068 327.625366
  endloop
 endfacet

 facet normal 0.599325 0.565226 0.566859
  outer loop
   vertex 40.346230 18.747068 327.625366
   vertex 39.340405 19.338112 328.099457
   vertex 39.679585 18.707457 328.369690
  endloop
 endfacet

 facet normal 0.737149 -0.182990 0.650481
  outer loop
   vertex 39.679585 18.707457 328.369690
   vertex 40.261711 17.995235 327.509644
   vertex 40.346230 18.747068 327.625366
  endloop
 endfacet

 facet normal 0.737149 -0.182990 0.650481
  outer loop
   vertex 39.595066 17.955624 328.253967
   vertex 40.261711 17.995235 327.509644
   vertex 39.679585 18.707457 328.369690
  endloop
 endfacet

 facet normal 0.443165 -0.823984 0.353065
  outer loop
   vertex 39.803005 17.562635 327.075806
   vertex 40.261711 17.995235 327.509644
   vertex 39.595066 17.955624 328.253967
  endloop
 endfacet

 facet normal 0.443165 -0.823984 0.353065
  outer loop
   vertex 39.595066 17.955624 328.253967
   vertex 39.136360 17.523024 327.820129
   vertex 39.803005 17.562635 327.075806
  endloop
 endfacet

 facet normal -0.110427 -0.982319 -0.151180
  outer loop
   vertex 39.803005 17.562635 327.075806
   vertex 39.136360 17.523024 327.820129
   vertex 39.238811 17.702681 326.577942
  endloop
 endfacet

 facet normal -0.110427 -0.982319 -0.151180
  outer loop
   vertex 39.238811 17.702681 326.577942
   vertex 39.136360 17.523024 327.820129
   vertex 38.572170 17.663069 327.322266
  endloop
 endfacet

 facet normal -0.599328 -0.565224 -0.566858
  outer loop
   vertex 38.572170 17.663069 327.322266
   vertex 38.899635 18.333336 326.307709
   vertex 39.238811 17.702681 326.577942
  endloop
 endfacet

 facet normal -0.599325 -0.565226 -0.566859
  outer loop
   vertex 38.232990 18.293724 327.052032
   vertex 38.899635 18.333336 326.307709
   vertex 38.572170 17.663069 327.322266
  endloop
 endfacet

 facet normal -0.737150 0.182987 -0.650481
  outer loop
   vertex 38.984150 19.085169 326.423431
   vertex 38.899635 18.333336 326.307709
   vertex 38.232990 18.293724 327.052032
  endloop
 endfacet

 facet normal -0.737151 0.182990 -0.650479
  outer loop
   vertex 38.232990 18.293724 327.052032
   vertex 38.317509 19.045557 327.167755
   vertex 38.984150 19.085169 326.423431
  endloop
 endfacet

 facet normal -0.443158 0.823992 -0.353056
  outer loop
   vertex 38.984150 19.085169 326.423431
   vertex 38.317509 19.045557 327.167755
   vertex 39.442856 19.517769 326.857300
  endloop
 endfacet

 facet normal -0.443158 0.823992 -0.353056
  outer loop
   vertex 39.442856 19.517769 326.857300
   vertex 38.317509 19.045557 327.167755
   vertex 38.776215 19.478157 327.601624
  endloop
 endfacet

 facet normal 0.110431 0.982318 0.151184
  outer loop
   vertex 38.776215 19.478157 327.601624
   vertex 40.007050 19.377724 327.355133
   vertex 39.442856 19.517769 326.857300
  endloop
 endfacet

 facet normal 0.110431 0.982318 0.151184
  outer loop
   vertex 39.340405 19.338112 328.099457
   vertex 40.007050 19.377724 327.355133
   vertex 38.776215 19.478157 327.601624
  endloop
 endfacet

 facet normal -0.599314 -0.565249 -0.566848
  outer loop
   vertex 36.510559 10.696879 322.431549
   vertex 37.261997 10.578827 321.754791
   vertex 36.595356 10.539215 322.499115
  endloop
 endfacet

 facet normal -0.110436 -0.982317 -0.151187
  outer loop
   vertex 36.595356 10.539215 322.499115
   vertex 37.261997 10.578827 321.754791
   vertex 37.403046 10.543816 321.879242
  endloop
 endfacet

 facet normal -0.110437 -0.982316 -0.151189
  outer loop
   vertex 37.403046 10.543816 321.879242
   vertex 36.736401 10.504204 322.623566
   vertex 36.595356 10.539215 322.499115
  endloop
 endfacet

 facet normal 0.443165 -0.823984 0.353065
  outer loop
   vertex 37.517723 10.651966 321.987701
   vertex 36.736401 10.504204 322.623566
   vertex 37.403046 10.543816 321.879242
  endloop
 endfacet

 facet normal 0.443163 -0.823986 0.353062
  outer loop
   vertex 36.851078 10.612353 322.732025
   vertex 36.736401 10.504204 322.623566
   vertex 37.517723 10.651966 321.987701
  endloop
 endfacet

 facet normal 0.737149 -0.182991 0.650481
  outer loop
   vertex 37.517723 10.651966 321.987701
   vertex 37.538853 10.839924 322.016632
   vertex 36.851078 10.612353 322.732025
  endloop
 endfacet

 facet normal 0.737149 -0.182990 0.650481
  outer loop
   vertex 36.851078 10.612353 322.732025
   vertex 37.538853 10.839924 322.016632
   vertex 36.872208 10.800312 322.760956
  endloop
 endfacet

 facet normal 0.599353 0.565174 0.566881
  outer loop
   vertex 36.872208 10.800312 322.760956
   vertex 37.538853 10.839924 322.016632
   vertex 37.454056 10.997588 321.949097
  endloop
 endfacet

 facet normal 0.599306 0.565241 0.566864
  outer loop
   vertex 37.454056 10.997588 321.949097
   vertex 36.787415 10.957975 322.693390
   vertex 36.872208 10.800312 322.760956
  endloop
 endfacet

 facet normal 0.110416 0.982321 0.151177
  outer loop
   vertex 37.313011 11.032599 321.824615
   vertex 36.787415 10.957975 322.693390
   vertex 37.454056 10.997588 321.949097
  endloop
 endfacet

 facet normal 0.110435 0.982317 0.151188
  outer loop
   vertex 36.646366 10.992987 322.568939
   vertex 36.787415 10.957975 322.693390
   vertex 37.313011 11.032599 321.824615
  endloop
 endfacet

 facet normal -0.443166 0.823984 -0.353064
  outer loop
   vertex 37.313011 11.032599 321.824615
   vertex 37.198334 10.924449 321.716156
   vertex 36.646366 10.992987 322.568939
  endloop
 endfacet

 facet normal -0.443163 0.823986 -0.353062
  outer loop
   vertex 36.646366 10.992987 322.568939
   vertex 37.198334 10.924449 321.716156
   vertex 36.531689 10.884837 322.460480
  endloop
 endfacet

 facet normal -0.737149 0.182991 -0.650481
  outer loop
   vertex 36.531689 10.884837 322.460480
   vertex 37.198334 10.924449 321.716156
   vertex 37.177204 10.736491 321.687225
  endloop
 endfacet

 facet normal -0.737149 0.182991 -0.650481
  outer loop
   vertex 37.177204 10.736491 321.687225
   vertex 36.510559 10.696879 322.431549
   vertex 36.531689 10.884837 322.460480
  endloop
 endfacet

 facet normal -0.599318 -0.565239 -0.566853
  outer loop
   vertex 37.261997 10.578827 321.754791
   vertex 36.510559 10.696879 322.431549
   vertex 37.177204 10.736491 321.687225
  endloop
 endfacet

 facet normal -0.599336 -0.565208 -0.566865
  outer loop
   vertex 34.641491 10.462902 323.418610
   vertex 35.647312 9.871860 322.944489
   vertex 34.980671 9.832248 323.688812
  endloop
 endfacet

 facet normal -0.110427 -0.982319 -0.151180
  outer loop
   vertex 34.980671 9.832248 323.688812
   vertex 35.647312 9.871860 322.944489
   vertex 36.211506 9.731814 323.442352
  endloop
 endfacet

 facet normal -0.110427 -0.982319 -0.151182
  outer loop
   vertex 36.211506 9.731814 323.442352
   vertex 35.544861 9.692202 324.186676
   vertex 34.980671 9.832248 323.688812
  endloop
 endfacet

 facet normal 0.443157 -0.823993 0.353056
  outer loop
   vertex 36.670212 10.164413 323.876221
   vertex 35.544861 9.692202 324.186676
   vertex 36.211506 9.731814 323.442352
  endloop
 endfacet

 facet normal 0.443157 -0.823992 0.353057
  outer loop
   vertex 36.003567 10.124802 324.620544
   vertex 35.544861 9.692202 324.186676
   vertex 36.670212 10.164413 323.876221
  endloop
 endfacet

 facet normal 0.737152 -0.182965 0.650485
  outer loop
   vertex 36.670212 10.164413 323.876221
   vertex 36.754730 10.916247 323.991913
   vertex 36.003567 10.124802 324.620544
  endloop
 endfacet

 facet normal 0.737152 -0.182965 0.650485
  outer loop
   vertex 36.003567 10.124802 324.620544
   vertex 36.754730 10.916247 323.991913
   vertex 36.088085 10.876636 324.736237
  endloop
 endfacet

 facet normal 0.599334 0.565208 0.566867
  outer loop
   vertex 36.088085 10.876636 324.736237
   vertex 36.754730 10.916247 323.991913
   vertex 36.415550 11.546902 323.721710
  endloop
 endfacet

 facet normal 0.599334 0.565208 0.566867
  outer loop
   vertex 36.415550 11.546902 323.721710
   vertex 35.748905 11.507290 324.466034
   vertex 36.088085 10.876636 324.736237
  endloop
 endfacet

 facet normal 0.110428 0.982319 0.151181
  outer loop
   vertex 35.851357 11.686948 323.223846
   vertex 35.748905 11.507290 324.466034
   vertex 36.415550 11.546902 323.721710
  endloop
 endfacet

 facet normal 0.110428 0.982319 0.151181
  outer loop
   vertex 35.184715 11.647336 323.968170
   vertex 35.748905 11.507290 324.466034
   vertex 35.851357 11.686948 323.223846
  endloop
 endfacet

 facet normal -0.443157 0.823992 -0.353055
  outer loop
   vertex 35.851357 11.686948 323.223846
   vertex 35.392651 11.254349 322.789978
   vertex 35.184715 11.647336 323.968170
  endloop
 endfacet

 facet normal -0.443159 0.823992 -0.353055
  outer loop
   vertex 35.184715 11.647336 323.968170
   vertex 35.392651 11.254349 322.789978
   vertex 34.726009 11.214736 323.534302
  endloop
 endfacet

 facet normal -0.737154 0.182964 -0.650483
  outer loop
   vertex 34.726009 11.214736 323.534302
   vertex 35.392651 11.254349 322.789978
   vertex 35.308132 10.502515 322.674286
  endloop
 endfacet

 facet normal -0.737154 0.182964 -0.650483
  outer loop
   vertex 35.308132 10.502515 322.674286
   vertex 34.641491 10.462902 323.418610
   vertex 34.726009 11.214736 323.534302
  endloop
 endfacet

 facet normal -0.599336 -0.565208 -0.566866
  outer loop
   vertex 35.647312 9.871860 322.944489
   vertex 34.641491 10.462902 323.418610
   vertex 35.308132 10.502515 322.674286
  endloop
 endfacet

 facet normal -0.112941 -0.442006 -0.889874
  outer loop
   vertex 35.308132 10.502515 322.674286
   vertex 36.602047 10.539613 322.491638
   vertex 35.647312 9.871860 322.944489
  endloop
 endfacet

 facet normal 0.288901 -0.784850 -0.548221
  outer loop
   vertex 35.647312 9.871860 322.944489
   vertex 36.602047 10.539613 322.491638
   vertex 36.743092 10.504601 322.616089
  endloop
 endfacet

 facet normal 0.288920 -0.784866 -0.548189
  outer loop
   vertex 36.743092 10.504601 322.616089
   vertex 36.211506 9.731814 323.442352
   vertex 35.647312 9.871860 322.944489
  endloop
 endfacet

 facet normal 0.743940 -0.654728 -0.133732
  outer loop
   vertex 36.857769 10.612751 322.724548
   vertex 36.211506 9.731814 323.442352
   vertex 36.743092 10.504601 322.616089
  endloop
 endfacet

 facet normal 0.743944 -0.654725 -0.133723
  outer loop
   vertex 36.670212 10.164413 323.876221
   vertex 36.211506 9.731814 323.442352
   vertex 36.857769 10.612751 322.724548
  endloop
 endfacet

 facet normal 0.985593 -0.127842 0.110742
  outer loop
   vertex 36.857769 10.612751 322.724548
   vertex 36.878899 10.800710 322.753479
   vertex 36.670212 10.164413 323.876221
  endloop
 endfacet

 facet normal 0.985593 -0.127838 0.110744
  outer loop
   vertex 36.670212 10.164413 323.876221
   vertex 36.878899 10.800710 322.753479
   vertex 36.754730 10.916247 323.991913
  endloop
 endfacet

 facet normal 0.872314 0.487137 0.042014
  outer loop
   vertex 36.754730 10.916247 323.991913
   vertex 36.878899 10.800710 322.753479
   vertex 36.794106 10.958373 322.685944
  endloop
 endfacet

 facet normal 0.872308 0.487148 0.042014
  outer loop
   vertex 36.794106 10.958373 322.685944
   vertex 36.415550 11.546902 323.721710
   vertex 36.754730 10.916247 323.991913
  endloop
 endfacet

 facet normal 0.470472 0.829980 -0.299649
  outer loop
   vertex 36.653057 10.993384 322.561462
   vertex 36.415550 11.546902 323.721710
   vertex 36.794106 10.958373 322.685944
  endloop
 endfacet

 facet normal 0.470451 0.829988 -0.299658
  outer loop
   vertex 35.851357 11.686948 323.223846
   vertex 36.415550 11.546902 323.721710
   vertex 36.653057 10.993384 322.561462
  endloop
 endfacet

 facet normal 0.015409 0.699840 -0.714133
  outer loop
   vertex 36.653057 10.993384 322.561462
   vertex 36.538380 10.885235 322.453003
   vertex 35.851357 11.686948 323.223846
  endloop
 endfacet

 facet normal 0.015434 0.699851 -0.714122
  outer loop
   vertex 35.851357 11.686948 323.223846
   vertex 36.538380 10.885235 322.453003
   vertex 35.392651 11.254349 322.789978
  endloop
 endfacet

 facet normal -0.226210 0.172977 -0.958597
  outer loop
   vertex 35.392651 11.254349 322.789978
   vertex 36.538380 10.885235 322.453003
   vertex 36.517250 10.697276 322.424072
  endloop
 endfacet

 facet normal -0.226228 0.172941 -0.958599
  outer loop
   vertex 36.517250 10.697276 322.424072
   vertex 35.308132 10.502515 322.674286
   vertex 35.392651 11.254349 322.789978
  endloop
 endfacet

 facet normal -0.112934 -0.442077 -0.889839
  outer loop
   vertex 36.602047 10.539613 322.491638
   vertex 35.308132 10.502515 322.674286
   vertex 36.517250 10.697276 322.424072
  endloop
 endfacet

 facet normal 0.599317 0.565241 0.566853
  outer loop
   vertex 41.045559 18.828409 325.582520
   vertex 40.378914 18.788797 326.326843
   vertex 41.130352 18.670746 325.650085
  endloop
 endfacet

 facet normal 0.599317 0.565241 0.566853
  outer loop
   vertex 41.130352 18.670746 325.650085
   vertex 40.378914 18.788797 326.326843
   vertex 40.463707 18.631134 326.394409
  endloop
 endfacet

 facet normal 0.737149 -0.182991 0.650481
  outer loop
   vertex 40.463707 18.631134 326.394409
   vertex 41.109222 18.482788 325.621155
   vertex 41.130352 18.670746 325.650085
  endloop
 endfacet

 facet normal 0.737150 -0.182989 0.650481
  outer loop
   vertex 40.442577 18.443174 326.365479
   vertex 41.109222 18.482788 325.621155
   vertex 40.463707 18.631134 326.394409
  endloop
 endfacet

 facet normal 0.443166 -0.823984 0.353064
  outer loop
   vertex 40.994545 18.374638 325.512695
   vertex 41.109222 18.482788 325.621155
   vertex 40.442577 18.443174 326.365479
  endloop
 endfacet

 facet normal 0.443160 -0.823989 0.353060
  outer loop
   vertex 40.442577 18.443174 326.365479
   vertex 40.327900 18.335026 326.257019
   vertex 40.994545 18.374638 325.512695
  endloop
 endfacet

 facet normal -0.110418 -0.982321 -0.151172
  outer loop
   vertex 40.994545 18.374638 325.512695
   vertex 40.327900 18.335026 326.257019
   vertex 40.853497 18.409649 325.388214
  endloop
 endfacet

 facet normal -0.110420 -0.982321 -0.151173
  outer loop
   vertex 40.853497 18.409649 325.388214
   vertex 40.327900 18.335026 326.257019
   vertex 40.186855 18.370037 326.132538
  endloop
 endfacet

 facet normal -0.599318 -0.565241 -0.566851
  outer loop
   vertex 40.186855 18.370037 326.132538
   vertex 40.768703 18.567312 325.320648
   vertex 40.853497 18.409649 325.388214
  endloop
 endfacet

 facet normal -0.599311 -0.565251 -0.566848
  outer loop
   vertex 40.102058 18.527700 326.064972
   vertex 40.768703 18.567312 325.320648
   vertex 40.186855 18.370037 326.132538
  endloop
 endfacet

 facet normal -0.737149 0.182989 -0.650481
  outer loop
   vertex 40.789833 18.755272 325.349579
   vertex 40.768703 18.567312 325.320648
   vertex 40.102058 18.527700 326.064972
  endloop
 endfacet

 facet normal -0.737150 0.182991 -0.650481
  outer loop
   vertex 40.102058 18.527700 326.064972
   vertex 40.123188 18.715658 326.093903
   vertex 40.789833 18.755272 325.349579
  endloop
 endfacet

 facet normal -0.443128 0.824020 -0.353027
  outer loop
   vertex 40.789833 18.755272 325.349579
   vertex 40.123188 18.715658 326.093903
   vertex 40.904510 18.863420 325.458069
  endloop
 endfacet

 facet normal -0.443158 0.823985 -0.353073
  outer loop
   vertex 40.904510 18.863420 325.458069
   vertex 40.123188 18.715658 326.093903
   vertex 40.237865 18.823809 326.202362
  endloop
 endfacet

 facet normal 0.110432 0.982317 0.151191
  outer loop
   vertex 40.237865 18.823809 326.202362
   vertex 41.045559 18.828409 325.582520
   vertex 40.904510 18.863420 325.458069
  endloop
 endfacet

 facet normal 0.110418 0.982321 0.151172
  outer loop
   vertex 40.378914 18.788797 326.326843
   vertex 41.045559 18.828409 325.582520
   vertex 40.237865 18.823809 326.202362
  endloop
 endfacet

 facet normal 0.470436 0.829990 -0.299678
  outer loop
   vertex 40.244556 18.824205 326.194916
   vertex 39.442856 19.517769 326.857300
   vertex 40.385605 18.789194 326.319366
  endloop
 endfacet

 facet normal 0.470442 0.829990 -0.299667
  outer loop
   vertex 40.385605 18.789194 326.319366
   vertex 39.442856 19.517769 326.857300
   vertex 40.007050 19.377724 327.355133
  endloop
 endfacet

 facet normal 0.872310 0.487144 0.042016
  outer loop
   vertex 40.007050 19.377724 327.355133
   vertex 40.470398 18.631531 326.386932
   vertex 40.385605 18.789194 326.319366
  endloop
 endfacet

 facet normal 0.872308 0.487148 0.042012
  outer loop
   vertex 40.346230 18.747068 327.625366
   vertex 40.470398 18.631531 326.386932
   vertex 40.007050 19.377724 327.355133
  endloop
 endfacet

 facet normal 0.985592 -0.127843 0.110745
  outer loop
   vertex 40.449268 18.443573 326.358002
   vertex 40.470398 18.631531 326.386932
   vertex 40.346230 18.747068 327.625366
  endloop
 endfacet

 facet normal 0.985592 -0.127843 0.110745
  outer loop
   vertex 40.346230 18.747068 327.625366
   vertex 40.261711 17.995235 327.509644
   vertex 40.449268 18.443573 326.358002
  endloop
 endfacet

 facet normal 0.743951 -0.654718 -0.133723
  outer loop
   vertex 40.449268 18.443573 326.358002
   vertex 40.261711 17.995235 327.509644
   vertex 40.334595 18.335423 326.249542
  endloop
 endfacet

 facet normal 0.743942 -0.654727 -0.133726
  outer loop
   vertex 40.334595 18.335423 326.249542
   vertex 40.261711 17.995235 327.509644
   vertex 39.803005 17.562635 327.075806
  endloop
 endfacet

 facet normal 0.288958 -0.784868 -0.548165
  outer loop
   vertex 39.803005 17.562635 327.075806
   vertex 40.193546 18.370434 326.125061
   vertex 40.334595 18.335423 326.249542
  endloop
 endfacet

 facet normal 0.288915 -0.784870 -0.548185
  outer loop
   vertex 39.238811 17.702681 326.577942
   vertex 40.193546 18.370434 326.125061
   vertex 39.803005 17.562635 327.075806
  endloop
 endfacet

 facet normal -0.113006 -0.441963 -0.889887
  outer loop
   vertex 40.108749 18.528097 326.057526
   vertex 40.193546 18.370434 326.125061
   vertex 39.238811 17.702681 326.577942
  endloop
 endfacet

 facet normal -0.112923 -0.442034 -0.889862
  outer loop
   vertex 39.238811 17.702681 326.577942
   vertex 38.899635 18.333336 326.307709
   vertex 40.108749 18.528097 326.057526
  endloop
 endfacet

 facet normal -0.226192 0.172824 -0.958629
  outer loop
   vertex 40.108749 18.528097 326.057526
   vertex 38.899635 18.333336 326.307709
   vertex 40.129879 18.716057 326.086426
  endloop
 endfacet

 facet normal -0.226233 0.172978 -0.958591
  outer loop
   vertex 40.129879 18.716057 326.086426
   vertex 38.899635 18.333336 326.307709
   vertex 38.984150 19.085169 326.423431
  endloop
 endfacet

 facet normal 0.015456 0.699920 -0.714054
  outer loop
   vertex 38.984150 19.085169 326.423431
   vertex 40.244556 18.824205 326.194916
   vertex 40.129879 18.716057 326.086426
  endloop
 endfacet

 facet normal 0.015430 0.699853 -0.714120
  outer loop
   vertex 39.442856 19.517769 326.857300
   vertex 40.244556 18.824205 326.194916
   vertex 38.984150 19.085169 326.423431
  endloop
 endfacet

endsolid