solid stl file generated from DOUG
 facet normal 0.855485 -0.516456 0.037671
  outer loop
   vertex -34.694324 216.763107 353.655792
   vertex -35.558758 215.365616 354.127441
   vertex -35.592266 215.289093 353.839294
  endloop
 endfacet

 facet normal -0.505597 -0.817470 0.275890
  outer loop
   vertex -35.592266 215.289093 353.839294
   vertex -35.558758 215.365616 354.127441
   vertex -36.980148 216.223618 354.064880
  endloop
 endfacet

 facet normal -0.505608 -0.817476 0.275849
  outer loop
   vertex -36.980148 216.223618 354.064880
   vertex -37.013657 216.147110 353.776733
   vertex -35.592266 215.289093 353.839294
  endloop
 endfacet

 facet normal -0.855481 0.516465 -0.037647
  outer loop
   vertex -36.149208 217.544617 353.305084
   vertex -37.013657 216.147110 353.776733
   vertex -36.980148 216.223618 354.064880
  endloop
 endfacet

 facet normal -0.111691 -0.255058 -0.960453
  outer loop
   vertex -35.592266 215.289093 353.839294
   vertex -37.013657 216.147110 353.776733
   vertex -36.149208 217.544617 353.305084
  endloop
 endfacet

 facet normal -0.111672 -0.255054 -0.960457
  outer loop
   vertex -36.149208 217.544617 353.305084
   vertex -34.727829 216.686584 353.367676
   vertex -35.592266 215.289093 353.839294
  endloop
 endfacet

 facet normal 0.855485 -0.516454 0.037686
  outer loop
   vertex -35.592266 215.289093 353.839294
   vertex -34.727829 216.686584 353.367676
   vertex -34.694324 216.763107 353.655792
  endloop
 endfacet

 facet normal 0.855533 -0.516378 0.037654
  outer loop
   vertex -21.957535 237.356262 346.705994
   vertex -21.991041 237.279739 346.417877
   vertex -21.126738 238.677322 345.946228
  endloop
 endfacet

 facet normal -0.111688 -0.255058 -0.960454
  outer loop
   vertex -21.126738 238.677322 345.946228
   vertex -21.991041 237.279739 346.417877
   vertex -23.412443 238.137741 346.355316
  endloop
 endfacet

 facet normal -0.111688 -0.255057 -0.960454
  outer loop
   vertex -23.412443 238.137741 346.355316
   vertex -22.548128 239.535324 345.883667
   vertex -21.126738 238.677322 345.946228
  endloop
 endfacet

 facet normal -0.855530 0.516382 -0.037658
  outer loop
   vertex -22.514624 239.611847 346.171814
   vertex -22.548128 239.535324 345.883667
   vertex -23.412443 238.137741 346.355316
  endloop
 endfacet

 facet normal 0.505597 0.817471 -0.275884
  outer loop
   vertex -21.126738 238.677322 345.946228
   vertex -22.548128 239.535324 345.883667
   vertex -22.514624 239.611847 346.171814
  endloop
 endfacet

 facet normal 0.505609 0.817478 -0.275843
  outer loop
   vertex -22.514624 239.611847 346.171814
   vertex -21.093233 238.753830 346.234375
   vertex -21.126738 238.677322 345.946228
  endloop
 endfacet

 facet normal 0.855528 -0.516387 0.037632
  outer loop
   vertex -21.126738 238.677322 345.946228
   vertex -21.093233 238.753830 346.234375
   vertex -21.957535 237.356262 346.705994
  endloop
 endfacet

 facet normal -0.855485 0.516455 -0.037669
  outer loop
   vertex -36.262135 217.384399 353.673126
   vertex -36.102737 217.642090 353.586151
   vertex -36.411732 216.936447 350.928955
  endloop
 endfacet

 facet normal 0.505607 0.817466 -0.275881
  outer loop
   vertex -36.411732 216.936447 350.928955
   vertex -36.102737 217.642090 353.586151
   vertex -34.681358 216.784073 353.648712
  endloop
 endfacet

 facet normal 0.505613 0.817461 -0.275885
  outer loop
   vertex -34.681358 216.784073 353.648712
   vertex -34.990353 216.078415 350.991516
   vertex -36.411732 216.936447 350.928955
  endloop
 endfacet

 facet normal 0.855485 -0.516455 0.037671
  outer loop
   vertex -35.149750 215.820724 351.078491
   vertex -34.990353 216.078415 350.991516
   vertex -34.681358 216.784073 353.648712
  endloop
 endfacet

 facet normal -0.111704 -0.255073 -0.960448
  outer loop
   vertex -36.411732 216.936447 350.928955
   vertex -34.990353 216.078415 350.991516
   vertex -35.149750 215.820724 351.078491
  endloop
 endfacet

 facet normal -0.111634 -0.254997 -0.960476
  outer loop
   vertex -35.149750 215.820724 351.078491
   vertex -36.571129 216.678741 351.015900
   vertex -36.411732 216.936447 350.928955
  endloop
 endfacet

 facet normal -0.855496 0.516437 -0.037665
  outer loop
   vertex -36.411732 216.936447 350.928955
   vertex -36.571129 216.678741 351.015900
   vertex -36.262135 217.384399 353.673126
  endloop
 endfacet

 facet normal -0.505611 -0.817463 0.275882
  outer loop
   vertex -36.262135 217.384399 353.673126
   vertex -36.571129 216.678741 351.015900
   vertex -35.149750 215.820724 351.078491
  endloop
 endfacet

 facet normal -0.505614 -0.817463 0.275880
  outer loop
   vertex -35.149750 215.820724 351.078491
   vertex -34.840755 216.526367 353.735687
   vertex -36.262135 217.384399 353.673126
  endloop
 endfacet

 facet normal 0.855498 -0.516435 0.037662
  outer loop
   vertex -34.681358 216.784073 353.648712
   vertex -34.840755 216.526367 353.735687
   vertex -35.149750 215.820724 351.078491
  endloop
 endfacet

 facet normal -0.505594 -0.817473 0.275886
  outer loop
   vertex -21.970497 237.335297 346.713074
   vertex -23.391899 238.193298 346.650513
   vertex -23.700893 237.487640 343.993317
  endloop
 endfacet

 facet normal -0.855519 0.516400 -0.037653
  outer loop
   vertex -23.700893 237.487640 343.993317
   vertex -23.391899 238.193298 346.650513
   vertex -23.232517 238.451004 346.563538
  endloop
 endfacet

 facet normal -0.855519 0.516400 -0.037653
  outer loop
   vertex -23.232517 238.451004 346.563538
   vertex -23.541512 237.745346 343.906342
   vertex -23.700893 237.487640 343.993317
  endloop
 endfacet

 facet normal 0.505587 0.817477 -0.275886
  outer loop
   vertex -22.120108 236.887360 343.968903
   vertex -23.541512 237.745346 343.906342
   vertex -23.232517 238.451004 346.563538
  endloop
 endfacet

 facet normal -0.111693 -0.255071 -0.960450
  outer loop
   vertex -23.700893 237.487640 343.993317
   vertex -23.541512 237.745346 343.906342
   vertex -22.120108 236.887360 343.968903
  endloop
 endfacet

 facet normal -0.111693 -0.255071 -0.960450
  outer loop
   vertex -22.120108 236.887360 343.968903
   vertex -22.279491 236.629654 344.055878
   vertex -23.700893 237.487640 343.993317
  endloop
 endfacet

 facet normal -0.505588 -0.817478 0.275881
  outer loop
   vertex -23.700893 237.487640 343.993317
   vertex -22.279491 236.629654 344.055878
   vertex -21.970497 237.335297 346.713074
  endloop
 endfacet

 facet normal 0.855516 -0.516405 0.037652
  outer loop
   vertex -21.970497 237.335297 346.713074
   vertex -22.279491 236.629654 344.055878
   vertex -22.120108 236.887360 343.968903
  endloop
 endfacet

 facet normal 0.855516 -0.516405 0.037652
  outer loop
   vertex -22.120108 236.887360 343.968903
   vertex -21.811113 237.593002 346.626099
   vertex -21.970497 237.335297 346.713074
  endloop
 endfacet

 facet normal 0.505594 0.817474 -0.275881
  outer loop
   vertex -23.232517 238.451004 346.563538
   vertex -21.811113 237.593002 346.626099
   vertex -22.120108 236.887360 343.968903
  endloop
 endfacet

 facet normal -0.855529 0.516385 -0.037626
  outer loop
   vertex -23.378937 238.214249 346.643463
   vertex -22.514624 239.611847 346.171814
   vertex -23.412443 238.137741 346.355316
  endloop
 endfacet

 facet normal -0.855488 0.516450 -0.037681
  outer loop
   vertex -36.115704 217.621140 353.593231
   vertex -36.149208 217.544617 353.305084
   vertex -36.980148 216.223618 354.064880
  endloop
 endfacet

 facet normal -0.855515 0.516407 -0.037649
  outer loop
   vertex -36.230667 216.881790 351.715393
   vertex -23.348228 237.711227 344.685913
   vertex -36.309967 216.700699 351.033447
  endloop
 endfacet

 facet normal -0.855516 0.516406 -0.037653
  outer loop
   vertex -36.309967 216.700699 351.033447
   vertex -23.348228 237.711227 344.685913
   vertex -23.427526 237.530136 344.003998
  endloop
 endfacet

 facet normal -0.111671 -0.255067 -0.960453
  outer loop
   vertex -35.251892 216.062103 351.080017
   vertex -36.309967 216.700699 351.033447
   vertex -22.369452 236.891541 344.050537
  endloop
 endfacet

 facet normal -0.111691 -0.255053 -0.960455
  outer loop
   vertex -22.369452 236.891541 344.050537
   vertex -36.309967 216.700699 351.033447
   vertex -23.427526 237.530136 344.003998
  endloop
 endfacet

 facet normal 0.111691 0.255054 0.960454
  outer loop
   vertex -36.230667 216.881790 351.715393
   vertex -35.172592 216.243195 351.761932
   vertex -23.348228 237.711227 344.685913
  endloop
 endfacet

 facet normal 0.111691 0.255054 0.960454
  outer loop
   vertex -23.348228 237.711227 344.685913
   vertex -35.172592 216.243195 351.761932
   vertex -22.290154 237.072632 344.732452
  endloop
 endfacet

 facet normal 0.855516 -0.516406 0.037653
  outer loop
   vertex -22.290154 237.072632 344.732452
   vertex -35.172592 216.243195 351.761932
   vertex -22.369452 236.891541 344.050537
  endloop
 endfacet

 facet normal 0.855515 -0.516407 0.037651
  outer loop
   vertex -22.369452 236.891541 344.050537
   vertex -35.172592 216.243195 351.761932
   vertex -35.251892 216.062103 351.080017
  endloop
 endfacet

endsolid