solid stl file generated from DOUG
 facet normal -0.868952 0.472175 0.148237
  outer loop
   vertex -31.592236 207.633957 449.860779
   vertex -31.600815 207.579117 449.985168
   vertex -18.613176 228.326874 460.030334
  endloop
 facet normal -0.566658 -0.043647 0.822796
  outer loop
   vertex -18.613176 228.326874 460.030334
   vertex -31.600815 207.579117 449.985168
   vertex -18.545177 228.263275 460.073792
  endloop
 facet normal 0.195845 -0.523931 0.828940
  outer loop
   vertex -19.335537 229.065445 459.438812
   vertex -19.451149 229.110733 459.494751
   vertex -32.438786 208.362976 449.449585
  endloop
 facet normal -0.566651 -0.043653 0.822800
  outer loop
   vertex -32.438786 208.362976 449.449585
   vertex -19.451149 229.110733 459.494751
   vertex -19.519150 229.174332 459.451294
  endloop
 facet normal -0.566651 -0.043653 0.822800
  outer loop
   vertex -19.519150 229.174332 459.451294
   vertex -32.506786 208.426575 449.406128
   vertex -32.438786 208.362976 449.449585
  endloop
 facet normal -0.766300 0.181260 0.616384
  outer loop
   vertex -19.103933 229.206314 458.848419
   vertex -32.091572 208.458542 448.803253
   vertex -19.089981 229.186325 458.871643
  endloop
 facet normal -0.766316 0.181283 0.616357
  outer loop
   vertex -19.089981 229.186325 458.871643
   vertex -32.091572 208.458542 448.803253
   vertex -32.077618 208.438568 448.826477
  endloop
 facet normal -0.661767 0.619021 -0.422940
  outer loop
   vertex -32.077618 208.438568 448.826477
   vertex -32.403545 208.413467 449.299713
   vertex -19.089981 229.186325 458.871643
  endloop
 facet normal -0.868954 0.472161 0.148267
  outer loop
   vertex -18.613176 228.326874 460.030334
   vertex -18.604597 228.381714 459.905975
   vertex -31.592236 207.633957 449.860779
  endloop
 facet normal -0.566676 -0.043631 0.822784
  outer loop
   vertex -31.592236 207.633957 449.860779
   vertex -18.604597 228.381714 459.905975
   vertex -19.335537 229.065445 459.438812
  endloop
 facet normal -0.566660 -0.043645 0.822795
  outer loop
   vertex -19.335537 229.065445 459.438812
   vertex -32.323177 208.317688 449.393646
   vertex -31.592236 207.633957 449.860779
  endloop
 facet normal 0.195849 -0.523933 0.828937
  outer loop
   vertex -32.438786 208.362976 449.449585
   vertex -32.323177 208.317688 449.393646
   vertex -19.335537 229.065445 459.438812
  endloop
 facet normal -0.661780 0.619020 -0.422920
  outer loop
   vertex -32.506786 208.426575 449.406128
   vertex -19.519150 229.174332 459.451294
   vertex -32.431183 208.432404 449.296356
  endloop
 facet normal -0.661775 0.619020 -0.422928
  outer loop
   vertex -32.431183 208.432404 449.296356
   vertex -19.519150 229.174332 459.451294
   vertex -19.443544 229.180161 459.341522
  endloop
 facet normal 0.291701 0.262694 -0.919729
  outer loop
   vertex -19.443544 229.180161 459.341522
   vertex -32.403545 208.413467 449.299713
   vertex -32.431183 208.432404 449.296356
  endloop
 facet normal 0.291604 0.262761 -0.919741
  outer loop
   vertex -19.415907 229.161240 459.344879
   vertex -32.403545 208.413467 449.299713
   vertex -19.443544 229.180161 459.341522
  endloop
 facet normal -0.661759 0.619021 -0.422952
  outer loop
   vertex -19.089981 229.186325 458.871643
   vertex -32.403545 208.413467 449.299713
   vertex -19.415907 229.161240 459.344879
  endloop
 facet normal 0.490876 0.784158 0.379652
  outer loop
   vertex -18.340635 228.577576 460.254059
   vertex -18.860872 229.546417 458.925598
   vertex -19.337162 229.509750 459.617157
  endloop
 facet normal -0.661767 0.619013 -0.422951
  outer loop
   vertex -19.337162 229.509750 459.617157
   vertex -18.860872 229.546417 458.925598
   vertex -19.828030 228.725586 459.237518
  endloop
 facet normal -0.566667 -0.043620 0.822792
  outer loop
   vertex -19.828030 228.725586 459.237518
   vertex -18.831503 227.793427 459.874420
   vertex -19.337162 229.509750 459.617157
  endloop
 facet normal -0.490871 -0.784163 -0.379649
  outer loop
   vertex -19.351740 228.762253 458.545959
   vertex -18.831503 227.793427 459.874420
   vertex -19.828030 228.725586 459.237518
  endloop
 facet normal -0.490871 -0.784163 -0.379649
  outer loop
   vertex -18.355213 227.830093 459.182861
   vertex -18.831503 227.793427 459.874420
   vertex -19.351740 228.762253 458.545959
  endloop
 facet normal 0.566667 0.043620 -0.822792
  outer loop
   vertex -19.351740 228.762253 458.545959
   vertex -18.860872 229.546417 458.925598
   vertex -18.355213 227.830093 459.182861
  endloop
 facet normal 0.566667 0.043620 -0.822792
  outer loop
   vertex -18.355213 227.830093 459.182861
   vertex -18.860872 229.546417 458.925598
   vertex -17.864346 228.614258 459.562500
  endloop
 facet normal 0.490863 0.784163 0.379661
  outer loop
   vertex -17.864346 228.614258 459.562500
   vertex -18.860872 229.546417 458.925598
   vertex -18.340635 228.577576 460.254059
  endloop
 facet normal 0.661768 -0.619020 0.422938
  outer loop
   vertex -18.340635 228.577576 460.254059
   vertex -18.831503 227.793427 459.874420
   vertex -17.864346 228.614258 459.562500
  endloop
 facet normal -0.566667 -0.043620 0.822791
  outer loop
   vertex -19.337162 229.509750 459.617157
   vertex -18.831503 227.793427 459.874420
   vertex -18.340635 228.577576 460.254059
  endloop
 facet normal 0.490862 0.784163 0.379661
  outer loop
   vertex -32.241665 208.894791 449.636292
   vertex -31.245136 207.962631 450.273193
   vertex -31.765373 208.931473 448.944733
  endloop
 facet normal 0.490876 0.784158 0.379652
  outer loop
   vertex -31.765373 208.931473 448.944733
   vertex -31.245136 207.962631 450.273193
   vertex -30.768847 207.999298 449.581635
  endloop
 facet normal 0.566667 0.043620 -0.822791
  outer loop
   vertex -30.768847 207.999298 449.581635
   vertex -31.259714 207.215149 449.201996
   vertex -31.765373 208.931473 448.944733
  endloop
 facet normal 0.661762 -0.619021 0.422947
  outer loop
   vertex -31.245136 207.962631 450.273193
   vertex -31.259714 207.215149 449.201996
   vertex -30.768847 207.999298 449.581635
  endloop
 facet normal 0.661756 -0.619025 0.422950
  outer loop
   vertex -31.736006 207.178467 449.893524
   vertex -31.259714 207.215149 449.201996
   vertex -31.245136 207.962631 450.273193
  endloop
 facet normal -0.566679 -0.043639 0.822782
  outer loop
   vertex -31.245136 207.962631 450.273193
   vertex -32.732533 208.110641 449.256622
   vertex -31.736006 207.178467 449.893524
  endloop
 facet normal -0.490860 -0.784157 -0.379676
  outer loop
   vertex -31.736006 207.178467 449.893524
   vertex -32.732533 208.110641 449.256622
   vertex -31.259714 207.215149 449.201996
  endloop
 facet normal -0.490863 -0.784163 -0.379661
  outer loop
   vertex -31.259714 207.215149 449.201996
   vertex -32.732533 208.110641 449.256622
   vertex -32.256241 208.147308 448.565094
  endloop
 facet normal 0.566667 0.043620 -0.822792
  outer loop
   vertex -32.256241 208.147308 448.565094
   vertex -31.765373 208.931473 448.944733
   vertex -31.259714 207.215149 449.201996
  endloop
 facet normal -0.661757 0.619014 -0.422965
  outer loop
   vertex -32.732533 208.110641 449.256622
   vertex -31.765373 208.931473 448.944733
   vertex -32.256241 208.147308 448.565094
  endloop
 facet normal -0.661761 0.619030 -0.422934
  outer loop
   vertex -32.241665 208.894791 449.636292
   vertex -31.765373 208.931473 448.944733
   vertex -32.732533 208.110641 449.256622
  endloop
 facet normal -0.566679 -0.043641 0.822782
  outer loop
   vertex -32.732533 208.110641 449.256622
   vertex -31.245136 207.962631 450.273193
   vertex -32.241665 208.894791 449.636292
  endloop
 facet normal -0.566658 -0.043647 0.822796
  outer loop
   vertex -31.600815 207.579117 449.985168
   vertex -31.532816 207.515518 450.028625
   vertex -18.545177 228.263275 460.073792
  endloop
 facet normal 0.661735 -0.619023 0.422987
  outer loop
   vertex -18.545177 228.263275 460.073792
   vertex -31.532816 207.515518 450.028625
   vertex -31.457211 207.521332 449.918854
  endloop
 facet normal 0.661735 -0.619023 0.422987
  outer loop
   vertex -31.457211 207.521332 449.918854
   vertex -18.469572 228.269089 459.964020
   vertex -18.545177 228.263275 460.073792
  endloop
 facet normal 0.766565 -0.181641 -0.615942
  outer loop
   vertex -31.471163 207.541306 449.895599
   vertex -18.469572 228.269089 459.964020
   vertex -31.457211 207.521332 449.918854
  endloop
 facet normal 0.766300 -0.181260 -0.616384
  outer loop
   vertex -18.483524 228.289078 459.940796
   vertex -18.469572 228.269089 459.964020
   vertex -31.471163 207.541306 449.895599
  endloop
 facet normal 0.661755 -0.619022 0.422956
  outer loop
   vertex -31.471163 207.541306 449.895599
   vertex -31.145237 207.566406 449.422394
   vertex -18.483524 228.289078 459.940796
  endloop
 facet normal 0.661759 -0.619021 0.422951
  outer loop
   vertex -18.483524 228.289078 459.940796
   vertex -31.145237 207.566406 449.422394
   vertex -18.157598 228.314163 459.467560
  endloop
 facet normal -0.291590 -0.262771 0.919743
  outer loop
   vertex -18.157598 228.314163 459.467560
   vertex -31.145237 207.566406 449.422394
   vertex -31.117598 207.547485 449.425751
  endloop
 facet normal -0.291604 -0.262761 0.919741
  outer loop
   vertex -31.117598 207.547485 449.425751
   vertex -18.129961 228.295242 459.470917
   vertex -18.157598 228.314163 459.467560
  endloop
 facet normal 0.661759 -0.619021 0.422952
  outer loop
   vertex -31.080084 207.550369 449.371277
   vertex -18.129961 228.295242 459.470917
   vertex -31.117598 207.547485 449.425751
  endloop
 facet normal 0.661759 -0.619021 0.422952
  outer loop
   vertex -18.092447 228.298126 459.416443
   vertex -18.129961 228.295242 459.470917
   vertex -31.080084 207.550369 449.371277
  endloop
 facet normal 0.566678 0.043629 -0.822784
  outer loop
   vertex -31.080084 207.550369 449.371277
   vertex -32.054058 208.461441 448.748779
   vertex -18.092447 228.298126 459.416443
  endloop
 facet normal 0.566678 0.043628 -0.822783
  outer loop
   vertex -18.092447 228.298126 459.416443
   vertex -32.054058 208.461441 448.748779
   vertex -19.066420 229.209198 458.793945
  endloop
 facet normal -0.661759 0.619021 -0.422952
  outer loop
   vertex -19.066420 229.209198 458.793945
   vertex -32.054058 208.461441 448.748779
   vertex -19.103933 229.206314 458.848419
  endloop
 facet normal -0.661767 0.619013 -0.422951
  outer loop
   vertex -19.351740 228.762253 458.545959
   vertex -19.828030 228.725586 459.237518
   vertex -18.860872 229.546417 458.925598
  endloop
 facet normal 0.661767 -0.619013 0.422951
  outer loop
   vertex -18.831503 227.793427 459.874420
   vertex -18.355213 227.830093 459.182861
   vertex -17.864346 228.614258 459.562500
  endloop
 facet normal -0.661840 0.619015 -0.422835
  outer loop
   vertex -32.054058 208.461441 448.748779
   vertex -32.091572 208.458542 448.803253
   vertex -19.103933 229.206314 458.848419
  endloop
 facet normal -0.487327 -0.815057 0.313359
  outer loop
   vertex -31.085306 207.945419 448.217712
   vertex -30.886784 207.400925 447.110199
   vertex -30.932379 207.893417 448.320282
  endloop
 facet normal -0.487346 -0.815048 0.313354
  outer loop
   vertex -30.932379 207.893417 448.320282
   vertex -30.886784 207.400925 447.110199
   vertex -30.275074 207.192886 447.520447
  endloop
 facet normal 0.025379 -0.741590 0.670374
  outer loop
   vertex -30.275074 207.192886 447.520447
   vertex -30.797150 207.986710 448.418365
   vertex -30.932379 207.893417 448.320282
  endloop
 facet normal 0.025393 -0.741585 0.670378
  outer loop
   vertex -29.734154 207.566071 447.912781
   vertex -30.797150 207.986710 448.418365
   vertex -30.275074 207.192886 447.520447
  endloop
 facet normal 0.334220 -0.248224 0.909220
  outer loop
   vertex -30.758831 208.170654 448.454498
   vertex -30.797150 207.986710 448.418365
   vertex -29.734154 207.566071 447.912781
  endloop
 facet normal 0.334183 -0.248285 0.909217
  outer loop
   vertex -29.734154 207.566071 447.912781
   vertex -29.580883 208.301865 448.057373
   vertex -30.758831 208.170654 448.454498
  endloop
 facet normal 0.258167 0.375902 0.889970
  outer loop
   vertex -30.758831 208.170654 448.454498
   vertex -29.580883 208.301865 448.057373
   vertex -30.839872 208.337509 448.407532
  endloop
 facet normal 0.258166 0.375917 0.889965
  outer loop
   vertex -30.839872 208.337509 448.407532
   vertex -29.580883 208.301865 448.057373
   vertex -29.905048 208.969254 447.869507
  endloop
 facet normal -0.158171 0.765363 0.623860
  outer loop
   vertex -29.905048 208.969254 447.869507
   vertex -30.992800 208.389511 448.304962
   vertex -30.839872 208.337509 448.407532
  endloop
 facet normal -0.158154 0.765348 0.623883
  outer loop
   vertex -30.516756 209.177292 447.459229
   vertex -30.992800 208.389511 448.304962
   vertex -29.905048 208.969254 447.869507
  endloop
 facet normal -0.670873 0.691892 0.266862
  outer loop
   vertex -31.128031 208.296219 448.206879
   vertex -30.992800 208.389511 448.304962
   vertex -30.516756 209.177292 447.459229
  endloop
 facet normal -0.670883 0.691887 0.266849
  outer loop
   vertex -30.516756 209.177292 447.459229
   vertex -31.057678 208.804108 447.066895
   vertex -31.128031 208.296219 448.206879
  endloop
 facet normal -0.979686 0.198572 0.028009
  outer loop
   vertex -31.128031 208.296219 448.206879
   vertex -31.057678 208.804108 447.066895
   vertex -31.166348 208.112274 448.170746
  endloop
 facet normal -0.979685 0.198575 0.028010
  outer loop
   vertex -31.166348 208.112274 448.170746
   vertex -31.057678 208.804108 447.066895
   vertex -31.210949 208.068329 446.922302
  endloop
 facet normal -0.903672 -0.425609 0.047266
  outer loop
   vertex -31.210949 208.068329 446.922302
   vertex -31.085306 207.945419 448.217712
   vertex -31.166348 208.112274 448.170746
  endloop
 facet normal -0.903669 -0.425615 0.047265
  outer loop
   vertex -30.886784 207.400925 447.110199
   vertex -31.085306 207.945419 448.217712
   vertex -31.210949 208.068329 446.922302
  endloop
 facet normal -0.200219 -0.961371 -0.188888
  outer loop
   vertex -18.775742 228.462936 458.986847
   vertex -18.209066 228.506577 458.164062
   vertex -18.622814 228.410934 459.089417
  endloop
 facet normal -0.200289 -0.961351 -0.188917
  outer loop
   vertex -18.622814 228.410934 459.089417
   vertex -18.209066 228.506577 458.164062
   vertex -18.056139 228.454559 458.266632
  endloop
 facet normal 0.423529 -0.871993 0.245463
  outer loop
   vertex -18.056139 228.454559 458.266632
   vertex -18.487583 228.504227 459.187500
   vertex -18.622814 228.410934 459.089417
  endloop
 facet normal 0.423533 -0.871990 0.245464
  outer loop
   vertex -17.920910 228.547852 458.364716
   vertex -18.487583 228.504227 459.187500
   vertex -18.056139 228.454559 458.266632
  endloop
 facet normal 0.799224 -0.271866 0.536032
  outer loop
   vertex -18.449266 228.688171 459.223663
   vertex -18.487583 228.504227 459.187500
   vertex -17.920910 228.547852 458.364716
  endloop
 facet normal 0.799228 -0.271853 0.536032
  outer loop
   vertex -17.920910 228.547852 458.364716
   vertex -17.882591 228.731812 458.400879
   vertex -18.449266 228.688171 459.223663
  endloop
 facet normal 0.706754 0.487564 0.512622
  outer loop
   vertex -18.449266 228.688171 459.223663
   vertex -17.882591 228.731812 458.400879
   vertex -18.530308 228.855026 459.176697
  endloop
 facet normal 0.706716 0.487670 0.512573
  outer loop
   vertex -18.530308 228.855026 459.176697
   vertex -17.882591 228.731812 458.400879
   vertex -17.963633 228.898651 458.353882
  endloop
 facet normal 0.200233 0.961371 0.188872
  outer loop
   vertex -17.963633 228.898651 458.353882
   vertex -18.683233 228.907028 459.074127
   vertex -18.530308 228.855026 459.176697
  endloop
 facet normal 0.200305 0.961342 0.188944
  outer loop
   vertex -18.116560 228.950668 458.251343
   vertex -18.683233 228.907028 459.074127
   vertex -17.963633 228.898651 458.353882
  endloop
 facet normal -0.423537 0.871992 -0.245451
  outer loop
   vertex -18.818464 228.813736 458.976044
   vertex -18.683233 228.907028 459.074127
   vertex -18.116560 228.950668 458.251343
  endloop
 facet normal -0.423537 0.871992 -0.245451
  outer loop
   vertex -18.116560 228.950668 458.251343
   vertex -18.251791 228.857376 458.153259
   vertex -18.818464 228.813736 458.976044
  endloop
 facet normal -0.799225 0.271874 -0.536027
  outer loop
   vertex -18.818464 228.813736 458.976044
   vertex -18.251791 228.857376 458.153259
   vertex -18.856783 228.629791 458.939880
  endloop
 facet normal -0.799227 0.271845 -0.536037
  outer loop
   vertex -18.856783 228.629791 458.939880
   vertex -18.251791 228.857376 458.153259
   vertex -18.290108 228.673416 458.117096
  endloop
 facet normal -0.706758 -0.487564 -0.512616
  outer loop
   vertex -18.290108 228.673416 458.117096
   vertex -18.775742 228.462936 458.986847
   vertex -18.856783 228.629791 458.939880
  endloop
 facet normal -0.706737 -0.487597 -0.512612
  outer loop
   vertex -18.209066 228.506577 458.164062
   vertex -18.775742 228.462936 458.986847
   vertex -18.290108 228.673416 458.117096
  endloop
 facet normal -0.200251 -0.961360 -0.188908
  outer loop
   vertex -18.016232 227.961639 457.064789
   vertex -17.449558 228.005280 456.242004
   vertex -17.404524 227.753601 457.475067
  endloop
 facet normal -0.200250 -0.961360 -0.188908
  outer loop
   vertex -17.404524 227.753601 457.475067
   vertex -17.449558 228.005280 456.242004
   vertex -16.837849 227.797241 456.652283
  endloop
 facet normal 0.423550 -0.871983 0.245461
  outer loop
   vertex -16.837849 227.797241 456.652283
   vertex -16.863602 228.126785 457.867401
   vertex -17.404524 227.753601 457.475067
  endloop
 facet normal 0.423551 -0.871982 0.245461
  outer loop
   vertex -16.296928 228.170425 457.044617
   vertex -16.863602 228.126785 457.867401
   vertex -16.837849 227.797241 456.652283
  endloop
 facet normal 0.799235 -0.271823 0.536037
  outer loop
   vertex -16.710331 228.862579 458.011993
   vertex -16.863602 228.126785 457.867401
   vertex -16.296928 228.170425 457.044617
  endloop
 facet normal 0.799232 -0.271829 0.536039
  outer loop
   vertex -16.296928 228.170425 457.044617
   vertex -16.143658 228.906204 457.189209
   vertex -16.710331 228.862579 458.011993
  endloop
 facet normal 0.706750 0.487581 0.512610
  outer loop
   vertex -16.710331 228.862579 458.011993
   vertex -16.143658 228.906204 457.189209
   vertex -17.034496 229.529968 457.824127
  endloop
 facet normal 0.706751 0.487589 0.512602
  outer loop
   vertex -17.034496 229.529968 457.824127
   vertex -16.143658 228.906204 457.189209
   vertex -16.467821 229.573608 457.001312
  endloop
 facet normal 0.200254 0.961360 0.188904
  outer loop
   vertex -16.467821 229.573608 457.001312
   vertex -17.646204 229.738007 457.413849
   vertex -17.034496 229.529968 457.824127
  endloop
 facet normal 0.200249 0.961364 0.188889
  outer loop
   vertex -17.079531 229.781631 456.591064
   vertex -17.646204 229.738007 457.413849
   vertex -16.467821 229.573608 457.001312
  endloop
 facet normal -0.423543 0.871984 -0.245472
  outer loop
   vertex -18.187126 229.364822 457.021515
   vertex -17.646204 229.738007 457.413849
   vertex -17.079531 229.781631 456.591064
  endloop
 facet normal -0.423538 0.871991 -0.245452
  outer loop
   vertex -17.079531 229.781631 456.591064
   vertex -17.620453 229.408463 456.198730
   vertex -18.187126 229.364822 457.021515
  endloop
 facet normal -0.799235 0.271823 -0.536037
  outer loop
   vertex -18.187126 229.364822 457.021515
   vertex -17.620453 229.408463 456.198730
   vertex -18.340397 228.629028 456.876923
  endloop
 facet normal -0.799235 0.271822 -0.536038
  outer loop
   vertex -18.340397 228.629028 456.876923
   vertex -17.620453 229.408463 456.198730
   vertex -17.773722 228.672668 456.054138
  endloop
 facet normal -0.706745 -0.487580 -0.512617
  outer loop
   vertex -17.773722 228.672668 456.054138
   vertex -18.016232 227.961639 457.064789
   vertex -18.340397 228.629028 456.876923
  endloop
 facet normal -0.706747 -0.487579 -0.512616
  outer loop
   vertex -17.449558 228.005280 456.242004
   vertex -18.016232 227.961639 457.064789
   vertex -17.773722 228.672668 456.054138
  endloop
 facet normal -0.487329 -0.815060 0.313351
  outer loop
   vertex -18.214754 228.506134 458.172333
   vertex -18.016232 227.961639 457.064789
   vertex -18.061829 228.454132 458.274902
  endloop
 facet normal -0.487356 -0.815046 0.313344
  outer loop
   vertex -18.061829 228.454132 458.274902
   vertex -18.016232 227.961639 457.064789
   vertex -17.404524 227.753601 457.475067
  endloop
 facet normal 0.025379 -0.741590 0.670373
  outer loop
   vertex -17.404524 227.753601 457.475067
   vertex -17.926598 228.547424 458.372986
   vertex -18.061829 228.454132 458.274902
  endloop
 facet normal 0.025393 -0.741585 0.670378
  outer loop
   vertex -16.863602 228.126785 457.867401
   vertex -17.926598 228.547424 458.372986
   vertex -17.404524 227.753601 457.475067
  endloop
 facet normal 0.334220 -0.248224 0.909220
  outer loop
   vertex -17.888279 228.731369 458.409119
   vertex -17.926598 228.547424 458.372986
   vertex -16.863602 228.126785 457.867401
  endloop
 facet normal 0.334183 -0.248285 0.909217
  outer loop
   vertex -16.863602 228.126785 457.867401
   vertex -16.710331 228.862579 458.011993
   vertex -17.888279 228.731369 458.409119
  endloop
 facet normal 0.258161 0.375930 0.889960
  outer loop
   vertex -17.888279 228.731369 458.409119
   vertex -16.710331 228.862579 458.011993
   vertex -17.969320 228.898209 458.362152
  endloop
 facet normal 0.258162 0.375915 0.889966
  outer loop
   vertex -17.969320 228.898209 458.362152
   vertex -16.710331 228.862579 458.011993
   vertex -17.034496 229.529968 457.824127
  endloop
 facet normal -0.158136 0.765333 0.623906
  outer loop
   vertex -17.034496 229.529968 457.824127
   vertex -18.122248 228.950226 458.259583
   vertex -17.969320 228.898209 458.362152
  endloop
 facet normal -0.158154 0.765348 0.623883
  outer loop
   vertex -17.646204 229.738007 457.413849
   vertex -18.122248 228.950226 458.259583
   vertex -17.034496 229.529968 457.824127
  endloop
 facet normal -0.670873 0.691892 0.266862
  outer loop
   vertex -18.257479 228.856934 458.161499
   vertex -18.122248 228.950226 458.259583
   vertex -17.646204 229.738007 457.413849
  endloop
 facet normal -0.670883 0.691887 0.266849
  outer loop
   vertex -17.646204 229.738007 457.413849
   vertex -18.187126 229.364822 457.021515
   vertex -18.257479 228.856934 458.161499
  endloop
 facet normal -0.979686 0.198572 0.028009
  outer loop
   vertex -18.257479 228.856934 458.161499
   vertex -18.187126 229.364822 457.021515
   vertex -18.295795 228.672989 458.125366
  endloop
 facet normal -0.979686 0.198571 0.028008
  outer loop
   vertex -18.295795 228.672989 458.125366
   vertex -18.187126 229.364822 457.021515
   vertex -18.340397 228.629028 456.876923
  endloop
 facet normal -0.903672 -0.425607 0.047271
  outer loop
   vertex -18.340397 228.629028 456.876923
   vertex -18.214754 228.506134 458.172333
   vertex -18.295795 228.672989 458.125366
  endloop
 facet normal -0.903665 -0.425624 0.047269
  outer loop
   vertex -18.016232 227.961639 457.064789
   vertex -18.214754 228.506134 458.172333
   vertex -18.340397 228.629028 456.876923
  endloop
 facet normal -0.200219 -0.961371 -0.188888
  outer loop
   vertex -31.646294 207.902222 449.032227
   vertex -31.079618 207.945862 448.209442
   vertex -31.493366 207.850220 449.134796
  endloop
 facet normal -0.200289 -0.961351 -0.188917
  outer loop
   vertex -31.493366 207.850220 449.134796
   vertex -31.079618 207.945862 448.209442
   vertex -30.926691 207.893845 448.312012
  endloop
 facet normal 0.423529 -0.871993 0.245463
  outer loop
   vertex -30.926691 207.893845 448.312012
   vertex -31.358135 207.943512 449.232880
   vertex -31.493366 207.850220 449.134796
  endloop
 facet normal 0.423533 -0.871990 0.245464
  outer loop
   vertex -30.791462 207.987137 448.410095
   vertex -31.358135 207.943512 449.232880
   vertex -30.926691 207.893845 448.312012
  endloop
 facet normal 0.799224 -0.271866 0.536032
  outer loop
   vertex -31.319818 208.127457 449.269043
   vertex -31.358135 207.943512 449.232880
   vertex -30.791462 207.987137 448.410095
  endloop
 facet normal 0.799228 -0.271853 0.536032
  outer loop
   vertex -30.791462 207.987137 448.410095
   vertex -30.753143 208.171097 448.446259
   vertex -31.319818 208.127457 449.269043
  endloop
 facet normal 0.706757 0.487557 0.512623
  outer loop
   vertex -31.319818 208.127457 449.269043
   vertex -30.753143 208.171097 448.446259
   vertex -31.400858 208.294312 449.222076
  endloop
 facet normal 0.706742 0.487598 0.512605
  outer loop
   vertex -31.400858 208.294312 449.222076
   vertex -30.753143 208.171097 448.446259
   vertex -30.834185 208.337936 448.399292
  endloop
 facet normal 0.200228 0.961371 0.188875
  outer loop
   vertex -30.834185 208.337936 448.399292
   vertex -31.553785 208.346313 449.119507
   vertex -31.400858 208.294312 449.222076
  endloop
 facet normal 0.200281 0.961350 0.188928
  outer loop
   vertex -30.987112 208.389954 448.296722
   vertex -31.553785 208.346313 449.119507
   vertex -30.834185 208.337936 448.399292
  endloop
 facet normal -0.423537 0.871992 -0.245451
  outer loop
   vertex -31.689016 208.253021 449.021423
   vertex -31.553785 208.346313 449.119507
   vertex -30.987112 208.389954 448.296722
  endloop
 facet normal -0.423537 0.871992 -0.245451
  outer loop
   vertex -30.987112 208.389954 448.296722
   vertex -31.122343 208.296661 448.198639
   vertex -31.689016 208.253021 449.021423
  endloop
 facet normal -0.799225 0.271874 -0.536027
  outer loop
   vertex -31.689016 208.253021 449.021423
   vertex -31.122343 208.296661 448.198639
   vertex -31.727335 208.069077 448.985260
  endloop
 facet normal -0.799227 0.271845 -0.536037
  outer loop
   vertex -31.727335 208.069077 448.985260
   vertex -31.122343 208.296661 448.198639
   vertex -31.160660 208.112701 448.162476
  endloop
 facet normal -0.706758 -0.487564 -0.512616
  outer loop
   vertex -31.160660 208.112701 448.162476
   vertex -31.646294 207.902222 449.032227
   vertex -31.727335 208.069077 448.985260
  endloop
 facet normal -0.706737 -0.487597 -0.512612
  outer loop
   vertex -31.079618 207.945862 448.209442
   vertex -31.646294 207.902222 449.032227
   vertex -31.160660 208.112701 448.162476
  endloop
 facet normal -0.706745 -0.487590 -0.512608
  outer loop
   vertex -31.210949 208.068329 446.922302
   vertex -30.644274 208.111954 446.099518
   vertex -30.886784 207.400925 447.110199
  endloop
 facet normal -0.706737 -0.487598 -0.512612
  outer loop
   vertex -30.886784 207.400925 447.110199
   vertex -30.644274 208.111954 446.099518
   vertex -30.320108 207.444565 446.287415
  endloop
 facet normal -0.200256 -0.961358 -0.188912
  outer loop
   vertex -30.320108 207.444565 446.287415
   vertex -30.275074 207.192886 447.520447
   vertex -30.886784 207.400925 447.110199
  endloop
 facet normal -0.200257 -0.961358 -0.188912
  outer loop
   vertex -29.708401 207.236526 446.697662
   vertex -30.275074 207.192886 447.520447
   vertex -30.320108 207.444565 446.287415
  endloop
 facet normal 0.423551 -0.871982 0.245461
  outer loop
   vertex -29.734154 207.566071 447.912781
   vertex -30.275074 207.192886 447.520447
   vertex -29.708401 207.236526 446.697662
  endloop
 facet normal 0.423550 -0.871983 0.245461
  outer loop
   vertex -29.708401 207.236526 446.697662
   vertex -29.167479 207.609711 447.089996
   vertex -29.734154 207.566071 447.912781
  endloop
 facet normal 0.799234 -0.271824 0.536038
  outer loop
   vertex -29.734154 207.566071 447.912781
   vertex -29.167479 207.609711 447.089996
   vertex -29.580883 208.301865 448.057373
  endloop
 facet normal 0.799232 -0.271827 0.536040
  outer loop
   vertex -29.580883 208.301865 448.057373
   vertex -29.167479 207.609711 447.089996
   vertex -29.014210 208.345490 447.234589
  endloop
 facet normal 0.706750 0.487581 0.512610
  outer loop
   vertex -29.014210 208.345490 447.234589
   vertex -29.905048 208.969254 447.869507
   vertex -29.580883 208.301865 448.057373
  endloop
 facet normal 0.706750 0.487570 0.512620
  outer loop
   vertex -29.338373 209.012894 447.046722
   vertex -29.905048 208.969254 447.869507
   vertex -29.014210 208.345490 447.234589
  endloop
 facet normal 0.200250 0.961360 0.188908
  outer loop
   vertex -30.516756 209.177292 447.459229
   vertex -29.905048 208.969254 447.869507
   vertex -29.338373 209.012894 447.046722
  endloop
 facet normal 0.200250 0.961360 0.188908
  outer loop
   vertex -29.338373 209.012894 447.046722
   vertex -29.950083 209.220932 446.636444
   vertex -30.516756 209.177292 447.459229
  endloop
 facet normal -0.423550 0.871983 -0.245461
  outer loop
   vertex -30.516756 209.177292 447.459229
   vertex -29.950083 209.220932 446.636444
   vertex -31.057678 208.804108 447.066895
  endloop
 facet normal -0.423551 0.871982 -0.245462
  outer loop
   vertex -31.057678 208.804108 447.066895
   vertex -29.950083 209.220932 446.636444
   vertex -30.491003 208.847748 446.244110
  endloop
 facet normal -0.799233 0.271829 -0.536037
  outer loop
   vertex -30.491003 208.847748 446.244110
   vertex -31.210949 208.068329 446.922302
   vertex -31.057678 208.804108 447.066895
  endloop
 facet normal -0.799232 0.271824 -0.536041
  outer loop
   vertex -30.644274 208.111954 446.099518
   vertex -31.210949 208.068329 446.922302
   vertex -30.491003 208.847748 446.244110
  endloop
endsolid