solid stl file generated from DOUG
 facet normal -0.251503 -0.050875 0.966518
  outer loop
   vertex 4.590392 226.168304 477.291809
   vertex 4.722200 226.166626 477.326019
   vertex 4.713751 235.403488 477.810028
  endloop
 endfacet

 facet normal 0.629338 -0.040092 0.776097
  outer loop
   vertex 4.713751 235.403488 477.810028
   vertex 4.722200 226.166626 477.326019
   vertex 4.793605 235.406952 477.745453
  endloop
 endfacet

 facet normal 0.998990 0.003262 -0.044805
  outer loop
   vertex 3.723574 235.368011 478.469940
   vertex 3.729691 235.360886 478.605804
   vertex 3.738140 226.124023 478.121796
  endloop
 endfacet

 facet normal 0.629332 -0.040092 0.776101
  outer loop
   vertex 3.738140 226.124023 478.121796
   vertex 3.729691 235.360886 478.605804
   vertex 3.649836 235.357437 478.670380
  endloop
 endfacet

 facet normal 0.629332 -0.040092 0.776101
  outer loop
   vertex 3.649836 235.357437 478.670380
   vertex 3.658285 226.120575 478.186371
   vertex 3.738140 226.124023 478.121796
  endloop
 endfacet

 facet normal 0.308700 -0.049491 0.949871
  outer loop
   vertex 3.188704 235.386810 478.101715
   vertex 3.197153 226.149948 477.617706
   vertex 3.220723 235.387390 478.091339
  endloop
 endfacet

 facet normal 0.308679 -0.049491 0.949878
  outer loop
   vertex 3.220723 235.387390 478.091339
   vertex 3.197153 226.149948 477.617706
   vertex 3.229172 226.150513 477.607330
  endloop
 endfacet

 facet normal -0.777133 -0.033641 0.628437
  outer loop
   vertex 3.229172 226.150513 477.607330
   vertex 3.591141 226.127457 478.053711
   vertex 3.220723 235.387390 478.091339
  endloop
 endfacet

 facet normal -0.251503 -0.050875 0.966518
  outer loop
   vertex 4.713751 235.403488 477.810028
   vertex 4.581943 235.405167 477.775818
   vertex 4.590392 226.168304 477.291809
  endloop
 endfacet

 facet normal 0.629332 -0.040092 0.776102
  outer loop
   vertex 4.590392 226.168304 477.291809
   vertex 4.581943 235.405167 477.775818
   vertex 3.723574 235.368011 478.469940
  endloop
 endfacet

 facet normal 0.629333 -0.040092 0.776101
  outer loop
   vertex 3.723574 235.368011 478.469940
   vertex 3.732023 226.131134 477.985931
   vertex 4.590392 226.168304 477.291809
  endloop
 endfacet

 facet normal 0.998990 0.003262 -0.044806
  outer loop
   vertex 3.738140 226.124023 478.121796
   vertex 3.732023 226.131134 477.985931
   vertex 3.723574 235.368011 478.469940
  endloop
 endfacet

 facet normal -0.777133 -0.033641 0.628437
  outer loop
   vertex 3.658285 226.120575 478.186371
   vertex 3.649836 235.357437 478.670380
   vertex 3.574320 226.125916 478.082825
  endloop
 endfacet

 facet normal -0.777133 -0.033641 0.628437
  outer loop
   vertex 3.574320 226.125916 478.082825
   vertex 3.649836 235.357437 478.670380
   vertex 3.565871 235.362778 478.566833
  endloop
 endfacet

 facet normal -0.866175 0.025360 -0.499096
  outer loop
   vertex 3.565871 235.362778 478.566833
   vertex 3.591141 226.127457 478.053711
   vertex 3.574320 226.125916 478.082825
  endloop
 endfacet

 facet normal -0.866175 0.025360 -0.499096
  outer loop
   vertex 3.582692 235.364319 478.537720
   vertex 3.591141 226.127457 478.053711
   vertex 3.565871 235.362778 478.566833
  endloop
 endfacet

 facet normal -0.777133 -0.033641 0.628436
  outer loop
   vertex 3.220723 235.387390 478.091339
   vertex 3.591141 226.127457 478.053711
   vertex 3.582692 235.364319 478.537720
  endloop
 endfacet

 facet normal -0.000906 0.998629 0.052337
  outer loop
   vertex 4.818130 235.944366 477.777435
   vertex 3.118915 235.927414 478.071472
   vertex 3.647875 235.893707 478.723785
  endloop
 endfacet

 facet normal -0.777132 -0.033647 0.628437
  outer loop
   vertex 3.647875 235.893707 478.723785
   vertex 3.118915 235.927414 478.071472
   vertex 3.648788 234.895081 478.671448
  endloop
 endfacet

 facet normal 0.629340 -0.040099 0.776095
  outer loop
   vertex 3.648788 234.895081 478.671448
   vertex 4.819044 234.945740 477.725098
   vertex 3.647875 235.893707 478.723785
  endloop
 endfacet

 facet normal 0.000918 -0.998630 -0.052323
  outer loop
   vertex 3.119828 234.928772 478.019135
   vertex 4.819044 234.945740 477.725098
   vertex 3.648788 234.895081 478.671448
  endloop
 endfacet

 facet normal 0.000918 -0.998630 -0.052323
  outer loop
   vertex 4.290084 234.979431 477.072784
   vertex 4.819044 234.945740 477.725098
   vertex 3.119828 234.928772 478.019135
  endloop
 endfacet

 facet normal -0.629340 0.040099 -0.776095
  outer loop
   vertex 3.119828 234.928772 478.019135
   vertex 3.118915 235.927414 478.071472
   vertex 4.290084 234.979431 477.072784
  endloop
 endfacet

 facet normal -0.629340 0.040099 -0.776095
  outer loop
   vertex 4.290084 234.979431 477.072784
   vertex 3.118915 235.927414 478.071472
   vertex 4.289170 235.978058 477.125122
  endloop
 endfacet

 facet normal -0.000910 0.998630 0.052316
  outer loop
   vertex 4.289170 235.978058 477.125122
   vertex 3.118915 235.927414 478.071472
   vertex 4.818130 235.944366 477.777435
  endloop
 endfacet

 facet normal 0.777132 0.033647 -0.628437
  outer loop
   vertex 4.818130 235.944366 477.777435
   vertex 4.819044 234.945740 477.725098
   vertex 4.289170 235.978058 477.125122
  endloop
 endfacet

 facet normal 0.629340 -0.040099 0.776095
  outer loop
   vertex 3.647875 235.893707 478.723785
   vertex 4.819044 234.945740 477.725098
   vertex 4.818130 235.944366 477.777435
  endloop
 endfacet

 facet normal -0.000918 0.998630 0.052323
  outer loop
   vertex 3.656394 226.580276 478.235748
   vertex 4.826649 226.630936 477.289398
   vertex 3.127434 226.613968 477.583435
  endloop
 endfacet

 facet normal -0.000918 0.998630 0.052325
  outer loop
   vertex 3.127434 226.613968 477.583435
   vertex 4.826649 226.630936 477.289398
   vertex 4.297689 226.664627 476.637115
  endloop
 endfacet

 facet normal -0.629328 0.040100 -0.776105
  outer loop
   vertex 4.297689 226.664627 476.637115
   vertex 4.298603 225.666000 476.584778
   vertex 3.127434 226.613968 477.583435
  endloop
 endfacet

 facet normal 0.777118 0.033648 -0.628455
  outer loop
   vertex 4.826649 226.630936 477.289398
   vertex 4.298603 225.666000 476.584778
   vertex 4.297689 226.664627 476.637115
  endloop
 endfacet

 facet normal 0.777132 0.033628 -0.628438
  outer loop
   vertex 4.827563 225.632309 477.237091
   vertex 4.298603 225.666000 476.584778
   vertex 4.826649 226.630936 477.289398
  endloop
 endfacet

 facet normal 0.629340 -0.040075 0.776096
  outer loop
   vertex 4.826649 226.630936 477.289398
   vertex 3.657307 225.581650 478.183441
   vertex 4.827563 225.632309 477.237091
  endloop
 endfacet

 facet normal 0.000918 -0.998630 -0.052323
  outer loop
   vertex 4.827563 225.632309 477.237091
   vertex 3.657307 225.581650 478.183441
   vertex 4.298603 225.666000 476.584778
  endloop
 endfacet

 facet normal 0.000918 -0.998630 -0.052323
  outer loop
   vertex 4.298603 225.666000 476.584778
   vertex 3.657307 225.581650 478.183441
   vertex 3.128347 225.615341 477.531128
  endloop
 endfacet

 facet normal -0.629340 0.040076 -0.776096
  outer loop
   vertex 3.128347 225.615341 477.531128
   vertex 3.127434 226.613968 477.583435
   vertex 4.298603 225.666000 476.584778
  endloop
 endfacet

 facet normal -0.777132 -0.033628 0.628439
  outer loop
   vertex 3.657307 225.581650 478.183441
   vertex 3.127434 226.613968 477.583435
   vertex 3.128347 225.615341 477.531128
  endloop
 endfacet

 facet normal -0.777132 -0.033628 0.628439
  outer loop
   vertex 3.656394 226.580276 478.235748
   vertex 3.127434 226.613968 477.583435
   vertex 3.657307 225.581650 478.183441
  endloop
 endfacet

 facet normal 0.629340 -0.040076 0.776096
  outer loop
   vertex 3.657307 225.581650 478.183441
   vertex 4.826649 226.630936 477.289398
   vertex 3.656394 226.580276 478.235748
  endloop
 endfacet

 facet normal 0.629333 -0.040092 0.776101
  outer loop
   vertex 4.722200 226.166626 477.326019
   vertex 4.802054 226.170074 477.261444
   vertex 4.793605 235.406952 477.745453
  endloop
 endfacet

 facet normal 0.777134 0.033641 -0.628436
  outer loop
   vertex 4.793605 235.406952 477.745453
   vertex 4.802054 226.170074 477.261444
   vertex 4.718089 226.175430 477.157898
  endloop
 endfacet

 facet normal 0.777131 0.033641 -0.628439
  outer loop
   vertex 4.718089 226.175430 477.157898
   vertex 4.709640 235.412292 477.641907
   vertex 4.793605 235.406952 477.745453
  endloop
 endfacet

 facet normal -0.308702 0.049491 -0.949870
  outer loop
   vertex 4.686069 226.174850 477.168274
   vertex 4.709640 235.412292 477.641907
   vertex 4.718089 226.175430 477.157898
  endloop
 endfacet

 facet normal -0.308681 0.049491 -0.949877
  outer loop
   vertex 4.677620 235.411728 477.652283
   vertex 4.709640 235.412292 477.641907
   vertex 4.686069 226.174850 477.168274
  endloop
 endfacet

 facet normal 0.777133 0.033641 -0.628436
  outer loop
   vertex 4.686069 226.174850 477.168274
   vertex 4.324101 226.197922 476.721893
   vertex 4.677620 235.411728 477.652283
  endloop
 endfacet

 facet normal 0.777133 0.033641 -0.628437
  outer loop
   vertex 4.677620 235.411728 477.652283
   vertex 4.324101 226.197922 476.721893
   vertex 4.315652 235.434784 477.205902
  endloop
 endfacet

 facet normal 0.866179 -0.025360 0.499091
  outer loop
   vertex 4.315652 235.434784 477.205902
   vertex 4.324101 226.197922 476.721893
   vertex 4.340921 226.199463 476.692780
  endloop
 endfacet

 facet normal 0.866179 -0.025360 0.499091
  outer loop
   vertex 4.340921 226.199463 476.692780
   vertex 4.332472 235.436325 477.176788
   vertex 4.315652 235.434784 477.205902
  endloop
 endfacet

 facet normal 0.777218 0.033635 -0.628331
  outer loop
   vertex 4.299260 226.202118 476.641388
   vertex 4.332472 235.436325 477.176788
   vertex 4.340921 226.199463 476.692780
  endloop
 endfacet

 facet normal 0.777218 0.033635 -0.628331
  outer loop
   vertex 4.290811 235.438980 477.125397
   vertex 4.332472 235.436325 477.176788
   vertex 4.299260 226.202118 476.641388
  endloop
 endfacet

 facet normal -0.629351 0.040091 -0.776087
  outer loop
   vertex 4.299260 226.202118 476.641388
   vertex 3.155490 226.152603 477.566345
   vertex 4.290811 235.438980 477.125397
  endloop
 endfacet

 facet normal -0.629351 0.040091 -0.776087
  outer loop
   vertex 4.290811 235.438980 477.125397
   vertex 3.155490 226.152603 477.566345
   vertex 3.147041 235.389465 478.050354
  endloop
 endfacet

 facet normal -0.777031 -0.033647 0.628563
  outer loop
   vertex 3.147041 235.389465 478.050354
   vertex 3.155490 226.152603 477.566345
   vertex 3.188704 235.386810 478.101715
  endloop
 endfacet

 facet normal -0.777132 -0.033646 0.628438
  outer loop
   vertex 3.119828 234.928772 478.019135
   vertex 3.648788 234.895081 478.671448
   vertex 3.118915 235.927414 478.071472
  endloop
 endfacet

 facet normal 0.777132 0.033647 -0.628437
  outer loop
   vertex 4.819044 234.945740 477.725098
   vertex 4.290084 234.979431 477.072784
   vertex 4.289170 235.978058 477.125122
  endloop
 endfacet

 facet normal -0.777031 -0.033647 0.628563
  outer loop
   vertex 3.155490 226.152603 477.566345
   vertex 3.197153 226.149948 477.617706
   vertex 3.188704 235.386810 478.101715
  endloop
 endfacet

 facet normal 0.298238 -0.909737 -0.288848
  outer loop
   vertex 2.492686 225.207275 475.525116
   vertex 1.863348 225.247375 474.749023
   vertex 3.041933 225.523560 475.096069
  endloop
 endfacet

 facet normal 0.298238 -0.909737 -0.288848
  outer loop
   vertex 3.041933 225.523560 475.096069
   vertex 1.863348 225.247375 474.749023
   vertex 2.412595 225.563660 474.319977
  endloop
 endfacet

 facet normal 0.718321 -0.351080 -0.600631
  outer loop
   vertex 2.412595 225.563660 474.319977
   vertex 3.268903 226.239548 474.949005
   vertex 3.041933 225.523560 475.096069
  endloop
 endfacet

 facet normal 0.718321 -0.351080 -0.600631
  outer loop
   vertex 2.639565 226.279648 474.172913
   vertex 3.268903 226.239548 474.949005
   vertex 2.412595 225.563660 474.319977
  endloop
 endfacet

 facet normal 0.717627 0.413238 -0.560577
  outer loop
   vertex 3.040641 226.935837 475.170074
   vertex 3.268903 226.239548 474.949005
   vertex 2.639565 226.279648 474.172913
  endloop
 endfacet

 facet normal 0.717620 0.413246 -0.560579
  outer loop
   vertex 2.639565 226.279648 474.172913
   vertex 2.411303 226.975922 474.393982
   vertex 3.040641 226.935837 475.170074
  endloop
 endfacet

 facet normal 0.296552 0.935485 -0.192159
  outer loop
   vertex 3.040641 226.935837 475.170074
   vertex 2.411303 226.975922 474.393982
   vertex 2.490860 227.204544 475.629761
  endloop
 endfacet

 facet normal 0.296552 0.935485 -0.192159
  outer loop
   vertex 2.490860 227.204544 475.629761
   vertex 2.411303 226.975922 474.393982
   vertex 1.861521 227.244629 474.853668
  endloop
 endfacet

 facet normal -0.298246 0.909737 0.288837
  outer loop
   vertex 1.861521 227.244629 474.853668
   vertex 1.941613 226.888260 476.058807
   vertex 2.490860 227.204544 475.629761
  endloop
 endfacet

 facet normal -0.298225 0.909744 0.288838
  outer loop
   vertex 1.312274 226.928360 475.282715
   vertex 1.941613 226.888260 476.058807
   vertex 1.861521 227.244629 474.853668
  endloop
 endfacet

 facet normal -0.718321 0.351080 0.600631
  outer loop
   vertex 1.714642 226.172272 476.205872
   vertex 1.941613 226.888260 476.058807
   vertex 1.312274 226.928360 475.282715
  endloop
 endfacet

 facet normal -0.718326 0.351073 0.600628
  outer loop
   vertex 1.312274 226.928360 475.282715
   vertex 1.085304 226.212357 475.429779
   vertex 1.714642 226.172272 476.205872
  endloop
 endfacet

 facet normal -0.717629 -0.413218 0.560588
  outer loop
   vertex 1.714642 226.172272 476.205872
   vertex 1.085304 226.212357 475.429779
   vertex 1.942904 225.475983 475.984833
  endloop
 endfacet

 facet normal -0.717635 -0.413245 0.560561
  outer loop
   vertex 1.942904 225.475983 475.984833
   vertex 1.085304 226.212357 475.429779
   vertex 1.313565 225.516083 475.208710
  endloop
 endfacet

 facet normal -0.296559 -0.935487 0.192138
  outer loop
   vertex 1.313565 225.516083 475.208710
   vertex 2.492686 225.207275 475.525116
   vertex 1.942904 225.475983 475.984833
  endloop
 endfacet

 facet normal -0.296561 -0.935484 0.192147
  outer loop
   vertex 1.863348 225.247375 474.749023
   vertex 2.492686 225.207275 475.525116
   vertex 1.313565 225.516083 475.208710
  endloop
 endfacet

 facet normal -0.298262 0.909723 0.288868
  outer loop
   vertex 2.968713 235.673996 476.955353
   vertex 3.735364 235.712967 477.624207
   vertex 3.106025 235.753067 476.848114
  endloop
 endfacet

 facet normal 0.296529 0.935500 -0.192121
  outer loop
   vertex 3.106025 235.753067 476.848114
   vertex 3.735364 235.712967 477.624207
   vertex 3.872809 235.645798 477.509277
  endloop
 endfacet

 facet normal 0.296573 0.935475 -0.192176
  outer loop
   vertex 3.872809 235.645798 477.509277
   vertex 3.243471 235.685883 476.733185
   vertex 3.106025 235.753067 476.848114
  endloop
 endfacet

 facet normal 0.717623 0.413239 -0.560581
  outer loop
   vertex 3.929875 235.471725 477.454010
   vertex 3.243471 235.685883 476.733185
   vertex 3.872809 235.645798 477.509277
  endloop
 endfacet

 facet normal 0.717617 0.413268 -0.560567
  outer loop
   vertex 3.300536 235.511826 476.677917
   vertex 3.243471 235.685883 476.733185
   vertex 3.929875 235.471725 477.454010
  endloop
 endfacet

 facet normal 0.718316 -0.351096 -0.600628
  outer loop
   vertex 3.929875 235.471725 477.454010
   vertex 3.873132 235.292725 477.490784
   vertex 3.300536 235.511826 476.677917
  endloop
 endfacet

 facet normal 0.718356 -0.351007 -0.600632
  outer loop
   vertex 3.300536 235.511826 476.677917
   vertex 3.873132 235.292725 477.490784
   vertex 3.243793 235.332825 476.714661
  endloop
 endfacet

 facet normal 0.298268 -0.909723 -0.288861
  outer loop
   vertex 3.243793 235.332825 476.714661
   vertex 3.873132 235.292725 477.490784
   vertex 3.735821 235.213654 477.598022
  endloop
 endfacet

 facet normal 0.298229 -0.909742 -0.288842
  outer loop
   vertex 3.735821 235.213654 477.598022
   vertex 3.106482 235.253754 476.821930
   vertex 3.243793 235.332825 476.714661
  endloop
 endfacet

 facet normal -0.296582 -0.935474 0.192165
  outer loop
   vertex 3.598375 235.280838 477.712952
   vertex 3.106482 235.253754 476.821930
   vertex 3.735821 235.213654 477.598022
  endloop
 endfacet

 facet normal -0.296520 -0.935501 0.192132
  outer loop
   vertex 2.969036 235.320923 476.936859
   vertex 3.106482 235.253754 476.821930
   vertex 3.598375 235.280838 477.712952
  endloop
 endfacet

 facet normal -0.717623 -0.413238 0.560582
  outer loop
   vertex 3.598375 235.280838 477.712952
   vertex 3.541310 235.454910 477.768219
   vertex 2.969036 235.320923 476.936859
  endloop
 endfacet

 facet normal -0.717623 -0.413238 0.560582
  outer loop
   vertex 2.969036 235.320923 476.936859
   vertex 3.541310 235.454910 477.768219
   vertex 2.911971 235.494995 476.992126
  endloop
 endfacet

 facet normal -0.718319 0.351095 0.600624
  outer loop
   vertex 2.911971 235.494995 476.992126
   vertex 3.541310 235.454910 477.768219
   vertex 3.598052 235.633911 477.731445
  endloop
 endfacet

 facet normal -0.718319 0.351095 0.600624
  outer loop
   vertex 3.598052 235.633911 477.731445
   vertex 2.968713 235.673996 476.955353
   vertex 2.911971 235.494995 476.992126
  endloop
 endfacet

 facet normal -0.298219 0.909753 0.288816
  outer loop
   vertex 3.735364 235.712967 477.624207
   vertex 2.968713 235.673996 476.955353
   vertex 3.598052 235.633911 477.731445
  endloop
 endfacet

 facet normal -0.298246 0.909737 0.288837
  outer loop
   vertex 1.303733 236.265533 475.772003
   vertex 2.482319 236.541733 476.119049
   vertex 1.852980 236.581818 475.342957
  endloop
 endfacet

 facet normal 0.296546 0.935488 -0.192154
  outer loop
   vertex 1.852980 236.581818 475.342957
   vertex 2.482319 236.541733 476.119049
   vertex 3.032100 236.273026 475.659332
  endloop
 endfacet

 facet normal 0.296546 0.935488 -0.192154
  outer loop
   vertex 3.032100 236.273026 475.659332
   vertex 2.402762 236.313110 474.883240
   vertex 1.852980 236.581818 475.342957
  endloop
 endfacet

 facet normal 0.717623 0.413239 -0.560582
  outer loop
   vertex 3.260363 235.576736 475.438263
   vertex 2.402762 236.313110 474.883240
   vertex 3.032100 236.273026 475.659332
  endloop
 endfacet

 facet normal 0.717624 0.413246 -0.560574
  outer loop
   vertex 2.631024 235.616837 474.662170
   vertex 2.402762 236.313110 474.883240
   vertex 3.260363 235.576736 475.438263
  endloop
 endfacet

 facet normal 0.718321 -0.351080 -0.600631
  outer loop
   vertex 3.260363 235.576736 475.438263
   vertex 3.033392 234.860748 475.585327
   vertex 2.631024 235.616837 474.662170
  endloop
 endfacet

 facet normal 0.718326 -0.351073 -0.600629
  outer loop
   vertex 2.631024 235.616837 474.662170
   vertex 3.033392 234.860748 475.585327
   vertex 2.404053 234.900833 474.809235
  endloop
 endfacet

 facet normal 0.298246 -0.909737 -0.288838
  outer loop
   vertex 2.404053 234.900833 474.809235
   vertex 3.033392 234.860748 475.585327
   vertex 2.484146 234.544464 476.014374
  endloop
 endfacet

 facet normal 0.298225 -0.909744 -0.288838
  outer loop
   vertex 2.484146 234.544464 476.014374
   vertex 1.854807 234.584564 475.238281
   vertex 2.404053 234.900833 474.809235
  endloop
 endfacet

 facet normal -0.296555 -0.935487 0.192143
  outer loop
   vertex 1.934364 234.813171 476.474091
   vertex 1.854807 234.584564 475.238281
   vertex 2.484146 234.544464 476.014374
  endloop
 endfacet

 facet normal -0.296533 -0.935494 0.192143
  outer loop
   vertex 1.305025 234.853256 475.697998
   vertex 1.854807 234.584564 475.238281
   vertex 1.934364 234.813171 476.474091
  endloop
 endfacet

 facet normal -0.717623 -0.413239 0.560581
  outer loop
   vertex 1.934364 234.813171 476.474091
   vertex 1.706101 235.509460 476.695160
   vertex 1.305025 234.853256 475.697998
  endloop
 endfacet

 facet normal -0.717623 -0.413239 0.560581
  outer loop
   vertex 1.305025 234.853256 475.697998
   vertex 1.706101 235.509460 476.695160
   vertex 1.076763 235.549545 475.919067
  endloop
 endfacet

 facet normal -0.718324 0.351080 0.600627
  outer loop
   vertex 1.076763 235.549545 475.919067
   vertex 1.706101 235.509460 476.695160
   vertex 1.933071 236.225449 476.548096
  endloop
 endfacet

 facet normal -0.718324 0.351080 0.600627
  outer loop
   vertex 1.933071 236.225449 476.548096
   vertex 1.303733 236.265533 475.772003
   vertex 1.076763 235.549545 475.919067
  endloop
 endfacet

 facet normal -0.298246 0.909737 0.288837
  outer loop
   vertex 2.482319 236.541733 476.119049
   vertex 1.303733 236.265533 475.772003
   vertex 1.933071 236.225449 476.548096
  endloop
 endfacet

 facet normal 0.113292 0.724934 0.679438
  outer loop
   vertex 1.933071 236.225449 476.548096
   vertex 3.112342 235.752670 476.855896
   vertex 2.482319 236.541733 476.119049
  endloop
 endfacet

 facet normal 0.602214 0.746091 0.284052
  outer loop
   vertex 2.482319 236.541733 476.119049
   vertex 3.112342 235.752670 476.855896
   vertex 3.249788 235.685486 476.740967
  endloop
 endfacet

 facet normal 0.602197 0.746095 0.284079
  outer loop
   vertex 3.249788 235.685486 476.740967
   vertex 3.032100 236.273026 475.659332
   vertex 2.482319 236.541733 476.119049
  endloop
 endfacet

 facet normal 0.948297 0.316830 -0.018751
  outer loop
   vertex 3.306853 235.511414 476.685699
   vertex 3.032100 236.273026 475.659332
   vertex 3.249788 235.685486 476.740967
  endloop
 endfacet

 facet normal 0.948297 0.316830 -0.018751
  outer loop
   vertex 3.260363 235.576736 475.438263
   vertex 3.032100 236.273026 475.659332
   vertex 3.306853 235.511414 476.685699
  endloop
 endfacet

 facet normal 0.948872 -0.311404 -0.051670
  outer loop
   vertex 3.306853 235.511414 476.685699
   vertex 3.250111 235.332413 476.722473
   vertex 3.260363 235.576736 475.438263
  endloop
 endfacet

 facet normal 0.948870 -0.311408 -0.051671
  outer loop
   vertex 3.260363 235.576736 475.438263
   vertex 3.250111 235.332413 476.722473
   vertex 3.033392 234.860748 475.585327
  endloop
 endfacet

 facet normal 0.603558 -0.770618 0.204609
  outer loop
   vertex 3.033392 234.860748 475.585327
   vertex 3.250111 235.332413 476.722473
   vertex 3.112799 235.253342 476.829712
  endloop
 endfacet

 facet normal 0.603580 -0.770603 0.204603
  outer loop
   vertex 3.112799 235.253342 476.829712
   vertex 2.484146 234.544464 476.014374
   vertex 3.033392 234.860748 475.585327
  endloop
 endfacet

 facet normal 0.114664 -0.791762 0.599970
  outer loop
   vertex 2.975353 235.320526 476.944641
   vertex 2.484146 234.544464 476.014374
   vertex 3.112799 235.253342 476.829712
  endloop
 endfacet

 facet normal 0.114695 -0.791767 0.599958
  outer loop
   vertex 1.934364 234.813171 476.474091
   vertex 2.484146 234.544464 476.014374
   vertex 2.975353 235.320526 476.944641
  endloop
 endfacet

 facet normal -0.231411 -0.362498 0.902798
  outer loop
   vertex 2.975353 235.320526 476.944641
   vertex 2.918288 235.494598 476.999908
   vertex 1.934364 234.813171 476.474091
  endloop
 endfacet

 facet normal -0.231411 -0.362498 0.902798
  outer loop
   vertex 1.934364 234.813171 476.474091
   vertex 2.918288 235.494598 476.999908
   vertex 1.706101 235.509460 476.695160
  endloop
 endfacet

 facet normal -0.231994 0.265620 0.935748
  outer loop
   vertex 1.706101 235.509460 476.695160
   vertex 2.918288 235.494598 476.999908
   vertex 2.975030 235.673599 476.963165
  endloop
 endfacet

 facet normal -0.232002 0.265741 0.935712
  outer loop
   vertex 2.975030 235.673599 476.963165
   vertex 1.933071 236.225449 476.548096
   vertex 1.706101 235.509460 476.695160
  endloop
 endfacet

 facet normal 0.113304 0.724951 0.679418
  outer loop
   vertex 3.112342 235.752670 476.855896
   vertex 1.933071 236.225449 476.548096
   vertex 2.975030 235.673599 476.963165
  endloop
 endfacet

 facet normal 0.298186 -0.909772 -0.288790
  outer loop
   vertex 3.744361 225.876480 477.108765
   vertex 3.115023 225.916565 476.332672
   vertex 3.881673 225.955536 477.001495
  endloop
 endfacet

 facet normal 0.298229 -0.909742 -0.288842
  outer loop
   vertex 3.881673 225.955536 477.001495
   vertex 3.115023 225.916565 476.332672
   vertex 3.252334 225.995636 476.225403
  endloop
 endfacet

 facet normal 0.718344 -0.351006 -0.600646
  outer loop
   vertex 3.252334 225.995636 476.225403
   vertex 3.938416 226.134537 476.964752
   vertex 3.881673 225.955536 477.001495
  endloop
 endfacet

 facet normal 0.718327 -0.351097 -0.600614
  outer loop
   vertex 3.309077 226.174637 476.188629
   vertex 3.938416 226.134537 476.964752
   vertex 3.252334 225.995636 476.225403
  endloop
 endfacet

 facet normal 0.717664 0.413157 -0.560589
  outer loop
   vertex 3.881350 226.308609 477.019989
   vertex 3.938416 226.134537 476.964752
   vertex 3.309077 226.174637 476.188629
  endloop
 endfacet

 facet normal 0.717627 0.413238 -0.560577
  outer loop
   vertex 3.309077 226.174637 476.188629
   vertex 3.252012 226.348709 476.243896
   vertex 3.881350 226.308609 477.019989
  endloop
 endfacet

 facet normal 0.296582 0.935474 -0.192165
  outer loop
   vertex 3.881350 226.308609 477.019989
   vertex 3.252012 226.348709 476.243896
   vertex 3.743905 226.375793 477.134918
  endloop
 endfacet

 facet normal 0.296520 0.935501 -0.192132
  outer loop
   vertex 3.743905 226.375793 477.134918
   vertex 3.252012 226.348709 476.243896
   vertex 3.114566 226.415878 476.358826
  endloop
 endfacet

 facet normal -0.298238 0.909742 0.288831
  outer loop
   vertex 3.114566 226.415878 476.358826
   vertex 3.606593 226.296722 477.242188
   vertex 3.743905 226.375793 477.134918
  endloop
 endfacet

 facet normal -0.298238 0.909742 0.288831
  outer loop
   vertex 2.977254 226.336807 476.466095
   vertex 3.606593 226.296722 477.242188
   vertex 3.114566 226.415878 476.358826
  endloop
 endfacet

 facet normal -0.718320 0.351095 0.600624
  outer loop
   vertex 3.549850 226.117722 477.278961
   vertex 3.606593 226.296722 477.242188
   vertex 2.977254 226.336807 476.466095
  endloop
 endfacet

 facet normal -0.718319 0.351096 0.600624
  outer loop
   vertex 2.977254 226.336807 476.466095
   vertex 2.920512 226.157806 476.502869
   vertex 3.549850 226.117722 477.278961
  endloop
 endfacet

 facet normal -0.717623 -0.413238 0.560582
  outer loop
   vertex 3.549850 226.117722 477.278961
   vertex 2.920512 226.157806 476.502869
   vertex 3.606916 225.943649 477.223694
  endloop
 endfacet

 facet normal -0.717623 -0.413238 0.560582
  outer loop
   vertex 3.606916 225.943649 477.223694
   vertex 2.920512 226.157806 476.502869
   vertex 2.977577 225.983734 476.447601
  endloop
 endfacet

 facet normal -0.296520 -0.935501 0.192132
  outer loop
   vertex 2.977577 225.983734 476.447601
   vertex 3.744361 225.876480 477.108765
   vertex 3.606916 225.943649 477.223694
  endloop
 endfacet

 facet normal -0.296520 -0.935501 0.192132
  outer loop
   vertex 3.115023 225.916565 476.332672
   vertex 3.744361 225.876480 477.108765
   vertex 2.977577 225.983734 476.447601
  endloop
 endfacet

 facet normal 0.114712 -0.791782 0.599935
  outer loop
   vertex 2.983894 225.983337 476.455383
   vertex 1.942904 225.475983 475.984833
   vertex 3.121340 225.916168 476.340454
  endloop
 endfacet

 facet normal 0.114698 -0.791765 0.599961
  outer loop
   vertex 3.121340 225.916168 476.340454
   vertex 1.942904 225.475983 475.984833
   vertex 2.492686 225.207275 475.525116
  endloop
 endfacet

 facet normal 0.603549 -0.770614 0.204651
  outer loop
   vertex 2.492686 225.207275 475.525116
   vertex 3.258651 225.995224 476.233185
   vertex 3.121340 225.916168 476.340454
  endloop
 endfacet

 facet normal 0.603580 -0.770603 0.204605
  outer loop
   vertex 3.041933 225.523560 475.096069
   vertex 3.258651 225.995224 476.233185
   vertex 2.492686 225.207275 475.525116
  endloop
 endfacet

 facet normal 0.948874 -0.311397 -0.051678
  outer loop
   vertex 3.315394 226.174225 476.196442
   vertex 3.258651 225.995224 476.233185
   vertex 3.041933 225.523560 475.096069
  endloop
 endfacet

 facet normal 0.948870 -0.311408 -0.051671
  outer loop
   vertex 3.041933 225.523560 475.096069
   vertex 3.268903 226.239548 474.949005
   vertex 3.315394 226.174225 476.196442
  endloop
 endfacet

 facet normal 0.948297 0.316830 -0.018751
  outer loop
   vertex 3.315394 226.174225 476.196442
   vertex 3.268903 226.239548 474.949005
   vertex 3.258329 226.348297 476.251709
  endloop
 endfacet

 facet normal 0.948297 0.316830 -0.018751
  outer loop
   vertex 3.258329 226.348297 476.251709
   vertex 3.268903 226.239548 474.949005
   vertex 3.040641 226.935837 475.170074
  endloop
 endfacet

 facet normal 0.602221 0.746081 0.284066
  outer loop
   vertex 3.040641 226.935837 475.170074
   vertex 3.120883 226.415482 476.366638
   vertex 3.258329 226.348297 476.251709
  endloop
 endfacet

 facet normal 0.602186 0.746104 0.284079
  outer loop
   vertex 2.490860 227.204544 475.629761
   vertex 3.120883 226.415482 476.366638
   vertex 3.040641 226.935837 475.170074
  endloop
 endfacet

 facet normal 0.113209 0.724920 0.679466
  outer loop
   vertex 2.983572 226.336411 476.473877
   vertex 3.120883 226.415482 476.366638
   vertex 2.490860 227.204544 475.629761
  endloop
 endfacet

 facet normal 0.113289 0.724936 0.679436
  outer loop
   vertex 2.490860 227.204544 475.629761
   vertex 1.941613 226.888260 476.058807
   vertex 2.983572 226.336411 476.473877
  endloop
 endfacet

 facet normal -0.231986 0.265769 0.935708
  outer loop
   vertex 2.983572 226.336411 476.473877
   vertex 1.941613 226.888260 476.058807
   vertex 2.926829 226.157410 476.510651
  endloop
 endfacet

 facet normal -0.232007 0.265742 0.935710
  outer loop
   vertex 2.926829 226.157410 476.510651
   vertex 1.941613 226.888260 476.058807
   vertex 1.714642 226.172272 476.205872
  endloop
 endfacet

 facet normal -0.231432 -0.362503 0.902791
  outer loop
   vertex 1.714642 226.172272 476.205872
   vertex 2.983894 225.983337 476.455383
   vertex 2.926829 226.157410 476.510651
  endloop
 endfacet

 facet normal -0.231430 -0.362467 0.902806
  outer loop
   vertex 1.942904 225.475983 475.984833
   vertex 2.983894 225.983337 476.455383
   vertex 1.714642 226.172272 476.205872
  endloop
 endfacet

endsolid