solid stl file generated from DOUG
 facet normal 0.380964 0.780055 0.496368
  outer loop
   vertex 48.284447 -164.265594 420.749176
   vertex 48.354961 -164.350677 420.828766
   vertex 55.440372 -164.033096 414.891602
  endloop
 facet normal 0.642805 -0.039445 0.765014
  outer loop
   vertex 55.440372 -164.033096 414.891602
   vertex 48.354961 -164.350677 420.828766
   vertex 55.440468 -164.135712 414.886230
  endloop
 facet normal 0.382464 -0.826932 0.412196
  outer loop
   vertex 55.368851 -162.844986 414.869812
   vertex 55.439217 -162.768555 414.957855
   vertex 48.353802 -163.086151 420.895050
  endloop
 facet normal 0.642807 -0.039445 0.765012
  outer loop
   vertex 48.353802 -163.086151 420.895050
   vertex 55.439217 -162.768555 414.957855
   vertex 55.439121 -162.665939 414.963226
  endloop
 facet normal 0.642807 -0.039469 0.765011
  outer loop
   vertex 55.439121 -162.665939 414.963226
   vertex 48.353710 -162.983536 420.900421
   vertex 48.353802 -163.086151 420.895050
  endloop
 facet normal 0.599788 0.320981 0.732956
  outer loop
   vertex 54.968121 -162.637009 414.402710
   vertex 47.882710 -162.954590 420.339874
   vertex 54.975914 -162.668854 414.410278
  endloop
 facet normal 0.599685 0.321408 0.732854
  outer loop
   vertex 54.975914 -162.668854 414.410278
   vertex 47.882710 -162.954590 420.339874
   vertex 47.890499 -162.986450 420.347473
  endloop
 facet normal -0.000911 0.998629 0.052332
  outer loop
   vertex 47.890499 -162.986450 420.347473
   vertex 48.260216 -163.009171 420.787476
   vertex 54.975914 -162.668854 414.410278
  endloop
 facet normal 0.380969 0.780048 0.496374
  outer loop
   vertex 55.440372 -164.033096 414.891602
   vertex 55.369862 -163.948013 414.812012
   vertex 48.284447 -164.265594 420.749176
  endloop
 facet normal 0.642805 -0.039499 0.765011
  outer loop
   vertex 48.284447 -164.265594 420.749176
   vertex 55.369862 -163.948013 414.812012
   vertex 55.368851 -162.844986 414.869812
  endloop
 facet normal 0.642805 -0.039501 0.765011
  outer loop
   vertex 55.368851 -162.844986 414.869812
   vertex 48.283440 -163.162582 420.806976
   vertex 48.284447 -164.265594 420.749176
  endloop
 facet normal 0.382421 -0.826978 0.412144
  outer loop
   vertex 48.353802 -163.086151 420.895050
   vertex 48.283440 -163.162582 420.806976
   vertex 55.368851 -162.844986 414.869812
  endloop
 facet normal -0.000871 0.998627 0.052380
  outer loop
   vertex 48.353710 -162.983536 420.900421
   vertex 55.439121 -162.665939 414.963226
   vertex 48.267948 -162.978256 420.798340
  endloop
 facet normal -0.000936 0.998631 0.052301
  outer loop
   vertex 48.267948 -162.978256 420.798340
   vertex 55.439121 -162.665939 414.963226
   vertex 55.353359 -162.660675 414.861176
  endloop
 facet normal -0.600473 0.394611 -0.695496
  outer loop
   vertex 55.353359 -162.660675 414.861176
   vertex 48.260216 -163.009171 420.787476
   vertex 48.267948 -162.978256 420.798340
  endloop
 facet normal -0.600289 0.395354 -0.695232
  outer loop
   vertex 55.345627 -162.691574 414.850281
   vertex 48.260216 -163.009171 420.787476
   vertex 55.353359 -162.660675 414.861176
  endloop
 facet normal -0.000911 0.998629 0.052332
  outer loop
   vertex 54.975914 -162.668854 414.410278
   vertex 48.260216 -163.009171 420.787476
   vertex 55.345627 -162.691574 414.850281
  endloop
 facet normal 0.766035 0.034348 -0.641880
  outer loop
   vertex 55.864891 -164.134979 414.554077
   vertex 55.323235 -162.597977 413.989899
   vertex 55.863514 -162.631180 414.632904
  endloop
 facet normal -0.000908 0.998629 0.052330
  outer loop
   vertex 55.863514 -162.631180 414.632904
   vertex 55.323235 -162.597977 413.989899
   vertex 55.097485 -162.665512 415.274780
  endloop
 facet normal 0.642798 -0.039496 0.765017
  outer loop
   vertex 55.097485 -162.665512 415.274780
   vertex 55.098862 -164.169327 415.195984
   vertex 55.863514 -162.631180 414.632904
  endloop
 facet normal -0.766035 -0.034335 0.641882
  outer loop
   vertex 54.557205 -162.632324 414.631775
   vertex 55.098862 -164.169327 415.195984
   vertex 55.097485 -162.665512 415.274780
  endloop
 facet normal -0.766035 -0.034335 0.641881
  outer loop
   vertex 54.558582 -164.136124 414.552979
   vertex 55.098862 -164.169327 415.195984
   vertex 54.557205 -162.632324 414.631775
  endloop
 facet normal -0.642798 0.039497 -0.765016
  outer loop
   vertex 54.557205 -162.632324 414.631775
   vertex 55.323235 -162.597977 413.989899
   vertex 54.558582 -164.136124 414.552979
  endloop
 facet normal -0.642798 0.039496 -0.765017
  outer loop
   vertex 54.558582 -164.136124 414.552979
   vertex 55.323235 -162.597977 413.989899
   vertex 55.324612 -164.101791 413.911102
  endloop
 facet normal 0.766020 0.034336 -0.641899
  outer loop
   vertex 55.324612 -164.101791 413.911102
   vertex 55.323235 -162.597977 413.989899
   vertex 55.864891 -164.134979 414.554077
  endloop
 facet normal 0.000929 -0.998630 -0.052326
  outer loop
   vertex 55.864891 -164.134979 414.554077
   vertex 55.098862 -164.169327 415.195984
   vertex 55.324612 -164.101791 413.911102
  endloop
 facet normal 0.642816 -0.039512 0.765001
  outer loop
   vertex 55.863514 -162.631180 414.632904
   vertex 55.098862 -164.169327 415.195984
   vertex 55.864891 -164.134979 414.554077
  endloop
 facet normal 0.766035 0.034333 -0.641881
  outer loop
   vertex 48.719368 -162.951401 420.619293
   vertex 48.720741 -164.455200 420.540497
   vertex 48.179089 -162.918198 419.976288
  endloop
 facet normal 0.766035 0.034333 -0.641882
  outer loop
   vertex 48.179089 -162.918198 419.976288
   vertex 48.720741 -164.455200 420.540497
   vertex 48.180462 -164.422012 419.897491
  endloop
 facet normal -0.642798 0.039498 -0.765017
  outer loop
   vertex 48.180462 -164.422012 419.897491
   vertex 47.414433 -164.456345 420.539368
   vertex 48.179089 -162.918198 419.976288
  endloop
 facet normal 0.000920 -0.998630 -0.052316
  outer loop
   vertex 48.720741 -164.455200 420.540497
   vertex 47.414433 -164.456345 420.539368
   vertex 48.180462 -164.422012 419.897491
  endloop
 facet normal 0.000920 -0.998630 -0.052316
  outer loop
   vertex 47.954712 -164.489532 421.182373
   vertex 47.414433 -164.456345 420.539368
   vertex 48.720741 -164.455200 420.540497
  endloop
 facet normal 0.642798 -0.039498 0.765017
  outer loop
   vertex 48.720741 -164.455200 420.540497
   vertex 47.953339 -162.985733 421.261169
   vertex 47.954712 -164.489532 421.182373
  endloop
 facet normal -0.766035 -0.034333 0.641882
  outer loop
   vertex 47.954712 -164.489532 421.182373
   vertex 47.953339 -162.985733 421.261169
   vertex 47.414433 -164.456345 420.539368
  endloop
 facet normal -0.766035 -0.034333 0.641882
  outer loop
   vertex 47.414433 -164.456345 420.539368
   vertex 47.953339 -162.985733 421.261169
   vertex 47.413059 -162.952545 420.618164
  endloop
 facet normal -0.642798 0.039498 -0.765016
  outer loop
   vertex 47.413059 -162.952545 420.618164
   vertex 48.179089 -162.918198 419.976288
   vertex 47.414433 -164.456345 420.539368
  endloop
 facet normal -0.000932 0.998630 0.052326
  outer loop
   vertex 47.953339 -162.985733 421.261169
   vertex 48.179089 -162.918198 419.976288
   vertex 47.413059 -162.952545 420.618164
  endloop
 facet normal -0.000908 0.998629 0.052330
  outer loop
   vertex 48.719368 -162.951401 420.619293
   vertex 48.179089 -162.918198 419.976288
   vertex 47.953339 -162.985733 421.261169
  endloop
 facet normal 0.642798 -0.039498 0.765017
  outer loop
   vertex 47.953339 -162.985733 421.261169
   vertex 48.720741 -164.455200 420.540497
   vertex 48.719368 -162.951401 420.619293
  endloop
 facet normal 0.642805 -0.039469 0.765012
  outer loop
   vertex 48.354961 -164.350677 420.828766
   vertex 48.355053 -164.453293 420.823395
   vertex 55.440468 -164.135712 414.886230
  endloop
 facet normal 0.000936 -0.998631 -0.052301
  outer loop
   vertex 55.440468 -164.135712 414.886230
   vertex 48.355053 -164.453293 420.823395
   vertex 48.269291 -164.448029 420.721344
  endloop
 facet normal 0.000943 -0.998631 -0.052291
  outer loop
   vertex 48.269291 -164.448029 420.721344
   vertex 55.354706 -164.130447 414.784149
   vertex 55.440468 -164.135712 414.886230
  endloop
 facet normal -0.599685 -0.321408 -0.732853
  outer loop
   vertex 48.261501 -164.416168 420.713745
   vertex 55.354706 -164.130447 414.784149
   vertex 48.269291 -164.448029 420.721344
  endloop
 facet normal -0.599670 -0.321473 -0.732838
  outer loop
   vertex 55.346912 -164.098587 414.776550
   vertex 55.354706 -164.130447 414.784149
   vertex 48.261501 -164.416168 420.713745
  endloop
 facet normal 0.000910 -0.998629 -0.052331
  outer loop
   vertex 48.261501 -164.416168 420.713745
   vertex 47.891788 -164.393448 420.273743
   vertex 55.346912 -164.098587 414.776550
  endloop
 facet normal 0.000908 -0.998629 -0.052333
  outer loop
   vertex 55.346912 -164.098587 414.776550
   vertex 47.891788 -164.393448 420.273743
   vertex 54.977200 -164.075867 414.336578
  endloop
 facet normal 0.600312 -0.395252 0.695270
  outer loop
   vertex 54.977200 -164.075867 414.336578
   vertex 47.891788 -164.393448 420.273743
   vertex 47.884052 -164.424362 420.262848
  endloop
 facet normal 0.600287 -0.395354 0.695234
  outer loop
   vertex 47.884052 -164.424362 420.262848
   vertex 54.969467 -164.106766 414.325684
   vertex 54.977200 -164.075867 414.336578
  endloop
 facet normal 0.000812 -0.998623 -0.052450
  outer loop
   vertex 47.841499 -164.421738 420.212219
   vertex 54.969467 -164.106766 414.325684
   vertex 47.884052 -164.424362 420.262848
  endloop
 facet normal 0.000974 -0.998633 -0.052254
  outer loop
   vertex 54.926914 -164.104156 414.275024
   vertex 54.969467 -164.106766 414.325684
   vertex 47.841499 -164.421738 420.212219
  endloop
 facet normal -0.642807 0.039489 -0.765010
  outer loop
   vertex 47.841499 -164.421738 420.212219
   vertex 47.840157 -162.951981 420.289215
   vertex 54.926914 -164.104156 414.275024
  endloop
 facet normal -0.642805 0.039503 -0.765010
  outer loop
   vertex 54.926914 -164.104156 414.275024
   vertex 47.840157 -162.951981 420.289215
   vertex 54.925568 -162.634384 414.352051
  endloop
 facet normal -0.000828 0.998624 0.052431
  outer loop
   vertex 54.925568 -162.634384 414.352051
   vertex 47.840157 -162.951981 420.289215
   vertex 54.968121 -162.637009 414.402710
  endloop
 facet normal -0.000932 0.998630 0.052326
  outer loop
   vertex 54.557205 -162.632324 414.631775
   vertex 55.097485 -162.665512 415.274780
   vertex 55.323235 -162.597977 413.989899
  endloop
 facet normal 0.000908 -0.998629 -0.052330
  outer loop
   vertex 55.098862 -164.169327 415.195984
   vertex 54.558582 -164.136124 414.552979
   vertex 55.324612 -164.101791 413.911102
  endloop
 facet normal -0.000975 0.998633 0.052254
  outer loop
   vertex 47.840157 -162.951981 420.289215
   vertex 47.882710 -162.954590 420.339874
   vertex 54.968121 -162.637009 414.402710
  endloop
 facet normal -0.707373 -0.413883 0.572997
  outer loop
   vertex 45.774231 -163.645370 419.422821
   vertex 45.131428 -163.605865 418.657806
   vertex 45.999241 -164.341446 419.197815
  endloop
 facet normal -0.707371 -0.413875 0.573004
  outer loop
   vertex 45.999241 -164.341446 419.197815
   vertex 45.131428 -163.605865 418.657806
   vertex 45.356438 -164.301956 418.432800
  endloop
 facet normal -0.292303 -0.935751 0.197305
  outer loop
   vertex 45.356438 -164.301956 418.432800
   vertex 46.541176 -164.609665 418.728607
   vertex 45.999241 -164.341446 419.197815
  endloop
 facet normal -0.292300 -0.935756 0.197284
  outer loop
   vertex 45.898369 -164.570160 417.963593
   vertex 46.541176 -164.609665 418.728607
   vertex 45.356438 -164.301956 418.432800
  endloop
 facet normal 0.293987 -0.909474 -0.293988
  outer loop
   vertex 47.082569 -164.292892 418.290039
   vertex 46.541176 -164.609665 418.728607
   vertex 45.898369 -164.570160 417.963593
  endloop
 facet normal 0.293989 -0.909469 -0.294000
  outer loop
   vertex 45.898369 -164.570160 417.963593
   vertex 46.439766 -164.253387 417.525055
   vertex 47.082569 -164.292892 418.290039
  endloop
 facet normal 0.708058 -0.350433 -0.613066
  outer loop
   vertex 47.082569 -164.292892 418.290039
   vertex 46.439766 -164.253387 417.525055
   vertex 47.306290 -163.576691 418.139038
  endloop
 facet normal 0.708064 -0.350460 -0.613044
  outer loop
   vertex 47.306290 -163.576691 418.139038
   vertex 46.439766 -164.253387 417.525055
   vertex 46.663483 -163.537201 417.374023
  endloop
 facet normal 0.707367 0.413883 -0.573004
  outer loop
   vertex 46.663483 -163.537201 417.374023
   vertex 47.081280 -162.880615 418.364044
   vertex 47.306290 -163.576691 418.139038
  endloop
 facet normal 0.707373 0.413875 -0.573001
  outer loop
   vertex 46.438473 -162.841110 417.599030
   vertex 47.081280 -162.880615 418.364044
   vertex 46.663483 -163.537201 417.374023
  endloop
 facet normal 0.292313 0.935750 -0.197295
  outer loop
   vertex 46.539349 -162.612396 418.833252
   vertex 47.081280 -162.880615 418.364044
   vertex 46.438473 -162.841110 417.599030
  endloop
 facet normal 0.292281 0.935760 -0.197295
  outer loop
   vertex 46.438473 -162.841110 417.599030
   vertex 45.896542 -162.572906 418.068268
   vertex 46.539349 -162.612396 418.833252
  endloop
 facet normal -0.293989 0.909475 0.293984
  outer loop
   vertex 46.539349 -162.612396 418.833252
   vertex 45.896542 -162.572906 418.068268
   vertex 45.997952 -162.929169 419.271820
  endloop
 facet normal -0.294003 0.909470 0.293984
  outer loop
   vertex 45.997952 -162.929169 419.271820
   vertex 45.896542 -162.572906 418.068268
   vertex 45.355145 -162.889679 418.506805
  endloop
 facet normal -0.708072 0.350434 0.613050
  outer loop
   vertex 45.355145 -162.889679 418.506805
   vertex 45.774231 -163.645370 419.422821
   vertex 45.997952 -162.929169 419.271820
  endloop
 facet normal -0.708069 0.350437 0.613051
  outer loop
   vertex 45.131428 -163.605865 418.657806
   vertex 45.774231 -163.645370 419.422821
   vertex 45.355145 -162.889679 418.506805
  endloop
 facet normal 0.707371 0.413887 -0.572995
  outer loop
   vertex 54.474236 -163.146500 413.432373
   vertex 55.173294 -163.360016 414.141144
   vertex 54.530491 -163.320511 413.376129
  endloop
 facet normal 0.708071 -0.350430 -0.613053
  outer loop
   vertex 54.530491 -163.320511 413.376129
   vertex 55.173294 -163.360016 414.141144
   vertex 55.117367 -163.539062 414.178894
  endloop
 facet normal 0.708065 -0.350444 -0.613052
  outer loop
   vertex 55.117367 -163.539062 414.178894
   vertex 54.474560 -163.499557 413.413879
   vertex 54.530491 -163.320511 413.376129
  endloop
 facet normal 0.293977 -0.909479 -0.293981
  outer loop
   vertex 54.982018 -163.618256 414.288544
   vertex 54.474560 -163.499557 413.413879
   vertex 55.117367 -163.539062 414.178894
  endloop
 facet normal 0.293977 -0.909479 -0.293981
  outer loop
   vertex 54.339211 -163.578751 413.523529
   vertex 54.474560 -163.499557 413.413879
   vertex 54.982018 -163.618256 414.288544
  endloop
 facet normal -0.292334 -0.935740 0.197313
  outer loop
   vertex 54.982018 -163.618256 414.288544
   vertex 54.846535 -163.551193 414.405853
   vertex 54.339211 -163.578751 413.523529
  endloop
 facet normal -0.292272 -0.935766 0.197279
  outer loop
   vertex 54.339211 -163.578751 413.523529
   vertex 54.846535 -163.551193 414.405853
   vertex 54.203728 -163.511703 413.640839
  endloop
 facet normal -0.707365 -0.413887 0.573002
  outer loop
   vertex 54.203728 -163.511703 413.640839
   vertex 54.846535 -163.551193 414.405853
   vertex 54.790279 -163.377182 414.462097
  endloop
 facet normal -0.707385 -0.413844 0.573009
  outer loop
   vertex 54.790279 -163.377182 414.462097
   vertex 54.147476 -163.337677 413.697083
   vertex 54.203728 -163.511703 413.640839
  endloop
 facet normal -0.708067 0.350444 0.613050
  outer loop
   vertex 54.846210 -163.198135 414.424347
   vertex 54.147476 -163.337677 413.697083
   vertex 54.790279 -163.377182 414.462097
  endloop
 facet normal -0.708070 0.350430 0.613055
  outer loop
   vertex 54.203403 -163.158630 413.659332
   vertex 54.147476 -163.337677 413.697083
   vertex 54.846210 -163.198135 414.424347
  endloop
 facet normal -0.293977 0.909479 0.293981
  outer loop
   vertex 54.846210 -163.198135 414.424347
   vertex 54.981560 -163.118942 414.314697
   vertex 54.203403 -163.158630 413.659332
  endloop
 facet normal -0.293977 0.909479 0.293981
  outer loop
   vertex 54.203403 -163.158630 413.659332
   vertex 54.981560 -163.118942 414.314697
   vertex 54.338753 -163.079437 413.549683
  endloop
 facet normal 0.292281 0.935766 -0.197268
  outer loop
   vertex 54.338753 -163.079437 413.549683
   vertex 54.981560 -163.118942 414.314697
   vertex 55.117043 -163.185989 414.197388
  endloop
 facet normal 0.292324 0.935740 -0.197324
  outer loop
   vertex 55.117043 -163.185989 414.197388
   vertex 54.474236 -163.146500 413.432373
   vertex 54.338753 -163.079437 413.549683
  endloop
 facet normal 0.707379 0.413844 -0.573016
  outer loop
   vertex 55.173294 -163.360016 414.141144
   vertex 54.474236 -163.146500 413.432373
   vertex 55.117043 -163.185989 414.197388
  endloop
 facet normal 0.707371 0.413883 -0.572999
  outer loop
   vertex 53.600842 -162.520081 411.597382
   vertex 54.468658 -163.255661 412.137390
   vertex 53.825851 -163.216156 411.372375
  endloop
 facet normal 0.708066 -0.350440 -0.613053
  outer loop
   vertex 53.825851 -163.216156 411.372375
   vertex 54.468658 -163.255661 412.137390
   vertex 54.244938 -163.971848 412.288391
  endloop
 facet normal 0.708072 -0.350434 -0.613050
  outer loop
   vertex 54.244938 -163.971848 412.288391
   vertex 53.602131 -163.932358 411.523376
   vertex 53.825851 -163.216156 411.372375
  endloop
 facet normal 0.293994 -0.909475 -0.293977
  outer loop
   vertex 53.703541 -164.288620 412.726959
   vertex 53.602131 -163.932358 411.523376
   vertex 54.244938 -163.971848 412.288391
  endloop
 facet normal 0.293996 -0.909474 -0.293977
  outer loop
   vertex 53.060738 -164.249130 411.961945
   vertex 53.602131 -163.932358 411.523376
   vertex 53.703541 -164.288620 412.726959
  endloop
 facet normal -0.292291 -0.935757 0.197294
  outer loop
   vertex 53.703541 -164.288620 412.726959
   vertex 53.161610 -164.020416 413.196167
   vertex 53.060738 -164.249130 411.961945
  endloop
 facet normal -0.292313 -0.935750 0.197295
  outer loop
   vertex 53.060738 -164.249130 411.961945
   vertex 53.161610 -164.020416 413.196167
   vertex 52.518806 -163.980911 412.431152
  endloop
 facet normal -0.707375 -0.413875 0.572999
  outer loop
   vertex 52.518806 -163.980911 412.431152
   vertex 53.161610 -164.020416 413.196167
   vertex 52.936600 -163.324326 413.421173
  endloop
 facet normal -0.707366 -0.413886 0.573003
  outer loop
   vertex 52.936600 -163.324326 413.421173
   vertex 52.293793 -163.284836 412.656158
   vertex 52.518806 -163.980911 412.431152
  endloop
 facet normal -0.708071 0.350437 0.613049
  outer loop
   vertex 53.160316 -162.608139 413.270172
   vertex 52.293793 -163.284836 412.656158
   vertex 52.936600 -163.324326 413.421173
  endloop
 facet normal -0.708070 0.350434 0.613052
  outer loop
   vertex 52.517513 -162.568634 412.505157
   vertex 52.293793 -163.284836 412.656158
   vertex 53.160316 -162.608139 413.270172
  endloop
 facet normal -0.293986 0.909475 0.293987
  outer loop
   vertex 53.160316 -162.608139 413.270172
   vertex 53.701714 -162.291367 412.831604
   vertex 52.517513 -162.568634 412.505157
  endloop
 facet normal -0.293986 0.909475 0.293987
  outer loop
   vertex 52.517513 -162.568634 412.505157
   vertex 53.701714 -162.291367 412.831604
   vertex 53.058910 -162.251862 412.066589
  endloop
 facet normal 0.292313 0.935750 -0.197295
  outer loop
   vertex 53.058910 -162.251862 412.066589
   vertex 53.701714 -162.291367 412.831604
   vertex 54.243645 -162.559586 412.362396
  endloop
 facet normal 0.292313 0.935750 -0.197295
  outer loop
   vertex 54.243645 -162.559586 412.362396
   vertex 53.600842 -162.520081 411.597382
   vertex 53.058910 -162.251862 412.066589
  endloop
 facet normal 0.707371 0.413886 -0.572996
  outer loop
   vertex 54.468658 -163.255661 412.137390
   vertex 53.600842 -162.520081 411.597382
   vertex 54.243645 -162.559586 412.362396
  endloop
 facet normal 0.947534 0.317704 -0.035278
  outer loop
   vertex 54.243645 -162.559586 412.362396
   vertex 54.536942 -163.320908 413.383820
   vertex 54.468658 -163.255661 412.137390
  endloop
 facet normal 0.948107 -0.310551 -0.068196
  outer loop
   vertex 54.468658 -163.255661 412.137390
   vertex 54.536942 -163.320908 413.383820
   vertex 54.481010 -163.499954 413.421570
  endloop
 facet normal 0.948109 -0.310546 -0.068196
  outer loop
   vertex 54.481010 -163.499954 413.421570
   vertex 54.244938 -163.971848 412.288391
   vertex 54.468658 -163.255661 412.137390
  endloop
 facet normal 0.607764 -0.770042 0.194057
  outer loop
   vertex 54.345661 -163.579147 413.531219
   vertex 54.244938 -163.971848 412.288391
   vertex 54.481010 -163.499954 413.421570
  endloop
 facet normal 0.607757 -0.770047 0.194059
  outer loop
   vertex 53.703541 -164.288620 412.726959
   vertex 54.244938 -163.971848 412.288391
   vertex 54.345661 -163.579147 413.531219
  endloop
 facet normal 0.125801 -0.791638 0.597899
  outer loop
   vertex 54.345661 -163.579147 413.531219
   vertex 54.210178 -163.512100 413.648499
   vertex 53.703541 -164.288620 412.726959
  endloop
 facet normal 0.125856 -0.791647 0.597876
  outer loop
   vertex 53.703541 -164.288620 412.726959
   vertex 54.210178 -163.512100 413.648499
   vertex 53.161610 -164.020416 413.196167
  endloop
 facet normal -0.215262 -0.362769 0.906676
  outer loop
   vertex 53.161610 -164.020416 413.196167
   vertex 54.210178 -163.512100 413.648499
   vertex 54.153927 -163.338074 413.704773
  endloop
 facet normal -0.215328 -0.362686 0.906693
  outer loop
   vertex 54.153927 -163.338074 413.704773
   vertex 52.936600 -163.324326 413.421173
   vertex 53.161610 -164.020416 413.196167
  endloop
 facet normal -0.215901 0.265552 0.939611
  outer loop
   vertex 54.209858 -163.159027 413.667023
   vertex 52.936600 -163.324326 413.421173
   vertex 54.153927 -163.338074 413.704773
  endloop
 facet normal -0.215901 0.265550 0.939612
  outer loop
   vertex 53.160316 -162.608139 413.270172
   vertex 52.936600 -163.324326 413.421173
   vertex 54.209858 -163.159027 413.667023
  endloop
 facet normal 0.124473 0.725077 0.677325
  outer loop
   vertex 54.209858 -163.159027 413.667023
   vertex 54.345207 -163.079834 413.557373
   vertex 53.160316 -162.608139 413.270172
  endloop
 facet normal 0.124461 0.725060 0.677345
  outer loop
   vertex 53.160316 -162.608139 413.270172
   vertex 54.345207 -163.079834 413.557373
   vertex 53.701714 -162.291367 412.831604
  endloop
 facet normal 0.606395 0.746648 0.273499
  outer loop
   vertex 53.701714 -162.291367 412.831604
   vertex 54.345207 -163.079834 413.557373
   vertex 54.480690 -163.146896 413.440063
  endloop
 facet normal 0.606372 0.746654 0.273535
  outer loop
   vertex 54.480690 -163.146896 413.440063
   vertex 54.243645 -162.559586 412.362396
   vertex 53.701714 -162.291367 412.831604
  endloop
 facet normal 0.947533 0.317705 -0.035277
  outer loop
   vertex 54.536942 -163.320908 413.383820
   vertex 54.243645 -162.559586 412.362396
   vertex 54.480690 -163.146896 413.440063
  endloop
 facet normal -0.707377 -0.413857 0.573010
  outer loop
   vertex 47.627911 -163.698212 420.463745
   vertex 46.985107 -163.658722 419.698730
   vertex 47.684166 -163.872238 420.407501
  endloop
 facet normal -0.707374 -0.413874 0.573002
  outer loop
   vertex 47.684166 -163.872238 420.407501
   vertex 46.985107 -163.658722 419.698730
   vertex 47.041359 -163.832733 419.642487
  endloop
 facet normal -0.292281 -0.935766 0.197268
  outer loop
   vertex 47.041359 -163.832733 419.642487
   vertex 47.819649 -163.939285 420.290192
   vertex 47.684166 -163.872238 420.407501
  endloop
 facet normal -0.292324 -0.935740 0.197324
  outer loop
   vertex 47.176842 -163.899796 419.525177
   vertex 47.819649 -163.939285 420.290192
   vertex 47.041359 -163.832733 419.642487
  endloop
 facet normal 0.293986 -0.909480 -0.293970
  outer loop
   vertex 47.954998 -163.860092 420.180542
   vertex 47.819649 -163.939285 420.290192
   vertex 47.176842 -163.899796 419.525177
  endloop
 facet normal 0.294014 -0.909460 -0.294004
  outer loop
   vertex 47.176842 -163.899796 419.525177
   vertex 47.312191 -163.820602 419.415558
   vertex 47.954998 -163.860092 420.180542
  endloop
 facet normal 0.708061 -0.350430 -0.613065
  outer loop
   vertex 47.954998 -163.860092 420.180542
   vertex 47.312191 -163.820602 419.415558
   vertex 48.010925 -163.681046 420.142792
  endloop
 facet normal 0.708059 -0.350443 -0.613060
  outer loop
   vertex 48.010925 -163.681046 420.142792
   vertex 47.312191 -163.820602 419.415558
   vertex 47.368122 -163.641556 419.377808
  endloop
 facet normal 0.707333 0.413958 -0.572991
  outer loop
   vertex 47.368122 -163.641556 419.377808
   vertex 47.954674 -163.507034 420.199066
   vertex 48.010925 -163.681046 420.142792
  endloop
 facet normal 0.707379 0.413857 -0.573007
  outer loop
   vertex 47.311867 -163.467529 419.434052
   vertex 47.954674 -163.507034 420.199066
   vertex 47.368122 -163.641556 419.377808
  endloop
 facet normal 0.292356 0.935729 -0.197333
  outer loop
   vertex 47.819191 -163.439972 420.316345
   vertex 47.954674 -163.507034 420.199066
   vertex 47.311867 -163.467529 419.434052
  endloop
 facet normal 0.292268 0.935766 -0.197283
  outer loop
   vertex 47.311867 -163.467529 419.434052
   vertex 47.176384 -163.400482 419.551361
   vertex 47.819191 -163.439972 420.316345
  endloop
 facet normal -0.293980 0.909480 0.293977
  outer loop
   vertex 47.819191 -163.439972 420.316345
   vertex 47.176384 -163.400482 419.551361
   vertex 47.683842 -163.519165 420.425995
  endloop
 facet normal -0.294019 0.909460 0.293997
  outer loop
   vertex 47.683842 -163.519165 420.425995
   vertex 47.176384 -163.400482 419.551361
   vertex 47.041035 -163.479675 419.660980
  endloop
 facet normal -0.708069 0.350444 0.613048
  outer loop
   vertex 47.041035 -163.479675 419.660980
   vertex 47.627911 -163.698212 420.463745
   vertex 47.683842 -163.519165 420.425995
  endloop
 facet normal -0.708075 0.350431 0.613049
  outer loop
   vertex 46.985107 -163.658722 419.698730
   vertex 47.627911 -163.698212 420.463745
   vertex 47.041035 -163.479675 419.660980
  endloop
 facet normal -0.215898 0.265551 0.939612
  outer loop
   vertex 47.047489 -163.480072 419.668671
   vertex 45.997952 -162.929169 419.271820
   vertex 46.991558 -163.659119 419.706421
  endloop
 facet normal -0.215902 0.265545 0.939613
  outer loop
   vertex 46.991558 -163.659119 419.706421
   vertex 45.997952 -162.929169 419.271820
   vertex 45.774231 -163.645370 419.422821
  endloop
 facet normal -0.215329 -0.362675 0.906697
  outer loop
   vertex 45.774231 -163.645370 419.422821
   vertex 47.047813 -163.833130 419.650177
   vertex 46.991558 -163.659119 419.706421
  endloop
 facet normal -0.215330 -0.362694 0.906690
  outer loop
   vertex 45.999241 -164.341446 419.197815
   vertex 47.047813 -163.833130 419.650177
   vertex 45.774231 -163.645370 419.422821
  endloop
 facet normal 0.125833 -0.791644 0.597885
  outer loop
   vertex 47.183296 -163.900192 419.532867
   vertex 47.047813 -163.833130 419.650177
   vertex 45.999241 -164.341446 419.197815
  endloop
 facet normal 0.125836 -0.791647 0.597879
  outer loop
   vertex 45.999241 -164.341446 419.197815
   vertex 46.541176 -164.609665 418.728607
   vertex 47.183296 -163.900192 419.532867
  endloop
 facet normal 0.607762 -0.770045 0.194053
  outer loop
   vertex 47.183296 -163.900192 419.532867
   vertex 46.541176 -164.609665 418.728607
   vertex 47.318645 -163.820999 419.423218
  endloop
 facet normal 0.607759 -0.770046 0.194058
  outer loop
   vertex 47.318645 -163.820999 419.423218
   vertex 46.541176 -164.609665 418.728607
   vertex 47.082569 -164.292892 418.290039
  endloop
 facet normal 0.948112 -0.310534 -0.068205
  outer loop
   vertex 47.082569 -164.292892 418.290039
   vertex 47.374573 -163.641953 419.385468
   vertex 47.318645 -163.820999 419.423218
  endloop
 facet normal 0.948110 -0.310541 -0.068200
  outer loop
   vertex 47.306290 -163.576691 418.139038
   vertex 47.374573 -163.641953 419.385468
   vertex 47.082569 -164.292892 418.290039
  endloop
 facet normal 0.947542 0.317680 -0.035276
  outer loop
   vertex 47.318321 -163.467926 419.441711
   vertex 47.374573 -163.641953 419.385468
   vertex 47.306290 -163.576691 418.139038
  endloop
 facet normal 0.947535 0.317699 -0.035277
  outer loop
   vertex 47.306290 -163.576691 418.139038
   vertex 47.081280 -162.880615 418.364044
   vertex 47.318321 -163.467926 419.441711
  endloop
 facet normal 0.606357 0.746662 0.273545
  outer loop
   vertex 47.318321 -163.467926 419.441711
   vertex 47.081280 -162.880615 418.364044
   vertex 47.182838 -163.400879 419.559021
  endloop
 facet normal 0.606373 0.746651 0.273539
  outer loop
   vertex 47.182838 -163.400879 419.559021
   vertex 47.081280 -162.880615 418.364044
   vertex 46.539349 -162.612396 418.833252
  endloop
 facet normal 0.124491 0.725063 0.677337
  outer loop
   vertex 46.539349 -162.612396 418.833252
   vertex 47.047489 -163.480072 419.668671
   vertex 47.182838 -163.400879 419.559021
  endloop
 facet normal 0.124465 0.725057 0.677348
  outer loop
   vertex 45.997952 -162.929169 419.271820
   vertex 47.047489 -163.480072 419.668671
   vertex 46.539349 -162.612396 418.833252
  endloop
endsolid