solid stl file generated from DOUG
 facet normal 0.805028 -0.592992 -0.017030
  outer loop
   vertex 18.809992 59.073803 388.056549
   vertex 18.729235 58.964375 388.049408
   vertex 18.890440 59.448456 378.813934
  endloop
 facet normal 0.000917 -0.998630 -0.052328
  outer loop
   vertex 18.890440 59.448456 378.813934
   vertex 18.729235 58.964375 388.049408
   vertex 18.787699 59.448456 378.812134
  endloop
 facet normal -0.803956 -0.592976 -0.045114
  outer loop
   vertex 20.075563 59.557888 378.840363
   vertex 20.156521 59.448456 378.836029
   vertex 19.995316 58.964375 388.071503
  endloop
 facet normal 0.000917 -0.998630 -0.052328
  outer loop
   vertex 19.995316 58.964375 388.071503
   vertex 20.156521 59.448456 378.836029
   vertex 20.259260 59.448456 378.837830
  endloop
 facet normal 0.000917 -0.998630 -0.052328
  outer loop
   vertex 20.259260 59.448456 378.837830
   vertex 20.098055 58.964375 388.073303
   vertex 19.995316 58.964375 388.071503
  endloop
 facet normal 0.359575 -0.932144 -0.042583
  outer loop
   vertex 20.258591 60.180180 378.876160
   vertex 20.097387 59.696095 388.111633
   vertex 20.227184 60.168118 378.875000
  endloop
 facet normal 0.359494 -0.932175 -0.042586
  outer loop
   vertex 20.227184 60.168118 378.875000
   vertex 20.097387 59.696095 388.111633
   vertex 20.065979 59.684036 388.110443
  endloop
 facet normal 0.999848 -0.000001 0.017452
  outer loop
   vertex 20.065979 59.684036 388.110443
   vertex 20.066504 59.109669 388.080353
   vertex 20.227184 60.168118 378.875000
  endloop
 facet normal 0.805045 -0.592970 -0.017029
  outer loop
   vertex 18.890440 59.448456 378.813934
   vertex 18.971195 59.557888 378.821075
   vertex 18.809992 59.073803 388.056549
  endloop
 facet normal 0.000914 -0.998630 -0.052328
  outer loop
   vertex 18.809992 59.073803 388.056549
   vertex 18.971195 59.557888 378.821075
   vertex 20.075563 59.557888 378.840363
  endloop
 facet normal 0.000912 -0.998630 -0.052328
  outer loop
   vertex 20.075563 59.557888 378.840363
   vertex 19.914358 59.073803 388.075806
   vertex 18.809992 59.073803 388.056549
  endloop
 facet normal -0.803940 -0.592997 -0.045115
  outer loop
   vertex 19.995316 58.964375 388.071503
   vertex 19.914358 59.073803 388.075806
   vertex 20.075563 59.557888 378.840363
  endloop
 facet normal 0.999848 -0.000010 0.017452
  outer loop
   vertex 20.098055 58.964375 388.073303
   vertex 20.259260 59.448456 378.837830
   vertex 20.097935 59.097607 388.080261
  endloop
 facet normal 0.999848 0.000001 0.017452
  outer loop
   vertex 20.097935 59.097607 388.080261
   vertex 20.259260 59.448456 378.837830
   vertex 20.259138 59.581692 378.844818
  endloop
 facet normal 0.357880 0.932140 0.055106
  outer loop
   vertex 20.259138 59.581692 378.844818
   vertex 20.066504 59.109669 388.080353
   vertex 20.097935 59.097607 388.080261
  endloop
 facet normal 0.357800 0.932171 0.055106
  outer loop
   vertex 20.227709 59.593750 378.844910
   vertex 20.066504 59.109669 388.080353
   vertex 20.259138 59.581692 378.844818
  endloop
 facet normal 0.999848 -0.000001 0.017452
  outer loop
   vertex 20.227184 60.168118 378.875000
   vertex 20.066504 59.109669 388.080353
   vertex 20.227709 59.593750 378.844910
  endloop
 facet normal 0.017425 0.052365 -0.998476
  outer loop
   vertex 18.780060 59.457951 378.273346
   vertex 20.284931 60.297298 378.343628
   vertex 20.285698 59.457951 378.299622
  endloop
 facet normal 0.999848 -0.000002 0.017451
  outer loop
   vertex 20.285698 59.457951 378.299622
   vertex 20.284931 60.297298 378.343628
   vertex 20.268270 59.405613 379.298096
  endloop
 facet normal 0.000913 -0.998629 -0.052330
  outer loop
   vertex 20.268270 59.405613 379.298096
   vertex 18.762632 59.405613 379.271820
   vertex 20.285698 59.457951 378.299622
  endloop
 facet normal -0.017425 -0.052365 0.998476
  outer loop
   vertex 20.267502 60.244965 379.342102
   vertex 18.762632 59.405613 379.271820
   vertex 20.268270 59.405613 379.298096
  endloop
 facet normal -0.017425 -0.052365 0.998476
  outer loop
   vertex 18.761864 60.244965 379.315826
   vertex 18.762632 59.405613 379.271820
   vertex 20.267502 60.244965 379.342102
  endloop
 facet normal -0.000913 0.998630 0.052326
  outer loop
   vertex 20.267502 60.244965 379.342102
   vertex 20.284931 60.297298 378.343628
   vertex 18.761864 60.244965 379.315826
  endloop
 facet normal -0.000914 0.998630 0.052324
  outer loop
   vertex 18.761864 60.244965 379.315826
   vertex 20.284931 60.297298 378.343628
   vertex 18.779293 60.297298 378.317322
  endloop
 facet normal 0.017445 0.052329 -0.998478
  outer loop
   vertex 18.779293 60.297298 378.317322
   vertex 20.284931 60.297298 378.343628
   vertex 18.780060 59.457951 378.273346
  endloop
 facet normal -0.999848 0.000001 -0.017451
  outer loop
   vertex 18.780060 59.457951 378.273346
   vertex 18.762632 59.405613 379.271820
   vertex 18.779293 60.297298 378.317322
  endloop
 facet normal 0.000913 -0.998629 -0.052330
  outer loop
   vertex 20.285698 59.457951 378.299622
   vertex 18.762632 59.405613 379.271820
   vertex 18.780060 59.457951 378.273346
  endloop
 facet normal 0.017425 0.052365 -0.998476
  outer loop
   vertex 20.123158 58.969852 387.611633
   vertex 18.617519 58.969852 387.585358
   vertex 20.122389 59.809204 387.655640
  endloop
 facet normal 0.017425 0.052365 -0.998476
  outer loop
   vertex 20.122389 59.809204 387.655640
   vertex 18.617519 58.969852 387.585358
   vertex 18.616753 59.809204 387.629364
  endloop
 facet normal -0.000913 0.998629 0.052330
  outer loop
   vertex 18.616753 59.809204 387.629364
   vertex 18.599323 59.756866 388.627838
   vertex 20.122389 59.809204 387.655640
  endloop
 facet normal -0.999848 0.000002 -0.017453
  outer loop
   vertex 18.617519 58.969852 387.585358
   vertex 18.599323 59.756866 388.627838
   vertex 18.616753 59.809204 387.629364
  endloop
 facet normal -0.999848 0.000002 -0.017453
  outer loop
   vertex 18.600090 58.917519 388.583832
   vertex 18.599323 59.756866 388.627838
   vertex 18.617519 58.969852 387.585358
  endloop
 facet normal 0.000914 -0.998630 -0.052326
  outer loop
   vertex 18.617519 58.969852 387.585358
   vertex 20.105728 58.917519 388.610138
   vertex 18.600090 58.917519 388.583832
  endloop
 facet normal -0.017445 -0.052365 0.998476
  outer loop
   vertex 18.600090 58.917519 388.583832
   vertex 20.105728 58.917519 388.610138
   vertex 18.599323 59.756866 388.627838
  endloop
 facet normal -0.017425 -0.052329 0.998478
  outer loop
   vertex 18.599323 59.756866 388.627838
   vertex 20.105728 58.917519 388.610138
   vertex 20.104961 59.756866 388.654114
  endloop
 facet normal -0.000913 0.998629 0.052330
  outer loop
   vertex 20.104961 59.756866 388.654114
   vertex 20.122389 59.809204 387.655640
   vertex 18.599323 59.756866 388.627838
  endloop
 facet normal 0.999848 -0.000001 0.017451
  outer loop
   vertex 20.105728 58.917519 388.610138
   vertex 20.122389 59.809204 387.655640
   vertex 20.104961 59.756866 388.654114
  endloop
 facet normal 0.999848 0.000001 0.017453
  outer loop
   vertex 20.123158 58.969852 387.611633
   vertex 20.122389 59.809204 387.655640
   vertex 20.105728 58.917519 388.610138
  endloop
 facet normal 0.000913 -0.998630 -0.052324
  outer loop
   vertex 20.105728 58.917519 388.610138
   vertex 18.617519 58.969852 387.585358
   vertex 20.123158 58.969852 387.611633
  endloop
 facet normal 0.000917 -0.998630 -0.052328
  outer loop
   vertex 18.729235 58.964375 388.049408
   vertex 18.626495 58.964375 388.047607
   vertex 18.787699 59.448456 378.812134
  endloop
 facet normal -0.999848 -0.000001 -0.017452
  outer loop
   vertex 18.787699 59.448456 378.812134
   vertex 18.626495 58.964375 388.047607
   vertex 18.626373 59.097610 388.054596
  endloop
 facet normal -0.999848 0.000014 -0.017452
  outer loop
   vertex 18.626373 59.097610 388.054596
   vertex 18.787579 59.581692 378.819122
   vertex 18.787699 59.448456 378.812134
  endloop
 facet normal -0.359458 0.932189 0.042587
  outer loop
   vertex 18.657782 59.109669 388.055756
   vertex 18.787579 59.581692 378.819122
   vertex 18.626373 59.097610 388.054596
  endloop
 facet normal -0.359513 0.932168 0.042585
  outer loop
   vertex 18.818985 59.593750 378.820312
   vertex 18.787579 59.581692 378.819122
   vertex 18.657782 59.109669 388.055756
  endloop
 facet normal -0.999848 -0.000001 -0.017452
  outer loop
   vertex 18.657782 59.109669 388.055756
   vertex 18.657255 59.684036 388.085876
   vertex 18.818985 59.593750 378.820312
  endloop
 facet normal -0.999848 0.000001 -0.017452
  outer loop
   vertex 18.818985 59.593750 378.820312
   vertex 18.657255 59.684036 388.085876
   vertex 18.818460 60.168121 378.850403
  endloop
 facet normal -0.357753 -0.932189 -0.055106
  outer loop
   vertex 18.818460 60.168121 378.850403
   vertex 18.657255 59.684036 388.085876
   vertex 18.625826 59.696095 388.085938
  endloop
 facet normal -0.357800 -0.932171 -0.055106
  outer loop
   vertex 18.625826 59.696095 388.085938
   vertex 18.787031 60.180180 378.850494
   vertex 18.818460 60.168121 378.850403
  endloop
 facet normal -0.999848 -0.000005 -0.017453
  outer loop
   vertex 18.625765 59.762203 388.089417
   vertex 18.787031 60.180180 378.850494
   vertex 18.625826 59.696095 388.085938
  endloop
 facet normal -0.999848 -0.000013 -0.017453
  outer loop
   vertex 18.786970 60.246288 378.853943
   vertex 18.787031 60.180180 378.850494
   vertex 18.625765 59.762203 388.089417
  endloop
 facet normal -0.000913 0.998630 0.052328
  outer loop
   vertex 18.625765 59.762203 388.089417
   vertex 20.097326 59.762203 388.115082
   vertex 18.786970 60.246288 378.853943
  endloop
 facet normal -0.000914 0.998630 0.052328
  outer loop
   vertex 18.786970 60.246288 378.853943
   vertex 20.097326 59.762203 388.115082
   vertex 20.258532 60.246288 378.879639
  endloop
 facet normal 0.999848 -0.000024 0.017451
  outer loop
   vertex 20.258532 60.246288 378.879639
   vertex 20.097326 59.762203 388.115082
   vertex 20.258591 60.180180 378.876160
  endloop
 facet normal 0.999848 0.000001 0.017453
  outer loop
   vertex 20.267502 60.244965 379.342102
   vertex 20.268270 59.405613 379.298096
   vertex 20.284931 60.297298 378.343628
  endloop
 facet normal -0.999848 -0.000001 -0.017453
  outer loop
   vertex 18.762632 59.405613 379.271820
   vertex 18.761864 60.244965 379.315826
   vertex 18.779293 60.297298 378.317322
  endloop
 facet normal 0.999848 0.000013 0.017453
  outer loop
   vertex 20.097326 59.762203 388.115082
   vertex 20.097387 59.696095 388.111633
   vertex 20.258591 60.180180 378.876160
  endloop
 facet normal -0.398751 -0.048332 0.915785
  outer loop
   vertex 19.341448 61.667957 389.253632
   vertex 19.340536 62.666584 389.305939
   vertex 18.639555 61.683285 388.948822
  endloop
 facet normal -0.398717 -0.048361 0.915798
  outer loop
   vertex 18.639555 61.683285 388.948822
   vertex 19.340536 62.666584 389.305939
   vertex 18.638641 62.681915 389.001160
  endloop
 facet normal -0.930405 -0.020032 0.365987
  outer loop
   vertex 18.638641 62.681915 389.001160
   vertex 18.359030 61.720291 388.237701
   vertex 18.639555 61.683285 388.948822
  endloop
 facet normal -0.930410 -0.020020 0.365974
  outer loop
   vertex 18.358116 62.718922 388.290009
   vertex 18.359030 61.720291 388.237701
   vertex 18.638641 62.681915 389.001160
  endloop
 facet normal -0.917071 0.020019 -0.398220
  outer loop
   vertex 18.664202 61.757298 387.536774
   vertex 18.359030 61.720291 388.237701
   vertex 18.358116 62.718922 388.290009
  endloop
 facet normal -0.917065 0.020032 -0.398234
  outer loop
   vertex 18.358116 62.718922 388.290009
   vertex 18.663288 62.755928 387.589111
   vertex 18.664202 61.757298 387.536774
  endloop
 facet normal -0.366506 0.048361 -0.929158
  outer loop
   vertex 18.664202 61.757298 387.536774
   vertex 18.663288 62.755928 387.589111
   vertex 19.376305 61.772629 387.256683
  endloop
 facet normal -0.366540 0.048332 -0.929146
  outer loop
   vertex 19.376305 61.772629 387.256683
   vertex 18.663288 62.755928 387.589111
   vertex 19.375391 62.771255 387.308990
  endloop
 facet normal 0.398717 0.048333 -0.915799
  outer loop
   vertex 19.375391 62.771255 387.308990
   vertex 20.078199 61.757298 387.561462
   vertex 19.376305 61.772629 387.256683
  endloop
 facet normal 0.398750 0.048360 -0.915783
  outer loop
   vertex 20.077286 62.755928 387.613800
   vertex 20.078199 61.757298 387.561462
   vertex 19.375391 62.771255 387.308990
  endloop
 facet normal 0.930410 0.020032 -0.365973
  outer loop
   vertex 20.358725 61.720291 388.272614
   vertex 20.078199 61.757298 387.561462
   vertex 20.077286 62.755928 387.613800
  endloop
 facet normal 0.930405 0.020021 -0.365987
  outer loop
   vertex 20.077286 62.755928 387.613800
   vertex 20.357811 62.718922 388.324921
   vertex 20.358725 61.720291 388.272614
  endloop
 facet normal 0.917065 -0.020020 0.398235
  outer loop
   vertex 20.358725 61.720291 388.272614
   vertex 20.357811 62.718922 388.324921
   vertex 20.053553 61.683285 388.973511
  endloop
 facet normal 0.917071 -0.020031 0.398220
  outer loop
   vertex 20.053553 61.683285 388.973511
   vertex 20.357811 62.718922 388.324921
   vertex 20.052639 62.681915 389.025848
  endloop
 facet normal 0.366539 -0.048361 0.929145
  outer loop
   vertex 20.052639 62.681915 389.025848
   vertex 19.341448 61.667957 389.253632
   vertex 20.053553 61.683285 388.973511
  endloop
 facet normal 0.366506 -0.048334 0.929160
  outer loop
   vertex 19.340536 62.666584 389.305939
   vertex 19.341448 61.667957 389.253632
   vertex 20.052639 62.681915 389.025848
  endloop
 facet normal 0.398750 0.048333 -0.915785
  outer loop
   vertex 19.702568 61.230278 378.694153
   vertex 19.528008 60.235481 378.565643
   vertex 19.527094 61.234112 378.617950
  endloop
 facet normal -0.366435 0.048335 -0.929187
  outer loop
   vertex 19.527094 61.234112 378.617950
   vertex 19.528008 60.235481 378.565643
   vertex 19.349981 60.231651 378.635651
  endloop
 facet normal -0.366574 0.048360 -0.929131
  outer loop
   vertex 19.349981 60.231651 378.635651
   vertex 19.349068 61.230278 378.687988
   vertex 19.527094 61.234112 378.617950
  endloop
 facet normal -0.917070 0.020032 -0.398224
  outer loop
   vertex 19.273687 60.222397 378.810883
   vertex 19.349068 61.230278 378.687988
   vertex 19.349981 60.231651 378.635651
  endloop
 facet normal -0.917073 0.020033 -0.398215
  outer loop
   vertex 19.272776 61.221027 378.863220
   vertex 19.349068 61.230278 378.687988
   vertex 19.273687 60.222397 378.810883
  endloop
 facet normal -0.930415 -0.020029 0.365960
  outer loop
   vertex 19.273687 60.222397 378.810883
   vertex 19.343819 60.213146 378.988678
   vertex 19.272776 61.221027 378.863220
  endloop
 facet normal -0.930415 -0.020029 0.365960
  outer loop
   vertex 19.272776 61.221027 378.863220
   vertex 19.343819 60.213146 378.988678
   vertex 19.342907 61.211777 379.041016
  endloop
 facet normal -0.398750 -0.048360 0.915784
  outer loop
   vertex 19.342907 61.211777 379.041016
   vertex 19.343819 60.213146 378.988678
   vertex 19.519293 60.209312 379.064880
  endloop
 facet normal -0.398620 -0.048335 0.915842
  outer loop
   vertex 19.519293 60.209312 379.064880
   vertex 19.518379 61.207943 379.117188
   vertex 19.342907 61.211777 379.041016
  endloop
 facet normal 0.366574 -0.048332 0.929133
  outer loop
   vertex 19.697319 60.213146 378.994843
   vertex 19.518379 61.207943 379.117188
   vertex 19.519293 60.209312 379.064880
  endloop
 facet normal 0.366436 -0.048363 0.929186
  outer loop
   vertex 19.696405 61.211777 379.047180
   vertex 19.518379 61.207943 379.117188
   vertex 19.697319 60.213146 378.994843
  endloop
 facet normal 0.917073 -0.020031 0.398216
  outer loop
   vertex 19.697319 60.213146 378.994843
   vertex 19.773611 60.222397 378.819611
   vertex 19.696405 61.211777 379.047180
  endloop
 facet normal 0.917069 -0.020033 0.398224
  outer loop
   vertex 19.696405 61.211777 379.047180
   vertex 19.773611 60.222397 378.819611
   vertex 19.772699 61.221027 378.871948
  endloop
 facet normal 0.930419 0.020029 -0.365951
  outer loop
   vertex 19.772699 61.221027 378.871948
   vertex 19.773611 60.222397 378.819611
   vertex 19.703482 60.231651 378.641815
  endloop
 facet normal 0.930415 0.020031 -0.365960
  outer loop
   vertex 19.703482 60.231651 378.641815
   vertex 19.702568 61.230278 378.694153
   vertex 19.772699 61.221027 378.871948
  endloop
 facet normal 0.398615 0.048364 -0.915842
  outer loop
   vertex 19.528008 60.235481 378.565643
   vertex 19.702568 61.230278 378.694153
   vertex 19.703482 60.231651 378.641815
  endloop
 facet normal 0.398717 0.048361 -0.915798
  outer loop
   vertex 20.240242 63.245270 378.278015
   vertex 19.539261 62.261971 377.920898
   vertex 19.538347 63.260597 377.973236
  endloop
 facet normal -0.366540 0.048361 -0.929145
  outer loop
   vertex 19.538347 63.260597 377.973236
   vertex 19.539261 62.261971 377.920898
   vertex 18.827158 62.246639 378.201019
  endloop
 facet normal -0.366505 0.048333 -0.929160
  outer loop
   vertex 18.827158 62.246639 378.201019
   vertex 18.826244 63.245270 378.253326
   vertex 19.538347 63.260597 377.973236
  endloop
 facet normal -0.917064 0.020020 -0.398237
  outer loop
   vertex 18.521984 62.209633 378.901917
   vertex 18.826244 63.245270 378.253326
   vertex 18.827158 62.246639 378.201019
  endloop
 facet normal -0.917071 0.020033 -0.398220
  outer loop
   vertex 18.521072 63.208263 378.954254
   vertex 18.826244 63.245270 378.253326
   vertex 18.521984 62.209633 378.901917
  endloop
 facet normal -0.930410 -0.020030 0.365973
  outer loop
   vertex 18.521984 62.209633 378.901917
   vertex 18.802509 62.172626 379.613068
   vertex 18.521072 63.208263 378.954254
  endloop
 facet normal -0.930411 -0.020032 0.365971
  outer loop
   vertex 18.521072 63.208263 378.954254
   vertex 18.802509 62.172626 379.613068
   vertex 18.801596 63.171257 379.665405
  endloop
 facet normal -0.398717 -0.048361 0.915798
  outer loop
   vertex 18.801596 63.171257 379.665405
   vertex 18.802509 62.172626 379.613068
   vertex 19.504404 62.157295 379.917847
  endloop
 facet normal -0.398717 -0.048361 0.915798
  outer loop
   vertex 19.504404 62.157295 379.917847
   vertex 19.503490 63.155926 379.970184
   vertex 18.801596 63.171257 379.665405
  endloop
 facet normal 0.366506 -0.048361 0.929158
  outer loop
   vertex 20.216507 62.172626 379.637756
   vertex 19.503490 63.155926 379.970184
   vertex 19.504404 62.157295 379.917847
  endloop
 facet normal 0.366505 -0.048362 0.929158
  outer loop
   vertex 20.215595 63.171257 379.690094
   vertex 19.503490 63.155926 379.970184
   vertex 20.216507 62.172626 379.637756
  endloop
 facet normal 0.917070 -0.020033 0.398222
  outer loop
   vertex 20.216507 62.172626 379.637756
   vertex 20.521681 62.209633 378.936829
   vertex 20.215595 63.171257 379.690094
  endloop
 facet normal 0.917071 -0.020031 0.398220
  outer loop
   vertex 20.215595 63.171257 379.690094
   vertex 20.521681 62.209633 378.936829
   vertex 20.520767 63.208263 378.989166
  endloop
 facet normal 0.930405 0.020032 -0.365987
  outer loop
   vertex 20.520767 63.208263 378.989166
   vertex 20.521681 62.209633 378.936829
   vertex 20.241156 62.246639 378.225708
  endloop
 facet normal 0.930410 0.020020 -0.365974
  outer loop
   vertex 20.241156 62.246639 378.225708
   vertex 20.240242 63.245270 378.278015
   vertex 20.520767 63.208263 378.989166
  endloop
 facet normal 0.398751 0.048333 -0.915785
  outer loop
   vertex 19.539261 62.261971 377.920898
   vertex 20.240242 63.245270 378.278015
   vertex 20.241156 62.246639 378.225708
  endloop
 facet normal 0.328278 -0.529017 -0.782544
  outer loop
   vertex 20.241156 62.246639 378.225708
   vertex 19.527103 61.224087 378.617432
   vertex 19.539261 62.261971 377.920898
  endloop
 facet normal -0.300798 -0.529012 -0.793515
  outer loop
   vertex 19.539261 62.261971 377.920898
   vertex 19.527103 61.224087 378.617432
   vertex 19.349077 61.220257 378.687469
  endloop
 facet normal -0.300759 -0.529024 -0.793522
  outer loop
   vertex 19.349077 61.220257 378.687469
   vertex 18.827158 62.246639 378.201019
   vertex 19.539261 62.261971 377.920898
  endloop
 facet normal -0.753271 -0.552303 -0.357134
  outer loop
   vertex 19.272783 61.211002 378.862701
   vertex 18.827158 62.246639 378.201019
   vertex 19.349077 61.220257 378.687469
  endloop
 facet normal -0.753268 -0.552304 -0.357137
  outer loop
   vertex 18.521984 62.209633 378.901917
   vertex 18.827158 62.246639 378.201019
   vertex 19.272783 61.211002 378.862701
  endloop
 facet normal -0.764234 -0.585217 0.271050
  outer loop
   vertex 19.272783 61.211002 378.862701
   vertex 19.342915 61.201752 379.040466
   vertex 18.521984 62.209633 378.901917
  endloop
 facet normal -0.764239 -0.585226 0.271013
  outer loop
   vertex 18.521984 62.209633 378.901917
   vertex 19.342915 61.201752 379.040466
   vertex 18.802509 62.172626 379.613068
  endloop
 facet normal -0.327238 -0.608514 0.722929
  outer loop
   vertex 18.802509 62.172626 379.613068
   vertex 19.342915 61.201752 379.040466
   vertex 19.518389 61.197918 379.116669
  endloop
 facet normal -0.327212 -0.608505 0.722948
  outer loop
   vertex 19.518389 61.197918 379.116669
   vertex 19.504404 62.157295 379.917847
   vertex 18.802509 62.172626 379.613068
  endloop
 facet normal 0.301721 -0.608518 0.733942
  outer loop
   vertex 19.696415 61.201752 379.046661
   vertex 19.504404 62.157295 379.917847
   vertex 19.518389 61.197918 379.116669
  endloop
 facet normal 0.301778 -0.608499 0.733934
  outer loop
   vertex 20.216507 62.172626 379.637756
   vertex 19.504404 62.157295 379.917847
   vertex 19.696415 61.201752 379.046661
  endloop
 facet normal 0.754319 -0.585222 0.297519
  outer loop
   vertex 19.696415 61.201752 379.046661
   vertex 19.772707 61.211002 378.871429
   vertex 20.216507 62.172626 379.637756
  endloop
 facet normal 0.754317 -0.585223 0.297521
  outer loop
   vertex 20.216507 62.172626 379.637756
   vertex 19.772707 61.211002 378.871429
   vertex 20.521681 62.209633 378.936829
  endloop
 facet normal 0.765280 -0.552310 -0.330605
  outer loop
   vertex 20.521681 62.209633 378.936829
   vertex 19.772707 61.211002 378.871429
   vertex 19.702578 61.220257 378.693634
  endloop
 facet normal 0.765276 -0.552300 -0.330630
  outer loop
   vertex 19.702578 61.220257 378.693634
   vertex 20.241156 62.246639 378.225708
   vertex 20.521681 62.209633 378.936829
  endloop
 facet normal 0.328283 -0.529020 -0.782539
  outer loop
   vertex 19.527103 61.224087 378.617432
   vertex 20.241156 62.246639 378.225708
   vertex 19.702578 61.220257 378.693634
  endloop
 facet normal -0.398753 -0.048360 0.915783
  outer loop
   vertex 19.356337 59.719975 388.400635
   vertex 19.355425 60.718601 388.452972
   vertex 19.180864 59.723804 388.324432
  endloop
 facet normal -0.398750 -0.048360 0.915784
  outer loop
   vertex 19.180864 59.723804 388.324432
   vertex 19.355425 60.718601 388.452972
   vertex 19.179951 60.722435 388.376770
  endloop
 facet normal -0.930394 -0.020034 0.366014
  outer loop
   vertex 19.179951 60.722435 388.376770
   vertex 19.110733 59.733055 388.146667
   vertex 19.180864 59.723804 388.324432
  endloop
 facet normal -0.930415 -0.020020 0.365960
  outer loop
   vertex 19.109819 60.731686 388.198975
   vertex 19.110733 59.733055 388.146667
   vertex 19.179951 60.722435 388.376770
  endloop
 facet normal -0.917073 0.020019 -0.398216
  outer loop
   vertex 19.187025 59.742310 387.971436
   vertex 19.110733 59.733055 388.146667
   vertex 19.109819 60.731686 388.198975
  endloop
 facet normal -0.917073 0.020019 -0.398216
  outer loop
   vertex 19.109819 60.731686 388.198975
   vertex 19.186111 60.740940 388.023743
   vertex 19.187025 59.742310 387.971436
  endloop
 facet normal -0.366573 0.048332 -0.929133
  outer loop
   vertex 19.187025 59.742310 387.971436
   vertex 19.186111 60.740940 388.023743
   vertex 19.365051 59.746140 387.901398
  endloop
 facet normal -0.366435 0.048363 -0.929186
  outer loop
   vertex 19.365051 59.746140 387.901398
   vertex 19.186111 60.740940 388.023743
   vertex 19.364138 60.744770 387.953735
  endloop
 facet normal 0.398749 0.048361 -0.915784
  outer loop
   vertex 19.364138 60.744770 387.953735
   vertex 19.540525 59.742310 387.977600
   vertex 19.365051 59.746140 387.901398
  endloop
 facet normal 0.398615 0.048336 -0.915844
  outer loop
   vertex 19.539612 60.740940 388.029907
   vertex 19.540525 59.742310 387.977600
   vertex 19.364138 60.744770 387.953735
  endloop
 facet normal 0.930394 0.020023 -0.366014
  outer loop
   vertex 19.610657 59.733055 388.155365
   vertex 19.540525 59.742310 387.977600
   vertex 19.539612 60.740940 388.029907
  endloop
 facet normal 0.930415 0.020031 -0.365959
  outer loop
   vertex 19.539612 60.740940 388.029907
   vertex 19.609743 60.731686 388.207703
   vertex 19.610657 59.733055 388.155365
  endloop
 facet normal 0.917069 -0.020032 0.398224
  outer loop
   vertex 19.610657 59.733055 388.155365
   vertex 19.609743 60.731686 388.207703
   vertex 19.534363 59.723804 388.330597
  endloop
 facet normal 0.917069 -0.020032 0.398224
  outer loop
   vertex 19.534363 59.723804 388.330597
   vertex 19.609743 60.731686 388.207703
   vertex 19.533449 60.722435 388.382935
  endloop
 facet normal 0.366573 -0.048360 0.929132
  outer loop
   vertex 19.533449 60.722435 388.382935
   vertex 19.356337 59.719975 388.400635
   vertex 19.534363 59.723804 388.330597
  endloop
 facet normal 0.366577 -0.048361 0.929130
  outer loop
   vertex 19.355425 60.718601 388.452972
   vertex 19.356337 59.719975 388.400635
   vertex 19.533449 60.722435 388.382935
  endloop
 facet normal 0.301821 -0.608508 0.733909
  outer loop
   vertex 19.533459 60.712410 388.382416
   vertex 20.053553 61.683285 388.973511
   vertex 19.355433 60.708580 388.452454
  endloop
 facet normal 0.301801 -0.608501 0.733923
  outer loop
   vertex 19.355433 60.708580 388.452454
   vertex 20.053553 61.683285 388.973511
   vertex 19.341448 61.667957 389.253632
  endloop
 facet normal -0.327234 -0.608500 0.722942
  outer loop
   vertex 19.341448 61.667957 389.253632
   vertex 19.179960 60.712410 388.376251
   vertex 19.355433 60.708580 388.452454
  endloop
 facet normal -0.327238 -0.608499 0.722941
  outer loop
   vertex 18.639555 61.683285 388.948822
   vertex 19.179960 60.712410 388.376251
   vertex 19.341448 61.667957 389.253632
  endloop
 facet normal -0.764247 -0.585219 0.271008
  outer loop
   vertex 19.109829 60.721661 388.198456
   vertex 19.179960 60.712410 388.376251
   vertex 18.639555 61.683285 388.948822
  endloop
 facet normal -0.764236 -0.585226 0.271024
  outer loop
   vertex 18.639555 61.683285 388.948822
   vertex 18.359030 61.720291 388.237701
   vertex 19.109829 60.721661 388.198456
  endloop
 facet normal -0.753276 -0.552300 -0.357128
  outer loop
   vertex 19.109829 60.721661 388.198456
   vertex 18.359030 61.720291 388.237701
   vertex 19.186121 60.730915 388.023224
  endloop
 facet normal -0.753277 -0.552301 -0.357123
  outer loop
   vertex 19.186121 60.730915 388.023224
   vertex 18.359030 61.720291 388.237701
   vertex 18.664202 61.757298 387.536774
  endloop
 facet normal -0.300793 -0.529033 -0.793504
  outer loop
   vertex 18.664202 61.757298 387.536774
   vertex 19.364147 60.734745 387.953186
   vertex 19.186121 60.730915 388.023224
  endloop
 facet normal -0.300734 -0.529008 -0.793543
  outer loop
   vertex 19.376305 61.772629 387.256683
   vertex 19.364147 60.734745 387.953186
   vertex 18.664202 61.757298 387.536774
  endloop
 facet normal 0.328289 -0.528999 -0.782551
  outer loop
   vertex 19.539621 60.730915 388.029388
   vertex 19.364147 60.734745 387.953186
   vertex 19.376305 61.772629 387.256683
  endloop
 facet normal 0.328250 -0.529012 -0.782559
  outer loop
   vertex 19.376305 61.772629 387.256683
   vertex 20.078199 61.757298 387.561462
   vertex 19.539621 60.730915 388.029388
  endloop
 facet normal 0.765285 -0.552298 -0.330614
  outer loop
   vertex 19.539621 60.730915 388.029388
   vertex 20.078199 61.757298 387.561462
   vertex 19.609753 60.721661 388.207184
  endloop
 facet normal 0.765282 -0.552299 -0.330618
  outer loop
   vertex 19.609753 60.721661 388.207184
   vertex 20.078199 61.757298 387.561462
   vertex 20.358725 61.720291 388.272614
  endloop
 facet normal 0.754313 -0.585228 0.297524
  outer loop
   vertex 20.358725 61.720291 388.272614
   vertex 19.533459 60.712410 388.382416
   vertex 19.609753 60.721661 388.207184
  endloop
 facet normal 0.754312 -0.585226 0.297530
  outer loop
   vertex 20.053553 61.683285 388.973511
   vertex 19.533459 60.712410 388.382416
   vertex 20.358725 61.720291 388.272614
  endloop
endsolid