solid stl file generated from DOUG
 facet normal 0.866927 -0.493128 -0.072538
  outer loop
   vertex -45.332771 81.155029 421.708008
   vertex -45.310879 81.211464 421.585999
   vertex -32.827744 101.450363 433.188232
  endloop
 facet normal 0.644044 0.040680 -0.763906
  outer loop
   vertex -32.827744 101.450363 433.188232
   vertex -45.310879 81.211464 421.585999
   vertex -32.889614 101.516418 433.139587
  endloop
 facet normal -0.101985 0.541345 -0.834593
  outer loop
   vertex -32.184586 100.683899 433.833252
   vertex -32.065311 100.636360 433.787842
   vertex -44.548447 80.397461 422.185608
  endloop
 facet normal 0.644179 0.040537 -0.763800
  outer loop
   vertex -44.548447 80.397461 422.185608
   vertex -32.065311 100.636360 433.787842
   vertex -32.003441 100.570312 433.836517
  endloop
 facet normal 0.644181 0.040535 -0.763799
  outer loop
   vertex -32.003441 100.570312 433.836517
   vertex -44.486576 80.331406 422.234283
   vertex -44.548447 80.397461 422.185608
  endloop
 facet normal 0.817243 -0.192719 -0.543114
  outer loop
   vertex -32.475395 100.540550 434.396210
   vertex -44.958530 80.301643 422.793976
   vertex -32.486538 100.561241 434.372101
  endloop
 facet normal 0.817243 -0.192719 -0.543114
  outer loop
   vertex -32.486538 100.561241 434.372101
   vertex -44.958530 80.301643 422.793976
   vertex -44.969673 80.322334 422.769867
  endloop
 facet normal 0.602105 -0.642833 0.473535
  outer loop
   vertex -44.969673 80.322334 422.769867
   vertex -44.599213 80.345695 422.330536
   vertex -32.486538 100.561241 434.372101
  endloop
 facet normal 0.866931 -0.493118 -0.072559
  outer loop
   vertex -32.827744 101.450363 433.188232
   vertex -32.849632 101.393929 433.310242
   vertex -45.332771 81.155029 421.708008
  endloop
 facet normal 0.644096 0.040625 -0.763865
  outer loop
   vertex -45.332771 81.155029 421.708008
   vertex -32.849632 101.393929 433.310242
   vertex -32.184586 100.683899 433.833252
  endloop
 facet normal 0.644095 0.040626 -0.763866
  outer loop
   vertex -32.184586 100.683899 433.833252
   vertex -44.667721 80.444992 422.231018
   vertex -45.332771 81.155029 421.708008
  endloop
 facet normal -0.102011 0.541355 -0.834583
  outer loop
   vertex -44.548447 80.397461 422.185608
   vertex -44.667721 80.444992 422.231018
   vertex -32.184586 100.683899 433.833252
  endloop
 facet normal 0.602062 -0.642835 0.473586
  outer loop
   vertex -44.486576 80.331406 422.234283
   vertex -32.003441 100.570312 433.836517
   vertex -44.572514 80.325989 422.336182
  endloop
 facet normal 0.602086 -0.642834 0.473558
  outer loop
   vertex -44.572514 80.325989 422.336182
   vertex -32.003441 100.570312 433.836517
   vertex -32.089378 100.564888 433.938416
  endloop
 facet normal -0.385018 -0.268679 0.882934
  outer loop
   vertex -32.089378 100.564888 433.938416
   vertex -44.599213 80.345695 422.330536
   vertex -44.572514 80.325989 422.336182
  endloop
 facet normal -0.385101 -0.268618 0.882917
  outer loop
   vertex -32.116074 100.584602 433.932770
   vertex -44.599213 80.345695 422.330536
   vertex -32.089378 100.564888 433.938416
  endloop
 facet normal 0.602102 -0.642833 0.473538
  outer loop
   vertex -32.486538 100.561241 434.372101
   vertex -44.599213 80.345695 422.330536
   vertex -32.116074 100.584602 433.932770
  endloop
 facet normal 0.471805 0.764927 0.438504
  outer loop
   vertex -32.691879 101.845825 433.299347
   vertex -32.326557 100.843666 434.654449
   vertex -31.785185 100.877800 434.012421
  endloop
 facet normal 0.602107 -0.642832 0.473533
  outer loop
   vertex -31.785185 100.877800 434.012421
   vertex -32.326557 100.843666 434.654449
   vertex -32.256985 100.112869 433.573914
  endloop
 facet normal 0.644104 0.040617 -0.763859
  outer loop
   vertex -32.256985 100.112869 433.573914
   vertex -33.163681 101.080894 432.860840
   vertex -31.785185 100.877800 434.012421
  endloop
 facet normal -0.471804 -0.764928 -0.438505
  outer loop
   vertex -32.798359 100.078735 434.215942
   vertex -33.163681 101.080894 432.860840
   vertex -32.256985 100.112869 433.573914
  endloop
 facet normal -0.471784 -0.764934 -0.438515
  outer loop
   vertex -33.705051 101.046753 433.502838
   vertex -33.163681 101.080894 432.860840
   vertex -32.798359 100.078735 434.215942
  endloop
 facet normal -0.644113 -0.040606 0.763852
  outer loop
   vertex -32.798359 100.078735 434.215942
   vertex -32.326557 100.843666 434.654449
   vertex -33.705051 101.046753 433.502838
  endloop
 facet normal -0.644113 -0.040606 0.763852
  outer loop
   vertex -33.705051 101.046753 433.502838
   vertex -32.326557 100.843666 434.654449
   vertex -33.233250 101.811684 433.941345
  endloop
 facet normal 0.471784 0.764934 0.438515
  outer loop
   vertex -33.233250 101.811684 433.941345
   vertex -32.326557 100.843666 434.654449
   vertex -32.691879 101.845825 433.299347
  endloop
 facet normal -0.602101 0.642833 -0.473540
  outer loop
   vertex -32.691879 101.845825 433.299347
   vertex -33.163681 101.080894 432.860840
   vertex -33.233250 101.811684 433.941345
  endloop
 facet normal 0.644104 0.040616 -0.763859
  outer loop
   vertex -31.785185 100.877800 434.012421
   vertex -33.163681 101.080894 432.860840
   vertex -32.691879 101.845825 433.299347
  endloop
 facet normal 0.471800 0.764929 0.438507
  outer loop
   vertex -44.188416 80.768456 422.484436
   vertex -45.095108 81.736473 421.771362
   vertex -44.729786 80.734314 423.126465
  endloop
 facet normal 0.471800 0.764929 0.438507
  outer loop
   vertex -44.729786 80.734314 423.126465
   vertex -45.095108 81.736473 421.771362
   vertex -45.636478 81.702332 422.413391
  endloop
 facet normal -0.644104 -0.040616 0.763859
  outer loop
   vertex -45.636478 81.702332 422.413391
   vertex -46.108280 80.937408 421.974884
   vertex -44.729786 80.734314 423.126465
  endloop
 facet normal -0.602109 0.642836 -0.473525
  outer loop
   vertex -45.095108 81.736473 421.771362
   vertex -46.108280 80.937408 421.974884
   vertex -45.636478 81.702332 422.413391
  endloop
 facet normal -0.602107 0.642831 -0.473535
  outer loop
   vertex -45.566906 80.971542 421.332855
   vertex -46.108280 80.937408 421.974884
   vertex -45.095108 81.736473 421.771362
  endloop
 facet normal 0.644105 0.040617 -0.763858
  outer loop
   vertex -45.095108 81.736473 421.771362
   vertex -44.660213 80.003525 422.045929
   vertex -45.566906 80.971542 421.332855
  endloop
 facet normal -0.471803 -0.764929 -0.438503
  outer loop
   vertex -45.566906 80.971542 421.332855
   vertex -44.660213 80.003525 422.045929
   vertex -46.108280 80.937408 421.974884
  endloop
 facet normal -0.471801 -0.764928 -0.438508
  outer loop
   vertex -46.108280 80.937408 421.974884
   vertex -44.660213 80.003525 422.045929
   vertex -45.201584 79.969383 422.687958
  endloop
 facet normal -0.644104 -0.040618 0.763858
  outer loop
   vertex -45.201584 79.969383 422.687958
   vertex -44.729786 80.734314 423.126465
   vertex -46.108280 80.937408 421.974884
  endloop
 facet normal 0.602113 -0.642831 0.473528
  outer loop
   vertex -44.660213 80.003525 422.045929
   vertex -44.729786 80.734314 423.126465
   vertex -45.201584 79.969383 422.687958
  endloop
 facet normal 0.602113 -0.642831 0.473528
  outer loop
   vertex -44.188416 80.768456 422.484436
   vertex -44.729786 80.734314 423.126465
   vertex -44.660213 80.003525 422.045929
  endloop
 facet normal 0.644105 0.040617 -0.763858
  outer loop
   vertex -44.660213 80.003525 422.045929
   vertex -45.095108 81.736473 421.771362
   vertex -44.188416 80.768456 422.484436
  endloop
 facet normal 0.644044 0.040680 -0.763906
  outer loop
   vertex -45.310879 81.211464 421.585999
   vertex -45.372749 81.277519 421.537354
   vertex -32.889614 101.516418 433.139587
  endloop
 facet normal -0.602086 0.642834 -0.473558
  outer loop
   vertex -32.889614 101.516418 433.139587
   vertex -45.372749 81.277519 421.537354
   vertex -45.458687 81.272095 421.639252
  endloop
 facet normal -0.602062 0.642835 -0.473586
  outer loop
   vertex -45.458687 81.272095 421.639252
   vertex -32.975552 101.511002 433.241486
   vertex -32.889614 101.516418 433.139587
  endloop
 facet normal -0.817243 0.192719 0.543114
  outer loop
   vertex -45.447544 81.251404 421.663361
   vertex -32.975552 101.511002 433.241486
   vertex -45.458687 81.272095 421.639252
  endloop
 facet normal -0.817243 0.192719 0.543114
  outer loop
   vertex -32.964409 101.490311 433.265594
   vertex -32.975552 101.511002 433.241486
   vertex -45.447544 81.251404 421.663361
  endloop
 facet normal -0.602100 0.642833 -0.473542
  outer loop
   vertex -45.447544 81.251404 421.663361
   vertex -45.818005 81.228050 422.102692
   vertex -32.964409 101.490311 433.265594
  endloop
 facet normal -0.602105 0.642833 -0.473535
  outer loop
   vertex -32.964409 101.490311 433.265594
   vertex -45.818005 81.228050 422.102692
   vertex -33.334869 101.466949 433.704926
  endloop
 facet normal 0.385018 0.268679 -0.882934
  outer loop
   vertex -33.334869 101.466949 433.704926
   vertex -45.818005 81.228050 422.102692
   vertex -45.844704 81.247757 422.097046
  endloop
 facet normal 0.385066 0.268644 -0.882924
  outer loop
   vertex -45.844704 81.247757 422.097046
   vertex -33.361568 101.486664 433.699280
   vertex -33.334869 101.466949 433.704926
  endloop
 facet normal -0.602083 0.642834 -0.473561
  outer loop
   vertex -45.887344 81.245071 422.147614
   vertex -33.361568 101.486664 433.699280
   vertex -45.844704 81.247757 422.097046
  endloop
 facet normal -0.602153 0.642830 -0.473478
  outer loop
   vertex -33.404205 101.483971 433.749847
   vertex -33.361568 101.486664 433.699280
   vertex -45.887344 81.245071 422.147614
  endloop
 facet normal -0.644102 -0.040618 0.763860
  outer loop
   vertex -45.887344 81.245071 422.147614
   vertex -45.001171 80.298958 422.844543
   vertex -33.404205 101.483971 433.749847
  endloop
 facet normal -0.644103 -0.040617 0.763859
  outer loop
   vertex -33.404205 101.483971 433.749847
   vertex -45.001171 80.298958 422.844543
   vertex -32.518036 100.537857 434.446777
  endloop
 facet normal 0.602131 -0.642831 0.473505
  outer loop
   vertex -32.518036 100.537857 434.446777
   vertex -45.001171 80.298958 422.844543
   vertex -32.475395 100.540550 434.396210
  endloop
 facet normal 0.602106 -0.642833 0.473534
  outer loop
   vertex -32.798359 100.078735 434.215942
   vertex -32.256985 100.112869 433.573914
   vertex -32.326557 100.843666 434.654449
  endloop
 facet normal -0.602101 0.642833 -0.473540
  outer loop
   vertex -33.163681 101.080894 432.860840
   vertex -33.705051 101.046753 433.502838
   vertex -33.233250 101.811684 433.941345
  endloop
 facet normal 0.602083 -0.642834 0.473561
  outer loop
   vertex -45.001171 80.298958 422.844543
   vertex -44.958530 80.301643 422.793976
   vertex -32.475395 100.540550 434.396210
  endloop
 facet normal -0.180807 -0.355563 -0.916997
  outer loop
   vertex -46.126472 80.632881 423.174652
   vertex -47.124428 80.018570 423.609619
   vertex -46.198364 80.802528 423.123047
  endloop
 facet normal -0.180833 -0.355535 -0.917003
  outer loop
   vertex -46.198364 80.802528 423.123047
   vertex -47.124428 80.018570 423.609619
   vertex -47.411995 80.697159 423.403229
  endloop
 facet normal -0.238799 0.270702 -0.932575
  outer loop
   vertex -47.411995 80.697159 423.403229
   vertex -46.159050 80.984818 423.165894
   vertex -46.198364 80.802528 423.123047
  endloop
 facet normal -0.238799 0.270697 -0.932576
  outer loop
   vertex -47.254734 81.426331 423.574615
   vertex -46.159050 80.984818 423.165894
   vertex -47.411995 80.697159 423.403229
  endloop
 facet normal 0.057985 0.751874 -0.656751
  outer loop
   vertex -46.031559 81.072975 423.278076
   vertex -46.159050 80.984818 423.165894
   vertex -47.254734 81.426331 423.574615
  endloop
 facet normal 0.058004 0.751906 -0.656714
  outer loop
   vertex -47.254734 81.426331 423.574615
   vertex -46.744770 81.778938 424.023376
   vertex -46.031559 81.072975 423.278076
  endloop
 facet normal 0.535766 0.806210 -0.250960
  outer loop
   vertex -46.031559 81.072975 423.278076
   vertex -46.744770 81.778938 424.023376
   vertex -45.890572 81.015343 423.393921
  endloop
 facet normal 0.535737 0.806215 -0.251006
  outer loop
   vertex -45.890572 81.015343 423.393921
   vertex -46.744770 81.778938 424.023376
   vertex -46.180828 81.548424 424.486633
  endloop
 facet normal 0.914522 0.401808 0.046902
  outer loop
   vertex -46.180828 81.548424 424.486633
   vertex -45.818680 80.845695 423.445496
   vertex -45.890572 81.015343 423.393921
  endloop
 facet normal 0.914520 0.401814 0.046897
  outer loop
   vertex -45.893261 80.869835 424.693054
   vertex -45.818680 80.845695 423.445496
   vertex -46.180828 81.548424 424.486633
  endloop
 facet normal 0.972489 -0.224412 0.062479
  outer loop
   vertex -45.857994 80.663406 423.402679
   vertex -45.818680 80.845695 423.445496
   vertex -45.893261 80.869835 424.693054
  endloop
 facet normal 0.972487 -0.224423 0.062481
  outer loop
   vertex -45.893261 80.869835 424.693054
   vertex -46.050522 80.140663 424.521667
   vertex -45.857994 80.663406 423.402679
  endloop
 facet normal 0.675684 -0.705632 -0.213386
  outer loop
   vertex -45.857994 80.663406 423.402679
   vertex -46.050522 80.140663 424.521667
   vertex -45.985489 80.575256 423.290466
  endloop
 facet normal 0.675680 -0.705636 -0.213388
  outer loop
   vertex -45.985489 80.575256 423.290466
   vertex -46.050522 80.140663 424.521667
   vertex -46.560486 79.788055 424.072906
  endloop
 facet normal 0.197957 -0.759952 -0.619102
  outer loop
   vertex -46.560486 79.788055 424.072906
   vertex -46.126472 80.632881 423.174652
   vertex -45.985489 80.575256 423.290466
  endloop
 facet normal 0.197964 -0.759952 -0.619098
  outer loop
   vertex -47.124428 80.018570 423.609619
   vertex -46.126472 80.632881 423.174652
   vertex -46.560486 79.788055 424.072906
  endloop
 facet normal -0.666297 -0.460716 -0.586335
  outer loop
   vertex -33.118237 100.729530 433.916107
   vertex -33.762341 100.688919 434.679962
   vertex -33.190128 100.899178 433.864502
  endloop
 facet normal -0.666297 -0.460716 -0.586335
  outer loop
   vertex -33.190128 100.899178 433.864502
   vertex -33.762341 100.688919 434.679962
   vertex -33.834232 100.858566 434.628357
  endloop
 facet normal -0.736824 0.301172 -0.605298
  outer loop
   vertex -33.834232 100.858566 434.628357
   vertex -33.150814 101.081474 433.907349
   vertex -33.190128 100.899178 433.864502
  endloop
 facet normal -0.736823 0.301184 -0.605294
  outer loop
   vertex -33.794918 101.040855 434.671204
   vertex -33.150814 101.081474 433.907349
   vertex -33.834232 100.858566 434.628357
  endloop
 facet normal -0.375726 0.886626 -0.269676
  outer loop
   vertex -33.023319 101.169624 434.019531
   vertex -33.150814 101.081474 433.907349
   vertex -33.794918 101.040855 434.671204
  endloop
 facet normal -0.375750 0.886606 -0.269707
  outer loop
   vertex -33.794918 101.040855 434.671204
   vertex -33.667427 101.129013 434.783386
   vertex -33.023319 101.169624 434.019531
  endloop
 facet normal 0.205468 0.952705 0.223909
  outer loop
   vertex -33.023319 101.169624 434.019531
   vertex -33.667427 101.129013 434.783386
   vertex -32.882336 101.112000 434.135345
  endloop
 facet normal 0.205489 0.952695 0.223935
  outer loop
   vertex -32.882336 101.112000 434.135345
   vertex -33.667427 101.129013 434.783386
   vertex -33.526440 101.071381 434.899200
  endloop
 facet normal 0.666295 0.460716 0.586338
  outer loop
   vertex -33.526440 101.071381 434.899200
   vertex -32.810444 100.942352 434.186951
   vertex -32.882336 101.112000 434.135345
  endloop
 facet normal 0.666295 0.460716 0.586338
  outer loop
   vertex -33.454548 100.901733 434.950806
   vertex -32.810444 100.942352 434.186951
   vertex -33.526440 101.071381 434.899200
  endloop
 facet normal 0.736825 -0.301172 0.605297
  outer loop
   vertex -32.849758 100.760056 434.144104
   vertex -32.810444 100.942352 434.186951
   vertex -33.454548 100.901733 434.950806
  endloop
 facet normal 0.736821 -0.301184 0.605296
  outer loop
   vertex -33.454548 100.901733 434.950806
   vertex -33.493862 100.719444 434.907959
   vertex -32.849758 100.760056 434.144104
  endloop
 facet normal 0.375727 -0.886622 0.269685
  outer loop
   vertex -32.849758 100.760056 434.144104
   vertex -33.493862 100.719444 434.907959
   vertex -32.977249 100.671906 434.031921
  endloop
 facet normal 0.375721 -0.886626 0.269682
  outer loop
   vertex -32.977249 100.671906 434.031921
   vertex -33.493862 100.719444 434.907959
   vertex -33.621357 100.631294 434.795776
  endloop
 facet normal -0.205465 -0.952707 -0.223907
  outer loop
   vertex -33.621357 100.631294 434.795776
   vertex -33.118237 100.729530 433.916107
   vertex -32.977249 100.671906 434.031921
  endloop
 facet normal -0.205469 -0.952705 -0.223909
  outer loop
   vertex -33.762341 100.688919 434.679962
   vertex -33.118237 100.729530 433.916107
   vertex -33.621357 100.631294 434.795776
  endloop
 facet normal -0.666306 -0.460691 -0.586344
  outer loop
   vertex -34.753830 100.075012 435.107269
   vertex -35.397938 100.034401 435.871124
   vertex -35.041397 100.753609 434.900879
  endloop
 facet normal -0.666305 -0.460692 -0.586345
  outer loop
   vertex -35.041397 100.753609 434.900879
   vertex -35.397938 100.034401 435.871124
   vertex -35.685501 100.712990 435.664734
  endloop
 facet normal -0.736828 0.301161 -0.605299
  outer loop
   vertex -35.685501 100.712990 435.664734
   vertex -34.884136 101.482773 435.072235
   vertex -35.041397 100.753609 434.900879
  endloop
 facet normal -0.736826 0.301155 -0.605305
  outer loop
   vertex -35.528244 101.442162 435.836090
   vertex -34.884136 101.482773 435.072235
   vertex -35.685501 100.712990 435.664734
  endloop
 facet normal -0.375725 0.886623 -0.269685
  outer loop
   vertex -34.374172 101.835381 435.520996
   vertex -34.884136 101.482773 435.072235
   vertex -35.528244 101.442162 435.836090
  endloop
 facet normal -0.375721 0.886633 -0.269660
  outer loop
   vertex -35.528244 101.442162 435.836090
   vertex -35.018276 101.794762 436.284882
   vertex -34.374172 101.835381 435.520996
  endloop
 facet normal 0.205467 0.952706 0.223908
  outer loop
   vertex -34.374172 101.835381 435.520996
   vertex -35.018276 101.794762 436.284882
   vertex -33.810230 101.604874 435.984283
  endloop
 facet normal 0.205469 0.952703 0.223919
  outer loop
   vertex -33.810230 101.604874 435.984283
   vertex -35.018276 101.794762 436.284882
   vertex -34.454334 101.564255 436.748138
  endloop
 facet normal 0.666305 0.460691 0.586345
  outer loop
   vertex -34.454334 101.564255 436.748138
   vertex -33.522663 100.926277 436.190674
   vertex -33.810230 101.604874 435.984283
  endloop
 facet normal 0.666306 0.460696 0.586341
  outer loop
   vertex -34.166767 100.885666 436.954529
   vertex -33.522663 100.926277 436.190674
   vertex -34.454334 101.564255 436.748138
  endloop
 facet normal 0.736826 -0.301161 0.605301
  outer loop
   vertex -33.679924 100.197113 436.019318
   vertex -33.522663 100.926277 436.190674
   vertex -34.166767 100.885666 436.954529
  endloop
 facet normal 0.736828 -0.301158 0.605300
  outer loop
   vertex -34.166767 100.885666 436.954529
   vertex -34.324028 100.156494 436.783173
   vertex -33.679924 100.197113 436.019318
  endloop
 facet normal 0.375730 -0.886623 0.269679
  outer loop
   vertex -33.679924 100.197113 436.019318
   vertex -34.324028 100.156494 436.783173
   vertex -34.189888 99.844505 435.570557
  endloop
 facet normal 0.375728 -0.886624 0.269679
  outer loop
   vertex -34.189888 99.844505 435.570557
   vertex -34.324028 100.156494 436.783173
   vertex -34.833996 99.803886 436.334412
  endloop
 facet normal -0.205462 -0.952706 -0.223914
  outer loop
   vertex -34.833996 99.803886 436.334412
   vertex -34.753830 100.075012 435.107269
   vertex -34.189888 99.844505 435.570557
  endloop
 facet normal -0.205474 -0.952703 -0.223914
  outer loop
   vertex -35.397938 100.034401 435.871124
   vertex -34.753830 100.075012 435.107269
   vertex -34.833996 99.803886 436.334412
  endloop
 facet normal -0.180807 -0.355563 -0.916997
  outer loop
   vertex -33.755875 100.689323 434.672302
   vertex -34.753830 100.075012 435.107269
   vertex -33.827766 100.858971 434.620697
  endloop
 facet normal -0.180836 -0.355533 -0.917003
  outer loop
   vertex -33.827766 100.858971 434.620697
   vertex -34.753830 100.075012 435.107269
   vertex -35.041397 100.753609 434.900879
  endloop
 facet normal -0.238798 0.270691 -0.932578
  outer loop
   vertex -35.041397 100.753609 434.900879
   vertex -33.788452 101.041267 434.663544
   vertex -33.827766 100.858971 434.620697
  endloop
 facet normal -0.238793 0.270663 -0.932588
  outer loop
   vertex -34.884136 101.482773 435.072235
   vertex -33.788452 101.041267 434.663544
   vertex -35.041397 100.753609 434.900879
  endloop
 facet normal 0.058009 0.751886 -0.656736
  outer loop
   vertex -33.660961 101.129417 434.775726
   vertex -33.788452 101.041267 434.663544
   vertex -34.884136 101.482773 435.072235
  endloop
 facet normal 0.058016 0.751898 -0.656722
  outer loop
   vertex -34.884136 101.482773 435.072235
   vertex -34.374172 101.835381 435.520996
   vertex -33.660961 101.129417 434.775726
  endloop
 facet normal 0.535722 0.806220 -0.251021
  outer loop
   vertex -33.660961 101.129417 434.775726
   vertex -34.374172 101.835381 435.520996
   vertex -33.519974 101.071793 434.891541
  endloop
 facet normal 0.535736 0.806217 -0.251000
  outer loop
   vertex -33.519974 101.071793 434.891541
   vertex -34.374172 101.835381 435.520996
   vertex -33.810230 101.604874 435.984283
  endloop
 facet normal 0.914520 0.401814 0.046897
  outer loop
   vertex -33.810230 101.604874 435.984283
   vertex -33.448082 100.902145 434.943146
   vertex -33.519974 101.071793 434.891541
  endloop
 facet normal 0.914522 0.401809 0.046901
  outer loop
   vertex -33.522663 100.926277 436.190674
   vertex -33.448082 100.902145 434.943146
   vertex -33.810230 101.604874 435.984283
  endloop
 facet normal 0.972485 -0.224432 0.062480
  outer loop
   vertex -33.487400 100.719849 434.900299
   vertex -33.448082 100.902145 434.943146
   vertex -33.522663 100.926277 436.190674
  endloop
 facet normal 0.972487 -0.224422 0.062478
  outer loop
   vertex -33.522663 100.926277 436.190674
   vertex -33.679924 100.197113 436.019318
   vertex -33.487400 100.719849 434.900299
  endloop
 facet normal 0.675667 -0.705649 -0.213388
  outer loop
   vertex -33.487400 100.719849 434.900299
   vertex -33.679924 100.197113 436.019318
   vertex -33.614891 100.631699 434.788116
  endloop
 facet normal 0.675679 -0.705638 -0.213384
  outer loop
   vertex -33.614891 100.631699 434.788116
   vertex -33.679924 100.197113 436.019318
   vertex -34.189888 99.844505 435.570557
  endloop
 facet normal 0.197954 -0.759954 -0.619099
  outer loop
   vertex -34.189888 99.844505 435.570557
   vertex -33.755875 100.689323 434.672302
   vertex -33.614891 100.631699 434.788116
  endloop
 facet normal 0.197969 -0.759955 -0.619093
  outer loop
   vertex -34.753830 100.075012 435.107269
   vertex -33.755875 100.689323 434.672302
   vertex -34.189888 99.844505 435.570557
  endloop
 facet normal -0.666295 -0.460716 -0.586338
  outer loop
   vertex -45.488834 80.673088 422.418457
   vertex -46.132938 80.632469 423.182312
   vertex -45.560726 80.842735 422.366852
  endloop
 facet normal -0.666304 -0.460700 -0.586340
  outer loop
   vertex -45.560726 80.842735 422.366852
   vertex -46.132938 80.632469 423.182312
   vertex -46.204830 80.802124 423.130707
  endloop
 facet normal -0.736818 0.301198 -0.605292
  outer loop
   vertex -46.204830 80.802124 423.130707
   vertex -45.521408 81.025024 422.409698
   vertex -45.560726 80.842735 422.366852
  endloop
 facet normal -0.736819 0.301184 -0.605298
  outer loop
   vertex -46.165516 80.984413 423.173553
   vertex -45.521408 81.025024 422.409698
   vertex -46.204830 80.802124 423.130707
  endloop
 facet normal -0.375721 0.886626 -0.269682
  outer loop
   vertex -45.393917 81.113182 422.521912
   vertex -45.521408 81.025024 422.409698
   vertex -46.165516 80.984413 423.173553
  endloop
 facet normal -0.375702 0.886642 -0.269656
  outer loop
   vertex -46.165516 80.984413 423.173553
   vertex -46.038025 81.072563 423.285767
   vertex -45.393917 81.113182 422.521912
  endloop
 facet normal 0.205491 0.952694 0.223938
  outer loop
   vertex -45.393917 81.113182 422.521912
   vertex -46.038025 81.072563 423.285767
   vertex -45.252934 81.055550 422.637726
  endloop
 facet normal 0.205465 0.952707 0.223906
  outer loop
   vertex -45.252934 81.055550 422.637726
   vertex -46.038025 81.072563 423.285767
   vertex -45.897038 81.014938 423.401581
  endloop
 facet normal 0.666297 0.460716 0.586335
  outer loop
   vertex -45.897038 81.014938 423.401581
   vertex -45.181042 80.885902 422.689331
   vertex -45.252934 81.055550 422.637726
  endloop
 facet normal 0.666297 0.460716 0.586335
  outer loop
   vertex -45.825146 80.845291 423.453186
   vertex -45.181042 80.885902 422.689331
   vertex -45.897038 81.014938 423.401581
  endloop
 facet normal 0.736821 -0.301184 0.605296
  outer loop
   vertex -45.220356 80.703613 422.646484
   vertex -45.181042 80.885902 422.689331
   vertex -45.825146 80.845291 423.453186
  endloop
 facet normal 0.736825 -0.301172 0.605297
  outer loop
   vertex -45.825146 80.845291 423.453186
   vertex -45.864460 80.662994 423.410339
   vertex -45.220356 80.703613 422.646484
  endloop
 facet normal 0.375703 -0.886642 0.269655
  outer loop
   vertex -45.220356 80.703613 422.646484
   vertex -45.864460 80.662994 423.410339
   vertex -45.347847 80.615463 422.534271
  endloop
 facet normal 0.375703 -0.886642 0.269655
  outer loop
   vertex -45.347847 80.615463 422.534271
   vertex -45.864460 80.662994 423.410339
   vertex -45.991951 80.574844 423.298126
  endloop
 facet normal -0.205461 -0.952706 -0.223912
  outer loop
   vertex -45.991951 80.574844 423.298126
   vertex -45.488834 80.673088 422.418457
   vertex -45.347847 80.615463 422.534271
  endloop
 facet normal -0.205461 -0.952706 -0.223912
  outer loop
   vertex -46.132938 80.632469 423.182312
   vertex -45.488834 80.673088 422.418457
   vertex -45.991951 80.574844 423.298126
  endloop
 facet normal -0.205474 -0.952703 -0.223913
  outer loop
   vertex -46.560486 79.788055 424.072906
   vertex -47.204590 79.747444 424.836761
   vertex -47.124428 80.018570 423.609619
  endloop
 facet normal -0.205474 -0.952703 -0.223913
  outer loop
   vertex -47.124428 80.018570 423.609619
   vertex -47.204590 79.747444 424.836761
   vertex -47.768532 79.977951 424.373505
  endloop
 facet normal -0.666315 -0.460696 -0.586330
  outer loop
   vertex -47.768532 79.977951 424.373505
   vertex -47.411995 80.697159 423.403229
   vertex -47.124428 80.018570 423.609619
  endloop
 facet normal -0.666299 -0.460712 -0.586336
  outer loop
   vertex -48.056099 80.656548 424.167084
   vertex -47.411995 80.697159 423.403229
   vertex -47.768532 79.977951 424.373505
  endloop
 facet normal -0.736822 0.301181 -0.605296
  outer loop
   vertex -47.254734 81.426331 423.574615
   vertex -47.411995 80.697159 423.403229
   vertex -48.056099 80.656548 424.167084
  endloop
 facet normal -0.736822 0.301181 -0.605297
  outer loop
   vertex -48.056099 80.656548 424.167084
   vertex -47.898842 81.385712 424.338470
   vertex -47.254734 81.426331 423.574615
  endloop
 facet normal -0.375729 0.886623 -0.269680
  outer loop
   vertex -47.254734 81.426331 423.574615
   vertex -47.898842 81.385712 424.338470
   vertex -46.744770 81.778938 424.023376
  endloop
 facet normal -0.375729 0.886624 -0.269678
  outer loop
   vertex -46.744770 81.778938 424.023376
   vertex -47.898842 81.385712 424.338470
   vertex -47.388874 81.738319 424.787231
  endloop
 facet normal 0.205476 0.952700 0.223924
  outer loop
   vertex -47.388874 81.738319 424.787231
   vertex -46.180828 81.548424 424.486633
   vertex -46.744770 81.778938 424.023376
  endloop
 facet normal 0.205472 0.952706 0.223902
  outer loop
   vertex -46.824932 81.507812 425.250519
   vertex -46.180828 81.548424 424.486633
   vertex -47.388874 81.738319 424.787231
  endloop
 facet normal 0.666309 0.460717 0.586321
  outer loop
   vertex -45.893261 80.869835 424.693054
   vertex -46.180828 81.548424 424.486633
   vertex -46.824932 81.507812 425.250519
  endloop
 facet normal 0.666305 0.460691 0.586345
  outer loop
   vertex -46.824932 81.507812 425.250519
   vertex -46.537365 80.829216 425.456909
   vertex -45.893261 80.869835 424.693054
  endloop
 facet normal 0.736823 -0.301181 0.605294
  outer loop
   vertex -45.893261 80.869835 424.693054
   vertex -46.537365 80.829216 425.456909
   vertex -46.050522 80.140663 424.521667
  endloop
 facet normal 0.736821 -0.301184 0.605295
  outer loop
   vertex -46.050522 80.140663 424.521667
   vertex -46.537365 80.829216 425.456909
   vertex -46.694626 80.100052 425.285522
  endloop
 facet normal 0.375726 -0.886623 0.269684
  outer loop
   vertex -46.694626 80.100052 425.285522
   vertex -46.560486 79.788055 424.072906
   vertex -46.050522 80.140663 424.521667
  endloop
 facet normal 0.375726 -0.886623 0.269684
  outer loop
   vertex -47.204590 79.747444 424.836761
   vertex -46.560486 79.788055 424.072906
   vertex -46.694626 80.100052 425.285522
  endloop
endsolid