solid stl file generated from DOUG
 facet normal 0.397878 0.780793 0.481722
  outer loop
   vertex 45.426556 218.809067 456.059265
   vertex 45.500179 218.724121 456.136139
   vertex 65.112747 219.671326 438.401886
  endloop
 endfacet

 facet normal 0.671221 -0.038099 0.740278
  outer loop
   vertex 65.112747 219.671326 438.401886
   vertex 45.500179 218.724121 456.136139
   vertex 65.112846 219.568710 438.396515
  endloop
 endfacet

 facet normal 0.399273 -0.826213 0.397433
  outer loop
   vertex 65.038116 220.859299 438.382812
   vertex 65.111595 220.935867 438.468170
   vertex 45.499023 219.988663 456.202423
  endloop
 endfacet

 facet normal 0.671221 -0.038149 0.740275
  outer loop
   vertex 45.499023 219.988663 456.202423
   vertex 65.111595 220.935867 438.468170
   vertex 65.111504 221.038483 438.473541
  endloop
 endfacet

 facet normal 0.671221 -0.038149 0.740275
  outer loop
   vertex 65.111504 221.038483 438.473541
   vertex 45.498932 220.091278 456.207794
   vertex 45.499023 219.988663 456.202423
  endloop
 endfacet

 facet normal 0.626242 0.322506 0.709796
  outer loop
   vertex 64.619682 221.066452 437.931122
   vertex 45.007111 220.119247 455.665375
   vertex 64.627815 221.034607 437.938416
  endloop
 endfacet

 facet normal 0.626242 0.322506 0.709796
  outer loop
   vertex 64.627815 221.034607 437.938416
   vertex 45.007111 220.119247 455.665375
   vertex 45.015244 220.087402 455.672668
  endloop
 endfacet

 facet normal -0.000914 0.998630 0.052327
  outer loop
   vertex 45.015244 220.087402 455.672668
   vertex 45.401302 220.065445 456.098450
   vertex 64.627815 221.034607 437.938416
  endloop
 endfacet

 facet normal 0.397878 0.780793 0.481722
  outer loop
   vertex 65.112747 219.671326 438.401886
   vertex 65.039124 219.756271 438.325012
   vertex 45.426556 218.809067 456.059265
  endloop
 endfacet

 facet normal 0.671221 -0.038179 0.740274
  outer loop
   vertex 45.426556 218.809067 456.059265
   vertex 65.039124 219.756271 438.325012
   vertex 65.038116 220.859299 438.382812
  endloop
 endfacet

 facet normal 0.671221 -0.038177 0.740274
  outer loop
   vertex 65.038116 220.859299 438.382812
   vertex 45.425545 219.912079 456.117065
   vertex 45.426556 218.809067 456.059265
  endloop
 endfacet

 facet normal 0.399323 -0.826161 0.397491
  outer loop
   vertex 45.499023 219.988663 456.202423
   vertex 45.425545 219.912079 456.117065
   vertex 65.038116 220.859299 438.382812
  endloop
 endfacet

 facet normal -0.000972 0.998633 0.052263
  outer loop
   vertex 45.498932 220.091278 456.207794
   vertex 65.111504 221.038483 438.473541
   vertex 45.409378 220.096359 456.109039
  endloop
 endfacet

 facet normal -0.000896 0.998628 0.052348
  outer loop
   vertex 45.409378 220.096359 456.109039
   vertex 65.111504 221.038483 438.473541
   vertex 65.021950 221.043579 438.374786
  endloop
 endfacet

 facet normal -0.626839 0.394004 -0.672186
  outer loop
   vertex 65.021950 221.043579 438.374786
   vertex 45.401302 220.065445 456.098450
   vertex 45.409378 220.096359 456.109039
  endloop
 endfacet

 facet normal -0.626865 0.393905 -0.672220
  outer loop
   vertex 65.013870 221.012650 438.364197
   vertex 45.401302 220.065445 456.098450
   vertex 65.021950 221.043579 438.374786
  endloop
 endfacet

 facet normal -0.000914 0.998630 0.052327
  outer loop
   vertex 64.627815 221.034607 437.938416
   vertex 45.401302 220.065445 456.098450
   vertex 65.013870 221.012650 438.364197
  endloop
 endfacet

 facet normal 0.741252 0.035798 -0.670272
  outer loop
   vertex 65.433273 219.565857 438.131104
   vertex 64.867737 221.101746 437.587708
   vertex 65.431900 221.069656 438.209900
  endloop
 endfacet

 facet normal -0.000909 0.998630 0.052328
  outer loop
   vertex 65.431900 221.069656 438.209900
   vertex 64.867737 221.101746 437.587708
   vertex 64.690643 221.033859 438.880188
  endloop
 endfacet

 facet normal 0.671233 -0.038190 0.740262
  outer loop
   vertex 64.690643 221.033859 438.880188
   vertex 64.692017 219.530045 438.801361
   vertex 65.431900 221.069656 438.209900
  endloop
 endfacet

 facet normal -0.741267 -0.035810 0.670254
  outer loop
   vertex 64.126480 221.065933 438.257965
   vertex 64.692017 219.530045 438.801361
   vertex 64.690643 221.033859 438.880188
  endloop
 endfacet

 facet normal -0.741252 -0.035798 0.670272
  outer loop
   vertex 64.127853 219.562134 438.179169
   vertex 64.692017 219.530045 438.801361
   vertex 64.126480 221.065933 438.257965
  endloop
 endfacet

 facet normal -0.671217 0.038176 -0.740278
  outer loop
   vertex 64.126480 221.065933 438.257965
   vertex 64.867737 221.101746 437.587708
   vertex 64.127853 219.562134 438.179169
  endloop
 endfacet

 facet normal -0.671216 0.038176 -0.740278
  outer loop
   vertex 64.127853 219.562134 438.179169
   vertex 64.867737 221.101746 437.587708
   vertex 64.869110 219.597931 437.508911
  endloop
 endfacet

 facet normal 0.741251 0.035798 -0.670273
  outer loop
   vertex 64.869110 219.597931 437.508911
   vertex 64.867737 221.101746 437.587708
   vertex 65.433273 219.565857 438.131104
  endloop
 endfacet

 facet normal 0.000933 -0.998630 -0.052325
  outer loop
   vertex 65.433273 219.565857 438.131104
   vertex 64.692017 219.530045 438.801361
   vertex 64.869110 219.597931 437.508911
  endloop
 endfacet

 facet normal 0.671217 -0.038176 0.740278
  outer loop
   vertex 65.431900 221.069656 438.209900
   vertex 64.692017 219.530045 438.801361
   vertex 65.433273 219.565857 438.131104
  endloop
 endfacet

 facet normal 0.741252 0.035798 -0.670272
  outer loop
   vertex 45.944874 220.128510 455.830627
   vertex 45.946247 218.624710 455.751831
   vertex 45.380711 220.160599 455.208435
  endloop
 endfacet

 facet normal 0.741253 0.035799 -0.670270
  outer loop
   vertex 45.380711 220.160599 455.208435
   vertex 45.946247 218.624710 455.751831
   vertex 45.382088 218.656784 455.129639
  endloop
 endfacet

 facet normal -0.671216 0.038174 -0.740278
  outer loop
   vertex 45.382088 218.656784 455.129639
   vertex 44.640831 218.620987 455.799896
   vertex 45.380711 220.160599 455.208435
  endloop
 endfacet

 facet normal 0.000922 -0.998630 -0.052315
  outer loop
   vertex 45.946247 218.624710 455.751831
   vertex 44.640831 218.620987 455.799896
   vertex 45.382088 218.656784 455.129639
  endloop
 endfacet

 facet normal 0.000921 -0.998629 -0.052336
  outer loop
   vertex 45.204990 218.588898 456.422119
   vertex 44.640831 218.620987 455.799896
   vertex 45.946247 218.624710 455.751831
  endloop
 endfacet

 facet normal 0.671233 -0.038175 0.740262
  outer loop
   vertex 45.946247 218.624710 455.751831
   vertex 45.203617 220.092712 456.500916
   vertex 45.204990 218.588898 456.422119
  endloop
 endfacet

 facet normal -0.741270 -0.035797 0.670252
  outer loop
   vertex 45.204990 218.588898 456.422119
   vertex 45.203617 220.092712 456.500916
   vertex 44.640831 218.620987 455.799896
  endloop
 endfacet

 facet normal -0.741268 -0.035799 0.670254
  outer loop
   vertex 44.640831 218.620987 455.799896
   vertex 45.203617 220.092712 456.500916
   vertex 44.639454 220.124802 455.878693
  endloop
 endfacet

 facet normal -0.671216 0.038174 -0.740278
  outer loop
   vertex 44.639454 220.124802 455.878693
   vertex 45.380711 220.160599 455.208435
   vertex 44.640831 218.620987 455.799896
  endloop
 endfacet

 facet normal -0.000911 0.998630 0.052327
  outer loop
   vertex 45.203617 220.092712 456.500916
   vertex 45.380711 220.160599 455.208435
   vertex 44.639454 220.124802 455.878693
  endloop
 endfacet

 facet normal -0.000909 0.998630 0.052328
  outer loop
   vertex 45.944874 220.128510 455.830627
   vertex 45.380711 220.160599 455.208435
   vertex 45.203617 220.092712 456.500916
  endloop
 endfacet

 facet normal 0.671233 -0.038175 0.740263
  outer loop
   vertex 45.203617 220.092712 456.500916
   vertex 45.946247 218.624710 455.751831
   vertex 45.944874 220.128510 455.830627
  endloop
 endfacet

 facet normal 0.671221 -0.038124 0.740277
  outer loop
   vertex 45.500179 218.724121 456.136139
   vertex 45.500275 218.621506 456.130768
   vertex 65.112846 219.568710 438.396515
  endloop
 endfacet

 facet normal 0.000895 -0.998629 -0.052348
  outer loop
   vertex 65.112846 219.568710 438.396515
   vertex 45.500275 218.621506 456.130768
   vertex 45.410721 218.626602 456.032013
  endloop
 endfacet

 facet normal 0.000895 -0.998629 -0.052348
  outer loop
   vertex 45.410721 218.626602 456.032013
   vertex 65.023293 219.573807 438.297760
   vertex 65.112846 219.568710 438.396515
  endloop
 endfacet

 facet normal -0.626207 -0.322644 -0.709764
  outer loop
   vertex 45.402588 218.658432 456.024719
   vertex 65.023293 219.573807 438.297760
   vertex 45.410721 218.626602 456.032013
  endloop
 endfacet

 facet normal -0.626242 -0.322506 -0.709796
  outer loop
   vertex 65.015160 219.605652 438.290466
   vertex 65.023293 219.573807 438.297760
   vertex 45.402588 218.658432 456.024719
  endloop
 endfacet

 facet normal 0.000914 -0.998630 -0.052328
  outer loop
   vertex 45.402588 218.658432 456.024719
   vertex 45.016529 218.680389 455.598938
   vertex 65.015160 219.605652 438.290466
  endloop
 endfacet

 facet normal 0.000914 -0.998630 -0.052328
  outer loop
   vertex 65.015160 219.605652 438.290466
   vertex 45.016529 218.680389 455.598938
   vertex 64.629097 219.627609 437.864685
  endloop
 endfacet

 facet normal 0.626839 -0.394004 0.672186
  outer loop
   vertex 64.629097 219.627609 437.864685
   vertex 45.016529 218.680389 455.598938
   vertex 45.008453 218.649475 455.588348
  endloop
 endfacet

 facet normal 0.626899 -0.393775 0.672265
  outer loop
   vertex 45.008453 218.649475 455.588348
   vertex 64.621025 219.596680 437.854095
   vertex 64.629097 219.627609 437.864685
  endloop
 endfacet

 facet normal 0.000858 -0.998626 -0.052388
  outer loop
   vertex 44.964020 218.652008 455.539337
   vertex 64.621025 219.596680 437.854095
   vertex 45.008453 218.649475 455.588348
  endloop
 endfacet

 facet normal 0.000842 -0.998625 -0.052406
  outer loop
   vertex 64.576591 219.599213 437.805115
   vertex 64.621025 219.596680 437.854095
   vertex 44.964020 218.652008 455.539337
  endloop
 endfacet

 facet normal -0.671220 0.038181 -0.740274
  outer loop
   vertex 44.964020 218.652008 455.539337
   vertex 44.962673 220.121765 455.616364
   vertex 64.576591 219.599213 437.805115
  endloop
 endfacet

 facet normal -0.671221 0.038163 -0.740274
  outer loop
   vertex 64.576591 219.599213 437.805115
   vertex 44.962673 220.121765 455.616364
   vertex 64.575241 221.068985 437.882111
  endloop
 endfacet

 facet normal -0.000859 0.998626 0.052389
  outer loop
   vertex 64.575241 221.068985 437.882111
   vertex 44.962673 220.121765 455.616364
   vertex 64.619682 221.066452 437.931122
  endloop
 endfacet

 facet normal -0.000934 0.998630 0.052324
  outer loop
   vertex 64.126480 221.065933 438.257965
   vertex 64.690643 221.033859 438.880188
   vertex 64.867737 221.101746 437.587708
  endloop
 endfacet

 facet normal 0.000910 -0.998630 -0.052329
  outer loop
   vertex 64.692017 219.530045 438.801361
   vertex 64.127853 219.562134 438.179169
   vertex 64.869110 219.597931 437.508911
  endloop
 endfacet

 facet normal -0.001013 0.998635 0.052218
  outer loop
   vertex 44.962673 220.121765 455.616364
   vertex 45.007111 220.119247 455.665375
   vertex 64.619682 221.066452 437.931122
  endloop
 endfacet

 facet normal -0.180334 -0.362990 0.914176
  outer loop
   vertex 44.219780 219.418991 454.952301
   vertex 42.992615 219.430313 454.714722
   vertex 44.274220 219.245071 454.893982
  endloop
 endfacet

 facet normal -0.180338 -0.363041 0.914155
  outer loop
   vertex 44.274220 219.245071 454.893982
   vertex 42.992615 219.430313 454.714722
   vertex 43.210373 218.734665 454.481415
  endloop
 endfacet

 facet normal 0.149823 -0.791365 0.592701
  outer loop
   vertex 43.210373 218.734665 454.481415
   vertex 44.405323 219.178284 454.771667
   vertex 44.274220 219.245071 454.893982
  endloop
 endfacet

 facet normal 0.149820 -0.791361 0.592707
  outer loop
   vertex 43.734787 218.467484 453.992126
   vertex 44.405323 219.178284 454.771667
   vertex 43.210373 218.734665 454.481415
  endloop
 endfacet

 facet normal 0.616164 -0.768825 0.171025
  outer loop
   vertex 44.536293 219.257736 454.656982
   vertex 44.405323 219.178284 454.771667
   vertex 43.734787 218.467484 453.992126
  endloop
 endfacet

 facet normal 0.616150 -0.768831 0.171049
  outer loop
   vertex 43.734787 218.467484 453.992126
   vertex 44.258667 218.785294 453.533508
   vertex 44.536293 219.257736 454.656982
  endloop
 endfacet

 facet normal 0.945482 -0.308676 -0.103837
  outer loop
   vertex 44.536293 219.257736 454.656982
   vertex 44.258667 218.785294 453.533508
   vertex 44.590408 219.436890 454.617157
  endloop
 endfacet

 facet normal 0.945481 -0.308680 -0.103835
  outer loop
   vertex 44.590408 219.436890 454.617157
   vertex 44.258667 218.785294 453.533508
   vertex 44.475132 219.501907 453.374207
  endloop
 endfacet

 facet normal 0.944899 0.319588 -0.070916
  outer loop
   vertex 44.475132 219.501907 453.374207
   vertex 44.535969 219.610794 454.675507
   vertex 44.590408 219.436890 454.617157
  endloop
 endfacet

 facet normal 0.944909 0.319560 -0.070915
  outer loop
   vertex 44.257374 220.197571 453.607513
   vertex 44.535969 219.610794 454.675507
   vertex 44.475132 219.501907 453.374207
  endloop
 endfacet

 facet normal 0.614783 0.747853 0.250514
  outer loop
   vertex 44.404865 219.677597 454.797821
   vertex 44.535969 219.610794 454.675507
   vertex 44.257374 220.197571 453.607513
  endloop
 endfacet

 facet normal 0.614754 0.747873 0.250526
  outer loop
   vertex 44.257374 220.197571 453.607513
   vertex 43.732960 220.464737 454.096802
   vertex 44.404865 219.677597 454.797821
  endloop
 endfacet

 facet normal 0.148426 0.725346 0.672193
  outer loop
   vertex 44.404865 219.677597 454.797821
   vertex 43.732960 220.464737 454.096802
   vertex 44.273895 219.598145 454.912476
  endloop
 endfacet

 facet normal 0.148440 0.725349 0.672187
  outer loop
   vertex 44.273895 219.598145 454.912476
   vertex 43.732960 220.464737 454.096802
   vertex 43.209080 220.146942 454.555420
  endloop
 endfacet

 facet normal -0.180905 0.265178 0.947077
  outer loop
   vertex 43.209080 220.146942 454.555420
   vertex 44.219780 219.418991 454.952301
   vertex 44.273895 219.598145 454.912476
  endloop
 endfacet

 facet normal -0.180908 0.265174 0.947077
  outer loop
   vertex 42.992615 219.430313 454.714722
   vertex 44.219780 219.418991 454.952301
   vertex 43.209080 220.146942 454.555420
  endloop
 endfacet

 facet normal -0.684476 -0.415268 0.599204
  outer loop
   vertex 64.320023 220.319870 438.110779
   vertex 63.648800 220.358032 437.370483
   vertex 64.374458 220.145950 438.052429
  endloop
 endfacet

 facet normal -0.684483 -0.415224 0.599226
  outer loop
   vertex 64.374458 220.145950 438.052429
   vertex 63.648800 220.358032 437.370483
   vertex 63.703239 220.184128 437.312164
  endloop
 endfacet

 facet normal -0.282804 -0.936323 0.208138
  outer loop
   vertex 63.703239 220.184128 437.312164
   vertex 64.505562 220.079163 437.930115
   vertex 64.374458 220.145950 438.052429
  endloop
 endfacet

 facet normal -0.282846 -0.936297 0.208196
  outer loop
   vertex 63.834343 220.117325 437.189850
   vertex 64.505562 220.079163 437.930115
   vertex 63.703239 220.184128 437.312164
  endloop
 endfacet

 facet normal 0.284518 -0.908913 -0.304837
  outer loop
   vertex 64.636536 220.158615 437.815460
   vertex 64.505562 220.079163 437.930115
   vertex 63.834343 220.117325 437.189850
  endloop
 endfacet

 facet normal 0.284522 -0.908911 -0.304841
  outer loop
   vertex 63.834343 220.117325 437.189850
   vertex 63.965313 220.196777 437.075195
   vertex 64.636536 220.158615 437.815460
  endloop
 endfacet

 facet normal 0.685183 -0.349076 -0.639273
  outer loop
   vertex 64.636536 220.158615 437.815460
   vertex 63.965313 220.196777 437.075195
   vertex 64.690651 220.337769 437.775635
  endloop
 endfacet

 facet normal 0.685185 -0.349063 -0.639278
  outer loop
   vertex 64.690651 220.337769 437.775635
   vertex 63.965313 220.196777 437.075195
   vertex 64.019432 220.375946 437.035370
  endloop
 endfacet

 facet normal 0.684479 0.415236 -0.599222
  outer loop
   vertex 64.019432 220.375946 437.035370
   vertex 64.636208 220.511673 437.833954
   vertex 64.690651 220.337769 437.775635
  endloop
 endfacet

 facet normal 0.684485 0.415224 -0.599224
  outer loop
   vertex 63.964993 220.549850 437.093689
   vertex 64.636208 220.511673 437.833954
   vertex 64.019432 220.375946 437.035370
  endloop
 endfacet

 facet normal 0.282833 0.936308 -0.208163
  outer loop
   vertex 64.505104 220.578476 437.956299
   vertex 64.636208 220.511673 437.833954
   vertex 63.964993 220.549850 437.093689
  endloop
 endfacet

 facet normal 0.282856 0.936299 -0.208177
  outer loop
   vertex 63.964993 220.549850 437.093689
   vertex 63.833885 220.616653 437.216003
   vertex 64.505104 220.578476 437.956299
  endloop
 endfacet

 facet normal -0.284523 0.908908 0.304847
  outer loop
   vertex 64.505104 220.578476 437.956299
   vertex 63.833885 220.616653 437.216003
   vertex 64.374138 220.499023 438.070953
  endloop
 endfacet

 facet normal -0.284519 0.908911 0.304845
  outer loop
   vertex 64.374138 220.499023 438.070953
   vertex 63.833885 220.616653 437.216003
   vertex 63.702915 220.537201 437.330658
  endloop
 endfacet

 facet normal -0.685192 0.349077 0.639263
  outer loop
   vertex 63.702915 220.537201 437.330658
   vertex 64.320023 220.319870 438.110779
   vertex 64.374138 220.499023 438.070953
  endloop
 endfacet

 facet normal -0.685204 0.349051 0.639265
  outer loop
   vertex 63.648800 220.358032 437.370483
   vertex 64.320023 220.319870 438.110779
   vertex 63.702915 220.537201 437.330658
  endloop
 endfacet

 facet normal -0.684483 -0.415220 0.599229
  outer loop
   vertex 62.428375 220.368988 437.140350
   vertex 61.757153 220.407166 436.400085
   vertex 62.646130 219.673325 436.907043
  endloop
 endfacet

 facet normal -0.684489 -0.415244 0.599205
  outer loop
   vertex 62.646130 219.673325 436.907043
   vertex 61.757153 220.407166 436.400085
   vertex 61.974911 219.711502 436.166748
  endloop
 endfacet

 facet normal -0.282816 -0.936319 0.208140
  outer loop
   vertex 61.974911 219.711502 436.166748
   vertex 63.170544 219.406158 436.417755
   vertex 62.646130 219.673325 436.907043
  endloop
 endfacet

 facet normal -0.282817 -0.936316 0.208150
  outer loop
   vertex 62.499325 219.444336 435.677490
   vertex 63.170544 219.406158 436.417755
   vertex 61.974911 219.711502 436.166748
  endloop
 endfacet

 facet normal 0.284500 -0.908919 -0.304839
  outer loop
   vertex 63.694427 219.723953 435.959137
   vertex 63.170544 219.406158 436.417755
   vertex 62.499325 219.444336 435.677490
  endloop
 endfacet

 facet normal 0.284500 -0.908918 -0.304841
  outer loop
   vertex 62.499325 219.444336 435.677490
   vertex 63.023205 219.762131 435.218872
   vertex 63.694427 219.723953 435.959137
  endloop
 endfacet

 facet normal 0.685181 -0.349070 -0.639279
  outer loop
   vertex 63.694427 219.723953 435.959137
   vertex 63.023205 219.762131 435.218872
   vertex 63.910889 220.440582 435.799835
  endloop
 endfacet

 facet normal 0.685188 -0.349097 -0.639256
  outer loop
   vertex 63.910889 220.440582 435.799835
   vertex 63.023205 219.762131 435.218872
   vertex 63.239670 220.478760 435.059540
  endloop
 endfacet

 facet normal 0.684494 0.415227 -0.599211
  outer loop
   vertex 63.239670 220.478760 435.059540
   vertex 63.693134 221.136230 436.033142
   vertex 63.910889 220.440582 435.799835
  endloop
 endfacet

 facet normal 0.684473 0.415252 -0.599218
  outer loop
   vertex 63.021912 221.174408 435.292877
   vertex 63.693134 221.136230 436.033142
   vertex 63.239670 220.478760 435.059540
  endloop
 endfacet

 facet normal 0.282823 0.936313 -0.208157
  outer loop
   vertex 63.168720 221.403412 436.522430
   vertex 63.693134 221.136230 436.033142
   vertex 63.021912 221.174408 435.292877
  endloop
 endfacet

 facet normal 0.282833 0.936310 -0.208158
  outer loop
   vertex 63.021912 221.174408 435.292877
   vertex 62.497498 221.441589 435.782135
   vertex 63.168720 221.403412 436.522430
  endloop
 endfacet

 facet normal -0.284518 0.908911 0.304844
  outer loop
   vertex 63.168720 221.403412 436.522430
   vertex 62.497498 221.441589 435.782135
   vertex 62.644836 221.085602 436.981049
  endloop
 endfacet

 facet normal -0.284519 0.908911 0.304844
  outer loop
   vertex 62.644836 221.085602 436.981049
   vertex 62.497498 221.441589 435.782135
   vertex 61.973618 221.123779 436.240753
  endloop
 endfacet

 facet normal -0.685194 0.349077 0.639261
  outer loop
   vertex 61.973618 221.123779 436.240753
   vertex 62.428375 220.368988 437.140350
   vertex 62.644836 221.085602 436.981049
  endloop
 endfacet

 facet normal -0.685171 0.349103 0.639271
  outer loop
   vertex 61.757153 220.407166 436.400085
   vertex 62.428375 220.368988 437.140350
   vertex 61.973618 221.123779 436.240753
  endloop
 endfacet

 facet normal -0.180337 -0.363019 0.914164
  outer loop
   vertex 63.655537 220.357651 437.377930
   vertex 62.428375 220.368988 437.140350
   vertex 63.709976 220.183746 437.319611
  endloop
 endfacet

 facet normal -0.180338 -0.363033 0.914158
  outer loop
   vertex 63.709976 220.183746 437.319611
   vertex 62.428375 220.368988 437.140350
   vertex 62.646130 219.673325 436.907043
  endloop
 endfacet

 facet normal 0.149847 -0.791375 0.592682
  outer loop
   vertex 62.646130 219.673325 436.907043
   vertex 63.841080 220.116943 437.197266
   vertex 63.709976 220.183746 437.319611
  endloop
 endfacet

 facet normal 0.149837 -0.791362 0.592701
  outer loop
   vertex 63.170544 219.406158 436.417755
   vertex 63.841080 220.116943 437.197266
   vertex 62.646130 219.673325 436.907043
  endloop
 endfacet

 facet normal 0.616146 -0.768836 0.171042
  outer loop
   vertex 63.972050 220.196396 437.082611
   vertex 63.841080 220.116943 437.197266
   vertex 63.170544 219.406158 436.417755
  endloop
 endfacet

 facet normal 0.616136 -0.768840 0.171058
  outer loop
   vertex 63.170544 219.406158 436.417755
   vertex 63.694427 219.723953 435.959137
   vertex 63.972050 220.196396 437.082611
  endloop
 endfacet

 facet normal 0.945478 -0.308693 -0.103826
  outer loop
   vertex 63.972050 220.196396 437.082611
   vertex 63.694427 219.723953 435.959137
   vertex 64.026169 220.375549 437.042786
  endloop
 endfacet

 facet normal 0.945484 -0.308671 -0.103841
  outer loop
   vertex 64.026169 220.375549 437.042786
   vertex 63.694427 219.723953 435.959137
   vertex 63.910889 220.440582 435.799835
  endloop
 endfacet

 facet normal 0.944907 0.319563 -0.070917
  outer loop
   vertex 63.910889 220.440582 435.799835
   vertex 63.971729 220.549469 437.101135
   vertex 64.026169 220.375549 437.042786
  endloop
 endfacet

 facet normal 0.944908 0.319563 -0.070917
  outer loop
   vertex 63.693134 221.136230 436.033142
   vertex 63.971729 220.549469 437.101135
   vertex 63.910889 220.440582 435.799835
  endloop
 endfacet

 facet normal 0.614733 0.747887 0.250535
  outer loop
   vertex 63.840626 220.616257 437.223450
   vertex 63.971729 220.549469 437.101135
   vertex 63.693134 221.136230 436.033142
  endloop
 endfacet

 facet normal 0.614767 0.747864 0.250521
  outer loop
   vertex 63.693134 221.136230 436.033142
   vertex 63.168720 221.403412 436.522430
   vertex 63.840626 220.616257 437.223450
  endloop
 endfacet

 facet normal 0.148482 0.725357 0.672168
  outer loop
   vertex 63.840626 220.616257 437.223450
   vertex 63.168720 221.403412 436.522430
   vertex 63.709656 220.536819 437.338104
  endloop
 endfacet

 facet normal 0.148426 0.725346 0.672193
  outer loop
   vertex 63.709656 220.536819 437.338104
   vertex 63.168720 221.403412 436.522430
   vertex 62.644836 221.085602 436.981049
  endloop
 endfacet

 facet normal -0.180916 0.265163 0.947079
  outer loop
   vertex 62.644836 221.085602 436.981049
   vertex 63.655537 220.357651 437.377930
   vertex 63.709656 220.536819 437.338104
  endloop
 endfacet

 facet normal -0.180905 0.265178 0.947077
  outer loop
   vertex 62.428375 220.368988 437.140350
   vertex 63.655537 220.357651 437.377930
   vertex 62.644836 221.085602 436.981049
  endloop
 endfacet

 facet normal -0.684466 -0.415281 0.599207
  outer loop
   vertex 44.884262 219.381195 455.685150
   vertex 44.213043 219.419373 454.944885
   vertex 44.938702 219.207275 455.626801
  endloop
 endfacet

 facet normal -0.684466 -0.415281 0.599207
  outer loop
   vertex 44.938702 219.207275 455.626801
   vertex 44.213043 219.419373 454.944885
   vertex 44.267483 219.245453 454.886536
  endloop
 endfacet

 facet normal -0.282804 -0.936323 0.208138
  outer loop
   vertex 44.267483 219.245453 454.886536
   vertex 45.069805 219.140488 455.504486
   vertex 44.938702 219.207275 455.626801
  endloop
 endfacet

 facet normal -0.282804 -0.936323 0.208138
  outer loop
   vertex 44.398586 219.178665 454.764221
   vertex 45.069805 219.140488 455.504486
   vertex 44.267483 219.245453 454.886536
  endloop
 endfacet

 facet normal 0.284513 -0.908910 -0.304851
  outer loop
   vertex 45.200775 219.219940 455.389832
   vertex 45.069805 219.140488 455.504486
   vertex 44.398586 219.178665 454.764221
  endloop
 endfacet

 facet normal 0.284513 -0.908910 -0.304851
  outer loop
   vertex 44.398586 219.178665 454.764221
   vertex 44.529556 219.258118 454.649567
   vertex 45.200775 219.219940 455.389832
  endloop
 endfacet

 facet normal 0.685181 -0.349076 -0.639275
  outer loop
   vertex 45.200775 219.219940 455.389832
   vertex 44.529556 219.258118 454.649567
   vertex 45.254890 219.399094 455.350006
  endloop
 endfacet

 facet normal 0.685181 -0.349076 -0.639275
  outer loop
   vertex 45.254890 219.399094 455.350006
   vertex 44.529556 219.258118 454.649567
   vertex 44.583672 219.437271 454.609741
  endloop
 endfacet

 facet normal 0.684469 0.415268 -0.599211
  outer loop
   vertex 44.583672 219.437271 454.609741
   vertex 45.200455 219.573013 455.408356
   vertex 45.254890 219.399094 455.350006
  endloop
 endfacet

 facet normal 0.684490 0.415224 -0.599219
  outer loop
   vertex 44.529232 219.611176 454.668060
   vertex 45.200455 219.573013 455.408356
   vertex 44.583672 219.437271 454.609741
  endloop
 endfacet

 facet normal 0.282794 0.936325 -0.208141
  outer loop
   vertex 45.069347 219.639801 455.530670
   vertex 45.200455 219.573013 455.408356
   vertex 44.529232 219.611176 454.668060
  endloop
 endfacet

 facet normal 0.282860 0.936297 -0.208181
  outer loop
   vertex 44.529232 219.611176 454.668060
   vertex 44.398129 219.677979 454.790375
   vertex 45.069347 219.639801 455.530670
  endloop
 endfacet

 facet normal -0.284519 0.908911 0.304844
  outer loop
   vertex 45.069347 219.639801 455.530670
   vertex 44.398129 219.677979 454.790375
   vertex 44.938377 219.560349 455.645325
  endloop
 endfacet

 facet normal -0.284519 0.908911 0.304844
  outer loop
   vertex 44.938377 219.560349 455.645325
   vertex 44.398129 219.677979 454.790375
   vertex 44.267159 219.598526 454.905029
  endloop
 endfacet

 facet normal -0.685194 0.349077 0.639261
  outer loop
   vertex 44.267159 219.598526 454.905029
   vertex 44.884262 219.381195 455.685150
   vertex 44.938377 219.560349 455.645325
  endloop
 endfacet

 facet normal -0.685152 0.349172 0.639254
  outer loop
   vertex 44.213043 219.419373 454.944885
   vertex 44.884262 219.381195 455.685150
   vertex 44.267159 219.598526 454.905029
  endloop
 endfacet

 facet normal -0.685195 0.349074 0.639262
  outer loop
   vertex 43.209080 220.146942 454.555420
   vertex 42.537861 220.185120 453.815125
   vertex 42.992615 219.430313 454.714722
  endloop
 endfacet

 facet normal -0.685175 0.349097 0.639271
  outer loop
   vertex 42.992615 219.430313 454.714722
   vertex 42.537861 220.185120 453.815125
   vertex 42.321396 219.468491 453.974457
  endloop
 endfacet

 facet normal -0.684481 -0.415231 0.599224
  outer loop
   vertex 42.321396 219.468491 453.974457
   vertex 43.210373 218.734665 454.481415
   vertex 42.992615 219.430313 454.714722
  endloop
 endfacet

 facet normal -0.684480 -0.415228 0.599227
  outer loop
   vertex 42.539150 218.772842 453.741150
   vertex 43.210373 218.734665 454.481415
   vertex 42.321396 219.468491 453.974457
  endloop
 endfacet

 facet normal -0.282823 -0.936313 0.208157
  outer loop
   vertex 43.734787 218.467484 453.992126
   vertex 43.210373 218.734665 454.481415
   vertex 42.539150 218.772842 453.741150
  endloop
 endfacet

 facet normal -0.282823 -0.936313 0.208155
  outer loop
   vertex 42.539150 218.772842 453.741150
   vertex 43.063568 218.505661 453.251862
   vertex 43.734787 218.467484 453.992126
  endloop
 endfacet

 facet normal 0.284513 -0.908910 -0.304851
  outer loop
   vertex 43.734787 218.467484 453.992126
   vertex 43.063568 218.505661 453.251862
   vertex 44.258667 218.785294 453.533508
  endloop
 endfacet

 facet normal 0.284513 -0.908910 -0.304851
  outer loop
   vertex 44.258667 218.785294 453.533508
   vertex 43.063568 218.505661 453.251862
   vertex 43.587448 218.823471 452.793243
  endloop
 endfacet

 facet normal 0.685180 -0.349079 -0.639275
  outer loop
   vertex 43.587448 218.823471 452.793243
   vertex 44.475132 219.501907 453.374207
   vertex 44.258667 218.785294 453.533508
  endloop
 endfacet

 facet normal 0.685185 -0.349101 -0.639258
  outer loop
   vertex 43.803909 219.540085 452.633911
   vertex 44.475132 219.501907 453.374207
   vertex 43.587448 218.823471 452.793243
  endloop
 endfacet

 facet normal 0.684494 0.415222 -0.599215
  outer loop
   vertex 44.257374 220.197571 453.607513
   vertex 44.475132 219.501907 453.374207
   vertex 43.803909 219.540085 452.633911
  endloop
 endfacet

 facet normal 0.684471 0.415249 -0.599222
  outer loop
   vertex 43.803909 219.540085 452.633911
   vertex 43.586155 220.235733 452.867249
   vertex 44.257374 220.197571 453.607513
  endloop
 endfacet

 facet normal 0.282802 0.936320 -0.208155
  outer loop
   vertex 44.257374 220.197571 453.607513
   vertex 43.586155 220.235733 452.867249
   vertex 43.732960 220.464737 454.096802
  endloop
 endfacet

 facet normal 0.282834 0.936310 -0.208157
  outer loop
   vertex 43.732960 220.464737 454.096802
   vertex 43.586155 220.235733 452.867249
   vertex 43.061741 220.502914 453.356506
  endloop
 endfacet

 facet normal -0.284507 0.908918 0.304833
  outer loop
   vertex 43.061741 220.502914 453.356506
   vertex 43.209080 220.146942 454.555420
   vertex 43.732960 220.464737 454.096802
  endloop
 endfacet

 facet normal -0.284507 0.908918 0.304833
  outer loop
   vertex 42.537861 220.185120 453.815125
   vertex 43.209080 220.146942 454.555420
   vertex 43.061741 220.502914 453.356506
  endloop
 endfacet

endsolid