solid stl file generated from DOUG
 facet normal 0.518995 0.641495 -0.564915
  outer loop
   vertex 19.479136 -248.097137 294.901031
   vertex 20.395760 -248.216553 295.607544
   vertex 19.521248 -248.177567 294.848389
  endloop
 endfacet

 facet normal 0.656036 0.040089 -0.753664
  outer loop
   vertex 19.521248 -248.177567 294.848389
   vertex 20.395760 -248.216553 295.607544
   vertex 20.396528 -249.057022 295.563507
  endloop
 endfacet

 facet normal 0.754751 -0.033635 0.655149
  outer loop
   vertex 12.502922 -249.860657 290.850403
   vertex 12.722591 -251.672821 290.504303
   vertex 12.720922 -249.847336 290.599945
  endloop
 endfacet

 facet normal 0.656012 0.040088 -0.753685
  outer loop
   vertex 12.720922 -249.847336 290.599945
   vertex 12.722591 -251.672821 290.504303
   vertex 12.506839 -249.766464 290.417908
  endloop
 endfacet

 facet normal 0.656076 0.040085 -0.753630
  outer loop
   vertex 20.704689 -250.131866 297.534485
   vertex 20.492407 -252.019150 297.249298
   vertex 20.490736 -250.193665 297.344940
  endloop
 endfacet

 facet normal -0.754713 0.033637 -0.655193
  outer loop
   vertex 20.490736 -250.193665 297.344940
   vertex 20.492407 -252.019150 297.249298
   vertex 20.272738 -250.206985 297.595367
  endloop
 endfacet

 facet normal -0.000913 0.998630 0.052328
  outer loop
   vertex 18.656126 -248.227173 296.237549
   vertex 18.728037 -248.222778 296.154938
   vertex 14.243276 -248.022873 292.261719
  endloop
 endfacet

 facet normal 0.527297 0.625281 -0.575309
  outer loop
   vertex 14.243276 -248.022873 292.261719
   vertex 18.728037 -248.222778 296.154938
   vertex 14.299975 -248.136139 292.190582
  endloop
 endfacet

 facet normal 0.656035 0.040117 -0.753663
  outer loop
   vertex 14.553530 -248.796585 290.491180
   vertex 15.427272 -247.995087 291.294403
   vertex 15.428041 -248.835556 291.250336
  endloop
 endfacet

 facet normal 0.754689 -0.033663 0.655218
  outer loop
   vertex 15.428041 -248.835556 291.250336
   vertex 15.427272 -247.995087 291.294403
   vertex 15.271315 -248.020172 291.472748
  endloop
 endfacet

 facet normal 0.234471 0.946553 -0.221494
  outer loop
   vertex 19.686813 -248.944763 295.013397
   vertex 15.202053 -248.744858 291.120178
   vertex 19.664810 -248.933243 295.039337
  endloop
 endfacet

 facet normal 0.234475 0.946551 -0.221499
  outer loop
   vertex 19.664810 -248.933243 295.039337
   vertex 15.202053 -248.744858 291.120178
   vertex 15.180051 -248.733337 291.146118
  endloop
 endfacet

 facet normal 0.656040 0.040092 -0.753661
  outer loop
   vertex 15.180051 -248.733337 291.146118
   vertex 15.179490 -248.120651 291.178223
   vertex 19.664810 -248.933243 295.039337
  endloop
 endfacet

 facet normal 0.656046 0.040083 -0.753656
  outer loop
   vertex 20.156670 -253.101074 296.899475
   vertex 20.708431 -254.222549 297.320129
   vertex 19.194847 -254.155090 296.006165
  endloop
 endfacet

 facet normal 0.000912 -0.998630 -0.052320
  outer loop
   vertex 19.194847 -254.155090 296.006165
   vertex 20.708431 -254.222549 297.320129
   vertex 18.976849 -254.168411 296.256622
  endloop
 endfacet

 facet normal -0.754752 0.033637 -0.655147
  outer loop
   vertex 18.976849 -254.168411 296.256622
   vertex 18.972864 -249.812378 296.484863
   vertex 19.194847 -254.155090 296.006165
  endloop
 endfacet

 facet normal -0.000928 0.998628 0.052354
  outer loop
   vertex 19.450996 -248.191284 296.697144
   vertex 18.472198 -248.158676 296.057800
   vertex 19.346710 -248.197662 296.816956
  endloop
 endfacet

 facet normal -0.520184 0.577833 0.628902
  outer loop
   vertex 19.346710 -248.197662 296.816956
   vertex 18.472198 -248.158676 296.057800
   vertex 18.430237 -248.244247 296.101715
  endloop
 endfacet

 facet normal -0.520095 0.578051 0.628775
  outer loop
   vertex 18.430237 -248.244247 296.101715
   vertex 19.304749 -248.283218 296.860901
   vertex 19.346710 -248.197662 296.816956
  endloop
 endfacet

 facet normal 0.000911 -0.998630 -0.052320
  outer loop
   vertex 14.024162 -253.924606 291.517487
   vertex 13.806163 -253.937927 291.767944
   vertex 12.510580 -253.857147 290.203552
  endloop
 endfacet

 facet normal 0.000915 -0.998630 -0.052324
  outer loop
   vertex 12.510580 -253.857147 290.203552
   vertex 13.806163 -253.937927 291.767944
   vertex 12.292581 -253.870468 290.453979
  endloop
 endfacet

 facet normal -0.754711 0.033643 -0.655194
  outer loop
   vertex 12.292581 -253.870468 290.453979
   vertex 12.288839 -249.779785 290.668335
   vertex 12.510580 -253.857147 290.203552
  endloop
 endfacet

 facet normal -0.000938 0.998628 0.052357
  outer loop
   vertex 20.323692 -249.872589 297.657532
   vertex 20.541691 -249.859253 297.407074
   vertex 19.190865 -249.799042 296.234436
  endloop
 endfacet

 facet normal 0.656035 0.040118 -0.753663
  outer loop
   vertex 19.190865 -249.799042 296.234436
   vertex 20.541691 -249.859253 297.407074
   vertex 19.603241 -250.154114 296.574493
  endloop
 endfacet

 facet normal 0.656021 0.040087 -0.753678
  outer loop
   vertex 19.603241 -250.154114 296.574493
   vertex 19.604910 -251.979599 296.478851
   vertex 19.190865 -249.799042 296.234436
  endloop
 endfacet

 facet normal -0.528384 0.560766 0.637457
  outer loop
   vertex 19.557703 -248.288803 295.195831
   vertex 19.614189 -248.168625 295.136932
   vertex 15.129429 -247.968719 291.243683
  endloop
 endfacet

 facet normal -0.000913 0.998630 0.052328
  outer loop
   vertex 15.129429 -247.968719 291.243683
   vertex 19.614189 -248.168625 295.136932
   vertex 19.686100 -248.164230 295.054321
  endloop
 endfacet

 facet normal -0.000913 0.998630 0.052328
  outer loop
   vertex 19.686100 -248.164230 295.054321
   vertex 15.201339 -247.964325 291.161072
   vertex 15.129429 -247.968719 291.243683
  endloop
 endfacet

 facet normal 0.656043 0.040099 -0.753658
  outer loop
   vertex 13.610087 -251.712387 291.274719
   vertex 13.608418 -249.886902 291.370392
   vertex 14.020179 -249.568573 291.745758
  endloop
 endfacet

 facet normal 0.656045 0.040095 -0.753656
  outer loop
   vertex 14.020179 -249.568573 291.745758
   vertex 13.608418 -249.886902 291.370392
   vertex 12.669352 -249.508362 290.573090
  endloop
 endfacet

 facet normal -0.000912 0.998630 0.052326
  outer loop
   vertex 12.669352 -249.508362 290.573090
   vertex 12.451351 -249.521683 290.823517
   vertex 14.020179 -249.568573 291.745758
  endloop
 endfacet

 facet normal -0.520113 0.577978 0.628827
  outer loop
   vertex 13.461751 -248.022781 291.788574
   vertex 14.336262 -248.061768 292.547729
   vertex 13.503712 -247.937210 291.744629
  endloop
 endfacet

 facet normal -0.520111 0.577982 0.628826
  outer loop
   vertex 13.503712 -247.937210 291.744629
   vertex 14.336262 -248.061768 292.547729
   vertex 14.378223 -247.976196 292.503784
  endloop
 endfacet

 facet normal -0.000866 0.998632 0.052281
  outer loop
   vertex 14.378223 -247.976196 292.503784
   vertex 13.607999 -247.930847 291.624817
   vertex 13.503712 -247.937210 291.744629
  endloop
 endfacet

 facet normal 0.754741 -0.033638 0.655160
  outer loop
   vertex 15.280872 -247.921036 291.466827
   vertex 15.271315 -248.020172 291.472748
   vertex 15.385160 -247.914658 291.347015
  endloop
 endfacet

 facet normal 0.754681 -0.033481 0.655237
  outer loop
   vertex 15.385160 -247.914658 291.347015
   vertex 15.271315 -248.020172 291.472748
   vertex 15.427272 -247.995087 291.294403
  endloop
 endfacet

 facet normal 0.519075 0.641365 -0.564989
  outer loop
   vertex 15.427272 -247.995087 291.294403
   vertex 14.552761 -247.956100 290.535217
   vertex 15.385160 -247.914658 291.347015
  endloop
 endfacet

 facet normal 0.656051 0.040087 -0.753651
  outer loop
   vertex 14.553530 -248.796585 290.491180
   vertex 14.552761 -247.956100 290.535217
   vertex 15.427272 -247.995087 291.294403
  endloop
 endfacet

 facet normal 0.656050 0.040115 -0.753650
  outer loop
   vertex 20.396528 -249.057022 295.563507
   vertex 19.522017 -249.018051 294.804321
   vertex 19.521248 -248.177567 294.848389
  endloop
 endfacet

 facet normal -0.754689 0.033664 -0.655219
  outer loop
   vertex 19.521248 -248.177567 294.848389
   vertex 19.522017 -249.018051 294.804321
   vertex 19.365290 -248.202667 295.026733
  endloop
 endfacet

 facet normal -0.754690 0.033702 -0.655215
  outer loop
   vertex 19.365290 -248.202667 295.026733
   vertex 19.479136 -248.097137 294.901031
   vertex 19.521248 -248.177567 294.848389
  endloop
 endfacet

 facet normal -0.754659 0.033620 -0.655256
  outer loop
   vertex 19.374847 -248.103516 295.020813
   vertex 19.479136 -248.097137 294.901031
   vertex 19.365290 -248.202667 295.026733
  endloop
 endfacet

 facet normal -0.528384 0.560766 0.637457
  outer loop
   vertex 15.129429 -247.968719 291.243683
   vertex 15.072943 -248.088898 291.302582
   vertex 19.557703 -248.288803 295.195831
  endloop
 endfacet

 facet normal -0.000915 0.998629 0.052330
  outer loop
   vertex 19.557703 -248.288803 295.195831
   vertex 15.072943 -248.088898 291.302582
   vertex 14.299975 -248.136139 292.190582
  endloop
 endfacet

 facet normal -0.000916 0.998629 0.052331
  outer loop
   vertex 14.299975 -248.136139 292.190582
   vertex 18.784737 -248.336044 296.083801
   vertex 19.557703 -248.288803 295.195831
  endloop
 endfacet

 facet normal 0.527297 0.625281 -0.575309
  outer loop
   vertex 18.728037 -248.222778 296.154938
   vertex 18.784737 -248.336044 296.083801
   vertex 14.299975 -248.136139 292.190582
  endloop
 endfacet

 facet normal -0.656057 -0.040098 0.753645
  outer loop
   vertex 19.385241 -250.167435 296.824951
   vertex 18.972864 -249.812378 296.484863
   vertex 19.386909 -251.992920 296.729279
  endloop
 endfacet

 facet normal -0.656029 -0.040090 0.753670
  outer loop
   vertex 19.386909 -251.992920 296.729279
   vertex 18.972864 -249.812378 296.484863
   vertex 18.976849 -254.168411 296.256622
  endloop
 endfacet

 facet normal -0.656038 -0.040087 0.753663
  outer loop
   vertex 18.976849 -254.168411 296.256622
   vertex 20.490431 -254.235870 297.570557
   vertex 19.386909 -251.992920 296.729279
  endloop
 endfacet

 facet normal 0.000914 -0.998630 -0.052324
  outer loop
   vertex 20.708431 -254.222549 297.320129
   vertex 20.490431 -254.235870 297.570557
   vertex 18.976849 -254.168411 296.256622
  endloop
 endfacet

 facet normal 0.754710 -0.033642 0.655196
  outer loop
   vertex 20.486689 -250.145187 297.784912
   vertex 20.490431 -254.235870 297.570557
   vertex 20.708431 -254.222549 297.320129
  endloop
 endfacet

 facet normal 0.754751 -0.033637 0.655149
  outer loop
   vertex 14.024162 -253.924606 291.517487
   vertex 13.802179 -249.581894 291.996185
   vertex 13.806163 -253.937927 291.767944
  endloop
 endfacet

 facet normal -0.656041 -0.040089 0.753660
  outer loop
   vertex 13.806163 -253.937927 291.767944
   vertex 13.802179 -249.581894 291.996185
   vertex 13.392088 -251.725708 291.525177
  endloop
 endfacet

 facet normal -0.656047 -0.040091 0.753655
  outer loop
   vertex 13.392088 -251.725708 291.525177
   vertex 12.292581 -253.870468 290.453979
   vertex 13.806163 -253.937927 291.767944
  endloop
 endfacet

 facet normal -0.656046 -0.040092 0.753656
  outer loop
   vertex 12.504592 -251.686142 290.754730
   vertex 12.292581 -253.870468 290.453979
   vertex 13.392088 -251.725708 291.525177
  endloop
 endfacet

 facet normal -0.656043 -0.040092 0.753658
  outer loop
   vertex 12.288839 -249.779785 290.668335
   vertex 12.292581 -253.870468 290.453979
   vertex 12.504592 -251.686142 290.754730
  endloop
 endfacet

 facet normal -0.754719 0.033659 -0.655184
  outer loop
   vertex 18.973812 -254.168152 296.253876
   vertex 19.828571 -249.780746 295.494659
   vertex 19.832479 -254.115692 295.267456
  endloop
 endfacet

 facet normal 0.656079 0.040091 -0.753626
  outer loop
   vertex 19.832479 -254.115692 295.267456
   vertex 19.828571 -249.780746 295.494659
   vertex 20.078176 -249.791870 295.711365
  endloop
 endfacet

 facet normal 0.656082 0.040090 -0.753624
  outer loop
   vertex 20.078176 -249.791870 295.711365
   vertex 20.082083 -254.126816 295.484161
   vertex 19.832479 -254.115692 295.267456
  endloop
 endfacet

 facet normal 0.754698 -0.033661 0.655208
  outer loop
   vertex 19.219477 -249.844406 296.697754
   vertex 20.082083 -254.126816 295.484161
   vertex 20.078176 -249.791870 295.711365
  endloop
 endfacet

 facet normal 0.754709 -0.033655 0.655196
  outer loop
   vertex 19.223415 -254.179291 296.470551
   vertex 20.082083 -254.126816 295.484161
   vertex 19.219477 -249.844406 296.697754
  endloop
 endfacet

 facet normal 0.656043 0.040086 -0.753659
  outer loop
   vertex 15.201339 -247.964325 291.161072
   vertex 19.686100 -248.164230 295.054321
   vertex 15.201468 -248.106445 291.153625
  endloop
 endfacet

 facet normal 0.656043 0.040086 -0.753659
  outer loop
   vertex 15.201468 -248.106445 291.153625
   vertex 19.686100 -248.164230 295.054321
   vertex 19.686230 -248.306351 295.046875
  endloop
 endfacet

 facet normal 0.236113 -0.917833 -0.319114
  outer loop
   vertex 19.686230 -248.306351 295.046875
   vertex 15.179490 -248.120651 291.178223
   vertex 15.201468 -248.106445 291.153625
  endloop
 endfacet

 facet normal 0.236278 -0.917725 -0.319301
  outer loop
   vertex 19.664251 -248.320557 295.071442
   vertex 15.179490 -248.120651 291.178223
   vertex 19.686230 -248.306351 295.046875
  endloop
 endfacet

 facet normal 0.656040 0.040090 -0.753661
  outer loop
   vertex 19.664810 -248.933243 295.039337
   vertex 15.179490 -248.120651 291.178223
   vertex 19.664251 -248.320557 295.071442
  endloop
 endfacet

 facet normal -0.754732 0.033631 -0.655170
  outer loop
   vertex 13.559707 -253.926834 291.553864
   vertex 13.555692 -249.591949 291.781006
   vertex 14.418339 -253.874359 290.567444
  endloop
 endfacet

 facet normal -0.754746 0.033624 -0.655155
  outer loop
   vertex 14.418339 -253.874359 290.567444
   vertex 13.555692 -249.591949 291.781006
   vertex 14.414317 -249.539413 290.794556
  endloop
 endfacet

 facet normal 0.656017 0.040095 -0.753681
  outer loop
   vertex 14.414317 -249.539413 290.794556
   vertex 14.667951 -253.885483 290.784119
   vertex 14.418339 -253.874359 290.567444
  endloop
 endfacet

 facet normal 0.656017 0.040095 -0.753681
  outer loop
   vertex 14.663929 -249.550537 291.011230
   vertex 14.667951 -253.885483 290.784119
   vertex 14.414317 -249.539413 290.794556
  endloop
 endfacet

 facet normal 0.754742 -0.033624 0.655159
  outer loop
   vertex 13.809319 -253.937958 291.770569
   vertex 14.667951 -253.885483 290.784119
   vertex 14.663929 -249.550537 291.011230
  endloop
 endfacet

 facet normal 0.754732 -0.033620 0.655171
  outer loop
   vertex 14.663929 -249.550537 291.011230
   vertex 13.805297 -249.603012 291.997650
   vertex 13.809319 -253.937958 291.770569
  endloop
 endfacet

 facet normal 0.656040 0.040064 -0.753662
  outer loop
   vertex 19.686813 -248.944763 295.013397
   vertex 19.686878 -249.015289 295.009705
   vertex 15.202117 -248.815384 291.116486
  endloop
 endfacet

 facet normal 0.000912 -0.998630 -0.052327
  outer loop
   vertex 15.202117 -248.815384 291.116486
   vertex 19.686878 -249.015289 295.009705
   vertex 18.656906 -249.078232 296.192963
  endloop
 endfacet

 facet normal 0.000913 -0.998630 -0.052328
  outer loop
   vertex 18.656906 -249.078232 296.192963
   vertex 14.172145 -248.878326 292.299713
   vertex 15.202117 -248.815384 291.116486
  endloop
 endfacet

 facet normal -0.656043 -0.040064 0.753660
  outer loop
   vertex 18.656841 -249.007706 296.196655
   vertex 14.172145 -248.878326 292.299713
   vertex 18.656906 -249.078232 296.192963
  endloop
 endfacet

 facet normal -0.656043 -0.040064 0.753660
  outer loop
   vertex 14.172080 -248.807800 292.303406
   vertex 14.172145 -248.878326 292.299713
   vertex 18.656841 -249.007706 296.196655
  endloop
 endfacet

 facet normal -0.236113 0.917833 0.319114
  outer loop
   vertex 18.656841 -249.007706 296.196655
   vertex 18.678820 -248.993500 296.172058
   vertex 14.172080 -248.807800 292.303406
  endloop
 endfacet

 facet normal -0.236274 0.917728 0.319296
  outer loop
   vertex 14.172080 -248.807800 292.303406
   vertex 18.678820 -248.993500 296.172058
   vertex 14.194059 -248.793594 292.278839
  endloop
 endfacet

 facet normal -0.656040 -0.040092 0.753661
  outer loop
   vertex 14.194059 -248.793594 292.278839
   vertex 18.678820 -248.993500 296.172058
   vertex 18.678259 -248.380814 296.204163
  endloop
 endfacet

 facet normal -0.656040 -0.040092 0.753661
  outer loop
   vertex 18.678259 -248.380814 296.204163
   vertex 14.193499 -248.180908 292.310944
   vertex 14.194059 -248.793594 292.278839
  endloop
 endfacet

 facet normal -0.234479 -0.946549 0.221503
  outer loop
   vertex 18.656258 -248.369293 296.230103
   vertex 14.193499 -248.180908 292.310944
   vertex 18.678259 -248.380814 296.204163
  endloop
 endfacet

 facet normal -0.234591 -0.946491 0.221634
  outer loop
   vertex 14.171496 -248.169388 292.336853
   vertex 14.193499 -248.180908 292.310944
   vertex 18.656258 -248.369293 296.230103
  endloop
 endfacet

 facet normal -0.656043 -0.040095 0.753658
  outer loop
   vertex 18.656258 -248.369293 296.230103
   vertex 18.656126 -248.227173 296.237549
   vertex 14.171496 -248.169388 292.336853
  endloop
 endfacet

 facet normal -0.656043 -0.040086 0.753658
  outer loop
   vertex 14.171496 -248.169388 292.336853
   vertex 18.656126 -248.227173 296.237549
   vertex 14.171367 -248.027267 292.344299
  endloop
 endfacet

 facet normal -0.000922 0.998629 0.052339
  outer loop
   vertex 14.171367 -248.027267 292.344299
   vertex 18.656126 -248.227173 296.237549
   vertex 14.243276 -248.022873 292.261719
  endloop
 endfacet

 facet normal -0.754711 0.033643 -0.655194
  outer loop
   vertex 12.288839 -249.779785 290.668335
   vertex 12.506839 -249.766464 290.417908
   vertex 12.510580 -253.857147 290.203552
  endloop
 endfacet

 facet normal 0.656043 0.040092 -0.753658
  outer loop
   vertex 12.510580 -253.857147 290.203552
   vertex 12.506839 -249.766464 290.417908
   vertex 12.722591 -251.672821 290.504303
  endloop
 endfacet

 facet normal 0.656030 0.040095 -0.753669
  outer loop
   vertex 12.722591 -251.672821 290.504303
   vertex 13.060334 -252.784760 290.739136
   vertex 12.510580 -253.857147 290.203552
  endloop
 endfacet

 facet normal 0.656031 0.040095 -0.753668
  outer loop
   vertex 13.610087 -251.712387 291.274719
   vertex 13.060334 -252.784760 290.739136
   vertex 12.722591 -251.672821 290.504303
  endloop
 endfacet

 facet normal 0.656038 0.040088 -0.753662
  outer loop
   vertex 14.024162 -253.924606 291.517487
   vertex 13.060334 -252.784760 290.739136
   vertex 13.610087 -251.712387 291.274719
  endloop
 endfacet

 facet normal 0.656057 0.040094 -0.753646
  outer loop
   vertex 13.610087 -251.712387 291.274719
   vertex 14.020179 -249.568573 291.745758
   vertex 14.024162 -253.924606 291.517487
  endloop
 endfacet

 facet normal 0.754711 -0.033644 0.655194
  outer loop
   vertex 14.024162 -253.924606 291.517487
   vertex 14.020179 -249.568573 291.745758
   vertex 13.802179 -249.581894 291.996185
  endloop
 endfacet

 facet normal -0.000912 0.998630 0.052326
  outer loop
   vertex 13.802179 -249.581894 291.996185
   vertex 14.020179 -249.568573 291.745758
   vertex 12.451351 -249.521683 290.823517
  endloop
 endfacet

 facet normal -0.656044 -0.040095 0.753656
  outer loop
   vertex 12.451351 -249.521683 290.823517
   vertex 13.390418 -249.900223 291.620819
   vertex 13.802179 -249.581894 291.996185
  endloop
 endfacet

 facet normal -0.656031 -0.040029 0.753672
  outer loop
   vertex 12.502922 -249.860657 290.850403
   vertex 13.390418 -249.900223 291.620819
   vertex 12.451351 -249.521683 290.823517
  endloop
 endfacet

 facet normal 0.000907 -0.998629 -0.052331
  outer loop
   vertex 13.608418 -249.886902 291.370392
   vertex 13.390418 -249.900223 291.620819
   vertex 12.502922 -249.860657 290.850403
  endloop
 endfacet

 facet normal 0.000904 -0.998630 -0.052326
  outer loop
   vertex 12.502922 -249.860657 290.850403
   vertex 12.720922 -249.847336 290.599945
   vertex 13.608418 -249.886902 291.370392
  endloop
 endfacet

 facet normal 0.656046 0.040099 -0.753655
  outer loop
   vertex 13.608418 -249.886902 291.370392
   vertex 12.720922 -249.847336 290.599945
   vertex 12.669352 -249.508362 290.573090
  endloop
 endfacet

 facet normal 0.656013 0.040092 -0.753684
  outer loop
   vertex 12.669352 -249.508362 290.573090
   vertex 12.720922 -249.847336 290.599945
   vertex 12.506839 -249.766464 290.417908
  endloop
 endfacet

 facet normal -0.586592 0.655400 -0.475774
  outer loop
   vertex 12.506839 -249.766464 290.417908
   vertex 12.451351 -249.521683 290.823517
   vertex 12.669352 -249.508362 290.573090
  endloop
 endfacet

 facet normal -0.586594 0.655398 -0.475774
  outer loop
   vertex 12.288839 -249.779785 290.668335
   vertex 12.451351 -249.521683 290.823517
   vertex 12.506839 -249.766464 290.417908
  endloop
 endfacet

 facet normal -0.656064 -0.040037 0.753643
  outer loop
   vertex 12.502922 -249.860657 290.850403
   vertex 12.451351 -249.521683 290.823517
   vertex 12.288839 -249.779785 290.668335
  endloop
 endfacet

 facet normal -0.656075 -0.040097 0.753629
  outer loop
   vertex 12.288839 -249.779785 290.668335
   vertex 12.504592 -251.686142 290.754730
   vertex 12.502922 -249.860657 290.850403
  endloop
 endfacet

 facet normal 0.754711 -0.033648 0.655194
  outer loop
   vertex 12.502922 -249.860657 290.850403
   vertex 12.504592 -251.686142 290.754730
   vertex 12.722591 -251.672821 290.504303
  endloop
 endfacet

 facet normal -0.000908 0.998629 0.052330
  outer loop
   vertex 12.722591 -251.672821 290.504303
   vertex 12.504592 -251.686142 290.754730
   vertex 13.392088 -251.725708 291.525177
  endloop
 endfacet

 facet normal -0.000903 0.998630 0.052327
  outer loop
   vertex 13.392088 -251.725708 291.525177
   vertex 13.610087 -251.712387 291.274719
   vertex 12.722591 -251.672821 290.504303
  endloop
 endfacet

 facet normal -0.754751 0.033635 -0.655149
  outer loop
   vertex 13.390418 -249.900223 291.620819
   vertex 13.610087 -251.712387 291.274719
   vertex 13.392088 -251.725708 291.525177
  endloop
 endfacet

 facet normal -0.754711 0.033648 -0.655194
  outer loop
   vertex 13.608418 -249.886902 291.370392
   vertex 13.610087 -251.712387 291.274719
   vertex 13.390418 -249.900223 291.620819
  endloop
 endfacet

 facet normal 0.754749 -0.033635 0.655151
  outer loop
   vertex 19.603241 -250.154114 296.574493
   vertex 19.385241 -250.167435 296.824951
   vertex 19.604910 -251.979599 296.478851
  endloop
 endfacet

 facet normal 0.754710 -0.033648 0.655195
  outer loop
   vertex 19.604910 -251.979599 296.478851
   vertex 19.385241 -250.167435 296.824951
   vertex 19.386909 -251.992920 296.729279
  endloop
 endfacet

 facet normal -0.000917 0.998630 0.052321
  outer loop
   vertex 19.386909 -251.992920 296.729279
   vertex 20.492407 -252.019150 297.249298
   vertex 19.604910 -251.979599 296.478851
  endloop
 endfacet

 facet normal -0.000917 0.998630 0.052321
  outer loop
   vertex 20.274406 -252.032471 297.499725
   vertex 20.492407 -252.019150 297.249298
   vertex 19.386909 -251.992920 296.729279
  endloop
 endfacet

 facet normal -0.754710 0.033638 -0.655196
  outer loop
   vertex 20.272738 -250.206985 297.595367
   vertex 20.492407 -252.019150 297.249298
   vertex 20.274406 -252.032471 297.499725
  endloop
 endfacet

 facet normal -0.656079 -0.040084 0.753627
  outer loop
   vertex 20.274406 -252.032471 297.499725
   vertex 20.486689 -250.145187 297.784912
   vertex 20.272738 -250.206985 297.595367
  endloop
 endfacet

 facet normal -0.656071 -0.040129 0.753632
  outer loop
   vertex 20.272738 -250.206985 297.595367
   vertex 20.486689 -250.145187 297.784912
   vertex 20.323692 -249.872589 297.657532
  endloop
 endfacet

 facet normal 0.585428 0.603180 0.541708
  outer loop
   vertex 20.323692 -249.872589 297.657532
   vertex 20.486689 -250.145187 297.784912
   vertex 20.704689 -250.131866 297.534485
  endloop
 endfacet

 facet normal 0.585433 0.603200 0.541680
  outer loop
   vertex 20.704689 -250.131866 297.534485
   vertex 20.541691 -249.859253 297.407074
   vertex 20.323692 -249.872589 297.657532
  endloop
 endfacet

 facet normal 0.656081 0.040056 -0.753627
  outer loop
   vertex 20.490736 -250.193665 297.344940
   vertex 20.541691 -249.859253 297.407074
   vertex 20.704689 -250.131866 297.534485
  endloop
 endfacet

 facet normal 0.656046 0.040067 -0.753657
  outer loop
   vertex 19.603241 -250.154114 296.574493
   vertex 20.541691 -249.859253 297.407074
   vertex 20.490736 -250.193665 297.344940
  endloop
 endfacet

 facet normal 0.000917 -0.998630 -0.052321
  outer loop
   vertex 20.490736 -250.193665 297.344940
   vertex 20.272738 -250.206985 297.595367
   vertex 19.603241 -250.154114 296.574493
  endloop
 endfacet

 facet normal 0.000913 -0.998630 -0.052319
  outer loop
   vertex 19.603241 -250.154114 296.574493
   vertex 20.272738 -250.206985 297.595367
   vertex 19.385241 -250.167435 296.824951
  endloop
 endfacet

 facet normal -0.656030 -0.040142 0.753667
  outer loop
   vertex 19.385241 -250.167435 296.824951
   vertex 20.272738 -250.206985 297.595367
   vertex 20.323692 -249.872589 297.657532
  endloop
 endfacet

 facet normal -0.656044 -0.040071 0.753658
  outer loop
   vertex 20.323692 -249.872589 297.657532
   vertex 18.972864 -249.812378 296.484863
   vertex 19.385241 -250.167435 296.824951
  endloop
 endfacet

 facet normal -0.000942 0.998628 0.052360
  outer loop
   vertex 19.190865 -249.799042 296.234436
   vertex 18.972864 -249.812378 296.484863
   vertex 20.323692 -249.872589 297.657532
  endloop
 endfacet

 facet normal -0.754711 0.033644 -0.655194
  outer loop
   vertex 19.194847 -254.155090 296.006165
   vertex 18.972864 -249.812378 296.484863
   vertex 19.190865 -249.799042 296.234436
  endloop
 endfacet

 facet normal 0.656045 0.040094 -0.753656
  outer loop
   vertex 19.190865 -249.799042 296.234436
   vertex 19.604910 -251.979599 296.478851
   vertex 19.194847 -254.155090 296.006165
  endloop
 endfacet

 facet normal 0.656038 0.040096 -0.753662
  outer loop
   vertex 19.194847 -254.155090 296.006165
   vertex 19.604910 -251.979599 296.478851
   vertex 20.156670 -253.101074 296.899475
  endloop
 endfacet

 facet normal 0.656045 0.040102 -0.753656
  outer loop
   vertex 20.156670 -253.101074 296.899475
   vertex 19.604910 -251.979599 296.478851
   vertex 20.492407 -252.019150 297.249298
  endloop
 endfacet

 facet normal 0.656059 0.040094 -0.753644
  outer loop
   vertex 20.492407 -252.019150 297.249298
   vertex 20.708431 -254.222549 297.320129
   vertex 20.156670 -253.101074 296.899475
  endloop
 endfacet

 facet normal 0.656046 0.040092 -0.753655
  outer loop
   vertex 20.704689 -250.131866 297.534485
   vertex 20.708431 -254.222549 297.320129
   vertex 20.492407 -252.019150 297.249298
  endloop
 endfacet

 facet normal 0.754710 -0.033642 0.655196
  outer loop
   vertex 20.486689 -250.145187 297.784912
   vertex 20.708431 -254.222549 297.320129
   vertex 20.704689 -250.131866 297.534485
  endloop
 endfacet

 facet normal 0.648758 0.186761 -0.737722
  outer loop
   vertex 19.460735 -248.289246 296.680908
   vertex 18.586224 -248.250275 295.921722
   vertex 19.450996 -248.191284 296.697144
  endloop
 endfacet

 facet normal 0.648726 0.186955 -0.737701
  outer loop
   vertex 19.450996 -248.191284 296.697144
   vertex 18.586224 -248.250275 295.921722
   vertex 18.576485 -248.152298 295.937988
  endloop
 endfacet

 facet normal -0.000928 0.998628 0.052354
  outer loop
   vertex 18.576485 -248.152298 295.937988
   vertex 18.472198 -248.158676 296.057800
   vertex 19.450996 -248.191284 296.697144
  endloop
 endfacet

 facet normal -0.754747 0.033744 -0.655147
  outer loop
   vertex 18.586224 -248.250275 295.921722
   vertex 18.472198 -248.158676 296.057800
   vertex 18.576485 -248.152298 295.937988
  endloop
 endfacet

 facet normal -0.754709 0.033849 -0.655186
  outer loop
   vertex 18.430237 -248.244247 296.101715
   vertex 18.472198 -248.158676 296.057800
   vertex 18.586224 -248.250275 295.921722
  endloop
 endfacet

 facet normal -0.754718 0.033639 -0.655186
  outer loop
   vertex 18.586224 -248.250275 295.921722
   vertex 18.431005 -249.084717 296.057678
   vertex 18.430237 -248.244247 296.101715
  endloop
 endfacet

 facet normal -0.656050 -0.040088 0.753652
  outer loop
   vertex 18.430237 -248.244247 296.101715
   vertex 18.431005 -249.084717 296.057678
   vertex 19.304749 -248.283218 296.860901
  endloop
 endfacet

 facet normal -0.656051 -0.040087 0.753651
  outer loop
   vertex 19.304749 -248.283218 296.860901
   vertex 18.431005 -249.084717 296.057678
   vertex 19.305517 -249.123703 296.816864
  endloop
 endfacet

 facet normal 0.754718 -0.033638 0.655186
  outer loop
   vertex 19.305517 -249.123703 296.816864
   vertex 19.460735 -248.289246 296.680908
   vertex 19.304749 -248.283218 296.860901
  endloop
 endfacet

 facet normal 0.754726 -0.033641 0.655177
  outer loop
   vertex 20.396528 -249.057022 295.563507
   vertex 19.460735 -248.289246 296.680908
   vertex 19.305517 -249.123703 296.816864
  endloop
 endfacet

 facet normal 0.754724 -0.033646 0.655179
  outer loop
   vertex 20.239801 -248.241638 295.785919
   vertex 19.460735 -248.289246 296.680908
   vertex 20.396528 -249.057022 295.563507
  endloop
 endfacet

 facet normal 0.754741 -0.033637 0.655160
  outer loop
   vertex 20.396528 -249.057022 295.563507
   vertex 20.395760 -248.216553 295.607544
   vertex 20.239801 -248.241638 295.785919
  endloop
 endfacet

 facet normal 0.754741 -0.033639 0.655160
  outer loop
   vertex 20.239801 -248.241638 295.785919
   vertex 20.395760 -248.216553 295.607544
   vertex 20.353647 -248.136124 295.660187
  endloop
 endfacet

 facet normal 0.518995 0.641495 -0.564915
  outer loop
   vertex 20.353647 -248.136124 295.660187
   vertex 20.395760 -248.216553 295.607544
   vertex 19.479136 -248.097137 294.901031
  endloop
 endfacet

 facet normal -0.000928 0.998628 0.052354
  outer loop
   vertex 19.479136 -248.097137 294.901031
   vertex 20.249359 -248.142502 295.779999
   vertex 20.353647 -248.136124 295.660187
  endloop
 endfacet

 facet normal -0.000936 0.998628 0.052360
  outer loop
   vertex 19.374847 -248.103516 295.020813
   vertex 20.249359 -248.142502 295.779999
   vertex 19.479136 -248.097137 294.901031
  endloop
 endfacet

 facet normal -0.649019 0.107549 0.753132
  outer loop
   vertex 20.239801 -248.241638 295.785919
   vertex 20.249359 -248.142502 295.779999
   vertex 19.374847 -248.103516 295.020813
  endloop
 endfacet

 facet normal -0.649021 0.107532 0.753132
  outer loop
   vertex 19.374847 -248.103516 295.020813
   vertex 19.365290 -248.202667 295.026733
   vertex 20.239801 -248.241638 295.785919
  endloop
 endfacet

 facet normal -0.000919 0.998630 0.052321
  outer loop
   vertex 20.239801 -248.241638 295.785919
   vertex 19.365290 -248.202667 295.026733
   vertex 18.586224 -248.250275 295.921722
  endloop
 endfacet

 facet normal -0.754724 0.033646 -0.655179
  outer loop
   vertex 18.586224 -248.250275 295.921722
   vertex 19.365290 -248.202667 295.026733
   vertex 19.522017 -249.018051 294.804321
  endloop
 endfacet

 facet normal -0.754726 0.033642 -0.655177
  outer loop
   vertex 19.522017 -249.018051 294.804321
   vertex 18.431005 -249.084717 296.057678
   vertex 18.586224 -248.250275 295.921722
  endloop
 endfacet

 facet normal -0.754726 0.033619 -0.655179
  outer loop
   vertex 18.596539 -249.808914 295.829834
   vertex 18.431005 -249.084717 296.057678
   vertex 19.522017 -249.018051 294.804321
  endloop
 endfacet

 facet normal -0.620505 -0.360878 0.696233
  outer loop
   vertex 19.305517 -249.123703 296.816864
   vertex 18.431005 -249.084717 296.057678
   vertex 18.596539 -249.808914 295.829834
  endloop
 endfacet

 facet normal -0.620481 -0.360911 0.696238
  outer loop
   vertex 18.596539 -249.808914 295.829834
   vertex 19.471050 -249.847885 296.588989
   vertex 19.305517 -249.123703 296.816864
  endloop
 endfacet

 facet normal 0.754728 -0.033645 0.655175
  outer loop
   vertex 19.305517 -249.123703 296.816864
   vertex 19.471050 -249.847885 296.588989
   vertex 20.232336 -249.801361 295.714417
  endloop
 endfacet

 facet normal 0.000919 -0.998630 -0.052323
  outer loop
   vertex 20.232336 -249.801361 295.714417
   vertex 19.471050 -249.847885 296.588989
   vertex 18.596539 -249.808914 295.829834
  endloop
 endfacet

 facet normal 0.000919 -0.998630 -0.052323
  outer loop
   vertex 18.596539 -249.808914 295.829834
   vertex 19.357826 -249.762390 294.955261
   vertex 20.232336 -249.801361 295.714417
  endloop
 endfacet

 facet normal -0.754727 0.033622 -0.655177
  outer loop
   vertex 19.522017 -249.018051 294.804321
   vertex 19.357826 -249.762390 294.955261
   vertex 18.596539 -249.808914 295.829834
  endloop
 endfacet

 facet normal 0.621073 -0.285048 -0.730079
  outer loop
   vertex 20.232336 -249.801361 295.714417
   vertex 19.357826 -249.762390 294.955261
   vertex 19.522017 -249.018051 294.804321
  endloop
 endfacet

 facet normal 0.621093 -0.285023 -0.730072
  outer loop
   vertex 19.522017 -249.018051 294.804321
   vertex 20.396528 -249.057022 295.563507
   vertex 20.232336 -249.801361 295.714417
  endloop
 endfacet

 facet normal 0.754726 -0.033651 0.655177
  outer loop
   vertex 20.232336 -249.801361 295.714417
   vertex 20.396528 -249.057022 295.563507
   vertex 19.305517 -249.123703 296.816864
  endloop
 endfacet

 facet normal -0.754726 0.033649 -0.655177
  outer loop
   vertex 13.462520 -248.863251 291.744537
   vertex 14.553530 -248.796585 290.491180
   vertex 14.389339 -249.540924 290.642090
  endloop
 endfacet

 facet normal 0.621079 -0.285020 -0.730085
  outer loop
   vertex 14.389339 -249.540924 290.642090
   vertex 14.553530 -248.796585 290.491180
   vertex 15.428041 -248.835556 291.250336
  endloop
 endfacet

 facet normal 0.621086 -0.285044 -0.730070
  outer loop
   vertex 15.428041 -248.835556 291.250336
   vertex 15.263850 -249.579910 291.401276
   vertex 14.389339 -249.540924 290.642090
  endloop
 endfacet

 facet normal 0.754716 -0.033618 0.655190
  outer loop
   vertex 14.502564 -249.626419 292.275818
   vertex 15.263850 -249.579910 291.401276
   vertex 15.428041 -248.835556 291.250336
  endloop
 endfacet

 facet normal 0.000903 -0.998630 -0.052322
  outer loop
   vertex 14.389339 -249.540924 290.642090
   vertex 15.263850 -249.579910 291.401276
   vertex 14.502564 -249.626419 292.275818
  endloop
 endfacet

 facet normal 0.000919 -0.998630 -0.052323
  outer loop
   vertex 14.502564 -249.626419 292.275818
   vertex 13.628053 -249.587448 291.516663
   vertex 14.389339 -249.540924 290.642090
  endloop
 endfacet

 facet normal -0.754727 0.033645 -0.655175
  outer loop
   vertex 14.389339 -249.540924 290.642090
   vertex 13.628053 -249.587448 291.516663
   vertex 13.462520 -248.863251 291.744537
  endloop
 endfacet

 facet normal -0.620482 -0.360904 0.696240
  outer loop
   vertex 13.462520 -248.863251 291.744537
   vertex 13.628053 -249.587448 291.516663
   vertex 14.502564 -249.626419 292.275818
  endloop
 endfacet

 facet normal -0.620485 -0.360911 0.696234
  outer loop
   vertex 14.502564 -249.626419 292.275818
   vertex 14.337030 -248.902237 292.503693
   vertex 13.462520 -248.863251 291.744537
  endloop
 endfacet

 facet normal 0.754726 -0.033646 0.655177
  outer loop
   vertex 15.428041 -248.835556 291.250336
   vertex 14.337030 -248.902237 292.503693
   vertex 14.502564 -249.626419 292.275818
  endloop
 endfacet

 facet normal 0.754726 -0.033642 0.655177
  outer loop
   vertex 14.492249 -248.067795 292.367737
   vertex 14.337030 -248.902237 292.503693
   vertex 15.428041 -248.835556 291.250336
  endloop
 endfacet

 facet normal 0.754724 -0.033646 0.655179
  outer loop
   vertex 15.428041 -248.835556 291.250336
   vertex 15.271315 -248.020172 291.472748
   vertex 14.492249 -248.067795 292.367737
  endloop
 endfacet

 facet normal -0.000926 0.998629 0.052331
  outer loop
   vertex 14.492249 -248.067795 292.367737
   vertex 15.271315 -248.020172 291.472748
   vertex 14.396803 -247.981201 290.713593
  endloop
 endfacet

 facet normal -0.649005 0.107548 0.753144
  outer loop
   vertex 14.396803 -247.981201 290.713593
   vertex 15.271315 -248.020172 291.472748
   vertex 15.280872 -247.921036 291.466827
  endloop
 endfacet

 facet normal -0.649005 0.107532 0.753146
  outer loop
   vertex 15.280872 -247.921036 291.466827
   vertex 14.406361 -247.882050 290.707672
   vertex 14.396803 -247.981201 290.713593
  endloop
 endfacet

 facet normal -0.000928 0.998628 0.052354
  outer loop
   vertex 15.385160 -247.914658 291.347015
   vertex 14.406361 -247.882050 290.707672
   vertex 15.280872 -247.921036 291.466827
  endloop
 endfacet

 facet normal -0.000928 0.998628 0.052354
  outer loop
   vertex 14.510649 -247.875671 290.587860
   vertex 14.406361 -247.882050 290.707672
   vertex 15.385160 -247.914658 291.347015
  endloop
 endfacet

 facet normal 0.518995 0.641495 -0.564915
  outer loop
   vertex 15.385160 -247.914658 291.347015
   vertex 14.552761 -247.956100 290.535217
   vertex 14.510649 -247.875671 290.587860
  endloop
 endfacet

 facet normal -0.754743 0.033637 -0.655158
  outer loop
   vertex 14.510649 -247.875671 290.587860
   vertex 14.552761 -247.956100 290.535217
   vertex 14.396803 -247.981201 290.713593
  endloop
 endfacet

 facet normal -0.754743 0.033637 -0.655158
  outer loop
   vertex 14.396803 -247.981201 290.713593
   vertex 14.552761 -247.956100 290.535217
   vertex 14.553530 -248.796585 290.491180
  endloop
 endfacet

 facet normal -0.754724 0.033646 -0.655179
  outer loop
   vertex 14.553530 -248.796585 290.491180
   vertex 13.617737 -248.028809 291.608582
   vertex 14.396803 -247.981201 290.713593
  endloop
 endfacet

 facet normal -0.754726 0.033641 -0.655177
  outer loop
   vertex 13.462520 -248.863251 291.744537
   vertex 13.617737 -248.028809 291.608582
   vertex 14.553530 -248.796585 290.491180
  endloop
 endfacet

 facet normal -0.754720 0.033639 -0.655184
  outer loop
   vertex 13.461751 -248.022781 291.788574
   vertex 13.617737 -248.028809 291.608582
   vertex 13.462520 -248.863251 291.744537
  endloop
 endfacet

 facet normal -0.656036 -0.040089 0.753664
  outer loop
   vertex 13.462520 -248.863251 291.744537
   vertex 14.337030 -248.902237 292.503693
   vertex 13.461751 -248.022781 291.788574
  endloop
 endfacet

 facet normal -0.656036 -0.040089 0.753664
  outer loop
   vertex 13.461751 -248.022781 291.788574
   vertex 14.337030 -248.902237 292.503693
   vertex 14.336262 -248.061768 292.547729
  endloop
 endfacet

 facet normal 0.754718 -0.033639 0.655186
  outer loop
   vertex 14.336262 -248.061768 292.547729
   vertex 14.337030 -248.902237 292.503693
   vertex 14.492249 -248.067795 292.367737
  endloop
 endfacet

 facet normal 0.754719 -0.033620 0.655187
  outer loop
   vertex 14.492249 -248.067795 292.367737
   vertex 14.378223 -247.976196 292.503784
   vertex 14.336262 -248.061768 292.547729
  endloop
 endfacet

 facet normal 0.754662 -0.033776 0.655244
  outer loop
   vertex 14.482511 -247.969818 292.384003
   vertex 14.378223 -247.976196 292.503784
   vertex 14.492249 -248.067795 292.367737
  endloop
 endfacet

 facet normal -0.000946 0.998628 0.052352
  outer loop
   vertex 13.607999 -247.930847 291.624817
   vertex 14.378223 -247.976196 292.503784
   vertex 14.482511 -247.969818 292.384003
  endloop
 endfacet

 facet normal 0.648739 0.186948 -0.737691
  outer loop
   vertex 14.482511 -247.969818 292.384003
   vertex 14.492249 -248.067795 292.367737
   vertex 13.607999 -247.930847 291.624817
  endloop
 endfacet

 facet normal 0.648746 0.186756 -0.737734
  outer loop
   vertex 13.607999 -247.930847 291.624817
   vertex 14.492249 -248.067795 292.367737
   vertex 13.617737 -248.028809 291.608582
  endloop
 endfacet

 facet normal -0.000908 0.998629 0.052330
  outer loop
   vertex 13.617737 -248.028809 291.608582
   vertex 14.492249 -248.067795 292.367737
   vertex 14.396803 -247.981201 290.713593
  endloop
 endfacet

 facet normal -0.656045 -0.040092 0.753656
  outer loop
   vertex 19.386909 -251.992920 296.729279
   vertex 20.490431 -254.235870 297.570557
   vertex 20.274406 -252.032471 297.499725
  endloop
 endfacet

 facet normal -0.656046 -0.040092 0.753655
  outer loop
   vertex 20.274406 -252.032471 297.499725
   vertex 20.490431 -254.235870 297.570557
   vertex 20.486689 -250.145187 297.784912
  endloop
 endfacet

 facet normal -0.754721 0.033614 -0.655184
  outer loop
   vertex 13.461751 -248.022781 291.788574
   vertex 13.503712 -247.937210 291.744629
   vertex 13.617737 -248.028809 291.608582
  endloop
 endfacet

 facet normal -0.754742 0.033556 -0.655163
  outer loop
   vertex 13.617737 -248.028809 291.608582
   vertex 13.503712 -247.937210 291.744629
   vertex 13.607999 -247.930847 291.624817
  endloop
 endfacet

 facet normal 0.754718 -0.033626 0.655187
  outer loop
   vertex 19.304749 -248.283218 296.860901
   vertex 19.460735 -248.289246 296.680908
   vertex 19.346710 -248.197662 296.816956
  endloop
 endfacet

 facet normal 0.754747 -0.033547 0.655158
  outer loop
   vertex 19.346710 -248.197662 296.816956
   vertex 19.460735 -248.289246 296.680908
   vertex 19.450996 -248.191284 296.697144
  endloop
 endfacet

 facet normal -0.754741 0.033633 -0.655160
  outer loop
   vertex 14.510649 -247.875671 290.587860
   vertex 14.396803 -247.981201 290.713593
   vertex 14.406361 -247.882050 290.707672
  endloop
 endfacet

 facet normal 0.754741 -0.033638 0.655160
  outer loop
   vertex 20.353647 -248.136124 295.660187
   vertex 20.249359 -248.142502 295.779999
   vertex 20.239801 -248.241638 295.785919
  endloop
 endfacet

 facet normal 0.656038 0.040088 -0.753663
  outer loop
   vertex 12.510580 -253.857147 290.203552
   vertex 13.060334 -252.784760 290.739136
   vertex 14.024162 -253.924606 291.517487
  endloop
 endfacet

 facet normal -0.000919 0.998630 0.052321
  outer loop
   vertex 20.239801 -248.241638 295.785919
   vertex 18.586224 -248.250275 295.921722
   vertex 19.460735 -248.289246 296.680908
  endloop
 endfacet

 facet normal -0.000953 0.998628 0.052358
  outer loop
   vertex 20.078176 -249.791870 295.711365
   vertex 19.828571 -249.780746 295.494659
   vertex 19.219477 -249.844406 296.697754
  endloop
 endfacet

 facet normal -0.000948 0.998628 0.052360
  outer loop
   vertex 14.414317 -249.539413 290.794556
   vertex 13.555692 -249.591949 291.781006
   vertex 14.663929 -249.550537 291.011230
  endloop
 endfacet

 facet normal 0.656040 0.040055 -0.753663
  outer loop
   vertex 15.202117 -248.815384 291.116486
   vertex 15.202053 -248.744858 291.120178
   vertex 19.686813 -248.944763 295.013397
  endloop
 endfacet

 facet normal -0.754719 0.033659 -0.655184
  outer loop
   vertex 19.828571 -249.780746 295.494659
   vertex 18.973812 -254.168152 296.253876
   vertex 18.969904 -249.833221 296.481079
  endloop
 endfacet

 facet normal -0.656049 -0.040086 0.753653
  outer loop
   vertex 13.802179 -249.581894 291.996185
   vertex 13.390418 -249.900223 291.620819
   vertex 13.392088 -251.725708 291.525177
  endloop
 endfacet

endsolid