solid stl file generated from DOUG
 facet normal 0.865649 0.499305 -0.036697
  outer loop
   vertex 21.653826 -184.666061 298.026520
   vertex 21.673338 -184.709274 297.898834
   vertex 17.236135 -177.251785 294.697083
  endloop
 facet normal 0.629297 0.041238 -0.776070
  outer loop
   vertex 17.236135 -177.251785 294.697083
   vertex 21.673338 -184.709274 297.898834
   vertex 17.173307 -177.312439 294.642914
  endloop
 facet normal -0.118372 -0.450378 -0.884957
  outer loop
   vertex 17.891970 -176.556763 295.407013
   vertex 18.010374 -176.504532 295.364594
   vertex 22.447577 -183.962006 298.566376
  endloop
 facet normal 0.629302 0.041240 -0.776066
  outer loop
   vertex 22.447577 -183.962006 298.566376
   vertex 18.010374 -176.504532 295.364594
   vertex 18.073202 -176.443893 295.418762
  endloop
 facet normal 0.629302 0.041240 -0.776066
  outer loop
   vertex 18.073202 -176.443893 295.418762
   vertex 22.510405 -183.901367 298.620544
   vertex 22.447577 -183.962006 298.566376
  endloop
 facet normal 0.806753 0.250194 -0.535306
  outer loop
   vertex 17.612097 -176.474106 295.987427
   vertex 22.049299 -183.931580 299.189178
   vertex 17.600483 -176.492157 295.961487
  endloop
 facet normal 0.806753 0.250194 -0.535306
  outer loop
   vertex 17.600483 -176.492157 295.961487
   vertex 22.049299 -183.931580 299.189178
   vertex 22.037685 -183.949631 299.163239
  endloop
 facet normal 0.611421 0.590130 0.527173
  outer loop
   vertex 22.037685 -183.949631 299.163239
   vertex 22.399632 -183.925903 298.716888
   vertex 17.600483 -176.492157 295.961487
  endloop
 facet normal 0.865642 0.499321 -0.036653
  outer loop
   vertex 17.236135 -177.251785 294.697083
   vertex 17.216623 -177.208588 294.824738
   vertex 21.653826 -184.666061 298.026520
  endloop
 facet normal 0.629305 0.041243 -0.776063
  outer loop
   vertex 21.653826 -184.666061 298.026520
   vertex 17.216623 -177.208588 294.824738
   vertex 17.891970 -176.556763 295.407013
  endloop
 facet normal 0.629305 0.041243 -0.776063
  outer loop
   vertex 17.891970 -176.556763 295.407013
   vertex 22.329172 -184.014236 298.608795
   vertex 21.653826 -184.666061 298.026520
  endloop
 facet normal -0.118372 -0.450378 -0.884957
  outer loop
   vertex 22.447577 -183.962006 298.566376
   vertex 22.329172 -184.014236 298.608795
   vertex 17.891970 -176.556763 295.407013
  endloop
 facet normal 0.611469 0.590134 0.527112
  outer loop
   vertex 22.510405 -183.901367 298.620544
   vertex 18.073202 -176.443893 295.418762
   vertex 22.426445 -183.906860 298.724091
  endloop
 facet normal 0.611469 0.590134 0.527112
  outer loop
   vertex 22.426445 -183.906860 298.724091
   vertex 18.073202 -176.443893 295.418762
   vertex 17.989243 -176.449387 295.522308
  endloop
 facet normal -0.368271 0.173066 0.913469
  outer loop
   vertex 17.989243 -176.449387 295.522308
   vertex 22.399632 -183.925903 298.716888
   vertex 22.426445 -183.906860 298.724091
  endloop
 facet normal -0.368271 0.173066 0.913469
  outer loop
   vertex 17.962429 -176.468430 295.515106
   vertex 22.399632 -183.925903 298.716888
   vertex 17.989243 -176.449387 295.522308
  endloop
 facet normal 0.611438 0.590132 0.527151
  outer loop
   vertex 17.600483 -176.492157 295.961487
   vertex 22.399632 -183.925903 298.716888
   vertex 17.962429 -176.468430 295.515106
  endloop
 facet normal -0.479719 0.806257 -0.346149
  outer loop
   vertex 16.916409 -176.887680 294.433044
   vertex 17.308212 -176.033691 295.879181
   vertex 17.837143 -175.999023 295.226898
  endloop
 facet normal 0.611427 0.590131 0.527165
  outer loop
   vertex 17.837143 -175.999023 295.226898
   vertex 17.308212 -176.033691 295.879181
   vertex 18.316864 -176.805283 295.573059
  endloop
 facet normal 0.629311 0.041243 -0.776059
  outer loop
   vertex 18.316864 -176.805283 295.573059
   vertex 17.396132 -177.693939 294.779205
   vertex 17.837143 -175.999023 295.226898
  endloop
 facet normal 0.479711 -0.806257 0.346160
  outer loop
   vertex 17.787935 -176.839935 296.225342
   vertex 17.396132 -177.693939 294.779205
   vertex 18.316864 -176.805283 295.573059
  endloop
 facet normal 0.479711 -0.806257 0.346160
  outer loop
   vertex 16.867203 -177.728592 295.431488
   vertex 17.396132 -177.693939 294.779205
   vertex 17.787935 -176.839935 296.225342
  endloop
 facet normal -0.629310 -0.041244 0.776059
  outer loop
   vertex 17.787935 -176.839935 296.225342
   vertex 17.308212 -176.033691 295.879181
   vertex 16.867203 -177.728592 295.431488
  endloop
 facet normal -0.629310 -0.041244 0.776059
  outer loop
   vertex 16.867203 -177.728592 295.431488
   vertex 17.308212 -176.033691 295.879181
   vertex 16.387480 -176.922348 295.085327
  endloop
 facet normal -0.479720 0.806257 -0.346148
  outer loop
   vertex 16.387480 -176.922348 295.085327
   vertex 17.308212 -176.033691 295.879181
   vertex 16.916409 -176.887680 294.433044
  endloop
 facet normal -0.611427 -0.590132 -0.527164
  outer loop
   vertex 16.916409 -176.887680 294.433044
   vertex 17.396132 -177.693939 294.779205
   vertex 16.387480 -176.922348 295.085327
  endloop
 facet normal 0.629309 0.041243 -0.776060
  outer loop
   vertex 17.837143 -175.999023 295.226898
   vertex 17.396132 -177.693939 294.779205
   vertex 16.916409 -176.887680 294.433044
  endloop
 facet normal -0.479725 0.806252 -0.346152
  outer loop
   vertex 22.311127 -183.518311 298.455200
   vertex 21.390394 -184.406967 297.661377
   vertex 21.782198 -183.552979 299.107483
  endloop
 facet normal -0.479725 0.806252 -0.346152
  outer loop
   vertex 21.782198 -183.552979 299.107483
   vertex 21.390394 -184.406967 297.661377
   vertex 20.861465 -184.441635 298.313660
  endloop
 facet normal -0.629290 -0.041253 0.776075
  outer loop
   vertex 20.861465 -184.441635 298.313660
   vertex 21.341187 -185.247894 298.659790
   vertex 21.782198 -183.552979 299.107483
  endloop
 facet normal -0.611435 -0.590118 -0.527170
  outer loop
   vertex 21.390394 -184.406967 297.661377
   vertex 21.341187 -185.247894 298.659790
   vertex 20.861465 -184.441635 298.313660
  endloop
 facet normal -0.611435 -0.590118 -0.527170
  outer loop
   vertex 21.870115 -185.213226 298.007507
   vertex 21.341187 -185.247894 298.659790
   vertex 21.390394 -184.406967 297.661377
  endloop
 facet normal 0.629299 0.041262 -0.776067
  outer loop
   vertex 21.390394 -184.406967 297.661377
   vertex 22.790848 -184.324570 298.801361
   vertex 21.870115 -185.213226 298.007507
  endloop
 facet normal 0.479720 -0.806257 0.346148
  outer loop
   vertex 21.870115 -185.213226 298.007507
   vertex 22.790848 -184.324570 298.801361
   vertex 21.341187 -185.247894 298.659790
  endloop
 facet normal 0.479720 -0.806257 0.346148
  outer loop
   vertex 21.341187 -185.247894 298.659790
   vertex 22.790848 -184.324570 298.801361
   vertex 22.261919 -184.359238 299.453644
  endloop
 facet normal -0.629311 -0.041243 0.776059
  outer loop
   vertex 22.261919 -184.359238 299.453644
   vertex 21.782198 -183.552979 299.107483
   vertex 21.341187 -185.247894 298.659790
  endloop
 facet normal 0.611427 0.590131 0.527164
  outer loop
   vertex 22.790848 -184.324570 298.801361
   vertex 21.782198 -183.552979 299.107483
   vertex 22.261919 -184.359238 299.453644
  endloop
 facet normal 0.611427 0.590131 0.527164
  outer loop
   vertex 22.311127 -183.518311 298.455200
   vertex 21.782198 -183.552979 299.107483
   vertex 22.790848 -184.324570 298.801361
  endloop
 facet normal 0.629301 0.041233 -0.776067
  outer loop
   vertex 22.790848 -184.324570 298.801361
   vertex 21.390394 -184.406967 297.661377
   vertex 22.311127 -183.518311 298.455200
  endloop
 facet normal 0.629300 0.041242 -0.776067
  outer loop
   vertex 21.673338 -184.709274 297.898834
   vertex 21.610510 -184.769913 297.844666
   vertex 17.173307 -177.312439 294.642914
  endloop
 facet normal -0.611470 -0.590133 -0.527113
  outer loop
   vertex 17.173307 -177.312439 294.642914
   vertex 21.610510 -184.769913 297.844666
   vertex 21.526550 -184.775406 297.948212
  endloop
 facet normal -0.611470 -0.590133 -0.527113
  outer loop
   vertex 21.526550 -184.775406 297.948212
   vertex 17.089348 -177.317932 294.746460
   vertex 17.173307 -177.312439 294.642914
  endloop
 facet normal -0.806793 -0.250255 0.535218
  outer loop
   vertex 21.538164 -184.757370 297.974152
   vertex 17.089348 -177.317932 294.746460
   vertex 21.526550 -184.775406 297.948212
  endloop
 facet normal -0.806587 -0.249932 0.535679
  outer loop
   vertex 17.100962 -177.299881 294.772369
   vertex 17.089348 -177.317932 294.746460
   vertex 21.538164 -184.757370 297.974152
  endloop
 facet normal -0.611431 -0.590131 -0.527161
  outer loop
   vertex 21.538164 -184.757370 297.974152
   vertex 21.176218 -184.781082 298.420502
   vertex 17.100962 -177.299881 294.772369
  endloop
 facet normal -0.611439 -0.590131 -0.527151
  outer loop
   vertex 17.100962 -177.299881 294.772369
   vertex 21.176218 -184.781082 298.420502
   vertex 16.739016 -177.323608 295.218750
  endloop
 facet normal 0.367610 -0.173532 -0.913646
  outer loop
   vertex 16.739016 -177.323608 295.218750
   vertex 21.176218 -184.781082 298.420502
   vertex 21.149405 -184.800125 298.413330
  endloop
 facet normal 0.368271 -0.173066 -0.913469
  outer loop
   vertex 21.149405 -184.800125 298.413330
   vertex 16.712202 -177.342651 295.211548
   vertex 16.739016 -177.323608 295.218750
  endloop
 facet normal -0.611359 -0.590127 -0.527248
  outer loop
   vertex 21.107746 -184.802856 298.464691
   vertex 16.712202 -177.342651 295.211548
   vertex 21.149405 -184.800125 298.413330
  endloop
 facet normal -0.611501 -0.590135 -0.527074
  outer loop
   vertex 16.670542 -177.345383 295.262939
   vertex 16.712202 -177.342651 295.211548
   vertex 21.107746 -184.802856 298.464691
  endloop
 facet normal -0.629305 -0.041246 0.776063
  outer loop
   vertex 21.107746 -184.802856 298.464691
   vertex 22.007639 -183.934311 299.240570
   vertex 16.670542 -177.345383 295.262939
  endloop
 facet normal -0.629296 -0.041234 0.776071
  outer loop
   vertex 16.670542 -177.345383 295.262939
   vertex 22.007639 -183.934311 299.240570
   vertex 17.570436 -176.476837 296.038788
  endloop
 facet normal 0.611347 0.590126 0.527262
  outer loop
   vertex 17.570436 -176.476837 296.038788
   vertex 22.007639 -183.934311 299.240570
   vertex 17.612097 -176.474106 295.987427
  endloop
 facet normal 0.611429 0.590139 0.527152
  outer loop
   vertex 17.787935 -176.839935 296.225342
   vertex 18.316864 -176.805283 295.573059
   vertex 17.308212 -176.033691 295.879181
  endloop
 facet normal -0.611429 -0.590139 -0.527152
  outer loop
   vertex 17.396132 -177.693939 294.779205
   vertex 16.867203 -177.728592 295.431488
   vertex 16.387480 -176.922348 295.085327
  endloop
 facet normal 0.611501 0.590135 0.527074
  outer loop
   vertex 22.007639 -183.934311 299.240570
   vertex 22.049299 -183.931580 299.189178
   vertex 17.612097 -176.474106 295.987427
  endloop
 facet normal 0.209219 -0.970715 0.118065
  outer loop
   vertex 20.825935 -185.296310 300.739899
   vertex 20.196632 -185.337555 301.515961
   vertex 20.253080 -185.477448 300.265747
  endloop
 facet normal 0.209220 -0.970715 0.118065
  outer loop
   vertex 20.253080 -185.477448 300.265747
   vertex 20.196632 -185.337555 301.515961
   vertex 19.623779 -185.518692 301.041809
  endloop
 facet normal -0.381305 -0.853749 -0.354569
  outer loop
   vertex 19.623779 -185.518692 301.041809
   vertex 19.734783 -185.080185 299.866577
   vertex 20.253080 -185.477448 300.265747
  endloop
 facet normal -0.381305 -0.853749 -0.354569
  outer loop
   vertex 19.105482 -185.121429 300.642639
   vertex 19.734783 -185.080185 299.866577
   vertex 19.623779 -185.518692 301.041809
  endloop
 facet normal -0.748468 -0.236667 -0.619503
  outer loop
   vertex 19.574654 -184.337234 299.776215
   vertex 19.734783 -185.080185 299.866577
   vertex 19.105482 -185.121429 300.642639
  endloop
 facet normal -0.748467 -0.236669 -0.619504
  outer loop
   vertex 19.105482 -185.121429 300.642639
   vertex 18.945351 -184.378479 300.552277
   vertex 19.574654 -184.337234 299.776215
  endloop
 facet normal -0.677182 0.519061 -0.521536
  outer loop
   vertex 19.574654 -184.337234 299.776215
   vertex 18.945351 -184.378479 300.552277
   vertex 19.866491 -183.683807 300.047607
  endloop
 facet normal -0.677181 0.519054 -0.521544
  outer loop
   vertex 19.866491 -183.683807 300.047607
   vertex 18.945351 -184.378479 300.552277
   vertex 19.237190 -183.725037 300.823669
  endloop
 facet normal -0.209228 0.970710 -0.118091
  outer loop
   vertex 19.237190 -183.725037 300.823669
   vertex 20.439344 -183.502655 300.521729
   vertex 19.866491 -183.683807 300.047607
  endloop
 facet normal -0.209223 0.970714 -0.118067
  outer loop
   vertex 19.810043 -183.543900 301.297791
   vertex 20.439344 -183.502655 300.521729
   vertex 19.237190 -183.725037 300.823669
  endloop
 facet normal 0.381304 0.853750 0.354569
  outer loop
   vertex 20.957644 -183.899918 300.920898
   vertex 20.439344 -183.502655 300.521729
   vertex 19.810043 -183.543900 301.297791
  endloop
 facet normal 0.381304 0.853750 0.354569
  outer loop
   vertex 19.810043 -183.543900 301.297791
   vertex 20.328342 -183.941162 301.696960
   vertex 20.957644 -183.899918 300.920898
  endloop
 facet normal 0.748468 0.236669 0.619503
  outer loop
   vertex 20.957644 -183.899918 300.920898
   vertex 20.328342 -183.941162 301.696960
   vertex 21.117775 -184.642868 301.011261
  endloop
 facet normal 0.748474 0.236692 0.619487
  outer loop
   vertex 21.117775 -184.642868 301.011261
   vertex 20.328342 -183.941162 301.696960
   vertex 20.488472 -184.684113 301.787354
  endloop
 facet normal 0.677204 -0.519035 0.521534
  outer loop
   vertex 20.488472 -184.684113 301.787354
   vertex 20.825935 -185.296310 300.739899
   vertex 21.117775 -184.642868 301.011261
  endloop
 facet normal 0.677186 -0.519054 0.521539
  outer loop
   vertex 20.196632 -185.337555 301.515961
   vertex 20.825935 -185.296310 300.739899
   vertex 20.488472 -184.684113 301.787354
  endloop
 facet normal -0.209238 0.970709 -0.118079
  outer loop
   vertex 16.507086 -176.663910 296.420929
   vertex 16.993174 -176.667953 295.526337
   vertex 16.363873 -176.709198 296.302399
  endloop
 facet normal -0.677194 0.519036 -0.521546
  outer loop
   vertex 16.363873 -176.709198 296.302399
   vertex 16.993174 -176.667953 295.526337
   vertex 16.920214 -176.831314 295.458496
  endloop
 facet normal -0.677174 0.519071 -0.521537
  outer loop
   vertex 16.920214 -176.831314 295.458496
   vertex 16.290913 -176.872543 296.234558
   vertex 16.363873 -176.709198 296.302399
  endloop
 facet normal -0.748473 -0.236656 -0.619502
  outer loop
   vertex 16.960247 -177.017044 295.481079
   vertex 16.290913 -176.872543 296.234558
   vertex 16.920214 -176.831314 295.458496
  endloop
 facet normal -0.748474 -0.236637 -0.619507
  outer loop
   vertex 16.330946 -177.058289 296.257141
   vertex 16.290913 -176.872543 296.234558
   vertex 16.960247 -177.017044 295.481079
  endloop
 facet normal -0.381317 -0.853740 -0.354579
  outer loop
   vertex 16.960247 -177.017044 295.481079
   vertex 17.089821 -177.116364 295.580872
   vertex 16.330946 -177.058289 296.257141
  endloop
 facet normal -0.381317 -0.853740 -0.354579
  outer loop
   vertex 16.330946 -177.058289 296.257141
   vertex 17.089821 -177.116364 295.580872
   vertex 16.460520 -177.157608 296.356934
  endloop
 facet normal 0.209238 -0.970709 0.118079
  outer loop
   vertex 16.460520 -177.157608 296.356934
   vertex 17.089821 -177.116364 295.580872
   vertex 17.233034 -177.071075 295.699402
  endloop
 facet normal 0.209238 -0.970709 0.118079
  outer loop
   vertex 17.233034 -177.071075 295.699402
   vertex 16.603733 -177.112320 296.475464
   vertex 16.460520 -177.157608 296.356934
  endloop
 facet normal 0.677194 -0.519036 0.521546
  outer loop
   vertex 17.305994 -176.907715 295.767242
   vertex 16.603733 -177.112320 296.475464
   vertex 17.233034 -177.071075 295.699402
  endloop
 facet normal 0.677194 -0.519036 0.521546
  outer loop
   vertex 16.676693 -176.948959 296.543304
   vertex 16.603733 -177.112320 296.475464
   vertex 17.305994 -176.907715 295.767242
  endloop
 facet normal 0.748472 0.236648 0.619506
  outer loop
   vertex 17.305994 -176.907715 295.767242
   vertex 17.265963 -176.721985 295.744659
   vertex 16.676693 -176.948959 296.543304
  endloop
 facet normal 0.748470 0.236656 0.619506
  outer loop
   vertex 16.676693 -176.948959 296.543304
   vertex 17.265963 -176.721985 295.744659
   vertex 16.636660 -176.763229 296.520721
  endloop
 facet normal 0.381314 0.853742 0.354577
  outer loop
   vertex 16.636660 -176.763229 296.520721
   vertex 17.265963 -176.721985 295.744659
   vertex 17.136387 -176.622665 295.644867
  endloop
 facet normal 0.381317 0.853740 0.354579
  outer loop
   vertex 17.136387 -176.622665 295.644867
   vertex 16.507086 -176.663910 296.420929
   vertex 16.636660 -176.763229 296.520721
  endloop
 facet normal -0.209238 0.970709 -0.118079
  outer loop
   vertex 16.993174 -176.667953 295.526337
   vertex 16.507086 -176.663910 296.420929
   vertex 17.136387 -176.622665 295.644867
  endloop
 facet normal -0.209223 0.970714 -0.118067
  outer loop
   vertex 15.324649 -176.005432 298.061249
   vertex 15.381097 -176.145325 296.811066
   vertex 14.751795 -176.186569 297.587128
  endloop
 facet normal -0.677186 0.519053 -0.521539
  outer loop
   vertex 14.751795 -176.186569 297.587128
   vertex 15.381097 -176.145325 296.811066
   vertex 15.089257 -176.798767 296.539673
  endloop
 facet normal -0.677178 0.519062 -0.521541
  outer loop
   vertex 15.089257 -176.798767 296.539673
   vertex 14.459956 -176.839996 297.315735
   vertex 14.751795 -176.186569 297.587128
  endloop
 facet normal -0.748470 -0.236668 -0.619500
  outer loop
   vertex 15.249388 -177.541718 296.630035
   vertex 14.459956 -176.839996 297.315735
   vertex 15.089257 -176.798767 296.539673
  endloop
 facet normal -0.748469 -0.236662 -0.619504
  outer loop
   vertex 14.620086 -177.582962 297.406097
   vertex 14.459956 -176.839996 297.315735
   vertex 15.249388 -177.541718 296.630035
  endloop
 facet normal -0.381304 -0.853749 -0.354569
  outer loop
   vertex 15.249388 -177.541718 296.630035
   vertex 15.767686 -177.938980 297.029205
   vertex 14.620086 -177.582962 297.406097
  endloop
 facet normal -0.381304 -0.853749 -0.354569
  outer loop
   vertex 14.620086 -177.582962 297.406097
   vertex 15.767686 -177.938980 297.029205
   vertex 15.138384 -177.980225 297.805267
  endloop
 facet normal 0.209219 -0.970715 0.118065
  outer loop
   vertex 15.138384 -177.980225 297.805267
   vertex 15.767686 -177.938980 297.029205
   vertex 16.340540 -177.757843 297.503357
  endloop
 facet normal 0.209224 -0.970711 0.118088
  outer loop
   vertex 16.340540 -177.757843 297.503357
   vertex 15.711238 -177.799072 298.279419
   vertex 15.138384 -177.980225 297.805267
  endloop
 facet normal 0.677189 -0.519036 0.521552
  outer loop
   vertex 16.632380 -177.104401 297.774719
   vertex 15.711238 -177.799072 298.279419
   vertex 16.340540 -177.757843 297.503357
  endloop
 facet normal 0.677192 -0.519061 0.521524
  outer loop
   vertex 16.003077 -177.145645 298.550812
   vertex 15.711238 -177.799072 298.279419
   vertex 16.632380 -177.104401 297.774719
  endloop
 facet normal 0.748479 0.236669 0.619490
  outer loop
   vertex 16.632380 -177.104401 297.774719
   vertex 16.472248 -176.361450 297.684357
   vertex 16.003077 -177.145645 298.550812
  endloop
 facet normal 0.748463 0.236691 0.619500
  outer loop
   vertex 16.003077 -177.145645 298.550812
   vertex 16.472248 -176.361450 297.684357
   vertex 15.842947 -176.402695 298.460419
  endloop
 facet normal 0.381305 0.853749 0.354569
  outer loop
   vertex 15.842947 -176.402695 298.460419
   vertex 16.472248 -176.361450 297.684357
   vertex 15.953951 -175.964188 297.285187
  endloop
 facet normal 0.381304 0.853749 0.354569
  outer loop
   vertex 15.953951 -175.964188 297.285187
   vertex 15.324649 -176.005432 298.061249
   vertex 15.842947 -176.402695 298.460419
  endloop
 facet normal -0.209223 0.970714 -0.118067
  outer loop
   vertex 15.381097 -176.145325 296.811066
   vertex 15.324649 -176.005432 298.061249
   vertex 15.953951 -175.964188 297.285187
  endloop
 facet normal 0.186433 0.821375 -0.539061
  outer loop
   vertex 15.953951 -175.964188 297.285187
   vertex 16.370190 -176.708786 296.294586
   vertex 15.381097 -176.145325 296.811066
  endloop
 facet normal -0.198211 0.450144 -0.870680
  outer loop
   vertex 15.381097 -176.145325 296.811066
   vertex 16.370190 -176.708786 296.294586
   vertex 16.297230 -176.872131 296.226746
  endloop
 facet normal -0.198212 0.450143 -0.870680
  outer loop
   vertex 16.297230 -176.872131 296.226746
   vertex 15.089257 -176.798767 296.539673
   vertex 15.381097 -176.145325 296.811066
  endloop
 facet normal -0.256802 -0.171148 -0.951189
  outer loop
   vertex 16.337261 -177.057877 296.249359
   vertex 15.089257 -176.798767 296.539673
   vertex 16.297230 -176.872131 296.226746
  endloop
 facet normal -0.256785 -0.171039 -0.951214
  outer loop
   vertex 15.249388 -177.541718 296.630035
   vertex 15.089257 -176.798767 296.539673
   vertex 16.337261 -177.057877 296.249359
  endloop
 facet normal 0.044998 -0.678244 -0.733457
  outer loop
   vertex 16.337261 -177.057877 296.249359
   vertex 16.466837 -177.157196 296.349152
   vertex 15.249388 -177.541718 296.630035
  endloop
 facet normal 0.045004 -0.678254 -0.733448
  outer loop
   vertex 15.249388 -177.541718 296.630035
   vertex 16.466837 -177.157196 296.349152
   vertex 15.767686 -177.938980 297.029205
  endloop
 facet normal 0.530390 -0.774398 -0.344957
  outer loop
   vertex 15.767686 -177.938980 297.029205
   vertex 16.466837 -177.157196 296.349152
   vertex 16.610050 -177.111908 296.467682
  endloop
 facet normal 0.530388 -0.774398 -0.344959
  outer loop
   vertex 16.610050 -177.111908 296.467682
   vertex 16.340540 -177.757843 297.503357
   vertex 15.767686 -177.938980 297.029205
  endloop
 facet normal 0.915040 -0.403144 -0.013317
  outer loop
   vertex 16.683010 -176.948547 296.535522
   vertex 16.340540 -177.757843 297.503357
   vertex 16.610050 -177.111908 296.467682
  endloop
 facet normal 0.915040 -0.403144 -0.013317
  outer loop
   vertex 16.632380 -177.104401 297.774719
   vertex 16.340540 -177.757843 297.503357
   vertex 16.683010 -176.948547 296.535522
  endloop
 facet normal 0.973629 0.218015 0.067200
  outer loop
   vertex 16.683010 -176.948547 296.535522
   vertex 16.642977 -176.762802 296.512939
   vertex 16.632380 -177.104401 297.774719
  endloop
 facet normal 0.973627 0.218024 0.067202
  outer loop
   vertex 16.632380 -177.104401 297.774719
   vertex 16.642977 -176.762802 296.512939
   vertex 16.472248 -176.361450 297.684357
  endloop
 facet normal 0.671804 0.725263 -0.150578
  outer loop
   vertex 16.472248 -176.361450 297.684357
   vertex 16.642977 -176.762802 296.512939
   vertex 16.513403 -176.663498 296.413147
  endloop
 facet normal 0.671837 0.725234 -0.150570
  outer loop
   vertex 16.513403 -176.663498 296.413147
   vertex 15.953951 -175.964188 297.285187
   vertex 16.472248 -176.361450 297.684357
  endloop
 facet normal 0.186502 0.821377 -0.539033
  outer loop
   vertex 16.370190 -176.708786 296.294586
   vertex 15.953951 -175.964188 297.285187
   vertex 16.513403 -176.663498 296.413147
  endloop
 facet normal 0.209238 -0.970709 0.118079
  outer loop
   vertex 21.718430 -184.609543 298.935944
   vertex 21.089128 -184.650787 299.712006
   vertex 21.575216 -184.654831 298.817413
  endloop
 facet normal 0.209238 -0.970709 0.118079
  outer loop
   vertex 21.575216 -184.654831 298.817413
   vertex 21.089128 -184.650787 299.712006
   vertex 20.945915 -184.696075 299.593475
  endloop
 facet normal -0.381317 -0.853740 -0.354579
  outer loop
   vertex 20.945915 -184.696075 299.593475
   vertex 21.445642 -184.555511 298.717621
   vertex 21.575216 -184.654831 298.817413
  endloop
 facet normal -0.381317 -0.853740 -0.354579
  outer loop
   vertex 20.816341 -184.596756 299.493683
   vertex 21.445642 -184.555511 298.717621
   vertex 20.945915 -184.696075 299.593475
  endloop
 facet normal -0.748470 -0.236656 -0.619505
  outer loop
   vertex 21.405609 -184.369781 298.695038
   vertex 21.445642 -184.555511 298.717621
   vertex 20.816341 -184.596756 299.493683
  endloop
 facet normal -0.748470 -0.236656 -0.619505
  outer loop
   vertex 20.816341 -184.596756 299.493683
   vertex 20.776308 -184.411026 299.471100
   vertex 21.405609 -184.369781 298.695038
  endloop
 facet normal -0.677194 0.519036 -0.521546
  outer loop
   vertex 21.405609 -184.369781 298.695038
   vertex 20.776308 -184.411026 299.471100
   vertex 21.478569 -184.206421 298.762878
  endloop
 facet normal -0.677194 0.519036 -0.521546
  outer loop
   vertex 21.478569 -184.206421 298.762878
   vertex 20.776308 -184.411026 299.471100
   vertex 20.849268 -184.247665 299.538940
  endloop
 facet normal -0.209238 0.970709 -0.118079
  outer loop
   vertex 20.849268 -184.247665 299.538940
   vertex 21.621782 -184.161133 298.881409
   vertex 21.478569 -184.206421 298.762878
  endloop
 facet normal -0.209238 0.970709 -0.118079
  outer loop
   vertex 20.992481 -184.202377 299.657471
   vertex 21.621782 -184.161133 298.881409
   vertex 20.849268 -184.247665 299.538940
  endloop
 facet normal 0.381314 0.853742 0.354577
  outer loop
   vertex 21.751358 -184.260452 298.981201
   vertex 21.621782 -184.161133 298.881409
   vertex 20.992481 -184.202377 299.657471
  endloop
 facet normal 0.381316 0.853740 0.354579
  outer loop
   vertex 20.992481 -184.202377 299.657471
   vertex 21.122055 -184.301697 299.757263
   vertex 21.751358 -184.260452 298.981201
  endloop
 facet normal 0.748475 0.236630 0.619509
  outer loop
   vertex 21.751358 -184.260452 298.981201
   vertex 21.122055 -184.301697 299.757263
   vertex 21.791389 -184.446198 299.003784
  endloop
 facet normal 0.748473 0.236656 0.619502
  outer loop
   vertex 21.791389 -184.446198 299.003784
   vertex 21.122055 -184.301697 299.757263
   vertex 21.162088 -184.487427 299.779846
  endloop
 facet normal 0.677174 -0.519071 0.521537
  outer loop
   vertex 21.162088 -184.487427 299.779846
   vertex 21.718430 -184.609543 298.935944
   vertex 21.791389 -184.446198 299.003784
  endloop
 facet normal 0.677194 -0.519036 0.521546
  outer loop
   vertex 21.089128 -184.650787 299.712006
   vertex 21.718430 -184.609543 298.935944
   vertex 21.162088 -184.487427 299.779846
  endloop
 facet normal 0.915040 -0.403144 -0.013317
  outer loop
   vertex 21.168406 -184.487015 299.772064
   vertex 21.117775 -184.642868 301.011261
   vertex 21.095446 -184.650375 299.704224
  endloop
 facet normal 0.915040 -0.403144 -0.013317
  outer loop
   vertex 21.095446 -184.650375 299.704224
   vertex 21.117775 -184.642868 301.011261
   vertex 20.825935 -185.296310 300.739899
  endloop
 facet normal 0.530390 -0.774397 -0.344958
  outer loop
   vertex 20.825935 -185.296310 300.739899
   vertex 20.952232 -184.695663 299.585693
   vertex 21.095446 -184.650375 299.704224
  endloop
 facet normal 0.530387 -0.774398 -0.344959
  outer loop
   vertex 20.253080 -185.477448 300.265747
   vertex 20.952232 -184.695663 299.585693
   vertex 20.825935 -185.296310 300.739899
  endloop
 facet normal 0.044992 -0.678249 -0.733454
  outer loop
   vertex 20.822657 -184.596344 299.485901
   vertex 20.952232 -184.695663 299.585693
   vertex 20.253080 -185.477448 300.265747
  endloop
 facet normal 0.045005 -0.678253 -0.733449
  outer loop
   vertex 20.253080 -185.477448 300.265747
   vertex 19.734783 -185.080185 299.866577
   vertex 20.822657 -184.596344 299.485901
  endloop
 facet normal -0.256733 -0.171149 -0.951208
  outer loop
   vertex 20.822657 -184.596344 299.485901
   vertex 19.734783 -185.080185 299.866577
   vertex 20.782625 -184.410614 299.463287
  endloop
 facet normal -0.256802 -0.171041 -0.951208
  outer loop
   vertex 20.782625 -184.410614 299.463287
   vertex 19.734783 -185.080185 299.866577
   vertex 19.574654 -184.337234 299.776215
  endloop
 facet normal -0.198213 0.450110 -0.870697
  outer loop
   vertex 19.574654 -184.337234 299.776215
   vertex 20.855585 -184.247253 299.531128
   vertex 20.782625 -184.410614 299.463287
  endloop
 facet normal -0.198212 0.450151 -0.870676
  outer loop
   vertex 19.866491 -183.683807 300.047607
   vertex 20.855585 -184.247253 299.531128
   vertex 19.574654 -184.337234 299.776215
  endloop
 facet normal 0.186468 0.821405 -0.539002
  outer loop
   vertex 20.998798 -184.201965 299.649689
   vertex 20.855585 -184.247253 299.531128
   vertex 19.866491 -183.683807 300.047607
  endloop
 facet normal 0.186425 0.821367 -0.539075
  outer loop
   vertex 19.866491 -183.683807 300.047607
   vertex 20.439344 -183.502655 300.521729
   vertex 20.998798 -184.201965 299.649689
  endloop
 facet normal 0.671846 0.725228 -0.150557
  outer loop
   vertex 20.998798 -184.201965 299.649689
   vertex 20.439344 -183.502655 300.521729
   vertex 21.128372 -184.301285 299.749481
  endloop
 facet normal 0.671836 0.725234 -0.150573
  outer loop
   vertex 21.128372 -184.301285 299.749481
   vertex 20.439344 -183.502655 300.521729
   vertex 20.957644 -183.899918 300.920898
  endloop
 facet normal 0.973626 0.218031 0.067196
  outer loop
   vertex 20.957644 -183.899918 300.920898
   vertex 21.168406 -184.487015 299.772064
   vertex 21.128372 -184.301285 299.749481
  endloop
 facet normal 0.973627 0.218024 0.067201
  outer loop
   vertex 21.117775 -184.642868 301.011261
   vertex 21.168406 -184.487015 299.772064
   vertex 20.957644 -183.899918 300.920898
  endloop
endsolid