solid stl file generated from DOUG
 facet normal -0.055089 0.997162 0.051306
  outer loop
   vertex -15.535356 242.903839 387.829010
   vertex -15.671317 242.896469 387.826263
   vertex -15.832523 242.412384 397.061707
  endloop
 facet normal -0.835973 0.548588 0.014163
  outer loop
   vertex -15.832523 242.412384 397.061707
   vertex -15.671317 242.896469 387.826263
   vertex -15.888881 242.326645 397.056213
  endloop
 facet normal -0.937714 -0.345693 -0.034488
  outer loop
   vertex -15.090759 243.341461 397.123352
   vertex -15.138013 243.469055 397.129211
   vertex -14.976807 243.953140 387.893768
  endloop
 facet normal -0.836013 0.548526 0.014159
  outer loop
   vertex -14.976807 243.953140 387.893768
   vertex -15.138013 243.469055 397.129211
   vertex -15.081655 243.554810 397.134705
  endloop
 facet normal -0.835966 0.548598 0.014162
  outer loop
   vertex -15.081655 243.554810 397.134705
   vertex -14.920448 244.038879 387.899231
   vertex -14.976807 243.953140 387.893768
  endloop
 facet normal -0.583813 0.811244 0.032332
  outer loop
   vertex -14.469103 243.152863 397.124329
   vertex -14.307897 243.636948 387.888855
   vertex -14.496433 243.133255 397.122803
  endloop
 facet normal -0.583789 0.811261 0.032333
  outer loop
   vertex -14.496433 243.133255 397.122803
   vertex -14.307897 243.636948 387.888855
   vertex -14.335227 243.617340 387.887360
  endloop
 facet normal 0.548464 0.834473 0.053313
  outer loop
   vertex -14.335227 243.617340 387.887360
   vertex -14.816052 243.932846 387.895508
   vertex -14.496433 243.133255 397.122803
  endloop
 facet normal -0.055089 0.997162 0.051306
  outer loop
   vertex -15.832523 242.412384 397.061707
   vertex -15.696562 242.419754 397.064453
   vertex -15.535356 242.903839 387.829010
  endloop
 facet normal -0.835991 0.548560 0.014161
  outer loop
   vertex -15.535356 242.903839 387.829010
   vertex -15.696562 242.419754 397.064453
   vertex -15.090759 243.341461 397.123352
  endloop
 facet normal -0.835991 0.548560 0.014161
  outer loop
   vertex -15.090759 243.341461 397.123352
   vertex -14.929553 243.825546 387.887909
   vertex -15.535356 242.903839 387.829010
  endloop
 facet normal -0.937714 -0.345693 -0.034488
  outer loop
   vertex -14.976807 243.953140 387.893768
   vertex -14.929553 243.825546 387.887909
   vertex -15.090759 243.341461 397.123352
  endloop
 facet normal 0.548433 0.834493 0.053312
  outer loop
   vertex -14.920448 244.038879 387.899231
   vertex -15.081655 243.554810 397.134705
   vertex -14.808912 243.965698 387.897339
  endloop
 facet normal 0.548513 0.834441 0.053312
  outer loop
   vertex -14.808912 243.965698 387.897339
   vertex -15.081655 243.554810 397.134705
   vertex -14.970119 243.481613 397.132812
  endloop
 facet normal 0.977101 -0.212694 0.005907
  outer loop
   vertex -14.970119 243.481613 397.132812
   vertex -14.816052 243.932846 387.895508
   vertex -14.808912 243.965698 387.897339
  endloop
 facet normal 0.977100 -0.212700 0.005907
  outer loop
   vertex -14.977259 243.448761 397.130951
   vertex -14.816052 243.932846 387.895508
   vertex -14.970119 243.481613 397.132812
  endloop
 facet normal 0.548464 0.834473 0.053313
  outer loop
   vertex -14.496433 243.133255 397.122803
   vertex -14.816052 243.932846 387.895508
   vertex -14.977259 243.448761 397.130951
  endloop
 facet normal -0.017422 -0.052324 0.998478
  outer loop
   vertex -15.923249 242.294510 397.593109
   vertex -14.394679 243.090042 397.661469
   vertex -15.097330 243.551117 397.673370
  endloop
 facet normal 0.548474 0.834467 0.053302
  outer loop
   vertex -15.097330 243.551117 397.673370
   vertex -14.394679 243.090042 397.661469
   vertex -15.079901 243.603439 396.674896
  endloop
 facet normal -0.835988 0.548566 0.014153
  outer loop
   vertex -15.079901 243.603439 396.674896
   vertex -15.905821 242.346848 396.594635
   vertex -15.097330 243.551117 397.673370
  endloop
 facet normal 0.017421 0.052325 -0.998478
  outer loop
   vertex -14.377251 243.142380 396.662994
   vertex -15.905821 242.346848 396.594635
   vertex -15.079901 243.603439 396.674896
  endloop
 facet normal 0.017422 0.052324 -0.998478
  outer loop
   vertex -15.203170 241.885773 396.582733
   vertex -15.905821 242.346848 396.594635
   vertex -14.377251 243.142380 396.662994
  endloop
 facet normal 0.835991 -0.548560 -0.014162
  outer loop
   vertex -14.377251 243.142380 396.662994
   vertex -14.394679 243.090042 397.661469
   vertex -15.203170 241.885773 396.582733
  endloop
 facet normal 0.835991 -0.548560 -0.014162
  outer loop
   vertex -15.203170 241.885773 396.582733
   vertex -14.394679 243.090042 397.661469
   vertex -15.220598 241.833435 397.581207
  endloop
 facet normal -0.017422 -0.052324 0.998478
  outer loop
   vertex -15.220598 241.833435 397.581207
   vertex -14.394679 243.090042 397.661469
   vertex -15.923249 242.294510 397.593109
  endloop
 facet normal -0.548474 -0.834466 -0.053314
  outer loop
   vertex -15.923249 242.294510 397.593109
   vertex -15.905821 242.346848 396.594635
   vertex -15.220598 241.833435 397.581207
  endloop
 facet normal -0.835991 0.548560 0.014162
  outer loop
   vertex -15.097330 243.551117 397.673370
   vertex -15.905821 242.346848 396.594635
   vertex -15.923249 242.294510 397.593109
  endloop
 facet normal -0.017421 -0.052325 0.998478
  outer loop
   vertex -14.934787 244.039200 388.361359
   vertex -15.760707 242.782608 388.281097
   vertex -14.232137 243.578140 388.349457
  endloop
 facet normal -0.017422 -0.052324 0.998478
  outer loop
   vertex -14.232137 243.578140 388.349457
   vertex -15.760707 242.782608 388.281097
   vertex -15.058056 242.321533 388.269196
  endloop
 facet normal 0.835991 -0.548560 -0.014162
  outer loop
   vertex -15.058056 242.321533 388.269196
   vertex -15.040627 242.373871 387.270721
   vertex -14.232137 243.578140 388.349457
  endloop
 facet normal -0.548474 -0.834466 -0.053314
  outer loop
   vertex -15.760707 242.782608 388.281097
   vertex -15.040627 242.373871 387.270721
   vertex -15.058056 242.321533 388.269196
  endloop
 facet normal -0.548474 -0.834466 -0.053314
  outer loop
   vertex -15.743279 242.834946 387.282623
   vertex -15.040627 242.373871 387.270721
   vertex -15.760707 242.782608 388.281097
  endloop
 facet normal -0.835988 0.548565 0.014162
  outer loop
   vertex -15.760707 242.782608 388.281097
   vertex -14.917358 244.091537 387.362885
   vertex -15.743279 242.834946 387.282623
  endloop
 facet normal 0.017422 0.052324 -0.998478
  outer loop
   vertex -15.743279 242.834946 387.282623
   vertex -14.917358 244.091537 387.362885
   vertex -15.040627 242.373871 387.270721
  endloop
 facet normal 0.017421 0.052324 -0.998478
  outer loop
   vertex -15.040627 242.373871 387.270721
   vertex -14.917358 244.091537 387.362885
   vertex -14.214707 243.630478 387.350983
  endloop
 facet normal 0.835991 -0.548561 -0.014161
  outer loop
   vertex -14.214707 243.630478 387.350983
   vertex -14.232137 243.578140 388.349457
   vertex -15.040627 242.373871 387.270721
  endloop
 facet normal 0.548461 0.834474 0.053315
  outer loop
   vertex -14.917358 244.091537 387.362885
   vertex -14.232137 243.578140 388.349457
   vertex -14.214707 243.630478 387.350983
  endloop
 facet normal 0.548462 0.834474 0.053315
  outer loop
   vertex -14.934787 244.039200 388.361359
   vertex -14.232137 243.578140 388.349457
   vertex -14.917358 244.091537 387.362885
  endloop
 facet normal -0.835988 0.548565 0.014162
  outer loop
   vertex -14.917358 244.091537 387.362885
   vertex -15.760707 242.782608 388.281097
   vertex -14.934787 244.039200 388.361359
  endloop
 facet normal -0.835973 0.548588 0.014163
  outer loop
   vertex -15.671317 242.896469 387.826263
   vertex -15.727674 242.810730 387.820770
   vertex -15.888881 242.326645 397.056213
  endloop
 facet normal -0.548513 -0.834441 -0.053312
  outer loop
   vertex -15.888881 242.326645 397.056213
   vertex -15.727674 242.810730 387.820770
   vertex -15.616138 242.737534 387.818878
  endloop
 facet normal -0.548503 -0.834447 -0.053312
  outer loop
   vertex -15.616138 242.737534 387.818878
   vertex -15.777345 242.253448 397.054352
   vertex -15.888881 242.326645 397.056213
  endloop
 facet normal 0.583803 -0.811252 -0.032332
  outer loop
   vertex -15.588809 242.757141 387.820374
   vertex -15.777345 242.253448 397.054352
   vertex -15.616138 242.737534 387.818878
  endloop
 facet normal 0.583789 -0.811261 -0.032333
  outer loop
   vertex -15.750014 242.273056 397.055847
   vertex -15.777345 242.253448 397.054352
   vertex -15.588809 242.757141 387.820374
  endloop
 facet normal -0.548480 -0.834462 -0.053313
  outer loop
   vertex -15.588809 242.757141 387.820374
   vertex -15.107984 242.441620 387.812256
   vertex -15.750014 242.273056 397.055847
  endloop
 facet normal -0.548483 -0.834460 -0.053313
  outer loop
   vertex -15.750014 242.273056 397.055847
   vertex -15.107984 242.441620 387.812256
   vertex -15.269190 241.957535 397.047699
  endloop
 facet normal -0.977085 0.212767 -0.005903
  outer loop
   vertex -15.269190 241.957535 397.047699
   vertex -15.107984 242.441620 387.812256
   vertex -15.115123 242.408783 387.810394
  endloop
 facet normal -0.977085 0.212767 -0.005903
  outer loop
   vertex -15.115123 242.408783 387.810394
   vertex -15.276329 241.924698 397.045837
   vertex -15.269190 241.957535 397.047699
  endloop
 facet normal -0.548491 -0.834455 -0.053313
  outer loop
   vertex -15.059781 242.372467 387.809448
   vertex -15.276329 241.924698 397.045837
   vertex -15.115123 242.408783 387.810394
  endloop
 facet normal -0.548471 -0.834469 -0.053313
  outer loop
   vertex -15.220987 241.888382 397.044922
   vertex -15.276329 241.924698 397.045837
   vertex -15.059781 242.372467 387.809448
  endloop
 facet normal 0.835991 -0.548561 -0.014161
  outer loop
   vertex -15.059781 242.372467 387.809448
   vertex -14.252554 243.600632 387.887909
   vertex -15.220987 241.888382 397.044922
  endloop
 facet normal 0.835991 -0.548561 -0.014161
  outer loop
   vertex -15.220987 241.888382 397.044922
   vertex -14.252554 243.600632 387.887909
   vertex -14.413760 243.116547 397.123383
  endloop
 facet normal 0.548484 0.834459 0.053313
  outer loop
   vertex -14.413760 243.116547 397.123383
   vertex -14.252554 243.600632 387.887909
   vertex -14.469103 243.152863 397.124329
  endloop
 facet normal 0.548462 0.834474 0.053315
  outer loop
   vertex -14.377251 243.142380 396.662994
   vertex -15.079901 243.603439 396.674896
   vertex -14.394679 243.090042 397.661469
  endloop
 facet normal -0.548474 -0.834466 -0.053314
  outer loop
   vertex -15.905821 242.346848 396.594635
   vertex -15.203170 241.885773 396.582733
   vertex -15.220598 241.833435 397.581207
  endloop
 facet normal 0.548484 0.834459 0.053313
  outer loop
   vertex -14.252554 243.600632 387.887909
   vertex -14.307897 243.636948 387.888855
   vertex -14.469103 243.152863 397.124329
  endloop
 facet normal -0.193795 -0.270996 -0.942871
  outer loop
   vertex -12.996475 241.964462 386.772247
   vertex -12.160484 241.415894 386.758087
   vertex -13.389404 241.359070 387.027008
  endloop
 facet normal -0.193794 -0.271002 -0.942869
  outer loop
   vertex -13.389404 241.359070 387.027008
   vertex -12.160484 241.415894 386.758087
   vertex -12.553414 240.810516 387.012848
  endloop
 facet normal -0.500041 -0.750922 -0.431364
  outer loop
   vertex -12.553414 240.810516 387.012848
   vertex -13.562371 241.077652 387.717407
   vertex -13.389404 241.359070 387.027008
  endloop
 facet normal -0.500041 -0.750922 -0.431364
  outer loop
   vertex -12.726381 240.529099 387.703247
   vertex -13.562371 241.077652 387.717407
   vertex -12.553414 240.810516 387.012848
  endloop
 facet normal -0.513381 -0.790979 0.332854
  outer loop
   vertex -13.414052 241.285065 388.439056
   vertex -13.562371 241.077652 387.717407
   vertex -12.726381 240.529099 387.703247
  endloop
 facet normal -0.513394 -0.790977 0.332839
  outer loop
   vertex -12.726381 240.529099 387.703247
   vertex -12.578062 240.736496 388.424896
   vertex -13.414052 241.285065 388.439056
  endloop
 facet normal -0.225993 -0.367686 0.902072
  outer loop
   vertex -13.414052 241.285065 388.439056
   vertex -12.578062 240.736496 388.424896
   vertex -13.031332 241.859787 388.769196
  endloop
 facet normal -0.225984 -0.367684 0.902075
  outer loop
   vertex -13.031332 241.859787 388.769196
   vertex -12.578062 240.736496 388.424896
   vertex -12.195342 241.311234 388.755035
  endloop
 facet normal 0.193772 0.270968 0.942883
  outer loop
   vertex -12.195342 241.311234 388.755035
   vertex -12.638402 242.465179 388.514465
   vertex -13.031332 241.859787 388.769196
  endloop
 facet normal 0.193779 0.270970 0.942881
  outer loop
   vertex -11.802412 241.916611 388.500305
   vertex -12.638402 242.465179 388.514465
   vertex -12.195342 241.311234 388.755035
  endloop
 facet normal 0.500054 0.750922 0.431348
  outer loop
   vertex -12.465436 242.746597 387.824036
   vertex -12.638402 242.465179 388.514465
   vertex -11.802412 241.916611 388.500305
  endloop
 facet normal 0.500054 0.750922 0.431348
  outer loop
   vertex -11.802412 241.916611 388.500305
   vertex -11.629446 242.198029 387.809875
   vertex -12.465436 242.746597 387.824036
  endloop
 facet normal 0.513391 0.790973 -0.332853
  outer loop
   vertex -12.465436 242.746597 387.824036
   vertex -11.629446 242.198029 387.809875
   vertex -12.613754 242.539185 387.102386
  endloop
 facet normal 0.513384 0.790984 -0.332838
  outer loop
   vertex -12.613754 242.539185 387.102386
   vertex -11.629446 242.198029 387.809875
   vertex -11.777764 241.990631 387.088226
  endloop
 facet normal 0.225988 0.367689 -0.902072
  outer loop
   vertex -11.777764 241.990631 387.088226
   vertex -12.996475 241.964462 386.772247
   vertex -12.613754 242.539185 387.102386
  endloop
 facet normal 0.225989 0.367681 -0.902075
  outer loop
   vertex -12.160484 241.415894 386.758087
   vertex -12.996475 241.964462 386.772247
   vertex -11.777764 241.990631 387.088226
  endloop
 facet normal 0.193800 0.271011 0.942865
  outer loop
   vertex -13.910583 242.104095 397.306458
   vertex -14.844806 242.501312 397.384308
   vertex -14.008816 241.952759 397.370148
  endloop
 facet normal -0.226028 -0.367749 0.902038
  outer loop
   vertex -14.008816 241.952759 397.370148
   vertex -14.844806 242.501312 397.384308
   vertex -14.940486 242.357635 397.301758
  endloop
 facet normal -0.226018 -0.367723 0.902051
  outer loop
   vertex -14.940486 242.357635 397.301758
   vertex -14.104496 241.809067 397.287598
   vertex -14.008816 241.952759 397.370148
  endloop
 facet normal -0.513397 -0.790981 0.332826
  outer loop
   vertex -14.977566 242.305786 397.121338
   vertex -14.104496 241.809067 397.287598
   vertex -14.940486 242.357635 397.301758
  endloop
 facet normal -0.513397 -0.790981 0.332826
  outer loop
   vertex -14.141576 241.757217 397.107178
   vertex -14.104496 241.809067 397.287598
   vertex -14.977566 242.305786 397.121338
  endloop
 facet normal -0.500065 -0.750939 -0.431307
  outer loop
   vertex -14.977566 242.305786 397.121338
   vertex -14.934324 242.376129 396.948730
   vertex -14.141576 241.757217 397.107178
  endloop
 facet normal -0.500042 -0.750923 -0.431362
  outer loop
   vertex -14.141576 241.757217 397.107178
   vertex -14.934324 242.376129 396.948730
   vertex -14.098334 241.827576 396.934570
  endloop
 facet normal -0.193712 -0.270875 -0.942922
  outer loop
   vertex -14.098334 241.827576 396.934570
   vertex -14.934324 242.376129 396.948730
   vertex -14.836092 242.527481 396.885071
  endloop
 facet normal -0.193712 -0.270875 -0.942922
  outer loop
   vertex -14.836092 242.527481 396.885071
   vertex -14.000102 241.978928 396.870911
   vertex -14.098334 241.827576 396.934570
  endloop
 facet normal 0.225941 0.367618 -0.902113
  outer loop
   vertex -14.740412 242.671173 396.967590
   vertex -14.000102 241.978928 396.870911
   vertex -14.836092 242.527481 396.885071
  endloop
 facet normal 0.225960 0.367637 -0.902100
  outer loop
   vertex -13.904422 242.122604 396.953430
   vertex -14.000102 241.978928 396.870911
   vertex -14.740412 242.671173 396.967590
  endloop
 facet normal 0.513397 0.790981 -0.332826
  outer loop
   vertex -14.740412 242.671173 396.967590
   vertex -14.703332 242.723022 397.148010
   vertex -13.904422 242.122604 396.953430
  endloop
 facet normal 0.513397 0.790981 -0.332826
  outer loop
   vertex -13.904422 242.122604 396.953430
   vertex -14.703332 242.723022 397.148010
   vertex -13.867342 242.174454 397.133850
  endloop
 facet normal 0.500051 0.750917 0.431361
  outer loop
   vertex -13.867342 242.174454 397.133850
   vertex -14.703332 242.723022 397.148010
   vertex -14.746573 242.652664 397.320618
  endloop
 facet normal 0.500051 0.750917 0.431361
  outer loop
   vertex -14.746573 242.652664 397.320618
   vertex -13.910583 242.104095 397.306458
   vertex -13.867342 242.174454 397.133850
  endloop
 facet normal 0.193792 0.270991 0.942872
  outer loop
   vertex -14.844806 242.501312 397.384308
   vertex -13.910583 242.104095 397.306458
   vertex -14.746573 242.652664 397.320618
  endloop
 facet normal 0.193795 0.270995 0.942871
  outer loop
   vertex -11.965368 241.427277 397.836060
   vertex -13.194289 241.370453 398.104980
   vertex -12.358299 240.821884 398.090820
  endloop
 facet normal -0.225989 -0.367681 0.902075
  outer loop
   vertex -12.358299 240.821884 398.090820
   vertex -13.194289 241.370453 398.104980
   vertex -13.577009 240.795715 397.774841
  endloop
 facet normal -0.225989 -0.367681 0.902075
  outer loop
   vertex -13.577009 240.795715 397.774841
   vertex -12.741019 240.247147 397.760681
   vertex -12.358299 240.821884 398.090820
  endloop
 facet normal -0.513394 -0.790977 0.332839
  outer loop
   vertex -13.725328 240.588318 397.053192
   vertex -12.741019 240.247147 397.760681
   vertex -13.577009 240.795715 397.774841
  endloop
 facet normal -0.513394 -0.790977 0.332839
  outer loop
   vertex -12.889338 240.039749 397.039032
   vertex -12.741019 240.247147 397.760681
   vertex -13.725328 240.588318 397.053192
  endloop
 facet normal -0.500054 -0.750922 -0.431348
  outer loop
   vertex -13.725328 240.588318 397.053192
   vertex -13.552361 240.869736 396.362762
   vertex -12.889338 240.039749 397.039032
  endloop
 facet normal -0.500054 -0.750922 -0.431348
  outer loop
   vertex -12.889338 240.039749 397.039032
   vertex -13.552361 240.869736 396.362762
   vertex -12.716372 240.321167 396.348602
  endloop
 facet normal -0.193779 -0.270970 -0.942881
  outer loop
   vertex -12.716372 240.321167 396.348602
   vertex -13.552361 240.869736 396.362762
   vertex -13.159431 241.475113 396.108032
  endloop
 facet normal -0.193772 -0.270968 -0.942883
  outer loop
   vertex -13.159431 241.475113 396.108032
   vertex -12.323442 240.926559 396.093872
   vertex -12.716372 240.321167 396.348602
  endloop
 facet normal 0.225984 0.367684 -0.902075
  outer loop
   vertex -12.776711 242.049850 396.438171
   vertex -12.323442 240.926559 396.093872
   vertex -13.159431 241.475113 396.108032
  endloop
 facet normal 0.225993 0.367686 -0.902072
  outer loop
   vertex -11.940722 241.501282 396.424011
   vertex -12.323442 240.926559 396.093872
   vertex -12.776711 242.049850 396.438171
  endloop
 facet normal 0.513394 0.790977 -0.332838
  outer loop
   vertex -12.776711 242.049850 396.438171
   vertex -12.628393 242.257248 397.159821
   vertex -11.940722 241.501282 396.424011
  endloop
 facet normal 0.513381 0.790980 -0.332854
  outer loop
   vertex -11.940722 241.501282 396.424011
   vertex -12.628393 242.257248 397.159821
   vertex -11.792402 241.708694 397.145660
  endloop
 facet normal 0.500041 0.750923 0.431364
  outer loop
   vertex -11.792402 241.708694 397.145660
   vertex -12.628393 242.257248 397.159821
   vertex -12.801359 241.975830 397.850220
  endloop
 facet normal 0.500041 0.750923 0.431364
  outer loop
   vertex -12.801359 241.975830 397.850220
   vertex -11.965368 241.427277 397.836060
   vertex -11.792402 241.708694 397.145660
  endloop
 facet normal 0.193794 0.271002 0.942869
  outer loop
   vertex -13.194289 241.370453 398.104980
   vertex -11.965368 241.427277 397.836060
   vertex -12.801359 241.975830 397.850220
  endloop
 facet normal -0.316841 0.535187 0.783063
  outer loop
   vertex -12.801359 241.975830 397.850220
   vertex -14.017207 241.958267 397.370270
   vertex -13.194289 241.370453 398.104980
  endloop
 facet normal -0.661870 0.010269 0.749548
  outer loop
   vertex -13.194289 241.370453 398.104980
   vertex -14.017207 241.958267 397.370270
   vertex -14.112887 241.814575 397.287750
  endloop
 facet normal -0.661887 0.010208 0.749534
  outer loop
   vertex -14.112887 241.814575 397.287750
   vertex -13.577009 240.795715 397.774841
   vertex -13.194289 241.370453 398.104980
  endloop
 facet normal -0.898119 -0.337730 0.281638
  outer loop
   vertex -14.149967 241.762726 397.107330
   vertex -13.577009 240.795715 397.774841
   vertex -14.112887 241.814575 397.287750
  endloop
 facet normal -0.898119 -0.337723 0.281648
  outer loop
   vertex -13.725328 240.588318 397.053192
   vertex -13.577009 240.795715 397.774841
   vertex -14.149967 241.762726 397.107330
  endloop
 facet normal -0.887153 -0.304801 -0.346492
  outer loop
   vertex -14.149967 241.762726 397.107330
   vertex -14.106726 241.833084 396.934723
   vertex -13.725328 240.588318 397.053192
  endloop
 facet normal -0.887154 -0.304801 -0.346487
  outer loop
   vertex -13.725328 240.588318 397.053192
   vertex -14.106726 241.833084 396.934723
   vertex -13.552361 240.869736 396.362762
  endloop
 facet normal -0.635425 0.089687 -0.766936
  outer loop
   vertex -13.552361 240.869736 396.362762
   vertex -14.106726 241.833084 396.934723
   vertex -14.008493 241.984421 396.871033
  endloop
 facet normal -0.635405 0.089703 -0.766951
  outer loop
   vertex -14.008493 241.984421 396.871033
   vertex -13.159431 241.475113 396.108032
   vertex -13.552361 240.869736 396.362762
  endloop
 facet normal -0.290353 0.614671 -0.733400
  outer loop
   vertex -13.912813 242.128113 396.953583
   vertex -13.159431 241.475113 396.108032
   vertex -14.008493 241.984421 396.871033
  endloop
 facet normal -0.290381 0.614648 -0.733407
  outer loop
   vertex -12.776711 242.049850 396.438171
   vertex -13.159431 241.475113 396.108032
   vertex -13.912813 242.128113 396.953583
  endloop
 facet normal -0.054158 0.962577 -0.265541
  outer loop
   vertex -13.912813 242.128113 396.953583
   vertex -13.875733 242.179962 397.133972
   vertex -12.776711 242.049850 396.438171
  endloop
 facet normal -0.054140 0.962586 -0.265514
  outer loop
   vertex -12.776711 242.049850 396.438171
   vertex -13.875733 242.179962 397.133972
   vertex -12.628393 242.257248 397.159821
  endloop
 facet normal -0.065117 0.929654 0.362633
  outer loop
   vertex -12.628393 242.257248 397.159821
   vertex -13.875733 242.179962 397.133972
   vertex -13.918975 242.109604 397.306580
  endloop
 facet normal -0.065117 0.929656 0.362629
  outer loop
   vertex -13.918975 242.109604 397.306580
   vertex -12.801359 241.975830 397.850220
   vertex -12.628393 242.257248 397.159821
  endloop
 facet normal -0.316837 0.535206 0.783051
  outer loop
   vertex -14.017207 241.958267 397.370270
   vertex -12.801359 241.975830 397.850220
   vertex -13.918975 242.109604 397.306580
  endloop
 facet normal -0.193792 -0.270991 -0.942872
  outer loop
   vertex -14.673135 243.016830 387.549286
   vertex -13.837145 242.468262 387.535126
   vertex -14.771367 242.865479 387.612976
  endloop
 facet normal -0.193792 -0.270991 -0.942872
  outer loop
   vertex -14.771367 242.865479 387.612976
   vertex -13.837145 242.468262 387.535126
   vertex -13.935377 242.316910 387.598816
  endloop
 facet normal -0.500051 -0.750917 -0.431361
  outer loop
   vertex -13.935377 242.316910 387.598816
   vertex -14.814609 242.795120 387.785583
   vertex -14.771367 242.865479 387.612976
  endloop
 facet normal -0.500055 -0.750945 -0.431308
  outer loop
   vertex -13.978619 242.246567 387.771423
   vertex -14.814609 242.795120 387.785583
   vertex -13.935377 242.316910 387.598816
  endloop
 facet normal -0.513387 -0.790987 0.332826
  outer loop
   vertex -14.777529 242.846970 387.966003
   vertex -14.814609 242.795120 387.785583
   vertex -13.978619 242.246567 387.771423
  endloop
 facet normal -0.513387 -0.790987 0.332826
  outer loop
   vertex -13.978619 242.246567 387.771423
   vertex -13.941539 242.298416 387.951843
   vertex -14.777529 242.846970 387.966003
  endloop
 facet normal -0.225941 -0.367619 0.902112
  outer loop
   vertex -14.777529 242.846970 387.966003
   vertex -13.941539 242.298416 387.951843
   vertex -14.681849 242.990662 388.048523
  endloop
 facet normal -0.225960 -0.367638 0.902100
  outer loop
   vertex -14.681849 242.990662 388.048523
   vertex -13.941539 242.298416 387.951843
   vertex -13.845859 242.442093 388.034363
  endloop
 facet normal 0.193803 0.271008 0.942865
  outer loop
   vertex -13.845859 242.442093 388.034363
   vertex -14.583616 243.141998 387.984833
   vertex -14.681849 242.990662 388.048523
  endloop
 facet normal 0.193789 0.270993 0.942872
  outer loop
   vertex -13.747626 242.593445 387.970673
   vertex -14.583616 243.141998 387.984833
   vertex -13.845859 242.442093 388.034363
  endloop
 facet normal 0.500026 0.750898 0.431424
  outer loop
   vertex -14.540375 243.212357 387.812256
   vertex -14.583616 243.141998 387.984833
   vertex -13.747626 242.593445 387.970673
  endloop
 facet normal 0.500053 0.750916 0.431361
  outer loop
   vertex -13.747626 242.593445 387.970673
   vertex -13.704385 242.663803 387.798065
   vertex -14.540375 243.212357 387.812256
  endloop
 facet normal 0.513378 0.790993 -0.332826
  outer loop
   vertex -14.540375 243.212357 387.812256
   vertex -13.704385 242.663803 387.798065
   vertex -14.577455 243.160507 387.631836
  endloop
 facet normal 0.513374 0.790949 -0.332936
  outer loop
   vertex -14.577455 243.160507 387.631836
   vertex -13.704385 242.663803 387.798065
   vertex -13.741465 242.611938 387.617676
  endloop
 facet normal 0.226032 0.367745 -0.902038
  outer loop
   vertex -13.741465 242.611938 387.617676
   vertex -14.673135 243.016830 387.549286
   vertex -14.577455 243.160507 387.631836
  endloop
 facet normal 0.226032 0.367745 -0.902038
  outer loop
   vertex -13.837145 242.468262 387.535126
   vertex -14.673135 243.016830 387.549286
   vertex -13.741465 242.611938 387.617676
  endloop
 facet normal -0.290392 0.614621 -0.733426
  outer loop
   vertex -13.749856 242.617447 387.617798
   vertex -12.613754 242.539185 387.102386
   vertex -13.845536 242.473770 387.535278
  endloop
 facet normal -0.290383 0.614660 -0.733397
  outer loop
   vertex -13.845536 242.473770 387.535278
   vertex -12.613754 242.539185 387.102386
   vertex -12.996475 241.964462 386.772247
  endloop
 facet normal -0.635429 0.089682 -0.766933
  outer loop
   vertex -12.996475 241.964462 386.772247
   vertex -13.943769 242.322418 387.598969
   vertex -13.845536 242.473770 387.535278
  endloop
 facet normal -0.635429 0.089684 -0.766934
  outer loop
   vertex -13.389404 241.359070 387.027008
   vertex -13.943769 242.322418 387.598969
   vertex -12.996475 241.964462 386.772247
  endloop
 facet normal -0.887157 -0.304812 -0.346471
  outer loop
   vertex -13.987010 242.252075 387.771576
   vertex -13.943769 242.322418 387.598969
   vertex -13.389404 241.359070 387.027008
  endloop
 facet normal -0.887155 -0.304789 -0.346497
  outer loop
   vertex -13.389404 241.359070 387.027008
   vertex -13.562371 241.077652 387.717407
   vertex -13.987010 242.252075 387.771576
  endloop
 facet normal -0.898108 -0.337723 0.281682
  outer loop
   vertex -13.987010 242.252075 387.771576
   vertex -13.562371 241.077652 387.717407
   vertex -13.949930 242.303925 387.951965
  endloop
 facet normal -0.898118 -0.337721 0.281655
  outer loop
   vertex -13.949930 242.303925 387.951965
   vertex -13.562371 241.077652 387.717407
   vertex -13.414052 241.285065 388.439056
  endloop
 facet normal -0.661926 0.010171 0.749500
  outer loop
   vertex -13.414052 241.285065 388.439056
   vertex -13.854251 242.447601 388.034515
   vertex -13.949930 242.303925 387.951965
  endloop
 facet normal -0.661882 0.010202 0.749539
  outer loop
   vertex -13.031332 241.859787 388.769196
   vertex -13.854251 242.447601 388.034515
   vertex -13.414052 241.285065 388.439056
  endloop
 facet normal -0.316839 0.535166 0.783077
  outer loop
   vertex -13.756018 242.598953 387.970825
   vertex -13.854251 242.447601 388.034515
   vertex -13.031332 241.859787 388.769196
  endloop
 facet normal -0.316857 0.535152 0.783080
  outer loop
   vertex -13.031332 241.859787 388.769196
   vertex -12.638402 242.465179 388.514465
   vertex -13.756018 242.598953 387.970825
  endloop
 facet normal -0.065085 0.929681 0.362570
  outer loop
   vertex -13.756018 242.598953 387.970825
   vertex -12.638402 242.465179 388.514465
   vertex -13.712776 242.669296 387.798218
  endloop
 facet normal -0.065119 0.929661 0.362615
  outer loop
   vertex -13.712776 242.669296 387.798218
   vertex -12.638402 242.465179 388.514465
   vertex -12.465436 242.746597 387.824036
  endloop
 facet normal -0.054159 0.962589 -0.265500
  outer loop
   vertex -12.465436 242.746597 387.824036
   vertex -13.749856 242.617447 387.617798
   vertex -13.712776 242.669296 387.798218
  endloop
 facet normal -0.054153 0.962581 -0.265530
  outer loop
   vertex -12.613754 242.539185 387.102386
   vertex -13.749856 242.617447 387.617798
   vertex -12.465436 242.746597 387.824036
  endloop
endsolid