solid stl file generated from DOUG
 facet normal -0.249740 -0.050198 0.967011
  outer loop
   vertex 12.280539 -255.118881 443.927948
   vertex 12.412407 -255.120621 443.961914
   vertex 12.410223 -245.883484 444.440857
  endloop
 facet normal 0.630743 -0.040032 0.774959
  outer loop
   vertex 12.410223 -245.883484 444.440857
   vertex 12.412407 -255.120621 443.961914
   vertex 12.489964 -245.880112 444.376129
  endloop
 facet normal 0.998911 0.002651 -0.046581
  outer loop
   vertex 11.421200 -245.918015 445.102539
   vertex 11.427554 -245.925064 445.238403
   vertex 11.429738 -255.162201 444.759491
  endloop
 facet normal 0.630743 -0.040030 0.774959
  outer loop
   vertex 11.429738 -255.162201 444.759491
   vertex 11.427554 -245.925064 445.238403
   vertex 11.347813 -245.928436 445.303131
  endloop
 facet normal 0.630564 -0.040040 0.775104
  outer loop
   vertex 11.347813 -245.928436 445.303131
   vertex 11.349997 -255.165573 444.824188
   vertex 11.429738 -255.162201 444.759491
  endloop
 facet normal 0.310455 -0.049145 0.949317
  outer loop
   vertex 10.885687 -245.899109 444.735260
   vertex 10.887871 -255.136246 444.256348
   vertex 10.917688 -245.898560 444.724823
  endloop
 facet normal 0.310455 -0.049145 0.949317
  outer loop
   vertex 10.917688 -245.898560 444.724823
   vertex 10.887871 -255.136246 444.256348
   vertex 10.919872 -255.135696 444.245911
  endloop
 facet normal -0.776027 -0.032839 0.629844
  outer loop
   vertex 10.919872 -255.135696 444.245911
   vertex 11.282620 -255.158722 444.691650
   vertex 10.917688 -245.898560 444.724823
  endloop
 facet normal -0.249950 -0.050192 0.966957
  outer loop
   vertex 12.410223 -245.883484 444.440857
   vertex 12.278355 -245.881744 444.406860
   vertex 12.280539 -255.118881 443.927948
  endloop
 facet normal 0.630694 -0.040032 0.774999
  outer loop
   vertex 12.280539 -255.118881 443.927948
   vertex 12.278355 -245.881744 444.406860
   vertex 11.421200 -245.918015 445.102539
  endloop
 facet normal 0.630694 -0.040032 0.774999
  outer loop
   vertex 11.421200 -245.918015 445.102539
   vertex 11.423384 -255.155151 444.623627
   vertex 12.280539 -255.118881 443.927948
  endloop
 facet normal 0.998911 0.002651 -0.046581
  outer loop
   vertex 11.429738 -255.162201 444.759491
   vertex 11.423384 -255.155151 444.623627
   vertex 11.421200 -245.918015 445.102539
  endloop
 facet normal -0.776018 -0.032841 0.629856
  outer loop
   vertex 11.349997 -255.165573 444.824188
   vertex 11.347813 -245.928436 445.303131
   vertex 11.265851 -255.160233 444.720795
  endloop
 facet normal -0.776018 -0.032841 0.629856
  outer loop
   vertex 11.265851 -255.160233 444.720795
   vertex 11.347813 -245.928436 445.303131
   vertex 11.263667 -245.923096 445.199738
  endloop
 facet normal -0.867048 0.025594 -0.497567
  outer loop
   vertex 11.263667 -245.923096 445.199738
   vertex 11.282620 -255.158722 444.691650
   vertex 11.265851 -255.160233 444.720795
  endloop
 facet normal -0.867273 0.025572 -0.497176
  outer loop
   vertex 11.280437 -245.921585 445.170563
   vertex 11.282620 -255.158722 444.691650
   vertex 11.263667 -245.923096 445.199738
  endloop
 facet normal -0.776027 -0.032839 0.629844
  outer loop
   vertex 10.917688 -245.898560 444.724823
   vertex 11.282620 -255.158722 444.691650
   vertex 11.280437 -245.921585 445.170563
  endloop
 facet normal -0.000239 0.998659 0.051777
  outer loop
   vertex 12.514860 -245.342682 444.407776
   vertex 10.816160 -245.358490 444.704834
   vertex 11.346259 -245.392136 445.356232
  endloop
 facet normal -0.776037 -0.032846 0.629832
  outer loop
   vertex 11.346259 -245.392136 445.356232
   vertex 10.816160 -245.358490 444.704834
   vertex 11.346496 -246.390793 445.304443
  endloop
 facet normal 0.630695 -0.040040 0.774997
  outer loop
   vertex 11.346496 -246.390793 445.304443
   vertex 12.515097 -246.341339 444.355988
   vertex 11.346259 -245.392136 445.356232
  endloop
 facet normal 0.000238 -0.998659 -0.051778
  outer loop
   vertex 10.816397 -246.357147 444.653076
   vertex 12.515097 -246.341339 444.355988
   vertex 11.346496 -246.390793 445.304443
  endloop
 facet normal 0.000238 -0.998659 -0.051778
  outer loop
   vertex 11.984997 -246.307693 443.704620
   vertex 12.515097 -246.341339 444.355988
   vertex 10.816397 -246.357147 444.653076
  endloop
 facet normal -0.630695 0.040017 -0.774998
  outer loop
   vertex 10.816397 -246.357147 444.653076
   vertex 10.816160 -245.358490 444.704834
   vertex 11.984997 -246.307693 443.704620
  endloop
 facet normal -0.630695 0.040017 -0.774998
  outer loop
   vertex 11.984997 -246.307693 443.704620
   vertex 10.816160 -245.358490 444.704834
   vertex 11.984761 -245.309036 443.756378
  endloop
 facet normal -0.000239 0.998659 0.051777
  outer loop
   vertex 11.984761 -245.309036 443.756378
   vertex 10.816160 -245.358490 444.704834
   vertex 12.514860 -245.342682 444.407776
  endloop
 facet normal 0.776037 0.032846 -0.629832
  outer loop
   vertex 12.514860 -245.342682 444.407776
   vertex 12.515097 -246.341339 444.355988
   vertex 11.984761 -245.309036 443.756378
  endloop
 facet normal 0.630695 -0.040040 0.774997
  outer loop
   vertex 11.346259 -245.392136 445.356232
   vertex 12.515097 -246.341339 444.355988
   vertex 12.514860 -245.342682 444.407776
  endloop
 facet normal -0.000238 0.998659 0.051778
  outer loop
   vertex 11.348462 -254.705841 444.873322
   vertex 12.517062 -254.656387 443.924866
   vertex 10.818363 -254.672195 444.221954
  endloop
 facet normal -0.000238 0.998659 0.051778
  outer loop
   vertex 10.818363 -254.672195 444.221954
   vertex 12.517062 -254.656387 443.924866
   vertex 11.986963 -254.622742 443.273499
  endloop
 facet normal -0.630695 0.040040 -0.774997
  outer loop
   vertex 11.986963 -254.622742 443.273499
   vertex 11.987200 -255.621399 443.221710
   vertex 10.818363 -254.672195 444.221954
  endloop
 facet normal 0.776022 0.032847 -0.629850
  outer loop
   vertex 12.517062 -254.656387 443.924866
   vertex 11.987200 -255.621399 443.221710
   vertex 11.986963 -254.622742 443.273499
  endloop
 facet normal 0.776037 0.032826 -0.629833
  outer loop
   vertex 12.517299 -255.655045 443.873108
   vertex 11.987200 -255.621399 443.221710
   vertex 12.517062 -254.656387 443.924866
  endloop
 facet normal 0.630695 -0.040017 0.774998
  outer loop
   vertex 12.517062 -254.656387 443.924866
   vertex 11.348698 -255.704498 444.821564
   vertex 12.517299 -255.655045 443.873108
  endloop
 facet normal 0.000239 -0.998659 -0.051777
  outer loop
   vertex 12.517299 -255.655045 443.873108
   vertex 11.348698 -255.704498 444.821564
   vertex 11.987200 -255.621399 443.221710
  endloop
 facet normal 0.000239 -0.998659 -0.051777
  outer loop
   vertex 11.987200 -255.621399 443.221710
   vertex 11.348698 -255.704498 444.821564
   vertex 10.818599 -255.670853 444.170166
  endloop
 facet normal -0.630695 0.040041 -0.774997
  outer loop
   vertex 10.818599 -255.670853 444.170166
   vertex 10.818363 -254.672195 444.221954
   vertex 11.987200 -255.621399 443.221710
  endloop
 facet normal -0.776037 -0.032845 0.629832
  outer loop
   vertex 11.348698 -255.704498 444.821564
   vertex 10.818363 -254.672195 444.221954
   vertex 10.818599 -255.670853 444.170166
  endloop
 facet normal -0.776022 -0.032827 0.629851
  outer loop
   vertex 11.348462 -254.705841 444.873322
   vertex 10.818363 -254.672195 444.221954
   vertex 11.348698 -255.704498 444.821564
  endloop
 facet normal 0.630695 -0.040017 0.774998
  outer loop
   vertex 11.348698 -255.704498 444.821564
   vertex 12.517062 -254.656387 443.924866
   vertex 11.348462 -254.705841 444.873322
  endloop
 facet normal 0.630569 -0.040037 0.775100
  outer loop
   vertex 12.412407 -255.120621 443.961914
   vertex 12.492148 -255.117233 443.897217
   vertex 12.489964 -245.880112 444.376129
  endloop
 facet normal 0.776014 0.032840 -0.629860
  outer loop
   vertex 12.489964 -245.880112 444.376129
   vertex 12.492148 -255.117233 443.897217
   vertex 12.408002 -255.111893 443.793823
  endloop
 facet normal 0.776014 0.032840 -0.629860
  outer loop
   vertex 12.408002 -255.111893 443.793823
   vertex 12.405818 -245.874771 444.272736
   vertex 12.489964 -245.880112 444.376129
  endloop
 facet normal -0.309637 0.049159 -0.949583
  outer loop
   vertex 12.376000 -255.112442 443.804230
   vertex 12.405818 -245.874771 444.272736
   vertex 12.408002 -255.111893 443.793823
  endloop
 facet normal -0.310455 0.049148 -0.949317
  outer loop
   vertex 12.373816 -245.875320 444.283173
   vertex 12.405818 -245.874771 444.272736
   vertex 12.376000 -255.112442 443.804230
  endloop
 facet normal 0.776028 0.032841 -0.629843
  outer loop
   vertex 12.376000 -255.112442 443.804230
   vertex 12.013253 -255.089417 443.358490
   vertex 12.373816 -245.875320 444.283173
  endloop
 facet normal 0.776027 0.032841 -0.629844
  outer loop
   vertex 12.373816 -245.875320 444.283173
   vertex 12.013253 -255.089417 443.358490
   vertex 12.011068 -245.852295 443.837433
  endloop
 facet normal 0.867048 -0.025594 0.497567
  outer loop
   vertex 12.011068 -245.852295 443.837433
   vertex 12.013253 -255.089417 443.358490
   vertex 12.030023 -255.087906 443.329346
  endloop
 facet normal 0.867054 -0.025593 0.497557
  outer loop
   vertex 12.030023 -255.087906 443.329346
   vertex 12.027838 -245.850769 443.808289
   vertex 12.011068 -245.852295 443.837433
  endloop
 facet normal 0.776005 0.032842 -0.629872
  outer loop
   vertex 11.988271 -255.085251 443.278046
   vertex 12.027838 -245.850769 443.808289
   vertex 12.030023 -255.087906 443.329346
  endloop
 facet normal 0.776183 0.032829 -0.629653
  outer loop
   vertex 11.986086 -245.848129 443.756958
   vertex 12.027838 -245.850769 443.808289
   vertex 11.988271 -255.085251 443.278046
  endloop
 facet normal -0.630688 0.040032 -0.775003
  outer loop
   vertex 11.988271 -255.085251 443.278046
   vertex 10.846119 -255.133591 444.205017
   vertex 11.986086 -245.848129 443.756958
  endloop
 facet normal -0.630700 0.040034 -0.774993
  outer loop
   vertex 11.986086 -245.848129 443.756958
   vertex 10.846119 -255.133591 444.205017
   vertex 10.843934 -245.896454 444.683960
  endloop
 facet normal -0.775998 -0.032843 0.629880
  outer loop
   vertex 10.843934 -245.896454 444.683960
   vertex 10.846119 -255.133591 444.205017
   vertex 10.885687 -245.899109 444.735260
  endloop
 facet normal -0.776022 -0.032827 0.629851
  outer loop
   vertex 10.816397 -246.357147 444.653076
   vertex 11.346496 -246.390793 445.304443
   vertex 10.816160 -245.358490 444.704834
  endloop
 facet normal 0.776022 0.032827 -0.629851
  outer loop
   vertex 12.515097 -246.341339 444.355988
   vertex 11.984997 -246.307693 443.704620
   vertex 11.984761 -245.309036 443.756378
  endloop
 facet normal -0.776188 -0.032828 0.629647
  outer loop
   vertex 10.846119 -255.133591 444.205017
   vertex 10.887871 -255.136246 444.256348
   vertex 10.885687 -245.899109 444.735260
  endloop
 facet normal 0.297198 -0.910068 -0.288878
  outer loop
   vertex 10.179133 -256.079651 442.165527
   vertex 9.548440 -256.039612 441.390533
   vertex 10.727801 -255.763916 441.735321
  endloop
 facet normal 0.297193 -0.910076 -0.288857
  outer loop
   vertex 10.727801 -255.763916 441.735321
   vertex 9.548440 -256.039612 441.390533
   vertex 10.097108 -255.723892 440.960327
  endloop
 facet normal 0.717051 -0.351828 -0.601709
  outer loop
   vertex 10.097108 -255.723892 440.960327
   vertex 10.954929 -255.048141 441.587463
   vertex 10.727801 -255.763916 441.735321
  endloop
 facet normal 0.717051 -0.351828 -0.601710
  outer loop
   vertex 10.324235 -255.008118 440.812469
   vertex 10.954929 -255.048141 441.587463
   vertex 10.097108 -255.723892 440.960327
  endloop
 facet normal 0.716861 0.412521 -0.562082
  outer loop
   vertex 10.727468 -254.351608 441.808563
   vertex 10.954929 -255.048141 441.587463
   vertex 10.324235 -255.008118 440.812469
  endloop
 facet normal 0.716885 0.412492 -0.562072
  outer loop
   vertex 10.324235 -255.008118 440.812469
   vertex 10.096773 -254.311569 441.033539
   vertex 10.727468 -254.351608 441.808563
  endloop
 facet normal 0.296773 0.935202 -0.193192
  outer loop
   vertex 10.727468 -254.351608 441.808563
   vertex 10.096773 -254.311569 441.033539
   vertex 10.178661 -254.082321 442.269073
  endloop
 facet normal 0.296741 0.935212 -0.193192
  outer loop
   vertex 10.178661 -254.082321 442.269073
   vertex 10.096773 -254.311569 441.033539
   vertex 9.547967 -254.042297 441.494080
  endloop
 facet normal -0.297193 0.910076 0.288857
  outer loop
   vertex 9.547967 -254.042297 441.494080
   vertex 9.629993 -254.398041 442.699280
   vertex 10.178661 -254.082321 442.269073
  endloop
 facet normal -0.297193 0.910076 0.288857
  outer loop
   vertex 8.999299 -254.358017 441.924286
   vertex 9.629993 -254.398041 442.699280
   vertex 9.547967 -254.042297 441.494080
  endloop
 facet normal -0.717053 0.351821 0.601711
  outer loop
   vertex 9.402866 -255.113831 442.847137
   vertex 9.629993 -254.398041 442.699280
   vertex 8.999299 -254.358017 441.924286
  endloop
 facet normal -0.717048 0.351827 0.601714
  outer loop
   vertex 8.999299 -254.358017 441.924286
   vertex 8.772172 -255.073792 442.072144
   vertex 9.402866 -255.113831 442.847137
  endloop
 facet normal -0.716866 -0.412520 0.562077
  outer loop
   vertex 9.402866 -255.113831 442.847137
   vertex 8.772172 -255.073792 442.072144
   vertex 9.630327 -255.810364 442.626038
  endloop
 facet normal -0.716866 -0.412520 0.562077
  outer loop
   vertex 9.630327 -255.810364 442.626038
   vertex 8.772172 -255.073792 442.072144
   vertex 8.999633 -255.770325 441.851044
  endloop
 facet normal -0.296769 -0.935202 0.193197
  outer loop
   vertex 8.999633 -255.770325 441.851044
   vertex 10.179133 -256.079651 442.165527
   vertex 9.630327 -255.810364 442.626038
  endloop
 facet normal -0.296769 -0.935202 0.193196
  outer loop
   vertex 9.548440 -256.039612 441.390533
   vertex 10.179133 -256.079651 442.165527
   vertex 8.999633 -255.770325 441.851044
  endloop
 facet normal -0.297206 0.910063 0.288885
  outer loop
   vertex 10.663827 -245.612427 443.589142
   vertex 11.431687 -245.573532 444.256592
   vertex 10.800994 -245.533493 443.481598
  endloop
 facet normal 0.296704 0.935234 -0.193142
  outer loop
   vertex 10.800994 -245.533493 443.481598
   vertex 11.431687 -245.573532 444.256592
   vertex 11.568890 -245.640839 444.141449
  endloop
 facet normal 0.296750 0.935208 -0.193199
  outer loop
   vertex 11.568890 -245.640839 444.141449
   vertex 10.938195 -245.600815 443.366455
   vertex 10.800994 -245.533493 443.481598
  endloop
 facet normal 0.716879 0.412469 -0.562098
  outer loop
   vertex 11.625754 -245.814987 444.086182
   vertex 10.938195 -245.600815 443.366455
   vertex 11.568890 -245.640839 444.141449
  endloop
 facet normal 0.716872 0.412501 -0.562082
  outer loop
   vertex 10.995061 -245.774948 443.311188
   vertex 10.938195 -245.600815 443.366455
   vertex 11.625754 -245.814987 444.086182
  endloop
 facet normal 0.717053 -0.351811 -0.601717
  outer loop
   vertex 11.625754 -245.814987 444.086182
   vertex 11.568973 -245.993927 444.123138
   vertex 10.995061 -245.774948 443.311188
  endloop
 facet normal 0.717053 -0.351811 -0.601717
  outer loop
   vertex 10.995061 -245.774948 443.311188
   vertex 11.568973 -245.993927 444.123138
   vertex 10.938279 -245.953888 443.348145
  endloop
 facet normal 0.297173 -0.910082 -0.288859
  outer loop
   vertex 10.938279 -245.953888 443.348145
   vertex 11.568973 -245.993927 444.123138
   vertex 11.431806 -246.072861 444.230713
  endloop
 facet normal 0.297211 -0.910063 -0.288878
  outer loop
   vertex 11.431806 -246.072861 444.230713
   vertex 10.801112 -246.032822 443.455688
   vertex 10.938279 -245.953888 443.348145
  endloop
 facet normal -0.296785 -0.935196 0.193201
  outer loop
   vertex 11.294604 -246.005539 444.345825
   vertex 10.801112 -246.032822 443.455688
   vertex 11.431806 -246.072861 444.230713
  endloop
 facet normal -0.296758 -0.935208 0.193187
  outer loop
   vertex 10.663910 -245.965500 443.570831
   vertex 10.801112 -246.032822 443.455688
   vertex 11.294604 -246.005539 444.345825
  endloop
 facet normal -0.716872 -0.412501 0.562083
  outer loop
   vertex 11.294604 -246.005539 444.345825
   vertex 11.237739 -245.831406 444.401093
   vertex 10.663910 -245.965500 443.570831
  endloop
 facet normal -0.716873 -0.412498 0.562083
  outer loop
   vertex 10.663910 -245.965500 443.570831
   vertex 11.237739 -245.831406 444.401093
   vertex 10.607045 -245.791367 443.626099
  endloop
 facet normal -0.717062 0.351785 0.601722
  outer loop
   vertex 10.607045 -245.791367 443.626099
   vertex 11.237739 -245.831406 444.401093
   vertex 11.294520 -245.652451 444.364136
  endloop
 facet normal -0.717057 0.351812 0.601713
  outer loop
   vertex 11.294520 -245.652451 444.364136
   vertex 10.663827 -245.612427 443.589142
   vertex 10.607045 -245.791367 443.626099
  endloop
 facet normal -0.297163 0.910093 0.288833
  outer loop
   vertex 11.431687 -245.573532 444.256592
   vertex 10.663827 -245.612427 443.589142
   vertex 11.294520 -245.652451 444.364136
  endloop
 facet normal -0.297184 0.910075 0.288868
  outer loop
   vertex 8.997090 -245.020554 442.408417
   vertex 10.176454 -244.744873 442.753204
   vertex 9.545759 -244.704834 441.978210
  endloop
 facet normal 0.296750 0.935211 -0.193181
  outer loop
   vertex 9.545759 -244.704834 441.978210
   vertex 10.176454 -244.744873 442.753204
   vertex 10.725260 -245.014145 442.292664
  endloop
 facet normal 0.296755 0.935205 -0.193203
  outer loop
   vertex 10.725260 -245.014145 442.292664
   vertex 10.094565 -244.974121 441.517670
   vertex 9.545759 -244.704834 441.978210
  endloop
 facet normal 0.716871 0.412493 -0.562091
  outer loop
   vertex 10.952721 -245.710693 442.071594
   vertex 10.094565 -244.974121 441.517670
   vertex 10.725260 -245.014145 442.292664
  endloop
 facet normal 0.716873 0.412501 -0.562083
  outer loop
   vertex 10.322027 -245.670654 441.296600
   vertex 10.094565 -244.974121 441.517670
   vertex 10.952721 -245.710693 442.071594
  endloop
 facet normal 0.717048 -0.351827 -0.601714
  outer loop
   vertex 10.952721 -245.710693 442.071594
   vertex 10.725594 -246.426468 442.219452
   vertex 10.322027 -245.670654 441.296600
  endloop
 facet normal 0.717048 -0.351828 -0.601714
  outer loop
   vertex 10.322027 -245.670654 441.296600
   vertex 10.725594 -246.426468 442.219452
   vertex 10.094899 -246.386429 441.444458
  endloop
 facet normal 0.297184 -0.910075 -0.288868
  outer loop
   vertex 10.094899 -246.386429 441.444458
   vertex 10.725594 -246.426468 442.219452
   vertex 10.176926 -246.742188 442.649658
  endloop
 facet normal 0.297184 -0.910075 -0.288868
  outer loop
   vertex 10.176926 -246.742188 442.649658
   vertex 9.546231 -246.702148 441.874664
   vertex 10.094899 -246.386429 441.444458
  endloop
 facet normal -0.296769 -0.935202 0.193197
  outer loop
   vertex 9.628119 -246.472900 443.110168
   vertex 9.546231 -246.702148 441.874664
   vertex 10.176926 -246.742188 442.649658
  endloop
 facet normal -0.296747 -0.935209 0.193196
  outer loop
   vertex 8.997425 -246.432877 442.335175
   vertex 9.546231 -246.702148 441.874664
   vertex 9.628119 -246.472900 443.110168
  endloop
 facet normal -0.716861 -0.412521 0.562082
  outer loop
   vertex 9.628119 -246.472900 443.110168
   vertex 9.400658 -245.776367 443.331268
   vertex 8.997425 -246.432877 442.335175
  endloop
 facet normal -0.716869 -0.412513 0.562079
  outer loop
   vertex 8.997425 -246.432877 442.335175
   vertex 9.400658 -245.776367 443.331268
   vertex 8.769964 -245.736328 442.556274
  endloop
 facet normal -0.717048 0.351827 0.601714
  outer loop
   vertex 8.769964 -245.736328 442.556274
   vertex 9.400658 -245.776367 443.331268
   vertex 9.627785 -245.060593 443.183411
  endloop
 facet normal -0.717048 0.351826 0.601714
  outer loop
   vertex 9.627785 -245.060593 443.183411
   vertex 8.997090 -245.020554 442.408417
   vertex 8.769964 -245.736328 442.556274
  endloop
 facet normal -0.297184 0.910075 0.288868
  outer loop
   vertex 10.176454 -244.744873 442.753204
   vertex 8.997090 -245.020554 442.408417
   vertex 9.627785 -245.060593 443.183411
  endloop
 facet normal 0.114927 0.725253 0.678822
  outer loop
   vertex 9.627785 -245.060593 443.183411
   vertex 10.807324 -245.533890 443.489380
   vertex 10.176454 -244.744873 442.753204
  endloop
 facet normal 0.603142 0.745903 0.282575
  outer loop
   vertex 10.176454 -244.744873 442.753204
   vertex 10.807324 -245.533890 443.489380
   vertex 10.944526 -245.601212 443.374237
  endloop
 facet normal 0.603127 0.745906 0.282599
  outer loop
   vertex 10.944526 -245.601212 443.374237
   vertex 10.725260 -245.014145 442.292664
   vertex 10.176454 -244.744873 442.753204
  endloop
 facet normal 0.948446 0.316269 -0.020609
  outer loop
   vertex 11.001391 -245.775345 443.318970
   vertex 10.725260 -245.014145 442.292664
   vertex 10.944526 -245.601212 443.374237
  endloop
 facet normal 0.948448 0.316262 -0.020615
  outer loop
   vertex 10.952721 -245.710693 442.071594
   vertex 10.725260 -245.014145 442.292664
   vertex 11.001391 -245.775345 443.318970
  endloop
 facet normal 0.948602 -0.311971 -0.053183
  outer loop
   vertex 11.001391 -245.775345 443.318970
   vertex 10.944610 -245.954300 443.355927
   vertex 10.952721 -245.710693 442.071594
  endloop
 facet normal 0.948595 -0.311992 -0.053187
  outer loop
   vertex 10.952721 -245.710693 442.071594
   vertex 10.944610 -245.954300 443.355927
   vertex 10.725594 -246.426468 442.219452
  endloop
 facet normal 0.603446 -0.770873 0.203979
  outer loop
   vertex 10.725594 -246.426468 442.219452
   vertex 10.944610 -245.954300 443.355927
   vertex 10.807443 -246.033218 443.463470
  endloop
 facet normal 0.603492 -0.770840 0.203966
  outer loop
   vertex 10.807443 -246.033218 443.463470
   vertex 10.176926 -246.742188 442.649658
   vertex 10.725594 -246.426468 442.219452
  endloop
 facet normal 0.115319 -0.791503 0.600188
  outer loop
   vertex 10.670241 -245.965897 443.578613
   vertex 10.176926 -246.742188 442.649658
   vertex 10.807443 -246.033218 443.463470
  endloop
 facet normal 0.115272 -0.791495 0.600207
  outer loop
   vertex 9.628119 -246.472900 443.110168
   vertex 10.176926 -246.742188 442.649658
   vertex 10.670241 -245.965897 443.578613
  endloop
 facet normal -0.230045 -0.361852 0.903406
  outer loop
   vertex 10.670241 -245.965897 443.578613
   vertex 10.613376 -245.791763 443.633881
   vertex 9.628119 -246.472900 443.110168
  endloop
 facet normal -0.230022 -0.361882 0.903400
  outer loop
   vertex 9.628119 -246.472900 443.110168
   vertex 10.613376 -245.791763 443.633881
   vertex 9.400658 -245.776367 443.331268
  endloop
 facet normal -0.230178 0.266352 0.935989
  outer loop
   vertex 9.400658 -245.776367 443.331268
   vertex 10.613376 -245.791763 443.633881
   vertex 10.670157 -245.612823 443.596924
  endloop
 facet normal -0.230180 0.266385 0.935979
  outer loop
   vertex 10.670157 -245.612823 443.596924
   vertex 9.627785 -245.060593 443.183411
   vertex 9.400658 -245.776367 443.331268
  endloop
 facet normal 0.114909 0.725227 0.678853
  outer loop
   vertex 10.807324 -245.533890 443.489380
   vertex 9.627785 -245.060593 443.183411
   vertex 10.670157 -245.612823 443.596924
  endloop
 facet normal 0.297181 -0.910082 -0.288848
  outer loop
   vertex 11.434014 -255.410309 443.746582
   vertex 10.803320 -255.370285 442.971588
   vertex 11.571181 -255.331375 443.639008
  endloop
 facet normal 0.297181 -0.910082 -0.288848
  outer loop
   vertex 11.571181 -255.331375 443.639008
   vertex 10.803320 -255.370285 442.971588
   vertex 10.940487 -255.291351 442.864014
  endloop
 facet normal 0.717056 -0.351812 -0.601713
  outer loop
   vertex 10.940487 -255.291351 442.864014
   vertex 11.627963 -255.152435 443.602051
   vertex 11.571181 -255.331375 443.639008
  endloop
 facet normal 0.717056 -0.351812 -0.601713
  outer loop
   vertex 10.997269 -255.112411 442.827057
   vertex 11.627963 -255.152435 443.602051
   vertex 10.940487 -255.291351 442.864014
  endloop
 facet normal 0.716868 0.412502 -0.562088
  outer loop
   vertex 11.571097 -254.978302 443.657318
   vertex 11.627963 -255.152435 443.602051
   vertex 10.997269 -255.112411 442.827057
  endloop
 facet normal 0.716882 0.412472 -0.562092
  outer loop
   vertex 10.997269 -255.112411 442.827057
   vertex 10.940403 -254.938263 442.882324
   vertex 11.571097 -254.978302 443.657318
  endloop
 facet normal 0.296759 0.935207 -0.193188
  outer loop
   vertex 11.571097 -254.978302 443.657318
   vertex 10.940403 -254.938263 442.882324
   vertex 11.433896 -254.910980 443.772461
  endloop
 facet normal 0.296696 0.935234 -0.193154
  outer loop
   vertex 11.433896 -254.910980 443.772461
   vertex 10.940403 -254.938263 442.882324
   vertex 10.803202 -254.870956 442.997467
  endloop
 facet normal -0.297214 0.910063 0.288874
  outer loop
   vertex 10.803202 -254.870956 442.997467
   vertex 11.296729 -254.989914 443.880005
   vertex 11.433896 -254.910980 443.772461
  endloop
 facet normal -0.297154 0.910093 0.288844
  outer loop
   vertex 10.666035 -254.949875 443.105011
   vertex 11.296729 -254.989914 443.880005
   vertex 10.803202 -254.870956 442.997467
  endloop
 facet normal -0.717053 0.351811 0.601718
  outer loop
   vertex 11.239947 -255.168854 443.916962
   vertex 11.296729 -254.989914 443.880005
   vertex 10.666035 -254.949875 443.105011
  endloop
 facet normal -0.717065 0.351785 0.601719
  outer loop
   vertex 10.666035 -254.949875 443.105011
   vertex 10.609253 -255.128830 443.141968
   vertex 11.239947 -255.168854 443.916962
  endloop
 facet normal -0.716869 -0.412498 0.562089
  outer loop
   vertex 11.239947 -255.168854 443.916962
   vertex 10.609253 -255.128830 443.141968
   vertex 11.296812 -255.342987 443.861694
  endloop
 facet normal -0.716869 -0.412498 0.562089
  outer loop
   vertex 11.296812 -255.342987 443.861694
   vertex 10.609253 -255.128830 443.141968
   vertex 10.666118 -255.302963 443.086700
  endloop
 facet normal -0.296771 -0.935198 0.193216
  outer loop
   vertex 10.666118 -255.302963 443.086700
   vertex 11.434014 -255.410309 443.746582
   vertex 11.296812 -255.342987 443.861694
  endloop
 facet normal -0.296771 -0.935198 0.193216
  outer loop
   vertex 10.803320 -255.370285 442.971588
   vertex 11.434014 -255.410309 443.746582
   vertex 10.666118 -255.302963 443.086700
  endloop
 facet normal 0.115298 -0.791518 0.600172
  outer loop
   vertex 10.672449 -255.303360 443.094482
   vertex 9.630327 -255.810364 442.626038
   vertex 10.809650 -255.370682 442.979340
  endloop
 facet normal 0.115277 -0.791491 0.600211
  outer loop
   vertex 10.809650 -255.370682 442.979340
   vertex 9.630327 -255.810364 442.626038
   vertex 10.179133 -256.079651 442.165527
  endloop
 facet normal 0.603497 -0.770838 0.203960
  outer loop
   vertex 10.179133 -256.079651 442.165527
   vertex 10.946817 -255.291748 442.871796
   vertex 10.809650 -255.370682 442.979340
  endloop
 facet normal 0.603502 -0.770836 0.203953
  outer loop
   vertex 10.727801 -255.763916 441.735321
   vertex 10.946817 -255.291748 442.871796
   vertex 10.179133 -256.079651 442.165527
  endloop
 facet normal 0.948594 -0.311995 -0.053185
  outer loop
   vertex 11.003599 -255.112808 442.834839
   vertex 10.946817 -255.291748 442.871796
   vertex 10.727801 -255.763916 441.735321
  endloop
 facet normal 0.948595 -0.311993 -0.053186
  outer loop
   vertex 10.727801 -255.763916 441.735321
   vertex 10.954929 -255.048141 441.587463
   vertex 11.003599 -255.112808 442.834839
  endloop
 facet normal 0.948447 0.316265 -0.020610
  outer loop
   vertex 11.003599 -255.112808 442.834839
   vertex 10.954929 -255.048141 441.587463
   vertex 10.946734 -254.938675 442.890106
  endloop
 facet normal 0.948445 0.316269 -0.020611
  outer loop
   vertex 10.946734 -254.938675 442.890106
   vertex 10.954929 -255.048141 441.587463
   vertex 10.727468 -254.351608 441.808563
  endloop
 facet normal 0.603148 0.745891 0.282594
  outer loop
   vertex 10.727468 -254.351608 441.808563
   vertex 10.809532 -254.871353 443.005249
   vertex 10.946734 -254.938675 442.890106
  endloop
 facet normal 0.603131 0.745902 0.282600
  outer loop
   vertex 10.178661 -254.082321 442.269073
   vertex 10.809532 -254.871353 443.005249
   vertex 10.727468 -254.351608 441.808563
  endloop
 facet normal 0.114897 0.725236 0.678845
  outer loop
   vertex 10.672365 -254.950287 443.112793
   vertex 10.809532 -254.871353 443.005249
   vertex 10.178661 -254.082321 442.269073
  endloop
 facet normal 0.114938 0.725244 0.678830
  outer loop
   vertex 10.178661 -254.082321 442.269073
   vertex 9.629993 -254.398041 442.699280
   vertex 10.672365 -254.950287 443.112793
  endloop
 facet normal -0.230194 0.266356 0.935984
  outer loop
   vertex 10.672365 -254.950287 443.112793
   vertex 9.629993 -254.398041 442.699280
   vertex 10.615583 -255.129227 443.149750
  endloop
 facet normal -0.230176 0.266379 0.935981
  outer loop
   vertex 10.615583 -255.129227 443.149750
   vertex 9.629993 -254.398041 442.699280
   vertex 9.402866 -255.113831 442.847137
  endloop
 facet normal -0.230025 -0.361848 0.903413
  outer loop
   vertex 9.402866 -255.113831 442.847137
   vertex 10.672449 -255.303360 443.094482
   vertex 10.615583 -255.129227 443.149750
  endloop
 facet normal -0.230027 -0.361883 0.903398
  outer loop
   vertex 9.630327 -255.810364 442.626038
   vertex 10.672449 -255.303360 443.094482
   vertex 9.402866 -255.113831 442.847137
  endloop
endsolid