solid stl file generated from DOUG
 facet normal -0.999848 -0.000000 -0.017450
  outer loop
   vertex 66.858810 -32.636185 403.342743
   vertex 66.696625 144.681152 412.634155
   vertex 66.888435 -32.547215 401.645325
  endloop
 facet normal -0.999848 0.000000 -0.017455
  outer loop
   vertex 66.888435 -32.547215 401.645325
   vertex 66.696625 144.681152 412.634155
   vertex 66.726257 144.770126 410.936737
  endloop
 facet normal 0.017432 0.052336 -0.998477
  outer loop
   vertex 66.726257 144.770126 410.936737
   vertex 67.888283 -32.547215 401.662781
   vertex 66.888435 -32.547215 401.645325
  endloop
 facet normal 0.017432 0.052336 -0.998477
  outer loop
   vertex 67.726105 144.770126 410.954193
   vertex 67.888283 -32.547215 401.662781
   vertex 66.726257 144.770126 410.936737
  endloop
 facet normal 0.999848 -0.000000 0.017455
  outer loop
   vertex 67.696472 144.681152 412.651611
   vertex 67.888283 -32.547215 401.662781
   vertex 67.726105 144.770126 410.954193
  endloop
 facet normal -0.000914 0.998629 0.052329
  outer loop
   vertex 67.726105 144.770126 410.954193
   vertex 66.696625 144.681152 412.634155
   vertex 67.696472 144.681152 412.651611
  endloop
 facet normal -0.017432 -0.052336 0.998477
  outer loop
   vertex 67.696472 144.681152 412.651611
   vertex 66.696625 144.681152 412.634155
   vertex 67.858658 -32.636185 403.360199
  endloop
 facet normal -0.017432 -0.052336 0.998477
  outer loop
   vertex 67.858658 -32.636185 403.360199
   vertex 66.696625 144.681152 412.634155
   vertex 66.858810 -32.636185 403.342743
  endloop
 facet normal 0.000914 -0.998630 -0.052327
  outer loop
   vertex 66.858810 -32.636185 403.342743
   vertex 67.888283 -32.547215 401.662781
   vertex 67.858658 -32.636185 403.360199
  endloop
 facet normal 0.000914 -0.998630 -0.052327
  outer loop
   vertex 66.888435 -32.547215 401.645325
   vertex 67.888283 -32.547215 401.662781
   vertex 66.858810 -32.636185 403.342743
  endloop
 facet normal 0.999848 0.000000 0.017450
  outer loop
   vertex 67.696472 144.681152 412.651611
   vertex 67.858658 -32.636185 403.360199
   vertex 67.888283 -32.547215 401.662781
  endloop
 facet normal -0.000914 0.998629 0.052329
  outer loop
   vertex 67.726105 144.770126 410.954193
   vertex 66.726257 144.770126 410.936737
   vertex 66.696625 144.681152 412.634155
  endloop
 facet normal 0.912258 -0.020605 0.409098
  outer loop
   vertex 65.591858 -12.769822 406.892487
   vertex 67.386223 -10.307034 403.015228
   vertex 65.589798 -10.518028 407.010498
  endloop
 facet normal -0.000913 0.998630 0.052328
  outer loop
   vertex 65.589798 -10.518028 407.010498
   vertex 67.386223 -10.307034 403.015228
   vertex 66.628479 -10.307034 403.002014
  endloop
 facet normal 0.912257 -0.020600 0.409100
  outer loop
   vertex 65.546570 36.751724 409.487427
   vertex 67.340935 39.214512 405.610168
   vertex 65.544510 39.003517 409.605408
  endloop
 facet normal -0.000913 0.998629 0.052329
  outer loop
   vertex 65.544510 39.003517 409.605408
   vertex 67.340935 39.214512 405.610168
   vertex 66.583183 39.214512 405.596954
  endloop
 facet normal 0.999848 -0.000001 0.017457
  outer loop
   vertex 66.861588 -31.039173 403.141052
   vertex 66.863312 -32.925625 403.042206
   vertex 66.884491 -32.423321 401.829224
  endloop
 facet normal 0.006673 -0.923935 -0.382491
  outer loop
   vertex 66.884491 -32.423321 401.829224
   vertex 66.863312 -32.925625 403.042206
   vertex 65.777176 -32.423321 401.809906
  endloop
 facet normal -0.000913 0.998630 0.052328
  outer loop
   vertex 66.512924 116.028587 409.622009
   vertex 65.474251 115.817596 413.630463
   vertex 67.270676 116.028587 409.635223
  endloop
 facet normal 0.912257 -0.020600 0.409100
  outer loop
   vertex 67.270676 116.028587 409.635223
   vertex 65.474251 115.817596 413.630463
   vertex 65.476311 113.565804 413.512482
  endloop
 facet normal -0.000915 0.998630 0.052328
  outer loop
   vertex 66.605171 15.170117 404.337006
   vertex 65.566498 14.959124 408.345490
   vertex 67.362923 15.170117 404.350250
  endloop
 facet normal 0.912257 -0.020600 0.409100
  outer loop
   vertex 67.362923 15.170117 404.350250
   vertex 65.566498 14.959124 408.345490
   vertex 65.568558 12.707327 408.227509
  endloop
 facet normal 0.017446 0.052338 -0.998477
  outer loop
   vertex 66.169586 143.864548 411.057037
   vertex 65.615273 144.589020 411.085327
   vertex 66.722588 144.589020 411.104675
  endloop
 facet normal 0.004959 0.958860 -0.283836
  outer loop
   vertex 66.722588 144.589020 411.104675
   vertex 65.615273 144.589020 411.085327
   vertex 66.700607 144.961761 412.363495
  endloop
 facet normal 0.017452 0.052330 -0.998477
  outer loop
   vertex 66.537880 88.744690 408.192322
   vertex 66.535820 90.996483 408.310303
   vertex 67.293571 90.996483 408.323547
  endloop
 facet normal -0.000915 0.998629 0.052329
  outer loop
   vertex 67.293571 90.996483 408.323547
   vertex 66.535820 90.996483 408.310303
   vertex 65.497147 90.785484 412.318787
  endloop
 facet normal 0.912257 -0.020600 0.409100
  outer loop
   vertex 65.497147 90.785484 412.318787
   vertex 65.499207 88.533691 412.200806
   vertex 67.293571 90.996483 408.323547
  endloop
 facet normal -0.856685 0.026211 -0.515173
  outer loop
   vertex 65.777176 -32.423321 401.809906
   vertex 63.694073 -32.144203 405.288116
   vertex 64.251221 -31.108280 404.414337
  endloop
 facet normal -0.013279 0.648856 0.760795
  outer loop
   vertex 64.251221 -31.108280 404.414337
   vertex 63.694073 -32.144203 405.288116
   vertex 65.856857 -32.144203 405.325867
  endloop
 facet normal -0.013274 0.648861 0.760791
  outer loop
   vertex 65.856857 -32.144203 405.325867
   vertex 66.273209 -31.108280 404.449615
   vertex 64.251221 -31.108280 404.414337
  endloop
 facet normal -0.000914 0.998629 0.052329
  outer loop
   vertex 65.374535 146.157486 419.343140
   vertex 65.418465 146.289413 416.826233
   vertex 61.806656 146.157486 419.280853
  endloop
 facet normal -0.000915 0.998630 0.052326
  outer loop
   vertex 61.806656 146.157486 419.280853
   vertex 65.418465 146.289413 416.826233
   vertex 61.838608 146.253433 417.450287
  endloop
 facet normal -0.999848 -0.000001 -0.017452
  outer loop
   vertex 61.838608 146.253433 417.450287
   vertex 61.840858 143.795502 417.321503
   vertex 61.806656 146.157486 419.280853
  endloop
 facet normal -0.856685 0.026208 -0.515174
  outer loop
   vertex 62.248260 146.289413 416.770905
   vertex 61.840858 143.795502 417.321503
   vertex 61.838608 146.253433 417.450287
  endloop
 facet normal -0.856687 0.026210 -0.515170
  outer loop
   vertex 63.533016 143.944107 414.515137
   vertex 61.840858 143.795502 417.321503
   vertex 62.248260 146.289413 416.770905
  endloop
 facet normal 0.006675 -0.923934 -0.382493
  outer loop
   vertex 65.777176 -32.423321 401.809906
   vertex 66.863312 -32.925625 403.042206
   vertex 62.413815 -34.714756 407.286316
  endloop
 facet normal 0.006675 -0.923935 -0.382492
  outer loop
   vertex 62.413815 -34.714756 407.286316
   vertex 66.863312 -32.925625 403.042206
   vertex 65.611343 -34.066639 405.776550
  endloop
 facet normal 0.006675 -0.923935 -0.382492
  outer loop
   vertex 65.611343 -34.066639 405.776550
   vertex 65.584023 -34.714756 407.341644
   vertex 62.413815 -34.714756 407.286316
  endloop
 facet normal 0.999848 -0.000001 0.017453
  outer loop
   vertex 65.537842 -32.388752 409.987305
   vertex 65.584023 -34.714756 407.341644
   vertex 65.611343 -34.066639 405.776550
  endloop
 facet normal 0.999848 -0.000002 0.017454
  outer loop
   vertex 65.540085 -34.846680 409.858521
   vertex 65.584023 -34.714756 407.341644
   vertex 65.537842 -32.388752 409.987305
  endloop
 facet normal 0.999848 0.000000 0.017451
  outer loop
   vertex 65.522835 -12.977108 410.847137
   vertex 65.591858 -12.769822 406.892487
   vertex 65.520775 -10.725314 410.965118
  endloop
 facet normal 0.999848 0.000000 0.017451
  outer loop
   vertex 65.520775 -10.725314 410.965118
   vertex 65.591858 -12.769822 406.892487
   vertex 65.589798 -10.518028 407.010498
  endloop
 facet normal -0.000913 0.998630 0.052328
  outer loop
   vertex 65.589798 -10.518028 407.010498
   vertex 63.434124 -10.725314 410.928711
   vertex 65.520775 -10.725314 410.965118
  endloop
 facet normal -0.000914 0.998630 0.052328
  outer loop
   vertex 66.628479 -10.307034 403.002014
   vertex 63.434124 -10.725314 410.928711
   vertex 65.589798 -10.518028 407.010498
  endloop
 facet normal -0.927698 0.018692 -0.372864
  outer loop
   vertex 63.436184 -12.977108 410.810699
   vertex 63.434124 -10.725314 410.928711
   vertex 66.628479 -10.307034 403.002014
  endloop
 facet normal -0.927697 0.018687 -0.372865
  outer loop
   vertex 66.628479 -10.307034 403.002014
   vertex 66.630539 -12.558828 402.884033
   vertex 63.436184 -12.977108 410.810699
  endloop
 facet normal 0.000913 -0.998630 -0.052329
  outer loop
   vertex 63.436184 -12.977108 410.810699
   vertex 66.630539 -12.558828 402.884033
   vertex 65.591858 -12.769822 406.892487
  endloop
 facet normal 0.000913 -0.998630 -0.052329
  outer loop
   vertex 65.591858 -12.769822 406.892487
   vertex 66.630539 -12.558828 402.884033
   vertex 67.388283 -12.558828 402.897247
  endloop
 facet normal 0.912257 -0.020600 0.409100
  outer loop
   vertex 67.388283 -12.558828 402.897247
   vertex 67.386223 -10.307034 403.015228
   vertex 65.591858 -12.769822 406.892487
  endloop
 facet normal 0.017412 0.052330 -0.998478
  outer loop
   vertex 66.630539 -12.558828 402.884033
   vertex 67.386223 -10.307034 403.015228
   vertex 67.388283 -12.558828 402.897247
  endloop
 facet normal 0.017412 0.052330 -0.998478
  outer loop
   vertex 66.628479 -10.307034 403.002014
   vertex 67.386223 -10.307034 403.015228
   vertex 66.630539 -12.558828 402.884033
  endloop
 facet normal 0.999848 -0.000000 0.017453
  outer loop
   vertex 65.499527 12.500041 412.182129
   vertex 65.568558 12.707327 408.227509
   vertex 65.497467 14.751838 412.300140
  endloop
 facet normal 0.999848 0.000000 0.017453
  outer loop
   vertex 65.497467 14.751838 412.300140
   vertex 65.568558 12.707327 408.227509
   vertex 65.566498 14.959124 408.345490
  endloop
 facet normal -0.000914 0.998630 0.052328
  outer loop
   vertex 65.566498 14.959124 408.345490
   vertex 63.410820 14.751838 412.263702
   vertex 65.497467 14.751838 412.300140
  endloop
 facet normal -0.000914 0.998630 0.052328
  outer loop
   vertex 66.605171 15.170117 404.337006
   vertex 63.410820 14.751838 412.263702
   vertex 65.566498 14.959124 408.345490
  endloop
 facet normal -0.927698 0.018687 -0.372864
  outer loop
   vertex 63.412880 12.500041 412.145721
   vertex 63.410820 14.751838 412.263702
   vertex 66.605171 15.170117 404.337006
  endloop
 facet normal -0.927698 0.018687 -0.372864
  outer loop
   vertex 66.605171 15.170117 404.337006
   vertex 66.607231 12.918321 404.219025
   vertex 63.412880 12.500041 412.145721
  endloop
 facet normal 0.000914 -0.998630 -0.052328
  outer loop
   vertex 63.412880 12.500041 412.145721
   vertex 66.607231 12.918321 404.219025
   vertex 65.568558 12.707327 408.227509
  endloop
 facet normal 0.000913 -0.998630 -0.052328
  outer loop
   vertex 65.568558 12.707327 408.227509
   vertex 66.607231 12.918321 404.219025
   vertex 67.364983 12.918321 404.232239
  endloop
 facet normal 0.912258 -0.020605 0.409098
  outer loop
   vertex 67.364983 12.918321 404.232239
   vertex 67.362923 15.170117 404.350250
   vertex 65.568558 12.707327 408.227509
  endloop
 facet normal 0.017412 0.052344 -0.998477
  outer loop
   vertex 66.607231 12.918321 404.219025
   vertex 67.362923 15.170117 404.350250
   vertex 67.364983 12.918321 404.232239
  endloop
 facet normal 0.017452 0.052330 -0.998477
  outer loop
   vertex 66.605171 15.170117 404.337006
   vertex 67.362923 15.170117 404.350250
   vertex 66.607231 12.918321 404.219025
  endloop
 facet normal 0.999848 -0.000000 0.017453
  outer loop
   vertex 65.477539 36.544437 413.442047
   vertex 65.546570 36.751724 409.487427
   vertex 65.475479 38.796230 413.560059
  endloop
 facet normal 0.999848 0.000000 0.017453
  outer loop
   vertex 65.475479 38.796230 413.560059
   vertex 65.546570 36.751724 409.487427
   vertex 65.544510 39.003517 409.605408
  endloop
 facet normal -0.000914 0.998630 0.052328
  outer loop
   vertex 65.544510 39.003517 409.605408
   vertex 63.388828 38.796230 413.523621
   vertex 65.475479 38.796230 413.560059
  endloop
 facet normal -0.000913 0.998629 0.052329
  outer loop
   vertex 66.583183 39.214512 405.596954
   vertex 63.388828 38.796230 413.523621
   vertex 65.544510 39.003517 409.605408
  endloop
 facet normal -0.927697 0.018687 -0.372865
  outer loop
   vertex 63.390888 36.544437 413.405640
   vertex 63.388828 38.796230 413.523621
   vertex 66.583183 39.214512 405.596954
  endloop
 facet normal -0.927698 0.018692 -0.372864
  outer loop
   vertex 66.583183 39.214512 405.596954
   vertex 66.585243 36.962719 405.478943
   vertex 63.390888 36.544437 413.405640
  endloop
 facet normal 0.000914 -0.998630 -0.052328
  outer loop
   vertex 63.390888 36.544437 413.405640
   vertex 66.585243 36.962719 405.478943
   vertex 65.546570 36.751724 409.487427
  endloop
 facet normal 0.000915 -0.998630 -0.052328
  outer loop
   vertex 65.546570 36.751724 409.487427
   vertex 66.585243 36.962719 405.478943
   vertex 67.342995 36.962719 405.492188
  endloop
 facet normal 0.912257 -0.020600 0.409100
  outer loop
   vertex 67.342995 36.962719 405.492188
   vertex 67.340935 39.214512 405.610168
   vertex 65.546570 36.751724 409.487427
  endloop
 facet normal 0.017452 0.052330 -0.998477
  outer loop
   vertex 66.585243 36.962719 405.478943
   vertex 67.340935 39.214512 405.610168
   vertex 67.342995 36.962719 405.492188
  endloop
 facet normal 0.017412 0.052344 -0.998477
  outer loop
   vertex 66.583183 39.214512 405.596954
   vertex 67.340935 39.214512 405.610168
   vertex 66.585243 36.962719 405.478943
  endloop
 facet normal 0.017412 0.052344 -0.998477
  outer loop
   vertex 66.537880 88.744690 408.192322
   vertex 67.293571 90.996483 408.323547
   vertex 67.295631 88.744690 408.205536
  endloop
 facet normal 0.912258 -0.020605 0.409098
  outer loop
   vertex 67.295631 88.744690 408.205536
   vertex 67.293571 90.996483 408.323547
   vertex 65.499207 88.533691 412.200806
  endloop
 facet normal 0.000913 -0.998629 -0.052329
  outer loop
   vertex 65.499207 88.533691 412.200806
   vertex 66.537880 88.744690 408.192322
   vertex 67.295631 88.744690 408.205536
  endloop
 facet normal 0.000907 -0.998629 -0.052331
  outer loop
   vertex 63.343525 88.326408 416.119019
   vertex 66.537880 88.744690 408.192322
   vertex 65.499207 88.533691 412.200806
  endloop
 facet normal -0.927698 0.018687 -0.372864
  outer loop
   vertex 66.535820 90.996483 408.310303
   vertex 66.537880 88.744690 408.192322
   vertex 63.343525 88.326408 416.119019
  endloop
 facet normal -0.927698 0.018687 -0.372864
  outer loop
   vertex 63.343525 88.326408 416.119019
   vertex 63.341465 90.578201 416.237000
   vertex 66.535820 90.996483 408.310303
  endloop
 facet normal -0.000907 0.998629 0.052331
  outer loop
   vertex 66.535820 90.996483 408.310303
   vertex 63.341465 90.578201 416.237000
   vertex 65.497147 90.785484 412.318787
  endloop
 facet normal -0.000914 0.998630 0.052327
  outer loop
   vertex 65.497147 90.785484 412.318787
   vertex 63.341465 90.578201 416.237000
   vertex 65.428116 90.578201 416.273438
  endloop
 facet normal 0.999848 0.000000 0.017453
  outer loop
   vertex 65.428116 90.578201 416.273438
   vertex 65.499207 88.533691 412.200806
   vertex 65.497147 90.785484 412.318787
  endloop
 facet normal 0.999848 -0.000000 0.017453
  outer loop
   vertex 65.430176 88.326408 416.155426
   vertex 65.499207 88.533691 412.200806
   vertex 65.428116 90.578201 416.273438
  endloop
 facet normal 0.000913 -0.998630 -0.052328
  outer loop
   vertex 63.343525 88.326408 416.119019
   vertex 65.499207 88.533691 412.200806
   vertex 65.430176 88.326408 416.155426
  endloop
 facet normal 0.999848 -0.000000 0.017453
  outer loop
   vertex 65.407280 113.358513 417.467102
   vertex 65.476311 113.565804 413.512482
   vertex 65.405220 115.610306 417.585114
  endloop
 facet normal 0.999848 0.000000 0.017453
  outer loop
   vertex 65.405220 115.610306 417.585114
   vertex 65.476311 113.565804 413.512482
   vertex 65.474251 115.817596 413.630463
  endloop
 facet normal -0.000914 0.998629 0.052329
  outer loop
   vertex 65.474251 115.817596 413.630463
   vertex 63.318569 115.610306 417.548676
   vertex 65.405220 115.610306 417.585114
  endloop
 facet normal -0.000919 0.998630 0.052326
  outer loop
   vertex 66.512924 116.028587 409.622009
   vertex 63.318569 115.610306 417.548676
   vertex 65.474251 115.817596 413.630463
  endloop
 facet normal -0.927697 0.018687 -0.372865
  outer loop
   vertex 63.320629 113.358513 417.430695
   vertex 63.318569 115.610306 417.548676
   vertex 66.512924 116.028587 409.622009
  endloop
 facet normal -0.927698 0.018692 -0.372864
  outer loop
   vertex 66.512924 116.028587 409.622009
   vertex 66.514984 113.776794 409.503998
   vertex 63.320629 113.358513 417.430695
  endloop
 facet normal 0.000921 -0.998630 -0.052325
  outer loop
   vertex 63.320629 113.358513 417.430695
   vertex 66.514984 113.776794 409.503998
   vertex 65.476311 113.565804 413.512482
  endloop
 facet normal 0.000915 -0.998630 -0.052327
  outer loop
   vertex 65.476311 113.565804 413.512482
   vertex 66.514984 113.776794 409.503998
   vertex 67.272736 113.776794 409.517242
  endloop
 facet normal 0.912257 -0.020600 0.409100
  outer loop
   vertex 67.272736 113.776794 409.517242
   vertex 67.270676 116.028587 409.635223
   vertex 65.476311 113.565804 413.512482
  endloop
 facet normal 0.017452 0.052330 -0.998477
  outer loop
   vertex 66.514984 113.776794 409.503998
   vertex 67.270676 116.028587 409.635223
   vertex 67.272736 113.776794 409.517242
  endloop
 facet normal 0.017412 0.052344 -0.998477
  outer loop
   vertex 66.512924 116.028587 409.622009
   vertex 67.270676 116.028587 409.635223
   vertex 66.514984 113.776794 409.503998
  endloop
 facet normal -0.999848 -0.000001 -0.017454
  outer loop
   vertex 62.004166 -34.750732 407.965698
   vertex 61.972210 -34.846680 409.796234
   vertex 62.001915 -32.292801 408.094482
  endloop
 facet normal -0.999848 0.000001 -0.017452
  outer loop
   vertex 62.001915 -32.292801 408.094482
   vertex 61.972210 -34.846680 409.796234
   vertex 61.969963 -32.388752 409.925049
  endloop
 facet normal -0.000913 0.998630 0.052328
  outer loop
   vertex 61.969963 -32.388752 409.925049
   vertex 65.537842 -32.388752 409.987305
   vertex 62.001915 -32.292801 408.094482
  endloop
 facet normal -0.017422 -0.052332 0.998478
  outer loop
   vertex 63.755028 -33.617718 409.891785
   vertex 65.537842 -32.388752 409.987305
   vertex 61.969963 -32.388752 409.925049
  endloop
 facet normal -0.017422 -0.052332 0.998478
  outer loop
   vertex 65.540085 -34.846680 409.858521
   vertex 65.537842 -32.388752 409.987305
   vertex 63.755028 -33.617718 409.891785
  endloop
 facet normal -0.017431 -0.052344 0.998477
  outer loop
   vertex 63.755028 -33.617718 409.891785
   vertex 61.972210 -34.846680 409.796234
   vertex 65.540085 -34.846680 409.858521
  endloop
 facet normal 0.000914 -0.998630 -0.052328
  outer loop
   vertex 65.540085 -34.846680 409.858521
   vertex 61.972210 -34.846680 409.796234
   vertex 65.584023 -34.714756 407.341644
  endloop
 facet normal 0.000914 -0.998630 -0.052327
  outer loop
   vertex 65.584023 -34.714756 407.341644
   vertex 61.972210 -34.846680 409.796234
   vertex 62.004166 -34.750732 407.965698
  endloop
 facet normal 0.000913 -0.998629 -0.052331
  outer loop
   vertex 62.004166 -34.750732 407.965698
   vertex 62.413815 -34.714756 407.286316
   vertex 65.584023 -34.714756 407.341644
  endloop
 facet normal -0.856687 0.026208 -0.515171
  outer loop
   vertex 62.001915 -32.292801 408.094482
   vertex 62.413815 -34.714756 407.286316
   vertex 62.004166 -34.750732 407.965698
  endloop
 facet normal -0.856687 0.026208 -0.515170
  outer loop
   vertex 63.694073 -32.144203 405.288116
   vertex 62.413815 -34.714756 407.286316
   vertex 62.001915 -32.292801 408.094482
  endloop
 facet normal -0.000913 0.998630 0.052327
  outer loop
   vertex 62.001915 -32.292801 408.094482
   vertex 65.537842 -32.388752 409.987305
   vertex 63.694073 -32.144203 405.288116
  endloop
 facet normal -0.000915 0.998630 0.052328
  outer loop
   vertex 63.694073 -32.144203 405.288116
   vertex 65.537842 -32.388752 409.987305
   vertex 65.609612 -32.173241 405.875763
  endloop
 facet normal 0.999848 0.000000 0.017453
  outer loop
   vertex 65.609612 -32.173241 405.875763
   vertex 65.537842 -32.388752 409.987305
   vertex 65.611343 -34.066639 405.776550
  endloop
 facet normal 0.912263 -0.020601 0.409086
  outer loop
   vertex 65.611343 -34.066639 405.776550
   vertex 65.856857 -32.144203 405.325867
   vertex 65.609612 -32.173241 405.875763
  endloop
 facet normal 0.912258 -0.020598 0.409098
  outer loop
   vertex 66.863312 -32.925625 403.042206
   vertex 65.856857 -32.144203 405.325867
   vertex 65.611343 -34.066639 405.776550
  endloop
 facet normal 0.912257 -0.020605 0.409100
  outer loop
   vertex 66.273209 -31.108280 404.449615
   vertex 65.856857 -32.144203 405.325867
   vertex 66.863312 -32.925625 403.042206
  endloop
 facet normal 0.912258 -0.020602 0.409097
  outer loop
   vertex 66.863312 -32.925625 403.042206
   vertex 66.861588 -31.039173 403.141052
   vertex 66.273209 -31.108280 404.449615
  endloop
 facet normal -0.000913 0.998630 0.052329
  outer loop
   vertex 66.273209 -31.108280 404.449615
   vertex 66.861588 -31.039173 403.141052
   vertex 64.251221 -31.108280 404.414337
  endloop
 facet normal -0.000913 0.998630 0.052328
  outer loop
   vertex 64.251221 -31.108280 404.414337
   vertex 66.861588 -31.039173 403.141052
   vertex 65.775848 -30.974392 401.885834
  endloop
 facet normal -0.856685 0.026212 -0.515173
  outer loop
   vertex 65.775848 -30.974392 401.885834
   vertex 65.777176 -32.423321 401.809906
   vertex 64.251221 -31.108280 404.414337
  endloop
 facet normal 0.017446 0.052339 -0.998477
  outer loop
   vertex 66.330170 -31.698854 401.857544
   vertex 65.777176 -32.423321 401.809906
   vertex 65.775848 -30.974392 401.885834
  endloop
 facet normal 0.017419 0.052360 -0.998476
  outer loop
   vertex 66.884491 -32.423321 401.829224
   vertex 65.777176 -32.423321 401.809906
   vertex 66.330170 -31.698854 401.857544
  endloop
 facet normal 0.017392 0.052339 -0.998478
  outer loop
   vertex 66.330170 -31.698854 401.857544
   vertex 66.883163 -30.974392 401.905151
   vertex 66.884491 -32.423321 401.829224
  endloop
 facet normal 0.999848 0.000001 0.017455
  outer loop
   vertex 66.884491 -32.423321 401.829224
   vertex 66.883163 -30.974392 401.905151
   vertex 66.861588 -31.039173 403.141052
  endloop
 facet normal -0.000913 0.998630 0.052328
  outer loop
   vertex 66.861588 -31.039173 403.141052
   vertex 66.883163 -30.974392 401.905151
   vertex 65.775848 -30.974392 401.885834
  endloop
 facet normal -0.856686 0.026205 -0.515171
  outer loop
   vertex 64.091972 143.006180 413.537933
   vertex 65.615273 144.589020 411.085327
   vertex 65.616592 143.140076 411.009430
  endloop
 facet normal 0.017419 0.052317 -0.998479
  outer loop
   vertex 65.616592 143.140076 411.009430
   vertex 65.615273 144.589020 411.085327
   vertex 66.169586 143.864548 411.057037
  endloop
 facet normal 0.017419 0.052317 -0.998479
  outer loop
   vertex 66.169586 143.864548 411.057037
   vertex 66.723907 143.140076 411.028748
   vertex 65.616592 143.140076 411.009430
  endloop
 facet normal 0.017446 0.052338 -0.998477
  outer loop
   vertex 66.722588 144.589020 411.104675
   vertex 66.723907 143.140076 411.028748
   vertex 66.169586 143.864548 411.057037
  endloop
 facet normal 0.999848 -0.000004 0.017449
  outer loop
   vertex 66.702339 143.075287 412.264648
   vertex 66.723907 143.140076 411.028748
   vertex 66.722588 144.589020 411.104675
  endloop
 facet normal 0.999848 0.000003 0.017457
  outer loop
   vertex 66.722588 144.589020 411.104675
   vertex 66.700607 144.961761 412.363495
   vertex 66.702339 143.075287 412.264648
  endloop
 facet normal 0.912256 -0.020598 0.409102
  outer loop
   vertex 66.702339 143.075287 412.264648
   vertex 66.700607 144.961761 412.363495
   vertex 66.113953 143.006180 413.573212
  endloop
 facet normal 0.912257 -0.020601 0.409099
  outer loop
   vertex 66.113953 143.006180 413.573212
   vertex 66.700607 144.961761 412.363495
   vertex 65.695801 143.944107 414.552887
  endloop
 facet normal -0.012018 -0.724835 0.688817
  outer loop
   vertex 65.695801 143.944107 414.552887
   vertex 64.091972 143.006180 413.537933
   vertex 66.113953 143.006180 413.573212
  endloop
 facet normal -0.012023 -0.724831 0.688821
  outer loop
   vertex 63.533016 143.944107 414.515137
   vertex 64.091972 143.006180 413.537933
   vertex 65.695801 143.944107 414.552887
  endloop
 facet normal -0.856686 0.026204 -0.515172
  outer loop
   vertex 65.615273 144.589020 411.085327
   vertex 64.091972 143.006180 413.537933
   vertex 63.533016 143.944107 414.515137
  endloop
 facet normal -0.856687 0.026211 -0.515171
  outer loop
   vertex 63.533016 143.944107 414.515137
   vertex 62.248260 146.289413 416.770905
   vertex 65.615273 144.589020 411.085327
  endloop
 facet normal 0.004956 0.958861 -0.283833
  outer loop
   vertex 65.615273 144.589020 411.085327
   vertex 62.248260 146.289413 416.770905
   vertex 66.700607 144.961761 412.363495
  endloop
 facet normal 0.004963 0.958863 -0.283827
  outer loop
   vertex 66.700607 144.961761 412.363495
   vertex 62.248260 146.289413 416.770905
   vertex 65.446815 145.808456 415.201996
  endloop
 facet normal 0.912258 -0.020603 0.409098
  outer loop
   vertex 65.446815 145.808456 415.201996
   vertex 65.695801 143.944107 414.552887
   vertex 66.700607 144.961761 412.363495
  endloop
 facet normal 0.912258 -0.020602 0.409097
  outer loop
   vertex 65.448547 143.915070 415.102783
   vertex 65.695801 143.944107 414.552887
   vertex 65.446815 145.808456 415.201996
  endloop
 facet normal 0.000913 -0.998630 -0.052322
  outer loop
   vertex 63.533016 143.944107 414.515137
   vertex 65.695801 143.944107 414.552887
   vertex 65.448547 143.915070 415.102783
  endloop
 facet normal 0.000915 -0.998629 -0.052329
  outer loop
   vertex 65.448547 143.915070 415.102783
   vertex 65.376785 143.699554 419.214325
   vertex 63.533016 143.944107 414.515137
  endloop
 facet normal 0.000915 -0.998629 -0.052329
  outer loop
   vertex 63.533016 143.944107 414.515137
   vertex 65.376785 143.699554 419.214325
   vertex 61.840858 143.795502 417.321503
  endloop
 facet normal 0.000913 -0.998630 -0.052326
  outer loop
   vertex 61.840858 143.795502 417.321503
   vertex 65.376785 143.699554 419.214325
   vertex 61.808907 143.699554 419.152069
  endloop
 facet normal -0.999848 -0.000001 -0.017452
  outer loop
   vertex 61.808907 143.699554 419.152069
   vertex 61.806656 146.157486 419.280853
   vertex 61.840858 143.795502 417.321503
  endloop
 facet normal -0.017423 -0.052332 0.998478
  outer loop
   vertex 63.591721 144.928513 419.247589
   vertex 61.806656 146.157486 419.280853
   vertex 61.808907 143.699554 419.152069
  endloop
 facet normal -0.017431 -0.052344 0.998477
  outer loop
   vertex 65.374535 146.157486 419.343140
   vertex 61.806656 146.157486 419.280853
   vertex 63.591721 144.928513 419.247589
  endloop
 facet normal -0.017431 -0.052344 0.998477
  outer loop
   vertex 63.591721 144.928513 419.247589
   vertex 65.376785 143.699554 419.214325
   vertex 65.374535 146.157486 419.343140
  endloop
 facet normal 0.999848 0.000001 0.017451
  outer loop
   vertex 65.374535 146.157486 419.343140
   vertex 65.376785 143.699554 419.214325
   vertex 65.418465 146.289413 416.826233
  endloop
 facet normal 0.999848 0.000001 0.017452
  outer loop
   vertex 65.418465 146.289413 416.826233
   vertex 65.376785 143.699554 419.214325
   vertex 65.446815 145.808456 415.201996
  endloop
 facet normal 0.004954 0.958858 -0.283843
  outer loop
   vertex 65.446815 145.808456 415.201996
   vertex 62.248260 146.289413 416.770905
   vertex 65.418465 146.289413 416.826233
  endloop
 facet normal 0.000913 -0.998630 -0.052328
  outer loop
   vertex 66.113953 143.006180 413.573212
   vertex 64.091972 143.006180 413.537933
   vertex 66.702339 143.075287 412.264648
  endloop
 facet normal 0.000911 -0.998629 -0.052333
  outer loop
   vertex 66.702339 143.075287 412.264648
   vertex 64.091972 143.006180 413.537933
   vertex 65.616592 143.140076 411.009430
  endloop
 facet normal 0.000913 -0.998629 -0.052335
  outer loop
   vertex 65.616592 143.140076 411.009430
   vertex 66.723907 143.140076 411.028748
   vertex 66.702339 143.075287 412.264648
  endloop
 facet normal 0.017419 0.052318 -0.998479
  outer loop
   vertex 66.883163 -30.974392 401.905151
   vertex 66.330170 -31.698854 401.857544
   vertex 65.775848 -30.974392 401.885834
  endloop
 facet normal 0.000913 -0.998630 -0.052328
  outer loop
   vertex 65.568558 12.707327 408.227509
   vertex 65.499527 12.500041 412.182129
   vertex 63.412880 12.500041 412.145721
  endloop
 facet normal -0.856686 0.026205 -0.515173
  outer loop
   vertex 63.694073 -32.144203 405.288116
   vertex 65.777176 -32.423321 401.809906
   vertex 62.413815 -34.714756 407.286316
  endloop
 facet normal -0.000913 0.998630 0.052322
  outer loop
   vertex 65.609612 -32.173241 405.875763
   vertex 65.856857 -32.144203 405.325867
   vertex 63.694073 -32.144203 405.288116
  endloop
 facet normal -0.017422 -0.052332 0.998478
  outer loop
   vertex 63.591721 144.928513 419.247589
   vertex 61.808907 143.699554 419.152069
   vertex 65.376785 143.699554 419.214325
  endloop
 facet normal 0.999848 0.000000 0.017451
  outer loop
   vertex 65.376785 143.699554 419.214325
   vertex 65.448547 143.915070 415.102783
   vertex 65.446815 145.808456 415.201996
  endloop
 facet normal 0.000914 -0.998630 -0.052328
  outer loop
   vertex 65.591858 -12.769822 406.892487
   vertex 65.522835 -12.977108 410.847137
   vertex 63.436184 -12.977108 410.810699
  endloop
 facet normal 0.000913 -0.998629 -0.052330
  outer loop
   vertex 65.476311 113.565804 413.512482
   vertex 65.407280 113.358513 417.467102
   vertex 63.320629 113.358513 417.430695
  endloop
 facet normal 0.000913 -0.998630 -0.052329
  outer loop
   vertex 65.546570 36.751724 409.487427
   vertex 65.477539 36.544437 413.442047
   vertex 63.390888 36.544437 413.405640
  endloop
 facet normal -0.017431 -0.052344 0.998477
  outer loop
   vertex 61.969963 -32.388752 409.925049
   vertex 61.972210 -34.846680 409.796234
   vertex 63.755028 -33.617718 409.891785
  endloop
 facet normal -0.000913 0.998629 0.052337
  outer loop
   vertex 65.418465 146.289413 416.826233
   vertex 62.248260 146.289413 416.770905
   vertex 61.838608 146.253433 417.450287
  endloop
endsolid