solid stl file generated from DOUG
 facet normal -0.142879 -0.454647 0.879137
  outer loop
   vertex -39.399525 34.929348 339.272064
   vertex -39.959167 35.869652 339.667389
   vertex -39.494480 34.897877 339.240356
  endloop
 facet normal -0.665663 -0.543176 0.511716
  outer loop
   vertex -39.494480 34.897877 339.240356
   vertex -39.959167 35.869652 339.667389
   vertex -40.488834 35.903393 339.014191
  endloop
 facet normal -0.401035 0.838667 0.368523
  outer loop
   vertex -29.633553 15.082577 327.793488
   vertex -31.005175 14.975371 326.544830
   vertex -29.854750 14.902084 327.963531
  endloop
 facet normal -0.665672 -0.543145 0.511736
  outer loop
   vertex -29.854750 14.902084 327.963531
   vertex -31.005175 14.975371 326.544830
   vertex -29.696068 14.661400 327.914490
  endloop
 facet normal -0.665661 -0.543169 0.511726
  outer loop
   vertex -40.842350 37.971123 338.157166
   vertex -41.924011 37.809456 336.578522
   vertex -40.773586 37.736168 337.997223
  endloop
 facet normal 0.401036 -0.838665 -0.368525
  outer loop
   vertex -40.773586 37.736168 337.997223
   vertex -41.924011 37.809456 336.578522
   vertex -40.552391 37.916660 337.827179
  endloop
 facet normal 0.629341 -0.040090 0.776094
  outer loop
   vertex -38.650520 36.291817 338.658875
   vertex -38.723484 36.232277 338.714966
   vertex -29.263546 16.449129 330.021912
  endloop
 facet normal -0.161873 -0.460839 0.872597
  outer loop
   vertex -29.263546 16.449129 330.021912
   vertex -38.723484 36.232277 338.714966
   vertex -29.394533 16.406960 329.975342
  endloop
 facet normal -0.665667 -0.543163 0.511723
  outer loop
   vertex -30.593842 15.210430 329.921356
   vertex -30.528856 16.148462 331.001556
   vertex -31.058527 16.182205 330.348358
  endloop
 facet normal -0.401037 0.838667 0.368520
  outer loop
   vertex -31.058527 16.182205 330.348358
   vertex -30.528856 16.148462 331.001556
   vertex -30.380404 16.278225 330.867798
  endloop
 facet normal 0.348347 -0.232455 0.908085
  outer loop
   vertex -40.187496 35.470387 338.855652
   vertex -30.727558 15.687239 330.162598
   vertex -40.157074 35.488079 338.848511
  endloop
 facet normal 0.348352 -0.232452 0.908084
  outer loop
   vertex -40.157074 35.488079 338.848511
   vertex -30.727558 15.687239 330.162598
   vertex -30.697138 15.704929 330.155457
  endloop
 facet normal -0.665663 -0.543168 0.511724
  outer loop
   vertex -30.697138 15.704929 330.155457
   vertex -30.311018 15.680332 330.631622
   vertex -40.157074 35.488079 338.848511
  endloop
 facet normal -0.665658 -0.543170 0.511728
  outer loop
   vertex -42.436367 37.479301 335.561615
   vertex -43.420307 38.135349 334.978058
   vertex -42.616043 36.453426 334.238983
  endloop
 facet normal -0.629340 0.040095 -0.776095
  outer loop
   vertex -42.616043 36.453426 334.238983
   vertex -43.420307 38.135349 334.978058
   vertex -42.394848 36.633919 334.068939
  endloop
 facet normal 0.401036 -0.838665 -0.368525
  outer loop
   vertex -42.394848 36.633919 334.068939
   vertex -39.649662 36.459038 337.454285
   vertex -42.616043 36.453426 334.238983
  endloop
 facet normal 0.629289 -0.040147 0.776134
  outer loop
   vertex -38.948322 36.648472 338.994995
   vertex -38.377823 35.763039 338.486633
   vertex -38.842506 36.734814 338.913666
  endloop
 facet normal 0.911437 0.405678 0.068618
  outer loop
   vertex -38.842506 36.734814 338.913666
   vertex -38.377823 35.763039 338.486633
   vertex -38.387474 35.801178 338.389343
  endloop
 facet normal 0.911437 0.405678 0.068618
  outer loop
   vertex -38.387474 35.801178 338.389343
   vertex -38.852158 36.772953 338.816376
   vertex -38.842506 36.734814 338.913666
  endloop
 facet normal -0.629335 0.040098 -0.776099
  outer loop
   vertex -33.078293 16.507551 325.474426
   vertex -32.857094 16.688044 325.304382
   vertex -32.274025 14.825627 324.735352
  endloop
 facet normal -0.629340 0.040095 -0.776095
  outer loop
   vertex -32.274025 14.825627 324.735352
   vertex -32.857094 16.688044 325.304382
   vertex -32.052830 15.006120 324.565308
  endloop
 facet normal 0.401037 -0.838665 -0.368524
  outer loop
   vertex -32.052830 15.006120 324.565308
   vertex -29.474873 14.841892 327.744446
   vertex -32.274025 14.825627 324.735352
  endloop
 facet normal 0.629335 -0.040084 0.776099
  outer loop
   vertex -40.367447 37.960106 338.113861
   vertex -40.588642 37.779613 338.283905
   vertex -39.870857 36.278545 337.624329
  endloop
 facet normal -0.665656 -0.543165 0.511737
  outer loop
   vertex -39.870857 36.278545 337.624329
   vertex -40.588642 37.779613 338.283905
   vertex -40.302002 36.749962 337.563873
  endloop
 facet normal -0.665660 -0.543170 0.511725
  outer loop
   vertex -40.302002 36.749962 337.563873
   vertex -41.452427 36.823250 336.145172
   vertex -39.870857 36.278545 337.624329
  endloop
 facet normal 0.909300 0.413233 0.049105
  outer loop
   vertex -39.638771 35.550133 339.271301
   vertex -39.622631 35.498589 339.406189
   vertex -30.162695 15.715440 330.713135
  endloop
 facet normal 0.629340 -0.040090 0.776095
  outer loop
   vertex -30.162695 15.715440 330.713135
   vertex -39.622631 35.498589 339.406189
   vertex -39.695595 35.439053 339.462280
  endloop
 facet normal 0.629341 -0.040090 0.776095
  outer loop
   vertex -39.695595 35.439053 339.462280
   vertex -30.235659 15.655903 330.769226
   vertex -30.162695 15.715440 330.713135
  endloop
 facet normal -0.665647 -0.543187 0.511725
  outer loop
   vertex -31.476759 15.961576 326.978210
   vertex -30.326334 15.888288 328.396881
   vertex -30.333109 16.332670 328.859772
  endloop
 facet normal -0.665673 -0.543170 0.511709
  outer loop
   vertex -30.333109 16.332670 328.859772
   vertex -30.326334 15.888288 328.396881
   vertex -29.615326 14.831603 328.200165
  endloop
 facet normal 0.629338 -0.040098 0.776096
  outer loop
   vertex -29.615326 14.831603 328.200165
   vertex -29.394129 15.012095 328.030121
   vertex -30.333109 16.332670 328.859772
  endloop
 facet normal 0.911432 0.405695 0.068578
  outer loop
   vertex -28.957165 16.079988 329.723511
   vertex -29.421850 17.051764 330.150543
   vertex -28.947512 16.041851 329.820831
  endloop
 facet normal 0.911433 0.405691 0.068590
  outer loop
   vertex -28.947512 16.041851 329.820831
   vertex -29.421850 17.051764 330.150543
   vertex -29.412197 17.013628 330.247833
  endloop
 facet normal 0.629276 -0.040133 0.776145
  outer loop
   vertex -29.412197 17.013628 330.247833
   vertex -29.053329 15.955507 329.902161
   vertex -28.947512 16.041851 329.820831
  endloop
 facet normal -0.400974 0.838682 0.368555
  outer loop
   vertex -30.328083 16.266279 330.951904
   vertex -30.380404 16.278225 330.867798
   vertex -30.433899 16.179935 331.033264
  endloop
 facet normal -0.401029 0.838667 0.368528
  outer loop
   vertex -30.433899 16.179935 331.033264
   vertex -30.380404 16.278225 330.867798
   vertex -30.528856 16.148462 331.001556
  endloop
 facet normal -0.142870 -0.454643 0.879140
  outer loop
   vertex -30.528856 16.148462 331.001556
   vertex -30.064173 15.176688 330.574524
   vertex -30.433899 16.179935 331.033264
  endloop
 facet normal -0.665651 -0.543175 0.511732
  outer loop
   vertex -30.593842 15.210430 329.921356
   vertex -30.064173 15.176688 330.574524
   vertex -30.528856 16.148462 331.001556
  endloop
 facet normal -0.665655 -0.543163 0.511739
  outer loop
   vertex -40.488834 35.903393 339.014191
   vertex -40.024151 34.931618 338.587189
   vertex -39.494480 34.897877 339.240356
  endloop
 facet normal 0.401025 -0.838671 -0.368525
  outer loop
   vertex -39.494480 34.897877 339.240356
   vertex -40.024151 34.931618 338.587189
   vertex -39.346027 35.027637 339.106598
  endloop
 facet normal 0.401022 -0.838671 -0.368528
  outer loop
   vertex -39.346027 35.027637 339.106598
   vertex -39.399525 34.929348 339.272064
   vertex -39.494480 34.897877 339.240356
  endloop
 facet normal 0.401105 -0.838649 -0.368488
  outer loop
   vertex -39.293705 35.015694 339.190735
   vertex -39.399525 34.929348 339.272064
   vertex -39.346027 35.027637 339.106598
  endloop
 facet normal 0.909301 0.413230 0.049112
  outer loop
   vertex -30.162695 15.715440 330.713135
   vertex -30.178835 15.766983 330.578278
   vertex -39.638771 35.550133 339.271301
  endloop
 facet normal 0.629340 -0.040090 0.776096
  outer loop
   vertex -39.638771 35.550133 339.271301
   vertex -30.178835 15.766983 330.578278
   vertex -29.394533 16.406960 329.975342
  endloop
 facet normal 0.629327 -0.040102 0.776105
  outer loop
   vertex -29.394533 16.406960 329.975342
   vertex -38.854469 36.190109 338.668396
   vertex -39.638771 35.550133 339.271301
  endloop
 facet normal -0.161881 -0.460841 0.872594
  outer loop
   vertex -38.723484 36.232277 338.714966
   vertex -38.854469 36.190109 338.668396
   vertex -29.394533 16.406960 329.975342
  endloop
 facet normal 0.665660 0.543170 -0.511725
  outer loop
   vertex -40.080807 36.930454 337.393829
   vertex -39.649662 36.459038 337.454285
   vertex -41.231232 37.003742 335.975128
  endloop
 facet normal 0.665662 0.543166 -0.511728
  outer loop
   vertex -41.231232 37.003742 335.975128
   vertex -39.649662 36.459038 337.454285
   vertex -42.394848 36.633919 334.068939
  endloop
 facet normal 0.665659 0.543169 -0.511727
  outer loop
   vertex -42.394848 36.633919 334.068939
   vertex -43.199112 38.315845 334.808014
   vertex -41.231232 37.003742 335.975128
  endloop
 facet normal -0.629340 0.040095 -0.776095
  outer loop
   vertex -43.420307 38.135349 334.978058
   vertex -43.199112 38.315845 334.808014
   vertex -42.394848 36.633919 334.068939
  endloop
 facet normal -0.401041 0.838660 0.368531
  outer loop
   vertex -40.621155 38.151615 337.987122
   vertex -43.199112 38.315845 334.808014
   vertex -43.420307 38.135349 334.978058
  endloop
 facet normal -0.401033 0.838668 0.368522
  outer loop
   vertex -33.078293 16.507551 325.474426
   vertex -30.111912 16.513163 328.689728
   vertex -32.857094 16.688044 325.304382
  endloop
 facet normal 0.665654 0.543183 -0.511720
  outer loop
   vertex -32.857094 16.688044 325.304382
   vertex -30.111912 16.513163 328.689728
   vertex -31.255564 16.142069 326.808136
  endloop
 facet normal 0.665658 0.543170 -0.511729
  outer loop
   vertex -31.255564 16.142069 326.808136
   vertex -32.052830 15.006120 324.565308
   vertex -32.857094 16.688044 325.304382
  endloop
 facet normal 0.665661 0.543166 -0.511728
  outer loop
   vertex -30.783979 15.155865 326.374786
   vertex -32.052830 15.006120 324.565308
   vertex -31.255564 16.142069 326.808136
  endloop
 facet normal 0.665671 0.543149 -0.511733
  outer loop
   vertex -29.474873 14.841892 327.744446
   vertex -32.052830 15.006120 324.565308
   vertex -30.783979 15.155865 326.374786
  endloop
 facet normal 0.401036 -0.838675 -0.368502
  outer loop
   vertex -42.393196 36.630424 334.067566
   vertex -40.532581 35.745556 338.106323
   vertex -43.264446 35.919525 334.737335
  endloop
 facet normal -0.665679 -0.543131 0.511743
  outer loop
   vertex -43.264446 35.919525 334.737335
   vertex -40.532581 35.745556 338.106323
   vertex -40.665215 36.022930 338.228180
  endloop
 facet normal -0.665682 -0.543124 0.511745
  outer loop
   vertex -40.665215 36.022930 338.228180
   vertex -43.397076 36.196899 334.859192
   vertex -43.264446 35.919525 334.737335
  endloop
 facet normal -0.401022 0.838687 0.368491
  outer loop
   vertex -39.793976 36.733818 337.558350
   vertex -43.397076 36.196899 334.859192
   vertex -40.665215 36.022930 338.228180
  endloop
 facet normal -0.401033 0.838675 0.368508
  outer loop
   vertex -42.525829 36.907799 334.189423
   vertex -43.397076 36.196899 334.859192
   vertex -39.793976 36.733818 337.558350
  endloop
 facet normal -0.665708 -0.543165 0.511668
  outer loop
   vertex -30.235659 15.655903 330.769226
   vertex -39.695595 35.439053 339.462280
   vertex -30.325226 15.661609 330.658752
  endloop
 facet normal -0.665693 -0.543166 0.511687
  outer loop
   vertex -30.325226 15.661609 330.658752
   vertex -39.695595 35.439053 339.462280
   vertex -39.785164 35.444756 339.351807
  endloop
 facet normal -0.826101 -0.157240 -0.541140
  outer loop
   vertex -39.785164 35.444756 339.351807
   vertex -30.311018 15.680332 330.631622
   vertex -30.325226 15.661609 330.658752
  endloop
 facet normal -0.826113 -0.157257 -0.541116
  outer loop
   vertex -39.770958 35.463482 339.324677
   vertex -30.311018 15.680332 330.631622
   vertex -39.785164 35.444756 339.351807
  endloop
 facet normal -0.665666 -0.543168 0.511721
  outer loop
   vertex -40.157074 35.488079 338.848511
   vertex -30.311018 15.680332 330.631622
   vertex -39.770958 35.463482 339.324677
  endloop
 facet normal 0.401042 -0.838653 -0.368546
  outer loop
   vertex -32.726101 16.414064 325.184143
   vertex -29.994209 16.240002 328.553009
   vertex -33.597332 15.703127 325.853882
  endloop
 facet normal 0.401049 -0.838645 -0.368557
  outer loop
   vertex -33.597332 15.703127 325.853882
   vertex -29.994209 16.240002 328.553009
   vertex -30.865408 15.529029 329.222809
  endloop
 facet normal -0.665654 -0.543182 0.511721
  outer loop
   vertex -30.865408 15.529029 329.222809
   vertex -33.729965 15.980493 325.975769
   vertex -33.597332 15.703127 325.853882
  endloop
 facet normal -0.665655 -0.543181 0.511721
  outer loop
   vertex -30.998041 15.806396 329.344696
   vertex -33.729965 15.980493 325.975769
   vertex -30.865408 15.529029 329.222809
  endloop
 facet normal -0.401039 0.838653 0.368549
  outer loop
   vertex -32.858734 16.691429 325.306030
   vertex -33.729965 15.980493 325.975769
   vertex -30.998041 15.806396 329.344696
  endloop
 facet normal -0.401039 0.838653 0.368549
  outer loop
   vertex -30.998041 15.806396 329.344696
   vertex -30.126810 16.517332 328.674957
   vertex -32.858734 16.691429 325.306030
  endloop
 facet normal -0.665680 -0.543166 0.511703
  outer loop
   vertex -40.187496 35.470387 338.855652
   vertex -40.231937 35.473217 338.800842
   vertex -30.771999 15.690070 330.107819
  endloop
 facet normal -0.629330 0.040098 -0.776103
  outer loop
   vertex -30.771999 15.690070 330.107819
   vertex -40.231937 35.473217 338.800842
   vertex -39.186863 36.325985 337.997467
  endloop
 facet normal -0.629340 0.040091 -0.776095
  outer loop
   vertex -39.186863 36.325985 337.997467
   vertex -29.726925 16.542835 329.304413
   vertex -30.771999 15.690070 330.107819
  endloop
 facet normal 0.665559 0.543175 -0.511852
  outer loop
   vertex -39.142422 36.323151 338.052246
   vertex -29.726925 16.542835 329.304413
   vertex -39.186863 36.325985 337.997467
  endloop
 facet normal 0.665678 0.543167 -0.511705
  outer loop
   vertex -29.682482 16.540003 329.359222
   vertex -29.726925 16.542835 329.304413
   vertex -39.142422 36.323151 338.052246
  endloop
 facet normal 0.826302 0.157506 0.540756
  outer loop
   vertex -39.142422 36.323151 338.052246
   vertex -39.156628 36.304428 338.079407
   vertex -29.682482 16.540003 329.359222
  endloop
 facet normal 0.826103 0.157242 0.541137
  outer loop
   vertex -29.682482 16.540003 329.359222
   vertex -39.156628 36.304428 338.079407
   vertex -29.696690 16.521280 329.386353
  endloop
 facet normal 0.665663 0.543168 -0.511724
  outer loop
   vertex -29.696690 16.521280 329.386353
   vertex -39.156628 36.304428 338.079407
   vertex -38.770508 36.279831 338.555573
  endloop
 facet normal 0.665663 0.543168 -0.511724
  outer loop
   vertex -38.770508 36.279831 338.555573
   vertex -29.310570 16.496683 329.862518
   vertex -29.696690 16.521280 329.386353
  endloop
 facet normal -0.349032 0.232057 -0.907924
  outer loop
   vertex -38.740089 36.297523 338.548401
   vertex -29.310570 16.496683 329.862518
   vertex -38.770508 36.279831 338.555573
  endloop
 facet normal -0.349005 0.232072 -0.907930
  outer loop
   vertex -29.280149 16.514374 329.855347
   vertex -29.310570 16.496683 329.862518
   vertex -38.740089 36.297523 338.548401
  endloop
 facet normal 0.665702 0.543166 -0.511675
  outer loop
   vertex -38.740089 36.297523 338.548401
   vertex -38.650520 36.291817 338.658875
   vertex -29.280149 16.514374 329.855347
  endloop
 facet normal 0.665708 0.543165 -0.511668
  outer loop
   vertex -29.280149 16.514374 329.855347
   vertex -38.650520 36.291817 338.658875
   vertex -29.190582 16.508667 329.965820
  endloop
 facet normal 0.629341 -0.040090 0.776095
  outer loop
   vertex -29.190582 16.508667 329.965820
   vertex -38.650520 36.291817 338.658875
   vertex -29.263546 16.449129 330.021912
  endloop
 facet normal 0.401037 -0.838665 -0.368524
  outer loop
   vertex -29.474873 14.841892 327.744446
   vertex -29.696068 14.661400 327.914490
   vertex -32.274025 14.825627 324.735352
  endloop
 facet normal -0.665670 -0.543151 0.511733
  outer loop
   vertex -32.274025 14.825627 324.735352
   vertex -29.696068 14.661400 327.914490
   vertex -31.005175 14.975371 326.544830
  endloop
 facet normal -0.665655 -0.543178 0.511724
  outer loop
   vertex -31.005175 14.975371 326.544830
   vertex -31.875393 15.393601 325.856781
   vertex -32.274025 14.825627 324.735352
  endloop
 facet normal -0.665655 -0.543177 0.511725
  outer loop
   vertex -31.476759 15.961576 326.978210
   vertex -31.875393 15.393601 325.856781
   vertex -31.005175 14.975371 326.544830
  endloop
 facet normal -0.665661 -0.543170 0.511724
  outer loop
   vertex -33.078293 16.507551 325.474426
   vertex -31.875393 15.393601 325.856781
   vertex -31.476759 15.961576 326.978210
  endloop
 facet normal -0.665664 -0.543161 0.511730
  outer loop
   vertex -31.476759 15.961576 326.978210
   vertex -30.333109 16.332670 328.859772
   vertex -33.078293 16.507551 325.474426
  endloop
 facet normal -0.401035 0.838667 0.368524
  outer loop
   vertex -33.078293 16.507551 325.474426
   vertex -30.333109 16.332670 328.859772
   vertex -30.111912 16.513163 328.689728
  endloop
 facet normal 0.629338 -0.040098 0.776096
  outer loop
   vertex -30.111912 16.513163 328.689728
   vertex -30.333109 16.332670 328.859772
   vertex -29.394129 15.012095 328.030121
  endloop
 facet normal 0.665673 0.543170 -0.511709
  outer loop
   vertex -29.394129 15.012095 328.030121
   vertex -30.105137 16.068781 328.226837
   vertex -30.111912 16.513163 328.689728
  endloop
 facet normal 0.665661 0.543166 -0.511728
  outer loop
   vertex -29.633553 15.082577 327.793488
   vertex -30.105137 16.068781 328.226837
   vertex -29.394129 15.012095 328.030121
  endloop
 facet normal -0.629335 0.040091 -0.776099
  outer loop
   vertex -30.326334 15.888288 328.396881
   vertex -30.105137 16.068781 328.226837
   vertex -29.633553 15.082577 327.793488
  endloop
 facet normal -0.629335 0.040091 -0.776099
  outer loop
   vertex -29.633553 15.082577 327.793488
   vertex -29.854750 14.902084 327.963531
   vertex -30.326334 15.888288 328.396881
  endloop
 facet normal -0.665661 -0.543166 0.511728
  outer loop
   vertex -30.326334 15.888288 328.396881
   vertex -29.854750 14.902084 327.963531
   vertex -29.615326 14.831603 328.200165
  endloop
 facet normal -0.665668 -0.543144 0.511743
  outer loop
   vertex -29.615326 14.831603 328.200165
   vertex -29.854750 14.902084 327.963531
   vertex -29.696068 14.661400 327.914490
  endloop
 facet normal 0.707974 -0.676456 0.202929
  outer loop
   vertex -29.696068 14.661400 327.914490
   vertex -29.394129 15.012095 328.030121
   vertex -29.615326 14.831603 328.200165
  endloop
 facet normal 0.707976 -0.676455 0.202923
  outer loop
   vertex -29.474873 14.841892 327.744446
   vertex -29.394129 15.012095 328.030121
   vertex -29.696068 14.661400 327.914490
  endloop
 facet normal 0.665670 0.543140 -0.511745
  outer loop
   vertex -29.633553 15.082577 327.793488
   vertex -29.394129 15.012095 328.030121
   vertex -29.474873 14.841892 327.744446
  endloop
 facet normal 0.665674 0.543141 -0.511738
  outer loop
   vertex -29.474873 14.841892 327.744446
   vertex -30.783979 15.155865 326.374786
   vertex -29.633553 15.082577 327.793488
  endloop
 facet normal -0.401038 0.838664 0.368526
  outer loop
   vertex -29.633553 15.082577 327.793488
   vertex -30.783979 15.155865 326.374786
   vertex -31.005175 14.975371 326.544830
  endloop
 facet normal 0.629337 -0.040089 0.776097
  outer loop
   vertex -31.005175 14.975371 326.544830
   vertex -30.783979 15.155865 326.374786
   vertex -31.255564 16.142069 326.808136
  endloop
 facet normal 0.629393 -0.040067 0.776054
  outer loop
   vertex -31.255564 16.142069 326.808136
   vertex -31.476759 15.961576 326.978210
   vertex -31.005175 14.975371 326.544830
  endloop
 facet normal 0.401015 -0.838682 -0.368509
  outer loop
   vertex -30.105137 16.068781 328.226837
   vertex -31.476759 15.961576 326.978210
   vertex -31.255564 16.142069 326.808136
  endloop
 facet normal 0.401031 -0.838666 -0.368528
  outer loop
   vertex -30.326334 15.888288 328.396881
   vertex -31.476759 15.961576 326.978210
   vertex -30.105137 16.068781 328.226837
  endloop
 facet normal -0.401036 0.838665 0.368525
  outer loop
   vertex -40.302002 36.749962 337.563873
   vertex -40.080807 36.930454 337.393829
   vertex -41.452427 36.823250 336.145172
  endloop
 facet normal -0.401036 0.838665 0.368525
  outer loop
   vertex -41.452427 36.823250 336.145172
   vertex -40.080807 36.930454 337.393829
   vertex -41.231232 37.003742 335.975128
  endloop
 facet normal 0.629337 -0.040089 0.776098
  outer loop
   vertex -41.231232 37.003742 335.975128
   vertex -41.924011 37.809456 336.578522
   vertex -41.452427 36.823250 336.145172
  endloop
 facet normal 0.629337 -0.040089 0.776098
  outer loop
   vertex -41.702816 37.989948 336.408478
   vertex -41.924011 37.809456 336.578522
   vertex -41.231232 37.003742 335.975128
  endloop
 facet normal 0.401036 -0.838665 -0.368525
  outer loop
   vertex -40.552391 37.916660 337.827179
   vertex -41.924011 37.809456 336.578522
   vertex -41.702816 37.989948 336.408478
  endloop
 facet normal 0.665661 0.543169 -0.511726
  outer loop
   vertex -41.702816 37.989948 336.408478
   vertex -40.621155 38.151615 337.987122
   vertex -40.552391 37.916660 337.827179
  endloop
 facet normal 0.665648 0.543173 -0.511738
  outer loop
   vertex -40.552391 37.916660 337.827179
   vertex -40.621155 38.151615 337.987122
   vertex -40.367447 37.960106 338.113861
  endloop
 facet normal 0.085209 0.625919 0.775220
  outer loop
   vertex -40.367447 37.960106 338.113861
   vertex -40.621155 38.151615 337.987122
   vertex -40.842350 37.971123 338.157166
  endloop
 facet normal 0.085209 0.625919 0.775220
  outer loop
   vertex -40.842350 37.971123 338.157166
   vertex -40.588642 37.779613 338.283905
   vertex -40.367447 37.960106 338.113861
  endloop
 facet normal -0.665648 -0.543173 0.511738
  outer loop
   vertex -40.773586 37.736168 337.997223
   vertex -40.588642 37.779613 338.283905
   vertex -40.842350 37.971123 338.157166
  endloop
 facet normal -0.665652 -0.543166 0.511740
  outer loop
   vertex -40.302002 36.749962 337.563873
   vertex -40.588642 37.779613 338.283905
   vertex -40.773586 37.736168 337.997223
  endloop
 facet normal -0.629337 0.040089 -0.776098
  outer loop
   vertex -40.773586 37.736168 337.997223
   vertex -40.552391 37.916660 337.827179
   vertex -40.302002 36.749962 337.563873
  endloop
 facet normal -0.629337 0.040089 -0.776098
  outer loop
   vertex -40.302002 36.749962 337.563873
   vertex -40.552391 37.916660 337.827179
   vertex -40.080807 36.930454 337.393829
  endloop
 facet normal 0.665652 0.543166 -0.511740
  outer loop
   vertex -40.080807 36.930454 337.393829
   vertex -40.552391 37.916660 337.827179
   vertex -40.367447 37.960106 338.113861
  endloop
 facet normal 0.665656 0.543165 -0.511737
  outer loop
   vertex -40.367447 37.960106 338.113861
   vertex -39.649662 36.459038 337.454285
   vertex -40.080807 36.930454 337.393829
  endloop
 facet normal 0.629335 -0.040084 0.776099
  outer loop
   vertex -39.870857 36.278545 337.624329
   vertex -39.649662 36.459038 337.454285
   vertex -40.367447 37.960106 338.113861
  endloop
 facet normal 0.401036 -0.838665 -0.368525
  outer loop
   vertex -42.616043 36.453426 334.238983
   vertex -39.649662 36.459038 337.454285
   vertex -39.870857 36.278545 337.624329
  endloop
 facet normal -0.665662 -0.543166 0.511728
  outer loop
   vertex -39.870857 36.278545 337.624329
   vertex -41.452427 36.823250 336.145172
   vertex -42.616043 36.453426 334.238983
  endloop
 facet normal -0.665659 -0.543169 0.511727
  outer loop
   vertex -42.616043 36.453426 334.238983
   vertex -41.452427 36.823250 336.145172
   vertex -42.436367 37.479301 335.561615
  endloop
 facet normal -0.665659 -0.543165 0.511731
  outer loop
   vertex -42.436367 37.479301 335.561615
   vertex -41.452427 36.823250 336.145172
   vertex -41.924011 37.809456 336.578522
  endloop
 facet normal -0.665658 -0.543167 0.511731
  outer loop
   vertex -41.924011 37.809456 336.578522
   vertex -43.420307 38.135349 334.978058
   vertex -42.436367 37.479301 335.561615
  endloop
 facet normal -0.665651 -0.543186 0.511720
  outer loop
   vertex -40.842350 37.971123 338.157166
   vertex -43.420307 38.135349 334.978058
   vertex -41.924011 37.809456 336.578522
  endloop
 facet normal -0.401035 0.838665 0.368526
  outer loop
   vertex -40.621155 38.151615 337.987122
   vertex -43.420307 38.135349 334.978058
   vertex -40.842350 37.971123 338.157166
  endloop
 facet normal -0.565604 -0.543137 0.620559
  outer loop
   vertex -39.020222 36.644440 338.925934
   vertex -38.555538 35.672665 338.498932
   vertex -38.948322 36.648472 338.994995
  endloop
 facet normal -0.565604 -0.543137 0.620559
  outer loop
   vertex -38.948322 36.648472 338.994995
   vertex -38.555538 35.672665 338.498932
   vertex -38.483639 35.676697 338.567993
  endloop
 facet normal 0.629380 -0.040049 0.776065
  outer loop
   vertex -38.483639 35.676697 338.567993
   vertex -38.377823 35.763039 338.486633
   vertex -38.948322 36.648472 338.994995
  endloop
 facet normal 0.400998 -0.838689 -0.368511
  outer loop
   vertex -38.555538 35.672665 338.498932
   vertex -38.377823 35.763039 338.486633
   vertex -38.483639 35.676697 338.567993
  endloop
 facet normal 0.400988 -0.838676 -0.368553
  outer loop
   vertex -38.387474 35.801178 338.389343
   vertex -38.377823 35.763039 338.486633
   vertex -38.555538 35.672665 338.498932
  endloop
 facet normal 0.401016 -0.838679 -0.368516
  outer loop
   vertex -38.555538 35.672665 338.498932
   vertex -38.917141 35.834919 337.736176
   vertex -38.387474 35.801178 338.389343
  endloop
 facet normal 0.665652 0.543174 -0.511731
  outer loop
   vertex -38.387474 35.801178 338.389343
   vertex -38.917141 35.834919 337.736176
   vertex -38.852158 36.772953 338.816376
  endloop
 facet normal 0.665666 0.543164 -0.511724
  outer loop
   vertex -38.852158 36.772953 338.816376
   vertex -38.917141 35.834919 337.736176
   vertex -39.381828 36.806694 338.163177
  endloop
 facet normal -0.401054 0.838654 0.368531
  outer loop
   vertex -39.381828 36.806694 338.163177
   vertex -39.020222 36.644440 338.925934
   vertex -38.852158 36.772953 338.816376
  endloop
 facet normal -0.401036 0.838666 0.368524
  outer loop
   vertex -40.488834 35.903393 339.014191
   vertex -39.020222 36.644440 338.925934
   vertex -39.381828 36.806694 338.163177
  endloop
 facet normal -0.401037 0.838668 0.368517
  outer loop
   vertex -39.810715 35.999413 339.533630
   vertex -39.020222 36.644440 338.925934
   vertex -40.488834 35.903393 339.014191
  endloop
 facet normal -0.401035 0.838671 0.368514
  outer loop
   vertex -40.488834 35.903393 339.014191
   vertex -39.959167 35.869652 339.667389
   vertex -39.810715 35.999413 339.533630
  endloop
 facet normal -0.401010 0.838671 0.368541
  outer loop
   vertex -39.810715 35.999413 339.533630
   vertex -39.959167 35.869652 339.667389
   vertex -39.864208 35.901123 339.699097
  endloop
 facet normal -0.142875 -0.454645 0.879139
  outer loop
   vertex -39.864208 35.901123 339.699097
   vertex -39.959167 35.869652 339.667389
   vertex -39.399525 34.929348 339.272064
  endloop
 facet normal 0.629389 -0.040066 0.776057
  outer loop
   vertex -39.399525 34.929348 339.272064
   vertex -39.758392 35.987469 339.617737
   vertex -39.864208 35.901123 339.699097
  endloop
 facet normal 0.629271 -0.040136 0.776149
  outer loop
   vertex -39.293705 35.015694 339.190735
   vertex -39.758392 35.987469 339.617737
   vertex -39.399525 34.929348 339.272064
  endloop
 facet normal 0.751112 0.531333 -0.391811
  outer loop
   vertex -39.810715 35.999413 339.533630
   vertex -39.758392 35.987469 339.617737
   vertex -39.293705 35.015694 339.190735
  endloop
 facet normal 0.751171 0.531327 -0.391706
  outer loop
   vertex -39.293705 35.015694 339.190735
   vertex -39.346027 35.027637 339.106598
   vertex -39.810715 35.999413 339.533630
  endloop
 facet normal 0.629333 -0.040109 0.776100
  outer loop
   vertex -39.810715 35.999413 339.533630
   vertex -39.346027 35.027637 339.106598
   vertex -38.555538 35.672665 338.498932
  endloop
 facet normal 0.401033 -0.838662 -0.368537
  outer loop
   vertex -38.555538 35.672665 338.498932
   vertex -39.346027 35.027637 339.106598
   vertex -40.024151 34.931618 338.587189
  endloop
 facet normal 0.401036 -0.838666 -0.368523
  outer loop
   vertex -40.024151 34.931618 338.587189
   vertex -38.917141 35.834919 337.736176
   vertex -38.555538 35.672665 338.498932
  endloop
 facet normal 0.401034 -0.838666 -0.368526
  outer loop
   vertex -39.547157 35.727901 337.294128
   vertex -38.917141 35.834919 337.736176
   vertex -40.024151 34.931618 338.587189
  endloop
 facet normal 0.426358 0.526938 -0.735225
  outer loop
   vertex -39.381828 36.806694 338.163177
   vertex -38.917141 35.834919 337.736176
   vertex -39.547157 35.727901 337.294128
  endloop
 facet normal 0.426358 0.526938 -0.735225
  outer loop
   vertex -39.547157 35.727901 337.294128
   vertex -40.011845 36.699677 337.721130
   vertex -39.381828 36.806694 338.163177
  endloop
 facet normal -0.401036 0.838664 0.368529
  outer loop
   vertex -39.381828 36.806694 338.163177
   vertex -40.011845 36.699677 337.721130
   vertex -40.784290 36.069370 338.314941
  endloop
 facet normal -0.629332 0.040086 -0.776102
  outer loop
   vertex -40.784290 36.069370 338.314941
   vertex -40.011845 36.699677 337.721130
   vertex -39.547157 35.727901 337.294128
  endloop
 facet normal -0.629331 0.040089 -0.776103
  outer loop
   vertex -39.547157 35.727901 337.294128
   vertex -40.319607 35.097595 337.887939
   vertex -40.784290 36.069370 338.314941
  endloop
 facet normal 0.401040 -0.838665 -0.368522
  outer loop
   vertex -40.024151 34.931618 338.587189
   vertex -40.319607 35.097595 337.887939
   vertex -39.547157 35.727901 337.294128
  endloop
 facet normal -0.833424 -0.501008 0.233227
  outer loop
   vertex -40.784290 36.069370 338.314941
   vertex -40.319607 35.097595 337.887939
   vertex -40.024151 34.931618 338.587189
  endloop
 facet normal -0.833424 -0.501008 0.233227
  outer loop
   vertex -40.024151 34.931618 338.587189
   vertex -40.488834 35.903393 339.014191
   vertex -40.784290 36.069370 338.314941
  endloop
 facet normal -0.401038 0.838666 0.368522
  outer loop
   vertex -40.784290 36.069370 338.314941
   vertex -40.488834 35.903393 339.014191
   vertex -39.381828 36.806694 338.163177
  endloop
 facet normal 0.401039 -0.838666 -0.368520
  outer loop
   vertex -29.486834 16.113731 329.070343
   vertex -30.593842 15.210430 329.921356
   vertex -30.889297 15.376406 329.222107
  endloop
 facet normal -0.833423 -0.501009 0.233228
  outer loop
   vertex -30.889297 15.376406 329.222107
   vertex -30.593842 15.210430 329.921356
   vertex -31.058527 16.182205 330.348358
  endloop
 facet normal -0.833417 -0.501017 0.233234
  outer loop
   vertex -31.058527 16.182205 330.348358
   vertex -31.353983 16.348181 329.649139
   vertex -30.889297 15.376406 329.222107
  endloop
 facet normal -0.401023 0.838669 0.368530
  outer loop
   vertex -30.581533 16.978487 329.055298
   vertex -31.353983 16.348181 329.649139
   vertex -31.058527 16.182205 330.348358
  endloop
 facet normal -0.629353 0.040094 -0.776085
  outer loop
   vertex -30.889297 15.376406 329.222107
   vertex -31.353983 16.348181 329.649139
   vertex -30.581533 16.978487 329.055298
  endloop
 facet normal -0.629331 0.040088 -0.776103
  outer loop
   vertex -30.581533 16.978487 329.055298
   vertex -30.116848 16.006712 328.628296
   vertex -30.889297 15.376406 329.222107
  endloop
 facet normal 0.401037 -0.838664 -0.368526
  outer loop
   vertex -30.889297 15.376406 329.222107
   vertex -30.116848 16.006712 328.628296
   vertex -29.486834 16.113731 329.070343
  endloop
 facet normal 0.426358 0.526938 -0.735225
  outer loop
   vertex -29.486834 16.113731 329.070343
   vertex -30.116848 16.006712 328.628296
   vertex -30.581533 16.978487 329.055298
  endloop
 facet normal 0.426358 0.526938 -0.735225
  outer loop
   vertex -30.581533 16.978487 329.055298
   vertex -29.951519 17.085506 329.497345
   vertex -29.486834 16.113731 329.070343
  endloop
 facet normal -0.401036 0.838666 0.368523
  outer loop
   vertex -31.058527 16.182205 330.348358
   vertex -29.951519 17.085506 329.497345
   vertex -30.581533 16.978487 329.055298
  endloop
 facet normal -0.401036 0.838666 0.368523
  outer loop
   vertex -29.589914 16.923252 330.260101
   vertex -29.951519 17.085506 329.497345
   vertex -31.058527 16.182205 330.348358
  endloop
 facet normal -0.401037 0.838667 0.368520
  outer loop
   vertex -31.058527 16.182205 330.348358
   vertex -30.380404 16.278225 330.867798
   vertex -29.589914 16.923252 330.260101
  endloop
 facet normal 0.629338 -0.040082 0.776097
  outer loop
   vertex -29.589914 16.923252 330.260101
   vertex -30.380404 16.278225 330.867798
   vertex -29.915718 15.306449 330.440796
  endloop
 facet normal 0.751126 0.531329 -0.391791
  outer loop
   vertex -29.915718 15.306449 330.440796
   vertex -30.380404 16.278225 330.867798
   vertex -30.328083 16.266279 330.951904
  endloop
 facet normal 0.751123 0.531330 -0.391795
  outer loop
   vertex -30.328083 16.266279 330.951904
   vertex -29.863398 15.294504 330.524902
   vertex -29.915718 15.306449 330.440796
  endloop
 facet normal 0.629380 -0.040048 0.776065
  outer loop
   vertex -30.433899 16.179935 331.033264
   vertex -29.863398 15.294504 330.524902
   vertex -30.328083 16.266279 330.951904
  endloop
 facet normal 0.629380 -0.040048 0.776065
  outer loop
   vertex -29.969213 15.208159 330.606262
   vertex -29.863398 15.294504 330.524902
   vertex -30.433899 16.179935 331.033264
  endloop
 facet normal -0.143115 -0.454702 0.879070
  outer loop
   vertex -30.433899 16.179935 331.033264
   vertex -30.064173 15.176688 330.574524
   vertex -29.969213 15.208159 330.606262
  endloop
 facet normal 0.401104 -0.838647 -0.368492
  outer loop
   vertex -29.969213 15.208159 330.606262
   vertex -30.064173 15.176688 330.574524
   vertex -29.915718 15.306449 330.440796
  endloop
 facet normal 0.401054 -0.838647 -0.368547
  outer loop
   vertex -29.915718 15.306449 330.440796
   vertex -30.064173 15.176688 330.574524
   vertex -30.593842 15.210430 329.921356
  endloop
 facet normal 0.401036 -0.838667 -0.368520
  outer loop
   vertex -30.593842 15.210430 329.921356
   vertex -29.125229 15.951476 329.833099
   vertex -29.915718 15.306449 330.440796
  endloop
 facet normal 0.401035 -0.838666 -0.368524
  outer loop
   vertex -29.486834 16.113731 329.070343
   vertex -29.125229 15.951476 329.833099
   vertex -30.593842 15.210430 329.921356
  endloop
 facet normal 0.401012 -0.838681 -0.368516
  outer loop
   vertex -28.957165 16.079988 329.723511
   vertex -29.125229 15.951476 329.833099
   vertex -29.486834 16.113731 329.070343
  endloop
 facet normal 0.665657 0.543164 -0.511736
  outer loop
   vertex -29.486834 16.113731 329.070343
   vertex -29.951519 17.085506 329.497345
   vertex -28.957165 16.079988 329.723511
  endloop
 facet normal 0.665663 0.543175 -0.511717
  outer loop
   vertex -28.957165 16.079988 329.723511
   vertex -29.951519 17.085506 329.497345
   vertex -29.421850 17.051764 330.150543
  endloop
 facet normal -0.401049 0.838658 0.368528
  outer loop
   vertex -29.421850 17.051764 330.150543
   vertex -29.951519 17.085506 329.497345
   vertex -29.589914 16.923252 330.260101
  endloop
 facet normal -0.401049 0.838658 0.368527
  outer loop
   vertex -29.589914 16.923252 330.260101
   vertex -29.412197 17.013628 330.247833
   vertex -29.421850 17.051764 330.150543
  endloop
 facet normal -0.401035 0.838639 0.368587
  outer loop
   vertex -29.518013 16.927282 330.329163
   vertex -29.412197 17.013628 330.247833
   vertex -29.589914 16.923252 330.260101
  endloop
 facet normal 0.629282 -0.040129 0.776141
  outer loop
   vertex -29.053329 15.955507 329.902161
   vertex -29.412197 17.013628 330.247833
   vertex -29.518013 16.927282 330.329163
  endloop
 facet normal -0.565604 -0.543137 0.620560
  outer loop
   vertex -29.518013 16.927282 330.329163
   vertex -29.589914 16.923252 330.260101
   vertex -29.053329 15.955507 329.902161
  endloop
 facet normal -0.565608 -0.543138 0.620556
  outer loop
   vertex -29.053329 15.955507 329.902161
   vertex -29.589914 16.923252 330.260101
   vertex -29.125229 15.951476 329.833099
  endloop
 facet normal 0.629338 -0.040082 0.776097
  outer loop
   vertex -29.125229 15.951476 329.833099
   vertex -29.589914 16.923252 330.260101
   vertex -29.915718 15.306449 330.440796
  endloop
 facet normal 0.665659 0.543165 -0.511731
  outer loop
   vertex -41.231232 37.003742 335.975128
   vertex -43.199112 38.315845 334.808014
   vertex -41.702816 37.989948 336.408478
  endloop
 facet normal 0.665652 0.543184 -0.511721
  outer loop
   vertex -41.702816 37.989948 336.408478
   vertex -43.199112 38.315845 334.808014
   vertex -40.621155 38.151615 337.987122
  endloop
 facet normal 0.401066 -0.838688 -0.368441
  outer loop
   vertex -28.957165 16.079988 329.723511
   vertex -28.947512 16.041851 329.820831
   vertex -29.125229 15.951476 329.833099
  endloop
 facet normal 0.401037 -0.838647 -0.368565
  outer loop
   vertex -29.125229 15.951476 329.833099
   vertex -28.947512 16.041851 329.820831
   vertex -29.053329 15.955507 329.902161
  endloop
 facet normal -0.401040 0.838653 0.368549
  outer loop
   vertex -38.852158 36.772953 338.816376
   vertex -39.020222 36.644440 338.925934
   vertex -38.842506 36.734814 338.913666
  endloop
 facet normal -0.401039 0.838651 0.368555
  outer loop
   vertex -38.842506 36.734814 338.913666
   vertex -39.020222 36.644440 338.925934
   vertex -38.948322 36.648472 338.994995
  endloop
 facet normal 0.400983 -0.838680 -0.368550
  outer loop
   vertex -29.969213 15.208159 330.606262
   vertex -29.915718 15.306449 330.440796
   vertex -29.863398 15.294504 330.524902
  endloop
 facet normal -0.400987 0.838677 0.368552
  outer loop
   vertex -39.864208 35.901123 339.699097
   vertex -39.758392 35.987469 339.617737
   vertex -39.810715 35.999413 339.533630
  endloop
 facet normal -0.665662 -0.543171 0.511723
  outer loop
   vertex -32.274025 14.825627 324.735352
   vertex -31.875393 15.393601 325.856781
   vertex -33.078293 16.507551 325.474426
  endloop
 facet normal 0.629338 -0.040084 0.776098
  outer loop
   vertex -39.810715 35.999413 339.533630
   vertex -38.555538 35.672665 338.498932
   vertex -39.020222 36.644440 338.925934
  endloop
 facet normal 0.629341 -0.040023 0.776098
  outer loop
   vertex -40.665215 36.022930 338.228180
   vertex -40.532581 35.745556 338.106323
   vertex -39.793976 36.733818 337.558350
  endloop
 facet normal 0.629372 -0.040082 0.776070
  outer loop
   vertex -30.865408 15.529029 329.222809
   vertex -29.994209 16.240002 328.553009
   vertex -30.998041 15.806396 329.344696
  endloop
 facet normal -0.665546 -0.543176 0.511869
  outer loop
   vertex -30.771999 15.690070 330.107819
   vertex -30.727558 15.687239 330.162598
   vertex -40.187496 35.470387 338.855652
  endloop
 facet normal 0.401028 -0.838680 -0.368500
  outer loop
   vertex -40.532581 35.745556 338.106323
   vertex -42.393196 36.630424 334.067566
   vertex -39.661331 36.456455 337.436523
  endloop
 facet normal 0.665654 0.543182 -0.511720
  outer loop
   vertex -30.111912 16.513163 328.689728
   vertex -30.105137 16.068781 328.226837
   vertex -31.255564 16.142069 326.808136
  endloop
endsolid