solid stl file generated from DOUG
 facet normal 0.125661 0.569094 0.812614
  outer loop
   vertex -76.691246 198.408188 528.822937
   vertex -76.609039 198.313690 528.876404
   vertex -55.777252 209.985596 517.480896
  endloop
 facet normal 0.560229 -0.220284 0.798510
  outer loop
   vertex -55.777252 209.985596 517.480896
   vertex -76.609039 198.313690 528.876404
   vertex -55.750813 209.896194 517.437683
  endloop
 facet normal 0.539714 -0.830851 0.135632
  outer loop
   vertex -56.143646 211.040985 517.892090
   vertex -56.103058 211.087189 518.013611
   vertex -76.934845 199.415283 529.409119
  endloop
 facet normal 0.560359 -0.220725 0.798297
  outer loop
   vertex -76.934845 199.415283 529.409119
   vertex -56.103058 211.087189 518.013611
   vertex -56.129498 211.176575 518.056885
  endloop
 facet normal 0.560230 -0.220295 0.798506
  outer loop
   vertex -56.129498 211.176575 518.056885
   vertex -76.961288 199.504669 529.452332
   vertex -76.934845 199.415283 529.409119
  endloop
 facet normal 0.430240 0.107215 0.896325
  outer loop
   vertex -56.540020 211.338089 517.471802
   vertex -77.371811 199.666183 528.867310
   vertex -56.525169 211.308090 517.468262
  endloop
 facet normal 0.430934 0.105809 0.896159
  outer loop
   vertex -56.525169 211.308090 517.468262
   vertex -77.371811 199.666183 528.867310
   vertex -77.356956 199.636185 528.863708
  endloop
 facet normal -0.257284 0.869945 0.420715
  outer loop
   vertex -77.356956 199.636185 528.863708
   vertex -77.034714 199.509399 529.322937
   vertex -56.525169 211.308090 517.468262
  endloop
 facet normal 0.125663 0.569091 0.812615
  outer loop
   vertex -55.777252 209.985596 517.480896
   vertex -55.859455 210.080093 517.427429
   vertex -76.691246 198.408188 528.822937
  endloop
 facet normal 0.560265 -0.220406 0.798451
  outer loop
   vertex -76.691246 198.408188 528.822937
   vertex -55.859455 210.080093 517.427429
   vertex -56.143646 211.040985 517.892090
  endloop
 facet normal 0.560265 -0.220408 0.798450
  outer loop
   vertex -56.143646 211.040985 517.892090
   vertex -76.975433 199.369080 529.287598
   vertex -76.691246 198.408188 528.822937
  endloop
 facet normal 0.539714 -0.830851 0.135632
  outer loop
   vertex -76.934845 199.415283 529.409119
   vertex -76.975433 199.369080 529.287598
   vertex -56.143646 211.040985 517.892090
  endloop
 facet normal -0.257277 0.869942 0.420724
  outer loop
   vertex -76.961288 199.504669 529.452332
   vertex -56.129498 211.176575 518.056885
   vertex -77.036034 199.534073 529.345825
  endloop
 facet normal -0.257380 0.869984 0.420576
  outer loop
   vertex -77.036034 199.534073 529.345825
   vertex -56.129498 211.176575 518.056885
   vertex -56.204247 211.205978 517.950317
  endloop
 facet normal -0.615295 0.518167 -0.594066
  outer loop
   vertex -56.204247 211.205978 517.950317
   vertex -77.034714 199.509399 529.322937
   vertex -77.036034 199.534073 529.345825
  endloop
 facet normal -0.615251 0.517378 -0.594799
  outer loop
   vertex -56.202927 211.181305 517.927490
   vertex -77.034714 199.509399 529.322937
   vertex -56.204247 211.205978 517.950317
  endloop
 facet normal -0.257284 0.869945 0.420715
  outer loop
   vertex -56.525169 211.308090 517.468262
   vertex -77.034714 199.509399 529.322937
   vertex -56.202927 211.181305 517.927490
  endloop
 facet normal 0.787335 0.441134 -0.430703
  outer loop
   vertex -55.408955 210.060471 517.266602
   vertex -56.267311 211.555756 517.229004
   vertex -55.796406 211.370499 517.900085
  endloop
 facet normal -0.257287 0.869952 0.420698
  outer loop
   vertex -55.796406 211.370499 517.900085
   vertex -56.267311 211.555756 517.229004
   vertex -56.583744 210.929352 518.330811
  endloop
 facet normal 0.560293 -0.220418 0.798428
  outer loop
   vertex -56.583744 210.929352 518.330811
   vertex -56.196293 209.619324 517.697266
   vertex -55.796406 211.370499 517.900085
  endloop
 facet normal -0.787348 -0.441142 0.430671
  outer loop
   vertex -57.054649 211.114609 517.659668
   vertex -56.196293 209.619324 517.697266
   vertex -56.583744 210.929352 518.330811
  endloop
 facet normal -0.787335 -0.441134 0.430703
  outer loop
   vertex -56.667198 209.804581 517.026184
   vertex -56.196293 209.619324 517.697266
   vertex -57.054649 211.114609 517.659668
  endloop
 facet normal -0.560246 0.220412 -0.798463
  outer loop
   vertex -57.054649 211.114609 517.659668
   vertex -56.267311 211.555756 517.229004
   vertex -56.667198 209.804581 517.026184
  endloop
 facet normal -0.560293 0.220418 -0.798428
  outer loop
   vertex -56.667198 209.804581 517.026184
   vertex -56.267311 211.555756 517.229004
   vertex -55.879860 210.245728 516.595459
  endloop
 facet normal 0.787348 0.441142 -0.430671
  outer loop
   vertex -55.879860 210.245728 516.595459
   vertex -56.267311 211.555756 517.229004
   vertex -55.408955 210.060471 517.266602
  endloop
 facet normal 0.257324 -0.869948 -0.420684
  outer loop
   vertex -55.408955 210.060471 517.266602
   vertex -56.196293 209.619324 517.697266
   vertex -55.879860 210.245728 516.595459
  endloop
 facet normal 0.560246 -0.220412 0.798463
  outer loop
   vertex -55.796406 211.370499 517.900085
   vertex -56.196293 209.619324 517.697266
   vertex -55.408955 210.060471 517.266602
  endloop
 facet normal 0.787333 0.441134 -0.430706
  outer loop
   vertex -76.494843 199.773300 529.222595
   vertex -76.107391 198.463272 528.589111
   vertex -76.965752 199.958557 528.551514
  endloop
 facet normal 0.787333 0.441134 -0.430706
  outer loop
   vertex -76.965752 199.958557 528.551514
   vertex -76.107391 198.463272 528.589111
   vertex -76.578300 198.648529 527.918030
  endloop
 facet normal -0.560243 0.220413 -0.798464
  outer loop
   vertex -76.578300 198.648529 527.918030
   vertex -77.365639 198.207397 528.348694
   vertex -76.965752 199.958557 528.551514
  endloop
 facet normal 0.257296 -0.869947 -0.420704
  outer loop
   vertex -76.107391 198.463272 528.589111
   vertex -77.365639 198.207397 528.348694
   vertex -76.578300 198.648529 527.918030
  endloop
 facet normal 0.257297 -0.869937 -0.420722
  outer loop
   vertex -76.894730 198.022125 529.019775
   vertex -77.365639 198.207397 528.348694
   vertex -76.107391 198.463272 528.589111
  endloop
 facet normal 0.560254 -0.220440 0.798449
  outer loop
   vertex -76.107391 198.463272 528.589111
   vertex -77.282181 199.332153 529.653320
   vertex -76.894730 198.022125 529.019775
  endloop
 facet normal -0.787333 -0.441148 0.430692
  outer loop
   vertex -76.894730 198.022125 529.019775
   vertex -77.282181 199.332153 529.653320
   vertex -77.365639 198.207397 528.348694
  endloop
 facet normal -0.787333 -0.441148 0.430692
  outer loop
   vertex -77.365639 198.207397 528.348694
   vertex -77.282181 199.332153 529.653320
   vertex -77.753090 199.517426 528.982239
  endloop
 facet normal -0.560290 0.220420 -0.798430
  outer loop
   vertex -77.753090 199.517426 528.982239
   vertex -76.965752 199.958557 528.551514
   vertex -77.365639 198.207397 528.348694
  endloop
 facet normal -0.257267 0.869954 0.420705
  outer loop
   vertex -77.282181 199.332153 529.653320
   vertex -76.965752 199.958557 528.551514
   vertex -77.753090 199.517426 528.982239
  endloop
 facet normal -0.257286 0.869952 0.420699
  outer loop
   vertex -76.494843 199.773300 529.222595
   vertex -76.965752 199.958557 528.551514
   vertex -77.282181 199.332153 529.653320
  endloop
 facet normal 0.560284 -0.220390 0.798442
  outer loop
   vertex -77.282181 199.332153 529.653320
   vertex -76.107391 198.463272 528.589111
   vertex -76.494843 199.773300 529.222595
  endloop
 facet normal 0.560355 -0.220716 0.798303
  outer loop
   vertex -76.609039 198.313690 528.876404
   vertex -76.582603 198.224289 528.833130
   vertex -55.750813 209.896194 517.437683
  endloop
 facet normal 0.257213 -0.869917 -0.420815
  outer loop
   vertex -55.750813 209.896194 517.437683
   vertex -76.582603 198.224289 528.833130
   vertex -76.657356 198.253708 528.726624
  endloop
 facet normal 0.257213 -0.869917 -0.420815
  outer loop
   vertex -76.657356 198.253708 528.726624
   vertex -55.825565 209.925613 517.331177
   vertex -55.750813 209.896194 517.437683
  endloop
 facet normal -0.430956 -0.105765 -0.896153
  outer loop
   vertex -76.672203 198.283691 528.730225
   vertex -55.825565 209.925613 517.331177
   vertex -76.657356 198.253708 528.726624
  endloop
 facet normal -0.430240 -0.107215 -0.896325
  outer loop
   vertex -55.840416 209.955612 517.334717
   vertex -55.825565 209.925613 517.331177
   vertex -76.672203 198.283691 528.730225
  endloop
 facet normal 0.257284 -0.869945 -0.420714
  outer loop
   vertex -76.672203 198.283691 528.730225
   vertex -76.994446 198.410477 528.270996
   vertex -55.840416 209.955612 517.334717
  endloop
 facet normal 0.257297 -0.869951 -0.420694
  outer loop
   vertex -55.840416 209.955612 517.334717
   vertex -76.994446 198.410477 528.270996
   vertex -56.162655 210.082382 516.875488
  endloop
 facet normal 0.615295 -0.518167 0.594066
  outer loop
   vertex -56.162655 210.082382 516.875488
   vertex -76.994446 198.410477 528.270996
   vertex -76.993126 198.385803 528.248108
  endloop
 facet normal 0.615251 -0.517378 0.594799
  outer loop
   vertex -76.993126 198.385803 528.248108
   vertex -56.161335 210.057709 516.852661
   vertex -56.162655 210.082382 516.875488
  endloop
 facet normal 0.257330 -0.869963 -0.420648
  outer loop
   vertex -77.030212 198.400391 528.195251
   vertex -56.161335 210.057709 516.852661
   vertex -76.993126 198.385803 528.248108
  endloop
 facet normal 0.257322 -0.869960 -0.420660
  outer loop
   vertex -56.198425 210.072296 516.799805
   vertex -56.161335 210.057709 516.852661
   vertex -77.030212 198.400391 528.195251
  endloop
 facet normal -0.560269 0.220428 -0.798442
  outer loop
   vertex -77.030212 198.400391 528.195251
   vertex -77.408897 199.680771 528.814453
   vertex -56.198425 210.072296 516.799805
  endloop
 facet normal -0.560263 0.220399 -0.798455
  outer loop
   vertex -56.198425 210.072296 516.799805
   vertex -77.408897 199.680771 528.814453
   vertex -56.577106 211.352676 517.418945
  endloop
 facet normal -0.257330 0.869964 0.420648
  outer loop
   vertex -56.577106 211.352676 517.418945
   vertex -77.408897 199.680771 528.814453
   vertex -56.540020 211.338089 517.471802
  endloop
 facet normal -0.257324 0.869948 0.420684
  outer loop
   vertex -57.054649 211.114609 517.659668
   vertex -56.583744 210.929352 518.330811
   vertex -56.267311 211.555756 517.229004
  endloop
 facet normal 0.257287 -0.869952 -0.420698
  outer loop
   vertex -56.196293 209.619324 517.697266
   vertex -56.667198 209.804581 517.026184
   vertex -55.879860 210.245728 516.595459
  endloop
 facet normal -0.257330 0.869964 0.420648
  outer loop
   vertex -77.408897 199.680771 528.814453
   vertex -77.371811 199.666183 528.867310
   vertex -56.540020 211.338089 517.471802
  endloop
 facet normal -0.197889 -0.734186 0.649470
  outer loop
   vertex -77.862251 199.195251 527.791931
   vertex -79.013023 199.084824 527.316467
   vertex -77.759117 199.073776 527.686035
  endloop
 facet normal -0.197898 -0.734154 0.649503
  outer loop
   vertex -77.759117 199.073776 527.686035
   vertex -79.013023 199.084824 527.316467
   vertex -78.600487 198.598877 526.892883
  endloop
 facet normal 0.266822 -0.924930 0.270759
  outer loop
   vertex -78.600487 198.598877 526.892883
   vertex -77.601097 199.088058 527.579102
   vertex -77.759117 199.073776 527.686035
  endloop
 facet normal 0.266832 -0.924931 0.270744
  outer loop
   vertex -77.968391 198.656006 526.465088
   vertex -77.601097 199.088058 527.579102
   vertex -78.600487 198.598877 526.892883
  endloop
 facet normal 0.762124 -0.647431 -0.000179
  outer loop
   vertex -77.480751 199.229736 527.533752
   vertex -77.601097 199.088058 527.579102
   vertex -77.968391 198.656006 526.465088
  endloop
 facet normal 0.762147 -0.647404 -0.000204
  outer loop
   vertex -77.968391 198.656006 526.465088
   vertex -77.487022 199.222748 526.283752
   vertex -77.480751 199.229736 527.533752
  endloop
 facet normal 0.997930 -0.064144 -0.004648
  outer loop
   vertex -77.480751 199.229736 527.533752
   vertex -77.487022 199.222748 526.283752
   vertex -77.468590 199.415833 527.576599
  endloop
 facet normal 0.997927 -0.064189 -0.004641
  outer loop
   vertex -77.468590 199.415833 527.576599
   vertex -77.487022 199.222748 526.283752
   vertex -77.438347 199.967102 526.455139
  endloop
 facet normal 0.836044 0.483128 0.260034
  outer loop
   vertex -77.438347 199.967102 526.455139
   vertex -77.571724 199.537308 527.682495
   vertex -77.468590 199.415833 527.576599
  endloop
 facet normal 0.836050 0.483118 0.260032
  outer loop
   vertex -77.850891 200.453033 526.878723
   vertex -77.571724 199.537308 527.682495
   vertex -77.438347 199.967102 526.455139
  endloop
 facet normal 0.371344 0.673868 0.638753
  outer loop
   vertex -77.729744 199.523026 527.789429
   vertex -77.571724 199.537308 527.682495
   vertex -77.850891 200.453033 526.878723
  endloop
 facet normal 0.371391 0.673858 0.638736
  outer loop
   vertex -77.850891 200.453033 526.878723
   vertex -78.482979 200.395905 527.306519
   vertex -77.729744 199.523026 527.789429
  endloop
 facet normal -0.123861 0.396391 0.909688
  outer loop
   vertex -77.729744 199.523026 527.789429
   vertex -78.482979 200.395905 527.306519
   vertex -77.850090 199.381348 527.834778
  endloop
 facet normal -0.123937 0.396348 0.909697
  outer loop
   vertex -77.850090 199.381348 527.834778
   vertex -78.482979 200.395905 527.306519
   vertex -78.964355 199.829178 527.487854
  endloop
 facet normal -0.359751 -0.186958 0.914126
  outer loop
   vertex -78.964355 199.829178 527.487854
   vertex -77.862251 199.195251 527.791931
   vertex -77.850090 199.381348 527.834778
  endloop
 facet normal -0.359749 -0.186955 0.914127
  outer loop
   vertex -79.013023 199.084824 527.316467
   vertex -77.862251 199.195251 527.791931
   vertex -78.964355 199.829178 527.487854
  endloop
 facet normal -0.628937 -0.740487 0.236892
  outer loop
   vertex -56.663624 210.543732 517.289612
   vertex -57.223892 210.764160 516.491150
   vertex -56.560490 210.422256 517.183716
  endloop
 facet normal -0.628962 -0.740452 0.236934
  outer loop
   vertex -56.560490 210.422256 517.183716
   vertex -57.223892 210.764160 516.491150
   vertex -57.120758 210.642670 516.385254
  endloop
 facet normal -0.063582 -0.972546 -0.223854
  outer loop
   vertex -57.120758 210.642670 516.385254
   vertex -56.402466 210.436539 517.076782
   vertex -56.560490 210.422256 517.183716
  endloop
 facet normal -0.063582 -0.972546 -0.223854
  outer loop
   vertex -56.962734 210.656952 516.278320
   vertex -56.402466 210.436539 517.076782
   vertex -57.120758 210.642670 516.385254
  endloop
 facet normal 0.538972 -0.634965 -0.553469
  outer loop
   vertex -56.282124 210.578217 517.031433
   vertex -56.402466 210.436539 517.076782
   vertex -56.962734 210.656952 516.278320
  endloop
 facet normal 0.538972 -0.634965 -0.553469
  outer loop
   vertex -56.962734 210.656952 516.278320
   vertex -56.842392 210.798630 516.232971
   vertex -56.282124 210.578217 517.031433
  endloop
 facet normal 0.825873 0.074674 -0.558889
  outer loop
   vertex -56.282124 210.578217 517.031433
   vertex -56.842392 210.798630 516.232971
   vertex -56.269955 210.764313 517.074280
  endloop
 facet normal 0.825873 0.074674 -0.558889
  outer loop
   vertex -56.269955 210.764313 517.074280
   vertex -56.842392 210.798630 516.232971
   vertex -56.830223 210.984726 516.275818
  endloop
 facet normal 0.628924 0.740497 -0.236894
  outer loop
   vertex -56.830223 210.984726 516.275818
   vertex -56.373093 210.885788 517.180176
   vertex -56.269955 210.764313 517.074280
  endloop
 facet normal 0.628932 0.740489 -0.236899
  outer loop
   vertex -56.933357 211.106201 516.381714
   vertex -56.373093 210.885788 517.180176
   vertex -56.830223 210.984726 516.275818
  endloop
 facet normal 0.063583 0.972546 0.223854
  outer loop
   vertex -56.531113 210.871506 517.287109
   vertex -56.373093 210.885788 517.180176
   vertex -56.933357 211.106201 516.381714
  endloop
 facet normal 0.063582 0.972546 0.223854
  outer loop
   vertex -56.933357 211.106201 516.381714
   vertex -57.091381 211.091919 516.488647
   vertex -56.531113 210.871506 517.287109
  endloop
 facet normal -0.538966 0.634973 0.553466
  outer loop
   vertex -56.531113 210.871506 517.287109
   vertex -57.091381 211.091919 516.488647
   vertex -56.651459 210.729828 517.332458
  endloop
 facet normal -0.538974 0.634966 0.553467
  outer loop
   vertex -56.651459 210.729828 517.332458
   vertex -57.091381 211.091919 516.488647
   vertex -57.211723 210.950241 516.533997
  endloop
 facet normal -0.825876 -0.074689 0.558883
  outer loop
   vertex -57.211723 210.950241 516.533997
   vertex -56.663624 210.543732 517.289612
   vertex -56.651459 210.729828 517.332458
  endloop
 facet normal -0.825874 -0.074680 0.558887
  outer loop
   vertex -57.223892 210.764160 516.491150
   vertex -56.663624 210.543732 517.289612
   vertex -57.211723 210.950241 516.533997
  endloop
 facet normal -0.628953 -0.740463 0.236924
  outer loop
   vertex -58.369038 210.651505 516.023743
   vertex -58.929306 210.871918 515.225281
   vertex -57.956497 210.165558 515.600159
  endloop
 facet normal -0.628951 -0.740470 0.236906
  outer loop
   vertex -57.956497 210.165558 515.600159
   vertex -58.929306 210.871918 515.225281
   vertex -58.516766 210.385986 514.801697
  endloop
 facet normal -0.063605 -0.972545 -0.223856
  outer loop
   vertex -58.516766 210.385986 514.801697
   vertex -57.324406 210.222687 515.172363
   vertex -57.956497 210.165558 515.600159
  endloop
 facet normal -0.063605 -0.972545 -0.223856
  outer loop
   vertex -57.884674 210.443115 514.373901
   vertex -57.324406 210.222687 515.172363
   vertex -58.516766 210.385986 514.801697
  endloop
 facet normal 0.539011 -0.634912 -0.553493
  outer loop
   vertex -56.843037 210.789429 514.991028
   vertex -57.324406 210.222687 515.172363
   vertex -57.884674 210.443115 514.373901
  endloop
 facet normal 0.539008 -0.634926 -0.553480
  outer loop
   vertex -57.884674 210.443115 514.373901
   vertex -57.403301 211.009842 514.192566
   vertex -56.843037 210.789429 514.991028
  endloop
 facet normal 0.825873 0.074637 -0.558895
  outer loop
   vertex -56.843037 210.789429 514.991028
   vertex -57.403301 211.009842 514.192566
   vertex -56.794365 211.533783 515.162354
  endloop
 facet normal 0.825856 0.074688 -0.558912
  outer loop
   vertex -56.794365 211.533783 515.162354
   vertex -57.403301 211.009842 514.192566
   vertex -57.354630 211.754196 514.363953
  endloop
 facet normal 0.628936 0.740478 -0.236923
  outer loop
   vertex -57.354630 211.754196 514.363953
   vertex -57.206905 212.019730 515.585999
   vertex -56.794365 211.533783 515.162354
  endloop
 facet normal 0.628954 0.740463 -0.236922
  outer loop
   vertex -57.767170 212.240143 514.787537
   vertex -57.206905 212.019730 515.585999
   vertex -57.354630 211.754196 514.363953
  endloop
 facet normal 0.063566 0.972545 0.223865
  outer loop
   vertex -57.838997 211.962585 516.013733
   vertex -57.206905 212.019730 515.585999
   vertex -57.767170 212.240143 514.787537
  endloop
 facet normal 0.063613 0.972541 0.223867
  outer loop
   vertex -57.767170 212.240143 514.787537
   vertex -58.399261 212.183014 515.215332
   vertex -57.838997 211.962585 516.013733
  endloop
 facet normal -0.538985 0.634914 0.553516
  outer loop
   vertex -57.838997 211.962585 516.013733
   vertex -58.399261 212.183014 515.215332
   vertex -58.320366 211.395859 516.195068
  endloop
 facet normal -0.538996 0.634908 0.553512
  outer loop
   vertex -58.320366 211.395859 516.195068
   vertex -58.399261 212.183014 515.215332
   vertex -58.880634 211.616272 515.396667
  endloop
 facet normal -0.825852 -0.074645 0.558925
  outer loop
   vertex -58.880634 211.616272 515.396667
   vertex -58.369038 210.651505 516.023743
   vertex -58.320366 211.395859 516.195068
  endloop
 facet normal -0.825874 -0.074681 0.558887
  outer loop
   vertex -58.929306 210.871918 515.225281
   vertex -58.369038 210.651505 516.023743
   vertex -58.880634 211.616272 515.396667
  endloop
 facet normal -0.197830 -0.734286 0.649374
  outer loop
   vertex -57.218269 210.761948 516.499207
   vertex -58.369038 210.651505 516.023743
   vertex -57.115135 210.640457 516.393250
  endloop
 facet normal -0.197872 -0.734147 0.649519
  outer loop
   vertex -57.115135 210.640457 516.393250
   vertex -58.369038 210.651505 516.023743
   vertex -57.956497 210.165558 515.600159
  endloop
 facet normal 0.266826 -0.924924 0.270774
  outer loop
   vertex -57.956497 210.165558 515.600159
   vertex -56.957111 210.654739 516.286316
   vertex -57.115135 210.640457 516.393250
  endloop
 facet normal 0.266840 -0.924926 0.270755
  outer loop
   vertex -57.324406 210.222687 515.172363
   vertex -56.957111 210.654739 516.286316
   vertex -57.956497 210.165558 515.600159
  endloop
 facet normal 0.762133 -0.647421 -0.000186
  outer loop
   vertex -56.836769 210.796417 516.241028
   vertex -56.957111 210.654739 516.286316
   vertex -57.324406 210.222687 515.172363
  endloop
 facet normal 0.762147 -0.647404 -0.000202
  outer loop
   vertex -57.324406 210.222687 515.172363
   vertex -56.843037 210.789429 514.991028
   vertex -56.836769 210.796417 516.241028
  endloop
 facet normal 0.997927 -0.064187 -0.004645
  outer loop
   vertex -56.836769 210.796417 516.241028
   vertex -56.843037 210.789429 514.991028
   vertex -56.824600 210.982513 516.283813
  endloop
 facet normal 0.997927 -0.064183 -0.004645
  outer loop
   vertex -56.824600 210.982513 516.283813
   vertex -56.843037 210.789429 514.991028
   vertex -56.794365 211.533783 515.162354
  endloop
 facet normal 0.836090 0.483067 0.260000
  outer loop
   vertex -56.794365 211.533783 515.162354
   vertex -56.927734 211.103989 516.389771
   vertex -56.824600 210.982513 516.283813
  endloop
 facet normal 0.836068 0.483099 0.260009
  outer loop
   vertex -57.206905 212.019730 515.585999
   vertex -56.927734 211.103989 516.389771
   vertex -56.794365 211.533783 515.162354
  endloop
 facet normal 0.371340 0.673864 0.638760
  outer loop
   vertex -57.085758 211.089706 516.496704
   vertex -56.927734 211.103989 516.389771
   vertex -57.206905 212.019730 515.585999
  endloop
 facet normal 0.371329 0.673866 0.638764
  outer loop
   vertex -57.206905 212.019730 515.585999
   vertex -57.838997 211.962585 516.013733
   vertex -57.085758 211.089706 516.496704
  endloop
 facet normal -0.124133 0.396236 0.909719
  outer loop
   vertex -57.085758 211.089706 516.496704
   vertex -57.838997 211.962585 516.013733
   vertex -57.206100 210.948029 516.541992
  endloop
 facet normal -0.123938 0.396347 0.909697
  outer loop
   vertex -57.206100 210.948029 516.541992
   vertex -57.838997 211.962585 516.013733
   vertex -58.320366 211.395859 516.195068
  endloop
 facet normal -0.359668 -0.186685 0.914214
  outer loop
   vertex -58.320366 211.395859 516.195068
   vertex -57.218269 210.761948 516.499207
   vertex -57.206100 210.948029 516.541992
  endloop
 facet normal -0.359760 -0.186880 0.914138
  outer loop
   vertex -58.369038 210.651505 516.023743
   vertex -57.218269 210.761948 516.499207
   vertex -58.320366 211.395859 516.195068
  endloop
 facet normal -0.628921 -0.740493 0.236914
  outer loop
   vertex -77.307610 198.977051 528.582336
   vertex -77.867882 199.197464 527.783936
   vertex -77.204475 198.855576 528.476440
  endloop
 facet normal -0.628889 -0.740538 0.236861
  outer loop
   vertex -77.204475 198.855576 528.476440
   vertex -77.867882 199.197464 527.783936
   vertex -77.764748 199.075989 527.677979
  endloop
 facet normal -0.063583 -0.972547 -0.223854
  outer loop
   vertex -77.764748 199.075989 527.677979
   vertex -77.046455 198.869858 528.369507
   vertex -77.204475 198.855576 528.476440
  endloop
 facet normal -0.063581 -0.972546 -0.223855
  outer loop
   vertex -77.606720 199.090271 527.571045
   vertex -77.046455 198.869858 528.369507
   vertex -77.764748 199.075989 527.677979
  endloop
 facet normal 0.538967 -0.634974 -0.553465
  outer loop
   vertex -76.926109 199.011536 528.324158
   vertex -77.046455 198.869858 528.369507
   vertex -77.606720 199.090271 527.571045
  endloop
 facet normal 0.539070 -0.634819 -0.553542
  outer loop
   vertex -77.606720 199.090271 527.571045
   vertex -77.486382 199.231949 527.525757
   vertex -76.926109 199.011536 528.324158
  endloop
 facet normal 0.825853 0.074688 -0.558917
  outer loop
   vertex -76.926109 199.011536 528.324158
   vertex -77.486382 199.231949 527.525757
   vertex -76.913940 199.197617 528.367004
  endloop
 facet normal 0.825861 0.074501 -0.558931
  outer loop
   vertex -76.913940 199.197617 528.367004
   vertex -77.486382 199.231949 527.525757
   vertex -77.474213 199.418045 527.568542
  endloop
 facet normal 0.628967 0.740450 -0.236926
  outer loop
   vertex -77.474213 199.418045 527.568542
   vertex -77.017075 199.319107 528.472900
   vertex -76.913940 199.197617 528.367004
  endloop
 facet normal 0.628880 0.740541 -0.236873
  outer loop
   vertex -77.577347 199.539520 527.674500
   vertex -77.017075 199.319107 528.472900
   vertex -77.474213 199.418045 527.568542
  endloop
 facet normal 0.063588 0.972543 0.223866
  outer loop
   vertex -77.175102 199.304825 528.579834
   vertex -77.017075 199.319107 528.472900
   vertex -77.577347 199.539520 527.674500
  endloop
 facet normal 0.063591 0.972543 0.223865
  outer loop
   vertex -77.577347 199.539520 527.674500
   vertex -77.735367 199.525238 527.781433
   vertex -77.175102 199.304825 528.579834
  endloop
 facet normal -0.538961 0.634950 0.553497
  outer loop
   vertex -77.175102 199.304825 528.579834
   vertex -77.735367 199.525238 527.781433
   vertex -77.295441 199.163147 528.625183
  endloop
 facet normal -0.539076 0.634842 0.553510
  outer loop
   vertex -77.295441 199.163147 528.625183
   vertex -77.735367 199.525238 527.781433
   vertex -77.855713 199.383560 527.826721
  endloop
 facet normal -0.825872 -0.074675 0.558892
  outer loop
   vertex -77.855713 199.383560 527.826721
   vertex -77.307610 198.977051 528.582336
   vertex -77.295441 199.163147 528.625183
  endloop
 facet normal -0.825841 -0.074509 0.558959
  outer loop
   vertex -77.867882 199.197464 527.783936
   vertex -77.307610 198.977051 528.582336
   vertex -77.855713 199.383560 527.826721
  endloop
 facet normal -0.825876 -0.074684 0.558884
  outer loop
   vertex -78.964355 199.829178 527.487854
   vertex -79.524620 200.049591 526.689392
   vertex -79.013023 199.084824 527.316467
  endloop
 facet normal -0.825850 -0.074642 0.558928
  outer loop
   vertex -79.013023 199.084824 527.316467
   vertex -79.524620 200.049591 526.689392
   vertex -79.573296 199.305237 526.518066
  endloop
 facet normal -0.628945 -0.740465 0.236939
  outer loop
   vertex -79.573296 199.305237 526.518066
   vertex -78.600487 198.598877 526.892883
   vertex -79.013023 199.084824 527.316467
  endloop
 facet normal -0.628941 -0.740483 0.236892
  outer loop
   vertex -79.160751 198.819305 526.094421
   vertex -78.600487 198.598877 526.892883
   vertex -79.573296 199.305237 526.518066
  endloop
 facet normal -0.063605 -0.972544 -0.223856
  outer loop
   vertex -77.968391 198.656006 526.465088
   vertex -78.600487 198.598877 526.892883
   vertex -79.160751 198.819305 526.094421
  endloop
 facet normal -0.063598 -0.972540 -0.223877
  outer loop
   vertex -79.160751 198.819305 526.094421
   vertex -78.528664 198.876434 525.666687
   vertex -77.968391 198.656006 526.465088
  endloop
 facet normal 0.538991 -0.634904 -0.553522
  outer loop
   vertex -77.968391 198.656006 526.465088
   vertex -78.528664 198.876434 525.666687
   vertex -77.487022 199.222748 526.283752
  endloop
 facet normal 0.538987 -0.634920 -0.553507
  outer loop
   vertex -77.487022 199.222748 526.283752
   vertex -78.528664 198.876434 525.666687
   vertex -78.047287 199.443161 525.485352
  endloop
 facet normal 0.825856 0.074684 -0.558913
  outer loop
   vertex -78.047287 199.443161 525.485352
   vertex -77.438347 199.967102 526.455139
   vertex -77.487022 199.222748 526.283752
  endloop
 facet normal 0.825869 0.074642 -0.558899
  outer loop
   vertex -77.998619 200.187515 525.656677
   vertex -77.438347 199.967102 526.455139
   vertex -78.047287 199.443161 525.485352
  endloop
 facet normal 0.628942 0.740475 -0.236916
  outer loop
   vertex -77.850891 200.453033 526.878723
   vertex -77.438347 199.967102 526.455139
   vertex -77.998619 200.187515 525.656677
  endloop
 facet normal 0.628944 0.740473 -0.236916
  outer loop
   vertex -77.998619 200.187515 525.656677
   vertex -78.411156 200.673462 526.080322
   vertex -77.850891 200.453033 526.878723
  endloop
 facet normal 0.063613 0.972541 0.223867
  outer loop
   vertex -77.850891 200.453033 526.878723
   vertex -78.411156 200.673462 526.080322
   vertex -78.482979 200.395905 527.306519
  endloop
 facet normal 0.063590 0.972543 0.223866
  outer loop
   vertex -78.482979 200.395905 527.306519
   vertex -78.411156 200.673462 526.080322
   vertex -79.043251 200.616333 526.508057
  endloop
 facet normal -0.538998 0.634924 0.553491
  outer loop
   vertex -79.043251 200.616333 526.508057
   vertex -78.964355 199.829178 527.487854
   vertex -78.482979 200.395905 527.306519
  endloop
 facet normal -0.539017 0.634914 0.553484
  outer loop
   vertex -79.524620 200.049591 526.689392
   vertex -78.964355 199.829178 527.487854
   vertex -79.043251 200.616333 526.508057
  endloop
endsolid