solid stl file generated from DOUG
 facet normal -0.997947 0.002441 -0.063997
  outer loop
   vertex -63.866993 6.241881 419.817444
   vertex -63.875713 6.234762 419.953156
   vertex -63.884163 15.471625 420.437164
  endloop
 facet normal -0.644118 -0.040615 0.763847
  outer loop
   vertex -63.884163 15.471625 420.437164
   vertex -63.875713 6.234762 419.953156
   vertex -63.805561 15.468234 420.503265
  endloop
 facet normal 0.232968 -0.050676 0.971163
  outer loop
   vertex -64.720345 15.515203 419.590942
   vertex -64.852783 15.513422 419.622620
   vertex -64.844337 6.276557 419.138611
  endloop
 facet normal -0.644136 -0.040614 0.763832
  outer loop
   vertex -64.844337 6.276557 419.138611
   vertex -64.852783 15.513422 419.622620
   vertex -64.931381 15.516813 419.556519
  endloop
 facet normal -0.644136 -0.040614 0.763832
  outer loop
   vertex -64.931381 15.516813 419.556519
   vertex -64.922935 6.279949 419.072510
   vertex -64.844337 6.276557 419.138611
  endloop
 facet normal -0.875723 -0.026064 0.482110
  outer loop
   vertex -64.459435 15.546573 418.996826
   vertex -64.450981 6.309709 418.512817
   vertex -64.443176 15.545046 419.026276
  endloop
 facet normal -0.875723 -0.026064 0.482110
  outer loop
   vertex -64.443176 15.545046 419.026276
   vertex -64.450981 6.309709 418.512817
   vertex -64.434723 6.308181 418.542267
  endloop
 facet normal -0.764932 0.033007 -0.643265
  outer loop
   vertex -64.434723 6.308181 418.542267
   vertex -64.805183 6.284822 418.981598
   vertex -64.443176 15.545046 419.026276
  endloop
 facet normal -0.997947 0.002441 -0.063997
  outer loop
   vertex -63.884163 15.471625 420.437164
   vertex -63.875443 15.478745 420.301453
   vertex -63.866993 6.241881 419.817444
  endloop
 facet normal -0.644108 -0.040615 0.763856
  outer loop
   vertex -63.866993 6.241881 419.817444
   vertex -63.875443 15.478745 420.301453
   vertex -64.720345 15.515203 419.590942
  endloop
 facet normal -0.644110 -0.040615 0.763854
  outer loop
   vertex -64.720345 15.515203 419.590942
   vertex -64.711891 6.278339 419.106934
   vertex -63.866993 6.241881 419.817444
  endloop
 facet normal 0.232956 -0.050676 0.971166
  outer loop
   vertex -64.844337 6.276557 419.138611
   vertex -64.711891 6.278339 419.106934
   vertex -64.720345 15.515203 419.590942
  endloop
 facet normal -0.764884 0.033010 -0.643322
  outer loop
   vertex -64.922935 6.279949 419.072510
   vertex -64.931381 15.516813 419.556519
   vertex -64.836998 6.285368 418.970612
  endloop
 facet normal -0.764912 0.033008 -0.643288
  outer loop
   vertex -64.836998 6.285368 418.970612
   vertex -64.931381 15.516813 419.556519
   vertex -64.845451 15.522232 419.454620
  endloop
 facet normal 0.326769 0.049754 -0.943794
  outer loop
   vertex -64.845451 15.522232 419.454620
   vertex -64.805183 6.284822 418.981598
   vertex -64.836998 6.285368 418.970612
  endloop
 facet normal 0.326769 0.049754 -0.943794
  outer loop
   vertex -64.813637 15.521686 419.465607
   vertex -64.805183 6.284822 418.981598
   vertex -64.845451 15.522232 419.454620
  endloop
 facet normal -0.764932 0.033007 -0.643265
  outer loop
   vertex -64.443176 15.545046 419.026276
   vertex -64.805183 6.284822 418.981598
   vertex -64.813637 15.521686 419.465607
  endloop
 facet normal -0.000914 0.998630 0.052328
  outer loop
   vertex -63.805069 16.004511 420.556702
   vertex -64.415588 16.088352 418.946014
   vertex -64.956963 16.054214 419.588043
  endloop
 facet normal -0.764937 0.033012 -0.643258
  outer loop
   vertex -64.956963 16.054214 419.588043
   vertex -64.415588 16.088352 418.946014
   vertex -64.956047 15.055586 419.535706
  endloop
 facet normal -0.644103 -0.040624 0.763859
  outer loop
   vertex -64.956047 15.055586 419.535706
   vertex -63.804153 15.005881 420.504364
   vertex -64.956963 16.054214 419.588043
  endloop
 facet normal 0.000913 -0.998630 -0.052328
  outer loop
   vertex -64.414673 15.089723 418.893677
   vertex -63.804153 15.005881 420.504364
   vertex -64.956047 15.055586 419.535706
  endloop
 facet normal 0.000914 -0.998630 -0.052328
  outer loop
   vertex -63.262783 15.040019 419.862335
   vertex -63.804153 15.005881 420.504364
   vertex -64.414673 15.089723 418.893677
  endloop
 facet normal 0.644104 0.040624 -0.763858
  outer loop
   vertex -64.414673 15.089723 418.893677
   vertex -64.415588 16.088352 418.946014
   vertex -63.262783 15.040019 419.862335
  endloop
 facet normal 0.644104 0.040624 -0.763858
  outer loop
   vertex -63.262783 15.040019 419.862335
   vertex -64.415588 16.088352 418.946014
   vertex -63.263699 16.038649 419.914673
  endloop
 facet normal -0.000914 0.998630 0.052328
  outer loop
   vertex -63.263699 16.038649 419.914673
   vertex -64.415588 16.088352 418.946014
   vertex -63.805069 16.004511 420.556702
  endloop
 facet normal 0.764939 -0.033011 0.643256
  outer loop
   vertex -63.805069 16.004511 420.556702
   vertex -63.804153 15.005881 420.504364
   vertex -63.263699 16.038649 419.914673
  endloop
 facet normal -0.644103 -0.040624 0.763859
  outer loop
   vertex -64.956963 16.054214 419.588043
   vertex -63.804153 15.005881 420.504364
   vertex -63.805069 16.004511 420.556702
  endloop
 facet normal -0.000913 0.998630 0.052328
  outer loop
   vertex -64.948441 6.740782 419.100006
   vertex -63.796551 6.691078 420.068665
   vertex -64.407074 6.774919 418.457977
  endloop
 facet normal -0.000913 0.998630 0.052328
  outer loop
   vertex -64.407074 6.774919 418.457977
   vertex -63.796551 6.691078 420.068665
   vertex -63.255180 6.725215 419.426636
  endloop
 facet normal 0.644103 0.040601 -0.763861
  outer loop
   vertex -63.255180 6.725215 419.426636
   vertex -63.254265 5.726585 419.374329
   vertex -64.407074 6.774919 418.457977
  endloop
 facet normal 0.764939 -0.032992 0.643257
  outer loop
   vertex -63.796551 6.691078 420.068665
   vertex -63.254265 5.726585 419.374329
   vertex -63.255180 6.725215 419.426636
  endloop
 facet normal 0.764924 -0.033012 0.643274
  outer loop
   vertex -63.795635 5.692448 420.016327
   vertex -63.254265 5.726585 419.374329
   vertex -63.796551 6.691078 420.068665
  endloop
 facet normal -0.644102 -0.040624 0.763860
  outer loop
   vertex -63.796551 6.691078 420.068665
   vertex -64.947533 5.742153 419.047668
   vertex -63.795635 5.692448 420.016327
  endloop
 facet normal 0.000914 -0.998629 -0.052330
  outer loop
   vertex -63.795635 5.692448 420.016327
   vertex -64.947533 5.742153 419.047668
   vertex -63.254265 5.726585 419.374329
  endloop
 facet normal 0.000914 -0.998630 -0.052327
  outer loop
   vertex -63.254265 5.726585 419.374329
   vertex -64.947533 5.742153 419.047668
   vertex -64.406158 5.776289 418.405640
  endloop
 facet normal 0.644115 0.040623 -0.763849
  outer loop
   vertex -64.406158 5.776289 418.405640
   vertex -64.407074 6.774919 418.457977
   vertex -63.254265 5.726585 419.374329
  endloop
 facet normal -0.764937 0.033012 -0.643258
  outer loop
   vertex -64.947533 5.742153 419.047668
   vertex -64.407074 6.774919 418.457977
   vertex -64.406158 5.776289 418.405640
  endloop
 facet normal -0.764942 0.033017 -0.643253
  outer loop
   vertex -64.948441 6.740782 419.100006
   vertex -64.407074 6.774919 418.457977
   vertex -64.947533 5.742153 419.047668
  endloop
 facet normal -0.644104 -0.040619 0.763859
  outer loop
   vertex -64.947533 5.742153 419.047668
   vertex -63.796551 6.691078 420.068665
   vertex -64.948441 6.740782 419.100006
  endloop
 facet normal -0.644136 -0.040614 0.763832
  outer loop
   vertex -63.875713 6.234762 419.953156
   vertex -63.797115 6.231370 420.019257
   vertex -63.805561 15.468234 420.503265
  endloop
 facet normal 0.764884 -0.033010 0.643322
  outer loop
   vertex -63.805561 15.468234 420.503265
   vertex -63.797115 6.231370 420.019257
   vertex -63.711178 6.236789 419.917358
  endloop
 facet normal 0.764898 -0.033009 0.643305
  outer loop
   vertex -63.711178 6.236789 419.917358
   vertex -63.719627 15.473653 420.401367
   vertex -63.805561 15.468234 420.503265
  endloop
 facet normal 0.875723 0.026064 -0.482110
  outer loop
   vertex -63.727436 6.238317 419.887909
   vertex -63.719627 15.473653 420.401367
   vertex -63.711178 6.236789 419.917358
  endloop
 facet normal 0.875723 0.026064 -0.482110
  outer loop
   vertex -63.735886 15.475181 420.371918
   vertex -63.719627 15.473653 420.401367
   vertex -63.727436 6.238317 419.887909
  endloop
 facet normal 0.764932 -0.033007 0.643265
  outer loop
   vertex -63.727436 6.238317 419.887909
   vertex -63.356976 6.261677 419.448578
   vertex -63.735886 15.475181 420.371918
  endloop
 facet normal 0.764932 -0.033007 0.643265
  outer loop
   vertex -63.735886 15.475181 420.371918
   vertex -63.356976 6.261677 419.448578
   vertex -63.365425 15.498541 419.932587
  endloop
 facet normal -0.326770 -0.049753 0.943794
  outer loop
   vertex -63.365425 15.498541 419.932587
   vertex -63.356976 6.261677 419.448578
   vertex -63.325161 6.261130 419.459564
  endloop
 facet normal -0.326770 -0.049753 0.943793
  outer loop
   vertex -63.325161 6.261130 419.459564
   vertex -63.333611 15.497993 419.943573
   vertex -63.365425 15.498541 419.932587
  endloop
 facet normal 0.764931 -0.033007 0.643266
  outer loop
   vertex -63.282520 6.263819 419.408997
   vertex -63.333611 15.497993 419.943573
   vertex -63.325161 6.261130 419.459564
  endloop
 facet normal 0.764931 -0.033007 0.643266
  outer loop
   vertex -63.290970 15.500683 419.893005
   vertex -63.333611 15.497993 419.943573
   vertex -63.282520 6.263819 419.408997
  endloop
 facet normal 0.644109 0.040615 -0.763855
  outer loop
   vertex -63.282520 6.263819 419.408997
   vertex -64.408340 6.312398 418.462250
   vertex -63.290970 15.500683 419.893005
  endloop
 facet normal 0.644107 0.040615 -0.763856
  outer loop
   vertex -63.290970 15.500683 419.893005
   vertex -64.408340 6.312398 418.462250
   vertex -64.416794 15.549262 418.946259
  endloop
 facet normal -0.764931 0.033007 -0.643266
  outer loop
   vertex -64.416794 15.549262 418.946259
   vertex -64.408340 6.312398 418.462250
   vertex -64.459435 15.546573 418.996826
  endloop
 facet normal -0.764937 0.033012 -0.643258
  outer loop
   vertex -64.414673 15.089723 418.893677
   vertex -64.956047 15.055586 419.535706
   vertex -64.415588 16.088352 418.946014
  endloop
 facet normal 0.764939 -0.033011 0.643256
  outer loop
   vertex -63.804153 15.005881 420.504364
   vertex -63.262783 15.040019 419.862335
   vertex -63.263699 16.038649 419.914673
  endloop
 facet normal -0.764931 0.033007 -0.643266
  outer loop
   vertex -64.408340 6.312398 418.462250
   vertex -64.450981 6.309709 418.512817
   vertex -64.459435 15.546573 418.996826
  endloop
 facet normal 0.293570 -0.935245 0.197820
  outer loop
   vertex -62.579834 5.319062 417.380890
   vertex -61.935726 5.359677 416.617035
   vertex -62.039207 5.588214 417.851074
  endloop
 facet normal 0.293572 -0.935245 0.197820
  outer loop
   vertex -62.039207 5.588214 417.851074
   vertex -61.935726 5.359677 416.617035
   vertex -61.395103 5.628829 417.087219
  endloop
 facet normal 0.707060 -0.412648 0.574272
  outer loop
   vertex -61.395103 5.628829 417.087219
   vertex -61.815811 6.284684 418.076477
   vertex -62.039207 5.588214 417.851074
  endloop
 facet normal 0.707057 -0.412652 0.574273
  outer loop
   vertex -61.171703 6.325299 417.312622
   vertex -61.815811 6.284684 418.076477
   vertex -61.395103 5.628829 417.087219
  endloop
 facet normal 0.706359 0.351658 0.614323
  outer loop
   vertex -62.040501 7.000489 417.925079
   vertex -61.815811 6.284684 418.076477
   vertex -61.171703 6.325299 417.312622
  endloop
 facet normal 0.706360 0.351661 0.614321
  outer loop
   vertex -61.171703 6.325299 417.312622
   vertex -61.396397 7.041105 417.161224
   vertex -62.040501 7.000489 417.925079
  endloop
 facet normal 0.291887 0.909980 0.294513
  outer loop
   vertex -62.040501 7.000489 417.925079
   vertex -61.396397 7.041105 417.161224
   vertex -62.581661 7.316321 417.485565
  endloop
 facet normal 0.291888 0.909980 0.294514
  outer loop
   vertex -62.581661 7.316321 417.485565
   vertex -61.396397 7.041105 417.161224
   vertex -61.937553 7.356936 416.721710
  endloop
 facet normal -0.293571 0.935245 -0.197821
  outer loop
   vertex -61.937553 7.356936 416.721710
   vertex -63.122284 7.047169 417.015381
   vertex -62.581661 7.316321 417.485565
  endloop
 facet normal -0.293571 0.935245 -0.197819
  outer loop
   vertex -62.478180 7.087784 416.251526
   vertex -63.122284 7.047169 417.015381
   vertex -61.937553 7.356936 416.721710
  endloop
 facet normal -0.707059 0.412651 -0.574271
  outer loop
   vertex -63.345684 6.350698 416.789978
   vertex -63.122284 7.047169 417.015381
   vertex -62.478180 7.087784 416.251526
  endloop
 facet normal -0.707058 0.412648 -0.574274
  outer loop
   vertex -62.478180 7.087784 416.251526
   vertex -62.701576 6.391314 416.026123
   vertex -63.345684 6.350698 416.789978
  endloop
 facet normal -0.706358 -0.351661 -0.614323
  outer loop
   vertex -63.345684 6.350698 416.789978
   vertex -62.701576 6.391314 416.026123
   vertex -63.120991 5.634893 416.941376
  endloop
 facet normal -0.706361 -0.351658 -0.614321
  outer loop
   vertex -63.120991 5.634893 416.941376
   vertex -62.701576 6.391314 416.026123
   vertex -62.476887 5.675508 416.177521
  endloop
 facet normal -0.291889 -0.909980 -0.294513
  outer loop
   vertex -62.476887 5.675508 416.177521
   vertex -62.579834 5.319062 417.380890
   vertex -63.120991 5.634893 416.941376
  endloop
 facet normal -0.291887 -0.909980 -0.294513
  outer loop
   vertex -61.935726 5.359677 416.617035
   vertex -62.579834 5.319062 417.380890
   vertex -62.476887 5.675508 416.177521
  endloop
 facet normal -0.293564 0.935249 -0.197813
  outer loop
   vertex -63.362312 15.797039 418.574219
   vertex -63.871258 15.823712 419.455627
   vertex -63.227154 15.864327 418.691772
  endloop
 facet normal 0.291872 0.909989 0.294500
  outer loop
   vertex -63.227154 15.864327 418.691772
   vertex -63.871258 15.823712 419.455627
   vertex -63.735970 15.744755 419.565521
  endloop
 facet normal 0.291872 0.909989 0.294500
  outer loop
   vertex -63.735970 15.744755 419.565521
   vertex -63.091866 15.785370 418.801666
   vertex -63.227154 15.864327 418.691772
  endloop
 facet normal 0.706370 0.351630 0.614327
  outer loop
   vertex -63.679798 15.565803 419.603363
   vertex -63.091866 15.785370 418.801666
   vertex -63.735970 15.744755 419.565521
  endloop
 facet normal 0.706363 0.351645 0.614327
  outer loop
   vertex -63.035690 15.606419 418.839508
   vertex -63.091866 15.785370 418.801666
   vertex -63.679798 15.565803 419.603363
  endloop
 facet normal 0.707047 -0.412684 0.574262
  outer loop
   vertex -63.679798 15.565803 419.603363
   vertex -63.735645 15.391685 419.546997
   vertex -63.035690 15.606419 418.839508
  endloop
 facet normal 0.707045 -0.412695 0.574256
  outer loop
   vertex -63.035690 15.606419 418.839508
   vertex -63.735645 15.391685 419.546997
   vertex -63.091541 15.432301 418.783142
  endloop
 facet normal 0.293586 -0.935238 0.197833
  outer loop
   vertex -63.091541 15.432301 418.783142
   vertex -63.735645 15.391685 419.546997
   vertex -63.870804 15.324397 419.429474
  endloop
 facet normal 0.293590 -0.935236 0.197837
  outer loop
   vertex -63.870804 15.324397 419.429474
   vertex -63.226696 15.365012 418.665619
   vertex -63.091541 15.432301 418.783142
  endloop
 facet normal -0.291867 -0.909992 -0.294497
  outer loop
   vertex -64.006096 15.403355 419.319580
   vertex -63.226696 15.365012 418.665619
   vertex -63.870804 15.324397 419.429474
  endloop
 facet normal -0.291870 -0.909990 -0.294501
  outer loop
   vertex -63.361988 15.443971 418.555725
   vertex -63.226696 15.365012 418.665619
   vertex -64.006096 15.403355 419.319580
  endloop
 facet normal -0.706372 -0.351617 -0.614332
  outer loop
   vertex -64.006096 15.403355 419.319580
   vertex -64.062263 15.582307 419.281738
   vertex -63.361988 15.443971 418.555725
  endloop
 facet normal -0.706369 -0.351632 -0.614327
  outer loop
   vertex -63.361988 15.443971 418.555725
   vertex -64.062263 15.582307 419.281738
   vertex -63.418159 15.622922 418.517883
  endloop
 facet normal -0.707075 0.412601 -0.574287
  outer loop
   vertex -63.418159 15.622922 418.517883
   vertex -64.062263 15.582307 419.281738
   vertex -64.006416 15.756424 419.338074
  endloop
 facet normal -0.707075 0.412601 -0.574287
  outer loop
   vertex -64.006416 15.756424 419.338074
   vertex -63.362312 15.797039 418.574219
   vertex -63.418159 15.622922 418.517883
  endloop
 facet normal -0.293564 0.935249 -0.197813
  outer loop
   vertex -63.871258 15.823712 419.455627
   vertex -63.362312 15.797039 418.574219
   vertex -64.006416 15.756424 419.338074
  endloop
 facet normal -0.293570 0.935246 -0.197818
  outer loop
   vertex -62.486721 16.424971 416.740784
   vertex -62.590199 16.653507 417.974823
   vertex -61.946095 16.694122 417.210968
  endloop
 facet normal 0.291881 0.909984 0.294507
  outer loop
   vertex -61.946095 16.694122 417.210968
   vertex -62.590199 16.653507 417.974823
   vertex -62.049042 16.337675 418.414368
  endloop
 facet normal 0.291893 0.909980 0.294507
  outer loop
   vertex -62.049042 16.337675 418.414368
   vertex -61.404934 16.378290 417.650482
   vertex -61.946095 16.694122 417.210968
  endloop
 facet normal 0.706370 0.351662 0.614308
  outer loop
   vertex -61.824348 15.621870 418.565765
   vertex -61.404934 16.378290 417.650482
   vertex -62.049042 16.337675 418.414368
  endloop
 facet normal 0.706354 0.351681 0.614317
  outer loop
   vertex -61.180244 15.662485 417.801910
   vertex -61.404934 16.378290 417.650482
   vertex -61.824348 15.621870 418.565765
  endloop
 facet normal 0.707059 -0.412651 0.574271
  outer loop
   vertex -61.824348 15.621870 418.565765
   vertex -62.047749 14.925400 418.340363
   vertex -61.180244 15.662485 417.801910
  endloop
 facet normal 0.707064 -0.412672 0.574250
  outer loop
   vertex -61.180244 15.662485 417.801910
   vertex -62.047749 14.925400 418.340363
   vertex -61.403645 14.966016 417.576477
  endloop
 facet normal 0.293576 -0.935245 0.197814
  outer loop
   vertex -61.403645 14.966016 417.576477
   vertex -62.047749 14.925400 418.340363
   vertex -62.588371 14.656248 417.870178
  endloop
 facet normal 0.293578 -0.935242 0.197825
  outer loop
   vertex -62.588371 14.656248 417.870178
   vertex -61.944267 14.696863 417.106323
   vertex -61.403645 14.966016 417.576477
  endloop
 facet normal -0.291879 -0.909985 -0.294506
  outer loop
   vertex -63.129532 14.972079 417.430634
   vertex -61.944267 14.696863 417.106323
   vertex -62.588371 14.656248 417.870178
  endloop
 facet normal -0.291879 -0.909985 -0.294506
  outer loop
   vertex -62.485428 15.012694 416.666779
   vertex -61.944267 14.696863 417.106323
   vertex -63.129532 14.972079 417.430634
  endloop
 facet normal -0.706361 -0.351658 -0.614321
  outer loop
   vertex -63.129532 14.972079 417.430634
   vertex -63.354221 15.687884 417.279236
   vertex -62.485428 15.012694 416.666779
  endloop
 facet normal -0.706361 -0.351658 -0.614321
  outer loop
   vertex -62.485428 15.012694 416.666779
   vertex -63.354221 15.687884 417.279236
   vertex -62.710117 15.728499 416.515381
  endloop
 facet normal -0.707060 0.412648 -0.574272
  outer loop
   vertex -62.710117 15.728499 416.515381
   vertex -63.354221 15.687884 417.279236
   vertex -63.130825 16.384354 417.504639
  endloop
 facet normal -0.707060 0.412647 -0.574271
  outer loop
   vertex -63.130825 16.384354 417.504639
   vertex -62.486721 16.424971 416.740784
   vertex -62.710117 15.728499 416.515381
  endloop
 facet normal -0.293573 0.935245 -0.197819
  outer loop
   vertex -62.590199 16.653507 417.974823
   vertex -62.486721 16.424971 416.740784
   vertex -63.130825 16.384354 417.504639
  endloop
 facet normal -0.608152 0.745602 0.272450
  outer loop
   vertex -63.130825 16.384354 417.504639
   vertex -63.233620 15.863919 418.699432
   vertex -62.590199 16.653507 417.974823
  endloop
 facet normal -0.126969 0.724849 0.677106
  outer loop
   vertex -62.590199 16.653507 417.974823
   vertex -63.233620 15.863919 418.699432
   vertex -63.098331 15.784962 418.809326
  endloop
 facet normal -0.126940 0.724843 0.677118
  outer loop
   vertex -63.098331 15.784962 418.809326
   vertex -62.049042 16.337675 418.414368
   vertex -62.590199 16.653507 417.974823
  endloop
 facet normal 0.213769 0.265883 0.940005
  outer loop
   vertex -63.042156 15.606010 418.847168
   vertex -62.049042 16.337675 418.414368
   vertex -63.098331 15.784962 418.809326
  endloop
 facet normal 0.213746 0.265912 0.940002
  outer loop
   vertex -61.824348 15.621870 418.565765
   vertex -62.049042 16.337675 418.414368
   vertex -63.042156 15.606010 418.847168
  endloop
 facet normal 0.214326 -0.362241 0.907109
  outer loop
   vertex -63.042156 15.606010 418.847168
   vertex -63.098007 15.431892 418.790833
   vertex -61.824348 15.621870 418.565765
  endloop
 facet normal 0.214331 -0.362312 0.907079
  outer loop
   vertex -61.824348 15.621870 418.565765
   vertex -63.098007 15.431892 418.790833
   vertex -62.047749 14.925400 418.340363
  endloop
 facet normal -0.125558 -0.791881 0.597628
  outer loop
   vertex -62.047749 14.925400 418.340363
   vertex -63.098007 15.431892 418.790833
   vertex -63.233162 15.364605 418.673279
  endloop
 facet normal -0.125547 -0.791867 0.597650
  outer loop
   vertex -63.233162 15.364605 418.673279
   vertex -62.588371 14.656248 417.870178
   vertex -62.047749 14.925400 418.340363
  endloop
 facet normal -0.606767 -0.771100 0.192973
  outer loop
   vertex -63.368454 15.443563 418.563385
   vertex -62.588371 14.656248 417.870178
   vertex -63.233162 15.364605 418.673279
  endloop
 facet normal -0.606766 -0.771100 0.192973
  outer loop
   vertex -63.129532 14.972079 417.430634
   vertex -62.588371 14.656248 417.870178
   vertex -63.368454 15.443563 418.563385
  endloop
 facet normal -0.947449 -0.312178 -0.069900
  outer loop
   vertex -63.368454 15.443563 418.563385
   vertex -63.424625 15.622514 418.525543
   vertex -63.129532 14.972079 417.430634
  endloop
 facet normal -0.947447 -0.312185 -0.069896
  outer loop
   vertex -63.129532 14.972079 417.430634
   vertex -63.424625 15.622514 418.525543
   vertex -63.354221 15.687884 417.279236
  endloop
 facet normal -0.948019 0.316057 -0.036976
  outer loop
   vertex -63.354221 15.687884 417.279236
   vertex -63.424625 15.622514 418.525543
   vertex -63.368774 15.796631 418.581879
  endloop
 facet normal -0.948022 0.316050 -0.036976
  outer loop
   vertex -63.368774 15.796631 418.581879
   vertex -63.130825 16.384354 417.504639
   vertex -63.354221 15.687884 417.279236
  endloop
 facet normal -0.608167 0.745592 0.272445
  outer loop
   vertex -63.233620 15.863919 418.699432
   vertex -63.130825 16.384354 417.504639
   vertex -63.368774 15.796631 418.581879
  endloop
 facet normal 0.293567 -0.935247 0.197815
  outer loop
   vertex -63.862263 5.987211 418.940186
   vertex -63.218159 6.027826 418.176331
   vertex -63.727108 6.054499 419.057739
  endloop
 facet normal 0.293562 -0.935249 0.197813
  outer loop
   vertex -63.727108 6.054499 419.057739
   vertex -63.218159 6.027826 418.176331
   vertex -63.083000 6.095114 418.293884
  endloop
 facet normal 0.707043 -0.412696 0.574258
  outer loop
   vertex -63.083000 6.095114 418.293884
   vertex -63.671257 6.228617 419.114105
   vertex -63.727108 6.054499 419.057739
  endloop
 facet normal 0.707049 -0.412683 0.574260
  outer loop
   vertex -63.027153 6.269232 418.350250
   vertex -63.671257 6.228617 419.114105
   vertex -63.083000 6.095114 418.293884
  endloop
 facet normal 0.706340 0.351724 0.614308
  outer loop
   vertex -63.727428 6.407568 419.076233
   vertex -63.671257 6.228617 419.114105
   vertex -63.027153 6.269232 418.350250
  endloop
 facet normal 0.706340 0.351723 0.614308
  outer loop
   vertex -63.027153 6.269232 418.350250
   vertex -63.083324 6.448184 418.312378
   vertex -63.727428 6.407568 419.076233
  endloop
 facet normal 0.291902 0.909971 0.294525
  outer loop
   vertex -63.727428 6.407568 419.076233
   vertex -63.083324 6.448184 418.312378
   vertex -63.862720 6.486526 418.966370
  endloop
 facet normal 0.291904 0.909970 0.294528
  outer loop
   vertex -63.862720 6.486526 418.966370
   vertex -63.083324 6.448184 418.312378
   vertex -63.218613 6.527141 418.202515
  endloop
 facet normal -0.293566 0.935247 -0.197816
  outer loop
   vertex -63.218613 6.527141 418.202515
   vertex -63.997875 6.419238 418.848816
   vertex -63.862720 6.486526 418.966370
  endloop
 facet normal -0.293562 0.935249 -0.197812
  outer loop
   vertex -63.353771 6.459853 418.084961
   vertex -63.997875 6.419238 418.848816
   vertex -63.218613 6.527141 418.202515
  endloop
 facet normal -0.707045 0.412695 -0.574256
  outer loop
   vertex -64.053726 6.245120 418.792450
   vertex -63.997875 6.419238 418.848816
   vertex -63.353771 6.459853 418.084961
  endloop
 facet normal -0.707047 0.412683 -0.574262
  outer loop
   vertex -63.353771 6.459853 418.084961
   vertex -63.409618 6.285736 418.028595
   vertex -64.053726 6.245120 418.792450
  endloop
 facet normal -0.706334 -0.351738 -0.614307
  outer loop
   vertex -64.053726 6.245120 418.792450
   vertex -63.409618 6.285736 418.028595
   vertex -63.997551 6.066169 418.830322
  endloop
 facet normal -0.706340 -0.351724 -0.614308
  outer loop
   vertex -63.997551 6.066169 418.830322
   vertex -63.409618 6.285736 418.028595
   vertex -63.353447 6.106784 418.066467
  endloop
 facet normal -0.291907 -0.909969 -0.294528
  outer loop
   vertex -63.353447 6.106784 418.066467
   vertex -63.862263 5.987211 418.940186
   vertex -63.997551 6.066169 418.830322
  endloop
 facet normal -0.291907 -0.909969 -0.294528
  outer loop
   vertex -63.218159 6.027826 418.176331
   vertex -63.862263 5.987211 418.940186
   vertex -63.353447 6.106784 418.066467
  endloop
 facet normal -0.606778 -0.771093 0.192968
  outer loop
   vertex -63.359913 6.106377 418.074127
   vertex -63.120991 5.634893 416.941376
   vertex -63.224625 6.027419 418.184021
  endloop
 facet normal -0.606762 -0.771104 0.192973
  outer loop
   vertex -63.224625 6.027419 418.184021
   vertex -63.120991 5.634893 416.941376
   vertex -62.579834 5.319062 417.380890
  endloop
 facet normal -0.125472 -0.791857 0.597678
  outer loop
   vertex -62.579834 5.319062 417.380890
   vertex -63.089466 6.094707 418.301544
   vertex -63.224625 6.027419 418.184021
  endloop
 facet normal -0.125543 -0.791868 0.597648
  outer loop
   vertex -62.039207 5.588214 417.851074
   vertex -63.089466 6.094707 418.301544
   vertex -62.579834 5.319062 417.380890
  endloop
 facet normal 0.214296 -0.362372 0.907063
  outer loop
   vertex -63.033619 6.268824 418.357910
   vertex -63.089466 6.094707 418.301544
   vertex -62.039207 5.588214 417.851074
  endloop
 facet normal 0.214342 -0.362314 0.907076
  outer loop
   vertex -62.039207 5.588214 417.851074
   vertex -61.815811 6.284684 418.076477
   vertex -63.033619 6.268824 418.357910
  endloop
 facet normal 0.213760 0.266026 0.939966
  outer loop
   vertex -63.033619 6.268824 418.357910
   vertex -61.815811 6.284684 418.076477
   vertex -63.089790 6.447776 418.320038
  endloop
 facet normal 0.213752 0.265913 0.940000
  outer loop
   vertex -63.089790 6.447776 418.320038
   vertex -61.815811 6.284684 418.076477
   vertex -62.040501 7.000489 417.925079
  endloop
 facet normal -0.126898 0.724801 0.677171
  outer loop
   vertex -62.040501 7.000489 417.925079
   vertex -63.225079 6.526733 418.210175
   vertex -63.089790 6.447776 418.320038
  endloop
 facet normal -0.126920 0.724833 0.677132
  outer loop
   vertex -62.581661 7.316321 417.485565
   vertex -63.225079 6.526733 418.210175
   vertex -62.040501 7.000489 417.925079
  endloop
 facet normal -0.608155 0.745600 0.272449
  outer loop
   vertex -63.360237 6.459445 418.092621
   vertex -63.225079 6.526733 418.210175
   vertex -62.581661 7.316321 417.485565
  endloop
 facet normal -0.608154 0.745600 0.272450
  outer loop
   vertex -62.581661 7.316321 417.485565
   vertex -63.122284 7.047169 417.015381
   vertex -63.360237 6.459445 418.092621
  endloop
 facet normal -0.948025 0.316040 -0.036985
  outer loop
   vertex -63.360237 6.459445 418.092621
   vertex -63.122284 7.047169 417.015381
   vertex -63.416084 6.285328 418.036285
  endloop
 facet normal -0.948021 0.316053 -0.036973
  outer loop
   vertex -63.416084 6.285328 418.036285
   vertex -63.122284 7.047169 417.015381
   vertex -63.345684 6.350698 416.789978
  endloop
 facet normal -0.947450 -0.312177 -0.069893
  outer loop
   vertex -63.345684 6.350698 416.789978
   vertex -63.359913 6.106377 418.074127
   vertex -63.416084 6.285328 418.036285
  endloop
 facet normal -0.947445 -0.312189 -0.069895
  outer loop
   vertex -63.120991 5.634893 416.941376
   vertex -63.359913 6.106377 418.074127
   vertex -63.345684 6.350698 416.789978
  endloop
endsolid