solid stl file generated from DOUG
 facet normal -0.326405 -0.365429 0.871735
  outer loop
   vertex -104.915977 170.391052 540.267578
   vertex -104.788345 170.390472 540.315125
   vertex -105.693504 177.195206 542.828735
  endloop
 endfacet

 facet normal 0.560237 -0.220424 0.798466
  outer loop
   vertex -105.693504 177.195206 542.828735
   vertex -104.788345 170.390472 540.315125
   vertex -105.609344 177.225159 542.777954
  endloop
 endfacet

 facet normal 0.991670 0.103677 0.076432
  outer loop
   vertex -106.725754 176.873795 543.327087
   vertex -106.730591 176.826065 543.454590
   vertex -105.825432 170.021347 540.940918
  endloop
 endfacet

 facet normal 0.560238 -0.220431 0.798463
  outer loop
   vertex -105.825432 170.021347 540.940918
   vertex -106.730591 176.826065 543.454590
   vertex -106.814751 176.796112 543.505371
  endloop
 endfacet

 facet normal 0.560238 -0.220431 0.798463
  outer loop
   vertex -106.814751 176.796112 543.505371
   vertex -105.909592 169.991394 540.991699
   vertex -105.825432 170.021347 540.940918
  endloop
 endfacet

 facet normal 0.228443 -0.310461 0.922728
  outer loop
   vertex -107.225273 176.957626 542.920288
   vertex -106.320114 170.152893 540.406677
   vertex -107.192772 176.964127 542.914429
  endloop
 endfacet

 facet normal 0.230059 -0.310145 0.922433
  outer loop
   vertex -107.192772 176.964127 542.914429
   vertex -106.320114 170.152893 540.406677
   vertex -106.287613 170.159393 540.400757
  endloop
 endfacet

 facet normal -0.819001 -0.291510 0.494226
  outer loop
   vertex -106.287613 170.159393 540.400757
   vertex -105.965370 170.032623 540.859985
   vertex -107.192772 176.964127 542.914429
  endloop
 endfacet

 facet normal -0.326422 -0.365429 0.871728
  outer loop
   vertex -105.693504 177.195206 542.828735
   vertex -105.821129 177.195786 542.781189
   vertex -104.915977 170.391052 540.267578
  endloop
 endfacet

 facet normal 0.560275 -0.220411 0.798443
  outer loop
   vertex -104.915977 170.391052 540.267578
   vertex -105.821129 177.195786 542.781189
   vertex -106.725754 176.873795 543.327087
  endloop
 endfacet

 facet normal 0.560276 -0.220411 0.798442
  outer loop
   vertex -106.725754 176.873795 543.327087
   vertex -105.820595 170.069077 540.813477
   vertex -104.915977 170.391052 540.267578
  endloop
 endfacet

 facet normal 0.991669 0.103666 0.076464
  outer loop
   vertex -105.825432 170.021347 540.940918
   vertex -105.820595 170.069077 540.813477
   vertex -106.725754 176.873795 543.327087
  endloop
 endfacet

 facet normal -0.818973 -0.291522 0.494266
  outer loop
   vertex -105.909592 169.991394 540.991699
   vertex -106.814751 176.796112 543.505371
   vertex -105.984337 170.020798 540.885193
  endloop
 endfacet

 facet normal -0.819119 -0.291460 0.494060
  outer loop
   vertex -105.984337 170.020798 540.885193
   vertex -106.814751 176.796112 543.505371
   vertex -106.889496 176.825531 543.398804
  endloop
 endfacet

 facet normal -0.817163 0.100932 -0.567501
  outer loop
   vertex -106.889496 176.825531 543.398804
   vertex -105.965370 170.032623 540.859985
   vertex -105.984337 170.020798 540.885193
  endloop
 endfacet

 facet normal -0.816558 0.101314 -0.568304
  outer loop
   vertex -106.870529 176.837341 543.373657
   vertex -105.965370 170.032623 540.859985
   vertex -106.889496 176.825531 543.398804
  endloop
 endfacet

 facet normal -0.819005 -0.291509 0.494219
  outer loop
   vertex -107.192772 176.964127 542.914429
   vertex -105.965370 170.032623 540.859985
   vertex -106.870529 176.837341 543.373657
  endloop
 endfacet

 facet normal -0.123821 0.930830 0.343838
  outer loop
   vertex -105.644592 177.674667 542.950195
   vertex -107.348808 177.420959 543.023315
   vertex -106.877907 177.235687 543.694458
  endloop
 endfacet

 facet normal -0.819023 -0.291514 0.494187
  outer loop
   vertex -106.877907 177.235687 543.694458
   vertex -107.348808 177.420959 543.023315
   vertex -106.754089 176.304871 543.350586
  endloop
 endfacet

 facet normal 0.560257 -0.220445 0.798446
  outer loop
   vertex -106.754089 176.304871 543.350586
   vertex -105.520775 176.743835 542.606384
   vertex -106.877907 177.235687 543.694458
  endloop
 endfacet

 facet normal 0.123820 -0.930827 -0.343847
  outer loop
   vertex -107.224991 176.490128 542.679504
   vertex -105.520775 176.743835 542.606384
   vertex -106.754089 176.304871 543.350586
  endloop
 endfacet

 facet normal 0.123823 -0.930836 -0.343820
  outer loop
   vertex -105.991676 176.929092 541.935242
   vertex -105.520775 176.743835 542.606384
   vertex -107.224991 176.490128 542.679504
  endloop
 endfacet

 facet normal -0.560277 0.220387 -0.798448
  outer loop
   vertex -107.224991 176.490128 542.679504
   vertex -107.348808 177.420959 543.023315
   vertex -105.991676 176.929092 541.935242
  endloop
 endfacet

 facet normal -0.560256 0.220442 -0.798447
  outer loop
   vertex -105.991676 176.929092 541.935242
   vertex -107.348808 177.420959 543.023315
   vertex -106.115494 177.859924 542.279114
  endloop
 endfacet

 facet normal -0.123820 0.930827 0.343847
  outer loop
   vertex -106.115494 177.859924 542.279114
   vertex -107.348808 177.420959 543.023315
   vertex -105.644592 177.674667 542.950195
  endloop
 endfacet

 facet normal 0.819004 0.291491 -0.494231
  outer loop
   vertex -105.644592 177.674667 542.950195
   vertex -105.520775 176.743835 542.606384
   vertex -106.115494 177.859924 542.279114
  endloop
 endfacet

 facet normal 0.560279 -0.220386 0.798447
  outer loop
   vertex -106.877907 177.235687 543.694458
   vertex -105.520775 176.743835 542.606384
   vertex -105.644592 177.674667 542.950195
  endloop
 endfacet

 facet normal -0.123809 0.930831 0.343840
  outer loop
   vertex -105.977203 170.464462 541.193176
   vertex -104.743889 170.903427 540.448914
   vertex -106.448105 170.649719 540.522095
  endloop
 endfacet

 facet normal -0.123807 0.930824 0.343859
  outer loop
   vertex -106.448105 170.649719 540.522095
   vertex -104.743889 170.903427 540.448914
   vertex -105.214798 171.088699 539.777832
  endloop
 endfacet

 facet normal -0.560281 0.220386 -0.798446
  outer loop
   vertex -105.214798 171.088699 539.777832
   vertex -105.090981 170.157867 539.434021
   vertex -106.448105 170.649719 540.522095
  endloop
 endfacet

 facet normal 0.819003 0.291492 -0.494233
  outer loop
   vertex -104.743889 170.903427 540.448914
   vertex -105.090981 170.157867 539.434021
   vertex -105.214798 171.088699 539.777832
  endloop
 endfacet

 facet normal 0.819000 0.291497 -0.494236
  outer loop
   vertex -104.620071 169.972610 540.105103
   vertex -105.090981 170.157867 539.434021
   vertex -104.743889 170.903427 540.448914
  endloop
 endfacet

 facet normal 0.560252 -0.220399 0.798462
  outer loop
   vertex -104.743889 170.903427 540.448914
   vertex -105.853386 169.533630 540.849304
   vertex -104.620071 169.972610 540.105103
  endloop
 endfacet

 facet normal 0.123827 -0.930824 -0.343852
  outer loop
   vertex -104.620071 169.972610 540.105103
   vertex -105.853386 169.533630 540.849304
   vertex -105.090981 170.157867 539.434021
  endloop
 endfacet

 facet normal 0.123811 -0.930823 -0.343860
  outer loop
   vertex -105.090981 170.157867 539.434021
   vertex -105.853386 169.533630 540.849304
   vertex -106.324287 169.718903 540.178223
  endloop
 endfacet

 facet normal -0.560259 0.220444 -0.798445
  outer loop
   vertex -106.324287 169.718903 540.178223
   vertex -106.448105 170.649719 540.522095
   vertex -105.090981 170.157867 539.434021
  endloop
 endfacet

 facet normal -0.819003 -0.291522 0.494215
  outer loop
   vertex -105.853386 169.533630 540.849304
   vertex -106.448105 170.649719 540.522095
   vertex -106.324287 169.718903 540.178223
  endloop
 endfacet

 facet normal -0.819001 -0.291519 0.494221
  outer loop
   vertex -105.977203 170.464462 541.193176
   vertex -106.448105 170.649719 540.522095
   vertex -105.853386 169.533630 540.849304
  endloop
 endfacet

 facet normal 0.560283 -0.220432 0.798431
  outer loop
   vertex -105.853386 169.533630 540.849304
   vertex -104.743889 170.903427 540.448914
   vertex -105.977203 170.464462 541.193176
  endloop
 endfacet

 facet normal 0.560271 -0.220413 0.798445
  outer loop
   vertex -104.788345 170.390472 540.315125
   vertex -104.704193 170.420425 540.264343
   vertex -105.609344 177.225159 542.777954
  endloop
 endfacet

 facet normal 0.819100 0.291467 -0.494087
  outer loop
   vertex -105.609344 177.225159 542.777954
   vertex -104.704193 170.420425 540.264343
   vertex -104.778938 170.449829 540.157776
  endloop
 endfacet

 facet normal 0.818947 0.291531 -0.494303
  outer loop
   vertex -104.778938 170.449829 540.157776
   vertex -105.684097 177.254562 542.671448
   vertex -105.609344 177.225159 542.777954
  endloop
 endfacet

 facet normal -0.229923 0.310172 -0.922458
  outer loop
   vertex -104.811440 170.443344 540.163696
   vertex -105.684097 177.254562 542.671448
   vertex -104.778938 170.449829 540.157776
  endloop
 endfacet

 facet normal -0.228443 0.310461 -0.922728
  outer loop
   vertex -105.716599 177.248062 542.677307
   vertex -105.684097 177.254562 542.671448
   vertex -104.811440 170.443344 540.163696
  endloop
 endfacet

 facet normal 0.819002 0.291507 -0.494227
  outer loop
   vertex -104.811440 170.443344 540.163696
   vertex -105.133682 170.570114 539.704468
   vertex -105.716599 177.248062 542.677307
  endloop
 endfacet

 facet normal 0.819002 0.291507 -0.494227
  outer loop
   vertex -105.716599 177.248062 542.677307
   vertex -105.133682 170.570114 539.704468
   vertex -106.038841 177.374832 542.218079
  endloop
 endfacet

 facet normal 0.817163 -0.100932 0.567501
  outer loop
   vertex -106.038841 177.374832 542.218079
   vertex -105.133682 170.570114 539.704468
   vertex -105.114716 170.581940 539.679260
  endloop
 endfacet

 facet normal 0.816479 -0.101364 0.568407
  outer loop
   vertex -105.114716 170.581940 539.679260
   vertex -106.019867 177.386658 542.192932
   vertex -106.038841 177.374832 542.218079
  endloop
 endfacet

 facet normal 0.819014 0.291505 -0.494208
  outer loop
   vertex -105.151802 170.596527 539.626404
   vertex -106.019867 177.386658 542.192932
   vertex -105.114716 170.581940 539.679260
  endloop
 endfacet

 facet normal 0.818961 0.291526 -0.494283
  outer loop
   vertex -106.056961 177.401245 542.140076
   vertex -106.019867 177.386658 542.192932
   vertex -105.151802 170.596527 539.626404
  endloop
 endfacet

 facet normal -0.560281 0.220416 -0.798437
  outer loop
   vertex -105.151802 170.596527 539.626404
   vertex -106.357201 170.167496 540.353821
   vertex -106.056961 177.401245 542.140076
  endloop
 endfacet

 facet normal -0.560253 0.220419 -0.798456
  outer loop
   vertex -106.056961 177.401245 542.140076
   vertex -106.357201 170.167496 540.353821
   vertex -107.262360 176.972214 542.867432
  endloop
 endfacet

 facet normal -0.819014 -0.291502 0.494209
  outer loop
   vertex -107.262360 176.972214 542.867432
   vertex -106.357201 170.167496 540.353821
   vertex -107.225273 176.957626 542.920288
  endloop
 endfacet

 facet normal -0.819004 -0.291491 0.494231
  outer loop
   vertex -107.224991 176.490128 542.679504
   vertex -106.754089 176.304871 543.350586
   vertex -107.348808 177.420959 543.023315
  endloop
 endfacet

 facet normal 0.819021 0.291511 -0.494192
  outer loop
   vertex -105.520775 176.743835 542.606384
   vertex -105.991676 176.929092 541.935242
   vertex -106.115494 177.859924 542.279114
  endloop
 endfacet

 facet normal -0.819052 -0.291486 0.494155
  outer loop
   vertex -106.357201 170.167496 540.353821
   vertex -106.320114 170.152893 540.406677
   vertex -107.225273 176.957626 542.920288
  endloop
 endfacet

 facet normal 0.670733 -0.740715 0.038192
  outer loop
   vertex -106.263962 170.366501 539.136719
   vertex -106.731361 169.888794 538.080383
   vertex -106.128242 170.486191 539.074524
  endloop
 endfacet

 facet normal 0.670746 -0.740704 0.038178
  outer loop
   vertex -106.128242 170.486191 539.074524
   vertex -106.731361 169.888794 538.080383
   vertex -106.188507 170.367554 537.831604
  endloop
 endfacet

 facet normal 0.979992 -0.196953 -0.028717
  outer loop
   vertex -106.188507 170.367554 537.831604
   vertex -106.090164 170.672073 539.099121
   vertex -106.128242 170.486191 539.074524
  endloop
 endfacet

 facet normal 0.979991 -0.196961 -0.028715
  outer loop
   vertex -106.036179 171.111130 537.929993
   vertex -106.090164 170.672073 539.099121
   vertex -106.188507 170.367554 537.831604
  endloop
 endfacet

 facet normal 0.902108 0.388601 0.187592
  outer loop
   vertex -106.172020 170.815277 539.196106
   vertex -106.090164 170.672073 539.099121
   vertex -106.036179 171.111130 537.929993
  endloop
 endfacet

 facet normal 0.902097 0.388624 0.187596
  outer loop
   vertex -106.036179 171.111130 537.929993
   vertex -106.363609 171.683945 538.317871
   vertex -106.172020 170.815277 539.196106
  endloop
 endfacet

 facet normal 0.482715 0.673021 0.560383
  outer loop
   vertex -106.172020 170.815277 539.196106
   vertex -106.363609 171.683945 538.317871
   vertex -106.325867 170.831909 539.308655
  endloop
 endfacet

 facet normal 0.482690 0.673031 0.560393
  outer loop
   vertex -106.325867 170.831909 539.308655
   vertex -106.363609 171.683945 538.317871
   vertex -106.978996 171.750443 538.768066
  endloop
 endfacet

 facet normal -0.032784 0.489522 0.871374
  outer loop
   vertex -106.978996 171.750443 538.768066
   vertex -106.461578 170.712219 539.370789
   vertex -106.325867 170.831909 539.308655
  endloop
 endfacet

 facet normal -0.032509 0.489630 0.871324
  outer loop
   vertex -107.521858 171.271683 539.016846
   vertex -106.461578 170.712219 539.370789
   vertex -106.978996 171.750443 538.768066
  endloop
 endfacet

 facet normal -0.341758 -0.054124 0.938228
  outer loop
   vertex -106.499664 170.526321 539.346191
   vertex -106.461578 170.712219 539.370789
   vertex -107.521858 171.271683 539.016846
  endloop
 endfacet

 facet normal -0.341763 -0.054131 0.938226
  outer loop
   vertex -107.521858 171.271683 539.016846
   vertex -107.674187 170.528107 538.918457
   vertex -106.499664 170.526321 539.346191
  endloop
 endfacet

 facet normal -0.263919 -0.639545 0.722031
  outer loop
   vertex -106.499664 170.526321 539.346191
   vertex -107.674187 170.528107 538.918457
   vertex -106.417809 170.383118 539.249268
  endloop
 endfacet

 facet normal -0.263904 -0.639689 0.721909
  outer loop
   vertex -106.417809 170.383118 539.249268
   vertex -107.674187 170.528107 538.918457
   vertex -107.346756 169.955292 538.530579
  endloop
 endfacet

 facet normal 0.155545 -0.924103 0.349055
  outer loop
   vertex -107.346756 169.955292 538.530579
   vertex -106.263962 170.366501 539.136719
   vertex -106.417809 170.383118 539.249268
  endloop
 endfacet

 facet normal 0.155523 -0.924094 0.349089
  outer loop
   vertex -106.731361 169.888794 538.080383
   vertex -106.263962 170.366501 539.136719
   vertex -107.346756 169.955292 538.530579
  endloop
 endfacet

 facet normal 0.427812 -0.748425 -0.506792
  outer loop
   vertex -106.613182 176.943329 542.437195
   vertex -107.173454 177.163742 541.638733
   vertex -106.477470 177.063019 542.375000
  endloop
 endfacet

 facet normal 0.427899 -0.748328 -0.506861
  outer loop
   vertex -106.477470 177.063019 542.375000
   vertex -107.173454 177.163742 541.638733
   vertex -107.037735 177.283432 541.576599
  endloop
 endfacet

 facet normal 0.804030 -0.086898 -0.588204
  outer loop
   vertex -107.037735 177.283432 541.576599
   vertex -106.439384 177.248917 542.399597
   vertex -106.477470 177.063019 542.375000
  endloop
 endfacet

 facet normal 0.804016 -0.087055 -0.588201
  outer loop
   vertex -106.999657 177.469330 541.601135
   vertex -106.439384 177.248917 542.399597
   vertex -107.037735 177.283432 541.576599
  endloop
 endfacet

 facet normal 0.709262 0.625559 -0.324998
  outer loop
   vertex -106.521248 177.392120 542.496582
   vertex -106.439384 177.248917 542.399597
   vertex -106.999657 177.469330 541.601135
  endloop
 endfacet

 facet normal 0.709277 0.625537 -0.325008
  outer loop
   vertex -106.999657 177.469330 541.601135
   vertex -107.081512 177.612534 541.698120
   vertex -106.521248 177.392120 542.496582
  endloop
 endfacet

 facet normal 0.198987 0.971533 0.128564
  outer loop
   vertex -106.521248 177.392120 542.496582
   vertex -107.081512 177.612534 541.698120
   vertex -106.675095 177.408737 542.609131
  endloop
 endfacet

 facet normal 0.199058 0.971523 0.128530
  outer loop
   vertex -106.675095 177.408737 542.609131
   vertex -107.081512 177.612534 541.698120
   vertex -107.235359 177.629166 541.810669
  endloop
 endfacet

 facet normal -0.427807 0.748423 0.506798
  outer loop
   vertex -107.235359 177.629166 541.810669
   vertex -106.810806 177.289047 542.671326
   vertex -106.675095 177.408737 542.609131
  endloop
 endfacet

 facet normal -0.427807 0.748423 0.506798
  outer loop
   vertex -107.371071 177.509476 541.872864
   vertex -106.810806 177.289047 542.671326
   vertex -107.235359 177.629166 541.810669
  endloop
 endfacet

 facet normal -0.804048 0.086912 0.588178
  outer loop
   vertex -106.848892 177.103165 542.646729
   vertex -106.810806 177.289047 542.671326
   vertex -107.371071 177.509476 541.872864
  endloop
 endfacet

 facet normal -0.804050 0.086906 0.588176
  outer loop
   vertex -107.371071 177.509476 541.872864
   vertex -107.409157 177.323578 541.848267
   vertex -106.848892 177.103165 542.646729
  endloop
 endfacet

 facet normal -0.709265 -0.625558 0.324993
  outer loop
   vertex -106.848892 177.103165 542.646729
   vertex -107.409157 177.323578 541.848267
   vertex -106.767029 176.959961 542.549744
  endloop
 endfacet

 facet normal -0.709274 -0.625538 0.325012
  outer loop
   vertex -106.767029 176.959961 542.549744
   vertex -107.409157 177.323578 541.848267
   vertex -107.327301 177.180374 541.751282
  endloop
 endfacet

 facet normal -0.199048 -0.971526 -0.128517
  outer loop
   vertex -107.327301 177.180374 541.751282
   vertex -106.613182 176.943329 542.437195
   vertex -106.767029 176.959961 542.549744
  endloop
 endfacet

 facet normal -0.199048 -0.971526 -0.128517
  outer loop
   vertex -107.173454 177.163742 541.638733
   vertex -106.613182 176.943329 542.437195
   vertex -107.327301 177.180374 541.751282
  endloop
 endfacet

 facet normal 0.427808 -0.748431 -0.506786
  outer loop
   vertex -107.635231 176.683838 540.590454
   vertex -108.195496 176.904251 539.791992
   vertex -107.092369 177.162598 540.341675
  endloop
 endfacet

 facet normal 0.427809 -0.748427 -0.506790
  outer loop
   vertex -107.092369 177.162598 540.341675
   vertex -108.195496 176.904251 539.791992
   vertex -107.652641 177.383011 539.543213
  endloop
 endfacet

 facet normal 0.804050 -0.086890 -0.588179
  outer loop
   vertex -107.652641 177.383011 539.543213
   vertex -106.940041 177.906174 540.440063
   vertex -107.092369 177.162598 540.341675
  endloop
 endfacet

 facet normal 0.804050 -0.086890 -0.588179
  outer loop
   vertex -107.500313 178.126587 539.641602
   vertex -106.940041 177.906174 540.440063
   vertex -107.652641 177.383011 539.543213
  endloop
 endfacet

 facet normal 0.709274 0.625539 -0.325011
  outer loop
   vertex -107.267479 178.478973 540.827942
   vertex -106.940041 177.906174 540.440063
   vertex -107.500313 178.126587 539.641602
  endloop
 endfacet

 facet normal 0.709290 0.625521 -0.325009
  outer loop
   vertex -107.500313 178.126587 539.641602
   vertex -107.827744 178.699402 540.029480
   vertex -107.267479 178.478973 540.827942
  endloop
 endfacet

 facet normal 0.199042 0.971524 0.128541
  outer loop
   vertex -107.267479 178.478973 540.827942
   vertex -107.827744 178.699402 540.029480
   vertex -107.882866 178.545486 541.278137
  endloop
 endfacet

 facet normal 0.199018 0.971529 0.128541
  outer loop
   vertex -107.882866 178.545486 541.278137
   vertex -107.827744 178.699402 540.029480
   vertex -108.443130 178.765900 540.479675
  endloop
 endfacet

 facet normal -0.427808 0.748431 0.506786
  outer loop
   vertex -108.443130 178.765900 540.479675
   vertex -108.425728 178.066727 541.526917
   vertex -107.882866 178.545486 541.278137
  endloop
 endfacet

 facet normal -0.427808 0.748431 0.506786
  outer loop
   vertex -108.985992 178.287140 540.728455
   vertex -108.425728 178.066727 541.526917
   vertex -108.443130 178.765900 540.479675
  endloop
 endfacet

 facet normal -0.804053 0.086892 0.588174
  outer loop
   vertex -108.578056 177.323151 541.428528
   vertex -108.425728 178.066727 541.526917
   vertex -108.985992 178.287140 540.728455
  endloop
 endfacet

 facet normal -0.804053 0.086892 0.588174
  outer loop
   vertex -108.985992 178.287140 540.728455
   vertex -109.138321 177.543564 540.630066
   vertex -108.578056 177.323151 541.428528
  endloop
 endfacet

 facet normal -0.709282 -0.625528 0.325013
  outer loop
   vertex -108.578056 177.323151 541.428528
   vertex -109.138321 177.543564 540.630066
   vertex -108.250618 176.750336 541.040649
  endloop
 endfacet

 facet normal -0.709282 -0.625524 0.325021
  outer loop
   vertex -108.250618 176.750336 541.040649
   vertex -109.138321 177.543564 540.630066
   vertex -108.810890 176.970749 540.242188
  endloop
 endfacet

 facet normal -0.199017 -0.971530 -0.128540
  outer loop
   vertex -108.810890 176.970749 540.242188
   vertex -107.635231 176.683838 540.590454
   vertex -108.250618 176.750336 541.040649
  endloop
 endfacet

 facet normal -0.199016 -0.971529 -0.128542
  outer loop
   vertex -108.195496 176.904251 539.791992
   vertex -107.635231 176.683838 540.590454
   vertex -108.810890 176.970749 540.242188
  endloop
 endfacet

 facet normal 0.670748 -0.740703 0.038165
  outer loop
   vertex -107.167824 177.161530 541.646790
   vertex -107.635231 176.683838 540.590454
   vertex -107.032112 177.281219 541.584595
  endloop
 endfacet

 facet normal 0.670740 -0.740710 0.038174
  outer loop
   vertex -107.032112 177.281219 541.584595
   vertex -107.635231 176.683838 540.590454
   vertex -107.092369 177.162598 540.341675
  endloop
 endfacet

 facet normal 0.979995 -0.196938 -0.028715
  outer loop
   vertex -107.092369 177.162598 540.341675
   vertex -106.994034 177.467117 541.609192
   vertex -107.032112 177.281219 541.584595
  endloop
 endfacet

 facet normal 0.979991 -0.196962 -0.028709
  outer loop
   vertex -106.940041 177.906174 540.440063
   vertex -106.994034 177.467117 541.609192
   vertex -107.092369 177.162598 540.341675
  endloop
 endfacet

 facet normal 0.902108 0.388598 0.187596
  outer loop
   vertex -107.075890 177.610321 541.706177
   vertex -106.994034 177.467117 541.609192
   vertex -106.940041 177.906174 540.440063
  endloop
 endfacet

 facet normal 0.902090 0.388637 0.187604
  outer loop
   vertex -106.940041 177.906174 540.440063
   vertex -107.267479 178.478973 540.827942
   vertex -107.075890 177.610321 541.706177
  endloop
 endfacet

 facet normal 0.482712 0.673027 0.560378
  outer loop
   vertex -107.075890 177.610321 541.706177
   vertex -107.267479 178.478973 540.827942
   vertex -107.229736 177.626953 541.818726
  endloop
 endfacet

 facet normal 0.482700 0.673032 0.560383
  outer loop
   vertex -107.229736 177.626953 541.818726
   vertex -107.267479 178.478973 540.827942
   vertex -107.882866 178.545486 541.278137
  endloop
 endfacet

 facet normal -0.032784 0.489522 0.871374
  outer loop
   vertex -107.882866 178.545486 541.278137
   vertex -107.365448 177.507263 541.880859
   vertex -107.229736 177.626953 541.818726
  endloop
 endfacet

 facet normal -0.032509 0.489630 0.871324
  outer loop
   vertex -108.425728 178.066727 541.526917
   vertex -107.365448 177.507263 541.880859
   vertex -107.882866 178.545486 541.278137
  endloop
 endfacet

 facet normal -0.341758 -0.054124 0.938228
  outer loop
   vertex -107.403534 177.321365 541.856262
   vertex -107.365448 177.507263 541.880859
   vertex -108.425728 178.066727 541.526917
  endloop
 endfacet

 facet normal -0.341763 -0.054131 0.938226
  outer loop
   vertex -108.425728 178.066727 541.526917
   vertex -108.578056 177.323151 541.428528
   vertex -107.403534 177.321365 541.856262
  endloop
 endfacet

 facet normal -0.263919 -0.639545 0.722031
  outer loop
   vertex -107.403534 177.321365 541.856262
   vertex -108.578056 177.323151 541.428528
   vertex -107.321678 177.178162 541.759338
  endloop
 endfacet

 facet normal -0.263904 -0.639691 0.721907
  outer loop
   vertex -107.321678 177.178162 541.759338
   vertex -108.578056 177.323151 541.428528
   vertex -108.250618 176.750336 541.040649
  endloop
 endfacet

 facet normal 0.155492 -0.924089 0.349117
  outer loop
   vertex -108.250618 176.750336 541.040649
   vertex -107.167824 177.161530 541.646790
   vertex -107.321678 177.178162 541.759338
  endloop
 endfacet

 facet normal 0.155517 -0.924099 0.349079
  outer loop
   vertex -107.635231 176.683838 540.590454
   vertex -107.167824 177.161530 541.646790
   vertex -108.250618 176.750336 541.040649
  endloop
 endfacet

 facet normal 0.427806 -0.748422 -0.506801
  outer loop
   vertex -105.709312 170.148285 539.927124
   vertex -106.269585 170.368713 539.128662
   vertex -105.573601 170.267975 539.864929
  endloop
 endfacet

 facet normal 0.427893 -0.748325 -0.506870
  outer loop
   vertex -105.573601 170.267975 539.864929
   vertex -106.269585 170.368713 539.128662
   vertex -106.133865 170.488403 539.066528
  endloop
 endfacet

 facet normal 0.804029 -0.086897 -0.588206
  outer loop
   vertex -106.133865 170.488403 539.066528
   vertex -105.535515 170.453873 539.889526
   vertex -105.573601 170.267975 539.864929
  endloop
 endfacet

 facet normal 0.804032 -0.086872 -0.588206
  outer loop
   vertex -106.095787 170.674286 539.091125
   vertex -105.535515 170.453873 539.889526
   vertex -106.133865 170.488403 539.066528
  endloop
 endfacet

 facet normal 0.709251 0.625564 -0.325013
  outer loop
   vertex -105.617378 170.597076 539.986511
   vertex -105.535515 170.453873 539.889526
   vertex -106.095787 170.674286 539.091125
  endloop
 endfacet

 facet normal 0.709321 0.625459 -0.325060
  outer loop
   vertex -106.095787 170.674286 539.091125
   vertex -106.177643 170.817490 539.188049
   vertex -105.617378 170.597076 539.986511
  endloop
 endfacet

 facet normal 0.199049 0.971526 0.128518
  outer loop
   vertex -105.617378 170.597076 539.986511
   vertex -106.177643 170.817490 539.188049
   vertex -105.771225 170.613708 540.099060
  endloop
 endfacet

 facet normal 0.199049 0.971526 0.128518
  outer loop
   vertex -105.771225 170.613708 540.099060
   vertex -106.177643 170.817490 539.188049
   vertex -106.331490 170.834122 539.300598
  endloop
 endfacet

 facet normal -0.427814 0.748425 0.506789
  outer loop
   vertex -106.331490 170.834122 539.300598
   vertex -105.906937 170.494019 540.161255
   vertex -105.771225 170.613708 540.099060
  endloop
 endfacet

 facet normal -0.427800 0.748435 0.506786
  outer loop
   vertex -106.467209 170.714432 539.362793
   vertex -105.906937 170.494019 540.161255
   vertex -106.331490 170.834122 539.300598
  endloop
 endfacet

 facet normal -0.804047 0.086904 0.588181
  outer loop
   vertex -105.945023 170.308121 540.136658
   vertex -105.906937 170.494019 540.161255
   vertex -106.467209 170.714432 539.362793
  endloop
 endfacet

 facet normal -0.804057 0.086874 0.588172
  outer loop
   vertex -106.467209 170.714432 539.362793
   vertex -106.505287 170.528534 539.338196
   vertex -105.945023 170.308121 540.136658
  endloop
 endfacet

 facet normal -0.709265 -0.625558 0.324993
  outer loop
   vertex -105.945023 170.308121 540.136658
   vertex -106.505287 170.528534 539.338196
   vertex -105.863159 170.164917 540.039673
  endloop
 endfacet

 facet normal -0.709274 -0.625538 0.325012
  outer loop
   vertex -105.863159 170.164917 540.039673
   vertex -106.505287 170.528534 539.338196
   vertex -106.423431 170.385330 539.241211
  endloop
 endfacet

 facet normal -0.199048 -0.971526 -0.128517
  outer loop
   vertex -106.423431 170.385330 539.241211
   vertex -105.709312 170.148285 539.927124
   vertex -105.863159 170.164917 540.039673
  endloop
 endfacet

 facet normal -0.198994 -0.971530 -0.128574
  outer loop
   vertex -106.269585 170.368713 539.128662
   vertex -105.709312 170.148285 539.927124
   vertex -106.423431 170.385330 539.241211
  endloop
 endfacet

 facet normal -0.199025 -0.971526 -0.128554
  outer loop
   vertex -107.346756 169.955292 538.530579
   vertex -107.907021 170.175720 537.732117
   vertex -106.731361 169.888794 538.080383
  endloop
 endfacet

 facet normal -0.199033 -0.971528 -0.128528
  outer loop
   vertex -106.731361 169.888794 538.080383
   vertex -107.907021 170.175720 537.732117
   vertex -107.291634 170.109207 537.281921
  endloop
 endfacet

 facet normal 0.427809 -0.748427 -0.506790
  outer loop
   vertex -107.291634 170.109207 537.281921
   vertex -106.188507 170.367554 537.831604
   vertex -106.731361 169.888794 538.080383
  endloop
 endfacet

 facet normal 0.427808 -0.748431 -0.506786
  outer loop
   vertex -106.748772 170.587967 537.033142
   vertex -106.188507 170.367554 537.831604
   vertex -107.291634 170.109207 537.281921
  endloop
 endfacet

 facet normal 0.804053 -0.086892 -0.588174
  outer loop
   vertex -106.036179 171.111130 537.929993
   vertex -106.188507 170.367554 537.831604
   vertex -106.748772 170.587967 537.033142
  endloop
 endfacet

 facet normal 0.804053 -0.086892 -0.588174
  outer loop
   vertex -106.748772 170.587967 537.033142
   vertex -106.596443 171.331543 537.131531
   vertex -106.036179 171.111130 537.929993
  endloop
 endfacet

 facet normal 0.709285 0.625523 -0.325017
  outer loop
   vertex -106.036179 171.111130 537.929993
   vertex -106.596443 171.331543 537.131531
   vertex -106.363609 171.683945 538.317871
  endloop
 endfacet

 facet normal 0.709263 0.625547 -0.325020
  outer loop
   vertex -106.363609 171.683945 538.317871
   vertex -106.596443 171.331543 537.131531
   vertex -106.923874 171.904358 537.519470
  endloop
 endfacet

 facet normal 0.199022 0.971527 0.128547
  outer loop
   vertex -106.923874 171.904358 537.519470
   vertex -106.978996 171.750443 538.768066
   vertex -106.363609 171.683945 538.317871
  endloop
 endfacet

 facet normal 0.199031 0.971526 0.128547
  outer loop
   vertex -107.539268 171.970871 537.969604
   vertex -106.978996 171.750443 538.768066
   vertex -106.923874 171.904358 537.519470
  endloop
 endfacet

 facet normal -0.427799 0.748427 0.506798
  outer loop
   vertex -107.521858 171.271683 539.016846
   vertex -106.978996 171.750443 538.768066
   vertex -107.539268 171.970871 537.969604
  endloop
 endfacet

 facet normal -0.427804 0.748425 0.506797
  outer loop
   vertex -107.539268 171.970871 537.969604
   vertex -108.082123 171.492111 538.218384
   vertex -107.521858 171.271683 539.016846
  endloop
 endfacet

 facet normal -0.804052 0.086891 0.588175
  outer loop
   vertex -107.521858 171.271683 539.016846
   vertex -108.082123 171.492111 538.218384
   vertex -107.674187 170.528107 538.918457
  endloop
 endfacet

 facet normal -0.804052 0.086891 0.588175
  outer loop
   vertex -107.674187 170.528107 538.918457
   vertex -108.082123 171.492111 538.218384
   vertex -108.234451 170.748535 538.119995
  endloop
 endfacet

 facet normal -0.709290 -0.625521 0.325009
  outer loop
   vertex -108.234451 170.748535 538.119995
   vertex -107.346756 169.955292 538.530579
   vertex -107.674187 170.528107 538.918457
  endloop
 endfacet

 facet normal -0.709290 -0.625521 0.325009
  outer loop
   vertex -107.907021 170.175720 537.732117
   vertex -107.346756 169.955292 538.530579
   vertex -108.234451 170.748535 538.119995
  endloop
 endfacet

endsolid