solid stl file generated from DOUG
 facet normal 0.329251 -0.631069 0.702386
  outer loop
   vertex -54.782654 -71.502968 400.107513
   vertex -54.815590 -71.608566 400.028076
   vertex -30.665497 -71.020943 389.235413
  endloop
 facet normal 0.000920 -0.998630 -0.052313
  outer loop
   vertex -30.665497 -71.020943 389.235413
   vertex -54.815590 -71.608566 400.028076
   vertex -30.707474 -71.016075 389.141754
  endloop
 facet normal -0.328179 -0.554761 -0.764551
  outer loop
   vertex -30.181345 -70.967690 390.321686
   vertex -30.148209 -71.080956 390.389648
   vertex -54.298306 -71.668571 401.182312
  endloop
 facet normal 0.000920 -0.998630 -0.052313
  outer loop
   vertex -54.298306 -71.668571 401.182312
   vertex -30.148209 -71.080956 390.389648
   vertex -30.106232 -71.085823 390.483307
  endloop
 facet normal 0.000890 -0.998627 -0.052380
  outer loop
   vertex -30.106232 -71.085823 390.483307
   vertex -54.256329 -71.673447 401.275970
   vertex -54.298306 -71.668571 401.182312
  endloop
 facet normal 0.147285 -0.949255 0.277889
  outer loop
   vertex -30.106901 -70.354103 390.521667
   vertex -54.256996 -70.941719 401.314301
   vertex -30.119728 -70.364670 390.492371
  endloop
 facet normal 0.147467 -0.949105 0.278302
  outer loop
   vertex -30.119728 -70.364670 390.492371
   vertex -54.256996 -70.941719 401.314301
   vertex -54.269821 -70.952293 401.285034
  endloop
 facet normal 0.408512 -0.047382 0.911522
  outer loop
   vertex -54.269821 -70.952293 401.285034
   vertex -54.269299 -71.526657 401.254944
   vertex -30.119728 -70.364670 390.492371
  endloop
 facet normal 0.329251 -0.631069 0.702386
  outer loop
   vertex -30.665497 -71.020943 389.235413
   vertex -30.632561 -70.915344 389.314850
   vertex -54.782654 -71.502968 400.107513
  endloop
 facet normal 0.000913 -0.998630 -0.052328
  outer loop
   vertex -54.782654 -71.502968 400.107513
   vertex -30.632561 -70.915344 389.314850
   vertex -30.181345 -70.967690 390.321686
  endloop
 facet normal 0.000913 -0.998629 -0.052329
  outer loop
   vertex -30.181345 -70.967690 390.321686
   vertex -54.331440 -71.555313 401.114319
   vertex -54.782654 -71.502968 400.107513
  endloop
 facet normal -0.328130 -0.554926 -0.764453
  outer loop
   vertex -54.298306 -71.668571 401.182312
   vertex -54.331440 -71.555313 401.114319
   vertex -30.181345 -70.967690 390.321686
  endloop
 facet normal 0.408512 -0.047436 0.911520
  outer loop
   vertex -54.256329 -71.673447 401.275970
   vertex -30.106232 -71.085823 390.483307
   vertex -54.256451 -71.540207 401.282959
  endloop
 facet normal 0.408512 -0.047438 0.911519
  outer loop
   vertex -54.256451 -71.540207 401.282959
   vertex -30.106232 -71.085823 390.483307
   vertex -30.106354 -70.952591 390.490295
  endloop
 facet normal 0.145686 0.915170 0.375819
  outer loop
   vertex -30.106354 -70.952591 390.490295
   vertex -54.269299 -71.526657 401.254944
   vertex -54.256451 -71.540207 401.282959
  endloop
 facet normal 0.145686 0.915170 0.375819
  outer loop
   vertex -30.119202 -70.939041 390.462280
   vertex -54.269299 -71.526657 401.254944
   vertex -30.106354 -70.952591 390.490295
  endloop
 facet normal 0.408512 -0.047379 0.911523
  outer loop
   vertex -30.119728 -70.364670 390.492371
   vertex -54.269299 -71.526657 401.254944
   vertex -30.119202 -70.939041 390.462280
  endloop
 facet normal 0.912751 0.022205 -0.407911
  outer loop
   vertex -30.335337 -71.024727 388.955841
   vertex -29.720940 -70.256737 390.372437
   vertex -29.720173 -71.096085 390.328461
  endloop
 facet normal 0.408503 -0.047384 0.911526
  outer loop
   vertex -29.720173 -71.096085 390.328461
   vertex -29.720940 -70.256737 390.372437
   vertex -30.632925 -71.118294 390.736359
  endloop
 facet normal 0.000915 -0.998630 -0.052325
  outer loop
   vertex -30.632925 -71.118294 390.736359
   vertex -31.248089 -71.046936 389.363739
   vertex -29.720173 -71.096085 390.328461
  endloop
 facet normal -0.912751 -0.022222 0.407910
  outer loop
   vertex -30.633694 -70.278946 390.780365
   vertex -31.248089 -71.046936 389.363739
   vertex -30.632925 -71.118294 390.736359
  endloop
 facet normal -0.912755 -0.022207 0.407904
  outer loop
   vertex -31.248857 -70.207581 389.407715
   vertex -31.248089 -71.046936 389.363739
   vertex -30.633694 -70.278946 390.780365
  endloop
 facet normal -0.000912 0.998630 0.052328
  outer loop
   vertex -30.633694 -70.278946 390.780365
   vertex -29.720940 -70.256737 390.372437
   vertex -31.248857 -70.207581 389.407715
  endloop
 facet normal -0.000913 0.998629 0.052330
  outer loop
   vertex -31.248857 -70.207581 389.407715
   vertex -29.720940 -70.256737 390.372437
   vertex -30.336103 -70.185371 388.999817
  endloop
 facet normal 0.912752 0.022205 -0.407911
  outer loop
   vertex -30.336103 -70.185371 388.999817
   vertex -29.720940 -70.256737 390.372437
   vertex -30.335337 -71.024727 388.955841
  endloop
 facet normal -0.408503 0.047384 -0.911526
  outer loop
   vertex -30.335337 -71.024727 388.955841
   vertex -31.248089 -71.046936 389.363739
   vertex -30.336103 -70.185371 388.999817
  endloop
 facet normal 0.000915 -0.998630 -0.052325
  outer loop
   vertex -29.720173 -71.096085 390.328461
   vertex -31.248089 -71.046936 389.363739
   vertex -30.335337 -71.024727 388.955841
  endloop
 facet normal 0.912754 0.022209 -0.407905
  outer loop
   vertex -53.715675 -71.679947 401.052032
   vertex -54.330841 -71.608582 399.679382
   vertex -53.716446 -70.840599 401.096008
  endloop
 facet normal 0.912752 0.022220 -0.407909
  outer loop
   vertex -53.716446 -70.840599 401.096008
   vertex -54.330841 -71.608582 399.679382
   vertex -54.331608 -70.769234 399.723389
  endloop
 facet normal -0.000913 0.998629 0.052330
  outer loop
   vertex -54.331608 -70.769234 399.723389
   vertex -55.244362 -70.791443 400.131287
   vertex -53.716446 -70.840599 401.096008
  endloop
 facet normal -0.408502 0.047417 -0.911525
  outer loop
   vertex -54.330841 -71.608582 399.679382
   vertex -55.244362 -70.791443 400.131287
   vertex -54.331608 -70.769234 399.723389
  endloop
 facet normal -0.408528 0.047384 -0.911515
  outer loop
   vertex -55.243595 -71.630791 400.087311
   vertex -55.244362 -70.791443 400.131287
   vertex -54.330841 -71.608582 399.679382
  endloop
 facet normal 0.000912 -0.998629 -0.052329
  outer loop
   vertex -54.330841 -71.608582 399.679382
   vertex -54.628429 -71.702156 401.459930
   vertex -55.243595 -71.630791 400.087311
  endloop
 facet normal -0.912751 -0.022205 0.407912
  outer loop
   vertex -55.243595 -71.630791 400.087311
   vertex -54.628429 -71.702156 401.459930
   vertex -55.244362 -70.791443 400.131287
  endloop
 facet normal -0.912751 -0.022205 0.407912
  outer loop
   vertex -55.244362 -70.791443 400.131287
   vertex -54.628429 -71.702156 401.459930
   vertex -54.629196 -70.862808 401.503906
  endloop
 facet normal -0.000913 0.998629 0.052330
  outer loop
   vertex -54.629196 -70.862808 401.503906
   vertex -53.716446 -70.840599 401.096008
   vertex -55.244362 -70.791443 400.131287
  endloop
 facet normal 0.408504 -0.047384 0.911526
  outer loop
   vertex -54.628429 -71.702156 401.459930
   vertex -53.716446 -70.840599 401.096008
   vertex -54.629196 -70.862808 401.503906
  endloop
 facet normal 0.408502 -0.047382 0.911527
  outer loop
   vertex -53.715675 -71.679947 401.052032
   vertex -53.716446 -70.840599 401.096008
   vertex -54.628429 -71.702156 401.459930
  endloop
 facet normal 0.000914 -0.998629 -0.052329
  outer loop
   vertex -54.628429 -71.702156 401.459930
   vertex -54.330841 -71.608582 399.679382
   vertex -53.715675 -71.679947 401.052032
  endloop
 facet normal 0.000920 -0.998630 -0.052313
  outer loop
   vertex -54.815590 -71.608566 400.028076
   vertex -54.857567 -71.603699 399.934418
   vertex -30.707474 -71.016075 389.141754
  endloop
 facet normal -0.408512 0.047227 -0.911530
  outer loop
   vertex -30.707474 -71.016075 389.141754
   vertex -54.857567 -71.603699 399.934418
   vertex -54.857689 -71.470459 399.941376
  endloop
 facet normal -0.408511 0.047436 -0.911520
  outer loop
   vertex -54.857689 -71.470459 399.941376
   vertex -30.707596 -70.882835 389.148743
   vertex -30.707474 -71.016075 389.141754
  endloop
 facet normal -0.147289 0.949252 -0.277896
  outer loop
   vertex -54.844864 -71.459892 399.970673
   vertex -30.707596 -70.882835 389.148743
   vertex -54.857689 -71.470459 399.941376
  endloop
 facet normal -0.147382 0.949176 -0.278108
  outer loop
   vertex -30.694769 -70.872269 389.178009
   vertex -30.707596 -70.882835 389.148743
   vertex -54.844864 -71.459892 399.970673
  endloop
 facet normal -0.408512 0.047379 -0.911523
  outer loop
   vertex -54.844864 -71.459892 399.970673
   vertex -54.845390 -70.885521 400.000763
   vertex -30.694769 -70.872269 389.178009
  endloop
 facet normal -0.408512 0.047379 -0.911523
  outer loop
   vertex -30.694769 -70.872269 389.178009
   vertex -54.845390 -70.885521 400.000763
   vertex -30.695295 -70.297897 389.208099
  endloop
 facet normal -0.145685 -0.915170 -0.375819
  outer loop
   vertex -30.695295 -70.297897 389.208099
   vertex -54.845390 -70.885521 400.000763
   vertex -54.858238 -70.871971 399.972748
  endloop
 facet normal -0.145606 -0.915253 -0.375646
  outer loop
   vertex -54.858238 -70.871971 399.972748
   vertex -30.708143 -70.284355 389.180084
   vertex -30.695295 -70.297897 389.208099
  endloop
 facet normal -0.408512 0.047592 -0.911511
  outer loop
   vertex -54.858299 -70.805862 399.976227
   vertex -30.708143 -70.284355 389.180084
   vertex -54.858238 -70.871971 399.972748
  endloop
 facet normal -0.408512 0.047603 -0.911511
  outer loop
   vertex -30.708202 -70.218246 389.183563
   vertex -30.708143 -70.284355 389.180084
   vertex -54.858299 -70.805862 399.976227
  endloop
 facet normal -0.000913 0.998630 0.052328
  outer loop
   vertex -54.858299 -70.805862 399.976227
   vertex -54.257057 -70.875610 401.317780
   vertex -30.708202 -70.218246 389.183563
  endloop
 facet normal -0.000913 0.998630 0.052328
  outer loop
   vertex -30.708202 -70.218246 389.183563
   vertex -54.257057 -70.875610 401.317780
   vertex -30.106962 -70.287994 390.525116
  endloop
 facet normal 0.408512 -0.047172 0.911533
  outer loop
   vertex -30.106962 -70.287994 390.525116
   vertex -54.257057 -70.875610 401.317780
   vertex -30.106901 -70.354103 390.521667
  endloop
 facet normal 0.408528 -0.047416 0.911513
  outer loop
   vertex -30.633694 -70.278946 390.780365
   vertex -30.632925 -71.118294 390.736359
   vertex -29.720940 -70.256737 390.372437
  endloop
 facet normal -0.408502 0.047383 -0.911527
  outer loop
   vertex -31.248089 -71.046936 389.363739
   vertex -31.248857 -70.207581 389.407715
   vertex -30.336103 -70.185371 388.999817
  endloop
 facet normal 0.408511 -0.047592 0.911512
  outer loop
   vertex -54.257057 -70.875610 401.317780
   vertex -54.256996 -70.941719 401.314301
   vertex -30.106901 -70.354103 390.521667
  endloop
 facet normal -0.821115 -0.570722 -0.006763
  outer loop
   vertex -54.677887 -69.881554 400.750732
   vertex -55.363365 -68.899582 401.109009
   vertex -54.683266 -69.871552 400.559723
  endloop
 facet normal -0.821115 -0.570723 -0.006761
  outer loop
   vertex -54.683266 -69.871552 400.559723
   vertex -55.363365 -68.899582 401.109009
   vertex -55.384888 -68.859566 400.344971
  endloop
 facet normal -0.596819 -0.539766 -0.593683
  outer loop
   vertex -55.384888 -68.859566 400.344971
   vertex -54.551826 -69.864159 400.420868
   vertex -54.683266 -69.871552 400.559723
  endloop
 facet normal -0.596813 -0.539762 -0.593693
  outer loop
   vertex -54.859123 -68.829987 399.789551
   vertex -54.551826 -69.864159 400.420868
   vertex -55.384888 -68.859566 400.344971
  endloop
 facet normal -0.022485 -0.525770 -0.850329
  outer loop
   vertex -54.360561 -69.863701 400.415527
   vertex -54.551826 -69.864159 400.420868
   vertex -54.859123 -68.829987 399.789551
  endloop
 facet normal -0.022591 -0.525806 -0.850304
  outer loop
   vertex -54.859123 -68.829987 399.789551
   vertex -54.094059 -68.828163 399.768097
   vertex -54.360561 -69.863701 400.415527
  endloop
 facet normal 0.565124 -0.537010 -0.626303
  outer loop
   vertex -54.360561 -69.863701 400.415527
   vertex -54.094059 -68.828163 399.768097
   vertex -54.221512 -69.870453 400.546783
  endloop
 facet normal 0.565170 -0.536995 -0.626275
  outer loop
   vertex -54.221512 -69.870453 400.546783
   vertex -54.094059 -68.828163 399.768097
   vertex -53.537857 -68.855164 400.293182
  endloop
 facet normal 0.822154 -0.566806 -0.052848
  outer loop
   vertex -53.537857 -68.855164 400.293182
   vertex -54.216129 -69.880455 400.737793
   vertex -54.221512 -69.870453 400.546783
  endloop
 facet normal 0.822156 -0.566805 -0.052844
  outer loop
   vertex -53.516338 -68.895180 401.057190
   vertex -54.216129 -69.880455 400.737793
   vertex -53.537857 -68.855164 400.293182
  endloop
 facet normal 0.597850 -0.597760 0.534095
  outer loop
   vertex -54.347569 -69.887848 400.876648
   vertex -54.216129 -69.880455 400.737793
   vertex -53.516338 -68.895180 401.057190
  endloop
 facet normal 0.597855 -0.597763 0.534087
  outer loop
   vertex -53.516338 -68.895180 401.057190
   vertex -54.042099 -68.924767 401.612610
   vertex -54.347569 -69.887848 400.876648
  endloop
 facet normal 0.023543 -0.611719 0.790725
  outer loop
   vertex -54.347569 -69.887848 400.876648
   vertex -54.042099 -68.924767 401.612610
   vertex -54.538837 -69.888306 400.881989
  endloop
 facet normal 0.023631 -0.611746 0.790701
  outer loop
   vertex -54.538837 -69.888306 400.881989
   vertex -54.042099 -68.924767 401.612610
   vertex -54.807163 -68.926590 401.634064
  endloop
 facet normal -0.564093 -0.600548 0.566693
  outer loop
   vertex -54.807163 -68.926590 401.634064
   vertex -54.677887 -69.881554 400.750732
   vertex -54.538837 -69.888306 400.881989
  endloop
 facet normal -0.564110 -0.600541 0.566683
  outer loop
   vertex -55.363365 -68.899582 401.109009
   vertex -54.677887 -69.881554 400.750732
   vertex -54.807163 -68.926590 401.634064
  endloop
 facet normal -0.999604 -0.002384 0.028033
  outer loop
   vertex -30.744606 -70.287834 390.003571
   vertex -30.745520 -69.289207 390.055908
   vertex -30.749987 -70.277832 389.812561
  endloop
 facet normal -0.999604 -0.002384 0.028033
  outer loop
   vertex -30.749987 -70.277832 389.812561
   vertex -30.745520 -69.289207 390.055908
   vertex -30.750900 -69.279205 389.864899
  endloop
 facet normal -0.726714 0.035290 -0.686033
  outer loop
   vertex -30.750900 -69.279205 389.864899
   vertex -30.618546 -70.270439 389.673706
   vertex -30.749987 -70.277832 389.812561
  endloop
 facet normal -0.726715 0.035290 -0.686032
  outer loop
   vertex -30.619459 -69.271805 389.726044
   vertex -30.618546 -70.270439 389.673706
   vertex -30.750900 -69.279205 389.864899
  endloop
 facet normal -0.027998 0.052291 -0.998239
  outer loop
   vertex -30.427279 -70.269981 389.668365
   vertex -30.618546 -70.270439 389.673706
   vertex -30.619459 -69.271805 389.726044
  endloop
 facet normal -0.028155 0.052261 -0.998236
  outer loop
   vertex -30.619459 -69.271805 389.726044
   vertex -30.428192 -69.271355 389.720673
   vertex -30.427279 -70.269981 389.668365
  endloop
 facet normal 0.686913 0.038641 -0.725711
  outer loop
   vertex -30.427279 -70.269981 389.668365
   vertex -30.428192 -69.271355 389.720673
   vertex -30.288229 -70.276733 389.799622
  endloop
 facet normal 0.686997 0.038659 -0.725631
  outer loop
   vertex -30.288229 -70.276733 389.799622
   vertex -30.428192 -69.271355 389.720673
   vertex -30.289143 -69.278107 389.851959
  endloop
 facet normal 0.999604 0.002384 -0.028033
  outer loop
   vertex -30.289143 -69.278107 389.851959
   vertex -30.282848 -70.286736 389.990631
   vertex -30.288229 -70.276733 389.799622
  endloop
 facet normal 0.999604 0.002384 -0.028033
  outer loop
   vertex -30.283762 -69.288109 390.042969
   vertex -30.282848 -70.286736 389.990631
   vertex -30.289143 -69.278107 389.851959
  endloop
 facet normal 0.726714 -0.035290 0.686033
  outer loop
   vertex -30.414289 -70.294128 390.129486
   vertex -30.282848 -70.286736 389.990631
   vertex -30.283762 -69.288109 390.042969
  endloop
 facet normal 0.726714 -0.035290 0.686033
  outer loop
   vertex -30.283762 -69.288109 390.042969
   vertex -30.415203 -69.295502 390.181824
   vertex -30.414289 -70.294128 390.129486
  endloop
 facet normal 0.028157 -0.052291 0.998235
  outer loop
   vertex -30.414289 -70.294128 390.129486
   vertex -30.415203 -69.295502 390.181824
   vertex -30.605556 -70.294586 390.134857
  endloop
 facet normal 0.027998 -0.052261 0.998241
  outer loop
   vertex -30.605556 -70.294586 390.134857
   vertex -30.415203 -69.295502 390.181824
   vertex -30.606470 -69.295959 390.187164
  endloop
 facet normal -0.686997 -0.038636 0.725632
  outer loop
   vertex -30.606470 -69.295959 390.187164
   vertex -30.744606 -70.287834 390.003571
   vertex -30.605556 -70.294586 390.134857
  endloop
 facet normal -0.686913 -0.038663 0.725710
  outer loop
   vertex -30.745520 -69.289207 390.055908
   vertex -30.744606 -70.287834 390.003571
   vertex -30.606470 -69.295959 390.187164
  endloop
 facet normal -0.999604 -0.002384 0.028032
  outer loop
   vertex -31.430988 -68.317261 390.413635
   vertex -31.431902 -67.318626 390.465973
   vertex -31.452509 -68.277245 389.649628
  endloop
 facet normal -0.999604 -0.002384 0.028032
  outer loop
   vertex -31.452509 -68.277245 389.649628
   vertex -31.431902 -67.318626 390.465973
   vertex -31.453423 -67.278618 389.701965
  endloop
 facet normal -0.726715 0.035290 -0.686032
  outer loop
   vertex -31.453423 -67.278618 389.701965
   vertex -30.926746 -68.247658 389.094208
   vertex -31.452509 -68.277245 389.649628
  endloop
 facet normal -0.726715 0.035290 -0.686032
  outer loop
   vertex -30.927660 -67.249031 389.146545
   vertex -30.926746 -68.247658 389.094208
   vertex -31.453423 -67.278618 389.701965
  endloop
 facet normal -0.028117 0.052291 -0.998236
  outer loop
   vertex -30.161682 -68.245834 389.072754
   vertex -30.926746 -68.247658 389.094208
   vertex -30.927660 -67.249031 389.146545
  endloop
 facet normal -0.028117 0.052291 -0.998236
  outer loop
   vertex -30.927660 -67.249031 389.146545
   vertex -30.162596 -67.247208 389.125092
   vertex -30.161682 -68.245834 389.072754
  endloop
 facet normal 0.686933 0.038662 -0.725692
  outer loop
   vertex -30.161682 -68.245834 389.072754
   vertex -30.162596 -67.247208 389.125092
   vertex -29.605482 -68.272842 389.597809
  endloop
 facet normal 0.686933 0.038661 -0.725692
  outer loop
   vertex -29.605482 -68.272842 389.597809
   vertex -30.162596 -67.247208 389.125092
   vertex -29.606396 -67.274208 389.650146
  endloop
 facet normal 0.999604 0.002384 -0.028031
  outer loop
   vertex -29.606396 -67.274208 389.650146
   vertex -29.583961 -68.312859 390.361847
   vertex -29.605482 -68.272842 389.597809
  endloop
 facet normal 0.999604 0.002381 -0.028035
  outer loop
   vertex -29.584873 -67.314224 390.414154
   vertex -29.583961 -68.312859 390.361847
   vertex -29.606396 -67.274208 389.650146
  endloop
 facet normal 0.726715 -0.035270 0.686033
  outer loop
   vertex -30.109724 -68.342438 390.917267
   vertex -29.583961 -68.312859 390.361847
   vertex -29.584873 -67.314224 390.414154
  endloop
 facet normal 0.726714 -0.035269 0.686034
  outer loop
   vertex -29.584873 -67.314224 390.414154
   vertex -30.110638 -67.343811 390.969574
   vertex -30.109724 -68.342438 390.917267
  endloop
 facet normal 0.028117 -0.052261 0.998238
  outer loop
   vertex -30.109724 -68.342438 390.917267
   vertex -30.110638 -67.343811 390.969574
   vertex -30.874786 -68.344261 390.938721
  endloop
 facet normal 0.028117 -0.052261 0.998238
  outer loop
   vertex -30.874786 -68.344261 390.938721
   vertex -30.110638 -67.343811 390.969574
   vertex -30.875700 -67.345634 390.991028
  endloop
 facet normal -0.686953 -0.038639 0.725674
  outer loop
   vertex -30.875700 -67.345634 390.991028
   vertex -31.430988 -68.317261 390.413635
   vertex -30.874786 -68.344261 390.938721
  endloop
 facet normal -0.686932 -0.038661 0.725693
  outer loop
   vertex -31.431902 -67.318626 390.465973
   vertex -31.430988 -68.317261 390.413635
   vertex -30.875700 -67.345634 390.991028
  endloop
 facet normal -0.821114 -0.570725 -0.006755
  outer loop
   vertex -30.745510 -69.299232 390.055389
   vertex -31.430988 -68.317261 390.413635
   vertex -30.750891 -69.289230 389.864380
  endloop
 facet normal -0.821116 -0.570722 -0.006763
  outer loop
   vertex -30.750891 -69.289230 389.864380
   vertex -31.430988 -68.317261 390.413635
   vertex -31.452509 -68.277245 389.649628
  endloop
 facet normal -0.596803 -0.539758 -0.593706
  outer loop
   vertex -31.452509 -68.277245 389.649628
   vertex -30.619450 -69.281830 389.725525
   vertex -30.750891 -69.289230 389.864380
  endloop
 facet normal -0.596810 -0.539763 -0.593695
  outer loop
   vertex -30.926746 -68.247658 389.094208
   vertex -30.619450 -69.281830 389.725525
   vertex -31.452509 -68.277245 389.649628
  endloop
 facet normal -0.022620 -0.525798 -0.850309
  outer loop
   vertex -30.428183 -69.281372 389.720154
   vertex -30.619450 -69.281830 389.725525
   vertex -30.926746 -68.247658 389.094208
  endloop
 facet normal -0.022591 -0.525788 -0.850315
  outer loop
   vertex -30.926746 -68.247658 389.094208
   vertex -30.161682 -68.245834 389.072754
   vertex -30.428183 -69.281372 389.720154
  endloop
 facet normal 0.565212 -0.536980 -0.626249
  outer loop
   vertex -30.428183 -69.281372 389.720154
   vertex -30.161682 -68.245834 389.072754
   vertex -30.289133 -69.288124 389.851440
  endloop
 facet normal 0.565145 -0.537002 -0.626290
  outer loop
   vertex -30.289133 -69.288124 389.851440
   vertex -30.161682 -68.245834 389.072754
   vertex -29.605482 -68.272842 389.597809
  endloop
 facet normal 0.822149 -0.566811 -0.052871
  outer loop
   vertex -29.605482 -68.272842 389.597809
   vertex -30.283752 -69.298134 390.042419
   vertex -30.289133 -69.288124 389.851440
  endloop
 facet normal 0.822156 -0.566804 -0.052844
  outer loop
   vertex -29.583961 -68.312859 390.361847
   vertex -30.283752 -69.298134 390.042419
   vertex -29.605482 -68.272842 389.597809
  endloop
 facet normal 0.597841 -0.597770 0.534094
  outer loop
   vertex -30.415194 -69.305527 390.181274
   vertex -30.283752 -69.298134 390.042419
   vertex -29.583961 -68.312859 390.361847
  endloop
 facet normal 0.597845 -0.597772 0.534088
  outer loop
   vertex -29.583961 -68.312859 390.361847
   vertex -30.109724 -68.342438 390.917267
   vertex -30.415194 -69.305527 390.181274
  endloop
 facet normal 0.023668 -0.611755 0.790693
  outer loop
   vertex -30.415194 -69.305527 390.181274
   vertex -30.109724 -68.342438 390.917267
   vertex -30.606461 -69.305984 390.186646
  endloop
 facet normal 0.023631 -0.611743 0.790703
  outer loop
   vertex -30.606461 -69.305984 390.186646
   vertex -30.109724 -68.342438 390.917267
   vertex -30.874786 -68.344261 390.938721
  endloop
 facet normal -0.564094 -0.600545 0.566695
  outer loop
   vertex -30.874786 -68.344261 390.938721
   vertex -30.745510 -69.299232 390.055389
   vertex -30.606461 -69.305984 390.186646
  endloop
 facet normal -0.564126 -0.600532 0.566676
  outer loop
   vertex -31.430988 -68.317261 390.413635
   vertex -30.745510 -69.299232 390.055389
   vertex -30.874786 -68.344261 390.938721
  endloop
 facet normal -0.999604 -0.002380 0.028024
  outer loop
   vertex -54.676983 -70.870163 400.698944
   vertex -54.677895 -69.871529 400.751251
   vertex -54.682362 -70.860161 400.507935
  endloop
 facet normal -0.999604 -0.002385 0.028043
  outer loop
   vertex -54.682362 -70.860161 400.507935
   vertex -54.677895 -69.871529 400.751251
   vertex -54.683277 -69.861526 400.560242
  endloop
 facet normal -0.726720 0.035267 -0.686028
  outer loop
   vertex -54.683277 -69.861526 400.560242
   vertex -54.550922 -70.852760 400.369080
   vertex -54.682362 -70.860161 400.507935
  endloop
 facet normal -0.726634 0.035296 -0.686118
  outer loop
   vertex -54.551834 -69.854134 400.421417
   vertex -54.550922 -70.852760 400.369080
   vertex -54.683277 -69.861526 400.560242
  endloop
 facet normal -0.028158 0.052291 -0.998235
  outer loop
   vertex -54.359657 -70.852303 400.363708
   vertex -54.550922 -70.852760 400.369080
   vertex -54.551834 -69.854134 400.421417
  endloop
 facet normal -0.028158 0.052291 -0.998235
  outer loop
   vertex -54.551834 -69.854134 400.421417
   vertex -54.360569 -69.853676 400.416046
   vertex -54.359657 -70.852303 400.363708
  endloop
 facet normal 0.686903 0.038662 -0.725720
  outer loop
   vertex -54.359657 -70.852303 400.363708
   vertex -54.360569 -69.853676 400.416046
   vertex -54.220604 -70.859055 400.494965
  endloop
 facet normal 0.686913 0.038664 -0.725710
  outer loop
   vertex -54.220604 -70.859055 400.494965
   vertex -54.360569 -69.853676 400.416046
   vertex -54.221519 -69.860428 400.547302
  endloop
 facet normal 0.999604 0.002385 -0.028023
  outer loop
   vertex -54.221519 -69.860428 400.547302
   vertex -54.215225 -70.869057 400.685974
   vertex -54.220604 -70.859055 400.494965
  endloop
 facet normal 0.999604 0.002382 -0.028044
  outer loop
   vertex -54.216137 -69.870430 400.738312
   vertex -54.215225 -70.869057 400.685974
   vertex -54.221519 -69.860428 400.547302
  endloop
 facet normal 0.726720 -0.035291 0.686027
  outer loop
   vertex -54.346664 -70.876457 400.824829
   vertex -54.215225 -70.869057 400.685974
   vertex -54.216137 -69.870430 400.738312
  endloop
 facet normal 0.726709 -0.035289 0.686039
  outer loop
   vertex -54.216137 -69.870430 400.738312
   vertex -54.347580 -69.877823 400.877167
   vertex -54.346664 -70.876457 400.824829
  endloop
 facet normal 0.028157 -0.052291 0.998235
  outer loop
   vertex -54.346664 -70.876457 400.824829
   vertex -54.347580 -69.877823 400.877167
   vertex -54.537933 -70.876915 400.830200
  endloop
 facet normal 0.028158 -0.052291 0.998235
  outer loop
   vertex -54.537933 -70.876915 400.830200
   vertex -54.347580 -69.877823 400.877167
   vertex -54.538845 -69.878281 400.882538
  endloop
 facet normal -0.686913 -0.038661 0.725710
  outer loop
   vertex -54.538845 -69.878281 400.882538
   vertex -54.676983 -70.870163 400.698944
   vertex -54.537933 -70.876915 400.830200
  endloop
 facet normal -0.686997 -0.038635 0.725632
  outer loop
   vertex -54.677895 -69.871529 400.751251
   vertex -54.676983 -70.870163 400.698944
   vertex -54.538845 -69.878281 400.882538
  endloop
 facet normal -0.686932 -0.038663 0.725693
  outer loop
   vertex -54.807163 -68.926590 401.634064
   vertex -54.808079 -67.927956 401.686401
   vertex -55.363365 -68.899582 401.109009
  endloop
 facet normal -0.686955 -0.038637 0.725672
  outer loop
   vertex -55.363365 -68.899582 401.109009
   vertex -54.808079 -67.927956 401.686401
   vertex -55.364277 -67.900955 401.161316
  endloop
 facet normal -0.999604 -0.002381 0.028034
  outer loop
   vertex -55.364277 -67.900955 401.161316
   vertex -55.384888 -68.859566 400.344971
   vertex -55.363365 -68.899582 401.109009
  endloop
 facet normal -0.999604 -0.002382 0.028035
  outer loop
   vertex -55.385799 -67.860939 400.397308
   vertex -55.384888 -68.859566 400.344971
   vertex -55.364277 -67.900955 401.161316
  endloop
 facet normal -0.726714 0.035291 -0.686033
  outer loop
   vertex -54.859123 -68.829987 399.789551
   vertex -55.384888 -68.859566 400.344971
   vertex -55.385799 -67.860939 400.397308
  endloop
 facet normal -0.726714 0.035291 -0.686033
  outer loop
   vertex -55.385799 -67.860939 400.397308
   vertex -54.860035 -67.831352 399.841888
   vertex -54.859123 -68.829987 399.789551
  endloop
 facet normal -0.028117 0.052291 -0.998236
  outer loop
   vertex -54.859123 -68.829987 399.789551
   vertex -54.860035 -67.831352 399.841888
   vertex -54.094059 -68.828163 399.768097
  endloop
 facet normal -0.028117 0.052291 -0.998236
  outer loop
   vertex -54.094059 -68.828163 399.768097
   vertex -54.860035 -67.831352 399.841888
   vertex -54.094971 -67.829529 399.820435
  endloop
 facet normal 0.686952 0.038659 -0.725673
  outer loop
   vertex -54.094971 -67.829529 399.820435
   vertex -53.537857 -68.855164 400.293182
   vertex -54.094059 -68.828163 399.768097
  endloop
 facet normal 0.686955 0.038662 -0.725671
  outer loop
   vertex -53.538773 -67.856537 400.345520
   vertex -53.537857 -68.855164 400.293182
   vertex -54.094971 -67.829529 399.820435
  endloop
 facet normal 0.999604 0.002385 -0.028029
  outer loop
   vertex -53.516338 -68.895180 401.057190
   vertex -53.537857 -68.855164 400.293182
   vertex -53.538773 -67.856537 400.345520
  endloop
 facet normal 0.999604 0.002382 -0.028035
  outer loop
   vertex -53.538773 -67.856537 400.345520
   vertex -53.517250 -67.896553 401.109528
   vertex -53.516338 -68.895180 401.057190
  endloop
 facet normal 0.726717 -0.035291 0.686030
  outer loop
   vertex -53.516338 -68.895180 401.057190
   vertex -53.517250 -67.896553 401.109528
   vertex -54.042099 -68.924767 401.612610
  endloop
 facet normal 0.726714 -0.035288 0.686033
  outer loop
   vertex -54.042099 -68.924767 401.612610
   vertex -53.517250 -67.896553 401.109528
   vertex -54.043015 -67.926132 401.664948
  endloop
 facet normal 0.028117 -0.052291 0.998236
  outer loop
   vertex -54.043015 -67.926132 401.664948
   vertex -54.807163 -68.926590 401.634064
   vertex -54.042099 -68.924767 401.612610
  endloop
 facet normal 0.028117 -0.052291 0.998236
  outer loop
   vertex -54.808079 -67.927956 401.686401
   vertex -54.807163 -68.926590 401.634064
   vertex -54.043015 -67.926132 401.664948
  endloop
endsolid