solid stl file generated from DOUG
 facet normal -0.319535 -0.572216 -0.755292
  outer loop
   vertex 20.639763 -166.282623 362.640076
   vertex 19.553949 -166.222061 363.053558
   vertex 20.613789 -166.196579 362.585876
  endloop
 facet normal -0.404217 0.047489 -0.913430
  outer loop
   vertex 20.613789 -166.196579 362.585876
   vertex 19.553949 -166.222061 363.053558
   vertex 19.553179 -165.381592 363.097595
  endloop
 facet normal -0.914667 -0.021990 0.403610
  outer loop
   vertex 43.958443 -163.849304 354.193481
   vertex 43.822456 -162.008041 353.985626
   vertex 43.824127 -163.833527 353.889954
  endloop
 facet normal -0.404218 0.047502 -0.913428
  outer loop
   vertex 43.824127 -163.833527 353.889954
   vertex 43.822456 -162.008041 353.985626
   vertex 44.083565 -163.898636 353.771759
  endloop
 facet normal -0.404215 0.047487 -0.913431
  outer loop
   vertex 18.661470 -164.509689 364.989594
   vertex 18.919107 -162.606628 364.974518
   vertex 18.920778 -164.432129 364.878876
  endloop
 facet normal 0.914667 0.021983 -0.403611
  outer loop
   vertex 18.920778 -164.432129 364.878876
   vertex 18.919107 -162.606628 364.974518
   vertex 19.055094 -164.447906 365.182404
  endloop
 facet normal 0.000867 -0.998624 -0.052430
  outer loop
   vertex 20.703501 -166.310837 364.309937
   vertex 20.659197 -166.305618 364.209808
   vertex 42.235130 -165.787018 354.689178
  endloop
 facet normal -0.324676 -0.554807 -0.766012
  outer loop
   vertex 42.235130 -165.787018 354.689178
   vertex 20.659197 -166.305618 364.209808
   vertex 42.200153 -165.666183 354.616486
  endloop
 facet normal -0.404195 0.047491 -0.913439
  outer loop
   vertex 42.121376 -164.839127 353.139099
   vertex 41.062305 -165.705078 353.562714
   vertex 41.061539 -164.864594 353.606750
  endloop
 facet normal -0.914671 -0.021981 0.403601
  outer loop
   vertex 41.061539 -164.864594 353.606750
   vertex 41.062305 -165.705078 353.562714
   vertex 41.158390 -165.700806 353.780701
  endloop
 facet normal -0.144259 -0.915006 -0.376766
  outer loop
   vertex 20.068192 -165.455719 362.916779
   vertex 41.644127 -164.937103 353.396118
   vertex 20.081753 -165.470184 362.946716
  endloop
 facet normal -0.144259 -0.915006 -0.376766
  outer loop
   vertex 20.081753 -165.470184 362.946716
   vertex 41.644127 -164.937103 353.396118
   vertex 41.657688 -164.951569 353.426056
  endloop
 facet normal -0.404206 0.047496 -0.913434
  outer loop
   vertex 41.657688 -164.951569 353.426056
   vertex 41.658245 -165.564255 353.393951
   vertex 20.081753 -165.470184 362.946716
  endloop
 facet normal -0.404202 0.047480 -0.913437
  outer loop
   vertex 19.326206 -161.499893 364.851929
   vertex 18.657728 -160.419006 365.203918
   vertex 20.492071 -160.374924 364.394501
  endloop
 facet normal -0.000915 0.998630 0.052314
  outer loop
   vertex 20.492071 -160.374924 364.394501
   vertex 18.657728 -160.419006 365.203918
   vertex 20.626389 -160.390701 364.698029
  endloop
 facet normal 0.914665 0.021984 -0.403615
  outer loop
   vertex 20.626389 -160.390701 364.698029
   vertex 20.630371 -164.746735 364.469788
   vertex 20.492071 -160.374924 364.394501
  endloop
 facet normal 0.000898 -0.998629 -0.052344
  outer loop
   vertex 20.136072 -166.373444 364.364532
   vertex 21.260166 -166.355530 364.042053
   vertex 20.200327 -166.380997 364.509735
  endloop
 facet normal 0.320649 -0.647433 0.691386
  outer loop
   vertex 20.200327 -166.380997 364.509735
   vertex 21.260166 -166.355530 364.042053
   vertex 21.285990 -166.275574 364.104950
  endloop
 facet normal 0.320682 -0.647281 0.691513
  outer loop
   vertex 21.285990 -166.275574 364.104950
   vertex 20.226151 -166.301041 364.572601
   vertex 20.200327 -166.380997 364.509735
  endloop
 facet normal -0.000896 0.998628 0.052356
  outer loop
   vertex 42.245480 -159.852036 354.795563
   vertex 42.379795 -159.867828 355.099091
   vertex 44.079823 -159.807953 353.986115
  endloop
 facet normal -0.000921 0.998630 0.052317
  outer loop
   vertex 44.079823 -159.807953 353.986115
   vertex 42.379795 -159.867828 355.099091
   vertex 44.214138 -159.823730 354.289642
  endloop
 facet normal 0.914667 0.021986 -0.403610
  outer loop
   vertex 44.214138 -159.823730 354.289642
   vertex 44.217880 -163.914413 354.075287
   vertex 44.079823 -159.807953 353.986115
  endloop
 facet normal 0.000920 -0.998630 -0.052317
  outer loop
   vertex 18.993275 -164.786087 365.192169
   vertex 18.858959 -164.770309 364.888641
   vertex 20.496056 -164.730957 364.166260
  endloop
 facet normal -0.404202 0.047500 -0.913435
  outer loop
   vertex 20.496056 -164.730957 364.166260
   vertex 18.858959 -164.770309 364.888641
   vertex 19.996353 -164.406265 364.404266
  endloop
 facet normal -0.404209 0.047488 -0.913433
  outer loop
   vertex 19.996353 -164.406265 364.404266
   vertex 19.994684 -162.580780 364.499908
   vertex 20.496056 -164.730957 364.166260
  endloop
 facet normal 0.325742 -0.631293 0.703819
  outer loop
   vertex 20.147974 -166.128845 363.060913
   vertex 20.113211 -166.241470 362.975983
   vertex 41.689144 -165.722855 353.455353
  endloop
 facet normal 0.000924 -0.998631 -0.052304
  outer loop
   vertex 41.689144 -165.722855 353.455353
   vertex 20.113211 -166.241470 362.975983
   vertex 20.068905 -166.236267 362.875854
  endloop
 facet normal 0.000924 -0.998631 -0.052304
  outer loop
   vertex 20.068905 -166.236267 362.875854
   vertex 41.644840 -165.717651 353.355225
   vertex 41.689144 -165.722855 353.455353
  endloop
 facet normal -0.404221 0.047502 -0.913427
  outer loop
   vertex 42.746880 -162.033890 354.460236
   vertex 42.748550 -163.859375 354.364563
   vertex 42.249462 -164.208084 354.567291
  endloop
 facet normal -0.404202 0.047468 -0.913437
  outer loop
   vertex 42.249462 -164.208084 354.567291
   vertex 42.748550 -163.859375 354.364563
   vertex 43.886562 -164.168732 353.844910
  endloop
 facet normal 0.000920 -0.998630 -0.052317
  outer loop
   vertex 43.886562 -164.168732 353.844910
   vertex 44.020878 -164.184509 354.148438
   vertex 42.249462 -164.208084 354.567291
  endloop
 facet normal 0.320705 -0.647284 0.691499
  outer loop
   vertex 42.794350 -165.758575 354.614105
   vertex 41.734509 -165.784058 355.081787
   vertex 42.768524 -165.838531 354.551239
  endloop
 facet normal 0.320642 -0.647429 0.691393
  outer loop
   vertex 42.768524 -165.838531 354.551239
   vertex 41.734509 -165.784058 355.081787
   vertex 41.708687 -165.864014 355.018890
  endloop
 facet normal 0.000911 -0.998628 -0.052350
  outer loop
   vertex 41.708687 -165.864014 355.018890
   vertex 42.704269 -165.830978 354.406036
   vertex 42.768524 -165.838531 354.551239
  endloop
 facet normal -0.914666 -0.021960 0.403614
  outer loop
   vertex 41.152538 -165.798660 353.762115
   vertex 41.158390 -165.700806 353.780701
   vertex 41.088284 -165.791107 353.616913
  endloop
 facet normal -0.914673 -0.021930 0.403600
  outer loop
   vertex 41.088284 -165.791107 353.616913
   vertex 41.158390 -165.700806 353.780701
   vertex 41.062305 -165.705078 353.562714
  endloop
 facet normal -0.319492 -0.572293 -0.755252
  outer loop
   vertex 41.062305 -165.705078 353.562714
   vertex 42.122147 -165.679596 353.095062
   vertex 41.088284 -165.791107 353.616913
  endloop
 facet normal -0.404194 0.047490 -0.913440
  outer loop
   vertex 42.121376 -164.839127 353.139099
   vertex 42.122147 -165.679596 353.095062
   vertex 41.062305 -165.705078 353.562714
  endloop
 facet normal -0.404216 0.047490 -0.913430
  outer loop
   vertex 19.553179 -165.381592 363.097595
   vertex 20.613020 -165.356110 362.629913
   vertex 20.613789 -166.196579 362.585876
  endloop
 facet normal 0.914672 0.021983 -0.403599
  outer loop
   vertex 20.613789 -166.196579 362.585876
   vertex 20.613020 -165.356110 362.629913
   vertex 20.709873 -166.192322 362.803864
  endloop
 facet normal 0.914674 0.021887 -0.403599
  outer loop
   vertex 20.709873 -166.192322 362.803864
   vertex 20.639763 -166.282623 362.640076
   vertex 20.613789 -166.196579 362.585876
  endloop
 facet normal 0.914666 0.021924 -0.403616
  outer loop
   vertex 20.704018 -166.290176 362.785278
   vertex 20.639763 -166.282623 362.640076
   vertex 20.709873 -166.192322 362.803864
  endloop
 facet normal 0.325779 -0.631179 0.703905
  outer loop
   vertex 41.689144 -165.722855 353.455353
   vertex 41.723907 -165.610229 353.540253
   vertex 20.147974 -166.128845 363.060913
  endloop
 facet normal 0.000915 -0.998630 -0.052324
  outer loop
   vertex 20.147974 -166.128845 363.060913
   vertex 41.723907 -165.610229 353.540253
   vertex 42.200153 -165.666183 354.616486
  endloop
 facet normal 0.000915 -0.998630 -0.052324
  outer loop
   vertex 42.200153 -165.666183 354.616486
   vertex 20.624220 -166.184799 364.137146
   vertex 20.147974 -166.128845 363.060913
  endloop
 facet normal -0.324701 -0.554722 -0.766063
  outer loop
   vertex 20.659197 -166.305618 364.209808
   vertex 20.624220 -166.184799 364.137146
   vertex 42.200153 -165.666183 354.616486
  endloop
 facet normal 0.404210 -0.047487 0.913432
  outer loop
   vertex 20.130669 -164.422058 364.707794
   vertex 20.630371 -164.746735 364.469788
   vertex 20.129000 -162.596558 364.803436
  endloop
 facet normal 0.404196 -0.047491 0.913438
  outer loop
   vertex 20.129000 -162.596558 364.803436
   vertex 20.630371 -164.746735 364.469788
   vertex 20.626389 -160.390701 364.698029
  endloop
 facet normal 0.404215 -0.047496 0.913430
  outer loop
   vertex 20.626389 -160.390701 364.698029
   vertex 18.792044 -160.434799 365.507477
   vertex 20.129000 -162.596558 364.803436
  endloop
 facet normal -0.000904 0.998628 0.052355
  outer loop
   vertex 18.657728 -160.419006 365.203918
   vertex 18.792044 -160.434799 365.507477
   vertex 20.626389 -160.390701 364.698029
  endloop
 facet normal -0.914682 -0.021984 0.403576
  outer loop
   vertex 18.795786 -164.525482 365.293121
   vertex 18.792044 -160.434799 365.507477
   vertex 18.657728 -160.419006 365.203918
  endloop
 facet normal -0.914667 -0.021988 0.403609
  outer loop
   vertex 42.245480 -159.852036 354.795563
   vertex 42.383781 -164.223862 354.870819
   vertex 42.379795 -159.867828 355.099091
  endloop
 facet normal 0.404203 -0.047497 0.913435
  outer loop
   vertex 42.379795 -159.867828 355.099091
   vertex 42.383781 -164.223862 354.870819
   vertex 42.881195 -162.049683 354.763763
  endloop
 facet normal 0.404215 -0.047494 0.913430
  outer loop
   vertex 42.881195 -162.049683 354.763763
   vertex 44.214138 -159.823730 354.289642
   vertex 42.379795 -159.867828 355.099091
  endloop
 facet normal 0.404205 -0.047487 0.913435
  outer loop
   vertex 43.956772 -162.023819 354.289154
   vertex 44.214138 -159.823730 354.289642
   vertex 42.881195 -162.049683 354.763763
  endloop
 facet normal 0.404265 -0.047494 0.913408
  outer loop
   vertex 44.217880 -163.914413 354.075287
   vertex 44.214138 -159.823730 354.289642
   vertex 43.956772 -162.023819 354.289154
  endloop
 facet normal 0.914661 0.021968 -0.403624
  outer loop
   vertex 20.630102 -160.390717 364.696289
   vertex 20.104939 -164.663498 363.273651
   vertex 20.101044 -160.328552 363.500763
  endloop
 facet normal -0.404208 0.047492 -0.913433
  outer loop
   vertex 20.101044 -160.328552 363.500763
   vertex 20.104939 -164.663498 363.273651
   vertex 19.802435 -164.670776 363.407135
  endloop
 facet normal -0.404206 0.047492 -0.913434
  outer loop
   vertex 19.802435 -164.670776 363.407135
   vertex 19.798540 -160.335815 363.634247
   vertex 20.101044 -160.328552 363.500763
  endloop
 facet normal -0.914651 -0.021969 0.403647
  outer loop
   vertex 20.331528 -164.732880 364.602661
   vertex 19.798540 -160.335815 363.634247
   vertex 19.802435 -164.670776 363.407135
  endloop
 facet normal -0.914660 -0.021975 0.403625
  outer loop
   vertex 20.327600 -160.397980 364.829773
   vertex 19.798540 -160.335815 363.634247
   vertex 20.331528 -164.732880 364.602661
  endloop
 facet normal -0.404205 0.047490 -0.913435
  outer loop
   vertex 41.644840 -165.717651 353.355225
   vertex 20.068905 -166.236267 362.875854
   vertex 41.644711 -165.575531 353.362671
  endloop
 facet normal -0.404205 0.047490 -0.913435
  outer loop
   vertex 41.644711 -165.575531 353.362671
   vertex 20.068905 -166.236267 362.875854
   vertex 20.068775 -166.094147 362.883301
  endloop
 facet normal -0.145931 0.949135 -0.279010
  outer loop
   vertex 20.068775 -166.094147 362.883301
   vertex 41.658245 -165.564255 353.393951
   vertex 41.644711 -165.575531 353.362671
  endloop
 facet normal -0.145836 0.949214 -0.278790
  outer loop
   vertex 20.082314 -166.082870 362.914612
   vertex 41.658245 -165.564255 353.393951
   vertex 20.068775 -166.094147 362.883301
  endloop
 facet normal -0.404206 0.047494 -0.913434
  outer loop
   vertex 20.081753 -165.470184 362.946716
   vertex 41.658245 -165.564255 353.393951
   vertex 20.082314 -166.082870 362.914612
  endloop
 facet normal 0.914672 0.021996 -0.403598
  outer loop
   vertex 42.678513 -159.860733 354.967163
   vertex 42.682533 -164.195633 354.740021
   vertex 42.149494 -159.798584 353.771637
  endloop
 facet normal 0.914684 0.022004 -0.403571
  outer loop
   vertex 42.149494 -159.798584 353.771637
   vertex 42.682533 -164.195633 354.740021
   vertex 42.153530 -164.133530 353.544434
  endloop
 facet normal -0.404127 0.047501 -0.913469
  outer loop
   vertex 42.153530 -164.133530 353.544434
   vertex 41.846989 -159.805847 353.905090
   vertex 42.149494 -159.798584 353.771637
  endloop
 facet normal -0.404204 0.047492 -0.913435
  outer loop
   vertex 41.851025 -164.140793 353.677917
   vertex 41.846989 -159.805847 353.905090
   vertex 42.153530 -164.133530 353.544434
  endloop
 facet normal -0.914676 -0.022002 0.403588
  outer loop
   vertex 42.376007 -159.868011 355.100647
   vertex 41.846989 -159.805847 353.905090
   vertex 41.851025 -164.140793 353.677917
  endloop
 facet normal -0.914677 -0.022001 0.403586
  outer loop
   vertex 41.851025 -164.140793 353.677917
   vertex 42.380039 -164.202957 354.873474
   vertex 42.376007 -159.868011 355.100647
  endloop
 facet normal -0.404206 0.047465 -0.913436
  outer loop
   vertex 20.068192 -165.455719 362.916779
   vertex 20.068127 -165.385208 362.920471
   vertex 41.644062 -164.866592 353.399811
  endloop
 facet normal -0.000916 0.998630 0.052323
  outer loop
   vertex 41.644062 -164.866592 353.399811
   vertex 20.068127 -165.385208 362.920471
   vertex 20.702723 -165.459763 364.354523
  endloop
 facet normal -0.000912 0.998629 0.052330
  outer loop
   vertex 20.702723 -165.459763 364.354523
   vertex 42.278656 -164.941162 354.833893
   vertex 41.644062 -164.866592 353.399811
  endloop
 facet normal 0.404205 -0.047454 0.913437
  outer loop
   vertex 20.702787 -165.530289 364.350830
   vertex 42.278656 -164.941162 354.833893
   vertex 20.702723 -165.459763 364.354523
  endloop
 facet normal 0.404205 -0.047465 0.913436
  outer loop
   vertex 42.278721 -165.011673 354.830200
   vertex 42.278656 -164.941162 354.833893
   vertex 20.702787 -165.530289 364.350830
  endloop
 facet normal 0.145928 -0.949138 0.279003
  outer loop
   vertex 20.702787 -165.530289 364.350830
   vertex 20.689251 -165.541565 364.319550
   vertex 42.278721 -165.011673 354.830200
  endloop
 facet normal 0.145836 -0.949214 0.278790
  outer loop
   vertex 42.278721 -165.011673 354.830200
   vertex 20.689251 -165.541565 364.319550
   vertex 42.265182 -165.022949 354.798889
  endloop
 facet normal 0.404206 -0.047495 0.913434
  outer loop
   vertex 42.265182 -165.022949 354.798889
   vertex 20.689251 -165.541565 364.319550
   vertex 20.689810 -166.154251 364.287445
  endloop
 facet normal 0.404206 -0.047494 0.913434
  outer loop
   vertex 20.689810 -166.154251 364.287445
   vertex 42.265743 -165.635635 354.766785
   vertex 42.265182 -165.022949 354.798889
  endloop
 facet normal 0.144112 0.915163 0.376442
  outer loop
   vertex 20.703371 -166.168701 364.317383
   vertex 42.265743 -165.635635 354.766785
   vertex 20.689810 -166.154251 364.287445
  endloop
 facet normal 0.143991 0.915291 0.376176
  outer loop
   vertex 42.279305 -165.650085 354.796753
   vertex 42.265743 -165.635635 354.766785
   vertex 20.703371 -166.168701 364.317383
  endloop
 facet normal 0.404205 -0.047485 0.913435
  outer loop
   vertex 20.703371 -166.168701 364.317383
   vertex 20.703501 -166.310837 364.309937
   vertex 42.279305 -165.650085 354.796753
  endloop
 facet normal 0.404205 -0.047485 0.913435
  outer loop
   vertex 42.279305 -165.650085 354.796753
   vertex 20.703501 -166.310837 364.309937
   vertex 42.279434 -165.792221 354.789307
  endloop
 facet normal 0.000924 -0.998631 -0.052304
  outer loop
   vertex 42.279434 -165.792221 354.789307
   vertex 20.703501 -166.310837 364.309937
   vertex 42.235130 -165.787018 354.689178
  endloop
 facet normal 0.914667 0.021986 -0.403610
  outer loop
   vertex 44.217880 -163.914413 354.075287
   vertex 44.083565 -163.898636 353.771759
   vertex 44.079823 -159.807953 353.986115
  endloop
 facet normal -0.404265 0.047494 -0.913408
  outer loop
   vertex 44.079823 -159.807953 353.986115
   vertex 44.083565 -163.898636 353.771759
   vertex 43.822456 -162.008041 353.985626
  endloop
 facet normal -0.404206 0.047487 -0.913435
  outer loop
   vertex 43.822456 -162.008041 353.985626
   vertex 43.413353 -160.920929 354.223175
   vertex 44.079823 -159.807953 353.986115
  endloop
 facet normal -0.404204 0.047488 -0.913435
  outer loop
   vertex 42.746880 -162.033890 354.460236
   vertex 43.413353 -160.920929 354.223175
   vertex 43.822456 -162.008041 353.985626
  endloop
 facet normal -0.404214 0.047494 -0.913431
  outer loop
   vertex 42.245480 -159.852036 354.795563
   vertex 43.413353 -160.920929 354.223175
   vertex 42.746880 -162.033890 354.460236
  endloop
 facet normal -0.404202 0.047498 -0.913436
  outer loop
   vertex 42.746880 -162.033890 354.460236
   vertex 42.249462 -164.208084 354.567291
   vertex 42.245480 -159.852036 354.795563
  endloop
 facet normal -0.914662 -0.021987 0.403620
  outer loop
   vertex 42.245480 -159.852036 354.795563
   vertex 42.249462 -164.208084 354.567291
   vertex 42.383781 -164.223862 354.870819
  endloop
 facet normal 0.000920 -0.998630 -0.052317
  outer loop
   vertex 42.383781 -164.223862 354.870819
   vertex 42.249462 -164.208084 354.567291
   vertex 44.020878 -164.184509 354.148438
  endloop
 facet normal 0.404202 -0.047467 0.913437
  outer loop
   vertex 44.020878 -164.184509 354.148438
   vertex 42.882866 -163.875168 354.668091
   vertex 42.383781 -164.223862 354.870819
  endloop
 facet normal 0.404205 -0.047458 0.913437
  outer loop
   vertex 43.958443 -163.849304 354.193481
   vertex 42.882866 -163.875168 354.668091
   vertex 44.020878 -164.184509 354.148438
  endloop
 facet normal -0.000908 0.998628 0.052361
  outer loop
   vertex 42.748550 -163.859375 354.364563
   vertex 42.882866 -163.875168 354.668091
   vertex 43.958443 -163.849304 354.193481
  endloop
 facet normal -0.000915 0.998630 0.052314
  outer loop
   vertex 43.958443 -163.849304 354.193481
   vertex 43.824127 -163.833527 353.889954
   vertex 42.748550 -163.859375 354.364563
  endloop
 facet normal -0.404204 0.047458 -0.913437
  outer loop
   vertex 42.748550 -163.859375 354.364563
   vertex 43.824127 -163.833527 353.889954
   vertex 43.886562 -164.168732 353.844910
  endloop
 facet normal -0.404230 0.047452 -0.913426
  outer loop
   vertex 43.886562 -164.168732 353.844910
   vertex 43.824127 -163.833527 353.889954
   vertex 44.083565 -163.898636 353.771759
  endloop
 facet normal 0.710781 -0.612233 -0.346355
  outer loop
   vertex 44.083565 -163.898636 353.771759
   vertex 44.020878 -164.184509 354.148438
   vertex 43.886562 -164.168732 353.844910
  endloop
 facet normal 0.710781 -0.612233 -0.346355
  outer loop
   vertex 44.217880 -163.914413 354.075287
   vertex 44.020878 -164.184509 354.148438
   vertex 44.083565 -163.898636 353.771759
  endloop
 facet normal 0.404230 -0.047452 0.913426
  outer loop
   vertex 43.958443 -163.849304 354.193481
   vertex 44.020878 -164.184509 354.148438
   vertex 44.217880 -163.914413 354.075287
  endloop
 facet normal 0.404218 -0.047502 0.913428
  outer loop
   vertex 44.217880 -163.914413 354.075287
   vertex 43.956772 -162.023819 354.289154
   vertex 43.958443 -163.849304 354.193481
  endloop
 facet normal -0.914667 -0.021990 0.403610
  outer loop
   vertex 43.958443 -163.849304 354.193481
   vertex 43.956772 -162.023819 354.289154
   vertex 43.822456 -162.008041 353.985626
  endloop
 facet normal 0.000927 -0.998630 -0.052320
  outer loop
   vertex 43.822456 -162.008041 353.985626
   vertex 43.956772 -162.023819 354.289154
   vertex 42.881195 -162.049683 354.763763
  endloop
 facet normal 0.000896 -0.998628 -0.052356
  outer loop
   vertex 42.881195 -162.049683 354.763763
   vertex 42.746880 -162.033890 354.460236
   vertex 43.822456 -162.008041 353.985626
  endloop
 facet normal 0.914667 0.021990 -0.403609
  outer loop
   vertex 42.882866 -163.875168 354.668091
   vertex 42.746880 -162.033890 354.460236
   vertex 42.881195 -162.049683 354.763763
  endloop
 facet normal 0.914667 0.021990 -0.403609
  outer loop
   vertex 42.748550 -163.859375 354.364563
   vertex 42.746880 -162.033890 354.460236
   vertex 42.882866 -163.875168 354.668091
  endloop
 facet normal -0.914667 -0.021982 0.403610
  outer loop
   vertex 19.996353 -164.406265 364.404266
   vertex 20.130669 -164.422058 364.707794
   vertex 19.994684 -162.580780 364.499908
  endloop
 facet normal -0.914667 -0.021982 0.403611
  outer loop
   vertex 19.994684 -162.580780 364.499908
   vertex 20.130669 -164.422058 364.707794
   vertex 20.129000 -162.596558 364.803436
  endloop
 facet normal 0.000915 -0.998630 -0.052314
  outer loop
   vertex 20.129000 -162.596558 364.803436
   vertex 18.919107 -162.606628 364.974518
   vertex 19.994684 -162.580780 364.499908
  endloop
 facet normal 0.000908 -0.998628 -0.052361
  outer loop
   vertex 19.053423 -162.622421 365.278046
   vertex 18.919107 -162.606628 364.974518
   vertex 20.129000 -162.596558 364.803436
  endloop
 facet normal 0.914667 0.021983 -0.403610
  outer loop
   vertex 19.055094 -164.447906 365.182404
   vertex 18.919107 -162.606628 364.974518
   vertex 19.053423 -162.622421 365.278046
  endloop
 facet normal 0.404217 -0.047487 0.913429
  outer loop
   vertex 19.053423 -162.622421 365.278046
   vertex 18.795786 -164.525482 365.293121
   vertex 19.055094 -164.447906 365.182404
  endloop
 facet normal 0.404224 -0.047515 0.913425
  outer loop
   vertex 19.055094 -164.447906 365.182404
   vertex 18.795786 -164.525482 365.293121
   vertex 18.993275 -164.786087 365.192169
  endloop
 facet normal -0.709630 -0.646380 0.280390
  outer loop
   vertex 18.993275 -164.786087 365.192169
   vertex 18.795786 -164.525482 365.293121
   vertex 18.661470 -164.509689 364.989594
  endloop
 facet normal -0.709634 -0.646360 0.280425
  outer loop
   vertex 18.661470 -164.509689 364.989594
   vertex 18.858959 -164.770309 364.888641
   vertex 18.993275 -164.786087 365.192169
  endloop
 facet normal -0.404221 0.047514 -0.913426
  outer loop
   vertex 18.920778 -164.432129 364.878876
   vertex 18.858959 -164.770309 364.888641
   vertex 18.661470 -164.509689 364.989594
  endloop
 facet normal -0.404205 0.047511 -0.913434
  outer loop
   vertex 19.996353 -164.406265 364.404266
   vertex 18.858959 -164.770309 364.888641
   vertex 18.920778 -164.432129 364.878876
  endloop
 facet normal -0.000927 0.998630 0.052320
  outer loop
   vertex 18.920778 -164.432129 364.878876
   vertex 19.055094 -164.447906 365.182404
   vertex 19.996353 -164.406265 364.404266
  endloop
 facet normal -0.000896 0.998628 0.052356
  outer loop
   vertex 19.996353 -164.406265 364.404266
   vertex 19.055094 -164.447906 365.182404
   vertex 20.130669 -164.422058 364.707794
  endloop
 facet normal 0.404205 -0.047511 0.913434
  outer loop
   vertex 20.130669 -164.422058 364.707794
   vertex 19.055094 -164.447906 365.182404
   vertex 18.993275 -164.786087 365.192169
  endloop
 facet normal 0.404202 -0.047502 0.913435
  outer loop
   vertex 18.993275 -164.786087 365.192169
   vertex 20.630371 -164.746735 364.469788
   vertex 20.130669 -164.422058 364.707794
  endloop
 facet normal 0.000920 -0.998630 -0.052317
  outer loop
   vertex 20.496056 -164.730957 364.166260
   vertex 20.630371 -164.746735 364.469788
   vertex 18.993275 -164.786087 365.192169
  endloop
 facet normal 0.914667 0.021984 -0.403611
  outer loop
   vertex 20.492071 -160.374924 364.394501
   vertex 20.630371 -164.746735 364.469788
   vertex 20.496056 -164.730957 364.166260
  endloop
 facet normal -0.404197 0.047491 -0.913438
  outer loop
   vertex 20.496056 -164.730957 364.166260
   vertex 19.994684 -162.580780 364.499908
   vertex 20.492071 -160.374924 364.394501
  endloop
 facet normal -0.404215 0.047496 -0.913430
  outer loop
   vertex 20.492071 -160.374924 364.394501
   vertex 19.994684 -162.580780 364.499908
   vertex 19.326206 -161.499893 364.851929
  endloop
 facet normal -0.404204 0.047504 -0.913434
  outer loop
   vertex 19.326206 -161.499893 364.851929
   vertex 19.994684 -162.580780 364.499908
   vertex 18.919107 -162.606628 364.974518
  endloop
 facet normal -0.404182 0.047494 -0.913445
  outer loop
   vertex 18.919107 -162.606628 364.974518
   vertex 18.657728 -160.419006 365.203918
   vertex 19.326206 -161.499893 364.851929
  endloop
 facet normal -0.404223 0.047488 -0.913427
  outer loop
   vertex 18.661470 -164.509689 364.989594
   vertex 18.657728 -160.419006 365.203918
   vertex 18.919107 -162.606628 364.974518
  endloop
 facet normal -0.914667 -0.021983 0.403610
  outer loop
   vertex 18.795786 -164.525482 365.293121
   vertex 18.657728 -160.419006 365.203918
   vertex 18.661470 -164.509689 364.989594
  endloop
 facet normal -0.399665 -0.100234 -0.911165
  outer loop
   vertex 20.130037 -166.274200 364.356262
   vertex 21.189878 -166.248718 363.888580
   vertex 20.136072 -166.373444 364.364532
  endloop
 facet normal -0.399668 -0.100211 -0.911166
  outer loop
   vertex 20.136072 -166.373444 364.364532
   vertex 21.189878 -166.248718 363.888580
   vertex 21.195911 -166.347977 363.896851
  endloop
 facet normal 0.000898 -0.998629 -0.052344
  outer loop
   vertex 21.195911 -166.347977 363.896851
   vertex 21.260166 -166.355530 364.042053
   vertex 20.136072 -166.373444 364.364532
  endloop
 facet normal 0.914666 0.021964 -0.403613
  outer loop
   vertex 21.189878 -166.248718 363.888580
   vertex 21.260166 -166.355530 364.042053
   vertex 21.195911 -166.347977 363.896851
  endloop
 facet normal 0.914685 0.022044 -0.403566
  outer loop
   vertex 21.285990 -166.275574 364.104950
   vertex 21.260166 -166.355530 364.042053
   vertex 21.189878 -166.248718 363.888580
  endloop
 facet normal 0.914683 0.021982 -0.403574
  outer loop
   vertex 21.189878 -166.248718 363.888580
   vertex 21.285221 -165.435089 364.148987
   vertex 21.285990 -166.275574 364.104950
  endloop
 facet normal 0.404194 -0.047490 0.913440
  outer loop
   vertex 21.285990 -166.275574 364.104950
   vertex 21.285221 -165.435089 364.148987
   vertex 20.226151 -166.301041 364.572601
  endloop
 facet normal 0.404195 -0.047491 0.913439
  outer loop
   vertex 20.226151 -166.301041 364.572601
   vertex 21.285221 -165.435089 364.148987
   vertex 20.225382 -165.460571 364.616638
  endloop
 facet normal -0.914659 -0.021985 0.403629
  outer loop
   vertex 20.225382 -165.460571 364.616638
   vertex 20.130037 -166.274200 364.356262
   vertex 20.226151 -166.301041 364.572601
  endloop
 facet normal -0.914666 -0.021979 0.403613
  outer loop
   vertex 19.553179 -165.381592 363.097595
   vertex 20.130037 -166.274200 364.356262
   vertex 20.225382 -165.460571 364.616638
  endloop
 facet normal -0.914667 -0.021983 0.403610
  outer loop
   vertex 19.650034 -166.217789 363.271545
   vertex 20.130037 -166.274200 364.356262
   vertex 19.553179 -165.381592 363.097595
  endloop
 facet normal -0.914671 -0.021985 0.403601
  outer loop
   vertex 19.553179 -165.381592 363.097595
   vertex 19.553949 -166.222061 363.053558
   vertex 19.650034 -166.217789 363.271545
  endloop
 facet normal -0.914670 -0.022028 0.403601
  outer loop
   vertex 19.650034 -166.217789 363.271545
   vertex 19.553949 -166.222061 363.053558
   vertex 19.579924 -166.308105 363.107727
  endloop
 facet normal -0.319571 -0.572035 -0.755414
  outer loop
   vertex 19.579924 -166.308105 363.107727
   vertex 19.553949 -166.222061 363.053558
   vertex 20.639763 -166.282623 362.640076
  endloop
 facet normal 0.000950 -0.998633 -0.052262
  outer loop
   vertex 20.639763 -166.282623 362.640076
   vertex 19.644178 -166.315643 363.252930
   vertex 19.579924 -166.308105 363.107727
  endloop
 facet normal 0.000899 -0.998629 -0.052344
  outer loop
   vertex 20.704018 -166.290176 362.785278
   vertex 19.644178 -166.315643 363.252930
   vertex 20.639763 -166.282623 362.640076
  endloop
 facet normal 0.399903 -0.194330 0.895719
  outer loop
   vertex 19.650034 -166.217789 363.271545
   vertex 19.644178 -166.315643 363.252930
   vertex 20.704018 -166.290176 362.785278
  endloop
 facet normal 0.399941 -0.194061 0.895761
  outer loop
   vertex 20.704018 -166.290176 362.785278
   vertex 20.709873 -166.192322 362.803864
   vertex 19.650034 -166.217789 363.271545
  endloop
 facet normal 0.000908 -0.998630 -0.052322
  outer loop
   vertex 19.650034 -166.217789 363.271545
   vertex 20.709873 -166.192322 362.803864
   vertex 21.189878 -166.248718 363.888580
  endloop
 facet normal 0.914666 0.021980 -0.403612
  outer loop
   vertex 21.189878 -166.248718 363.888580
   vertex 20.709873 -166.192322 362.803864
   vertex 20.613020 -165.356110 362.629913
  endloop
 facet normal 0.914669 0.021993 -0.403604
  outer loop
   vertex 20.613020 -165.356110 362.629913
   vertex 21.285221 -165.435089 364.148987
   vertex 21.189878 -166.248718 363.888580
  endloop
 facet normal 0.914669 0.021985 -0.403605
  outer loop
   vertex 21.182974 -164.688889 363.957916
   vertex 21.285221 -165.435089 364.148987
   vertex 20.613020 -165.356110 362.629913
  endloop
 facet normal 0.382175 0.278024 0.881274
  outer loop
   vertex 20.225382 -165.460571 364.616638
   vertex 21.285221 -165.435089 364.148987
   vertex 21.182974 -164.688889 363.957916
  endloop
 facet normal 0.382175 0.278024 0.881274
  outer loop
   vertex 21.182974 -164.688889 363.957916
   vertex 20.123135 -164.714371 364.425568
   vertex 20.225382 -165.460571 364.616638
  endloop
 facet normal -0.914667 -0.021984 0.403609
  outer loop
   vertex 20.225382 -165.460571 364.616638
   vertex 20.123135 -164.714371 364.425568
   vertex 19.654085 -164.659256 363.365601
  endloop
 facet normal -0.000919 0.998629 0.052332
  outer loop
   vertex 19.654085 -164.659256 363.365601
   vertex 20.123135 -164.714371 364.425568
   vertex 21.182974 -164.688889 363.957916
  endloop
 facet normal -0.000919 0.998629 0.052332
  outer loop
   vertex 21.182974 -164.688889 363.957916
   vertex 20.713924 -164.633774 362.897949
   vertex 19.654085 -164.659256 363.365601
  endloop
 facet normal 0.914667 0.021995 -0.403609
  outer loop
   vertex 20.613020 -165.356110 362.629913
   vertex 20.713924 -164.633774 362.897949
   vertex 21.182974 -164.688889 363.957916
  endloop
 facet normal -0.382769 0.367921 -0.847421
  outer loop
   vertex 19.654085 -164.659256 363.365601
   vertex 20.713924 -164.633774 362.897949
   vertex 20.613020 -165.356110 362.629913
  endloop
 facet normal -0.382793 0.367890 -0.847424
  outer loop
   vertex 20.613020 -165.356110 362.629913
   vertex 19.553179 -165.381592 363.097595
   vertex 19.654085 -164.659256 363.365601
  endloop
 facet normal -0.914666 -0.021977 0.403613
  outer loop
   vertex 19.654085 -164.659256 363.365601
   vertex 19.553179 -165.381592 363.097595
   vertex 20.225382 -165.460571 364.616638
  endloop
 facet normal 0.914666 0.021977 -0.403613
  outer loop
   vertex 42.793579 -164.918106 354.658142
   vertex 42.121376 -164.839127 353.139099
   vertex 42.222282 -164.116791 353.407104
  endloop
 facet normal -0.382769 0.367891 -0.847434
  outer loop
   vertex 42.222282 -164.116791 353.407104
   vertex 42.121376 -164.839127 353.139099
   vertex 41.061539 -164.864594 353.606750
  endloop
 facet normal -0.382784 0.367920 -0.847415
  outer loop
   vertex 41.061539 -164.864594 353.606750
   vertex 41.162441 -164.142258 353.874786
   vertex 42.222282 -164.116791 353.407104
  endloop
 facet normal -0.914667 -0.021998 0.403610
  outer loop
   vertex 41.631493 -164.197372 354.934753
   vertex 41.162441 -164.142258 353.874786
   vertex 41.061539 -164.864594 353.606750
  endloop
 facet normal -0.000906 0.998630 0.052326
  outer loop
   vertex 42.222282 -164.116791 353.407104
   vertex 41.162441 -164.142258 353.874786
   vertex 41.631493 -164.197372 354.934753
  endloop
 facet normal -0.000908 0.998630 0.052326
  outer loop
   vertex 41.631493 -164.197372 354.934753
   vertex 42.691334 -164.171906 354.467102
   vertex 42.222282 -164.116791 353.407104
  endloop
 facet normal 0.914671 0.022001 -0.403600
  outer loop
   vertex 42.222282 -164.116791 353.407104
   vertex 42.691334 -164.171906 354.467102
   vertex 42.793579 -164.918106 354.658142
  endloop
 facet normal 0.382183 0.277990 0.881282
  outer loop
   vertex 42.793579 -164.918106 354.658142
   vertex 42.691334 -164.171906 354.467102
   vertex 41.631493 -164.197372 354.934753
  endloop
 facet normal 0.382200 0.278026 0.881263
  outer loop
   vertex 41.631493 -164.197372 354.934753
   vertex 41.733742 -164.943573 355.125824
   vertex 42.793579 -164.918106 354.658142
  endloop
 facet normal -0.914669 -0.021987 0.403606
  outer loop
   vertex 41.061539 -164.864594 353.606750
   vertex 41.733742 -164.943573 355.125824
   vertex 41.631493 -164.197372 354.934753
  endloop
 facet normal -0.914669 -0.021991 0.403605
  outer loop
   vertex 41.638397 -165.757202 354.865417
   vertex 41.733742 -164.943573 355.125824
   vertex 41.061539 -164.864594 353.606750
  endloop
 facet normal -0.914666 -0.021978 0.403614
  outer loop
   vertex 41.061539 -164.864594 353.606750
   vertex 41.158390 -165.700806 353.780701
   vertex 41.638397 -165.757202 354.865417
  endloop
 facet normal 0.000921 -0.998630 -0.052328
  outer loop
   vertex 41.638397 -165.757202 354.865417
   vertex 41.158390 -165.700806 353.780701
   vertex 42.218231 -165.675323 353.313049
  endloop
 facet normal 0.399922 -0.194047 0.895772
  outer loop
   vertex 42.218231 -165.675323 353.313049
   vertex 41.158390 -165.700806 353.780701
   vertex 41.152538 -165.798660 353.762115
  endloop
 facet normal 0.399927 -0.194301 0.895715
  outer loop
   vertex 41.152538 -165.798660 353.762115
   vertex 42.212376 -165.773193 353.294434
   vertex 42.218231 -165.675323 353.313049
  endloop
 facet normal 0.000898 -0.998629 -0.052344
  outer loop
   vertex 41.088284 -165.791107 353.616913
   vertex 42.212376 -165.773193 353.294434
   vertex 41.152538 -165.798660 353.762115
  endloop
 facet normal 0.000898 -0.998629 -0.052344
  outer loop
   vertex 42.148121 -165.765640 353.149231
   vertex 42.212376 -165.773193 353.294434
   vertex 41.088284 -165.791107 353.616913
  endloop
 facet normal -0.319596 -0.572036 -0.755402
  outer loop
   vertex 41.088284 -165.791107 353.616913
   vertex 42.122147 -165.679596 353.095062
   vertex 42.148121 -165.765640 353.149231
  endloop
 facet normal 0.914670 0.022028 -0.403601
  outer loop
   vertex 42.148121 -165.765640 353.149231
   vertex 42.122147 -165.679596 353.095062
   vertex 42.218231 -165.675323 353.313049
  endloop
 facet normal 0.914671 0.021985 -0.403601
  outer loop
   vertex 42.218231 -165.675323 353.313049
   vertex 42.122147 -165.679596 353.095062
   vertex 42.121376 -164.839127 353.139099
  endloop
 facet normal 0.914667 0.021983 -0.403610
  outer loop
   vertex 42.121376 -164.839127 353.139099
   vertex 42.698235 -165.731735 354.397766
   vertex 42.218231 -165.675323 353.313049
  endloop
 facet normal 0.914666 0.021979 -0.403613
  outer loop
   vertex 42.793579 -164.918106 354.658142
   vertex 42.698235 -165.731735 354.397766
   vertex 42.121376 -164.839127 353.139099
  endloop
 facet normal 0.914656 0.021987 -0.403635
  outer loop
   vertex 42.794350 -165.758575 354.614105
   vertex 42.698235 -165.731735 354.397766
   vertex 42.793579 -164.918106 354.658142
  endloop
 facet normal 0.404217 -0.047489 0.913430
  outer loop
   vertex 42.793579 -164.918106 354.658142
   vertex 41.733742 -164.943573 355.125824
   vertex 42.794350 -165.758575 354.614105
  endloop
 facet normal 0.404216 -0.047490 0.913430
  outer loop
   vertex 42.794350 -165.758575 354.614105
   vertex 41.733742 -164.943573 355.125824
   vertex 41.734509 -165.784058 355.081787
  endloop
 facet normal -0.914683 -0.021980 0.403574
  outer loop
   vertex 41.734509 -165.784058 355.081787
   vertex 41.733742 -164.943573 355.125824
   vertex 41.638397 -165.757202 354.865417
  endloop
 facet normal -0.914685 -0.022064 0.403564
  outer loop
   vertex 41.638397 -165.757202 354.865417
   vertex 41.708687 -165.864014 355.018890
   vertex 41.734509 -165.784058 355.081787
  endloop
 facet normal -0.914666 -0.021982 0.403613
  outer loop
   vertex 41.644432 -165.856461 354.873688
   vertex 41.708687 -165.864014 355.018890
   vertex 41.638397 -165.757202 354.865417
  endloop
 facet normal 0.000911 -0.998628 -0.052350
  outer loop
   vertex 42.704269 -165.830978 354.406036
   vertex 41.708687 -165.864014 355.018890
   vertex 41.644432 -165.856461 354.873688
  endloop
 facet normal -0.399645 -0.100218 -0.911175
  outer loop
   vertex 41.644432 -165.856461 354.873688
   vertex 41.638397 -165.757202 354.865417
   vertex 42.704269 -165.830978 354.406036
  endloop
 facet normal -0.399645 -0.100233 -0.911173
  outer loop
   vertex 42.704269 -165.830978 354.406036
   vertex 41.638397 -165.757202 354.865417
   vertex 42.698235 -165.731735 354.397766
  endloop
 facet normal 0.000904 -0.998629 -0.052335
  outer loop
   vertex 42.698235 -165.731735 354.397766
   vertex 41.638397 -165.757202 354.865417
   vertex 42.218231 -165.675323 353.313049
  endloop
 facet normal 0.404205 -0.047503 0.913434
  outer loop
   vertex 20.129000 -162.596558 364.803436
   vertex 18.792044 -160.434799 365.507477
   vertex 19.053423 -162.622421 365.278046
  endloop
 facet normal 0.404264 -0.047494 0.913408
  outer loop
   vertex 19.053423 -162.622421 365.278046
   vertex 18.792044 -160.434799 365.507477
   vertex 18.795786 -164.525482 365.293121
  endloop
 facet normal 0.914654 0.021937 -0.403641
  outer loop
   vertex 42.794350 -165.758575 354.614105
   vertex 42.768524 -165.838531 354.551239
   vertex 42.698235 -165.731735 354.397766
  endloop
 facet normal 0.914666 0.021985 -0.403612
  outer loop
   vertex 42.698235 -165.731735 354.397766
   vertex 42.768524 -165.838531 354.551239
   vertex 42.704269 -165.830978 354.406036
  endloop
 facet normal -0.914658 -0.021951 0.403633
  outer loop
   vertex 20.226151 -166.301041 364.572601
   vertex 20.130037 -166.274200 364.356262
   vertex 20.200327 -166.380997 364.509735
  endloop
 facet normal -0.914666 -0.021985 0.403612
  outer loop
   vertex 20.200327 -166.380997 364.509735
   vertex 20.130037 -166.274200 364.356262
   vertex 20.136072 -166.373444 364.364532
  endloop
 facet normal 0.914666 0.022046 -0.403609
  outer loop
   vertex 42.148121 -165.765640 353.149231
   vertex 42.218231 -165.675323 353.313049
   vertex 42.212376 -165.773193 353.294434
  endloop
 facet normal -0.914665 -0.022049 0.403611
  outer loop
   vertex 19.579924 -166.308105 363.107727
   vertex 19.644178 -166.315643 363.252930
   vertex 19.650034 -166.217789 363.271545
  endloop
 facet normal -0.404215 0.047493 -0.913430
  outer loop
   vertex 44.079823 -159.807953 353.986115
   vertex 43.413353 -160.920929 354.223175
   vertex 42.245480 -159.852036 354.795563
  endloop
 facet normal 0.000914 -0.998629 -0.052339
  outer loop
   vertex 19.650034 -166.217789 363.271545
   vertex 21.189878 -166.248718 363.888580
   vertex 20.130037 -166.274200 364.356262
  endloop
 facet normal 0.000951 -0.998631 -0.052296
  outer loop
   vertex 19.802435 -164.670776 363.407135
   vertex 20.104939 -164.663498 363.273651
   vertex 20.331528 -164.732880 364.602661
  endloop
 facet normal 0.000910 -0.998632 -0.052275
  outer loop
   vertex 42.153530 -164.133530 353.544434
   vertex 42.682533 -164.195633 354.740021
   vertex 41.851025 -164.140793 353.677917
  endloop
 facet normal -0.404206 0.047465 -0.913436
  outer loop
   vertex 41.644062 -164.866592 353.399811
   vertex 41.644127 -164.937103 353.396118
   vertex 20.068192 -165.455719 362.916779
  endloop
 facet normal 0.914660 0.021969 -0.403626
  outer loop
   vertex 20.104939 -164.663498 363.273651
   vertex 20.630102 -160.390717 364.696289
   vertex 20.633999 -164.725662 364.469177
  endloop
 facet normal 0.404222 -0.047502 0.913426
  outer loop
   vertex 42.383781 -164.223862 354.870819
   vertex 42.882866 -163.875168 354.668091
   vertex 42.881195 -162.049683 354.763763
  endloop
endsolid