solid stl file generated from DOUG
 facet normal 0.374452 -0.827299 0.418763
  outer loop
   vertex -44.075848 -12.726151 340.264465
   vertex -44.006958 -12.649786 340.353729
   vertex -51.195061 -12.960949 346.166504
  endloop
 facet normal 0.629338 -0.040061 0.776098
  outer loop
   vertex -51.195061 -12.960949 346.166504
   vertex -44.006958 -12.649786 340.353729
   vertex -51.195152 -12.858334 346.171875
  endloop
 facet normal 0.372970 0.779699 0.502955
  outer loop
   vertex -51.262939 -14.140336 346.019440
   vertex -51.193905 -14.225487 346.100250
   vertex -44.005802 -13.914324 340.287476
  endloop
 facet normal 0.629338 -0.040038 0.776099
  outer loop
   vertex -44.005802 -13.914324 340.287476
   vertex -51.193905 -14.225487 346.100250
   vertex -51.193810 -14.328102 346.094879
  endloop
 facet normal 0.629338 -0.040038 0.776099
  outer loop
   vertex -51.193810 -14.328102 346.094879
   vertex -44.005707 -14.016939 340.282104
   vertex -44.005802 -13.914324 340.287476
  endloop
 facet normal 0.587775 -0.395677 0.705663
  outer loop
   vertex -51.654942 -14.298726 345.526215
   vertex -44.466843 -13.987563 339.713440
   vertex -51.647369 -14.267830 345.537231
  endloop
 facet normal 0.587775 -0.395677 0.705663
  outer loop
   vertex -51.647369 -14.267830 345.537231
   vertex -44.466843 -13.987563 339.713440
   vertex -44.459270 -13.956667 339.724457
  endloop
 facet normal 0.000914 -0.998630 -0.052328
  outer loop
   vertex -44.459270 -13.956667 339.724457
   vertex -44.097301 -13.979726 340.170837
   vertex -51.647369 -14.267830 345.537231
  endloop
 facet normal 0.374452 -0.827299 0.418763
  outer loop
   vertex -51.195061 -12.960949 346.166504
   vertex -51.263950 -13.037313 346.077240
   vertex -44.075848 -12.726151 340.264465
  endloop
 facet normal 0.629338 -0.040092 0.776097
  outer loop
   vertex -44.075848 -12.726151 340.264465
   vertex -51.263950 -13.037313 346.077240
   vertex -51.262939 -14.140336 346.019440
  endloop
 facet normal 0.629339 -0.040094 0.776096
  outer loop
   vertex -51.262939 -14.140336 346.019440
   vertex -44.074841 -13.829173 340.206665
   vertex -44.075848 -12.726151 340.264465
  endloop
 facet normal 0.372965 0.779705 0.502948
  outer loop
   vertex -44.005802 -13.914324 340.287476
   vertex -44.074841 -13.829173 340.206665
   vertex -51.262939 -14.140336 346.019440
  endloop
 facet normal 0.000913 -0.998629 -0.052329
  outer loop
   vertex -44.005707 -14.016939 340.282104
   vertex -51.193810 -14.328102 346.094879
   vertex -44.089672 -14.011590 340.178558
  endloop
 facet normal 0.000913 -0.998629 -0.052329
  outer loop
   vertex -44.089672 -14.011590 340.178558
   vertex -51.193810 -14.328102 346.094879
   vertex -51.277775 -14.322753 345.991333
  endloop
 facet normal -0.587155 -0.320680 -0.743245
  outer loop
   vertex -51.277775 -14.322753 345.991333
   vertex -44.097301 -13.979726 340.170837
   vertex -44.089672 -14.011590 340.178558
  endloop
 facet normal -0.587155 -0.320680 -0.743245
  outer loop
   vertex -51.285404 -14.290889 345.983612
   vertex -44.097301 -13.979726 340.170837
   vertex -51.277775 -14.322753 345.991333
  endloop
 facet normal 0.000914 -0.998630 -0.052328
  outer loop
   vertex -51.647369 -14.267830 345.537231
   vertex -44.097301 -13.979726 340.170837
   vertex -51.285404 -14.290889 345.983612
  endloop
 facet normal -0.777134 -0.033638 0.628436
  outer loop
   vertex -51.601753 -12.860176 346.525604
   vertex -52.129337 -14.330283 345.794495
   vertex -51.600380 -14.363980 346.446808
  endloop
 facet normal 0.000913 -0.998630 -0.052328
  outer loop
   vertex -51.600380 -14.363980 346.446808
   vertex -52.129337 -14.330283 345.794495
   vertex -50.823250 -14.330339 345.818359
  endloop
 facet normal 0.629344 -0.040107 0.776091
  outer loop
   vertex -50.823250 -14.330339 345.818359
   vertex -50.824623 -12.826535 345.897186
   vertex -51.600380 -14.363980 346.446808
  endloop
 facet normal 0.777119 0.033652 -0.628453
  outer loop
   vertex -51.352207 -14.296642 345.166077
   vertex -50.824623 -12.826535 345.897186
   vertex -50.823250 -14.330339 345.818359
  endloop
 facet normal 0.777131 0.033641 -0.628439
  outer loop
   vertex -51.353584 -12.792838 345.244873
   vertex -50.824623 -12.826535 345.897186
   vertex -51.352207 -14.296642 345.166077
  endloop
 facet normal -0.629326 0.040090 -0.776107
  outer loop
   vertex -51.352207 -14.296642 345.166077
   vertex -52.129337 -14.330283 345.794495
   vertex -51.353584 -12.792838 345.244873
  endloop
 facet normal -0.629326 0.040090 -0.776107
  outer loop
   vertex -51.353584 -12.792838 345.244873
   vertex -52.129337 -14.330283 345.794495
   vertex -52.130714 -12.826479 345.873291
  endloop
 facet normal -0.777131 -0.033641 0.628439
  outer loop
   vertex -52.130714 -12.826479 345.873291
   vertex -52.129337 -14.330283 345.794495
   vertex -51.601753 -12.860176 346.525604
  endloop
 facet normal -0.000914 0.998630 0.052329
  outer loop
   vertex -51.601753 -12.860176 346.525604
   vertex -50.824623 -12.826535 345.897186
   vertex -52.130714 -12.826479 345.873291
  endloop
 facet normal 0.629326 -0.040092 0.776107
  outer loop
   vertex -51.600380 -14.363980 346.446808
   vertex -50.824623 -12.826535 345.897186
   vertex -51.601753 -12.860176 346.525604
  endloop
 facet normal -0.777131 -0.033641 0.628439
  outer loop
   vertex -44.352692 -14.050238 340.585846
   vertex -44.354069 -12.546434 340.664642
   vertex -44.881653 -14.016541 339.933533
  endloop
 facet normal -0.777134 -0.033639 0.628436
  outer loop
   vertex -44.881653 -14.016541 339.933533
   vertex -44.354069 -12.546434 340.664642
   vertex -44.883026 -12.512737 340.012329
  endloop
 facet normal -0.629326 0.040092 -0.776107
  outer loop
   vertex -44.883026 -12.512737 340.012329
   vertex -44.105896 -12.479096 339.383911
   vertex -44.881653 -14.016541 339.933533
  endloop
 facet normal -0.000914 0.998630 0.052329
  outer loop
   vertex -44.354069 -12.546434 340.664642
   vertex -44.105896 -12.479096 339.383911
   vertex -44.883026 -12.512737 340.012329
  endloop
 facet normal -0.000914 0.998630 0.052329
  outer loop
   vertex -43.576935 -12.512794 340.036224
   vertex -44.105896 -12.479096 339.383911
   vertex -44.354069 -12.546434 340.664642
  endloop
 facet normal 0.629324 -0.040108 0.776107
  outer loop
   vertex -44.354069 -12.546434 340.664642
   vertex -43.575562 -14.016597 339.957397
   vertex -43.576935 -12.512794 340.036224
  endloop
 facet normal 0.777131 0.033651 -0.628438
  outer loop
   vertex -43.576935 -12.512794 340.036224
   vertex -43.575562 -14.016597 339.957397
   vertex -44.105896 -12.479096 339.383911
  endloop
 facet normal 0.777117 0.033640 -0.628456
  outer loop
   vertex -44.105896 -12.479096 339.383911
   vertex -43.575562 -14.016597 339.957397
   vertex -44.104523 -13.982900 339.305115
  endloop
 facet normal -0.629326 0.040092 -0.776107
  outer loop
   vertex -44.104523 -13.982900 339.305115
   vertex -44.881653 -14.016541 339.933533
   vertex -44.105896 -12.479096 339.383911
  endloop
 facet normal 0.000913 -0.998629 -0.052330
  outer loop
   vertex -43.575562 -14.016597 339.957397
   vertex -44.881653 -14.016541 339.933533
   vertex -44.104523 -13.982900 339.305115
  endloop
 facet normal 0.000913 -0.998630 -0.052328
  outer loop
   vertex -44.352692 -14.050238 340.585846
   vertex -44.881653 -14.016541 339.933533
   vertex -43.575562 -14.016597 339.957397
  endloop
 facet normal 0.629344 -0.040089 0.776092
  outer loop
   vertex -43.575562 -14.016597 339.957397
   vertex -44.354069 -12.546434 340.664642
   vertex -44.352692 -14.050238 340.585846
  endloop
 facet normal 0.629339 -0.040038 0.776099
  outer loop
   vertex -44.006958 -12.649786 340.353729
   vertex -44.007053 -12.547171 340.359100
   vertex -51.195152 -12.858334 346.171875
  endloop
 facet normal -0.000917 0.998630 0.052323
  outer loop
   vertex -51.195152 -12.858334 346.171875
   vertex -44.007053 -12.547171 340.359100
   vertex -44.091019 -12.541822 340.255554
  endloop
 facet normal -0.000917 0.998630 0.052323
  outer loop
   vertex -44.091019 -12.541822 340.255554
   vertex -51.279118 -12.852985 346.068329
   vertex -51.195152 -12.858334 346.171875
  endloop
 facet normal -0.587775 0.395677 -0.705663
  outer loop
   vertex -44.098591 -12.572719 340.244537
   vertex -51.279118 -12.852985 346.068329
   vertex -44.091019 -12.541822 340.255554
  endloop
 facet normal -0.587920 0.395090 -0.705871
  outer loop
   vertex -51.286690 -12.883882 346.057343
   vertex -51.279118 -12.852985 346.068329
   vertex -44.098591 -12.572719 340.244537
  endloop
 facet normal -0.000912 0.998629 0.052330
  outer loop
   vertex -44.098591 -12.572719 340.244537
   vertex -44.460556 -12.549660 339.798187
   vertex -51.286690 -12.883882 346.057343
  endloop
 facet normal -0.000914 0.998630 0.052328
  outer loop
   vertex -51.286690 -12.883882 346.057343
   vertex -44.460556 -12.549660 339.798187
   vertex -51.648659 -12.860823 345.610962
  endloop
 facet normal 0.587005 0.321309 0.743092
  outer loop
   vertex -51.648659 -12.860823 345.610962
   vertex -44.460556 -12.549660 339.798187
   vertex -44.468185 -12.517795 339.790436
  endloop
 facet normal 0.587005 0.321309 0.743092
  outer loop
   vertex -44.468185 -12.517795 339.790436
   vertex -51.656288 -12.828958 345.603210
   vertex -51.648659 -12.860823 345.610962
  endloop
 facet normal -0.000905 0.998629 0.052338
  outer loop
   vertex -44.509850 -12.515141 339.739075
   vertex -51.656288 -12.828958 345.603210
   vertex -44.468185 -12.517795 339.790436
  endloop
 facet normal -0.000905 0.998629 0.052338
  outer loop
   vertex -51.697948 -12.826303 345.551849
   vertex -51.656288 -12.828958 345.603210
   vertex -44.509850 -12.515141 339.739075
  endloop
 facet normal -0.629339 0.040096 -0.776096
  outer loop
   vertex -44.509850 -12.515141 339.739075
   vertex -44.508503 -13.984909 339.662048
   vertex -51.697948 -12.826303 345.551849
  endloop
 facet normal -0.629338 0.040098 -0.776096
  outer loop
   vertex -51.697948 -12.826303 345.551849
   vertex -44.508503 -13.984909 339.662048
   vertex -51.696606 -14.296072 345.474823
  endloop
 facet normal 0.000920 -0.998630 -0.052319
  outer loop
   vertex -51.696606 -14.296072 345.474823
   vertex -44.508503 -13.984909 339.662048
   vertex -51.654942 -14.298726 345.526215
  endloop
 facet normal 0.000913 -0.998629 -0.052330
  outer loop
   vertex -51.352207 -14.296642 345.166077
   vertex -50.823250 -14.330339 345.818359
   vertex -52.129337 -14.330283 345.794495
  endloop
 facet normal -0.000914 0.998630 0.052329
  outer loop
   vertex -50.824623 -12.826535 345.897186
   vertex -51.353584 -12.792838 345.244873
   vertex -52.130714 -12.826479 345.873291
  endloop
 facet normal 0.000920 -0.998630 -0.052319
  outer loop
   vertex -44.508503 -13.984909 339.662048
   vertex -44.466843 -13.987563 339.713440
   vertex -51.654942 -14.298726 345.526215
  endloop
 facet normal 0.717624 0.413242 -0.560577
  outer loop
   vertex -44.928658 -13.135978 337.516754
   vertex -45.557995 -13.095886 336.740662
   vertex -45.156921 -12.439693 337.737823
  endloop
 facet normal 0.717624 0.413242 -0.560577
  outer loop
   vertex -45.156921 -12.439693 337.737823
   vertex -45.557995 -13.095886 336.740662
   vertex -45.786259 -12.399602 336.961731
  endloop
 facet normal 0.296548 0.935489 -0.192147
  outer loop
   vertex -45.786259 -12.399602 336.961731
   vertex -45.706703 -12.170989 338.197540
   vertex -45.156921 -12.439693 337.737823
  endloop
 facet normal 0.296548 0.935489 -0.192147
  outer loop
   vertex -46.336040 -12.130898 337.421448
   vertex -45.706703 -12.170989 338.197540
   vertex -45.786259 -12.399602 336.961731
  endloop
 facet normal -0.298239 0.909739 0.288839
  outer loop
   vertex -46.255947 -12.487268 338.626587
   vertex -45.706703 -12.170989 338.197540
   vertex -46.336040 -12.130898 337.421448
  endloop
 facet normal -0.298238 0.909740 0.288839
  outer loop
   vertex -46.336040 -12.130898 337.421448
   vertex -46.885288 -12.447177 337.850494
   vertex -46.255947 -12.487268 338.626587
  endloop
 facet normal -0.718322 0.351079 0.600631
  outer loop
   vertex -46.255947 -12.487268 338.626587
   vertex -46.885288 -12.447177 337.850494
   vertex -46.482918 -13.203259 338.773651
  endloop
 facet normal -0.718322 0.351079 0.600631
  outer loop
   vertex -46.482918 -13.203259 338.773651
   vertex -46.885288 -12.447177 337.850494
   vertex -47.112259 -13.163168 337.997559
  endloop
 facet normal -0.717623 -0.413239 0.560581
  outer loop
   vertex -47.112259 -13.163168 337.997559
   vertex -46.254658 -13.899544 338.552582
   vertex -46.482918 -13.203259 338.773651
  endloop
 facet normal -0.717624 -0.413242 0.560577
  outer loop
   vertex -46.883995 -13.859452 337.776489
   vertex -46.254658 -13.899544 338.552582
   vertex -47.112259 -13.163168 337.997559
  endloop
 facet normal -0.296548 -0.935489 0.192147
  outer loop
   vertex -45.704876 -14.168248 338.092865
   vertex -46.254658 -13.899544 338.552582
   vertex -46.883995 -13.859452 337.776489
  endloop
 facet normal -0.296548 -0.935489 0.192147
  outer loop
   vertex -46.883995 -13.859452 337.776489
   vertex -46.334213 -14.128157 337.316772
   vertex -45.704876 -14.168248 338.092865
  endloop
 facet normal 0.298238 -0.909740 -0.288838
  outer loop
   vertex -45.704876 -14.168248 338.092865
   vertex -46.334213 -14.128157 337.316772
   vertex -45.155628 -13.851969 337.663818
  endloop
 facet normal 0.298238 -0.909740 -0.288838
  outer loop
   vertex -45.155628 -13.851969 337.663818
   vertex -46.334213 -14.128157 337.316772
   vertex -45.784966 -13.811877 336.887726
  endloop
 facet normal 0.718324 -0.351079 -0.600628
  outer loop
   vertex -45.784966 -13.811877 336.887726
   vertex -44.928658 -13.135978 337.516754
   vertex -45.155628 -13.851969 337.663818
  endloop
 facet normal 0.718324 -0.351079 -0.600628
  outer loop
   vertex -45.557995 -13.095886 336.740662
   vertex -44.928658 -13.135978 337.516754
   vertex -45.784966 -13.811877 336.887726
  endloop
 facet normal -0.717626 -0.413235 0.560580
  outer loop
   vertex -52.486156 -13.706332 344.891266
   vertex -51.913883 -13.572352 345.722626
   vertex -52.543221 -13.532261 344.946533
  endloop
 facet normal -0.718316 0.351104 0.600623
  outer loop
   vertex -52.543221 -13.532261 344.946533
   vertex -51.913883 -13.572352 345.722626
   vertex -51.857140 -13.393354 345.685852
  endloop
 facet normal -0.718316 0.351104 0.600623
  outer loop
   vertex -51.857140 -13.393354 345.685852
   vertex -52.486477 -13.353263 344.909760
   vertex -52.543221 -13.532261 344.946533
  endloop
 facet normal -0.298233 0.909743 0.288834
  outer loop
   vertex -51.719830 -13.314284 345.578583
   vertex -52.486477 -13.353263 344.909760
   vertex -51.857140 -13.393354 345.685852
  endloop
 facet normal -0.298233 0.909743 0.288834
  outer loop
   vertex -52.349167 -13.274193 344.802490
   vertex -52.486477 -13.353263 344.909760
   vertex -51.719830 -13.314284 345.578583
  endloop
 facet normal 0.296571 0.935478 -0.192166
  outer loop
   vertex -51.719830 -13.314284 345.578583
   vertex -51.582382 -13.381461 345.463684
   vertex -52.349167 -13.274193 344.802490
  endloop
 facet normal 0.296549 0.935490 -0.192139
  outer loop
   vertex -52.349167 -13.274193 344.802490
   vertex -51.582382 -13.381461 345.463684
   vertex -52.211720 -13.341369 344.687561
  endloop
 facet normal 0.717636 0.413236 -0.560565
  outer loop
   vertex -52.211720 -13.341369 344.687561
   vertex -51.582382 -13.381461 345.463684
   vertex -51.525318 -13.555532 345.408417
  endloop
 facet normal 0.717637 0.413235 -0.560566
  outer loop
   vertex -51.525318 -13.555532 345.408417
   vertex -52.154655 -13.515440 344.632294
   vertex -52.211720 -13.341369 344.687561
  endloop
 facet normal 0.718360 -0.351002 -0.600630
  outer loop
   vertex -51.582058 -13.734529 345.445160
   vertex -52.154655 -13.515440 344.632294
   vertex -51.525318 -13.555532 345.408417
  endloop
 facet normal 0.718314 -0.351104 -0.600625
  outer loop
   vertex -52.211399 -13.694438 344.669067
   vertex -52.154655 -13.515440 344.632294
   vertex -51.582058 -13.734529 345.445160
  endloop
 facet normal 0.298228 -0.909745 -0.288832
  outer loop
   vertex -51.582058 -13.734529 345.445160
   vertex -51.719372 -13.813600 345.552429
   vertex -52.211399 -13.694438 344.669067
  endloop
 facet normal 0.298233 -0.909743 -0.288834
  outer loop
   vertex -52.211399 -13.694438 344.669067
   vertex -51.719372 -13.813600 345.552429
   vertex -52.348709 -13.773508 344.776337
  endloop
 facet normal -0.296549 -0.935488 0.192148
  outer loop
   vertex -52.348709 -13.773508 344.776337
   vertex -51.719372 -13.813600 345.552429
   vertex -51.856815 -13.746424 345.667358
  endloop
 facet normal -0.296545 -0.935490 0.192145
  outer loop
   vertex -51.856815 -13.746424 345.667358
   vertex -52.486156 -13.706332 344.891266
   vertex -52.348709 -13.773508 344.776337
  endloop
 facet normal -0.717620 -0.413248 0.560578
  outer loop
   vertex -51.913883 -13.572352 345.722626
   vertex -52.486156 -13.706332 344.891266
   vertex -51.856815 -13.746424 345.667358
  endloop
 facet normal -0.717624 -0.413242 0.560577
  outer loop
   vertex -54.150166 -14.173995 343.652374
   vertex -53.749092 -13.517802 344.649536
   vertex -54.378429 -13.477711 343.873444
  endloop
 facet normal -0.718324 0.351079 0.600628
  outer loop
   vertex -54.378429 -13.477711 343.873444
   vertex -53.749092 -13.517802 344.649536
   vertex -53.522121 -12.801811 344.502472
  endloop
 facet normal -0.718324 0.351079 0.600628
  outer loop
   vertex -53.522121 -12.801811 344.502472
   vertex -54.151459 -12.761720 343.726379
   vertex -54.378429 -13.477711 343.873444
  endloop
 facet normal -0.298238 0.909740 0.288838
  outer loop
   vertex -52.972874 -12.485532 344.073425
   vertex -54.151459 -12.761720 343.726379
   vertex -53.522121 -12.801811 344.502472
  endloop
 facet normal -0.298238 0.909740 0.288838
  outer loop
   vertex -53.602211 -12.445440 343.297333
   vertex -54.151459 -12.761720 343.726379
   vertex -52.972874 -12.485532 344.073425
  endloop
 facet normal 0.296554 0.935486 -0.192151
  outer loop
   vertex -52.972874 -12.485532 344.073425
   vertex -52.423092 -12.754236 343.613739
   vertex -53.602211 -12.445440 343.297333
  endloop
 facet normal 0.296553 0.935486 -0.192150
  outer loop
   vertex -53.602211 -12.445440 343.297333
   vertex -52.423092 -12.754236 343.613739
   vertex -53.052429 -12.714144 342.837646
  endloop
 facet normal 0.717624 0.413242 -0.560577
  outer loop
   vertex -53.052429 -12.714144 342.837646
   vertex -52.423092 -12.754236 343.613739
   vertex -52.194828 -13.450521 343.392670
  endloop
 facet normal 0.717623 0.413239 -0.560580
  outer loop
   vertex -52.194828 -13.450521 343.392670
   vertex -52.824169 -13.410428 342.616577
   vertex -53.052429 -12.714144 342.837646
  endloop
 facet normal 0.718322 -0.351079 -0.600631
  outer loop
   vertex -52.421799 -14.166511 343.539734
   vertex -52.824169 -13.410428 342.616577
   vertex -52.194828 -13.450521 343.392670
  endloop
 facet normal 0.718322 -0.351079 -0.600631
  outer loop
   vertex -53.051140 -14.126419 342.763641
   vertex -52.824169 -13.410428 342.616577
   vertex -52.421799 -14.166511 343.539734
  endloop
 facet normal 0.298238 -0.909739 -0.288840
  outer loop
   vertex -52.421799 -14.166511 343.539734
   vertex -52.971046 -14.482791 343.968781
   vertex -53.051140 -14.126419 342.763641
  endloop
 facet normal 0.298240 -0.909739 -0.288840
  outer loop
   vertex -53.051140 -14.126419 342.763641
   vertex -52.971046 -14.482791 343.968781
   vertex -53.600384 -14.442699 343.192688
  endloop
 facet normal -0.296547 -0.935489 0.192146
  outer loop
   vertex -53.600384 -14.442699 343.192688
   vertex -52.971046 -14.482791 343.968781
   vertex -53.520828 -14.214087 344.428497
  endloop
 facet normal -0.296558 -0.935486 0.192146
  outer loop
   vertex -53.520828 -14.214087 344.428497
   vertex -54.150166 -14.173995 343.652374
   vertex -53.600384 -14.442699 343.192688
  endloop
 facet normal -0.717642 -0.413221 0.560570
  outer loop
   vertex -53.749092 -13.517802 344.649536
   vertex -54.150166 -14.173995 343.652374
   vertex -53.520828 -14.214087 344.428497
  endloop
 facet normal -0.231434 -0.362470 0.902803
  outer loop
   vertex -53.520828 -14.214087 344.428497
   vertex -52.536903 -13.532663 344.954315
   vertex -53.749092 -13.517802 344.649536
  endloop
 facet normal -0.232004 0.265779 0.935701
  outer loop
   vertex -53.749092 -13.517802 344.649536
   vertex -52.536903 -13.532663 344.954315
   vertex -52.480160 -13.353665 344.917542
  endloop
 facet normal -0.232001 0.265740 0.935713
  outer loop
   vertex -52.480160 -13.353665 344.917542
   vertex -53.522121 -12.801811 344.502472
   vertex -53.749092 -13.517802 344.649536
  endloop
 facet normal 0.113248 0.724893 0.679488
  outer loop
   vertex -52.342850 -13.274595 344.810303
   vertex -53.522121 -12.801811 344.502472
   vertex -52.480160 -13.353665 344.917542
  endloop
 facet normal 0.113285 0.724944 0.679428
  outer loop
   vertex -52.972874 -12.485532 344.073425
   vertex -53.522121 -12.801811 344.502472
   vertex -52.342850 -13.274595 344.810303
  endloop
 facet normal 0.602187 0.746103 0.284078
  outer loop
   vertex -52.342850 -13.274595 344.810303
   vertex -52.205402 -13.341771 344.695374
   vertex -52.972874 -12.485532 344.073425
  endloop
 facet normal 0.602184 0.746104 0.284082
  outer loop
   vertex -52.972874 -12.485532 344.073425
   vertex -52.205402 -13.341771 344.695374
   vertex -52.423092 -12.754236 343.613739
  endloop
 facet normal 0.948298 0.316826 -0.018757
  outer loop
   vertex -52.423092 -12.754236 343.613739
   vertex -52.205402 -13.341771 344.695374
   vertex -52.148338 -13.515842 344.640106
  endloop
 facet normal 0.948296 0.316834 -0.018750
  outer loop
   vertex -52.148338 -13.515842 344.640106
   vertex -52.194828 -13.450521 343.392670
   vertex -52.423092 -12.754236 343.613739
  endloop
 facet normal 0.948871 -0.311405 -0.051669
  outer loop
   vertex -52.205082 -13.694840 344.676849
   vertex -52.194828 -13.450521 343.392670
   vertex -52.148338 -13.515842 344.640106
  endloop
 facet normal 0.948871 -0.311407 -0.051670
  outer loop
   vertex -52.421799 -14.166511 343.539734
   vertex -52.194828 -13.450521 343.392670
   vertex -52.205082 -13.694840 344.676849
  endloop
 facet normal 0.603589 -0.770595 0.204605
  outer loop
   vertex -52.205082 -13.694840 344.676849
   vertex -52.342392 -13.773911 344.784119
   vertex -52.421799 -14.166511 343.539734
  endloop
 facet normal 0.603577 -0.770604 0.204608
  outer loop
   vertex -52.421799 -14.166511 343.539734
   vertex -52.342392 -13.773911 344.784119
   vertex -52.971046 -14.482791 343.968781
  endloop
 facet normal 0.114695 -0.791769 0.599955
  outer loop
   vertex -52.971046 -14.482791 343.968781
   vertex -52.342392 -13.773911 344.784119
   vertex -52.479839 -13.706735 344.899048
  endloop
 facet normal 0.114696 -0.791770 0.599955
  outer loop
   vertex -52.479839 -13.706735 344.899048
   vertex -53.520828 -14.214087 344.428497
   vertex -52.971046 -14.482791 343.968781
  endloop
 facet normal -0.231412 -0.362498 0.902798
  outer loop
   vertex -52.536903 -13.532663 344.954315
   vertex -53.520828 -14.214087 344.428497
   vertex -52.479839 -13.706735 344.899048
  endloop
 facet normal 0.717620 0.413248 -0.560578
  outer loop
   vertex -44.259144 -13.240990 339.532501
   vertex -44.888485 -13.200898 338.756409
   vertex -44.316212 -13.066918 339.587769
  endloop
 facet normal 0.717626 0.413235 -0.560580
  outer loop
   vertex -44.316212 -13.066918 339.587769
   vertex -44.888485 -13.200898 338.756409
   vertex -44.945549 -13.026827 338.811676
  endloop
 facet normal 0.296549 0.935488 -0.192148
  outer loop
   vertex -44.945549 -13.026827 338.811676
   vertex -44.453655 -12.999743 339.702698
   vertex -44.316212 -13.066918 339.587769
  endloop
 facet normal 0.296570 0.935479 -0.192159
  outer loop
   vertex -45.082996 -12.959651 338.926575
   vertex -44.453655 -12.999743 339.702698
   vertex -44.945549 -13.026827 338.811676
  endloop
 facet normal -0.298267 0.909726 0.288851
  outer loop
   vertex -44.590969 -13.078813 339.809937
   vertex -44.453655 -12.999743 339.702698
   vertex -45.082996 -12.959651 338.926575
  endloop
 facet normal -0.298229 0.909745 0.288832
  outer loop
   vertex -45.082996 -12.959651 338.926575
   vertex -45.220306 -13.038720 339.033844
   vertex -44.590969 -13.078813 339.809937
  endloop
 facet normal -0.718319 0.351093 0.600626
  outer loop
   vertex -44.590969 -13.078813 339.809937
   vertex -45.220306 -13.038720 339.033844
   vertex -44.647709 -13.257810 339.846710
  endloop
 facet normal -0.718314 0.351104 0.600625
  outer loop
   vertex -44.647709 -13.257810 339.846710
   vertex -45.220306 -13.038720 339.033844
   vertex -45.277050 -13.217718 339.070618
  endloop
 facet normal -0.717624 -0.413235 0.560582
  outer loop
   vertex -45.277050 -13.217718 339.070618
   vertex -44.590645 -13.431881 339.791443
   vertex -44.647709 -13.257810 339.846710
  endloop
 facet normal -0.717624 -0.413235 0.560582
  outer loop
   vertex -45.219986 -13.391789 339.015350
   vertex -44.590645 -13.431881 339.791443
   vertex -45.277050 -13.217718 339.070618
  endloop
 facet normal -0.296549 -0.935488 0.192149
  outer loop
   vertex -44.453201 -13.499057 339.676514
   vertex -44.590645 -13.431881 339.791443
   vertex -45.219986 -13.391789 339.015350
  endloop
 facet normal -0.296545 -0.935490 0.192144
  outer loop
   vertex -45.219986 -13.391789 339.015350
   vertex -45.082539 -13.458965 338.900421
   vertex -44.453201 -13.499057 339.676514
  endloop
 facet normal 0.298226 -0.909747 -0.288828
  outer loop
   vertex -44.453201 -13.499057 339.676514
   vertex -45.082539 -13.458965 338.900421
   vertex -44.315887 -13.419988 339.569244
  endloop
 facet normal 0.298232 -0.909743 -0.288836
  outer loop
   vertex -44.315887 -13.419988 339.569244
   vertex -45.082539 -13.458965 338.900421
   vertex -44.945229 -13.379895 338.793152
  endloop
 facet normal 0.718342 -0.351015 -0.600644
  outer loop
   vertex -44.945229 -13.379895 338.793152
   vertex -44.259144 -13.240990 339.532501
   vertex -44.315887 -13.419988 339.569244
  endloop
 facet normal 0.718342 -0.351016 -0.600643
  outer loop
   vertex -44.888485 -13.200898 338.756409
   vertex -44.259144 -13.240990 339.532501
   vertex -44.945229 -13.379895 338.793152
  endloop
 facet normal 0.948869 -0.311414 -0.051665
  outer loop
   vertex -44.938911 -13.380298 338.800964
   vertex -45.155628 -13.851969 337.663818
   vertex -44.882168 -13.201301 338.764191
  endloop
 facet normal 0.948871 -0.311407 -0.051670
  outer loop
   vertex -44.882168 -13.201301 338.764191
   vertex -45.155628 -13.851969 337.663818
   vertex -44.928658 -13.135978 337.516754
  endloop
 facet normal 0.948299 0.316825 -0.018751
  outer loop
   vertex -44.928658 -13.135978 337.516754
   vertex -44.939232 -13.027229 338.819458
   vertex -44.882168 -13.201301 338.764191
  endloop
 facet normal 0.948295 0.316835 -0.018752
  outer loop
   vertex -45.156921 -12.439693 337.737823
   vertex -44.939232 -13.027229 338.819458
   vertex -44.928658 -13.135978 337.516754
  endloop
 facet normal 0.602188 0.746102 0.284081
  outer loop
   vertex -45.076679 -12.960053 338.934387
   vertex -44.939232 -13.027229 338.819458
   vertex -45.156921 -12.439693 337.737823
  endloop
 facet normal 0.602194 0.746098 0.284078
  outer loop
   vertex -45.156921 -12.439693 337.737823
   vertex -45.706703 -12.170989 338.197540
   vertex -45.076679 -12.960053 338.934387
  endloop
 facet normal 0.113229 0.724913 0.679471
  outer loop
   vertex -45.076679 -12.960053 338.934387
   vertex -45.706703 -12.170989 338.197540
   vertex -45.213989 -13.039123 339.041626
  endloop
 facet normal 0.113306 0.724928 0.679442
  outer loop
   vertex -45.213989 -13.039123 339.041626
   vertex -45.706703 -12.170989 338.197540
   vertex -46.255947 -12.487268 338.626587
  endloop
 facet normal -0.231960 0.265768 0.935715
  outer loop
   vertex -46.255947 -12.487268 338.626587
   vertex -45.270733 -13.218121 339.078400
   vertex -45.213989 -13.039123 339.041626
  endloop
 facet normal -0.231986 0.265736 0.935717
  outer loop
   vertex -46.482918 -13.203259 338.773651
   vertex -45.270733 -13.218121 339.078400
   vertex -46.255947 -12.487268 338.626587
  endloop
 facet normal -0.231411 -0.362502 0.902796
  outer loop
   vertex -45.213665 -13.392192 339.023132
   vertex -45.270733 -13.218121 339.078400
   vertex -46.482918 -13.203259 338.773651
  endloop
 facet normal -0.231411 -0.362499 0.902797
  outer loop
   vertex -46.482918 -13.203259 338.773651
   vertex -46.254658 -13.899544 338.552582
   vertex -45.213665 -13.392192 339.023132
  endloop
 facet normal 0.114696 -0.791771 0.599953
  outer loop
   vertex -45.213665 -13.392192 339.023132
   vertex -46.254658 -13.899544 338.552582
   vertex -45.076221 -13.459368 338.908203
  endloop
 facet normal 0.114695 -0.791770 0.599955
  outer loop
   vertex -45.076221 -13.459368 338.908203
   vertex -46.254658 -13.899544 338.552582
   vertex -45.704876 -14.168248 338.092865
  endloop
 facet normal 0.603565 -0.770609 0.204622
  outer loop
   vertex -45.704876 -14.168248 338.092865
   vertex -44.938911 -13.380298 338.800964
   vertex -45.076221 -13.459368 338.908203
  endloop
 facet normal 0.603575 -0.770606 0.204607
  outer loop
   vertex -45.155628 -13.851969 337.663818
   vertex -44.938911 -13.380298 338.800964
   vertex -45.704876 -14.168248 338.092865
  endloop
endsolid