solid stl file generated from DOUG
 facet normal 0.266757 0.050675 -0.962431
  outer loop
   vertex -63.288254 -27.498758 337.546509
   vertex -63.419506 -27.496977 337.510223
   vertex -63.427956 -18.260113 337.994232
  endloop
 facet normal -0.617109 0.040613 -0.785829
  outer loop
   vertex -63.427956 -18.260113 337.994232
   vertex -63.419506 -27.496977 337.510223
   vertex -63.508816 -18.263504 338.057556
  endloop
 facet normal -0.999573 -0.002440 0.029125
  outer loop
   vertex -62.427521 -18.225437 337.349945
   vertex -62.431499 -18.218317 337.213989
   vertex -62.423050 -27.455181 336.729980
  endloop
 facet normal -0.616925 0.040620 -0.785973
  outer loop
   vertex -62.423050 -27.455181 336.729980
   vertex -62.431499 -18.218317 337.213989
   vertex -62.350639 -18.214926 337.150696
  endloop
 facet normal -0.616926 0.040620 -0.785972
  outer loop
   vertex -62.350639 -18.214926 337.150696
   vertex -62.342190 -27.451788 336.666687
   vertex -62.423050 -27.455181 336.729980
  endloop
 facet normal -0.294113 0.049745 -0.954475
  outer loop
   vertex -61.898506 -18.244684 337.726501
   vertex -61.890057 -27.481548 337.242493
   vertex -61.930687 -18.245232 337.736389
  endloop
 facet normal -0.294113 0.049745 -0.954475
  outer loop
   vertex -61.930687 -18.245232 337.736389
   vertex -61.890057 -27.481548 337.242493
   vertex -61.922237 -27.482096 337.252380
  endloop
 facet normal 0.786917 0.033007 -0.616176
  outer loop
   vertex -61.922237 -27.482096 337.252380
   vertex -62.277142 -27.458735 336.800385
   vertex -61.930687 -18.245232 337.736389
  endloop
 facet normal 0.266750 0.050675 -0.962433
  outer loop
   vertex -63.427956 -18.260113 337.994232
   vertex -63.296700 -18.261894 338.030518
   vertex -63.288254 -27.498758 337.546509
  endloop
 facet normal -0.617049 0.040615 -0.785876
  outer loop
   vertex -63.288254 -27.498758 337.546509
   vertex -63.296700 -18.261894 338.030518
   vertex -62.427521 -18.225437 337.349945
  endloop
 facet normal -0.617048 0.040615 -0.785877
  outer loop
   vertex -62.427521 -18.225437 337.349945
   vertex -62.419071 -27.462301 336.865936
   vertex -63.288254 -27.498758 337.546509
  endloop
 facet normal -0.999573 -0.002440 0.029125
  outer loop
   vertex -62.423050 -27.455181 336.729980
   vertex -62.419071 -27.462301 336.865936
   vertex -62.427521 -18.225437 337.349945
  endloop
 facet normal 0.786863 0.033011 -0.616244
  outer loop
   vertex -62.342190 -27.451788 336.666687
   vertex -62.350639 -18.214926 337.150696
   vertex -62.259865 -27.457207 336.771515
  endloop
 facet normal 0.786849 0.033011 -0.616262
  outer loop
   vertex -62.259865 -27.457207 336.771515
   vertex -62.350639 -18.214926 337.150696
   vertex -62.268311 -18.220345 337.255524
  endloop
 facet normal 0.858398 -0.026061 0.512321
  outer loop
   vertex -62.268311 -18.220345 337.255524
   vertex -62.277142 -27.458735 336.800385
   vertex -62.259865 -27.457207 336.771515
  endloop
 facet normal 0.858398 -0.026061 0.512323
  outer loop
   vertex -62.285587 -18.221870 337.284393
   vertex -62.277142 -27.458735 336.800385
   vertex -62.268311 -18.220345 337.255524
  endloop
 facet normal 0.786920 0.033007 -0.616172
  outer loop
   vertex -61.930687 -18.245232 337.736389
   vertex -62.277142 -27.458735 336.800385
   vertex -62.285587 -18.221870 337.284393
  endloop
 facet normal -0.000914 0.998629 0.052330
  outer loop
   vertex -63.534260 -17.725708 338.081512
   vertex -61.830627 -17.710140 337.814178
   vertex -62.349262 -17.676003 337.153656
  endloop
 facet normal 0.786918 0.033012 -0.616173
  outer loop
   vertex -62.349262 -17.676003 337.153656
   vertex -61.830627 -17.710140 337.814178
   vertex -62.348351 -18.674633 337.101318
  endloop
 facet normal -0.617060 0.040623 -0.785867
  outer loop
   vertex -62.348351 -18.674633 337.101318
   vertex -63.533348 -18.724337 338.029205
   vertex -62.349262 -17.676003 337.153656
  endloop
 facet normal 0.000913 -0.998630 -0.052326
  outer loop
   vertex -61.829716 -18.708769 337.761841
   vertex -63.533348 -18.724337 338.029205
   vertex -62.348351 -18.674633 337.101318
  endloop
 facet normal 0.000913 -0.998629 -0.052329
  outer loop
   vertex -63.014713 -18.758474 338.689728
   vertex -63.533348 -18.724337 338.029205
   vertex -61.829716 -18.708769 337.761841
  endloop
 facet normal 0.617060 -0.040624 0.785867
  outer loop
   vertex -61.829716 -18.708769 337.761841
   vertex -61.830627 -17.710140 337.814178
   vertex -63.014713 -18.758474 338.689728
  endloop
 facet normal 0.617060 -0.040623 0.785867
  outer loop
   vertex -63.014713 -18.758474 338.689728
   vertex -61.830627 -17.710140 337.814178
   vertex -63.015625 -17.759844 338.742065
  endloop
 facet normal -0.000915 0.998630 0.052325
  outer loop
   vertex -63.015625 -17.759844 338.742065
   vertex -61.830627 -17.710140 337.814178
   vertex -63.534260 -17.725708 338.081512
  endloop
 facet normal -0.786932 -0.032992 0.616157
  outer loop
   vertex -63.534260 -17.725708 338.081512
   vertex -63.533348 -18.724337 338.029205
   vertex -63.015625 -17.759844 338.742065
  endloop
 facet normal -0.617048 0.040600 -0.785878
  outer loop
   vertex -62.349262 -17.676003 337.153656
   vertex -63.533348 -18.724337 338.029205
   vertex -63.534260 -17.725708 338.081512
  endloop
 facet normal -0.000915 0.998630 0.052325
  outer loop
   vertex -62.340744 -26.989437 336.665619
   vertex -63.525742 -27.039141 337.593506
   vertex -61.822109 -27.023573 337.326172
  endloop
 facet normal -0.000914 0.998629 0.052330
  outer loop
   vertex -61.822109 -27.023573 337.326172
   vertex -63.525742 -27.039141 337.593506
   vertex -63.007107 -27.073278 338.254028
  endloop
 facet normal 0.617048 -0.040622 0.785877
  outer loop
   vertex -63.007107 -27.073278 338.254028
   vertex -63.006191 -28.071907 338.201691
   vertex -61.822109 -27.023573 337.326172
  endloop
 facet normal -0.786918 -0.033015 0.616173
  outer loop
   vertex -63.525742 -27.039141 337.593506
   vertex -63.006191 -28.071907 338.201691
   vertex -63.007107 -27.073278 338.254028
  endloop
 facet normal -0.786916 -0.033012 0.616176
  outer loop
   vertex -63.524830 -28.037769 337.541168
   vertex -63.006191 -28.071907 338.201691
   vertex -63.525742 -27.039141 337.593506
  endloop
 facet normal -0.617048 0.040624 -0.785877
  outer loop
   vertex -63.525742 -27.039141 337.593506
   vertex -62.339832 -27.988066 336.613312
   vertex -63.524830 -28.037769 337.541168
  endloop
 facet normal 0.000913 -0.998629 -0.052329
  outer loop
   vertex -63.524830 -28.037769 337.541168
   vertex -62.339832 -27.988066 336.613312
   vertex -63.006191 -28.071907 338.201691
  endloop
 facet normal 0.000913 -0.998629 -0.052329
  outer loop
   vertex -63.006191 -28.071907 338.201691
   vertex -62.339832 -27.988066 336.613312
   vertex -61.821198 -28.022203 337.273834
  endloop
 facet normal 0.617049 -0.040624 0.785876
  outer loop
   vertex -61.821198 -28.022203 337.273834
   vertex -61.822109 -27.023573 337.326172
   vertex -63.006191 -28.071907 338.201691
  endloop
 facet normal 0.786918 0.033012 -0.616173
  outer loop
   vertex -62.339832 -27.988066 336.613312
   vertex -61.822109 -27.023573 337.326172
   vertex -61.821198 -28.022203 337.273834
  endloop
 facet normal 0.786932 0.032992 -0.616157
  outer loop
   vertex -62.340744 -26.989437 336.665619
   vertex -61.822109 -27.023573 337.326172
   vertex -62.339832 -27.988066 336.613312
  endloop
 facet normal -0.617060 0.040600 -0.785868
  outer loop
   vertex -62.339832 -27.988066 336.613312
   vertex -63.525742 -27.039141 337.593506
   vertex -62.340744 -26.989437 336.665619
  endloop
 facet normal -0.617109 0.040613 -0.785829
  outer loop
   vertex -63.419506 -27.496977 337.510223
   vertex -63.500366 -27.500368 337.573547
   vertex -63.508816 -18.263504 338.057556
  endloop
 facet normal -0.786950 -0.033005 0.616134
  outer loop
   vertex -63.508816 -18.263504 338.057556
   vertex -63.500366 -27.500368 337.573547
   vertex -63.418041 -27.505787 337.678406
  endloop
 facet normal -0.786936 -0.033006 0.616151
  outer loop
   vertex -63.418041 -27.505787 337.678406
   vertex -63.426487 -18.268923 338.162415
   vertex -63.508816 -18.263504 338.057556
  endloop
 facet normal 0.294113 -0.049745 0.954475
  outer loop
   vertex -63.385860 -27.505239 337.668518
   vertex -63.426487 -18.268923 338.162415
   vertex -63.418041 -27.505787 337.678406
  endloop
 facet normal 0.294145 -0.049745 0.954465
  outer loop
   vertex -63.394310 -18.268375 338.152527
   vertex -63.426487 -18.268923 338.162415
   vertex -63.385860 -27.505239 337.668518
  endloop
 facet normal -0.786917 -0.033007 0.616176
  outer loop
   vertex -63.385860 -27.505239 337.668518
   vertex -63.030956 -27.528601 338.120514
   vertex -63.394310 -18.268375 338.152527
  endloop
 facet normal -0.786917 -0.033007 0.616176
  outer loop
   vertex -63.394310 -18.268375 338.152527
   vertex -63.030956 -27.528601 338.120514
   vertex -63.039406 -18.291737 338.604523
  endloop
 facet normal -0.858398 0.026060 -0.512321
  outer loop
   vertex -63.039406 -18.291737 338.604523
   vertex -63.030956 -27.528601 338.120514
   vertex -63.048233 -27.530128 338.149384
  endloop
 facet normal -0.858398 0.026060 -0.512321
  outer loop
   vertex -63.048233 -27.530128 338.149384
   vertex -63.056683 -18.293264 338.633392
   vertex -63.039406 -18.291737 338.604523
  endloop
 facet normal -0.786798 -0.033015 0.616327
  outer loop
   vertex -63.007385 -27.532816 338.201385
   vertex -63.056683 -18.293264 338.633392
   vertex -63.048233 -27.530128 338.149384
  endloop
 facet normal -0.786973 -0.033006 0.616104
  outer loop
   vertex -63.015835 -18.295952 338.685425
   vertex -63.056683 -18.293264 338.633392
   vertex -63.007385 -27.532816 338.201385
  endloop
 facet normal 0.617050 -0.040618 0.785875
  outer loop
   vertex -63.007385 -27.532816 338.201385
   vertex -61.849209 -27.484238 337.294525
   vertex -63.015835 -18.295952 338.685425
  endloop
 facet normal 0.617062 -0.040615 0.785865
  outer loop
   vertex -63.015835 -18.295952 338.685425
   vertex -61.849209 -27.484238 337.294525
   vertex -61.857658 -18.247374 337.778534
  endloop
 facet normal 0.786974 0.033004 -0.616103
  outer loop
   vertex -61.857658 -18.247374 337.778534
   vertex -61.849209 -27.484238 337.294525
   vertex -61.898506 -18.244684 337.726501
  endloop
 facet normal 0.786918 0.033012 -0.616173
  outer loop
   vertex -61.829716 -18.708769 337.761841
   vertex -62.348351 -18.674633 337.101318
   vertex -61.830627 -17.710140 337.814178
  endloop
 facet normal -0.786918 -0.033012 0.616173
  outer loop
   vertex -63.533348 -18.724337 338.029205
   vertex -63.014713 -18.758474 338.689728
   vertex -63.015625 -17.759844 338.742065
  endloop
 facet normal 0.786974 0.033004 -0.616103
  outer loop
   vertex -61.849209 -27.484238 337.294525
   vertex -61.890057 -27.481548 337.242493
   vertex -61.898506 -18.244684 337.726501
  endloop
 facet normal -0.300298 -0.935244 0.187457
  outer loop
   vertex -61.215809 -28.637062 339.235992
   vertex -60.598755 -28.677677 340.021851
   vertex -61.772514 -28.367908 339.687012
  endloop
 facet normal -0.300295 -0.935247 0.187446
  outer loop
   vertex -61.772514 -28.367908 339.687012
   vertex -60.598755 -28.677677 340.021851
   vertex -61.155460 -28.408525 340.472900
  endloop
 facet normal -0.726677 -0.412650 0.549236
  outer loop
   vertex -61.155460 -28.408525 340.472900
   vertex -62.003643 -27.671440 339.904480
   vertex -61.772514 -28.367908 339.687012
  endloop
 facet normal -0.726677 -0.412649 0.549237
  outer loop
   vertex -61.386589 -27.712055 340.690369
   vertex -62.003643 -27.671440 339.904480
   vertex -61.155460 -28.408525 340.472900
  endloop
 facet normal -0.727377 0.351660 0.589286
  outer loop
   vertex -61.773804 -26.955633 339.761017
   vertex -62.003643 -27.671440 339.904480
   vertex -61.386589 -27.712055 340.690369
  endloop
 facet normal -0.727376 0.351661 0.589287
  outer loop
   vertex -61.386589 -27.712055 340.690369
   vertex -61.156750 -26.996250 340.546906
   vertex -61.773804 -26.955633 339.761017
  endloop
 facet normal -0.301985 0.909984 0.284139
  outer loop
   vertex -61.773804 -26.955633 339.761017
   vertex -61.156750 -26.996250 340.546906
   vertex -61.217636 -26.639803 339.340637
  endloop
 facet normal -0.301987 0.909983 0.284139
  outer loop
   vertex -61.217636 -26.639803 339.340637
   vertex -61.156750 -26.996250 340.546906
   vertex -60.600582 -26.680418 340.126526
  endloop
 facet normal 0.300300 0.935244 -0.187451
  outer loop
   vertex -60.600582 -26.680418 340.126526
   vertex -60.660931 -26.908955 338.889618
   vertex -61.217636 -26.639803 339.340637
  endloop
 facet normal 0.300300 0.935244 -0.187451
  outer loop
   vertex -60.043877 -26.949570 339.675507
   vertex -60.660931 -26.908955 338.889618
   vertex -60.600582 -26.680418 340.126526
  endloop
 facet normal 0.726677 0.412649 -0.549237
  outer loop
   vertex -60.429802 -27.605425 338.672150
   vertex -60.660931 -26.908955 338.889618
   vertex -60.043877 -26.949570 339.675507
  endloop
 facet normal 0.726660 0.412669 -0.549244
  outer loop
   vertex -60.043877 -26.949570 339.675507
   vertex -59.812748 -27.646040 339.458008
   vertex -60.429802 -27.605425 338.672150
  endloop
 facet normal 0.727365 -0.351660 -0.589300
  outer loop
   vertex -60.429802 -27.605425 338.672150
   vertex -59.812748 -27.646040 339.458008
   vertex -60.659641 -28.321230 338.815613
  endloop
 facet normal 0.727369 -0.351679 -0.589285
  outer loop
   vertex -60.659641 -28.321230 338.815613
   vertex -59.812748 -27.646040 339.458008
   vertex -60.042583 -28.361845 339.601501
  endloop
 facet normal 0.301987 -0.909983 -0.284140
  outer loop
   vertex -60.042583 -28.361845 339.601501
   vertex -61.215809 -28.637062 339.235992
   vertex -60.659641 -28.321230 338.815613
  endloop
 facet normal 0.301989 -0.909978 -0.284151
  outer loop
   vertex -60.598755 -28.677677 340.021851
   vertex -61.215809 -28.637062 339.235992
   vertex -60.042583 -28.361845 339.601501
  endloop
 facet normal 0.300293 0.935247 -0.187447
  outer loop
   vertex -61.697174 -18.078669 338.899933
   vertex -62.453407 -17.970766 338.226807
   vertex -61.836349 -18.011381 339.012695
  endloop
 facet normal -0.301974 0.909990 0.284130
  outer loop
   vertex -61.836349 -18.011381 339.012695
   vertex -62.453407 -17.970766 338.226807
   vertex -62.592449 -18.049723 338.331909
  endloop
 facet normal -0.302003 0.909970 0.284164
  outer loop
   vertex -62.592449 -18.049723 338.331909
   vertex -61.975395 -18.090340 339.117767
   vertex -61.836349 -18.011381 339.012695
  endloop
 facet normal -0.727376 0.351625 0.589308
  outer loop
   vertex -62.649906 -18.228676 338.367767
   vertex -61.975395 -18.090340 339.117767
   vertex -62.592449 -18.049723 338.331909
  endloop
 facet normal -0.727359 0.351717 0.589275
  outer loop
   vertex -62.032852 -18.269291 339.153656
   vertex -61.975395 -18.090340 339.117767
   vertex -62.649906 -18.228676 338.367767
  endloop
 facet normal -0.726690 -0.412608 0.549250
  outer loop
   vertex -62.649906 -18.228676 338.367767
   vertex -62.592125 -18.402792 338.313416
   vertex -62.032852 -18.269291 339.153656
  endloop
 facet normal -0.726654 -0.412689 0.549238
  outer loop
   vertex -62.032852 -18.269291 339.153656
   vertex -62.592125 -18.402792 338.313416
   vertex -61.975071 -18.443407 339.099274
  endloop
 facet normal -0.300297 -0.935244 0.187457
  outer loop
   vertex -61.975071 -18.443407 339.099274
   vertex -62.592125 -18.402792 338.313416
   vertex -62.452950 -18.470081 338.200653
  endloop
 facet normal -0.300297 -0.935244 0.187457
  outer loop
   vertex -62.452950 -18.470081 338.200653
   vertex -61.835896 -18.510696 338.986511
   vertex -61.975071 -18.443407 339.099274
  endloop
 facet normal 0.301975 -0.909986 -0.284141
  outer loop
   vertex -62.313908 -18.391123 338.095551
   vertex -61.835896 -18.510696 338.986511
   vertex -62.452950 -18.470081 338.200653
  endloop
 facet normal 0.302014 -0.909968 -0.284159
  outer loop
   vertex -61.696854 -18.431738 338.881439
   vertex -61.835896 -18.510696 338.986511
   vertex -62.313908 -18.391123 338.095551
  endloop
 facet normal 0.727382 -0.351642 -0.589290
  outer loop
   vertex -62.313908 -18.391123 338.095551
   vertex -62.256447 -18.212172 338.059692
   vertex -61.696854 -18.431738 338.881439
  endloop
 facet normal 0.727343 -0.351729 -0.589286
  outer loop
   vertex -61.696854 -18.431738 338.881439
   vertex -62.256447 -18.212172 338.059692
   vertex -61.639393 -18.252787 338.845551
  endloop
 facet normal 0.726655 0.412685 -0.549239
  outer loop
   vertex -61.639393 -18.252787 338.845551
   vertex -62.256447 -18.212172 338.059692
   vertex -62.314228 -18.038054 338.114075
  endloop
 facet normal 0.726655 0.412685 -0.549239
  outer loop
   vertex -62.314228 -18.038054 338.114075
   vertex -61.697174 -18.078669 338.899933
   vertex -61.639393 -18.252787 338.845551
  endloop
 facet normal 0.300307 0.935239 -0.187465
  outer loop
   vertex -62.453407 -17.970766 338.226807
   vertex -61.697174 -18.078669 338.899933
   vertex -62.314228 -18.038054 338.114075
  endloop
 facet normal 0.300298 0.935244 -0.187457
  outer loop
   vertex -60.052418 -17.612385 340.164764
   vertex -61.226177 -17.302616 339.829926
   vertex -60.609123 -17.343231 340.615784
  endloop
 facet normal -0.301982 0.909982 0.284146
  outer loop
   vertex -60.609123 -17.343231 340.615784
   vertex -61.226177 -17.302616 339.829926
   vertex -61.782345 -17.618448 340.250305
  endloop
 facet normal -0.301982 0.909982 0.284146
  outer loop
   vertex -61.782345 -17.618448 340.250305
   vertex -61.165291 -17.659063 341.036163
   vertex -60.609123 -17.343231 340.615784
  endloop
 facet normal -0.727365 0.351660 0.589300
  outer loop
   vertex -62.012184 -18.334253 340.393768
   vertex -61.165291 -17.659063 341.036163
   vertex -61.782345 -17.618448 340.250305
  endloop
 facet normal -0.727365 0.351657 0.589303
  outer loop
   vertex -61.395126 -18.374868 341.179626
   vertex -61.165291 -17.659063 341.036163
   vertex -62.012184 -18.334253 340.393768
  endloop
 facet normal -0.726664 -0.412653 0.549251
  outer loop
   vertex -62.012184 -18.334253 340.393768
   vertex -61.781052 -19.030724 340.176300
   vertex -61.395126 -18.374868 341.179626
  endloop
 facet normal -0.726667 -0.412649 0.549250
  outer loop
   vertex -61.395126 -18.374868 341.179626
   vertex -61.781052 -19.030724 340.176300
   vertex -61.163998 -19.071339 340.962158
  endloop
 facet normal -0.300292 -0.935247 0.187452
  outer loop
   vertex -61.163998 -19.071339 340.962158
   vertex -61.781052 -19.030724 340.176300
   vertex -61.224350 -19.299875 339.725250
  endloop
 facet normal -0.300301 -0.935244 0.187452
  outer loop
   vertex -61.224350 -19.299875 339.725250
   vertex -60.607296 -19.340490 340.511139
   vertex -61.163998 -19.071339 340.962158
  endloop
 facet normal 0.301993 -0.909980 -0.284143
  outer loop
   vertex -60.668179 -18.984045 339.304901
   vertex -60.607296 -19.340490 340.511139
   vertex -61.224350 -19.299875 339.725250
  endloop
 facet normal 0.301979 -0.909984 -0.284144
  outer loop
   vertex -60.051125 -19.024660 340.090759
   vertex -60.607296 -19.340490 340.511139
   vertex -60.668179 -18.984045 339.304901
  endloop
 facet normal 0.727359 -0.351679 -0.589297
  outer loop
   vertex -60.668179 -18.984045 339.304901
   vertex -60.438343 -18.268240 339.161407
   vertex -60.051125 -19.024660 340.090759
  endloop
 facet normal 0.727378 -0.351657 -0.589287
  outer loop
   vertex -60.051125 -19.024660 340.090759
   vertex -60.438343 -18.268240 339.161407
   vertex -59.821289 -18.308855 339.947296
  endloop
 facet normal 0.726670 0.412669 -0.549231
  outer loop
   vertex -59.821289 -18.308855 339.947296
   vertex -60.438343 -18.268240 339.161407
   vertex -60.669472 -17.571770 339.378906
  endloop
 facet normal 0.726667 0.412649 -0.549250
  outer loop
   vertex -60.669472 -17.571770 339.378906
   vertex -60.052418 -17.612385 340.164764
   vertex -59.821289 -18.308855 339.947296
  endloop
 facet normal 0.300298 0.935244 -0.187457
  outer loop
   vertex -61.226177 -17.302616 339.829926
   vertex -60.052418 -17.612385 340.164764
   vertex -60.669472 -17.571770 339.378906
  endloop
 facet normal -0.104596 0.791869 -0.601667
  outer loop
   vertex -60.669472 -17.571770 339.378906
   vertex -61.842545 -18.010973 339.004791
   vertex -61.226177 -17.302616 339.829926
  endloop
 facet normal -0.599668 0.771098 -0.214022
  outer loop
   vertex -61.226177 -17.302616 339.829926
   vertex -61.842545 -18.010973 339.004791
   vertex -61.981586 -18.089931 339.109894
  endloop
 facet normal -0.599662 0.771101 -0.214031
  outer loop
   vertex -61.981586 -18.089931 339.109894
   vertex -61.782345 -17.618448 340.250305
   vertex -61.226177 -17.302616 339.829926
  endloop
 facet normal -0.949307 0.312191 0.036784
  outer loop
   vertex -62.039047 -18.268883 339.145752
   vertex -61.782345 -17.618448 340.250305
   vertex -61.981586 -18.089931 339.109894
  endloop
 facet normal -0.949308 0.312188 0.036786
  outer loop
   vertex -62.012184 -18.334253 340.393768
   vertex -61.782345 -17.618448 340.250305
   vertex -62.039047 -18.268883 339.145752
  endloop
 facet normal -0.948736 -0.316046 0.003867
  outer loop
   vertex -62.039047 -18.268883 339.145752
   vertex -61.981266 -18.443001 339.091400
   vertex -62.012184 -18.334253 340.393768
  endloop
 facet normal -0.948732 -0.316057 0.003868
  outer loop
   vertex -62.012184 -18.334253 340.393768
   vertex -61.981266 -18.443001 339.091400
   vertex -61.781052 -19.030724 340.176300
  endloop
 facet normal -0.598269 -0.745605 -0.293508
  outer loop
   vertex -61.781052 -19.030724 340.176300
   vertex -61.981266 -18.443001 339.091400
   vertex -61.842087 -18.510288 338.978638
  endloop
 facet normal -0.598281 -0.745597 -0.293504
  outer loop
   vertex -61.842087 -18.510288 338.978638
   vertex -61.224350 -19.299875 339.725250
   vertex -61.781052 -19.030724 340.176300
  endloop
 facet normal -0.103253 -0.724842 -0.681134
  outer loop
   vertex -61.703045 -18.431330 338.873535
   vertex -61.224350 -19.299875 339.725250
   vertex -61.842087 -18.510288 338.978638
  endloop
 facet normal -0.103202 -0.724832 -0.681152
  outer loop
   vertex -60.668179 -18.984045 339.304901
   vertex -61.224350 -19.299875 339.725250
   vertex -61.703045 -18.431330 338.873535
  endloop
 facet normal 0.246468 -0.265882 -0.931966
  outer loop
   vertex -61.703045 -18.431330 338.873535
   vertex -61.645588 -18.252378 338.837677
   vertex -60.668179 -18.984045 339.304901
  endloop
 facet normal 0.246417 -0.265947 -0.931961
  outer loop
   vertex -60.668179 -18.984045 339.304901
   vertex -61.645588 -18.252378 338.837677
   vertex -60.438343 -18.268240 339.161407
  endloop
 facet normal 0.245852 0.362241 -0.899076
  outer loop
   vertex -60.438343 -18.268240 339.161407
   vertex -61.645588 -18.252378 338.837677
   vertex -61.703369 -18.078262 338.892029
  endloop
 facet normal 0.245859 0.362346 -0.899032
  outer loop
   vertex -61.703369 -18.078262 338.892029
   vertex -60.669472 -17.571770 339.378906
   vertex -60.438343 -18.268240 339.161407
  endloop
 facet normal -0.104605 0.791880 -0.601651
  outer loop
   vertex -61.842545 -18.010973 339.004791
   vertex -60.669472 -17.571770 339.378906
   vertex -61.703369 -18.078262 338.892029
  endloop
 facet normal -0.300312 -0.935237 0.187469
  outer loop
   vertex -62.444408 -27.807266 337.711395
   vertex -61.827354 -27.847881 338.497253
   vertex -62.583584 -27.739979 337.824127
  endloop
 facet normal -0.300293 -0.935247 0.187447
  outer loop
   vertex -62.583584 -27.739979 337.824127
   vertex -61.827354 -27.847881 338.497253
   vertex -61.966530 -27.780594 338.610016
  endloop
 facet normal -0.726661 -0.412698 0.549222
  outer loop
   vertex -61.966530 -27.780594 338.610016
   vertex -62.641369 -27.565861 337.878510
   vertex -62.583584 -27.739979 337.824127
  endloop
 facet normal -0.726680 -0.412605 0.549266
  outer loop
   vertex -62.024311 -27.606476 338.664368
   vertex -62.641369 -27.565861 337.878510
   vertex -61.966530 -27.780594 338.610016
  endloop
 facet normal -0.727370 0.351641 0.589306
  outer loop
   vertex -62.583908 -27.386909 337.842651
   vertex -62.641369 -27.565861 337.878510
   vertex -62.024311 -27.606476 338.664368
  endloop
 facet normal -0.727376 0.351628 0.589307
  outer loop
   vertex -62.024311 -27.606476 338.664368
   vertex -61.966854 -27.427525 338.628510
   vertex -62.583908 -27.386909 337.842651
  endloop
 facet normal -0.301969 0.909990 0.284136
  outer loop
   vertex -62.583908 -27.386909 337.842651
   vertex -61.966854 -27.427525 338.628510
   vertex -62.444866 -27.307953 337.737549
  endloop
 facet normal -0.301969 0.909990 0.284136
  outer loop
   vertex -62.444866 -27.307953 337.737549
   vertex -61.966854 -27.427525 338.628510
   vertex -61.827812 -27.348568 338.523407
  endloop
 facet normal 0.300290 0.935248 -0.187451
  outer loop
   vertex -61.827812 -27.348568 338.523407
   vertex -62.305691 -27.375240 337.624786
   vertex -62.444866 -27.307953 337.737549
  endloop
 facet normal 0.300315 0.935237 -0.187464
  outer loop
   vertex -61.688637 -27.415855 338.410675
   vertex -62.305691 -27.375240 337.624786
   vertex -61.827812 -27.348568 338.523407
  endloop
 facet normal 0.726687 0.412618 -0.549247
  outer loop
   vertex -62.247906 -27.549358 337.570435
   vertex -62.305691 -27.375240 337.624786
   vertex -61.688637 -27.415855 338.410675
  endloop
 facet normal 0.726651 0.412698 -0.549235
  outer loop
   vertex -61.688637 -27.415855 338.410675
   vertex -61.630852 -27.589973 338.356293
   vertex -62.247906 -27.549358 337.570435
  endloop
 facet normal 0.727371 -0.351641 -0.589304
  outer loop
   vertex -62.247906 -27.549358 337.570435
   vertex -61.630852 -27.589973 338.356293
   vertex -62.305367 -27.728310 337.606293
  endloop
 facet normal 0.727371 -0.351641 -0.589304
  outer loop
   vertex -62.305367 -27.728310 337.606293
   vertex -61.630852 -27.589973 338.356293
   vertex -61.688313 -27.768925 338.392151
  endloop
 facet normal 0.301969 -0.909990 -0.284136
  outer loop
   vertex -61.688313 -27.768925 338.392151
   vertex -62.444408 -27.807266 337.711395
   vertex -62.305367 -27.728310 337.606293
  endloop
 facet normal 0.301969 -0.909990 -0.284136
  outer loop
   vertex -61.827354 -27.847881 338.497253
   vertex -62.444408 -27.807266 337.711395
   vertex -61.688313 -27.768925 338.392151
  endloop
 facet normal -0.103241 -0.724851 -0.681126
  outer loop
   vertex -61.694508 -27.768517 338.384277
   vertex -60.659641 -28.321230 338.815613
   vertex -61.833549 -27.847475 338.489380
  endloop
 facet normal -0.103230 -0.724835 -0.681145
  outer loop
   vertex -61.833549 -27.847475 338.489380
   vertex -60.659641 -28.321230 338.815613
   vertex -61.215809 -28.637062 339.235992
  endloop
 facet normal -0.598253 -0.745607 -0.293535
  outer loop
   vertex -61.215809 -28.637062 339.235992
   vertex -61.972725 -27.780186 338.602112
   vertex -61.833549 -27.847475 338.489380
  endloop
 facet normal -0.598270 -0.745604 -0.293509
  outer loop
   vertex -61.772514 -28.367908 339.687012
   vertex -61.972725 -27.780186 338.602112
   vertex -61.215809 -28.637062 339.235992
  endloop
 facet normal -0.948735 -0.316050 0.003868
  outer loop
   vertex -62.030506 -27.606070 338.656494
   vertex -61.972725 -27.780186 338.602112
   vertex -61.772514 -28.367908 339.687012
  endloop
 facet normal -0.948734 -0.316052 0.003867
  outer loop
   vertex -61.772514 -28.367908 339.687012
   vertex -62.003643 -27.671440 339.904480
   vertex -62.030506 -27.606070 338.656494
  endloop
 facet normal -0.949307 0.312191 0.036787
  outer loop
   vertex -62.030506 -27.606070 338.656494
   vertex -62.003643 -27.671440 339.904480
   vertex -61.973045 -27.427118 338.620636
  endloop
 facet normal -0.949308 0.312187 0.036786
  outer loop
   vertex -61.973045 -27.427118 338.620636
   vertex -62.003643 -27.671440 339.904480
   vertex -61.773804 -26.955633 339.761017
  endloop
 facet normal -0.599673 0.771092 -0.214033
  outer loop
   vertex -61.773804 -26.955633 339.761017
   vertex -61.834003 -27.348160 338.515533
   vertex -61.973045 -27.427118 338.620636
  endloop
 facet normal -0.599662 0.771099 -0.214035
  outer loop
   vertex -61.217636 -26.639803 339.340637
   vertex -61.834003 -27.348160 338.515533
   vertex -61.773804 -26.955633 339.761017
  endloop
 facet normal -0.104631 0.791868 -0.601662
  outer loop
   vertex -61.694828 -27.415447 338.402771
   vertex -61.834003 -27.348160 338.515533
   vertex -61.217636 -26.639803 339.340637
  endloop
 facet normal -0.104605 0.791864 -0.601672
  outer loop
   vertex -61.217636 -26.639803 339.340637
   vertex -60.660931 -26.908955 338.889618
   vertex -61.694828 -27.415447 338.402771
  endloop
 facet normal 0.245895 0.362247 -0.899062
  outer loop
   vertex -61.694828 -27.415447 338.402771
   vertex -60.660931 -26.908955 338.889618
   vertex -61.637047 -27.589565 338.348419
  endloop
 facet normal 0.245846 0.362308 -0.899051
  outer loop
   vertex -61.637047 -27.589565 338.348419
   vertex -60.660931 -26.908955 338.889618
   vertex -60.429802 -27.605425 338.672150
  endloop
 facet normal 0.246423 -0.265875 -0.931979
  outer loop
   vertex -60.429802 -27.605425 338.672150
   vertex -61.694508 -27.768517 338.384277
   vertex -61.637047 -27.589565 338.348419
  endloop
 facet normal 0.246426 -0.265912 -0.931968
  outer loop
   vertex -60.659641 -28.321230 338.815613
   vertex -61.694508 -27.768517 338.384277
   vertex -60.429802 -27.605425 338.672150
  endloop
endsolid