solid stl file generated from DOUG
 facet normal -0.053221 -0.997126 -0.053923
  outer loop
   vertex -15.314617 -242.903427 371.624634
   vertex -15.450548 -242.895966 371.620819
   vertex -15.165075 -242.411926 362.388367
  endloop
 facet normal -0.834711 -0.547981 -0.054539
  outer loop
   vertex -15.165075 -242.411926 362.388367
   vertex -15.450548 -242.895966 371.620819
   vertex -15.221572 -242.326141 362.391113
  endloop
 facet normal -0.938045 0.346344 -0.010847
  outer loop
   vertex -14.421853 -243.341522 362.362610
   vertex -14.468858 -243.469086 362.354462
   vertex -14.754331 -243.953125 371.586914
  endloop
 facet normal -0.834711 -0.547981 -0.054539
  outer loop
   vertex -14.754331 -243.953125 371.586914
   vertex -14.468858 -243.469086 362.354462
   vertex -14.412361 -243.554871 362.351715
  endloop
 facet normal -0.834711 -0.547981 -0.054539
  outer loop
   vertex -14.412361 -243.554871 362.351715
   vertex -14.697834 -244.038910 371.584167
   vertex -14.754331 -243.953125 371.586914
  endloop
 facet normal -0.582049 -0.810899 -0.060511
  outer loop
   vertex -13.800744 -243.153351 362.391693
   vertex -14.086217 -243.637390 371.624146
   vertex -13.828101 -243.133728 362.391876
  endloop
 facet normal -0.582063 -0.810889 -0.060511
  outer loop
   vertex -13.828101 -243.133728 362.391876
   vertex -14.086217 -243.637390 371.624146
   vertex -14.113573 -243.617767 371.624329
  endloop
 facet normal 0.549833 -0.834846 -0.026768
  outer loop
   vertex -14.113573 -243.617767 371.624329
   vertex -14.593666 -243.932953 371.592957
   vertex -13.828101 -243.133728 362.391876
  endloop
 facet normal -0.053221 -0.997126 -0.053923
  outer loop
   vertex -15.165075 -242.411926 362.388367
   vertex -15.029144 -242.419388 362.392181
   vertex -15.314617 -242.903427 371.624634
  endloop
 facet normal -0.834717 -0.547972 -0.054539
  outer loop
   vertex -15.314617 -242.903427 371.624634
   vertex -15.029144 -242.419388 362.392181
   vertex -14.421853 -243.341522 362.362610
  endloop
 facet normal -0.834717 -0.547972 -0.054539
  outer loop
   vertex -14.421853 -243.341522 362.362610
   vertex -14.707326 -243.825562 371.595062
   vertex -15.314617 -242.903427 371.624634
  endloop
 facet normal -0.938045 0.346344 -0.010847
  outer loop
   vertex -14.754331 -243.953125 371.586914
   vertex -14.707326 -243.825562 371.595062
   vertex -14.421853 -243.341522 362.362610
  endloop
 facet normal 0.549873 -0.834819 -0.026766
  outer loop
   vertex -14.697834 -244.038910 371.584167
   vertex -14.412361 -243.554871 362.351715
   vertex -14.586468 -243.965790 371.591461
  endloop
 facet normal 0.549876 -0.834817 -0.026765
  outer loop
   vertex -14.586468 -243.965790 371.591461
   vertex -14.412361 -243.554871 362.351715
   vertex -14.300996 -243.481750 362.359009
  endloop
 facet normal 0.976363 0.212152 0.041312
  outer loop
   vertex -14.300996 -243.481750 362.359009
   vertex -14.593666 -243.932953 371.592957
   vertex -14.586468 -243.965790 371.591461
  endloop
 facet normal 0.976390 0.212031 0.041307
  outer loop
   vertex -14.308193 -243.448898 362.360504
   vertex -14.593666 -243.932953 371.592957
   vertex -14.300996 -243.481750 362.359009
  endloop
 facet normal 0.549815 -0.834857 -0.026771
  outer loop
   vertex -13.828101 -243.133728 362.391876
   vertex -14.593666 -243.932953 371.592957
   vertex -14.308193 -243.448898 362.360504
  endloop
 facet normal 0.030860 0.052331 -0.998153
  outer loop
   vertex -15.229942 -242.293991 361.853210
   vertex -13.700413 -243.090607 361.858734
   vertex -14.401993 -243.551178 361.812897
  endloop
 facet normal 0.549814 -0.834858 -0.026762
  outer loop
   vertex -14.401993 -243.551178 361.812897
   vertex -13.700413 -243.090607 361.858734
   vertex -14.432856 -243.603500 362.811066
  endloop
 facet normal -0.834716 -0.547974 -0.054533
  outer loop
   vertex -14.432856 -243.603500 362.811066
   vertex -15.260805 -242.346313 362.851349
   vertex -14.401993 -243.551178 361.812897
  endloop
 facet normal -0.030871 -0.052314 0.998153
  outer loop
   vertex -13.731277 -243.142929 362.856903
   vertex -15.260805 -242.346313 362.851349
   vertex -14.432856 -243.603500 362.811066
  endloop
 facet normal -0.030890 -0.052351 0.998151
  outer loop
   vertex -14.559226 -241.885742 362.897217
   vertex -15.260805 -242.346313 362.851349
   vertex -13.731277 -243.142929 362.856903
  endloop
 facet normal 0.834716 0.547973 0.054534
  outer loop
   vertex -13.731277 -243.142929 362.856903
   vertex -13.700413 -243.090607 361.858734
   vertex -14.559226 -241.885742 362.897217
  endloop
 facet normal 0.834716 0.547973 0.054534
  outer loop
   vertex -14.559226 -241.885742 362.897217
   vertex -13.700413 -243.090607 361.858734
   vertex -14.528362 -241.833420 361.899048
  endloop
 facet normal 0.030860 0.052331 -0.998153
  outer loop
   vertex -14.528362 -241.833420 361.899048
   vertex -13.700413 -243.090607 361.858734
   vertex -15.229942 -242.293991 361.853210
  endloop
 facet normal -0.549814 0.834858 0.026763
  outer loop
   vertex -15.229942 -242.293991 361.853210
   vertex -15.260805 -242.346313 362.851349
   vertex -14.528362 -241.833420 361.899048
  endloop
 facet normal -0.834716 -0.547973 -0.054534
  outer loop
   vertex -14.401993 -243.551178 361.812897
   vertex -15.260805 -242.346313 362.851349
   vertex -15.229942 -242.293991 361.853210
  endloop
 facet normal 0.030860 0.052331 -0.998153
  outer loop
   vertex -14.689832 -244.039230 371.121887
   vertex -15.517781 -242.782043 371.162201
   vertex -13.988252 -243.578659 371.167725
  endloop
 facet normal 0.030860 0.052331 -0.998153
  outer loop
   vertex -13.988252 -243.578659 371.167725
   vertex -15.517781 -242.782043 371.162201
   vertex -14.816201 -242.321472 371.208038
  endloop
 facet normal 0.834716 0.547973 0.054535
  outer loop
   vertex -14.816201 -242.321472 371.208038
   vertex -14.847065 -242.373795 372.206177
   vertex -13.988252 -243.578659 371.167725
  endloop
 facet normal -0.549814 0.834858 0.026762
  outer loop
   vertex -15.517781 -242.782043 371.162201
   vertex -14.847065 -242.373795 372.206177
   vertex -14.816201 -242.321472 371.208038
  endloop
 facet normal -0.549814 0.834858 0.026762
  outer loop
   vertex -15.548645 -242.834366 372.160339
   vertex -14.847065 -242.373795 372.206177
   vertex -15.517781 -242.782043 371.162201
  endloop
 facet normal -0.834716 -0.547973 -0.054535
  outer loop
   vertex -15.517781 -242.782043 371.162201
   vertex -14.720695 -244.091553 372.120026
   vertex -15.548645 -242.834366 372.160339
  endloop
 facet normal -0.030860 -0.052331 0.998153
  outer loop
   vertex -15.548645 -242.834366 372.160339
   vertex -14.720695 -244.091553 372.120026
   vertex -14.847065 -242.373795 372.206177
  endloop
 facet normal -0.030860 -0.052331 0.998153
  outer loop
   vertex -14.847065 -242.373795 372.206177
   vertex -14.720695 -244.091553 372.120026
   vertex -14.019115 -243.630981 372.165863
  endloop
 facet normal 0.834716 0.547973 0.054535
  outer loop
   vertex -14.019115 -243.630981 372.165863
   vertex -13.988252 -243.578659 371.167725
   vertex -14.847065 -242.373795 372.206177
  endloop
 facet normal 0.549814 -0.834858 -0.026762
  outer loop
   vertex -14.720695 -244.091553 372.120026
   vertex -13.988252 -243.578659 371.167725
   vertex -14.019115 -243.630981 372.165863
  endloop
 facet normal 0.549814 -0.834858 -0.026763
  outer loop
   vertex -14.689832 -244.039230 371.121887
   vertex -13.988252 -243.578659 371.167725
   vertex -14.720695 -244.091553 372.120026
  endloop
 facet normal -0.834716 -0.547973 -0.054534
  outer loop
   vertex -14.720695 -244.091553 372.120026
   vertex -15.517781 -242.782043 371.162201
   vertex -14.689832 -244.039230 371.121887
  endloop
 facet normal -0.834711 -0.547981 -0.054539
  outer loop
   vertex -15.450548 -242.895966 371.620819
   vertex -15.507045 -242.810181 371.623566
   vertex -15.221572 -242.326141 362.391113
  endloop
 facet normal -0.549873 0.834819 0.026766
  outer loop
   vertex -15.221572 -242.326141 362.391113
   vertex -15.507045 -242.810181 371.623566
   vertex -15.395679 -242.737061 371.630859
  endloop
 facet normal -0.549873 0.834819 0.026766
  outer loop
   vertex -15.395679 -242.737061 371.630859
   vertex -15.110206 -242.253021 362.398407
   vertex -15.221572 -242.326141 362.391113
  endloop
 facet normal 0.582049 0.810899 0.060511
  outer loop
   vertex -15.368321 -242.756683 371.630676
   vertex -15.110206 -242.253021 362.398407
   vertex -15.395679 -242.737061 371.630859
  endloop
 facet normal 0.582049 0.810899 0.060511
  outer loop
   vertex -15.082849 -242.272644 362.398224
   vertex -15.110206 -242.253021 362.398407
   vertex -15.368321 -242.756683 371.630676
  endloop
 facet normal -0.549814 0.834858 0.026769
  outer loop
   vertex -15.368321 -242.756683 371.630676
   vertex -14.888229 -242.441513 371.662018
   vertex -15.082849 -242.272644 362.398224
  endloop
 facet normal -0.549814 0.834858 0.026769
  outer loop
   vertex -15.082849 -242.272644 362.398224
   vertex -14.888229 -242.441513 371.662018
   vertex -14.602757 -241.957474 362.429565
  endloop
 facet normal -0.976398 -0.211994 -0.041305
  outer loop
   vertex -14.602757 -241.957474 362.429565
   vertex -14.888229 -242.441513 371.662018
   vertex -14.895427 -242.408661 371.663544
  endloop
 facet normal -0.976398 -0.211994 -0.041305
  outer loop
   vertex -14.895427 -242.408661 371.663544
   vertex -14.609954 -241.924622 362.431091
   vertex -14.602757 -241.957474 362.429565
  endloop
 facet normal -0.549755 0.834897 0.026773
  outer loop
   vertex -14.840169 -242.372391 371.667145
   vertex -14.609954 -241.924622 362.431091
   vertex -14.895427 -242.408661 371.663544
  endloop
 facet normal -0.549755 0.834897 0.026773
  outer loop
   vertex -14.554696 -241.888351 362.434692
   vertex -14.609954 -241.924622 362.431091
   vertex -14.840169 -242.372391 371.667145
  endloop
 facet normal 0.834715 0.547974 0.054539
  outer loop
   vertex -14.840169 -242.372391 371.667145
   vertex -14.030958 -243.601120 371.627747
   vertex -14.554696 -241.888351 362.434692
  endloop
 facet normal 0.834715 0.547974 0.054539
  outer loop
   vertex -14.554696 -241.888351 362.434692
   vertex -14.030958 -243.601120 371.627747
   vertex -13.745485 -243.117081 362.395294
  endloop
 facet normal 0.549748 -0.834901 -0.026774
  outer loop
   vertex -13.745485 -243.117081 362.395294
   vertex -14.030958 -243.601120 371.627747
   vertex -13.800744 -243.153351 362.391693
  endloop
 facet normal 0.549814 -0.834858 -0.026761
  outer loop
   vertex -13.731277 -243.142929 362.856903
   vertex -14.432856 -243.603500 362.811066
   vertex -13.700413 -243.090607 361.858734
  endloop
 facet normal -0.549815 0.834857 0.026761
  outer loop
   vertex -15.260805 -242.346313 362.851349
   vertex -14.559226 -241.885742 362.897217
   vertex -14.528362 -241.833420 361.899048
  endloop
 facet normal 0.549748 -0.834901 -0.026774
  outer loop
   vertex -14.030958 -243.601120 371.627747
   vertex -14.086217 -243.637390 371.624146
   vertex -13.800744 -243.153351 362.391693
  endloop
 facet normal -0.238923 0.271152 0.932412
  outer loop
   vertex -12.829091 -241.965820 372.802826
   vertex -11.994375 -241.417847 372.857361
   vertex -13.208830 -241.360153 372.529388
  endloop
 facet normal -0.238923 0.271152 0.932412
  outer loop
   vertex -13.208830 -241.360153 372.529388
   vertex -11.994375 -241.417847 372.857361
   vertex -12.374114 -240.812180 372.583923
  endloop
 facet normal -0.519774 0.751285 0.406702
  outer loop
   vertex -12.374114 -240.812180 372.583923
   vertex -13.348043 -241.078629 371.831421
   vertex -13.208830 -241.360153 372.529388
  endloop
 facet normal -0.519781 0.751272 0.406716
  outer loop
   vertex -12.513328 -240.530655 371.885986
   vertex -13.348043 -241.078629 371.831421
   vertex -12.374114 -240.812180 372.583923
  endloop
 facet normal -0.496143 0.791337 -0.357252
  outer loop
   vertex -13.165182 -241.286148 371.117798
   vertex -13.348043 -241.078629 371.831421
   vertex -12.513328 -240.530655 371.885986
  endloop
 facet normal -0.496156 0.791334 -0.357239
  outer loop
   vertex -12.513328 -240.530655 371.885986
   vertex -12.330467 -240.738174 371.172333
   vertex -13.165182 -241.286148 371.117798
  endloop
 facet normal -0.181896 0.367833 -0.911928
  outer loop
   vertex -13.165182 -241.286148 371.117798
   vertex -12.330467 -240.738174 371.172333
   vertex -12.767365 -241.861145 370.806519
  endloop
 facet normal -0.181895 0.367833 -0.911928
  outer loop
   vertex -12.767365 -241.861145 370.806519
   vertex -12.330467 -240.738174 371.172333
   vertex -11.932649 -241.313171 370.861053
  endloop
 facet normal 0.238905 -0.271123 -0.932425
  outer loop
   vertex -11.932649 -241.313171 370.861053
   vertex -12.387626 -242.466812 371.079926
   vertex -12.767365 -241.861145 370.806519
  endloop
 facet normal 0.238905 -0.271123 -0.932425
  outer loop
   vertex -11.552910 -241.918839 371.134460
   vertex -12.387626 -242.466812 371.079926
   vertex -11.932649 -241.313171 370.861053
  endloop
 facet normal 0.519774 -0.751285 -0.406702
  outer loop
   vertex -12.248412 -242.748337 371.777893
   vertex -12.387626 -242.466812 371.079926
   vertex -11.552910 -241.918839 371.134460
  endloop
 facet normal 0.519774 -0.751285 -0.406702
  outer loop
   vertex -11.552910 -241.918839 371.134460
   vertex -11.413696 -242.200363 371.832428
   vertex -12.248412 -242.748337 371.777893
  endloop
 facet normal 0.496155 -0.791335 0.357239
  outer loop
   vertex -12.248412 -242.748337 371.777893
   vertex -11.413696 -242.200363 371.832428
   vertex -12.431273 -242.540817 372.491547
  endloop
 facet normal 0.496155 -0.791335 0.357239
  outer loop
   vertex -12.431273 -242.540817 372.491547
   vertex -11.413696 -242.200363 371.832428
   vertex -11.596557 -241.992844 372.546082
  endloop
 facet normal 0.181895 -0.367833 0.911928
  outer loop
   vertex -11.596557 -241.992844 372.546082
   vertex -12.829091 -241.965820 372.802826
   vertex -12.431273 -242.540817 372.491547
  endloop
 facet normal 0.181895 -0.367833 0.911928
  outer loop
   vertex -11.994375 -241.417847 372.857361
   vertex -12.829091 -241.965820 372.802826
   vertex -11.596557 -241.992844 372.546082
  endloop
 facet normal 0.238926 -0.271156 -0.932410
  outer loop
   vertex -13.233340 -242.104996 362.236755
   vertex -14.162991 -242.501556 362.113861
   vertex -13.328276 -241.953583 362.168396
  endloop
 facet normal -0.181892 0.367827 -0.911931
  outer loop
   vertex -13.328276 -241.953583 362.168396
   vertex -14.162991 -242.501556 362.113861
   vertex -14.262445 -242.357803 362.191681
  endloop
 facet normal -0.181892 0.367828 -0.911931
  outer loop
   vertex -14.262445 -242.357803 362.191681
   vertex -13.427730 -241.809830 362.246216
   vertex -13.328276 -241.953583 362.168396
  endloop
 facet normal -0.496152 0.791331 -0.357252
  outer loop
   vertex -14.308161 -242.305923 362.370087
   vertex -13.427730 -241.809830 362.246216
   vertex -14.262445 -242.357803 362.191681
  endloop
 facet normal -0.496152 0.791331 -0.357252
  outer loop
   vertex -13.473445 -241.757950 362.424622
   vertex -13.427730 -241.809830 362.246216
   vertex -14.308161 -242.305923 362.370087
  endloop
 facet normal -0.519782 0.751302 0.406660
  outer loop
   vertex -14.308161 -242.305923 362.370087
   vertex -14.273357 -242.376297 362.544586
   vertex -13.473445 -241.757950 362.424622
  endloop
 facet normal -0.519782 0.751302 0.406660
  outer loop
   vertex -13.473445 -241.757950 362.424622
   vertex -14.273357 -242.376297 362.544586
   vertex -13.438642 -241.828323 362.599121
  endloop
 facet normal -0.238926 0.271157 0.932410
  outer loop
   vertex -13.438642 -241.828323 362.599121
   vertex -14.273357 -242.376297 362.544586
   vertex -14.178423 -242.527710 362.612946
  endloop
 facet normal -0.238926 0.271157 0.932410
  outer loop
   vertex -14.178423 -242.527710 362.612946
   vertex -13.343707 -241.979736 362.667480
   vertex -13.438642 -241.828323 362.599121
  endloop
 facet normal 0.181891 -0.367828 0.911931
  outer loop
   vertex -14.078968 -242.671463 362.535126
   vertex -13.343707 -241.979736 362.667480
   vertex -14.178423 -242.527710 362.612946
  endloop
 facet normal 0.181891 -0.367828 0.911931
  outer loop
   vertex -13.244252 -242.123489 362.589661
   vertex -13.343707 -241.979736 362.667480
   vertex -14.078968 -242.671463 362.535126
  endloop
 facet normal 0.496152 -0.791331 0.357252
  outer loop
   vertex -14.078968 -242.671463 362.535126
   vertex -14.033253 -242.723343 362.356720
   vertex -13.244252 -242.123489 362.589661
  endloop
 facet normal 0.496152 -0.791331 0.357252
  outer loop
   vertex -13.244252 -242.123489 362.589661
   vertex -14.033253 -242.723343 362.356720
   vertex -13.198537 -242.175369 362.411255
  endloop
 facet normal 0.519782 -0.751302 -0.406660
  outer loop
   vertex -13.198537 -242.175369 362.411255
   vertex -14.033253 -242.723343 362.356720
   vertex -14.068056 -242.652969 362.182220
  endloop
 facet normal 0.519782 -0.751302 -0.406660
  outer loop
   vertex -14.068056 -242.652969 362.182220
   vertex -13.233340 -242.104996 362.236755
   vertex -13.198537 -242.175369 362.411255
  endloop
 facet normal 0.238926 -0.271157 -0.932410
  outer loop
   vertex -14.162991 -242.501556 362.113861
   vertex -13.233340 -242.104996 362.236755
   vertex -14.068056 -242.652969 362.182220
  endloop
 facet normal 0.238926 -0.271156 -0.932410
  outer loop
   vertex -11.264337 -241.429535 361.801758
   vertex -12.478791 -241.371857 361.473785
   vertex -11.644075 -240.823883 361.528320
  endloop
 facet normal -0.181892 0.367828 -0.911931
  outer loop
   vertex -11.644075 -240.823883 361.528320
   vertex -12.478791 -241.371857 361.473785
   vertex -12.876609 -240.796844 361.785065
  endloop
 facet normal -0.181892 0.367828 -0.911931
  outer loop
   vertex -12.876609 -240.796844 361.785065
   vertex -12.041894 -240.248871 361.839600
   vertex -11.644075 -240.823883 361.528320
  endloop
 facet normal -0.496155 0.791334 -0.357239
  outer loop
   vertex -13.059470 -240.589325 362.498718
   vertex -12.041894 -240.248871 361.839600
   vertex -12.876609 -240.796844 361.785065
  endloop
 facet normal -0.496155 0.791335 -0.357239
  outer loop
   vertex -12.224754 -240.041351 362.553253
   vertex -12.041894 -240.248871 361.839600
   vertex -13.059470 -240.589325 362.498718
  endloop
 facet normal -0.519771 0.751279 0.406717
  outer loop
   vertex -13.059470 -240.589325 362.498718
   vertex -12.920257 -240.870850 363.196655
   vertex -12.224754 -240.041351 362.553253
  endloop
 facet normal -0.519771 0.751279 0.406717
  outer loop
   vertex -12.224754 -240.041351 362.553253
   vertex -12.920257 -240.870850 363.196655
   vertex -12.085541 -240.322876 363.251190
  endloop
 facet normal -0.238923 0.271152 0.932412
  outer loop
   vertex -12.085541 -240.322876 363.251190
   vertex -12.920257 -240.870850 363.196655
   vertex -12.540518 -241.476517 363.470093
  endloop
 facet normal -0.238923 0.271152 0.932412
  outer loop
   vertex -12.540518 -241.476517 363.470093
   vertex -11.705802 -240.928543 363.524628
   vertex -12.085541 -240.322876 363.251190
  endloop
 facet normal 0.181892 -0.367828 0.911931
  outer loop
   vertex -12.142699 -242.051529 363.158813
   vertex -11.705802 -240.928543 363.524628
   vertex -12.540518 -241.476517 363.470093
  endloop
 facet normal 0.181892 -0.367828 0.911931
  outer loop
   vertex -11.307984 -241.503555 363.213348
   vertex -11.705802 -240.928543 363.524628
   vertex -12.142699 -242.051529 363.158813
  endloop
 facet normal 0.496156 -0.791334 0.357239
  outer loop
   vertex -12.142699 -242.051529 363.158813
   vertex -11.959839 -242.259048 362.445160
   vertex -11.307984 -241.503555 363.213348
  endloop
 facet normal 0.496155 -0.791335 0.357239
  outer loop
   vertex -11.307984 -241.503555 363.213348
   vertex -11.959839 -242.259048 362.445160
   vertex -11.125123 -241.711075 362.499695
  endloop
 facet normal 0.519771 -0.751279 -0.406715
  outer loop
   vertex -11.125123 -241.711075 362.499695
   vertex -11.959839 -242.259048 362.445160
   vertex -12.099051 -241.977509 361.747192
  endloop
 facet normal 0.519779 -0.751266 -0.406730
  outer loop
   vertex -12.099051 -241.977509 361.747192
   vertex -11.264337 -241.429535 361.801758
   vertex -11.125123 -241.711075 362.499695
  endloop
 facet normal 0.238931 -0.271111 -0.932422
  outer loop
   vertex -12.478791 -241.371857 361.473785
   vertex -11.264337 -241.429535 361.801758
   vertex -12.099051 -241.977509 361.747192
  endloop
 facet normal -0.279026 -0.534950 -0.797479
  outer loop
   vertex -12.099051 -241.977509 361.747192
   vertex -13.336654 -241.959076 362.167847
   vertex -12.478791 -241.371857 361.473785
  endloop
 facet normal -0.624909 -0.009747 -0.780637
  outer loop
   vertex -12.478791 -241.371857 361.473785
   vertex -13.336654 -241.959076 362.167847
   vertex -13.436109 -241.815323 362.245667
  endloop
 facet normal -0.624909 -0.009746 -0.780636
  outer loop
   vertex -13.436109 -241.815323 362.245667
   vertex -12.876609 -240.796844 361.785065
   vertex -12.478791 -241.371857 361.473785
  endloop
 facet normal -0.883231 0.338374 -0.324665
  outer loop
   vertex -13.481824 -241.763443 362.424103
   vertex -12.876609 -240.796844 361.785065
   vertex -13.436109 -241.815323 362.245667
  endloop
 facet normal -0.883227 0.338349 -0.324698
  outer loop
   vertex -13.059470 -240.589325 362.498718
   vertex -12.876609 -240.796844 361.785065
   vertex -13.481824 -241.763443 362.424103
  endloop
 facet normal -0.902630 0.305420 0.303279
  outer loop
   vertex -13.481824 -241.763443 362.424103
   vertex -13.447021 -241.833832 362.598572
   vertex -13.059470 -240.589325 362.498718
  endloop
 facet normal -0.902642 0.305421 0.303242
  outer loop
   vertex -13.059470 -240.589325 362.498718
   vertex -13.447021 -241.833832 362.598572
   vertex -12.920257 -240.870850 363.196655
  endloop
 facet normal -0.671797 -0.089220 0.735342
  outer loop
   vertex -12.920257 -240.870850 363.196655
   vertex -13.447021 -241.833832 362.598572
   vertex -13.352086 -241.985245 362.666931
  endloop
 facet normal -0.671798 -0.089220 0.735342
  outer loop
   vertex -13.352086 -241.985245 362.666931
   vertex -12.540518 -241.476517 363.470093
   vertex -12.920257 -240.870850 363.196655
  endloop
 facet normal -0.325907 -0.614437 0.718507
  outer loop
   vertex -13.252631 -242.128998 362.589111
   vertex -12.540518 -241.476517 363.470093
   vertex -13.352086 -241.985245 362.666931
  endloop
 facet normal -0.325908 -0.614436 0.718507
  outer loop
   vertex -12.142699 -242.051529 363.158813
   vertex -12.540518 -241.476517 363.470093
   vertex -13.252631 -242.128998 362.589111
  endloop
 facet normal -0.067596 -0.962539 0.262583
  outer loop
   vertex -13.252631 -242.128998 362.589111
   vertex -13.206916 -242.180878 362.410706
   vertex -12.142699 -242.051529 363.158813
  endloop
 facet normal -0.067590 -0.962542 0.262574
  outer loop
   vertex -12.142699 -242.051529 363.158813
   vertex -13.206916 -242.180878 362.410706
   vertex -11.959839 -242.259048 362.445160
  endloop
 facet normal -0.048177 -0.929613 -0.365374
  outer loop
   vertex -11.959839 -242.259048 362.445160
   vertex -13.206916 -242.180878 362.410706
   vertex -13.241719 -242.110489 362.236206
  endloop
 facet normal -0.048177 -0.929615 -0.365370
  outer loop
   vertex -13.241719 -242.110489 362.236206
   vertex -12.099051 -241.977509 361.747192
   vertex -11.959839 -242.259048 362.445160
  endloop
 facet normal -0.279021 -0.534979 -0.797462
  outer loop
   vertex -13.336654 -241.959076 362.167847
   vertex -12.099051 -241.977509 361.747192
   vertex -13.241719 -242.110489 362.236206
  endloop
 facet normal -0.238926 0.271156 0.932410
  outer loop
   vertex -14.466995 -243.017014 371.945679
   vertex -13.632280 -242.469040 372.000214
   vertex -14.561931 -242.865601 371.877319
  endloop
 facet normal -0.238926 0.271157 0.932410
  outer loop
   vertex -14.561931 -242.865601 371.877319
   vertex -13.632280 -242.469040 372.000214
   vertex -13.727215 -242.317627 371.931854
  endloop
 facet normal -0.519772 0.751280 0.406714
  outer loop
   vertex -13.727215 -242.317627 371.931854
   vertex -14.596734 -242.795212 371.702820
   vertex -14.561931 -242.865601 371.877319
  endloop
 facet normal -0.519772 0.751280 0.406714
  outer loop
   vertex -13.762018 -242.247238 371.757355
   vertex -14.596734 -242.795212 371.702820
   vertex -13.727215 -242.317627 371.931854
  endloop
 facet normal -0.496152 0.791331 -0.357252
  outer loop
   vertex -14.551019 -242.847092 371.524414
   vertex -14.596734 -242.795212 371.702820
   vertex -13.762018 -242.247238 371.757355
  endloop
 facet normal -0.496152 0.791331 -0.357252
  outer loop
   vertex -13.762018 -242.247238 371.757355
   vertex -13.716303 -242.299118 371.578949
   vertex -14.551019 -242.847092 371.524414
  endloop
 facet normal -0.181891 0.367828 -0.911931
  outer loop
   vertex -14.551019 -242.847092 371.524414
   vertex -13.716303 -242.299118 371.578949
   vertex -14.451564 -242.990845 371.446594
  endloop
 facet normal -0.181891 0.367828 -0.911931
  outer loop
   vertex -14.451564 -242.990845 371.446594
   vertex -13.716303 -242.299118 371.578949
   vertex -13.616848 -242.442871 371.501129
  endloop
 facet normal 0.238926 -0.271157 -0.932410
  outer loop
   vertex -13.616848 -242.442871 371.501129
   vertex -14.356629 -243.142258 371.514954
   vertex -14.451564 -242.990845 371.446594
  endloop
 facet normal 0.238926 -0.271157 -0.932410
  outer loop
   vertex -13.521914 -242.594284 371.569489
   vertex -14.356629 -243.142258 371.514954
   vertex -13.616848 -242.442871 371.501129
  endloop
 facet normal 0.519772 -0.751280 -0.406714
  outer loop
   vertex -14.321826 -243.212646 371.689453
   vertex -14.356629 -243.142258 371.514954
   vertex -13.521914 -242.594284 371.569489
  endloop
 facet normal 0.519772 -0.751280 -0.406714
  outer loop
   vertex -13.521914 -242.594284 371.569489
   vertex -13.487110 -242.664673 371.743988
   vertex -14.321826 -243.212646 371.689453
  endloop
 facet normal 0.496152 -0.791331 0.357252
  outer loop
   vertex -14.321826 -243.212646 371.689453
   vertex -13.487110 -242.664673 371.743988
   vertex -14.367541 -243.160767 371.867859
  endloop
 facet normal 0.496152 -0.791331 0.357252
  outer loop
   vertex -14.367541 -243.160767 371.867859
   vertex -13.487110 -242.664673 371.743988
   vertex -13.532825 -242.612793 371.922394
  endloop
 facet normal 0.181892 -0.367828 0.911931
  outer loop
   vertex -13.532825 -242.612793 371.922394
   vertex -14.466995 -243.017014 371.945679
   vertex -14.367541 -243.160767 371.867859
  endloop
 facet normal 0.181892 -0.367827 0.911931
  outer loop
   vertex -13.632280 -242.469040 372.000214
   vertex -14.466995 -243.017014 371.945679
   vertex -13.532825 -242.612793 371.922394
  endloop
 facet normal -0.325907 -0.614437 0.718507
  outer loop
   vertex -13.541204 -242.618286 371.921844
   vertex -12.431273 -242.540817 372.491547
   vertex -13.640659 -242.474533 371.999664
  endloop
 facet normal -0.325905 -0.614447 0.718499
  outer loop
   vertex -13.640659 -242.474533 371.999664
   vertex -12.431273 -242.540817 372.491547
   vertex -12.829091 -241.965820 372.802826
  endloop
 facet normal -0.671798 -0.089222 0.735341
  outer loop
   vertex -12.829091 -241.965820 372.802826
   vertex -13.735594 -242.323120 371.931305
   vertex -13.640659 -242.474533 371.999664
  endloop
 facet normal -0.671798 -0.089221 0.735341
  outer loop
   vertex -13.208830 -241.360153 372.529388
   vertex -13.735594 -242.323120 371.931305
   vertex -12.829091 -241.965820 372.802826
  endloop
 facet normal -0.902644 0.305446 0.303212
  outer loop
   vertex -13.770397 -242.252747 371.756805
   vertex -13.735594 -242.323120 371.931305
   vertex -13.208830 -241.360153 372.529388
  endloop
 facet normal -0.902643 0.305428 0.303231
  outer loop
   vertex -13.208830 -241.360153 372.529388
   vertex -13.348043 -241.078629 371.831421
   vertex -13.770397 -242.252747 371.756805
  endloop
 facet normal -0.883223 0.338348 -0.324711
  outer loop
   vertex -13.770397 -242.252747 371.756805
   vertex -13.348043 -241.078629 371.831421
   vertex -13.724682 -242.304626 371.578400
  endloop
 facet normal -0.883223 0.338348 -0.324711
  outer loop
   vertex -13.724682 -242.304626 371.578400
   vertex -13.348043 -241.078629 371.831421
   vertex -13.165182 -241.286148 371.117798
  endloop
 facet normal -0.624908 -0.009747 -0.780637
  outer loop
   vertex -13.165182 -241.286148 371.117798
   vertex -13.625227 -242.448380 371.500580
   vertex -13.724682 -242.304626 371.578400
  endloop
 facet normal -0.624909 -0.009746 -0.780636
  outer loop
   vertex -12.767365 -241.861145 370.806519
   vertex -13.625227 -242.448380 371.500580
   vertex -13.165182 -241.286148 371.117798
  endloop
 facet normal -0.278999 -0.534971 -0.797475
  outer loop
   vertex -13.530293 -242.599792 371.568939
   vertex -13.625227 -242.448380 371.500580
   vertex -12.767365 -241.861145 370.806519
  endloop
 facet normal -0.279034 -0.534942 -0.797482
  outer loop
   vertex -12.767365 -241.861145 370.806519
   vertex -12.387626 -242.466812 371.079926
   vertex -13.530293 -242.599792 371.568939
  endloop
 facet normal -0.048148 -0.929640 -0.365310
  outer loop
   vertex -13.530293 -242.599792 371.568939
   vertex -12.387626 -242.466812 371.079926
   vertex -13.495489 -242.670166 371.743439
  endloop
 facet normal -0.048178 -0.929622 -0.365353
  outer loop
   vertex -13.495489 -242.670166 371.743439
   vertex -12.387626 -242.466812 371.079926
   vertex -12.248412 -242.748337 371.777893
  endloop
 facet normal -0.067590 -0.962539 0.262584
  outer loop
   vertex -12.248412 -242.748337 371.777893
   vertex -13.541204 -242.618286 371.921844
   vertex -13.495489 -242.670166 371.743439
  endloop
 facet normal -0.067591 -0.962542 0.262573
  outer loop
   vertex -12.431273 -242.540817 372.491547
   vertex -13.541204 -242.618286 371.921844
   vertex -12.248412 -242.748337 371.777893
  endloop
endsolid