solid stl file generated from DOUG
 facet normal 0.603580 -0.693915 0.392648
  outer loop
   vertex -99.724907 184.293381 535.008423
   vertex -99.742020 184.215881 534.897766
   vertex -93.986267 187.440781 531.749268
  endloop
 endfacet

 facet normal 0.257354 -0.869972 -0.420615
  outer loop
   vertex -93.986267 187.440781 531.749268
   vertex -99.742020 184.215881 534.897766
   vertex -94.043839 187.463440 531.667175
  endloop
 endfacet

 facet normal -0.297917 -0.339372 -0.892229
  outer loop
   vertex -93.350319 187.274826 532.741821
   vertex -93.276817 187.161682 532.760315
   vertex -99.032570 183.936768 535.908813
  endloop
 endfacet

 facet normal 0.257216 -0.869917 -0.420815
  outer loop
   vertex -99.032570 183.936768 535.908813
   vertex -93.276817 187.161682 532.760315
   vertex -93.219246 187.139023 532.842346
  endloop
 endfacet

 facet normal 0.257287 -0.869946 -0.420711
  outer loop
   vertex -93.219246 187.139023 532.842346
   vertex -98.974998 183.914124 535.990845
   vertex -99.032570 183.936768 535.908813
  endloop
 endfacet

 facet normal 0.440995 -0.891157 -0.106597
  outer loop
   vertex -93.407768 187.776459 533.150574
   vertex -99.163528 184.551559 536.299133
   vertex -93.422272 187.772888 533.120422
  endloop
 endfacet

 facet normal 0.441214 -0.891102 -0.106146
  outer loop
   vertex -93.422272 187.772888 533.120422
   vertex -99.163528 184.551559 536.299133
   vertex -99.178024 184.547974 536.268982
  endloop
 endfacet

 facet normal 0.560283 -0.220460 0.798424
  outer loop
   vertex -99.178024 184.547974 536.268982
   vertex -99.030037 184.047623 536.026978
   vertex -93.422272 187.772888 533.120422
  endloop
 endfacet

 facet normal 0.603591 -0.693871 0.392710
  outer loop
   vertex -93.986267 187.440781 531.749268
   vertex -93.969154 187.518295 531.859924
   vertex -99.724907 184.293381 535.008423
  endloop
 endfacet

 facet normal 0.257289 -0.869945 -0.420711
  outer loop
   vertex -99.724907 184.293381 535.008423
   vertex -93.969154 187.518295 531.859924
   vertex -93.350319 187.274826 532.741821
  endloop
 endfacet

 facet normal 0.257304 -0.869955 -0.420681
  outer loop
   vertex -93.350319 187.274826 532.741821
   vertex -99.106071 184.049927 535.890381
   vertex -99.724907 184.293381 535.008423
  endloop
 endfacet

 facet normal -0.298159 -0.339012 -0.892285
  outer loop
   vertex -99.032570 183.936768 535.908813
   vertex -99.106071 184.049927 535.890381
   vertex -93.350319 187.274826 532.741821
  endloop
 endfacet

 facet normal 0.560307 -0.220565 0.798378
  outer loop
   vertex -98.974998 183.914124 535.990845
   vertex -93.219246 187.139023 532.842346
   vertex -99.009323 184.030182 536.046997
  endloop
 endfacet

 facet normal 0.560213 -0.220222 0.798539
  outer loop
   vertex -99.009323 184.030182 536.046997
   vertex -93.219246 187.139023 532.842346
   vertex -93.253571 187.255096 532.898438
  endloop
 endfacet

 facet normal -0.039190 0.732983 0.679117
  outer loop
   vertex -93.253571 187.255096 532.898438
   vertex -99.030037 184.047623 536.026978
   vertex -99.009323 184.030182 536.046997
  endloop
 endfacet

 facet normal -0.038640 0.732515 0.679653
  outer loop
   vertex -93.274284 187.272522 532.878479
   vertex -99.030037 184.047623 536.026978
   vertex -93.253571 187.255096 532.898438
  endloop
 endfacet

 facet normal 0.560254 -0.220384 0.798465
  outer loop
   vertex -93.422272 187.772888 533.120422
   vertex -99.030037 184.047623 536.026978
   vertex -93.274284 187.272522 532.878479
  endloop
 endfacet

 facet normal 0.787344 0.441131 -0.430689
  outer loop
   vertex -93.669067 187.663544 531.438110
   vertex -93.041634 188.062820 532.994080
   vertex -92.825378 187.331635 532.640503
  endloop
 endfacet

 facet normal 0.560246 -0.220411 0.798463
  outer loop
   vertex -92.825378 187.331635 532.640503
   vertex -93.041634 188.062820 532.994080
   vertex -93.612717 186.890488 533.071167
  endloop
 endfacet

 facet normal 0.257303 -0.869939 -0.420714
  outer loop
   vertex -93.612717 186.890488 533.071167
   vertex -94.456406 187.222412 531.868835
   vertex -92.825378 187.331635 532.640503
  endloop
 endfacet

 facet normal -0.787338 -0.441127 0.430703
  outer loop
   vertex -93.828972 187.621689 533.424744
   vertex -94.456406 187.222412 531.868835
   vertex -93.612717 186.890488 533.071167
  endloop
 endfacet

 facet normal -0.787334 -0.441135 0.430703
  outer loop
   vertex -94.672661 187.953598 532.222412
   vertex -94.456406 187.222412 531.868835
   vertex -93.828972 187.621689 533.424744
  endloop
 endfacet

 facet normal -0.257298 0.869947 0.420701
  outer loop
   vertex -93.828972 187.621689 533.424744
   vertex -93.041634 188.062820 532.994080
   vertex -94.672661 187.953598 532.222412
  endloop
 endfacet

 facet normal -0.257303 0.869939 0.420714
  outer loop
   vertex -94.672661 187.953598 532.222412
   vertex -93.041634 188.062820 532.994080
   vertex -93.885323 188.394745 531.791748
  endloop
 endfacet

 facet normal 0.787330 0.441154 -0.430690
  outer loop
   vertex -93.885323 188.394745 531.791748
   vertex -93.041634 188.062820 532.994080
   vertex -93.669067 187.663544 531.438110
  endloop
 endfacet

 facet normal -0.560296 0.220438 -0.798421
  outer loop
   vertex -93.669067 187.663544 531.438110
   vertex -94.456406 187.222412 531.868835
   vertex -93.885323 188.394745 531.791748
  endloop
 endfacet

 facet normal 0.257287 -0.869962 -0.420677
  outer loop
   vertex -92.825378 187.331635 532.640503
   vertex -94.456406 187.222412 531.868835
   vertex -93.669067 187.663544 531.438110
  endloop
 endfacet

 facet normal 0.787330 0.441154 -0.430690
  outer loop
   vertex -98.552803 184.122589 535.773499
   vertex -99.396492 184.454514 534.571167
   vertex -98.769058 184.853790 536.127136
  endloop
 endfacet

 facet normal 0.787348 0.441123 -0.430689
  outer loop
   vertex -98.769058 184.853790 536.127136
   vertex -99.396492 184.454514 534.571167
   vertex -99.612747 185.185715 534.924744
  endloop
 endfacet

 facet normal -0.257292 0.869955 0.420690
  outer loop
   vertex -99.612747 185.185715 534.924744
   vertex -100.400085 184.744568 535.355469
   vertex -98.769058 184.853790 536.127136
  endloop
 endfacet

 facet normal -0.560283 0.220386 -0.798444
  outer loop
   vertex -99.396492 184.454514 534.571167
   vertex -100.400085 184.744568 535.355469
   vertex -99.612747 185.185715 534.924744
  endloop
 endfacet

 facet normal -0.560260 0.220458 -0.798440
  outer loop
   vertex -100.183830 184.013367 535.001831
   vertex -100.400085 184.744568 535.355469
   vertex -99.396492 184.454514 534.571167
  endloop
 endfacet

 facet normal 0.257318 -0.869945 -0.420694
  outer loop
   vertex -99.396492 184.454514 534.571167
   vertex -99.340141 183.681458 536.204224
   vertex -100.183830 184.013367 535.001831
  endloop
 endfacet

 facet normal -0.787338 -0.441151 0.430680
  outer loop
   vertex -100.183830 184.013367 535.001831
   vertex -99.340141 183.681458 536.204224
   vertex -100.400085 184.744568 535.355469
  endloop
 endfacet

 facet normal -0.787336 -0.441134 0.430700
  outer loop
   vertex -100.400085 184.744568 535.355469
   vertex -99.340141 183.681458 536.204224
   vertex -99.556396 184.412643 536.557800
  endloop
 endfacet

 facet normal -0.257303 0.869939 0.420714
  outer loop
   vertex -99.556396 184.412643 536.557800
   vertex -98.769058 184.853790 536.127136
   vertex -100.400085 184.744568 535.355469
  endloop
 endfacet

 facet normal 0.560246 -0.220411 0.798463
  outer loop
   vertex -99.340141 183.681458 536.204224
   vertex -98.769058 184.853790 536.127136
   vertex -99.556396 184.412643 536.557800
  endloop
 endfacet

 facet normal 0.560296 -0.220438 0.798421
  outer loop
   vertex -98.552803 184.122589 535.773499
   vertex -98.769058 184.853790 536.127136
   vertex -99.340141 183.681458 536.204224
  endloop
 endfacet

 facet normal 0.257272 -0.869957 -0.420697
  outer loop
   vertex -99.340141 183.681458 536.204224
   vertex -99.396492 184.454514 534.571167
   vertex -98.552803 184.122589 535.773499
  endloop
 endfacet

 facet normal 0.257285 -0.869947 -0.420710
  outer loop
   vertex -99.742020 184.215881 534.897766
   vertex -99.799591 184.238525 534.815735
   vertex -94.043839 187.463440 531.667175
  endloop
 endfacet

 facet normal -0.560298 0.220512 -0.798399
  outer loop
   vertex -94.043839 187.463440 531.667175
   vertex -99.799591 184.238525 534.815735
   vertex -99.833923 184.354599 534.871887
  endloop
 endfacet

 facet normal -0.560312 0.220562 -0.798375
  outer loop
   vertex -99.833923 184.354599 534.871887
   vertex -94.078163 187.579498 531.723328
   vertex -94.043839 187.463440 531.667175
  endloop
 endfacet

 facet normal -0.440995 0.891157 0.106597
  outer loop
   vertex -99.819420 184.358170 534.902039
   vertex -94.078163 187.579498 531.723328
   vertex -99.833923 184.354599 534.871887
  endloop
 endfacet

 facet normal -0.441214 0.891102 0.106146
  outer loop
   vertex -94.063667 187.583084 531.753479
   vertex -94.078163 187.579498 531.723328
   vertex -99.819420 184.358170 534.902039
  endloop
 endfacet

 facet normal -0.560260 0.220381 -0.798462
  outer loop
   vertex -99.819420 184.358170 534.902039
   vertex -99.967407 184.858536 535.143982
   vertex -94.063667 187.583084 531.753479
  endloop
 endfacet

 facet normal -0.560279 0.220470 -0.798424
  outer loop
   vertex -94.063667 187.583084 531.753479
   vertex -99.967407 184.858536 535.143982
   vertex -94.211647 188.083435 531.995483
  endloop
 endfacet

 facet normal 0.039398 -0.733154 -0.678921
  outer loop
   vertex -94.211647 188.083435 531.995483
   vertex -99.967407 184.858536 535.143982
   vertex -99.988121 184.875961 535.123962
  endloop
 endfacet

 facet normal 0.039195 -0.732981 -0.679119
  outer loop
   vertex -99.988121 184.875961 535.123962
   vertex -94.232361 188.100876 531.975464
   vertex -94.211647 188.083435 531.995483
  endloop
 endfacet

 facet normal -0.560409 0.220910 -0.798211
  outer loop
   vertex -100.005150 184.933548 535.151855
   vertex -94.232361 188.100876 531.975464
   vertex -99.988121 184.875961 535.123962
  endloop
 endfacet

 facet normal -0.560209 0.220210 -0.798545
  outer loop
   vertex -94.249397 188.158463 532.003296
   vertex -94.232361 188.100876 531.975464
   vertex -100.005150 184.933548 535.151855
  endloop
 endfacet

 facet normal -0.257290 0.869948 0.420703
  outer loop
   vertex -100.005150 184.933548 535.151855
   vertex -99.180557 184.609146 536.326965
   vertex -94.249397 188.158463 532.003296
  endloop
 endfacet

 facet normal -0.257296 0.869950 0.420697
  outer loop
   vertex -94.249397 188.158463 532.003296
   vertex -99.180557 184.609146 536.326965
   vertex -93.424805 187.834045 533.178467
  endloop
 endfacet

 facet normal 0.560393 -0.220853 0.798238
  outer loop
   vertex -93.424805 187.834045 533.178467
   vertex -99.180557 184.609146 536.326965
   vertex -93.407768 187.776459 533.150574
  endloop
 endfacet

 facet normal 0.560242 -0.220409 0.798466
  outer loop
   vertex -93.828972 187.621689 533.424744
   vertex -93.612717 186.890488 533.071167
   vertex -93.041634 188.062820 532.994080
  endloop
 endfacet

 facet normal -0.560246 0.220411 -0.798463
  outer loop
   vertex -94.456406 187.222412 531.868835
   vertex -94.672661 187.953598 532.222412
   vertex -93.885323 188.394745 531.791748
  endloop
 endfacet

 facet normal 0.560225 -0.220267 0.798518
  outer loop
   vertex -99.180557 184.609146 536.326965
   vertex -99.163528 184.551559 536.299133
   vertex -93.407768 187.776459 533.150574
  endloop
 endfacet

 facet normal -0.627613 -0.761114 -0.163730
  outer loop
   vertex -100.033470 185.501465 536.250122
   vertex -100.881271 186.040573 536.993835
   vertex -100.074860 185.572739 536.077454
  endloop
 endfacet

 facet normal -0.627591 -0.761139 -0.163697
  outer loop
   vertex -100.074860 185.572739 536.077454
   vertex -100.881271 186.040573 536.993835
   vertex -101.046829 186.325638 536.303101
  endloop
 endfacet

 facet normal -0.526560 -0.466836 -0.710492
  outer loop
   vertex -101.046829 186.325638 536.303101
   vertex -99.976707 185.666855 535.942871
   vertex -100.074860 185.572739 536.077454
  endloop
 endfacet

 facet normal -0.526568 -0.466860 -0.710470
  outer loop
   vertex -100.654198 186.702118 535.764709
   vertex -99.976707 185.666855 535.942871
   vertex -101.046829 186.325638 536.303101
  endloop
 endfacet

 facet normal -0.031385 -0.189430 -0.981393
  outer loop
   vertex -99.796501 185.728699 535.925171
   vertex -99.976707 185.666855 535.942871
   vertex -100.654198 186.702118 535.764709
  endloop
 endfacet

 facet normal -0.031258 -0.189322 -0.981417
  outer loop
   vertex -100.654198 186.702118 535.764709
   vertex -99.933372 186.949493 535.694031
   vertex -99.796501 185.728699 535.925171
  endloop
 endfacet

 facet normal 0.568227 -0.091133 -0.817810
  outer loop
   vertex -99.796501 185.728699 535.925171
   vertex -99.933372 186.949493 535.694031
   vertex -99.639801 185.722046 536.034790
  endloop
 endfacet

 facet normal 0.568239 -0.091128 -0.817802
  outer loop
   vertex -99.639801 185.722046 536.034790
   vertex -99.933372 186.949493 535.694031
   vertex -99.306595 186.922852 536.132507
  endloop
 endfacet

 facet normal 0.920667 -0.229794 -0.315542
  outer loop
   vertex -99.306595 186.922852 536.132507
   vertex -99.598412 185.650772 536.207458
   vertex -99.639801 185.722046 536.034790
  endloop
 endfacet

 facet normal 0.920676 -0.229795 -0.315517
  outer loop
   vertex -99.141029 186.637787 536.823242
   vertex -99.598412 185.650772 536.207458
   vertex -99.306595 186.922852 536.132507
  endloop
 endfacet

 facet normal 0.819671 -0.524093 0.231226
  outer loop
   vertex -99.696571 185.556656 536.342102
   vertex -99.598412 185.650772 536.207458
   vertex -99.141029 186.637787 536.823242
  endloop
 endfacet

 facet normal 0.819660 -0.524099 0.231251
  outer loop
   vertex -99.141029 186.637787 536.823242
   vertex -99.533661 186.261292 537.361633
   vertex -99.696571 185.556656 536.342102
  endloop
 endfacet

 facet normal 0.324268 -0.801636 0.502225
  outer loop
   vertex -99.696571 185.556656 536.342102
   vertex -99.533661 186.261292 537.361633
   vertex -99.876778 185.494812 536.359741
  endloop
 endfacet

 facet normal 0.324343 -0.801626 0.502192
  outer loop
   vertex -99.876778 185.494812 536.359741
   vertex -99.533661 186.261292 537.361633
   vertex -100.254494 186.013916 537.432312
  endloop
 endfacet

 facet normal -0.275093 -0.899813 0.338616
  outer loop
   vertex -100.254494 186.013916 537.432312
   vertex -100.033470 185.501465 536.250122
   vertex -99.876778 185.494812 536.359741
  endloop
 endfacet

 facet normal -0.275145 -0.899802 0.338601
  outer loop
   vertex -100.881271 186.040573 536.993835
   vertex -100.033470 185.501465 536.250122
   vertex -100.254494 186.013916 537.432312
  endloop
 endfacet

 facet normal -0.941814 -0.323200 0.092343
  outer loop
   vertex -94.031197 187.860580 532.689636
   vertex -94.288490 188.730530 533.110291
   vertex -94.072586 187.931839 532.516907
  endloop
 endfacet

 facet normal -0.941807 -0.323216 0.092368
  outer loop
   vertex -94.072586 187.931839 532.516907
   vertex -94.288490 188.730530 533.110291
   vertex -94.329880 188.801788 532.937622
  endloop
 endfacet

 facet normal -0.818892 0.034861 -0.572888
  outer loop
   vertex -94.329880 188.801788 532.937622
   vertex -93.974426 188.025970 532.382324
   vertex -94.072586 187.931839 532.516907
  endloop
 endfacet

 facet normal -0.818907 0.034839 -0.572868
  outer loop
   vertex -94.231728 188.895920 532.803040
   vertex -93.974426 188.025970 532.382324
   vertex -94.329880 188.801788 532.937622
  endloop
 endfacet

 facet normal -0.216181 0.372516 -0.902495
  outer loop
   vertex -93.794220 188.087814 532.364685
   vertex -93.974426 188.025970 532.382324
   vertex -94.231728 188.895920 532.803040
  endloop
 endfacet

 facet normal -0.216430 0.372379 -0.902492
  outer loop
   vertex -94.231728 188.895920 532.803040
   vertex -94.051514 188.957764 532.785339
   vertex -93.794220 188.087814 532.364685
  endloop
 endfacet

 facet normal 0.512865 0.491888 -0.703573
  outer loop
   vertex -93.794220 188.087814 532.364685
   vertex -94.051514 188.957764 532.785339
   vertex -93.637527 188.081146 532.474243
  endloop
 endfacet

 facet normal 0.513038 0.491918 -0.703427
  outer loop
   vertex -93.637527 188.081146 532.474243
   vertex -94.051514 188.957764 532.785339
   vertex -93.894821 188.951096 532.894958
  endloop
 endfacet

 facet normal 0.941819 0.323195 -0.092318
  outer loop
   vertex -93.894821 188.951096 532.894958
   vertex -93.596138 188.009872 532.646973
   vertex -93.637527 188.081146 532.474243
  endloop
 endfacet

 facet normal 0.941814 0.323201 -0.092347
  outer loop
   vertex -93.853432 188.879822 533.067627
   vertex -93.596138 188.009872 532.646973
   vertex -93.894821 188.951096 532.894958
  endloop
 endfacet

 facet normal 0.818881 -0.034832 0.572905
  outer loop
   vertex -93.694298 187.915756 532.781555
   vertex -93.596138 188.009872 532.646973
   vertex -93.853432 188.879822 533.067627
  endloop
 endfacet

 facet normal 0.818984 -0.034772 0.572762
  outer loop
   vertex -93.853432 188.879822 533.067627
   vertex -93.951591 188.785706 533.202271
   vertex -93.694298 187.915756 532.781555
  endloop
 endfacet

 facet normal 0.216452 -0.372424 0.902468
  outer loop
   vertex -93.694298 187.915756 532.781555
   vertex -93.951591 188.785706 533.202271
   vertex -93.874504 187.853912 532.799255
  endloop
 endfacet

 facet normal 0.216167 -0.372470 0.902518
  outer loop
   vertex -93.874504 187.853912 532.799255
   vertex -93.951591 188.785706 533.202271
   vertex -94.131798 188.723862 533.219910
  endloop
 endfacet

 facet normal -0.513049 -0.491881 0.703445
  outer loop
   vertex -94.131798 188.723862 533.219910
   vertex -94.031197 187.860580 532.689636
   vertex -93.874504 187.853912 532.799255
  endloop
 endfacet

 facet normal -0.513049 -0.491881 0.703445
  outer loop
   vertex -94.288490 188.730530 533.110291
   vertex -94.031197 187.860580 532.689636
   vertex -94.131798 188.723862 533.219910
  endloop
 endfacet

 facet normal -0.941810 -0.323209 0.092352
  outer loop
   vertex -95.133705 189.260880 533.849792
   vertex -95.390999 190.130829 534.270508
   vertex -95.299271 189.545959 533.159058
  endloop
 endfacet

 facet normal -0.941810 -0.323209 0.092352
  outer loop
   vertex -95.299271 189.545959 533.159058
   vertex -95.390999 190.130829 534.270508
   vertex -95.556564 190.415909 533.579773
  endloop
 endfacet

 facet normal -0.818918 0.034835 -0.572852
  outer loop
   vertex -95.556564 190.415909 533.579773
   vertex -94.906639 189.922440 532.620667
   vertex -95.299271 189.545959 533.159058
  endloop
 endfacet

 facet normal -0.818918 0.034835 -0.572852
  outer loop
   vertex -95.163933 190.792389 533.041382
   vertex -94.906639 189.922440 532.620667
   vertex -95.556564 190.415909 533.579773
  endloop
 endfacet

 facet normal -0.216314 0.372472 -0.902482
  outer loop
   vertex -94.185806 190.169815 532.549988
   vertex -94.906639 189.922440 532.620667
   vertex -95.163933 190.792389 533.041382
  endloop
 endfacet

 facet normal -0.216314 0.372472 -0.902482
  outer loop
   vertex -95.163933 190.792389 533.041382
   vertex -94.443100 191.039764 532.970703
   vertex -94.185806 190.169815 532.549988
  endloop
 endfacet

 facet normal 0.512972 0.491921 -0.703473
  outer loop
   vertex -94.185806 190.169815 532.549988
   vertex -94.443100 191.039764 532.970703
   vertex -93.559029 190.143173 532.988403
  endloop
 endfacet

 facet normal 0.512972 0.491921 -0.703473
  outer loop
   vertex -93.559029 190.143173 532.988403
   vertex -94.443100 191.039764 532.970703
   vertex -93.816322 191.013123 533.409119
  endloop
 endfacet

 facet normal 0.941812 0.323206 -0.092344
  outer loop
   vertex -93.816322 191.013123 533.409119
   vertex -93.393471 189.858093 533.679138
   vertex -93.559029 190.143173 532.988403
  endloop
 endfacet

 facet normal 0.941812 0.323206 -0.092344
  outer loop
   vertex -93.650764 190.728043 534.099854
   vertex -93.393471 189.858093 533.679138
   vertex -93.816322 191.013123 533.409119
  endloop
 endfacet

 facet normal 0.818942 -0.034813 0.572820
  outer loop
   vertex -93.786102 189.481613 534.217590
   vertex -93.393471 189.858093 533.679138
   vertex -93.650764 190.728043 534.099854
  endloop
 endfacet

 facet normal 0.818909 -0.034805 0.572867
  outer loop
   vertex -93.650764 190.728043 534.099854
   vertex -94.043396 190.351562 534.638245
   vertex -93.786102 189.481613 534.217590
  endloop
 endfacet

 facet normal 0.216302 -0.372423 0.902505
  outer loop
   vertex -93.786102 189.481613 534.217590
   vertex -94.043396 190.351562 534.638245
   vertex -94.506927 189.234238 534.288269
  endloop
 endfacet

 facet normal 0.216300 -0.372422 0.902505
  outer loop
   vertex -94.506927 189.234238 534.288269
   vertex -94.043396 190.351562 534.638245
   vertex -94.764229 190.104187 534.708923
  endloop
 endfacet

 facet normal -0.513028 -0.491885 0.703457
  outer loop
   vertex -94.764229 190.104187 534.708923
   vertex -95.133705 189.260880 533.849792
   vertex -94.506927 189.234238 534.288269
  endloop
 endfacet

 facet normal -0.512976 -0.491921 0.703470
  outer loop
   vertex -95.390999 190.130829 534.270508
   vertex -95.133705 189.260880 533.849792
   vertex -94.764229 190.104187 534.708923
  endloop
 endfacet

 facet normal -0.627609 -0.761117 -0.163732
  outer loop
   vertex -94.285912 188.721786 533.106079
   vertex -95.133705 189.260880 533.849792
   vertex -94.327301 188.793060 532.933411
  endloop
 endfacet

 facet normal -0.627591 -0.761137 -0.163706
  outer loop
   vertex -94.327301 188.793060 532.933411
   vertex -95.133705 189.260880 533.849792
   vertex -95.299271 189.545959 533.159058
  endloop
 endfacet

 facet normal -0.526553 -0.466822 -0.710507
  outer loop
   vertex -95.299271 189.545959 533.159058
   vertex -94.229141 188.887177 532.798828
   vertex -94.327301 188.793060 532.933411
  endloop
 endfacet

 facet normal -0.526566 -0.466863 -0.710470
  outer loop
   vertex -94.906639 189.922440 532.620667
   vertex -94.229141 188.887177 532.798828
   vertex -95.299271 189.545959 533.159058
  endloop
 endfacet

 facet normal -0.031385 -0.189430 -0.981393
  outer loop
   vertex -94.048935 188.949020 532.781128
   vertex -94.229141 188.887177 532.798828
   vertex -94.906639 189.922440 532.620667
  endloop
 endfacet

 facet normal -0.031258 -0.189322 -0.981417
  outer loop
   vertex -94.906639 189.922440 532.620667
   vertex -94.185806 190.169815 532.549988
   vertex -94.048935 188.949020 532.781128
  endloop
 endfacet

 facet normal 0.568246 -0.091128 -0.817797
  outer loop
   vertex -94.048935 188.949020 532.781128
   vertex -94.185806 190.169815 532.549988
   vertex -93.892242 188.942368 532.890747
  endloop
 endfacet

 facet normal 0.568183 -0.091155 -0.817838
  outer loop
   vertex -93.892242 188.942368 532.890747
   vertex -94.185806 190.169815 532.549988
   vertex -93.559029 190.143173 532.988403
  endloop
 endfacet

 facet normal 0.920660 -0.229813 -0.315549
  outer loop
   vertex -93.559029 190.143173 532.988403
   vertex -93.850853 188.871094 533.063416
   vertex -93.892242 188.942368 532.890747
  endloop
 endfacet

 facet normal 0.920670 -0.229814 -0.315518
  outer loop
   vertex -93.393471 189.858093 533.679138
   vertex -93.850853 188.871094 533.063416
   vertex -93.559029 190.143173 532.988403
  endloop
 endfacet

 facet normal 0.819687 -0.524079 0.231201
  outer loop
   vertex -93.949005 188.776978 533.198059
   vertex -93.850853 188.871094 533.063416
   vertex -93.393471 189.858093 533.679138
  endloop
 endfacet

 facet normal 0.819666 -0.524090 0.231250
  outer loop
   vertex -93.393471 189.858093 533.679138
   vertex -93.786102 189.481613 534.217590
   vertex -93.949005 188.776978 533.198059
  endloop
 endfacet

 facet normal 0.324255 -0.801637 0.502231
  outer loop
   vertex -93.949005 188.776978 533.198059
   vertex -93.786102 189.481613 534.217590
   vertex -94.129219 188.715134 533.215698
  endloop
 endfacet

 facet normal 0.324346 -0.801626 0.502191
  outer loop
   vertex -94.129219 188.715134 533.215698
   vertex -93.786102 189.481613 534.217590
   vertex -94.506927 189.234238 534.288269
  endloop
 endfacet

 facet normal -0.275094 -0.899812 0.338617
  outer loop
   vertex -94.506927 189.234238 534.288269
   vertex -94.285912 188.721786 533.106079
   vertex -94.129219 188.715134 533.215698
  endloop
 endfacet

 facet normal -0.275128 -0.899805 0.338608
  outer loop
   vertex -95.133705 189.260880 533.849792
   vertex -94.285912 188.721786 533.106079
   vertex -94.506927 189.234238 534.288269
  endloop
 endfacet

 facet normal -0.941807 -0.323216 0.092368
  outer loop
   vertex -99.778763 184.640259 535.833679
   vertex -100.036057 185.510208 536.254395
   vertex -99.820152 184.711517 535.661011
  endloop
 endfacet

 facet normal -0.941814 -0.323200 0.092343
  outer loop
   vertex -99.820152 184.711517 535.661011
   vertex -100.036057 185.510208 536.254395
   vertex -100.077446 185.581467 536.081665
  endloop
 endfacet

 facet normal -0.818977 0.034741 -0.572774
  outer loop
   vertex -100.077446 185.581467 536.081665
   vertex -99.721992 184.805649 535.526367
   vertex -99.820152 184.711517 535.661011
  endloop
 endfacet

 facet normal -0.818892 0.034861 -0.572888
  outer loop
   vertex -99.979286 185.675598 535.947083
   vertex -99.721992 184.805649 535.526367
   vertex -100.077446 185.581467 536.081665
  endloop
 endfacet

 facet normal -0.216181 0.372517 -0.902495
  outer loop
   vertex -99.541786 184.867493 535.508728
   vertex -99.721992 184.805649 535.526367
   vertex -99.979286 185.675598 535.947083
  endloop
 endfacet

 facet normal -0.216438 0.372377 -0.902491
  outer loop
   vertex -99.979286 185.675598 535.947083
   vertex -99.799080 185.737442 535.929382
   vertex -99.541786 184.867493 535.508728
  endloop
 endfacet

 facet normal 0.513049 0.491881 -0.703445
  outer loop
   vertex -99.541786 184.867493 535.508728
   vertex -99.799080 185.737442 535.929382
   vertex -99.385094 184.860825 535.618347
  endloop
 endfacet

 facet normal 0.513049 0.491881 -0.703445
  outer loop
   vertex -99.385094 184.860825 535.618347
   vertex -99.799080 185.737442 535.929382
   vertex -99.642387 185.730774 536.039001
  endloop
 endfacet

 facet normal 0.941808 0.323211 -0.092370
  outer loop
   vertex -99.642387 185.730774 536.039001
   vertex -99.343704 184.789566 535.791016
   vertex -99.385094 184.860825 535.618347
  endloop
 endfacet

 facet normal 0.941813 0.323205 -0.092341
  outer loop
   vertex -99.600998 185.659515 536.211731
   vertex -99.343704 184.789566 535.791016
   vertex -99.642387 185.730774 536.039001
  endloop
 endfacet

 facet normal 0.818909 -0.034845 0.572865
  outer loop
   vertex -99.441856 184.695435 535.925598
   vertex -99.343704 184.789566 535.791016
   vertex -99.600998 185.659515 536.211731
  endloop
 endfacet

 facet normal 0.818909 -0.034845 0.572865
  outer loop
   vertex -99.600998 185.659515 536.211731
   vertex -99.699150 185.565384 536.346313
   vertex -99.441856 184.695435 535.925598
  endloop
 endfacet

 facet normal 0.216444 -0.372427 0.902469
  outer loop
   vertex -99.441856 184.695435 535.925598
   vertex -99.699150 185.565384 536.346313
   vertex -99.622070 184.633591 535.943298
  endloop
 endfacet

 facet normal 0.216159 -0.372472 0.902519
  outer loop
   vertex -99.622070 184.633591 535.943298
   vertex -99.699150 185.565384 536.346313
   vertex -99.879364 185.503540 536.363953
  endloop
 endfacet

 facet normal -0.513049 -0.491881 0.703445
  outer loop
   vertex -99.879364 185.503540 536.363953
   vertex -99.778763 184.640259 535.833679
   vertex -99.622070 184.633591 535.943298
  endloop
 endfacet

 facet normal -0.512854 -0.491926 0.703555
  outer loop
   vertex -100.036057 185.510208 536.254395
   vertex -99.778763 184.640259 535.833679
   vertex -99.879364 185.503540 536.363953
  endloop
 endfacet

 facet normal -0.513026 -0.491919 0.703435
  outer loop
   vertex -100.254494 186.013916 537.432312
   vertex -100.511787 186.883865 537.853027
   vertex -100.881271 186.040573 536.993835
  endloop
 endfacet

 facet normal -0.513026 -0.491919 0.703435
  outer loop
   vertex -100.881271 186.040573 536.993835
   vertex -100.511787 186.883865 537.853027
   vertex -101.138565 186.910522 537.414551
  endloop
 endfacet

 facet normal -0.941811 -0.323208 0.092349
  outer loop
   vertex -101.138565 186.910522 537.414551
   vertex -101.046829 186.325638 536.303101
   vertex -100.881271 186.040573 536.993835
  endloop
 endfacet

 facet normal -0.941807 -0.323218 0.092355
  outer loop
   vertex -101.304131 187.195587 536.723816
   vertex -101.046829 186.325638 536.303101
   vertex -101.138565 186.910522 537.414551
  endloop
 endfacet

 facet normal -0.818917 0.034830 -0.572854
  outer loop
   vertex -100.654198 186.702118 535.764709
   vertex -101.046829 186.325638 536.303101
   vertex -101.304131 187.195587 536.723816
  endloop
 endfacet

 facet normal -0.818914 0.034839 -0.572858
  outer loop
   vertex -101.304131 187.195587 536.723816
   vertex -100.911491 187.572067 536.185425
   vertex -100.654198 186.702118 535.764709
  endloop
 endfacet

 facet normal -0.216317 0.372471 -0.902481
  outer loop
   vertex -100.654198 186.702118 535.764709
   vertex -100.911491 187.572067 536.185425
   vertex -99.933372 186.949493 535.694031
  endloop
 endfacet

 facet normal -0.216317 0.372471 -0.902481
  outer loop
   vertex -99.933372 186.949493 535.694031
   vertex -100.911491 187.572067 536.185425
   vertex -100.190666 187.819443 536.114746
  endloop
 endfacet

 facet normal 0.513018 0.491919 -0.703441
  outer loop
   vertex -100.190666 187.819443 536.114746
   vertex -99.306595 186.922852 536.132507
   vertex -99.933372 186.949493 535.694031
  endloop
 endfacet

 facet normal 0.512983 0.491883 -0.703491
  outer loop
   vertex -99.563889 187.792801 536.553162
   vertex -99.306595 186.922852 536.132507
   vertex -100.190666 187.819443 536.114746
  endloop
 endfacet

 facet normal 0.941810 0.323207 -0.092360
  outer loop
   vertex -99.141029 186.637787 536.823242
   vertex -99.306595 186.922852 536.132507
   vertex -99.563889 187.792801 536.553162
  endloop
 endfacet

 facet normal 0.941810 0.323207 -0.092360
  outer loop
   vertex -99.563889 187.792801 536.553162
   vertex -99.398323 187.507736 537.243896
   vertex -99.141029 186.637787 536.823242
  endloop
 endfacet

 facet normal 0.818910 -0.034805 0.572866
  outer loop
   vertex -99.141029 186.637787 536.823242
   vertex -99.398323 187.507736 537.243896
   vertex -99.533661 186.261292 537.361633
  endloop
 endfacet

 facet normal 0.818904 -0.034803 0.572874
  outer loop
   vertex -99.533661 186.261292 537.361633
   vertex -99.398323 187.507736 537.243896
   vertex -99.790962 187.131241 537.782288
  endloop
 endfacet

 facet normal 0.216300 -0.372422 0.902505
  outer loop
   vertex -99.790962 187.131241 537.782288
   vertex -100.254494 186.013916 537.432312
   vertex -99.533661 186.261292 537.361633
  endloop
 endfacet

 facet normal 0.216384 -0.372448 0.902475
  outer loop
   vertex -100.511787 186.883865 537.853027
   vertex -100.254494 186.013916 537.432312
   vertex -99.790962 187.131241 537.782288
  endloop
 endfacet

endsolid