solid stl file generated from DOUG
 facet normal 0.125661 0.569094 0.812614
  outer loop
   vertex -104.169327 183.012421 543.854065
   vertex -104.087120 182.917923 543.907532
   vertex -83.255333 194.589828 532.512024
  endloop
 endfacet

 facet normal 0.560234 -0.220302 0.798502
  outer loop
   vertex -83.255333 194.589828 532.512024
   vertex -104.087120 182.917923 543.907532
   vertex -83.228897 194.500427 532.468811
  endloop
 endfacet

 facet normal 0.539714 -0.830851 0.135632
  outer loop
   vertex -83.621727 195.645218 532.923218
   vertex -83.581139 195.691422 533.044739
   vertex -104.412926 184.019516 544.440247
  endloop
 endfacet

 facet normal 0.560364 -0.220743 0.798288
  outer loop
   vertex -104.412926 184.019516 544.440247
   vertex -83.581139 195.691422 533.044739
   vertex -83.607574 195.780807 533.088013
  endloop
 endfacet

 facet normal 0.560230 -0.220295 0.798506
  outer loop
   vertex -83.607574 195.780807 533.088013
   vertex -104.439369 184.108902 544.483459
   vertex -104.412926 184.019516 544.440247
  endloop
 endfacet

 facet normal 0.430262 0.107171 0.896320
  outer loop
   vertex -84.018097 195.942322 532.502930
   vertex -104.849892 184.270416 543.898438
   vertex -84.003250 195.912323 532.499390
  endloop
 endfacet

 facet normal 0.430934 0.105809 0.896159
  outer loop
   vertex -84.003250 195.912323 532.499390
   vertex -104.849892 184.270416 543.898438
   vertex -104.835037 184.240417 543.894836
  endloop
 endfacet

 facet normal -0.257284 0.869945 0.420715
  outer loop
   vertex -104.835037 184.240417 543.894836
   vertex -104.512794 184.113632 544.354065
   vertex -84.003250 195.912323 532.499390
  endloop
 endfacet

 facet normal 0.125665 0.569089 0.812617
  outer loop
   vertex -83.255333 194.589828 532.512024
   vertex -83.337532 194.684326 532.458557
   vertex -104.169327 183.012421 543.854065
  endloop
 endfacet

 facet normal 0.560264 -0.220405 0.798452
  outer loop
   vertex -104.169327 183.012421 543.854065
   vertex -83.337532 194.684326 532.458557
   vertex -83.621727 195.645218 532.923218
  endloop
 endfacet

 facet normal 0.560265 -0.220408 0.798450
  outer loop
   vertex -83.621727 195.645218 532.923218
   vertex -104.453514 183.973312 544.318726
   vertex -104.169327 183.012421 543.854065
  endloop
 endfacet

 facet normal 0.539714 -0.830851 0.135632
  outer loop
   vertex -104.412926 184.019516 544.440247
   vertex -104.453514 183.973312 544.318726
   vertex -83.621727 195.645218 532.923218
  endloop
 endfacet

 facet normal -0.257277 0.869942 0.420724
  outer loop
   vertex -104.439369 184.108902 544.483459
   vertex -83.607574 195.780807 533.088013
   vertex -104.514114 184.138306 544.376953
  endloop
 endfacet

 facet normal -0.257376 0.869982 0.420582
  outer loop
   vertex -104.514114 184.138306 544.376953
   vertex -83.607574 195.780807 533.088013
   vertex -83.682327 195.810211 532.981445
  endloop
 endfacet

 facet normal -0.615295 0.518167 -0.594066
  outer loop
   vertex -83.682327 195.810211 532.981445
   vertex -104.512794 184.113632 544.354065
   vertex -104.514114 184.138306 544.376953
  endloop
 endfacet

 facet normal -0.615251 0.517378 -0.594799
  outer loop
   vertex -83.681007 195.785538 532.958618
   vertex -104.512794 184.113632 544.354065
   vertex -83.682327 195.810211 532.981445
  endloop
 endfacet

 facet normal -0.257284 0.869945 0.420715
  outer loop
   vertex -84.003250 195.912323 532.499390
   vertex -104.512794 184.113632 544.354065
   vertex -83.681007 195.785538 532.958618
  endloop
 endfacet

 facet normal 0.787333 0.441134 -0.430706
  outer loop
   vertex -82.887032 194.664703 532.297729
   vertex -83.745392 196.159988 532.260132
   vertex -83.274483 195.974731 532.931213
  endloop
 endfacet

 facet normal -0.257286 0.869952 0.420699
  outer loop
   vertex -83.274483 195.974731 532.931213
   vertex -83.745392 196.159988 532.260132
   vertex -84.061821 195.533585 533.361938
  endloop
 endfacet

 facet normal 0.560293 -0.220418 0.798428
  outer loop
   vertex -84.061821 195.533585 533.361938
   vertex -83.674370 194.223557 532.728394
   vertex -83.274483 195.974731 532.931213
  endloop
 endfacet

 facet normal -0.787346 -0.441143 0.430674
  outer loop
   vertex -84.532730 195.718842 532.690796
   vertex -83.674370 194.223557 532.728394
   vertex -84.061821 195.533585 533.361938
  endloop
 endfacet

 facet normal -0.787333 -0.441134 0.430706
  outer loop
   vertex -84.145279 194.408813 532.057312
   vertex -83.674370 194.223557 532.728394
   vertex -84.532730 195.718842 532.690796
  endloop
 endfacet

 facet normal -0.560246 0.220412 -0.798463
  outer loop
   vertex -84.532730 195.718842 532.690796
   vertex -83.745392 196.159988 532.260132
   vertex -84.145279 194.408813 532.057312
  endloop
 endfacet

 facet normal -0.560293 0.220418 -0.798428
  outer loop
   vertex -84.145279 194.408813 532.057312
   vertex -83.745392 196.159988 532.260132
   vertex -83.357941 194.849960 531.626587
  endloop
 endfacet

 facet normal 0.787346 0.441143 -0.430674
  outer loop
   vertex -83.357941 194.849960 531.626587
   vertex -83.745392 196.159988 532.260132
   vertex -82.887032 194.664703 532.297729
  endloop
 endfacet

 facet normal 0.257323 -0.869947 -0.420685
  outer loop
   vertex -82.887032 194.664703 532.297729
   vertex -83.674370 194.223557 532.728394
   vertex -83.357941 194.849960 531.626587
  endloop
 endfacet

 facet normal 0.560246 -0.220412 0.798463
  outer loop
   vertex -83.274483 195.974731 532.931213
   vertex -83.674370 194.223557 532.728394
   vertex -82.887032 194.664703 532.297729
  endloop
 endfacet

 facet normal 0.787333 0.441134 -0.430706
  outer loop
   vertex -103.972923 184.377533 544.253723
   vertex -103.585472 183.067505 543.620239
   vertex -104.443832 184.562790 543.582642
  endloop
 endfacet

 facet normal 0.787333 0.441134 -0.430706
  outer loop
   vertex -104.443832 184.562790 543.582642
   vertex -103.585472 183.067505 543.620239
   vertex -104.056381 183.252762 542.949158
  endloop
 endfacet

 facet normal -0.560243 0.220413 -0.798464
  outer loop
   vertex -104.056381 183.252762 542.949158
   vertex -104.843719 182.811630 543.379822
   vertex -104.443832 184.562790 543.582642
  endloop
 endfacet

 facet normal 0.257296 -0.869947 -0.420704
  outer loop
   vertex -103.585472 183.067505 543.620239
   vertex -104.843719 182.811630 543.379822
   vertex -104.056381 183.252762 542.949158
  endloop
 endfacet

 facet normal 0.257297 -0.869937 -0.420722
  outer loop
   vertex -104.372810 182.626358 544.050903
   vertex -104.843719 182.811630 543.379822
   vertex -103.585472 183.067505 543.620239
  endloop
 endfacet

 facet normal 0.560254 -0.220440 0.798449
  outer loop
   vertex -103.585472 183.067505 543.620239
   vertex -104.760262 183.936386 544.684448
   vertex -104.372810 182.626358 544.050903
  endloop
 endfacet

 facet normal -0.787333 -0.441148 0.430692
  outer loop
   vertex -104.372810 182.626358 544.050903
   vertex -104.760262 183.936386 544.684448
   vertex -104.843719 182.811630 543.379822
  endloop
 endfacet

 facet normal -0.787333 -0.441148 0.430692
  outer loop
   vertex -104.843719 182.811630 543.379822
   vertex -104.760262 183.936386 544.684448
   vertex -105.231171 184.121658 544.013367
  endloop
 endfacet

 facet normal -0.560290 0.220420 -0.798430
  outer loop
   vertex -105.231171 184.121658 544.013367
   vertex -104.443832 184.562790 543.582642
   vertex -104.843719 182.811630 543.379822
  endloop
 endfacet

 facet normal -0.257267 0.869954 0.420705
  outer loop
   vertex -104.760262 183.936386 544.684448
   vertex -104.443832 184.562790 543.582642
   vertex -105.231171 184.121658 544.013367
  endloop
 endfacet

 facet normal -0.257286 0.869952 0.420699
  outer loop
   vertex -103.972923 184.377533 544.253723
   vertex -104.443832 184.562790 543.582642
   vertex -104.760262 183.936386 544.684448
  endloop
 endfacet

 facet normal 0.560284 -0.220390 0.798442
  outer loop
   vertex -104.760262 183.936386 544.684448
   vertex -103.585472 183.067505 543.620239
   vertex -103.972923 184.377533 544.253723
  endloop
 endfacet

 facet normal 0.560355 -0.220716 0.798303
  outer loop
   vertex -104.087120 182.917923 543.907532
   vertex -104.060684 182.828522 543.864258
   vertex -83.228897 194.500427 532.468811
  endloop
 endfacet

 facet normal 0.257213 -0.869917 -0.420815
  outer loop
   vertex -83.228897 194.500427 532.468811
   vertex -104.060684 182.828522 543.864258
   vertex -104.135437 182.857941 543.757751
  endloop
 endfacet

 facet normal 0.257222 -0.869920 -0.420803
  outer loop
   vertex -104.135437 182.857941 543.757751
   vertex -83.303642 194.529846 532.362305
   vertex -83.228897 194.500427 532.468811
  endloop
 endfacet

 facet normal -0.430956 -0.105765 -0.896153
  outer loop
   vertex -104.150284 182.887924 543.761353
   vertex -83.303642 194.529846 532.362305
   vertex -104.135437 182.857941 543.757751
  endloop
 endfacet

 facet normal -0.430219 -0.107258 -0.896330
  outer loop
   vertex -83.318497 194.559845 532.365845
   vertex -83.303642 194.529846 532.362305
   vertex -104.150284 182.887924 543.761353
  endloop
 endfacet

 facet normal 0.257284 -0.869945 -0.420714
  outer loop
   vertex -104.150284 182.887924 543.761353
   vertex -104.472527 183.014709 543.302124
   vertex -83.318497 194.559845 532.365845
  endloop
 endfacet

 facet normal 0.257296 -0.869950 -0.420696
  outer loop
   vertex -83.318497 194.559845 532.365845
   vertex -104.472527 183.014709 543.302124
   vertex -83.640739 194.686615 531.906616
  endloop
 endfacet

 facet normal 0.615295 -0.518167 0.594066
  outer loop
   vertex -83.640739 194.686615 531.906616
   vertex -104.472527 183.014709 543.302124
   vertex -104.471207 182.990036 543.279236
  endloop
 endfacet

 facet normal 0.615251 -0.517378 0.594799
  outer loop
   vertex -104.471207 182.990036 543.279236
   vertex -83.639420 194.661942 531.883789
   vertex -83.640739 194.686615 531.906616
  endloop
 endfacet

 facet normal 0.257330 -0.869963 -0.420648
  outer loop
   vertex -104.508293 183.004623 543.226379
   vertex -83.639420 194.661942 531.883789
   vertex -104.471207 182.990036 543.279236
  endloop
 endfacet

 facet normal 0.257330 -0.869963 -0.420648
  outer loop
   vertex -83.676506 194.676529 531.830933
   vertex -83.639420 194.661942 531.883789
   vertex -104.508293 183.004623 543.226379
  endloop
 endfacet

 facet normal -0.560269 0.220428 -0.798442
  outer loop
   vertex -104.508293 183.004623 543.226379
   vertex -104.886978 184.285004 543.845581
   vertex -83.676506 194.676529 531.830933
  endloop
 endfacet

 facet normal -0.560262 0.220398 -0.798455
  outer loop
   vertex -83.676506 194.676529 531.830933
   vertex -104.886978 184.285004 543.845581
   vertex -84.055191 195.956909 532.450073
  endloop
 endfacet

 facet normal -0.257313 0.869957 0.420672
  outer loop
   vertex -84.055191 195.956909 532.450073
   vertex -104.886978 184.285004 543.845581
   vertex -84.018097 195.942322 532.502930
  endloop
 endfacet

 facet normal -0.257323 0.869947 0.420685
  outer loop
   vertex -84.532730 195.718842 532.690796
   vertex -84.061821 195.533585 533.361938
   vertex -83.745392 196.159988 532.260132
  endloop
 endfacet

 facet normal 0.257286 -0.869952 -0.420699
  outer loop
   vertex -83.674370 194.223557 532.728394
   vertex -84.145279 194.408813 532.057312
   vertex -83.357941 194.849960 531.626587
  endloop
 endfacet

 facet normal -0.257330 0.869964 0.420648
  outer loop
   vertex -104.886978 184.285004 543.845581
   vertex -104.849892 184.270416 543.898438
   vertex -84.018097 195.942322 532.502930
  endloop
 endfacet

 facet normal -0.197889 -0.734186 0.649470
  outer loop
   vertex -105.340332 183.799484 542.823059
   vertex -106.491104 183.689056 542.347595
   vertex -105.237198 183.678009 542.717163
  endloop
 endfacet

 facet normal -0.197898 -0.734154 0.649503
  outer loop
   vertex -105.237198 183.678009 542.717163
   vertex -106.491104 183.689056 542.347595
   vertex -106.078568 183.203110 541.924011
  endloop
 endfacet

 facet normal 0.266822 -0.924930 0.270759
  outer loop
   vertex -106.078568 183.203110 541.924011
   vertex -105.079178 183.692291 542.610229
   vertex -105.237198 183.678009 542.717163
  endloop
 endfacet

 facet normal 0.266832 -0.924931 0.270744
  outer loop
   vertex -105.446472 183.260239 541.496216
   vertex -105.079178 183.692291 542.610229
   vertex -106.078568 183.203110 541.924011
  endloop
 endfacet

 facet normal 0.762124 -0.647431 -0.000179
  outer loop
   vertex -104.958832 183.833969 542.564880
   vertex -105.079178 183.692291 542.610229
   vertex -105.446472 183.260239 541.496216
  endloop
 endfacet

 facet normal 0.762147 -0.647404 -0.000204
  outer loop
   vertex -105.446472 183.260239 541.496216
   vertex -104.965103 183.826981 541.314880
   vertex -104.958832 183.833969 542.564880
  endloop
 endfacet

 facet normal 0.997930 -0.064144 -0.004648
  outer loop
   vertex -104.958832 183.833969 542.564880
   vertex -104.965103 183.826981 541.314880
   vertex -104.946671 184.020065 542.607727
  endloop
 endfacet

 facet normal 0.997927 -0.064189 -0.004641
  outer loop
   vertex -104.946671 184.020065 542.607727
   vertex -104.965103 183.826981 541.314880
   vertex -104.916428 184.571335 541.486267
  endloop
 endfacet

 facet normal 0.836044 0.483128 0.260034
  outer loop
   vertex -104.916428 184.571335 541.486267
   vertex -105.049805 184.141541 542.713623
   vertex -104.946671 184.020065 542.607727
  endloop
 endfacet

 facet normal 0.836050 0.483118 0.260032
  outer loop
   vertex -105.328972 185.057266 541.909851
   vertex -105.049805 184.141541 542.713623
   vertex -104.916428 184.571335 541.486267
  endloop
 endfacet

 facet normal 0.371344 0.673868 0.638753
  outer loop
   vertex -105.207825 184.127258 542.820557
   vertex -105.049805 184.141541 542.713623
   vertex -105.328972 185.057266 541.909851
  endloop
 endfacet

 facet normal 0.371391 0.673858 0.638736
  outer loop
   vertex -105.328972 185.057266 541.909851
   vertex -105.961060 185.000137 542.337646
   vertex -105.207825 184.127258 542.820557
  endloop
 endfacet

 facet normal -0.123861 0.396391 0.909688
  outer loop
   vertex -105.207825 184.127258 542.820557
   vertex -105.961060 185.000137 542.337646
   vertex -105.328171 183.985580 542.865906
  endloop
 endfacet

 facet normal -0.123937 0.396348 0.909697
  outer loop
   vertex -105.328171 183.985580 542.865906
   vertex -105.961060 185.000137 542.337646
   vertex -106.442436 184.433411 542.518982
  endloop
 endfacet

 facet normal -0.359751 -0.186958 0.914126
  outer loop
   vertex -106.442436 184.433411 542.518982
   vertex -105.340332 183.799484 542.823059
   vertex -105.328171 183.985580 542.865906
  endloop
 endfacet

 facet normal -0.359749 -0.186955 0.914127
  outer loop
   vertex -106.491104 183.689056 542.347595
   vertex -105.340332 183.799484 542.823059
   vertex -106.442436 184.433411 542.518982
  endloop
 endfacet

 facet normal -0.628938 -0.740486 0.236890
  outer loop
   vertex -84.141708 195.147964 532.320740
   vertex -84.701973 195.368393 531.522278
   vertex -84.038574 195.026489 532.214844
  endloop
 endfacet

 facet normal -0.628964 -0.740451 0.236932
  outer loop
   vertex -84.038574 195.026489 532.214844
   vertex -84.701973 195.368393 531.522278
   vertex -84.598839 195.246902 531.416382
  endloop
 endfacet

 facet normal -0.063581 -0.972546 -0.223855
  outer loop
   vertex -84.598839 195.246902 531.416382
   vertex -83.880547 195.040771 532.107910
   vertex -84.038574 195.026489 532.214844
  endloop
 endfacet

 facet normal -0.063583 -0.972547 -0.223854
  outer loop
   vertex -84.440819 195.261185 531.309448
   vertex -83.880547 195.040771 532.107910
   vertex -84.598839 195.246902 531.416382
  endloop
 endfacet

 facet normal 0.538978 -0.634957 -0.553473
  outer loop
   vertex -83.760208 195.182449 532.062561
   vertex -83.880547 195.040771 532.107910
   vertex -84.440819 195.261185 531.309448
  endloop
 endfacet

 facet normal 0.538967 -0.634974 -0.553465
  outer loop
   vertex -84.440819 195.261185 531.309448
   vertex -84.320473 195.402863 531.264099
   vertex -83.760208 195.182449 532.062561
  endloop
 endfacet

 facet normal 0.825875 0.074673 -0.558886
  outer loop
   vertex -83.760208 195.182449 532.062561
   vertex -84.320473 195.402863 531.264099
   vertex -83.748039 195.368546 532.105408
  endloop
 endfacet

 facet normal 0.825875 0.074673 -0.558886
  outer loop
   vertex -83.748039 195.368546 532.105408
   vertex -84.320473 195.402863 531.264099
   vertex -84.308304 195.588959 531.306946
  endloop
 endfacet

 facet normal 0.628932 0.740489 -0.236899
  outer loop
   vertex -84.308304 195.588959 531.306946
   vertex -83.851173 195.490021 532.211304
   vertex -83.748039 195.368546 532.105408
  endloop
 endfacet

 facet normal 0.628932 0.740489 -0.236899
  outer loop
   vertex -84.411438 195.710434 531.412842
   vertex -83.851173 195.490021 532.211304
   vertex -84.308304 195.588959 531.306946
  endloop
 endfacet

 facet normal 0.063583 0.972546 0.223854
  outer loop
   vertex -84.009193 195.475739 532.318237
   vertex -83.851173 195.490021 532.211304
   vertex -84.411438 195.710434 531.412842
  endloop
 endfacet

 facet normal 0.063581 0.972546 0.223855
  outer loop
   vertex -84.411438 195.710434 531.412842
   vertex -84.569466 195.696152 531.519775
   vertex -84.009193 195.475739 532.318237
  endloop
 endfacet

 facet normal -0.538965 0.634973 0.553468
  outer loop
   vertex -84.009193 195.475739 532.318237
   vertex -84.569466 195.696152 531.519775
   vertex -84.129539 195.334061 532.363586
  endloop
 endfacet

 facet normal -0.538980 0.634958 0.553470
  outer loop
   vertex -84.129539 195.334061 532.363586
   vertex -84.569466 195.696152 531.519775
   vertex -84.689804 195.554474 531.565125
  endloop
 endfacet

 facet normal -0.825875 -0.074673 0.558886
  outer loop
   vertex -84.689804 195.554474 531.565125
   vertex -84.141708 195.147964 532.320740
   vertex -84.129539 195.334061 532.363586
  endloop
 endfacet

 facet normal -0.825876 -0.074679 0.558884
  outer loop
   vertex -84.701973 195.368393 531.522278
   vertex -84.141708 195.147964 532.320740
   vertex -84.689804 195.554474 531.565125
  endloop
 endfacet

 facet normal -0.628952 -0.740465 0.236920
  outer loop
   vertex -85.847122 195.255737 531.054871
   vertex -86.407387 195.476151 530.256409
   vertex -85.434578 194.769791 530.631287
  endloop
 endfacet

 facet normal -0.628951 -0.740471 0.236903
  outer loop
   vertex -85.434578 194.769791 530.631287
   vertex -86.407387 195.476151 530.256409
   vertex -85.994843 194.990219 529.832825
  endloop
 endfacet

 facet normal -0.063605 -0.972544 -0.223856
  outer loop
   vertex -85.994843 194.990219 529.832825
   vertex -84.802490 194.826920 530.203491
   vertex -85.434578 194.769791 530.631287
  endloop
 endfacet

 facet normal -0.063605 -0.972544 -0.223856
  outer loop
   vertex -85.362755 195.047348 529.405029
   vertex -84.802490 194.826920 530.203491
   vertex -85.994843 194.990219 529.832825
  endloop
 endfacet

 facet normal 0.539009 -0.634916 -0.553490
  outer loop
   vertex -84.321114 195.393661 530.022156
   vertex -84.802490 194.826920 530.203491
   vertex -85.362755 195.047348 529.405029
  endloop
 endfacet

 facet normal 0.539007 -0.634923 -0.553484
  outer loop
   vertex -85.362755 195.047348 529.405029
   vertex -84.881386 195.614075 529.223694
   vertex -84.321114 195.393661 530.022156
  endloop
 endfacet

 facet normal 0.825869 0.074642 -0.558899
  outer loop
   vertex -84.321114 195.393661 530.022156
   vertex -84.881386 195.614075 529.223694
   vertex -84.272446 196.138016 530.193481
  endloop
 endfacet

 facet normal 0.825856 0.074684 -0.558913
  outer loop
   vertex -84.272446 196.138016 530.193481
   vertex -84.881386 195.614075 529.223694
   vertex -84.832710 196.358429 529.395081
  endloop
 endfacet

 facet normal 0.628938 0.740476 -0.236925
  outer loop
   vertex -84.832710 196.358429 529.395081
   vertex -84.684982 196.623962 530.617126
   vertex -84.272446 196.138016 530.193481
  endloop
 endfacet

 facet normal 0.628950 0.740466 -0.236924
  outer loop
   vertex -85.245255 196.844376 529.818665
   vertex -84.684982 196.623962 530.617126
   vertex -84.832710 196.358429 529.395081
  endloop
 endfacet

 facet normal 0.063566 0.972545 0.223865
  outer loop
   vertex -85.317078 196.566818 531.044861
   vertex -84.684982 196.623962 530.617126
   vertex -85.245255 196.844376 529.818665
  endloop
 endfacet

 facet normal 0.063613 0.972541 0.223867
  outer loop
   vertex -85.245255 196.844376 529.818665
   vertex -85.877342 196.787247 530.246460
   vertex -85.317078 196.566818 531.044861
  endloop
 endfacet

 facet normal -0.538985 0.634914 0.553516
  outer loop
   vertex -85.317078 196.566818 531.044861
   vertex -85.877342 196.787247 530.246460
   vertex -85.798447 196.000092 531.226196
  endloop
 endfacet

 facet normal -0.538993 0.634910 0.553513
  outer loop
   vertex -85.798447 196.000092 531.226196
   vertex -85.877342 196.787247 530.246460
   vertex -86.358719 196.220505 530.427795
  endloop
 endfacet

 facet normal -0.825850 -0.074642 0.558928
  outer loop
   vertex -86.358719 196.220505 530.427795
   vertex -85.847122 195.255737 531.054871
   vertex -85.798447 196.000092 531.226196
  endloop
 endfacet

 facet normal -0.825876 -0.074684 0.558884
  outer loop
   vertex -86.407387 195.476151 530.256409
   vertex -85.847122 195.255737 531.054871
   vertex -86.358719 196.220505 530.427795
  endloop
 endfacet

 facet normal -0.197830 -0.734286 0.649374
  outer loop
   vertex -84.696350 195.366180 531.530334
   vertex -85.847122 195.255737 531.054871
   vertex -84.593216 195.244690 531.424377
  endloop
 endfacet

 facet normal -0.197871 -0.734147 0.649519
  outer loop
   vertex -84.593216 195.244690 531.424377
   vertex -85.847122 195.255737 531.054871
   vertex -85.434578 194.769791 530.631287
  endloop
 endfacet

 facet normal 0.266822 -0.924924 0.270778
  outer loop
   vertex -85.434578 194.769791 530.631287
   vertex -84.435188 195.258972 531.317444
   vertex -84.593216 195.244690 531.424377
  endloop
 endfacet

 facet normal 0.266841 -0.924926 0.270753
  outer loop
   vertex -84.802490 194.826920 530.203491
   vertex -84.435188 195.258972 531.317444
   vertex -85.434578 194.769791 530.631287
  endloop
 endfacet

 facet normal 0.762141 -0.647411 -0.000198
  outer loop
   vertex -84.314850 195.400650 531.272156
   vertex -84.435188 195.258972 531.317444
   vertex -84.802490 194.826920 530.203491
  endloop
 endfacet

 facet normal 0.762143 -0.647409 -0.000200
  outer loop
   vertex -84.802490 194.826920 530.203491
   vertex -84.321114 195.393661 530.022156
   vertex -84.314850 195.400650 531.272156
  endloop
 endfacet

 facet normal 0.997927 -0.064188 -0.004642
  outer loop
   vertex -84.314850 195.400650 531.272156
   vertex -84.321114 195.393661 530.022156
   vertex -84.302681 195.586746 531.314941
  endloop
 endfacet

 facet normal 0.997928 -0.064179 -0.004643
  outer loop
   vertex -84.302681 195.586746 531.314941
   vertex -84.321114 195.393661 530.022156
   vertex -84.272446 196.138016 530.193481
  endloop
 endfacet

 facet normal 0.836090 0.483067 0.260000
  outer loop
   vertex -84.272446 196.138016 530.193481
   vertex -84.405815 195.708221 531.420898
   vertex -84.302681 195.586746 531.314941
  endloop
 endfacet

 facet normal 0.836071 0.483096 0.260008
  outer loop
   vertex -84.684982 196.623962 530.617126
   vertex -84.405815 195.708221 531.420898
   vertex -84.272446 196.138016 530.193481
  endloop
 endfacet

 facet normal 0.371348 0.673862 0.638757
  outer loop
   vertex -84.563835 195.693939 531.527832
   vertex -84.405815 195.708221 531.420898
   vertex -84.684982 196.623962 530.617126
  endloop
 endfacet

 facet normal 0.371327 0.673867 0.638765
  outer loop
   vertex -84.684982 196.623962 530.617126
   vertex -85.317078 196.566818 531.044861
   vertex -84.563835 195.693939 531.527832
  endloop
 endfacet

 facet normal -0.124131 0.396237 0.909718
  outer loop
   vertex -84.563835 195.693939 531.527832
   vertex -85.317078 196.566818 531.044861
   vertex -84.684181 195.552261 531.573120
  endloop
 endfacet

 facet normal -0.123938 0.396347 0.909697
  outer loop
   vertex -84.684181 195.552261 531.573120
   vertex -85.317078 196.566818 531.044861
   vertex -85.798447 196.000092 531.226196
  endloop
 endfacet

 facet normal -0.359668 -0.186685 0.914214
  outer loop
   vertex -85.798447 196.000092 531.226196
   vertex -84.696350 195.366180 531.530334
   vertex -84.684181 195.552261 531.573120
  endloop
 endfacet

 facet normal -0.359759 -0.186879 0.914139
  outer loop
   vertex -85.847122 195.255737 531.054871
   vertex -84.696350 195.366180 531.530334
   vertex -85.798447 196.000092 531.226196
  endloop
 endfacet

 facet normal -0.628921 -0.740493 0.236914
  outer loop
   vertex -104.785690 183.581284 543.613464
   vertex -105.345963 183.801697 542.815063
   vertex -104.682556 183.459808 543.507568
  endloop
 endfacet

 facet normal -0.628889 -0.740538 0.236861
  outer loop
   vertex -104.682556 183.459808 543.507568
   vertex -105.345963 183.801697 542.815063
   vertex -105.242828 183.680222 542.709106
  endloop
 endfacet

 facet normal -0.063583 -0.972547 -0.223854
  outer loop
   vertex -105.242828 183.680222 542.709106
   vertex -104.524536 183.474091 543.400635
   vertex -104.682556 183.459808 543.507568
  endloop
 endfacet

 facet normal -0.063581 -0.972546 -0.223855
  outer loop
   vertex -105.084801 183.694504 542.602173
   vertex -104.524536 183.474091 543.400635
   vertex -105.242828 183.680222 542.709106
  endloop
 endfacet

 facet normal 0.538967 -0.634974 -0.553465
  outer loop
   vertex -104.404190 183.615768 543.355286
   vertex -104.524536 183.474091 543.400635
   vertex -105.084801 183.694504 542.602173
  endloop
 endfacet

 facet normal 0.539070 -0.634819 -0.553542
  outer loop
   vertex -105.084801 183.694504 542.602173
   vertex -104.964462 183.836182 542.556885
   vertex -104.404190 183.615768 543.355286
  endloop
 endfacet

 facet normal 0.825853 0.074688 -0.558917
  outer loop
   vertex -104.404190 183.615768 543.355286
   vertex -104.964462 183.836182 542.556885
   vertex -104.392021 183.801849 543.398132
  endloop
 endfacet

 facet normal 0.825861 0.074501 -0.558931
  outer loop
   vertex -104.392021 183.801849 543.398132
   vertex -104.964462 183.836182 542.556885
   vertex -104.952293 184.022278 542.599670
  endloop
 endfacet

 facet normal 0.628967 0.740450 -0.236926
  outer loop
   vertex -104.952293 184.022278 542.599670
   vertex -104.495155 183.923340 543.504028
   vertex -104.392021 183.801849 543.398132
  endloop
 endfacet

 facet normal 0.628880 0.740541 -0.236873
  outer loop
   vertex -105.055428 184.143753 542.705627
   vertex -104.495155 183.923340 543.504028
   vertex -104.952293 184.022278 542.599670
  endloop
 endfacet

 facet normal 0.063588 0.972543 0.223866
  outer loop
   vertex -104.653183 183.909058 543.610962
   vertex -104.495155 183.923340 543.504028
   vertex -105.055428 184.143753 542.705627
  endloop
 endfacet

 facet normal 0.063591 0.972543 0.223865
  outer loop
   vertex -105.055428 184.143753 542.705627
   vertex -105.213448 184.129471 542.812561
   vertex -104.653183 183.909058 543.610962
  endloop
 endfacet

 facet normal -0.538961 0.634950 0.553497
  outer loop
   vertex -104.653183 183.909058 543.610962
   vertex -105.213448 184.129471 542.812561
   vertex -104.773521 183.767380 543.656311
  endloop
 endfacet

 facet normal -0.539076 0.634842 0.553510
  outer loop
   vertex -104.773521 183.767380 543.656311
   vertex -105.213448 184.129471 542.812561
   vertex -105.333794 183.987793 542.857849
  endloop
 endfacet

 facet normal -0.825872 -0.074675 0.558892
  outer loop
   vertex -105.333794 183.987793 542.857849
   vertex -104.785690 183.581284 543.613464
   vertex -104.773521 183.767380 543.656311
  endloop
 endfacet

 facet normal -0.825841 -0.074509 0.558959
  outer loop
   vertex -105.345963 183.801697 542.815063
   vertex -104.785690 183.581284 543.613464
   vertex -105.333794 183.987793 542.857849
  endloop
 endfacet

 facet normal -0.825876 -0.074684 0.558884
  outer loop
   vertex -106.442436 184.433411 542.518982
   vertex -107.002701 184.653824 541.720520
   vertex -106.491104 183.689056 542.347595
  endloop
 endfacet

 facet normal -0.825850 -0.074642 0.558928
  outer loop
   vertex -106.491104 183.689056 542.347595
   vertex -107.002701 184.653824 541.720520
   vertex -107.051376 183.909470 541.549194
  endloop
 endfacet

 facet normal -0.628945 -0.740465 0.236939
  outer loop
   vertex -107.051376 183.909470 541.549194
   vertex -106.078568 183.203110 541.924011
   vertex -106.491104 183.689056 542.347595
  endloop
 endfacet

 facet normal -0.628941 -0.740483 0.236892
  outer loop
   vertex -106.638832 183.423538 541.125549
   vertex -106.078568 183.203110 541.924011
   vertex -107.051376 183.909470 541.549194
  endloop
 endfacet

 facet normal -0.063605 -0.972544 -0.223856
  outer loop
   vertex -105.446472 183.260239 541.496216
   vertex -106.078568 183.203110 541.924011
   vertex -106.638832 183.423538 541.125549
  endloop
 endfacet

 facet normal -0.063598 -0.972540 -0.223877
  outer loop
   vertex -106.638832 183.423538 541.125549
   vertex -106.006744 183.480667 540.697815
   vertex -105.446472 183.260239 541.496216
  endloop
 endfacet

 facet normal 0.538991 -0.634904 -0.553522
  outer loop
   vertex -105.446472 183.260239 541.496216
   vertex -106.006744 183.480667 540.697815
   vertex -104.965103 183.826981 541.314880
  endloop
 endfacet

 facet normal 0.538987 -0.634920 -0.553507
  outer loop
   vertex -104.965103 183.826981 541.314880
   vertex -106.006744 183.480667 540.697815
   vertex -105.525368 184.047394 540.516479
  endloop
 endfacet

 facet normal 0.825856 0.074684 -0.558913
  outer loop
   vertex -105.525368 184.047394 540.516479
   vertex -104.916428 184.571335 541.486267
   vertex -104.965103 183.826981 541.314880
  endloop
 endfacet

 facet normal 0.825869 0.074642 -0.558899
  outer loop
   vertex -105.476700 184.791748 540.687805
   vertex -104.916428 184.571335 541.486267
   vertex -105.525368 184.047394 540.516479
  endloop
 endfacet

 facet normal 0.628942 0.740475 -0.236916
  outer loop
   vertex -105.328972 185.057266 541.909851
   vertex -104.916428 184.571335 541.486267
   vertex -105.476700 184.791748 540.687805
  endloop
 endfacet

 facet normal 0.628944 0.740473 -0.236916
  outer loop
   vertex -105.476700 184.791748 540.687805
   vertex -105.889236 185.277695 541.111450
   vertex -105.328972 185.057266 541.909851
  endloop
 endfacet

 facet normal 0.063613 0.972541 0.223867
  outer loop
   vertex -105.328972 185.057266 541.909851
   vertex -105.889236 185.277695 541.111450
   vertex -105.961060 185.000137 542.337646
  endloop
 endfacet

 facet normal 0.063590 0.972543 0.223866
  outer loop
   vertex -105.961060 185.000137 542.337646
   vertex -105.889236 185.277695 541.111450
   vertex -106.521332 185.220566 541.539185
  endloop
 endfacet

 facet normal -0.538998 0.634924 0.553491
  outer loop
   vertex -106.521332 185.220566 541.539185
   vertex -106.442436 184.433411 542.518982
   vertex -105.961060 185.000137 542.337646
  endloop
 endfacet

 facet normal -0.539017 0.634914 0.553484
  outer loop
   vertex -107.002701 184.653824 541.720520
   vertex -106.442436 184.433411 542.518982
   vertex -106.521332 185.220566 541.539185
  endloop
 endfacet

endsolid