solid stl file generated from DOUG
 facet normal -0.596696 0.041450 -0.801396
  outer loop
   vertex -6.710997 -234.296829 450.360596
   vertex -6.627840 -233.136337 450.358704
   vertex -6.626781 -234.293472 450.298065
  endloop
 facet normal 0.017417 0.052340 -0.998477
  outer loop
   vertex -6.626781 -234.293472 450.298065
   vertex -6.627840 -233.136337 450.358704
   vertex -5.786340 -233.136337 450.373383
  endloop
 facet normal -0.000913 0.998629 0.052340
  outer loop
   vertex -4.765218 -242.229187 451.575806
   vertex -2.931713 -242.211792 451.275909
   vertex -4.759427 -242.211792 451.244019
  endloop
 facet normal 0.017422 0.052327 -0.998478
  outer loop
   vertex -4.759427 -242.211792 451.244019
   vertex -2.931713 -242.211792 451.275909
   vertex -4.830595 -242.494980 451.227936
  endloop
 facet normal 0.017422 0.052295 -0.998480
  outer loop
   vertex -4.840517 -231.647827 451.796295
   vertex -2.941117 -231.931000 451.814606
   vertex -4.768830 -231.931000 451.782715
  endloop
 facet normal 0.000913 -0.998629 -0.052340
  outer loop
   vertex -4.768830 -231.931000 451.782715
   vertex -2.941117 -231.931000 451.814606
   vertex -4.774621 -231.948395 452.114502
  endloop
 facet normal -0.999848 -0.000000 -0.017452
  outer loop
   vertex -6.679142 -234.119537 451.925232
   vertex -6.677232 -234.113800 451.815796
   vertex -6.671804 -240.047897 451.504852
  endloop
 facet normal -0.579747 0.042108 -0.813708
  outer loop
   vertex -6.671804 -240.047897 451.504852
   vertex -6.677232 -234.113800 451.815796
   vertex -6.553428 -240.043381 451.420746
  endloop
 facet normal 0.017417 0.052340 -0.998477
  outer loop
   vertex -5.779268 -240.867630 449.968262
   vertex -6.621827 -239.710495 450.014221
   vertex -5.780327 -239.710495 450.028900
  endloop
 facet normal -0.000913 0.998627 0.052367
  outer loop
   vertex -5.780327 -239.710495 450.028900
   vertex -6.621827 -239.710495 450.014221
   vertex -6.610392 -239.722946 450.251862
  endloop
 facet normal -0.927133 0.018763 -0.374262
  outer loop
   vertex -5.870286 -234.037369 450.371277
   vertex -5.864858 -239.971466 450.060333
   vertex -5.883749 -234.039124 450.404541
  endloop
 facet normal -0.927128 0.018764 -0.374274
  outer loop
   vertex -5.883749 -234.039124 450.404541
   vertex -5.864858 -239.971466 450.060333
   vertex -5.878322 -239.973221 450.093597
  endloop
 facet normal 0.017435 0.052336 -0.998477
  outer loop
   vertex -5.878322 -239.973221 450.093597
   vertex -6.491760 -239.973221 450.082886
   vertex -5.883749 -234.039124 450.404541
  endloop
 facet normal 0.017414 0.052340 -0.998478
  outer loop
   vertex -1.842443 -232.376572 451.810455
   vertex -0.744843 -231.647827 451.867798
   vertex -0.743011 -233.650558 451.762848
  endloop
 facet normal 0.999848 -0.000000 0.017453
  outer loop
   vertex -0.743011 -233.650558 451.762848
   vertex -0.744843 -231.647827 451.867798
   vertex -0.748803 -233.667938 452.094635
  endloop
 facet normal 0.000913 -0.998631 -0.052295
  outer loop
   vertex -0.748803 -233.667938 452.094635
   vertex -5.110152 -233.667938 452.018524
   vertex -0.743011 -233.650558 451.762848
  endloop
 facet normal -0.999848 0.000000 -0.017452
  outer loop
   vertex -6.736035 -233.211700 451.795044
   vertex -6.737747 -234.377151 451.893127
   vertex -6.738805 -233.220032 451.953766
  endloop
 facet normal -0.624286 -0.041451 0.780096
  outer loop
   vertex -6.738805 -233.220032 451.953766
   vertex -6.737747 -234.377151 451.893127
   vertex -6.655765 -234.380508 451.958557
  endloop
 facet normal -0.624281 -0.041451 0.780099
  outer loop
   vertex -6.655765 -234.380508 451.958557
   vertex -6.656823 -233.223373 452.019196
   vertex -6.738805 -233.220032 451.953766
  endloop
 facet normal 0.999848 -0.000000 0.017452
  outer loop
   vertex -0.736753 -240.492249 451.404358
   vertex -0.742545 -240.509644 451.736145
   vertex -0.734922 -242.494980 451.299408
  endloop
 facet normal 0.999848 -0.000000 0.017452
  outer loop
   vertex -0.734922 -242.494980 451.299408
   vertex -0.742545 -240.509644 451.736145
   vertex -0.740713 -242.512360 451.631195
  endloop
 facet normal 0.000913 -0.998631 -0.052295
  outer loop
   vertex -0.740713 -242.512360 451.631195
   vertex -4.836387 -242.512360 451.559723
   vertex -0.734922 -242.494980 451.299408
  endloop
 facet normal -0.999848 -0.000000 -0.017452
  outer loop
   vertex -5.111787 -231.880569 452.112183
   vertex -5.105996 -231.863174 451.780396
   vertex -5.104361 -233.650558 451.686737
  endloop
 facet normal 0.017427 0.052336 -0.998477
  outer loop
   vertex -5.104361 -233.650558 451.686737
   vertex -5.105996 -231.863174 451.780396
   vertex -4.767756 -233.105316 451.721191
  endloop
 facet normal 0.017422 0.052339 -0.998477
  outer loop
   vertex -4.767756 -233.105316 451.721191
   vertex -2.940042 -233.105316 451.753082
   vertex -5.104361 -233.650558 451.686737
  endloop
 facet normal -0.607697 -0.042111 0.793052
  outer loop
   vertex -6.538321 -234.047623 450.555267
   vertex -6.653690 -234.043106 450.467102
   vertex -6.648263 -239.977203 450.156158
  endloop
 facet normal -0.999848 -0.000000 -0.017452
  outer loop
   vertex -6.648263 -239.977203 450.156158
   vertex -6.653690 -234.043106 450.467102
   vertex -6.651780 -234.037369 450.357635
  endloop
 facet normal -0.999848 -0.000000 -0.017448
  outer loop
   vertex -6.651780 -234.037369 450.357635
   vertex -6.646352 -239.971466 450.046692
   vertex -6.648263 -239.977203 450.156158
  endloop
 facet normal 0.017422 0.052310 -0.998479
  outer loop
   vertex -2.932787 -241.037491 451.337433
   vertex -4.760501 -241.037491 451.305542
   vertex -5.098103 -240.492249 451.328217
  endloop
 facet normal 0.017464 0.052336 -0.998477
  outer loop
   vertex -5.098103 -240.492249 451.328217
   vertex -4.760501 -241.037491 451.305542
   vertex -5.096468 -242.279617 451.234558
  endloop
 facet normal -0.999848 -0.000000 -0.017453
  outer loop
   vertex -5.096468 -242.279617 451.234558
   vertex -5.102260 -242.297012 451.566345
   vertex -5.098103 -240.492249 451.328217
  endloop
 facet normal -0.624288 -0.041451 0.780094
  outer loop
   vertex -6.649752 -240.954666 451.614075
   vertex -6.650810 -239.797531 451.674713
   vertex -6.731734 -240.951309 451.548645
  endloop
 facet normal -0.624286 -0.041451 0.780096
  outer loop
   vertex -6.731734 -240.951309 451.548645
   vertex -6.650810 -239.797531 451.674713
   vertex -6.732792 -239.794174 451.609283
  endloop
 facet normal -0.999848 -0.000000 -0.017452
  outer loop
   vertex -6.732792 -239.794174 451.609283
   vertex -6.728963 -240.942993 451.389923
   vertex -6.731734 -240.951309 451.548645
  endloop
 facet normal -0.000814 0.998631 0.052308
  outer loop
   vertex -6.708813 -239.722168 450.235474
   vertex -6.610392 -239.722946 450.251862
   vertex -6.706042 -239.713852 450.076752
  endloop
 facet normal -0.000923 0.998627 0.052368
  outer loop
   vertex -6.706042 -239.713852 450.076752
   vertex -6.610392 -239.722946 450.251862
   vertex -6.621827 -239.710495 450.014221
  endloop
 facet normal -0.596698 0.041450 -0.801394
  outer loop
   vertex -6.621827 -239.710495 450.014221
   vertex -6.620769 -240.867630 449.953583
   vertex -6.706042 -239.713852 450.076752
  endloop
 facet normal 0.017417 0.052340 -0.998477
  outer loop
   vertex -5.779268 -240.867630 449.968262
   vertex -6.620769 -240.867630 449.953583
   vertex -6.621827 -239.710495 450.014221
  endloop
 facet normal 0.017417 0.052340 -0.998477
  outer loop
   vertex -5.786340 -233.136337 450.373383
   vertex -5.785281 -234.293472 450.312744
   vertex -6.626781 -234.293472 450.298065
  endloop
 facet normal 0.000912 -0.998631 -0.052296
  outer loop
   vertex -6.626781 -234.293472 450.298065
   vertex -5.785281 -234.293472 450.312744
   vertex -6.615346 -234.305908 450.535736
  endloop
 facet normal 0.000974 -0.998631 -0.052299
  outer loop
   vertex -6.615346 -234.305908 450.535736
   vertex -6.710997 -234.296829 450.360596
   vertex -6.626781 -234.293472 450.298065
  endloop
 facet normal 0.000984 -0.998631 -0.052305
  outer loop
   vertex -6.713767 -234.305145 450.519318
   vertex -6.710997 -234.296829 450.360596
   vertex -6.615346 -234.305908 450.535736
  endloop
 facet normal -0.607698 -0.042111 0.793051
  outer loop
   vertex -6.648263 -239.977203 450.156158
   vertex -6.532893 -239.981720 450.244324
   vertex -6.538321 -234.047623 450.555267
  endloop
 facet normal -0.999848 0.000000 -0.017452
  outer loop
   vertex -6.538321 -234.047623 450.555267
   vertex -6.532893 -239.981720 450.244324
   vertex -6.553428 -240.043381 451.420746
  endloop
 facet normal -0.999848 -0.000000 -0.017453
  outer loop
   vertex -6.553428 -240.043381 451.420746
   vertex -6.558856 -234.109283 451.731689
   vertex -6.538321 -234.047623 450.555267
  endloop
 facet normal -0.579747 0.042108 -0.813708
  outer loop
   vertex -6.677232 -234.113800 451.815796
   vertex -6.558856 -234.109283 451.731689
   vertex -6.553428 -240.043381 451.420746
  endloop
 facet normal -0.017422 -0.052341 0.998477
  outer loop
   vertex -4.773548 -233.122711 452.052979
   vertex -5.110152 -233.667938 452.018524
   vertex -2.945834 -233.122711 452.084869
  endloop
 facet normal -0.017425 -0.052330 0.998478
  outer loop
   vertex -2.945834 -233.122711 452.084869
   vertex -5.110152 -233.667938 452.018524
   vertex -0.748803 -233.667938 452.094635
  endloop
 facet normal -0.017427 -0.052340 0.998477
  outer loop
   vertex -0.748803 -233.667938 452.094635
   vertex -0.750634 -231.665222 452.199585
   vertex -2.945834 -233.122711 452.084869
  endloop
 facet normal 0.999848 -0.000000 0.017453
  outer loop
   vertex -0.744843 -231.647827 451.867798
   vertex -0.750634 -231.665222 452.199585
   vertex -0.748803 -233.667938 452.094635
  endloop
 facet normal -0.000913 0.998629 0.052340
  outer loop
   vertex -4.846308 -231.665222 452.128113
   vertex -0.750634 -231.665222 452.199585
   vertex -0.744843 -231.647827 451.867798
  endloop
 facet normal -0.000914 0.998629 0.052340
  outer loop
   vertex -0.736753 -240.492249 451.404358
   vertex -5.103894 -240.509644 451.660004
   vertex -0.742545 -240.509644 451.736145
  endloop
 facet normal -0.017432 -0.052350 0.998477
  outer loop
   vertex -0.742545 -240.509644 451.736145
   vertex -5.103894 -240.509644 451.660004
   vertex -2.938579 -241.054871 451.669220
  endloop
 facet normal -0.017434 -0.052340 0.998477
  outer loop
   vertex -2.938579 -241.054871 451.669220
   vertex -0.740713 -242.512360 451.631195
   vertex -0.742545 -240.509644 451.736145
  endloop
 facet normal -0.017426 -0.052327 0.998478
  outer loop
   vertex -2.937505 -242.229187 451.607697
   vertex -0.740713 -242.512360 451.631195
   vertex -2.938579 -241.054871 451.669220
  endloop
 facet normal -0.017424 -0.052316 0.998479
  outer loop
   vertex -4.836387 -242.512360 451.559723
   vertex -0.740713 -242.512360 451.631195
   vertex -2.937505 -242.229187 451.607697
  endloop
 facet normal 0.000896 -0.998629 -0.052339
  outer loop
   vertex -0.748904 -233.672028 452.094330
   vertex -5.066328 -233.603439 450.711731
   vertex -0.726093 -233.603516 450.787506
  endloop
 facet normal 0.017433 0.052419 -0.998473
  outer loop
   vertex -0.726093 -233.603516 450.787506
   vertex -5.066328 -233.603439 450.711731
   vertex -5.066625 -233.273163 450.729065
  endloop
 facet normal 0.017426 0.052327 -0.998478
  outer loop
   vertex -5.066625 -233.273163 450.729065
   vertex -0.726389 -233.273239 450.804810
   vertex -0.726093 -233.603516 450.787506
  endloop
 facet normal -0.000896 0.998627 0.052373
  outer loop
   vertex -5.089379 -233.341721 452.035919
   vertex -0.726389 -233.273239 450.804810
   vertex -5.066625 -233.273163 450.729065
  endloop
 facet normal -0.000903 0.998628 0.052349
  outer loop
   vertex -0.749200 -233.341766 452.111664
   vertex -0.726389 -233.273239 450.804810
   vertex -5.089379 -233.341721 452.035919
  endloop
 facet normal 0.017559 0.052336 -0.998475
  outer loop
   vertex -6.646352 -239.971466 450.046692
   vertex -6.651780 -234.037369 450.357635
   vertex -6.504055 -239.971466 450.049194
  endloop
 facet normal 0.017559 0.052336 -0.998475
  outer loop
   vertex -6.504055 -239.971466 450.049194
   vertex -6.651780 -234.037369 450.357635
   vertex -6.509482 -234.037369 450.360138
  endloop
 facet normal 0.939554 0.018774 -0.341887
  outer loop
   vertex -6.509482 -234.037369 450.360138
   vertex -6.491760 -239.973221 450.082886
   vertex -6.504055 -239.971466 450.049194
  endloop
 facet normal 0.939549 0.018775 -0.341899
  outer loop
   vertex -6.497187 -234.039124 450.393829
   vertex -6.491760 -239.973221 450.082886
   vertex -6.509482 -234.037369 450.360138
  endloop
 facet normal 0.017435 0.052336 -0.998477
  outer loop
   vertex -5.883749 -234.039124 450.404541
   vertex -6.491760 -239.973221 450.082886
   vertex -6.497187 -234.039124 450.393829
  endloop
 facet normal 0.000924 -0.998630 -0.052314
  outer loop
   vertex -0.742346 -240.835815 451.718964
   vertex -5.082525 -240.835861 451.643219
   vertex -0.719535 -240.767334 450.412109
  endloop
 facet normal 0.000930 -0.998631 -0.052291
  outer loop
   vertex -0.719535 -240.767334 450.412109
   vertex -5.082525 -240.835861 451.643219
   vertex -5.059770 -240.767410 450.336365
  endloop
 facet normal 0.017424 0.052327 -0.998478
  outer loop
   vertex -5.059770 -240.767410 450.336365
   vertex -0.719842 -240.437057 450.429413
   vertex -0.719535 -240.767334 450.412109
  endloop
 facet normal 0.017424 0.052327 -0.998478
  outer loop
   vertex -5.060078 -240.437134 450.353668
   vertex -0.719842 -240.437057 450.429413
   vertex -5.059770 -240.767410 450.336365
  endloop
 facet normal -0.000931 0.998630 0.052314
  outer loop
   vertex -0.742653 -240.505539 451.736267
   vertex -0.719842 -240.437057 450.429413
   vertex -5.060078 -240.437134 450.353668
  endloop
 facet normal -0.000931 0.998630 0.052315
  outer loop
   vertex -5.060078 -240.437134 450.353668
   vertex -5.082889 -240.505615 451.660492
   vertex -0.742653 -240.505539 451.736267
  endloop
 facet normal 0.017694 0.052336 -0.998473
  outer loop
   vertex -5.870286 -234.037369 450.371277
   vertex -5.799679 -234.037369 450.372528
   vertex -5.794252 -239.971466 450.061584
  endloop
 facet normal 0.999848 -0.000000 0.017452
  outer loop
   vertex -5.794252 -239.971466 450.061584
   vertex -5.799679 -234.037369 450.372528
   vertex -5.827042 -234.119537 451.940125
  endloop
 facet normal 0.999848 -0.000000 0.017453
  outer loop
   vertex -5.827042 -234.119537 451.940125
   vertex -5.821614 -240.053635 451.629150
   vertex -5.794252 -239.971466 450.061584
  endloop
 facet normal -0.017694 -0.052341 0.998473
  outer loop
   vertex -5.897648 -234.119537 451.938873
   vertex -5.821614 -240.053635 451.629150
   vertex -5.827042 -234.119537 451.940125
  endloop
 facet normal -0.017263 -0.052336 0.998480
  outer loop
   vertex -5.892220 -240.053635 451.627930
   vertex -5.821614 -240.053635 451.629150
   vertex -5.897648 -234.119537 451.938873
  endloop
 facet normal -0.939549 -0.018775 0.341899
  outer loop
   vertex -5.897648 -234.119537 451.938873
   vertex -5.909943 -234.117783 451.905182
   vertex -5.892220 -240.053635 451.627930
  endloop
 facet normal -0.939545 -0.018775 0.341910
  outer loop
   vertex -5.892220 -240.053635 451.627930
   vertex -5.909943 -234.117783 451.905182
   vertex -5.904516 -240.051880 451.594238
  endloop
 facet normal -0.017435 -0.052336 0.998477
  outer loop
   vertex -5.904516 -240.051880 451.594238
   vertex -5.909943 -234.117783 451.905182
   vertex -6.523381 -234.117783 451.894470
  endloop
 facet normal -0.017435 -0.052336 0.998477
  outer loop
   vertex -6.523381 -234.117783 451.894470
   vertex -6.517953 -240.051880 451.583527
   vertex -5.904516 -240.051880 451.594238
  endloop
 facet normal 0.927133 -0.018763 0.374262
  outer loop
   vertex -6.536844 -234.119537 451.927734
   vertex -6.517953 -240.051880 451.583527
   vertex -6.523381 -234.117783 451.894470
  endloop
 facet normal 0.927014 -0.018781 0.374557
  outer loop
   vertex -6.531416 -240.053635 451.616760
   vertex -6.517953 -240.051880 451.583527
   vertex -6.536844 -234.119537 451.927734
  endloop
 facet normal -0.017559 -0.052341 0.998475
  outer loop
   vertex -6.536844 -234.119537 451.927734
   vertex -6.679142 -234.119537 451.925232
   vertex -6.531416 -240.053635 451.616760
  endloop
 facet normal -0.017345 -0.052336 0.998479
  outer loop
   vertex -6.531416 -240.053635 451.616760
   vertex -6.679142 -234.119537 451.925232
   vertex -6.673715 -240.053635 451.614288
  endloop
 facet normal -0.999848 0.000000 -0.017457
  outer loop
   vertex -6.673715 -240.053635 451.614288
   vertex -6.679142 -234.119537 451.925232
   vertex -6.671804 -240.047897 451.504852
  endloop
 facet normal 0.000913 -0.998631 -0.052295
  outer loop
   vertex -4.836387 -242.512360 451.559723
   vertex -4.830595 -242.494980 451.227936
   vertex -0.734922 -242.494980 451.299408
  endloop
 facet normal 0.017424 0.052313 -0.998479
  outer loop
   vertex -0.734922 -242.494980 451.299408
   vertex -4.830595 -242.494980 451.227936
   vertex -2.931713 -242.211792 451.275909
  endloop
 facet normal 0.017426 0.052328 -0.998478
  outer loop
   vertex -2.931713 -242.211792 451.275909
   vertex -1.833854 -241.766235 451.318420
   vertex -0.734922 -242.494980 451.299408
  endloop
 facet normal 0.017426 0.052328 -0.998478
  outer loop
   vertex -2.932787 -241.037491 451.337433
   vertex -1.833854 -241.766235 451.318420
   vertex -2.931713 -242.211792 451.275909
  endloop
 facet normal 0.017434 0.052340 -0.998477
  outer loop
   vertex -0.736753 -240.492249 451.404358
   vertex -1.833854 -241.766235 451.318420
   vertex -2.932787 -241.037491 451.337433
  endloop
 facet normal 0.017432 0.052349 -0.998477
  outer loop
   vertex -2.932787 -241.037491 451.337433
   vertex -5.098103 -240.492249 451.328217
   vertex -0.736753 -240.492249 451.404358
  endloop
 facet normal -0.000914 0.998629 0.052340
  outer loop
   vertex -0.736753 -240.492249 451.404358
   vertex -5.098103 -240.492249 451.328217
   vertex -5.103894 -240.509644 451.660004
  endloop
 facet normal -0.999848 0.000000 -0.017452
  outer loop
   vertex -5.103894 -240.509644 451.660004
   vertex -5.098103 -240.492249 451.328217
   vertex -5.102260 -242.297012 451.566345
  endloop
 facet normal -0.017462 -0.052336 0.998477
  outer loop
   vertex -5.102260 -242.297012 451.566345
   vertex -4.766293 -241.054871 451.637329
   vertex -5.103894 -240.509644 451.660004
  endloop
 facet normal -0.017496 -0.052327 0.998477
  outer loop
   vertex -4.765218 -242.229187 451.575806
   vertex -4.766293 -241.054871 451.637329
   vertex -5.102260 -242.297012 451.566345
  endloop
 facet normal 0.999848 0.000000 0.017453
  outer loop
   vertex -4.760501 -241.037491 451.305542
   vertex -4.766293 -241.054871 451.637329
   vertex -4.765218 -242.229187 451.575806
  endloop
 facet normal 0.999848 -0.000000 0.017452
  outer loop
   vertex -4.765218 -242.229187 451.575806
   vertex -4.759427 -242.211792 451.244019
   vertex -4.760501 -241.037491 451.305542
  endloop
 facet normal 0.017496 0.052328 -0.998477
  outer loop
   vertex -4.760501 -241.037491 451.305542
   vertex -4.759427 -242.211792 451.244019
   vertex -5.096468 -242.279617 451.234558
  endloop
 facet normal 0.017500 0.052307 -0.998478
  outer loop
   vertex -5.096468 -242.279617 451.234558
   vertex -4.759427 -242.211792 451.244019
   vertex -4.830595 -242.494980 451.227936
  endloop
 facet normal -0.629368 -0.775390 -0.051639
  outer loop
   vertex -4.830595 -242.494980 451.227936
   vertex -5.102260 -242.297012 451.566345
   vertex -5.096468 -242.279617 451.234558
  endloop
 facet normal -0.629342 -0.775414 -0.051604
  outer loop
   vertex -4.836387 -242.512360 451.559723
   vertex -5.102260 -242.297012 451.566345
   vertex -4.830595 -242.494980 451.227936
  endloop
 facet normal -0.017500 -0.052310 0.998478
  outer loop
   vertex -4.765218 -242.229187 451.575806
   vertex -5.102260 -242.297012 451.566345
   vertex -4.836387 -242.512360 451.559723
  endloop
 facet normal -0.017422 -0.052330 0.998478
  outer loop
   vertex -4.836387 -242.512360 451.559723
   vertex -2.937505 -242.229187 451.607697
   vertex -4.765218 -242.229187 451.575806
  endloop
 facet normal -0.000913 0.998629 0.052340
  outer loop
   vertex -4.765218 -242.229187 451.575806
   vertex -2.937505 -242.229187 451.607697
   vertex -2.931713 -242.211792 451.275909
  endloop
 facet normal -0.999848 -0.000000 -0.017453
  outer loop
   vertex -2.931713 -242.211792 451.275909
   vertex -2.937505 -242.229187 451.607697
   vertex -2.938579 -241.054871 451.669220
  endloop
 facet normal -0.999848 -0.000000 -0.017453
  outer loop
   vertex -2.938579 -241.054871 451.669220
   vertex -2.932787 -241.037491 451.337433
   vertex -2.931713 -242.211792 451.275909
  endloop
 facet normal 0.000912 -0.998631 -0.052295
  outer loop
   vertex -4.766293 -241.054871 451.637329
   vertex -2.932787 -241.037491 451.337433
   vertex -2.938579 -241.054871 451.669220
  endloop
 facet normal 0.000912 -0.998631 -0.052295
  outer loop
   vertex -4.760501 -241.037491 451.305542
   vertex -2.932787 -241.037491 451.337433
   vertex -4.766293 -241.054871 451.637329
  endloop
 facet normal -0.000913 0.998629 0.052340
  outer loop
   vertex -4.767756 -233.105316 451.721191
   vertex -4.773548 -233.122711 452.052979
   vertex -2.940042 -233.105316 451.753082
  endloop
 facet normal -0.000913 0.998629 0.052340
  outer loop
   vertex -2.940042 -233.105316 451.753082
   vertex -4.773548 -233.122711 452.052979
   vertex -2.945834 -233.122711 452.084869
  endloop
 facet normal -0.999848 -0.000000 -0.017453
  outer loop
   vertex -2.945834 -233.122711 452.084869
   vertex -2.941117 -231.931000 451.814606
   vertex -2.940042 -233.105316 451.753082
  endloop
 facet normal -0.999848 0.000000 -0.017451
  outer loop
   vertex -2.946908 -231.948395 452.146423
   vertex -2.941117 -231.931000 451.814606
   vertex -2.945834 -233.122711 452.084869
  endloop
 facet normal 0.000914 -0.998629 -0.052336
  outer loop
   vertex -4.774621 -231.948395 452.114502
   vertex -2.941117 -231.931000 451.814606
   vertex -2.946908 -231.948395 452.146423
  endloop
 facet normal -0.017439 -0.052407 0.998474
  outer loop
   vertex -2.946908 -231.948395 452.146423
   vertex -4.846308 -231.665222 452.128113
   vertex -4.774621 -231.948395 452.114502
  endloop
 facet normal -0.017409 -0.052399 0.998474
  outer loop
   vertex -4.774621 -231.948395 452.114502
   vertex -4.846308 -231.665222 452.128113
   vertex -5.111787 -231.880569 452.112183
  endloop
 facet normal -0.630763 0.775409 0.029641
  outer loop
   vertex -5.111787 -231.880569 452.112183
   vertex -4.846308 -231.665222 452.128113
   vertex -4.840517 -231.647827 451.796295
  endloop
 facet normal -0.630761 0.775411 0.029644
  outer loop
   vertex -4.840517 -231.647827 451.796295
   vertex -5.105996 -231.863174 451.780396
   vertex -5.111787 -231.880569 452.112183
  endloop
 facet normal 0.017387 0.052286 -0.998481
  outer loop
   vertex -4.768830 -231.931000 451.782715
   vertex -5.105996 -231.863174 451.780396
   vertex -4.840517 -231.647827 451.796295
  endloop
 facet normal 0.017395 0.052327 -0.998478
  outer loop
   vertex -4.767756 -233.105316 451.721191
   vertex -5.105996 -231.863174 451.780396
   vertex -4.768830 -231.931000 451.782715
  endloop
 facet normal 0.999848 0.000000 0.017452
  outer loop
   vertex -4.768830 -231.931000 451.782715
   vertex -4.774621 -231.948395 452.114502
   vertex -4.767756 -233.105316 451.721191
  endloop
 facet normal 0.999848 -0.000000 0.017453
  outer loop
   vertex -4.767756 -233.105316 451.721191
   vertex -4.774621 -231.948395 452.114502
   vertex -4.773548 -233.122711 452.052979
  endloop
 facet normal -0.017395 -0.052327 0.998478
  outer loop
   vertex -4.773548 -233.122711 452.052979
   vertex -4.774621 -231.948395 452.114502
   vertex -5.111787 -231.880569 452.112183
  endloop
 facet normal -0.017429 -0.052336 0.998477
  outer loop
   vertex -5.111787 -231.880569 452.112183
   vertex -5.110152 -233.667938 452.018524
   vertex -4.773548 -233.122711 452.052979
  endloop
 facet normal -0.999848 0.000000 -0.017453
  outer loop
   vertex -5.104361 -233.650558 451.686737
   vertex -5.110152 -233.667938 452.018524
   vertex -5.111787 -231.880569 452.112183
  endloop
 facet normal 0.000913 -0.998631 -0.052295
  outer loop
   vertex -0.743011 -233.650558 451.762848
   vertex -5.110152 -233.667938 452.018524
   vertex -5.104361 -233.650558 451.686737
  endloop
 facet normal 0.017425 0.052329 -0.998478
  outer loop
   vertex -5.104361 -233.650558 451.686737
   vertex -2.940042 -233.105316 451.753082
   vertex -0.743011 -233.650558 451.762848
  endloop
 facet normal 0.017431 0.052355 -0.998476
  outer loop
   vertex -0.743011 -233.650558 451.762848
   vertex -2.940042 -233.105316 451.753082
   vertex -1.842443 -232.376572 451.810455
  endloop
 facet normal 0.017450 0.052327 -0.998478
  outer loop
   vertex -1.842443 -232.376572 451.810455
   vertex -2.940042 -233.105316 451.753082
   vertex -2.941117 -231.931000 451.814606
  endloop
 facet normal 0.017439 0.052301 -0.998479
  outer loop
   vertex -2.941117 -231.931000 451.814606
   vertex -0.744843 -231.647827 451.867798
   vertex -1.842443 -232.376572 451.810455
  endloop
 facet normal 0.017431 0.052359 -0.998476
  outer loop
   vertex -4.840517 -231.647827 451.796295
   vertex -0.744843 -231.647827 451.867798
   vertex -2.941117 -231.931000 451.814606
  endloop
 facet normal -0.000914 0.998629 0.052336
  outer loop
   vertex -4.846308 -231.665222 452.128113
   vertex -0.744843 -231.647827 451.867798
   vertex -4.840517 -231.647827 451.796295
  endloop
 facet normal -0.130204 0.051769 -0.990135
  outer loop
   vertex -6.637101 -233.210938 451.782074
   vertex -6.636043 -234.368057 451.721436
   vertex -6.736035 -233.211700 451.795044
  endloop
 facet normal -0.130212 0.051768 -0.990134
  outer loop
   vertex -6.736035 -233.211700 451.795044
   vertex -6.636043 -234.368057 451.721436
   vertex -6.734976 -234.368835 451.734406
  endloop
 facet normal -0.999848 0.000000 -0.017455
  outer loop
   vertex -6.734976 -234.368835 451.734406
   vertex -6.737747 -234.377151 451.893127
   vertex -6.736035 -233.211700 451.795044
  endloop
 facet normal 0.000998 -0.998631 -0.052305
  outer loop
   vertex -6.636043 -234.368057 451.721436
   vertex -6.737747 -234.377151 451.893127
   vertex -6.734976 -234.368835 451.734406
  endloop
 facet normal 0.000900 -0.998628 -0.052363
  outer loop
   vertex -6.655765 -234.380508 451.958557
   vertex -6.737747 -234.377151 451.893127
   vertex -6.636043 -234.368057 451.721436
  endloop
 facet normal 0.000913 -0.998628 -0.052362
  outer loop
   vertex -6.636043 -234.368057 451.721436
   vertex -5.814265 -234.380508 451.973236
   vertex -6.655765 -234.380508 451.958557
  endloop
 facet normal -0.017417 -0.052340 0.998477
  outer loop
   vertex -6.655765 -234.380508 451.958557
   vertex -5.814265 -234.380508 451.973236
   vertex -6.656823 -233.223373 452.019196
  endloop
 facet normal -0.017417 -0.052340 0.998477
  outer loop
   vertex -6.656823 -233.223373 452.019196
   vertex -5.814265 -234.380508 451.973236
   vertex -5.815323 -233.223373 452.033875
  endloop
 facet normal -0.000912 0.998631 0.052298
  outer loop
   vertex -5.815323 -233.223373 452.033875
   vertex -6.637101 -233.210938 451.782074
   vertex -6.656823 -233.223373 452.019196
  endloop
 facet normal -0.000922 0.998630 0.052328
  outer loop
   vertex -5.786340 -233.136337 450.373383
   vertex -6.637101 -233.210938 451.782074
   vertex -5.815323 -233.223373 452.033875
  endloop
 facet normal -0.000924 0.998630 0.052326
  outer loop
   vertex -6.616405 -233.148788 450.596344
   vertex -6.637101 -233.210938 451.782074
   vertex -5.786340 -233.136337 450.373383
  endloop
 facet normal -0.000913 0.998627 0.052367
  outer loop
   vertex -5.786340 -233.136337 450.373383
   vertex -6.627840 -233.136337 450.358704
   vertex -6.616405 -233.148788 450.596344
  endloop
 facet normal -0.000923 0.998627 0.052368
  outer loop
   vertex -6.616405 -233.148788 450.596344
   vertex -6.627840 -233.136337 450.358704
   vertex -6.712055 -233.139694 450.421234
  endloop
 facet normal -0.596696 0.041450 -0.801396
  outer loop
   vertex -6.712055 -233.139694 450.421234
   vertex -6.627840 -233.136337 450.358704
   vertex -6.710997 -234.296829 450.360596
  endloop
 facet normal -0.999848 -0.000000 -0.017452
  outer loop
   vertex -6.710997 -234.296829 450.360596
   vertex -6.714826 -233.148010 450.579956
   vertex -6.712055 -233.139694 450.421234
  endloop
 facet normal -0.999848 -0.000000 -0.017452
  outer loop
   vertex -6.713767 -234.305145 450.519318
   vertex -6.714826 -233.148010 450.579956
   vertex -6.710997 -234.296829 450.360596
  endloop
 facet normal -0.164425 -0.051770 0.985030
  outer loop
   vertex -6.616405 -233.148788 450.596344
   vertex -6.714826 -233.148010 450.579956
   vertex -6.713767 -234.305145 450.519318
  endloop
 facet normal -0.164715 -0.051742 0.984983
  outer loop
   vertex -6.713767 -234.305145 450.519318
   vertex -6.615346 -234.305908 450.535736
   vertex -6.616405 -233.148788 450.596344
  endloop
 facet normal -0.999848 -0.000000 -0.017453
  outer loop
   vertex -6.616405 -233.148788 450.596344
   vertex -6.615346 -234.305908 450.535736
   vertex -6.636043 -234.368057 451.721436
  endloop
 facet normal 0.000904 -0.998630 -0.052328
  outer loop
   vertex -6.636043 -234.368057 451.721436
   vertex -6.615346 -234.305908 450.535736
   vertex -5.785281 -234.293472 450.312744
  endloop
 facet normal 0.000903 -0.998630 -0.052328
  outer loop
   vertex -5.785281 -234.293472 450.312744
   vertex -5.814265 -234.380508 451.973236
   vertex -6.636043 -234.368057 451.721436
  endloop
 facet normal 0.000916 -0.998630 -0.052328
  outer loop
   vertex -5.074724 -234.367355 451.735168
   vertex -5.814265 -234.380508 451.973236
   vertex -5.785281 -234.293472 450.312744
  endloop
 facet normal 0.306849 -0.049528 0.950469
  outer loop
   vertex -5.815323 -233.223373 452.033875
   vertex -5.814265 -234.380508 451.973236
   vertex -5.074724 -234.367355 451.735168
  endloop
 facet normal 0.306849 -0.049528 0.950469
  outer loop
   vertex -5.074724 -234.367355 451.735168
   vertex -5.075782 -233.210220 451.795807
   vertex -5.815323 -233.223373 452.033875
  endloop
 facet normal -0.000917 0.998630 0.052326
  outer loop
   vertex -5.815323 -233.223373 452.033875
   vertex -5.075782 -233.210220 451.795807
   vertex -5.055558 -233.149490 450.637146
  endloop
 facet normal 0.999848 0.000000 0.017452
  outer loop
   vertex -5.055558 -233.149490 450.637146
   vertex -5.075782 -233.210220 451.795807
   vertex -5.074724 -234.367355 451.735168
  endloop
 facet normal 0.999848 -0.000000 0.017452
  outer loop
   vertex -5.074724 -234.367355 451.735168
   vertex -5.054500 -234.306625 450.576508
   vertex -5.055558 -233.149490 450.637146
  endloop
 facet normal 0.000912 -0.998630 -0.052326
  outer loop
   vertex -5.785281 -234.293472 450.312744
   vertex -5.054500 -234.306625 450.576508
   vertex -5.074724 -234.367355 451.735168
  endloop
 facet normal 0.339868 0.049527 -0.939168
  outer loop
   vertex -5.055558 -233.149490 450.637146
   vertex -5.054500 -234.306625 450.576508
   vertex -5.785281 -234.293472 450.312744
  endloop
 facet normal 0.339868 0.049527 -0.939168
  outer loop
   vertex -5.785281 -234.293472 450.312744
   vertex -5.786340 -233.136337 450.373383
   vertex -5.055558 -233.149490 450.637146
  endloop
 facet normal -0.000913 0.998630 0.052328
  outer loop
   vertex -5.055558 -233.149490 450.637146
   vertex -5.786340 -233.136337 450.373383
   vertex -5.815323 -233.223373 452.033875
  endloop
 facet normal 0.000913 -0.998630 -0.052328
  outer loop
   vertex -5.808252 -240.954666 451.628754
   vertex -5.779268 -240.867630 449.968262
   vertex -5.048487 -240.880783 450.232025
  endloop
 facet normal 0.339868 0.049527 -0.939168
  outer loop
   vertex -5.048487 -240.880783 450.232025
   vertex -5.779268 -240.867630 449.968262
   vertex -5.780327 -239.710495 450.028900
  endloop
 facet normal 0.339868 0.049527 -0.939168
  outer loop
   vertex -5.780327 -239.710495 450.028900
   vertex -5.049545 -239.723648 450.292664
   vertex -5.048487 -240.880783 450.232025
  endloop
 facet normal -0.000912 0.998630 0.052326
  outer loop
   vertex -5.069769 -239.784378 451.451324
   vertex -5.049545 -239.723648 450.292664
   vertex -5.780327 -239.710495 450.028900
  endloop
 facet normal 0.999848 -0.000000 0.017452
  outer loop
   vertex -5.048487 -240.880783 450.232025
   vertex -5.049545 -239.723648 450.292664
   vertex -5.069769 -239.784378 451.451324
  endloop
 facet normal 0.999848 0.000000 0.017452
  outer loop
   vertex -5.069769 -239.784378 451.451324
   vertex -5.068711 -240.941513 451.390686
   vertex -5.048487 -240.880783 450.232025
  endloop
 facet normal 0.000917 -0.998630 -0.052326
  outer loop
   vertex -5.048487 -240.880783 450.232025
   vertex -5.068711 -240.941513 451.390686
   vertex -5.808252 -240.954666 451.628754
  endloop
 facet normal 0.306849 -0.049528 0.950469
  outer loop
   vertex -5.808252 -240.954666 451.628754
   vertex -5.068711 -240.941513 451.390686
   vertex -5.069769 -239.784378 451.451324
  endloop
 facet normal 0.306849 -0.049528 0.950469
  outer loop
   vertex -5.069769 -239.784378 451.451324
   vertex -5.809310 -239.797531 451.689392
   vertex -5.808252 -240.954666 451.628754
  endloop
 facet normal -0.000916 0.998630 0.052328
  outer loop
   vertex -5.780327 -239.710495 450.028900
   vertex -5.809310 -239.797531 451.689392
   vertex -5.069769 -239.784378 451.451324
  endloop
 facet normal -0.000922 0.998630 0.052328
  outer loop
   vertex -6.631088 -239.785095 451.437592
   vertex -5.809310 -239.797531 451.689392
   vertex -5.780327 -239.710495 450.028900
  endloop
 facet normal -0.000924 0.998630 0.052326
  outer loop
   vertex -5.780327 -239.710495 450.028900
   vertex -6.610392 -239.722946 450.251862
   vertex -6.631088 -239.785095 451.437592
  endloop
 facet normal -0.999848 -0.000000 -0.017452
  outer loop
   vertex -6.631088 -239.785095 451.437592
   vertex -6.610392 -239.722946 450.251862
   vertex -6.609334 -240.880066 450.191254
  endloop
 facet normal -0.164425 -0.051745 0.985031
  outer loop
   vertex -6.609334 -240.880066 450.191254
   vertex -6.610392 -239.722946 450.251862
   vertex -6.708813 -239.722168 450.235474
  endloop
 facet normal -0.164715 -0.051768 0.984982
  outer loop
   vertex -6.708813 -239.722168 450.235474
   vertex -6.707754 -240.879303 450.174835
   vertex -6.609334 -240.880066 450.191254
  endloop
 facet normal -0.999848 0.000000 -0.017455
  outer loop
   vertex -6.706042 -239.713852 450.076752
   vertex -6.707754 -240.879303 450.174835
   vertex -6.708813 -239.722168 450.235474
  endloop
 facet normal -0.999848 0.000000 -0.017452
  outer loop
   vertex -6.704984 -240.870972 450.016113
   vertex -6.707754 -240.879303 450.174835
   vertex -6.706042 -239.713852 450.076752
  endloop
 facet normal -0.596691 0.041451 -0.801400
  outer loop
   vertex -6.706042 -239.713852 450.076752
   vertex -6.620769 -240.867630 449.953583
   vertex -6.704984 -240.870972 450.016113
  endloop
 facet normal 0.000799 -0.998632 -0.052291
  outer loop
   vertex -6.704984 -240.870972 450.016113
   vertex -6.620769 -240.867630 449.953583
   vertex -6.609334 -240.880066 450.191254
  endloop
 facet normal 0.000912 -0.998631 -0.052296
  outer loop
   vertex -6.609334 -240.880066 450.191254
   vertex -6.620769 -240.867630 449.953583
   vertex -5.779268 -240.867630 449.968262
  endloop
 facet normal 0.000904 -0.998630 -0.052328
  outer loop
   vertex -5.779268 -240.867630 449.968262
   vertex -6.630030 -240.942215 451.376953
   vertex -6.609334 -240.880066 450.191254
  endloop
 facet normal 0.000903 -0.998630 -0.052328
  outer loop
   vertex -5.808252 -240.954666 451.628754
   vertex -6.630030 -240.942215 451.376953
   vertex -5.779268 -240.867630 449.968262
  endloop
 facet normal 0.000913 -0.998628 -0.052362
  outer loop
   vertex -6.649752 -240.954666 451.614075
   vertex -6.630030 -240.942215 451.376953
   vertex -5.808252 -240.954666 451.628754
  endloop
 facet normal -0.017417 -0.052340 0.998477
  outer loop
   vertex -5.808252 -240.954666 451.628754
   vertex -5.809310 -239.797531 451.689392
   vertex -6.649752 -240.954666 451.614075
  endloop
 facet normal -0.017417 -0.052340 0.998477
  outer loop
   vertex -6.649752 -240.954666 451.614075
   vertex -5.809310 -239.797531 451.689392
   vertex -6.650810 -239.797531 451.674713
  endloop
 facet normal -0.000912 0.998631 0.052298
  outer loop
   vertex -6.650810 -239.797531 451.674713
   vertex -5.809310 -239.797531 451.689392
   vertex -6.631088 -239.785095 451.437592
  endloop
 facet normal -0.000852 0.998631 0.052303
  outer loop
   vertex -6.631088 -239.785095 451.437592
   vertex -6.732792 -239.794174 451.609283
   vertex -6.650810 -239.797531 451.674713
  endloop
 facet normal -0.000844 0.998631 0.052307
  outer loop
   vertex -6.730022 -239.785858 451.450562
   vertex -6.732792 -239.794174 451.609283
   vertex -6.631088 -239.785095 451.437592
  endloop
 facet normal -0.999848 -0.000000 -0.017452
  outer loop
   vertex -6.728963 -240.942993 451.389923
   vertex -6.732792 -239.794174 451.609283
   vertex -6.730022 -239.785858 451.450562
  endloop
 facet normal -0.130204 0.051768 -0.990135
  outer loop
   vertex -6.730022 -239.785858 451.450562
   vertex -6.631088 -239.785095 451.437592
   vertex -6.728963 -240.942993 451.389923
  endloop
 facet normal -0.130212 0.051769 -0.990134
  outer loop
   vertex -6.728963 -240.942993 451.389923
   vertex -6.631088 -239.785095 451.437592
   vertex -6.630030 -240.942215 451.376953
  endloop
 facet normal -0.999848 0.000000 -0.017453
  outer loop
   vertex -6.630030 -240.942215 451.376953
   vertex -6.631088 -239.785095 451.437592
   vertex -6.609334 -240.880066 450.191254
  endloop
 facet normal -0.017418 -0.052353 0.998477
  outer loop
   vertex -2.945834 -233.122711 452.084869
   vertex -0.750634 -231.665222 452.199585
   vertex -2.946908 -231.948395 452.146423
  endloop
 facet normal -0.017424 -0.052310 0.998479
  outer loop
   vertex -2.946908 -231.948395 452.146423
   vertex -0.750634 -231.665222 452.199585
   vertex -4.846308 -231.665222 452.128113
  endloop
 facet normal 0.000900 -0.998628 -0.052363
  outer loop
   vertex -6.649752 -240.954666 451.614075
   vertex -6.731734 -240.951309 451.548645
   vertex -6.630030 -240.942215 451.376953
  endloop
 facet normal 0.000998 -0.998631 -0.052305
  outer loop
   vertex -6.630030 -240.942215 451.376953
   vertex -6.731734 -240.951309 451.548645
   vertex -6.728963 -240.942993 451.389923
  endloop
 facet normal -0.001026 0.998632 0.052288
  outer loop
   vertex -6.656823 -233.223373 452.019196
   vertex -6.637101 -233.210938 451.782074
   vertex -6.738805 -233.220032 451.953766
  endloop
 facet normal -0.000831 0.998626 0.052403
  outer loop
   vertex -6.738805 -233.220032 451.953766
   vertex -6.637101 -233.210938 451.782074
   vertex -6.736035 -233.211700 451.795044
  endloop
 facet normal 0.001000 -0.998626 -0.052400
  outer loop
   vertex -6.704984 -240.870972 450.016113
   vertex -6.609334 -240.880066 450.191254
   vertex -6.707754 -240.879303 450.174835
  endloop
 facet normal -0.000814 0.998631 0.052308
  outer loop
   vertex -6.712055 -233.139694 450.421234
   vertex -6.714826 -233.148010 450.579956
   vertex -6.616405 -233.148788 450.596344
  endloop
 facet normal 0.017434 0.052340 -0.998477
  outer loop
   vertex -0.734922 -242.494980 451.299408
   vertex -1.833854 -241.766235 451.318420
   vertex -0.736753 -240.492249 451.404358
  endloop
 facet normal -0.999848 0.000000 -0.017452
  outer loop
   vertex -6.616405 -233.148788 450.596344
   vertex -6.636043 -234.368057 451.721436
   vertex -6.637101 -233.210938 451.782074
  endloop
 facet normal -0.999848 0.000016 -0.017408
  outer loop
   vertex -5.066625 -233.273163 450.729065
   vertex -5.066328 -233.603439 450.711731
   vertex -5.089379 -233.341721 452.035919
  endloop
 facet normal -0.999848 -0.000019 -0.017410
  outer loop
   vertex -5.059770 -240.767410 450.336365
   vertex -5.082525 -240.835861 451.643219
   vertex -5.060078 -240.437134 450.353668
  endloop
 facet normal 0.017694 0.052336 -0.998473
  outer loop
   vertex -5.794252 -239.971466 450.061584
   vertex -5.864858 -239.971466 450.060333
   vertex -5.870286 -234.037369 450.371277
  endloop
 facet normal 0.000900 -0.998628 -0.052349
  outer loop
   vertex -5.066328 -233.603439 450.711731
   vertex -0.748904 -233.672028 452.094330
   vertex -5.089139 -233.671967 452.018585
  endloop
 facet normal -0.017422 -0.052312 0.998479
  outer loop
   vertex -5.103894 -240.509644 451.660004
   vertex -4.766293 -241.054871 451.637329
   vertex -2.938579 -241.054871 451.669220
  endloop
endsolid