solid stl file generated from DOUG
 facet normal -0.112731 -0.541868 0.832869
  outer loop
   vertex 38.053650 -220.311279 426.469360
   vertex 38.172195 -220.263565 426.516449
   vertex 30.181210 -207.522736 433.724091
  endloop
 facet normal 0.633414 -0.039899 0.772783
  outer loop
   vertex 30.181210 -207.522736 433.724091
   vertex 38.172195 -220.263565 426.516449
   vertex 30.243647 -207.456558 433.676331
  endloop
 facet normal 0.865021 0.494496 0.084922
  outer loop
   vertex 29.391508 -208.281799 434.190338
   vertex 29.411777 -208.338257 434.312622
   vertex 37.402763 -221.079086 427.104980
  endloop
 facet normal 0.633414 -0.039899 0.772783
  outer loop
   vertex 37.402763 -221.079086 427.104980
   vertex 29.411777 -208.338257 434.312622
   vertex 29.349340 -208.404434 434.360382
  endloop
 facet normal 0.633407 -0.039906 0.772789
  outer loop
   vertex 29.349340 -208.404434 434.360382
   vertex 37.340324 -221.145264 427.152740
   vertex 37.402763 -221.079086 427.104980
  endloop
 facet normal 0.373355 -0.268223 0.888066
  outer loop
   vertex 28.885231 -208.375183 433.794128
   vertex 36.876217 -221.116013 426.586487
   vertex 28.911974 -208.355438 433.788849
  endloop
 facet normal 0.373435 -0.268165 0.888051
  outer loop
   vertex 28.911974 -208.355438 433.788849
   vertex 36.876217 -221.116013 426.586487
   vertex 36.902962 -221.096252 426.581207
  endloop
 facet normal -0.607644 -0.644029 0.464753
  outer loop
   vertex 36.902962 -221.096252 426.581207
   vertex 37.267265 -221.119217 427.025696
   vertex 28.911974 -208.355438 433.788849
  endloop
 facet normal -0.112730 -0.541868 0.832869
  outer loop
   vertex 30.181210 -207.522736 433.724091
   vertex 30.062662 -207.570450 433.677002
   vertex 38.053650 -220.311279 426.469360
  endloop
 facet normal 0.633393 -0.039921 0.772800
  outer loop
   vertex 38.053650 -220.311279 426.469360
   vertex 30.062662 -207.570450 433.677002
   vertex 29.391508 -208.281799 434.190338
  endloop
 facet normal 0.633393 -0.039921 0.772800
  outer loop
   vertex 29.391508 -208.281799 434.190338
   vertex 37.382496 -221.022629 426.982697
   vertex 38.053650 -220.311279 426.469360
  endloop
 facet normal 0.865023 0.494491 0.084933
  outer loop
   vertex 37.402763 -221.079086 427.104980
   vertex 37.382496 -221.022629 426.982697
   vertex 29.391508 -208.281799 434.190338
  endloop
 facet normal -0.607665 -0.644027 0.464728
  outer loop
   vertex 37.340324 -221.145264 427.152740
   vertex 29.349340 -208.404434 434.360382
   vertex 37.255817 -221.139938 427.049622
  endloop
 facet normal -0.607665 -0.644027 0.464728
  outer loop
   vertex 37.255817 -221.139938 427.049622
   vertex 29.349340 -208.404434 434.360382
   vertex 29.264833 -208.399109 434.257263
  endloop
 facet normal -0.809126 -0.193608 -0.554826
  outer loop
   vertex 29.264833 -208.399109 434.257263
   vertex 37.267265 -221.119217 427.025696
   vertex 37.255817 -221.139938 427.049622
  endloop
 facet normal -0.809157 -0.193665 -0.554760
  outer loop
   vertex 29.276278 -208.378387 434.233337
   vertex 37.267265 -221.119217 427.025696
   vertex 29.264833 -208.399109 434.257263
  endloop
 facet normal -0.607634 -0.644029 0.464766
  outer loop
   vertex 28.911974 -208.355438 433.788849
   vertex 37.267265 -221.119217 427.025696
   vertex 29.276278 -208.378387 434.233337
  endloop
 facet normal -0.479155 0.763952 0.432190
  outer loop
   vertex 30.090172 -207.166229 433.841339
   vertex 28.642782 -208.102509 433.891663
   vertex 29.175156 -208.136063 434.541199
  endloop
 facet normal -0.607638 -0.644027 0.464763
  outer loop
   vertex 29.175156 -208.136063 434.541199
   vertex 28.642782 -208.102509 433.891663
   vertex 29.654306 -208.900009 434.109039
  endloop
 facet normal 0.633396 -0.039898 0.772798
  outer loop
   vertex 29.654306 -208.900009 434.109039
   vertex 30.569323 -207.930191 433.409149
   vertex 29.175156 -208.136063 434.541199
  endloop
 facet normal 0.479154 -0.763963 -0.432171
  outer loop
   vertex 29.121935 -208.866470 433.459503
   vertex 30.569323 -207.930191 433.409149
   vertex 29.654306 -208.900009 434.109039
  endloop
 facet normal 0.479150 -0.763958 -0.432185
  outer loop
   vertex 30.036951 -207.896637 432.759613
   vertex 30.569323 -207.930191 433.409149
   vertex 29.121935 -208.866470 433.459503
  endloop
 facet normal -0.633396 0.039896 -0.772799
  outer loop
   vertex 29.121935 -208.866470 433.459503
   vertex 28.642782 -208.102509 433.891663
   vertex 30.036951 -207.896637 432.759613
  endloop
 facet normal -0.633397 0.039925 -0.772796
  outer loop
   vertex 30.036951 -207.896637 432.759613
   vertex 28.642782 -208.102509 433.891663
   vertex 29.557798 -207.132690 433.191803
  endloop
 facet normal -0.479159 0.763958 0.432175
  outer loop
   vertex 29.557798 -207.132690 433.191803
   vertex 28.642782 -208.102509 433.891663
   vertex 30.090172 -207.166229 433.841339
  endloop
 facet normal 0.607629 0.644031 -0.464771
  outer loop
   vertex 30.090172 -207.166229 433.841339
   vertex 30.569323 -207.930191 433.409149
   vertex 29.557798 -207.132690 433.191803
  endloop
 facet normal 0.633398 -0.039925 0.772796
  outer loop
   vertex 29.175156 -208.136063 434.541199
   vertex 30.569323 -207.930191 433.409149
   vertex 30.090172 -207.166229 433.841339
  endloop
 facet normal -0.479149 0.763957 0.432187
  outer loop
   vertex 37.038349 -220.673126 427.448822
   vertex 37.953365 -219.703308 426.748962
   vertex 36.505974 -220.639572 426.799286
  endloop
 facet normal -0.479149 0.763957 0.432187
  outer loop
   vertex 36.505974 -220.639572 426.799286
   vertex 37.953365 -219.703308 426.748962
   vertex 37.420990 -219.669754 426.099426
  endloop
 facet normal -0.633397 0.039925 -0.772796
  outer loop
   vertex 37.420990 -219.669754 426.099426
   vertex 37.900143 -220.433716 425.667236
   vertex 36.505974 -220.639572 426.799286
  endloop
 facet normal 0.607635 0.644031 -0.464762
  outer loop
   vertex 37.953365 -219.703308 426.748962
   vertex 37.900143 -220.433716 425.667236
   vertex 37.420990 -219.669754 426.099426
  endloop
 facet normal 0.607637 0.644029 -0.464761
  outer loop
   vertex 38.432514 -220.467270 426.316772
   vertex 37.900143 -220.433716 425.667236
   vertex 37.953365 -219.703308 426.748962
  endloop
 facet normal 0.633408 -0.039916 0.772788
  outer loop
   vertex 37.953365 -219.703308 426.748962
   vertex 37.517498 -221.437088 427.016663
   vertex 38.432514 -220.467270 426.316772
  endloop
 facet normal 0.479145 -0.763963 -0.432181
  outer loop
   vertex 38.432514 -220.467270 426.316772
   vertex 37.517498 -221.437088 427.016663
   vertex 37.900143 -220.433716 425.667236
  endloop
 facet normal 0.479145 -0.763963 -0.432181
  outer loop
   vertex 37.900143 -220.433716 425.667236
   vertex 37.517498 -221.437088 427.016663
   vertex 36.985126 -221.403534 426.367126
  endloop
 facet normal -0.633395 0.039897 -0.772799
  outer loop
   vertex 36.985126 -221.403534 426.367126
   vertex 36.505974 -220.639572 426.799286
   vertex 37.900143 -220.433716 425.667236
  endloop
 facet normal -0.607643 -0.644020 0.464766
  outer loop
   vertex 37.517498 -221.437088 427.016663
   vertex 36.505974 -220.639572 426.799286
   vertex 36.985126 -221.403534 426.367126
  endloop
 facet normal -0.607643 -0.644019 0.464769
  outer loop
   vertex 37.038349 -220.673126 427.448822
   vertex 36.505974 -220.639572 426.799286
   vertex 37.517498 -221.437088 427.016663
  endloop
 facet normal 0.633387 -0.039908 0.772805
  outer loop
   vertex 37.517498 -221.437088 427.016663
   vertex 37.953365 -219.703308 426.748962
   vertex 37.038349 -220.673126 427.448822
  endloop
 facet normal 0.633407 -0.039906 0.772789
  outer loop
   vertex 38.172195 -220.263565 426.516449
   vertex 38.234634 -220.197388 426.468689
   vertex 30.243647 -207.456558 433.676331
  endloop
 facet normal 0.607598 0.644031 -0.464811
  outer loop
   vertex 30.243647 -207.456558 433.676331
   vertex 38.234634 -220.197388 426.468689
   vertex 38.150127 -220.192062 426.365601
  endloop
 facet normal 0.607598 0.644031 -0.464811
  outer loop
   vertex 38.150127 -220.192062 426.365601
   vertex 30.159140 -207.451233 433.573242
   vertex 30.243647 -207.456558 433.676331
  endloop
 facet normal -0.372796 0.268637 -0.888177
  outer loop
   vertex 38.123383 -220.211823 426.370850
   vertex 30.159140 -207.451233 433.573242
   vertex 38.150127 -220.192062 426.365601
  endloop
 facet normal -0.373453 0.268153 -0.888047
  outer loop
   vertex 30.132397 -207.470993 433.578522
   vertex 30.159140 -207.451233 433.573242
   vertex 38.123383 -220.211823 426.370850
  endloop
 facet normal 0.607629 0.644030 -0.464772
  outer loop
   vertex 38.123383 -220.211823 426.370850
   vertex 37.759079 -220.188858 425.926392
   vertex 30.132397 -207.470993 433.578522
  endloop
 facet normal 0.607634 0.644029 -0.464766
  outer loop
   vertex 30.132397 -207.470993 433.578522
   vertex 37.759079 -220.188858 425.926392
   vertex 29.768093 -207.448044 433.134033
  endloop
 facet normal 0.809328 0.193974 0.554403
  outer loop
   vertex 29.768093 -207.448044 433.134033
   vertex 37.759079 -220.188858 425.926392
   vertex 37.770523 -220.168137 425.902435
  endloop
 facet normal 0.809142 0.193636 0.554793
  outer loop
   vertex 37.770523 -220.168137 425.902435
   vertex 29.779539 -207.427322 433.110107
   vertex 29.768093 -207.448044 433.134033
  endloop
 facet normal 0.607588 0.644033 -0.464821
  outer loop
   vertex 37.728596 -220.165497 425.851288
   vertex 29.779539 -207.427322 433.110107
   vertex 37.770523 -220.168137 425.902435
  endloop
 facet normal 0.607796 0.644019 -0.464569
  outer loop
   vertex 29.737608 -207.424667 433.058929
   vertex 29.779539 -207.427322 433.110107
   vertex 37.728596 -220.165497 425.851288
  endloop
 facet normal -0.633404 0.039910 -0.772792
  outer loop
   vertex 37.728596 -220.165497 425.851288
   vertex 36.834286 -221.113373 426.535339
   vertex 29.737608 -207.424667 433.058929
  endloop
 facet normal -0.633404 0.039910 -0.772791
  outer loop
   vertex 29.737608 -207.424667 433.058929
   vertex 36.834286 -221.113373 426.535339
   vertex 28.843300 -208.372543 433.742981
  endloop
 facet normal -0.607566 -0.644033 0.464849
  outer loop
   vertex 28.843300 -208.372543 433.742981
   vertex 36.834286 -221.113373 426.535339
   vertex 28.885231 -208.375183 433.794128
  endloop
 facet normal -0.607636 -0.644021 0.464775
  outer loop
   vertex 29.121935 -208.866470 433.459503
   vertex 29.654306 -208.900009 434.109039
   vertex 28.642782 -208.102509 433.891663
  endloop
 facet normal 0.607632 0.644039 -0.464756
  outer loop
   vertex 30.569323 -207.930191 433.409149
   vertex 30.036951 -207.896637 432.759613
   vertex 29.557798 -207.132690 433.191803
  endloop
 facet normal -0.607566 -0.644033 0.464849
  outer loop
   vertex 36.834286 -221.113373 426.535339
   vertex 36.876217 -221.116013 426.586487
   vertex 28.885231 -208.375183 433.794128
  endloop
 facet normal 0.915742 -0.400305 -0.034245
  outer loop
   vertex 36.628727 -220.533234 425.487122
   vertex 36.354691 -221.066284 424.390198
   vertex 36.701057 -220.363449 425.436615
  endloop
 facet normal 0.915744 -0.400300 -0.034249
  outer loop
   vertex 36.701057 -220.363449 425.436615
   vertex 36.354691 -221.066284 424.390198
   vertex 36.644012 -220.387131 424.188141
  endloop
 facet normal 0.972902 0.226021 -0.048741
  outer loop
   vertex 36.644012 -220.387131 424.188141
   vertex 36.660847 -220.181229 425.478973
   vertex 36.701057 -220.363449 425.436615
  endloop
 facet normal 0.972900 0.226032 -0.048743
  outer loop
   vertex 36.483173 -219.658295 424.357605
   vertex 36.660847 -220.181229 425.478973
   vertex 36.644012 -220.387131 424.188141
  endloop
 facet normal 0.671469 0.706638 0.223141
  outer loop
   vertex 36.531651 -220.093338 425.589417
   vertex 36.660847 -220.181229 425.478973
   vertex 36.483173 -219.658295 424.357605
  endloop
 facet normal 0.671458 0.706648 0.223145
  outer loop
   vertex 36.483173 -219.658295 424.357605
   vertex 35.966393 -219.306732 424.799316
   vertex 36.531651 -220.093338 425.589417
  endloop
 facet normal 0.188002 0.760000 0.622138
  outer loop
   vertex 36.531651 -220.093338 425.589417
   vertex 35.966393 -219.306732 424.799316
   vertex 36.389153 -220.151245 425.703217
  endloop
 facet normal 0.188024 0.760002 0.622129
  outer loop
   vertex 36.389153 -220.151245 425.703217
   vertex 35.966393 -219.306732 424.799316
   vertex 35.396389 -219.538361 425.254547
  endloop
 facet normal -0.194284 0.354791 0.914536
  outer loop
   vertex 35.396389 -219.538361 425.254547
   vertex 36.316818 -220.321045 425.753723
   vertex 36.389153 -220.151245 425.703217
  endloop
 facet normal -0.194250 0.354828 0.914530
  outer loop
   vertex 35.107067 -220.217529 425.456604
   vertex 36.316818 -220.321045 425.753723
   vertex 35.396389 -219.538361 425.254547
  endloop
 facet normal -0.251403 -0.271460 0.929035
  outer loop
   vertex 36.357029 -220.503250 425.711365
   vertex 36.316818 -220.321045 425.753723
   vertex 35.107067 -220.217529 425.456604
  endloop
 facet normal -0.251408 -0.271497 0.929023
  outer loop
   vertex 35.107067 -220.217529 425.456604
   vertex 35.267906 -220.946350 425.287140
   vertex 36.357029 -220.503250 425.711365
  endloop
 facet normal 0.050052 -0.752138 0.657102
  outer loop
   vertex 36.357029 -220.503250 425.711365
   vertex 35.267906 -220.946350 425.287140
   vertex 36.486225 -220.591141 425.600922
  endloop
 facet normal 0.050037 -0.752111 0.657134
  outer loop
   vertex 36.486225 -220.591141 425.600922
   vertex 35.267906 -220.946350 425.287140
   vertex 35.784687 -221.297928 424.845398
  endloop
 facet normal 0.533467 -0.805462 0.258155
  outer loop
   vertex 35.784687 -221.297928 424.845398
   vertex 36.628727 -220.533234 425.487122
   vertex 36.486225 -220.591141 425.600922
  endloop
 facet normal 0.533478 -0.805460 0.258139
  outer loop
   vertex 36.354691 -221.066284 424.390198
   vertex 36.628727 -220.533234 425.487122
   vertex 35.784687 -221.297928 424.845398
  endloop
 facet normal 0.675215 -0.459336 -0.577144
  outer loop
   vertex 29.503096 -208.211884 433.244843
   vertex 28.869698 -208.171967 432.472046
   vertex 29.575426 -208.042099 433.194336
  endloop
 facet normal 0.675215 -0.459336 -0.577144
  outer loop
   vertex 29.575426 -208.042099 433.194336
   vertex 28.869698 -208.171967 432.472046
   vertex 28.942028 -208.002182 432.421539
  endloop
 facet normal 0.744752 0.302623 -0.594781
  outer loop
   vertex 28.942028 -208.002182 432.421539
   vertex 29.535217 -207.859894 433.236694
   vertex 29.575426 -208.042099 433.194336
  endloop
 facet normal 0.744749 0.302630 -0.594780
  outer loop
   vertex 28.901817 -207.819977 432.463898
   vertex 29.535217 -207.859894 433.236694
   vertex 28.942028 -208.002182 432.421539
  endloop
 facet normal 0.378002 0.887371 -0.263983
  outer loop
   vertex 29.406021 -207.772003 433.347137
   vertex 29.535217 -207.859894 433.236694
   vertex 28.901817 -207.819977 432.463898
  endloop
 facet normal 0.378002 0.887371 -0.263983
  outer loop
   vertex 28.901817 -207.819977 432.463898
   vertex 28.772621 -207.732086 432.574341
   vertex 29.406021 -207.772003 433.347137
  endloop
 facet normal -0.210139 0.952268 0.221422
  outer loop
   vertex 29.406021 -207.772003 433.347137
   vertex 28.772621 -207.732086 432.574341
   vertex 29.263519 -207.829910 433.460938
  endloop
 facet normal -0.210141 0.952267 0.221423
  outer loop
   vertex 29.263519 -207.829910 433.460938
   vertex 28.772621 -207.732086 432.574341
   vertex 28.630121 -207.789993 432.688141
  endloop
 facet normal -0.675215 0.459336 0.577144
  outer loop
   vertex 28.630121 -207.789993 432.688141
   vertex 29.191189 -207.999695 433.511444
   vertex 29.263519 -207.829910 433.460938
  endloop
 facet normal -0.675215 0.459336 0.577144
  outer loop
   vertex 28.557791 -207.959778 432.738647
   vertex 29.191189 -207.999695 433.511444
   vertex 28.630121 -207.789993 432.688141
  endloop
 facet normal -0.744750 -0.302630 0.594779
  outer loop
   vertex 29.231400 -208.181900 433.469086
   vertex 29.191189 -207.999695 433.511444
   vertex 28.557791 -207.959778 432.738647
  endloop
 facet normal -0.744753 -0.302601 0.594791
  outer loop
   vertex 28.557791 -207.959778 432.738647
   vertex 28.598000 -208.141998 432.696289
   vertex 29.231400 -208.181900 433.469086
  endloop
 facet normal -0.378041 -0.887339 0.264035
  outer loop
   vertex 29.231400 -208.181900 433.469086
   vertex 28.598000 -208.141998 432.696289
   vertex 29.360596 -208.269806 433.358643
  endloop
 facet normal -0.378002 -0.887371 0.263983
  outer loop
   vertex 29.360596 -208.269806 433.358643
   vertex 28.598000 -208.141998 432.696289
   vertex 28.727196 -208.229889 432.585846
  endloop
 facet normal 0.210198 -0.952244 -0.221468
  outer loop
   vertex 28.727196 -208.229889 432.585846
   vertex 29.503096 -208.211884 433.244843
   vertex 29.360596 -208.269806 433.358643
  endloop
 facet normal 0.210196 -0.952245 -0.221467
  outer loop
   vertex 28.869698 -208.171967 432.472046
   vertex 29.503096 -208.211884 433.244843
   vertex 28.727196 -208.229889 432.585846
  endloop
 facet normal 0.675209 -0.459348 -0.577141
  outer loop
   vertex 28.602020 -208.705429 431.382874
   vertex 27.968620 -208.665512 430.610077
   vertex 28.891342 -208.026276 431.180817
  endloop
 facet normal 0.675209 -0.459348 -0.577141
  outer loop
   vertex 28.891342 -208.026276 431.180817
   vertex 27.968620 -208.665512 430.610077
   vertex 28.257942 -207.986359 430.408020
  endloop
 facet normal 0.744746 0.302646 -0.594777
  outer loop
   vertex 28.257942 -207.986359 430.408020
   vertex 28.730501 -207.297440 431.350281
   vertex 28.891342 -208.026276 431.180817
  endloop
 facet normal 0.744747 0.302644 -0.594776
  outer loop
   vertex 28.097103 -207.257523 430.577484
   vertex 28.730501 -207.297440 431.350281
   vertex 28.257942 -207.986359 430.408020
  endloop
 facet normal 0.378010 0.887366 -0.263989
  outer loop
   vertex 28.213718 -206.945877 431.792023
   vertex 28.730501 -207.297440 431.350281
   vertex 28.097103 -207.257523 430.577484
  endloop
 facet normal 0.378010 0.887366 -0.263989
  outer loop
   vertex 28.097103 -207.257523 430.577484
   vertex 27.580320 -206.905960 431.019226
   vertex 28.213718 -206.945877 431.792023
  endloop
 facet normal -0.210134 0.952270 0.221417
  outer loop
   vertex 28.213718 -206.945877 431.792023
   vertex 27.580320 -206.905960 431.019226
   vertex 27.643717 -207.177505 432.247253
  endloop
 facet normal -0.210134 0.952270 0.221417
  outer loop
   vertex 27.643717 -207.177505 432.247253
   vertex 27.580320 -206.905960 431.019226
   vertex 27.010317 -207.137589 431.474457
  endloop
 facet normal -0.675209 0.459348 0.577141
  outer loop
   vertex 27.010317 -207.137589 431.474457
   vertex 27.354395 -207.856659 432.449310
   vertex 27.643717 -207.177505 432.247253
  endloop
 facet normal -0.675217 0.459341 0.577138
  outer loop
   vertex 26.720995 -207.816757 431.676514
   vertex 27.354395 -207.856659 432.449310
   vertex 27.010317 -207.137589 431.474457
  endloop
 facet normal -0.744738 -0.302667 0.594775
  outer loop
   vertex 27.515234 -208.585495 432.279816
   vertex 27.354395 -207.856659 432.449310
   vertex 26.720995 -207.816757 431.676514
  endloop
 facet normal -0.744740 -0.302672 0.594770
  outer loop
   vertex 26.720995 -207.816757 431.676514
   vertex 26.881834 -208.545578 431.507019
   vertex 27.515234 -208.585495 432.279816
  endloop
 facet normal -0.378029 -0.887353 0.264006
  outer loop
   vertex 27.515234 -208.585495 432.279816
   vertex 26.881834 -208.545578 431.507019
   vertex 28.032017 -208.937073 431.838104
  endloop
 facet normal -0.378029 -0.887353 0.264006
  outer loop
   vertex 28.032017 -208.937073 431.838104
   vertex 26.881834 -208.545578 431.507019
   vertex 27.398617 -208.897156 431.065308
  endloop
 facet normal 0.210148 -0.952264 -0.221428
  outer loop
   vertex 27.398617 -208.897156 431.065308
   vertex 28.602020 -208.705429 431.382874
   vertex 28.032017 -208.937073 431.838104
  endloop
 facet normal 0.210148 -0.952264 -0.221428
  outer loop
   vertex 27.968620 -208.665512 430.610077
   vertex 28.602020 -208.705429 431.382874
   vertex 27.398617 -208.897156 431.065308
  endloop
 facet normal 0.915753 -0.400278 -0.034259
  outer loop
   vertex 28.876055 -208.172379 432.479797
   vertex 28.602020 -208.705429 431.382874
   vertex 28.948385 -208.002579 432.429291
  endloop
 facet normal 0.915745 -0.400298 -0.034243
  outer loop
   vertex 28.948385 -208.002579 432.429291
   vertex 28.602020 -208.705429 431.382874
   vertex 28.891342 -208.026276 431.180817
  endloop
 facet normal 0.972898 0.226040 -0.048742
  outer loop
   vertex 28.891342 -208.026276 431.180817
   vertex 28.908175 -207.820374 432.471649
   vertex 28.948385 -208.002579 432.429291
  endloop
 facet normal 0.972899 0.226034 -0.048742
  outer loop
   vertex 28.730501 -207.297440 431.350281
   vertex 28.908175 -207.820374 432.471649
   vertex 28.891342 -208.026276 431.180817
  endloop
 facet normal 0.671474 0.706634 0.223138
  outer loop
   vertex 28.778980 -207.732483 432.582092
   vertex 28.908175 -207.820374 432.471649
   vertex 28.730501 -207.297440 431.350281
  endloop
 facet normal 0.671463 0.706644 0.223142
  outer loop
   vertex 28.730501 -207.297440 431.350281
   vertex 28.213718 -206.945877 431.792023
   vertex 28.778980 -207.732483 432.582092
  endloop
 facet normal 0.188008 0.759991 0.622147
  outer loop
   vertex 28.778980 -207.732483 432.582092
   vertex 28.213718 -206.945877 431.792023
   vertex 28.636478 -207.790390 432.695892
  endloop
 facet normal 0.188034 0.759993 0.622137
  outer loop
   vertex 28.636478 -207.790390 432.695892
   vertex 28.213718 -206.945877 431.792023
   vertex 27.643717 -207.177505 432.247253
  endloop
 facet normal -0.194180 0.354901 0.914516
  outer loop
   vertex 27.643717 -207.177505 432.247253
   vertex 28.564148 -207.960190 432.746429
   vertex 28.636478 -207.790390 432.695892
  endloop
 facet normal -0.194244 0.354833 0.914529
  outer loop
   vertex 27.354395 -207.856659 432.449310
   vertex 28.564148 -207.960190 432.746429
   vertex 27.643717 -207.177505 432.247253
  endloop
 facet normal -0.251407 -0.271607 0.928991
  outer loop
   vertex 28.604359 -208.142395 432.704041
   vertex 28.564148 -207.960190 432.746429
   vertex 27.354395 -207.856659 432.449310
  endloop
 facet normal -0.251394 -0.271526 0.929018
  outer loop
   vertex 27.354395 -207.856659 432.449310
   vertex 27.515234 -208.585495 432.279816
   vertex 28.604359 -208.142395 432.704041
  endloop
 facet normal 0.050000 -0.752078 0.657175
  outer loop
   vertex 28.604359 -208.142395 432.704041
   vertex 27.515234 -208.585495 432.279816
   vertex 28.733555 -208.230286 432.593628
  endloop
 facet normal 0.050014 -0.752102 0.657146
  outer loop
   vertex 28.733555 -208.230286 432.593628
   vertex 27.515234 -208.585495 432.279816
   vertex 28.032017 -208.937073 431.838104
  endloop
 facet normal 0.533497 -0.805453 0.258119
  outer loop
   vertex 28.032017 -208.937073 431.838104
   vertex 28.876055 -208.172379 432.479797
   vertex 28.733555 -208.230286 432.593628
  endloop
 facet normal 0.533487 -0.805455 0.258135
  outer loop
   vertex 28.602020 -208.705429 431.382874
   vertex 28.876055 -208.172379 432.479797
   vertex 28.032017 -208.937073 431.838104
  endloop
 facet normal 0.675184 -0.459418 -0.577115
  outer loop
   vertex 37.255768 -220.572739 426.252167
   vertex 36.622368 -220.532837 425.479370
   vertex 37.328098 -220.402954 426.201630
  endloop
 facet normal 0.675193 -0.459385 -0.577130
  outer loop
   vertex 37.328098 -220.402954 426.201630
   vertex 36.622368 -220.532837 425.479370
   vertex 36.694698 -220.363037 425.428833
  endloop
 facet normal 0.744729 0.302721 -0.594759
  outer loop
   vertex 36.694698 -220.363037 425.428833
   vertex 37.287888 -220.220749 426.244019
   vertex 37.328098 -220.402954 426.201630
  endloop
 facet normal 0.744729 0.302721 -0.594759
  outer loop
   vertex 36.654488 -220.180832 425.471222
   vertex 37.287888 -220.220749 426.244019
   vertex 36.694698 -220.363037 425.428833
  endloop
 facet normal 0.378031 0.887352 -0.264008
  outer loop
   vertex 37.158691 -220.132858 426.354431
   vertex 37.287888 -220.220749 426.244019
   vertex 36.654488 -220.180832 425.471222
  endloop
 facet normal 0.378031 0.887352 -0.264008
  outer loop
   vertex 36.654488 -220.180832 425.471222
   vertex 36.525291 -220.092941 425.581635
   vertex 37.158691 -220.132858 426.354431
  endloop
 facet normal -0.210116 0.952277 0.221403
  outer loop
   vertex 37.158691 -220.132858 426.354431
   vertex 36.525291 -220.092941 425.581635
   vertex 37.016193 -220.190765 426.468262
  endloop
 facet normal -0.210116 0.952277 0.221403
  outer loop
   vertex 37.016193 -220.190765 426.468262
   vertex 36.525291 -220.092941 425.581635
   vertex 36.382793 -220.150848 425.695465
  endloop
 facet normal -0.675214 0.459336 0.577145
  outer loop
   vertex 36.382793 -220.150848 425.695465
   vertex 36.943863 -220.360550 426.518768
   vertex 37.016193 -220.190765 426.468262
  endloop
 facet normal -0.675214 0.459336 0.577145
  outer loop
   vertex 36.310463 -220.320633 425.745972
   vertex 36.943863 -220.360550 426.518768
   vertex 36.382793 -220.150848 425.695465
  endloop
 facet normal -0.744732 -0.302707 0.594762
  outer loop
   vertex 36.984070 -220.542755 426.476379
   vertex 36.943863 -220.360550 426.518768
   vertex 36.310463 -220.320633 425.745972
  endloop
 facet normal -0.744733 -0.302698 0.594766
  outer loop
   vertex 36.310463 -220.320633 425.745972
   vertex 36.350674 -220.502853 425.703583
   vertex 36.984070 -220.542755 426.476379
  endloop
 facet normal -0.378071 -0.887320 0.264058
  outer loop
   vertex 36.984070 -220.542755 426.476379
   vertex 36.350674 -220.502853 425.703583
   vertex 37.113266 -220.630661 426.365967
  endloop
 facet normal -0.378036 -0.887348 0.264012
  outer loop
   vertex 37.113266 -220.630661 426.365967
   vertex 36.350674 -220.502853 425.703583
   vertex 36.479866 -220.590744 425.593170
  endloop
 facet normal 0.210196 -0.952245 -0.221467
  outer loop
   vertex 36.479866 -220.590744 425.593170
   vertex 37.255768 -220.572739 426.252167
   vertex 37.113266 -220.630661 426.365967
  endloop
 facet normal 0.210149 -0.952268 -0.221411
  outer loop
   vertex 36.622368 -220.532837 425.479370
   vertex 37.255768 -220.572739 426.252167
   vertex 36.479866 -220.590744 425.593170
  endloop
 facet normal 0.210155 -0.952262 -0.221433
  outer loop
   vertex 35.784687 -221.297928 424.845398
   vertex 35.151291 -221.258011 424.072601
   vertex 36.354691 -221.066284 424.390198
  endloop
 facet normal 0.210155 -0.952261 -0.221434
  outer loop
   vertex 36.354691 -221.066284 424.390198
   vertex 35.151291 -221.258011 424.072601
   vertex 35.721291 -221.026367 423.617401
  endloop
 facet normal 0.675209 -0.459348 -0.577141
  outer loop
   vertex 35.721291 -221.026367 423.617401
   vertex 36.644012 -220.387131 424.188141
   vertex 36.354691 -221.066284 424.390198
  endloop
 facet normal 0.675209 -0.459348 -0.577141
  outer loop
   vertex 36.010612 -220.347214 423.415344
   vertex 36.644012 -220.387131 424.188141
   vertex 35.721291 -221.026367 423.617401
  endloop
 facet normal 0.744746 0.302644 -0.594777
  outer loop
   vertex 36.483173 -219.658295 424.357605
   vertex 36.644012 -220.387131 424.188141
   vertex 36.010612 -220.347214 423.415344
  endloop
 facet normal 0.744746 0.302644 -0.594777
  outer loop
   vertex 36.010612 -220.347214 423.415344
   vertex 35.849773 -219.618378 423.584808
   vertex 36.483173 -219.658295 424.357605
  endloop
 facet normal 0.378018 0.887360 -0.263997
  outer loop
   vertex 36.483173 -219.658295 424.357605
   vertex 35.849773 -219.618378 423.584808
   vertex 35.966393 -219.306732 424.799316
  endloop
 facet normal 0.378018 0.887360 -0.263997
  outer loop
   vertex 35.966393 -219.306732 424.799316
   vertex 35.849773 -219.618378 423.584808
   vertex 35.332993 -219.266815 424.026520
  endloop
 facet normal -0.210134 0.952270 0.221417
  outer loop
   vertex 35.332993 -219.266815 424.026520
   vertex 35.396389 -219.538361 425.254547
   vertex 35.966393 -219.306732 424.799316
  endloop
 facet normal -0.210157 0.952265 0.221417
  outer loop
   vertex 34.762989 -219.498459 424.481750
   vertex 35.396389 -219.538361 425.254547
   vertex 35.332993 -219.266815 424.026520
  endloop
 facet normal -0.675217 0.459341 0.577138
  outer loop
   vertex 35.107067 -220.217529 425.456604
   vertex 35.396389 -219.538361 425.254547
   vertex 34.762989 -219.498459 424.481750
  endloop
 facet normal -0.675209 0.459348 0.577141
  outer loop
   vertex 34.762989 -219.498459 424.481750
   vertex 34.473667 -220.177612 424.683807
   vertex 35.107067 -220.217529 425.456604
  endloop
 facet normal -0.744745 -0.302649 0.594776
  outer loop
   vertex 35.107067 -220.217529 425.456604
   vertex 34.473667 -220.177612 424.683807
   vertex 35.267906 -220.946350 425.287140
  endloop
 facet normal -0.744745 -0.302649 0.594776
  outer loop
   vertex 35.267906 -220.946350 425.287140
   vertex 34.473667 -220.177612 424.683807
   vertex 34.634506 -220.906433 424.514343
  endloop
 facet normal -0.378023 -0.887357 0.264001
  outer loop
   vertex 34.634506 -220.906433 424.514343
   vertex 35.784687 -221.297928 424.845398
   vertex 35.267906 -220.946350 425.287140
  endloop
 facet normal -0.378022 -0.887358 0.263999
  outer loop
   vertex 35.151291 -221.258011 424.072601
   vertex 35.784687 -221.297928 424.845398
   vertex 34.634506 -220.906433 424.514343
  endloop
endsolid