solid stl file generated from DOUG
 facet normal 0.864251 -0.501904 0.034107
  outer loop
   vertex 30.106619 -118.691673 438.309296
   vertex 30.126966 -118.647980 438.436676
   vertex 22.115702 -132.043762 444.310974
  endloop
 facet normal 0.633454 -0.039969 0.772748
  outer loop
   vertex 22.115702 -132.043762 444.310974
   vertex 30.126966 -118.647980 438.436676
   vertex 22.053364 -131.982681 444.365234
  endloop
 facet normal -0.112067 0.454522 0.883658
  outer loop
   vertex 22.765448 -132.743912 443.600464
   vertex 22.883917 -132.796341 443.642456
   vertex 30.895182 -119.400566 437.768158
  endloop
 facet normal 0.633311 -0.039829 0.772872
  outer loop
   vertex 30.895182 -119.400566 437.768158
   vertex 22.883917 -132.796341 443.642456
   vertex 22.946257 -132.857407 443.588226
  endloop
 facet normal 0.633456 -0.039969 0.772746
  outer loop
   vertex 22.946257 -132.857407 443.588226
   vertex 30.957520 -119.461639 437.713898
   vertex 30.895182 -119.400566 437.768158
  endloop
 facet normal 0.808773 -0.250302 0.532199
  outer loop
   vertex 22.482149 -132.828171 443.021973
   vertex 30.493412 -119.432388 437.147644
   vertex 22.470734 -132.809967 443.047882
  endloop
 facet normal 0.808974 -0.250624 0.531740
  outer loop
   vertex 22.470734 -132.809967 443.047882
   vertex 30.493412 -119.432388 437.147644
   vertex 30.481997 -119.414200 437.173584
  endloop
 facet normal 0.606679 -0.594329 -0.527933
  outer loop
   vertex 30.481997 -119.414200 437.173584
   vertex 30.846302 -119.437157 437.618073
   vertex 22.470734 -132.809967 443.047882
  endloop
 facet normal 0.864248 -0.501909 0.034092
  outer loop
   vertex 22.115702 -132.043762 444.310974
   vertex 22.095356 -132.087448 444.183594
   vertex 30.106619 -118.691673 438.309296
  endloop
 facet normal 0.633400 -0.039916 0.772794
  outer loop
   vertex 30.106619 -118.691673 438.309296
   vertex 22.095356 -132.087448 444.183594
   vertex 22.765448 -132.743912 443.600464
  endloop
 facet normal 0.633399 -0.039916 0.772795
  outer loop
   vertex 22.765448 -132.743912 443.600464
   vertex 30.776712 -119.348129 437.726166
   vertex 30.106619 -118.691673 438.309296
  endloop
 facet normal -0.112045 0.454512 0.883666
  outer loop
   vertex 30.895182 -119.400566 437.768158
   vertex 30.776712 -119.348129 437.726166
   vertex 22.765448 -132.743912 443.600464
  endloop
 facet normal 0.606632 -0.594327 -0.527990
  outer loop
   vertex 30.957520 -119.461639 437.713898
   vertex 22.946257 -132.857407 443.588226
   vertex 30.873013 -119.456314 437.610809
  endloop
 facet normal 0.606709 -0.594331 -0.527897
  outer loop
   vertex 30.873013 -119.456314 437.610809
   vertex 22.946257 -132.857407 443.588226
   vertex 22.861750 -132.852081 443.485107
  endloop
 facet normal -0.373757 -0.175839 -0.910707
  outer loop
   vertex 22.861750 -132.852081 443.485107
   vertex 30.846302 -119.437157 437.618073
   vertex 30.873013 -119.456314 437.610809
  endloop
 facet normal -0.373709 -0.175873 -0.910720
  outer loop
   vertex 22.835037 -132.832932 443.492371
   vertex 30.846302 -119.437157 437.618073
   vertex 22.861750 -132.852081 443.485107
  endloop
 facet normal 0.606675 -0.594329 -0.527938
  outer loop
   vertex 22.470734 -132.809967 443.047882
   vertex 30.846302 -119.437157 437.618073
   vertex 22.835037 -132.832932 443.492371
  endloop
 facet normal -0.480359 -0.803234 0.352236
  outer loop
   vertex 21.878750 -132.267807 444.517822
   vertex 22.259947 -133.129242 443.073273
   vertex 22.792318 -133.162781 443.722809
  endloop
 facet normal 0.606676 -0.594334 -0.527931
  outer loop
   vertex 22.792318 -133.162781 443.722809
   vertex 22.259947 -133.129242 443.073273
   vertex 23.272686 -132.359558 443.370575
  endloop
 facet normal 0.633402 -0.039917 0.772793
  outer loop
   vertex 23.272686 -132.359558 443.370575
   vertex 22.359118 -131.464569 444.165588
   vertex 22.792318 -133.162781 443.722809
  endloop
 facet normal 0.480373 0.803229 -0.352229
  outer loop
   vertex 22.740314 -132.326004 442.721039
   vertex 22.359118 -131.464569 444.165588
   vertex 23.272686 -132.359558 443.370575
  endloop
 facet normal 0.480358 0.803234 -0.352237
  outer loop
   vertex 21.826744 -131.431030 443.516052
   vertex 22.359118 -131.464569 444.165588
   vertex 22.740314 -132.326004 442.721039
  endloop
 facet normal -0.633402 0.039916 -0.772793
  outer loop
   vertex 22.740314 -132.326004 442.721039
   vertex 22.259947 -133.129242 443.073273
   vertex 21.826744 -131.431030 443.516052
  endloop
 facet normal -0.633401 0.039916 -0.772793
  outer loop
   vertex 21.826744 -131.431030 443.516052
   vertex 22.259947 -133.129242 443.073273
   vertex 21.346376 -132.234253 443.868286
  endloop
 facet normal -0.480372 -0.803229 0.352230
  outer loop
   vertex 21.346376 -132.234253 443.868286
   vertex 22.259947 -133.129242 443.073273
   vertex 21.878750 -132.267807 444.517822
  endloop
 facet normal -0.606673 0.594326 0.527944
  outer loop
   vertex 21.878750 -132.267807 444.517822
   vertex 22.359118 -131.464569 444.165588
   vertex 21.346376 -132.234253 443.868286
  endloop
 facet normal 0.633402 -0.039916 0.772792
  outer loop
   vertex 22.792318 -133.162781 443.722809
   vertex 22.359118 -131.464569 444.165588
   vertex 21.878750 -132.267807 444.517822
  endloop
 facet normal -0.480366 -0.803232 0.352232
  outer loop
   vertex 30.675465 -119.981239 437.942444
   vertex 29.761894 -119.086258 438.737457
   vertex 30.143093 -119.947693 437.292908
  endloop
 facet normal -0.480366 -0.803232 0.352232
  outer loop
   vertex 30.143093 -119.947693 437.292908
   vertex 29.761894 -119.086258 438.737457
   vertex 29.229523 -119.052711 438.087921
  endloop
 facet normal -0.633402 0.039916 -0.772793
  outer loop
   vertex 29.229523 -119.052711 438.087921
   vertex 29.709890 -118.249481 437.735687
   vertex 30.143093 -119.947693 437.292908
  endloop
 facet normal -0.606675 0.594330 0.527937
  outer loop
   vertex 29.761894 -119.086258 438.737457
   vertex 29.709890 -118.249481 437.735687
   vertex 29.229523 -119.052711 438.087921
  endloop
 facet normal -0.606675 0.594330 0.527937
  outer loop
   vertex 30.242262 -118.283028 438.385223
   vertex 29.709890 -118.249481 437.735687
   vertex 29.761894 -119.086258 438.737457
  endloop
 facet normal 0.633402 -0.039916 0.772793
  outer loop
   vertex 29.761894 -119.086258 438.737457
   vertex 31.155832 -119.178009 437.590210
   vertex 30.242262 -118.283028 438.385223
  endloop
 facet normal 0.480366 0.803232 -0.352232
  outer loop
   vertex 30.242262 -118.283028 438.385223
   vertex 31.155832 -119.178009 437.590210
   vertex 29.709890 -118.249481 437.735687
  endloop
 facet normal 0.480366 0.803231 -0.352233
  outer loop
   vertex 29.709890 -118.249481 437.735687
   vertex 31.155832 -119.178009 437.590210
   vertex 30.623459 -119.144463 436.940674
  endloop
 facet normal -0.633403 0.039915 -0.772792
  outer loop
   vertex 30.623459 -119.144463 436.940674
   vertex 30.143093 -119.947693 437.292908
   vertex 29.709890 -118.249481 437.735687
  endloop
 facet normal 0.606674 -0.594329 -0.527938
  outer loop
   vertex 31.155832 -119.178009 437.590210
   vertex 30.143093 -119.947693 437.292908
   vertex 30.623459 -119.144463 436.940674
  endloop
 facet normal 0.606675 -0.594330 -0.527937
  outer loop
   vertex 30.675465 -119.981239 437.942444
   vertex 30.143093 -119.947693 437.292908
   vertex 31.155832 -119.178009 437.590210
  endloop
 facet normal 0.633402 -0.039916 0.772793
  outer loop
   vertex 31.155832 -119.178009 437.590210
   vertex 29.761894 -119.086258 438.737457
   vertex 30.675465 -119.981239 437.942444
  endloop
 facet normal 0.633312 -0.039828 0.772871
  outer loop
   vertex 30.126966 -118.647980 438.436676
   vertex 30.064627 -118.586914 438.490906
   vertex 22.053364 -131.982681 444.365234
  endloop
 facet normal -0.606632 0.594327 0.527990
  outer loop
   vertex 22.053364 -131.982681 444.365234
   vertex 30.064627 -118.586914 438.490906
   vertex 29.980120 -118.581589 438.387817
  endloop
 facet normal -0.606709 0.594331 0.527897
  outer loop
   vertex 29.980120 -118.581589 438.387817
   vertex 21.968857 -131.977356 444.262115
   vertex 22.053364 -131.982681 444.365234
  endloop
 facet normal -0.808811 0.250364 -0.532112
  outer loop
   vertex 29.991535 -118.599777 438.361908
   vertex 21.968857 -131.977356 444.262115
   vertex 29.980120 -118.581589 438.387817
  endloop
 facet normal -0.808788 0.250327 -0.532164
  outer loop
   vertex 21.980270 -131.995560 444.236206
   vertex 21.968857 -131.977356 444.262115
   vertex 29.991535 -118.599777 438.361908
  endloop
 facet normal -0.606680 0.594329 0.527932
  outer loop
   vertex 29.991535 -118.599777 438.361908
   vertex 29.627232 -118.576820 437.917419
   vertex 21.980270 -131.995560 444.236206
  endloop
 facet normal -0.606675 0.594329 0.527938
  outer loop
   vertex 21.980270 -131.995560 444.236206
   vertex 29.627232 -118.576820 437.917419
   vertex 21.615967 -131.972595 443.791718
  endloop
 facet normal 0.373740 0.175851 0.910711
  outer loop
   vertex 21.615967 -131.972595 443.791718
   vertex 29.627232 -118.576820 437.917419
   vertex 29.600519 -118.557663 437.924683
  endloop
 facet normal 0.373709 0.175873 0.910720
  outer loop
   vertex 29.600519 -118.557663 437.924683
   vertex 21.589254 -131.953445 443.798981
   vertex 21.615967 -131.972595 443.791718
  endloop
 facet normal -0.606783 0.594336 0.527806
  outer loop
   vertex 29.558588 -118.555023 437.873505
   vertex 21.589254 -131.953445 443.798981
   vertex 29.600519 -118.557663 437.924683
  endloop
 facet normal -0.606629 0.594327 0.527994
  outer loop
   vertex 21.547323 -131.950806 443.747833
   vertex 21.589254 -131.953445 443.798981
   vertex 29.558588 -118.555023 437.873505
  endloop
 facet normal -0.633398 0.039912 -0.772796
  outer loop
   vertex 29.558588 -118.555023 437.873505
   vertex 30.451481 -119.429749 437.096497
   vertex 21.547323 -131.950806 443.747833
  endloop
 facet normal -0.633407 0.039923 -0.772789
  outer loop
   vertex 21.547323 -131.950806 443.747833
   vertex 30.451481 -119.429749 437.096497
   vertex 22.440218 -132.825516 442.970795
  endloop
 facet normal 0.606696 -0.594331 -0.527912
  outer loop
   vertex 22.440218 -132.825516 442.970795
   vertex 30.451481 -119.429749 437.096497
   vertex 22.482149 -132.828171 443.021973
  endloop
 facet normal 0.606673 -0.594326 -0.527943
  outer loop
   vertex 22.740314 -132.326004 442.721039
   vertex 23.272686 -132.359558 443.370575
   vertex 22.259947 -133.129242 443.073273
  endloop
 facet normal -0.606675 0.594334 0.527932
  outer loop
   vertex 22.359118 -131.464569 444.165588
   vertex 21.826744 -131.431030 443.516052
   vertex 21.346376 -132.234253 443.868286
  endloop
 facet normal 0.606629 -0.594327 -0.527994
  outer loop
   vertex 30.451481 -119.429749 437.096497
   vertex 30.493412 -119.432388 437.147644
   vertex 22.482149 -132.828171 443.021973
  endloop
 facet normal 0.534671 0.774197 0.338742
  outer loop
   vertex 29.352213 -119.025162 436.771729
   vertex 29.079088 -118.382828 435.734772
   vertex 29.209793 -118.978920 436.890839
  endloop
 facet normal 0.534711 0.774176 0.338727
  outer loop
   vertex 29.209793 -118.978920 436.890839
   vertex 29.079088 -118.382828 435.734772
   vertex 28.509409 -118.197830 436.211243
  endloop
 facet normal 0.051151 0.681244 0.730268
  outer loop
   vertex 28.509409 -118.197830 436.211243
   vertex 29.080452 -119.077393 436.991760
   vertex 29.209793 -118.978920 436.890839
  endloop
 facet normal 0.051145 0.681242 0.730270
  outer loop
   vertex 27.992048 -118.591728 436.614929
   vertex 29.080452 -119.077393 436.991760
   vertex 28.509409 -118.197830 436.211243
  endloop
 facet normal -0.251021 0.175993 0.951848
  outer loop
   vertex 29.039957 -119.262901 437.015381
   vertex 29.080452 -119.077393 436.991760
   vertex 27.992048 -118.591728 436.614929
  endloop
 facet normal -0.251044 0.175958 0.951849
  outer loop
   vertex 27.992048 -118.591728 436.614929
   vertex 27.830069 -119.333771 436.709381
   vertex 29.039957 -119.262901 437.015381
  endloop
 facet normal -0.194861 -0.445748 0.873692
  outer loop
   vertex 29.039957 -119.262901 437.015381
   vertex 27.830069 -119.333771 436.709381
   vertex 29.112028 -119.426781 436.947845
  endloop
 facet normal -0.194860 -0.445782 0.873675
  outer loop
   vertex 29.112028 -119.426781 436.947845
   vertex 27.830069 -119.333771 436.709381
   vertex 28.118355 -119.989288 436.439209
  endloop
 facet normal 0.186769 -0.819640 0.541578
  outer loop
   vertex 28.118355 -119.989288 436.439209
   vertex 29.254448 -119.473030 436.828735
   vertex 29.112028 -119.426781 436.947845
  endloop
 facet normal 0.186784 -0.819654 0.541553
  outer loop
   vertex 28.688034 -120.174278 435.962738
   vertex 29.254448 -119.473030 436.828735
   vertex 28.118355 -119.989288 436.439209
  endloop
 facet normal 0.670346 -0.726725 0.150025
  outer loop
   vertex 29.383789 -119.374557 436.727814
   vertex 29.254448 -119.473030 436.828735
   vertex 28.688034 -120.174278 435.962738
  endloop
 facet normal 0.670348 -0.726724 0.150022
  outer loop
   vertex 28.688034 -120.174278 435.962738
   vertex 29.205395 -119.780388 435.559052
   vertex 29.383789 -119.374557 436.727814
  endloop
 facet normal 0.972553 -0.221403 -0.071568
  outer loop
   vertex 29.383789 -119.374557 436.727814
   vertex 29.205395 -119.780388 435.559052
   vertex 29.424284 -119.189041 436.704193
  endloop
 facet normal 0.972552 -0.221406 -0.071566
  outer loop
   vertex 29.424284 -119.189041 436.704193
   vertex 29.205395 -119.780388 435.559052
   vertex 29.367376 -119.038345 435.464630
  endloop
 facet normal 0.916367 0.400284 0.006593
  outer loop
   vertex 29.367376 -119.038345 435.464630
   vertex 29.352213 -119.025162 436.771729
   vertex 29.424284 -119.189041 436.704193
  endloop
 facet normal 0.916365 0.400289 0.006593
  outer loop
   vertex 29.079088 -118.382828 435.734772
   vertex 29.352213 -119.025162 436.771729
   vertex 29.367376 -119.038345 435.464630
  endloop
 facet normal 0.211633 0.969530 -0.123380
  outer loop
   vertex 22.206909 -132.060959 443.235870
   vertex 21.573509 -132.021042 442.463074
   vertex 22.064489 -132.014709 443.355011
  endloop
 facet normal 0.211633 0.969530 -0.123380
  outer loop
   vertex 22.064489 -132.014709 443.355011
   vertex 21.573509 -132.021042 442.463074
   vertex 21.431089 -131.974792 442.582214
  endloop
 facet normal -0.376639 0.856490 0.352941
  outer loop
   vertex 21.431089 -131.974792 442.582214
   vertex 21.935148 -132.113174 443.455933
   vertex 22.064489 -132.014709 443.355011
  endloop
 facet normal -0.376642 0.856488 0.352942
  outer loop
   vertex 21.301750 -132.073257 442.683136
   vertex 21.935148 -132.113174 443.455933
   vertex 21.431089 -131.974792 442.582214
  endloop
 facet normal -0.744337 0.241639 0.622553
  outer loop
   vertex 21.894653 -132.298691 443.479523
   vertex 21.935148 -132.113174 443.455933
   vertex 21.301750 -132.073257 442.683136
  endloop
 facet normal -0.744337 0.241639 0.622553
  outer loop
   vertex 21.301750 -132.073257 442.683136
   vertex 21.261255 -132.258774 442.706726
   vertex 21.894653 -132.298691 443.479523
  endloop
 facet normal -0.675966 -0.514650 0.527451
  outer loop
   vertex 21.894653 -132.298691 443.479523
   vertex 21.261255 -132.258774 442.706726
   vertex 21.966726 -132.462570 443.411987
  endloop
 facet normal -0.675968 -0.514644 0.527455
  outer loop
   vertex 21.966726 -132.462570 443.411987
   vertex 21.261255 -132.258774 442.706726
   vertex 21.333326 -132.422653 442.639191
  endloop
 facet normal -0.211647 -0.969526 0.123392
  outer loop
   vertex 21.333326 -132.422653 442.639191
   vertex 22.109146 -132.508820 443.292877
   vertex 21.966726 -132.462570 443.411987
  endloop
 facet normal -0.211647 -0.969526 0.123392
  outer loop
   vertex 21.475746 -132.468903 442.520081
   vertex 22.109146 -132.508820 443.292877
   vertex 21.333326 -132.422653 442.639191
  endloop
 facet normal 0.376688 -0.856453 -0.352979
  outer loop
   vertex 22.238485 -132.410339 443.191956
   vertex 22.109146 -132.508820 443.292877
   vertex 21.475746 -132.468903 442.520081
  endloop
 facet normal 0.376686 -0.856455 -0.352976
  outer loop
   vertex 21.475746 -132.468903 442.520081
   vertex 21.605087 -132.370422 442.419159
   vertex 22.238485 -132.410339 443.191956
  endloop
 facet normal 0.744312 -0.241754 -0.622539
  outer loop
   vertex 22.238485 -132.410339 443.191956
   vertex 21.605087 -132.370422 442.419159
   vertex 22.278980 -132.224838 443.168335
  endloop
 facet normal 0.744312 -0.241754 -0.622539
  outer loop
   vertex 22.278980 -132.224838 443.168335
   vertex 21.605087 -132.370422 442.419159
   vertex 21.645582 -132.184921 442.395538
  endloop
 facet normal 0.675969 0.514644 -0.527454
  outer loop
   vertex 21.645582 -132.184921 442.395538
   vertex 22.206909 -132.060959 443.235870
   vertex 22.278980 -132.224838 443.168335
  endloop
 facet normal 0.675966 0.514650 -0.527452
  outer loop
   vertex 21.573509 -132.021042 442.463074
   vertex 22.206909 -132.060959 443.235870
   vertex 21.645582 -132.184921 442.395538
  endloop
 facet normal 0.211644 0.969527 -0.123388
  outer loop
   vertex 21.306744 -131.379105 441.433868
   vertex 20.673346 -131.339188 440.661072
   vertex 20.737064 -131.194107 441.910339
  endloop
 facet normal 0.211644 0.969527 -0.123388
  outer loop
   vertex 20.737064 -131.194107 441.910339
   vertex 20.673346 -131.339188 440.661072
   vertex 20.103666 -131.154190 441.137543
  endloop
 facet normal -0.376654 0.856479 0.352952
  outer loop
   vertex 20.103666 -131.154190 441.137543
   vertex 20.219704 -131.587997 442.314056
   vertex 20.737064 -131.194107 441.910339
  endloop
 facet normal -0.376653 0.856480 0.352952
  outer loop
   vertex 19.586304 -131.548080 441.541260
   vertex 20.219704 -131.587997 442.314056
   vertex 20.103666 -131.154190 441.137543
  endloop
 facet normal -0.744325 0.241692 0.622548
  outer loop
   vertex 20.057724 -132.330048 442.408478
   vertex 20.219704 -131.587997 442.314056
   vertex 19.586304 -131.548080 441.541260
  endloop
 facet normal -0.744325 0.241692 0.622548
  outer loop
   vertex 19.586304 -131.548080 441.541260
   vertex 19.424324 -132.290131 441.635681
   vertex 20.057724 -132.330048 442.408478
  endloop
 facet normal -0.675967 -0.514646 0.527454
  outer loop
   vertex 20.057724 -132.330048 442.408478
   vertex 19.424324 -132.290131 441.635681
   vertex 20.346010 -132.985565 442.138336
  endloop
 facet normal -0.675967 -0.514646 0.527454
  outer loop
   vertex 20.346010 -132.985565 442.138336
   vertex 19.424324 -132.290131 441.635681
   vertex 19.712610 -132.945648 441.365540
  endloop
 facet normal -0.211644 -0.969527 0.123389
  outer loop
   vertex 19.712610 -132.945648 441.365540
   vertex 20.915689 -133.170563 441.661865
   vertex 20.346010 -132.985565 442.138336
  endloop
 facet normal -0.211644 -0.969527 0.123389
  outer loop
   vertex 20.282290 -133.130646 440.889069
   vertex 20.915689 -133.170563 441.661865
   vertex 19.712610 -132.945648 441.365540
  endloop
 facet normal 0.376675 -0.856463 -0.352969
  outer loop
   vertex 21.433050 -132.776657 441.258179
   vertex 20.915689 -133.170563 441.661865
   vertex 20.282290 -133.130646 440.889069
  endloop
 facet normal 0.376675 -0.856464 -0.352968
  outer loop
   vertex 20.282290 -133.130646 440.889069
   vertex 20.799652 -132.736740 440.485382
   vertex 21.433050 -132.776657 441.258179
  endloop
 facet normal 0.744319 -0.241722 -0.622543
  outer loop
   vertex 21.433050 -132.776657 441.258179
   vertex 20.799652 -132.736740 440.485382
   vertex 21.595032 -132.034622 441.163727
  endloop
 facet normal 0.744318 -0.241720 -0.622544
  outer loop
   vertex 21.595032 -132.034622 441.163727
   vertex 20.799652 -132.736740 440.485382
   vertex 20.961632 -131.994705 440.390930
  endloop
 facet normal 0.675967 0.514647 -0.527453
  outer loop
   vertex 20.961632 -131.994705 440.390930
   vertex 21.306744 -131.379105 441.433868
   vertex 21.595032 -132.034622 441.163727
  endloop
 facet normal 0.675968 0.514646 -0.527453
  outer loop
   vertex 20.673346 -131.339188 440.661072
   vertex 21.306744 -131.379105 441.433868
   vertex 20.961632 -131.994705 440.390930
  endloop
 facet normal 0.534694 0.774190 0.338722
  outer loop
   vertex 21.579868 -132.021439 442.470856
   vertex 21.306744 -131.379105 441.433868
   vertex 21.437449 -131.975189 442.589966
  endloop
 facet normal 0.534706 0.774183 0.338717
  outer loop
   vertex 21.437449 -131.975189 442.589966
   vertex 21.306744 -131.379105 441.433868
   vertex 20.737064 -131.194107 441.910339
  endloop
 facet normal 0.051112 0.681245 0.730269
  outer loop
   vertex 20.737064 -131.194107 441.910339
   vertex 21.308107 -132.073669 442.690887
   vertex 21.437449 -131.975189 442.589966
  endloop
 facet normal 0.051166 0.681262 0.730249
  outer loop
   vertex 20.219704 -131.587997 442.314056
   vertex 21.308107 -132.073669 442.690887
   vertex 20.737064 -131.194107 441.910339
  endloop
 facet normal -0.251017 0.176000 0.951848
  outer loop
   vertex 21.267612 -132.259171 442.714508
   vertex 21.308107 -132.073669 442.690887
   vertex 20.219704 -131.587997 442.314056
  endloop
 facet normal -0.251067 0.175922 0.951849
  outer loop
   vertex 20.219704 -131.587997 442.314056
   vertex 20.057724 -132.330048 442.408478
   vertex 21.267612 -132.259171 442.714508
  endloop
 facet normal -0.194878 -0.445753 0.873686
  outer loop
   vertex 21.267612 -132.259171 442.714508
   vertex 20.057724 -132.330048 442.408478
   vertex 21.339684 -132.423050 442.646973
  endloop
 facet normal -0.194878 -0.445754 0.873685
  outer loop
   vertex 21.339684 -132.423050 442.646973
   vertex 20.057724 -132.330048 442.408478
   vertex 20.346010 -132.985565 442.138336
  endloop
 facet normal 0.186823 -0.819669 0.541516
  outer loop
   vertex 20.346010 -132.985565 442.138336
   vertex 21.482103 -132.469299 442.527832
   vertex 21.339684 -132.423050 442.646973
  endloop
 facet normal 0.186792 -0.819640 0.541571
  outer loop
   vertex 20.915689 -133.170563 441.661865
   vertex 21.482103 -132.469299 442.527832
   vertex 20.346010 -132.985565 442.138336
  endloop
 facet normal 0.670332 -0.726731 0.150057
  outer loop
   vertex 21.611444 -132.370834 442.426910
   vertex 21.482103 -132.469299 442.527832
   vertex 20.915689 -133.170563 441.661865
  endloop
 facet normal 0.670358 -0.726715 0.150017
  outer loop
   vertex 20.915689 -133.170563 441.661865
   vertex 21.433050 -132.776657 441.258179
   vertex 21.611444 -132.370834 442.426910
  endloop
 facet normal 0.972555 -0.221393 -0.071575
  outer loop
   vertex 21.611444 -132.370834 442.426910
   vertex 21.433050 -132.776657 441.258179
   vertex 21.651939 -132.185318 442.403320
  endloop
 facet normal 0.972551 -0.221411 -0.071565
  outer loop
   vertex 21.651939 -132.185318 442.403320
   vertex 21.433050 -132.776657 441.258179
   vertex 21.595032 -132.034622 441.163727
  endloop
 facet normal 0.916367 0.400284 0.006593
  outer loop
   vertex 21.595032 -132.034622 441.163727
   vertex 21.579868 -132.021439 442.470856
   vertex 21.651939 -132.185318 442.403320
  endloop
 facet normal 0.916365 0.400289 0.006593
  outer loop
   vertex 21.306744 -131.379105 441.433868
   vertex 21.579868 -132.021439 442.470856
   vertex 21.595032 -132.034622 441.163727
  endloop
 facet normal 0.211647 0.969526 -0.123392
  outer loop
   vertex 29.979254 -119.064682 437.536774
   vertex 29.345854 -119.024765 436.763977
   vertex 29.836834 -119.018433 437.655884
  endloop
 facet normal 0.211647 0.969526 -0.123392
  outer loop
   vertex 29.836834 -119.018433 437.655884
   vertex 29.345854 -119.024765 436.763977
   vertex 29.203434 -118.978516 436.883087
  endloop
 facet normal -0.376662 0.856473 0.352959
  outer loop
   vertex 29.203434 -118.978516 436.883087
   vertex 29.707493 -119.116905 437.756805
   vertex 29.836834 -119.018433 437.655884
  endloop
 facet normal -0.376665 0.856471 0.352960
  outer loop
   vertex 29.074095 -119.076988 436.984009
   vertex 29.707493 -119.116905 437.756805
   vertex 29.203434 -118.978516 436.883087
  endloop
 facet normal -0.744314 0.241744 0.622540
  outer loop
   vertex 29.666998 -119.302414 437.780426
   vertex 29.707493 -119.116905 437.756805
   vertex 29.074095 -119.076988 436.984009
  endloop
 facet normal -0.744317 0.241735 0.622540
  outer loop
   vertex 29.074095 -119.076988 436.984009
   vertex 29.033600 -119.262505 437.007629
   vertex 29.666998 -119.302414 437.780426
  endloop
 facet normal -0.675964 -0.514650 0.527454
  outer loop
   vertex 29.666998 -119.302414 437.780426
   vertex 29.033600 -119.262505 437.007629
   vertex 29.739071 -119.466293 437.712891
  endloop
 facet normal -0.675960 -0.514662 0.527447
  outer loop
   vertex 29.739071 -119.466293 437.712891
   vertex 29.033600 -119.262505 437.007629
   vertex 29.105671 -119.426376 436.940094
  endloop
 facet normal -0.211634 -0.969530 0.123381
  outer loop
   vertex 29.105671 -119.426376 436.940094
   vertex 29.881489 -119.512543 437.593750
   vertex 29.739071 -119.466293 437.712891
  endloop
 facet normal -0.211633 -0.969530 0.123379
  outer loop
   vertex 29.248091 -119.472626 436.820953
   vertex 29.881489 -119.512543 437.593750
   vertex 29.105671 -119.426376 436.940094
  endloop
 facet normal 0.376663 -0.856473 -0.352958
  outer loop
   vertex 30.010830 -119.414070 437.492828
   vertex 29.881489 -119.512543 437.593750
   vertex 29.248091 -119.472626 436.820953
  endloop
 facet normal 0.376663 -0.856473 -0.352958
  outer loop
   vertex 29.248091 -119.472626 436.820953
   vertex 29.377432 -119.374153 436.720032
   vertex 30.010830 -119.414070 437.492828
  endloop
 facet normal 0.744335 -0.241648 -0.622552
  outer loop
   vertex 30.010830 -119.414070 437.492828
   vertex 29.377432 -119.374153 436.720032
   vertex 30.051325 -119.228561 437.469238
  endloop
 facet normal 0.744335 -0.241648 -0.622552
  outer loop
   vertex 30.051325 -119.228561 437.469238
   vertex 29.377432 -119.374153 436.720032
   vertex 29.417927 -119.188644 436.696442
  endloop
 facet normal 0.675969 0.514644 -0.527454
  outer loop
   vertex 29.417927 -119.188644 436.696442
   vertex 29.979254 -119.064682 437.536774
   vertex 30.051325 -119.228561 437.469238
  endloop
 facet normal 0.675966 0.514650 -0.527452
  outer loop
   vertex 29.345854 -119.024765 436.763977
   vertex 29.979254 -119.064682 437.536774
   vertex 29.417927 -119.188644 436.696442
  endloop
 facet normal 0.675967 0.514647 -0.527453
  outer loop
   vertex 29.367376 -119.038345 435.464630
   vertex 28.733976 -118.998428 434.691833
   vertex 29.079088 -118.382828 435.734772
  endloop
 facet normal 0.675968 0.514646 -0.527453
  outer loop
   vertex 29.079088 -118.382828 435.734772
   vertex 28.733976 -118.998428 434.691833
   vertex 28.445690 -118.342911 434.961975
  endloop
 facet normal 0.211644 0.969527 -0.123388
  outer loop
   vertex 28.445690 -118.342911 434.961975
   vertex 28.509409 -118.197830 436.211243
   vertex 29.079088 -118.382828 435.734772
  endloop
 facet normal 0.211632 0.969529 -0.123388
  outer loop
   vertex 27.876011 -118.157921 435.438446
   vertex 28.509409 -118.197830 436.211243
   vertex 28.445690 -118.342911 434.961975
  endloop
 facet normal -0.376674 0.856468 0.352959
  outer loop
   vertex 27.992048 -118.591728 436.614929
   vertex 28.509409 -118.197830 436.211243
   vertex 27.876011 -118.157921 435.438446
  endloop
 facet normal -0.376663 0.856472 0.352960
  outer loop
   vertex 27.876011 -118.157921 435.438446
   vertex 27.358648 -118.551811 435.842133
   vertex 27.992048 -118.591728 436.614929
  endloop
 facet normal -0.744319 0.241718 0.622544
  outer loop
   vertex 27.992048 -118.591728 436.614929
   vertex 27.358648 -118.551811 435.842133
   vertex 27.830069 -119.333771 436.709381
  endloop
 facet normal -0.744321 0.241716 0.622543
  outer loop
   vertex 27.830069 -119.333771 436.709381
   vertex 27.358648 -118.551811 435.842133
   vertex 27.196669 -119.293861 435.936584
  endloop
 facet normal -0.675957 -0.514664 0.527450
  outer loop
   vertex 27.196669 -119.293861 435.936584
   vertex 28.118355 -119.989288 436.439209
   vertex 27.830069 -119.333771 436.709381
  endloop
 facet normal -0.675955 -0.514651 0.527465
  outer loop
   vertex 27.484955 -119.949371 435.666443
   vertex 28.118355 -119.989288 436.439209
   vertex 27.196669 -119.293861 435.936584
  endloop
 facet normal -0.211634 -0.969529 0.123386
  outer loop
   vertex 28.688034 -120.174278 435.962738
   vertex 28.118355 -119.989288 436.439209
   vertex 27.484955 -119.949371 435.666443
  endloop
 facet normal -0.211635 -0.969528 0.123391
  outer loop
   vertex 27.484955 -119.949371 435.666443
   vertex 28.054634 -120.134369 435.189941
   vertex 28.688034 -120.174278 435.962738
  endloop
 facet normal 0.376667 -0.856472 -0.352955
  outer loop
   vertex 28.688034 -120.174278 435.962738
   vertex 28.054634 -120.134369 435.189941
   vertex 29.205395 -119.780388 435.559052
  endloop
 facet normal 0.376669 -0.856468 -0.352963
  outer loop
   vertex 29.205395 -119.780388 435.559052
   vertex 28.054634 -120.134369 435.189941
   vertex 28.571997 -119.740471 434.786255
  endloop
 facet normal 0.744325 -0.241696 -0.622546
  outer loop
   vertex 28.571997 -119.740471 434.786255
   vertex 29.367376 -119.038345 435.464630
   vertex 29.205395 -119.780388 435.559052
  endloop
 facet normal 0.744324 -0.241694 -0.622548
  outer loop
   vertex 28.733976 -118.998428 434.691833
   vertex 29.367376 -119.038345 435.464630
   vertex 28.571997 -119.740471 434.786255
  endloop
endsolid