solid stl file generated from DOUG
 facet normal -0.381711 -0.827652 0.411446
  outer loop
   vertex -48.017727 159.052628 440.651306
   vertex -48.088383 159.128937 440.739258
   vertex -55.163692 159.434235 434.789398
  endloop
 endfacet

 facet normal -0.644105 -0.040581 0.763859
  outer loop
   vertex -55.163692 159.434235 434.789398
   vertex -48.088383 159.128937 440.739258
   vertex -55.163788 159.536850 434.794769
  endloop
 endfacet

 facet normal -0.383200 0.779398 0.495677
  outer loop
   vertex -55.092030 158.254898 434.643677
   vertex -55.162537 158.169693 434.723145
   vertex -48.087227 157.864395 440.673004
  endloop
 endfacet

 facet normal -0.644105 -0.040783 0.763849
  outer loop
   vertex -48.087227 157.864395 440.673004
   vertex -55.162537 158.169693 434.723145
   vertex -55.162445 158.067078 434.717743
  endloop
 endfacet

 facet normal -0.644105 -0.040807 0.763848
  outer loop
   vertex -55.162445 158.067078 434.717743
   vertex -48.087132 157.761780 440.667603
   vertex -48.087227 157.864395 440.673004
  endloop
 endfacet

 facet normal -0.600907 -0.396154 0.694243
  outer loop
   vertex -54.690491 158.096848 434.158051
   vertex -47.615181 157.791534 440.107910
   vertex -54.698299 158.127731 434.168915
  endloop
 endfacet

 facet normal -0.600963 -0.395926 0.694324
  outer loop
   vertex -54.698299 158.127731 434.168915
   vertex -47.615181 157.791534 440.107910
   vertex -47.622986 157.822433 440.118774
  endloop
 endfacet

 facet normal 0.000915 -0.998629 -0.052330
  outer loop
   vertex -47.622986 157.822433 440.118774
   vertex -47.993450 157.799072 440.558105
   vertex -54.698299 158.127731 434.168915
  endloop
 endfacet

 facet normal -0.381717 -0.827646 0.411453
  outer loop
   vertex -55.163692 159.434235 434.789398
   vertex -55.093040 159.357925 434.701447
   vertex -48.017727 159.052628 440.651306
  endloop
 endfacet

 facet normal -0.644105 -0.040597 0.763859
  outer loop
   vertex -48.017727 159.052628 440.651306
   vertex -55.093040 159.357925 434.701447
   vertex -55.092030 158.254898 434.643677
  endloop
 endfacet

 facet normal -0.644104 -0.040615 0.763859
  outer loop
   vertex -55.092030 158.254898 434.643677
   vertex -48.016720 157.949600 440.593506
   vertex -48.017727 159.052628 440.651306
  endloop
 endfacet

 facet normal -0.383142 0.779468 0.495613
  outer loop
   vertex -48.087227 157.864395 440.673004
   vertex -48.016720 157.949600 440.593506
   vertex -55.092030 158.254898 434.643677
  endloop
 endfacet

 facet normal 0.000908 -0.998630 -0.052321
  outer loop
   vertex -48.087132 157.761780 440.667603
   vertex -55.162445 158.067078 434.717743
   vertex -48.001198 157.767197 440.565704
  endloop
 endfacet

 facet normal 0.000908 -0.998630 -0.052321
  outer loop
   vertex -48.001198 157.767197 440.565704
   vertex -55.162445 158.067078 434.717743
   vertex -55.076508 158.072495 434.615845
  endloop
 endfacet

 facet normal 0.601488 -0.320632 -0.731715
  outer loop
   vertex -55.076508 158.072495 434.615845
   vertex -47.993450 157.799072 440.558105
   vertex -48.001198 157.767197 440.565704
  endloop
 endfacet

 facet normal 0.601639 -0.320004 -0.731866
  outer loop
   vertex -55.068760 158.104370 434.608276
   vertex -47.993450 157.799072 440.558105
   vertex -55.076508 158.072495 434.615845
  endloop
 endfacet

 facet normal 0.000913 -0.998630 -0.052328
  outer loop
   vertex -54.698299 158.127731 434.168915
   vertex -47.993450 157.799072 440.558105
   vertex -55.068760 158.104370 434.608276
  endloop
 endfacet

 facet normal -0.764937 0.033007 -0.643259
  outer loop
   vertex -55.587646 159.570877 434.463654
   vertex -55.044899 158.101212 433.742828
   vertex -55.586273 158.067078 434.384857
  endloop
 endfacet

 facet normal 0.000902 -0.998629 -0.052333
  outer loop
   vertex -55.586273 158.067078 434.384857
   vertex -55.044899 158.101212 433.742828
   vertex -54.821335 158.034058 435.028137
  endloop
 endfacet

 facet normal -0.644117 -0.040614 0.763848
  outer loop
   vertex -54.821335 158.034058 435.028137
   vertex -54.822712 159.537872 435.106934
   vertex -55.586273 158.067078 434.384857
  endloop
 endfacet

 facet normal 0.764940 -0.033005 0.643256
  outer loop
   vertex -54.279964 158.068207 434.386108
   vertex -54.822712 159.537872 435.106934
   vertex -54.821335 158.034058 435.028137
  endloop
 endfacet

 facet normal 0.764937 -0.033007 0.643259
  outer loop
   vertex -54.281338 159.572006 434.464905
   vertex -54.822712 159.537872 435.106934
   vertex -54.279964 158.068207 434.386108
  endloop
 endfacet

 facet normal 0.644118 0.040612 -0.763847
  outer loop
   vertex -54.279964 158.068207 434.386108
   vertex -55.044899 158.101212 433.742828
   vertex -54.281338 159.572006 434.464905
  endloop
 endfacet

 facet normal 0.644098 0.040630 -0.763863
  outer loop
   vertex -54.281338 159.572006 434.464905
   vertex -55.044899 158.101212 433.742828
   vertex -55.046276 159.605011 433.821655
  endloop
 endfacet

 facet normal -0.764924 0.033019 -0.643273
  outer loop
   vertex -55.046276 159.605011 433.821655
   vertex -55.044899 158.101212 433.742828
   vertex -55.587646 159.570877 434.463654
  endloop
 endfacet

 facet normal -0.000915 0.998630 0.052324
  outer loop
   vertex -55.587646 159.570877 434.463654
   vertex -54.822712 159.537872 435.106934
   vertex -55.046276 159.605011 433.821655
  endloop
 endfacet

 facet normal -0.644118 -0.040612 0.763847
  outer loop
   vertex -55.586273 158.067078 434.384857
   vertex -54.822712 159.537872 435.106934
   vertex -55.587646 159.570877 434.463654
  endloop
 endfacet

 facet normal -0.764939 0.033005 -0.643256
  outer loop
   vertex -48.452309 157.759247 440.384033
   vertex -48.453686 159.263046 440.462830
   vertex -47.910938 157.793381 439.742004
  endloop
 endfacet

 facet normal -0.764924 0.033019 -0.643273
  outer loop
   vertex -47.910938 157.793381 439.742004
   vertex -48.453686 159.263046 440.462830
   vertex -47.912315 159.297180 439.820831
  endloop
 endfacet

 facet normal 0.644098 0.040630 -0.763863
  outer loop
   vertex -47.912315 159.297180 439.820831
   vertex -47.147377 159.264175 440.464081
   vertex -47.910938 157.793381 439.742004
  endloop
 endfacet

 facet normal -0.000913 0.998630 0.052325
  outer loop
   vertex -48.453686 159.263046 440.462830
   vertex -47.147377 159.264175 440.464081
   vertex -47.912315 159.297180 439.820831
  endloop
 endfacet

 facet normal -0.000913 0.998630 0.052323
  outer loop
   vertex -47.688747 159.230042 441.106110
   vertex -47.147377 159.264175 440.464081
   vertex -48.453686 159.263046 440.462830
  endloop
 endfacet

 facet normal -0.644116 -0.040612 0.763849
  outer loop
   vertex -48.453686 159.263046 440.462830
   vertex -47.687374 157.726227 441.027313
   vertex -47.688747 159.230042 441.106110
  endloop
 endfacet

 facet normal 0.764939 -0.033007 0.643256
  outer loop
   vertex -47.688747 159.230042 441.106110
   vertex -47.687374 157.726227 441.027313
   vertex -47.147377 159.264175 440.464081
  endloop
 endfacet

 facet normal 0.764938 -0.033005 0.643258
  outer loop
   vertex -47.147377 159.264175 440.464081
   vertex -47.687374 157.726227 441.027313
   vertex -47.146000 157.760376 440.385284
  endloop
 endfacet

 facet normal 0.644116 0.040614 -0.763849
  outer loop
   vertex -47.146000 157.760376 440.385284
   vertex -47.910938 157.793381 439.742004
   vertex -47.147377 159.264175 440.464081
  endloop
 endfacet

 facet normal 0.000925 -0.998629 -0.052337
  outer loop
   vertex -47.687374 157.726227 441.027313
   vertex -47.910938 157.793381 439.742004
   vertex -47.146000 157.760376 440.385284
  endloop
 endfacet

 facet normal 0.000902 -0.998629 -0.052333
  outer loop
   vertex -48.452309 157.759247 440.384033
   vertex -47.910938 157.793381 439.742004
   vertex -47.687374 157.726227 441.027313
  endloop
 endfacet

 facet normal -0.644118 -0.040614 0.763847
  outer loop
   vertex -47.687374 157.726227 441.027313
   vertex -48.453686 159.263046 440.462830
   vertex -48.452309 157.759247 440.384033
  endloop
 endfacet

 facet normal -0.644105 -0.040581 0.763859
  outer loop
   vertex -48.088383 159.128937 440.739258
   vertex -48.088478 159.231552 440.744629
   vertex -55.163788 159.536850 434.794769
  endloop
 endfacet

 facet normal -0.000900 0.998630 0.052312
  outer loop
   vertex -55.163788 159.536850 434.794769
   vertex -48.088478 159.231552 440.744629
   vertex -48.002541 159.236969 440.642700
  endloop
 endfacet

 facet normal -0.000908 0.998630 0.052321
  outer loop
   vertex -48.002541 159.236969 440.642700
   vertex -55.077854 159.542267 434.692871
   vertex -55.163788 159.536850 434.794769
  endloop
 endfacet

 facet normal 0.600962 0.395927 -0.694325
  outer loop
   vertex -47.994736 159.206070 440.631836
   vertex -55.077854 159.542267 434.692871
   vertex -48.002541 159.236969 440.642700
  endloop
 endfacet

 facet normal 0.600905 0.396154 -0.694245
  outer loop
   vertex -55.070045 159.511383 434.682007
   vertex -55.077854 159.542267 434.692871
   vertex -47.994736 159.206070 440.631836
  endloop
 endfacet

 facet normal -0.000914 0.998629 0.052331
  outer loop
   vertex -47.994736 159.206070 440.631836
   vertex -47.624275 159.229431 440.192505
   vertex -55.070045 159.511383 434.682007
  endloop
 endfacet

 facet normal -0.000912 0.998629 0.052329
  outer loop
   vertex -55.070045 159.511383 434.682007
   vertex -47.624275 159.229431 440.192505
   vertex -54.699585 159.534744 434.242645
  endloop
 endfacet

 facet normal -0.601625 0.320068 0.731850
  outer loop
   vertex -54.699585 159.534744 434.242645
   vertex -47.624275 159.229431 440.192505
   vertex -47.616524 159.261307 440.184937
  endloop
 endfacet

 facet normal -0.601607 0.320141 0.731832
  outer loop
   vertex -47.616524 159.261307 440.184937
   vertex -54.691837 159.566605 434.235077
   vertex -54.699585 159.534744 434.242645
  endloop
 endfacet

 facet normal -0.000883 0.998631 0.052291
  outer loop
   vertex -47.573883 159.263992 440.134369
   vertex -54.691837 159.566605 434.235077
   vertex -47.616524 159.261307 440.184937
  endloop
 endfacet

 facet normal -0.000883 0.998631 0.052291
  outer loop
   vertex -54.649197 159.569290 434.184509
   vertex -54.691837 159.566605 434.235077
   vertex -47.573883 159.263992 440.134369
  endloop
 endfacet

 facet normal 0.644105 0.040620 -0.763858
  outer loop
   vertex -47.573883 159.263992 440.134369
   vertex -47.572540 157.794235 440.057343
   vertex -54.649197 159.569290 434.184509
  endloop
 endfacet

 facet normal 0.644105 0.040622 -0.763857
  outer loop
   vertex -54.649197 159.569290 434.184509
   vertex -47.572540 157.794235 440.057343
   vertex -54.647850 158.099533 434.107483
  endloop
 endfacet

 facet normal 0.000883 -0.998631 -0.052291
  outer loop
   vertex -54.647850 158.099533 434.107483
   vertex -47.572540 157.794235 440.057343
   vertex -54.690491 158.096848 434.158051
  endloop
 endfacet

 facet normal 0.000925 -0.998629 -0.052337
  outer loop
   vertex -54.279964 158.068207 434.386108
   vertex -54.821335 158.034058 435.028137
   vertex -55.044899 158.101212 433.742828
  endloop
 endfacet

 facet normal -0.000912 0.998630 0.052324
  outer loop
   vertex -54.822712 159.537872 435.106934
   vertex -54.281338 159.572006 434.464905
   vertex -55.046276 159.605011 433.821655
  endloop
 endfacet

 facet normal 0.001030 -0.998622 -0.052468
  outer loop
   vertex -47.572540 157.794235 440.057343
   vertex -47.615181 157.791534 440.107910
   vertex -54.690491 158.096848 434.158051
  endloop
 endfacet

 facet normal 0.706358 0.351658 0.614325
  outer loop
   vertex -45.505215 158.574188 439.271667
   vertex -44.861107 158.614807 438.507812
   vertex -45.729904 159.289993 439.120270
  endloop
 endfacet

 facet normal 0.706364 0.351685 0.614303
  outer loop
   vertex -45.729904 159.289993 439.120270
   vertex -44.861107 158.614807 438.507812
   vertex -45.085800 159.330612 438.356384
  endloop
 endfacet

 facet normal 0.291891 0.909980 0.294508
  outer loop
   vertex -45.085800 159.330612 438.356384
   vertex -46.271065 159.605835 438.680725
   vertex -45.729904 159.289993 439.120270
  endloop
 endfacet

 facet normal 0.291890 0.909983 0.294503
  outer loop
   vertex -45.626957 159.646439 437.916870
   vertex -46.271065 159.605835 438.680725
   vertex -45.085800 159.330612 438.356384
  endloop
 endfacet

 facet normal -0.293575 0.935240 -0.197838
  outer loop
   vertex -46.811687 159.336670 438.210541
   vertex -46.271065 159.605835 438.680725
   vertex -45.626957 159.646439 437.916870
  endloop
 endfacet

 facet normal -0.293571 0.935246 -0.197814
  outer loop
   vertex -45.626957 159.646439 437.916870
   vertex -46.167583 159.377289 437.446686
   vertex -46.811687 159.336670 438.210541
  endloop
 endfacet

 facet normal -0.707058 0.412658 -0.574267
  outer loop
   vertex -46.811687 159.336670 438.210541
   vertex -46.167583 159.377289 437.446686
   vertex -47.035088 158.640213 437.985138
  endloop
 endfacet

 facet normal -0.707055 0.412647 -0.574278
  outer loop
   vertex -47.035088 158.640213 437.985138
   vertex -46.167583 159.377289 437.446686
   vertex -46.390980 158.680817 437.221283
  endloop
 endfacet

 facet normal -0.706361 -0.351662 -0.614320
  outer loop
   vertex -46.390980 158.680817 437.221283
   vertex -46.810394 157.924408 438.136536
   vertex -47.035088 158.640213 437.985138
  endloop
 endfacet

 facet normal -0.706363 -0.351658 -0.614318
  outer loop
   vertex -46.166290 157.965012 437.372681
   vertex -46.810394 157.924408 438.136536
   vertex -46.390980 158.680817 437.221283
  endloop
 endfacet

 facet normal -0.291895 -0.909980 -0.294506
  outer loop
   vertex -46.269238 157.608566 438.576080
   vertex -46.810394 157.924408 438.136536
   vertex -46.166290 157.965012 437.372681
  endloop
 endfacet

 facet normal -0.291872 -0.909987 -0.294506
  outer loop
   vertex -46.166290 157.965012 437.372681
   vertex -45.625130 157.649185 437.812225
   vertex -46.269238 157.608566 438.576080
  endloop
 endfacet

 facet normal 0.293570 -0.935246 0.197815
  outer loop
   vertex -46.269238 157.608566 438.576080
   vertex -45.625130 157.649185 437.812225
   vertex -45.728611 157.877716 439.046265
  endloop
 endfacet

 facet normal 0.293572 -0.935246 0.197815
  outer loop
   vertex -45.728611 157.877716 439.046265
   vertex -45.625130 157.649185 437.812225
   vertex -45.084507 157.918335 438.282410
  endloop
 endfacet

 facet normal 0.707061 -0.412647 0.574271
  outer loop
   vertex -45.084507 157.918335 438.282410
   vertex -45.505215 158.574188 439.271667
   vertex -45.728611 157.877716 439.046265
  endloop
 endfacet

 facet normal 0.707058 -0.412650 0.574272
  outer loop
   vertex -44.861107 158.614807 438.507812
   vertex -45.505215 158.574188 439.271667
   vertex -45.084507 157.918335 438.282410
  endloop
 endfacet

 facet normal -0.706340 -0.351717 -0.614312
  outer loop
   vertex -54.195007 158.704910 433.247162
   vertex -54.895287 158.843246 433.973145
   vertex -54.251179 158.883865 433.209290
  endloop
 endfacet

 facet normal -0.707044 0.412695 -0.574257
  outer loop
   vertex -54.251179 158.883865 433.209290
   vertex -54.895287 158.843246 433.973145
   vertex -54.839436 159.017365 434.029510
  endloop
 endfacet

 facet normal -0.707050 0.412682 -0.574259
  outer loop
   vertex -54.839436 159.017365 434.029510
   vertex -54.195332 159.057983 433.265656
   vertex -54.251179 158.883865 433.209290
  endloop
 endfacet

 facet normal -0.293580 0.935242 -0.197823
  outer loop
   vertex -54.704281 159.084656 434.147064
   vertex -54.195332 159.057983 433.265656
   vertex -54.839436 159.017365 434.029510
  endloop
 endfacet

 facet normal -0.293514 0.935270 -0.197785
  outer loop
   vertex -54.060173 159.125259 433.383209
   vertex -54.195332 159.057983 433.265656
   vertex -54.704281 159.084656 434.147064
  endloop
 endfacet

 facet normal 0.291929 0.909960 0.294535
  outer loop
   vertex -54.704281 159.084656 434.147064
   vertex -54.568989 159.005692 434.256927
   vertex -54.060173 159.125259 433.383209
  endloop
 endfacet

 facet normal 0.291874 0.909987 0.294506
  outer loop
   vertex -54.060173 159.125259 433.383209
   vertex -54.568989 159.005692 434.256927
   vertex -53.924885 159.046310 433.493073
  endloop
 endfacet

 facet normal 0.706342 0.351717 0.614310
  outer loop
   vertex -53.924885 159.046310 433.493073
   vertex -54.568989 159.005692 434.256927
   vertex -54.512817 158.826736 434.294800
  endloop
 endfacet

 facet normal 0.706342 0.351717 0.614310
  outer loop
   vertex -54.512817 158.826736 434.294800
   vertex -53.868713 158.867355 433.530945
   vertex -53.924885 159.046310 433.493073
  endloop
 endfacet

 facet normal 0.707050 -0.412682 0.574259
  outer loop
   vertex -54.568665 158.652618 434.238434
   vertex -53.868713 158.867355 433.530945
   vertex -54.512817 158.826736 434.294800
  endloop
 endfacet

 facet normal 0.707050 -0.412682 0.574259
  outer loop
   vertex -53.924561 158.693237 433.474579
   vertex -53.868713 158.867355 433.530945
   vertex -54.568665 158.652618 434.238434
  endloop
 endfacet

 facet normal 0.293524 -0.935270 0.197773
  outer loop
   vertex -54.568665 158.652618 434.238434
   vertex -54.703823 158.585342 434.120880
   vertex -53.924561 158.693237 433.474579
  endloop
 endfacet

 facet normal 0.293567 -0.935244 0.197830
  outer loop
   vertex -53.924561 158.693237 433.474579
   vertex -54.703823 158.585342 434.120880
   vertex -54.059719 158.625946 433.357025
  endloop
 endfacet

 facet normal -0.291883 -0.909987 -0.294495
  outer loop
   vertex -54.059719 158.625946 433.357025
   vertex -54.703823 158.585342 434.120880
   vertex -54.839111 158.664291 434.011017
  endloop
 endfacet

 facet normal -0.291925 -0.909957 -0.294548
  outer loop
   vertex -54.839111 158.664291 434.011017
   vertex -54.195007 158.704910 433.247162
   vertex -54.059719 158.625946 433.357025
  endloop
 endfacet

 facet normal -0.706337 -0.351730 -0.614307
  outer loop
   vertex -54.895287 158.843246 433.973145
   vertex -54.195007 158.704910 433.247162
   vertex -54.839111 158.664291 434.011017
  endloop
 endfacet

 facet normal -0.706358 -0.351658 -0.614325
  outer loop
   vertex -53.318447 158.273636 431.358215
   vertex -54.187244 158.948822 431.970673
   vertex -53.543137 158.989441 431.206818
  endloop
 endfacet

 facet normal -0.707058 0.412650 -0.574272
  outer loop
   vertex -53.543137 158.989441 431.206818
   vertex -54.187244 158.948822 431.970673
   vertex -53.963844 159.645294 432.196075
  endloop
 endfacet

 facet normal -0.707061 0.412647 -0.574271
  outer loop
   vertex -53.963844 159.645294 432.196075
   vertex -53.319740 159.685913 431.432220
   vertex -53.543137 158.989441 431.206818
  endloop
 endfacet

 facet normal -0.293571 0.935246 -0.197814
  outer loop
   vertex -53.423218 159.914444 432.666260
   vertex -53.319740 159.685913 431.432220
   vertex -53.963844 159.645294 432.196075
  endloop
 endfacet

 facet normal -0.293571 0.935246 -0.197814
  outer loop
   vertex -52.779114 159.955063 431.902405
   vertex -53.319740 159.685913 431.432220
   vertex -53.423218 159.914444 432.666260
  endloop
 endfacet

 facet normal 0.291882 0.909982 0.294513
  outer loop
   vertex -53.423218 159.914444 432.666260
   vertex -52.882061 159.598618 433.105774
   vertex -52.779114 159.955063 431.902405
  endloop
 endfacet

 facet normal 0.291904 0.909975 0.294512
  outer loop
   vertex -52.779114 159.955063 431.902405
   vertex -52.882061 159.598618 433.105774
   vertex -52.237957 159.639221 432.341919
  endloop
 endfacet

 facet normal 0.706363 0.351658 0.614318
  outer loop
   vertex -52.237957 159.639221 432.341919
   vertex -52.882061 159.598618 433.105774
   vertex -52.657372 158.882812 433.257172
  endloop
 endfacet

 facet normal 0.706361 0.351662 0.614320
  outer loop
   vertex -52.657372 158.882812 433.257172
   vertex -52.013264 158.923416 432.493317
   vertex -52.237957 159.639221 432.341919
  endloop
 endfacet

 facet normal 0.707055 -0.412647 0.574278
  outer loop
   vertex -52.880768 158.186340 433.031769
   vertex -52.013264 158.923416 432.493317
   vertex -52.657372 158.882812 433.257172
  endloop
 endfacet

 facet normal 0.707058 -0.412658 0.574267
  outer loop
   vertex -52.236664 158.226959 432.267914
   vertex -52.013264 158.923416 432.493317
   vertex -52.880768 158.186340 433.031769
  endloop
 endfacet

 facet normal 0.293572 -0.935246 0.197815
  outer loop
   vertex -52.880768 158.186340 433.031769
   vertex -53.421391 157.917191 432.561584
   vertex -52.236664 158.226959 432.267914
  endloop
 endfacet

 facet normal 0.293576 -0.935240 0.197838
  outer loop
   vertex -52.236664 158.226959 432.267914
   vertex -53.421391 157.917191 432.561584
   vertex -52.777287 157.957794 431.797729
  endloop
 endfacet

 facet normal -0.291890 -0.909983 -0.294501
  outer loop
   vertex -52.777287 157.957794 431.797729
   vertex -53.421391 157.917191 432.561584
   vertex -53.962551 158.233017 432.122070
  endloop
 endfacet

 facet normal -0.291894 -0.909975 -0.294522
  outer loop
   vertex -53.962551 158.233017 432.122070
   vertex -53.318447 158.273636 431.358215
   vertex -52.777287 157.957794 431.797729
  endloop
 endfacet

 facet normal -0.706359 -0.351661 -0.614322
  outer loop
   vertex -54.187244 158.948822 431.970673
   vertex -53.318447 158.273636 431.358215
   vertex -53.962551 158.233017 432.122070
  endloop
 endfacet

 facet normal -0.947446 -0.312189 -0.069893
  outer loop
   vertex -53.962551 158.233017 432.122070
   vertex -54.257645 158.883453 433.216980
   vertex -54.187244 158.948822 431.970673
  endloop
 endfacet

 facet normal -0.948026 0.316036 -0.036975
  outer loop
   vertex -54.187244 158.948822 431.970673
   vertex -54.257645 158.883453 433.216980
   vertex -54.201797 159.057571 433.273315
  endloop
 endfacet

 facet normal -0.948021 0.316054 -0.036977
  outer loop
   vertex -54.201797 159.057571 433.273315
   vertex -53.963844 159.645294 432.196075
   vertex -54.187244 158.948822 431.970673
  endloop
 endfacet

 facet normal -0.608165 0.745593 0.272444
  outer loop
   vertex -54.066639 159.124863 433.390869
   vertex -53.963844 159.645294 432.196075
   vertex -54.201797 159.057571 433.273315
  endloop
 endfacet

 facet normal -0.608148 0.745605 0.272450
  outer loop
   vertex -53.423218 159.914444 432.666260
   vertex -53.963844 159.645294 432.196075
   vertex -54.066639 159.124863 433.390869
  endloop
 endfacet

 facet normal -0.126850 0.724814 0.677166
  outer loop
   vertex -54.066639 159.124863 433.390869
   vertex -53.931351 159.045898 433.500732
   vertex -53.423218 159.914444 432.666260
  endloop
 endfacet

 facet normal -0.126931 0.724830 0.677134
  outer loop
   vertex -53.423218 159.914444 432.666260
   vertex -53.931351 159.045898 433.500732
   vertex -52.882061 159.598618 433.105774
  endloop
 endfacet

 facet normal 0.213694 0.266010 0.939986
  outer loop
   vertex -52.882061 159.598618 433.105774
   vertex -53.931351 159.045898 433.500732
   vertex -53.875175 158.866943 433.538605
  endloop
 endfacet

 facet normal 0.213767 0.265916 0.939996
  outer loop
   vertex -53.875175 158.866943 433.538605
   vertex -52.657372 158.882812 433.257172
   vertex -52.882061 159.598618 433.105774
  endloop
 endfacet

 facet normal 0.214340 -0.362385 0.907048
  outer loop
   vertex -53.931026 158.692825 433.482239
   vertex -52.657372 158.882812 433.257172
   vertex -53.875175 158.866943 433.538605
  endloop
 endfacet

 facet normal 0.214334 -0.362311 0.907079
  outer loop
   vertex -52.880768 158.186340 433.031769
   vertex -52.657372 158.882812 433.257172
   vertex -53.931026 158.692825 433.482239
  endloop
 endfacet

 facet normal -0.125529 -0.791861 0.597661
  outer loop
   vertex -53.931026 158.692825 433.482239
   vertex -54.066181 158.625549 433.364716
   vertex -52.880768 158.186340 433.031769
  endloop
 endfacet

 facet normal -0.125539 -0.791874 0.597642
  outer loop
   vertex -52.880768 158.186340 433.031769
   vertex -54.066181 158.625549 433.364716
   vertex -53.421391 157.917191 432.561584
  endloop
 endfacet

 facet normal -0.606744 -0.771112 0.192996
  outer loop
   vertex -53.421391 157.917191 432.561584
   vertex -54.066181 158.625549 433.364716
   vertex -54.201473 158.704498 433.254822
  endloop
 endfacet

 facet normal -0.606756 -0.771108 0.192977
  outer loop
   vertex -54.201473 158.704498 433.254822
   vertex -53.962551 158.233017 432.122070
   vertex -53.421391 157.917191 432.561584
  endloop
 endfacet

 facet normal -0.947450 -0.312173 -0.069903
  outer loop
   vertex -54.257645 158.883453 433.216980
   vertex -53.962551 158.233017 432.122070
   vertex -54.201473 158.704498 433.254822
  endloop
 endfacet

 facet normal 0.706370 0.351625 0.614329
  outer loop
   vertex -47.360661 158.518127 440.309265
   vertex -46.716557 158.558746 439.545410
   vertex -47.416832 158.697083 440.271423
  endloop
 endfacet

 facet normal 0.706366 0.351652 0.614320
  outer loop
   vertex -47.416832 158.697083 440.271423
   vertex -46.716557 158.558746 439.545410
   vertex -46.772728 158.737686 439.507568
  endloop
 endfacet

 facet normal 0.291846 0.910009 0.294465
  outer loop
   vertex -46.772728 158.737686 439.507568
   vertex -47.552124 158.776031 440.161530
   vertex -47.416832 158.697083 440.271423
  endloop
 endfacet

 facet normal 0.291891 0.909976 0.294522
  outer loop
   vertex -46.908016 158.816650 439.397675
   vertex -47.552124 158.776031 440.161530
   vertex -46.772728 158.737686 439.507568
  endloop
 endfacet

 facet normal -0.293580 0.935242 -0.197824
  outer loop
   vertex -47.687279 158.708740 440.043976
   vertex -47.552124 158.776031 440.161530
   vertex -46.908016 158.816650 439.397675
  endloop
 endfacet

 facet normal -0.293576 0.935244 -0.197819
  outer loop
   vertex -46.908016 158.816650 439.397675
   vertex -47.043175 158.749359 439.280121
   vertex -47.687279 158.708740 440.043976
  endloop
 endfacet

 facet normal -0.707072 0.412612 -0.574282
  outer loop
   vertex -47.687279 158.708740 440.043976
   vertex -47.043175 158.749359 439.280121
   vertex -47.743130 158.534622 439.987640
  endloop
 endfacet

 facet normal -0.707075 0.412599 -0.574288
  outer loop
   vertex -47.743130 158.534622 439.987640
   vertex -47.043175 158.749359 439.280121
   vertex -47.099022 158.575241 439.223785
  endloop
 endfacet

 facet normal -0.706356 -0.351665 -0.614323
  outer loop
   vertex -47.099022 158.575241 439.223785
   vertex -47.686954 158.355682 440.025482
   vertex -47.743130 158.534622 439.987640
  endloop
 endfacet

 facet normal -0.706374 -0.351626 -0.614325
  outer loop
   vertex -47.042850 158.396286 439.261627
   vertex -47.686954 158.355682 440.025482
   vertex -47.099022 158.575241 439.223785
  endloop
 endfacet

 facet normal -0.291901 -0.909977 -0.294510
  outer loop
   vertex -47.551666 158.276718 440.135376
   vertex -47.686954 158.355682 440.025482
   vertex -47.042850 158.396286 439.261627
  endloop
 endfacet

 facet normal -0.291841 -0.910006 -0.294479
  outer loop
   vertex -47.042850 158.396286 439.261627
   vertex -46.907562 158.317337 439.371521
   vertex -47.551666 158.276718 440.135376
  endloop
 endfacet

 facet normal 0.293603 -0.935230 0.197842
  outer loop
   vertex -47.551666 158.276718 440.135376
   vertex -46.907562 158.317337 439.371521
   vertex -47.416512 158.344009 440.252899
  endloop
 endfacet

 facet normal 0.293598 -0.935233 0.197839
  outer loop
   vertex -47.416512 158.344009 440.252899
   vertex -46.907562 158.317337 439.371521
   vertex -46.772404 158.384628 439.489044
  endloop
 endfacet

 facet normal 0.707044 -0.412695 0.574257
  outer loop
   vertex -46.772404 158.384628 439.489044
   vertex -47.360661 158.518127 440.309265
   vertex -47.416512 158.344009 440.252899
  endloop
 endfacet

 facet normal 0.707050 -0.412682 0.574259
  outer loop
   vertex -46.716557 158.558746 439.545410
   vertex -47.360661 158.518127 440.309265
   vertex -46.772404 158.384628 439.489044
  endloop
 endfacet

 facet normal 0.214366 -0.362250 0.907096
  outer loop
   vertex -46.778870 158.384216 439.496735
   vertex -45.728611 157.877716 439.046265
   vertex -46.723019 158.558334 439.553070
  endloop
 endfacet

 facet normal 0.214320 -0.362308 0.907083
  outer loop
   vertex -46.723019 158.558334 439.553070
   vertex -45.728611 157.877716 439.046265
   vertex -45.505215 158.574188 439.271667
  endloop
 endfacet

 facet normal 0.213751 0.265873 0.940012
  outer loop
   vertex -45.505215 158.574188 439.271667
   vertex -46.779194 158.737289 439.515228
   vertex -46.723019 158.558334 439.553070
  endloop
 endfacet

 facet normal 0.213754 0.265913 0.940000
  outer loop
   vertex -45.729904 159.289993 439.120270
   vertex -46.779194 158.737289 439.515228
   vertex -45.505215 158.574188 439.271667
  endloop
 endfacet

 facet normal -0.126970 0.724880 0.677073
  outer loop
   vertex -46.914482 158.816238 439.405334
   vertex -46.779194 158.737289 439.515228
   vertex -45.729904 159.289993 439.120270
  endloop
 endfacet

 facet normal -0.126939 0.724835 0.677127
  outer loop
   vertex -45.729904 159.289993 439.120270
   vertex -46.271065 159.605835 438.680725
   vertex -46.914482 158.816238 439.405334
  endloop
 endfacet

 facet normal -0.608165 0.745594 0.272443
  outer loop
   vertex -46.914482 158.816238 439.405334
   vertex -46.271065 159.605835 438.680725
   vertex -47.049641 158.748947 439.287781
  endloop
 endfacet

 facet normal -0.608164 0.745594 0.272445
  outer loop
   vertex -47.049641 158.748947 439.287781
   vertex -46.271065 159.605835 438.680725
   vertex -46.811687 159.336670 438.210541
  endloop
 endfacet

 facet normal -0.948025 0.316039 -0.036985
  outer loop
   vertex -46.811687 159.336670 438.210541
   vertex -47.105488 158.574829 439.231445
   vertex -47.049641 158.748947 439.287781
  endloop
 endfacet

 facet normal -0.948019 0.316058 -0.036970
  outer loop
   vertex -47.035088 158.640213 437.985138
   vertex -47.105488 158.574829 439.231445
   vertex -46.811687 159.336670 438.210541
  endloop
 endfacet

 facet normal -0.947443 -0.312196 -0.069897
  outer loop
   vertex -47.049316 158.395889 439.269287
   vertex -47.105488 158.574829 439.231445
   vertex -47.035088 158.640213 437.985138
  endloop
 endfacet

 facet normal -0.947445 -0.312189 -0.069896
  outer loop
   vertex -47.035088 158.640213 437.985138
   vertex -46.810394 157.924408 438.136536
   vertex -47.049316 158.395889 439.269287
  endloop
 endfacet

 facet normal -0.606788 -0.771086 0.192962
  outer loop
   vertex -47.049316 158.395889 439.269287
   vertex -46.810394 157.924408 438.136536
   vertex -46.914024 158.316925 439.379181
  endloop
 endfacet

 facet normal -0.606776 -0.771095 0.192966
  outer loop
   vertex -46.914024 158.316925 439.379181
   vertex -46.810394 157.924408 438.136536
   vertex -46.269238 157.608566 438.576080
  endloop
 endfacet

 facet normal -0.125557 -0.791868 0.597645
  outer loop
   vertex -46.269238 157.608566 438.576080
   vertex -46.778870 158.384216 439.496735
   vertex -46.914024 158.316925 439.379181
  endloop
 endfacet

 facet normal -0.125548 -0.791867 0.597649
  outer loop
   vertex -45.728611 157.877716 439.046265
   vertex -46.778870 158.384216 439.496735
   vertex -46.269238 157.608566 438.576080
  endloop
 endfacet

endsolid