solid stl file generated from DOUG
 facet normal -0.997947 0.002441 -0.063997
  outer loop
   vertex -63.784786 -83.634773 415.107941
   vertex -63.793507 -83.641891 415.243652
   vertex -63.801956 -74.405029 415.727661
  endloop
 endfacet

 facet normal -0.644119 -0.040615 0.763846
  outer loop
   vertex -63.801956 -74.405029 415.727661
   vertex -63.793507 -83.641891 415.243652
   vertex -63.723354 -74.408424 415.793762
  endloop
 endfacet

 facet normal 0.232970 -0.050676 0.971163
  outer loop
   vertex -64.638138 -74.361450 414.881439
   vertex -64.770576 -74.363235 414.913116
   vertex -64.762131 -83.600098 414.429108
  endloop
 endfacet

 facet normal -0.644137 -0.040613 0.763831
  outer loop
   vertex -64.762131 -83.600098 414.429108
   vertex -64.770576 -74.363235 414.913116
   vertex -64.849174 -74.359840 414.847015
  endloop
 endfacet

 facet normal -0.644137 -0.040613 0.763831
  outer loop
   vertex -64.849174 -74.359840 414.847015
   vertex -64.840729 -83.596703 414.363007
   vertex -64.762131 -83.600098 414.429108
  endloop
 endfacet

 facet normal -0.875722 -0.026064 0.482112
  outer loop
   vertex -64.377228 -74.330086 414.287323
   vertex -64.368774 -83.566948 413.803314
   vertex -64.360970 -74.331612 414.316772
  endloop
 endfacet

 facet normal -0.875722 -0.026064 0.482112
  outer loop
   vertex -64.360970 -74.331612 414.316772
   vertex -64.368774 -83.566948 413.803314
   vertex -64.352516 -83.568474 413.832764
  endloop
 endfacet

 facet normal -0.764932 0.033007 -0.643265
  outer loop
   vertex -64.352516 -83.568474 413.832764
   vertex -64.722977 -83.591835 414.272095
   vertex -64.360970 -74.331612 414.316772
  endloop
 endfacet

 facet normal -0.997947 0.002441 -0.063997
  outer loop
   vertex -63.801956 -74.405029 415.727661
   vertex -63.793236 -74.397911 415.591949
   vertex -63.784786 -83.634773 415.107941
  endloop
 endfacet

 facet normal -0.644108 -0.040615 0.763856
  outer loop
   vertex -63.784786 -83.634773 415.107941
   vertex -63.793236 -74.397911 415.591949
   vertex -64.638138 -74.361450 414.881439
  endloop
 endfacet

 facet normal -0.644109 -0.040615 0.763854
  outer loop
   vertex -64.638138 -74.361450 414.881439
   vertex -64.629684 -83.598320 414.397430
   vertex -63.784786 -83.634773 415.107941
  endloop
 endfacet

 facet normal 0.232955 -0.050676 0.971166
  outer loop
   vertex -64.762131 -83.600098 414.429108
   vertex -64.629684 -83.598320 414.397430
   vertex -64.638138 -74.361450 414.881439
  endloop
 endfacet

 facet normal -0.764884 0.033011 -0.643322
  outer loop
   vertex -64.840729 -83.596703 414.363007
   vertex -64.849174 -74.359840 414.847015
   vertex -64.754791 -83.591286 414.261108
  endloop
 endfacet

 facet normal -0.764912 0.033008 -0.643289
  outer loop
   vertex -64.754791 -83.591286 414.261108
   vertex -64.849174 -74.359840 414.847015
   vertex -64.763245 -74.354424 414.745117
  endloop
 endfacet

 facet normal 0.326773 0.049753 -0.943792
  outer loop
   vertex -64.763245 -74.354424 414.745117
   vertex -64.722977 -83.591835 414.272095
   vertex -64.754791 -83.591286 414.261108
  endloop
 endfacet

 facet normal 0.326773 0.049753 -0.943792
  outer loop
   vertex -64.731430 -74.354973 414.756104
   vertex -64.722977 -83.591835 414.272095
   vertex -64.763245 -74.354424 414.745117
  endloop
 endfacet

 facet normal -0.764932 0.033007 -0.643265
  outer loop
   vertex -64.360970 -74.331612 414.316772
   vertex -64.722977 -83.591835 414.272095
   vertex -64.731430 -74.354973 414.756104
  endloop
 endfacet

 facet normal -0.000916 0.998629 0.052332
  outer loop
   vertex -63.722862 -73.872147 415.847198
   vertex -64.333382 -73.788300 414.236511
   vertex -64.874756 -73.822441 414.878540
  endloop
 endfacet

 facet normal -0.764937 0.033012 -0.643258
  outer loop
   vertex -64.874756 -73.822441 414.878540
   vertex -64.333382 -73.788300 414.236511
   vertex -64.873840 -74.821068 414.826202
  endloop
 endfacet

 facet normal -0.644103 -0.040624 0.763859
  outer loop
   vertex -64.873840 -74.821068 414.826202
   vertex -63.721947 -74.870773 415.794861
   vertex -64.874756 -73.822441 414.878540
  endloop
 endfacet

 facet normal 0.000910 -0.998630 -0.052326
  outer loop
   vertex -64.332466 -74.786934 414.184174
   vertex -63.721947 -74.870773 415.794861
   vertex -64.873840 -74.821068 414.826202
  endloop
 endfacet

 facet normal 0.000910 -0.998630 -0.052326
  outer loop
   vertex -63.180576 -74.836639 415.152832
   vertex -63.721947 -74.870773 415.794861
   vertex -64.332466 -74.786934 414.184174
  endloop
 endfacet

 facet normal 0.644104 0.040624 -0.763858
  outer loop
   vertex -64.332466 -74.786934 414.184174
   vertex -64.333382 -73.788300 414.236511
   vertex -63.180576 -74.836639 415.152832
  endloop
 endfacet

 facet normal 0.644104 0.040624 -0.763858
  outer loop
   vertex -63.180576 -74.836639 415.152832
   vertex -64.333382 -73.788300 414.236511
   vertex -63.181492 -73.838005 415.205170
  endloop
 endfacet

 facet normal -0.000916 0.998629 0.052332
  outer loop
   vertex -63.181492 -73.838005 415.205170
   vertex -64.333382 -73.788300 414.236511
   vertex -63.722862 -73.872147 415.847198
  endloop
 endfacet

 facet normal 0.764940 -0.033011 0.643256
  outer loop
   vertex -63.722862 -73.872147 415.847198
   vertex -63.721947 -74.870773 415.794861
   vertex -63.181492 -73.838005 415.205170
  endloop
 endfacet

 facet normal -0.644103 -0.040624 0.763859
  outer loop
   vertex -64.874756 -73.822441 414.878540
   vertex -63.721947 -74.870773 415.794861
   vertex -63.722862 -73.872147 415.847198
  endloop
 endfacet

 facet normal -0.000910 0.998630 0.052326
  outer loop
   vertex -64.866234 -83.135872 414.390503
   vertex -63.714344 -83.185577 415.359161
   vertex -64.324867 -83.101738 413.748474
  endloop
 endfacet

 facet normal -0.000910 0.998630 0.052326
  outer loop
   vertex -64.324867 -83.101738 413.748474
   vertex -63.714344 -83.185577 415.359161
   vertex -63.172974 -83.151443 414.717133
  endloop
 endfacet

 facet normal 0.644103 0.040601 -0.763861
  outer loop
   vertex -63.172974 -83.151443 414.717133
   vertex -63.172058 -84.150070 414.664825
   vertex -64.324867 -83.101738 413.748474
  endloop
 endfacet

 facet normal 0.764939 -0.032992 0.643257
  outer loop
   vertex -63.714344 -83.185577 415.359161
   vertex -63.172058 -84.150070 414.664825
   vertex -63.172974 -83.151443 414.717133
  endloop
 endfacet

 facet normal 0.764924 -0.033012 0.643274
  outer loop
   vertex -63.713428 -84.184204 415.306824
   vertex -63.172058 -84.150070 414.664825
   vertex -63.714344 -83.185577 415.359161
  endloop
 endfacet

 facet normal -0.644102 -0.040624 0.763861
  outer loop
   vertex -63.714344 -83.185577 415.359161
   vertex -64.865326 -84.134506 414.338165
   vertex -63.713428 -84.184204 415.306824
  endloop
 endfacet

 facet normal 0.000915 -0.998630 -0.052324
  outer loop
   vertex -63.713428 -84.184204 415.306824
   vertex -64.865326 -84.134506 414.338165
   vertex -63.172058 -84.150070 414.664825
  endloop
 endfacet

 facet normal 0.000917 -0.998629 -0.052332
  outer loop
   vertex -63.172058 -84.150070 414.664825
   vertex -64.865326 -84.134506 414.338165
   vertex -64.323952 -84.100365 413.696136
  endloop
 endfacet

 facet normal 0.644115 0.040624 -0.763849
  outer loop
   vertex -64.323952 -84.100365 413.696136
   vertex -64.324867 -83.101738 413.748474
   vertex -63.172058 -84.150070 414.664825
  endloop
 endfacet

 facet normal -0.764937 0.033012 -0.643258
  outer loop
   vertex -64.865326 -84.134506 414.338165
   vertex -64.324867 -83.101738 413.748474
   vertex -64.323952 -84.100365 413.696136
  endloop
 endfacet

 facet normal -0.764942 0.033017 -0.643253
  outer loop
   vertex -64.866234 -83.135872 414.390503
   vertex -64.324867 -83.101738 413.748474
   vertex -64.865326 -84.134506 414.338165
  endloop
 endfacet

 facet normal -0.644104 -0.040619 0.763859
  outer loop
   vertex -64.865326 -84.134506 414.338165
   vertex -63.714344 -83.185577 415.359161
   vertex -64.866234 -83.135872 414.390503
  endloop
 endfacet

 facet normal -0.644137 -0.040613 0.763831
  outer loop
   vertex -63.793507 -83.641891 415.243652
   vertex -63.714909 -83.645287 415.309753
   vertex -63.723354 -74.408424 415.793762
  endloop
 endfacet

 facet normal 0.764884 -0.033011 0.643322
  outer loop
   vertex -63.723354 -74.408424 415.793762
   vertex -63.714909 -83.645287 415.309753
   vertex -63.628971 -83.639870 415.207855
  endloop
 endfacet

 facet normal 0.764899 -0.033009 0.643304
  outer loop
   vertex -63.628971 -83.639870 415.207855
   vertex -63.637421 -74.403000 415.691864
   vertex -63.723354 -74.408424 415.793762
  endloop
 endfacet

 facet normal 0.875725 0.026063 -0.482106
  outer loop
   vertex -63.645229 -83.638336 415.178406
   vertex -63.637421 -74.403000 415.691864
   vertex -63.628971 -83.639870 415.207855
  endloop
 endfacet

 facet normal 0.875722 0.026064 -0.482112
  outer loop
   vertex -63.653679 -74.401474 415.662415
   vertex -63.637421 -74.403000 415.691864
   vertex -63.645229 -83.638336 415.178406
  endloop
 endfacet

 facet normal 0.764932 -0.033007 0.643265
  outer loop
   vertex -63.645229 -83.638336 415.178406
   vertex -63.274769 -83.614983 414.739075
   vertex -63.653679 -74.401474 415.662415
  endloop
 endfacet

 facet normal 0.764932 -0.033007 0.643265
  outer loop
   vertex -63.653679 -74.401474 415.662415
   vertex -63.274769 -83.614983 414.739075
   vertex -63.283218 -74.378113 415.223083
  endloop
 endfacet

 facet normal -0.326762 -0.049753 0.943796
  outer loop
   vertex -63.283218 -74.378113 415.223083
   vertex -63.274769 -83.614983 414.739075
   vertex -63.242954 -83.615524 414.750061
  endloop
 endfacet

 facet normal -0.326773 -0.049753 0.943792
  outer loop
   vertex -63.242954 -83.615524 414.750061
   vertex -63.251404 -74.378662 415.234070
   vertex -63.283218 -74.378113 415.223083
  endloop
 endfacet

 facet normal 0.764930 -0.033007 0.643267
  outer loop
   vertex -63.200314 -83.612839 414.699493
   vertex -63.251404 -74.378662 415.234070
   vertex -63.242954 -83.615524 414.750061
  endloop
 endfacet

 facet normal 0.764930 -0.033007 0.643267
  outer loop
   vertex -63.208763 -74.375977 415.183502
   vertex -63.251404 -74.378662 415.234070
   vertex -63.200314 -83.612839 414.699493
  endloop
 endfacet

 facet normal 0.644109 0.040615 -0.763855
  outer loop
   vertex -63.200314 -83.612839 414.699493
   vertex -64.326134 -83.564255 413.752747
   vertex -63.208763 -74.375977 415.183502
  endloop
 endfacet

 facet normal 0.644107 0.040615 -0.763856
  outer loop
   vertex -63.208763 -74.375977 415.183502
   vertex -64.326134 -83.564255 413.752747
   vertex -64.334587 -74.327393 414.236755
  endloop
 endfacet

 facet normal -0.764932 0.033007 -0.643264
  outer loop
   vertex -64.334587 -74.327393 414.236755
   vertex -64.326134 -83.564255 413.752747
   vertex -64.377228 -74.330086 414.287323
  endloop
 endfacet

 facet normal -0.764937 0.033011 -0.643258
  outer loop
   vertex -64.332466 -74.786934 414.184174
   vertex -64.873840 -74.821068 414.826202
   vertex -64.333382 -73.788300 414.236511
  endloop
 endfacet

 facet normal 0.764939 -0.033011 0.643256
  outer loop
   vertex -63.721947 -74.870773 415.794861
   vertex -63.180576 -74.836639 415.152832
   vertex -63.181492 -73.838005 415.205170
  endloop
 endfacet

 facet normal -0.764932 0.033007 -0.643264
  outer loop
   vertex -64.326134 -83.564255 413.752747
   vertex -64.368774 -83.566948 413.803314
   vertex -64.377228 -74.330086 414.287323
  endloop
 endfacet

 facet normal 0.293570 -0.935246 0.197815
  outer loop
   vertex -62.497627 -84.557594 412.671387
   vertex -61.853519 -84.516975 411.907532
   vertex -61.957001 -84.288445 413.141571
  endloop
 endfacet

 facet normal 0.293572 -0.935246 0.197815
  outer loop
   vertex -61.957001 -84.288445 413.141571
   vertex -61.853519 -84.516975 411.907532
   vertex -61.312897 -84.247826 412.377716
  endloop
 endfacet

 facet normal 0.707061 -0.412647 0.574271
  outer loop
   vertex -61.312897 -84.247826 412.377716
   vertex -61.733604 -83.591972 413.366974
   vertex -61.957001 -84.288445 413.141571
  endloop
 endfacet

 facet normal 0.707058 -0.412650 0.574272
  outer loop
   vertex -61.089497 -83.551353 412.603119
   vertex -61.733604 -83.591972 413.366974
   vertex -61.312897 -84.247826 412.377716
  endloop
 endfacet

 facet normal 0.706358 0.351658 0.614325
  outer loop
   vertex -61.958294 -82.876167 413.215576
   vertex -61.733604 -83.591972 413.366974
   vertex -61.089497 -83.551353 412.603119
  endloop
 endfacet

 facet normal 0.706359 0.351661 0.614322
  outer loop
   vertex -61.089497 -83.551353 412.603119
   vertex -61.314190 -82.835548 412.451721
   vertex -61.958294 -82.876167 413.215576
  endloop
 endfacet

 facet normal 0.291887 0.909979 0.294517
  outer loop
   vertex -61.958294 -82.876167 413.215576
   vertex -61.314190 -82.835548 412.451721
   vertex -62.499454 -82.560333 412.776062
  endloop
 endfacet

 facet normal 0.291886 0.909982 0.294508
  outer loop
   vertex -62.499454 -82.560333 412.776062
   vertex -61.314190 -82.835548 412.451721
   vertex -61.855347 -82.519722 412.012207
  endloop
 endfacet

 facet normal -0.293573 0.935243 -0.197827
  outer loop
   vertex -61.855347 -82.519722 412.012207
   vertex -63.040077 -82.829491 412.305878
   vertex -62.499454 -82.560333 412.776062
  endloop
 endfacet

 facet normal -0.293571 0.935246 -0.197814
  outer loop
   vertex -62.395973 -82.788872 411.542023
   vertex -63.040077 -82.829491 412.305878
   vertex -61.855347 -82.519722 412.012207
  endloop
 endfacet

 facet normal -0.707059 0.412654 -0.574269
  outer loop
   vertex -63.263477 -83.525955 412.080475
   vertex -63.040077 -82.829491 412.305878
   vertex -62.395973 -82.788872 411.542023
  endloop
 endfacet

 facet normal -0.707057 0.412647 -0.574275
  outer loop
   vertex -62.395973 -82.788872 411.542023
   vertex -62.619370 -83.485344 411.316620
   vertex -63.263477 -83.525955 412.080475
  endloop
 endfacet

 facet normal -0.706359 -0.351661 -0.614322
  outer loop
   vertex -63.263477 -83.525955 412.080475
   vertex -62.619370 -83.485344 411.316620
   vertex -63.038784 -84.241760 412.231873
  endloop
 endfacet

 facet normal -0.706362 -0.351658 -0.614320
  outer loop
   vertex -63.038784 -84.241760 412.231873
   vertex -62.619370 -83.485344 411.316620
   vertex -62.394680 -84.201149 411.468018
  endloop
 endfacet

 facet normal -0.291893 -0.909979 -0.294512
  outer loop
   vertex -62.394680 -84.201149 411.468018
   vertex -62.497627 -84.557594 412.671387
   vertex -63.038784 -84.241760 412.231873
  endloop
 endfacet

 facet normal -0.291880 -0.909983 -0.294513
  outer loop
   vertex -61.853519 -84.516975 411.907532
   vertex -62.497627 -84.557594 412.671387
   vertex -62.394680 -84.201149 411.468018
  endloop
 endfacet

 facet normal -0.293572 0.935244 -0.197825
  outer loop
   vertex -63.280106 -74.079620 413.864716
   vertex -63.789051 -74.052940 414.746124
   vertex -63.144947 -74.012329 413.982269
  endloop
 endfacet

 facet normal 0.291897 0.909976 0.294515
  outer loop
   vertex -63.144947 -74.012329 413.982269
   vertex -63.789051 -74.052940 414.746124
   vertex -63.653763 -74.131905 414.856018
  endloop
 endfacet

 facet normal 0.291866 0.909991 0.294500
  outer loop
   vertex -63.653763 -74.131905 414.856018
   vertex -63.009659 -74.091286 414.092163
   vertex -63.144947 -74.012329 413.982269
  endloop
 endfacet

 facet normal 0.706366 0.351638 0.614327
  outer loop
   vertex -63.597591 -74.310852 414.893860
   vertex -63.009659 -74.091286 414.092163
   vertex -63.653763 -74.131905 414.856018
  endloop
 endfacet

 facet normal 0.706366 0.351639 0.614327
  outer loop
   vertex -62.953484 -74.270241 414.130005
   vertex -63.009659 -74.091286 414.092163
   vertex -63.597591 -74.310852 414.893860
  endloop
 endfacet

 facet normal 0.707046 -0.412682 0.574264
  outer loop
   vertex -63.597591 -74.310852 414.893860
   vertex -63.653439 -74.484970 414.837494
   vertex -62.953484 -74.270241 414.130005
  endloop
 endfacet

 facet normal 0.707044 -0.412695 0.574258
  outer loop
   vertex -62.953484 -74.270241 414.130005
   vertex -63.653439 -74.484970 414.837494
   vertex -63.009335 -74.444359 414.073639
  endloop
 endfacet

 facet normal 0.293594 -0.935233 0.197844
  outer loop
   vertex -63.009335 -74.444359 414.073639
   vertex -63.653439 -74.484970 414.837494
   vertex -63.788597 -74.552261 414.719971
  endloop
 endfacet

 facet normal 0.293576 -0.935244 0.197820
  outer loop
   vertex -63.788597 -74.552261 414.719971
   vertex -63.144489 -74.511642 413.956116
   vertex -63.009335 -74.444359 414.073639
  endloop
 endfacet

 facet normal -0.291891 -0.909976 -0.294522
  outer loop
   vertex -63.923885 -74.473297 414.610077
   vertex -63.144489 -74.511642 413.956116
   vertex -63.788597 -74.552261 414.719971
  endloop
 endfacet

 facet normal -0.291867 -0.909994 -0.294491
  outer loop
   vertex -63.279781 -74.432686 413.846222
   vertex -63.144489 -74.511642 413.956116
   vertex -63.923885 -74.473297 414.610077
  endloop
 endfacet

 facet normal -0.706368 -0.351639 -0.614325
  outer loop
   vertex -63.923885 -74.473297 414.610077
   vertex -63.980057 -74.294350 414.572235
   vertex -63.279781 -74.432686 413.846222
  endloop
 endfacet

 facet normal -0.706370 -0.351625 -0.614329
  outer loop
   vertex -63.279781 -74.432686 413.846222
   vertex -63.980057 -74.294350 414.572235
   vertex -63.335953 -74.253731 413.808380
  endloop
 endfacet

 facet normal -0.707077 0.412599 -0.574286
  outer loop
   vertex -63.335953 -74.253731 413.808380
   vertex -63.980057 -74.294350 414.572235
   vertex -63.924210 -74.120232 414.628571
  endloop
 endfacet

 facet normal -0.707070 0.412614 -0.574284
  outer loop
   vertex -63.924210 -74.120232 414.628571
   vertex -63.280106 -74.079620 413.864716
   vertex -63.335953 -74.253731 413.808380
  endloop
 endfacet

 facet normal -0.293572 0.935244 -0.197825
  outer loop
   vertex -63.789051 -74.052940 414.746124
   vertex -63.280106 -74.079620 413.864716
   vertex -63.924210 -74.120232 414.628571
  endloop
 endfacet

 facet normal -0.293571 0.935246 -0.197814
  outer loop
   vertex -62.404514 -73.451683 412.031281
   vertex -62.507992 -73.223152 413.265320
   vertex -61.863888 -73.182533 412.501465
  endloop
 endfacet

 facet normal 0.291874 0.909987 0.294506
  outer loop
   vertex -61.863888 -73.182533 412.501465
   vertex -62.507992 -73.223152 413.265320
   vertex -61.966835 -73.538979 413.704865
  endloop
 endfacet

 facet normal 0.291897 0.909979 0.294506
  outer loop
   vertex -61.966835 -73.538979 413.704865
   vertex -61.322727 -73.498367 412.940979
   vertex -61.863888 -73.182533 412.501465
  endloop
 endfacet

 facet normal 0.706371 0.351662 0.614307
  outer loop
   vertex -61.742142 -74.254784 413.856262
   vertex -61.322727 -73.498367 412.940979
   vertex -61.966835 -73.538979 413.704865
  endloop
 endfacet

 facet normal 0.706355 0.351681 0.614316
  outer loop
   vertex -61.098038 -74.214172 413.092407
   vertex -61.322727 -73.498367 412.940979
   vertex -61.742142 -74.254784 413.856262
  endloop
 endfacet

 facet normal 0.707058 -0.412650 0.574272
  outer loop
   vertex -61.742142 -74.254784 413.856262
   vertex -61.965542 -74.951256 413.630859
   vertex -61.098038 -74.214172 413.092407
  endloop
 endfacet

 facet normal 0.707064 -0.412674 0.574248
  outer loop
   vertex -61.098038 -74.214172 413.092407
   vertex -61.965542 -74.951256 413.630859
   vertex -61.321438 -74.910637 412.866974
  endloop
 endfacet

 facet normal 0.293576 -0.935246 0.197811
  outer loop
   vertex -61.321438 -74.910637 412.866974
   vertex -61.965542 -74.951256 413.630859
   vertex -62.506165 -75.220406 413.160675
  endloop
 endfacet

 facet normal 0.293579 -0.935240 0.197831
  outer loop
   vertex -62.506165 -75.220406 413.160675
   vertex -61.862061 -75.179794 412.396820
   vertex -61.321438 -74.910637 412.866974
  endloop
 endfacet

 facet normal -0.291877 -0.909988 -0.294500
  outer loop
   vertex -63.047325 -74.904579 412.721130
   vertex -61.862061 -75.179794 412.396820
   vertex -62.506165 -75.220406 413.160675
  endloop
 endfacet

 facet normal -0.291879 -0.909984 -0.294510
  outer loop
   vertex -62.403221 -74.863960 411.957275
   vertex -61.862061 -75.179794 412.396820
   vertex -63.047325 -74.904579 412.721130
  endloop
 endfacet

 facet normal -0.706360 -0.351658 -0.614322
  outer loop
   vertex -63.047325 -74.904579 412.721130
   vertex -63.272015 -74.188774 412.569733
   vertex -62.403221 -74.863960 411.957275
  endloop
 endfacet

 facet normal -0.706360 -0.351658 -0.614322
  outer loop
   vertex -62.403221 -74.863960 411.957275
   vertex -63.272015 -74.188774 412.569733
   vertex -62.627911 -74.148155 411.805878
  endloop
 endfacet

 facet normal -0.707061 0.412647 -0.574271
  outer loop
   vertex -62.627911 -74.148155 411.805878
   vertex -63.272015 -74.188774 412.569733
   vertex -63.048618 -73.492302 412.795135
  endloop
 endfacet

 facet normal -0.707061 0.412647 -0.574271
  outer loop
   vertex -63.048618 -73.492302 412.795135
   vertex -62.404514 -73.451683 412.031281
   vertex -62.627911 -74.148155 411.805878
  endloop
 endfacet

 facet normal -0.293571 0.935246 -0.197814
  outer loop
   vertex -62.507992 -73.223152 413.265320
   vertex -62.404514 -73.451683 412.031281
   vertex -63.048618 -73.492302 412.795135
  endloop
 endfacet

 facet normal -0.608148 0.745605 0.272450
  outer loop
   vertex -63.048618 -73.492302 412.795135
   vertex -63.151413 -74.012733 413.989929
   vertex -62.507992 -73.223152 413.265320
  endloop
 endfacet

 facet normal -0.126970 0.724852 0.677103
  outer loop
   vertex -62.507992 -73.223152 413.265320
   vertex -63.151413 -74.012733 413.989929
   vertex -63.016125 -74.091690 414.099823
  endloop
 endfacet

 facet normal -0.126943 0.724847 0.677113
  outer loop
   vertex -63.016125 -74.091690 414.099823
   vertex -61.966835 -73.538979 413.704865
   vertex -62.507992 -73.223152 413.265320
  endloop
 endfacet

 facet normal 0.213773 0.265878 0.940005
  outer loop
   vertex -62.959949 -74.270645 414.137665
   vertex -61.966835 -73.538979 413.704865
   vertex -63.016125 -74.091690 414.099823
  endloop
 endfacet

 facet normal 0.213746 0.265912 0.940002
  outer loop
   vertex -61.742142 -74.254784 413.856262
   vertex -61.966835 -73.538979 413.704865
   vertex -62.959949 -74.270645 414.137665
  endloop
 endfacet

 facet normal 0.214326 -0.362241 0.907108
  outer loop
   vertex -62.959949 -74.270645 414.137665
   vertex -63.015800 -74.444763 414.081329
   vertex -61.742142 -74.254784 413.856262
  endloop
 endfacet

 facet normal 0.214332 -0.362312 0.907079
  outer loop
   vertex -61.742142 -74.254784 413.856262
   vertex -63.015800 -74.444763 414.081329
   vertex -61.965542 -74.951256 413.630859
  endloop
 endfacet

 facet normal -0.125549 -0.791874 0.597640
  outer loop
   vertex -61.965542 -74.951256 413.630859
   vertex -63.015800 -74.444763 414.081329
   vertex -63.150955 -74.512054 413.963776
  endloop
 endfacet

 facet normal -0.125546 -0.791869 0.597647
  outer loop
   vertex -63.150955 -74.512054 413.963776
   vertex -62.506165 -75.220406 413.160675
   vertex -61.965542 -74.951256 413.630859
  endloop
 endfacet

 facet normal -0.606782 -0.771094 0.192950
  outer loop
   vertex -63.286247 -74.433090 413.853882
   vertex -62.506165 -75.220406 413.160675
   vertex -63.150955 -74.512054 413.963776
  endloop
 endfacet

 facet normal -0.606764 -0.771101 0.192978
  outer loop
   vertex -63.047325 -74.904579 412.721130
   vertex -62.506165 -75.220406 413.160675
   vertex -63.286247 -74.433090 413.853882
  endloop
 endfacet

 facet normal -0.947447 -0.312184 -0.069896
  outer loop
   vertex -63.286247 -74.433090 413.853882
   vertex -63.342419 -74.254143 413.816040
   vertex -63.047325 -74.904579 412.721130
  endloop
 endfacet

 facet normal -0.947447 -0.312185 -0.069895
  outer loop
   vertex -63.047325 -74.904579 412.721130
   vertex -63.342419 -74.254143 413.816040
   vertex -63.272015 -74.188774 412.569733
  endloop
 endfacet

 facet normal -0.948020 0.316055 -0.036977
  outer loop
   vertex -63.272015 -74.188774 412.569733
   vertex -63.342419 -74.254143 413.816040
   vertex -63.286568 -74.080025 413.872375
  endloop
 endfacet

 facet normal -0.948022 0.316049 -0.036976
  outer loop
   vertex -63.286568 -74.080025 413.872375
   vertex -63.048618 -73.492302 412.795135
   vertex -63.272015 -74.188774 412.569733
  endloop
 endfacet

 facet normal -0.608175 0.745586 0.272440
  outer loop
   vertex -63.151413 -74.012733 413.989929
   vertex -63.048618 -73.492302 412.795135
   vertex -63.286568 -74.080025 413.872375
  endloop
 endfacet

 facet normal 0.293550 -0.935255 0.197805
  outer loop
   vertex -63.780056 -83.889442 414.230682
   vertex -63.135952 -83.848831 413.466827
   vertex -63.644901 -83.822159 414.348236
  endloop
 endfacet

 facet normal 0.293576 -0.935244 0.197820
  outer loop
   vertex -63.644901 -83.822159 414.348236
   vertex -63.135952 -83.848831 413.466827
   vertex -63.000793 -83.781540 413.584381
  endloop
 endfacet

 facet normal 0.707044 -0.412695 0.574257
  outer loop
   vertex -63.000793 -83.781540 413.584381
   vertex -63.589050 -83.648041 414.404602
   vertex -63.644901 -83.822159 414.348236
  endloop
 endfacet

 facet normal 0.707050 -0.412682 0.574259
  outer loop
   vertex -62.944946 -83.607422 413.640747
   vertex -63.589050 -83.648041 414.404602
   vertex -63.000793 -83.781540 413.584381
  endloop
 endfacet

 facet normal 0.706342 0.351717 0.614310
  outer loop
   vertex -63.645222 -83.469086 414.366730
   vertex -63.589050 -83.648041 414.404602
   vertex -62.944946 -83.607422 413.640747
  endloop
 endfacet

 facet normal 0.706339 0.351730 0.614305
  outer loop
   vertex -62.944946 -83.607422 413.640747
   vertex -63.001118 -83.428474 413.602875
   vertex -63.645222 -83.469086 414.366730
  endloop
 endfacet

 facet normal 0.291900 0.909974 0.294518
  outer loop
   vertex -63.645222 -83.469086 414.366730
   vertex -63.001118 -83.428474 413.602875
   vertex -63.780514 -83.390129 414.256866
  endloop
 endfacet

 facet normal 0.291903 0.909972 0.294522
  outer loop
   vertex -63.780514 -83.390129 414.256866
   vertex -63.001118 -83.428474 413.602875
   vertex -63.136406 -83.349518 413.493011
  endloop
 endfacet

 facet normal -0.293575 0.935242 -0.197829
  outer loop
   vertex -63.136406 -83.349518 413.493011
   vertex -63.915668 -83.457420 414.139313
   vertex -63.780514 -83.390129 414.256866
  endloop
 endfacet

 facet normal -0.293550 0.935257 -0.197796
  outer loop
   vertex -63.271564 -83.416801 413.375458
   vertex -63.915668 -83.457420 414.139313
   vertex -63.136406 -83.349518 413.493011
  endloop
 endfacet

 facet normal -0.707046 0.412695 -0.574255
  outer loop
   vertex -63.971519 -83.631538 414.082947
   vertex -63.915668 -83.457420 414.139313
   vertex -63.271564 -83.416801 413.375458
  endloop
 endfacet

 facet normal -0.707048 0.412682 -0.574262
  outer loop
   vertex -63.271564 -83.416801 413.375458
   vertex -63.327412 -83.590919 413.319092
   vertex -63.971519 -83.631538 414.082947
  endloop
 endfacet

 facet normal -0.706332 -0.351743 -0.614307
  outer loop
   vertex -63.971519 -83.631538 414.082947
   vertex -63.327412 -83.590919 413.319092
   vertex -63.915344 -83.810486 414.120819
  endloop
 endfacet

 facet normal -0.706343 -0.351717 -0.614308
  outer loop
   vertex -63.915344 -83.810486 414.120819
   vertex -63.327412 -83.590919 413.319092
   vertex -63.271240 -83.769875 413.356964
  endloop
 endfacet

 facet normal -0.291904 -0.909972 -0.294522
  outer loop
   vertex -63.271240 -83.769875 413.356964
   vertex -63.780056 -83.889442 414.230682
   vertex -63.915344 -83.810486 414.120819
  endloop
 endfacet

 facet normal -0.291904 -0.909972 -0.294522
  outer loop
   vertex -63.135952 -83.848831 413.466827
   vertex -63.780056 -83.889442 414.230682
   vertex -63.271240 -83.769875 413.356964
  endloop
 endfacet

 facet normal -0.606773 -0.771096 0.192969
  outer loop
   vertex -63.277706 -83.770279 413.364624
   vertex -63.038784 -84.241760 412.231873
   vertex -63.142418 -83.849236 413.474518
  endloop
 endfacet

 facet normal -0.606764 -0.771103 0.192972
  outer loop
   vertex -63.142418 -83.849236 413.474518
   vertex -63.038784 -84.241760 412.231873
   vertex -62.497627 -84.557594 412.671387
  endloop
 endfacet

 facet normal -0.125489 -0.791860 0.597670
  outer loop
   vertex -62.497627 -84.557594 412.671387
   vertex -63.007259 -83.781952 413.592041
   vertex -63.142418 -83.849236 413.474518
  endloop
 endfacet

 facet normal -0.125544 -0.791869 0.597647
  outer loop
   vertex -61.957001 -84.288445 413.141571
   vertex -63.007259 -83.781952 413.592041
   vertex -62.497627 -84.557594 412.671387
  endloop
 endfacet

 facet normal 0.214296 -0.362371 0.907064
  outer loop
   vertex -62.951412 -83.607834 413.648407
   vertex -63.007259 -83.781952 413.592041
   vertex -61.957001 -84.288445 413.141571
  endloop
 endfacet

 facet normal 0.214343 -0.362313 0.907076
  outer loop
   vertex -61.957001 -84.288445 413.141571
   vertex -61.733604 -83.591972 413.366974
   vertex -62.951412 -83.607834 413.648407
  endloop
 endfacet

 facet normal 0.213760 0.266022 0.939968
  outer loop
   vertex -62.951412 -83.607834 413.648407
   vertex -61.733604 -83.591972 413.366974
   vertex -63.007584 -83.428879 413.610535
  endloop
 endfacet

 facet normal 0.213752 0.265913 0.940000
  outer loop
   vertex -63.007584 -83.428879 413.610535
   vertex -61.733604 -83.591972 413.366974
   vertex -61.958294 -82.876167 413.215576
  endloop
 endfacet

 facet normal -0.126899 0.724803 0.677168
  outer loop
   vertex -61.958294 -82.876167 413.215576
   vertex -63.142872 -83.349922 413.500671
   vertex -63.007584 -83.428879 413.610535
  endloop
 endfacet

 facet normal -0.126919 0.724832 0.677134
  outer loop
   vertex -62.499454 -82.560333 412.776062
   vertex -63.142872 -83.349922 413.500671
   vertex -61.958294 -82.876167 413.215576
  endloop
 endfacet

 facet normal -0.608163 0.745597 0.272440
  outer loop
   vertex -63.278030 -83.417213 413.383118
   vertex -63.142872 -83.349922 413.500671
   vertex -62.499454 -82.560333 412.776062
  endloop
 endfacet

 facet normal -0.608158 0.745598 0.272448
  outer loop
   vertex -62.499454 -82.560333 412.776062
   vertex -63.040077 -82.829491 412.305878
   vertex -63.278030 -83.417213 413.383118
  endloop
 endfacet

 facet normal -0.948025 0.316039 -0.036985
  outer loop
   vertex -63.278030 -83.417213 413.383118
   vertex -63.040077 -82.829491 412.305878
   vertex -63.333878 -83.591331 413.326782
  endloop
 endfacet

 facet normal -0.948020 0.316055 -0.036972
  outer loop
   vertex -63.333878 -83.591331 413.326782
   vertex -63.040077 -82.829491 412.305878
   vertex -63.263477 -83.525955 412.080475
  endloop
 endfacet

 facet normal -0.947447 -0.312183 -0.069894
  outer loop
   vertex -63.263477 -83.525955 412.080475
   vertex -63.277706 -83.770279 413.364624
   vertex -63.333878 -83.591331 413.326782
  endloop
 endfacet

 facet normal -0.947445 -0.312189 -0.069896
  outer loop
   vertex -63.038784 -84.241760 412.231873
   vertex -63.277706 -83.770279 413.364624
   vertex -63.263477 -83.525955 412.080475
  endloop
 endfacet

endsolid