solid stl file generated from DOUG
 facet normal 0.266757 0.050675 -0.962431
  outer loop
   vertex -63.304695 -9.523426 338.488403
   vertex -63.435947 -9.521645 338.452118
   vertex -63.444397 -0.284781 338.936127
  endloop
 facet normal -0.617109 0.040613 -0.785829
  outer loop
   vertex -63.444397 -0.284781 338.936127
   vertex -63.435947 -9.521645 338.452118
   vertex -63.525257 -0.288172 338.999451
  endloop
 facet normal -0.999573 -0.002440 0.029125
  outer loop
   vertex -62.443962 -0.250105 338.291840
   vertex -62.447941 -0.242985 338.155884
   vertex -62.439491 -9.479849 337.671875
  endloop
 facet normal -0.616926 0.040620 -0.785973
  outer loop
   vertex -62.439491 -9.479849 337.671875
   vertex -62.447941 -0.242985 338.155884
   vertex -62.367081 -0.239593 338.092590
  endloop
 facet normal -0.616926 0.040620 -0.785972
  outer loop
   vertex -62.367081 -0.239593 338.092590
   vertex -62.358631 -9.476457 337.608582
   vertex -62.439491 -9.479849 337.671875
  endloop
 facet normal -0.294112 0.049745 -0.954476
  outer loop
   vertex -61.914948 -0.269353 338.668396
   vertex -61.906498 -9.506217 338.184387
   vertex -61.947128 -0.269900 338.678284
  endloop
 facet normal -0.294112 0.049745 -0.954476
  outer loop
   vertex -61.947128 -0.269900 338.678284
   vertex -61.906498 -9.506217 338.184387
   vertex -61.938679 -9.506763 338.194275
  endloop
 facet normal 0.786917 0.033007 -0.616176
  outer loop
   vertex -61.938679 -9.506763 338.194275
   vertex -62.293583 -9.483403 337.742279
   vertex -61.947128 -0.269900 338.678284
  endloop
 facet normal 0.266750 0.050675 -0.962433
  outer loop
   vertex -63.444397 -0.284781 338.936127
   vertex -63.313141 -0.286562 338.972412
   vertex -63.304695 -9.523426 338.488403
  endloop
 facet normal -0.617049 0.040615 -0.785876
  outer loop
   vertex -63.304695 -9.523426 338.488403
   vertex -63.313141 -0.286562 338.972412
   vertex -62.443962 -0.250105 338.291840
  endloop
 facet normal -0.617048 0.040615 -0.785877
  outer loop
   vertex -62.443962 -0.250105 338.291840
   vertex -62.435513 -9.486969 337.807831
   vertex -63.304695 -9.523426 338.488403
  endloop
 facet normal -0.999573 -0.002440 0.029125
  outer loop
   vertex -62.439491 -9.479849 337.671875
   vertex -62.435513 -9.486969 337.807831
   vertex -62.443962 -0.250105 338.291840
  endloop
 facet normal 0.786863 0.033011 -0.616244
  outer loop
   vertex -62.358631 -9.476457 337.608582
   vertex -62.367081 -0.239593 338.092590
   vertex -62.276306 -9.481875 337.713409
  endloop
 facet normal 0.786849 0.033011 -0.616262
  outer loop
   vertex -62.276306 -9.481875 337.713409
   vertex -62.367081 -0.239593 338.092590
   vertex -62.284752 -0.245012 338.197418
  endloop
 facet normal 0.858398 -0.026061 0.512321
  outer loop
   vertex -62.284752 -0.245012 338.197418
   vertex -62.293583 -9.483403 337.742279
   vertex -62.276306 -9.481875 337.713409
  endloop
 facet normal 0.858398 -0.026061 0.512322
  outer loop
   vertex -62.302029 -0.246540 338.226288
   vertex -62.293583 -9.483403 337.742279
   vertex -62.284752 -0.245012 338.197418
  endloop
 facet normal 0.786920 0.033007 -0.616172
  outer loop
   vertex -61.947128 -0.269900 338.678284
   vertex -62.293583 -9.483403 337.742279
   vertex -62.302029 -0.246540 338.226288
  endloop
 facet normal -0.000914 0.998630 0.052329
  outer loop
   vertex -63.550701 0.249624 339.023407
   vertex -61.847069 0.265192 338.756073
   vertex -62.365704 0.299329 338.095551
  endloop
 facet normal 0.786918 0.033012 -0.616173
  outer loop
   vertex -62.365704 0.299329 338.095551
   vertex -61.847069 0.265192 338.756073
   vertex -62.364792 -0.699301 338.043213
  endloop
 facet normal -0.617060 0.040624 -0.785867
  outer loop
   vertex -62.364792 -0.699301 338.043213
   vertex -63.549789 -0.749005 338.971100
   vertex -62.365704 0.299329 338.095551
  endloop
 facet normal 0.000913 -0.998630 -0.052328
  outer loop
   vertex -61.846157 -0.733438 338.703735
   vertex -63.549789 -0.749005 338.971100
   vertex -62.364792 -0.699301 338.043213
  endloop
 facet normal 0.000913 -0.998630 -0.052328
  outer loop
   vertex -63.031155 -0.783142 339.631622
   vertex -63.549789 -0.749005 338.971100
   vertex -61.846157 -0.733438 338.703735
  endloop
 facet normal 0.617060 -0.040624 0.785867
  outer loop
   vertex -61.846157 -0.733438 338.703735
   vertex -61.847069 0.265192 338.756073
   vertex -63.031155 -0.783142 339.631622
  endloop
 facet normal 0.617060 -0.040624 0.785867
  outer loop
   vertex -63.031155 -0.783142 339.631622
   vertex -61.847069 0.265192 338.756073
   vertex -63.032066 0.215487 339.683960
  endloop
 facet normal -0.000914 0.998630 0.052326
  outer loop
   vertex -63.032066 0.215487 339.683960
   vertex -61.847069 0.265192 338.756073
   vertex -63.550701 0.249624 339.023407
  endloop
 facet normal -0.786932 -0.032992 0.616157
  outer loop
   vertex -63.550701 0.249624 339.023407
   vertex -63.549789 -0.749005 338.971100
   vertex -63.032066 0.215487 339.683960
  endloop
 facet normal -0.617048 0.040600 -0.785878
  outer loop
   vertex -62.365704 0.299329 338.095551
   vertex -63.549789 -0.749005 338.971100
   vertex -63.550701 0.249624 339.023407
  endloop
 facet normal -0.000914 0.998630 0.052326
  outer loop
   vertex -62.357185 -9.014105 337.607513
   vertex -63.542183 -9.063809 338.535400
   vertex -61.838551 -9.048242 338.268066
  endloop
 facet normal -0.000914 0.998630 0.052328
  outer loop
   vertex -61.838551 -9.048242 338.268066
   vertex -63.542183 -9.063809 338.535400
   vertex -63.023548 -9.097946 339.195923
  endloop
 facet normal 0.617048 -0.040622 0.785877
  outer loop
   vertex -63.023548 -9.097946 339.195923
   vertex -63.022633 -10.096576 339.143585
   vertex -61.838551 -9.048242 338.268066
  endloop
 facet normal -0.786918 -0.033015 0.616173
  outer loop
   vertex -63.542183 -9.063809 338.535400
   vertex -63.022633 -10.096576 339.143585
   vertex -63.023548 -9.097946 339.195923
  endloop
 facet normal -0.786916 -0.033012 0.616176
  outer loop
   vertex -63.541271 -10.062438 338.483063
   vertex -63.022633 -10.096576 339.143585
   vertex -63.542183 -9.063809 338.535400
  endloop
 facet normal -0.617048 0.040624 -0.785877
  outer loop
   vertex -63.542183 -9.063809 338.535400
   vertex -62.356274 -10.012734 337.555206
   vertex -63.541271 -10.062438 338.483063
  endloop
 facet normal 0.000913 -0.998629 -0.052329
  outer loop
   vertex -63.541271 -10.062438 338.483063
   vertex -62.356274 -10.012734 337.555206
   vertex -63.022633 -10.096576 339.143585
  endloop
 facet normal 0.000914 -0.998630 -0.052328
  outer loop
   vertex -63.022633 -10.096576 339.143585
   vertex -62.356274 -10.012734 337.555206
   vertex -61.837639 -10.046871 338.215729
  endloop
 facet normal 0.617049 -0.040624 0.785876
  outer loop
   vertex -61.837639 -10.046871 338.215729
   vertex -61.838551 -9.048242 338.268066
   vertex -63.022633 -10.096576 339.143585
  endloop
 facet normal 0.786918 0.033012 -0.616173
  outer loop
   vertex -62.356274 -10.012734 337.555206
   vertex -61.838551 -9.048242 338.268066
   vertex -61.837639 -10.046871 338.215729
  endloop
 facet normal 0.786932 0.032992 -0.616157
  outer loop
   vertex -62.357185 -9.014105 337.607513
   vertex -61.838551 -9.048242 338.268066
   vertex -62.356274 -10.012734 337.555206
  endloop
 facet normal -0.617060 0.040600 -0.785868
  outer loop
   vertex -62.356274 -10.012734 337.555206
   vertex -63.542183 -9.063809 338.535400
   vertex -62.357185 -9.014105 337.607513
  endloop
 facet normal -0.617109 0.040613 -0.785829
  outer loop
   vertex -63.435947 -9.521645 338.452118
   vertex -63.516808 -9.525036 338.515442
   vertex -63.525257 -0.288172 338.999451
  endloop
 facet normal -0.786950 -0.033005 0.616133
  outer loop
   vertex -63.525257 -0.288172 338.999451
   vertex -63.516808 -9.525036 338.515442
   vertex -63.434483 -9.530456 338.620300
  endloop
 facet normal -0.786936 -0.033006 0.616151
  outer loop
   vertex -63.434483 -9.530456 338.620300
   vertex -63.442928 -0.293591 339.104309
   vertex -63.525257 -0.288172 338.999451
  endloop
 facet normal 0.294113 -0.049745 0.954475
  outer loop
   vertex -63.402302 -9.529908 338.610413
   vertex -63.442928 -0.293591 339.104309
   vertex -63.434483 -9.530456 338.620300
  endloop
 facet normal 0.294144 -0.049745 0.954466
  outer loop
   vertex -63.410751 -0.293044 339.094421
   vertex -63.442928 -0.293591 339.104309
   vertex -63.402302 -9.529908 338.610413
  endloop
 facet normal -0.786917 -0.033007 0.616176
  outer loop
   vertex -63.402302 -9.529908 338.610413
   vertex -63.047398 -9.553268 339.062408
   vertex -63.410751 -0.293044 339.094421
  endloop
 facet normal -0.786917 -0.033007 0.616176
  outer loop
   vertex -63.410751 -0.293044 339.094421
   vertex -63.047398 -9.553268 339.062408
   vertex -63.055847 -0.316405 339.546417
  endloop
 facet normal -0.858398 0.026060 -0.512321
  outer loop
   vertex -63.055847 -0.316405 339.546417
   vertex -63.047398 -9.553268 339.062408
   vertex -63.064674 -9.554796 339.091278
  endloop
 facet normal -0.858398 0.026060 -0.512322
  outer loop
   vertex -63.064674 -9.554796 339.091278
   vertex -63.073124 -0.317932 339.575287
   vertex -63.055847 -0.316405 339.546417
  endloop
 facet normal -0.786798 -0.033015 0.616327
  outer loop
   vertex -63.023827 -9.557485 339.143280
   vertex -63.073124 -0.317932 339.575287
   vertex -63.064674 -9.554796 339.091278
  endloop
 facet normal -0.786974 -0.033006 0.616103
  outer loop
   vertex -63.032276 -0.320621 339.627319
   vertex -63.073124 -0.317932 339.575287
   vertex -63.023827 -9.557485 339.143280
  endloop
 facet normal 0.617050 -0.040618 0.785875
  outer loop
   vertex -63.023827 -9.557485 339.143280
   vertex -61.865650 -9.508905 338.236420
   vertex -63.032276 -0.320621 339.627319
  endloop
 facet normal 0.617062 -0.040615 0.785865
  outer loop
   vertex -63.032276 -0.320621 339.627319
   vertex -61.865650 -9.508905 338.236420
   vertex -61.874100 -0.272042 338.720428
  endloop
 facet normal 0.786973 0.033004 -0.616104
  outer loop
   vertex -61.874100 -0.272042 338.720428
   vertex -61.865650 -9.508905 338.236420
   vertex -61.914948 -0.269353 338.668396
  endloop
 facet normal 0.786918 0.033012 -0.616173
  outer loop
   vertex -61.846157 -0.733438 338.703735
   vertex -62.364792 -0.699301 338.043213
   vertex -61.847069 0.265192 338.756073
  endloop
 facet normal -0.786918 -0.033012 0.616173
  outer loop
   vertex -63.549789 -0.749005 338.971100
   vertex -63.031155 -0.783142 339.631622
   vertex -63.032066 0.215487 339.683960
  endloop
 facet normal 0.786973 0.033004 -0.616104
  outer loop
   vertex -61.865650 -9.508905 338.236420
   vertex -61.906498 -9.506217 338.184387
   vertex -61.914948 -0.269353 338.668396
  endloop
 facet normal -0.300297 -0.935244 0.187457
  outer loop
   vertex -61.232250 -10.661730 340.177887
   vertex -60.615196 -10.702345 340.963745
   vertex -61.788956 -10.392577 340.628906
  endloop
 facet normal -0.300295 -0.935247 0.187446
  outer loop
   vertex -61.788956 -10.392577 340.628906
   vertex -60.615196 -10.702345 340.963745
   vertex -61.171902 -10.433193 341.414795
  endloop
 facet normal -0.726677 -0.412649 0.549237
  outer loop
   vertex -61.171902 -10.433193 341.414795
   vertex -62.020084 -9.696108 340.846375
   vertex -61.788956 -10.392577 340.628906
  endloop
 facet normal -0.726677 -0.412649 0.549237
  outer loop
   vertex -61.403030 -9.736723 341.632263
   vertex -62.020084 -9.696108 340.846375
   vertex -61.171902 -10.433193 341.414795
  endloop
 facet normal -0.727377 0.351660 0.589286
  outer loop
   vertex -61.790245 -8.980302 340.702911
   vertex -62.020084 -9.696108 340.846375
   vertex -61.403030 -9.736723 341.632263
  endloop
 facet normal -0.727376 0.351661 0.589286
  outer loop
   vertex -61.403030 -9.736723 341.632263
   vertex -61.173191 -9.020918 341.488800
   vertex -61.790245 -8.980302 340.702911
  endloop
 facet normal -0.301986 0.909983 0.284139
  outer loop
   vertex -61.790245 -8.980302 340.702911
   vertex -61.173191 -9.020918 341.488800
   vertex -61.234077 -8.664471 340.282532
  endloop
 facet normal -0.301987 0.909983 0.284139
  outer loop
   vertex -61.234077 -8.664471 340.282532
   vertex -61.173191 -9.020918 341.488800
   vertex -60.617023 -8.705086 341.068420
  endloop
 facet normal 0.300300 0.935244 -0.187452
  outer loop
   vertex -60.617023 -8.705086 341.068420
   vertex -60.677372 -8.933623 339.831512
   vertex -61.234077 -8.664471 340.282532
  endloop
 facet normal 0.300300 0.935244 -0.187452
  outer loop
   vertex -60.060318 -8.974238 340.617401
   vertex -60.677372 -8.933623 339.831512
   vertex -60.617023 -8.705086 341.068420
  endloop
 facet normal 0.726677 0.412649 -0.549237
  outer loop
   vertex -60.446243 -9.630093 339.614044
   vertex -60.677372 -8.933623 339.831512
   vertex -60.060318 -8.974238 340.617401
  endloop
 facet normal 0.726660 0.412670 -0.549244
  outer loop
   vertex -60.060318 -8.974238 340.617401
   vertex -59.829189 -9.670708 340.399902
   vertex -60.446243 -9.630093 339.614044
  endloop
 facet normal 0.727366 -0.351660 -0.589300
  outer loop
   vertex -60.446243 -9.630093 339.614044
   vertex -59.829189 -9.670708 340.399902
   vertex -60.676083 -10.345899 339.757507
  endloop
 facet normal 0.727369 -0.351679 -0.589285
  outer loop
   vertex -60.676083 -10.345899 339.757507
   vertex -59.829189 -9.670708 340.399902
   vertex -60.059025 -10.386514 340.543396
  endloop
 facet normal 0.301986 -0.909983 -0.284139
  outer loop
   vertex -60.059025 -10.386514 340.543396
   vertex -61.232250 -10.661730 340.177887
   vertex -60.676083 -10.345899 339.757507
  endloop
 facet normal 0.301988 -0.909979 -0.284150
  outer loop
   vertex -60.615196 -10.702345 340.963745
   vertex -61.232250 -10.661730 340.177887
   vertex -60.059025 -10.386514 340.543396
  endloop
 facet normal 0.300296 0.935246 -0.187450
  outer loop
   vertex -61.713615 -0.103338 339.841827
   vertex -62.469849 0.004566 339.168701
   vertex -61.852791 -0.036049 339.954590
  endloop
 facet normal -0.301977 0.909988 0.284133
  outer loop
   vertex -61.852791 -0.036049 339.954590
   vertex -62.469849 0.004566 339.168701
   vertex -62.608891 -0.074392 339.273804
  endloop
 facet normal -0.302001 0.909972 0.284160
  outer loop
   vertex -62.608891 -0.074392 339.273804
   vertex -61.991837 -0.115007 340.059662
   vertex -61.852791 -0.036049 339.954590
  endloop
 facet normal -0.727376 0.351628 0.589307
  outer loop
   vertex -62.666348 -0.253343 339.309662
   vertex -61.991837 -0.115007 340.059662
   vertex -62.608891 -0.074392 339.273804
  endloop
 facet normal -0.727359 0.351716 0.589275
  outer loop
   vertex -62.049294 -0.293958 340.095551
   vertex -61.991837 -0.115007 340.059662
   vertex -62.666348 -0.253343 339.309662
  endloop
 facet normal -0.726692 -0.412605 0.549251
  outer loop
   vertex -62.666348 -0.253343 339.309662
   vertex -62.608566 -0.427461 339.255310
   vertex -62.049294 -0.293958 340.095551
  endloop
 facet normal -0.726655 -0.412686 0.549239
  outer loop
   vertex -62.049294 -0.293958 340.095551
   vertex -62.608566 -0.427461 339.255310
   vertex -61.991512 -0.468076 340.041168
  endloop
 facet normal -0.300292 -0.935247 0.187452
  outer loop
   vertex -61.991512 -0.468076 340.041168
   vertex -62.608566 -0.427461 339.255310
   vertex -62.469391 -0.494749 339.142548
  endloop
 facet normal -0.300291 -0.935247 0.187452
  outer loop
   vertex -62.469391 -0.494749 339.142548
   vertex -61.852337 -0.535364 339.928406
   vertex -61.991512 -0.468076 340.041168
  endloop
 facet normal 0.301972 -0.909988 -0.284139
  outer loop
   vertex -62.330349 -0.415791 339.037445
   vertex -61.852337 -0.535364 339.928406
   vertex -62.469391 -0.494749 339.142548
  endloop
 facet normal 0.302011 -0.909970 -0.284157
  outer loop
   vertex -61.713295 -0.456406 339.823334
   vertex -61.852337 -0.535364 339.928406
   vertex -62.330349 -0.415791 339.037445
  endloop
 facet normal 0.727383 -0.351642 -0.589290
  outer loop
   vertex -62.330349 -0.415791 339.037445
   vertex -62.272888 -0.236840 339.001587
   vertex -61.713295 -0.456406 339.823334
  endloop
 facet normal 0.727343 -0.351729 -0.589286
  outer loop
   vertex -61.713295 -0.456406 339.823334
   vertex -62.272888 -0.236840 339.001587
   vertex -61.655834 -0.277455 339.787445
  endloop
 facet normal 0.726654 0.412687 -0.549239
  outer loop
   vertex -61.655834 -0.277455 339.787445
   vertex -62.272888 -0.236840 339.001587
   vertex -62.330669 -0.062723 339.055969
  endloop
 facet normal 0.726654 0.412687 -0.549239
  outer loop
   vertex -62.330669 -0.062723 339.055969
   vertex -61.713615 -0.103338 339.841827
   vertex -61.655834 -0.277455 339.787445
  endloop
 facet normal 0.300311 0.935238 -0.187468
  outer loop
   vertex -62.469849 0.004566 339.168701
   vertex -61.713615 -0.103338 339.841827
   vertex -62.330669 -0.062723 339.055969
  endloop
 facet normal 0.300297 0.935244 -0.187456
  outer loop
   vertex -60.068859 0.362948 341.106659
   vertex -61.242619 0.672715 340.771820
   vertex -60.625565 0.632100 341.557678
  endloop
 facet normal -0.301981 0.909983 0.284145
  outer loop
   vertex -60.625565 0.632100 341.557678
   vertex -61.242619 0.672715 340.771820
   vertex -61.798786 0.356884 341.192200
  endloop
 facet normal -0.301981 0.909983 0.284145
  outer loop
   vertex -61.798786 0.356884 341.192200
   vertex -61.181732 0.316269 341.978058
   vertex -60.625565 0.632100 341.557678
  endloop
 facet normal -0.727365 0.351660 0.589300
  outer loop
   vertex -62.028625 -0.358921 341.335663
   vertex -61.181732 0.316269 341.978058
   vertex -61.798786 0.356884 341.192200
  endloop
 facet normal -0.727365 0.351657 0.589303
  outer loop
   vertex -61.411568 -0.399536 342.121521
   vertex -61.181732 0.316269 341.978058
   vertex -62.028625 -0.358921 341.335663
  endloop
 facet normal -0.726664 -0.412653 0.549251
  outer loop
   vertex -62.028625 -0.358921 341.335663
   vertex -61.797493 -1.055391 341.118195
   vertex -61.411568 -0.399536 342.121521
  endloop
 facet normal -0.726667 -0.412649 0.549250
  outer loop
   vertex -61.411568 -0.399536 342.121521
   vertex -61.797493 -1.055391 341.118195
   vertex -61.180439 -1.096007 341.904053
  endloop
 facet normal -0.300292 -0.935247 0.187453
  outer loop
   vertex -61.180439 -1.096007 341.904053
   vertex -61.797493 -1.055391 341.118195
   vertex -61.240791 -1.324544 340.667145
  endloop
 facet normal -0.300301 -0.935244 0.187453
  outer loop
   vertex -61.240791 -1.324544 340.667145
   vertex -60.623737 -1.365159 341.453033
   vertex -61.180439 -1.096007 341.904053
  endloop
 facet normal 0.301994 -0.909979 -0.284144
  outer loop
   vertex -60.684620 -1.008713 340.246796
   vertex -60.623737 -1.365159 341.453033
   vertex -61.240791 -1.324544 340.667145
  endloop
 facet normal 0.301980 -0.909984 -0.284144
  outer loop
   vertex -60.067566 -1.049328 341.032654
   vertex -60.623737 -1.365159 341.453033
   vertex -60.684620 -1.008713 340.246796
  endloop
 facet normal 0.727359 -0.351679 -0.589297
  outer loop
   vertex -60.684620 -1.008713 340.246796
   vertex -60.454784 -0.292908 340.103302
   vertex -60.067566 -1.049328 341.032654
  endloop
 facet normal 0.727378 -0.351657 -0.589287
  outer loop
   vertex -60.067566 -1.049328 341.032654
   vertex -60.454784 -0.292908 340.103302
   vertex -59.837730 -0.333523 340.889191
  endloop
 facet normal 0.726671 0.412669 -0.549231
  outer loop
   vertex -59.837730 -0.333523 340.889191
   vertex -60.454784 -0.292908 340.103302
   vertex -60.685913 0.403563 340.320801
  endloop
 facet normal 0.726667 0.412649 -0.549250
  outer loop
   vertex -60.685913 0.403563 340.320801
   vertex -60.068859 0.362948 341.106659
   vertex -59.837730 -0.333523 340.889191
  endloop
 facet normal 0.300297 0.935244 -0.187456
  outer loop
   vertex -61.242619 0.672715 340.771820
   vertex -60.068859 0.362948 341.106659
   vertex -60.685913 0.403563 340.320801
  endloop
 facet normal -0.104597 0.791869 -0.601667
  outer loop
   vertex -60.685913 0.403563 340.320801
   vertex -61.858986 -0.035642 339.946686
   vertex -61.242619 0.672715 340.771820
  endloop
 facet normal -0.599666 0.771099 -0.214025
  outer loop
   vertex -61.242619 0.672715 340.771820
   vertex -61.858986 -0.035642 339.946686
   vertex -61.998028 -0.114599 340.051788
  endloop
 facet normal -0.599662 0.771101 -0.214031
  outer loop
   vertex -61.998028 -0.114599 340.051788
   vertex -61.798786 0.356884 341.192200
   vertex -61.242619 0.672715 340.771820
  endloop
 facet normal -0.949307 0.312190 0.036784
  outer loop
   vertex -62.055489 -0.293551 340.087646
   vertex -61.798786 0.356884 341.192200
   vertex -61.998028 -0.114599 340.051788
  endloop
 facet normal -0.949308 0.312188 0.036786
  outer loop
   vertex -62.028625 -0.358921 341.335663
   vertex -61.798786 0.356884 341.192200
   vertex -62.055489 -0.293551 340.087646
  endloop
 facet normal -0.948736 -0.316046 0.003867
  outer loop
   vertex -62.055489 -0.293551 340.087646
   vertex -61.997707 -0.467669 340.033295
   vertex -62.028625 -0.358921 341.335663
  endloop
 facet normal -0.948732 -0.316057 0.003868
  outer loop
   vertex -62.028625 -0.358921 341.335663
   vertex -61.997707 -0.467669 340.033295
   vertex -61.797493 -1.055391 341.118195
  endloop
 facet normal -0.598270 -0.745604 -0.293508
  outer loop
   vertex -61.797493 -1.055391 341.118195
   vertex -61.997707 -0.467669 340.033295
   vertex -61.858528 -0.534956 339.920532
  endloop
 facet normal -0.598281 -0.745597 -0.293504
  outer loop
   vertex -61.858528 -0.534956 339.920532
   vertex -61.240791 -1.324544 340.667145
   vertex -61.797493 -1.055391 341.118195
  endloop
 facet normal -0.103256 -0.724843 -0.681132
  outer loop
   vertex -61.719486 -0.455999 339.815430
   vertex -61.240791 -1.324544 340.667145
   vertex -61.858528 -0.534956 339.920532
  endloop
 facet normal -0.103201 -0.724832 -0.681152
  outer loop
   vertex -60.684620 -1.008713 340.246796
   vertex -61.240791 -1.324544 340.667145
   vertex -61.719486 -0.455999 339.815430
  endloop
 facet normal 0.246468 -0.265882 -0.931966
  outer loop
   vertex -61.719486 -0.455999 339.815430
   vertex -61.662029 -0.277047 339.779572
   vertex -60.684620 -1.008713 340.246796
  endloop
 facet normal 0.246417 -0.265947 -0.931961
  outer loop
   vertex -60.684620 -1.008713 340.246796
   vertex -61.662029 -0.277047 339.779572
   vertex -60.454784 -0.292908 340.103302
  endloop
 facet normal 0.245852 0.362239 -0.899077
  outer loop
   vertex -60.454784 -0.292908 340.103302
   vertex -61.662029 -0.277047 339.779572
   vertex -61.719810 -0.102930 339.833923
  endloop
 facet normal 0.245859 0.362346 -0.899032
  outer loop
   vertex -61.719810 -0.102930 339.833923
   vertex -60.685913 0.403563 340.320801
   vertex -60.454784 -0.292908 340.103302
  endloop
 facet normal -0.104608 0.791882 -0.601648
  outer loop
   vertex -61.858986 -0.035642 339.946686
   vertex -60.685913 0.403563 340.320801
   vertex -61.719810 -0.102930 339.833923
  endloop
 facet normal -0.300312 -0.935237 0.187469
  outer loop
   vertex -62.460850 -9.831935 338.653290
   vertex -61.843796 -9.872550 339.439148
   vertex -62.600025 -9.764647 338.766022
  endloop
 facet normal -0.300293 -0.935247 0.187447
  outer loop
   vertex -62.600025 -9.764647 338.766022
   vertex -61.843796 -9.872550 339.439148
   vertex -61.982971 -9.805263 339.551910
  endloop
 facet normal -0.726661 -0.412698 0.549222
  outer loop
   vertex -61.982971 -9.805263 339.551910
   vertex -62.657810 -9.590529 338.820404
   vertex -62.600025 -9.764647 338.766022
  endloop
 facet normal -0.726680 -0.412605 0.549266
  outer loop
   vertex -62.040752 -9.631145 339.606262
   vertex -62.657810 -9.590529 338.820404
   vertex -61.982971 -9.805263 339.551910
  endloop
 facet normal -0.727370 0.351641 0.589306
  outer loop
   vertex -62.600349 -9.411578 338.784546
   vertex -62.657810 -9.590529 338.820404
   vertex -62.040752 -9.631145 339.606262
  endloop
 facet normal -0.727376 0.351628 0.589307
  outer loop
   vertex -62.040752 -9.631145 339.606262
   vertex -61.983295 -9.452193 339.570404
   vertex -62.600349 -9.411578 338.784546
  endloop
 facet normal -0.301972 0.909988 0.284138
  outer loop
   vertex -62.600349 -9.411578 338.784546
   vertex -61.983295 -9.452193 339.570404
   vertex -62.461308 -9.332621 338.679443
  endloop
 facet normal -0.301972 0.909988 0.284138
  outer loop
   vertex -62.461308 -9.332621 338.679443
   vertex -61.983295 -9.452193 339.570404
   vertex -61.844254 -9.373236 339.465302
  endloop
 facet normal 0.300290 0.935248 -0.187451
  outer loop
   vertex -61.844254 -9.373236 339.465302
   vertex -62.322132 -9.399908 338.566681
   vertex -62.461308 -9.332621 338.679443
  endloop
 facet normal 0.300315 0.935237 -0.187464
  outer loop
   vertex -61.705078 -9.440523 339.352570
   vertex -62.322132 -9.399908 338.566681
   vertex -61.844254 -9.373236 339.465302
  endloop
 facet normal 0.726687 0.412618 -0.549247
  outer loop
   vertex -62.264347 -9.574026 338.512329
   vertex -62.322132 -9.399908 338.566681
   vertex -61.705078 -9.440523 339.352570
  endloop
 facet normal 0.726651 0.412698 -0.549235
  outer loop
   vertex -61.705078 -9.440523 339.352570
   vertex -61.647293 -9.614641 339.298187
   vertex -62.264347 -9.574026 338.512329
  endloop
 facet normal 0.727371 -0.351641 -0.589304
  outer loop
   vertex -62.264347 -9.574026 338.512329
   vertex -61.647293 -9.614641 339.298187
   vertex -62.321808 -9.752977 338.548187
  endloop
 facet normal 0.727371 -0.351641 -0.589304
  outer loop
   vertex -62.321808 -9.752977 338.548187
   vertex -61.647293 -9.614641 339.298187
   vertex -61.704754 -9.793592 339.334045
  endloop
 facet normal 0.301972 -0.909988 -0.284138
  outer loop
   vertex -61.704754 -9.793592 339.334045
   vertex -62.460850 -9.831935 338.653290
   vertex -62.321808 -9.752977 338.548187
  endloop
 facet normal 0.301972 -0.909988 -0.284138
  outer loop
   vertex -61.843796 -9.872550 339.439148
   vertex -62.460850 -9.831935 338.653290
   vertex -61.704754 -9.793592 339.334045
  endloop
 facet normal -0.103242 -0.724851 -0.681126
  outer loop
   vertex -61.710949 -9.793184 339.326172
   vertex -60.676083 -10.345899 339.757507
   vertex -61.849991 -9.872143 339.431274
  endloop
 facet normal -0.103231 -0.724835 -0.681144
  outer loop
   vertex -61.849991 -9.872143 339.431274
   vertex -60.676083 -10.345899 339.757507
   vertex -61.232250 -10.661730 340.177887
  endloop
 facet normal -0.598251 -0.745608 -0.293537
  outer loop
   vertex -61.232250 -10.661730 340.177887
   vertex -61.989166 -9.804854 339.544006
   vertex -61.849991 -9.872143 339.431274
  endloop
 facet normal -0.598269 -0.745604 -0.293510
  outer loop
   vertex -61.788956 -10.392577 340.628906
   vertex -61.989166 -9.804854 339.544006
   vertex -61.232250 -10.661730 340.177887
  endloop
 facet normal -0.948735 -0.316049 0.003869
  outer loop
   vertex -62.046947 -9.630737 339.598389
   vertex -61.989166 -9.804854 339.544006
   vertex -61.788956 -10.392577 340.628906
  endloop
 facet normal -0.948734 -0.316052 0.003867
  outer loop
   vertex -61.788956 -10.392577 340.628906
   vertex -62.020084 -9.696108 340.846375
   vertex -62.046947 -9.630737 339.598389
  endloop
 facet normal -0.949307 0.312191 0.036787
  outer loop
   vertex -62.046947 -9.630737 339.598389
   vertex -62.020084 -9.696108 340.846375
   vertex -61.989487 -9.451786 339.562531
  endloop
 facet normal -0.949308 0.312188 0.036786
  outer loop
   vertex -61.989487 -9.451786 339.562531
   vertex -62.020084 -9.696108 340.846375
   vertex -61.790245 -8.980302 340.702911
  endloop
 facet normal -0.599672 0.771092 -0.214032
  outer loop
   vertex -61.790245 -8.980302 340.702911
   vertex -61.850445 -9.372828 339.457428
   vertex -61.989487 -9.451786 339.562531
  endloop
 facet normal -0.599663 0.771099 -0.214035
  outer loop
   vertex -61.234077 -8.664471 340.282532
   vertex -61.850445 -9.372828 339.457428
   vertex -61.790245 -8.980302 340.702911
  endloop
 facet normal -0.104628 0.791867 -0.601664
  outer loop
   vertex -61.711269 -9.440116 339.344666
   vertex -61.850445 -9.372828 339.457428
   vertex -61.234077 -8.664471 340.282532
  endloop
 facet normal -0.104605 0.791863 -0.601673
  outer loop
   vertex -61.234077 -8.664471 340.282532
   vertex -60.677372 -8.933623 339.831512
   vertex -61.711269 -9.440116 339.344666
  endloop
 facet normal 0.245895 0.362247 -0.899062
  outer loop
   vertex -61.711269 -9.440116 339.344666
   vertex -60.677372 -8.933623 339.831512
   vertex -61.653488 -9.614234 339.290314
  endloop
 facet normal 0.245846 0.362309 -0.899051
  outer loop
   vertex -61.653488 -9.614234 339.290314
   vertex -60.677372 -8.933623 339.831512
   vertex -60.446243 -9.630093 339.614044
  endloop
 facet normal 0.246424 -0.265877 -0.931979
  outer loop
   vertex -60.446243 -9.630093 339.614044
   vertex -61.710949 -9.793184 339.326172
   vertex -61.653488 -9.614234 339.290314
  endloop
 facet normal 0.246426 -0.265912 -0.931968
  outer loop
   vertex -60.676083 -10.345899 339.757507
   vertex -61.710949 -9.793184 339.326172
   vertex -60.446243 -9.630093 339.614044
  endloop
endsolid