solid stl file generated from DOUG
 facet normal -0.592987 -0.803501 -0.052467
  outer loop
   vertex -69.731255 162.457428 375.294678
   vertex -69.840897 162.538193 375.296997
   vertex -69.679688 163.022278 366.061523
  endloop
 facet normal -0.999848 0.000021 -0.017452
  outer loop
   vertex -69.679688 163.022278 366.061523
   vertex -69.840897 162.538193 375.296997
   vertex -69.679779 163.124893 366.066895
  endloop
 facet normal -0.594472 0.803490 0.031739
  outer loop
   vertex -69.569046 161.838501 366.001404
   vertex -69.678535 161.757736 365.995270
   vertex -69.839737 161.273651 375.230713
  endloop
 facet normal -0.999848 -0.000053 -0.017455
  outer loop
   vertex -69.839737 161.273651 375.230713
   vertex -69.678535 161.757736 365.995270
   vertex -69.678436 161.655121 365.989899
  endloop
 facet normal -0.999848 0.000021 -0.017452
  outer loop
   vertex -69.678436 161.655121 365.989899
   vertex -69.839645 161.171036 375.225342
   vertex -69.839737 161.273651 375.230713
  endloop
 facet normal -0.933028 -0.358092 -0.035055
  outer loop
   vertex -68.945824 161.655121 366.002686
   vertex -69.107025 161.171036 375.238129
   vertex -68.957924 161.686508 366.004120
  endloop
 facet normal -0.932952 -0.358289 -0.035065
  outer loop
   vertex -68.957924 161.686508 366.004120
   vertex -69.107025 161.171036 375.238129
   vertex -69.119133 161.202423 375.239563
  endloop
 facet normal 0.000914 -0.998630 -0.052328
  outer loop
   vertex -69.119133 161.202423 375.239563
   vertex -69.694199 161.202423 375.229523
   vertex -68.957924 161.686508 366.004120
  endloop
 facet normal -0.593013 -0.803481 -0.052466
  outer loop
   vertex -69.679688 163.022278 366.061523
   vertex -69.570053 162.941513 366.059204
   vertex -69.731255 162.457428 375.294678
  endloop
 facet normal -0.999848 0.000002 -0.017452
  outer loop
   vertex -69.731255 162.457428 375.294678
   vertex -69.570053 162.941513 366.059204
   vertex -69.569046 161.838501 366.001404
  endloop
 facet normal -0.999848 0.000002 -0.017452
  outer loop
   vertex -69.569046 161.838501 366.001404
   vertex -69.730247 161.354416 375.236877
   vertex -69.731255 162.457428 375.294678
  endloop
 facet normal -0.594477 0.803486 0.031739
  outer loop
   vertex -69.839737 161.273651 375.230713
   vertex -69.730247 161.354416 375.236877
   vertex -69.569046 161.838501 366.001404
  endloop
 facet normal 0.000910 -0.998630 -0.052328
  outer loop
   vertex -69.839645 161.171036 375.225342
   vertex -69.678436 161.655121 365.989899
   vertex -69.706245 161.171036 375.227661
  endloop
 facet normal 0.000910 -0.998630 -0.052328
  outer loop
   vertex -69.706245 161.171036 375.227661
   vertex -69.678436 161.655121 365.989899
   vertex -69.545044 161.655121 365.992218
  endloop
 facet normal 0.933643 -0.358196 -0.002479
  outer loop
   vertex -69.545044 161.655121 365.992218
   vertex -69.694199 161.202423 375.229523
   vertex -69.706245 161.171036 375.227661
  endloop
 facet normal 0.933643 -0.358196 -0.002479
  outer loop
   vertex -69.532997 161.686508 365.994080
   vertex -69.694199 161.202423 375.229523
   vertex -69.545044 161.655121 365.992218
  endloop
 facet normal 0.000914 -0.998630 -0.052328
  outer loop
   vertex -68.957924 161.686508 366.004120
   vertex -69.694199 161.202423 375.229523
   vertex -69.532997 161.686508 365.994080
  endloop
 facet normal 0.017441 0.052334 -0.998477
  outer loop
   vertex -69.689117 163.170090 365.529938
   vertex -68.847374 161.666275 365.465820
   vertex -69.687744 161.666275 365.451141
  endloop
 facet normal 0.000914 -0.998629 -0.052330
  outer loop
   vertex -69.687744 161.666275 365.451141
   vertex -68.847374 161.666275 365.465820
   vertex -69.705170 161.613937 366.449615
  endloop
 facet normal -0.999848 -0.000003 -0.017450
  outer loop
   vertex -69.705170 161.613937 366.449615
   vertex -69.706551 163.117752 366.528442
   vertex -69.687744 161.666275 365.451141
  endloop
 facet normal -0.017441 -0.052354 0.998476
  outer loop
   vertex -68.864799 161.613937 366.464294
   vertex -69.706551 163.117752 366.528442
   vertex -69.705170 161.613937 366.449615
  endloop
 facet normal -0.017404 -0.052334 0.998478
  outer loop
   vertex -68.866173 163.117752 366.543091
   vertex -69.706551 163.117752 366.528442
   vertex -68.864799 161.613937 366.464294
  endloop
 facet normal 0.999848 -0.000001 0.017449
  outer loop
   vertex -68.864799 161.613937 366.464294
   vertex -68.847374 161.666275 365.465820
   vertex -68.866173 163.117752 366.543091
  endloop
 facet normal 0.999848 -0.000001 0.017449
  outer loop
   vertex -68.866173 163.117752 366.543091
   vertex -68.847374 161.666275 365.465820
   vertex -68.848747 163.170090 365.544617
  endloop
 facet normal 0.017441 0.052334 -0.998477
  outer loop
   vertex -68.848747 163.170090 365.544617
   vertex -68.847374 161.666275 365.465820
   vertex -69.689117 163.170090 365.529938
  endloop
 facet normal -0.000914 0.998630 0.052328
  outer loop
   vertex -69.689117 163.170090 365.529938
   vertex -69.706551 163.117752 366.528442
   vertex -68.848747 163.170090 365.544617
  endloop
 facet normal -0.999848 0.000002 -0.017457
  outer loop
   vertex -69.687744 161.666275 365.451141
   vertex -69.706551 163.117752 366.528442
   vertex -69.689117 163.170090 365.529938
  endloop
 facet normal 0.017440 0.052354 -0.998476
  outer loop
   vertex -69.850288 161.178177 374.763153
   vertex -69.851662 162.681992 374.841980
   vertex -69.009911 161.178177 374.777832
  endloop
 facet normal 0.017404 0.052334 -0.998478
  outer loop
   vertex -69.009911 161.178177 374.777832
   vertex -69.851662 162.681992 374.841980
   vertex -69.011292 162.681992 374.856628
  endloop
 facet normal 0.999848 0.000004 0.017450
  outer loop
   vertex -69.011292 162.681992 374.856628
   vertex -69.028717 162.629654 375.855103
   vertex -69.009911 161.178177 374.777832
  endloop
 facet normal -0.000912 0.998629 0.052330
  outer loop
   vertex -69.851662 162.681992 374.841980
   vertex -69.028717 162.629654 375.855103
   vertex -69.011292 162.681992 374.856628
  endloop
 facet normal -0.000912 0.998629 0.052330
  outer loop
   vertex -69.869087 162.629654 375.840454
   vertex -69.028717 162.629654 375.855103
   vertex -69.851662 162.681992 374.841980
  endloop
 facet normal -0.999848 0.000001 -0.017449
  outer loop
   vertex -69.851662 162.681992 374.841980
   vertex -69.867714 161.125839 375.761658
   vertex -69.869087 162.629654 375.840454
  endloop
 facet normal -0.017404 -0.052334 0.998478
  outer loop
   vertex -69.869087 162.629654 375.840454
   vertex -69.867714 161.125839 375.761658
   vertex -69.028717 162.629654 375.855103
  endloop
 facet normal -0.017404 -0.052334 0.998478
  outer loop
   vertex -69.028717 162.629654 375.855103
   vertex -69.867714 161.125839 375.761658
   vertex -69.027344 161.125839 375.776306
  endloop
 facet normal 0.999848 -0.000002 0.017457
  outer loop
   vertex -69.027344 161.125839 375.776306
   vertex -69.009911 161.178177 374.777832
   vertex -69.028717 162.629654 375.855103
  endloop
 facet normal 0.000912 -0.998629 -0.052330
  outer loop
   vertex -69.867714 161.125839 375.761658
   vertex -69.009911 161.178177 374.777832
   vertex -69.027344 161.125839 375.776306
  endloop
 facet normal 0.000914 -0.998630 -0.052328
  outer loop
   vertex -69.850288 161.178177 374.763153
   vertex -69.009911 161.178177 374.777832
   vertex -69.867714 161.125839 375.761658
  endloop
 facet normal -0.999848 0.000002 -0.017449
  outer loop
   vertex -69.867714 161.125839 375.761658
   vertex -69.851662 162.681992 374.841980
   vertex -69.850288 161.178177 374.763153
  endloop
 facet normal -0.999848 0.000021 -0.017452
  outer loop
   vertex -69.840897 162.538193 375.296997
   vertex -69.840988 162.640808 375.302368
   vertex -69.679779 163.124893 366.066895
  endloop
 facet normal -0.000910 0.998630 0.052328
  outer loop
   vertex -69.679779 163.124893 366.066895
   vertex -69.840988 162.640808 375.302368
   vertex -69.707588 162.640808 375.304688
  endloop
 facet normal -0.000922 0.998630 0.052328
  outer loop
   vertex -69.707588 162.640808 375.304688
   vertex -69.546387 163.124893 366.069244
   vertex -69.679779 163.124893 366.066895
  endloop
 facet normal 0.933028 0.358092 0.035055
  outer loop
   vertex -69.695488 162.609421 375.303253
   vertex -69.546387 163.124893 366.069244
   vertex -69.707588 162.640808 375.304688
  endloop
 facet normal 0.932952 0.358289 0.035065
  outer loop
   vertex -69.534279 163.093506 366.067810
   vertex -69.546387 163.124893 366.069244
   vertex -69.695488 162.609421 375.303253
  endloop
 facet normal -0.000914 0.998630 0.052328
  outer loop
   vertex -69.695488 162.609421 375.303253
   vertex -69.120415 162.609421 375.313293
   vertex -69.534279 163.093506 366.067810
  endloop
 facet normal -0.000914 0.998630 0.052328
  outer loop
   vertex -69.534279 163.093506 366.067810
   vertex -69.120415 162.609421 375.313293
   vertex -68.959213 163.093506 366.077850
  endloop
 facet normal -0.933719 0.357999 0.002467
  outer loop
   vertex -68.959213 163.093506 366.077850
   vertex -69.120415 162.609421 375.313293
   vertex -69.108376 162.640808 375.315155
  endloop
 facet normal -0.933642 0.358198 0.002478
  outer loop
   vertex -69.108376 162.640808 375.315155
   vertex -68.947166 163.124893 366.079681
   vertex -68.959213 163.093506 366.077850
  endloop
 facet normal -0.000917 0.998630 0.052328
  outer loop
   vertex -69.042183 162.640808 375.316315
   vertex -68.947166 163.124893 366.079681
   vertex -69.108376 162.640808 375.315155
  endloop
 facet normal -0.000917 0.998630 0.052328
  outer loop
   vertex -68.880981 163.124893 366.080841
   vertex -68.947166 163.124893 366.079681
   vertex -69.042183 162.640808 375.316315
  endloop
 facet normal 0.999848 -0.000001 0.017452
  outer loop
   vertex -69.042183 162.640808 375.316315
   vertex -69.040840 161.171036 375.239288
   vertex -68.880981 163.124893 366.080841
  endloop
 facet normal 0.999848 0.000004 0.017453
  outer loop
   vertex -68.880981 163.124893 366.080841
   vertex -69.040840 161.171036 375.239288
   vertex -68.879631 161.655121 366.003845
  endloop
 facet normal 0.000917 -0.998630 -0.052328
  outer loop
   vertex -68.879631 161.655121 366.003845
   vertex -69.040840 161.171036 375.239288
   vertex -68.945824 161.655121 366.002686
  endloop
 facet normal 0.000914 -0.998629 -0.052330
  outer loop
   vertex -68.864799 161.613937 366.464294
   vertex -69.705170 161.613937 366.449615
   vertex -68.847374 161.666275 365.465820
  endloop
 facet normal -0.000912 0.998629 0.052330
  outer loop
   vertex -69.706551 163.117752 366.528442
   vertex -68.866173 163.117752 366.543091
   vertex -68.848747 163.170090 365.544617
  endloop
 facet normal 0.000917 -0.998630 -0.052328
  outer loop
   vertex -69.040840 161.171036 375.239288
   vertex -69.107025 161.171036 375.238129
   vertex -68.945824 161.655121 366.002686
  endloop
 facet normal -0.016455 0.333791 0.942503
  outer loop
   vertex -67.096710 161.850952 376.360687
   vertex -66.096863 161.850952 376.378143
   vertex -67.092247 162.572418 376.105255
  endloop
 facet normal -0.016455 0.333791 0.942503
  outer loop
   vertex -67.092247 162.572418 376.105255
   vertex -66.096863 161.850952 376.378143
   vertex -66.092400 162.572418 376.122711
  endloop
 facet normal -0.007515 0.902586 0.430444
  outer loop
   vertex -66.092400 162.572418 376.122711
   vertex -67.080193 162.901917 375.414551
   vertex -67.092247 162.572418 376.105255
  endloop
 facet normal -0.007515 0.902586 0.430444
  outer loop
   vertex -66.080345 162.901917 375.432007
   vertex -67.080193 162.901917 375.414551
   vertex -66.092400 162.572418 376.122711
  endloop
 facet normal 0.005827 0.942647 -0.333741
  outer loop
   vertex -67.067604 162.646439 374.693176
   vertex -67.080193 162.901917 375.414551
   vertex -66.080345 162.901917 375.432007
  endloop
 facet normal 0.005827 0.942647 -0.333741
  outer loop
   vertex -66.080345 162.901917 375.432007
   vertex -66.067749 162.646439 374.710632
   vertex -67.067604 162.646439 374.693176
  endloop
 facet normal 0.015756 0.430498 -0.902454
  outer loop
   vertex -67.067604 162.646439 374.693176
   vertex -66.067749 162.646439 374.710632
   vertex -67.061852 161.955627 374.363739
  endloop
 facet normal 0.015756 0.430498 -0.902454
  outer loop
   vertex -67.061852 161.955627 374.363739
   vertex -66.067749 162.646439 374.710632
   vertex -66.062004 161.955627 374.381195
  endloop
 facet normal 0.016455 -0.333791 -0.942503
  outer loop
   vertex -66.062004 161.955627 374.381195
   vertex -67.066307 161.234161 374.619171
   vertex -67.061852 161.955627 374.363739
  endloop
 facet normal 0.016455 -0.333791 -0.942503
  outer loop
   vertex -66.066460 161.234161 374.636627
   vertex -67.066307 161.234161 374.619171
   vertex -66.062004 161.955627 374.381195
  endloop
 facet normal 0.007515 -0.902586 -0.430444
  outer loop
   vertex -67.078362 160.904663 375.309875
   vertex -67.066307 161.234161 374.619171
   vertex -66.066460 161.234161 374.636627
  endloop
 facet normal 0.007515 -0.902586 -0.430444
  outer loop
   vertex -66.066460 161.234161 374.636627
   vertex -66.078514 160.904663 375.327332
   vertex -67.078362 160.904663 375.309875
  endloop
 facet normal -0.005827 -0.942641 0.333758
  outer loop
   vertex -67.078362 160.904663 375.309875
   vertex -66.078514 160.904663 375.327332
   vertex -67.090958 161.160156 376.031250
  endloop
 facet normal -0.005827 -0.942641 0.333758
  outer loop
   vertex -67.090958 161.160156 376.031250
   vertex -66.078514 160.904663 375.327332
   vertex -66.091110 161.160156 376.048706
  endloop
 facet normal -0.015756 -0.430505 0.902450
  outer loop
   vertex -66.091110 161.160156 376.048706
   vertex -67.096710 161.850952 376.360687
   vertex -67.090958 161.160156 376.031250
  endloop
 facet normal -0.015756 -0.430505 0.902450
  outer loop
   vertex -66.096863 161.850952 376.378143
   vertex -67.096710 161.850952 376.360687
   vertex -66.091110 161.160156 376.048706
  endloop
 facet normal 0.016454 -0.333875 -0.942474
  outer loop
   vertex -67.902893 162.225357 365.823425
   vertex -68.901627 162.405716 365.742096
   vertex -67.901779 162.405716 365.759552
  endloop
 facet normal 0.015755 0.430538 -0.902435
  outer loop
   vertex -67.901779 162.405716 365.759552
   vertex -68.901627 162.405716 365.742096
   vertex -68.903061 162.578415 365.824463
  endloop
 facet normal 0.015755 0.430538 -0.902435
  outer loop
   vertex -68.903061 162.578415 365.824463
   vertex -67.903214 162.578415 365.841919
   vertex -67.901779 162.405716 365.759552
  endloop
 facet normal 0.005827 0.942632 -0.333783
  outer loop
   vertex -68.906212 162.642288 366.004791
   vertex -67.903214 162.578415 365.841919
   vertex -68.903061 162.578415 365.824463
  endloop
 facet normal 0.005827 0.942632 -0.333783
  outer loop
   vertex -67.906364 162.642288 366.022247
   vertex -67.903214 162.578415 365.841919
   vertex -68.906212 162.642288 366.004791
  endloop
 facet normal -0.007514 0.902623 0.430366
  outer loop
   vertex -68.906212 162.642288 366.004791
   vertex -68.909225 162.559921 366.177490
   vertex -67.906364 162.642288 366.022247
  endloop
 facet normal -0.007514 0.902623 0.430366
  outer loop
   vertex -67.906364 162.642288 366.022247
   vertex -68.909225 162.559921 366.177490
   vertex -67.909378 162.559921 366.194946
  endloop
 facet normal -0.016455 0.333708 0.942533
  outer loop
   vertex -67.909378 162.559921 366.194946
   vertex -68.909225 162.559921 366.177490
   vertex -68.910339 162.379547 366.241333
  endloop
 facet normal -0.016455 0.333708 0.942533
  outer loop
   vertex -68.910339 162.379547 366.241333
   vertex -67.910492 162.379547 366.258789
   vertex -67.909378 162.559921 366.194946
  endloop
 facet normal -0.015755 -0.430538 0.902435
  outer loop
   vertex -68.908905 162.206848 366.158966
   vertex -67.910492 162.379547 366.258789
   vertex -68.910339 162.379547 366.241333
  endloop
 facet normal -0.015755 -0.430538 0.902435
  outer loop
   vertex -67.909050 162.206848 366.176422
   vertex -67.910492 162.379547 366.258789
   vertex -68.908905 162.206848 366.158966
  endloop
 facet normal -0.005827 -0.942632 0.333783
  outer loop
   vertex -68.908905 162.206848 366.158966
   vertex -68.905754 162.142975 365.978638
   vertex -67.909050 162.206848 366.176422
  endloop
 facet normal -0.005827 -0.942632 0.333784
  outer loop
   vertex -67.909050 162.206848 366.176422
   vertex -68.905754 162.142975 365.978638
   vertex -67.905907 162.142975 365.996094
  endloop
 facet normal 0.007516 -0.902563 -0.430492
  outer loop
   vertex -67.905907 162.142975 365.996094
   vertex -68.905754 162.142975 365.978638
   vertex -68.902740 162.225357 365.805969
  endloop
 facet normal 0.007516 -0.902563 -0.430492
  outer loop
   vertex -68.902740 162.225357 365.805969
   vertex -67.902893 162.225357 365.823425
   vertex -67.905907 162.142975 365.996094
  endloop
 facet normal 0.016454 -0.333875 -0.942474
  outer loop
   vertex -68.901627 162.405716 365.742096
   vertex -67.902893 162.225357 365.823425
   vertex -68.902740 162.225357 365.805969
  endloop
 facet normal 0.016455 -0.333791 -0.942503
  outer loop
   vertex -65.903503 161.723511 365.300873
   vertex -66.898895 162.444977 365.027985
   vertex -65.899048 162.444977 365.045441
  endloop
 facet normal 0.015756 0.430505 -0.902450
  outer loop
   vertex -65.899048 162.444977 365.045441
   vertex -66.898895 162.444977 365.027985
   vertex -66.904648 163.135773 365.357422
  endloop
 facet normal 0.015756 0.430505 -0.902450
  outer loop
   vertex -66.904648 163.135773 365.357422
   vertex -65.904800 163.135773 365.374878
   vertex -65.899048 162.444977 365.045441
  endloop
 facet normal 0.005827 0.942636 -0.333771
  outer loop
   vertex -66.917236 163.391266 366.078766
   vertex -65.904800 163.135773 365.374878
   vertex -66.904648 163.135773 365.357422
  endloop
 facet normal 0.005827 0.942636 -0.333771
  outer loop
   vertex -65.917389 163.391266 366.096222
   vertex -65.904800 163.135773 365.374878
   vertex -66.917236 163.391266 366.078766
  endloop
 facet normal -0.007515 0.902586 0.430444
  outer loop
   vertex -66.917236 163.391266 366.078766
   vertex -66.929291 163.061768 366.769470
   vertex -65.917389 163.391266 366.096222
  endloop
 facet normal -0.007515 0.902586 0.430444
  outer loop
   vertex -65.917389 163.391266 366.096222
   vertex -66.929291 163.061768 366.769470
   vertex -65.929443 163.061768 366.786926
  endloop
 facet normal -0.016455 0.333827 0.942491
  outer loop
   vertex -65.929443 163.061768 366.786926
   vertex -66.929291 163.061768 366.769470
   vertex -66.933754 162.340302 367.024933
  endloop
 facet normal -0.016455 0.333827 0.942491
  outer loop
   vertex -66.933754 162.340302 367.024933
   vertex -65.933907 162.340302 367.042389
   vertex -65.929443 163.061768 366.786926
  endloop
 facet normal -0.015755 -0.430530 0.902439
  outer loop
   vertex -66.928001 161.649490 366.695465
   vertex -65.933907 162.340302 367.042389
   vertex -66.933754 162.340302 367.024933
  endloop
 facet normal -0.015755 -0.430530 0.902439
  outer loop
   vertex -65.928154 161.649490 366.712921
   vertex -65.933907 162.340302 367.042389
   vertex -66.928001 161.649490 366.695465
  endloop
 facet normal -0.005827 -0.942642 0.333753
  outer loop
   vertex -66.928001 161.649490 366.695465
   vertex -66.915413 161.394012 365.974121
   vertex -65.928154 161.649490 366.712921
  endloop
 facet normal -0.005827 -0.942642 0.333753
  outer loop
   vertex -65.928154 161.649490 366.712921
   vertex -66.915413 161.394012 365.974121
   vertex -65.915565 161.394012 365.991577
  endloop
 facet normal 0.007515 -0.902586 -0.430444
  outer loop
   vertex -65.915565 161.394012 365.991577
   vertex -66.915413 161.394012 365.974121
   vertex -66.903351 161.723511 365.283417
  endloop
 facet normal 0.007515 -0.902586 -0.430444
  outer loop
   vertex -66.903351 161.723511 365.283417
   vertex -65.903503 161.723511 365.300873
   vertex -65.915565 161.394012 365.991577
  endloop
 facet normal 0.016455 -0.333791 -0.942503
  outer loop
   vertex -66.898895 162.444977 365.027985
   vertex -65.903503 161.723511 365.300873
   vertex -66.903351 161.723511 365.283417
  endloop
 facet normal -0.555925 -0.274368 -0.784646
  outer loop
   vertex -66.903351 161.723511 365.283417
   vertex -67.911812 162.405716 365.759369
   vertex -66.898895 162.444977 365.027985
  endloop
 facet normal -0.556500 0.353877 -0.751717
  outer loop
   vertex -66.898895 162.444977 365.027985
   vertex -67.911812 162.405716 365.759369
   vertex -67.913254 162.578415 365.841736
  endloop
 facet normal -0.556506 0.353858 -0.751722
  outer loop
   vertex -67.913254 162.578415 365.841736
   vertex -66.904648 163.135773 365.357422
   vertex -66.898895 162.444977 365.027985
  endloop
 facet normal -0.564662 0.774831 -0.284244
  outer loop
   vertex -67.916397 162.642288 366.022095
   vertex -66.904648 163.135773 365.357422
   vertex -67.913254 162.578415 365.841736
  endloop
 facet normal -0.564676 0.774806 -0.284283
  outer loop
   vertex -66.917236 163.391266 366.078766
   vertex -66.904648 163.135773 365.357422
   vertex -67.916397 162.642288 366.022095
  endloop
 facet normal -0.575633 0.741896 0.343855
  outer loop
   vertex -67.916397 162.642288 366.022095
   vertex -67.919411 162.559921 366.194763
   vertex -66.917236 163.391266 366.078766
  endloop
 facet normal -0.575628 0.741892 0.343871
  outer loop
   vertex -66.917236 163.391266 366.078766
   vertex -67.919411 162.559921 366.194763
   vertex -66.929291 163.061768 366.769470
  endloop
 facet normal -0.582954 0.274299 0.764804
  outer loop
   vertex -66.929291 163.061768 366.769470
   vertex -67.919411 162.559921 366.194763
   vertex -67.920525 162.379547 366.258606
  endloop
 facet normal -0.582988 0.274393 0.764744
  outer loop
   vertex -67.920525 162.379547 366.258606
   vertex -66.933754 162.340302 367.024933
   vertex -66.929291 163.061768 366.769470
  endloop
 facet normal -0.582435 -0.353762 0.731862
  outer loop
   vertex -67.919090 162.206848 366.176270
   vertex -66.933754 162.340302 367.024933
   vertex -67.920525 162.379547 366.258606
  endloop
 facet normal -0.582395 -0.353883 0.731835
  outer loop
   vertex -66.928001 161.649490 366.695465
   vertex -66.933754 162.340302 367.024933
   vertex -67.919090 162.206848 366.176270
  endloop
 facet normal -0.574235 -0.774831 0.264371
  outer loop
   vertex -67.919090 162.206848 366.176270
   vertex -67.915939 162.142975 365.995911
   vertex -66.928001 161.649490 366.695465
  endloop
 facet normal -0.574244 -0.774815 0.264394
  outer loop
   vertex -66.928001 161.649490 366.695465
   vertex -67.915939 162.142975 365.995911
   vertex -66.915413 161.394012 365.974121
  endloop
 facet normal -0.563270 -0.741879 -0.363790
  outer loop
   vertex -66.915413 161.394012 365.974121
   vertex -67.915939 162.142975 365.995911
   vertex -67.912926 162.225357 365.823242
  endloop
 facet normal -0.563283 -0.741888 -0.363752
  outer loop
   vertex -67.912926 162.225357 365.823242
   vertex -66.903351 161.723511 365.283417
   vertex -66.915413 161.394012 365.974121
  endloop
 facet normal -0.555950 -0.274431 -0.784606
  outer loop
   vertex -67.911812 162.405716 365.759369
   vertex -66.903351 161.723511 365.283417
   vertex -67.912926 162.225357 365.823242
  endloop
 facet normal -0.016426 0.333875 0.942474
  outer loop
   vertex -69.073296 161.890213 375.577118
   vertex -68.073448 161.890213 375.594543
   vertex -69.072182 162.070572 375.513245
  endloop
 facet normal -0.016455 0.333733 0.942524
  outer loop
   vertex -69.072182 162.070572 375.513245
   vertex -68.073448 161.890213 375.594543
   vertex -68.072334 162.070572 375.530701
  endloop
 facet normal -0.007516 0.902563 0.430492
  outer loop
   vertex -68.072334 162.070572 375.530701
   vertex -69.069168 162.152954 375.340576
   vertex -69.072182 162.070572 375.513245
  endloop
 facet normal -0.007516 0.902563 0.430492
  outer loop
   vertex -68.069321 162.152954 375.358032
   vertex -69.069168 162.152954 375.340576
   vertex -68.072334 162.070572 375.530701
  endloop
 facet normal 0.005827 0.942650 -0.333733
  outer loop
   vertex -69.066017 162.089081 375.160217
   vertex -69.069168 162.152954 375.340576
   vertex -68.069321 162.152954 375.358032
  endloop
 facet normal 0.005827 0.942650 -0.333733
  outer loop
   vertex -68.069321 162.152954 375.358032
   vertex -68.066170 162.089081 375.177673
   vertex -69.066017 162.089081 375.160217
  endloop
 facet normal 0.015756 0.430408 -0.902497
  outer loop
   vertex -69.066017 162.089081 375.160217
   vertex -68.066170 162.089081 375.177673
   vertex -69.064583 161.916382 375.077881
  endloop
 facet normal 0.015728 0.430538 -0.902436
  outer loop
   vertex -69.064583 161.916382 375.077881
   vertex -68.066170 162.089081 375.177673
   vertex -68.064735 161.916382 375.095306
  endloop
 facet normal 0.016427 -0.333708 -0.942533
  outer loop
   vertex -68.064735 161.916382 375.095306
   vertex -69.065697 161.736008 375.141724
   vertex -69.064583 161.916382 375.077881
  endloop
 facet normal 0.016455 -0.333849 -0.942483
  outer loop
   vertex -68.065849 161.736008 375.159180
   vertex -69.065697 161.736008 375.141724
   vertex -68.064735 161.916382 375.095306
  endloop
 facet normal 0.007515 -0.902594 -0.430427
  outer loop
   vertex -69.068710 161.653641 375.314392
   vertex -69.065697 161.736008 375.141724
   vertex -68.065849 161.736008 375.159180
  endloop
 facet normal 0.007515 -0.902594 -0.430427
  outer loop
   vertex -68.065849 161.736008 375.159180
   vertex -68.068863 161.653641 375.331848
   vertex -69.068710 161.653641 375.314392
  endloop
 facet normal -0.005827 -0.942649 0.333734
  outer loop
   vertex -69.068710 161.653641 375.314392
   vertex -68.068863 161.653641 375.331848
   vertex -69.071854 161.717514 375.494751
  endloop
 facet normal -0.005827 -0.942649 0.333734
  outer loop
   vertex -69.071854 161.717514 375.494751
   vertex -68.068863 161.653641 375.331848
   vertex -68.072006 161.717514 375.512207
  endloop
 facet normal -0.015755 -0.430538 0.902435
  outer loop
   vertex -68.072006 161.717514 375.512207
   vertex -69.073296 161.890213 375.577118
   vertex -69.071854 161.717514 375.494751
  endloop
 facet normal -0.015729 -0.430408 0.902497
  outer loop
   vertex -68.073448 161.890213 375.594543
   vertex -69.073296 161.890213 375.577118
   vertex -68.072006 161.717514 375.512207
  endloop
 facet normal -0.582409 -0.353875 0.731828
  outer loop
   vertex -68.082047 161.717514 375.512024
   vertex -67.090958 161.160156 376.031250
   vertex -68.083481 161.890213 375.594391
  endloop
 facet normal -0.582404 -0.353861 0.731839
  outer loop
   vertex -68.083481 161.890213 375.594391
   vertex -67.090958 161.160156 376.031250
   vertex -67.096710 161.850952 376.360687
  endloop
 facet normal -0.582962 0.274433 0.764749
  outer loop
   vertex -67.096710 161.850952 376.360687
   vertex -68.082367 162.070572 375.530518
   vertex -68.083481 161.890213 375.594391
  endloop
 facet normal -0.582984 0.274366 0.764757
  outer loop
   vertex -67.092247 162.572418 376.105255
   vertex -68.082367 162.070572 375.530518
   vertex -67.096710 161.850952 376.360687
  endloop
 facet normal -0.575645 0.741864 0.343905
  outer loop
   vertex -68.079353 162.152954 375.357849
   vertex -68.082367 162.070572 375.530518
   vertex -67.092247 162.572418 376.105255
  endloop
 facet normal -0.575630 0.741891 0.343871
  outer loop
   vertex -67.092247 162.572418 376.105255
   vertex -67.080193 162.901917 375.414551
   vertex -68.079353 162.152954 375.357849
  endloop
 facet normal -0.564662 0.774815 -0.284286
  outer loop
   vertex -68.079353 162.152954 375.357849
   vertex -67.080193 162.901917 375.414551
   vertex -68.076210 162.089081 375.177521
  endloop
 facet normal -0.564671 0.774818 -0.284259
  outer loop
   vertex -68.076210 162.089081 375.177521
   vertex -67.080193 162.901917 375.414551
   vertex -67.067604 162.646439 374.693176
  endloop
 facet normal -0.556525 0.353870 -0.751702
  outer loop
   vertex -67.067604 162.646439 374.693176
   vertex -68.074768 161.916382 375.095154
   vertex -68.076210 162.089081 375.177521
  endloop
 facet normal -0.556517 0.353849 -0.751718
  outer loop
   vertex -67.061852 161.955627 374.363739
   vertex -68.074768 161.916382 375.095154
   vertex -67.067604 162.646439 374.693176
  endloop
 facet normal -0.555958 -0.274291 -0.784650
  outer loop
   vertex -68.075882 161.736008 375.158997
   vertex -68.074768 161.916382 375.095154
   vertex -67.061852 161.955627 374.363739
  endloop
 facet normal -0.555935 -0.274365 -0.784640
  outer loop
   vertex -67.061852 161.955627 374.363739
   vertex -67.066307 161.234161 374.619171
   vertex -68.075882 161.736008 375.158997
  endloop
 facet normal -0.563269 -0.741931 -0.363685
  outer loop
   vertex -68.075882 161.736008 375.158997
   vertex -67.066307 161.234161 374.619171
   vertex -68.078896 161.653641 375.331696
  endloop
 facet normal -0.563291 -0.741885 -0.363745
  outer loop
   vertex -68.078896 161.653641 375.331696
   vertex -67.066307 161.234161 374.619171
   vertex -67.078362 160.904663 375.309875
  endloop
 facet normal -0.574241 -0.774813 0.264409
  outer loop
   vertex -67.078362 160.904663 375.309875
   vertex -68.082047 161.717514 375.512024
   vertex -68.078896 161.653641 375.331696
  endloop
 facet normal -0.574246 -0.774815 0.264393
  outer loop
   vertex -67.090958 161.160156 376.031250
   vertex -68.082047 161.717514 375.512024
   vertex -67.078362 160.904663 375.309875
  endloop
endsolid