solid stl file generated from DOUG
 facet normal -0.805031 0.592989 0.017030
  outer loop
   vertex 0.077646 71.976677 349.897278
   vertex 0.158402 72.086105 349.904419
   vertex 0.319607 72.570190 340.668945
  endloop
 facet normal -0.000917 0.998630 0.052328
  outer loop
   vertex 0.319607 72.570190 340.668945
   vertex 0.158402 72.086105 349.904419
   vertex 0.422347 72.570190 340.670746
  endloop
 facet normal 0.803942 0.592994 0.045115
  outer loop
   vertex -0.865517 72.460762 340.642548
   vertex -0.946474 72.570190 340.646851
   vertex -1.107679 72.086105 349.882324
  endloop
 facet normal -0.000917 0.998630 0.052328
  outer loop
   vertex -1.107679 72.086105 349.882324
   vertex -0.946474 72.570190 340.646851
   vertex -1.049214 72.570190 340.645050
  endloop
 facet normal -0.000917 0.998630 0.052328
  outer loop
   vertex -1.049214 72.570190 340.645050
   vertex -1.210419 72.086105 349.880524
   vertex -1.107679 72.086105 349.882324
  endloop
 facet normal -0.359600 0.932135 0.042582
  outer loop
   vertex -1.048545 71.838470 340.606720
   vertex -1.209750 71.354385 349.842194
   vertex -1.017137 71.850533 340.607910
  endloop
 facet normal -0.359564 0.932148 0.042583
  outer loop
   vertex -1.017137 71.850533 340.607910
   vertex -1.209750 71.354385 349.842194
   vertex -1.178342 71.366447 349.843353
  endloop
 facet normal -0.999848 -0.000000 -0.017452
  outer loop
   vertex -1.178342 71.366447 349.843353
   vertex -1.178867 71.940811 349.873444
   vertex -1.017137 71.850533 340.607910
  endloop
 facet normal -0.805031 0.592989 0.017030
  outer loop
   vertex 0.319607 72.570190 340.668945
   vertex 0.238850 72.460762 340.661804
   vertex 0.077646 71.976677 349.897278
  endloop
 facet normal -0.000912 0.998630 0.052328
  outer loop
   vertex 0.077646 71.976677 349.897278
   vertex 0.238850 72.460762 340.661804
   vertex -0.865517 72.460762 340.642548
  endloop
 facet normal -0.000914 0.998630 0.052328
  outer loop
   vertex -0.865517 72.460762 340.642548
   vertex -1.026722 71.976677 349.877991
   vertex 0.077646 71.976677 349.897278
  endloop
 facet normal 0.803948 0.592986 0.045115
  outer loop
   vertex -1.107679 72.086105 349.882324
   vertex -1.026722 71.976677 349.877991
   vertex -0.865517 72.460762 340.642548
  endloop
 facet normal -0.999848 0.000001 -0.017452
  outer loop
   vertex -1.210419 72.086105 349.880524
   vertex -1.049214 72.570190 340.645050
   vertex -1.210297 71.952873 349.873535
  endloop
 facet normal -0.999848 -0.000003 -0.017453
  outer loop
   vertex -1.210297 71.952873 349.873535
   vertex -1.049214 72.570190 340.645050
   vertex -1.049092 72.436958 340.638092
  endloop
 facet normal -0.357894 -0.932135 -0.055106
  outer loop
   vertex -1.049092 72.436958 340.638092
   vertex -1.178867 71.940811 349.873444
   vertex -1.210297 71.952873 349.873535
  endloop
 facet normal -0.357894 -0.932135 -0.055106
  outer loop
   vertex -1.017663 72.424896 340.638000
   vertex -1.178867 71.940811 349.873444
   vertex -1.049092 72.436958 340.638092
  endloop
 facet normal -0.999848 -0.000000 -0.017452
  outer loop
   vertex -1.017137 71.850533 340.607910
   vertex -1.178867 71.940811 349.873444
   vertex -1.017663 72.424896 340.638000
  endloop
 facet normal 0.017445 0.052329 -0.998478
  outer loop
   vertex 0.448750 72.617050 340.134521
   vertex -1.056120 71.777695 340.064240
   vertex -1.056888 72.617050 340.108215
  endloop
 facet normal -0.999848 -0.000000 -0.017452
  outer loop
   vertex -1.056888 72.617050 340.108215
   vertex -1.056120 71.777695 340.064240
   vertex -1.074316 72.564713 341.106720
  endloop
 facet normal -0.000913 0.998630 0.052328
  outer loop
   vertex -1.074316 72.564713 341.106720
   vertex 0.431322 72.564713 341.132996
   vertex -1.056888 72.617050 340.108215
  endloop
 facet normal -0.017425 -0.052365 0.998476
  outer loop
   vertex -1.073548 71.725365 341.062714
   vertex 0.431322 72.564713 341.132996
   vertex -1.074316 72.564713 341.106720
  endloop
 facet normal -0.017425 -0.052365 0.998476
  outer loop
   vertex 0.432090 71.725365 341.088989
   vertex 0.431322 72.564713 341.132996
   vertex -1.073548 71.725365 341.062714
  endloop
 facet normal 0.000913 -0.998630 -0.052322
  outer loop
   vertex -1.073548 71.725365 341.062714
   vertex -1.056120 71.777695 340.064240
   vertex 0.432090 71.725365 341.088989
  endloop
 facet normal 0.000913 -0.998630 -0.052322
  outer loop
   vertex 0.432090 71.725365 341.088989
   vertex -1.056120 71.777695 340.064240
   vertex 0.449518 71.777695 340.090515
  endloop
 facet normal 0.017425 0.052365 -0.998476
  outer loop
   vertex 0.449518 71.777695 340.090515
   vertex -1.056120 71.777695 340.064240
   vertex 0.448750 72.617050 340.134521
  endloop
 facet normal 0.999848 -0.000000 0.017452
  outer loop
   vertex 0.448750 72.617050 340.134521
   vertex 0.431322 72.564713 341.132996
   vertex 0.449518 71.777695 340.090515
  endloop
 facet normal -0.000914 0.998629 0.052330
  outer loop
   vertex -1.056888 72.617050 340.108215
   vertex 0.431322 72.564713 341.132996
   vertex 0.448750 72.617050 340.134521
  endloop
 facet normal 0.017425 0.052365 -0.998476
  outer loop
   vertex -1.219429 72.128952 349.420258
   vertex 0.286209 72.128952 349.446533
   vertex -1.218661 71.289604 349.376251
  endloop
 facet normal 0.017425 0.052365 -0.998476
  outer loop
   vertex -1.218661 71.289604 349.376251
   vertex 0.286209 72.128952 349.446533
   vertex 0.286977 71.289604 349.402527
  endloop
 facet normal 0.000913 -0.998630 -0.052328
  outer loop
   vertex 0.286977 71.289604 349.402527
   vertex 0.269549 71.237267 350.401031
   vertex -1.218661 71.289604 349.376251
  endloop
 facet normal 0.999848 -0.000000 0.017452
  outer loop
   vertex 0.286209 72.128952 349.446533
   vertex 0.269549 71.237267 350.401031
   vertex 0.286977 71.289604 349.402527
  endloop
 facet normal 0.999848 0.000000 0.017452
  outer loop
   vertex 0.268781 72.076614 350.445007
   vertex 0.269549 71.237267 350.401031
   vertex 0.286209 72.128952 349.446533
  endloop
 facet normal -0.000913 0.998629 0.052330
  outer loop
   vertex 0.286209 72.128952 349.446533
   vertex -1.236857 72.076614 350.418732
   vertex 0.268781 72.076614 350.445007
  endloop
 facet normal -0.017425 -0.052329 0.998478
  outer loop
   vertex 0.268781 72.076614 350.445007
   vertex -1.236857 72.076614 350.418732
   vertex 0.269549 71.237267 350.401031
  endloop
 facet normal -0.017445 -0.052365 0.998476
  outer loop
   vertex 0.269549 71.237267 350.401031
   vertex -1.236857 72.076614 350.418732
   vertex -1.236089 71.237267 350.374725
  endloop
 facet normal 0.000914 -0.998629 -0.052330
  outer loop
   vertex -1.236089 71.237267 350.374725
   vertex -1.218661 71.289604 349.376251
   vertex 0.269549 71.237267 350.401031
  endloop
 facet normal -0.999848 0.000000 -0.017452
  outer loop
   vertex -1.236857 72.076614 350.418732
   vertex -1.218661 71.289604 349.376251
   vertex -1.236089 71.237267 350.374725
  endloop
 facet normal -0.999848 0.000000 -0.017452
  outer loop
   vertex -1.219429 72.128952 349.420258
   vertex -1.218661 71.289604 349.376251
   vertex -1.236857 72.076614 350.418732
  endloop
 facet normal -0.000913 0.998629 0.052330
  outer loop
   vertex -1.236857 72.076614 350.418732
   vertex 0.286209 72.128952 349.446533
   vertex -1.219429 72.128952 349.420258
  endloop
 facet normal -0.000917 0.998630 0.052328
  outer loop
   vertex 0.158402 72.086105 349.904419
   vertex 0.261142 72.086105 349.906219
   vertex 0.422347 72.570190 340.670746
  endloop
 facet normal 0.999848 -0.000001 0.017452
  outer loop
   vertex 0.422347 72.570190 340.670746
   vertex 0.261142 72.086105 349.906219
   vertex 0.261264 71.952873 349.899231
  endloop
 facet normal 0.999848 -0.000001 0.017452
  outer loop
   vertex 0.261264 71.952873 349.899231
   vertex 0.422469 72.436958 340.663757
   vertex 0.422347 72.570190 340.670746
  endloop
 facet normal 0.359597 -0.932135 -0.042582
  outer loop
   vertex 0.229856 71.940811 349.898041
   vertex 0.422469 72.436958 340.663757
   vertex 0.261264 71.952873 349.899231
  endloop
 facet normal 0.359561 -0.932149 -0.042583
  outer loop
   vertex 0.391061 72.424896 340.662598
   vertex 0.422469 72.436958 340.663757
   vertex 0.229856 71.940811 349.898041
  endloop
 facet normal 0.999848 0.000000 0.017452
  outer loop
   vertex 0.229856 71.940811 349.898041
   vertex 0.230381 71.366447 349.867950
   vertex 0.391061 72.424896 340.662598
  endloop
 facet normal 0.999848 -0.000001 0.017452
  outer loop
   vertex 0.391061 72.424896 340.662598
   vertex 0.230381 71.366447 349.867950
   vertex 0.391586 71.850533 340.632477
  endloop
 facet normal 0.357893 0.932135 0.055106
  outer loop
   vertex 0.391586 71.850533 340.632477
   vertex 0.230381 71.366447 349.867950
   vertex 0.261811 71.354385 349.867859
  endloop
 facet normal 0.357846 0.932153 0.055106
  outer loop
   vertex 0.261811 71.354385 349.867859
   vertex 0.423016 71.838470 340.632416
   vertex 0.391586 71.850533 340.632477
  endloop
 facet normal 0.999848 0.000004 0.017453
  outer loop
   vertex 0.261872 71.288277 349.864410
   vertex 0.423016 71.838470 340.632416
   vertex 0.261811 71.354385 349.867859
  endloop
 facet normal 0.999848 -0.000004 0.017452
  outer loop
   vertex 0.423076 71.772362 340.628937
   vertex 0.423016 71.838470 340.632416
   vertex 0.261872 71.288277 349.864410
  endloop
 facet normal 0.000914 -0.998630 -0.052328
  outer loop
   vertex 0.261872 71.288277 349.864410
   vertex -1.209689 71.288277 349.838715
   vertex 0.423076 71.772362 340.628937
  endloop
 facet normal 0.000913 -0.998630 -0.052328
  outer loop
   vertex 0.423076 71.772362 340.628937
   vertex -1.209689 71.288277 349.838715
   vertex -1.048484 71.772362 340.603271
  endloop
 facet normal -0.999848 -0.000004 -0.017453
  outer loop
   vertex -1.048484 71.772362 340.603271
   vertex -1.209689 71.288277 349.838715
   vertex -1.048545 71.838470 340.606720
  endloop
 facet normal -0.999848 0.000001 -0.017452
  outer loop
   vertex -1.073548 71.725365 341.062714
   vertex -1.074316 72.564713 341.106720
   vertex -1.056120 71.777695 340.064240
  endloop
 facet normal 0.999848 -0.000000 0.017452
  outer loop
   vertex 0.431322 72.564713 341.132996
   vertex 0.432090 71.725365 341.088989
   vertex 0.449518 71.777695 340.090515
  endloop
 facet normal -0.999848 0.000004 -0.017452
  outer loop
   vertex -1.209689 71.288277 349.838715
   vertex -1.209750 71.354385 349.842194
   vertex -1.048545 71.838470 340.606720
  endloop
 facet normal 0.366539 -0.048360 0.929145
  outer loop
   vertex -0.490419 69.272598 350.797455
   vertex -0.489506 68.273964 350.745117
   vertex 0.221685 69.287926 350.517334
  endloop
 facet normal 0.366505 -0.048333 0.929160
  outer loop
   vertex 0.221685 69.287926 350.517334
   vertex -0.489506 68.273964 350.745117
   vertex 0.222598 68.289299 350.465027
  endloop
 facet normal 0.917065 -0.020020 0.398235
  outer loop
   vertex 0.222598 68.289299 350.465027
   vertex 0.526857 69.324928 349.816437
   vertex 0.221685 69.287926 350.517334
  endloop
 facet normal 0.917071 -0.020032 0.398220
  outer loop
   vertex 0.527770 68.326302 349.764099
   vertex 0.526857 69.324928 349.816437
   vertex 0.222598 68.289299 350.465027
  endloop
 facet normal 0.930410 0.020032 -0.365973
  outer loop
   vertex 0.246332 69.361938 349.105286
   vertex 0.526857 69.324928 349.816437
   vertex 0.527770 68.326302 349.764099
  endloop
 facet normal 0.930410 0.020032 -0.365973
  outer loop
   vertex 0.527770 68.326302 349.764099
   vertex 0.247246 68.363312 349.052948
   vertex 0.246332 69.361938 349.105286
  endloop
 facet normal 0.398717 0.048361 -0.915798
  outer loop
   vertex 0.246332 69.361938 349.105286
   vertex 0.247246 68.363312 349.052948
   vertex -0.455562 69.377266 348.800507
  endloop
 facet normal 0.398717 0.048361 -0.915798
  outer loop
   vertex -0.455562 69.377266 348.800507
   vertex 0.247246 68.363312 349.052948
   vertex -0.454649 68.378639 348.748169
  endloop
 facet normal -0.366505 0.048362 -0.929158
  outer loop
   vertex -0.454649 68.378639 348.748169
   vertex -1.167666 69.361938 349.080597
   vertex -0.455562 69.377266 348.800507
  endloop
 facet normal -0.366505 0.048362 -0.929158
  outer loop
   vertex -1.166752 68.363312 349.028259
   vertex -1.167666 69.361938 349.080597
   vertex -0.454649 68.378639 348.748169
  endloop
 facet normal -0.917071 0.020032 -0.398220
  outer loop
   vertex -1.472838 69.324928 349.781525
   vertex -1.167666 69.361938 349.080597
   vertex -1.166752 68.363312 349.028259
  endloop
 facet normal -0.917071 0.020032 -0.398220
  outer loop
   vertex -1.166752 68.363312 349.028259
   vertex -1.471925 68.326302 349.729187
   vertex -1.472838 69.324928 349.781525
  endloop
 facet normal -0.930405 -0.020032 0.365986
  outer loop
   vertex -1.472838 69.324928 349.781525
   vertex -1.471925 68.326302 349.729187
   vertex -1.192314 69.287926 350.492645
  endloop
 facet normal -0.930410 -0.020020 0.365973
  outer loop
   vertex -1.192314 69.287926 350.492645
   vertex -1.471925 68.326302 349.729187
   vertex -1.191401 68.289299 350.440338
  endloop
 facet normal -0.398750 -0.048333 0.915785
  outer loop
   vertex -1.191401 68.289299 350.440338
   vertex -0.490419 69.272598 350.797455
   vertex -1.192314 69.287926 350.492645
  endloop
 facet normal -0.398717 -0.048361 0.915798
  outer loop
   vertex -0.489506 68.273964 350.745117
   vertex -0.490419 69.272598 350.797455
   vertex -1.191401 68.289299 350.440338
  endloop
 facet normal -0.366573 0.048360 -0.929132
  outer loop
   vertex -0.484608 70.812134 340.335419
   vertex -0.307496 71.814590 340.317719
   vertex -0.306582 70.815964 340.265381
  endloop
 facet normal 0.398750 0.048361 -0.915784
  outer loop
   vertex -0.306582 70.815964 340.265381
   vertex -0.307496 71.814590 340.317719
   vertex -0.132022 71.810760 340.393921
  endloop
 facet normal 0.398750 0.048361 -0.915784
  outer loop
   vertex -0.132022 71.810760 340.393921
   vertex -0.131109 70.812134 340.341583
   vertex -0.306582 70.815964 340.265381
  endloop
 facet normal 0.930394 0.020034 -0.366013
  outer loop
   vertex -0.061891 71.801506 340.571686
   vertex -0.131109 70.812134 340.341583
   vertex -0.132022 71.810760 340.393921
  endloop
 facet normal 0.930415 0.020020 -0.365959
  outer loop
   vertex -0.060977 70.802879 340.519379
   vertex -0.131109 70.812134 340.341583
   vertex -0.061891 71.801506 340.571686
  endloop
 facet normal 0.917071 -0.020020 0.398221
  outer loop
   vertex -0.061891 71.801506 340.571686
   vertex -0.138184 71.792259 340.746918
   vertex -0.060977 70.802879 340.519379
  endloop
 facet normal 0.917071 -0.020019 0.398220
  outer loop
   vertex -0.060977 70.802879 340.519379
   vertex -0.138184 71.792259 340.746918
   vertex -0.137271 70.793625 340.694611
  endloop
 facet normal 0.366575 -0.048331 0.929132
  outer loop
   vertex -0.137271 70.793625 340.694611
   vertex -0.138184 71.792259 340.746918
   vertex -0.316210 71.788422 340.816956
  endloop
 facet normal 0.366436 -0.048363 0.929186
  outer loop
   vertex -0.316210 71.788422 340.816956
   vertex -0.315296 70.789795 340.764618
   vertex -0.137271 70.793625 340.694611
  endloop
 facet normal -0.398752 -0.048361 0.915783
  outer loop
   vertex -0.491683 71.792259 340.740753
   vertex -0.315296 70.789795 340.764618
   vertex -0.316210 71.788422 340.816956
  endloop
 facet normal -0.398616 -0.048335 0.915843
  outer loop
   vertex -0.490770 70.793625 340.688446
   vertex -0.315296 70.789795 340.764618
   vertex -0.491683 71.792259 340.740753
  endloop
 facet normal -0.930394 -0.020022 0.366014
  outer loop
   vertex -0.491683 71.792259 340.740753
   vertex -0.561815 71.801506 340.562988
   vertex -0.490770 70.793625 340.688446
  endloop
 facet normal -0.930415 -0.020031 0.365959
  outer loop
   vertex -0.490770 70.793625 340.688446
   vertex -0.561815 71.801506 340.562988
   vertex -0.560901 70.802879 340.510651
  endloop
 facet normal -0.917072 0.020032 -0.398219
  outer loop
   vertex -0.560901 70.802879 340.510651
   vertex -0.561815 71.801506 340.562988
   vertex -0.485522 71.810760 340.387756
  endloop
 facet normal -0.917072 0.020032 -0.398219
  outer loop
   vertex -0.485522 71.810760 340.387756
   vertex -0.484608 70.812134 340.335419
   vertex -0.560901 70.802879 340.510651
  endloop
 facet normal -0.366573 0.048360 -0.929132
  outer loop
   vertex -0.307496 71.814590 340.317719
   vertex -0.484608 70.812134 340.335419
   vertex -0.485522 71.810760 340.387756
  endloop
 facet normal -0.366505 0.048333 -0.929160
  outer loop
   vertex -1.003797 68.852654 339.692505
   vertex -0.292607 69.866608 339.464722
   vertex -0.291693 68.867981 339.412415
  endloop
 facet normal 0.398751 0.048333 -0.915785
  outer loop
   vertex -0.291693 68.867981 339.412415
   vertex -0.292607 69.866608 339.464722
   vertex 0.409288 69.851280 339.769531
  endloop
 facet normal 0.398717 0.048361 -0.915798
  outer loop
   vertex 0.409288 69.851280 339.769531
   vertex 0.410201 68.852654 339.717194
   vertex -0.291693 68.867981 339.412415
  endloop
 facet normal 0.930405 0.020032 -0.365986
  outer loop
   vertex 0.689813 69.814270 340.480652
   vertex 0.410201 68.852654 339.717194
   vertex 0.409288 69.851280 339.769531
  endloop
 facet normal 0.930410 0.020020 -0.365973
  outer loop
   vertex 0.690726 68.815643 340.428345
   vertex 0.410201 68.852654 339.717194
   vertex 0.689813 69.814270 340.480652
  endloop
 facet normal 0.917071 -0.020020 0.398221
  outer loop
   vertex 0.689813 69.814270 340.480652
   vertex 0.384640 69.777267 341.181580
   vertex 0.690726 68.815643 340.428345
  endloop
 facet normal 0.917065 -0.020032 0.398234
  outer loop
   vertex 0.690726 68.815643 340.428345
   vertex 0.384640 69.777267 341.181580
   vertex 0.385554 68.778633 341.129242
  endloop
 facet normal 0.366505 -0.048361 0.929158
  outer loop
   vertex 0.385554 68.778633 341.129242
   vertex 0.384640 69.777267 341.181580
   vertex -0.327463 69.761940 341.461670
  endloop
 facet normal 0.366539 -0.048332 0.929146
  outer loop
   vertex -0.327463 69.761940 341.461670
   vertex -0.326550 68.763306 341.409363
   vertex 0.385554 68.778633 341.129242
  endloop
 facet normal -0.398717 -0.048333 0.915799
  outer loop
   vertex -1.029358 69.777267 341.156891
   vertex -0.326550 68.763306 341.409363
   vertex -0.327463 69.761940 341.461670
  endloop
 facet normal -0.398751 -0.048360 0.915783
  outer loop
   vertex -1.028444 68.778633 341.104553
   vertex -0.326550 68.763306 341.409363
   vertex -1.029358 69.777267 341.156891
  endloop
 facet normal -0.930410 -0.020031 0.365973
  outer loop
   vertex -1.029358 69.777267 341.156891
   vertex -1.309883 69.814270 340.445740
   vertex -1.028444 68.778633 341.104553
  endloop
 facet normal -0.930405 -0.020021 0.365987
  outer loop
   vertex -1.028444 68.778633 341.104553
   vertex -1.309883 69.814270 340.445740
   vertex -1.308969 68.815643 340.393433
  endloop
 facet normal -0.917065 0.020020 -0.398235
  outer loop
   vertex -1.308969 68.815643 340.393433
   vertex -1.309883 69.814270 340.445740
   vertex -1.004711 69.851280 339.744843
  endloop
 facet normal -0.917071 0.020032 -0.398220
  outer loop
   vertex -1.004711 69.851280 339.744843
   vertex -1.003797 68.852654 339.692505
   vertex -1.308969 68.815643 340.393433
  endloop
 facet normal -0.366539 0.048361 -0.929145
  outer loop
   vertex -0.292607 69.866608 339.464722
   vertex -1.003797 68.852654 339.692505
   vertex -1.004711 69.851280 339.744843
  endloop
 facet normal -0.301801 0.608500 -0.733924
  outer loop
   vertex -1.004711 69.851280 339.744843
   vertex -0.306591 70.825989 340.265900
   vertex -0.292607 69.866608 339.464722
  endloop
 facet normal 0.327256 0.608494 -0.722937
  outer loop
   vertex -0.292607 69.866608 339.464722
   vertex -0.306591 70.825989 340.265900
   vertex -0.131118 70.822151 340.342102
  endloop
 facet normal 0.327237 0.608500 -0.722941
  outer loop
   vertex -0.131118 70.822151 340.342102
   vertex 0.409288 69.851280 339.769531
   vertex -0.292607 69.866608 339.464722
  endloop
 facet normal 0.764240 0.585223 -0.271017
  outer loop
   vertex -0.060987 70.812904 340.519897
   vertex 0.409288 69.851280 339.769531
   vertex -0.131118 70.822151 340.342102
  endloop
 facet normal 0.764238 0.585225 -0.271021
  outer loop
   vertex 0.689813 69.814270 340.480652
   vertex 0.409288 69.851280 339.769531
   vertex -0.060987 70.812904 340.519897
  endloop
 facet normal 0.753276 0.552297 0.357132
  outer loop
   vertex -0.060987 70.812904 340.519897
   vertex -0.137280 70.803650 340.695129
   vertex 0.689813 69.814270 340.480652
  endloop
 facet normal 0.753278 0.552301 0.357121
  outer loop
   vertex 0.689813 69.814270 340.480652
   vertex -0.137280 70.803650 340.695129
   vertex 0.384640 69.777267 341.181580
  endloop
 facet normal 0.300794 0.529033 0.793503
  outer loop
   vertex 0.384640 69.777267 341.181580
   vertex -0.137280 70.803650 340.695129
   vertex -0.315306 70.799820 340.765167
  endloop
 facet normal 0.300736 0.529009 0.793541
  outer loop
   vertex -0.315306 70.799820 340.765167
   vertex -0.327463 69.761940 341.461670
   vertex 0.384640 69.777267 341.181580
  endloop
 facet normal -0.328289 0.529001 0.782550
  outer loop
   vertex -0.490779 70.803650 340.688965
   vertex -0.327463 69.761940 341.461670
   vertex -0.315306 70.799820 340.765167
  endloop
 facet normal -0.328253 0.529012 0.782557
  outer loop
   vertex -1.029358 69.777267 341.156891
   vertex -0.327463 69.761940 341.461670
   vertex -0.490779 70.803650 340.688965
  endloop
 facet normal -0.765285 0.552298 0.330614
  outer loop
   vertex -0.490779 70.803650 340.688965
   vertex -0.560910 70.812904 340.511169
   vertex -1.029358 69.777267 341.156891
  endloop
 facet normal -0.765284 0.552299 0.330616
  outer loop
   vertex -1.029358 69.777267 341.156891
   vertex -0.560910 70.812904 340.511169
   vertex -1.309883 69.814270 340.445740
  endloop
 facet normal -0.754312 0.585225 -0.297532
  outer loop
   vertex -1.309883 69.814270 340.445740
   vertex -0.560910 70.812904 340.511169
   vertex -0.484618 70.822151 340.335938
  endloop
 facet normal -0.754313 0.585227 -0.297527
  outer loop
   vertex -0.484618 70.822151 340.335938
   vertex -1.004711 69.851280 339.744843
   vertex -1.309883 69.814270 340.445740
  endloop
 facet normal -0.301842 0.608513 -0.733896
  outer loop
   vertex -0.306591 70.825989 340.265900
   vertex -1.004711 69.851280 339.744843
   vertex -0.484618 70.822151 340.335938
  endloop
 facet normal 0.366437 -0.048335 0.929186
  outer loop
   vertex -0.479166 71.299080 350.152710
   vertex -0.478252 70.300453 350.100403
   vertex -0.301140 71.302917 350.082703
  endloop
 facet normal 0.366573 -0.048360 0.929131
  outer loop
   vertex -0.301140 71.302917 350.082703
   vertex -0.478252 70.300453 350.100403
   vertex -0.300226 70.304283 350.030365
  endloop
 facet normal 0.917071 -0.020032 0.398221
  outer loop
   vertex -0.300226 70.304283 350.030365
   vertex -0.224847 71.312164 349.907471
   vertex -0.301140 71.302917 350.082703
  endloop
 facet normal 0.917071 -0.020032 0.398220
  outer loop
   vertex -0.223933 70.313538 349.855133
   vertex -0.224847 71.312164 349.907471
   vertex -0.300226 70.304283 350.030365
  endloop
 facet normal 0.930415 0.020031 -0.365959
  outer loop
   vertex -0.294978 71.321419 349.729675
   vertex -0.224847 71.312164 349.907471
   vertex -0.223933 70.313538 349.855133
  endloop
 facet normal 0.930415 0.020031 -0.365959
  outer loop
   vertex -0.223933 70.313538 349.855133
   vertex -0.294064 70.322792 349.677338
   vertex -0.294978 71.321419 349.729675
  endloop
 facet normal 0.398750 0.048361 -0.915784
  outer loop
   vertex -0.294978 71.321419 349.729675
   vertex -0.294064 70.322792 349.677338
   vertex -0.470451 71.325249 349.653473
  endloop
 facet normal 0.398616 0.048336 -0.915843
  outer loop
   vertex -0.470451 71.325249 349.653473
   vertex -0.294064 70.322792 349.677338
   vertex -0.469538 70.326622 349.601166
  endloop
 facet normal -0.366573 0.048332 -0.929133
  outer loop
   vertex -0.469538 70.326622 349.601166
   vertex -0.648477 71.321419 349.723511
   vertex -0.470451 71.325249 349.653473
  endloop
 facet normal -0.366436 0.048363 -0.929186
  outer loop
   vertex -0.647564 70.322792 349.671173
   vertex -0.648477 71.321419 349.723511
   vertex -0.469538 70.326622 349.601166
  endloop
 facet normal -0.917071 0.020032 -0.398220
  outer loop
   vertex -0.724770 71.312164 349.898743
   vertex -0.648477 71.321419 349.723511
   vertex -0.647564 70.322792 349.671173
  endloop
 facet normal -0.917071 0.020032 -0.398220
  outer loop
   vertex -0.647564 70.322792 349.671173
   vertex -0.723857 70.313538 349.846405
   vertex -0.724770 71.312164 349.898743
  endloop
 facet normal -0.930415 -0.020031 0.365959
  outer loop
   vertex -0.724770 71.312164 349.898743
   vertex -0.723857 70.313538 349.846405
   vertex -0.654639 71.302917 350.076538
  endloop
 facet normal -0.930416 -0.020031 0.365958
  outer loop
   vertex -0.654639 71.302917 350.076538
   vertex -0.723857 70.313538 349.846405
   vertex -0.653726 70.304283 350.024200
  endloop
 facet normal -0.398618 -0.048363 0.915841
  outer loop
   vertex -0.653726 70.304283 350.024200
   vertex -0.479166 71.299080 350.152710
   vertex -0.654639 71.302917 350.076538
  endloop
 facet normal -0.398750 -0.048333 0.915785
  outer loop
   vertex -0.478252 70.300453 350.100403
   vertex -0.479166 71.299080 350.152710
   vertex -0.653726 70.304283 350.024200
  endloop
 facet normal -0.328284 0.529020 0.782539
  outer loop
   vertex -0.653735 70.314308 350.024719
   vertex -1.192314 69.287926 350.492645
   vertex -0.478261 70.310478 350.100922
  endloop
 facet normal -0.328280 0.529018 0.782542
  outer loop
   vertex -0.478261 70.310478 350.100922
   vertex -1.192314 69.287926 350.492645
   vertex -0.490419 69.272598 350.797455
  endloop
 facet normal 0.300799 0.529013 0.793515
  outer loop
   vertex -0.490419 69.272598 350.797455
   vertex -0.300235 70.314308 350.030884
   vertex -0.478261 70.310478 350.100922
  endloop
 facet normal 0.300761 0.529025 0.793521
  outer loop
   vertex 0.221685 69.287926 350.517334
   vertex -0.300235 70.314308 350.030884
   vertex -0.490419 69.272598 350.797455
  endloop
 facet normal 0.753272 0.552303 0.357131
  outer loop
   vertex -0.223942 70.323563 349.855652
   vertex -0.300235 70.314308 350.030884
   vertex 0.221685 69.287926 350.517334
  endloop
 facet normal 0.753270 0.552304 0.357134
  outer loop
   vertex 0.221685 69.287926 350.517334
   vertex 0.526857 69.324928 349.816437
   vertex -0.223942 70.323563 349.855652
  endloop
 facet normal 0.764232 0.585214 -0.271061
  outer loop
   vertex -0.223942 70.323563 349.855652
   vertex 0.526857 69.324928 349.816437
   vertex -0.294073 70.332809 349.677887
  endloop
 facet normal 0.764240 0.585227 -0.271010
  outer loop
   vertex -0.294073 70.332809 349.677887
   vertex 0.526857 69.324928 349.816437
   vertex 0.246332 69.361938 349.105286
  endloop
 facet normal 0.327249 0.608518 -0.722921
  outer loop
   vertex 0.246332 69.361938 349.105286
   vertex -0.469547 70.336647 349.601685
   vertex -0.294073 70.332809 349.677887
  endloop
 facet normal 0.327210 0.608504 -0.722950
  outer loop
   vertex -0.455562 69.377266 348.800507
   vertex -0.469547 70.336647 349.601685
   vertex 0.246332 69.361938 349.105286
  endloop
 facet normal -0.301733 0.608514 -0.733940
  outer loop
   vertex -0.647573 70.332809 349.671692
   vertex -0.469547 70.336647 349.601685
   vertex -0.455562 69.377266 348.800507
  endloop
 facet normal -0.301774 0.608501 -0.733934
  outer loop
   vertex -0.455562 69.377266 348.800507
   vertex -1.167666 69.361938 349.080597
   vertex -0.647573 70.332809 349.671692
  endloop
 facet normal -0.754310 0.585228 -0.297532
  outer loop
   vertex -0.647573 70.332809 349.671692
   vertex -1.167666 69.361938 349.080597
   vertex -0.723866 70.323563 349.846924
  endloop
 facet normal -0.754320 0.585222 -0.297518
  outer loop
   vertex -0.723866 70.323563 349.846924
   vertex -1.167666 69.361938 349.080597
   vertex -1.472838 69.324928 349.781525
  endloop
 facet normal -0.765280 0.552306 0.330612
  outer loop
   vertex -1.472838 69.324928 349.781525
   vertex -0.653735 70.314308 350.024719
   vertex -0.723866 70.323563 349.846924
  endloop
 facet normal -0.765278 0.552300 0.330627
  outer loop
   vertex -1.192314 69.287926 350.492645
   vertex -0.653735 70.314308 350.024719
   vertex -1.472838 69.324928 349.781525
  endloop
endsolid