solid stl file generated from DOUG
 facet normal 0.913270 -0.405696 -0.036731
  outer loop
   vertex -32.452557 -15.614434 427.641235
   vertex -32.016098 -14.680795 428.181122
   vertex -32.465599 -15.652570 427.738159
  endloop
 facet normal 0.647399 -0.543165 0.534645
  outer loop
   vertex -32.465599 -15.652570 427.738159
   vertex -32.016098 -14.680795 428.181122
   vertex -32.568241 -14.714537 428.815430
  endloop
 facet normal 0.387920 0.838674 0.382288
  outer loop
   vertex -37.824112 -21.418798 425.266205
   vertex -38.808224 -21.672579 426.821564
   vertex -37.608986 -21.599291 425.443878
  endloop
 facet normal 0.647387 -0.543187 0.534638
  outer loop
   vertex -37.608986 -21.599291 425.443878
   vertex -38.808224 -21.672579 426.821564
   vertex -37.672123 -21.834248 425.281616
  endloop
 facet normal 0.647398 -0.543164 0.534648
  outer loop
   vertex -33.458424 -12.724625 429.434113
   vertex -34.814533 -13.038597 430.757233
   vertex -33.615295 -12.965310 429.379547
  endloop
 facet normal -0.387943 -0.838655 -0.382307
  outer loop
   vertex -33.615295 -12.965310 429.379547
   vertex -34.814533 -13.038597 430.757233
   vertex -33.830421 -12.784818 429.201904
  endloop
 facet normal 0.656000 0.040122 -0.753693
  outer loop
   vertex -33.395969 -14.556453 426.954803
   vertex -33.325008 -14.615990 427.013397
   vertex -35.630177 -19.599550 424.741730
  endloop
 facet normal 0.910462 -0.413230 -0.017349
  outer loop
   vertex -35.630177 -19.599550 424.741730
   vertex -33.325008 -14.615990 427.013397
   vertex -35.651012 -19.651093 424.875946
  endloop
 facet normal 0.647394 -0.543175 0.534641
  outer loop
   vertex -35.571545 -21.207397 425.855713
   vertex -34.569904 -20.201881 425.664398
   vertex -35.122047 -20.235622 426.298706
  endloop
 facet normal 0.387946 0.838654 0.382304
  outer loop
   vertex -35.122047 -20.235622 426.298706
   vertex -34.569904 -20.201881 425.664398
   vertex -34.734043 -20.073368 425.549042
  endloop
 facet normal 0.844725 -0.157581 -0.511476
  outer loop
   vertex -32.892338 -15.440553 428.383270
   vertex -35.197506 -20.424112 426.111572
   vertex -32.905586 -15.421829 428.355621
  endloop
 facet normal 0.844532 -0.157312 -0.511878
  outer loop
   vertex -32.905586 -15.421829 428.355621
   vertex -35.197506 -20.424112 426.111572
   vertex -35.210758 -20.405390 426.083954
  endloop
 facet normal 0.647402 -0.543166 0.534641
  outer loop
   vertex -35.210758 -20.405390 426.083954
   vertex -34.808258 -20.380793 425.621552
   vertex -32.905586 -15.421829 428.355621
  endloop
 facet normal 0.647396 -0.543163 0.534652
  outer loop
   vertex -35.708233 -13.456827 431.414520
   vertex -36.145763 -12.888852 432.521332
   vertex -36.923744 -14.570777 431.754669
  endloop
 facet normal -0.656057 -0.040069 0.753647
  outer loop
   vertex -36.923744 -14.570777 431.754669
   vertex -36.145763 -12.888852 432.521332
   vertex -37.138870 -14.390285 431.576996
  endloop
 facet normal -0.387921 -0.838674 -0.382288
  outer loop
   vertex -37.138870 -14.390285 431.576996
   vertex -34.277214 -14.215405 428.289520
   vertex -36.923744 -14.570777 431.754669
  endloop
 facet normal 0.656044 0.040083 -0.753657
  outer loop
   vertex -32.893814 -13.895310 427.348602
   vertex -33.446224 -14.780742 426.820648
   vertex -32.996727 -13.808966 427.263611
  endloop
 facet normal -0.112164 0.454643 -0.883583
  outer loop
   vertex -32.996727 -13.808966 427.263611
   vertex -33.446224 -14.780742 426.820648
   vertex -33.542233 -14.749269 426.849030
  endloop
 facet normal -0.112167 0.454645 -0.883582
  outer loop
   vertex -33.542233 -14.749269 426.849030
   vertex -33.092735 -13.777494 427.291992
   vertex -32.996727 -13.808966 427.263611
  endloop
 facet normal -0.656062 -0.040078 0.753642
  outer loop
   vertex -39.581482 -20.316551 429.135529
   vertex -39.796608 -20.136059 428.957855
   vertex -40.359463 -21.998476 428.368835
  endloop
 facet normal -0.656062 -0.040078 0.753642
  outer loop
   vertex -40.359463 -21.998476 428.368835
   vertex -39.796608 -20.136059 428.957855
   vertex -40.574589 -21.817984 428.191162
  endloop
 facet normal -0.387921 -0.838674 -0.382288
  outer loop
   vertex -40.574589 -21.817984 428.191162
   vertex -37.887253 -21.653755 425.103943
   vertex -40.359463 -21.998476 428.368835
  endloop
 facet normal 0.656059 0.040073 -0.753645
  outer loop
   vertex -33.582886 -12.714336 428.973755
   vertex -33.367760 -12.894829 429.151428
   vertex -34.062084 -14.395897 428.467194
  endloop
 facet normal 0.647402 -0.543165 0.534643
  outer loop
   vertex -34.062084 -14.395897 428.467194
   vertex -33.367760 -12.894829 429.151428
   vertex -34.071468 -13.951514 428.930023
  endloop
 facet normal 0.647388 -0.543174 0.534651
  outer loop
   vertex -34.071468 -13.951514 428.930023
   vertex -35.270706 -14.024801 430.307678
   vertex -34.062084 -14.395897 428.467194
  endloop
 facet normal -0.131277 0.460825 -0.877728
  outer loop
   vertex -32.583061 -15.307509 427.777557
   vertex -32.450531 -15.349679 427.735596
   vertex -34.755699 -20.333239 425.463898
  endloop
 facet normal 0.656002 0.040125 -0.753692
  outer loop
   vertex -34.755699 -20.333239 425.463898
   vertex -32.450531 -15.349679 427.735596
   vertex -32.379570 -15.409217 427.794189
  endloop
 facet normal 0.656002 0.040125 -0.753692
  outer loop
   vertex -32.379570 -15.409217 427.794189
   vertex -34.684738 -20.392776 425.522491
   vertex -34.755699 -20.333239 425.463898
  endloop
 facet normal 0.647387 -0.543187 0.534637
  outer loop
   vertex -38.352051 -20.686375 427.271088
   vertex -37.152813 -20.613087 425.893402
   vertex -36.719822 -20.141670 425.848053
  endloop
 facet normal 0.647376 -0.543174 0.534665
  outer loop
   vertex -36.719822 -20.141670 425.848053
   vertex -37.152813 -20.613087 425.893402
   vertex -37.414146 -21.642738 425.163788
  endloop
 facet normal 0.656014 0.040125 -0.753681
  outer loop
   vertex -37.414146 -21.642738 425.163788
   vertex -37.629276 -21.462246 424.986145
   vertex -36.719822 -20.141670 425.848053
  endloop
 facet normal -0.112160 0.454643 -0.883584
  outer loop
   vertex -36.096039 -20.270355 424.332306
   vertex -35.646538 -19.298580 424.775269
   vertex -36.000031 -20.301828 424.303925
  endloop
 facet normal -0.112167 0.454645 -0.883582
  outer loop
   vertex -36.000031 -20.301828 424.303925
   vertex -35.646538 -19.298580 424.775269
   vertex -35.550529 -19.330051 424.746887
  endloop
 facet normal 0.656043 0.040082 -0.753658
  outer loop
   vertex -35.550529 -19.330051 424.746887
   vertex -35.897118 -20.388172 424.388916
   vertex -36.000031 -20.301828 424.303925
  endloop
 facet normal 0.387953 0.838672 0.382258
  outer loop
   vertex -34.659775 -20.077400 425.482513
   vertex -34.734043 -20.073368 425.549042
   vertex -34.556862 -20.163744 425.567505
  endloop
 facet normal 0.387938 0.838653 0.382315
  outer loop
   vertex -34.556862 -20.163744 425.567505
   vertex -34.734043 -20.073368 425.549042
   vertex -34.569904 -20.201881 425.664398
  endloop
 facet normal 0.913272 -0.405689 -0.036748
  outer loop
   vertex -34.569904 -20.201881 425.664398
   vertex -35.019405 -21.173656 425.221436
   vertex -34.556862 -20.163744 425.567505
  endloop
 facet normal 0.647388 -0.543166 0.534658
  outer loop
   vertex -35.571545 -21.207397 425.855713
   vertex -35.019405 -21.173656 425.221436
   vertex -34.569904 -20.201881 425.664398
  endloop
 facet normal 0.647381 -0.543178 0.534654
  outer loop
   vertex -32.568241 -14.714537 428.815430
   vertex -33.017742 -15.686312 428.372437
   vertex -32.465599 -15.652570 427.738159
  endloop
 facet normal -0.387903 -0.838682 -0.382288
  outer loop
   vertex -32.465599 -15.652570 427.738159
   vertex -33.017742 -15.686312 428.372437
   vertex -32.629738 -15.524057 427.622772
  endloop
 facet normal -0.387974 -0.838690 -0.382197
  outer loop
   vertex -32.629738 -15.524057 427.622772
   vertex -32.452557 -15.614434 427.641235
   vertex -32.465599 -15.652570 427.738159
  endloop
 facet normal -0.387954 -0.838666 -0.382271
  outer loop
   vertex -32.555470 -15.528089 427.556244
   vertex -32.452557 -15.614434 427.641235
   vertex -32.629738 -15.524057 427.622772
  endloop
 facet normal -0.131274 0.460824 -0.877729
  outer loop
   vertex -34.755699 -20.333239 425.463898
   vertex -34.888233 -20.291069 425.505859
   vertex -32.583061 -15.307509 427.777557
  endloop
 facet normal 0.656032 0.040099 -0.753667
  outer loop
   vertex -32.583061 -15.307509 427.777557
   vertex -34.888233 -20.291069 425.505859
   vertex -35.651012 -19.651093 424.875946
  endloop
 facet normal 0.656042 0.040087 -0.753659
  outer loop
   vertex -35.651012 -19.651093 424.875946
   vertex -33.345844 -14.667532 427.147614
   vertex -32.583061 -15.307509 427.777557
  endloop
 facet normal 0.910462 -0.413230 -0.017349
  outer loop
   vertex -33.325008 -14.615990 427.013397
   vertex -33.345844 -14.667532 427.147614
   vertex -35.651012 -19.651093 424.875946
  endloop
 facet normal -0.647397 0.543168 -0.534645
  outer loop
   vertex -34.286598 -13.771022 428.752350
   vertex -34.277214 -14.215405 428.289520
   vertex -35.485832 -13.844309 430.130035
  endloop
 facet normal -0.647395 0.543171 -0.534645
  outer loop
   vertex -35.485832 -13.844309 430.130035
   vertex -34.277214 -14.215405 428.289520
   vertex -37.138870 -14.390285 431.576996
  endloop
 facet normal -0.647395 0.543170 -0.534646
  outer loop
   vertex -37.138870 -14.390285 431.576996
   vertex -36.360889 -12.708360 432.343689
   vertex -35.485832 -13.844309 430.130035
  endloop
 facet normal -0.656017 -0.040116 0.753679
  outer loop
   vertex -36.145763 -12.888852 432.521332
   vertex -36.360889 -12.708360 432.343689
   vertex -37.138870 -14.390285 431.576996
  endloop
 facet normal 0.387943 0.838655 0.382307
  outer loop
   vertex -33.673550 -12.544132 429.256470
   vertex -36.360889 -12.708360 432.343689
   vertex -36.145763 -12.888852 432.521332
  endloop
 facet normal 0.387920 0.838674 0.382288
  outer loop
   vertex -39.581482 -20.316551 429.135529
   vertex -36.934948 -19.961178 425.670380
   vertex -39.796608 -20.136059 428.957855
  endloop
 facet normal -0.647399 0.543161 -0.534650
  outer loop
   vertex -39.796608 -20.136059 428.957855
   vertex -36.934948 -19.961178 425.670380
   vertex -38.567177 -20.505882 427.093445
  endloop
 facet normal -0.647394 0.543170 -0.534648
  outer loop
   vertex -38.567177 -20.505882 427.093445
   vertex -40.574589 -21.817984 428.191162
   vertex -39.796608 -20.136059 428.957855
  endloop
 facet normal -0.647394 0.543170 -0.534647
  outer loop
   vertex -39.023350 -21.492086 426.643890
   vertex -40.574589 -21.817984 428.191162
   vertex -38.567177 -20.505882 427.093445
  endloop
 facet normal -0.647386 0.543191 -0.534635
  outer loop
   vertex -37.887253 -21.653755 425.103943
   vertex -40.574589 -21.817984 428.191162
   vertex -39.023350 -21.492086 426.643890
  endloop
 facet normal -0.387908 -0.838674 -0.382299
  outer loop
   vertex -37.140335 -14.393770 431.575409
   vertex -33.445156 -14.930572 429.003632
   vertex -36.292992 -15.104669 432.275177
  endloop
 facet normal 0.647405 -0.543152 0.534653
  outer loop
   vertex -36.292992 -15.104669 432.275177
   vertex -33.445156 -14.930572 429.003632
   vertex -33.316864 -14.653199 429.130066
  endloop
 facet normal 0.647405 -0.543152 0.534653
  outer loop
   vertex -33.316864 -14.653199 429.130066
   vertex -36.164700 -14.827296 432.401611
   vertex -36.292992 -15.104669 432.275177
  endloop
 facet normal 0.387897 0.838684 0.382290
  outer loop
   vertex -34.164268 -13.942313 428.430328
   vertex -36.164700 -14.827296 432.401611
   vertex -33.316864 -14.653199 429.130066
  endloop
 facet normal 0.387912 0.838675 0.382295
  outer loop
   vertex -37.012043 -14.116398 431.701843
   vertex -36.164700 -14.827296 432.401611
   vertex -34.164268 -13.942313 428.430328
  endloop
 facet normal 0.647417 -0.543167 0.534623
  outer loop
   vertex -34.684738 -20.392776 425.522491
   vertex -32.379570 -15.409217 427.794189
   vertex -34.778107 -20.398483 425.629761
  endloop
 facet normal 0.647425 -0.543167 0.534612
  outer loop
   vertex -34.778107 -20.398483 425.629761
   vertex -32.379570 -15.409217 427.794189
   vertex -32.472935 -15.414923 427.901459
  endloop
 facet normal -0.380068 -0.232314 0.895309
  outer loop
   vertex -32.472935 -15.414923 427.901459
   vertex -34.808258 -20.380793 425.621552
   vertex -34.778107 -20.398483 425.629761
  endloop
 facet normal -0.380068 -0.232314 0.895309
  outer loop
   vertex -32.503086 -15.397232 427.893250
   vertex -34.808258 -20.380793 425.621552
   vertex -32.472935 -15.414923 427.901459
  endloop
 facet normal 0.647384 -0.543169 0.534660
  outer loop
   vertex -32.905586 -15.421829 428.355621
   vertex -34.808258 -20.380793 425.621552
   vertex -32.503086 -15.397232 427.893250
  endloop
 facet normal -0.387945 -0.838659 -0.382294
  outer loop
   vertex -39.923195 -20.410030 428.832947
   vertex -37.075459 -20.236029 425.561401
   vertex -39.075867 -21.120968 429.532715
  endloop
 facet normal -0.387960 -0.838650 -0.382300
  outer loop
   vertex -39.075867 -21.120968 429.532715
   vertex -37.075459 -20.236029 425.561401
   vertex -36.228092 -20.946997 426.261139
  endloop
 facet normal 0.647389 -0.543182 0.534641
  outer loop
   vertex -36.228092 -20.946997 426.261139
   vertex -38.947559 -20.843599 429.659149
   vertex -39.075867 -21.120968 429.532715
  endloop
 facet normal 0.647387 -0.543185 0.534640
  outer loop
   vertex -36.099785 -20.669630 426.387573
   vertex -38.947559 -20.843599 429.659149
   vertex -36.228092 -20.946997 426.261139
  endloop
 facet normal 0.387948 0.838660 0.382290
  outer loop
   vertex -39.794888 -20.132664 428.959381
   vertex -38.947559 -20.843599 429.659149
   vertex -36.099785 -20.669630 426.387573
  endloop
 facet normal 0.387949 0.838660 0.382291
  outer loop
   vertex -36.099785 -20.669630 426.387573
   vertex -36.947113 -19.958693 425.687805
   vertex -39.794888 -20.132664 428.959381
  endloop
 facet normal 0.647393 -0.543168 0.534649
  outer loop
   vertex -32.892338 -15.440553 428.383270
   vertex -32.938667 -15.443384 428.436493
   vertex -35.243835 -20.426945 426.164795
  endloop
 facet normal -0.656041 -0.040092 0.753659
  outer loop
   vertex -35.243835 -20.426945 426.164795
   vertex -32.938667 -15.443384 428.436493
   vertex -33.955067 -14.590620 427.597107
  endloop
 facet normal -0.656041 -0.040092 0.753659
  outer loop
   vertex -33.955067 -14.590620 427.597107
   vertex -36.260235 -19.574179 425.325409
   vertex -35.243835 -20.426945 426.164795
  endloop
 facet normal -0.647393 0.543169 -0.534649
  outer loop
   vertex -33.908737 -14.587789 427.543884
   vertex -36.260235 -19.574179 425.325409
   vertex -33.955067 -14.590620 427.597107
  endloop
 facet normal -0.647411 0.543168 -0.534628
  outer loop
   vertex -36.213909 -19.571348 425.272186
   vertex -36.260235 -19.574179 425.325409
   vertex -33.908737 -14.587789 427.543884
  endloop
 facet normal 0.380068 0.232314 -0.895309
  outer loop
   vertex -33.908737 -14.587789 427.543884
   vertex -33.878586 -14.605479 427.552094
   vertex -36.213909 -19.571348 425.272186
  endloop
 facet normal 0.380068 0.232314 -0.895309
  outer loop
   vertex -36.213909 -19.571348 425.272186
   vertex -33.878586 -14.605479 427.552094
   vertex -36.183758 -19.589039 425.280396
  endloop
 facet normal -0.647401 0.543168 -0.534640
  outer loop
   vertex -36.183758 -19.589039 425.280396
   vertex -33.878586 -14.605479 427.552094
   vertex -33.476086 -14.580882 427.089691
  endloop
 facet normal -0.647399 0.543168 -0.534643
  outer loop
   vertex -33.476086 -14.580882 427.089691
   vertex -35.781254 -19.564442 424.817993
   vertex -36.183758 -19.589039 425.280396
  endloop
 facet normal -0.844565 0.157354 0.511810
  outer loop
   vertex -33.489334 -14.562159 427.062073
   vertex -35.781254 -19.564442 424.817993
   vertex -33.476086 -14.580882 427.089691
  endloop
 facet normal -0.844530 0.157306 0.511883
  outer loop
   vertex -35.794506 -19.545717 424.790375
   vertex -35.781254 -19.564442 424.817993
   vertex -33.489334 -14.562159 427.062073
  endloop
 facet normal -0.647425 0.543167 -0.534612
  outer loop
   vertex -33.489334 -14.562159 427.062073
   vertex -33.395969 -14.556453 426.954803
   vertex -35.794506 -19.545717 424.790375
  endloop
 facet normal -0.647412 0.543167 -0.534628
  outer loop
   vertex -35.794506 -19.545717 424.790375
   vertex -33.395969 -14.556453 426.954803
   vertex -35.701138 -19.540012 424.683105
  endloop
 facet normal 0.656138 0.040011 -0.753579
  outer loop
   vertex -35.701138 -19.540012 424.683105
   vertex -33.395969 -14.556453 426.954803
   vertex -35.630177 -19.599550 424.741730
  endloop
 facet normal -0.387917 -0.838676 -0.382286
  outer loop
   vertex -37.887253 -21.653755 425.103943
   vertex -37.672123 -21.834248 425.281616
   vertex -40.359463 -21.998476 428.368835
  endloop
 facet normal 0.647387 -0.543187 0.534638
  outer loop
   vertex -40.359463 -21.998476 428.368835
   vertex -37.672123 -21.834248 425.281616
   vertex -38.808224 -21.672579 426.821564
  endloop
 facet normal 0.647393 -0.543171 0.534647
  outer loop
   vertex -38.808224 -21.672579 426.821564
   vertex -39.355755 -21.342424 427.819977
   vertex -40.359463 -21.998476 428.368835
  endloop
 facet normal 0.647403 -0.543158 0.534648
  outer loop
   vertex -38.352051 -20.686375 427.271088
   vertex -39.355755 -21.342424 427.819977
   vertex -38.808224 -21.672579 426.821564
  endloop
 facet normal 0.647403 -0.543162 0.534644
  outer loop
   vertex -39.581482 -20.316551 429.135529
   vertex -39.355755 -21.342424 427.819977
   vertex -38.352051 -20.686375 427.271088
  endloop
 facet normal 0.647388 -0.543186 0.534638
  outer loop
   vertex -38.352051 -20.686375 427.271088
   vertex -36.719822 -20.141670 425.848053
   vertex -39.581482 -20.316551 429.135529
  endloop
 facet normal 0.387920 0.838674 0.382288
  outer loop
   vertex -39.581482 -20.316551 429.135529
   vertex -36.719822 -20.141670 425.848053
   vertex -36.934948 -19.961178 425.670380
  endloop
 facet normal 0.656059 0.040072 -0.753645
  outer loop
   vertex -36.934948 -19.961178 425.670380
   vertex -36.719822 -20.141670 425.848053
   vertex -37.629276 -21.462246 424.986145
  endloop
 facet normal -0.647402 0.543166 -0.534641
  outer loop
   vertex -37.629276 -21.462246 424.986145
   vertex -37.367939 -20.432594 425.715759
   vertex -36.934948 -19.961178 425.670380
  endloop
 facet normal -0.647391 0.543170 -0.534651
  outer loop
   vertex -37.824112 -21.418798 425.266205
   vertex -37.367939 -20.432594 425.715759
   vertex -37.629276 -21.462246 424.986145
  endloop
 facet normal -0.656017 -0.040116 0.753679
  outer loop
   vertex -37.152813 -20.613087 425.893402
   vertex -37.367939 -20.432594 425.715759
   vertex -37.824112 -21.418798 425.266205
  endloop
 facet normal -0.656054 -0.040062 0.753650
  outer loop
   vertex -37.824112 -21.418798 425.266205
   vertex -37.608986 -21.599291 425.443878
   vertex -37.152813 -20.613087 425.893402
  endloop
 facet normal 0.647425 -0.543157 0.534623
  outer loop
   vertex -37.152813 -20.613087 425.893402
   vertex -37.608986 -21.599291 425.443878
   vertex -37.414146 -21.642738 425.163788
  endloop
 facet normal 0.647411 -0.543179 0.534617
  outer loop
   vertex -37.414146 -21.642738 425.163788
   vertex -37.608986 -21.599291 425.443878
   vertex -37.672123 -21.834248 425.281616
  endloop
 facet normal 0.112151 -0.625922 -0.771780
  outer loop
   vertex -37.672123 -21.834248 425.281616
   vertex -37.629276 -21.462246 424.986145
   vertex -37.414146 -21.642738 425.163788
  endloop
 facet normal 0.112249 -0.625922 -0.771766
  outer loop
   vertex -37.887253 -21.653755 425.103943
   vertex -37.629276 -21.462246 424.986145
   vertex -37.672123 -21.834248 425.281616
  endloop
 facet normal -0.647374 0.543198 -0.534643
  outer loop
   vertex -37.824112 -21.418798 425.266205
   vertex -37.629276 -21.462246 424.986145
   vertex -37.887253 -21.653755 425.103943
  endloop
 facet normal -0.647384 0.543194 -0.534634
  outer loop
   vertex -37.887253 -21.653755 425.103943
   vertex -39.023350 -21.492086 426.643890
   vertex -37.824112 -21.418798 425.266205
  endloop
 facet normal 0.387920 0.838674 0.382288
  outer loop
   vertex -37.824112 -21.418798 425.266205
   vertex -39.023350 -21.492086 426.643890
   vertex -38.808224 -21.672579 426.821564
  endloop
 facet normal 0.656062 0.040078 -0.753642
  outer loop
   vertex -38.808224 -21.672579 426.821564
   vertex -39.023350 -21.492086 426.643890
   vertex -38.567177 -20.505882 427.093445
  endloop
 facet normal 0.656009 0.040100 -0.753687
  outer loop
   vertex -38.567177 -20.505882 427.093445
   vertex -38.352051 -20.686375 427.271088
   vertex -38.808224 -21.672579 426.821564
  endloop
 facet normal -0.387943 -0.838655 -0.382307
  outer loop
   vertex -37.367939 -20.432594 425.715759
   vertex -38.352051 -20.686375 427.271088
   vertex -38.567177 -20.505882 427.093445
  endloop
 facet normal -0.387943 -0.838655 -0.382307
  outer loop
   vertex -37.152813 -20.613087 425.893402
   vertex -38.352051 -20.686375 427.271088
   vertex -37.367939 -20.432594 425.715759
  endloop
 facet normal 0.387913 0.838676 0.382291
  outer loop
   vertex -34.071468 -13.951514 428.930023
   vertex -34.286598 -13.771022 428.752350
   vertex -35.270706 -14.024801 430.307678
  endloop
 facet normal 0.387944 0.838655 0.382306
  outer loop
   vertex -35.270706 -14.024801 430.307678
   vertex -34.286598 -13.771022 428.752350
   vertex -35.485832 -13.844309 430.130035
  endloop
 facet normal 0.656017 0.040116 -0.753679
  outer loop
   vertex -35.485832 -13.844309 430.130035
   vertex -34.814533 -13.038597 430.757233
   vertex -35.270706 -14.024801 430.307678
  endloop
 facet normal 0.656017 0.040116 -0.753679
  outer loop
   vertex -35.029659 -12.858105 430.579590
   vertex -34.814533 -13.038597 430.757233
   vertex -35.485832 -13.844309 430.130035
  endloop
 facet normal -0.387943 -0.838655 -0.382307
  outer loop
   vertex -33.830421 -12.784818 429.201904
   vertex -34.814533 -13.038597 430.757233
   vertex -35.029659 -12.858105 430.579590
  endloop
 facet normal -0.647398 0.543164 -0.534648
  outer loop
   vertex -35.029659 -12.858105 430.579590
   vertex -33.673550 -12.544132 429.256470
   vertex -33.830421 -12.784818 429.201904
  endloop
 facet normal -0.647413 0.543169 -0.534626
  outer loop
   vertex -33.830421 -12.784818 429.201904
   vertex -33.673550 -12.544132 429.256470
   vertex -33.582886 -12.714336 428.973755
  endloop
 facet normal 0.714617 0.676467 -0.178086
  outer loop
   vertex -33.582886 -12.714336 428.973755
   vertex -33.673550 -12.544132 429.256470
   vertex -33.458424 -12.724625 429.434113
  endloop
 facet normal 0.714632 0.676450 -0.178090
  outer loop
   vertex -33.458424 -12.724625 429.434113
   vertex -33.367760 -12.894829 429.151428
   vertex -33.582886 -12.714336 428.973755
  endloop
 facet normal 0.647384 -0.543160 0.534669
  outer loop
   vertex -33.615295 -12.965310 429.379547
   vertex -33.367760 -12.894829 429.151428
   vertex -33.458424 -12.724625 429.434113
  endloop
 facet normal 0.647384 -0.543159 0.534669
  outer loop
   vertex -34.071468 -13.951514 428.930023
   vertex -33.367760 -12.894829 429.151428
   vertex -33.615295 -12.965310 429.379547
  endloop
 facet normal -0.656009 -0.040100 0.753687
  outer loop
   vertex -33.615295 -12.965310 429.379547
   vertex -33.830421 -12.784818 429.201904
   vertex -34.071468 -13.951514 428.930023
  endloop
 facet normal -0.656056 -0.040081 0.753647
  outer loop
   vertex -34.071468 -13.951514 428.930023
   vertex -33.830421 -12.784818 429.201904
   vertex -34.286598 -13.771022 428.752350
  endloop
 facet normal -0.647412 0.543171 -0.534624
  outer loop
   vertex -34.286598 -13.771022 428.752350
   vertex -33.830421 -12.784818 429.201904
   vertex -33.582886 -12.714336 428.973755
  endloop
 facet normal -0.647400 0.543166 -0.534644
  outer loop
   vertex -33.582886 -12.714336 428.973755
   vertex -34.277214 -14.215405 428.289520
   vertex -34.286598 -13.771022 428.752350
  endloop
 facet normal 0.656054 0.040076 -0.753649
  outer loop
   vertex -34.062084 -14.395897 428.467194
   vertex -34.277214 -14.215405 428.289520
   vertex -33.582886 -12.714336 428.973755
  endloop
 facet normal -0.387917 -0.838676 -0.382286
  outer loop
   vertex -36.923744 -14.570777 431.754669
   vertex -34.277214 -14.215405 428.289520
   vertex -34.062084 -14.395897 428.467194
  endloop
 facet normal 0.647407 -0.543144 0.534657
  outer loop
   vertex -34.062084 -14.395897 428.467194
   vertex -35.270706 -14.024801 430.307678
   vertex -36.923744 -14.570777 431.754669
  endloop
 facet normal 0.647400 -0.543171 0.534639
  outer loop
   vertex -36.923744 -14.570777 431.754669
   vertex -35.270706 -14.024801 430.307678
   vertex -35.708233 -13.456827 431.414520
  endloop
 facet normal 0.647401 -0.543170 0.534639
  outer loop
   vertex -35.708233 -13.456827 431.414520
   vertex -35.270706 -14.024801 430.307678
   vertex -34.814533 -13.038597 430.757233
  endloop
 facet normal 0.647403 -0.543156 0.534651
  outer loop
   vertex -34.814533 -13.038597 430.757233
   vertex -36.145763 -12.888852 432.521332
   vertex -35.708233 -13.456827 431.414520
  endloop
 facet normal 0.647397 -0.543165 0.534648
  outer loop
   vertex -33.458424 -12.724625 429.434113
   vertex -36.145763 -12.888852 432.521332
   vertex -34.814533 -13.038597 430.757233
  endloop
 facet normal 0.387943 0.838655 0.382307
  outer loop
   vertex -33.673550 -12.544132 429.256470
   vertex -36.145763 -12.888852 432.521332
   vertex -33.458424 -12.724625 429.434113
  endloop
 facet normal 0.737018 -0.531332 0.417722
  outer loop
   vertex -32.949039 -13.907255 427.430847
   vertex -33.398537 -14.879031 426.987854
   vertex -32.893814 -13.895310 427.348602
  endloop
 facet normal 0.736951 -0.531338 0.417831
  outer loop
   vertex -32.893814 -13.895310 427.348602
   vertex -33.398537 -14.879031 426.987854
   vertex -33.343311 -14.867086 426.905640
  endloop
 facet normal 0.656044 0.040083 -0.753657
  outer loop
   vertex -33.343311 -14.867086 426.905640
   vertex -33.446224 -14.780742 426.820648
   vertex -32.893814 -13.895310 427.348602
  endloop
 facet normal -0.387854 -0.838663 -0.382379
  outer loop
   vertex -33.398537 -14.879031 426.987854
   vertex -33.446224 -14.780742 426.820648
   vertex -33.343311 -14.867086 426.905640
  endloop
 facet normal -0.387938 -0.838641 -0.382342
  outer loop
   vertex -33.542233 -14.749269 426.849030
   vertex -33.446224 -14.780742 426.820648
   vertex -33.398537 -14.879031 426.987854
  endloop
 facet normal -0.387951 -0.838641 -0.382328
  outer loop
   vertex -33.398537 -14.879031 426.987854
   vertex -34.094376 -14.783011 427.483307
   vertex -33.542233 -14.749269 426.849030
  endloop
 facet normal -0.647387 0.543164 -0.534661
  outer loop
   vertex -33.542233 -14.749269 426.849030
   vertex -34.094376 -14.783011 427.483307
   vertex -33.092735 -13.777494 427.291992
  endloop
 facet normal -0.647396 0.543177 -0.534638
  outer loop
   vertex -33.092735 -13.777494 427.291992
   vertex -34.094376 -14.783011 427.483307
   vertex -33.644875 -13.811236 427.926300
  endloop
 facet normal 0.387928 0.838670 0.382289
  outer loop
   vertex -33.644875 -13.811236 427.926300
   vertex -32.949039 -13.907255 427.430847
   vertex -33.092735 -13.777494 427.291992
  endloop
 facet normal 0.387931 0.838666 0.382293
  outer loop
   vertex -32.568241 -14.714537 428.815430
   vertex -32.949039 -13.907255 427.430847
   vertex -33.644875 -13.811236 427.926300
  endloop
 facet normal 0.387942 0.838664 0.382289
  outer loop
   vertex -32.180237 -14.552282 428.065735
   vertex -32.949039 -13.907255 427.430847
   vertex -32.568241 -14.714537 428.815430
  endloop
 facet normal 0.387911 0.838683 0.382277
  outer loop
   vertex -32.568241 -14.714537 428.815430
   vertex -32.016098 -14.680795 428.181122
   vertex -32.180237 -14.552282 428.065735
  endloop
 facet normal 0.387886 0.838680 0.382310
  outer loop
   vertex -32.180237 -14.552282 428.065735
   vertex -32.016098 -14.680795 428.181122
   vertex -32.003056 -14.642658 428.084229
  endloop
 facet normal 0.913272 -0.405690 -0.036744
  outer loop
   vertex -32.003056 -14.642658 428.084229
   vertex -32.016098 -14.680795 428.181122
   vertex -32.452557 -15.614434 427.641235
  endloop
 facet normal 0.656041 0.040107 -0.753659
  outer loop
   vertex -32.452557 -15.614434 427.641235
   vertex -32.105972 -14.556314 427.999237
   vertex -32.003056 -14.642658 428.084229
  endloop
 facet normal 0.656052 0.040100 -0.753650
  outer loop
   vertex -32.555470 -15.528089 427.556244
   vertex -32.105972 -14.556314 427.999237
   vertex -32.452557 -15.614434 427.641235
  endloop
 facet normal -0.543547 0.543150 -0.639957
  outer loop
   vertex -32.180237 -14.552282 428.065735
   vertex -32.105972 -14.556314 427.999237
   vertex -32.555470 -15.528089 427.556244
  endloop
 facet normal -0.543683 0.543144 -0.639847
  outer loop
   vertex -32.555470 -15.528089 427.556244
   vertex -32.629738 -15.524057 427.622772
   vertex -32.180237 -14.552282 428.065735
  endloop
 facet normal 0.656043 0.040082 -0.753658
  outer loop
   vertex -32.180237 -14.552282 428.065735
   vertex -32.629738 -15.524057 427.622772
   vertex -33.398537 -14.879031 426.987854
  endloop
 facet normal -0.387925 -0.838668 -0.382296
  outer loop
   vertex -33.398537 -14.879031 426.987854
   vertex -32.629738 -15.524057 427.622772
   vertex -33.017742 -15.686312 428.372437
  endloop
 facet normal -0.387930 -0.838666 -0.382294
  outer loop
   vertex -33.017742 -15.686312 428.372437
   vertex -34.094376 -14.783011 427.483307
   vertex -33.398537 -14.879031 426.987854
  endloop
 facet normal -0.387931 -0.838666 -0.382293
  outer loop
   vertex -34.414055 -14.948987 428.171814
   vertex -34.094376 -14.783011 427.483307
   vertex -33.017742 -15.686312 428.372437
  endloop
 facet normal -0.824772 0.501017 -0.262170
  outer loop
   vertex -33.644875 -13.811236 427.926300
   vertex -34.094376 -14.783011 427.483307
   vertex -34.414055 -14.948987 428.171814
  endloop
 facet normal -0.824771 0.501013 -0.262182
  outer loop
   vertex -34.414055 -14.948987 428.171814
   vertex -33.964554 -13.977212 428.614777
   vertex -33.644875 -13.811236 427.926300
  endloop
 facet normal 0.387919 0.838667 0.382305
  outer loop
   vertex -33.644875 -13.811236 427.926300
   vertex -33.964554 -13.977212 428.614777
   vertex -33.213299 -14.607518 429.235199
  endloop
 facet normal -0.656040 -0.040084 0.753661
  outer loop
   vertex -33.213299 -14.607518 429.235199
   vertex -33.964554 -13.977212 428.614777
   vertex -34.414055 -14.948987 428.171814
  endloop
 facet normal -0.656040 -0.040084 0.753661
  outer loop
   vertex -34.414055 -14.948987 428.171814
   vertex -33.662800 -15.579293 428.792236
   vertex -33.213299 -14.607518 429.235199
  endloop
 facet normal -0.387932 -0.838667 -0.382290
  outer loop
   vertex -33.017742 -15.686312 428.372437
   vertex -33.662800 -15.579293 428.792236
   vertex -34.414055 -14.948987 428.171814
  endloop
 facet normal 0.400446 -0.526941 0.749651
  outer loop
   vertex -33.213299 -14.607518 429.235199
   vertex -33.662800 -15.579293 428.792236
   vertex -33.017742 -15.686312 428.372437
  endloop
 facet normal 0.400414 -0.526954 0.749659
  outer loop
   vertex -33.017742 -15.686312 428.372437
   vertex -32.568241 -14.714537 428.815430
   vertex -33.213299 -14.607518 429.235199
  endloop
 facet normal 0.387922 0.838666 0.382304
  outer loop
   vertex -33.213299 -14.607518 429.235199
   vertex -32.568241 -14.714537 428.815430
   vertex -33.644875 -13.811236 427.926300
  endloop
 facet normal -0.387930 -0.838667 -0.382293
  outer loop
   vertex -36.648182 -20.304098 424.966583
   vertex -35.571545 -21.207397 425.855713
   vertex -36.216606 -21.100380 426.275513
  endloop
 facet normal 0.400438 -0.526956 0.749644
  outer loop
   vertex -36.216606 -21.100380 426.275513
   vertex -35.571545 -21.207397 425.855713
   vertex -35.122047 -20.235622 426.298706
  endloop
 facet normal 0.400422 -0.526937 0.749666
  outer loop
   vertex -35.122047 -20.235622 426.298706
   vertex -35.767105 -20.128605 426.718475
   vertex -36.216606 -21.100380 426.275513
  endloop
 facet normal 0.387925 0.838661 0.382311
  outer loop
   vertex -36.518360 -19.498299 426.098083
   vertex -35.767105 -20.128605 426.718475
   vertex -35.122047 -20.235622 426.298706
  endloop
 facet normal -0.656027 -0.040095 0.753671
  outer loop
   vertex -36.216606 -21.100380 426.275513
   vertex -35.767105 -20.128605 426.718475
   vertex -36.518360 -19.498299 426.098083
  endloop
 facet normal -0.656048 -0.040101 0.753653
  outer loop
   vertex -36.518360 -19.498299 426.098083
   vertex -36.967861 -20.470074 425.655090
   vertex -36.216606 -21.100380 426.275513
  endloop
 facet normal -0.387930 -0.838667 -0.382293
  outer loop
   vertex -36.216606 -21.100380 426.275513
   vertex -36.967861 -20.470074 425.655090
   vertex -36.648182 -20.304098 424.966583
  endloop
 facet normal -0.824772 0.501017 -0.262170
  outer loop
   vertex -36.648182 -20.304098 424.966583
   vertex -36.967861 -20.470074 425.655090
   vertex -36.518360 -19.498299 426.098083
  endloop
 facet normal -0.824772 0.501017 -0.262170
  outer loop
   vertex -36.518360 -19.498299 426.098083
   vertex -36.198681 -19.332323 425.409576
   vertex -36.648182 -20.304098 424.966583
  endloop
 facet normal 0.387930 0.838667 0.382293
  outer loop
   vertex -35.122047 -20.235622 426.298706
   vertex -36.198681 -19.332323 425.409576
   vertex -36.518360 -19.498299 426.098083
  endloop
 facet normal 0.387929 0.838667 0.382295
  outer loop
   vertex -35.502842 -19.428341 424.914124
   vertex -36.198681 -19.332323 425.409576
   vertex -35.122047 -20.235622 426.298706
  endloop
 facet normal 0.387925 0.838668 0.382297
  outer loop
   vertex -35.122047 -20.235622 426.298706
   vertex -34.734043 -20.073368 425.549042
   vertex -35.502842 -19.428341 424.914124
  endloop
 facet normal 0.656051 0.040098 -0.753651
  outer loop
   vertex -35.502842 -19.428341 424.914124
   vertex -34.734043 -20.073368 425.549042
   vertex -35.183544 -21.045143 425.106049
  endloop
 facet normal -0.543672 0.543158 -0.639844
  outer loop
   vertex -35.183544 -21.045143 425.106049
   vertex -34.734043 -20.073368 425.549042
   vertex -34.659775 -20.077400 425.482513
  endloop
 facet normal -0.543533 0.543136 -0.639980
  outer loop
   vertex -34.659775 -20.077400 425.482513
   vertex -35.109276 -21.049175 425.039551
   vertex -35.183544 -21.045143 425.106049
  endloop
 facet normal 0.656043 0.040082 -0.753658
  outer loop
   vertex -34.556862 -20.163744 425.567505
   vertex -35.109276 -21.049175 425.039551
   vertex -34.659775 -20.077400 425.482513
  endloop
 facet normal 0.656044 0.040081 -0.753658
  outer loop
   vertex -35.006363 -21.135521 425.124542
   vertex -35.109276 -21.049175 425.039551
   vertex -34.556862 -20.163744 425.567505
  endloop
 facet normal 0.913271 -0.405691 -0.036741
  outer loop
   vertex -34.556862 -20.163744 425.567505
   vertex -35.019405 -21.173656 425.221436
   vertex -35.006363 -21.135521 425.124542
  endloop
 facet normal -0.387895 -0.838679 -0.382303
  outer loop
   vertex -35.006363 -21.135521 425.124542
   vertex -35.019405 -21.173656 425.221436
   vertex -35.183544 -21.045143 425.106049
  endloop
 facet normal -0.387907 -0.838680 -0.382288
  outer loop
   vertex -35.183544 -21.045143 425.106049
   vertex -35.019405 -21.173656 425.221436
   vertex -35.571545 -21.207397 425.855713
  endloop
 facet normal -0.387933 -0.838663 -0.382298
  outer loop
   vertex -35.571545 -21.207397 425.855713
   vertex -35.952343 -20.400118 424.471161
   vertex -35.183544 -21.045143 425.106049
  endloop
 facet normal -0.387921 -0.838667 -0.382303
  outer loop
   vertex -36.648182 -20.304098 424.966583
   vertex -35.952343 -20.400118 424.471161
   vertex -35.571545 -21.207397 425.855713
  endloop
 facet normal -0.387921 -0.838666 -0.382304
  outer loop
   vertex -36.096039 -20.270355 424.332306
   vertex -35.952343 -20.400118 424.471161
   vertex -36.648182 -20.304098 424.966583
  endloop
 facet normal -0.647382 0.543178 -0.534654
  outer loop
   vertex -36.648182 -20.304098 424.966583
   vertex -36.198681 -19.332323 425.409576
   vertex -36.096039 -20.270355 424.332306
  endloop
 facet normal -0.647400 0.543165 -0.534645
  outer loop
   vertex -36.096039 -20.270355 424.332306
   vertex -36.198681 -19.332323 425.409576
   vertex -35.646538 -19.298580 424.775269
  endloop
 facet normal 0.387926 0.838670 0.382291
  outer loop
   vertex -35.646538 -19.298580 424.775269
   vertex -36.198681 -19.332323 425.409576
   vertex -35.502842 -19.428341 424.914124
  endloop
 facet normal 0.387924 0.838670 0.382293
  outer loop
   vertex -35.502842 -19.428341 424.914124
   vertex -35.550529 -19.330051 424.746887
   vertex -35.646538 -19.298580 424.775269
  endloop
 facet normal 0.387941 0.838665 0.382286
  outer loop
   vertex -35.447617 -19.416397 424.831879
   vertex -35.550529 -19.330051 424.746887
   vertex -35.502842 -19.428341 424.914124
  endloop
 facet normal 0.656044 0.040081 -0.753658
  outer loop
   vertex -35.897118 -20.388172 424.388916
   vertex -35.550529 -19.330051 424.746887
   vertex -35.447617 -19.416397 424.831879
  endloop
 facet normal 0.737018 -0.531325 0.417729
  outer loop
   vertex -35.447617 -19.416397 424.831879
   vertex -35.502842 -19.428341 424.914124
   vertex -35.897118 -20.388172 424.388916
  endloop
 facet normal 0.737024 -0.531323 0.417721
  outer loop
   vertex -35.897118 -20.388172 424.388916
   vertex -35.502842 -19.428341 424.914124
   vertex -35.952343 -20.400118 424.471161
  endloop
 facet normal 0.656031 0.040092 -0.753669
  outer loop
   vertex -35.952343 -20.400118 424.471161
   vertex -35.502842 -19.428341 424.914124
   vertex -35.183544 -21.045143 425.106049
  endloop
 facet normal -0.647395 0.543170 -0.534646
  outer loop
   vertex -35.485832 -13.844309 430.130035
   vertex -36.360889 -12.708360 432.343689
   vertex -35.029659 -12.858105 430.579590
  endloop
 facet normal -0.647397 0.543165 -0.534648
  outer loop
   vertex -35.029659 -12.858105 430.579590
   vertex -36.360889 -12.708360 432.343689
   vertex -33.673550 -12.544132 429.256470
  endloop
 facet normal -0.387938 -0.838666 -0.382287
  outer loop
   vertex -36.096039 -20.270355 424.332306
   vertex -36.000031 -20.301828 424.303925
   vertex -35.952343 -20.400118 424.471161
  endloop
 facet normal -0.387923 -0.838670 -0.382294
  outer loop
   vertex -35.952343 -20.400118 424.471161
   vertex -36.000031 -20.301828 424.303925
   vertex -35.897118 -20.388172 424.388916
  endloop
 facet normal 0.387924 0.838670 0.382293
  outer loop
   vertex -33.092735 -13.777494 427.291992
   vertex -32.949039 -13.907255 427.430847
   vertex -32.996727 -13.808966 427.263611
  endloop
 facet normal 0.387932 0.838668 0.382290
  outer loop
   vertex -32.996727 -13.808966 427.263611
   vertex -32.949039 -13.907255 427.430847
   vertex -32.893814 -13.895310 427.348602
  endloop
 facet normal -0.387881 -0.838662 -0.382354
  outer loop
   vertex -35.006363 -21.135521 425.124542
   vertex -35.183544 -21.045143 425.106049
   vertex -35.109276 -21.049175 425.039551
  endloop
 facet normal 0.387878 0.838670 0.382340
  outer loop
   vertex -32.003056 -14.642658 428.084229
   vertex -32.105972 -14.556314 427.999237
   vertex -32.180237 -14.552282 428.065735
  endloop
 facet normal 0.647393 -0.543170 0.534648
  outer loop
   vertex -40.359463 -21.998476 428.368835
   vertex -39.355755 -21.342424 427.819977
   vertex -39.581482 -20.316551 429.135529
  endloop
 facet normal 0.656038 0.040112 -0.753661
  outer loop
   vertex -32.180237 -14.552282 428.065735
   vertex -33.398537 -14.879031 426.987854
   vertex -32.949039 -13.907255 427.430847
  endloop
 facet normal 0.656011 0.040128 -0.753683
  outer loop
   vertex -33.316864 -14.653199 429.130066
   vertex -33.445156 -14.930572 429.003632
   vertex -34.164268 -13.942313 428.430328
  endloop
 facet normal 0.656014 0.040091 -0.753683
  outer loop
   vertex -36.228092 -20.946997 426.261139
   vertex -37.075459 -20.236029 425.561401
   vertex -36.099785 -20.669630 426.387573
  endloop
 facet normal 0.647398 -0.543168 0.534644
  outer loop
   vertex -35.243835 -20.426945 426.164795
   vertex -35.197506 -20.424112 426.111572
   vertex -32.892338 -15.440553 428.383270
  endloop
 facet normal -0.387908 -0.838674 -0.382300
  outer loop
   vertex -33.445156 -14.930572 429.003632
   vertex -37.140335 -14.393770 431.575409
   vertex -34.292500 -14.219672 428.303864
  endloop
 facet normal -0.647399 0.543162 -0.534649
  outer loop
   vertex -36.934948 -19.961178 425.670380
   vertex -37.367939 -20.432594 425.715759
   vertex -38.567177 -20.505882 427.093445
  endloop
endsolid