solid stl file generated from DOUG
 facet normal 0.579654 -0.042249 0.813767
  outer loop
   vertex -54.911423 -45.555695 345.953857
   vertex -54.800449 -45.551449 345.875031
   vertex -54.808926 -36.314671 346.360626
  endloop
 endfacet

 facet normal 0.999848 0.000001 0.017435
  outer loop
   vertex -54.808926 -36.314671 346.360626
   vertex -54.800449 -45.551449 345.875031
   vertex -54.807137 -36.309273 346.258026
  endloop
 endfacet

 facet normal 0.607668 0.042253 -0.793066
  outer loop
   vertex -54.939148 -36.376915 347.542328
   vertex -54.830997 -36.381161 347.624969
   vertex -54.822521 -45.617939 347.139343
  endloop
 endfacet

 facet normal 0.999848 0.000001 0.017435
  outer loop
   vertex -54.822521 -45.617939 347.139343
   vertex -54.830997 -36.381161 347.624969
   vertex -54.832787 -36.386559 347.727570
  endloop
 endfacet

 facet normal 0.999848 0.000001 0.017435
  outer loop
   vertex -54.832787 -36.386559 347.727570
   vertex -54.824310 -45.623337 347.241943
   vertex -54.822521 -45.617939 347.139343
  endloop
 endfacet

 facet normal 0.927054 -0.018836 0.374454
  outer loop
   vertex -55.565399 -36.386559 347.714783
   vertex -55.556923 -45.623337 347.229156
   vertex -55.552780 -36.384907 347.683624
  endloop
 endfacet

 facet normal 0.927054 -0.018836 0.374454
  outer loop
   vertex -55.552780 -36.384907 347.683624
   vertex -55.556923 -45.623337 347.229156
   vertex -55.544304 -45.621685 347.197998
  endloop
 endfacet

 facet normal -0.017433 -0.052511 0.998468
  outer loop
   vertex -55.544304 -45.621685 347.197998
   vertex -54.969234 -45.621685 347.208038
   vertex -55.552780 -36.384907 347.683624
  endloop
 endfacet

 facet normal 0.579802 -0.042246 0.813661
  outer loop
   vertex -54.808926 -36.314671 346.360626
   vertex -54.919899 -36.318916 346.439484
   vertex -54.911423 -45.555695 345.953857
  endloop
 endfacet

 facet normal 0.999848 0.000000 0.017451
  outer loop
   vertex -54.911423 -45.555695 345.953857
   vertex -54.919899 -36.318916 346.439484
   vertex -54.939148 -36.376915 347.542328
  endloop
 endfacet

 facet normal 0.999848 0.000000 0.017451
  outer loop
   vertex -54.939148 -36.376915 347.542328
   vertex -54.930672 -45.613693 347.056702
   vertex -54.911423 -45.555695 345.953857
  endloop
 endfacet

 facet normal 0.607668 0.042253 -0.793066
  outer loop
   vertex -54.822521 -45.617939 347.139343
   vertex -54.930672 -45.613693 347.056702
   vertex -54.939148 -36.376915 347.542328
  endloop
 endfacet

 facet normal -0.017360 -0.052511 0.998469
  outer loop
   vertex -54.824310 -45.623337 347.241943
   vertex -54.832787 -36.386559 347.727570
   vertex -54.957706 -45.623337 347.239624
  endloop
 endfacet

 facet normal -0.017360 -0.052511 0.998469
  outer loop
   vertex -54.957706 -45.623337 347.239624
   vertex -54.832787 -36.386559 347.727570
   vertex -54.966183 -36.386559 347.725250
  endloop
 endfacet

 facet normal -0.939539 -0.018839 0.341924
  outer loop
   vertex -54.966183 -36.386559 347.725250
   vertex -54.969234 -45.621685 347.208038
   vertex -54.957706 -45.623337 347.239624
  endloop
 endfacet

 facet normal -0.939539 -0.018839 0.341924
  outer loop
   vertex -54.977711 -36.384907 347.693665
   vertex -54.969234 -45.621685 347.208038
   vertex -54.966183 -36.386559 347.725250
  endloop
 endfacet

 facet normal -0.017433 -0.052511 0.998468
  outer loop
   vertex -55.552780 -36.384907 347.683624
   vertex -54.969234 -45.621685 347.208038
   vertex -54.977711 -36.384907 347.693665
  endloop
 endfacet

 facet normal -0.000915 0.998620 0.052504
  outer loop
   vertex -54.788628 -35.770782 346.269623
   vertex -55.655247 -35.849857 347.758514
   vertex -54.814873 -35.849857 347.773163
  endloop
 endfacet

 facet normal -0.017404 -0.052498 0.998469
  outer loop
   vertex -54.814873 -35.849857 347.773163
   vertex -55.655247 -35.849857 347.758514
   vertex -54.813957 -36.848476 347.720673
  endloop
 endfacet

 facet normal 0.999848 -0.000001 0.017452
  outer loop
   vertex -54.813957 -36.848476 347.720673
   vertex -54.787712 -36.769405 346.217102
   vertex -54.814873 -35.849857 347.773163
  endloop
 endfacet

 facet normal 0.000917 -0.998620 -0.052500
  outer loop
   vertex -55.654327 -36.848476 347.705994
   vertex -54.787712 -36.769405 346.217102
   vertex -54.813957 -36.848476 347.720673
  endloop
 endfacet

 facet normal 0.000915 -0.998620 -0.052501
  outer loop
   vertex -55.628086 -36.769405 346.202454
   vertex -54.787712 -36.769405 346.217102
   vertex -55.654327 -36.848476 347.705994
  endloop
 endfacet

 facet normal -0.999848 -0.000003 -0.017450
  outer loop
   vertex -55.654327 -36.848476 347.705994
   vertex -55.655247 -35.849857 347.758514
   vertex -55.628086 -36.769405 346.202454
  endloop
 endfacet

 facet normal -0.999848 0.000001 -0.017452
  outer loop
   vertex -55.628086 -36.769405 346.202454
   vertex -55.655247 -35.849857 347.758514
   vertex -55.629002 -35.770782 346.254944
  endloop
 endfacet

 facet normal -0.000917 0.998620 0.052503
  outer loop
   vertex -55.629002 -35.770782 346.254944
   vertex -55.655247 -35.849857 347.758514
   vertex -54.788628 -35.770782 346.269623
  endloop
 endfacet

 facet normal 0.017440 0.052529 -0.998467
  outer loop
   vertex -54.788628 -35.770782 346.269623
   vertex -54.787712 -36.769405 346.217102
   vertex -55.629002 -35.770782 346.254944
  endloop
 endfacet

 facet normal 0.999848 -0.000001 0.017453
  outer loop
   vertex -54.814873 -35.849857 347.773163
   vertex -54.787712 -36.769405 346.217102
   vertex -54.788628 -35.770782 346.269623
  endloop
 endfacet

 facet normal -0.000917 0.998620 0.052500
  outer loop
   vertex -54.806324 -45.163204 347.283539
   vertex -54.780079 -45.084133 345.779968
   vertex -55.646698 -45.163204 347.268860
  endloop
 endfacet

 facet normal -0.000917 0.998620 0.052500
  outer loop
   vertex -55.646698 -45.163204 347.268860
   vertex -54.780079 -45.084133 345.779968
   vertex -55.620453 -45.084133 345.765289
  endloop
 endfacet

 facet normal -0.999848 0.000001 -0.017452
  outer loop
   vertex -55.620453 -45.084133 345.765289
   vertex -55.619537 -46.082752 345.712799
   vertex -55.646698 -45.163204 347.268860
  endloop
 endfacet

 facet normal 0.017440 0.052498 -0.998469
  outer loop
   vertex -54.780079 -45.084133 345.779968
   vertex -55.619537 -46.082752 345.712799
   vertex -55.620453 -45.084133 345.765289
  endloop
 endfacet

 facet normal 0.017440 0.052498 -0.998469
  outer loop
   vertex -54.779163 -46.082752 345.727478
   vertex -55.619537 -46.082752 345.712799
   vertex -54.780079 -45.084133 345.779968
  endloop
 endfacet

 facet normal 0.999848 -0.000001 0.017453
  outer loop
   vertex -54.780079 -45.084133 345.779968
   vertex -54.805408 -46.161827 347.231018
   vertex -54.779163 -46.082752 345.727478
  endloop
 endfacet

 facet normal 0.000917 -0.998620 -0.052504
  outer loop
   vertex -54.779163 -46.082752 345.727478
   vertex -54.805408 -46.161827 347.231018
   vertex -55.619537 -46.082752 345.712799
  endloop
 endfacet

 facet normal 0.000915 -0.998620 -0.052503
  outer loop
   vertex -55.619537 -46.082752 345.712799
   vertex -54.805408 -46.161827 347.231018
   vertex -55.645782 -46.161827 347.216370
  endloop
 endfacet

 facet normal -0.999848 0.000001 -0.017452
  outer loop
   vertex -55.645782 -46.161827 347.216370
   vertex -55.646698 -45.163204 347.268860
   vertex -55.619537 -46.082752 345.712799
  endloop
 endfacet

 facet normal -0.017404 -0.052498 0.998469
  outer loop
   vertex -54.805408 -46.161827 347.231018
   vertex -55.646698 -45.163204 347.268860
   vertex -55.645782 -46.161827 347.216370
  endloop
 endfacet

 facet normal -0.017440 -0.052529 0.998467
  outer loop
   vertex -54.806324 -45.163204 347.283539
   vertex -55.646698 -45.163204 347.268860
   vertex -54.805408 -46.161827 347.231018
  endloop
 endfacet

 facet normal 0.999848 -0.000001 0.017452
  outer loop
   vertex -54.805408 -46.161827 347.231018
   vertex -54.780079 -45.084133 345.779968
   vertex -54.806324 -45.163204 347.283539
  endloop
 endfacet

 facet normal 0.999848 0.000001 0.017435
  outer loop
   vertex -54.800449 -45.551449 345.875031
   vertex -54.798660 -45.546051 345.772430
   vertex -54.807137 -36.309273 346.258026
  endloop
 endfacet

 facet normal 0.017589 0.052507 -0.998466
  outer loop
   vertex -54.807137 -36.309273 346.258026
   vertex -54.798660 -45.546051 345.772430
   vertex -54.932056 -45.546051 345.770081
  endloop
 endfacet

 facet normal 0.017360 0.052511 -0.998469
  outer loop
   vertex -54.932056 -45.546051 345.770081
   vertex -54.940533 -36.309273 346.255707
   vertex -54.807137 -36.309273 346.258026
  endloop
 endfacet

 facet normal -0.927015 0.018841 -0.374551
  outer loop
   vertex -54.944679 -45.547703 345.801239
   vertex -54.940533 -36.309273 346.255707
   vertex -54.932056 -45.546051 345.770081
  endloop
 endfacet

 facet normal -0.927015 0.018841 -0.374551
  outer loop
   vertex -54.953156 -36.310925 346.286865
   vertex -54.940533 -36.309273 346.255707
   vertex -54.944679 -45.547703 345.801239
  endloop
 endfacet

 facet normal 0.017380 0.052511 -0.998469
  outer loop
   vertex -54.944679 -45.547703 345.801239
   vertex -55.519749 -45.547703 345.791229
   vertex -54.953156 -36.310925 346.286865
  endloop
 endfacet

 facet normal 0.017433 0.052507 -0.998468
  outer loop
   vertex -54.953156 -36.310925 346.286865
   vertex -55.519749 -45.547703 345.791229
   vertex -55.528225 -36.310925 346.276825
  endloop
 endfacet

 facet normal 0.939575 0.018833 -0.341824
  outer loop
   vertex -55.528225 -36.310925 346.276825
   vertex -55.519749 -45.547703 345.791229
   vertex -55.531273 -45.546051 345.759644
  endloop
 endfacet

 facet normal 0.939575 0.018833 -0.341824
  outer loop
   vertex -55.531273 -45.546051 345.759644
   vertex -55.539749 -36.309273 346.245239
   vertex -55.528225 -36.310925 346.276825
  endloop
 endfacet

 facet normal 0.017494 0.052507 -0.998467
  outer loop
   vertex -55.597462 -45.546051 345.758484
   vertex -55.539749 -36.309273 346.245239
   vertex -55.531273 -45.546051 345.759644
  endloop
 endfacet

 facet normal 0.017033 0.052511 -0.998475
  outer loop
   vertex -55.605942 -36.309273 346.244110
   vertex -55.539749 -36.309273 346.245239
   vertex -55.597462 -45.546051 345.758484
  endloop
 endfacet

 facet normal -0.999848 -0.000000 -0.017455
  outer loop
   vertex -55.597462 -45.546051 345.758484
   vertex -55.623116 -45.623337 347.227997
   vertex -55.605942 -36.309273 346.244110
  endloop
 endfacet

 facet normal -0.999848 0.000000 -0.017452
  outer loop
   vertex -55.605942 -36.309273 346.244110
   vertex -55.623116 -45.623337 347.227997
   vertex -55.631592 -36.386559 347.713623
  endloop
 endfacet

 facet normal -0.017493 -0.052511 0.998467
  outer loop
   vertex -55.631592 -36.386559 347.713623
   vertex -55.623116 -45.623337 347.227997
   vertex -55.565399 -36.386559 347.714783
  endloop
 endfacet

 facet normal -0.017440 -0.052529 0.998467
  outer loop
   vertex -55.654327 -36.848476 347.705994
   vertex -54.813957 -36.848476 347.720673
   vertex -55.655247 -35.849857 347.758514
  endloop
 endfacet

 facet normal 0.017404 0.052498 -0.998469
  outer loop
   vertex -54.787712 -36.769405 346.217102
   vertex -55.628086 -36.769405 346.202454
   vertex -55.629002 -35.770782 346.254944
  endloop
 endfacet

 facet normal -0.017493 -0.052511 0.998467
  outer loop
   vertex -55.623116 -45.623337 347.227997
   vertex -55.556923 -45.623337 347.229156
   vertex -55.565399 -36.386559 347.714783
  endloop
 endfacet

 facet normal 0.007518 -0.902509 -0.430605
  outer loop
   vertex -57.572433 -46.633476 346.403839
   vertex -58.572281 -46.633476 346.386383
   vertex -57.560379 -46.303856 345.713196
  endloop
 endfacet

 facet normal 0.007518 -0.902509 -0.430605
  outer loop
   vertex -57.560379 -46.303856 345.713196
   vertex -58.572281 -46.633476 346.386383
   vertex -58.560226 -46.303856 345.695740
  endloop
 endfacet

 facet normal 0.016456 -0.333666 -0.942548
  outer loop
   vertex -58.560226 -46.303856 345.695740
   vertex -57.555923 -45.582344 345.457855
   vertex -57.560379 -46.303856 345.713196
  endloop
 endfacet

 facet normal 0.016427 -0.333631 -0.942561
  outer loop
   vertex -58.555771 -45.582344 345.440430
   vertex -57.555923 -45.582344 345.457855
   vertex -58.560226 -46.303856 345.695740
  endloop
 endfacet

 facet normal 0.015727 0.430691 -0.902362
  outer loop
   vertex -57.561676 -44.891594 345.787445
   vertex -57.555923 -45.582344 345.457855
   vertex -58.555771 -45.582344 345.440430
  endloop
 endfacet

 facet normal 0.015754 0.430659 -0.902377
  outer loop
   vertex -58.555771 -45.582344 345.440430
   vertex -58.561523 -44.891594 345.769989
   vertex -57.561676 -44.891594 345.787445
  endloop
 endfacet

 facet normal 0.005824 0.942700 -0.333591
  outer loop
   vertex -57.561676 -44.891594 345.787445
   vertex -58.561523 -44.891594 345.769989
   vertex -57.574268 -44.636234 346.508850
  endloop
 endfacet

 facet normal 0.005824 0.942700 -0.333591
  outer loop
   vertex -57.574268 -44.636234 346.508850
   vertex -58.561523 -44.891594 345.769989
   vertex -58.574116 -44.636234 346.491394
  endloop
 endfacet

 facet normal -0.007518 0.902509 0.430605
  outer loop
   vertex -58.574116 -44.636234 346.491394
   vertex -57.586323 -44.965855 347.199493
   vertex -57.574268 -44.636234 346.508850
  endloop
 endfacet

 facet normal -0.007518 0.902509 0.430605
  outer loop
   vertex -58.586170 -44.965855 347.182037
   vertex -57.586323 -44.965855 347.199493
   vertex -58.574116 -44.636234 346.491394
  endloop
 endfacet

 facet normal -0.016456 0.333631 0.942560
  outer loop
   vertex -57.590778 -45.687366 347.454803
   vertex -57.586323 -44.965855 347.199493
   vertex -58.586170 -44.965855 347.182037
  endloop
 endfacet

 facet normal -0.016456 0.333631 0.942560
  outer loop
   vertex -58.586170 -44.965855 347.182037
   vertex -58.590626 -45.687366 347.437347
   vertex -57.590778 -45.687366 347.454803
  endloop
 endfacet

 facet normal -0.015754 -0.430659 0.902377
  outer loop
   vertex -57.590778 -45.687366 347.454803
   vertex -58.590626 -45.687366 347.437347
   vertex -57.585026 -46.378117 347.125244
  endloop
 endfacet

 facet normal -0.015754 -0.430659 0.902377
  outer loop
   vertex -57.585026 -46.378117 347.125244
   vertex -58.590626 -45.687366 347.437347
   vertex -58.584873 -46.378117 347.107788
  endloop
 endfacet

 facet normal -0.005824 -0.942700 0.333591
  outer loop
   vertex -58.584873 -46.378117 347.107788
   vertex -57.572433 -46.633476 346.403839
   vertex -57.585026 -46.378117 347.125244
  endloop
 endfacet

 facet normal -0.005824 -0.942700 0.333591
  outer loop
   vertex -58.572281 -46.633476 346.386383
   vertex -57.572433 -46.633476 346.403839
   vertex -58.584873 -46.378117 347.107788
  endloop
 endfacet

 facet normal -0.007518 0.902516 0.430590
  outer loop
   vertex -56.595352 -36.130505 347.150299
   vertex -55.592491 -36.048100 346.995087
   vertex -56.592339 -36.048100 346.977631
  endloop
 endfacet

 facet normal 0.005824 0.942706 -0.333574
  outer loop
   vertex -56.592339 -36.048100 346.977631
   vertex -55.592491 -36.048100 346.995087
   vertex -55.589340 -36.111938 346.814728
  endloop
 endfacet

 facet normal 0.005824 0.942706 -0.333574
  outer loop
   vertex -55.589340 -36.111938 346.814728
   vertex -56.589188 -36.111938 346.797272
   vertex -56.592339 -36.048100 346.977631
  endloop
 endfacet

 facet normal 0.015754 0.430691 -0.902362
  outer loop
   vertex -55.587902 -36.284626 346.732330
   vertex -56.589188 -36.111938 346.797272
   vertex -55.589340 -36.111938 346.814728
  endloop
 endfacet

 facet normal 0.015728 0.430561 -0.902424
  outer loop
   vertex -56.587749 -36.284626 346.714905
   vertex -56.589188 -36.111938 346.797272
   vertex -55.587902 -36.284626 346.732330
  endloop
 endfacet

 facet normal 0.016427 -0.333701 -0.942536
  outer loop
   vertex -55.587902 -36.284626 346.732330
   vertex -55.589016 -36.465004 346.796173
   vertex -56.587749 -36.284626 346.714905
  endloop
 endfacet

 facet normal 0.016456 -0.333560 -0.942585
  outer loop
   vertex -56.587749 -36.284626 346.714905
   vertex -55.589016 -36.465004 346.796173
   vertex -56.588863 -36.465004 346.778717
  endloop
 endfacet

 facet normal 0.007518 -0.902516 -0.430590
  outer loop
   vertex -56.588863 -36.465004 346.778717
   vertex -55.589016 -36.465004 346.796173
   vertex -55.592030 -36.547409 346.968842
  endloop
 endfacet

 facet normal 0.007518 -0.902516 -0.430590
  outer loop
   vertex -55.592030 -36.547409 346.968842
   vertex -56.591881 -36.547409 346.951385
   vertex -56.588863 -36.465004 346.778717
  endloop
 endfacet

 facet normal -0.005824 -0.942706 0.333574
  outer loop
   vertex -55.595181 -36.483570 347.149200
   vertex -56.591881 -36.547409 346.951385
   vertex -55.592030 -36.547409 346.968842
  endloop
 endfacet

 facet normal -0.005824 -0.942706 0.333574
  outer loop
   vertex -56.595028 -36.483570 347.131744
   vertex -56.591881 -36.547409 346.951385
   vertex -55.595181 -36.483570 347.149200
  endloop
 endfacet

 facet normal -0.015755 -0.430561 0.902424
  outer loop
   vertex -55.595181 -36.483570 347.149200
   vertex -55.596619 -36.310883 347.231567
   vertex -56.595028 -36.483570 347.131744
  endloop
 endfacet

 facet normal -0.015727 -0.430691 0.902362
  outer loop
   vertex -56.595028 -36.483570 347.131744
   vertex -55.596619 -36.310883 347.231567
   vertex -56.596466 -36.310883 347.214142
  endloop
 endfacet

 facet normal -0.016428 0.333560 0.942586
  outer loop
   vertex -56.596466 -36.310883 347.214142
   vertex -55.596619 -36.310883 347.231567
   vertex -55.595505 -36.130505 347.167755
  endloop
 endfacet

 facet normal -0.016455 0.333701 0.942535
  outer loop
   vertex -55.595505 -36.130505 347.167755
   vertex -56.595352 -36.130505 347.150299
   vertex -56.596466 -36.310883 347.214142
  endloop
 endfacet

 facet normal -0.007518 0.902516 0.430590
  outer loop
   vertex -55.592491 -36.048100 346.995087
   vertex -56.595352 -36.130505 347.150299
   vertex -55.595505 -36.130505 347.167755
  endloop
 endfacet

 facet normal -0.007518 0.902516 0.430590
  outer loop
   vertex -58.594738 -35.628754 347.672943
   vertex -57.582836 -35.299133 346.999725
   vertex -58.582684 -35.299133 346.982269
  endloop
 endfacet

 facet normal 0.005824 0.942700 -0.333591
  outer loop
   vertex -58.582684 -35.299133 346.982269
   vertex -57.582836 -35.299133 346.999725
   vertex -57.570244 -35.554493 346.278320
  endloop
 endfacet

 facet normal 0.005814 0.942695 -0.333604
  outer loop
   vertex -57.570244 -35.554493 346.278320
   vertex -58.570091 -35.554493 346.260895
   vertex -58.582684 -35.299133 346.982269
  endloop
 endfacet

 facet normal 0.015727 0.430659 -0.902378
  outer loop
   vertex -57.564491 -36.245243 345.948761
   vertex -58.570091 -35.554493 346.260895
   vertex -57.570244 -35.554493 346.278320
  endloop
 endfacet

 facet normal 0.015754 0.430691 -0.902362
  outer loop
   vertex -58.564339 -36.245243 345.931305
   vertex -58.570091 -35.554493 346.260895
   vertex -57.564491 -36.245243 345.948761
  endloop
 endfacet

 facet normal 0.016456 -0.333631 -0.942560
  outer loop
   vertex -57.564491 -36.245243 345.948761
   vertex -57.568947 -36.966755 346.204071
   vertex -58.564339 -36.245243 345.931305
  endloop
 endfacet

 facet normal 0.016427 -0.333666 -0.942548
  outer loop
   vertex -58.564339 -36.245243 345.931305
   vertex -57.568947 -36.966755 346.204071
   vertex -58.568794 -36.966755 346.186646
  endloop
 endfacet

 facet normal 0.007504 -0.902516 -0.430590
  outer loop
   vertex -58.568794 -36.966755 346.186646
   vertex -57.568947 -36.966755 346.204071
   vertex -57.581001 -37.296375 346.894745
  endloop
 endfacet

 facet normal 0.007518 -0.902509 -0.430605
  outer loop
   vertex -57.581001 -37.296375 346.894745
   vertex -58.580853 -37.296375 346.877289
   vertex -58.568794 -36.966755 346.186646
  endloop
 endfacet

 facet normal -0.005824 -0.942695 0.333603
  outer loop
   vertex -57.593594 -37.041016 347.616119
   vertex -58.580853 -37.296375 346.877289
   vertex -57.581001 -37.296375 346.894745
  endloop
 endfacet

 facet normal -0.005814 -0.942700 0.333591
  outer loop
   vertex -58.593441 -37.041016 347.598694
   vertex -58.580853 -37.296375 346.877289
   vertex -57.593594 -37.041016 347.616119
  endloop
 endfacet

 facet normal -0.015727 -0.430691 0.902362
  outer loop
   vertex -57.593594 -37.041016 347.616119
   vertex -57.599346 -36.350266 347.945709
   vertex -58.593441 -37.041016 347.598694
  endloop
 endfacet

 facet normal -0.015754 -0.430659 0.902377
  outer loop
   vertex -58.593441 -37.041016 347.598694
   vertex -57.599346 -36.350266 347.945709
   vertex -58.599194 -36.350266 347.928253
  endloop
 endfacet

 facet normal -0.016456 0.333666 0.942548
  outer loop
   vertex -58.599194 -36.350266 347.928253
   vertex -57.599346 -36.350266 347.945709
   vertex -57.594891 -35.628754 347.690369
  endloop
 endfacet

 facet normal -0.016427 0.333631 0.942561
  outer loop
   vertex -57.594891 -35.628754 347.690369
   vertex -58.594738 -35.628754 347.672943
   vertex -58.599194 -36.350266 347.928253
  endloop
 endfacet

 facet normal -0.007505 0.902509 0.430606
  outer loop
   vertex -57.582836 -35.299133 346.999725
   vertex -58.594738 -35.628754 347.672943
   vertex -57.594891 -35.628754 347.690369
  endloop
 endfacet

 facet normal 0.563277 0.741829 0.363881
  outer loop
   vertex -57.594891 -35.628754 347.690369
   vertex -56.582302 -36.048100 346.977814
   vertex -57.582836 -35.299133 346.999725
  endloop
 endfacet

 facet normal 0.574251 0.774865 -0.264235
  outer loop
   vertex -57.582836 -35.299133 346.999725
   vertex -56.582302 -36.048100 346.977814
   vertex -56.579151 -36.111938 346.797455
  endloop
 endfacet

 facet normal 0.574244 0.774862 -0.264259
  outer loop
   vertex -56.579151 -36.111938 346.797455
   vertex -57.570244 -35.554493 346.278320
   vertex -57.582836 -35.299133 346.999725
  endloop
 endfacet

 facet normal 0.582411 0.354009 -0.731762
  outer loop
   vertex -56.577713 -36.284626 346.715057
   vertex -57.570244 -35.554493 346.278320
   vertex -56.579151 -36.111938 346.797455
  endloop
 endfacet

 facet normal 0.582402 0.353985 -0.731780
  outer loop
   vertex -57.564491 -36.245243 345.948761
   vertex -57.570244 -35.554493 346.278320
   vertex -56.577713 -36.284626 346.715057
  endloop
 endfacet

 facet normal 0.582964 -0.274303 -0.764795
  outer loop
   vertex -56.577713 -36.284626 346.715057
   vertex -56.578831 -36.465004 346.778900
   vertex -57.564491 -36.245243 345.948761
  endloop
 endfacet

 facet normal 0.582988 -0.274229 -0.764803
  outer loop
   vertex -57.564491 -36.245243 345.948761
   vertex -56.578831 -36.465004 346.778900
   vertex -57.568947 -36.966755 346.204071
  endloop
 endfacet

 facet normal 0.575638 -0.741831 -0.343988
  outer loop
   vertex -57.568947 -36.966755 346.204071
   vertex -56.578831 -36.465004 346.778900
   vertex -56.581844 -36.547409 346.951569
  endloop
 endfacet

 facet normal 0.575638 -0.741831 -0.343988
  outer loop
   vertex -56.581844 -36.547409 346.951569
   vertex -57.581001 -37.296375 346.894745
   vertex -57.568947 -36.966755 346.204071
  endloop
 endfacet

 facet normal 0.564669 -0.774855 0.284165
  outer loop
   vertex -56.584991 -36.483570 347.131897
   vertex -57.581001 -37.296375 346.894745
   vertex -56.581844 -36.547409 346.951569
  endloop
 endfacet

 facet normal 0.564674 -0.774857 0.284149
  outer loop
   vertex -57.593594 -37.041016 347.616119
   vertex -57.581001 -37.296375 346.894745
   vertex -56.584991 -36.483570 347.131897
  endloop
 endfacet

 facet normal 0.556516 -0.354010 0.751643
  outer loop
   vertex -56.584991 -36.483570 347.131897
   vertex -56.586430 -36.310883 347.214294
   vertex -57.593594 -37.041016 347.616119
  endloop
 endfacet

 facet normal 0.556516 -0.354010 0.751643
  outer loop
   vertex -57.593594 -37.041016 347.616119
   vertex -56.586430 -36.310883 347.214294
   vertex -57.599346 -36.350266 347.945709
  endloop
 endfacet

 facet normal 0.555958 0.274167 0.784693
  outer loop
   vertex -57.599346 -36.350266 347.945709
   vertex -56.586430 -36.310883 347.214294
   vertex -56.585316 -36.130505 347.150482
  endloop
 endfacet

 facet normal 0.555927 0.274263 0.784681
  outer loop
   vertex -56.585316 -36.130505 347.150482
   vertex -57.594891 -35.628754 347.690369
   vertex -57.599346 -36.350266 347.945709
  endloop
 endfacet

 facet normal 0.563273 0.741838 0.363869
  outer loop
   vertex -56.582302 -36.048100 346.977814
   vertex -57.594891 -35.628754 347.690369
   vertex -56.585316 -36.130505 347.150482
  endloop
 endfacet

 facet normal 0.007518 -0.902516 -0.430590
  outer loop
   vertex -55.583462 -45.884510 346.477936
   vertex -56.583309 -45.884510 346.460480
   vertex -55.580448 -45.802105 346.305267
  endloop
 endfacet

 facet normal 0.007518 -0.902516 -0.430590
  outer loop
   vertex -55.580448 -45.802105 346.305267
   vertex -56.583309 -45.884510 346.460480
   vertex -56.580296 -45.802105 346.287811
  endloop
 endfacet

 facet normal 0.016456 -0.333560 -0.942585
  outer loop
   vertex -56.580296 -45.802105 346.287811
   vertex -55.579334 -45.621727 346.241455
   vertex -55.580448 -45.802105 346.305267
  endloop
 endfacet

 facet normal 0.016456 -0.333560 -0.942585
  outer loop
   vertex -56.579182 -45.621727 346.223999
   vertex -55.579334 -45.621727 346.241455
   vertex -56.580296 -45.802105 346.287811
  endloop
 endfacet

 facet normal 0.015754 0.430691 -0.902362
  outer loop
   vertex -55.580772 -45.449039 346.323853
   vertex -55.579334 -45.621727 346.241455
   vertex -56.579182 -45.621727 346.223999
  endloop
 endfacet

 facet normal 0.015754 0.430691 -0.902362
  outer loop
   vertex -56.579182 -45.621727 346.223999
   vertex -56.580620 -45.449039 346.306396
   vertex -55.580772 -45.449039 346.323853
  endloop
 endfacet

 facet normal 0.005825 0.942688 -0.333624
  outer loop
   vertex -55.580772 -45.449039 346.323853
   vertex -56.580620 -45.449039 346.306396
   vertex -55.583920 -45.385201 346.504181
  endloop
 endfacet

 facet normal 0.005825 0.942688 -0.333624
  outer loop
   vertex -55.583920 -45.385201 346.504181
   vertex -56.580620 -45.449039 346.306396
   vertex -56.583767 -45.385201 346.486725
  endloop
 endfacet

 facet normal -0.007518 0.902516 0.430590
  outer loop
   vertex -56.583767 -45.385201 346.486725
   vertex -55.586933 -45.467606 346.676849
   vertex -55.583920 -45.385201 346.504181
  endloop
 endfacet

 facet normal -0.007518 0.902516 0.430590
  outer loop
   vertex -56.586781 -45.467606 346.659393
   vertex -55.586933 -45.467606 346.676849
   vertex -56.583767 -45.385201 346.486725
  endloop
 endfacet

 facet normal -0.016455 0.333701 0.942535
  outer loop
   vertex -55.588047 -45.647984 346.740692
   vertex -55.586933 -45.467606 346.676849
   vertex -56.586781 -45.467606 346.659393
  endloop
 endfacet

 facet normal -0.016455 0.333702 0.942535
  outer loop
   vertex -56.586781 -45.467606 346.659393
   vertex -56.587898 -45.647984 346.723236
   vertex -55.588047 -45.647984 346.740692
  endloop
 endfacet

 facet normal -0.015754 -0.430691 0.902362
  outer loop
   vertex -55.588047 -45.647984 346.740692
   vertex -56.587898 -45.647984 346.723236
   vertex -55.586609 -45.820671 346.658295
  endloop
 endfacet

 facet normal -0.015754 -0.430691 0.902362
  outer loop
   vertex -55.586609 -45.820671 346.658295
   vertex -56.587898 -45.647984 346.723236
   vertex -56.586460 -45.820671 346.640839
  endloop
 endfacet

 facet normal -0.005824 -0.942706 0.333574
  outer loop
   vertex -56.586460 -45.820671 346.640839
   vertex -55.583462 -45.884510 346.477936
   vertex -55.586609 -45.820671 346.658295
  endloop
 endfacet

 facet normal -0.005824 -0.942706 0.333574
  outer loop
   vertex -56.583309 -45.884510 346.460480
   vertex -55.583462 -45.884510 346.477936
   vertex -56.586460 -45.820671 346.640839
  endloop
 endfacet

 facet normal 0.564671 -0.774865 0.284132
  outer loop
   vertex -56.576424 -45.820671 346.641022
   vertex -57.585026 -46.378117 347.125244
   vertex -56.573273 -45.884510 346.460663
  endloop
 endfacet

 facet normal 0.564673 -0.774861 0.284138
  outer loop
   vertex -56.573273 -45.884510 346.460663
   vertex -57.585026 -46.378117 347.125244
   vertex -57.572433 -46.633476 346.403839
  endloop
 endfacet

 facet normal 0.575637 -0.741832 -0.343989
  outer loop
   vertex -57.572433 -46.633476 346.403839
   vertex -56.570259 -45.802105 346.287994
   vertex -56.573273 -45.884510 346.460663
  endloop
 endfacet

 facet normal 0.575633 -0.741829 -0.344002
  outer loop
   vertex -57.560379 -46.303856 345.713196
   vertex -56.570259 -45.802105 346.287994
   vertex -57.572433 -46.633476 346.403839
  endloop
 endfacet

 facet normal 0.582959 -0.274178 -0.764843
  outer loop
   vertex -56.569145 -45.621727 346.224182
   vertex -56.570259 -45.802105 346.287994
   vertex -57.560379 -46.303856 345.713196
  endloop
 endfacet

 facet normal 0.582988 -0.274258 -0.764793
  outer loop
   vertex -57.560379 -46.303856 345.713196
   vertex -57.555923 -45.582344 345.457855
   vertex -56.569145 -45.621727 346.224182
  endloop
 endfacet

 facet normal 0.582434 0.353897 -0.731797
  outer loop
   vertex -56.569145 -45.621727 346.224182
   vertex -57.555923 -45.582344 345.457855
   vertex -56.570583 -45.449039 346.306549
  endloop
 endfacet

 facet normal 0.582396 0.354013 -0.731771
  outer loop
   vertex -56.570583 -45.449039 346.306549
   vertex -57.555923 -45.582344 345.457855
   vertex -57.561676 -44.891594 345.787445
  endloop
 endfacet

 facet normal 0.574236 0.774871 -0.264250
  outer loop
   vertex -57.561676 -44.891594 345.787445
   vertex -56.573730 -45.385201 346.486908
   vertex -56.570583 -45.449039 346.306549
  endloop
 endfacet

 facet normal 0.574240 0.774865 -0.264260
  outer loop
   vertex -57.574268 -44.636234 346.508850
   vertex -56.573730 -45.385201 346.486908
   vertex -57.561676 -44.891594 345.787445
  endloop
 endfacet

 facet normal 0.563284 0.741826 0.363876
  outer loop
   vertex -56.576748 -45.467606 346.659576
   vertex -56.573730 -45.385201 346.486908
   vertex -57.574268 -44.636234 346.508850
  endloop
 endfacet

 facet normal 0.563283 0.741825 0.363879
  outer loop
   vertex -57.574268 -44.636234 346.508850
   vertex -57.586323 -44.965855 347.199493
   vertex -56.576748 -45.467606 346.659576
  endloop
 endfacet

 facet normal 0.555950 0.274287 0.784657
  outer loop
   vertex -56.576748 -45.467606 346.659576
   vertex -57.586323 -44.965855 347.199493
   vertex -56.577862 -45.647984 346.723419
  endloop
 endfacet

 facet normal 0.555929 0.274233 0.784690
  outer loop
   vertex -56.577862 -45.647984 346.723419
   vertex -57.586323 -44.965855 347.199493
   vertex -57.590778 -45.687366 347.454803
  endloop
 endfacet

 facet normal 0.556501 -0.354015 0.751652
  outer loop
   vertex -57.590778 -45.687366 347.454803
   vertex -56.576424 -45.820671 346.641022
   vertex -56.577862 -45.647984 346.723419
  endloop
 endfacet

 facet normal 0.556510 -0.353985 0.751659
  outer loop
   vertex -57.585026 -46.378117 347.125244
   vertex -56.576424 -45.820671 346.641022
   vertex -57.590778 -45.687366 347.454803
  endloop
 endfacet

endsolid