solid stl file generated from DOUG
 facet normal 0.321561 0.572203 0.754442
  outer loop
   vertex 21.313910 -155.060135 361.828186
   vertex 20.281521 -155.171799 362.352905
   vertex 21.340048 -155.146164 361.882294
  endloop
 facet normal 0.406752 -0.047429 0.912307
  outer loop
   vertex 21.340048 -155.146164 361.882294
   vertex 20.281521 -155.171799 362.352905
   vertex 20.282290 -156.012268 362.308868
  endloop
 facet normal -0.913526 -0.022117 0.406180
  outer loop
   vertex 43.314957 -156.400146 350.201294
   vertex 43.451790 -158.241394 350.408783
   vertex 43.450119 -156.415909 350.504425
  endloop
 facet normal 0.406706 -0.047427 0.912327
  outer loop
   vertex 43.450119 -156.415909 350.504425
   vertex 43.451790 -158.241394 350.408783
   vertex 43.709106 -156.338303 350.393005
  endloop
 facet normal 0.406803 -0.047425 0.912284
  outer loop
   vertex 18.318483 -156.953049 361.681671
   vertex 18.579269 -158.843597 361.467102
   vertex 18.577600 -157.018112 361.562744
  endloop
 facet normal 0.913539 0.022115 -0.406150
  outer loop
   vertex 18.577600 -157.018112 361.562744
   vertex 18.579269 -158.843597 361.467102
   vertex 18.442436 -157.002350 361.259583
  endloop
 facet normal -0.000894 0.998627 0.052372
  outer loop
   vertex 20.119492 -155.059204 360.659119
   vertex 20.164076 -155.064407 360.759094
   vertex 41.713299 -154.542664 351.178345
  endloop
 facet normal 0.326751 0.554783 0.765147
  outer loop
   vertex 41.713299 -154.542664 351.178345
   vertex 20.164076 -155.064407 360.759094
   vertex 41.748497 -154.663483 351.250916
  endloop
 facet normal 0.406752 -0.047428 0.912307
  outer loop
   vertex 42.822548 -155.466537 352.287476
   vertex 41.763252 -154.651688 352.802124
   vertex 41.764023 -155.492157 352.758087
  endloop
 facet normal -0.913535 -0.022118 0.406158
  outer loop
   vertex 41.764023 -155.492157 352.758087
   vertex 41.763252 -154.651688 352.802124
   vertex 41.666561 -154.655975 352.584412
  endloop
 facet normal 0.145018 0.915195 0.376015
  outer loop
   vertex 20.758808 -155.914215 362.050507
   vertex 42.308033 -155.392471 352.469727
   vertex 20.745161 -155.899765 362.020599
  endloop
 facet normal 0.145021 0.915192 0.376022
  outer loop
   vertex 20.745161 -155.899765 362.020599
   vertex 42.308033 -155.392471 352.469727
   vertex 42.294388 -155.378021 352.439819
  endloop
 facet normal 0.406758 -0.047431 0.912304
  outer loop
   vertex 42.294388 -155.378021 352.439819
   vertex 42.293827 -154.765320 352.471924
   vertex 20.745161 -155.899765 362.020599
  endloop
 facet normal 0.406761 -0.047426 0.912303
  outer loop
   vertex 18.987869 -159.930664 361.228394
   vertex 18.322226 -161.043732 361.467316
   vertex 20.154297 -160.999374 360.652771
  endloop
 facet normal 0.000913 -0.998629 -0.052329
  outer loop
   vertex 20.154297 -160.999374 360.652771
   vertex 18.322226 -161.043732 361.467316
   vertex 20.019133 -160.983612 360.349609
  endloop
 facet normal 0.913539 0.022119 -0.406150
  outer loop
   vertex 20.019133 -160.983612 360.349609
   vertex 20.015148 -156.627579 360.577881
   vertex 20.154297 -160.999374 360.652771
  endloop
 facet normal -0.000912 0.998630 0.052313
  outer loop
   vertex 19.695721 -155.020493 361.043549
   vertex 20.689589 -154.987335 360.427917
   vertex 19.631060 -155.012955 360.898529
  endloop
 facet normal -0.322681 0.647309 -0.690556
  outer loop
   vertex 19.631060 -155.012955 360.898529
   vertex 20.689589 -154.987335 360.427917
   vertex 20.663601 -155.067291 360.365112
  endloop
 facet normal -0.322681 0.647309 -0.690556
  outer loop
   vertex 20.663601 -155.067291 360.365112
   vertex 19.605072 -155.092911 360.835724
   vertex 19.631060 -155.012955 360.898529
  endloop
 facet normal 0.000913 -0.998629 -0.052329
  outer loop
   vertex 41.880775 -160.473343 350.993195
   vertex 41.745609 -160.457581 350.690033
   vertex 43.712849 -160.428986 350.178650
  endloop
 facet normal 0.000913 -0.998629 -0.052329
  outer loop
   vertex 43.712849 -160.428986 350.178650
   vertex 41.745609 -160.457581 350.690033
   vertex 43.577682 -160.413223 349.875488
  endloop
 facet normal 0.913537 0.022119 -0.406155
  outer loop
   vertex 43.577682 -160.413223 349.875488
   vertex 43.573940 -156.322540 350.089844
   vertex 43.712849 -160.428986 350.178650
  endloop
 facet normal -0.000908 0.998629 0.052332
  outer loop
   vertex 18.380077 -156.667160 361.304840
   vertex 18.515242 -156.682922 361.607971
   vertex 20.150312 -156.643341 360.881042
  endloop
 facet normal 0.406747 -0.047445 0.912308
  outer loop
   vertex 20.150312 -156.643341 360.881042
   vertex 18.515242 -156.682922 361.607971
   vertex 19.651844 -156.992111 361.085144
  endloop
 facet normal 0.406737 -0.047427 0.912313
  outer loop
   vertex 19.651844 -156.992111 361.085144
   vertex 19.653513 -158.817596 360.989502
   vertex 20.150312 -156.643341 360.881042
  endloop
 facet normal -0.327800 0.631231 -0.702918
  outer loop
   vertex 20.678526 -155.241104 361.906586
   vertex 20.713509 -155.128464 361.991425
   vertex 42.262733 -154.606735 352.410645
  endloop
 facet normal -0.000893 0.998627 0.052372
  outer loop
   vertex 42.262733 -154.606735 352.410645
   vertex 20.713509 -155.128464 361.991425
   vertex 20.758095 -155.133667 362.091400
  endloop
 facet normal -0.000950 0.998634 0.052245
  outer loop
   vertex 20.758095 -155.133667 362.091400
   vertex 42.307320 -154.611923 352.510620
   vertex 42.262733 -154.606735 352.410645
  endloop
 facet normal 0.406725 -0.047443 0.912318
  outer loop
   vertex 42.377544 -158.267410 350.886383
   vertex 42.375877 -156.441925 350.982056
   vertex 41.876793 -156.117310 351.221436
  endloop
 facet normal 0.406748 -0.047400 0.912310
  outer loop
   vertex 41.876793 -156.117310 351.221436
   vertex 42.375877 -156.441925 350.982056
   vertex 43.511860 -156.077713 350.494507
  endloop
 facet normal -0.000918 0.998629 0.052331
  outer loop
   vertex 43.511860 -156.077713 350.494507
   vertex 43.376698 -156.061951 350.191345
   vertex 41.876793 -156.117310 351.221436
  endloop
 facet normal -0.322691 0.647304 -0.690557
  outer loop
   vertex 42.145332 -154.547180 350.814331
   vertex 41.086803 -154.572815 351.284943
   vertex 42.171318 -154.467224 350.877136
  endloop
 facet normal -0.322704 0.647241 -0.690609
  outer loop
   vertex 42.171318 -154.467224 350.877136
   vertex 41.086803 -154.572815 351.284943
   vertex 41.112793 -154.492844 351.347748
  endloop
 facet normal -0.000912 0.998630 0.052313
  outer loop
   vertex 41.112793 -154.492844 351.347748
   vertex 42.235981 -154.474762 351.022156
   vertex 42.171318 -154.467224 350.877136
  endloop
 facet normal -0.913534 -0.022116 0.406161
  outer loop
   vertex 41.672455 -154.558105 352.602997
   vertex 41.666561 -154.655975 352.584412
   vertex 41.737114 -154.565659 352.748016
  endloop
 facet normal -0.913535 -0.022109 0.406158
  outer loop
   vertex 41.737114 -154.565659 352.748016
   vertex 41.666561 -154.655975 352.584412
   vertex 41.763252 -154.651688 352.802124
  endloop
 facet normal 0.321567 0.572204 0.754439
  outer loop
   vertex 41.763252 -154.651688 352.802124
   vertex 42.821781 -154.626068 352.331512
   vertex 41.737114 -154.565659 352.748016
  endloop
 facet normal 0.406751 -0.047430 0.912307
  outer loop
   vertex 42.822548 -155.466537 352.287476
   vertex 42.821781 -154.626068 352.331512
   vertex 41.763252 -154.651688 352.802124
  endloop
 facet normal 0.406751 -0.047428 0.912307
  outer loop
   vertex 20.282290 -156.012268 362.308868
   vertex 21.340816 -155.986649 361.838257
   vertex 21.340048 -155.146164 361.882294
  endloop
 facet normal 0.913535 0.022116 -0.406158
  outer loop
   vertex 21.340048 -155.146164 361.882294
   vertex 21.340816 -155.986649 361.838257
   vertex 21.243357 -155.150452 361.664581
  endloop
 facet normal 0.913535 0.022109 -0.406158
  outer loop
   vertex 21.243357 -155.150452 361.664581
   vertex 21.313910 -155.060135 361.828186
   vertex 21.340048 -155.146164 361.882294
  endloop
 facet normal 0.913529 0.022140 -0.406172
  outer loop
   vertex 21.249249 -155.052597 361.683167
   vertex 21.313910 -155.060135 361.828186
   vertex 21.243357 -155.150452 361.664581
  endloop
 facet normal -0.327801 0.631228 -0.702921
  outer loop
   vertex 42.262733 -154.606735 352.410645
   vertex 42.227753 -154.719376 352.325806
   vertex 20.678526 -155.241104 361.906586
  endloop
 facet normal -0.000910 0.998629 0.052333
  outer loop
   vertex 20.678526 -155.241104 361.906586
   vertex 42.227753 -154.719376 352.325806
   vertex 41.748497 -154.663483 351.250916
  endloop
 facet normal -0.000916 0.998630 0.052322
  outer loop
   vertex 41.748497 -154.663483 351.250916
   vertex 20.199272 -155.185226 360.831696
   vertex 20.678526 -155.241104 361.906586
  endloop
 facet normal 0.326714 0.554913 0.765068
  outer loop
   vertex 20.164076 -155.064407 360.759094
   vertex 20.199272 -155.185226 360.831696
   vertex 41.748497 -154.663483 351.250916
  endloop
 facet normal -0.406737 0.047427 -0.912313
  outer loop
   vertex 19.516680 -156.976349 360.781982
   vertex 20.015148 -156.627579 360.577881
   vertex 19.518349 -158.801834 360.686340
  endloop
 facet normal -0.406772 0.047436 -0.912297
  outer loop
   vertex 19.518349 -158.801834 360.686340
   vertex 20.015148 -156.627579 360.577881
   vertex 20.019133 -160.983612 360.349609
  endloop
 facet normal -0.406761 0.047439 -0.912302
  outer loop
   vertex 20.019133 -160.983612 360.349609
   vertex 18.187061 -161.027969 361.164154
   vertex 19.518349 -158.801834 360.686340
  endloop
 facet normal 0.000913 -0.998629 -0.052329
  outer loop
   vertex 18.322226 -161.043732 361.467316
   vertex 18.187061 -161.027969 361.164154
   vertex 20.019133 -160.983612 360.349609
  endloop
 facet normal -0.913539 -0.022118 0.406150
  outer loop
   vertex 18.183319 -156.937286 361.378510
   vertex 18.187061 -161.027969 361.164154
   vertex 18.322226 -161.043732 361.467316
  endloop
 facet normal -0.913537 -0.022119 0.406155
  outer loop
   vertex 41.880775 -160.473343 350.993195
   vertex 41.741627 -156.101547 350.918304
   vertex 41.745609 -160.457581 350.690033
  endloop
 facet normal -0.406790 0.047435 -0.912289
  outer loop
   vertex 41.745609 -160.457581 350.690033
   vertex 41.741627 -156.101547 350.918304
   vertex 42.242382 -158.251648 350.583221
  endloop
 facet normal -0.406761 0.047428 -0.912303
  outer loop
   vertex 42.242382 -158.251648 350.583221
   vertex 43.577682 -160.413223 349.875488
   vertex 41.745609 -160.457581 350.690033
  endloop
 facet normal -0.406753 0.047434 -0.912306
  outer loop
   vertex 43.316624 -158.225632 350.105621
   vertex 43.577682 -160.413223 349.875488
   vertex 42.242382 -158.251648 350.583221
  endloop
 facet normal -0.406753 0.047434 -0.912306
  outer loop
   vertex 43.573940 -156.322540 350.089844
   vertex 43.577682 -160.413223 349.875488
   vertex 43.316624 -158.225632 350.105621
  endloop
 facet normal 0.913542 0.022134 -0.406142
  outer loop
   vertex 20.022917 -160.983414 360.348053
   vertex 20.551243 -156.710556 361.769287
   vertex 20.555277 -161.045502 361.542114
  endloop
 facet normal 0.406784 -0.047430 0.912292
  outer loop
   vertex 20.555277 -161.045502 361.542114
   vertex 20.551243 -156.710556 361.769287
   vertex 20.249109 -156.717880 361.903625
  endloop
 facet normal 0.406708 -0.047438 0.912326
  outer loop
   vertex 20.249109 -156.717880 361.903625
   vertex 20.253143 -161.052826 361.676422
   vertex 20.555277 -161.045502 361.542114
  endloop
 facet normal -0.913554 -0.022135 0.406115
  outer loop
   vertex 19.716766 -156.655853 360.709503
   vertex 20.253143 -161.052826 361.676422
   vertex 20.249109 -156.717880 361.903625
  endloop
 facet normal -0.913542 -0.022128 0.406141
  outer loop
   vertex 19.720785 -160.990738 360.482361
   vertex 20.253143 -161.052826 361.676422
   vertex 19.716766 -156.655853 360.709503
  endloop
 facet normal 0.406758 -0.047423 0.912304
  outer loop
   vertex 42.307320 -154.611923 352.510620
   vertex 20.758095 -155.133667 362.091400
   vertex 42.307449 -154.754059 352.503174
  endloop
 facet normal 0.406758 -0.047428 0.912304
  outer loop
   vertex 42.307449 -154.754059 352.503174
   vertex 20.758095 -155.133667 362.091400
   vertex 20.758224 -155.275787 362.083954
  endloop
 facet normal 0.146648 -0.949278 0.278148
  outer loop
   vertex 20.758224 -155.275787 362.083954
   vertex 42.293827 -154.765320 352.471924
   vertex 42.307449 -154.754059 352.503174
  endloop
 facet normal 0.146801 -0.949151 0.278499
  outer loop
   vertex 20.744602 -155.287064 362.052704
   vertex 42.293827 -154.765320 352.471924
   vertex 20.758224 -155.275787 362.083954
  endloop
 facet normal 0.406758 -0.047432 0.912304
  outer loop
   vertex 20.745161 -155.899765 362.020599
   vertex 42.293827 -154.765320 352.471924
   vertex 20.744602 -155.287064 362.052704
  endloop
 facet normal 0.913526 0.022108 -0.406179
  outer loop
   vertex 42.044029 -160.450256 350.557465
   vertex 42.040100 -156.115372 350.784576
   vertex 42.576431 -160.512344 351.751495
  endloop
 facet normal 0.913516 0.022102 -0.406203
  outer loop
   vertex 42.576431 -160.512344 351.751495
   vertex 42.040100 -156.115372 350.784576
   vertex 42.572536 -156.177383 351.978607
  endloop
 facet normal 0.406789 -0.047430 0.912290
  outer loop
   vertex 42.572536 -156.177383 351.978607
   vertex 42.274303 -160.519653 351.885834
   vertex 42.576431 -160.512344 351.751495
  endloop
 facet normal 0.406785 -0.047430 0.912292
  outer loop
   vertex 42.270405 -156.184692 352.112946
   vertex 42.274303 -160.519653 351.885834
   vertex 42.572536 -156.177383 351.978607
  endloop
 facet normal -0.913526 -0.022102 0.406180
  outer loop
   vertex 41.741901 -160.457565 350.691803
   vertex 42.274303 -160.519653 351.885834
   vertex 42.270405 -156.184692 352.112946
  endloop
 facet normal -0.913527 -0.022101 0.406177
  outer loop
   vertex 42.270405 -156.184692 352.112946
   vertex 41.738007 -156.122620 350.918915
   vertex 41.741901 -160.457565 350.691803
  endloop
 facet normal 0.406758 -0.047403 0.912305
  outer loop
   vertex 20.758808 -155.914215 362.050507
   vertex 20.758873 -155.984726 362.046814
   vertex 42.308098 -155.462997 352.466034
  endloop
 facet normal 0.000914 -0.998630 -0.052324
  outer loop
   vertex 42.308098 -155.462997 352.466034
   vertex 20.758873 -155.984726 362.046814
   vertex 20.120270 -155.910263 360.614502
  endloop
 facet normal 0.000911 -0.998629 -0.052333
  outer loop
   vertex 20.120270 -155.910263 360.614502
   vertex 41.669495 -155.388519 351.033722
   vertex 42.308098 -155.462997 352.466034
  endloop
 facet normal -0.406759 0.047786 -0.912285
  outer loop
   vertex 20.120205 -155.839737 360.618225
   vertex 41.669495 -155.388519 351.033722
   vertex 20.120270 -155.910263 360.614502
  endloop
 facet normal -0.406759 0.047797 -0.912284
  outer loop
   vertex 41.669430 -155.318008 351.037445
   vertex 41.669495 -155.388519 351.033722
   vertex 20.120205 -155.839737 360.618225
  endloop
 facet normal -0.146648 0.949278 -0.278148
  outer loop
   vertex 20.120205 -155.839737 360.618225
   vertex 20.133827 -155.828476 360.649475
   vertex 41.669430 -155.318008 351.037445
  endloop
 facet normal -0.146801 0.949151 -0.278499
  outer loop
   vertex 41.669430 -155.318008 351.037445
   vertex 20.133827 -155.828476 360.649475
   vertex 41.683052 -155.306732 351.068695
  endloop
 facet normal -0.406758 0.047431 -0.912304
  outer loop
   vertex 41.683052 -155.306732 351.068695
   vertex 20.133827 -155.828476 360.649475
   vertex 20.133266 -155.215775 360.681580
  endloop
 facet normal -0.406758 0.047432 -0.912304
  outer loop
   vertex 20.133266 -155.215775 360.681580
   vertex 41.682491 -154.694046 351.100800
   vertex 41.683052 -155.306732 351.068695
  endloop
 facet normal -0.145021 -0.915192 -0.376021
  outer loop
   vertex 20.119621 -155.201324 360.651672
   vertex 41.682491 -154.694046 351.100800
   vertex 20.133266 -155.215775 360.681580
  endloop
 facet normal -0.145168 -0.915036 -0.376345
  outer loop
   vertex 41.668846 -154.679581 351.070892
   vertex 41.682491 -154.694046 351.100800
   vertex 20.119621 -155.201324 360.651672
  endloop
 facet normal -0.406758 0.047428 -0.912304
  outer loop
   vertex 20.119621 -155.201324 360.651672
   vertex 20.119492 -155.059204 360.659119
   vertex 41.668846 -154.679581 351.070892
  endloop
 facet normal -0.406758 0.047428 -0.912304
  outer loop
   vertex 41.668846 -154.679581 351.070892
   vertex 20.119492 -155.059204 360.659119
   vertex 41.668716 -154.537460 351.078339
  endloop
 facet normal -0.000900 0.998628 0.052359
  outer loop
   vertex 41.668716 -154.537460 351.078339
   vertex 20.119492 -155.059204 360.659119
   vertex 41.713299 -154.542664 351.178345
  endloop
 facet normal 0.913537 0.022119 -0.406155
  outer loop
   vertex 43.573940 -156.322540 350.089844
   vertex 43.709106 -156.338303 350.393005
   vertex 43.712849 -160.428986 350.178650
  endloop
 facet normal 0.406753 -0.047434 0.912306
  outer loop
   vertex 43.712849 -160.428986 350.178650
   vertex 43.709106 -156.338303 350.393005
   vertex 43.451790 -158.241394 350.408783
  endloop
 facet normal 0.406773 -0.047430 0.912297
  outer loop
   vertex 43.451790 -158.241394 350.408783
   vertex 43.045197 -159.348190 350.532532
   vertex 43.712849 -160.428986 350.178650
  endloop
 facet normal 0.406752 -0.047421 0.912307
  outer loop
   vertex 42.377544 -158.267410 350.886383
   vertex 43.045197 -159.348190 350.532532
   vertex 43.451790 -158.241394 350.408783
  endloop
 facet normal 0.406748 -0.047424 0.912309
  outer loop
   vertex 41.880775 -160.473343 350.993195
   vertex 43.045197 -159.348190 350.532532
   vertex 42.377544 -158.267410 350.886383
  endloop
 facet normal 0.406769 -0.047429 0.912299
  outer loop
   vertex 42.377544 -158.267410 350.886383
   vertex 41.876793 -156.117310 351.221436
   vertex 41.880775 -160.473343 350.993195
  endloop
 facet normal -0.913521 -0.022118 0.406189
  outer loop
   vertex 41.880775 -160.473343 350.993195
   vertex 41.876793 -156.117310 351.221436
   vertex 41.741627 -156.101547 350.918304
  endloop
 facet normal -0.000915 0.998629 0.052335
  outer loop
   vertex 41.741627 -156.101547 350.918304
   vertex 41.876793 -156.117310 351.221436
   vertex 43.376698 -156.061951 350.191345
  endloop
 facet normal -0.406762 0.047458 -0.912301
  outer loop
   vertex 43.376698 -156.061951 350.191345
   vertex 42.240711 -156.426163 350.678894
   vertex 41.741627 -156.101547 350.918304
  endloop
 facet normal -0.406752 0.047419 -0.912307
  outer loop
   vertex 43.314957 -156.400146 350.201294
   vertex 42.240711 -156.426163 350.678894
   vertex 43.376698 -156.061951 350.191345
  endloop
 facet normal 0.000919 -0.998629 -0.052332
  outer loop
   vertex 42.375877 -156.441925 350.982056
   vertex 42.240711 -156.426163 350.678894
   vertex 43.314957 -156.400146 350.201294
  endloop
 facet normal 0.000916 -0.998629 -0.052335
  outer loop
   vertex 43.314957 -156.400146 350.201294
   vertex 43.450119 -156.415909 350.504425
   vertex 42.375877 -156.441925 350.982056
  endloop
 facet normal 0.406775 -0.047506 0.912292
  outer loop
   vertex 42.375877 -156.441925 350.982056
   vertex 43.450119 -156.415909 350.504425
   vertex 43.511860 -156.077713 350.494507
  endloop
 facet normal 0.406722 -0.047496 0.912316
  outer loop
   vertex 43.511860 -156.077713 350.494507
   vertex 43.450119 -156.415909 350.504425
   vertex 43.709106 -156.338303 350.393005
  endloop
 facet normal 0.708759 0.646467 -0.282383
  outer loop
   vertex 43.709106 -156.338303 350.393005
   vertex 43.376698 -156.061951 350.191345
   vertex 43.511860 -156.077713 350.494507
  endloop
 facet normal 0.708761 0.646462 -0.282393
  outer loop
   vertex 43.573940 -156.322540 350.089844
   vertex 43.376698 -156.061951 350.191345
   vertex 43.709106 -156.338303 350.393005
  endloop
 facet normal -0.406802 0.047429 -0.912284
  outer loop
   vertex 43.314957 -156.400146 350.201294
   vertex 43.376698 -156.061951 350.191345
   vertex 43.573940 -156.322540 350.089844
  endloop
 facet normal -0.406805 0.047441 -0.912282
  outer loop
   vertex 43.573940 -156.322540 350.089844
   vertex 43.316624 -158.225632 350.105621
   vertex 43.314957 -156.400146 350.201294
  endloop
 facet normal -0.913536 -0.022121 0.406155
  outer loop
   vertex 43.314957 -156.400146 350.201294
   vertex 43.316624 -158.225632 350.105621
   vertex 43.451790 -158.241394 350.408783
  endloop
 facet normal -0.000919 0.998629 0.052332
  outer loop
   vertex 43.451790 -158.241394 350.408783
   vertex 43.316624 -158.225632 350.105621
   vertex 42.242382 -158.251648 350.583221
  endloop
 facet normal -0.000919 0.998629 0.052332
  outer loop
   vertex 42.242382 -158.251648 350.583221
   vertex 42.377544 -158.267410 350.886383
   vertex 43.451790 -158.241394 350.408783
  endloop
 facet normal 0.913541 0.022122 -0.406145
  outer loop
   vertex 42.240711 -156.426163 350.678894
   vertex 42.377544 -158.267410 350.886383
   vertex 42.242382 -158.251648 350.583221
  endloop
 facet normal 0.913536 0.022121 -0.406155
  outer loop
   vertex 42.375877 -156.441925 350.982056
   vertex 42.377544 -158.267410 350.886383
   vertex 42.240711 -156.426163 350.678894
  endloop
 facet normal -0.913539 -0.022115 0.406150
  outer loop
   vertex 19.651844 -156.992111 361.085144
   vertex 19.516680 -156.976349 360.781982
   vertex 19.653513 -158.817596 360.989502
  endloop
 facet normal -0.913539 -0.022115 0.406150
  outer loop
   vertex 19.653513 -158.817596 360.989502
   vertex 19.516680 -156.976349 360.781982
   vertex 19.518349 -158.801834 360.686340
  endloop
 facet normal -0.000907 0.998630 0.052326
  outer loop
   vertex 19.518349 -158.801834 360.686340
   vertex 18.579269 -158.843597 361.467102
   vertex 19.653513 -158.817596 360.989502
  endloop
 facet normal -0.000907 0.998630 0.052326
  outer loop
   vertex 18.444105 -158.827835 361.163940
   vertex 18.579269 -158.843597 361.467102
   vertex 19.518349 -158.801834 360.686340
  endloop
 facet normal 0.913539 0.022115 -0.406150
  outer loop
   vertex 18.442436 -157.002350 361.259583
   vertex 18.579269 -158.843597 361.467102
   vertex 18.444105 -158.827835 361.163940
  endloop
 facet normal -0.406803 0.047425 -0.912284
  outer loop
   vertex 18.444105 -158.827835 361.163940
   vertex 18.183319 -156.937286 361.378510
   vertex 18.442436 -157.002350 361.259583
  endloop
 facet normal -0.406786 0.047499 -0.912288
  outer loop
   vertex 18.442436 -157.002350 361.259583
   vertex 18.183319 -156.937286 361.378510
   vertex 18.380077 -156.667160 361.304840
  endloop
 facet normal -0.709921 0.612103 0.348343
  outer loop
   vertex 18.380077 -156.667160 361.304840
   vertex 18.183319 -156.937286 361.378510
   vertex 18.318483 -156.953049 361.681671
  endloop
 facet normal -0.709890 0.612126 0.348365
  outer loop
   vertex 18.318483 -156.953049 361.681671
   vertex 18.515242 -156.682922 361.607971
   vertex 18.380077 -156.667160 361.304840
  endloop
 facet normal 0.406806 -0.047412 0.912283
  outer loop
   vertex 18.577600 -157.018112 361.562744
   vertex 18.515242 -156.682922 361.607971
   vertex 18.318483 -156.953049 361.681671
  endloop
 facet normal 0.406752 -0.047425 0.912307
  outer loop
   vertex 19.651844 -156.992111 361.085144
   vertex 18.515242 -156.682922 361.607971
   vertex 18.577600 -157.018112 361.562744
  endloop
 facet normal 0.000907 -0.998630 -0.052326
  outer loop
   vertex 18.577600 -157.018112 361.562744
   vertex 18.442436 -157.002350 361.259583
   vertex 19.651844 -156.992111 361.085144
  endloop
 facet normal 0.000907 -0.998630 -0.052326
  outer loop
   vertex 19.651844 -156.992111 361.085144
   vertex 18.442436 -157.002350 361.259583
   vertex 19.516680 -156.976349 360.781982
  endloop
 facet normal -0.406752 0.047507 -0.912302
  outer loop
   vertex 19.516680 -156.976349 360.781982
   vertex 18.442436 -157.002350 361.259583
   vertex 18.380077 -156.667160 361.304840
  endloop
 facet normal -0.406762 0.047469 -0.912300
  outer loop
   vertex 18.380077 -156.667160 361.304840
   vertex 20.015148 -156.627579 360.577881
   vertex 19.516680 -156.976349 360.781982
  endloop
 facet normal -0.000910 0.998630 0.052327
  outer loop
   vertex 20.150312 -156.643341 360.881042
   vertex 20.015148 -156.627579 360.577881
   vertex 18.380077 -156.667160 361.304840
  endloop
 facet normal 0.913539 0.022119 -0.406150
  outer loop
   vertex 20.154297 -160.999374 360.652771
   vertex 20.015148 -156.627579 360.577881
   vertex 20.150312 -156.643341 360.881042
  endloop
 facet normal 0.406772 -0.047436 0.912297
  outer loop
   vertex 20.150312 -156.643341 360.881042
   vertex 19.653513 -158.817596 360.989502
   vertex 20.154297 -160.999374 360.652771
  endloop
 facet normal 0.406748 -0.047443 0.912308
  outer loop
   vertex 20.154297 -160.999374 360.652771
   vertex 19.653513 -158.817596 360.989502
   vertex 18.987869 -159.930664 361.228394
  endloop
 facet normal 0.406752 -0.047445 0.912306
  outer loop
   vertex 18.987869 -159.930664 361.228394
   vertex 19.653513 -158.817596 360.989502
   vertex 18.579269 -158.843597 361.467102
  endloop
 facet normal 0.406774 -0.047435 0.912297
  outer loop
   vertex 18.579269 -158.843597 361.467102
   vertex 18.322226 -161.043732 361.467316
   vertex 18.987869 -159.930664 361.228394
  endloop
 facet normal 0.406759 -0.047433 0.912303
  outer loop
   vertex 18.318483 -156.953049 361.681671
   vertex 18.322226 -161.043732 361.467316
   vertex 18.579269 -158.843597 361.467102
  endloop
 facet normal -0.913539 -0.022118 0.406150
  outer loop
   vertex 18.183319 -156.937286 361.378510
   vertex 18.322226 -161.043732 361.467316
   vertex 18.318483 -156.953049 361.681671
  endloop
 facet normal 0.402186 0.100432 0.910033
  outer loop
   vertex 19.701794 -155.119751 361.051819
   vertex 20.760321 -155.094116 360.581177
   vertex 19.695721 -155.020493 361.043549
  endloop
 facet normal 0.402182 0.100170 0.910064
  outer loop
   vertex 19.695721 -155.020493 361.043549
   vertex 20.760321 -155.094116 360.581177
   vertex 20.754248 -154.994873 360.572937
  endloop
 facet normal -0.000912 0.998630 0.052313
  outer loop
   vertex 20.754248 -154.994873 360.572937
   vertex 20.689589 -154.987335 360.427917
   vertex 19.695721 -155.020493 361.043549
  endloop
 facet normal 0.913533 0.022180 -0.406159
  outer loop
   vertex 20.760321 -155.094116 360.581177
   vertex 20.689589 -154.987335 360.427917
   vertex 20.754248 -154.994873 360.572937
  endloop
 facet normal 0.913523 0.022139 -0.406184
  outer loop
   vertex 20.663601 -155.067291 360.365112
   vertex 20.689589 -154.987335 360.427917
   vertex 20.760321 -155.094116 360.581177
  endloop
 facet normal 0.913523 0.022118 -0.406186
  outer loop
   vertex 20.760321 -155.094116 360.581177
   vertex 20.664370 -155.907761 360.321075
   vertex 20.663601 -155.067291 360.365112
  endloop
 facet normal -0.406751 0.047429 -0.912307
  outer loop
   vertex 20.663601 -155.067291 360.365112
   vertex 20.664370 -155.907761 360.321075
   vertex 19.605072 -155.092911 360.835724
  endloop
 facet normal -0.406751 0.047428 -0.912307
  outer loop
   vertex 19.605072 -155.092911 360.835724
   vertex 20.664370 -155.907761 360.321075
   vertex 19.605841 -155.933395 360.791687
  endloop
 facet normal -0.913541 -0.022115 0.406144
  outer loop
   vertex 19.605841 -155.933395 360.791687
   vertex 19.701794 -155.119751 361.051819
   vertex 19.605072 -155.092911 360.835724
  endloop
 facet normal -0.913535 -0.022120 0.406158
  outer loop
   vertex 20.282290 -156.012268 362.308868
   vertex 19.701794 -155.119751 361.051819
   vertex 19.605841 -155.933395 360.791687
  endloop
 facet normal -0.913534 -0.022116 0.406161
  outer loop
   vertex 20.184830 -155.176086 362.135193
   vertex 19.701794 -155.119751 361.051819
   vertex 20.282290 -156.012268 362.308868
  endloop
 facet normal -0.913535 -0.022116 0.406158
  outer loop
   vertex 20.282290 -156.012268 362.308868
   vertex 20.281521 -155.171799 362.352905
   vertex 20.184830 -155.176086 362.135193
  endloop
 facet normal -0.913536 -0.022105 0.406158
  outer loop
   vertex 20.184830 -155.176086 362.135193
   vertex 20.281521 -155.171799 362.352905
   vertex 20.255383 -155.085754 362.298798
  endloop
 facet normal 0.321588 0.572135 0.754481
  outer loop
   vertex 20.255383 -155.085754 362.298798
   vertex 20.281521 -155.171799 362.352905
   vertex 21.313910 -155.060135 361.828186
  endloop
 facet normal -0.000912 0.998630 0.052313
  outer loop
   vertex 21.313910 -155.060135 361.828186
   vertex 20.190722 -155.078217 362.153778
   vertex 20.255383 -155.085754 362.298798
  endloop
 facet normal -0.000912 0.998630 0.052313
  outer loop
   vertex 21.249249 -155.052597 361.683167
   vertex 20.190722 -155.078217 362.153778
   vertex 21.313910 -155.060135 361.828186
  endloop
 facet normal -0.402442 0.194114 -0.894628
  outer loop
   vertex 20.184830 -155.176086 362.135193
   vertex 20.190722 -155.078217 362.153778
   vertex 21.249249 -155.052597 361.683167
  endloop
 facet normal -0.402442 0.194144 -0.894622
  outer loop
   vertex 21.249249 -155.052597 361.683167
   vertex 21.243357 -155.150452 361.664581
   vertex 20.184830 -155.176086 362.135193
  endloop
 facet normal -0.000916 0.998629 0.052336
  outer loop
   vertex 20.184830 -155.176086 362.135193
   vertex 21.243357 -155.150452 361.664581
   vertex 20.760321 -155.094116 360.581177
  endloop
 facet normal 0.913538 0.022118 -0.406151
  outer loop
   vertex 20.760321 -155.094116 360.581177
   vertex 21.243357 -155.150452 361.664581
   vertex 21.340816 -155.986649 361.838257
  endloop
 facet normal 0.913536 0.022107 -0.406157
  outer loop
   vertex 21.340816 -155.986649 361.838257
   vertex 20.664370 -155.907761 360.321075
   vertex 20.760321 -155.094116 360.581177
  endloop
 facet normal 0.913536 0.022128 -0.406156
  outer loop
   vertex 20.767258 -156.653946 360.511841
   vertex 20.664370 -155.907761 360.321075
   vertex 21.340816 -155.986649 361.838257
  endloop
 facet normal -0.384598 -0.278059 -0.880209
  outer loop
   vertex 19.605841 -155.933395 360.791687
   vertex 20.664370 -155.907761 360.321075
   vertex 20.767258 -156.653946 360.511841
  endloop
 facet normal -0.384615 -0.278094 -0.880190
  outer loop
   vertex 20.767258 -156.653946 360.511841
   vertex 19.708731 -156.679581 360.982483
   vertex 19.605841 -155.933395 360.791687
  endloop
 facet normal -0.913534 -0.022112 0.406160
  outer loop
   vertex 19.605841 -155.933395 360.791687
   vertex 19.708731 -156.679581 360.982483
   vertex 20.180744 -156.734619 362.041138
  endloop
 facet normal 0.000918 -0.998630 -0.052327
  outer loop
   vertex 20.180744 -156.734619 362.041138
   vertex 19.708731 -156.679581 360.982483
   vertex 20.767258 -156.653946 360.511841
  endloop
 facet normal 0.000918 -0.998630 -0.052327
  outer loop
   vertex 20.767258 -156.653946 360.511841
   vertex 21.239271 -156.708984 361.570496
   vertex 20.180744 -156.734619 362.041138
  endloop
 facet normal 0.913534 0.022134 -0.406159
  outer loop
   vertex 21.340816 -155.986649 361.838257
   vertex 21.239271 -156.708984 361.570496
   vertex 20.767258 -156.653946 360.511841
  endloop
 facet normal 0.385206 -0.367878 0.846334
  outer loop
   vertex 20.180744 -156.734619 362.041138
   vertex 21.239271 -156.708984 361.570496
   vertex 21.340816 -155.986649 361.838257
  endloop
 facet normal 0.385187 -0.367841 0.846359
  outer loop
   vertex 21.340816 -155.986649 361.838257
   vertex 20.282290 -156.012268 362.308868
   vertex 20.180744 -156.734619 362.041138
  endloop
 facet normal -0.913535 -0.022116 0.406158
  outer loop
   vertex 20.180744 -156.734619 362.041138
   vertex 20.282290 -156.012268 362.308868
   vertex 19.605841 -155.933395 360.791687
  endloop
 facet normal 0.913535 0.022119 -0.406158
  outer loop
   vertex 42.146099 -155.387650 350.770294
   vertex 42.822548 -155.466537 352.287476
   vertex 42.721004 -156.188889 352.019745
  endloop
 facet normal 0.385187 -0.367840 0.846359
  outer loop
   vertex 42.721004 -156.188889 352.019745
   vertex 42.822548 -155.466537 352.287476
   vertex 41.764023 -155.492157 352.758087
  endloop
 facet normal 0.385186 -0.367842 0.846359
  outer loop
   vertex 41.764023 -155.492157 352.758087
   vertex 41.662476 -156.214508 352.490356
   vertex 42.721004 -156.188889 352.019745
  endloop
 facet normal -0.913535 -0.022114 0.406159
  outer loop
   vertex 41.190464 -156.159470 351.431702
   vertex 41.662476 -156.214508 352.490356
   vertex 41.764023 -155.492157 352.758087
  endloop
 facet normal 0.000908 -0.998630 -0.052323
  outer loop
   vertex 42.721004 -156.188889 352.019745
   vertex 41.662476 -156.214508 352.490356
   vertex 41.190464 -156.159470 351.431702
  endloop
 facet normal 0.000914 -0.998629 -0.052340
  outer loop
   vertex 41.190464 -156.159470 351.431702
   vertex 42.248989 -156.133835 350.961090
   vertex 42.721004 -156.188889 352.019745
  endloop
 facet normal 0.913534 0.022112 -0.406161
  outer loop
   vertex 42.721004 -156.188889 352.019745
   vertex 42.248989 -156.133835 350.961090
   vertex 42.146099 -155.387650 350.770294
  endloop
 facet normal -0.384595 -0.278094 -0.880199
  outer loop
   vertex 42.146099 -155.387650 350.770294
   vertex 42.248989 -156.133835 350.961090
   vertex 41.190464 -156.159470 351.431702
  endloop
 facet normal -0.384595 -0.278094 -0.880199
  outer loop
   vertex 41.190464 -156.159470 351.431702
   vertex 41.087574 -155.413284 351.240906
   vertex 42.146099 -155.387650 350.770294
  endloop
 facet normal -0.913535 -0.022113 0.406158
  outer loop
   vertex 41.764023 -155.492157 352.758087
   vertex 41.087574 -155.413284 351.240906
   vertex 41.190464 -156.159470 351.431702
  endloop
 facet normal -0.913535 -0.022123 0.406158
  outer loop
   vertex 41.183525 -154.599640 351.501038
   vertex 41.087574 -155.413284 351.240906
   vertex 41.764023 -155.492157 352.758087
  endloop
 facet normal -0.913534 -0.022118 0.406161
  outer loop
   vertex 41.764023 -155.492157 352.758087
   vertex 41.666561 -154.655975 352.584412
   vertex 41.183525 -154.599640 351.501038
  endloop
 facet normal -0.000916 0.998629 0.052337
  outer loop
   vertex 41.183525 -154.599640 351.501038
   vertex 41.666561 -154.655975 352.584412
   vertex 42.725090 -154.630341 352.113800
  endloop
 facet normal -0.402443 0.194122 -0.894626
  outer loop
   vertex 42.725090 -154.630341 352.113800
   vertex 41.666561 -154.655975 352.584412
   vertex 41.672455 -154.558105 352.602997
  endloop
 facet normal -0.402441 0.194136 -0.894624
  outer loop
   vertex 41.672455 -154.558105 352.602997
   vertex 42.730980 -154.532486 352.132385
   vertex 42.725090 -154.630341 352.113800
  endloop
 facet normal -0.000873 0.998626 0.052401
  outer loop
   vertex 41.737114 -154.565659 352.748016
   vertex 42.730980 -154.532486 352.132385
   vertex 41.672455 -154.558105 352.602997
  endloop
 facet normal -0.000924 0.998630 0.052319
  outer loop
   vertex 42.795643 -154.540024 352.277405
   vertex 42.730980 -154.532486 352.132385
   vertex 41.737114 -154.565659 352.748016
  endloop
 facet normal 0.321581 0.572135 0.754485
  outer loop
   vertex 41.737114 -154.565659 352.748016
   vertex 42.821781 -154.626068 352.331512
   vertex 42.795643 -154.540024 352.277405
  endloop
 facet normal 0.913536 0.022106 -0.406156
  outer loop
   vertex 42.795643 -154.540024 352.277405
   vertex 42.821781 -154.626068 352.331512
   vertex 42.725090 -154.630341 352.113800
  endloop
 facet normal 0.913536 0.022114 -0.406156
  outer loop
   vertex 42.725090 -154.630341 352.113800
   vertex 42.821781 -154.626068 352.331512
   vertex 42.822548 -155.466537 352.287476
  endloop
 facet normal 0.913534 0.022113 -0.406161
  outer loop
   vertex 42.822548 -155.466537 352.287476
   vertex 42.242054 -154.574020 351.030426
   vertex 42.725090 -154.630341 352.113800
  endloop
 facet normal 0.913535 0.022119 -0.406158
  outer loop
   vertex 42.146099 -155.387650 350.770294
   vertex 42.242054 -154.574020 351.030426
   vertex 42.822548 -155.466537 352.287476
  endloop
 facet normal 0.913541 0.022114 -0.406144
  outer loop
   vertex 42.145332 -154.547180 350.814331
   vertex 42.242054 -154.574020 351.030426
   vertex 42.146099 -155.387650 350.770294
  endloop
 facet normal -0.406753 0.047430 -0.912306
  outer loop
   vertex 42.146099 -155.387650 350.770294
   vertex 41.087574 -155.413284 351.240906
   vertex 42.145332 -154.547180 350.814331
  endloop
 facet normal -0.406751 0.047428 -0.912307
  outer loop
   vertex 42.145332 -154.547180 350.814331
   vertex 41.087574 -155.413284 351.240906
   vertex 41.086803 -154.572815 351.284943
  endloop
 facet normal -0.913541 -0.022118 0.406145
  outer loop
   vertex 41.086803 -154.572815 351.284943
   vertex 41.087574 -155.413284 351.240906
   vertex 41.183525 -154.599640 351.501038
  endloop
 facet normal -0.913540 -0.022080 0.406149
  outer loop
   vertex 41.183525 -154.599640 351.501038
   vertex 41.112793 -154.492844 351.347748
   vertex 41.086803 -154.572815 351.284943
  endloop
 facet normal -0.913534 -0.022055 0.406164
  outer loop
   vertex 41.177452 -154.500397 351.492767
   vertex 41.112793 -154.492844 351.347748
   vertex 41.183525 -154.599640 351.501038
  endloop
 facet normal -0.000885 0.998625 0.052406
  outer loop
   vertex 42.235981 -154.474762 351.022156
   vertex 41.112793 -154.492844 351.347748
   vertex 41.177452 -154.500397 351.492767
  endloop
 facet normal 0.402163 0.100446 0.910041
  outer loop
   vertex 41.177452 -154.500397 351.492767
   vertex 41.183525 -154.599640 351.501038
   vertex 42.235981 -154.474762 351.022156
  endloop
 facet normal 0.402165 0.100431 0.910042
  outer loop
   vertex 42.235981 -154.474762 351.022156
   vertex 41.183525 -154.599640 351.501038
   vertex 42.242054 -154.574020 351.030426
  endloop
 facet normal -0.000909 0.998630 0.052320
  outer loop
   vertex 42.242054 -154.574020 351.030426
   vertex 41.183525 -154.599640 351.501038
   vertex 42.725090 -154.630341 352.113800
  endloop
 facet normal -0.406752 0.047433 -0.912306
  outer loop
   vertex 19.518349 -158.801834 360.686340
   vertex 18.187061 -161.027969 361.164154
   vertex 18.444105 -158.827835 361.163940
  endloop
 facet normal -0.406759 0.047433 -0.912303
  outer loop
   vertex 18.444105 -158.827835 361.163940
   vertex 18.187061 -161.027969 361.164154
   vertex 18.183319 -156.937286 361.378510
  endloop
 facet normal 0.913542 0.022123 -0.406143
  outer loop
   vertex 42.145332 -154.547180 350.814331
   vertex 42.171318 -154.467224 350.877136
   vertex 42.242054 -154.574020 351.030426
  endloop
 facet normal 0.913524 0.022049 -0.406186
  outer loop
   vertex 42.242054 -154.574020 351.030426
   vertex 42.171318 -154.467224 350.877136
   vertex 42.235981 -154.474762 351.022156
  endloop
 facet normal -0.913541 -0.022103 0.406145
  outer loop
   vertex 19.605072 -155.092911 360.835724
   vertex 19.701794 -155.119751 361.051819
   vertex 19.631060 -155.012955 360.898529
  endloop
 facet normal -0.913529 -0.022050 0.406176
  outer loop
   vertex 19.631060 -155.012955 360.898529
   vertex 19.701794 -155.119751 361.051819
   vertex 19.695721 -155.020493 361.043549
  endloop
 facet normal 0.913524 0.022159 -0.406181
  outer loop
   vertex 42.795643 -154.540024 352.277405
   vertex 42.725090 -154.630341 352.113800
   vertex 42.730980 -154.532486 352.132385
  endloop
 facet normal -0.913529 -0.022136 0.406172
  outer loop
   vertex 20.255383 -155.085754 362.298798
   vertex 20.190722 -155.078217 362.153778
   vertex 20.184830 -155.176086 362.135193
  endloop
 facet normal 0.406761 -0.047440 0.912302
  outer loop
   vertex 43.712849 -160.428986 350.178650
   vertex 43.045197 -159.348190 350.532532
   vertex 41.880775 -160.473343 350.993195
  endloop
 facet normal -0.000914 0.998629 0.052336
  outer loop
   vertex 20.184830 -155.176086 362.135193
   vertex 20.760321 -155.094116 360.581177
   vertex 19.701794 -155.119751 361.051819
  endloop
 facet normal -0.000955 0.998631 0.052298
  outer loop
   vertex 20.249109 -156.717880 361.903625
   vertex 20.551243 -156.710556 361.769287
   vertex 19.716766 -156.655853 360.709503
  endloop
 facet normal -0.000916 0.998632 0.052272
  outer loop
   vertex 42.572536 -156.177383 351.978607
   vertex 42.040100 -156.115372 350.784576
   vertex 42.270405 -156.184692 352.112946
  endloop
 facet normal 0.406758 -0.047393 0.912306
  outer loop
   vertex 42.308098 -155.462997 352.466034
   vertex 42.308033 -155.392471 352.469727
   vertex 20.758808 -155.914215 362.050507
  endloop
 facet normal 0.913542 0.022134 -0.406142
  outer loop
   vertex 20.551243 -156.710556 361.769287
   vertex 20.022917 -160.983414 360.348053
   vertex 20.018883 -156.648468 360.575226
  endloop
 facet normal -0.406772 0.047441 -0.912297
  outer loop
   vertex 41.741627 -156.101547 350.918304
   vertex 42.240711 -156.426163 350.678894
   vertex 42.242382 -158.251648 350.583221
  endloop
endsolid