solid stl file generated from DOUG
 facet normal -0.803948 -0.592985 -0.045115
  outer loop
   vertex 0.043956 -71.925392 409.126068
   vertex 0.124912 -72.034821 409.121735
   vertex -0.036294 -72.518906 418.357208
  endloop
 facet normal 0.000917 -0.998630 -0.052328
  outer loop
   vertex -0.036294 -72.518906 418.357208
   vertex 0.124912 -72.034821 409.121735
   vertex 0.066446 -72.518906 418.359009
  endloop
 facet normal 0.805030 -0.592989 -0.017030
  outer loop
   vertex -1.221619 -72.409477 418.342255
   vertex -1.302375 -72.518906 418.335114
   vertex -1.141169 -72.034821 409.099640
  endloop
 facet normal 0.000917 -0.998630 -0.052328
  outer loop
   vertex -1.141169 -72.034821 409.099640
   vertex -1.302375 -72.518906 418.335114
   vertex -1.405115 -72.518906 418.333313
  endloop
 facet normal 0.000917 -0.998630 -0.052328
  outer loop
   vertex -1.405115 -72.518906 418.333313
   vertex -1.243909 -72.034821 409.097839
   vertex -1.141169 -72.034821 409.099640
  endloop
 facet normal -0.357848 -0.932152 -0.055106
  outer loop
   vertex -1.405784 -71.787186 418.371643
   vertex -1.244578 -71.303101 409.136200
   vertex -1.374355 -71.799248 418.371582
  endloop
 facet normal -0.357894 -0.932135 -0.055106
  outer loop
   vertex -1.374355 -71.799248 418.371582
   vertex -1.244578 -71.303101 409.136200
   vertex -1.213149 -71.315163 409.136108
  endloop
 facet normal -0.999848 -0.000000 -0.017452
  outer loop
   vertex -1.213149 -71.315163 409.136108
   vertex -1.212623 -71.889526 409.106018
   vertex -1.374355 -71.799248 418.371582
  endloop
 facet normal -0.803942 -0.592993 -0.045115
  outer loop
   vertex -0.036294 -72.518906 418.357208
   vertex -0.117251 -72.409477 418.361511
   vertex 0.043956 -71.925392 409.126068
  endloop
 facet normal 0.000912 -0.998630 -0.052328
  outer loop
   vertex 0.043956 -71.925392 409.126068
   vertex -0.117251 -72.409477 418.361511
   vertex -1.221619 -72.409477 418.342255
  endloop
 facet normal 0.000914 -0.998630 -0.052328
  outer loop
   vertex -1.221619 -72.409477 418.342255
   vertex -1.060412 -71.925392 409.106781
   vertex 0.043956 -71.925392 409.126068
  endloop
 facet normal 0.805030 -0.592990 -0.017030
  outer loop
   vertex -1.141169 -72.034821 409.099640
   vertex -1.060412 -71.925392 409.106781
   vertex -1.221619 -72.409477 418.342255
  endloop
 facet normal -0.999848 0.000001 -0.017452
  outer loop
   vertex -1.243909 -72.034821 409.097839
   vertex -1.405115 -72.518906 418.333313
   vertex -1.244031 -71.901588 409.104828
  endloop
 facet normal -0.999848 0.000001 -0.017452
  outer loop
   vertex -1.244031 -71.901588 409.104828
   vertex -1.405115 -72.518906 418.333313
   vertex -1.405237 -72.385674 418.340302
  endloop
 facet normal -0.359600 0.932135 0.042582
  outer loop
   vertex -1.405237 -72.385674 418.340302
   vertex -1.212623 -71.889526 409.106018
   vertex -1.244031 -71.901588 409.104828
  endloop
 facet normal -0.359564 0.932148 0.042583
  outer loop
   vertex -1.373829 -72.373611 418.341461
   vertex -1.212623 -71.889526 409.106018
   vertex -1.405237 -72.385674 418.340302
  endloop
 facet normal -0.999848 0.000001 -0.017452
  outer loop
   vertex -1.374355 -71.799248 418.371582
   vertex -1.212623 -71.889526 409.106018
   vertex -1.373829 -72.373611 418.341461
  endloop
 facet normal -0.017445 -0.052365 0.998476
  outer loop
   vertex 0.074119 -72.565765 418.895844
   vertex -1.432287 -71.726410 418.913544
   vertex -1.431519 -72.565765 418.869537
  endloop
 facet normal -0.999848 0.000001 -0.017453
  outer loop
   vertex -1.431519 -72.565765 418.869537
   vertex -1.432287 -71.726410 418.913544
   vertex -1.414091 -72.513428 417.871063
  endloop
 facet normal 0.000913 -0.998629 -0.052330
  outer loop
   vertex -1.414091 -72.513428 417.871063
   vertex 0.091547 -72.513428 417.897339
   vertex -1.431519 -72.565765 418.869537
  endloop
 facet normal 0.017425 0.052365 -0.998476
  outer loop
   vertex -1.414858 -71.674080 417.915070
   vertex 0.091547 -72.513428 417.897339
   vertex -1.414091 -72.513428 417.871063
  endloop
 facet normal 0.017425 0.052365 -0.998476
  outer loop
   vertex 0.090780 -71.674080 417.941345
   vertex 0.091547 -72.513428 417.897339
   vertex -1.414858 -71.674080 417.915070
  endloop
 facet normal -0.000913 0.998630 0.052322
  outer loop
   vertex -1.414858 -71.674080 417.915070
   vertex -1.432287 -71.726410 418.913544
   vertex 0.090780 -71.674080 417.941345
  endloop
 facet normal -0.000913 0.998630 0.052322
  outer loop
   vertex 0.090780 -71.674080 417.941345
   vertex -1.432287 -71.726410 418.913544
   vertex 0.073351 -71.726410 418.939819
  endloop
 facet normal -0.017425 -0.052329 0.998478
  outer loop
   vertex 0.073351 -71.726410 418.939819
   vertex -1.432287 -71.726410 418.913544
   vertex 0.074119 -72.565765 418.895844
  endloop
 facet normal 0.999848 0.000000 0.017452
  outer loop
   vertex 0.074119 -72.565765 418.895844
   vertex 0.091547 -72.513428 417.897339
   vertex 0.073351 -71.726410 418.939819
  endloop
 facet normal 0.000914 -0.998630 -0.052328
  outer loop
   vertex -1.431519 -72.565765 418.869537
   vertex 0.091547 -72.513428 417.897339
   vertex 0.074119 -72.565765 418.895844
  endloop
 facet normal -0.017425 -0.052365 0.998476
  outer loop
   vertex -1.268977 -72.077667 409.557526
   vertex 0.236661 -72.077667 409.583801
   vertex -1.269744 -71.238319 409.601532
  endloop
 facet normal -0.017425 -0.052365 0.998476
  outer loop
   vertex -1.269744 -71.238319 409.601532
   vertex 0.236661 -72.077667 409.583801
   vertex 0.235894 -71.238319 409.627808
  endloop
 facet normal -0.000913 0.998629 0.052330
  outer loop
   vertex 0.235894 -71.238319 409.627808
   vertex 0.253322 -71.185982 408.629333
   vertex -1.269744 -71.238319 409.601532
  endloop
 facet normal 0.999848 -0.000000 0.017453
  outer loop
   vertex 0.236661 -72.077667 409.583801
   vertex 0.253322 -71.185982 408.629333
   vertex 0.235894 -71.238319 409.627808
  endloop
 facet normal 0.999848 -0.000000 0.017453
  outer loop
   vertex 0.254090 -72.025330 408.585327
   vertex 0.253322 -71.185982 408.629333
   vertex 0.236661 -72.077667 409.583801
  endloop
 facet normal 0.000913 -0.998629 -0.052330
  outer loop
   vertex 0.236661 -72.077667 409.583801
   vertex -1.251548 -72.025330 408.559052
   vertex 0.254090 -72.025330 408.585327
  endloop
 facet normal 0.017425 0.052365 -0.998476
  outer loop
   vertex 0.254090 -72.025330 408.585327
   vertex -1.251548 -72.025330 408.559052
   vertex 0.253322 -71.185982 408.629333
  endloop
 facet normal 0.017445 0.052329 -0.998478
  outer loop
   vertex 0.253322 -71.185982 408.629333
   vertex -1.251548 -72.025330 408.559052
   vertex -1.252316 -71.185982 408.603027
  endloop
 facet normal -0.000914 0.998630 0.052328
  outer loop
   vertex -1.252316 -71.185982 408.603027
   vertex -1.269744 -71.238319 409.601532
   vertex 0.253322 -71.185982 408.629333
  endloop
 facet normal -0.999848 -0.000000 -0.017452
  outer loop
   vertex -1.251548 -72.025330 408.559052
   vertex -1.269744 -71.238319 409.601532
   vertex -1.252316 -71.185982 408.603027
  endloop
 facet normal -0.999848 0.000000 -0.017452
  outer loop
   vertex -1.268977 -72.077667 409.557526
   vertex -1.269744 -71.238319 409.601532
   vertex -1.251548 -72.025330 408.559052
  endloop
 facet normal 0.000913 -0.998629 -0.052330
  outer loop
   vertex -1.251548 -72.025330 408.559052
   vertex 0.236661 -72.077667 409.583801
   vertex -1.268977 -72.077667 409.557526
  endloop
 facet normal 0.000917 -0.998630 -0.052328
  outer loop
   vertex 0.124912 -72.034821 409.121735
   vertex 0.227652 -72.034821 409.123535
   vertex 0.066446 -72.518906 418.359009
  endloop
 facet normal 0.999848 -0.000001 0.017452
  outer loop
   vertex 0.066446 -72.518906 418.359009
   vertex 0.227652 -72.034821 409.123535
   vertex 0.227530 -71.901588 409.130524
  endloop
 facet normal 0.999848 0.000003 0.017453
  outer loop
   vertex 0.227530 -71.901588 409.130524
   vertex 0.066324 -72.385674 418.365967
   vertex 0.066446 -72.518906 418.359009
  endloop
 facet normal 0.357893 0.932135 0.055106
  outer loop
   vertex 0.196100 -71.889526 409.130615
   vertex 0.066324 -72.385674 418.365967
   vertex 0.227530 -71.901588 409.130524
  endloop
 facet normal 0.357893 0.932135 0.055106
  outer loop
   vertex 0.034894 -72.373611 418.366058
   vertex 0.066324 -72.385674 418.365967
   vertex 0.196100 -71.889526 409.130615
  endloop
 facet normal 0.999848 0.000000 0.017453
  outer loop
   vertex 0.196100 -71.889526 409.130615
   vertex 0.195575 -71.315163 409.160706
   vertex 0.034894 -72.373611 418.366058
  endloop
 facet normal 0.999848 0.000000 0.017453
  outer loop
   vertex 0.034894 -72.373611 418.366058
   vertex 0.195575 -71.315163 409.160706
   vertex 0.034369 -71.799240 418.396149
  endloop
 facet normal 0.359561 -0.932149 -0.042583
  outer loop
   vertex 0.034369 -71.799240 418.396149
   vertex 0.195575 -71.315163 409.160706
   vertex 0.226983 -71.303101 409.161865
  endloop
 facet normal 0.359400 -0.932211 -0.042589
  outer loop
   vertex 0.226983 -71.303101 409.161865
   vertex 0.065776 -71.787186 418.397339
   vertex 0.034369 -71.799240 418.396149
  endloop
 facet normal 0.999848 -0.000004 0.017452
  outer loop
   vertex 0.226922 -71.236992 409.165344
   vertex 0.065776 -71.787186 418.397339
   vertex 0.226983 -71.303101 409.161865
  endloop
 facet normal 0.999848 0.000004 0.017453
  outer loop
   vertex 0.065716 -71.721077 418.400787
   vertex 0.065776 -71.787186 418.397339
   vertex 0.226922 -71.236992 409.165344
  endloop
 facet normal -0.000914 0.998630 0.052328
  outer loop
   vertex 0.226922 -71.236992 409.165344
   vertex -1.244639 -71.236992 409.139648
   vertex 0.065716 -71.721077 418.400787
  endloop
 facet normal -0.000913 0.998630 0.052328
  outer loop
   vertex 0.065716 -71.721077 418.400787
   vertex -1.244639 -71.236992 409.139648
   vertex -1.405845 -71.721077 418.375122
  endloop
 facet normal -0.999848 0.000003 -0.017452
  outer loop
   vertex -1.405845 -71.721077 418.375122
   vertex -1.244639 -71.236992 409.139648
   vertex -1.405784 -71.787186 418.371643
  endloop
 facet normal -0.999848 0.000000 -0.017452
  outer loop
   vertex -1.414858 -71.674080 417.915070
   vertex -1.414091 -72.513428 417.871063
   vertex -1.432287 -71.726410 418.913544
  endloop
 facet normal 0.999848 -0.000000 0.017453
  outer loop
   vertex 0.091547 -72.513428 417.897339
   vertex 0.090780 -71.674080 417.941345
   vertex 0.073351 -71.726410 418.939819
  endloop
 facet normal -0.999848 -0.000004 -0.017453
  outer loop
   vertex -1.244639 -71.236992 409.139648
   vertex -1.244578 -71.303101 409.136200
   vertex -1.405784 -71.787186 418.371643
  endloop
 facet normal 0.398751 0.048360 -0.915783
  outer loop
   vertex -0.492348 -69.221313 408.206604
   vertex -0.493261 -68.222679 408.258942
   vertex 0.209547 -69.236641 408.511414
  endloop
 facet normal 0.398718 0.048333 -0.915799
  outer loop
   vertex 0.209547 -69.236641 408.511414
   vertex -0.493261 -68.222679 408.258942
   vertex 0.208633 -68.238014 408.563721
  endloop
 facet normal 0.930405 0.020021 -0.365987
  outer loop
   vertex 0.208633 -68.238014 408.563721
   vertex 0.490071 -69.273643 409.222534
   vertex 0.209547 -69.236641 408.511414
  endloop
 facet normal 0.930410 0.020032 -0.365973
  outer loop
   vertex 0.489158 -68.275017 409.274872
   vertex 0.490071 -69.273643 409.222534
   vertex 0.208633 -68.238014 408.563721
  endloop
 facet normal 0.917071 -0.020032 0.398220
  outer loop
   vertex 0.184899 -69.310654 409.923462
   vertex 0.490071 -69.273643 409.222534
   vertex 0.489158 -68.275017 409.274872
  endloop
 facet normal 0.917071 -0.020032 0.398220
  outer loop
   vertex 0.489158 -68.275017 409.274872
   vertex 0.183985 -68.312027 409.975800
   vertex 0.184899 -69.310654 409.923462
  endloop
 facet normal 0.366505 -0.048362 0.929158
  outer loop
   vertex 0.184899 -69.310654 409.923462
   vertex 0.183985 -68.312027 409.975800
   vertex -0.527205 -69.325981 410.203552
  endloop
 facet normal 0.366505 -0.048362 0.929158
  outer loop
   vertex -0.527205 -69.325981 410.203552
   vertex 0.183985 -68.312027 409.975800
   vertex -0.528118 -68.327354 410.255890
  endloop
 facet normal -0.398717 -0.048361 0.915798
  outer loop
   vertex -0.528118 -68.327354 410.255890
   vertex -1.229099 -69.310654 409.898773
   vertex -0.527205 -69.325981 410.203552
  endloop
 facet normal -0.398717 -0.048361 0.915798
  outer loop
   vertex -1.230013 -68.312027 409.951111
   vertex -1.229099 -69.310654 409.898773
   vertex -0.528118 -68.327354 410.255890
  endloop
 facet normal -0.930410 -0.020032 0.365973
  outer loop
   vertex -1.509624 -69.273643 409.187622
   vertex -1.229099 -69.310654 409.898773
   vertex -1.230013 -68.312027 409.951111
  endloop
 facet normal -0.930410 -0.020032 0.365973
  outer loop
   vertex -1.230013 -68.312027 409.951111
   vertex -1.510538 -68.275017 409.239960
   vertex -1.509624 -69.273643 409.187622
  endloop
 facet normal -0.917065 0.020032 -0.398234
  outer loop
   vertex -1.509624 -69.273643 409.187622
   vertex -1.510538 -68.275017 409.239960
   vertex -1.204452 -69.236641 408.486725
  endloop
 facet normal -0.917071 0.020020 -0.398220
  outer loop
   vertex -1.204452 -69.236641 408.486725
   vertex -1.510538 -68.275017 409.239960
   vertex -1.205366 -68.238014 408.539032
  endloop
 facet normal -0.366539 0.048333 -0.929146
  outer loop
   vertex -1.205366 -68.238014 408.539032
   vertex -0.492348 -69.221313 408.206604
   vertex -1.204452 -69.236641 408.486725
  endloop
 facet normal -0.366505 0.048361 -0.929158
  outer loop
   vertex -0.493261 -68.222679 408.258942
   vertex -0.492348 -69.221313 408.206604
   vertex -1.205366 -68.238014 408.539032
  endloop
 facet normal -0.398750 -0.048361 0.915784
  outer loop
   vertex -0.851660 -70.760849 418.662476
   vertex -0.675273 -71.763306 418.686340
   vertex -0.676186 -70.764679 418.738678
  endloop
 facet normal 0.366573 -0.048360 0.929131
  outer loop
   vertex -0.676186 -70.764679 418.738678
   vertex -0.675273 -71.763306 418.686340
   vertex -0.497247 -71.759476 418.616302
  endloop
 facet normal 0.366573 -0.048360 0.929131
  outer loop
   vertex -0.497247 -71.759476 418.616302
   vertex -0.498160 -70.760849 418.668640
   vertex -0.676186 -70.764679 418.738678
  endloop
 facet normal 0.917071 -0.020032 0.398220
  outer loop
   vertex -0.420954 -71.750221 418.441071
   vertex -0.498160 -70.760849 418.668640
   vertex -0.497247 -71.759476 418.616302
  endloop
 facet normal 0.917071 -0.020032 0.398220
  outer loop
   vertex -0.421867 -70.751595 418.493408
   vertex -0.498160 -70.760849 418.668640
   vertex -0.420954 -71.750221 418.441071
  endloop
 facet normal 0.930394 0.020034 -0.366014
  outer loop
   vertex -0.420954 -71.750221 418.441071
   vertex -0.491085 -71.740974 418.263306
   vertex -0.421867 -70.751595 418.493408
  endloop
 facet normal 0.930416 0.020020 -0.365959
  outer loop
   vertex -0.421867 -70.751595 418.493408
   vertex -0.491085 -71.740974 418.263306
   vertex -0.491998 -70.742340 418.315613
  endloop
 facet normal 0.398752 0.048332 -0.915784
  outer loop
   vertex -0.491998 -70.742340 418.315613
   vertex -0.491085 -71.740974 418.263306
   vertex -0.666559 -71.737137 418.187103
  endloop
 facet normal 0.398616 0.048364 -0.915842
  outer loop
   vertex -0.666559 -71.737137 418.187103
   vertex -0.667472 -70.738510 418.239441
   vertex -0.491998 -70.742340 418.315613
  endloop
 facet normal -0.366575 0.048360 -0.929131
  outer loop
   vertex -0.844584 -71.740974 418.257141
   vertex -0.667472 -70.738510 418.239441
   vertex -0.666559 -71.737137 418.187103
  endloop
 facet normal -0.366436 0.048334 -0.929187
  outer loop
   vertex -0.845498 -70.742340 418.309448
   vertex -0.667472 -70.738510 418.239441
   vertex -0.844584 -71.740974 418.257141
  endloop
 facet normal -0.917071 0.020019 -0.398221
  outer loop
   vertex -0.844584 -71.740974 418.257141
   vertex -0.920878 -71.750221 418.432373
   vertex -0.845498 -70.742340 418.309448
  endloop
 facet normal -0.917071 0.020020 -0.398221
  outer loop
   vertex -0.845498 -70.742340 418.309448
   vertex -0.920878 -71.750221 418.432373
   vertex -0.921791 -70.751595 418.484680
  endloop
 facet normal -0.930394 -0.020022 0.366013
  outer loop
   vertex -0.921791 -70.751595 418.484680
   vertex -0.920878 -71.750221 418.432373
   vertex -0.850747 -71.759476 418.610138
  endloop
 facet normal -0.930416 -0.020031 0.365958
  outer loop
   vertex -0.850747 -71.759476 418.610138
   vertex -0.851660 -70.760849 418.662476
   vertex -0.921791 -70.751595 418.484680
  endloop
 facet normal -0.398750 -0.048361 0.915784
  outer loop
   vertex -0.675273 -71.763306 418.686340
   vertex -0.851660 -70.760849 418.662476
   vertex -0.850747 -71.759476 418.610138
  endloop
 facet normal -0.398717 -0.048333 0.915799
  outer loop
   vertex -1.392970 -68.801369 419.286865
   vertex -0.690162 -69.815323 419.539337
   vertex -0.691076 -68.816696 419.591644
  endloop
 facet normal 0.366539 -0.048333 0.929146
  outer loop
   vertex -0.691076 -68.816696 419.591644
   vertex -0.690162 -69.815323 419.539337
   vertex 0.021942 -69.799995 419.259216
  endloop
 facet normal 0.366505 -0.048362 0.929158
  outer loop
   vertex 0.021942 -69.799995 419.259216
   vertex 0.021028 -68.801369 419.311554
   vertex -0.691076 -68.816696 419.591644
  endloop
 facet normal 0.917065 -0.020032 0.398235
  outer loop
   vertex 0.327114 -69.762985 418.558319
   vertex 0.021028 -68.801369 419.311554
   vertex 0.021942 -69.799995 419.259216
  endloop
 facet normal 0.917071 -0.020020 0.398221
  outer loop
   vertex 0.326201 -68.764359 418.610626
   vertex 0.021028 -68.801369 419.311554
   vertex 0.327114 -69.762985 418.558319
  endloop
 facet normal 0.930410 0.020020 -0.365973
  outer loop
   vertex 0.327114 -69.762985 418.558319
   vertex 0.046589 -69.725983 417.847168
   vertex 0.326201 -68.764359 418.610626
  endloop
 facet normal 0.930405 0.020032 -0.365986
  outer loop
   vertex 0.326201 -68.764359 418.610626
   vertex 0.046589 -69.725983 417.847168
   vertex 0.045676 -68.727348 417.899506
  endloop
 facet normal 0.398717 0.048361 -0.915798
  outer loop
   vertex 0.045676 -68.727348 417.899506
   vertex 0.046589 -69.725983 417.847168
   vertex -0.655305 -69.710655 417.542389
  endloop
 facet normal 0.398751 0.048332 -0.915785
  outer loop
   vertex -0.655305 -69.710655 417.542389
   vertex -0.656218 -68.712021 417.594696
   vertex 0.045676 -68.727348 417.899506
  endloop
 facet normal -0.366505 0.048333 -0.929160
  outer loop
   vertex -1.367409 -69.725983 417.822479
   vertex -0.656218 -68.712021 417.594696
   vertex -0.655305 -69.710655 417.542389
  endloop
 facet normal -0.366539 0.048360 -0.929145
  outer loop
   vertex -1.368322 -68.727348 417.874817
   vertex -0.656218 -68.712021 417.594696
   vertex -1.367409 -69.725983 417.822479
  endloop
 facet normal -0.917071 0.020032 -0.398220
  outer loop
   vertex -1.367409 -69.725983 417.822479
   vertex -1.672581 -69.762985 418.523407
   vertex -1.368322 -68.727348 417.874817
  endloop
 facet normal -0.917065 0.020020 -0.398235
  outer loop
   vertex -1.368322 -68.727348 417.874817
   vertex -1.672581 -69.762985 418.523407
   vertex -1.673495 -68.764359 418.575714
  endloop
 facet normal -0.930405 -0.020021 0.365986
  outer loop
   vertex -1.673495 -68.764359 418.575714
   vertex -1.672581 -69.762985 418.523407
   vertex -1.392057 -69.799995 419.234528
  endloop
 facet normal -0.930410 -0.020032 0.365972
  outer loop
   vertex -1.392057 -69.799995 419.234528
   vertex -1.392970 -68.801369 419.286865
   vertex -1.673495 -68.764359 418.575714
  endloop
 facet normal -0.398750 -0.048361 0.915783
  outer loop
   vertex -0.690162 -69.815323 419.539337
   vertex -1.392970 -68.801369 419.286865
   vertex -1.392057 -69.799995 419.234528
  endloop
 facet normal -0.327238 -0.608498 0.722942
  outer loop
   vertex -1.392057 -69.799995 419.234528
   vertex -0.676177 -70.774704 418.738159
   vertex -0.690162 -69.815323 419.539337
  endloop
 facet normal 0.301848 -0.608490 0.733913
  outer loop
   vertex -0.690162 -69.815323 419.539337
   vertex -0.676177 -70.774704 418.738159
   vertex -0.498151 -70.770866 418.668121
  endloop
 facet normal 0.301800 -0.608505 0.733920
  outer loop
   vertex -0.498151 -70.770866 418.668121
   vertex 0.021942 -69.799995 419.259216
   vertex -0.690162 -69.815323 419.539337
  endloop
 facet normal 0.754310 -0.585228 0.297532
  outer loop
   vertex -0.421858 -70.761620 418.492889
   vertex 0.021942 -69.799995 419.259216
   vertex -0.498151 -70.770866 418.668121
  endloop
 facet normal 0.754313 -0.585226 0.297528
  outer loop
   vertex 0.327114 -69.762985 418.558319
   vertex 0.021942 -69.799995 419.259216
   vertex -0.421858 -70.761620 418.492889
  endloop
 facet normal 0.765285 -0.552299 -0.330613
  outer loop
   vertex -0.421858 -70.761620 418.492889
   vertex -0.491989 -70.752365 418.315094
   vertex 0.327114 -69.762985 418.558319
  endloop
 facet normal 0.765284 -0.552298 -0.330616
  outer loop
   vertex 0.327114 -69.762985 418.558319
   vertex -0.491989 -70.752365 418.315094
   vertex 0.046589 -69.725983 417.847168
  endloop
 facet normal 0.328284 -0.529020 -0.782539
  outer loop
   vertex 0.046589 -69.725983 417.847168
   vertex -0.491989 -70.752365 418.315094
   vertex -0.667463 -70.748535 418.238892
  endloop
 facet normal 0.328254 -0.529007 -0.782560
  outer loop
   vertex -0.667463 -70.748535 418.238892
   vertex -0.655305 -69.710655 417.542389
   vertex 0.046589 -69.725983 417.847168
  endloop
 facet normal -0.300803 -0.528996 -0.793524
  outer loop
   vertex -0.845489 -70.752365 418.308929
   vertex -0.655305 -69.710655 417.542389
   vertex -0.667463 -70.748535 418.238892
  endloop
 facet normal -0.300733 -0.529018 -0.793536
  outer loop
   vertex -1.367409 -69.725983 417.822479
   vertex -0.655305 -69.710655 417.542389
   vertex -0.845489 -70.752365 418.308929
  endloop
 facet normal -0.753272 -0.552303 -0.357131
  outer loop
   vertex -0.845489 -70.752365 418.308929
   vertex -0.921782 -70.761620 418.484161
   vertex -1.367409 -69.725983 417.822479
  endloop
 facet normal -0.753279 -0.552300 -0.357122
  outer loop
   vertex -1.367409 -69.725983 417.822479
   vertex -0.921782 -70.761620 418.484161
   vertex -1.672581 -69.762985 418.523407
  endloop
 facet normal -0.764239 -0.585225 0.271016
  outer loop
   vertex -1.672581 -69.762985 418.523407
   vertex -0.921782 -70.761620 418.484161
   vertex -0.851651 -70.770866 418.661957
  endloop
 facet normal -0.764238 -0.585224 0.271020
  outer loop
   vertex -0.851651 -70.770866 418.661957
   vertex -1.392057 -69.799995 419.234528
   vertex -1.672581 -69.762985 418.523407
  endloop
 facet normal -0.327253 -0.608504 0.722931
  outer loop
   vertex -0.676177 -70.774704 418.738159
   vertex -1.392057 -69.799995 419.234528
   vertex -0.851651 -70.770866 418.661957
  endloop
 facet normal 0.398618 0.048336 -0.915842
  outer loop
   vertex -0.503601 -71.247795 408.851349
   vertex -0.504515 -70.249168 408.903656
   vertex -0.328128 -71.251633 408.927521
  endloop
 facet normal 0.398750 0.048360 -0.915784
  outer loop
   vertex -0.328128 -71.251633 408.927521
   vertex -0.504515 -70.249168 408.903656
   vertex -0.329041 -70.252998 408.979858
  endloop
 facet normal 0.930415 0.020031 -0.365959
  outer loop
   vertex -0.329041 -70.252998 408.979858
   vertex -0.257997 -71.260880 409.105316
   vertex -0.328128 -71.251633 408.927521
  endloop
 facet normal 0.930416 0.020031 -0.365959
  outer loop
   vertex -0.258910 -70.262253 409.157654
   vertex -0.257997 -71.260880 409.105316
   vertex -0.329041 -70.252998 408.979858
  endloop
 facet normal 0.917071 -0.020032 0.398220
  outer loop
   vertex -0.334290 -71.270134 409.280548
   vertex -0.257997 -71.260880 409.105316
   vertex -0.258910 -70.262253 409.157654
  endloop
 facet normal 0.917071 -0.020032 0.398220
  outer loop
   vertex -0.258910 -70.262253 409.157654
   vertex -0.335203 -70.271507 409.332886
   vertex -0.334290 -71.270134 409.280548
  endloop
 facet normal 0.366573 -0.048360 0.929131
  outer loop
   vertex -0.334290 -71.270134 409.280548
   vertex -0.335203 -70.271507 409.332886
   vertex -0.512316 -71.273964 409.350586
  endloop
 facet normal 0.366436 -0.048335 0.929187
  outer loop
   vertex -0.512316 -71.273964 409.350586
   vertex -0.335203 -70.271507 409.332886
   vertex -0.513229 -70.275337 409.402893
  endloop
 facet normal -0.398750 -0.048333 0.915785
  outer loop
   vertex -0.513229 -70.275337 409.402893
   vertex -0.687789 -71.270134 409.274384
   vertex -0.512316 -71.273964 409.350586
  endloop
 facet normal -0.398616 -0.048364 0.915842
  outer loop
   vertex -0.688703 -70.271507 409.326721
   vertex -0.687789 -71.270134 409.274384
   vertex -0.513229 -70.275337 409.402893
  endloop
 facet normal -0.930415 -0.020031 0.365959
  outer loop
   vertex -0.757921 -71.260880 409.096588
   vertex -0.687789 -71.270134 409.274384
   vertex -0.688703 -70.271507 409.326721
  endloop
 facet normal -0.930415 -0.020031 0.365959
  outer loop
   vertex -0.688703 -70.271507 409.326721
   vertex -0.758834 -70.262253 409.148926
   vertex -0.757921 -71.260880 409.096588
  endloop
 facet normal -0.917071 0.020032 -0.398220
  outer loop
   vertex -0.757921 -71.260880 409.096588
   vertex -0.758834 -70.262253 409.148926
   vertex -0.681628 -71.251633 408.921356
  endloop
 facet normal -0.917071 0.020032 -0.398219
  outer loop
   vertex -0.681628 -71.251633 408.921356
   vertex -0.758834 -70.262253 409.148926
   vertex -0.682541 -70.252998 408.973694
  endloop
 facet normal -0.366437 0.048363 -0.929185
  outer loop
   vertex -0.682541 -70.252998 408.973694
   vertex -0.503601 -71.247795 408.851349
   vertex -0.681628 -71.251633 408.921356
  endloop
 facet normal -0.366573 0.048332 -0.929133
  outer loop
   vertex -0.504515 -70.249168 408.903656
   vertex -0.503601 -71.247795 408.851349
   vertex -0.682541 -70.252998 408.973694
  endloop
 facet normal -0.300794 -0.529033 -0.793503
  outer loop
   vertex -0.682532 -70.263023 408.973175
   vertex -1.204452 -69.236641 408.486725
   vertex -0.504506 -70.259193 408.903137
  endloop
 facet normal -0.300762 -0.529020 -0.793524
  outer loop
   vertex -0.504506 -70.259193 408.903137
   vertex -1.204452 -69.236641 408.486725
   vertex -0.492348 -69.221313 408.206604
  endloop
 facet normal 0.328285 -0.529018 -0.782540
  outer loop
   vertex -0.492348 -69.221313 408.206604
   vertex -0.329032 -70.263023 408.979340
   vertex -0.504506 -70.259193 408.903137
  endloop
 facet normal 0.328280 -0.529019 -0.782542
  outer loop
   vertex 0.209547 -69.236641 408.511414
   vertex -0.329032 -70.263023 408.979340
   vertex -0.492348 -69.221313 408.206604
  endloop
 facet normal 0.765285 -0.552298 -0.330614
  outer loop
   vertex -0.258901 -70.272278 409.157135
   vertex -0.329032 -70.263023 408.979340
   vertex 0.209547 -69.236641 408.511414
  endloop
 facet normal 0.765276 -0.552302 -0.330627
  outer loop
   vertex 0.209547 -69.236641 408.511414
   vertex 0.490071 -69.273643 409.222534
   vertex -0.258901 -70.272278 409.157135
  endloop
 facet normal 0.754315 -0.585219 0.297535
  outer loop
   vertex -0.258901 -70.272278 409.157135
   vertex 0.490071 -69.273643 409.222534
   vertex -0.335194 -70.281525 409.332367
  endloop
 facet normal 0.754319 -0.585224 0.297517
  outer loop
   vertex -0.335194 -70.281525 409.332367
   vertex 0.490071 -69.273643 409.222534
   vertex 0.184899 -69.310654 409.923462
  endloop
 facet normal 0.301739 -0.608494 0.733954
  outer loop
   vertex 0.184899 -69.310654 409.923462
   vertex -0.513220 -70.285362 409.402374
   vertex -0.335194 -70.281525 409.332367
  endloop
 facet normal 0.301773 -0.608506 0.733931
  outer loop
   vertex -0.527205 -69.325981 410.203552
   vertex -0.513220 -70.285362 409.402374
   vertex 0.184899 -69.310654 409.923462
  endloop
 facet normal -0.327255 -0.608494 0.722937
  outer loop
   vertex -0.688694 -70.281525 409.326172
   vertex -0.513220 -70.285362 409.402374
   vertex -0.527205 -69.325981 410.203552
  endloop
 facet normal -0.327208 -0.608510 0.722946
  outer loop
   vertex -0.527205 -69.325981 410.203552
   vertex -1.229099 -69.310654 409.898773
   vertex -0.688694 -70.281525 409.326172
  endloop
 facet normal -0.764216 -0.585239 0.271053
  outer loop
   vertex -0.688694 -70.281525 409.326172
   vertex -1.229099 -69.310654 409.898773
   vertex -0.758825 -70.272278 409.148407
  endloop
 facet normal -0.764244 -0.585221 0.271012
  outer loop
   vertex -0.758825 -70.272278 409.148407
   vertex -1.229099 -69.310654 409.898773
   vertex -1.509624 -69.273643 409.187622
  endloop
 facet normal -0.753271 -0.552305 -0.357130
  outer loop
   vertex -1.509624 -69.273643 409.187622
   vertex -0.682532 -70.263023 408.973175
   vertex -0.758825 -70.272278 409.148407
  endloop
 facet normal -0.753271 -0.552304 -0.357133
  outer loop
   vertex -1.204452 -69.236641 408.486725
   vertex -0.682532 -70.263023 408.973175
   vertex -1.509624 -69.273643 409.187622
  endloop
endsolid