solid stl file generated from DOUG
 facet normal 0.865947 -0.492131 -0.089126
  outer loop
   vertex 31.337038 208.593185 326.777588
   vertex 31.356520 208.649628 326.655212
   vertex 35.789310 215.730392 330.625977
  endloop
 facet normal 0.629367 0.041172 -0.776017
  outer loop
   vertex 35.789310 215.730392 330.625977
   vertex 31.356520 208.649628 326.655212
   vertex 35.726444 215.796371 330.578491
  endloop
 facet normal -0.118507 0.541084 -0.832577
  outer loop
   vertex 36.445587 214.964752 331.258636
   vertex 36.564022 214.917343 331.210968
   vertex 32.131233 207.836578 327.240204
  endloop
 facet normal 0.629367 0.041172 -0.776017
  outer loop
   vertex 32.131233 207.836578 327.240204
   vertex 36.564022 214.917343 331.210968
   vertex 36.626888 214.851364 331.258453
  endloop
 facet normal 0.629227 0.041322 -0.776122
  outer loop
   vertex 36.626888 214.851364 331.258453
   vertex 32.194099 207.770599 327.287659
   vertex 32.131233 207.836578 327.240204
  endloop
 facet normal 0.806938 -0.191925 -0.558584
  outer loop
   vertex 36.165783 214.821152 331.827087
   vertex 31.732994 207.740372 327.856323
   vertex 36.154160 214.841827 331.803192
  endloop
 facet normal 0.806906 -0.191869 -0.558649
  outer loop
   vertex 36.154160 214.841827 331.803192
   vertex 31.732994 207.740372 327.856323
   vertex 31.721367 207.761047 327.832428
  endloop
 facet normal 0.611805 -0.642080 0.461982
  outer loop
   vertex 31.721367 207.761047 327.832428
   vertex 32.083313 207.784775 327.386078
   vertex 36.154160 214.841827 331.803192
  endloop
 facet normal 0.865944 -0.492139 -0.089108
  outer loop
   vertex 35.789310 215.730392 330.625977
   vertex 35.769829 215.673950 330.748383
   vertex 31.337038 208.593185 326.777588
  endloop
 facet normal 0.629293 0.041252 -0.776072
  outer loop
   vertex 31.337038 208.593185 326.777588
   vertex 35.769829 215.673950 330.748383
   vertex 36.445587 214.964752 331.258636
  endloop
 facet normal 0.629305 0.041237 -0.776064
  outer loop
   vertex 36.445587 214.964752 331.258636
   vertex 32.012798 207.883972 327.287872
   vertex 31.337038 208.593185 326.777588
  endloop
 facet normal -0.118560 0.541104 -0.832556
  outer loop
   vertex 32.131233 207.836578 327.240204
   vertex 32.012798 207.883972 327.287872
   vertex 36.445587 214.964752 331.258636
  endloop
 facet normal 0.611829 -0.642080 0.461951
  outer loop
   vertex 32.194099 207.770599 327.287659
   vertex 36.626888 214.851364 331.258453
   vertex 32.110138 207.765091 327.391205
  endloop
 facet normal 0.611728 -0.642085 0.462077
  outer loop
   vertex 32.110138 207.765091 327.391205
   vertex 36.626888 214.851364 331.258453
   vertex 36.542931 214.845871 331.361969
  endloop
 facet normal -0.367594 -0.269085 0.890207
  outer loop
   vertex 36.542931 214.845871 331.361969
   vertex 32.083313 207.784775 327.386078
   vertex 32.110138 207.765091 327.391205
  endloop
 facet normal -0.367497 -0.269157 0.890225
  outer loop
   vertex 36.516106 214.865540 331.356842
   vertex 32.083313 207.784775 327.386078
   vertex 36.542931 214.845871 331.361969
  endloop
 facet normal 0.611794 -0.642082 0.461995
  outer loop
   vertex 36.154160 214.841827 331.803192
   vertex 32.083313 207.784775 327.386078
   vertex 36.516106 214.865540 331.356842
  endloop
 facet normal 0.479236 0.765532 0.429295
  outer loop
   vertex 35.985786 216.220200 330.787201
   vertex 36.378155 215.218643 332.135193
   vertex 36.907085 215.253311 331.482910
  endloop
 facet normal 0.611807 -0.642078 0.461983
  outer loop
   vertex 36.907085 215.253311 331.482910
   vertex 36.378155 215.218643 332.135193
   vertex 36.427837 214.487778 331.053619
  endloop
 facet normal 0.629307 0.041229 -0.776062
  outer loop
   vertex 36.427837 214.487778 331.053619
   vertex 35.506542 215.454666 330.357910
   vertex 36.907085 215.253311 331.482910
  endloop
 facet normal -0.479246 -0.765532 -0.429283
  outer loop
   vertex 35.898911 214.453125 331.705902
   vertex 35.506542 215.454666 330.357910
   vertex 36.427837 214.487778 331.053619
  endloop
 facet normal -0.479246 -0.765532 -0.429283
  outer loop
   vertex 34.977615 215.420013 331.010193
   vertex 35.506542 215.454666 330.357910
   vertex 35.898911 214.453125 331.705902
  endloop
 facet normal -0.629309 -0.041231 0.776061
  outer loop
   vertex 35.898911 214.453125 331.705902
   vertex 36.378155 215.218643 332.135193
   vertex 34.977615 215.420013 331.010193
  endloop
 facet normal -0.629310 -0.041260 0.776058
  outer loop
   vertex 34.977615 215.420013 331.010193
   vertex 36.378155 215.218643 332.135193
   vertex 35.456860 216.185532 331.439514
  endloop
 facet normal 0.479253 0.765526 0.429286
  outer loop
   vertex 35.456860 216.185532 331.439514
   vertex 36.378155 215.218643 332.135193
   vertex 35.985786 216.220200 330.787201
  endloop
 facet normal -0.611820 0.642075 -0.461969
  outer loop
   vertex 35.985786 216.220200 330.787201
   vertex 35.506542 215.454666 330.357910
   vertex 35.456860 216.185532 331.439514
  endloop
 facet normal 0.629307 0.041232 -0.776062
  outer loop
   vertex 36.907085 215.253311 331.482910
   vertex 35.506542 215.454666 330.357910
   vertex 35.985786 216.220200 330.787201
  endloop
 facet normal 0.479242 0.765525 0.429299
  outer loop
   vertex 32.437546 208.113846 327.479218
   vertex 31.516251 209.080734 326.783539
   vertex 31.908617 208.079178 328.131500
  endloop
 facet normal 0.479242 0.765525 0.429299
  outer loop
   vertex 31.908617 208.079178 328.131500
   vertex 31.516251 209.080734 326.783539
   vertex 30.987322 209.046066 327.435822
  endloop
 facet normal -0.629299 -0.041241 0.776069
  outer loop
   vertex 30.987322 209.046066 327.435822
   vertex 30.508078 208.280533 327.006531
   vertex 31.908617 208.079178 328.131500
  endloop
 facet normal -0.611809 0.642076 -0.461983
  outer loop
   vertex 31.516251 209.080734 326.783539
   vertex 30.508078 208.280533 327.006531
   vertex 30.987322 209.046066 327.435822
  endloop
 facet normal -0.611809 0.642076 -0.461983
  outer loop
   vertex 31.037006 208.315201 326.354248
   vertex 30.508078 208.280533 327.006531
   vertex 31.516251 209.080734 326.783539
  endloop
 facet normal 0.629299 0.041241 -0.776069
  outer loop
   vertex 31.516251 209.080734 326.783539
   vertex 31.958302 207.348312 327.049927
   vertex 31.037006 208.315201 326.354248
  endloop
 facet normal -0.479242 -0.765525 -0.429299
  outer loop
   vertex 31.037006 208.315201 326.354248
   vertex 31.958302 207.348312 327.049927
   vertex 30.508078 208.280533 327.006531
  endloop
 facet normal -0.479242 -0.765525 -0.429299
  outer loop
   vertex 30.508078 208.280533 327.006531
   vertex 31.958302 207.348312 327.049927
   vertex 31.429373 207.313644 327.702209
  endloop
 facet normal -0.629299 -0.041241 0.776069
  outer loop
   vertex 31.429373 207.313644 327.702209
   vertex 31.908617 208.079178 328.131500
   vertex 30.508078 208.280533 327.006531
  endloop
 facet normal 0.611809 -0.642076 0.461983
  outer loop
   vertex 31.958302 207.348312 327.049927
   vertex 31.908617 208.079178 328.131500
   vertex 31.429373 207.313644 327.702209
  endloop
 facet normal 0.611809 -0.642076 0.461983
  outer loop
   vertex 32.437546 208.113846 327.479218
   vertex 31.908617 208.079178 328.131500
   vertex 31.958302 207.348312 327.049927
  endloop
 facet normal 0.629299 0.041241 -0.776069
  outer loop
   vertex 31.958302 207.348312 327.049927
   vertex 31.516251 209.080734 326.783539
   vertex 32.437546 208.113846 327.479218
  endloop
 facet normal 0.629367 0.041172 -0.776017
  outer loop
   vertex 31.356520 208.649628 326.655212
   vertex 31.293653 208.715607 326.607727
   vertex 35.726444 215.796371 330.578491
  endloop
 facet normal -0.611835 0.642079 -0.461944
  outer loop
   vertex 35.726444 215.796371 330.578491
   vertex 31.293653 208.715607 326.607727
   vertex 31.209694 208.710098 326.711273
  endloop
 facet normal -0.611840 0.642079 -0.461938
  outer loop
   vertex 31.209694 208.710098 326.711273
   vertex 35.642487 215.790863 330.682037
   vertex 35.726444 215.796371 330.578491
  endloop
 facet normal -0.806922 0.191897 0.558617
  outer loop
   vertex 31.221319 208.689423 326.735168
   vertex 35.642487 215.790863 330.682037
   vertex 31.209694 208.710098 326.711273
  endloop
 facet normal -0.806968 0.191978 0.558523
  outer loop
   vertex 35.654110 215.770203 330.705933
   vertex 35.642487 215.790863 330.682037
   vertex 31.221319 208.689423 326.735168
  endloop
 facet normal -0.611795 0.642081 -0.461995
  outer loop
   vertex 31.221319 208.689423 326.735168
   vertex 30.859373 208.665710 327.181519
   vertex 35.654110 215.770203 330.705933
  endloop
 facet normal -0.611805 0.642081 -0.461982
  outer loop
   vertex 35.654110 215.770203 330.705933
   vertex 30.859373 208.665710 327.181519
   vertex 35.292164 215.746475 331.152283
  endloop
 facet normal 0.368140 0.268685 -0.890102
  outer loop
   vertex 35.292164 215.746475 331.152283
   vertex 30.859373 208.665710 327.181519
   vertex 30.832548 208.685379 327.176361
  endloop
 facet normal 0.367595 0.269088 -0.890205
  outer loop
   vertex 30.832548 208.685379 327.176361
   vertex 35.265339 215.766159 331.147156
   vertex 35.292164 215.746475 331.152283
  endloop
 facet normal -0.611889 0.642076 -0.461877
  outer loop
   vertex 30.790890 208.682648 327.227753
   vertex 35.265339 215.766159 331.147156
   vertex 30.832548 208.685379 327.176361
  endloop
 facet normal -0.611745 0.642084 -0.462057
  outer loop
   vertex 35.223679 215.763428 331.198517
   vertex 35.265339 215.766159 331.147156
   vertex 30.790890 208.682648 327.227753
  endloop
 facet normal -0.629299 -0.041243 0.776068
  outer loop
   vertex 30.790890 208.682648 327.227753
   vertex 31.691334 207.737640 327.907684
   vertex 35.223679 215.763428 331.198517
  endloop
 facet normal -0.629298 -0.041244 0.776069
  outer loop
   vertex 35.223679 215.763428 331.198517
   vertex 31.691334 207.737640 327.907684
   vertex 36.124126 214.818420 331.878448
  endloop
 facet normal 0.611767 -0.642083 0.462029
  outer loop
   vertex 36.124126 214.818420 331.878448
   vertex 31.691334 207.737640 327.907684
   vertex 36.165783 214.821152 331.827087
  endloop
 facet normal 0.611797 -0.642084 0.461987
  outer loop
   vertex 35.898911 214.453125 331.705902
   vertex 36.427837 214.487778 331.053619
   vertex 36.378155 215.218643 332.135193
  endloop
 facet normal -0.611791 0.642095 -0.461981
  outer loop
   vertex 35.506542 215.454666 330.357910
   vertex 34.977615 215.420013 331.010193
   vertex 35.456860 216.185532 331.439514
  endloop
 facet normal 0.611745 -0.642084 0.462057
  outer loop
   vertex 31.691334 207.737640 327.907684
   vertex 31.732994 207.740372 327.856323
   vertex 36.165783 214.821152 331.827087
  endloop
 facet normal -0.676892 -0.461535 -0.573413
  outer loop
   vertex 29.502218 207.325195 328.640594
   vertex 28.872917 207.283951 329.416656
   vertex 29.209976 208.003433 328.439667
  endloop
 facet normal -0.676892 -0.461535 -0.573413
  outer loop
   vertex 29.209976 208.003433 328.439667
   vertex 28.872917 207.283951 329.416656
   vertex 28.580675 207.962189 329.215729
  endloop
 facet normal -0.748632 0.300249 -0.591101
  outer loop
   vertex 28.580675 207.962189 329.215729
   vertex 29.369659 208.732803 328.607910
   vertex 29.209976 208.003433 328.439667
  endloop
 facet normal -0.748632 0.300249 -0.591101
  outer loop
   vertex 28.740358 208.691559 329.383972
   vertex 29.369659 208.732803 328.607910
   vertex 28.580675 207.962189 329.215729
  endloop
 facet normal -0.381841 0.886156 -0.262535
  outer loop
   vertex 29.887730 209.086060 329.046783
   vertex 29.369659 208.732803 328.607910
   vertex 28.740358 208.691559 329.383972
  endloop
 facet normal -0.381841 0.886156 -0.262535
  outer loop
   vertex 28.740358 208.691559 329.383972
   vertex 29.258429 209.044815 329.822845
   vertex 29.887730 209.086060 329.046783
  endloop
 facet normal 0.208647 0.952963 0.219836
  outer loop
   vertex 29.887730 209.086060 329.046783
   vertex 29.258429 209.044815 329.822845
   vertex 30.460709 208.856247 329.499176
  endloop
 facet normal 0.208648 0.952963 0.219837
  outer loop
   vertex 30.460709 208.856247 329.499176
   vertex 29.258429 209.044815 329.822845
   vertex 29.831406 208.815002 330.275238
  endloop
 facet normal 0.676890 0.461537 0.573414
  outer loop
   vertex 29.831406 208.815002 330.275238
   vertex 30.752953 208.178009 329.700104
   vertex 30.460709 208.856247 329.499176
  endloop
 facet normal 0.676893 0.461566 0.573386
  outer loop
   vertex 30.123650 208.136780 330.476196
   vertex 30.752953 208.178009 329.700104
   vertex 29.831406 208.815002 330.275238
  endloop
 facet normal 0.748639 -0.300251 0.591091
  outer loop
   vertex 30.593267 207.448639 329.531860
   vertex 30.752953 208.178009 329.700104
   vertex 30.123650 208.136780 330.476196
  endloop
 facet normal 0.748624 -0.300272 0.591100
  outer loop
   vertex 30.123650 208.136780 330.476196
   vertex 29.963966 207.407410 330.307922
   vertex 30.593267 207.448639 329.531860
  endloop
 facet normal 0.381827 -0.886160 0.262542
  outer loop
   vertex 30.593267 207.448639 329.531860
   vertex 29.963966 207.407410 330.307922
   vertex 30.075197 207.095398 329.093018
  endloop
 facet normal 0.381848 -0.886151 0.262541
  outer loop
   vertex 30.075197 207.095398 329.093018
   vertex 29.963966 207.407410 330.307922
   vertex 29.445896 207.054153 329.869080
  endloop
 facet normal -0.208627 -0.952971 -0.219820
  outer loop
   vertex 29.445896 207.054153 329.869080
   vertex 29.502218 207.325195 328.640594
   vertex 30.075197 207.095398 329.093018
  endloop
 facet normal -0.208627 -0.952971 -0.219820
  outer loop
   vertex 28.872917 207.283951 329.416656
   vertex 29.502218 207.325195 328.640594
   vertex 29.445896 207.054153 329.869080
  endloop
 facet normal 0.676856 0.461620 0.573387
  outer loop
   vertex 35.278255 215.311050 332.473083
   vertex 35.834496 215.521851 331.646759
   vertex 35.205196 215.480606 332.422821
  endloop
 facet normal 0.208636 0.952968 0.219827
  outer loop
   vertex 35.205196 215.480606 332.422821
   vertex 35.834496 215.521851 331.646759
   vertex 35.691254 215.579300 331.533661
  endloop
 facet normal 0.208632 0.952969 0.219825
  outer loop
   vertex 35.691254 215.579300 331.533661
   vertex 35.061951 215.538055 332.309723
   vertex 35.205196 215.480606 332.422821
  endloop
 facet normal -0.381856 0.886146 -0.262549
  outer loop
   vertex 35.561733 215.490982 331.423950
   vertex 35.061951 215.538055 332.309723
   vertex 35.691254 215.579300 331.533661
  endloop
 facet normal -0.381805 0.886175 -0.262522
  outer loop
   vertex 34.932434 215.449753 332.200012
   vertex 35.061951 215.538055 332.309723
   vertex 35.561733 215.490982 331.423950
  endloop
 facet normal -0.748635 0.300227 -0.591109
  outer loop
   vertex 35.561733 215.490982 331.423950
   vertex 35.521812 215.308640 331.381897
   vertex 34.932434 215.449753 332.200012
  endloop
 facet normal -0.748635 0.300227 -0.591109
  outer loop
   vertex 34.932434 215.449753 332.200012
   vertex 35.521812 215.308640 331.381897
   vertex 34.892513 215.267410 332.157959
  endloop
 facet normal -0.676890 -0.461551 -0.573402
  outer loop
   vertex 34.892513 215.267410 332.157959
   vertex 35.521812 215.308640 331.381897
   vertex 35.594875 215.139084 331.432129
  endloop
 facet normal -0.676903 -0.461506 -0.573423
  outer loop
   vertex 35.594875 215.139084 331.432129
   vertex 34.965572 215.097839 332.208191
   vertex 34.892513 215.267410 332.157959
  endloop
 facet normal -0.208632 -0.952969 -0.219825
  outer loop
   vertex 35.738121 215.081635 331.545227
   vertex 34.965572 215.097839 332.208191
   vertex 35.594875 215.139084 331.432129
  endloop
 facet normal -0.208632 -0.952969 -0.219825
  outer loop
   vertex 35.108818 215.040390 332.321289
   vertex 34.965572 215.097839 332.208191
   vertex 35.738121 215.081635 331.545227
  endloop
 facet normal 0.381861 -0.886142 0.262553
  outer loop
   vertex 35.738121 215.081635 331.545227
   vertex 35.867638 215.169952 331.654938
   vertex 35.108818 215.040390 332.321289
  endloop
 facet normal 0.381861 -0.886142 0.262553
  outer loop
   vertex 35.108818 215.040390 332.321289
   vertex 35.867638 215.169952 331.654938
   vertex 35.238335 215.128708 332.431000
  endloop
 facet normal 0.748636 -0.300227 0.591108
  outer loop
   vertex 35.238335 215.128708 332.431000
   vertex 35.867638 215.169952 331.654938
   vertex 35.907558 215.352295 331.696991
  endloop
 facet normal 0.748628 -0.300316 0.591073
  outer loop
   vertex 35.907558 215.352295 331.696991
   vertex 35.278255 215.311050 332.473083
   vertex 35.238335 215.128708 332.431000
  endloop
 facet normal 0.676895 0.461552 0.573396
  outer loop
   vertex 35.834496 215.521851 331.646759
   vertex 35.278255 215.311050 332.473083
   vertex 35.907558 215.352295 331.696991
  endloop
 facet normal 0.676892 0.461537 0.573412
  outer loop
   vertex 34.604588 215.294449 334.490082
   vertex 34.941643 216.013931 333.513092
   vertex 34.312344 215.972687 334.289154
  endloop
 facet normal 0.208628 0.952971 0.219820
  outer loop
   vertex 34.312344 215.972687 334.289154
   vertex 34.941643 216.013931 333.513092
   vertex 34.368668 216.243729 333.060669
  endloop
 facet normal 0.208626 0.952971 0.219820
  outer loop
   vertex 34.368668 216.243729 333.060669
   vertex 33.739365 216.202484 333.836731
   vertex 34.312344 215.972687 334.289154
  endloop
 facet normal -0.381828 0.886164 -0.262526
  outer loop
   vertex 33.850597 215.890488 332.621796
   vertex 33.739365 216.202484 333.836731
   vertex 34.368668 216.243729 333.060669
  endloop
 facet normal -0.381828 0.886164 -0.262526
  outer loop
   vertex 33.221294 215.849243 333.397858
   vertex 33.739365 216.202484 333.836731
   vertex 33.850597 215.890488 332.621796
  endloop
 facet normal -0.748630 0.300253 -0.591102
  outer loop
   vertex 33.850597 215.890488 332.621796
   vertex 33.690910 215.161118 332.453552
   vertex 33.221294 215.849243 333.397858
  endloop
 facet normal -0.748633 0.300249 -0.591100
  outer loop
   vertex 33.221294 215.849243 333.397858
   vertex 33.690910 215.161118 332.453552
   vertex 33.061611 215.119873 333.229614
  endloop
 facet normal -0.676892 -0.461537 -0.573412
  outer loop
   vertex 33.061611 215.119873 333.229614
   vertex 33.690910 215.161118 332.453552
   vertex 33.983154 214.482880 332.654480
  endloop
 facet normal -0.676894 -0.461558 -0.573392
  outer loop
   vertex 33.983154 214.482880 332.654480
   vertex 33.353855 214.441635 333.430573
   vertex 33.061611 215.119873 333.229614
  endloop
 facet normal -0.208645 -0.952966 -0.219826
  outer loop
   vertex 34.556133 214.253067 333.106903
   vertex 33.353855 214.441635 333.430573
   vertex 33.983154 214.482880 332.654480
  endloop
 facet normal -0.208643 -0.952969 -0.219815
  outer loop
   vertex 33.926830 214.211838 333.882965
   vertex 33.353855 214.441635 333.430573
   vertex 34.556133 214.253067 333.106903
  endloop
 facet normal 0.381832 -0.886157 0.262547
  outer loop
   vertex 34.556133 214.253067 333.106903
   vertex 35.074203 214.606323 333.545776
   vertex 33.926830 214.211838 333.882965
  endloop
 facet normal 0.381828 -0.886164 0.262526
  outer loop
   vertex 33.926830 214.211838 333.882965
   vertex 35.074203 214.606323 333.545776
   vertex 34.444901 214.565079 334.321838
  endloop
 facet normal 0.748631 -0.300249 0.591102
  outer loop
   vertex 34.444901 214.565079 334.321838
   vertex 35.074203 214.606323 333.545776
   vertex 35.233887 215.335693 333.714020
  endloop
 facet normal 0.748632 -0.300253 0.591099
  outer loop
   vertex 35.233887 215.335693 333.714020
   vertex 34.604588 215.294449 334.490082
   vertex 34.444901 214.565079 334.321838
  endloop
 facet normal 0.676892 0.461537 0.573412
  outer loop
   vertex 34.941643 216.013931 333.513092
   vertex 34.604588 215.294449 334.490082
   vertex 35.233887 215.335693 333.714020
  endloop
 facet normal 0.914793 0.402857 0.029314
  outer loop
   vertex 35.233887 215.335693 333.714020
   vertex 35.211514 215.481018 332.415039
   vertex 34.941643 216.013931 333.513092
  endloop
 facet normal 0.529896 0.806796 -0.261325
  outer loop
   vertex 34.941643 216.013931 333.513092
   vertex 35.211514 215.481018 332.415039
   vertex 35.068268 215.538467 332.301941
  endloop
 facet normal 0.529910 0.806788 -0.261321
  outer loop
   vertex 35.068268 215.538467 332.301941
   vertex 34.368668 216.243729 333.060669
   vertex 34.941643 216.013931 333.513092
  endloop
 facet normal 0.044579 0.751880 -0.657791
  outer loop
   vertex 34.938751 215.450165 332.192230
   vertex 34.368668 216.243729 333.060669
   vertex 35.068268 215.538467 332.301941
  endloop
 facet normal 0.044575 0.751879 -0.657792
  outer loop
   vertex 33.850597 215.890488 332.621796
   vertex 34.368668 216.243729 333.060669
   vertex 34.938751 215.450165 332.192230
  endloop
 facet normal -0.256937 0.270246 -0.927874
  outer loop
   vertex 34.938751 215.450165 332.192230
   vertex 34.898830 215.267822 332.150177
   vertex 33.850597 215.890488 332.621796
  endloop
 facet normal -0.256915 0.270280 -0.927870
  outer loop
   vertex 33.850597 215.890488 332.621796
   vertex 34.898830 215.267822 332.150177
   vertex 33.690910 215.161118 332.453552
  endloop
 facet normal -0.197950 -0.355873 -0.913329
  outer loop
   vertex 33.690910 215.161118 332.453552
   vertex 34.898830 215.267822 332.150177
   vertex 34.971889 215.098267 332.200409
  endloop
 facet normal -0.197950 -0.355868 -0.913331
  outer loop
   vertex 34.971889 215.098267 332.200409
   vertex 33.983154 214.482880 332.654480
   vertex 33.690910 215.161118 332.453552
  endloop
 facet normal 0.186890 -0.759776 -0.622746
  outer loop
   vertex 35.115135 215.040802 332.313507
   vertex 33.983154 214.482880 332.654480
   vertex 34.971889 215.098267 332.200409
  endloop
 facet normal 0.186926 -0.759813 -0.622690
  outer loop
   vertex 34.556133 214.253067 333.106903
   vertex 33.983154 214.482880 332.654480
   vertex 35.115135 215.040802 332.313507
  endloop
 facet normal 0.672278 -0.704894 -0.226199
  outer loop
   vertex 35.115135 215.040802 332.313507
   vertex 35.244652 215.129120 332.423218
   vertex 34.556133 214.253067 333.106903
  endloop
 facet normal 0.672274 -0.704896 -0.226206
  outer loop
   vertex 34.556133 214.253067 333.106903
   vertex 35.244652 215.129120 332.423218
   vertex 35.074203 214.606323 333.545776
  endloop
 facet normal 0.973762 -0.223304 0.043858
  outer loop
   vertex 35.074203 214.606323 333.545776
   vertex 35.244652 215.129120 332.423218
   vertex 35.284573 215.311462 332.465271
  endloop
 facet normal 0.973761 -0.223305 0.043857
  outer loop
   vertex 35.284573 215.311462 332.465271
   vertex 35.233887 215.335693 333.714020
   vertex 35.074203 214.606323 333.545776
  endloop
 facet normal 0.914794 0.402856 0.029314
  outer loop
   vertex 35.211514 215.481018 332.415039
   vertex 35.233887 215.335693 333.714020
   vertex 35.284573 215.311462 332.465271
  endloop
 facet normal -0.676887 -0.461545 -0.573412
  outer loop
   vertex 31.113939 207.981415 327.418213
   vertex 30.484636 207.940170 328.194275
   vertex 31.040878 208.150970 327.367981
  endloop
 facet normal -0.676890 -0.461539 -0.573412
  outer loop
   vertex 31.040878 208.150970 327.367981
   vertex 30.484636 207.940170 328.194275
   vertex 30.411577 208.109726 328.144043
  endloop
 facet normal -0.748617 0.300317 -0.591086
  outer loop
   vertex 30.411577 208.109726 328.144043
   vertex 31.080799 208.333313 327.410065
   vertex 31.040878 208.150970 327.367981
  endloop
 facet normal -0.748617 0.300317 -0.591086
  outer loop
   vertex 30.451498 208.292068 328.186127
   vertex 31.080799 208.333313 327.410065
   vertex 30.411577 208.109726 328.144043
  endloop
 facet normal -0.381861 0.886142 -0.262553
  outer loop
   vertex 31.210316 208.421631 327.519775
   vertex 31.080799 208.333313 327.410065
   vertex 30.451498 208.292068 328.186127
  endloop
 facet normal -0.381861 0.886142 -0.262553
  outer loop
   vertex 30.451498 208.292068 328.186127
   vertex 30.581015 208.380386 328.295837
   vertex 31.210316 208.421631 327.519775
  endloop
 facet normal 0.208632 0.952969 0.219824
  outer loop
   vertex 31.210316 208.421631 327.519775
   vertex 30.581015 208.380386 328.295837
   vertex 31.353561 208.364182 327.632874
  endloop
 facet normal 0.208632 0.952969 0.219824
  outer loop
   vertex 31.353561 208.364182 327.632874
   vertex 30.581015 208.380386 328.295837
   vertex 30.724260 208.322937 328.408936
  endloop
 facet normal 0.676901 0.461512 0.573420
  outer loop
   vertex 30.724260 208.322937 328.408936
   vertex 31.426622 208.194611 327.683105
   vertex 31.353561 208.364182 327.632874
  endloop
 facet normal 0.676892 0.461545 0.573405
  outer loop
   vertex 30.797321 208.153381 328.459167
   vertex 31.426622 208.194611 327.683105
   vertex 30.724260 208.322937 328.408936
  endloop
 facet normal 0.748634 -0.300227 0.591110
  outer loop
   vertex 31.386702 208.012268 327.641052
   vertex 31.426622 208.194611 327.683105
   vertex 30.797321 208.153381 328.459167
  endloop
 facet normal 0.748631 -0.300234 0.591109
  outer loop
   vertex 30.797321 208.153381 328.459167
   vertex 30.757399 207.971039 328.417114
   vertex 31.386702 208.012268 327.641052
  endloop
 facet normal 0.381773 -0.886197 0.262497
  outer loop
   vertex 31.386702 208.012268 327.641052
   vertex 30.757399 207.971039 328.417114
   vertex 31.257183 207.923965 327.531311
  endloop
 facet normal 0.381866 -0.886142 0.262546
  outer loop
   vertex 31.257183 207.923965 327.531311
   vertex 30.757399 207.971039 328.417114
   vertex 30.627882 207.882721 328.307404
  endloop
 facet normal -0.208638 -0.952969 -0.219820
  outer loop
   vertex 30.627882 207.882721 328.307404
   vertex 31.113939 207.981415 327.418213
   vertex 31.257183 207.923965 327.531311
  endloop
 facet normal -0.208606 -0.952979 -0.219804
  outer loop
   vertex 30.484636 207.940170 328.194275
   vertex 31.113939 207.981415 327.418213
   vertex 30.627882 207.882721 328.307404
  endloop
 facet normal 0.186906 -0.759821 -0.622687
  outer loop
   vertex 30.634199 207.883133 328.299591
   vertex 30.075197 207.095398 329.093018
   vertex 30.490953 207.940582 328.186493
  endloop
 facet normal 0.186932 -0.759822 -0.622677
  outer loop
   vertex 30.490953 207.940582 328.186493
   vertex 30.075197 207.095398 329.093018
   vertex 29.502218 207.325195 328.640594
  endloop
 facet normal -0.197967 -0.355881 -0.913322
  outer loop
   vertex 29.502218 207.325195 328.640594
   vertex 30.417892 208.110138 328.136261
   vertex 30.490953 207.940582 328.186493
  endloop
 facet normal -0.197972 -0.355875 -0.913324
  outer loop
   vertex 29.209976 208.003433 328.439667
   vertex 30.417892 208.110138 328.136261
   vertex 29.502218 207.325195 328.640594
  endloop
 facet normal -0.256937 0.270246 -0.927874
  outer loop
   vertex 30.457813 208.292480 328.178314
   vertex 30.417892 208.110138 328.136261
   vertex 29.209976 208.003433 328.439667
  endloop
 facet normal -0.256943 0.270283 -0.927862
  outer loop
   vertex 29.209976 208.003433 328.439667
   vertex 29.369659 208.732803 328.607910
   vertex 30.457813 208.292480 328.178314
  endloop
 facet normal 0.044587 0.751915 -0.657751
  outer loop
   vertex 30.457813 208.292480 328.178314
   vertex 29.369659 208.732803 328.607910
   vertex 30.587332 208.380798 328.288055
  endloop
 facet normal 0.044563 0.751874 -0.657800
  outer loop
   vertex 30.587332 208.380798 328.288055
   vertex 29.369659 208.732803 328.607910
   vertex 29.887730 209.086060 329.046783
  endloop
 facet normal 0.529903 0.806790 -0.261328
  outer loop
   vertex 29.887730 209.086060 329.046783
   vertex 30.730576 208.323349 328.401154
   vertex 30.587332 208.380798 328.288055
  endloop
 facet normal 0.529911 0.806789 -0.261316
  outer loop
   vertex 30.460709 208.856247 329.499176
   vertex 30.730576 208.323349 328.401154
   vertex 29.887730 209.086060 329.046783
  endloop
 facet normal 0.914790 0.402864 0.029313
  outer loop
   vertex 30.803637 208.153793 328.451385
   vertex 30.730576 208.323349 328.401154
   vertex 30.460709 208.856247 329.499176
  endloop
 facet normal 0.914793 0.402858 0.029318
  outer loop
   vertex 30.460709 208.856247 329.499176
   vertex 30.752953 208.178009 329.700104
   vertex 30.803637 208.153793 328.451385
  endloop
 facet normal 0.973762 -0.223303 0.043854
  outer loop
   vertex 30.803637 208.153793 328.451385
   vertex 30.752953 208.178009 329.700104
   vertex 30.763716 207.971451 328.409332
  endloop
 facet normal 0.973761 -0.223307 0.043855
  outer loop
   vertex 30.763716 207.971451 328.409332
   vertex 30.752953 208.178009 329.700104
   vertex 30.593267 207.448639 329.531860
  endloop
 facet normal 0.672311 -0.704863 -0.226200
  outer loop
   vertex 30.593267 207.448639 329.531860
   vertex 30.634199 207.883133 328.299591
   vertex 30.763716 207.971451 328.409332
  endloop
 facet normal 0.672257 -0.704908 -0.226218
  outer loop
   vertex 30.075197 207.095398 329.093018
   vertex 30.634199 207.883133 328.299591
   vertex 30.593267 207.448639 329.531860
  endloop
endsolid