solid stl file generated from DOUG
 facet normal 0.237898 -0.050469 0.969978
  outer loop
   vertex -9.692479 -123.316368 457.914581
   vertex -9.824762 -123.318199 457.946930
   vertex -9.807293 -139.972809 457.076080
  endloop
 facet normal -0.640298 -0.040779 0.767043
  outer loop
   vertex -9.807293 -139.972809 457.076080
   vertex -9.824762 -123.318199 457.946930
   vertex -9.886217 -139.969452 457.010376
  endloop
 facet normal -0.998247 0.002046 -0.059148
  outer loop
   vertex -8.826643 -140.007019 457.750153
   vertex -8.834701 -140.014130 457.885895
   vertex -8.852169 -123.359528 458.756744
  endloop
 facet normal -0.640473 -0.040772 0.766898
  outer loop
   vertex -8.852169 -123.359528 458.756744
   vertex -8.834701 -140.014130 457.885895
   vertex -8.755776 -140.017487 457.951630
  endloop
 facet normal -0.640296 -0.040778 0.767045
  outer loop
   vertex -8.755776 -140.017487 457.951630
   vertex -8.773245 -123.362877 458.822449
   vertex -8.852169 -123.359528 458.756744
  endloop
 facet normal -0.322215 -0.049770 0.945357
  outer loop
   vertex -8.286569 -139.987610 457.389618
   vertex -8.304037 -123.333000 458.260468
   vertex -8.318437 -139.987076 457.378784
  endloop
 facet normal -0.322206 -0.049770 0.945360
  outer loop
   vertex -8.318437 -139.987076 457.378784
   vertex -8.304037 -123.333000 458.260468
   vertex -8.335906 -123.332466 458.249634
  endloop
 facet normal 0.768068 -0.032635 0.639536
  outer loop
   vertex -8.335906 -123.332466 458.249634
   vertex -8.704213 -123.355919 458.690765
   vertex -8.318437 -139.987076 457.378784
  endloop
 facet normal 0.237687 -0.050471 0.970030
  outer loop
   vertex -9.807293 -139.972809 457.076080
   vertex -9.675010 -139.970978 457.043762
   vertex -9.692479 -123.316368 457.914581
  endloop
 facet normal -0.640364 -0.040775 0.766989
  outer loop
   vertex -9.692479 -123.316368 457.914581
   vertex -9.675010 -139.970978 457.043762
   vertex -8.826643 -140.007019 457.750153
  endloop
 facet normal -0.640364 -0.040775 0.766989
  outer loop
   vertex -8.826643 -140.007019 457.750153
   vertex -8.844112 -123.352417 458.620972
   vertex -9.692479 -123.316368 457.914581
  endloop
 facet normal -0.998248 0.002045 -0.059128
  outer loop
   vertex -8.852169 -123.359528 458.756744
   vertex -8.844112 -123.352417 458.620972
   vertex -8.826643 -140.007019 457.750153
  endloop
 facet normal 0.768061 -0.032634 0.639545
  outer loop
   vertex -8.773245 -123.362877 458.822449
   vertex -8.755776 -140.017487 457.951630
   vertex -8.687810 -123.357437 458.720123
  endloop
 facet normal 0.768059 -0.032634 0.639548
  outer loop
   vertex -8.687810 -123.357437 458.720123
   vertex -8.755776 -140.017487 457.951630
   vertex -8.670341 -140.012039 457.849304
  endloop
 facet normal 0.873254 0.026356 -0.486552
  outer loop
   vertex -8.670341 -140.012039 457.849304
   vertex -8.704213 -123.355919 458.690765
   vertex -8.687810 -123.357437 458.720123
  endloop
 facet normal 0.873251 0.026357 -0.486557
  outer loop
   vertex -8.686744 -140.010529 457.819946
   vertex -8.704213 -123.355919 458.690765
   vertex -8.670341 -140.012039 457.849304
  endloop
 facet normal 0.768090 -0.032632 0.639510
  outer loop
   vertex -8.318437 -139.987076 457.378784
   vertex -8.704213 -123.355919 458.690765
   vertex -8.686744 -140.010529 457.819946
  endloop
 facet normal 0.001044 -0.998635 -0.052218
  outer loop
   vertex -9.910902 -140.335800 456.994690
   vertex -8.216060 -140.350677 457.313080
   vertex -8.754283 -140.384949 457.957733
  endloop
 facet normal 0.768072 -0.032634 0.639531
  outer loop
   vertex -8.754283 -140.384949 457.957733
   vertex -8.216060 -140.350677 457.313080
   vertex -8.755330 -139.386307 458.009949
  endloop
 facet normal -0.640359 -0.040775 0.766993
  outer loop
   vertex -8.755330 -139.386307 458.009949
   vertex -9.911949 -139.337173 457.046906
   vertex -8.754283 -140.384949 457.957733
  endloop
 facet normal -0.001051 0.998635 0.052212
  outer loop
   vertex -8.217108 -139.352036 457.365295
   vertex -9.911949 -139.337173 457.046906
   vertex -8.755330 -139.386307 458.009949
  endloop
 facet normal -0.001051 0.998635 0.052212
  outer loop
   vertex -9.373726 -139.302902 456.402252
   vertex -9.911949 -139.337173 457.046906
   vertex -8.217108 -139.352036 457.365295
  endloop
 facet normal 0.640359 0.040775 -0.766993
  outer loop
   vertex -8.217108 -139.352036 457.365295
   vertex -8.216060 -140.350677 457.313080
   vertex -9.373726 -139.302902 456.402252
  endloop
 facet normal 0.640359 0.040776 -0.766993
  outer loop
   vertex -9.373726 -139.302902 456.402252
   vertex -8.216060 -140.350677 457.313080
   vertex -9.372679 -140.301529 456.350037
  endloop
 facet normal 0.001044 -0.998635 -0.052218
  outer loop
   vertex -9.372679 -140.301529 456.350037
   vertex -8.216060 -140.350677 457.313080
   vertex -9.910902 -140.335800 456.994690
  endloop
 facet normal -0.768072 0.032634 -0.639531
  outer loop
   vertex -9.910902 -140.335800 456.994690
   vertex -9.911949 -139.337173 457.046906
   vertex -9.372679 -140.301529 456.350037
  endloop
 facet normal -0.640359 -0.040776 0.766993
  outer loop
   vertex -8.754283 -140.384949 457.957733
   vertex -9.911949 -139.337173 457.046906
   vertex -9.910902 -140.335800 456.994690
  endloop
 facet normal 0.001044 -0.998635 -0.052218
  outer loop
   vertex -8.771472 -123.996689 458.814636
   vertex -9.928091 -123.947540 457.851593
   vertex -8.233250 -123.962418 458.169983
  endloop
 facet normal 0.001044 -0.998635 -0.052218
  outer loop
   vertex -8.233250 -123.962418 458.169983
   vertex -9.928091 -123.947540 457.851593
   vertex -9.389869 -123.913269 457.206940
  endloop
 facet normal 0.640359 0.040775 -0.766993
  outer loop
   vertex -9.389869 -123.913269 457.206940
   vertex -9.390916 -122.914635 457.259155
   vertex -8.233250 -123.962418 458.169983
  endloop
 facet normal -0.768073 0.032634 -0.639531
  outer loop
   vertex -9.928091 -123.947540 457.851593
   vertex -9.390916 -122.914635 457.259155
   vertex -9.389869 -123.913269 457.206940
  endloop
 facet normal -0.768072 0.032633 -0.639531
  outer loop
   vertex -9.929139 -122.948906 457.903809
   vertex -9.390916 -122.914635 457.259155
   vertex -9.928091 -123.947540 457.851593
  endloop
 facet normal -0.640359 -0.040776 0.766993
  outer loop
   vertex -9.928091 -123.947540 457.851593
   vertex -8.772520 -122.998055 458.866852
   vertex -9.929139 -122.948906 457.903809
  endloop
 facet normal -0.001044 0.998635 0.052218
  outer loop
   vertex -9.929139 -122.948906 457.903809
   vertex -8.772520 -122.998055 458.866852
   vertex -9.390916 -122.914635 457.259155
  endloop
 facet normal -0.001053 0.998635 0.052222
  outer loop
   vertex -9.390916 -122.914635 457.259155
   vertex -8.772520 -122.998055 458.866852
   vertex -8.234297 -122.963776 458.222198
  endloop
 facet normal 0.640359 0.040775 -0.766993
  outer loop
   vertex -8.234297 -122.963776 458.222198
   vertex -8.233250 -123.962418 458.169983
   vertex -9.390916 -122.914635 457.259155
  endloop
 facet normal 0.768072 -0.032634 0.639531
  outer loop
   vertex -8.772520 -122.998055 458.866852
   vertex -8.233250 -123.962418 458.169983
   vertex -8.234297 -122.963776 458.222198
  endloop
 facet normal 0.768073 -0.032633 0.639531
  outer loop
   vertex -8.771472 -123.996689 458.814636
   vertex -8.233250 -123.962418 458.169983
   vertex -8.772520 -122.998055 458.866852
  endloop
 facet normal -0.640359 -0.040776 0.766993
  outer loop
   vertex -8.772520 -122.998055 458.866852
   vertex -9.928091 -123.947540 457.851593
   vertex -8.771472 -123.996689 458.814636
  endloop
 facet normal -0.640470 -0.040771 0.766900
  outer loop
   vertex -9.824762 -123.318199 457.946930
   vertex -9.903687 -123.314850 457.881195
   vertex -9.886217 -139.969452 457.010376
  endloop
 facet normal -0.768057 0.032634 -0.639549
  outer loop
   vertex -9.886217 -139.969452 457.010376
   vertex -9.903687 -123.314850 457.881195
   vertex -9.818251 -123.309410 457.778870
  endloop
 facet normal -0.768056 0.032635 -0.639550
  outer loop
   vertex -9.818251 -123.309410 457.778870
   vertex -9.800781 -139.964020 456.908051
   vertex -9.886217 -139.969452 457.010376
  endloop
 facet normal 0.322215 0.049768 -0.945357
  outer loop
   vertex -9.786383 -123.309944 457.789703
   vertex -9.800781 -139.964020 456.908051
   vertex -9.818251 -123.309410 457.778870
  endloop
 facet normal 0.322215 0.049768 -0.945357
  outer loop
   vertex -9.768913 -139.964554 456.918884
   vertex -9.800781 -139.964020 456.908051
   vertex -9.786383 -123.309944 457.789703
  endloop
 facet normal -0.768068 0.032634 -0.639536
  outer loop
   vertex -9.786383 -123.309944 457.789703
   vertex -9.418076 -123.286491 457.348572
   vertex -9.768913 -139.964554 456.918884
  endloop
 facet normal -0.768068 0.032634 -0.639536
  outer loop
   vertex -9.768913 -139.964554 456.918884
   vertex -9.418076 -123.286491 457.348572
   vertex -9.400606 -139.941101 456.477753
  endloop
 facet normal -0.873254 -0.026356 0.486552
  outer loop
   vertex -9.400606 -139.941101 456.477753
   vertex -9.418076 -123.286491 457.348572
   vertex -9.434479 -123.284973 457.319214
  endloop
 facet normal -0.873257 -0.026356 0.486547
  outer loop
   vertex -9.434479 -123.284973 457.319214
   vertex -9.417009 -139.939575 456.448395
   vertex -9.400606 -139.941101 456.477753
  endloop
 facet normal -0.768115 0.032631 -0.639480
  outer loop
   vertex -9.392087 -123.282272 457.268433
   vertex -9.417009 -139.939575 456.448395
   vertex -9.434479 -123.284973 457.319214
  endloop
 facet normal -0.768115 0.032631 -0.639480
  outer loop
   vertex -9.374618 -139.936874 456.397614
   vertex -9.417009 -139.939575 456.448395
   vertex -9.392087 -123.282272 457.268433
  endloop
 facet normal 0.640361 0.040775 -0.766991
  outer loop
   vertex -9.392087 -123.282272 457.268433
   vertex -8.261645 -123.330299 458.209686
   vertex -9.374618 -139.936874 456.397614
  endloop
 facet normal 0.640362 0.040775 -0.766990
  outer loop
   vertex -9.374618 -139.936874 456.397614
   vertex -8.261645 -123.330299 458.209686
   vertex -8.244177 -139.984909 457.338867
  endloop
 facet normal 0.767926 -0.032643 0.639707
  outer loop
   vertex -8.244177 -139.984909 457.338867
   vertex -8.261645 -123.330299 458.209686
   vertex -8.286569 -139.987610 457.389618
  endloop
 facet normal 0.768073 -0.032633 0.639531
  outer loop
   vertex -8.217108 -139.352036 457.365295
   vertex -8.755330 -139.386307 458.009949
   vertex -8.216060 -140.350677 457.313080
  endloop
 facet normal -0.768072 0.032634 -0.639531
  outer loop
   vertex -9.911949 -139.337173 457.046906
   vertex -9.373726 -139.302902 456.402252
   vertex -9.372679 -140.301529 456.350037
  endloop
 facet normal 0.768115 -0.032632 0.639480
  outer loop
   vertex -8.261645 -123.330299 458.209686
   vertex -8.304037 -123.333000 458.260468
   vertex -8.286569 -139.987610 457.389618
  endloop
 facet normal -0.607106 0.745398 0.275326
  outer loop
   vertex -8.209846 -123.355568 456.995514
   vertex -7.570273 -122.565811 456.267670
   vertex -8.345548 -123.422920 456.878632
  endloop
 facet normal -0.607104 0.745398 0.275329
  outer loop
   vertex -8.345548 -123.422920 456.878632
   vertex -7.570273 -122.565811 456.267670
   vertex -8.113077 -122.835228 455.800171
  endloop
 facet normal -0.948314 0.315677 -0.032393
  outer loop
   vertex -8.113077 -122.835228 455.800171
   vertex -8.401604 -123.597069 456.822571
   vertex -8.345548 -123.422920 456.878632
  endloop
 facet normal -0.948313 0.315678 -0.032391
  outer loop
   vertex -8.337300 -123.531815 455.575928
   vertex -8.401604 -123.597069 456.822571
   vertex -8.113077 -122.835228 455.800171
  endloop
 facet normal -0.947654 -0.312564 -0.065242
  outer loop
   vertex -8.345178 -123.775993 456.860168
   vertex -8.401604 -123.597069 456.822571
   vertex -8.337300 -123.531815 455.575928
  endloop
 facet normal -0.947654 -0.312564 -0.065242
  outer loop
   vertex -8.337300 -123.531815 455.575928
   vertex -8.111596 -124.247513 455.726318
   vertex -8.345178 -123.775993 456.860168
  endloop
 facet normal -0.605494 -0.771330 0.196027
  outer loop
   vertex -8.345178 -123.775993 456.860168
   vertex -8.111596 -124.247513 455.726318
   vertex -8.209323 -123.854881 456.969391
  endloop
 facet normal -0.605514 -0.771316 0.196021
  outer loop
   vertex -8.209323 -123.854881 456.969391
   vertex -8.111596 -124.247513 455.726318
   vertex -7.568178 -124.563080 456.163239
  endloop
 facet normal -0.122341 -0.791851 0.598335
  outer loop
   vertex -7.568178 -124.563080 456.163239
   vertex -8.073622 -123.787529 457.086273
   vertex -8.209323 -123.854881 456.969391
  endloop
 facet normal -0.122310 -0.791846 0.598348
  outer loop
   vertex -7.025374 -124.293663 456.630737
   vertex -8.073622 -123.787529 457.086273
   vertex -7.568178 -124.563080 456.163239
  endloop
 facet normal 0.218894 -0.362132 0.906060
  outer loop
   vertex -8.017566 -123.613380 457.142334
   vertex -8.073622 -123.787529 457.086273
   vertex -7.025374 -124.293663 456.630737
  endloop
 facet normal 0.218890 -0.362138 0.906059
  outer loop
   vertex -7.025374 -124.293663 456.630737
   vertex -6.801151 -123.597084 456.854980
   vertex -8.017566 -123.613380 457.142334
  endloop
 facet normal 0.218234 0.266118 0.938912
  outer loop
   vertex -8.017566 -123.613380 457.142334
   vertex -6.801151 -123.597084 456.854980
   vertex -8.073992 -123.434456 457.104736
  endloop
 facet normal 0.218234 0.266115 0.938913
  outer loop
   vertex -8.073992 -123.434456 457.104736
   vertex -6.801151 -123.597084 456.854980
   vertex -7.026855 -122.881378 456.704590
  endloop
 facet normal -0.123902 0.724863 0.677659
  outer loop
   vertex -7.026855 -122.881378 456.704590
   vertex -8.209846 -123.355568 456.995514
   vertex -8.073992 -123.434456 457.104736
  endloop
 facet normal -0.123908 0.724871 0.677650
  outer loop
   vertex -7.570273 -122.565811 456.267670
   vertex -8.209846 -123.355568 456.995514
   vertex -7.026855 -122.881378 456.704590
  endloop
 facet normal -0.294884 0.935113 -0.196487
  outer loop
   vertex -8.826830 -139.553848 456.909943
   vertex -8.186471 -139.513077 456.142944
   vertex -8.962531 -139.621201 456.793060
  endloop
 facet normal -0.294884 0.935113 -0.196487
  outer loop
   vertex -8.962531 -139.621201 456.793060
   vertex -8.186471 -139.513077 456.142944
   vertex -8.322172 -139.580429 456.026062
  endloop
 facet normal -0.710010 0.412311 -0.570863
  outer loop
   vertex -8.322172 -139.580429 456.026062
   vertex -9.018587 -139.795349 456.737000
   vertex -8.962531 -139.621201 456.793060
  endloop
 facet normal -0.710010 0.412311 -0.570863
  outer loop
   vertex -8.378228 -139.754578 455.970001
   vertex -9.018587 -139.795349 456.737000
   vertex -8.322172 -139.580429 456.026062
  endloop
 facet normal -0.709211 -0.352012 -0.610825
  outer loop
   vertex -8.962161 -139.974274 456.774597
   vertex -9.018587 -139.795349 456.737000
   vertex -8.378228 -139.754578 455.970001
  endloop
 facet normal -0.709210 -0.352015 -0.610825
  outer loop
   vertex -8.378228 -139.754578 455.970001
   vertex -8.321801 -139.933502 456.007599
   vertex -8.962161 -139.974274 456.774597
  endloop
 facet normal -0.292959 -0.910134 -0.292969
  outer loop
   vertex -8.962161 -139.974274 456.774597
   vertex -8.321801 -139.933502 456.007599
   vertex -8.826306 -140.053162 456.883820
  endloop
 facet normal -0.292960 -0.910134 -0.292970
  outer loop
   vertex -8.826306 -140.053162 456.883820
   vertex -8.321801 -139.933502 456.007599
   vertex -8.185947 -140.012390 456.116821
  endloop
 facet normal 0.294884 -0.935113 0.196487
  outer loop
   vertex -8.185947 -140.012390 456.116821
   vertex -8.690605 -139.985809 457.000702
   vertex -8.826306 -140.053162 456.883820
  endloop
 facet normal 0.294884 -0.935113 0.196487
  outer loop
   vertex -8.050246 -139.945038 456.233704
   vertex -8.690605 -139.985809 457.000702
   vertex -8.185947 -140.012390 456.116821
  endloop
 facet normal 0.710010 -0.412311 0.570863
  outer loop
   vertex -8.634549 -139.811661 457.056763
   vertex -8.690605 -139.985809 457.000702
   vertex -8.050246 -139.945038 456.233704
  endloop
 facet normal 0.710010 -0.412311 0.570863
  outer loop
   vertex -8.050246 -139.945038 456.233704
   vertex -7.994190 -139.770889 456.289764
   vertex -8.634549 -139.811661 457.056763
  endloop
 facet normal 0.709211 0.352012 0.610825
  outer loop
   vertex -8.634549 -139.811661 457.056763
   vertex -7.994190 -139.770889 456.289764
   vertex -8.690975 -139.632736 457.019165
  endloop
 facet normal 0.709211 0.352012 0.610825
  outer loop
   vertex -8.690975 -139.632736 457.019165
   vertex -7.994190 -139.770889 456.289764
   vertex -8.050616 -139.591965 456.252167
  endloop
 facet normal 0.292959 0.910134 0.292969
  outer loop
   vertex -8.050616 -139.591965 456.252167
   vertex -8.826830 -139.553848 456.909943
   vertex -8.690975 -139.632736 457.019165
  endloop
 facet normal 0.292959 0.910134 0.292969
  outer loop
   vertex -8.186471 -139.513077 456.142944
   vertex -8.826830 -139.553848 456.909943
   vertex -8.050616 -139.591965 456.252167
  endloop
 facet normal -0.294897 0.935106 -0.196499
  outer loop
   vertex -7.553325 -138.723724 455.422821
   vertex -6.912966 -138.682953 454.655823
   vertex -8.096129 -138.993149 454.955292
  endloop
 facet normal -0.294899 0.935104 -0.196508
  outer loop
   vertex -8.096129 -138.993149 454.955292
   vertex -6.912966 -138.682953 454.655823
   vertex -7.455770 -138.952377 454.188324
  endloop
 facet normal -0.710004 0.412298 -0.570881
  outer loop
   vertex -7.455770 -138.952377 454.188324
   vertex -8.320353 -139.689728 454.731079
   vertex -8.096129 -138.993149 454.955292
  endloop
 facet normal -0.710008 0.412318 -0.570861
  outer loop
   vertex -7.679993 -139.648956 453.964081
   vertex -8.320353 -139.689728 454.731079
   vertex -7.455770 -138.952377 454.188324
  endloop
 facet normal -0.709211 -0.352012 -0.610825
  outer loop
   vertex -8.094648 -140.405426 454.881470
   vertex -8.320353 -139.689728 454.731079
   vertex -7.679993 -139.648956 453.964081
  endloop
 facet normal -0.709211 -0.352012 -0.610825
  outer loop
   vertex -7.679993 -139.648956 453.964081
   vertex -7.454288 -140.364655 454.114471
   vertex -8.094648 -140.405426 454.881470
  endloop
 facet normal -0.292977 -0.910124 -0.292983
  outer loop
   vertex -8.094648 -140.405426 454.881470
   vertex -7.454288 -140.364655 454.114471
   vertex -7.551230 -140.721008 455.318390
  endloop
 facet normal -0.292955 -0.910131 -0.292983
  outer loop
   vertex -7.551230 -140.721008 455.318390
   vertex -7.454288 -140.364655 454.114471
   vertex -6.910871 -140.680222 454.551392
  endloop
 facet normal 0.294912 -0.935103 0.196493
  outer loop
   vertex -6.910871 -140.680222 454.551392
   vertex -7.008426 -140.451584 455.785889
   vertex -7.551230 -140.721008 455.318390
  endloop
 facet normal 0.294889 -0.935110 0.196492
  outer loop
   vertex -6.368067 -140.410812 455.018890
   vertex -7.008426 -140.451584 455.785889
   vertex -6.910871 -140.680222 454.551392
  endloop
 facet normal 0.710008 -0.412318 0.570861
  outer loop
   vertex -6.784203 -139.755005 456.010132
   vertex -7.008426 -140.451584 455.785889
   vertex -6.368067 -140.410812 455.018890
  endloop
 facet normal 0.710015 -0.412310 0.570858
  outer loop
   vertex -6.368067 -140.410812 455.018890
   vertex -6.143844 -139.714218 455.243134
   vertex -6.784203 -139.755005 456.010132
  endloop
 facet normal 0.709208 0.352012 0.610829
  outer loop
   vertex -6.784203 -139.755005 456.010132
   vertex -6.143844 -139.714218 455.243134
   vertex -7.009907 -139.039307 455.859741
  endloop
 facet normal 0.709208 0.352012 0.610829
  outer loop
   vertex -7.009907 -139.039307 455.859741
   vertex -6.143844 -139.714218 455.243134
   vertex -6.369548 -138.998520 455.092743
  endloop
 facet normal 0.292968 0.910123 0.292993
  outer loop
   vertex -6.369548 -138.998520 455.092743
   vertex -7.553325 -138.723724 455.422821
   vertex -7.009907 -139.039307 455.859741
  endloop
 facet normal 0.292964 0.910131 0.292973
  outer loop
   vertex -6.912966 -138.682953 454.655823
   vertex -7.553325 -138.723724 455.422821
   vertex -6.369548 -138.998520 455.092743
  endloop
 facet normal -0.607110 0.745391 0.275334
  outer loop
   vertex -8.192899 -139.513489 456.150635
   vertex -7.553325 -138.723724 455.422821
   vertex -8.328600 -139.580841 456.033752
  endloop
 facet normal -0.607119 0.745389 0.275321
  outer loop
   vertex -8.328600 -139.580841 456.033752
   vertex -7.553325 -138.723724 455.422821
   vertex -8.096129 -138.993149 454.955292
  endloop
 facet normal -0.948315 0.315672 -0.032395
  outer loop
   vertex -8.096129 -138.993149 454.955292
   vertex -8.384656 -139.754990 455.977722
   vertex -8.328600 -139.580841 456.033752
  endloop
 facet normal -0.948313 0.315680 -0.032389
  outer loop
   vertex -8.320353 -139.689728 454.731079
   vertex -8.384656 -139.754990 455.977722
   vertex -8.096129 -138.993149 454.955292
  endloop
 facet normal -0.947652 -0.312568 -0.065244
  outer loop
   vertex -8.328229 -139.933914 456.015320
   vertex -8.384656 -139.754990 455.977722
   vertex -8.320353 -139.689728 454.731079
  endloop
 facet normal -0.947654 -0.312564 -0.065243
  outer loop
   vertex -8.320353 -139.689728 454.731079
   vertex -8.094648 -140.405426 454.881470
   vertex -8.328229 -139.933914 456.015320
  endloop
 facet normal -0.605495 -0.771331 0.196022
  outer loop
   vertex -8.328229 -139.933914 456.015320
   vertex -8.094648 -140.405426 454.881470
   vertex -8.192375 -140.012802 456.124542
  endloop
 facet normal -0.605526 -0.771309 0.196013
  outer loop
   vertex -8.192375 -140.012802 456.124542
   vertex -8.094648 -140.405426 454.881470
   vertex -7.551230 -140.721008 455.318390
  endloop
 facet normal -0.122345 -0.791848 0.598338
  outer loop
   vertex -7.551230 -140.721008 455.318390
   vertex -8.056674 -139.945450 456.241425
   vertex -8.192375 -140.012802 456.124542
  endloop
 facet normal -0.122306 -0.791842 0.598354
  outer loop
   vertex -7.008426 -140.451584 455.785889
   vertex -8.056674 -139.945450 456.241425
   vertex -7.551230 -140.721008 455.318390
  endloop
 facet normal 0.218894 -0.362132 0.906060
  outer loop
   vertex -8.000618 -139.771301 456.297485
   vertex -8.056674 -139.945450 456.241425
   vertex -7.008426 -140.451584 455.785889
  endloop
 facet normal 0.218890 -0.362138 0.906059
  outer loop
   vertex -7.008426 -140.451584 455.785889
   vertex -6.784203 -139.755005 456.010132
   vertex -8.000618 -139.771301 456.297485
  endloop
 facet normal 0.218234 0.266117 0.938912
  outer loop
   vertex -8.000618 -139.771301 456.297485
   vertex -6.784203 -139.755005 456.010132
   vertex -8.057044 -139.592377 456.259888
  endloop
 facet normal 0.218234 0.266117 0.938912
  outer loop
   vertex -8.057044 -139.592377 456.259888
   vertex -6.784203 -139.755005 456.010132
   vertex -7.009907 -139.039307 455.859741
  endloop
 facet normal -0.123958 0.724924 0.677584
  outer loop
   vertex -7.009907 -139.039307 455.859741
   vertex -8.192899 -139.513489 456.150635
   vertex -8.057044 -139.592377 456.259888
  endloop
 facet normal -0.123910 0.724855 0.677667
  outer loop
   vertex -7.553325 -138.723724 455.422821
   vertex -8.192899 -139.513489 456.150635
   vertex -7.009907 -139.039307 455.859741
  endloop
 facet normal -0.294888 0.935113 -0.196482
  outer loop
   vertex -8.843778 -123.395935 457.754791
   vertex -8.203419 -123.355156 456.987793
   vertex -8.979479 -123.463287 457.637909
  endloop
 facet normal -0.294907 0.935102 -0.196506
  outer loop
   vertex -8.979479 -123.463287 457.637909
   vertex -8.203419 -123.355156 456.987793
   vertex -8.339120 -123.422508 456.870941
  endloop
 facet normal -0.709997 0.412327 -0.570869
  outer loop
   vertex -8.339120 -123.422508 456.870941
   vertex -9.035535 -123.637428 457.581848
   vertex -8.979479 -123.463287 457.637909
  endloop
 facet normal -0.709999 0.412312 -0.570876
  outer loop
   vertex -8.395176 -123.596657 456.814880
   vertex -9.035535 -123.637428 457.581848
   vertex -8.339120 -123.422508 456.870941
  endloop
 facet normal -0.709203 -0.351998 -0.610842
  outer loop
   vertex -8.979109 -123.816360 457.619446
   vertex -9.035535 -123.637428 457.581848
   vertex -8.395176 -123.596657 456.814880
  endloop
 facet normal -0.709197 -0.352011 -0.610841
  outer loop
   vertex -8.395176 -123.596657 456.814880
   vertex -8.338750 -123.775581 456.852478
   vertex -8.979109 -123.816360 457.619446
  endloop
 facet normal -0.292916 -0.910153 -0.292954
  outer loop
   vertex -8.979109 -123.816360 457.619446
   vertex -8.338750 -123.775581 456.852478
   vertex -8.843254 -123.895248 457.728699
  endloop
 facet normal -0.292985 -0.910119 -0.292989
  outer loop
   vertex -8.843254 -123.895248 457.728699
   vertex -8.338750 -123.775581 456.852478
   vertex -8.202895 -123.854477 456.961700
  endloop
 facet normal 0.294885 -0.935112 0.196488
  outer loop
   vertex -8.202895 -123.854477 456.961700
   vertex -8.707554 -123.827896 457.845581
   vertex -8.843254 -123.895248 457.728699
  endloop
 facet normal 0.294915 -0.935100 0.196505
  outer loop
   vertex -8.067194 -123.787117 457.078583
   vertex -8.707554 -123.827896 457.845581
   vertex -8.202895 -123.854477 456.961700
  endloop
 facet normal 0.710039 -0.412228 0.570888
  outer loop
   vertex -8.651498 -123.653748 457.901611
   vertex -8.707554 -123.827896 457.845581
   vertex -8.067194 -123.787117 457.078583
  endloop
 facet normal 0.709994 -0.412327 0.570872
  outer loop
   vertex -8.067194 -123.787117 457.078583
   vertex -8.011138 -123.612976 457.134644
   vertex -8.651498 -123.653748 457.901611
  endloop
 facet normal 0.709199 0.352011 0.610840
  outer loop
   vertex -8.651498 -123.653748 457.901611
   vertex -8.011138 -123.612976 457.134644
   vertex -8.707924 -123.474823 457.864014
  endloop
 facet normal 0.709201 0.351998 0.610845
  outer loop
   vertex -8.707924 -123.474823 457.864014
   vertex -8.011138 -123.612976 457.134644
   vertex -8.067564 -123.434044 457.097046
  endloop
 facet normal 0.292950 0.910133 0.292982
  outer loop
   vertex -8.067564 -123.434044 457.097046
   vertex -8.843778 -123.395935 457.754791
   vertex -8.707924 -123.474823 457.864014
  endloop
 facet normal 0.292921 0.910153 0.292947
  outer loop
   vertex -8.203419 -123.355156 456.987793
   vertex -8.843778 -123.395935 457.754791
   vertex -8.067564 -123.434044 457.097046
  endloop
 facet normal 0.292964 0.910131 0.292973
  outer loop
   vertex -7.026855 -122.881378 456.704590
   vertex -6.386496 -122.840607 455.937592
   vertex -7.570273 -122.565811 456.267670
  endloop
 facet normal 0.292964 0.910132 0.292972
  outer loop
   vertex -7.570273 -122.565811 456.267670
   vertex -6.386496 -122.840607 455.937592
   vertex -6.929914 -122.525040 455.500671
  endloop
 facet normal -0.294896 0.935107 -0.196498
  outer loop
   vertex -6.929914 -122.525040 455.500671
   vertex -8.113077 -122.835228 455.800171
   vertex -7.570273 -122.565811 456.267670
  endloop
 facet normal -0.294896 0.935107 -0.196498
  outer loop
   vertex -7.472718 -122.794456 455.033173
   vertex -8.113077 -122.835228 455.800171
   vertex -6.929914 -122.525040 455.500671
  endloop
 facet normal -0.710010 0.412314 -0.570862
  outer loop
   vertex -8.337300 -123.531815 455.575928
   vertex -8.113077 -122.835228 455.800171
   vertex -7.472718 -122.794456 455.033173
  endloop
 facet normal -0.710010 0.412318 -0.570859
  outer loop
   vertex -7.472718 -122.794456 455.033173
   vertex -7.696941 -123.491035 454.808929
   vertex -8.337300 -123.531815 455.575928
  endloop
 facet normal -0.709209 -0.352012 -0.610827
  outer loop
   vertex -8.337300 -123.531815 455.575928
   vertex -7.696941 -123.491035 454.808929
   vertex -8.111596 -124.247513 455.726318
  endloop
 facet normal -0.709212 -0.352009 -0.610826
  outer loop
   vertex -8.111596 -124.247513 455.726318
   vertex -7.696941 -123.491035 454.808929
   vertex -7.471237 -124.206741 454.959320
  endloop
 facet normal -0.292964 -0.910131 -0.292973
  outer loop
   vertex -7.471237 -124.206741 454.959320
   vertex -7.568178 -124.563080 456.163239
   vertex -8.111596 -124.247513 455.726318
  endloop
 facet normal -0.292964 -0.910131 -0.292973
  outer loop
   vertex -6.927819 -124.522308 455.396240
   vertex -7.568178 -124.563080 456.163239
   vertex -7.471237 -124.206741 454.959320
  endloop
 facet normal 0.294896 -0.935107 0.196498
  outer loop
   vertex -7.025374 -124.293663 456.630737
   vertex -7.568178 -124.563080 456.163239
   vertex -6.927819 -124.522308 455.396240
  endloop
 facet normal 0.294887 -0.935110 0.196498
  outer loop
   vertex -6.927819 -124.522308 455.396240
   vertex -6.385015 -124.252892 455.863770
   vertex -7.025374 -124.293663 456.630737
  endloop
 facet normal 0.709997 -0.412319 0.570874
  outer loop
   vertex -7.025374 -124.293663 456.630737
   vertex -6.385015 -124.252892 455.863770
   vertex -6.801151 -123.597084 456.854980
  endloop
 facet normal 0.710018 -0.412294 0.570867
  outer loop
   vertex -6.801151 -123.597084 456.854980
   vertex -6.385015 -124.252892 455.863770
   vertex -6.160791 -123.556305 456.087982
  endloop
 facet normal 0.709210 0.352008 0.610828
  outer loop
   vertex -6.160791 -123.556305 456.087982
   vertex -7.026855 -122.881378 456.704590
   vertex -6.801151 -123.597084 456.854980
  endloop
 facet normal 0.709211 0.352012 0.610825
  outer loop
   vertex -6.386496 -122.840607 455.937592
   vertex -7.026855 -122.881378 456.704590
   vertex -6.160791 -123.556305 456.087982
  endloop
endsolid