solid stl file generated from DOUG
 facet normal 0.266757 0.050675 -0.962431
  outer loop
   vertex -63.267246 -50.467236 336.342957
   vertex -63.398499 -50.465454 336.306671
   vertex -63.406948 -41.228592 336.790680
  endloop
 endfacet

 facet normal -0.617109 0.040613 -0.785829
  outer loop
   vertex -63.406948 -41.228592 336.790680
   vertex -63.398499 -50.465454 336.306671
   vertex -63.487808 -41.231983 336.854004
  endloop
 endfacet

 facet normal -0.999573 -0.002440 0.029125
  outer loop
   vertex -62.406513 -41.193916 336.146393
   vertex -62.410492 -41.186794 336.010437
   vertex -62.402042 -50.423660 335.526428
  endloop
 endfacet

 facet normal -0.616925 0.040620 -0.785973
  outer loop
   vertex -62.402042 -50.423660 335.526428
   vertex -62.410492 -41.186794 336.010437
   vertex -62.329632 -41.183403 335.947144
  endloop
 endfacet

 facet normal -0.616925 0.040620 -0.785973
  outer loop
   vertex -62.329632 -41.183403 335.947144
   vertex -62.321182 -50.420269 335.463135
   vertex -62.402042 -50.423660 335.526428
  endloop
 endfacet

 facet normal -0.294110 0.049745 -0.954476
  outer loop
   vertex -61.877499 -41.213165 336.522949
   vertex -61.869049 -50.450027 336.038940
   vertex -61.909679 -41.213711 336.532837
  endloop
 endfacet

 facet normal -0.294110 0.049745 -0.954476
  outer loop
   vertex -61.909679 -41.213711 336.532837
   vertex -61.869049 -50.450027 336.038940
   vertex -61.901230 -50.450573 336.048828
  endloop
 endfacet

 facet normal 0.786917 0.033007 -0.616176
  outer loop
   vertex -61.901230 -50.450573 336.048828
   vertex -62.256134 -50.427216 335.596832
   vertex -61.909679 -41.213711 336.532837
  endloop
 endfacet

 facet normal 0.266750 0.050675 -0.962433
  outer loop
   vertex -63.406948 -41.228592 336.790680
   vertex -63.275692 -41.230373 336.826965
   vertex -63.267246 -50.467236 336.342957
  endloop
 endfacet

 facet normal -0.617049 0.040615 -0.785876
  outer loop
   vertex -63.267246 -50.467236 336.342957
   vertex -63.275692 -41.230373 336.826965
   vertex -62.406513 -41.193916 336.146393
  endloop
 endfacet

 facet normal -0.617048 0.040615 -0.785877
  outer loop
   vertex -62.406513 -41.193916 336.146393
   vertex -62.398064 -50.430779 335.662384
   vertex -63.267246 -50.467236 336.342957
  endloop
 endfacet

 facet normal -0.999573 -0.002440 0.029125
  outer loop
   vertex -62.402042 -50.423660 335.526428
   vertex -62.398064 -50.430779 335.662384
   vertex -62.406513 -41.193916 336.146393
  endloop
 endfacet

 facet normal 0.786863 0.033011 -0.616245
  outer loop
   vertex -62.321182 -50.420269 335.463135
   vertex -62.329632 -41.183403 335.947144
   vertex -62.238857 -50.425686 335.567963
  endloop
 endfacet

 facet normal 0.786849 0.033011 -0.616262
  outer loop
   vertex -62.238857 -50.425686 335.567963
   vertex -62.329632 -41.183403 335.947144
   vertex -62.247303 -41.188824 336.051971
  endloop
 endfacet

 facet normal 0.858399 -0.026061 0.512320
  outer loop
   vertex -62.247303 -41.188824 336.051971
   vertex -62.256134 -50.427216 335.596832
   vertex -62.238857 -50.425686 335.567963
  endloop
 endfacet

 facet normal 0.858398 -0.026061 0.512323
  outer loop
   vertex -62.264580 -41.190350 336.080841
   vertex -62.256134 -50.427216 335.596832
   vertex -62.247303 -41.188824 336.051971
  endloop
 endfacet

 facet normal 0.786920 0.033007 -0.616172
  outer loop
   vertex -61.909679 -41.213711 336.532837
   vertex -62.256134 -50.427216 335.596832
   vertex -62.264580 -41.190350 336.080841
  endloop
 endfacet

 facet normal -0.000914 0.998629 0.052330
  outer loop
   vertex -63.513252 -40.694187 336.877960
   vertex -61.809620 -40.678619 336.610626
   vertex -62.328255 -40.644482 335.950104
  endloop
 endfacet

 facet normal 0.786918 0.033012 -0.616173
  outer loop
   vertex -62.328255 -40.644482 335.950104
   vertex -61.809620 -40.678619 336.610626
   vertex -62.327343 -41.643112 335.897766
  endloop
 endfacet

 facet normal -0.617060 0.040623 -0.785867
  outer loop
   vertex -62.327343 -41.643112 335.897766
   vertex -63.512341 -41.692818 336.825653
   vertex -62.328255 -40.644482 335.950104
  endloop
 endfacet

 facet normal 0.000913 -0.998629 -0.052329
  outer loop
   vertex -61.808708 -41.677250 336.558289
   vertex -63.512341 -41.692818 336.825653
   vertex -62.327343 -41.643112 335.897766
  endloop
 endfacet

 facet normal 0.000914 -0.998630 -0.052324
  outer loop
   vertex -62.993706 -41.726952 337.486176
   vertex -63.512341 -41.692818 336.825653
   vertex -61.808708 -41.677250 336.558289
  endloop
 endfacet

 facet normal 0.617060 -0.040623 0.785867
  outer loop
   vertex -61.808708 -41.677250 336.558289
   vertex -61.809620 -40.678619 336.610626
   vertex -62.993706 -41.726952 337.486176
  endloop
 endfacet

 facet normal 0.617060 -0.040624 0.785867
  outer loop
   vertex -62.993706 -41.726952 337.486176
   vertex -61.809620 -40.678619 336.610626
   vertex -62.994617 -40.728325 337.538513
  endloop
 endfacet

 facet normal -0.000914 0.998630 0.052328
  outer loop
   vertex -62.994617 -40.728325 337.538513
   vertex -61.809620 -40.678619 336.610626
   vertex -63.513252 -40.694187 336.877960
  endloop
 endfacet

 facet normal -0.786932 -0.032992 0.616157
  outer loop
   vertex -63.513252 -40.694187 336.877960
   vertex -63.512341 -41.692818 336.825653
   vertex -62.994617 -40.728325 337.538513
  endloop
 endfacet

 facet normal -0.617048 0.040600 -0.785878
  outer loop
   vertex -62.328255 -40.644482 335.950104
   vertex -63.512341 -41.692818 336.825653
   vertex -63.513252 -40.694187 336.877960
  endloop
 endfacet

 facet normal -0.000914 0.998630 0.052328
  outer loop
   vertex -62.319736 -49.957916 335.462067
   vertex -63.504734 -50.007622 336.389954
   vertex -61.801102 -49.992054 336.122620
  endloop
 endfacet

 facet normal -0.000915 0.998630 0.052325
  outer loop
   vertex -61.801102 -49.992054 336.122620
   vertex -63.504734 -50.007622 336.389954
   vertex -62.986099 -50.041756 337.050476
  endloop
 endfacet

 facet normal 0.617047 -0.040622 0.785877
  outer loop
   vertex -62.986099 -50.041756 337.050476
   vertex -62.985184 -51.040386 336.998138
   vertex -61.801102 -49.992054 336.122620
  endloop
 endfacet

 facet normal -0.786918 -0.033015 0.616173
  outer loop
   vertex -63.504734 -50.007622 336.389954
   vertex -62.985184 -51.040386 336.998138
   vertex -62.986099 -50.041756 337.050476
  endloop
 endfacet

 facet normal -0.786916 -0.033012 0.616176
  outer loop
   vertex -63.503822 -51.006248 336.337616
   vertex -62.985184 -51.040386 336.998138
   vertex -63.504734 -50.007622 336.389954
  endloop
 endfacet

 facet normal -0.617047 0.040624 -0.785877
  outer loop
   vertex -63.504734 -50.007622 336.389954
   vertex -62.318825 -50.956547 335.409760
   vertex -63.503822 -51.006248 336.337616
  endloop
 endfacet

 facet normal 0.000912 -0.998630 -0.052328
  outer loop
   vertex -63.503822 -51.006248 336.337616
   vertex -62.318825 -50.956547 335.409760
   vertex -62.985184 -51.040386 336.998138
  endloop
 endfacet

 facet normal 0.000917 -0.998630 -0.052326
  outer loop
   vertex -62.985184 -51.040386 336.998138
   vertex -62.318825 -50.956547 335.409760
   vertex -61.800190 -50.990681 336.070282
  endloop
 endfacet

 facet normal 0.617049 -0.040624 0.785876
  outer loop
   vertex -61.800190 -50.990681 336.070282
   vertex -61.801102 -49.992054 336.122620
   vertex -62.985184 -51.040386 336.998138
  endloop
 endfacet

 facet normal 0.786918 0.033012 -0.616173
  outer loop
   vertex -62.318825 -50.956547 335.409760
   vertex -61.801102 -49.992054 336.122620
   vertex -61.800190 -50.990681 336.070282
  endloop
 endfacet

 facet normal 0.786932 0.032992 -0.616157
  outer loop
   vertex -62.319736 -49.957916 335.462067
   vertex -61.801102 -49.992054 336.122620
   vertex -62.318825 -50.956547 335.409760
  endloop
 endfacet

 facet normal -0.617060 0.040600 -0.785868
  outer loop
   vertex -62.318825 -50.956547 335.409760
   vertex -63.504734 -50.007622 336.389954
   vertex -62.319736 -49.957916 335.462067
  endloop
 endfacet

 facet normal -0.617109 0.040613 -0.785829
  outer loop
   vertex -63.398499 -50.465454 336.306671
   vertex -63.479359 -50.468845 336.369995
   vertex -63.487808 -41.231983 336.854004
  endloop
 endfacet

 facet normal -0.786950 -0.033005 0.616133
  outer loop
   vertex -63.487808 -41.231983 336.854004
   vertex -63.479359 -50.468845 336.369995
   vertex -63.397034 -50.474266 336.474854
  endloop
 endfacet

 facet normal -0.786936 -0.033006 0.616151
  outer loop
   vertex -63.397034 -50.474266 336.474854
   vertex -63.405479 -41.237404 336.958862
   vertex -63.487808 -41.231983 336.854004
  endloop
 endfacet

 facet normal 0.294110 -0.049745 0.954476
  outer loop
   vertex -63.364853 -50.473721 336.464966
   vertex -63.405479 -41.237404 336.958862
   vertex -63.397034 -50.474266 336.474854
  endloop
 endfacet

 facet normal 0.294148 -0.049745 0.954465
  outer loop
   vertex -63.373302 -41.236855 336.948975
   vertex -63.405479 -41.237404 336.958862
   vertex -63.364853 -50.473721 336.464966
  endloop
 endfacet

 facet normal -0.786917 -0.033007 0.616176
  outer loop
   vertex -63.364853 -50.473721 336.464966
   vertex -63.009949 -50.497078 336.916962
   vertex -63.373302 -41.236855 336.948975
  endloop
 endfacet

 facet normal -0.786917 -0.033007 0.616176
  outer loop
   vertex -63.373302 -41.236855 336.948975
   vertex -63.009949 -50.497078 336.916962
   vertex -63.018398 -41.260216 337.400970
  endloop
 endfacet

 facet normal -0.858399 0.026060 -0.512320
  outer loop
   vertex -63.018398 -41.260216 337.400970
   vertex -63.009949 -50.497078 336.916962
   vertex -63.027225 -50.498608 336.945831
  endloop
 endfacet

 facet normal -0.858398 0.026060 -0.512323
  outer loop
   vertex -63.027225 -50.498608 336.945831
   vertex -63.035675 -41.261742 337.429840
   vertex -63.018398 -41.260216 337.400970
  endloop
 endfacet

 facet normal -0.786798 -0.033015 0.616326
  outer loop
   vertex -62.986378 -50.501297 336.997833
   vertex -63.035675 -41.261742 337.429840
   vertex -63.027225 -50.498608 336.945831
  endloop
 endfacet

 facet normal -0.786974 -0.033006 0.616103
  outer loop
   vertex -62.994827 -41.264431 337.481873
   vertex -63.035675 -41.261742 337.429840
   vertex -62.986378 -50.501297 336.997833
  endloop
 endfacet

 facet normal 0.617050 -0.040618 0.785875
  outer loop
   vertex -62.986378 -50.501297 336.997833
   vertex -61.828201 -50.452717 336.090973
   vertex -62.994827 -41.264431 337.481873
  endloop
 endfacet

 facet normal 0.617062 -0.040615 0.785865
  outer loop
   vertex -62.994827 -41.264431 337.481873
   vertex -61.828201 -50.452717 336.090973
   vertex -61.836651 -41.215851 336.574982
  endloop
 endfacet

 facet normal 0.786973 0.033004 -0.616105
  outer loop
   vertex -61.836651 -41.215851 336.574982
   vertex -61.828201 -50.452717 336.090973
   vertex -61.877499 -41.213165 336.522949
  endloop
 endfacet

 facet normal 0.786918 0.033012 -0.616173
  outer loop
   vertex -61.808708 -41.677250 336.558289
   vertex -62.327343 -41.643112 335.897766
   vertex -61.809620 -40.678619 336.610626
  endloop
 endfacet

 facet normal -0.786918 -0.033012 0.616173
  outer loop
   vertex -63.512341 -41.692818 336.825653
   vertex -62.993706 -41.726952 337.486176
   vertex -62.994617 -40.728325 337.538513
  endloop
 endfacet

 facet normal 0.786974 0.033004 -0.616103
  outer loop
   vertex -61.828201 -50.452717 336.090973
   vertex -61.869049 -50.450027 336.038940
   vertex -61.877499 -41.213165 336.522949
  endloop
 endfacet

 facet normal -0.300298 -0.935244 0.187457
  outer loop
   vertex -61.194801 -51.605541 338.032440
   vertex -60.577747 -51.646156 338.818298
   vertex -61.751507 -51.336388 338.483459
  endloop
 endfacet

 facet normal -0.300296 -0.935246 0.187448
  outer loop
   vertex -61.751507 -51.336388 338.483459
   vertex -60.577747 -51.646156 338.818298
   vertex -61.134453 -51.377003 339.269348
  endloop
 endfacet

 facet normal -0.726677 -0.412650 0.549237
  outer loop
   vertex -61.134453 -51.377003 339.269348
   vertex -61.982635 -50.639919 338.700928
   vertex -61.751507 -51.336388 338.483459
  endloop
 endfacet

 facet normal -0.726677 -0.412650 0.549237
  outer loop
   vertex -61.365582 -50.680534 339.486816
   vertex -61.982635 -50.639919 338.700928
   vertex -61.134453 -51.377003 339.269348
  endloop
 endfacet

 facet normal -0.727376 0.351661 0.589286
  outer loop
   vertex -61.752796 -49.924114 338.557465
   vertex -61.982635 -50.639919 338.700928
   vertex -61.365582 -50.680534 339.486816
  endloop
 endfacet

 facet normal -0.727376 0.351661 0.589286
  outer loop
   vertex -61.365582 -50.680534 339.486816
   vertex -61.135742 -49.964729 339.343353
   vertex -61.752796 -49.924114 338.557465
  endloop
 endfacet

 facet normal -0.301989 0.909982 0.284140
  outer loop
   vertex -61.752796 -49.924114 338.557465
   vertex -61.135742 -49.964729 339.343353
   vertex -61.196629 -49.608280 338.137085
  endloop
 endfacet

 facet normal -0.301989 0.909982 0.284140
  outer loop
   vertex -61.196629 -49.608280 338.137085
   vertex -61.135742 -49.964729 339.343353
   vertex -60.579575 -49.648895 338.922974
  endloop
 endfacet

 facet normal 0.300301 0.935244 -0.187453
  outer loop
   vertex -60.579575 -49.648895 338.922974
   vertex -60.639923 -49.877434 337.686066
   vertex -61.196629 -49.608280 338.137085
  endloop
 endfacet

 facet normal 0.300301 0.935244 -0.187453
  outer loop
   vertex -60.022869 -49.918049 338.471954
   vertex -60.639923 -49.877434 337.686066
   vertex -60.579575 -49.648895 338.922974
  endloop
 endfacet

 facet normal 0.726677 0.412650 -0.549237
  outer loop
   vertex -60.408794 -50.573902 337.468597
   vertex -60.639923 -49.877434 337.686066
   vertex -60.022869 -49.918049 338.471954
  endloop
 endfacet

 facet normal 0.726660 0.412670 -0.549244
  outer loop
   vertex -60.022869 -49.918049 338.471954
   vertex -59.791740 -50.614517 338.254456
   vertex -60.408794 -50.573902 337.468597
  endloop
 endfacet

 facet normal 0.727366 -0.351658 -0.589301
  outer loop
   vertex -60.408794 -50.573902 337.468597
   vertex -59.791740 -50.614517 338.254456
   vertex -60.638634 -51.289711 337.612061
  endloop
 endfacet

 facet normal 0.727369 -0.351678 -0.589285
  outer loop
   vertex -60.638634 -51.289711 337.612061
   vertex -59.791740 -50.614517 338.254456
   vertex -60.021576 -51.330326 338.397949
  endloop
 endfacet

 facet normal 0.301985 -0.909984 -0.284139
  outer loop
   vertex -60.021576 -51.330326 338.397949
   vertex -61.194801 -51.605541 338.032440
   vertex -60.638634 -51.289711 337.612061
  endloop
 endfacet

 facet normal 0.301988 -0.909979 -0.284150
  outer loop
   vertex -60.577747 -51.646156 338.818298
   vertex -61.194801 -51.605541 338.032440
   vertex -60.021576 -51.330326 338.397949
  endloop
 endfacet

 facet normal 0.300306 0.935241 -0.187458
  outer loop
   vertex -61.676167 -41.047150 337.696381
   vertex -62.432400 -40.939243 337.023254
   vertex -61.815342 -40.979858 337.809143
  endloop
 endfacet

 facet normal -0.301987 0.909983 0.284140
  outer loop
   vertex -61.815342 -40.979858 337.809143
   vertex -62.432400 -40.939243 337.023254
   vertex -62.571442 -41.018204 337.128357
  endloop
 endfacet

 facet normal -0.302011 0.909966 0.284167
  outer loop
   vertex -62.571442 -41.018204 337.128357
   vertex -61.954388 -41.058819 337.914215
   vertex -61.815342 -40.979858 337.809143
  endloop
 endfacet

 facet normal -0.727376 0.351628 0.589307
  outer loop
   vertex -62.628899 -41.197155 337.164215
   vertex -61.954388 -41.058819 337.914215
   vertex -62.571442 -41.018204 337.128357
  endloop
 endfacet

 facet normal -0.727359 0.351717 0.589275
  outer loop
   vertex -62.011845 -41.237770 337.950104
   vertex -61.954388 -41.058819 337.914215
   vertex -62.628899 -41.197155 337.164215
  endloop
 endfacet

 facet normal -0.726692 -0.412605 0.549251
  outer loop
   vertex -62.628899 -41.197155 337.164215
   vertex -62.571117 -41.371273 337.109863
   vertex -62.011845 -41.237770 337.950104
  endloop
 endfacet

 facet normal -0.726655 -0.412685 0.549239
  outer loop
   vertex -62.011845 -41.237770 337.950104
   vertex -62.571117 -41.371273 337.109863
   vertex -61.954063 -41.411888 337.895721
  endloop
 endfacet

 facet normal -0.300290 -0.935248 0.187451
  outer loop
   vertex -61.954063 -41.411888 337.895721
   vertex -62.571117 -41.371273 337.109863
   vertex -62.431942 -41.438560 336.997101
  endloop
 endfacet

 facet normal -0.300290 -0.935248 0.187451
  outer loop
   vertex -62.431942 -41.438560 336.997101
   vertex -61.814888 -41.479176 337.782959
   vertex -61.954063 -41.411888 337.895721
  endloop
 endfacet

 facet normal 0.301969 -0.909990 -0.284136
  outer loop
   vertex -62.292900 -41.359604 336.891998
   vertex -61.814888 -41.479176 337.782959
   vertex -62.431942 -41.438560 336.997101
  endloop
 endfacet

 facet normal 0.302007 -0.909972 -0.284154
  outer loop
   vertex -61.675846 -41.400219 337.677887
   vertex -61.814888 -41.479176 337.782959
   vertex -62.292900 -41.359604 336.891998
  endloop
 endfacet

 facet normal 0.727385 -0.351636 -0.589291
  outer loop
   vertex -62.292900 -41.359604 336.891998
   vertex -62.235439 -41.180649 336.856140
   vertex -61.675846 -41.400219 337.677887
  endloop
 endfacet

 facet normal 0.727342 -0.351729 -0.589287
  outer loop
   vertex -61.675846 -41.400219 337.677887
   vertex -62.235439 -41.180649 336.856140
   vertex -61.618385 -41.221268 337.641998
  endloop
 endfacet

 facet normal 0.726653 0.412692 -0.549236
  outer loop
   vertex -61.618385 -41.221268 337.641998
   vertex -62.235439 -41.180649 336.856140
   vertex -62.293221 -41.006535 336.910522
  endloop
 endfacet

 facet normal 0.726655 0.412685 -0.549239
  outer loop
   vertex -62.293221 -41.006535 336.910522
   vertex -61.676167 -41.047150 337.696381
   vertex -61.618385 -41.221268 337.641998
  endloop
 endfacet

 facet normal 0.300321 0.935233 -0.187476
  outer loop
   vertex -62.432400 -40.939243 337.023254
   vertex -61.676167 -41.047150 337.696381
   vertex -62.293221 -41.006535 336.910522
  endloop
 endfacet

 facet normal 0.300298 0.935244 -0.187457
  outer loop
   vertex -60.031410 -40.580864 338.961212
   vertex -61.205170 -40.271095 338.626373
   vertex -60.588116 -40.311710 339.412231
  endloop
 endfacet

 facet normal -0.301980 0.909983 0.284144
  outer loop
   vertex -60.588116 -40.311710 339.412231
   vertex -61.205170 -40.271095 338.626373
   vertex -61.761337 -40.586926 339.046753
  endloop
 endfacet

 facet normal -0.301980 0.909983 0.284144
  outer loop
   vertex -61.761337 -40.586926 339.046753
   vertex -61.144283 -40.627541 339.832611
   vertex -60.588116 -40.311710 339.412231
  endloop
 endfacet

 facet normal -0.727365 0.351660 0.589300
  outer loop
   vertex -61.991177 -41.302731 339.190216
   vertex -61.144283 -40.627541 339.832611
   vertex -61.761337 -40.586926 339.046753
  endloop
 endfacet

 facet normal -0.727365 0.351657 0.589303
  outer loop
   vertex -61.374119 -41.343346 339.976074
   vertex -61.144283 -40.627541 339.832611
   vertex -61.991177 -41.302731 339.190216
  endloop
 endfacet

 facet normal -0.726664 -0.412652 0.549252
  outer loop
   vertex -61.991177 -41.302731 339.190216
   vertex -61.760044 -41.999203 338.972748
   vertex -61.374119 -41.343346 339.976074
  endloop
 endfacet

 facet normal -0.726667 -0.412648 0.549251
  outer loop
   vertex -61.374119 -41.343346 339.976074
   vertex -61.760044 -41.999203 338.972748
   vertex -61.142990 -42.039818 339.758606
  endloop
 endfacet

 facet normal -0.300293 -0.935246 0.187454
  outer loop
   vertex -61.142990 -42.039818 339.758606
   vertex -61.760044 -41.999203 338.972748
   vertex -61.203342 -42.268356 338.521698
  endloop
 endfacet

 facet normal -0.300302 -0.935243 0.187454
  outer loop
   vertex -61.203342 -42.268356 338.521698
   vertex -60.586288 -42.308971 339.307587
   vertex -61.142990 -42.039818 339.758606
  endloop
 endfacet

 facet normal 0.301996 -0.909978 -0.284146
  outer loop
   vertex -60.647171 -41.952522 338.101349
   vertex -60.586288 -42.308971 339.307587
   vertex -61.203342 -42.268356 338.521698
  endloop
 endfacet

 facet normal 0.301983 -0.909982 -0.284146
  outer loop
   vertex -60.030117 -41.993137 338.887207
   vertex -60.586288 -42.308971 339.307587
   vertex -60.647171 -41.952522 338.101349
  endloop
 endfacet

 facet normal 0.727359 -0.351679 -0.589297
  outer loop
   vertex -60.647171 -41.952522 338.101349
   vertex -60.417336 -41.236717 337.957855
   vertex -60.030117 -41.993137 338.887207
  endloop
 endfacet

 facet normal 0.727378 -0.351657 -0.589287
  outer loop
   vertex -60.030117 -41.993137 338.887207
   vertex -60.417336 -41.236717 337.957855
   vertex -59.800282 -41.277332 338.743744
  endloop
 endfacet

 facet normal 0.726670 0.412670 -0.549231
  outer loop
   vertex -59.800282 -41.277332 338.743744
   vertex -60.417336 -41.236717 337.957855
   vertex -60.648464 -40.540249 338.175354
  endloop
 endfacet

 facet normal 0.726666 0.412650 -0.549250
  outer loop
   vertex -60.648464 -40.540249 338.175354
   vertex -60.031410 -40.580864 338.961212
   vertex -59.800282 -41.277332 338.743744
  endloop
 endfacet

 facet normal 0.300298 0.935244 -0.187457
  outer loop
   vertex -61.205170 -40.271095 338.626373
   vertex -60.031410 -40.580864 338.961212
   vertex -60.648464 -40.540249 338.175354
  endloop
 endfacet

 facet normal -0.104597 0.791868 -0.601668
  outer loop
   vertex -60.648464 -40.540249 338.175354
   vertex -61.821537 -40.979454 337.801239
   vertex -61.205170 -40.271095 338.626373
  endloop
 endfacet

 facet normal -0.599664 0.771100 -0.214029
  outer loop
   vertex -61.205170 -40.271095 338.626373
   vertex -61.821537 -40.979454 337.801239
   vertex -61.960579 -41.058411 337.906342
  endloop
 endfacet

 facet normal -0.599661 0.771101 -0.214033
  outer loop
   vertex -61.960579 -41.058411 337.906342
   vertex -61.761337 -40.586926 339.046753
   vertex -61.205170 -40.271095 338.626373
  endloop
 endfacet

 facet normal -0.949307 0.312191 0.036783
  outer loop
   vertex -62.018040 -41.237362 337.942200
   vertex -61.761337 -40.586926 339.046753
   vertex -61.960579 -41.058411 337.906342
  endloop
 endfacet

 facet normal -0.949308 0.312188 0.036785
  outer loop
   vertex -61.991177 -41.302731 339.190216
   vertex -61.761337 -40.586926 339.046753
   vertex -62.018040 -41.237362 337.942200
  endloop
 endfacet

 facet normal -0.948736 -0.316046 0.003867
  outer loop
   vertex -62.018040 -41.237362 337.942200
   vertex -61.960258 -41.411480 337.887848
   vertex -61.991177 -41.302731 339.190216
  endloop
 endfacet

 facet normal -0.948733 -0.316056 0.003868
  outer loop
   vertex -61.991177 -41.302731 339.190216
   vertex -61.960258 -41.411480 337.887848
   vertex -61.760044 -41.999203 338.972748
  endloop
 endfacet

 facet normal -0.598269 -0.745605 -0.293508
  outer loop
   vertex -61.760044 -41.999203 338.972748
   vertex -61.960258 -41.411480 337.887848
   vertex -61.821079 -41.478767 337.775085
  endloop
 endfacet

 facet normal -0.598282 -0.745596 -0.293504
  outer loop
   vertex -61.821079 -41.478767 337.775085
   vertex -61.203342 -42.268356 338.521698
   vertex -61.760044 -41.999203 338.972748
  endloop
 endfacet

 facet normal -0.103260 -0.724843 -0.681131
  outer loop
   vertex -61.682037 -41.399811 337.669983
   vertex -61.203342 -42.268356 338.521698
   vertex -61.821079 -41.478767 337.775085
  endloop
 endfacet

 facet normal -0.103198 -0.724831 -0.681153
  outer loop
   vertex -60.647171 -41.952522 338.101349
   vertex -61.203342 -42.268356 338.521698
   vertex -61.682037 -41.399811 337.669983
  endloop
 endfacet

 facet normal 0.246469 -0.265882 -0.931966
  outer loop
   vertex -61.682037 -41.399811 337.669983
   vertex -61.624580 -41.220860 337.634125
   vertex -60.647171 -41.952522 338.101349
  endloop
 endfacet

 facet normal 0.246418 -0.265947 -0.931961
  outer loop
   vertex -60.647171 -41.952522 338.101349
   vertex -61.624580 -41.220860 337.634125
   vertex -60.417336 -41.236717 337.957855
  endloop
 endfacet

 facet normal 0.245852 0.362238 -0.899078
  outer loop
   vertex -60.417336 -41.236717 337.957855
   vertex -61.624580 -41.220860 337.634125
   vertex -61.682362 -41.046741 337.688477
  endloop
 endfacet

 facet normal 0.245858 0.362347 -0.899032
  outer loop
   vertex -61.682362 -41.046741 337.688477
   vertex -60.648464 -40.540249 338.175354
   vertex -60.417336 -41.236717 337.957855
  endloop
 endfacet

 facet normal -0.104610 0.791884 -0.601645
  outer loop
   vertex -61.821537 -40.979454 337.801239
   vertex -60.648464 -40.540249 338.175354
   vertex -61.682362 -41.046741 337.688477
  endloop
 endfacet

 facet normal -0.300312 -0.935237 0.187469
  outer loop
   vertex -62.423401 -50.775745 336.507843
   vertex -61.806347 -50.816360 337.293701
   vertex -62.562576 -50.708458 336.620575
  endloop
 endfacet

 facet normal -0.300293 -0.935247 0.187447
  outer loop
   vertex -62.562576 -50.708458 336.620575
   vertex -61.806347 -50.816360 337.293701
   vertex -61.945522 -50.749073 337.406464
  endloop
 endfacet

 facet normal -0.726661 -0.412698 0.549222
  outer loop
   vertex -61.945522 -50.749073 337.406464
   vertex -62.620361 -50.534340 336.674957
   vertex -62.562576 -50.708458 336.620575
  endloop
 endfacet

 facet normal -0.726680 -0.412605 0.549266
  outer loop
   vertex -62.003304 -50.574955 337.460815
   vertex -62.620361 -50.534340 336.674957
   vertex -61.945522 -50.749073 337.406464
  endloop
 endfacet

 facet normal -0.727370 0.351641 0.589306
  outer loop
   vertex -62.562901 -50.355389 336.639099
   vertex -62.620361 -50.534340 336.674957
   vertex -62.003304 -50.574955 337.460815
  endloop
 endfacet

 facet normal -0.727376 0.351628 0.589307
  outer loop
   vertex -62.003304 -50.574955 337.460815
   vertex -61.945847 -50.396004 337.424957
   vertex -62.562901 -50.355389 336.639099
  endloop
 endfacet

 facet normal -0.301969 0.909990 0.284136
  outer loop
   vertex -62.562901 -50.355389 336.639099
   vertex -61.945847 -50.396004 337.424957
   vertex -62.423859 -50.276432 336.533997
  endloop
 endfacet

 facet normal -0.301969 0.909990 0.284136
  outer loop
   vertex -62.423859 -50.276432 336.533997
   vertex -61.945847 -50.396004 337.424957
   vertex -61.806805 -50.317047 337.319855
  endloop
 endfacet

 facet normal 0.300290 0.935248 -0.187451
  outer loop
   vertex -61.806805 -50.317047 337.319855
   vertex -62.284683 -50.343719 336.421234
   vertex -62.423859 -50.276432 336.533997
  endloop
 endfacet

 facet normal 0.300315 0.935237 -0.187464
  outer loop
   vertex -61.667629 -50.384335 337.207123
   vertex -62.284683 -50.343719 336.421234
   vertex -61.806805 -50.317047 337.319855
  endloop
 endfacet

 facet normal 0.726687 0.412618 -0.549247
  outer loop
   vertex -62.226898 -50.517838 336.366882
   vertex -62.284683 -50.343719 336.421234
   vertex -61.667629 -50.384335 337.207123
  endloop
 endfacet

 facet normal 0.726651 0.412698 -0.549235
  outer loop
   vertex -61.667629 -50.384335 337.207123
   vertex -61.609844 -50.558453 337.152740
   vertex -62.226898 -50.517838 336.366882
  endloop
 endfacet

 facet normal 0.727371 -0.351641 -0.589304
  outer loop
   vertex -62.226898 -50.517838 336.366882
   vertex -61.609844 -50.558453 337.152740
   vertex -62.284359 -50.696789 336.402740
  endloop
 endfacet

 facet normal 0.727371 -0.351641 -0.589304
  outer loop
   vertex -62.284359 -50.696789 336.402740
   vertex -61.609844 -50.558453 337.152740
   vertex -61.667305 -50.737404 337.188599
  endloop
 endfacet

 facet normal 0.301969 -0.909990 -0.284136
  outer loop
   vertex -61.667305 -50.737404 337.188599
   vertex -62.423401 -50.775745 336.507843
   vertex -62.284359 -50.696789 336.402740
  endloop
 endfacet

 facet normal 0.301969 -0.909990 -0.284136
  outer loop
   vertex -61.806347 -50.816360 337.293701
   vertex -62.423401 -50.775745 336.507843
   vertex -61.667305 -50.737404 337.188599
  endloop
 endfacet

 facet normal -0.103246 -0.724854 -0.681122
  outer loop
   vertex -61.673500 -50.736996 337.180725
   vertex -60.638634 -51.289711 337.612061
   vertex -61.812542 -50.815952 337.285828
  endloop
 endfacet

 facet normal -0.103232 -0.724835 -0.681144
  outer loop
   vertex -61.812542 -50.815952 337.285828
   vertex -60.638634 -51.289711 337.612061
   vertex -61.194801 -51.605541 338.032440
  endloop
 endfacet

 facet normal -0.598249 -0.745608 -0.293541
  outer loop
   vertex -61.194801 -51.605541 338.032440
   vertex -61.951717 -50.748665 337.398560
   vertex -61.812542 -50.815952 337.285828
  endloop
 endfacet

 facet normal -0.598270 -0.745604 -0.293509
  outer loop
   vertex -61.751507 -51.336388 338.483459
   vertex -61.951717 -50.748665 337.398560
   vertex -61.194801 -51.605541 338.032440
  endloop
 endfacet

 facet normal -0.948736 -0.316047 0.003870
  outer loop
   vertex -62.009499 -50.574547 337.452942
   vertex -61.951717 -50.748665 337.398560
   vertex -61.751507 -51.336388 338.483459
  endloop
 endfacet

 facet normal -0.948734 -0.316052 0.003866
  outer loop
   vertex -61.751507 -51.336388 338.483459
   vertex -61.982635 -50.639919 338.700928
   vertex -62.009499 -50.574547 337.452942
  endloop
 endfacet

 facet normal -0.949307 0.312191 0.036787
  outer loop
   vertex -62.009499 -50.574547 337.452942
   vertex -61.982635 -50.639919 338.700928
   vertex -61.952038 -50.395596 337.417084
  endloop
 endfacet

 facet normal -0.949308 0.312188 0.036787
  outer loop
   vertex -61.952038 -50.395596 337.417084
   vertex -61.982635 -50.639919 338.700928
   vertex -61.752796 -49.924114 338.557465
  endloop
 endfacet

 facet normal -0.599666 0.771097 -0.214033
  outer loop
   vertex -61.752796 -49.924114 338.557465
   vertex -61.812996 -50.316639 337.311981
   vertex -61.952038 -50.395596 337.417084
  endloop
 endfacet

 facet normal -0.599665 0.771098 -0.214034
  outer loop
   vertex -61.196629 -49.608280 338.137085
   vertex -61.812996 -50.316639 337.311981
   vertex -61.752796 -49.924114 338.557465
  endloop
 endfacet

 facet normal -0.104632 0.791867 -0.601663
  outer loop
   vertex -61.673820 -50.383926 337.199219
   vertex -61.812996 -50.316639 337.311981
   vertex -61.196629 -49.608280 338.137085
  endloop
 endfacet

 facet normal -0.104604 0.791863 -0.601674
  outer loop
   vertex -61.196629 -49.608280 338.137085
   vertex -60.639923 -49.877434 337.686066
   vertex -61.673820 -50.383926 337.199219
  endloop
 endfacet

 facet normal 0.245895 0.362247 -0.899062
  outer loop
   vertex -61.673820 -50.383926 337.199219
   vertex -60.639923 -49.877434 337.686066
   vertex -61.616039 -50.558044 337.144867
  endloop
 endfacet

 facet normal 0.245845 0.362309 -0.899051
  outer loop
   vertex -61.616039 -50.558044 337.144867
   vertex -60.639923 -49.877434 337.686066
   vertex -60.408794 -50.573902 337.468597
  endloop
 endfacet

 facet normal 0.246424 -0.265876 -0.931979
  outer loop
   vertex -60.408794 -50.573902 337.468597
   vertex -61.673500 -50.736996 337.180725
   vertex -61.616039 -50.558044 337.144867
  endloop
 endfacet

 facet normal 0.246426 -0.265911 -0.931969
  outer loop
   vertex -60.638634 -51.289711 337.612061
   vertex -61.673500 -50.736996 337.180725
   vertex -60.408794 -50.573902 337.468597
  endloop
 endfacet

endsolid