solid stl file generated from DOUG
 facet normal 0.854665 -0.515271 -0.063587
  outer loop
   vertex -23.481670 232.579132 437.128204
   vertex -22.629194 233.913589 437.772583
   vertex -22.672569 233.807434 438.049805
  endloop
 facet normal 0.498680 0.780546 0.376916
  outer loop
   vertex -22.672569 233.807434 438.049805
   vertex -22.629194 233.913589 437.772583
   vertex -24.049147 234.769760 437.878235
  endloop
 facet normal 0.498681 0.780547 0.376914
  outer loop
   vertex -24.049147 234.769760 437.878235
   vertex -24.092520 234.663605 438.155457
   vertex -22.672569 233.807434 438.049805
  endloop
 facet normal -0.854665 0.515271 0.063593
  outer loop
   vertex -24.945007 233.329132 437.511108
   vertex -24.092520 234.663605 438.155457
   vertex -24.049147 234.769760 437.878235
  endloop
 facet normal -0.144584 -0.353822 0.924070
  outer loop
   vertex -22.672569 233.807434 438.049805
   vertex -24.092520 234.663605 438.155457
   vertex -24.945007 233.329132 437.511108
  endloop
 facet normal -0.144576 -0.353850 0.924061
  outer loop
   vertex -24.945007 233.329132 437.511108
   vertex -23.525043 232.472977 437.405426
   vertex -22.672569 233.807434 438.049805
  endloop
 facet normal 0.854666 -0.515268 -0.063592
  outer loop
   vertex -22.672569 233.807434 438.049805
   vertex -23.525043 232.472977 437.405426
   vertex -23.481670 232.579132 437.128204
  endloop
 facet normal 0.854620 -0.515341 -0.063627
  outer loop
   vertex -36.044174 212.916077 427.633453
   vertex -36.087547 212.809921 427.910675
   vertex -36.940159 211.475540 427.266327
  endloop
 facet normal -0.144592 -0.353827 0.924067
  outer loop
   vertex -36.940159 211.475540 427.266327
   vertex -36.087547 212.809921 427.910675
   vertex -37.507488 213.666107 428.016327
  endloop
 facet normal -0.144587 -0.353826 0.924068
  outer loop
   vertex -37.507488 213.666107 428.016327
   vertex -38.360107 212.331711 427.371979
   vertex -36.940159 211.475540 427.266327
  endloop
 facet normal -0.854620 0.515340 0.063626
  outer loop
   vertex -38.316734 212.437866 427.094757
   vertex -38.360107 212.331711 427.371979
   vertex -37.507488 213.666107 428.016327
  endloop
 facet normal -0.498682 -0.780546 -0.376913
  outer loop
   vertex -36.940159 211.475540 427.266327
   vertex -38.360107 212.331711 427.371979
   vertex -38.316734 212.437866 427.094757
  endloop
 facet normal -0.498680 -0.780545 -0.376919
  outer loop
   vertex -38.316734 212.437866 427.094757
   vertex -36.896782 211.581696 426.989105
   vertex -36.940159 211.475540 427.266327
  endloop
 facet normal 0.854619 -0.515343 -0.063616
  outer loop
   vertex -36.940159 211.475540 427.266327
   vertex -36.896782 211.581696 426.989105
   vertex -36.044174 212.916077 427.633453
  endloop
 facet normal -0.854650 0.515296 0.063593
  outer loop
   vertex -24.757215 233.661331 437.343048
   vertex -24.914417 233.415268 437.224213
   vertex -25.314417 232.436340 439.780762
  endloop
 facet normal -0.498668 -0.780559 -0.376906
  outer loop
   vertex -25.314417 232.436340 439.780762
   vertex -24.914417 233.415268 437.224213
   vertex -23.494455 232.559128 437.118561
  endloop
 facet normal -0.498678 -0.780549 -0.376913
  outer loop
   vertex -23.494455 232.559128 437.118561
   vertex -23.894455 231.580185 439.675079
   vertex -25.314417 232.436340 439.780762
  endloop
 facet normal 0.854660 -0.515279 -0.063589
  outer loop
   vertex -23.737251 231.826263 439.793915
   vertex -23.894455 231.580185 439.675079
   vertex -23.494455 232.559128 437.118561
  endloop
 facet normal -0.144590 -0.353870 0.924051
  outer loop
   vertex -25.314417 232.436340 439.780762
   vertex -23.894455 231.580185 439.675079
   vertex -23.737251 231.826263 439.793915
  endloop
 facet normal -0.144566 -0.353808 0.924078
  outer loop
   vertex -23.737251 231.826263 439.793915
   vertex -25.157215 232.682404 439.899567
   vertex -25.314417 232.436340 439.780762
  endloop
 facet normal -0.854647 0.515300 0.063596
  outer loop
   vertex -25.314417 232.436340 439.780762
   vertex -25.157215 232.682404 439.899567
   vertex -24.757215 233.661331 437.343048
  endloop
 facet normal 0.498666 0.780558 0.376910
  outer loop
   vertex -24.757215 233.661331 437.343048
   vertex -25.157215 232.682404 439.899567
   vertex -23.737251 231.826263 439.793915
  endloop
 facet normal 0.498673 0.780556 0.376905
  outer loop
   vertex -23.737251 231.826263 439.793915
   vertex -23.337252 232.805191 437.237366
   vertex -24.757215 233.661331 437.343048
  endloop
 facet normal 0.854644 -0.515305 -0.063597
  outer loop
   vertex -23.494455 232.559128 437.118561
   vertex -23.337252 232.805191 437.237366
   vertex -23.737251 231.826263 439.793915
  endloop
 facet normal 0.498697 0.780541 0.376904
  outer loop
   vertex -36.031387 212.936081 427.643097
   vertex -37.451328 213.792267 427.748779
   vertex -37.851330 212.813339 430.305328
  endloop
 facet normal -0.854628 0.515329 0.063608
  outer loop
   vertex -37.851330 212.813339 430.305328
   vertex -37.451328 213.792267 427.748779
   vertex -37.608543 213.546204 427.629974
  endloop
 facet normal -0.854637 0.515316 0.063604
  outer loop
   vertex -37.608543 213.546204 427.629974
   vertex -38.008541 212.567276 430.186493
   vertex -37.851330 212.813339 430.305328
  endloop
 facet normal -0.498692 -0.780543 -0.376907
  outer loop
   vertex -36.588604 211.711090 430.080841
   vertex -38.008541 212.567276 430.186493
   vertex -37.608543 213.546204 427.629974
  endloop
 facet normal -0.144619 -0.353868 0.924047
  outer loop
   vertex -37.851330 212.813339 430.305328
   vertex -38.008541 212.567276 430.186493
   vertex -36.588604 211.711090 430.080841
  endloop
 facet normal -0.144558 -0.353806 0.924080
  outer loop
   vertex -36.588604 211.711090 430.080841
   vertex -36.431389 211.957153 430.199646
   vertex -37.851330 212.813339 430.305328
  endloop
 facet normal 0.498697 0.780541 0.376904
  outer loop
   vertex -37.851330 212.813339 430.305328
   vertex -36.431389 211.957153 430.199646
   vertex -36.031387 212.936081 427.643097
  endloop
 facet normal 0.854628 -0.515329 -0.063608
  outer loop
   vertex -36.031387 212.936081 427.643097
   vertex -36.431389 211.957153 430.199646
   vertex -36.588604 211.711090 430.080841
  endloop
 facet normal 0.854628 -0.515329 -0.063608
  outer loop
   vertex -36.588604 211.711090 430.080841
   vertex -36.188602 212.690018 427.524292
   vertex -36.031387 212.936081 427.643097
  endloop
 facet normal -0.498697 -0.780541 -0.376904
  outer loop
   vertex -37.608543 213.546204 427.629974
   vertex -36.188602 212.690018 427.524292
   vertex -36.588604 211.711090 430.080841
  endloop
 facet normal -0.854616 0.515350 0.063609
  outer loop
   vertex -37.464115 213.772247 427.739136
   vertex -38.316734 212.437866 427.094757
   vertex -37.507488 213.666107 428.016327
  endloop
 facet normal -0.854664 0.515272 0.063588
  outer loop
   vertex -24.901632 233.435287 437.233887
   vertex -24.945007 233.329132 437.511108
   vertex -24.049147 234.769760 437.878235
  endloop
 facet normal -0.854632 0.515323 0.063604
  outer loop
   vertex -24.937654 232.728973 439.127533
   vertex -37.644527 212.840714 429.523956
   vertex -25.040306 232.477753 439.783630
  endloop
 facet normal -0.854633 0.515322 0.063606
  outer loop
   vertex -25.040306 232.477753 439.783630
   vertex -37.644527 212.840714 429.523956
   vertex -37.747177 212.589493 430.180054
  endloop
 facet normal -0.144593 -0.353829 0.924066
  outer loop
   vertex -23.983400 231.840378 439.704956
   vertex -25.040306 232.477753 439.783630
   vertex -36.690273 211.952118 430.101349
  endloop
 facet normal -0.144573 -0.353840 0.924065
  outer loop
   vertex -36.690273 211.952118 430.101349
   vertex -25.040306 232.477753 439.783630
   vertex -37.747177 212.589493 430.180054
  endloop
 facet normal 0.144593 0.353828 -0.924066
  outer loop
   vertex -24.937654 232.728973 439.127533
   vertex -23.880749 232.091599 439.048859
   vertex -37.644527 212.840714 429.523956
  endloop
 facet normal 0.144573 0.353841 -0.924065
  outer loop
   vertex -37.644527 212.840714 429.523956
   vertex -23.880749 232.091599 439.048859
   vertex -36.587620 212.203339 429.445251
  endloop
 facet normal 0.854632 -0.515324 -0.063602
  outer loop
   vertex -36.587620 212.203339 429.445251
   vertex -23.880749 232.091599 439.048859
   vertex -36.690273 211.952118 430.101349
  endloop
 facet normal 0.854632 -0.515323 -0.063604
  outer loop
   vertex -36.690273 211.952118 430.101349
   vertex -23.880749 232.091599 439.048859
   vertex -23.983400 231.840378 439.704956
  endloop
endsolid