solid stl file generated from DOUG
 facet normal 0.854628 -0.515326 -0.063635
  outer loop
   vertex -22.619465 237.440857 409.322876
   vertex -22.931540 237.182404 407.224670
   vertex -22.782061 237.436920 407.171082
  endloop
 facet normal -0.146002 -0.120984 -0.981859
  outer loop
   vertex -22.782061 237.436920 407.171082
   vertex -22.931540 237.182404 407.224670
   vertex -24.351492 238.038559 407.330322
  endloop
 facet normal -0.145965 -0.120883 -0.981876
  outer loop
   vertex -24.351492 238.038559 407.330322
   vertex -24.202011 238.293091 407.276764
   vertex -22.782061 237.436920 407.171082
  endloop
 facet normal -0.854642 0.515303 0.063637
  outer loop
   vertex -23.889933 238.551559 409.375000
   vertex -24.202011 238.293091 407.276764
   vertex -24.351492 238.038559 407.330322
  endloop
 facet normal 0.498269 0.848423 -0.178621
  outer loop
   vertex -22.782061 237.436920 407.171082
   vertex -24.202011 238.293091 407.276764
   vertex -23.889933 238.551559 409.375000
  endloop
 facet normal 0.498267 0.848424 -0.178623
  outer loop
   vertex -23.889933 238.551559 409.375000
   vertex -22.469984 237.695389 409.269287
   vertex -22.782061 237.436920 407.171082
  endloop
 facet normal 0.854639 -0.515308 -0.063636
  outer loop
   vertex -22.782061 237.436920 407.171082
   vertex -22.469984 237.695389 409.269287
   vertex -22.619465 237.440857 409.322876
  endloop
 facet normal 0.854650 -0.515299 -0.063565
  outer loop
   vertex -18.021908 241.249985 440.240845
   vertex -17.872427 241.504517 440.187256
   vertex -17.560484 241.763062 442.285492
  endloop
 facet normal 0.498271 0.848422 -0.178620
  outer loop
   vertex -17.560484 241.763062 442.285492
   vertex -17.872427 241.504517 440.187256
   vertex -19.292381 242.360687 440.292908
  endloop
 facet normal 0.498272 0.848422 -0.178621
  outer loop
   vertex -19.292381 242.360687 440.292908
   vertex -18.980436 242.619232 442.391144
   vertex -17.560484 241.763062 442.285492
  endloop
 facet normal -0.854652 0.515295 0.063567
  outer loop
   vertex -19.129915 242.364700 442.444733
   vertex -18.980436 242.619232 442.391144
   vertex -19.292381 242.360687 440.292908
  endloop
 facet normal 0.146000 0.120978 0.981860
  outer loop
   vertex -17.560484 241.763062 442.285492
   vertex -18.980436 242.619232 442.391144
   vertex -19.129915 242.364700 442.444733
  endloop
 facet normal 0.146000 0.120977 0.981860
  outer loop
   vertex -19.129915 242.364700 442.444733
   vertex -17.709965 241.508530 442.339081
   vertex -17.560484 241.763062 442.285492
  endloop
 facet normal 0.854650 -0.515299 -0.063565
  outer loop
   vertex -17.560484 241.763062 442.285492
   vertex -17.709965 241.508530 442.339081
   vertex -18.021908 241.249985 440.240845
  endloop
 facet normal -0.854637 0.515312 0.063630
  outer loop
   vertex -24.092274 238.253250 409.073120
   vertex -24.034733 238.300903 409.460052
   vertex -22.656212 240.648178 408.965881
  endloop
 facet normal 0.146027 0.120951 0.981859
  outer loop
   vertex -22.656212 240.648178 408.965881
   vertex -24.034733 238.300903 409.460052
   vertex -22.614786 237.444733 409.354340
  endloop
 facet normal 0.146027 0.120951 0.981859
  outer loop
   vertex -22.614786 237.444733 409.354340
   vertex -21.236265 239.792007 408.860168
   vertex -22.656212 240.648178 408.965881
  endloop
 facet normal 0.854639 -0.515310 -0.063615
  outer loop
   vertex -21.293806 239.744339 408.473267
   vertex -21.236265 239.792007 408.860168
   vertex -22.614786 237.444733 409.354340
  endloop
 facet normal 0.498266 0.848423 -0.178634
  outer loop
   vertex -22.656212 240.648178 408.965881
   vertex -21.236265 239.792007 408.860168
   vertex -21.293806 239.744339 408.473267
  endloop
 facet normal 0.498271 0.848423 -0.178620
  outer loop
   vertex -21.293806 239.744339 408.473267
   vertex -22.713753 240.600510 408.578949
   vertex -22.656212 240.648178 408.965881
  endloop
 facet normal -0.854639 0.515312 0.063609
  outer loop
   vertex -22.656212 240.648178 408.965881
   vertex -22.713753 240.600510 408.578949
   vertex -24.092274 238.253250 409.073120
  endloop
 facet normal -0.146012 -0.120961 -0.981860
  outer loop
   vertex -24.092274 238.253250 409.073120
   vertex -22.713753 240.600510 408.578949
   vertex -21.293806 239.744339 408.473267
  endloop
 facet normal -0.146011 -0.120961 -0.981860
  outer loop
   vertex -21.293806 239.744339 408.473267
   vertex -22.672325 237.397079 408.967438
   vertex -24.092274 238.253250 409.073120
  endloop
 facet normal 0.854636 -0.515314 -0.063630
  outer loop
   vertex -22.614786 237.444733 409.354340
   vertex -22.672325 237.397079 408.967438
   vertex -21.293806 239.744339 408.473267
  endloop
 facet normal -0.146001 -0.120980 -0.981859
  outer loop
   vertex -18.026587 241.246109 440.209381
   vertex -19.446541 242.102280 440.315033
   vertex -18.068020 244.449539 439.820831
  endloop
 facet normal -0.854642 0.515310 0.063586
  outer loop
   vertex -18.068020 244.449539 439.820831
   vertex -19.446541 242.102280 440.315033
   vertex -19.389013 242.149948 440.701935
  endloop
 facet normal -0.854647 0.515304 0.063562
  outer loop
   vertex -19.389013 242.149948 440.701935
   vertex -18.010492 244.497223 440.207764
   vertex -18.068020 244.449539 439.820831
  endloop
 facet normal 0.145995 0.120970 0.981861
  outer loop
   vertex -16.590536 243.641052 440.102112
   vertex -18.010492 244.497223 440.207764
   vertex -19.389013 242.149948 440.701935
  endloop
 facet normal 0.498269 0.848421 -0.178636
  outer loop
   vertex -18.068020 244.449539 439.820831
   vertex -18.010492 244.497223 440.207764
   vertex -16.590536 243.641052 440.102112
  endloop
 facet normal 0.498268 0.848425 -0.178619
  outer loop
   vertex -16.590536 243.641052 440.102112
   vertex -16.648066 243.593384 439.715210
   vertex -18.068020 244.449539 439.820831
  endloop
 facet normal -0.145979 -0.120980 -0.981863
  outer loop
   vertex -18.068020 244.449539 439.820831
   vertex -16.648066 243.593384 439.715210
   vertex -18.026587 241.246109 440.209381
  endloop
 facet normal 0.854643 -0.515307 -0.063590
  outer loop
   vertex -18.026587 241.246109 440.209381
   vertex -16.648066 243.593384 439.715210
   vertex -16.590536 243.641052 440.102112
  endloop
 facet normal 0.854644 -0.515307 -0.063570
  outer loop
   vertex -16.590536 243.641052 440.102112
   vertex -17.969057 241.293793 440.596283
   vertex -18.026587 241.246109 440.209381
  endloop
 facet normal 0.145994 0.120971 0.981861
  outer loop
   vertex -19.389013 242.149948 440.701935
   vertex -17.969057 241.293793 440.596283
   vertex -16.590536 243.641052 440.102112
  endloop
 facet normal -0.854649 0.515300 0.063566
  outer loop
   vertex -19.441862 242.106155 440.346497
   vertex -19.129915 242.364700 442.444733
   vertex -19.292381 242.360687 440.292908
  endloop
 facet normal -0.854639 0.515308 0.063635
  outer loop
   vertex -24.039413 238.297028 409.428589
   vertex -23.889933 238.551559 409.375000
   vertex -24.351492 238.038559 407.330322
  endloop
 facet normal -0.854638 0.515315 0.063586
  outer loop
   vertex -22.884928 239.866653 408.879608
   vertex -18.235022 243.719650 440.152039
   vertex -22.531157 240.469025 408.752777
  endloop
 facet normal -0.854644 0.515306 0.063587
  outer loop
   vertex -22.531157 240.469025 408.752777
   vertex -18.235022 243.719650 440.152039
   vertex -17.881250 244.322037 440.025208
  endloop
 facet normal 0.498272 0.848422 -0.178621
  outer loop
   vertex -21.474186 239.831741 408.674255
   vertex -22.531157 240.469025 408.752777
   vertex -16.824280 243.684753 439.946686
  endloop
 facet normal 0.498272 0.848422 -0.178621
  outer loop
   vertex -16.824280 243.684753 439.946686
   vertex -22.531157 240.469025 408.752777
   vertex -17.881250 244.322037 440.025208
  endloop
 facet normal -0.498273 -0.848422 0.178620
  outer loop
   vertex -22.884928 239.866653 408.879608
   vertex -21.827957 239.229370 408.801086
   vertex -18.235022 243.719650 440.152039
  endloop
 facet normal -0.498260 -0.848429 0.178620
  outer loop
   vertex -18.235022 243.719650 440.152039
   vertex -21.827957 239.229370 408.801086
   vertex -17.178051 243.082382 440.073486
  endloop
 facet normal 0.854640 -0.515313 -0.063586
  outer loop
   vertex -17.178051 243.082382 440.073486
   vertex -21.827957 239.229370 408.801086
   vertex -16.824280 243.684753 439.946686
  endloop
 facet normal 0.854639 -0.515315 -0.063585
  outer loop
   vertex -16.824280 243.684753 439.946686
   vertex -21.827957 239.229370 408.801086
   vertex -21.474186 239.831741 408.674255
  endloop
endsolid