solid stl file generated from DOUG
 facet normal -0.268206 -0.762918 -0.588236
  outer loop
   vertex -36.828083 -41.706333 458.472748
   vertex -36.908562 -41.622910 458.401245
   vertex -29.871325 -39.709969 452.711609
  endloop
 facet normal -0.634745 0.039832 -0.771694
  outer loop
   vertex -29.871325 -39.709969 452.711609
   vertex -36.908562 -41.622910 458.401245
   vertex -29.885204 -39.609516 452.728210
  endloop
 facet normal -0.485606 0.810224 -0.328213
  outer loop
   vertex -29.641644 -40.873150 452.604614
   vertex -29.700275 -40.947838 452.506989
   vertex -36.737511 -42.860779 458.196625
  endloop
 facet normal -0.634744 0.039822 -0.771696
  outer loop
   vertex -36.737511 -42.860779 458.196625
   vertex -29.700275 -40.947838 452.506989
   vertex -29.686394 -41.048286 452.490387
  endloop
 facet normal -0.634747 0.039843 -0.771692
  outer loop
   vertex -29.686394 -41.048286 452.490387
   vertex -36.723633 -42.961231 458.180023
   vertex -36.737511 -42.860779 458.196625
  endloop
 facet normal -0.544043 -0.313482 -0.778297
  outer loop
   vertex -29.221298 -41.077492 453.055817
   vertex -36.258533 -42.990433 458.745453
   vertex -29.233208 -41.046291 453.051575
  endloop
 facet normal -0.544043 -0.313482 -0.778297
  outer loop
   vertex -29.233208 -41.046291 453.051575
   vertex -36.258533 -42.990433 458.745453
   vertex -36.270443 -42.959232 458.741211
  endloop
 facet normal 0.135082 -0.977568 -0.161597
  outer loop
   vertex -36.270443 -42.959232 458.741211
   vertex -36.635525 -42.936310 458.297363
   vertex -29.233208 -41.046291 453.051575
  endloop
 facet normal -0.268191 -0.762933 -0.588223
  outer loop
   vertex -29.871325 -39.709969 452.711609
   vertex -29.790844 -39.793388 452.783112
   vertex -36.828083 -41.706333 458.472748
  endloop
 facet normal -0.634749 0.039860 -0.771689
  outer loop
   vertex -36.828083 -41.706333 458.472748
   vertex -29.790844 -39.793388 452.783112
   vertex -29.641644 -40.873150 452.604614
  endloop
 facet normal -0.634749 0.039858 -0.771690
  outer loop
   vertex -29.641644 -40.873150 452.604614
   vertex -36.678879 -42.786091 458.294250
   vertex -36.828083 -41.706333 458.472748
  endloop
 facet normal -0.485606 0.810224 -0.328213
  outer loop
   vertex -36.737511 -42.860779 458.196625
   vertex -36.678879 -42.786091 458.294250
   vertex -29.641644 -40.873150 452.604614
  endloop
 facet normal 0.135064 -0.977567 -0.161620
  outer loop
   vertex -36.723633 -42.961231 458.180023
   vertex -29.686394 -41.048286 452.490387
   vertex -36.638947 -42.966549 458.282959
  endloop
 facet normal 0.135064 -0.977567 -0.161620
  outer loop
   vertex -36.638947 -42.966549 458.282959
   vertex -29.686394 -41.048286 452.490387
   vertex -29.601707 -41.053604 452.593323
  endloop
 facet normal 0.640944 -0.388011 0.662298
  outer loop
   vertex -29.601707 -41.053604 452.593323
   vertex -36.635525 -42.936310 458.297363
   vertex -36.638947 -42.966549 458.282959
  endloop
 facet normal 0.640943 -0.388018 0.662294
  outer loop
   vertex -29.598288 -41.023369 452.607727
   vertex -36.635525 -42.936310 458.297363
   vertex -29.601707 -41.053604 452.593323
  endloop
 facet normal 0.135082 -0.977568 -0.161596
  outer loop
   vertex -29.233208 -41.046291 453.051575
   vertex -36.635525 -42.936310 458.297363
   vertex -29.598288 -41.023369 452.607727
  endloop
 facet normal 0.760827 0.206816 -0.615118
  outer loop
   vertex -29.489803 -39.480778 452.385376
   vertex -28.752882 -40.986362 452.790649
   vertex -29.286388 -40.952866 452.142029
  endloop
 facet normal 0.135081 -0.977569 -0.161592
  outer loop
   vertex -29.286388 -40.952866 452.142029
   vertex -28.752882 -40.986362 452.790649
   vertex -30.047209 -41.159679 452.757172
  endloop
 facet normal -0.634758 0.039853 -0.771682
  outer loop
   vertex -30.047209 -41.159679 452.757172
   vertex -30.250624 -39.687592 453.000519
   vertex -29.286388 -40.952866 452.142029
  endloop
 facet normal -0.760812 -0.206816 0.615135
  outer loop
   vertex -29.513702 -41.193176 453.405762
   vertex -30.250624 -39.687592 453.000519
   vertex -30.047209 -41.159679 452.757172
  endloop
 facet normal -0.760811 -0.206816 0.615137
  outer loop
   vertex -29.717115 -39.721088 453.649109
   vertex -30.250624 -39.687592 453.000519
   vertex -29.513702 -41.193176 453.405762
  endloop
 facet normal 0.634740 -0.039859 0.771697
  outer loop
   vertex -29.513702 -41.193176 453.405762
   vertex -28.752882 -40.986362 452.790649
   vertex -29.717115 -39.721088 453.649109
  endloop
 facet normal 0.634740 -0.039859 0.771697
  outer loop
   vertex -29.717115 -39.721088 453.649109
   vertex -28.752882 -40.986362 452.790649
   vertex -28.956295 -39.514275 453.033997
  endloop
 facet normal 0.760826 0.206815 -0.615119
  outer loop
   vertex -28.956295 -39.514275 453.033997
   vertex -28.752882 -40.986362 452.790649
   vertex -29.489803 -39.480778 452.385376
  endloop
 facet normal -0.135081 0.977569 0.161593
  outer loop
   vertex -29.489803 -39.480778 452.385376
   vertex -30.250624 -39.687592 453.000519
   vertex -28.956295 -39.514275 453.033997
  endloop
 facet normal -0.634758 0.039853 -0.771682
  outer loop
   vertex -29.286388 -40.952866 452.142029
   vertex -30.250624 -39.687592 453.000519
   vertex -29.489803 -39.480778 452.385376
  endloop
 facet normal 0.760812 0.206817 -0.615136
  outer loop
   vertex -36.381962 -42.881664 457.878845
   vertex -36.585377 -41.409576 458.122192
   vertex -35.848454 -42.915165 458.527435
  endloop
 facet normal 0.760812 0.206817 -0.615136
  outer loop
   vertex -35.848454 -42.915165 458.527435
   vertex -36.585377 -41.409576 458.122192
   vertex -36.051868 -41.443077 458.770782
  endloop
 facet normal 0.634759 -0.039853 0.771682
  outer loop
   vertex -36.051868 -41.443077 458.770782
   vertex -36.812687 -41.649891 459.385925
   vertex -35.848454 -42.915165 458.527435
  endloop
 facet normal -0.135075 0.977568 0.161601
  outer loop
   vertex -36.585377 -41.409576 458.122192
   vertex -36.812687 -41.649891 459.385925
   vertex -36.051868 -41.443077 458.770782
  endloop
 facet normal -0.135082 0.977568 0.161599
  outer loop
   vertex -37.346195 -41.616390 458.737305
   vertex -36.812687 -41.649891 459.385925
   vertex -36.585377 -41.409576 458.122192
  endloop
 facet normal -0.634741 0.039858 -0.771696
  outer loop
   vertex -36.585377 -41.409576 458.122192
   vertex -37.142780 -43.088478 458.493958
   vertex -37.346195 -41.616390 458.737305
  endloop
 facet normal -0.760826 -0.206816 0.615119
  outer loop
   vertex -37.346195 -41.616390 458.737305
   vertex -37.142780 -43.088478 458.493958
   vertex -36.812687 -41.649891 459.385925
  endloop
 facet normal -0.760829 -0.206814 0.615116
  outer loop
   vertex -36.812687 -41.649891 459.385925
   vertex -37.142780 -43.088478 458.493958
   vertex -36.609276 -43.121979 459.142578
  endloop
 facet normal 0.634758 -0.039855 0.771683
  outer loop
   vertex -36.609276 -43.121979 459.142578
   vertex -35.848454 -42.915165 458.527435
   vertex -36.812687 -41.649891 459.385925
  endloop
 facet normal 0.135078 -0.977569 -0.161595
  outer loop
   vertex -37.142780 -43.088478 458.493958
   vertex -35.848454 -42.915165 458.527435
   vertex -36.609276 -43.121979 459.142578
  endloop
 facet normal 0.135078 -0.977567 -0.161604
  outer loop
   vertex -36.381962 -42.881664 457.878845
   vertex -35.848454 -42.915165 458.527435
   vertex -37.142780 -43.088478 458.493958
  endloop
 facet normal -0.634741 0.039858 -0.771696
  outer loop
   vertex -37.142780 -43.088478 458.493958
   vertex -36.585377 -41.409576 458.122192
   vertex -36.381962 -42.881664 457.878845
  endloop
 facet normal -0.634747 0.039845 -0.771692
  outer loop
   vertex -36.908562 -41.622910 458.401245
   vertex -36.922440 -41.522461 458.417847
   vertex -29.885204 -39.609516 452.728210
  endloop
 facet normal -0.135087 0.977568 0.161591
  outer loop
   vertex -29.885204 -39.609516 452.728210
   vertex -36.922440 -41.522461 458.417847
   vertex -36.837753 -41.527779 458.520813
  endloop
 facet normal -0.135087 0.977568 0.161591
  outer loop
   vertex -36.837753 -41.527779 458.520813
   vertex -29.800518 -39.614834 452.831177
   vertex -29.885204 -39.609516 452.728210
  endloop
 facet normal 0.544043 0.313482 0.778297
  outer loop
   vertex -36.825844 -41.558979 458.525055
   vertex -29.800518 -39.614834 452.831177
   vertex -36.837753 -41.527779 458.520813
  endloop
 facet normal 0.544032 0.313510 0.778294
  outer loop
   vertex -29.788607 -39.646034 452.835419
   vertex -29.800518 -39.614834 452.831177
   vertex -36.825844 -41.558979 458.525055
  endloop
 facet normal -0.135083 0.977568 0.161596
  outer loop
   vertex -36.825844 -41.558979 458.525055
   vertex -36.460766 -41.581902 458.968903
   vertex -29.788607 -39.646034 452.835419
  endloop
 facet normal -0.135083 0.977568 0.161596
  outer loop
   vertex -29.788607 -39.646034 452.835419
   vertex -36.460766 -41.581902 458.968903
   vertex -29.423529 -39.668957 453.279266
  endloop
 facet normal -0.641005 0.387471 -0.662554
  outer loop
   vertex -29.423529 -39.668957 453.279266
   vertex -36.460766 -41.581902 458.968903
   vertex -36.457344 -41.551662 458.983276
  endloop
 facet normal -0.641001 0.387511 -0.662536
  outer loop
   vertex -36.457344 -41.551662 458.983276
   vertex -29.420107 -39.638721 453.293640
   vertex -29.423529 -39.668957 453.279266
  endloop
 facet normal -0.135071 0.977567 0.161610
  outer loop
   vertex -36.415325 -41.554302 459.034363
   vertex -29.420107 -39.638721 453.293640
   vertex -36.457344 -41.551662 458.983276
  endloop
 facet normal -0.135107 0.977570 0.161567
  outer loop
   vertex -29.378088 -39.641357 453.344727
   vertex -29.420107 -39.638721 453.293640
   vertex -36.415325 -41.554302 459.034363
  endloop
 facet normal 0.634748 -0.039848 0.771691
  outer loop
   vertex -36.415325 -41.554302 459.034363
   vertex -36.216515 -42.993073 458.796539
   vertex -29.378088 -39.641357 453.344727
  endloop
 facet normal 0.634748 -0.039848 0.771691
  outer loop
   vertex -29.378088 -39.641357 453.344727
   vertex -36.216515 -42.993073 458.796539
   vertex -29.179277 -41.080128 453.106903
  endloop
 facet normal 0.135104 -0.977569 -0.161570
  outer loop
   vertex -29.179277 -41.080128 453.106903
   vertex -36.216515 -42.993073 458.796539
   vertex -29.221298 -41.077492 453.055817
  endloop
 facet normal 0.135081 -0.977568 -0.161600
  outer loop
   vertex -29.513702 -41.193176 453.405762
   vertex -30.047209 -41.159679 452.757172
   vertex -28.752882 -40.986362 452.790649
  endloop
 facet normal -0.135081 0.977568 0.161600
  outer loop
   vertex -30.250624 -39.687592 453.000519
   vertex -29.717115 -39.721088 453.649109
   vertex -28.956295 -39.514275 453.033997
  endloop
 facet normal 0.135071 -0.977567 -0.161610
  outer loop
   vertex -36.216515 -42.993073 458.796539
   vertex -36.258533 -42.990433 458.745453
   vertex -29.221298 -41.077492 453.055817
  endloop
 facet normal -0.754587 0.183042 0.630154
  outer loop
   vertex -35.868687 -42.569145 461.076630
   vertex -35.233936 -42.608997 461.848297
   vertex -35.741364 -41.817326 461.010712
  endloop
 facet normal -0.754604 0.183018 0.630141
  outer loop
   vertex -35.741364 -41.817326 461.010712
   vertex -35.233936 -42.608997 461.848297
   vertex -35.106613 -41.857178 461.782410
  endloop
 facet normal -0.415963 0.824003 0.384699
  outer loop
   vertex -35.106613 -41.857178 461.782410
   vertex -35.242947 -41.384762 460.623108
   vertex -35.741364 -41.817326 461.010712
  endloop
 facet normal -0.415941 0.824014 0.384700
  outer loop
   vertex -34.608196 -41.424618 461.394775
   vertex -35.242947 -41.384762 460.623108
   vertex -35.106613 -41.857178 461.782410
  endloop
 facet normal 0.166353 0.982300 -0.086102
  outer loop
   vertex -34.665401 -41.524845 460.140808
   vertex -35.242947 -41.384762 460.623108
   vertex -34.608196 -41.424618 461.394775
  endloop
 facet normal 0.166352 0.982300 -0.086102
  outer loop
   vertex -34.608196 -41.424618 461.394775
   vertex -34.030651 -41.564697 460.912506
   vertex -34.665401 -41.524845 460.140808
  endloop
 facet normal 0.651213 0.565172 -0.506460
  outer loop
   vertex -34.665401 -41.524845 460.140808
   vertex -34.030651 -41.564697 460.912506
   vertex -34.347046 -42.155514 459.846375
  endloop
 facet normal 0.651216 0.565170 -0.506460
  outer loop
   vertex -34.347046 -42.155514 459.846375
   vertex -34.030651 -41.564697 460.912506
   vertex -33.712296 -42.195370 460.618073
  endloop
 facet normal 0.754603 -0.183018 -0.630142
  outer loop
   vertex -33.712296 -42.195370 460.618073
   vertex -34.474369 -42.907333 459.912262
   vertex -34.347046 -42.155514 459.846375
  endloop
 facet normal 0.754603 -0.183018 -0.630142
  outer loop
   vertex -33.839619 -42.947189 460.683960
   vertex -34.474369 -42.907333 459.912262
   vertex -33.712296 -42.195370 460.618073
  endloop
 facet normal 0.415952 -0.824012 -0.384693
  outer loop
   vertex -34.972786 -43.339897 460.299896
   vertex -34.474369 -42.907333 459.912262
   vertex -33.839619 -42.947189 460.683960
  endloop
 facet normal 0.415952 -0.824012 -0.384693
  outer loop
   vertex -33.839619 -42.947189 460.683960
   vertex -34.338036 -43.379753 461.071594
   vertex -34.972786 -43.339897 460.299896
  endloop
 facet normal -0.166355 -0.982300 0.086100
  outer loop
   vertex -34.972786 -43.339897 460.299896
   vertex -34.338036 -43.379753 461.071594
   vertex -35.550331 -43.199814 460.782196
  endloop
 facet normal -0.166356 -0.982299 0.086105
  outer loop
   vertex -35.550331 -43.199814 460.782196
   vertex -34.338036 -43.379753 461.071594
   vertex -34.915581 -43.239670 461.553864
  endloop
 facet normal -0.651205 -0.565173 0.506471
  outer loop
   vertex -34.915581 -43.239670 461.553864
   vertex -35.868687 -42.569145 461.076630
   vertex -35.550331 -43.199814 460.782196
  endloop
 facet normal -0.651204 -0.565170 0.506473
  outer loop
   vertex -35.233936 -42.608997 461.848297
   vertex -35.868687 -42.569145 461.076630
   vertex -34.915581 -43.239670 461.553864
  endloop
 facet normal 0.754589 -0.183036 -0.630154
  outer loop
   vertex -28.464199 -40.525406 453.808807
   vertex -29.067118 -40.297592 453.020660
   vertex -28.432369 -40.337448 453.792328
  endloop
 facet normal 0.651204 0.565174 -0.506469
  outer loop
   vertex -28.432369 -40.337448 453.792328
   vertex -29.067118 -40.297592 453.020660
   vertex -29.146706 -40.139927 453.094269
  endloop
 facet normal 0.651204 0.565174 -0.506469
  outer loop
   vertex -29.146706 -40.139927 453.094269
   vertex -28.511957 -40.179783 453.865936
   vertex -28.432369 -40.337448 453.792328
  endloop
 facet normal 0.166361 0.982298 -0.086108
  outer loop
   vertex -29.291092 -40.104904 453.214844
   vertex -28.511957 -40.179783 453.865936
   vertex -29.146706 -40.139927 453.094269
  endloop
 facet normal 0.166361 0.982298 -0.086108
  outer loop
   vertex -28.656343 -40.144760 453.986511
   vertex -28.511957 -40.179783 453.865936
   vertex -29.291092 -40.104904 453.214844
  endloop
 facet normal -0.415969 0.823990 0.384721
  outer loop
   vertex -29.291092 -40.104904 453.214844
   vertex -29.415697 -40.213047 453.311737
   vertex -28.656343 -40.144760 453.986511
  endloop
 facet normal -0.415936 0.824026 0.384680
  outer loop
   vertex -28.656343 -40.144760 453.986511
   vertex -29.415697 -40.213047 453.311737
   vertex -28.780949 -40.252903 454.083435
  endloop
 facet normal -0.754600 0.183040 0.630139
  outer loop
   vertex -28.780949 -40.252903 454.083435
   vertex -29.415697 -40.213047 453.311737
   vertex -29.447527 -40.401001 453.328217
  endloop
 facet normal -0.754600 0.183040 0.630139
  outer loop
   vertex -29.447527 -40.401001 453.328217
   vertex -28.812778 -40.440857 454.099915
   vertex -28.780949 -40.252903 454.083435
  endloop
 facet normal -0.651219 -0.565165 0.506461
  outer loop
   vertex -29.367939 -40.558670 453.254608
   vertex -28.812778 -40.440857 454.099915
   vertex -29.447527 -40.401001 453.328217
  endloop
 facet normal -0.651219 -0.565165 0.506461
  outer loop
   vertex -28.733191 -40.598526 454.026306
   vertex -28.812778 -40.440857 454.099915
   vertex -29.367939 -40.558670 453.254608
  endloop
 facet normal -0.166348 -0.982301 0.086094
  outer loop
   vertex -29.367939 -40.558670 453.254608
   vertex -29.223553 -40.593689 453.134033
   vertex -28.733191 -40.598526 454.026306
  endloop
 facet normal -0.166348 -0.982301 0.086094
  outer loop
   vertex -28.733191 -40.598526 454.026306
   vertex -29.223553 -40.593689 453.134033
   vertex -28.588804 -40.633545 453.905731
  endloop
 facet normal 0.415925 -0.824035 -0.384672
  outer loop
   vertex -28.588804 -40.633545 453.905731
   vertex -29.223553 -40.593689 453.134033
   vertex -29.098948 -40.485550 453.037109
  endloop
 facet normal 0.415925 -0.824035 -0.384672
  outer loop
   vertex -29.098948 -40.485550 453.037109
   vertex -28.464199 -40.525406 453.808807
   vertex -28.588804 -40.633545 453.905731
  endloop
 facet normal 0.754618 -0.182938 -0.630147
  outer loop
   vertex -29.067118 -40.297592 453.020660
   vertex -28.464199 -40.525406 453.808807
   vertex -29.098948 -40.485550 453.037109
  endloop
 facet normal 0.754604 -0.183019 -0.630140
  outer loop
   vertex -26.725950 -41.013470 454.932526
   vertex -27.233376 -40.221794 454.094940
   vertex -26.598627 -40.261650 454.866638
  endloop
 facet normal 0.651216 0.565170 -0.506459
  outer loop
   vertex -26.598627 -40.261650 454.866638
   vertex -27.233376 -40.221794 454.094940
   vertex -27.551731 -39.591122 454.389374
  endloop
 facet normal 0.651216 0.565170 -0.506459
  outer loop
   vertex -27.551731 -39.591122 454.389374
   vertex -26.916983 -39.630978 455.161072
   vertex -26.598627 -40.261650 454.866638
  endloop
 facet normal 0.166352 0.982301 -0.086097
  outer loop
   vertex -28.129276 -39.451042 454.871674
   vertex -26.916983 -39.630978 455.161072
   vertex -27.551731 -39.591122 454.389374
  endloop
 facet normal 0.166353 0.982300 -0.086101
  outer loop
   vertex -27.494528 -39.490898 455.643341
   vertex -26.916983 -39.630978 455.161072
   vertex -28.129276 -39.451042 454.871674
  endloop
 facet normal -0.415952 0.824005 0.384708
  outer loop
   vertex -28.129276 -39.451042 454.871674
   vertex -28.627693 -39.883602 455.259277
   vertex -27.494528 -39.490898 455.643341
  endloop
 facet normal -0.415949 0.824014 0.384691
  outer loop
   vertex -27.494528 -39.490898 455.643341
   vertex -28.627693 -39.883602 455.259277
   vertex -27.992945 -39.923458 456.030975
  endloop
 facet normal -0.754600 0.183043 0.630138
  outer loop
   vertex -27.992945 -39.923458 456.030975
   vertex -28.627693 -39.883602 455.259277
   vertex -28.755016 -40.635422 455.325195
  endloop
 facet normal -0.754600 0.183043 0.630138
  outer loop
   vertex -28.755016 -40.635422 455.325195
   vertex -28.120268 -40.675278 456.096893
   vertex -27.992945 -39.923458 456.030975
  endloop
 facet normal -0.651216 -0.565170 0.506459
  outer loop
   vertex -28.436661 -41.266094 455.030762
   vertex -28.120268 -40.675278 456.096893
   vertex -28.755016 -40.635422 455.325195
  endloop
 facet normal -0.651216 -0.565170 0.506459
  outer loop
   vertex -27.801912 -41.305950 455.802460
   vertex -28.120268 -40.675278 456.096893
   vertex -28.436661 -41.266094 455.030762
  endloop
 facet normal -0.166355 -0.982300 0.086100
  outer loop
   vertex -28.436661 -41.266094 455.030762
   vertex -27.859116 -41.406178 454.548462
   vertex -27.801912 -41.305950 455.802460
  endloop
 facet normal -0.166355 -0.982300 0.086100
  outer loop
   vertex -27.801912 -41.305950 455.802460
   vertex -27.859116 -41.406178 454.548462
   vertex -27.224367 -41.446033 455.320160
  endloop
 facet normal 0.415952 -0.824012 -0.384693
  outer loop
   vertex -27.224367 -41.446033 455.320160
   vertex -27.859116 -41.406178 454.548462
   vertex -27.360699 -40.973614 454.160828
  endloop
 facet normal 0.415952 -0.824012 -0.384693
  outer loop
   vertex -27.360699 -40.973614 454.160828
   vertex -26.725950 -41.013470 454.932526
   vertex -27.224367 -41.446033 455.320160
  endloop
 facet normal 0.754604 -0.183019 -0.630140
  outer loop
   vertex -27.233376 -40.221794 454.094940
   vertex -26.725950 -41.013470 454.932526
   vertex -27.360699 -40.973614 454.160828
  endloop
 facet normal 0.258723 -0.127726 -0.957470
  outer loop
   vertex -27.360699 -40.973614 454.160828
   vertex -28.438740 -40.337048 453.784607
   vertex -27.233376 -40.221794 454.094940
  endloop
 facet normal 0.173746 0.487252 -0.855803
  outer loop
   vertex -27.233376 -40.221794 454.094940
   vertex -28.438740 -40.337048 453.784607
   vertex -28.518330 -40.179382 453.858215
  endloop
 facet normal 0.173746 0.487244 -0.855807
  outer loop
   vertex -28.518330 -40.179382 453.858215
   vertex -27.551731 -39.591122 454.389374
   vertex -27.233376 -40.221794 454.094940
  endloop
 facet normal -0.224733 0.830082 -0.510352
  outer loop
   vertex -28.662716 -40.144360 453.978760
   vertex -27.551731 -39.591122 454.389374
   vertex -28.518330 -40.179382 453.858215
  endloop
 facet normal -0.224781 0.830118 -0.510271
  outer loop
   vertex -28.129276 -39.451042 454.871674
   vertex -27.551731 -39.591122 454.389374
   vertex -28.662716 -40.144360 453.978760
  endloop
 facet normal -0.703425 0.699996 -0.123287
  outer loop
   vertex -28.662716 -40.144360 453.978760
   vertex -28.787319 -40.252502 454.075684
   vertex -28.129276 -39.451042 454.871674
  endloop
 facet normal -0.703409 0.700007 -0.123311
  outer loop
   vertex -28.129276 -39.451042 454.871674
   vertex -28.787319 -40.252502 454.075684
   vertex -28.627693 -39.883602 455.259277
  endloop
 facet normal -0.981767 0.173149 0.078440
  outer loop
   vertex -28.627693 -39.883602 455.259277
   vertex -28.787319 -40.252502 454.075684
   vertex -28.819151 -40.440456 454.092163
  endloop
 facet normal -0.981768 0.173143 0.078443
  outer loop
   vertex -28.819151 -40.440456 454.092163
   vertex -28.755016 -40.635422 455.325195
   vertex -28.627693 -39.883602 455.259277
  endloop
 facet normal -0.896788 -0.441850 -0.023219
  outer loop
   vertex -28.739561 -40.598125 454.018555
   vertex -28.755016 -40.635422 455.325195
   vertex -28.819151 -40.440456 454.092163
  endloop
 facet normal -0.896789 -0.441848 -0.023219
  outer loop
   vertex -28.436661 -41.266094 455.030762
   vertex -28.755016 -40.635422 455.325195
   vertex -28.739561 -40.598125 454.018555
  endloop
 facet normal -0.498252 -0.784713 -0.368742
  outer loop
   vertex -28.739561 -40.598125 454.018555
   vertex -28.595175 -40.633144 453.897980
   vertex -28.436661 -41.266094 455.030762
  endloop
 facet normal -0.498260 -0.784710 -0.368739
  outer loop
   vertex -28.436661 -41.266094 455.030762
   vertex -28.595175 -40.633144 453.897980
   vertex -27.859116 -41.406178 454.548462
  endloop
 facet normal -0.019686 -0.654633 -0.755690
  outer loop
   vertex -27.859116 -41.406178 454.548462
   vertex -28.595175 -40.633144 453.897980
   vertex -28.470572 -40.525005 453.801056
  endloop
 facet normal -0.019623 -0.654609 -0.755713
  outer loop
   vertex -28.470572 -40.525005 453.801056
   vertex -27.360699 -40.973614 454.160828
   vertex -27.859116 -41.406178 454.548462
  endloop
 facet normal 0.258785 -0.127619 -0.957467
  outer loop
   vertex -28.438740 -40.337048 453.784607
   vertex -27.360699 -40.973614 454.160828
   vertex -28.470572 -40.525005 453.801056
  endloop
 facet normal -0.754589 0.183040 0.630152
  outer loop
   vertex -36.561195 -42.334721 459.079651
   vertex -35.926449 -42.374577 459.851318
   vertex -36.529366 -42.146767 459.063171
  endloop
 facet normal -0.754618 0.182942 0.630146
  outer loop
   vertex -36.529366 -42.146767 459.063171
   vertex -35.926449 -42.374577 459.851318
   vertex -35.894619 -42.186623 459.834869
  endloop
 facet normal -0.415939 0.824023 0.384682
  outer loop
   vertex -35.894619 -42.186623 459.834869
   vertex -36.404762 -42.038624 458.966248
   vertex -36.529366 -42.146767 459.063171
  endloop
 facet normal -0.415933 0.824028 0.384679
  outer loop
   vertex -35.770012 -42.078480 459.737946
   vertex -36.404762 -42.038624 458.966248
   vertex -35.894619 -42.186623 459.834869
  endloop
 facet normal 0.166363 0.982298 -0.086107
  outer loop
   vertex -36.260376 -42.073647 458.845673
   vertex -36.404762 -42.038624 458.966248
   vertex -35.770012 -42.078480 459.737946
  endloop
 facet normal 0.166363 0.982298 -0.086107
  outer loop
   vertex -35.770012 -42.078480 459.737946
   vertex -35.625626 -42.113503 459.617371
   vertex -36.260376 -42.073647 458.845673
  endloop
 facet normal 0.651244 0.565113 -0.506486
  outer loop
   vertex -36.260376 -42.073647 458.845673
   vertex -35.625626 -42.113503 459.617371
   vertex -36.180786 -42.231312 458.772095
  endloop
 facet normal 0.651208 0.565169 -0.506470
  outer loop
   vertex -36.180786 -42.231312 458.772095
   vertex -35.625626 -42.113503 459.617371
   vertex -35.546040 -42.271168 459.543762
  endloop
 facet normal 0.754606 -0.182937 -0.630161
  outer loop
   vertex -35.546040 -42.271168 459.543762
   vertex -36.212616 -42.419270 458.788544
   vertex -36.180786 -42.231312 458.772095
  endloop
 facet normal 0.754602 -0.183037 -0.630138
  outer loop
   vertex -35.577869 -42.459126 459.560242
   vertex -36.212616 -42.419270 458.788544
   vertex -35.546040 -42.271168 459.543762
  endloop
 facet normal 0.415923 -0.824037 -0.384669
  outer loop
   vertex -36.337223 -42.527409 458.885468
   vertex -36.212616 -42.419270 458.788544
   vertex -35.577869 -42.459126 459.560242
  endloop
 facet normal 0.415928 -0.824033 -0.384675
  outer loop
   vertex -35.577869 -42.459126 459.560242
   vertex -35.702473 -42.567265 459.657166
   vertex -36.337223 -42.527409 458.885468
  endloop
 facet normal -0.166350 -0.982301 0.086096
  outer loop
   vertex -36.337223 -42.527409 458.885468
   vertex -35.702473 -42.567265 459.657166
   vertex -36.481606 -42.492390 459.006042
  endloop
 facet normal -0.166357 -0.982299 0.086104
  outer loop
   vertex -36.481606 -42.492390 459.006042
   vertex -35.702473 -42.567265 459.657166
   vertex -35.846859 -42.532246 459.777710
  endloop
 facet normal -0.651207 -0.565170 0.506470
  outer loop
   vertex -35.846859 -42.532246 459.777710
   vertex -36.561195 -42.334721 459.079651
   vertex -36.481606 -42.492390 459.006042
  endloop
 facet normal -0.651207 -0.565170 0.506470
  outer loop
   vertex -35.926449 -42.374577 459.851318
   vertex -36.561195 -42.334721 459.079651
   vertex -35.846859 -42.532246 459.777710
  endloop
 facet normal -0.896789 -0.441849 -0.023222
  outer loop
   vertex -35.853230 -42.531845 459.769989
   vertex -35.550331 -43.199814 460.782196
   vertex -35.932819 -42.374176 459.843597
  endloop
 facet normal -0.896789 -0.441849 -0.023222
  outer loop
   vertex -35.932819 -42.374176 459.843597
   vertex -35.550331 -43.199814 460.782196
   vertex -35.868687 -42.569145 461.076630
  endloop
 facet normal -0.981769 0.173139 0.078441
  outer loop
   vertex -35.868687 -42.569145 461.076630
   vertex -35.900990 -42.186222 459.827118
   vertex -35.932819 -42.374176 459.843597
  endloop
 facet normal -0.981768 0.173143 0.078442
  outer loop
   vertex -35.741364 -41.817326 461.010712
   vertex -35.900990 -42.186222 459.827118
   vertex -35.868687 -42.569145 461.076630
  endloop
 facet normal -0.703429 0.699989 -0.123301
  outer loop
   vertex -35.776386 -42.078079 459.730194
   vertex -35.900990 -42.186222 459.827118
   vertex -35.741364 -41.817326 461.010712
  endloop
 facet normal -0.703410 0.700007 -0.123305
  outer loop
   vertex -35.741364 -41.817326 461.010712
   vertex -35.242947 -41.384762 460.623108
   vertex -35.776386 -42.078079 459.730194
  endloop
 facet normal -0.224766 0.830117 -0.510280
  outer loop
   vertex -35.776386 -42.078079 459.730194
   vertex -35.242947 -41.384762 460.623108
   vertex -35.631996 -42.113102 459.609619
  endloop
 facet normal -0.224779 0.830117 -0.510275
  outer loop
   vertex -35.631996 -42.113102 459.609619
   vertex -35.242947 -41.384762 460.623108
   vertex -34.665401 -41.524845 460.140808
  endloop
 facet normal 0.173764 0.487254 -0.855797
  outer loop
   vertex -34.665401 -41.524845 460.140808
   vertex -35.552410 -42.270767 459.536011
   vertex -35.631996 -42.113102 459.609619
  endloop
 facet normal 0.173766 0.487253 -0.855798
  outer loop
   vertex -34.347046 -42.155514 459.846375
   vertex -35.552410 -42.270767 459.536011
   vertex -34.665401 -41.524845 460.140808
  endloop
 facet normal 0.258748 -0.127764 -0.957458
  outer loop
   vertex -35.584240 -42.458725 459.552490
   vertex -35.552410 -42.270767 459.536011
   vertex -34.347046 -42.155514 459.846375
  endloop
 facet normal 0.258741 -0.127728 -0.957465
  outer loop
   vertex -34.347046 -42.155514 459.846375
   vertex -34.474369 -42.907333 459.912262
   vertex -35.584240 -42.458725 459.552490
  endloop
 facet normal -0.019654 -0.654654 -0.755673
  outer loop
   vertex -35.584240 -42.458725 459.552490
   vertex -34.474369 -42.907333 459.912262
   vertex -35.708843 -42.566864 459.649414
  endloop
 facet normal -0.019631 -0.654603 -0.755718
  outer loop
   vertex -35.708843 -42.566864 459.649414
   vertex -34.474369 -42.907333 459.912262
   vertex -34.972786 -43.339897 460.299896
  endloop
 facet normal -0.498255 -0.784709 -0.368746
  outer loop
   vertex -34.972786 -43.339897 460.299896
   vertex -35.853230 -42.531845 459.769989
   vertex -35.708843 -42.566864 459.649414
  endloop
 facet normal -0.498259 -0.784710 -0.368739
  outer loop
   vertex -35.550331 -43.199814 460.782196
   vertex -35.853230 -42.531845 459.769989
   vertex -34.972786 -43.339897 460.299896
  endloop
endsolid